<svg width="47" height="43" fill="none" xmlns="http://www.w3.org/2000/svg"><circle cx="23.877" cy="20.877" r="20.251" fill="url(#paint0_radial)" stroke="#fff" stroke-width="1.253"/><g filter="url(#filter0_d)" fill="#fff"><path d="M18.987 25.02a3.14 3.14 0 0 1-.213-1.312c.045-.85.248-1.657.715-2.38a3.384 3.384 0 0 1 2.18-1.51c.263-.059.537-.1.805-.095.364.006.683.142.879.479.145.25.185.525.16.808-.083.887-.621 1.48-1.299 1.975a3.82 3.82 0 0 1-1.1.55c-.108.035-.166.084-.148.194.028.168.045.34.103.498.06.16.187.246.379.252.378.011.718-.103 1.05-.261.522-.249.89-.666 1.23-1.115.12-.159.104-.354.123-.536.068-.632.124-1.265.184-1.898.034-.363.075-.725.098-1.089.008-.13.046-.2.177-.225.608-.123 1.215-.25 1.822-.374.037-.007.075 0 .142 0-.012.161-.021.312-.036.463-.027.285-.057.57-.086.856-.078.755-.158 1.51-.232 2.267-.02.2-.03.402-.031.604-.002.215.103.282.319.228.4-.1.649-.381.852-.712.263-.427.445-.888.535-1.38.07-.374.12-.75.174-1.126.013-.09.002-.183.002-.296-.082.009-.145.002-.197.023-.431.165-.89-.364-.759-.823.074-.259.253-.422.492-.523.231-.097.47-.161.724-.107.404.086.593.377.674.748.172.789.105 1.573-.07 2.354-.157.705-.415 1.362-.844 1.948-.57.777-1.327 1.239-2.28 1.397a1.953 1.953 0 0 1-.94-.067 1.079 1.079 0 0 1-.63-.553l-.085-.163c-.083.09-.158.164-.224.245-.374.46-.854.78-1.362 1.076-.764.445-1.608.626-2.453.81-.462.1-.928.185-1.395.254a9.717 9.717 0 0 1-1.134.108c-.257.008-.422.088-.573.308-.339.49-.703.966-1.08 1.429a4.094 4.094 0 0 1-1.67 1.23c-2.343.977-4.976.212-4.59-2.176.33-1.378 1.203-2.265 2.519-2.729.825-.29 1.683-.345 2.551-.264.062.006.124.009.186.01.271.01.287-.002.306-.276.008-.124.005-.25.001-.373-.011-.326-.026-.652-.039-.978-.032-.822-.061-1.644-.1-2.466-.013-.295-.046-.588-.078-.881-.02-.194-.027-.195-.232-.196-.319-.003-.639.018-.956-.007-.724-.058-1.329-.338-1.644-1.039-.216-.482-.161-.97.068-1.44.016-.034.041-.065.065-.095.168-.216.366-.26.585-.104.202.144.384.316.577.471.273.22.57.375.937.348.279-.021.357-.078.396-.35.071-.492.12-.986.201-1.475.161-.967.421-1.898 1.086-2.659.478-.548 1.074-.902 1.803-.963.615-.053 1.133.2 1.493.699.68.941.738 1.948.238 2.99-.227.474-.581.86-.899 1.27-.29.375-.594.738-.878 1.116-.167.224-.316.47-.338.756-.015.206.007.417.026.624.055.587.11 1.173.178 1.758.055.471.107.941.081 1.416-.023.426-.048.852-.079 1.277-.024.333-.06.664-.09.996-.008.08.014.137.104.15.046.006.09.03.136.03.457.002.914 0 1.408 0zm-4.374 1.346c-.514-.108-1.022-.166-1.531-.1-.242.031-.477.125-.71.203-.146.05-.283.126-.426.186-.345.147-.583.41-.75.733-.225.44.028.914.512 1.01.497.096.962-.005 1.39-.243.688-.38 1.16-.967 1.491-1.672.016-.032.015-.072.024-.117zm2.33-10.395c.124-.163.234-.301.337-.445.281-.393.531-.804.661-1.275.077-.276.076-.552-.058-.815-.088-.174-.216-.213-.38-.1a.586.586 0 0 0-.174.183c-.076.134-.157.274-.193.421-.087.353-.166.71-.215 1.069-.041.304-.097.616.022.962zm4.04 6.723c.019.009.026.015.032.014.022-.004.046-.006.066-.016.452-.212.783-.55 1.005-.992.146-.292.183-.607.11-.927-.038-.163-.1-.189-.252-.123a.873.873 0 0 0-.375.336c-.348.519-.486 1.108-.586 1.708zM34.876 17.189v.265c.056-.036.1-.058.137-.088a2.34 2.34 0 0 1 1.443-.525c.776-.016 1.268.342 1.35 1.19.05.53-.031 1.054-.109 1.577-.044.3-.106.6-.104.9.002.434.087.552.528.425.159-.046.3-.148.447-.223.14.654-.236 1.332-.871 1.613a2.139 2.139 0 0 1-.95.19c-.686-.023-1.08-.538-1.127-1.091a5.648 5.648 0 0 1 .059-1.347c.062-.398.085-.802.114-1.203a.975.975 0 0 0-.046-.32c-.068-.243-.203-.302-.44-.202-.212.09-.34.26-.442.459-.17.326-.192.683-.228 1.038-.076.748-.153 1.495-.227 2.244-.022.231-.032.464-.053.696-.019.206-.05.236-.246.277l-1.75.366c-.037.008-.076.001-.143.001.01-.111.018-.213.028-.346-.077.05-.136.083-.187.124a2.89 2.89 0 0 1-1.57.647c-.664.062-1.25-.226-1.413-1.016a2.859 2.859 0 0 1-.007-1.04c.076-.475.137-.951.202-1.427.015-.11.052-.181.178-.206.419-.082.834-.177 1.251-.264.226-.048.453-.091.705-.141 0 .105.01.19-.001.27-.071.507-.149 1.012-.22 1.519a3.884 3.884 0 0 0-.046.531c0 .209.068.262.276.243.314-.03.548-.2.735-.444.176-.229.26-.494.29-.776.063-.6.123-1.203.179-1.805.04-.44.07-.88.106-1.321.007-.077.028-.153.032-.23.007-.118.083-.155.182-.175l1.71-.348c.066-.014.135-.022.228-.037z"/><path d="M28.893 15.09c-.068-.049-.162-.09-.159-.12.01-.093.032-.215.097-.264.08-.062.107-.117.111-.208.003-.077.032-.153.03-.23-.005-.177.081-.26.248-.304.223-.059.44-.139.694-.221l-.072.72.266-.037c.055.229.033.291-.155.357-.108.039-.142.114-.152.21-.024.224-.044.448-.064.672-.015.154-.033.309-.04.463-.008.175.073.224.23.146.14-.071.196-.184.187-.343a1.953 1.953 0 0 1 .29-1.156c.267-.438.679-.653 1.176-.697a.545.545 0 0 1 .569.326c.033.069.064.139.095.206.284-.043.313-.075.338-.321.013-.124.017-.254.062-.366.058-.142.221-.075.333-.117a1.95 1.95 0 0 1 .431-.091c.044-.006.095.04.159.071.108-.055.242-.132.383-.192.179-.076.337-.018.466.114.094.095.107.29.042.417-.066.13-.313.295-.44.257-.102-.03-.185-.12-.293-.193-.203.06-.24.108-.261.335-.043.48-.09.958-.133 1.437-.007.08-.013.164-.107.185-.261.059-.525.11-.82.17l.12-1.366c-.248.03-.255.039-.266.282-.023.526-.238.951-.695 1.22-.395.232-.815.286-1.28.005-.022.035-.047.093-.088.136a1.27 1.27 0 0 1-.544.346c-.387.119-.566.072-.833-.245-.065.065-.128.13-.193.193a1.647 1.647 0 0 1-1.285.497.61.61 0 0 1-.582-.483c-.042-.196-.087-.395-.023-.598.009-.027.002-.058.002-.089-.181-.017-.17.101-.173.211a1.508 1.508 0 0 1-.297.89c-.325.44-.765.611-1.303.539-.357-.048-.505-.29-.535-.562-.068-.622.07-1.194.563-1.626a1.32 1.32 0 0 1 1.033-.339c.224.023.366.152.448.356l.069.169a.565.565 0 0 0 .441-.311c.218-.4.572-.63 1.016-.704a1.13 1.13 0 0 1 .455.033c.153.039.258.244.25.41a.39.39 0 0 1-.286.358c-.193.06-.279-.008-.277-.209 0-.06-.038-.122-.058-.183-.064.035-.156.054-.186.108a1.692 1.692 0 0 0-.178.427c-.066.27-.123.547-.04.826.044.148.084.179.232.163.387-.04.651-.267.856-.578a.201.201 0 0 0 .03-.087c.033-.316.064-.633.095-.949.003-.03 0-.06 0-.066zm2.144.497c.007.072.006.159.025.24.05.22.209.267.364.1.076-.082.124-.194.169-.3.035-.084.04-.18.068-.27.033-.104.032-.189-.06-.27-.11-.101-.115-.23-.053-.363.016-.035.042-.07.044-.106a.147.147 0 0 0-.035-.1c-.014-.014-.068-.013-.085.002-.079.072-.175.139-.221.23-.13.256-.198.534-.216.837zm-5.683 1.23c0 .069-.015.143.004.208.022.075.06.18.117.202.063.024.161-.023.234-.058a.224.224 0 0 0 .098-.125c.06-.191.114-.385.163-.58.008-.03-.003-.083-.026-.102-.17-.141-.162-.3-.065-.478.014-.026.014-.083-.005-.1-.021-.022-.084-.035-.103-.02-.077.061-.165.122-.21.205a1.616 1.616 0 0 0-.207.847z"/><path d="M21.903 15.618c-.426.341-.5.69-.286 1.265-.215.047-.434.098-.619-.035-.178-.128-.203-.34-.157-.55.049-.225.161-.422.323-.583.59-.586 1.298-.908 2.135-.844.564.043.883.338 1.019.928.164.715.016 1.392-.376 2.003-.23.359-.559.606-1.015.604-.107 0-.214-.03-.327-.047-.265.235-.619.189-.961.293-.05-.359.066-.68.076-1.008.01-.332.059-.663.09-.994l.098-1.032zm.894-.325c.014.044.03.066.027.086-.034.386-.07.772-.106 1.158-.037.394-.079.787-.111 1.18-.015.185.046.228.22.169.205-.07.33-.223.424-.41.108-.218.14-.457.19-.692.081-.377.031-.743-.057-1.106-.065-.269-.278-.441-.539-.43-.27.01-.522.1-.746.265l.698-.22zM31.604 18.682a.873.873 0 0 1-.324.719c-.384.328-.816.48-1.333.325-.467-.142-.826-.665-.58-1.218.309-.695 1.33-1.018 1.946-.48a.824.824 0 0 1 .291.654z"/></g><defs><filter id="filter0_d" x=".986" y="7.754" width="45.962" height="34.765" filterUnits="userSpaceOnUse" color-interpolation-filters="sRGB"><feFlood flood-opacity="0" result="BackgroundImageFix"/><feColorMatrix in="SourceAlpha" values="0 0 0 0 0 0 0 0 0 0 0 0 0 0 0 0 0 0 127 0"/><feOffset dy="4.175"/><feGaussianBlur stdDeviation="4.175"/><feColorMatrix values="0 0 0 0 0.111806 0 0 0 0 0.450991 0 0 0 0 0.670833 0 0 0 0.8 0"/><feBlend in2="BackgroundImageFix" result="effect1_dropShadow"/><feBlend in="SourceGraphic" in2="effect1_dropShadow" result="shape"/></filter><radialGradient id="paint0_radial" cx="0" cy="0" r="1" gradientUnits="userSpaceOnUse" gradientTransform="translate(23.877 20.877) scale(20.8772)"><stop stop-color="#23AAED"/><stop offset=".304" stop-color="#22A6E9"/><stop offset=".633" stop-color="#1D99DD"/><stop offset=".973" stop-color="#1783C9"/><stop offset="1" stop-color="#1681C7"/></radialGradient></defs></svg>