<svg width="75" height="75" fill="none" xmlns="http://www.w3.org/2000/svg"><circle cx="37.683" cy="37.417" r="36.683" fill="url(#paint0_radial)"/><g filter="url(#filter0_d)" fill="#fff"><path d="M29.09 44.695a5.518 5.518 0 0 1-.375-2.305c.08-1.494.437-2.913 1.257-4.181.91-1.406 2.2-2.29 3.831-2.654a6.117 6.117 0 0 1 1.415-.167c.639.01 1.2.249 1.544.84.255.441.325.923.28 1.42-.145 1.56-1.09 2.6-2.281 3.472-.588.43-1.24.744-1.933.965-.19.062-.292.148-.26.342.048.294.078.598.18.874.105.28.329.433.666.443.664.02 1.262-.181 1.846-.46.917-.435 1.565-1.168 2.16-1.957.211-.279.183-.623.218-.942.119-1.11.217-2.223.322-3.335.06-.637.132-1.274.172-1.913.014-.228.081-.35.31-.397 1.069-.214 2.136-.438 3.203-.656.064-.013.133-.001.25-.001-.022.285-.038.55-.063.814-.048.502-.1 1.003-.153 1.504-.136 1.327-.276 2.655-.407 3.983-.034.352-.05.708-.054 1.062-.004.379.18.496.56.4.702-.177 1.14-.67 1.498-1.25.46-.75.78-1.561.94-2.427.121-.655.212-1.316.305-1.977.023-.158.004-.322.004-.52-.145.016-.255.005-.347.04-.757.291-1.563-.639-1.332-1.446.13-.454.443-.742.864-.918.406-.17.825-.284 1.271-.189.71.152 1.043.664 1.185 1.315.302 1.386.184 2.763-.122 4.136-.276 1.238-.73 2.393-1.484 3.423-1.001 1.366-2.332 2.177-4.005 2.455a3.43 3.43 0 0 1-1.654-.117c-.502-.163-.862-.507-1.106-.972l-.15-.288c-.145.159-.277.289-.393.432-.658.808-1.5 1.369-2.392 1.89-1.343.783-2.827 1.099-4.311 1.423-.811.177-1.63.325-2.451.447-.66.098-1.327.17-1.992.189-.453.013-.742.155-1.008.54a39.709 39.709 0 0 1-1.896 2.512 7.194 7.194 0 0 1-2.937 2.162c-4.116 1.716-8.742.372-8.065-3.824.583-2.422 2.115-3.98 4.427-4.794 1.451-.511 2.958-.606 4.483-.464.109.01.218.015.327.018.476.016.504-.004.537-.487.015-.218.01-.437.002-.655-.02-.573-.045-1.145-.068-1.717-.057-1.445-.108-2.89-.175-4.335-.024-.517-.081-1.032-.138-1.547-.037-.34-.048-.342-.408-.345-.56-.004-1.123.032-1.68-.012-1.272-.102-2.334-.593-2.888-1.825-.38-.848-.284-1.703.118-2.53.03-.06.073-.115.115-.168.295-.38.643-.458 1.03-.182.353.253.673.555 1.013.828.48.385 1 .658 1.645.61.49-.036.628-.136.697-.615.124-.863.21-1.732.353-2.592.282-1.698.74-3.333 1.907-4.671.84-.963 1.889-1.585 3.169-1.693 1.081-.091 1.991.354 2.624 1.23 1.195 1.653 1.295 3.422.418 5.253-.4.832-1.022 1.51-1.58 2.232-.509.658-1.044 1.295-1.543 1.961-.294.393-.555.824-.593 1.327-.027.363.01.733.044 1.097.097 1.03.192 2.062.313 3.09.098.827.189 1.653.143 2.487-.04.749-.084 1.497-.139 2.244-.043.584-.105 1.167-.16 1.75-.013.142.026.24.185.262.08.012.16.053.239.053.803.004 1.606.003 2.474.003zm-7.685 2.364c-.903-.189-1.795-.29-2.69-.174-.425.054-.838.219-1.248.357-.257.086-.498.22-.748.326-.607.258-1.025.719-1.317 1.287-.397.773.048 1.608.899 1.774.873.17 1.69-.008 2.443-.425 1.208-.67 2.038-1.699 2.62-2.938.026-.057.026-.126.041-.207zM25.5 28.795c.218-.287.412-.53.592-.782.494-.69.933-1.413 1.162-2.24.134-.484.133-.97-.102-1.433-.156-.306-.38-.373-.668-.174a1.03 1.03 0 0 0-.305.321c-.134.236-.277.48-.34.74-.152.62-.291 1.246-.377 1.878-.073.534-.171 1.082.038 1.69zm7.1 11.813c.032.015.044.026.055.025.04-.007.081-.012.117-.028.793-.373 1.375-.967 1.764-1.743a2.38 2.38 0 0 0 .193-1.629c-.065-.287-.176-.332-.442-.217-.285.122-.488.338-.658.59-.612.912-.854 1.947-1.03 3.002zM57.009 30.933v.467c.098-.063.175-.103.24-.156a4.11 4.11 0 0 1 2.535-.922c1.365-.028 2.23.602 2.373 2.093.09.929-.055 1.85-.191 2.77-.078.525-.187 1.054-.184 1.581.005.762.154.969.93.746.277-.08.527-.26.785-.392.245 1.15-.416 2.342-1.532 2.835a3.756 3.756 0 0 1-1.67.335c-1.204-.041-1.897-.947-1.98-1.919a9.919 9.919 0 0 1 .104-2.366c.11-.699.151-1.408.202-2.114.013-.185-.032-.38-.082-.563-.119-.427-.356-.53-.772-.355-.374.158-.597.459-.778.807-.298.573-.336 1.2-.4 1.823-.133 1.315-.269 2.629-.398 3.944-.04.407-.058.816-.094 1.223-.033.362-.089.416-.432.487-1.026.215-2.05.43-3.077.643-.063.013-.132.002-.25.002l.05-.609c-.136.09-.239.146-.329.219a5.076 5.076 0 0 1-2.759 1.136c-1.167.109-2.195-.397-2.482-1.785-.127-.61-.11-1.215-.012-1.828.132-.833.24-1.67.355-2.507.026-.193.09-.318.313-.361.735-.144 1.465-.311 2.198-.465.397-.084.795-.16 1.238-.248 0 .186.017.333-.002.475-.125.89-.261 1.779-.385 2.67-.043.308-.082.621-.081.933 0 .366.118.46.483.426.553-.052.964-.351 1.293-.78.308-.401.456-.867.508-1.362.111-1.057.218-2.114.315-3.172.071-.773.123-1.548.187-2.322.011-.135.049-.269.056-.404.012-.208.145-.272.32-.307 1.001-.203 2.002-.41 3.003-.613.118-.023.238-.038.402-.065z"/><path d="M46.496 27.25c-.12-.087-.285-.158-.279-.211.018-.164.057-.378.17-.465.141-.108.188-.206.196-.365.006-.135.056-.27.052-.404-.008-.312.143-.458.435-.535.392-.102.774-.244 1.22-.388l-.127 1.267.469-.066c.096.4.057.511-.273.627-.19.068-.25.2-.267.37-.042.392-.077.786-.114 1.18-.025.27-.057.541-.07.813-.014.308.129.395.404.256.246-.124.346-.322.329-.602a3.433 3.433 0 0 1 .51-2.03c.47-.77 1.193-1.15 2.066-1.226.434-.039.798.152 1 .573.058.121.113.244.167.362.5-.076.55-.131.595-.565.022-.217.028-.446.108-.643.101-.249.389-.131.586-.205.24-.089.501-.128.757-.16.077-.01.166.072.278.125.19-.096.426-.231.673-.337.315-.134.593-.031.82.2.165.167.187.508.073.733-.116.229-.55.517-.773.451-.178-.053-.326-.21-.515-.34-.356.106-.423.19-.458.59-.076.842-.157 1.683-.233 2.524-.013.142-.023.289-.188.326-.46.103-.923.193-1.44.3l.208-2.402c-.434.052-.447.068-.466.496-.04.923-.42 1.67-1.22 2.142-.696.41-1.433.504-2.249.01-.04.062-.084.164-.157.24a2.232 2.232 0 0 1-.955.607c-.68.209-.994.127-1.463-.431-.115.115-.226.229-.34.34-.628.613-1.374.918-2.257.873-.505-.027-.917-.353-1.023-.848-.074-.345-.153-.696-.04-1.052.015-.047.002-.102.002-.155-.317-.03-.299.177-.303.37a2.65 2.65 0 0 1-.521 1.565c-.572.77-1.346 1.073-2.29.946-.628-.085-.888-.51-.94-.988-.12-1.093.121-2.097.99-2.857.514-.45 1.122-.663 1.814-.595.394.04.643.268.787.625l.12.297a.992.992 0 0 0 .777-.547c.382-.702 1.005-1.105 1.785-1.236a1.99 1.99 0 0 1 .8.057c.267.069.451.429.437.72a.686.686 0 0 1-.5.63c-.341.107-.492-.015-.488-.367 0-.107-.066-.215-.102-.322-.112.061-.273.095-.327.19-.133.235-.25.49-.313.75-.116.476-.216.96-.07 1.452.077.259.147.314.408.287.68-.072 1.145-.47 1.505-1.017a.354.354 0 0 0 .05-.153c.059-.555.114-1.11.17-1.667.005-.053 0-.106 0-.116zm3.767.873c.012.126.01.278.044.422.09.385.367.468.64.175.134-.144.219-.341.296-.526.062-.15.072-.319.12-.474.058-.184.056-.333-.104-.477-.195-.177-.203-.403-.094-.637.029-.061.074-.122.078-.186a.258.258 0 0 0-.063-.176c-.023-.025-.118-.023-.148.004-.139.126-.308.243-.39.403-.229.45-.348.94-.379 1.472zm-9.986 2.159c0 .123-.026.253.007.366.04.133.105.317.207.356.11.042.283-.04.41-.102a.395.395 0 0 0 .173-.22c.107-.336.2-.676.287-1.018.014-.054-.007-.147-.046-.18-.3-.248-.286-.528-.115-.84.026-.046.024-.145-.008-.177-.038-.037-.147-.06-.182-.033-.135.107-.29.214-.37.359-.252.46-.382.959-.363 1.489z"/><path d="M34.214 28.177c-.749.6-.878 1.214-.503 2.222-.377.083-.762.172-1.087-.06-.313-.226-.357-.598-.276-.966a2.05 2.05 0 0 1 .568-1.026c1.036-1.03 2.28-1.595 3.752-1.482.99.075 1.551.593 1.79 1.63.288 1.256.029 2.446-.66 3.52-.405.63-.983 1.064-1.785 1.06-.188 0-.376-.052-.574-.081-.465.412-1.088.331-1.689.514-.087-.63.116-1.195.134-1.77.019-.584.103-1.166.158-1.748l.172-1.813zm1.57-.57c.026.076.052.115.05.15-.061.68-.124 1.357-.188 2.035-.065.692-.139 1.382-.196 2.075-.026.323.081.4.389.295.36-.121.58-.392.743-.72.191-.384.247-.802.336-1.216.141-.662.053-1.305-.102-1.944-.114-.472-.488-.775-.946-.756a2.33 2.33 0 0 0-1.311.466l1.226-.385zM51.26 33.56c.021.516-.196.944-.569 1.263-.675.576-1.434.845-2.343.57-.821-.248-1.45-1.167-1.018-2.14.542-1.22 2.337-1.788 3.418-.843.337.295.516.675.512 1.15z"/></g><defs><filter id="filter0_d" x=".891" y="16.073" width="73.9" height="54.225" filterUnits="userSpaceOnUse" color-interpolation-filters="sRGB"><feFlood flood-opacity="0" result="BackgroundImageFix"/><feColorMatrix in="SourceAlpha" values="0 0 0 0 0 0 0 0 0 0 0 0 0 0 0 0 0 0 127 0"/><feOffset dy="5.622"/><feGaussianBlur stdDeviation="5.622"/><feColorMatrix values="0 0 0 0 0.111806 0 0 0 0 0.450991 0 0 0 0 0.670833 0 0 0 0.8 0"/><feBlend in2="BackgroundImageFix" result="effect1_dropShadow"/><feBlend in="SourceGraphic" in2="effect1_dropShadow" result="shape"/></filter><radialGradient id="paint0_radial" cx="0" cy="0" r="1" gradientUnits="userSpaceOnUse" gradientTransform="translate(37.683 37.417) scale(36.683)"><stop stop-color="#23AAED"/><stop offset=".304" stop-color="#22A6E9"/><stop offset=".633" stop-color="#1D99DD"/><stop offset=".973" stop-color="#1783C9"/><stop offset="1" stop-color="#1681C7"/></radialGradient></defs></svg>