<svg width="49" height="50" fill="none" xmlns="http://www.w3.org/2000/svg"><path fill-rule="evenodd" clip-rule="evenodd" d="M24.5 46.266c11.829 0 21.418-9.59 21.418-21.418 0-11.83-9.589-21.419-21.418-21.419-11.829 0-21.418 9.59-21.418 21.419S12.67 46.266 24.5 46.266zm0 3.082c13.531 0 24.5-10.97 24.5-24.5C49 11.317 38.031.348 24.5.348S0 11.317 0 24.848c0 13.53 10.969 24.5 24.5 24.5z" fill="#fff"/><path d="M18.761 29.71a3.685 3.685 0 0 1-.25-1.54c.052-.998.29-1.945.839-2.793.607-.939 1.469-1.53 2.559-1.772.308-.069.63-.117.945-.111.426.007.801.166 1.03.56.171.295.218.617.187.949-.096 1.041-.727 1.737-1.523 2.319a4.483 4.483 0 0 1-1.29.645c-.128.04-.195.098-.174.228.032.196.052.4.12.583.07.188.22.29.445.296.443.014.842-.12 1.233-.306.612-.292 1.044-.781 1.442-1.308.141-.186.122-.416.145-.629.08-.741.146-1.485.216-2.227.04-.426.088-.851.115-1.278.01-.152.054-.234.207-.265.714-.144 1.426-.293 2.14-.438.042-.009.088-.001.166-.001-.015.19-.025.367-.042.544-.032.334-.068.67-.102 1.004-.091.887-.185 1.773-.272 2.66a8.12 8.12 0 0 0-.037.71c-.002.252.122.33.375.267.469-.118.762-.447 1-.836.308-.5.522-1.042.628-1.62.08-.438.141-.88.204-1.32.015-.106.002-.216.002-.348-.096.01-.17.003-.231.027-.506.194-1.044-.427-.89-.966.087-.303.296-.495.577-.613.271-.114.552-.19.849-.126.475.101.697.443.791.878.202.926.124 1.845-.081 2.762-.184.827-.488 1.599-.991 2.286-.669.913-1.557 1.454-2.675 1.64a2.29 2.29 0 0 1-1.105-.078c-.335-.109-.575-.338-.738-.65-.03-.055-.058-.11-.1-.191-.097.105-.185.192-.263.288-.44.54-1.002.914-1.598 1.262-.896.523-1.887.734-2.88.95-.54.119-1.088.218-1.636.3-.44.064-.886.112-1.33.125-.303.01-.496.104-.674.361a26.447 26.447 0 0 1-1.266 1.678 4.804 4.804 0 0 1-1.961 1.444c-2.75 1.146-5.839.248-5.387-2.554.39-1.618 1.412-2.658 2.957-3.202.969-.341 1.975-.405 2.994-.31.073.007.146.01.218.012.318.011.337-.003.359-.325.01-.146.006-.292.001-.438-.013-.382-.03-.764-.045-1.147-.038-.965-.072-1.93-.117-2.895-.016-.345-.054-.69-.092-1.033-.025-.227-.032-.228-.273-.23-.373-.003-.75.021-1.121-.009-.85-.068-1.56-.395-1.93-1.218-.254-.566-.189-1.138.08-1.69.02-.04.048-.076.076-.112.197-.254.43-.306.687-.121.237.168.45.37.677.552.32.257.668.44 1.1.408.327-.024.419-.09.465-.411.083-.576.14-1.157.236-1.73.188-1.135.493-2.227 1.273-3.12.562-.644 1.262-1.06 2.117-1.132.722-.06 1.33.237 1.752.821.798 1.105.865 2.286.28 3.51-.267.555-.683 1.008-1.056 1.49-.34.44-.697.865-1.03 1.31-.197.262-.371.55-.397.886-.018.242.008.49.03.733.064.688.128 1.377.21 2.063.064.553.125 1.105.095 1.662-.028.5-.057 1-.093 1.498-.029.39-.07.78-.107 1.169-.009.095.017.16.123.175.054.008.107.035.16.036.536.002 1.073.001 1.652.001zm-5.133 1.578c-.603-.126-1.2-.194-1.797-.116-.284.037-.56.146-.833.238-.172.058-.332.147-.5.218-.405.173-.685.48-.88.86-.264.516.033 1.074.6 1.185.584.114 1.13-.006 1.633-.284.807-.447 1.36-1.135 1.75-1.962.017-.038.017-.085.027-.139zm2.735-12.198c.145-.191.274-.354.395-.522.33-.461.623-.944.776-1.496.09-.324.088-.648-.069-.957-.103-.204-.254-.25-.445-.117a.69.69 0 0 0-.204.215c-.09.157-.185.32-.227.494-.102.414-.195.832-.252 1.254-.049.357-.114.723.026 1.129zm4.74 7.89c.022.01.03.017.038.016.026-.004.054-.007.078-.018.53-.25.919-.646 1.178-1.164a1.59 1.59 0 0 0 .13-1.088c-.044-.192-.118-.222-.296-.146-.19.082-.326.226-.44.395-.408.609-.57 1.3-.687 2.005zM37.407 20.52v.31c.066-.041.117-.068.16-.103a2.746 2.746 0 0 1 1.694-.616c.911-.019 1.488.402 1.584 1.398.06.62-.036 1.236-.127 1.85-.052.35-.125.704-.123 1.056.003.509.103.647.62.498.186-.054.353-.174.525-.262.164.768-.277 1.564-1.023 1.893a2.508 2.508 0 0 1-1.114.224c-.806-.027-1.268-.632-1.323-1.281a6.623 6.623 0 0 1 .069-1.58c.073-.467.1-.941.135-1.413a1.143 1.143 0 0 0-.055-.375c-.08-.285-.238-.354-.516-.237-.25.105-.398.306-.519.538-.199.383-.225.802-.267 1.218-.09.878-.18 1.756-.266 2.634-.027.272-.039.545-.063.817-.022.242-.06.277-.289.325-.684.143-1.37.288-2.054.43-.043.008-.088 0-.167 0l.033-.406c-.09.06-.16.098-.22.146a3.39 3.39 0 0 1-1.843.76c-.779.072-1.466-.266-1.657-1.193a3.352 3.352 0 0 1-.008-1.221c.088-.557.16-1.116.237-1.674.017-.13.06-.213.209-.242.49-.095.978-.207 1.468-.31.265-.056.531-.106.827-.165 0 .123.011.222-.002.317-.083.594-.174 1.188-.257 1.782a4.55 4.55 0 0 0-.054.624c0 .245.08.307.323.284.37-.034.644-.234.863-.52.206-.268.305-.58.34-.91.074-.706.145-1.412.21-2.119.047-.516.082-1.034.125-1.55.007-.09.032-.18.038-.27.007-.14.096-.182.213-.206.669-.135 1.337-.273 2.006-.408.078-.016.158-.026.268-.044z" fill="#fff"/><path d="M30.386 18.057c-.08-.058-.19-.105-.186-.14.012-.11.037-.253.113-.311.094-.072.126-.138.13-.244.005-.09.038-.18.036-.27-.006-.208.095-.306.29-.357.262-.068.517-.163.815-.26l-.085.847.313-.044c.064.268.038.341-.182.419-.127.045-.167.133-.179.246-.028.263-.051.525-.075.788-.017.181-.039.362-.047.544-.01.206.086.263.27.17.164-.082.23-.214.22-.4-.03-.488.088-.942.34-1.358.314-.514.797-.767 1.38-.818a.64.64 0 0 1 .667.383c.04.08.076.163.112.242.334-.051.368-.088.397-.378.015-.144.02-.298.073-.43.067-.165.26-.087.39-.136.161-.06.336-.085.507-.107.051-.007.11.048.185.084.128-.065.285-.155.45-.225.21-.09.396-.021.548.133.11.111.124.34.048.49-.077.152-.367.345-.516.3-.119-.035-.218-.14-.344-.226-.238.07-.282.127-.306.394-.05.562-.105 1.123-.156 1.685-.008.095-.015.193-.125.218-.308.069-.617.13-.962.2l.14-1.604c-.29.035-.3.046-.312.331-.027.617-.28 1.116-.815 1.431-.465.273-.957.337-1.502.007-.026.041-.056.11-.105.16a1.49 1.49 0 0 1-.638.406c-.454.14-.664.085-.977-.288-.076.076-.15.153-.227.227-.42.41-.917.613-1.507.583a.715.715 0 0 1-.683-.566c-.05-.231-.102-.465-.027-.703.01-.031.001-.068.001-.104-.212-.02-.2.118-.202.247a1.77 1.77 0 0 1-.348 1.046c-.382.514-.9.716-1.53.631-.42-.056-.593-.34-.628-.66-.08-.73.082-1.4.661-1.907.344-.301.75-.444 1.212-.398.263.026.43.179.526.418l.08.198a.663.663 0 0 0 .519-.365c.255-.47.671-.739 1.192-.826a1.33 1.33 0 0 1 .534.038c.179.046.302.286.292.48a.458.458 0 0 1-.334.422c-.227.071-.328-.01-.326-.245 0-.072-.044-.144-.068-.215-.075.04-.182.063-.218.126a1.987 1.987 0 0 0-.21.502c-.076.317-.144.641-.046.97.052.172.098.21.273.19.454-.047.764-.313 1.004-.678.02-.03.03-.067.035-.102.038-.371.076-.742.112-1.114.004-.035 0-.07 0-.077zm2.516.583c.008.085.006.186.029.282.06.257.245.313.428.117.089-.096.145-.228.197-.352.042-.099.048-.212.08-.316.04-.123.038-.222-.069-.319-.13-.117-.136-.269-.063-.425.02-.04.05-.081.052-.124a.172.172 0 0 0-.042-.118c-.015-.017-.08-.015-.099.003-.093.084-.206.162-.26.269a2.442 2.442 0 0 0-.253.983zm-6.67 1.442c0 .082-.017.17.005.245.026.089.07.212.138.238.073.028.189-.027.274-.069a.264.264 0 0 0 .116-.146c.07-.225.133-.452.19-.68.01-.037-.003-.099-.03-.12-.2-.166-.19-.353-.076-.561.017-.032.016-.098-.006-.119-.025-.025-.098-.04-.121-.022-.09.071-.194.143-.247.24-.169.307-.256.64-.243.994z" fill="#fff"/><path d="M22.183 18.676c-.5.4-.587.81-.336 1.484-.252.056-.509.115-.726-.04-.21-.15-.239-.4-.185-.646a1.37 1.37 0 0 1 .38-.684c.692-.688 1.523-1.066 2.506-.99.662.05 1.036.395 1.195 1.088.193.839.02 1.634-.44 2.351-.271.421-.657.71-1.193.709-.125-.001-.25-.035-.383-.055-.31.275-.727.221-1.128.343-.059-.42.078-.798.09-1.182.012-.39.068-.778.105-1.167l.115-1.21zm1.049-.38c.017.05.035.076.032.1-.04.453-.082.906-.125 1.358-.043.462-.092.924-.13 1.386-.018.216.054.267.26.198.24-.082.387-.262.496-.481.127-.257.165-.536.224-.813.094-.441.035-.872-.068-1.298-.076-.315-.326-.517-.632-.505a1.557 1.557 0 0 0-.876.311l.819-.257zM33.568 22.272c.014.344-.131.63-.38.843-.451.385-.958.565-1.565.381-.549-.165-.97-.78-.68-1.43.362-.814 1.561-1.194 2.283-.562.225.196.344.45.342.768z" fill="#fff"/></svg>