<svg width="71" height="90" fill="none" xmlns="http://www.w3.org/2000/svg"><path d="M69.292 36.35a30.782 30.782 0 0 1-11.079 23.653l-11.031 9.195a30.812 30.812 0 0 0-9.498 13.915c-.653 1.958-3.423 1.958-4.076 0a30.786 30.786 0 0 0-9.498-13.915l-11.036-9.195A30.793 30.793 0 0 1 2 36.35v.173C2 15.527 19.385 3.348 35.646 3.348c16.26 0 33.646 12.18 33.646 33.175" fill="#1782C9"/><circle cx="35.683" cy="34.031" r="33.683" fill="url(#paint0_radial)"/><g filter="url(#filter0_d)" fill="#fff"><path d="M27.793 40.713a5.068 5.068 0 0 1-.344-2.116c.073-1.372.4-2.674 1.154-3.84.835-1.29 2.02-2.102 3.518-2.436.424-.095.866-.16 1.299-.154.586.01 1.102.23 1.417.772.235.405.3.847.257 1.304-.133 1.431-1 2.388-2.094 3.188a6.165 6.165 0 0 1-1.774.886c-.176.056-.269.136-.24.314.045.27.072.549.166.802.096.258.301.398.612.407.61.019 1.158-.166 1.694-.422.842-.4 1.437-1.073 1.984-1.797.193-.256.168-.572.2-.865.109-1.02.199-2.041.296-3.062.055-.586.12-1.17.157-1.757.014-.21.075-.322.285-.364.982-.197 1.96-.403 2.941-.603.059-.011.122-.001.23-.001-.02.262-.035.505-.058.748-.044.46-.093.92-.14 1.38-.126 1.22-.254 2.438-.374 3.658-.032.324-.047.65-.05.975-.004.348.166.456.514.368.645-.163 1.047-.615 1.376-1.149a6.473 6.473 0 0 0 .863-2.228c.11-.601.194-1.209.28-1.815.02-.145.003-.296.003-.477-.132.014-.233.003-.318.036-.695.267-1.436-.587-1.224-1.328.12-.417.408-.68.794-.843.373-.156.758-.26 1.167-.173.653.14.958.61 1.088 1.207.277 1.273.17 2.537-.112 3.798-.253 1.137-.67 2.197-1.363 3.143-.919 1.254-2.14 1.999-3.676 2.254a3.151 3.151 0 0 1-1.52-.107c-.46-.15-.79-.465-1.015-.893l-.137-.264c-.133.146-.255.265-.362.397-.603.742-1.377 1.257-2.197 1.735-1.232.719-2.595 1.01-3.958 1.307-.745.162-1.496.298-2.25.41-.606.09-1.218.156-1.83.174-.415.012-.68.142-.925.496a36.423 36.423 0 0 1-1.741 2.306 6.605 6.605 0 0 1-2.696 1.985c-3.78 1.576-8.027.342-7.406-3.51.535-2.225 1.942-3.656 4.065-4.403 1.332-.47 2.716-.557 4.116-.426.1.01.2.013.3.017.438.014.463-.004.494-.448.013-.2.008-.401.002-.602-.018-.525-.042-1.05-.063-1.576-.052-1.327-.099-2.654-.16-3.98-.023-.474-.075-.948-.127-1.42-.034-.314-.045-.315-.375-.317-.514-.004-1.03.029-1.542-.012-1.169-.093-2.144-.544-2.652-1.675-.35-.779-.26-1.564.108-2.322.028-.056.067-.107.106-.156.27-.348.59-.42.945-.166.325.232.618.509.93.76.44.353.919.604 1.51.56.451-.034.578-.125.64-.565.115-.793.194-1.59.325-2.38.26-1.559.679-3.06 1.752-4.289.771-.884 1.733-1.455 2.909-1.554.993-.084 1.828.324 2.409 1.128 1.097 1.519 1.19 3.143.384 4.824-.366.765-.938 1.388-1.45 2.05-.468.604-.96 1.19-1.417 1.8-.27.36-.51.757-.545 1.219-.025.333.01.673.041 1.007.088.947.176 1.893.287 2.837.09.76.173 1.518.131 2.284-.037.688-.077 1.375-.127 2.06-.04.537-.097 1.072-.147 1.607-.012.13.024.22.17.241.073.01.146.048.219.049.737.003 1.475.002 2.271.002zm-7.057 2.171c-.829-.173-1.648-.267-2.47-.16-.39.05-.769.201-1.146.328-.236.08-.457.202-.687.3-.557.236-.94.66-1.209 1.181-.364.71.044 1.476.825 1.63.802.156 1.552-.008 2.244-.391 1.11-.615 1.87-1.56 2.405-2.697.025-.053.024-.117.038-.19zm3.76-16.77c.2-.264.378-.486.543-.718.454-.634.857-1.297 1.067-2.057.123-.445.122-.89-.094-1.316-.143-.28-.35-.342-.613-.16a.946.946 0 0 0-.28.295c-.123.217-.254.441-.313.68a16.76 16.76 0 0 0-.346 1.723c-.067.492-.157.994.036 1.552zm6.518 10.847c.03.014.041.024.05.022.037-.006.076-.01.108-.025a3.39 3.39 0 0 0 1.62-1.6c.236-.472.296-.98.178-1.496-.06-.264-.162-.305-.406-.2-.261.112-.449.31-.604.543-.562.837-.785 1.787-.946 2.756zM53.428 28.077v.428c.09-.058.16-.094.221-.143.68-.549 1.48-.829 2.328-.846 1.253-.026 2.047.552 2.179 1.921.081.853-.051 1.7-.176 2.543-.072.482-.171.969-.168 1.452.003.7.14.89.853.685.255-.073.484-.238.72-.36.226 1.056-.381 2.15-1.405 2.603a3.452 3.452 0 0 1-1.533.308c-1.107-.038-1.743-.87-1.819-1.762a9.107 9.107 0 0 1 .095-2.173c.1-.641.139-1.293.186-1.941.012-.17-.03-.35-.076-.516-.108-.392-.327-.487-.709-.326-.343.145-.547.42-.714.74-.273.527-.309 1.103-.367 1.675-.122 1.207-.247 2.413-.366 3.62-.037.374-.053.75-.086 1.124-.03.332-.081.381-.397.447-.941.197-1.883.396-2.825.59-.058.012-.12.002-.229.002l.046-.559c-.125.083-.22.134-.302.2a4.66 4.66 0 0 1-2.534 1.044c-1.071.1-2.016-.365-2.28-1.639-.115-.56-.1-1.116-.01-1.678.121-.766.22-1.534.325-2.302.025-.178.084-.292.288-.332.675-.132 1.345-.285 2.018-.427.365-.076.73-.146 1.137-.227 0 .17.016.305-.002.436-.114.817-.24 1.633-.353 2.45-.04.285-.075.572-.075.858 0 .336.11.422.444.391.508-.048.886-.322 1.187-.715.283-.37.419-.797.467-1.252.102-.97.2-1.94.289-2.912.065-.71.113-1.422.172-2.132.01-.125.044-.247.052-.371.01-.191.133-.25.293-.283.92-.186 1.838-.375 2.757-.562.109-.021.219-.035.37-.06z"/><path d="M43.775 24.693c-.11-.08-.26-.145-.256-.194.017-.15.053-.346.156-.426.13-.1.173-.19.18-.335.005-.125.052-.248.048-.372-.008-.286.131-.42.4-.49.36-.095.71-.225 1.12-.357l-.117 1.163.43-.06c.088.368.053.47-.25.576-.175.061-.23.183-.246.338-.038.361-.07.723-.104 1.084-.023.249-.053.498-.064.748-.013.282.118.361.37.234.227-.114.318-.296.303-.552-.041-.67.121-1.294.469-1.865.43-.707 1.095-1.055 1.896-1.126.399-.035.733.14.918.526.053.112.104.225.154.333.458-.07.505-.12.546-.519.02-.198.026-.41.1-.59.092-.229.356-.12.537-.188.22-.082.46-.118.695-.148.071-.009.153.067.256.116.175-.089.39-.213.618-.31.288-.123.544-.029.753.184.15.153.171.466.067.673-.107.21-.505.475-.71.414-.164-.049-.3-.192-.473-.312-.327.097-.388.175-.42.542-.07.772-.145 1.545-.215 2.317-.011.13-.02.265-.172.3-.423.094-.848.177-1.323.275l.192-2.206c-.399.048-.411.063-.428.456-.037.847-.385 1.534-1.121 1.967-.639.375-1.316.462-2.064.009-.037.057-.078.15-.145.22a2.05 2.05 0 0 1-.877.558c-.624.191-.913.116-1.343-.396-.105.105-.208.21-.312.312-.577.563-1.262.843-2.072.801-.465-.024-.843-.323-.94-.778-.068-.317-.14-.639-.037-.966.014-.043.002-.094.002-.143-.291-.027-.274.163-.278.34a2.432 2.432 0 0 1-.479 1.437c-.525.708-1.235.986-2.102.869-.577-.078-.815-.469-.863-.907-.11-1.004.111-1.926.908-2.623.473-.414 1.031-.61 1.666-.547.362.036.59.246.723.574.037.091.075.183.11.273a.911.911 0 0 0 .713-.502c.352-.645.924-1.016 1.64-1.135.236-.04.499-.009.734.052.246.063.415.393.401.66a.63.63 0 0 1-.46.58c-.312.098-.45-.014-.447-.338.001-.098-.06-.197-.093-.295-.103.056-.252.087-.3.174-.123.216-.23.45-.288.69-.106.436-.199.881-.064 1.333.07.237.135.288.374.263.625-.066 1.051-.431 1.382-.934a.324.324 0 0 0 .047-.14c.053-.51.104-1.02.155-1.53.004-.05 0-.099 0-.107zm3.46.802c.01.116.009.255.04.387.082.354.337.43.588.16.122-.131.2-.312.271-.483.057-.136.066-.292.11-.434.054-.169.052-.306-.095-.439-.18-.162-.187-.37-.087-.584.027-.056.068-.112.072-.17a.237.237 0 0 0-.057-.163c-.022-.023-.11-.02-.137.004-.127.116-.283.223-.357.37a3.36 3.36 0 0 0-.348 1.352zm-9.17 1.982c0 .113-.024.233.007.337.036.121.096.29.19.326.1.039.259-.036.376-.094a.363.363 0 0 0 .159-.201c.098-.309.183-.621.263-.935.013-.05-.006-.135-.042-.166-.276-.227-.262-.484-.105-.77.023-.043.022-.134-.008-.163-.035-.035-.135-.055-.167-.03-.124.097-.266.196-.34.329-.231.422-.35.88-.333 1.367z"/><path d="M32.498 25.547c-.688.55-.807 1.113-.462 2.04-.347.076-.7.157-.998-.056-.288-.207-.328-.549-.254-.887.08-.364.26-.682.522-.941.951-.946 2.094-1.465 3.445-1.362.91.07 1.424.544 1.643 1.497.266 1.153.027 2.246-.606 3.232-.371.579-.902.977-1.639.974-.172 0-.345-.048-.526-.075-.427.378-1 .304-1.551.472-.08-.579.106-1.097.123-1.626.017-.536.094-1.07.145-1.604l.158-1.664zm1.442-.525c.024.07.047.106.044.14-.055.622-.113 1.245-.171 1.867-.06.635-.128 1.27-.18 1.905-.024.297.075.367.357.271.33-.111.532-.36.682-.66.176-.353.227-.738.308-1.118.13-.607.05-1.198-.093-1.784-.105-.434-.448-.712-.869-.695a2.141 2.141 0 0 0-1.204.428l1.126-.354zM48.15 30.488c.02.474-.18.867-.523 1.16-.62.529-1.316.775-2.151.523-.754-.227-1.332-1.071-.935-1.965.498-1.12 2.146-1.642 3.139-.774.31.27.473.62.47 1.056z"/></g><defs><filter id="filter0_d" x=".98" y="13.972" width="69.696" height="51.629" filterUnits="userSpaceOnUse" color-interpolation-filters="sRGB"><feFlood flood-opacity="0" result="BackgroundImageFix"/><feColorMatrix in="SourceAlpha" values="0 0 0 0 0 0 0 0 0 0 0 0 0 0 0 0 0 0 127 0"/><feOffset dy="5.622"/><feGaussianBlur stdDeviation="5.622"/><feColorMatrix values="0 0 0 0 0.111806 0 0 0 0 0.450991 0 0 0 0 0.670833 0 0 0 0.8 0"/><feBlend in2="BackgroundImageFix" result="effect1_dropShadow"/><feBlend in="SourceGraphic" in2="effect1_dropShadow" result="shape"/></filter><radialGradient id="paint0_radial" cx="0" cy="0" r="1" gradientUnits="userSpaceOnUse" gradientTransform="translate(35.683 34.03) scale(33.683)"><stop stop-color="#23AAED"/><stop offset=".304" stop-color="#22A6E9"/><stop offset=".633" stop-color="#1D99DD"/><stop offset=".973" stop-color="#1783C9"/><stop offset="1" stop-color="#1681C7"/></radialGradient></defs></svg>