<svg width="476" height="470" viewBox="0 0 476 470" fill="none" xmlns="http://www.w3.org/2000/svg">
<g clip-path="url(#clip0_364_2542)">
<path d="M450.86 322.735C401.422 433.015 275.209 478.547 177.114 468.691C150.331 466 96.4409 460.586 54.999 419.968C-24.5873 341.963 -9.32838 182.087 69.7851 89.1885C79.9733 77.225 150.447 -2.89019 258.036 0.0805499C336.806 2.25564 391.326 47.7632 397.953 53.4297C406.325 60.588 424.769 77.5732 441.192 104.294C479.781 167.079 481.754 253.82 450.86 322.735Z" fill="#F2F2F2"/>
<path d="M32.7536 412.062C32.7536 416.168 36.1133 419.527 40.2198 419.527H443.966C448.072 419.527 451.432 416.168 451.432 412.062L454.791 179.852C454.791 175.747 449.958 167.731 441.1 168.333L46.5149 158.115C41.3625 157.982 36.3807 159.966 32.7321 163.606C29.0835 167.246 27.0871 172.222 27.2089 177.374L32.7536 412.062Z" fill="url(#paint0_linear_364_2542)"/>
<path d="M40.1249 404.901C40.1249 408.789 43.3036 411.97 47.1885 411.97H434.229C438.114 411.97 441.293 408.789 441.293 404.901L444.463 194.098C444.09 181.413 432.977 176.854 426.241 177.123L48.067 166.969C44.4472 166.871 40.9474 168.267 38.3836 170.826C35.8198 173.386 34.4098 176.888 34.5007 180.511L40.1249 404.901Z" fill="url(#paint1_linear_364_2542)"/>
<path d="M437.11 304.755H437.095C436.523 304.746 436.066 304.276 436.075 303.703L436.325 286.607C436.334 286.04 436.796 285.586 437.36 285.586H437.375C437.947 285.595 438.404 286.065 438.395 286.638L438.145 303.734C438.136 304.3 437.674 304.755 437.11 304.755Z" fill="#91B3FA"/>
<path d="M437.725 262.861H437.709C437.137 262.853 436.681 262.382 436.689 261.81L437.65 196.333C437.632 192.444 436.452 189.338 434.143 187.124C429.834 182.992 422.992 183.203 422.703 183.216L301.831 179.972C301.259 179.958 300.808 179.481 300.824 178.909C300.839 178.337 301.278 177.851 301.886 177.902L422.687 181.146C423.439 181.102 430.724 180.976 435.575 185.628C438.305 188.245 439.699 191.851 439.72 196.343L438.759 261.841C438.751 262.408 438.289 262.862 437.725 262.862L437.725 262.861Z" fill="#91B3FA"/>
<path d="M0.948273 438.804L475.052 438.804C475.575 438.804 476 438.379 476 437.855V419.35C476 418.826 475.575 418.401 475.052 418.401L0.948273 418.401C0.424561 418.401 -3.05176e-05 418.826 -3.05176e-05 419.35V437.855C-3.05176e-05 438.379 0.424561 438.804 0.948273 438.804Z" fill="url(#paint2_linear_364_2542)"/>
<path d="M355.011 55.4597L112.834 53.9759C104.875 53.927 98.5098 60.5805 98.9041 68.5363L115.565 412.891H385.063L400.026 105.229L355.011 55.4595V55.4597Z" fill="#91B3FA"/>
<path d="M365.081 103.754C357.193 103.476 351.128 96.6711 351.749 88.7956L354.346 55.9136L400.074 105.027L365.081 103.754Z" fill="#7D97F4"/>
<path d="M153.441 274.108C187.012 273.564 315.884 271.338 348.426 270.776C352.531 270.705 355.906 273.194 355.884 276.269C355.863 279.197 352.755 281.578 348.848 281.659L153.983 285.697C150.23 285.775 147.003 283.698 146.54 280.905L146.423 280.198C145.893 277.005 149.148 274.177 153.441 274.108Z" fill="#BDD0FB"/>
<path d="M151.091 308.294C151.655 309.014 152.692 309.453 153.805 309.442L287.598 308.213C289.279 308.197 290.63 307.179 290.638 305.92L290.685 299.314C290.694 298.002 289.247 296.941 287.495 296.978L157.422 299.699C151.628 299.82 148.148 304.544 151.091 308.294Z" fill="#BDD0FB"/>
<path d="M152.794 333.862C186.365 333.318 315.237 331.093 347.779 330.531C351.884 330.46 355.259 332.949 355.237 336.024C355.216 338.952 352.108 341.333 348.201 341.414L153.336 345.452C149.583 345.53 146.356 343.452 145.893 340.66L145.776 339.953C145.246 336.76 148.501 333.932 152.794 333.862Z" fill="#BDD0FB"/>
<path d="M150.444 368.049C151.008 368.769 152.045 369.207 153.158 369.197L286.951 367.968C288.632 367.952 289.983 366.934 289.991 365.675L290.038 359.069C290.047 357.756 288.6 356.696 286.848 356.733L156.775 359.454C150.981 359.575 147.501 364.3 150.444 368.049Z" fill="#BDD0FB"/>
<g opacity="0.8">
<path d="M307.502 133.214C306.791 132.34 305.677 131.977 304.495 132.002L196.887 134.261L194.169 125.62C193.791 124.416 192.66 123.645 191.38 123.678L176.606 124.067C175.022 124.109 173.739 125.211 173.739 126.794C173.739 128.376 175.022 129.414 176.606 129.377L189.232 129.078L212.078 202.14C212.462 203.369 213.616 204.215 214.923 204.233L290.453 205.248C292.226 205.271 293.665 204.158 293.665 202.481C293.665 200.803 292.226 199.655 290.453 199.636L217.127 198.845L211.242 179.875L291.821 179.997C293.471 180 294.925 178.919 295.387 177.421L308.105 136.267C308.436 135.194 308.213 134.088 307.502 133.214L307.502 133.214Z" fill="white"/>
<path d="M225.973 208.74C219.758 208.643 214.73 213.484 214.73 219.53C214.73 225.576 219.758 230.627 225.973 230.791C232.225 230.955 237.339 226.116 237.339 220.003C237.339 213.89 232.225 208.837 225.973 208.74ZM225.973 224.91C223.068 224.842 220.711 222.485 220.711 219.655C220.711 216.825 223.068 214.566 225.973 214.62C228.885 214.673 231.261 217.031 231.261 219.876C231.261 222.72 228.885 224.979 225.973 224.91Z" fill="white"/>
<path d="M276.321 209.523C269.799 209.421 264.522 214.378 264.522 220.572C264.522 226.765 269.799 231.943 276.321 232.114C282.884 232.287 288.253 227.332 288.253 221.068C288.253 214.804 282.884 209.625 276.321 209.523ZM276.321 226.09C273.273 226.019 270.799 223.602 270.799 220.703C270.799 217.805 273.273 215.491 276.321 215.547C279.379 215.604 281.873 218.021 281.873 220.935C281.873 223.849 279.379 226.162 276.321 226.09Z" fill="white"/>
</g>
<path opacity="0.81" d="M245.875 257.846C194.926 257.846 153.476 216.362 153.476 165.371C153.476 114.38 194.926 72.8965 245.875 72.8965C296.824 72.8965 338.275 114.38 338.275 165.371C338.275 216.362 296.824 257.846 245.875 257.846ZM245.875 77.4981C197.461 77.4981 158.073 116.918 158.073 165.371C158.073 213.825 197.461 253.244 245.875 253.244C294.289 253.244 333.677 213.825 333.677 165.371C333.677 116.918 294.289 77.4981 245.875 77.4981Z" fill="white"/>
<path d="M247.087 176.882C245.661 176.975 244.333 176.311 243.595 175.124L231.192 155.192C230.03 153.324 230.656 150.765 232.59 149.477C234.523 148.191 237.031 148.661 238.192 150.528L246.793 164.364L258.143 141.23C259.162 139.154 261.609 138.202 263.607 139.102C265.606 140.002 266.401 142.414 265.384 144.488L250.717 174.408C250.045 175.778 248.71 176.721 247.23 176.869C247.183 176.874 247.135 176.878 247.087 176.881L247.087 176.882Z" fill="#22B573"/>
<path d="M73.1354 251.219C72.362 251.219 71.7238 250.604 71.6999 249.825C71.6841 249.302 71.3522 236.872 75.0085 223.599C79.9336 205.721 89.8107 195.126 103.573 192.958C110.316 191.895 116.326 193.488 121.433 197.693C138.082 211.397 139.666 248.168 139.725 249.726C139.755 250.52 139.137 251.187 138.344 251.218C137.545 251.236 136.884 250.629 136.854 249.836C136.839 249.467 135.259 212.793 119.605 199.911C115.16 196.254 109.917 194.868 104.02 195.799C73.4317 200.618 74.5573 249.246 74.5726 249.737C74.5967 250.531 73.9731 251.194 73.1802 251.218C73.1652 251.219 73.1505 251.219 73.1355 251.219H73.1354Z" fill="#606060"/>
<path d="M12.6129 408.666L37.3019 238.272L130.049 236.711L159.943 418.136H20.6439C15.6889 418.136 11.8899 413.656 12.6129 408.666Z" fill="#CCCCCC"/>
<path d="M148.062 238.272L130.049 236.711L159.943 418.136H177.825C181.451 418.136 184.161 414.744 183.421 411.131L148.062 238.272Z" fill="#AAAAAA"/>
<path d="M118.359 250.829C117.59 250.829 116.954 250.221 116.924 249.446C116.91 249.077 115.329 212.404 99.6756 199.522C95.2303 195.864 89.9876 194.479 84.0903 195.409C53.526 200.224 54.6278 248.857 54.6427 249.348C54.6664 250.141 54.0429 250.804 53.25 250.828C52.4483 250.861 51.7947 250.228 51.7702 249.435C51.7544 248.912 51.4225 236.483 55.0791 223.21C60.0039 205.332 69.8813 194.736 83.6435 192.568C90.3871 191.505 96.396 193.098 101.504 197.303C118.152 211.008 119.736 247.778 119.795 249.336C119.826 250.13 119.207 250.798 118.414 250.828C118.396 250.828 118.377 250.829 118.359 250.829Z" fill="#606060"/>
</g>
<defs>
<linearGradient id="paint0_linear_364_2542" x1="278.97" y1="401.676" x2="183.475" y2="115.422" gradientUnits="userSpaceOnUse">
<stop stop-color="#09005D"/>
<stop offset="1" stop-color="#1A0F91"/>
</linearGradient>
<linearGradient id="paint1_linear_364_2542" x1="401.298" y1="147.568" x2="53.2645" y2="452.885" gradientUnits="userSpaceOnUse">
<stop stop-color="#4042E2"/>
<stop offset="1" stop-color="#4F52FF"/>
</linearGradient>
<linearGradient id="paint2_linear_364_2542" x1="232.05" y1="180.859" x2="237.826" y2="420.966" gradientUnits="userSpaceOnUse">
<stop stop-color="#09005D"/>
<stop offset="1" stop-color="#1A0F91"/>
</linearGradient>
<clipPath id="clip0_364_2542">
<rect width="476" height="470" fill="white"/>
</clipPath>
</defs>
</svg>
