<svg xmlns="http://www.w3.org/2000/svg" viewBox="0 0 98 98"><linearGradient id="a" gradientUnits="userSpaceOnUse" x1="73.504" y1="91.442" x2="24.496" y2="6.558"><stop offset="0" stop-color="#033a82"/><stop offset=".486" stop-color="#3b9ce9"/><stop offset="1" stop-color="#bfe8fe"/></linearGradient><circle cx="49" cy="49" r="49" fill="url(#a)"/><path d="M10 78.655A49.273 49.273 0 0 0 18.072 87H28V61H10v17.655z" fill="#72b8f2"/><path fill="#97d7ff" d="M24 65H6V39h18z"/><path d="M2 35.144V43h18V17h-8.091A48.872 48.872 0 0 0 2 35.144z" fill="#bbe2ff"/><linearGradient id="b" gradientUnits="userSpaceOnUse" x1="81.855" y1="85.387" x2="19.554" y2="11.14"><stop offset=".312" stop-color="#97d7ff"/><stop offset="1" stop-color="#fff"/></linearGradient><path d="M90 75.822V22.178A49.208 49.208 0 0 0 70.572 5H27.428c-.48.236-.956.48-1.428.732v86.537A48.783 48.783 0 0 0 49 98c17.158 0 32.247-8.826 41-22.178z" fill="url(#b)"/><path d="M86 27V16.895A49.224 49.224 0 0 0 77.285 9H32a2 2 0 0 0-2 2v16a2 2 0 0 0 2 2h52a2 2 0 0 0 2-2z" fill="#fff"/><linearGradient id="c" gradientUnits="userSpaceOnUse" x1="43.232" y1="24.598" x2="36.768" y2="13.402"><stop offset="0" stop-color="#ff950d"/><stop offset="1" stop-color="#ffc107"/></linearGradient><path d="M44 24h-8a1 1 0 0 1-1-1v-8a1 1 0 0 1 1-1h8a1 1 0 0 1 1 1v8a1 1 0 0 1-1 1z" fill="url(#c)"/><path fill="#acd0e9" d="M49 14h33v2H49zM49 20h14v2H49z"/><path fill="#ff950d" d="M73 20h9v2h-9z"/><path d="M39 22a.997.997 0 0 1-.707-.293l-2-2a.999.999 0 1 1 1.414-1.414L39 19.586l3.293-3.293a.999.999 0 1 1 1.414 1.414l-4 4A.997.997 0 0 1 39 22zM84 53H32a2 2 0 0 1-2-2V35a2 2 0 0 1 2-2h52a2 2 0 0 1 2 2v16a2 2 0 0 1-2 2z" fill="#fff"/><linearGradient id="d" gradientUnits="userSpaceOnUse" x1="43.232" y1="48.598" x2="36.768" y2="37.402"><stop offset="0" stop-color="#ff950d"/><stop offset="1" stop-color="#ffc107"/></linearGradient><path d="M44 48h-8a1 1 0 0 1-1-1v-8a1 1 0 0 1 1-1h8a1 1 0 0 1 1 1v8a1 1 0 0 1-1 1z" fill="url(#d)"/><path fill="#acd0e9" d="M49 38h19v2H49zM71 38h11v2H71zM49 44h8v2h-8z"/><path fill="#ff950d" d="M73 44h9v2h-9z"/><path d="M39 46a.997.997 0 0 1-.707-.293l-2-2a.999.999 0 1 1 1.414-1.414L39 43.586l3.293-3.293a.999.999 0 1 1 1.414 1.414l-4 4A.997.997 0 0 1 39 46zM85 77H33a2 2 0 0 1-2-2V59a2 2 0 0 1 2-2h52a2 2 0 0 1 2 2v16a2 2 0 0 1-2 2z" fill="#fff"/><path d="M44 72h-8a1 1 0 0 1-1-1v-8a1 1 0 0 1 1-1h8a1 1 0 0 1 1 1v8a1 1 0 0 1-1 1z" fill="#fff"/><path d="M44 63v8h-8v-8h8m0-1h-8a1 1 0 0 0-1 1v8a1 1 0 0 0 1 1h8a1 1 0 0 0 1-1v-8a1 1 0 0 0-1-1z" fill="#97d7ff"/><path fill="#acd0e9" d="M49 62h33v2H49zM49 68h16v2H49z"/><path fill="#ff950d" d="M73 68h9v2h-9zM39 70a.997.997 0 0 1-.707-.293l-2-2a.999.999 0 1 1 1.414-1.414L39 67.586l3.293-3.293a.999.999 0 1 1 1.414 1.414l-4 4A.997.997 0 0 1 39 70z"/><linearGradient id="e" gradientUnits="userSpaceOnUse" x1="59.337" y1="96.941" x2="55.781" y2="76.776"><stop offset=".207" stop-color="#c6e9ff"/><stop offset=".834" stop-color="#fff"/></linearGradient><path d="M85.497 81.686A1.989 1.989 0 0 0 84 81H32a2 2 0 0 0-2 2v11.178A48.849 48.849 0 0 0 49 98c14.501 0 27.525-6.304 36.497-16.314z" fill="url(#e)"/><path d="M44 96h-8a1 1 0 0 1-1-1v-8a1 1 0 0 1 1-1h8a1 1 0 0 1 1 1v8a1 1 0 0 1-1 1z" fill="#fff"/><path d="M44 87v8h-8v-8h8m0-1h-8a1 1 0 0 0-1 1v8a1 1 0 0 0 1 1h8a1 1 0 0 0 1-1v-8a1 1 0 0 0-1-1z" fill="#97d7ff"/><path d="M49 86v2h29.655a48.943 48.943 0 0 0 2.449-2H49zM49 92h14v2H49z" fill="#acd0e9"/><path fill="#cc441f" d="M16.5 74l3-3 2 1.999-3 3z"/><linearGradient id="f" gradientUnits="userSpaceOnUse" x1="11.607" y1="80.893" x2="17.5" y2="75"><stop offset=".039" stop-color="#ff950d"/><stop offset=".815" stop-color="#ffc107"/></linearGradient><path d="M16.621 74.121a3 3 0 0 0-4.243 0L9.09 77.41a49.223 49.223 0 0 0 5.518 6.482l3.771-3.771a3 3 0 0 0 0-4.243l-1.758-1.757z" fill="url(#f)"/><linearGradient id="g" gradientUnits="userSpaceOnUse" x1="44" y1="78" x2="44" y2="32" gradientTransform="matrix(-1 0 0 1 81.5 0)"><stop offset="0" stop-color="#fff" stop-opacity=".8"/><stop offset="1" stop-color="#fff" stop-opacity=".1"/></linearGradient><circle cx="37.5" cy="55" r="23" fill="url(#g)"/><path d="M16.856 65.144l30.787-30.787a22.927 22.927 0 0 0-2.836-1.164L15.692 62.308a22.99 22.99 0 0 0 1.164 2.836zM50.212 35.833L18.318 67.688a23.115 23.115 0 0 0 3.687 4.308l32.491-32.491a23.167 23.167 0 0 0-4.284-3.672z" opacity=".5" fill="#fff"/><linearGradient id="h" gradientUnits="userSpaceOnUse" x1="31.502" y1="33.354" x2="56.498" y2="76.646" gradientTransform="matrix(-1 0 0 1 81.5 0)"><stop offset="0" stop-color="#2196f3"/><stop offset="1" stop-color="#0052a3"/></linearGradient><path d="M37.5 80c-13.785 0-25-11.215-25-25s11.215-25 25-25 25 11.215 25 25-11.215 25-25 25zm0-46c-11.58 0-21 9.42-21 21s9.42 21 21 21 21-9.42 21-21-9.42-21-21-21z" fill="url(#h)"/><linearGradient id="i" gradientUnits="userSpaceOnUse" x1="85.043" y1="46.543" x2="89.457" y2="50.957"><stop offset="0" stop-color="#0052a3"/><stop offset="1" stop-color="#2196f3"/></linearGradient><path d="M80.5 53.5a.999.999 0 0 1-.707-1.707l9.086-9.086a3.002 3.002 0 0 1 4.242 0l1.586 1.586a.999.999 0 1 1-1.414 1.414l-1.586-1.586a1 1 0 0 0-1.414 0l-9.086 9.086a.997.997 0 0 1-.707.293z" fill="url(#i)"/><linearGradient id="j" gradientUnits="userSpaceOnUse" x1="79.144" y1="58.856" x2="84.144" y2="63.856"><stop offset=".185" stop-color="#ffc107"/><stop offset=".961" stop-color="#ff950d"/></linearGradient><path d="M98 49c0-2.826-.253-5.592-.712-8.288L61 77l5.031 4.969 31.943-31.943c.007-.342.026-.682.026-1.026z" fill="url(#j)"/><linearGradient id="k" gradientUnits="userSpaceOnUse" x1="58.75" y1="79.25" x2="63.75" y2="84.25"><stop offset="0" stop-color="#7bcaff"/><stop offset="1" stop-color="#0c74d5"/></linearGradient><path fill="url(#k)" d="M61 77l5 5-6 3-2-2z"/><path fill="#ffc107" d="M58 83l-2 3 1 1 3-2z"/></svg>