<svg xmlns="http://www.w3.org/2000/svg" xmlns:xlink="http://www.w3.org/1999/xlink" viewBox="0 0 98 98"><linearGradient id="a" gradientUnits="userSpaceOnUse" x1="73.504" y1="91.442" x2="24.496" y2="6.558"><stop offset="0" stop-color="#033a82"/><stop offset=".486" stop-color="#3b9ce9"/><stop offset="1" stop-color="#bfe8fe"/></linearGradient><circle cx="49" cy="49" r="49" fill="url(#a)"/><defs><circle id="b" cx="49" cy="49" r="49"/></defs><clipPath id="c"><use xlink:href="#b" overflow="visible"/></clipPath><g clip-path="url(#c)"><linearGradient id="d" gradientUnits="userSpaceOnUse" x1="38.087" y1="80.327" x2="27.909" y2="22.605" gradientTransform="translate(2.002 .534)"><stop offset=".161" stop-color="#fff"/><stop offset=".299" stop-color="#f6fcff"/><stop offset=".523" stop-color="#def2ff"/><stop offset=".803" stop-color="#b7e3ff"/><stop offset="1" stop-color="#97d7ff"/></linearGradient><path fill="url(#d)" d="M-9 30h88v44H-9z"/><linearGradient id="e" gradientUnits="userSpaceOnUse" x1="34.939" y1="76.65" x2="26.058" y2="26.282" gradientTransform="translate(2.002 .534)"><stop offset="0" stop-color="#72bde9"/><stop offset="1" stop-color="#c7eafb"/></linearGradient><path fill="url(#e)" d="M10 30h45v44H10z"/><circle cx=".5" cy="35.5" r="3.5" fill="#0294fe"/><g fill="#1e84ce"><path d="M12.731 34.888c.088-.008.184-.008.296-.008 1.199 0 1.863.496 1.864 1.671 0 1.096-.688 1.696-2.095 1.695-.984 0-1.383-.288-1.383-.288-.016-.272.08-.576.248-.744 0 0 .416.168 1.04.168.719 0 1.151-.223 1.151-.832 0-.711-.376-.846-1.208-.847-.303 0-.6.008-.903.032l-.001-3.007h2.918c.104.288.105.624.001.88h-1.927l-.001 1.28zM15.715 35.448c0-1.967.736-2.798 2.031-2.799 1.295 0 2.047.808 2.047 2.799.001 1.991-.752 2.798-2.046 2.798-1.296 0-2.032-.807-2.032-2.798zm1.071 0c0 1.607.36 1.951.96 1.951.616 0 .952-.344.951-1.951 0-1.615-.336-1.951-.951-1.952-.6 0-.96.337-.96 1.952zM20.659 35.448c0-1.967.736-2.799 2.032-2.798 1.295 0 2.047.808 2.047 2.799 0 1.991-.752 2.798-2.046 2.798-1.297-.001-2.033-.808-2.033-2.799zm1.071 0c0 1.607.361 1.951.961 1.951.615 0 .951-.344.951-1.951-.001-1.616-.337-1.952-.951-1.952-.601.001-.96.337-.961 1.952z"/></g><g fill="#1e84ce"><path d="M-3.681 67.708c.066-.007.137-.008.222-.007.9 0 1.397.372 1.397 1.254 0 .821-.515 1.271-1.571 1.272-.737 0-1.037-.217-1.037-.217-.012-.204.06-.431.185-.557 0 0 .312.125.78.126.539 0 .864-.168.863-.624 0-.534-.281-.636-.905-.636-.228 0-.45.006-.677.025v-2.255h2.189a.965.965 0 0 1 0 .66h-1.446v.959zM-1.443 68.127c.001-1.476.552-2.099 1.524-2.099.971 0 1.535.605 1.534 2.099 0 1.493-.564 2.099-1.534 2.099-.973.001-1.524-.605-1.524-2.099zm.804 0c0 1.205.269 1.463.72 1.463.46 0 .713-.258.713-1.463 0-1.211-.252-1.463-.713-1.463-.451 0-.72.252-.72 1.463zM2.265 68.127c0-1.475.552-2.099 1.524-2.098.971 0 1.535.605 1.535 2.099 0 1.493-.565 2.099-1.536 2.099-.971-.001-1.523-.607-1.523-2.1zm.803 0c.001 1.206.271 1.463.72 1.463.461 0 .713-.258.713-1.464 0-1.211-.251-1.463-.714-1.463-.448.001-.719.253-.719 1.464z"/></g><g fill="#1e84ce"><path d="M34.13 33.288s.039.08.04.22a.572.572 0 0 1-.04.219h-1.208v.704h.632c.528 0 .872.348.872.867s-.344.867-.872.867h-1.143l.001-2.878 1.718.001zm-1.208 2.487h.528c.305 0 .449-.18.449-.476s-.145-.476-.448-.475h-.528l-.001.951zM36.609 33.288a.86.86 0 0 1 .295.036v2.807s-.084.036-.252.036c-.188.001-.26-.036-.26-.036v-.975c-.001-.776.04-1.147.04-1.147h-.016s-.08.244-.444.976l-.572 1.147c-.004 0-.108.036-.312.036-.224 0-.304-.036-.304-.036v-2.806s.084-.036.252-.036c.172 0 .26.036.263.036l.001.972c0 .719-.036 1.223-.036 1.223h.016c.073-.252.268-.664.464-1.056l.568-1.139c.001-.002.088-.038.297-.038zM37.259 36.154a.567.567 0 0 1 .001-.375c.036 0 .085.004.156-.009.124-.02.356-.207.433-1.203l.1-1.279h1.599v2.842s-.084.036-.252.036c-.188 0-.26-.036-.256-.036v-2.45h-.64l-.068.895c-.107 1.432-.567 1.611-.839 1.612a.869.869 0 0 1-.234-.033zM41.73 33.288c.024.06.04.124.04.192a.6.6 0 0 1-.04.22h-1.14l-.001.8h.94a.546.546 0 0 1 0 .411h-.94v.844h1.18a.553.553 0 0 1 0 .412h-1.691l.001-2.878 1.651-.001zM44.015 33.288a.65.65 0 0 0 .001.44h-.708v2.402s-.092.036-.256.036a.641.641 0 0 1-.256-.036v-2.402h-.727s-.04-.084-.041-.216c0-.128.041-.223.041-.223l1.946-.001zM46.655 33.288s.04.08.04.22c0 .128-.04.22-.04.22l-1.207.001v.704l.632-.001c.528 0 .871.348.872.867 0 .52-.343.868-.872.868h-1.143l-.001-2.878 1.719-.001zm-1.207 2.487h.528c.303 0 .447-.181.448-.477 0-.295-.144-.475-.448-.475h-.528v.952zM48.349 33.288c.196 0 .312.036.312.036l.956 2.806s-.092.036-.279.036a.644.644 0 0 1-.249-.036l-.216-.639h-1.091l-.215.64s-.088.036-.248.036c-.152 0-.236-.036-.236-.036l.956-2.806c-.002-.001.13-.037.31-.037zm-.029.535s-.04.204-.119.444l-.281.811h.812l-.271-.812c-.084-.248-.124-.444-.124-.444l-.017.001zM51.495 33.324s.088-.036.256-.036.256.036.256.036v2.806s-.083.036-.251.036c-.188 0-.261-.036-.261-.036v-1.219l-1.055.001v1.219s-.092.036-.256.036c-.184 0-.256-.036-.256-.036v-2.807s.084-.036.252-.036a.75.75 0 0 1 .26.036l-.001 1.148h1.056v-1.148zM54.012 33.324a.994.994 0 0 1 .528 0l-.888 1.291 1.012 1.515s-.104.036-.304.036c-.184 0-.292-.036-.292-.036l-.843-1.255h-.18v1.255s-.072.036-.256.036a.766.766 0 0 1-.256-.036v-2.806s.088-.036.26-.036c.168 0 .252.036.252.036v1.143h.18l.787-1.143zM56.08 33.288c.196 0 .312.036.312.036l.955 2.806s-.092.036-.279.036a.644.644 0 0 1-.249-.036l-.216-.639h-1.091l-.216.64s-.087.036-.248.036c-.152 0-.236-.036-.236-.036l.956-2.806c0-.001.132-.037.312-.037zm-.029.535s-.04.204-.12.444l-.28.812h.812l-.271-.812c-.084-.248-.124-.444-.124-.444h-.017zM58.708 36.13s-.084.036-.252.036c-.188 0-.26-.036-.26-.036v-2.842h1.072c.539 0 .891.363.891.899.001.536-.351.9-.891.899l-.56.001v1.043zm.487-1.467c.28 0 .428-.176.428-.476s-.148-.475-.428-.475h-.488l.001.951h.487zM61.595 33.248c.704 0 1.155.443 1.156 1.479 0 1.035-.44 1.479-1.156 1.479-.715.001-1.156-.444-1.156-1.479 0-1.023.453-1.479 1.156-1.479zm-.001.424c-.368 0-.615.208-.615 1.056 0 .844.248 1.055.616 1.055.376.001.616-.211.616-1.055 0-.848-.24-1.056-.617-1.056zM64.293 33.248c.442-.001.691.139.691.139a.485.485 0 0 1-.151.379s-.228-.083-.484-.083c-.424 0-.731.22-.731 1.047 0 .828.307 1.031.731 1.031.288.001.524-.084.524-.084a.53.53 0 0 1 .152.388s-.268.14-.731.139c-.792.001-1.211-.515-1.211-1.478-.001-.962.417-1.478 1.21-1.478zM66.377 33.247c.444 0 .691.141.691.141.013.164-.059.28-.151.379 0 0-.228-.084-.484-.084-.424 0-.732.22-.732 1.048.001.827.309 1.032.733 1.032.288-.001.524-.085.524-.085.099.092.151.24.152.388 0 0-.268.14-.732.14-.791 0-1.211-.515-1.211-1.479-.001-.964.418-1.479 1.21-1.48zM69.266 33.288a.87.87 0 0 1 .296.036v2.806s-.084.036-.252.036c-.188.001-.26-.036-.26-.036v-.975c0-.776.04-1.148.04-1.148h-.016s-.08.244-.444.976l-.572 1.147c-.004 0-.108.036-.312.036-.224-.001-.304-.037-.304-.037v-2.806s.084-.036.252-.036c.172 0 .26.036.263.036l.001.971c0 .719-.036 1.224-.036 1.224h.015c.073-.252.268-.663.464-1.056l.568-1.138c.002 0 .09-.036.297-.036zM71.911 33.288c.208 0 .297.037.297.037l-.001 2.806s-.084.036-.251.036c-.188 0-.261-.036-.261-.036v-.975c0-.776.04-1.148.04-1.148h-.016s-.08.244-.444.976l-.572 1.147c-.004 0-.108.036-.312.036-.223 0-.304-.037-.304-.037v-2.806s.084-.036.253-.036c.172 0 .259.036.263.036v.971c0 .719-.036 1.224-.036 1.224h.016c.072-.252.268-.663.464-1.056l.567-1.139c.002 0 .089-.036.297-.036z"/></g><g fill="#1e84ce"><path d="M37.032 70.122s-.105.045-.315.045c-.235 0-.325-.044-.325-.044v-3.008H35.13v3.008s-.115.045-.32.045c-.23 0-.32-.045-.32-.045v-3.559h2.543l-.001 3.558zM40.053 70.122s-.09.044-.325.045c-.21 0-.316-.045-.316-.045v-1.337h-.45l-.766 1.337s-.135.045-.365.045c-.23 0-.361-.045-.361-.045l.811-1.407c-.431-.15-.686-.531-.685-1.041 0-.665.441-1.111 1.116-1.111h1.341v3.559zm-1.251-3.028c-.352-.001-.536.21-.536.58-.001.371.184.581.535.581h.611v-1.162l-.61.001zM42.947 66.563s.05.12.049.27c0 .16-.049.281-.049.281h-.886l.001 3.009s-.116.044-.321.044c-.23 0-.32-.045-.32-.045v-3.008h-.911s-.05-.105-.049-.27c0-.16.049-.281.049-.281h2.437zM44.821 67.974c.676 0 1.117.441 1.117 1.096-.001.655-.441 1.096-1.116 1.096h-1.416v-3.559s.09-.045.326-.045c.21 0 .315.045.315.045l-.001 1.366.775.001zm-.089 1.662c.35 0 .535-.205.534-.566 0-.36-.185-.565-.535-.565h-.686v1.131h.687zM47.8 66.513c.556 0 .866.175.866.175.015.205-.075.35-.19.476 0 0-.286-.105-.606-.105-.53.001-.916.275-.916 1.311s.385 1.292.915 1.291c.36.001.656-.105.656-.105a.667.667 0 0 1 .191.486s-.336.175-.916.175c-.991 0-1.517-.646-1.517-1.852.001-1.207.527-1.852 1.517-1.852zM50.346 66.513c.88-.001 1.446.555 1.446 1.852 0 1.296-.55 1.852-1.446 1.852-.895 0-1.447-.556-1.447-1.852.001-1.282.566-1.852 1.447-1.852zm0 .53c-.46 0-.771.26-.771 1.321 0 1.056.311 1.322.771 1.321.47 0 .771-.265.771-1.321 0-1.06-.301-1.321-.771-1.321zM54.485 66.563s.05.12.049.27c0 .16-.049.281-.049.281h-.886l.001 3.009s-.116.044-.32.045c-.231 0-.32-.045-.32-.045l-.001-3.009h-.911s-.05-.105-.049-.27c0-.16.05-.28.05-.28l2.436-.001zM56.268 70.121s-.105.044-.315.045c-.235-.001-.326-.045-.326-.045v-3.559h1.342c.676 0 1.116.456 1.116 1.126 0 .671-.44 1.127-1.116 1.127l-.701-.001v1.307zm.612-1.836c.35 0 .535-.22.536-.596-.001-.376-.185-.595-.536-.595h-.611v1.191h.611zM60.79 66.563c.18 0 .316.045.316.045l-.982 2.592c-.32.851-.8.966-1.131.966-.201 0-.321-.05-.321-.05s-.05-.1-.05-.255c0-.14.03-.255.03-.255s.135.01.246.01c.205 0 .41-.08.606-.526h-.145l-1.162-2.482s.115-.045.351-.045c.26 0 .36.045.36.045l.646 1.386c.135.301.196.521.196.521l.02-.001s.061-.24.175-.535l.53-1.371a.9.9 0 0 1 .315-.045zM63.644 66.563s.051.1.051.275c0 .16-.051.275-.051.275h-1.511l-.001.88.791.001c.661 0 1.091.435 1.091 1.086s-.431 1.086-1.091 1.086h-1.431v-3.603h2.152zm-1.511 3.113h.66c.381 0 .561-.225.561-.595 0-.371-.18-.596-.561-.596h-.66v1.191zM64.272 70.151a.743.743 0 0 1-.04-.23c0-.08.01-.156.04-.24.045 0 .105.005.195-.01.155-.025.445-.26.54-1.506l.125-1.601h2.002v3.559s-.105.044-.314.045c-.236 0-.326-.045-.32-.045v-3.068h-.801l-.085 1.122c-.136 1.791-.711 2.016-1.051 2.016a1.1 1.1 0 0 1-.291-.042zM69.863 66.563c.03.075.05.155.051.241 0 .095-.015.19-.05.275h-1.427v1.001h1.176a.695.695 0 0 1 .001.514h-1.177v1.057h1.477c.03.08.05.165.05.251 0 .089-.016.18-.05.265h-2.118v-3.603l2.067-.001zM72.694 66.563c.259 0 .37.045.37.045v3.514s-.105.045-.315.045c-.236 0-.326-.045-.326-.045v-1.221c0-.971.05-1.436.05-1.436h-.02s-.101.305-.556 1.221l-.715 1.436c-.005.001-.135.045-.39.045-.281 0-.38-.044-.38-.044v-3.514s.105-.045.315-.046c.215 0 .325.046.33.045v1.217c0 .901-.045 1.531-.045 1.531h.02c.09-.315.335-.831.581-1.322l.71-1.426s.111-.045.371-.045zm-.376-1.052c.13.046.245.181.291.32 0 0-.286.366-.866.366-.582 0-.867-.366-.867-.366a.51.51 0 0 1 .291-.32s.209.171.576.171a.96.96 0 0 0 .575-.171z"/></g><path fill="#0294fe" d="M10 59h30v4H10z"/><linearGradient id="f" gradientUnits="userSpaceOnUse" x1="40.998" y1="62.466" x2="40.998" y2="39.466" gradientTransform="translate(2.002 .534)"><stop offset="0" stop-color="#80bce6"/><stop offset="1" stop-color="#72bde9"/></linearGradient><path fill="url(#f)" d="M32 58v-5h4v-5h-1v-2h1v-1h2v1h1v-6h1v6h1v2h-1v5h4v-9h1v11h2V43h1v12h2v-9h1v9h3l-1 4-12 4-3-6-.25 2H32"/><path fill="#1e84ce" d="M23 66l-1-9-2 1-1-1 4-7v-2l-1-1-3 6h-2v-1l1-1 3-7h2v-3l2-1h2v3l-1 1 2 1v3l2 3-2 3v3l-1 1-1 8zM21 66h7v2h-7zM19 68h11v2H19z"/><path fill="none" stroke="#1e84ce" stroke-width=".5" stroke-miterlimit="10" d="M17.75 52l4.5 16"/></g><g clip-path="url(#c)"><linearGradient id="g" gradientUnits="userSpaceOnUse" x1="48.087" y1="57.327" x2="37.909" y2="-.395" gradientTransform="translate(2.002 .534)"><stop offset=".161" stop-color="#fff"/><stop offset=".299" stop-color="#f6fcff"/><stop offset=".523" stop-color="#def2ff"/><stop offset=".803" stop-color="#b7e3ff"/><stop offset="1" stop-color="#97d7ff"/></linearGradient><path fill="url(#g)" d="M1 7h88v44H1z"/><linearGradient id="h" gradientUnits="userSpaceOnUse" x1="44.939" y1="53.65" x2="36.057" y2="3.282" gradientTransform="translate(2.002 .534)"><stop offset="0" stop-color="#72bde9"/><stop offset="1" stop-color="#c7eafb"/></linearGradient><path fill="url(#h)" d="M20 7h45v44H20z"/><circle cx="10.5" cy="12.5" r="3.5" fill="#0294fe"/><g fill="#1e84ce"><path d="M22.731 11.888c.088-.008.184-.008.296-.008 1.199 0 1.863.496 1.864 1.671 0 1.096-.688 1.696-2.095 1.695-.984 0-1.383-.288-1.383-.288-.016-.272.08-.576.248-.744 0 0 .416.168 1.04.168.719 0 1.151-.223 1.151-.832 0-.711-.376-.846-1.208-.847-.303 0-.6.008-.903.032l-.001-3.007h2.918c.104.288.105.624.001.88h-1.927l-.001 1.28zM25.715 12.448c0-1.967.736-2.798 2.031-2.799 1.295 0 2.047.808 2.047 2.799.001 1.991-.752 2.798-2.046 2.798-1.296 0-2.032-.807-2.032-2.798zm1.071 0c0 1.607.36 1.951.96 1.951.616 0 .952-.344.951-1.951 0-1.615-.336-1.951-.951-1.952-.6 0-.96.337-.96 1.952zM30.659 12.448c0-1.967.736-2.799 2.032-2.798s2.047.808 2.047 2.799c0 1.991-.752 2.798-2.046 2.798-1.297-.001-2.033-.808-2.033-2.799zm1.071 0c0 1.607.361 1.951.961 1.951.615 0 .951-.344.951-1.951-.001-1.616-.337-1.952-.951-1.952-.601.001-.96.337-.961 1.952z"/></g><g fill="#1e84ce"><path d="M6.319 44.708c.066-.007.137-.008.222-.007.9 0 1.397.372 1.397 1.254 0 .821-.515 1.271-1.571 1.272-.737 0-1.037-.217-1.037-.217-.012-.204.06-.431.185-.557 0 0 .312.125.78.126.539 0 .864-.168.863-.624 0-.534-.281-.636-.905-.636-.228 0-.45.006-.677.025v-2.255h2.189a.965.965 0 0 1 0 .66H6.319v.959zM8.557 45.127c.001-1.476.552-2.099 1.524-2.099.971 0 1.535.605 1.534 2.099 0 1.493-.564 2.099-1.534 2.099-.973.001-1.524-.605-1.524-2.099zm.804 0c0 1.205.269 1.463.72 1.463.46 0 .713-.258.713-1.463 0-1.211-.252-1.463-.713-1.463-.451 0-.72.252-.72 1.463zM12.265 45.127c0-1.475.552-2.099 1.524-2.098.971 0 1.535.605 1.535 2.099 0 1.493-.565 2.099-1.536 2.099-.971-.001-1.523-.607-1.523-2.1zm.803 0c.001 1.206.271 1.463.72 1.463.461 0 .713-.258.713-1.464 0-1.211-.251-1.463-.714-1.463-.448.001-.719.253-.719 1.464z"/></g><g fill="#1e84ce"><path d="M44.13 10.288s.039.08.04.22a.572.572 0 0 1-.04.219h-1.208v.704h.632c.528 0 .872.348.872.867 0 .52-.344.867-.872.867h-1.143l.001-2.878 1.718.001zm-1.208 2.487h.528c.305 0 .449-.18.449-.476s-.145-.476-.448-.475h-.528l-.001.951zM46.609 10.288a.86.86 0 0 1 .295.036v2.807s-.084.036-.252.036c-.188.001-.26-.036-.26-.036v-.975c-.001-.776.04-1.147.04-1.147h-.016s-.08.244-.444.976l-.572 1.147c-.004 0-.108.036-.312.036-.224 0-.304-.036-.304-.036v-2.806s.084-.036.252-.036c.172 0 .26.036.263.036l.001.972c0 .719-.036 1.223-.036 1.223h.016c.073-.252.268-.664.464-1.056l.568-1.139c.001-.002.088-.038.297-.038zM47.259 13.154a.567.567 0 0 1 .001-.375c.036 0 .085.004.156-.009.124-.02.356-.207.433-1.203l.1-1.279h1.599v2.842s-.084.036-.252.036c-.188 0-.26-.036-.256-.036v-2.45h-.64l-.068.895c-.107 1.432-.567 1.611-.839 1.612a.869.869 0 0 1-.234-.033zM51.73 10.288c.024.06.04.124.04.192a.6.6 0 0 1-.04.22h-1.14l-.001.8h.94a.546.546 0 0 1 0 .411h-.94v.844h1.18a.553.553 0 0 1 0 .412h-1.691l.001-2.878 1.651-.001zM54.015 10.288a.65.65 0 0 0 .001.44h-.708v2.402s-.092.036-.256.036a.641.641 0 0 1-.256-.036v-2.402h-.727s-.04-.084-.041-.216c0-.128.041-.223.041-.223l1.946-.001zM56.655 10.288s.04.08.04.22c0 .128-.04.22-.04.22l-1.207.001v.704l.632-.001c.528 0 .871.348.872.867 0 .52-.343.868-.872.868h-1.143l-.001-2.878 1.719-.001zm-1.207 2.487h.528c.303 0 .447-.181.448-.477 0-.295-.144-.475-.448-.475h-.528v.952zM58.349 10.288c.196 0 .312.036.312.036l.956 2.806s-.092.036-.279.036a.644.644 0 0 1-.249-.036l-.216-.639h-1.091l-.215.64s-.088.036-.248.036c-.152 0-.236-.036-.236-.036l.956-2.806c-.002-.001.13-.037.31-.037zm-.029.535s-.04.204-.119.444l-.281.811h.812l-.271-.812c-.084-.248-.124-.444-.124-.444l-.017.001zM61.495 10.324s.088-.036.256-.036.256.036.256.036v2.806s-.083.036-.251.036c-.188 0-.261-.036-.261-.036v-1.219l-1.055.001v1.219s-.092.036-.256.036c-.184 0-.256-.036-.256-.036v-2.807s.084-.036.252-.036a.75.75 0 0 1 .26.036l-.001 1.148h1.056v-1.148zM64.012 10.324a.994.994 0 0 1 .528 0l-.888 1.291 1.012 1.515s-.104.036-.304.036c-.184 0-.292-.036-.292-.036l-.843-1.255h-.18v1.255s-.072.036-.256.036a.766.766 0 0 1-.256-.036v-2.806s.088-.036.26-.036c.168 0 .252.036.252.036v1.143h.18l.787-1.143zM66.08 10.288c.196 0 .312.036.312.036l.955 2.806s-.092.036-.279.036a.644.644 0 0 1-.249-.036l-.216-.639h-1.091l-.216.64s-.087.036-.248.036c-.152 0-.236-.036-.236-.036l.956-2.806c0-.001.132-.037.312-.037zm-.029.535s-.04.204-.12.444l-.28.812h.812l-.271-.812c-.084-.248-.124-.444-.124-.444h-.017zM68.708 13.13s-.084.036-.252.036c-.188 0-.26-.036-.26-.036v-2.842h1.072c.539 0 .891.363.891.899.001.536-.351.9-.891.899l-.56.001v1.043zm.487-1.467c.28 0 .428-.176.428-.476s-.148-.475-.428-.475h-.488l.001.951h.487zM71.595 10.248c.704 0 1.155.443 1.156 1.479 0 1.035-.44 1.479-1.156 1.479-.715.001-1.156-.444-1.156-1.479 0-1.023.453-1.479 1.156-1.479zm-.001.424c-.368 0-.615.208-.615 1.056 0 .844.248 1.055.616 1.055.376.001.616-.211.616-1.055 0-.848-.24-1.056-.617-1.056zM74.293 10.248c.442-.001.691.139.691.139a.485.485 0 0 1-.151.379s-.228-.083-.484-.083c-.424 0-.731.219-.731 1.047s.307 1.031.731 1.031c.288.001.524-.084.524-.084a.53.53 0 0 1 .152.388s-.268.14-.731.139c-.792.001-1.211-.515-1.211-1.478-.001-.962.417-1.478 1.21-1.478zM76.377 10.247c.444 0 .691.141.691.141.013.164-.059.28-.151.379 0 0-.228-.084-.484-.084-.424 0-.732.22-.732 1.048.001.827.309 1.032.733 1.032.288-.001.524-.085.524-.085.099.092.151.24.152.388 0 0-.268.14-.732.14-.791 0-1.211-.515-1.211-1.479-.001-.964.418-1.479 1.21-1.48zM79.266 10.288a.87.87 0 0 1 .296.036v2.806s-.084.036-.252.036c-.188.001-.26-.036-.26-.036v-.975c0-.776.04-1.148.04-1.148h-.016s-.08.244-.444.976l-.572 1.147c-.004 0-.108.036-.312.036-.224-.001-.304-.037-.304-.037v-2.806s.084-.036.252-.036c.172 0 .26.036.263.036l.001.971c0 .719-.036 1.224-.036 1.224h.015c.073-.252.268-.663.464-1.056l.568-1.138c.002 0 .09-.036.297-.036zM81.911 10.288c.208 0 .297.037.297.037l-.001 2.806s-.084.036-.251.036c-.188 0-.261-.036-.261-.036v-.975c0-.776.04-1.148.04-1.148h-.016s-.08.244-.444.976l-.572 1.147c-.004 0-.108.036-.312.036-.223 0-.304-.037-.304-.037v-2.806s.084-.036.253-.036c.172 0 .259.036.263.036v.971c0 .719-.036 1.224-.036 1.224h.016c.072-.252.268-.663.464-1.056l.567-1.139c.002 0 .089-.036.297-.036z"/></g><g fill="#1e84ce"><path d="M47.032 47.122s-.105.045-.315.045c-.235 0-.325-.044-.325-.044v-3.008H45.13v3.008s-.115.045-.32.045c-.23 0-.32-.045-.32-.045v-3.559h2.543l-.001 3.558zM50.053 47.122s-.09.044-.325.045c-.21 0-.316-.045-.316-.045v-1.337h-.45l-.766 1.337s-.135.045-.365.045c-.23 0-.361-.045-.361-.045l.811-1.407c-.431-.15-.686-.531-.685-1.041 0-.665.441-1.111 1.116-1.111h1.341v3.559zm-1.251-3.028c-.352-.001-.536.21-.536.58-.001.371.184.581.535.581h.611v-1.162l-.61.001zM52.947 43.563s.05.12.049.27c0 .16-.049.281-.049.281h-.886l.001 3.009s-.116.044-.321.044c-.23 0-.32-.045-.32-.045v-3.008h-.911s-.05-.105-.049-.27c0-.16.049-.281.049-.281h2.437zM54.821 44.974c.676 0 1.117.441 1.117 1.096-.001.655-.441 1.096-1.116 1.096h-1.416v-3.559s.09-.045.326-.045c.21 0 .315.045.315.045l-.001 1.366.775.001zm-.089 1.662c.35 0 .535-.205.534-.566 0-.36-.185-.565-.535-.565h-.686v1.131h.687zM57.8 43.513c.556 0 .866.175.866.175.015.205-.075.35-.19.476 0 0-.286-.105-.606-.105-.53.001-.916.275-.916 1.311 0 1.037.385 1.292.915 1.291.36.001.656-.105.656-.105a.667.667 0 0 1 .191.486s-.336.175-.916.175c-.991 0-1.517-.646-1.517-1.852.001-1.207.527-1.852 1.517-1.852zM60.346 43.513c.88-.001 1.446.555 1.446 1.852 0 1.296-.55 1.852-1.446 1.852-.895 0-1.447-.556-1.447-1.852.001-1.282.566-1.852 1.447-1.852zm0 .53c-.46 0-.771.26-.771 1.321 0 1.056.311 1.322.771 1.321.47 0 .771-.265.771-1.321 0-1.06-.301-1.321-.771-1.321zM64.485 43.563s.05.12.049.27c0 .16-.049.281-.049.281h-.886l.001 3.009s-.116.044-.32.045c-.231 0-.32-.045-.32-.045l-.001-3.009h-.911s-.05-.105-.049-.27c0-.16.05-.28.05-.28l2.436-.001zM66.268 47.121s-.105.044-.315.045c-.235-.001-.326-.045-.326-.045v-3.559h1.342c.676 0 1.116.456 1.116 1.126 0 .671-.44 1.127-1.116 1.127l-.701-.001v1.307zm.612-1.836c.35 0 .535-.22.536-.596-.001-.376-.185-.595-.536-.595h-.611v1.191h.611zM70.79 43.563c.18 0 .316.045.316.045l-.982 2.592c-.32.851-.8.966-1.131.966-.201 0-.321-.05-.321-.05s-.05-.1-.05-.255c0-.14.03-.255.03-.255s.135.01.246.01c.205 0 .41-.08.606-.526h-.145l-1.162-2.482s.115-.045.351-.045c.26 0 .36.045.36.045l.646 1.386c.135.301.196.521.196.521l.02-.001s.061-.24.175-.535l.53-1.371a.9.9 0 0 1 .315-.045zM73.644 43.563s.051.1.051.275c0 .16-.051.275-.051.275h-1.511l-.001.88.791.001c.661 0 1.091.435 1.091 1.086s-.431 1.086-1.091 1.086h-1.431v-3.603h2.152zm-1.511 3.113h.66c.381 0 .561-.225.561-.595 0-.371-.18-.596-.561-.596h-.66v1.191zM74.272 47.151a.743.743 0 0 1-.04-.23c0-.08.01-.156.04-.24.045 0 .105.005.195-.01.155-.025.445-.26.54-1.506l.125-1.601h2.002v3.559s-.105.044-.314.045c-.236 0-.326-.045-.32-.045v-3.068h-.801l-.085 1.122c-.136 1.791-.711 2.016-1.051 2.016a1.1 1.1 0 0 1-.291-.042zM79.863 43.563c.03.075.05.155.051.241 0 .095-.015.19-.05.275h-1.427v1.001h1.176a.695.695 0 0 1 .001.514h-1.177v1.057h1.477c.03.08.05.165.05.251 0 .089-.016.18-.05.265h-2.118v-3.603l2.067-.001zM82.694 43.563c.259 0 .37.045.37.045v3.514s-.105.045-.315.045c-.236 0-.326-.045-.326-.045v-1.221c0-.971.05-1.436.05-1.436h-.02s-.101.305-.556 1.221l-.715 1.436c-.005.001-.135.045-.39.045-.281 0-.38-.044-.38-.044v-3.514s.105-.045.315-.046c.215 0 .325.046.33.045v1.217c0 .901-.045 1.531-.045 1.531h.02c.09-.315.335-.831.581-1.322l.71-1.426s.111-.045.371-.045zm-.376-1.052c.13.046.245.181.291.32 0 0-.286.366-.866.366-.582 0-.867-.366-.867-.366a.51.51 0 0 1 .291-.32s.209.171.576.171a.96.96 0 0 0 .575-.171z"/></g><path fill="#0294fe" d="M20 36h30v4H20z"/><linearGradient id="i" gradientUnits="userSpaceOnUse" x1="50.998" y1="39.466" x2="50.998" y2="16.466" gradientTransform="translate(2.002 .534)"><stop offset="0" stop-color="#80bce6"/><stop offset="1" stop-color="#72bde9"/></linearGradient><path fill="url(#i)" d="M42 35v-5h4v-5h-1v-2h1v-1h2v1h1v-6h1v6h1v2h-1v5h4v-9h1v11h2V20h1v12h2v-9h1v9h3l-1 4-12 4-3-6-.25 2H42"/><path fill="#1e84ce" d="M33 43l-1-9-2 1-1-1 4-7v-2l-1-1-3 6h-2v-1l1-1 3-7h2v-3l2-1h2v3l-1 1 2 1v3l2 3-2 3v3l-1 1-1 8zM31 43h7v2h-7zM29 45h11v2H29z"/><path fill="none" stroke="#1e84ce" stroke-width=".5" stroke-miterlimit="10" d="M27.75 29l4.5 16"/></g><linearGradient id="j" gradientUnits="userSpaceOnUse" x1="44.87" y1="51.259" x2="71.129" y2="96.741"><stop offset=".117" stop-color="#ffc107"/><stop offset=".707" stop-color="#ff950d"/></linearGradient><path d="M80 91H36a4 4 0 0 1-4-4V61a4 4 0 0 1 4-4h44a4 4 0 0 1 4 4v26a4 4 0 0 1-4 4z" clip-path="url(#c)" fill="url(#j)"/><linearGradient id="k" gradientUnits="userSpaceOnUse" x1="65.799" y1="79.508" x2="50.201" y2="52.492"><stop offset="0" stop-color="#1a1a1a"/><stop offset="1" stop-color="#4d4d4d"/></linearGradient><path clip-path="url(#c)" fill="url(#k)" d="M32 63h52v6H32z"/><path clip-path="url(#c)" fill="#fff" d="M36 73h30v6H36zM77 79h-4a3 3 0 1 1 0-6h4a3 3 0 1 1 0 6z"/></svg>