<svg xmlns="http://www.w3.org/2000/svg" xmlns:xlink="http://www.w3.org/1999/xlink" viewBox="0 0 98 98"><defs><circle id="a" cx="49" cy="49" r="49"/></defs><clipPath id="b"><use xlink:href="#a" overflow="visible"/></clipPath><linearGradient id="c" gradientUnits="userSpaceOnUse" x1="73.504" y1="91.442" x2="24.496" y2="6.558"><stop offset="0" stop-color="#033a82"/><stop offset=".486" stop-color="#3b9ce9"/><stop offset="1" stop-color="#bfe8fe"/></linearGradient><circle cx="49" cy="49" r="49" clip-path="url(#b)" fill="url(#c)"/><linearGradient id="d" gradientUnits="userSpaceOnUse" x1="42.916" y1="12.86" x2="38.075" y2="4.475"><stop offset="0" stop-color="#fff" stop-opacity=".2"/><stop offset="1" stop-color="#fff" stop-opacity=".5"/></linearGradient><path d="M45.667 7.5c-.289 0-.558.077-.798.201a2.328 2.328 0 0 0-1.724-1.328 3.498 3.498 0 1 0-6.616-.02c-.066-.006-.129-.02-.196-.02a2.334 2.334 0 0 0 0 4.667h9.333a1.75 1.75 0 0 0 .001-3.5z" clip-path="url(#b)" fill="url(#d)"/><linearGradient id="e" gradientUnits="userSpaceOnUse" x1="68.736" y1="18.656" x2="61.821" y2="6.678"><stop offset="0" stop-color="#fff" stop-opacity=".2"/><stop offset="1" stop-color="#fff" stop-opacity=".5"/></linearGradient><path d="M72.667 11c-.413 0-.797.11-1.14.287a3.324 3.324 0 0 0-2.463-1.897A5 5 0 0 0 64.333 6a4.998 4.998 0 0 0-4.72 3.362c-.094-.008-.184-.028-.28-.028a3.333 3.333 0 1 0 0 6.666h13.333a2.5 2.5 0 0 0 .001-5z" clip-path="url(#b)" fill="url(#e)"/><linearGradient id="f" gradientUnits="userSpaceOnUse" x1="27.988" y1="96.653" x2="78.682" y2="8.847"><stop offset="0" stop-color="#fff" stop-opacity=".2"/><stop offset="1" stop-color="#fff" stop-opacity=".5"/></linearGradient><path d="M88 20v21H74V24H47v12h-6V10H13v78h85V20H88zM20 36h-4v-3h4v3zm0-6h-4v-3h4v3zm0-6h-4v-3h4v3zm0-6h-4v-3h4v3zm6 18h-4v-3h4v3zm0-6h-4v-3h4v3zm0-6h-4v-3h4v3zm0-6h-4v-3h4v3zm6 18h-4v-3h4v3zm0-6h-4v-3h4v3zm0-6h-4v-3h4v3zm0-6h-4v-3h4v3zm6 18h-4v-3h4v3zm0-6h-4v-3h4v3zm0-6h-4v-3h4v3zm0-6h-4v-3h4v3zm14 32h-3v-4h3v4zm0-6h-3v-4h3v4zm0-6h-3v-4h3v4zm0-6h-3v-4h3v4zm5 18h-3v-4h3v4zm0-6h-3v-4h3v4zm0-6h-3v-4h3v4zm0-6h-3v-4h3v4zm5 18h-3v-4h3v4zm0-6h-3v-4h3v4zm0-6h-3v-4h3v4zm0-6h-3v-4h3v4zm5 18h-3v-4h3v4zm0-6h-3v-4h3v4zm0-6h-3v-4h3v4zm0-6h-3v-4h3v4zm5 18h-3v-4h3v4zm0-6h-3v-4h3v4zm0-6h-3v-4h3v4zm0-6h-3v-4h3v4zm17-5h7v3h-7v-3zm0 6h7v3h-7v-3zm0 6h7v3h-7v-3zm3 22h-3v-4h3v4zm0-6h-3v-4h3v4zm0-6h-3v-4h3v4zm5 12h-3v-4h3v4zm0-6h-3v-4h3v4zm0-6h-3v-4h3v4z" clip-path="url(#b)" fill="url(#f)"/><linearGradient id="g" gradientUnits="userSpaceOnUse" x1="59.132" y1="105.852" x2="40.118" y2="72.921"><stop offset="0" stop-color="#cc441f"/><stop offset=".298" stop-color="#ff7238"/><stop offset=".992" stop-color="#efaf67"/></linearGradient><path clip-path="url(#b)" fill="url(#g)" d="M14 88h72L71 99H18z"/><linearGradient id="h" gradientUnits="userSpaceOnUse" x1="58.891" y1="108.229" x2="36.109" y2="68.771"><stop offset="0" stop-color="#fff" stop-opacity="0"/><stop offset=".998" stop-color="#fff"/></linearGradient><path clip-path="url(#b)" fill="url(#h)" d="M8 85h79v7H8z"/><g clip-path="url(#b)"><linearGradient id="i" gradientUnits="userSpaceOnUse" x1="37.574" y1="88.216" x2="19.426" y2="56.784"><stop offset="0" stop-color="#4d4d4d"/><stop offset="1" stop-color="gray"/></linearGradient><path fill="url(#i)" d="M0 68h57v9H0z"/><path fill="#0453a1" d="M57 73h34v4H57z"/><linearGradient id="j" gradientUnits="userSpaceOnUse" x1="83.044" y1="77.593" x2="58.956" y2="35.871"><stop offset="0" stop-color="#0c74d5"/><stop offset="1" stop-color="#7bcaff"/></linearGradient><path fill="url(#j)" d="M83 37H57v36h34V56z"/><path fill="#1a1a1a" d="M0 68h57v2H0z"/><linearGradient id="k" gradientUnits="userSpaceOnUse" x1="75.001" y1="86.662" x2="64.999" y2="69.338"><stop offset=".2" stop-color="#1a1a1a"/><stop offset=".8" stop-color="#4d4d4d"/></linearGradient><circle cx="70" cy="78" r="10" fill="url(#k)"/><linearGradient id="l" gradientUnits="userSpaceOnUse" x1="73.501" y1="71.937" x2="66.499" y2="84.063"><stop offset=".2" stop-color="#1a1a1a"/><stop offset=".8" stop-color="#4d4d4d"/></linearGradient><circle cx="70" cy="78" r="7" fill="url(#l)"/><circle cx="70" cy="78" r="4" fill="#1a1a1a"/><circle cx="70" cy="78" r="3" fill="#ff950d"/><linearGradient id="m" gradientUnits="userSpaceOnUse" x1="23.001" y1="86.662" x2="12.999" y2="69.338"><stop offset=".2" stop-color="#1a1a1a"/><stop offset=".8" stop-color="#4d4d4d"/></linearGradient><circle cx="18" cy="78" r="10" fill="url(#m)"/><linearGradient id="n" gradientUnits="userSpaceOnUse" x1="21.501" y1="71.937" x2="14.499" y2="84.063"><stop offset=".2" stop-color="#1a1a1a"/><stop offset=".8" stop-color="#4d4d4d"/></linearGradient><circle cx="18" cy="78" r="7" fill="url(#n)"/><circle cx="18" cy="78" r="4" fill="#1a1a1a"/><circle cx="18" cy="78" r="3" fill="#ff950d"/><linearGradient id="o" gradientUnits="userSpaceOnUse" x1="42.294" y1="71.294" x2="18.17" y2="29.51"><stop offset=".293" stop-color="#ff950d"/><stop offset=".883" stop-color="#ffc107"/></linearGradient><path fill="url(#o)" d="M48 32l-2 8H0v28h48l7-33 5-1v-2z"/><g fill="#ff950d"><path d="M9 45h7.762L17 44H8L3 65h1.238zM23 45h7.762L31 44h-9l-5 21h1.238zM37 45h7.762L45 44h-9l-5 21h1.238z"/></g><g fill="#ffc107"><path d="M15.762 44L11 64H3.238L3 65h9l5-21zM43.762 44L39 64h-7.762L31 65h9l5-21zM29.762 44L25 64h-7.762L17 65h9l5-21z"/></g><path fill="#998675" d="M0 40h43l-4-1-2-2-3 1-3-1h-2l-2-3h-2l-3 2-3-3-2 1-2-2-2 1h-2l-3 1-2 1H0z"/><linearGradient id="p" gradientUnits="userSpaceOnUse" x1="80.214" y1="60.495" x2="67.536" y2="38.536"><stop offset=".312" stop-color="#97d7ff"/><stop offset="1" stop-color="#fff"/></linearGradient><path fill="url(#p)" d="M81 40l7 16H65V40z"/><linearGradient id="q" gradientUnits="userSpaceOnUse" x1="61.933" y1="44.616" x2="60.067" y2="41.384"><stop offset="0" stop-color="#7bcaff"/><stop offset="1" stop-color="#0c74d5"/></linearGradient><path fill="url(#q)" d="M59 42h4v2h-4z"/><linearGradient id="r" gradientUnits="userSpaceOnUse" x1="61.933" y1="48.616" x2="60.067" y2="45.384"><stop offset="0" stop-color="#7bcaff"/><stop offset="1" stop-color="#0c74d5"/></linearGradient><path fill="url(#r)" d="M59 46h4v2h-4z"/><linearGradient id="s" gradientUnits="userSpaceOnUse" x1="61.933" y1="52.616" x2="60.067" y2="49.384"><stop offset="0" stop-color="#7bcaff"/><stop offset="1" stop-color="#0c74d5"/></linearGradient><path fill="url(#s)" d="M59 50h4v2h-4z"/><linearGradient id="t" gradientUnits="userSpaceOnUse" x1="70.183" y1="62.049" x2="67.817" y2="57.951"><stop offset=".2" stop-color="#1a1a1a"/><stop offset=".8" stop-color="#4d4d4d"/></linearGradient><path fill="url(#t)" d="M66 59h6v2h-6z"/></g></svg>