<svg width="335" height="140" fill="none" xmlns="http://www.w3.org/2000/svg"><rect width="335" height="140" rx="28" fill="#406AFE"/><path opacity=".2" d="M315 32.065L241.64 12 315 66.865 146.429 12 315 101.351 67.606 18.584 277.54 123.297 20 43.978l153.743 81.514L20 93.2 91.019 128l-46.046-4.703" stroke="#fff" stroke-width="6" stroke-linecap="round" stroke-linejoin="round"/><path d="M186.195 60.484a27.557 27.557 0 00-1.809-1.618c-2.194 1.884-4.455 3.228-10.233 7.428-2.529 1.843-4.899 3.361-6.549 4.88 4.078.174 7.671 3.66 7.671 7.744 0 4.191-3.442 7.61-7.679 7.61-4.162 0-7.604-3.303-7.713-7.403 0-5.619 4.02-8.864 13.206-14.94 4.589-3.037 9.329-6.166 13.223-10.357 5.1-5.486 7.688-11.819 7.688-18.815h-18.641c0 4.946-3.844 8.009-12.62 13.81-4.723 3.12-9.597 6.35-13.625 10.732-5.218 5.685-7.864 12.267-7.864 19.562.025 3.444.754 6.789 2.102 9.951a25.943 25.943 0 005.636 8.283 26.207 26.207 0 008.358 5.586 26.381 26.381 0 0010.241 2.05 26.353 26.353 0 0018.6-7.636 25.943 25.943 0 005.636-8.283 25.752 25.752 0 002.068-10.15c0-3.52-.695-6.93-2.068-10.15a25.791 25.791 0 00-5.628-8.284z" fill="#fff"/><mask id="a" maskUnits="userSpaceOnUse" x="141" y="35" width="53" height="70"><path d="M186.195 60.484a27.557 27.557 0 00-1.809-1.618c-2.194 1.884-4.455 3.228-10.233 7.428-2.529 1.843-4.899 3.361-6.549 4.88 4.078.174 7.671 3.66 7.671 7.744 0 4.191-3.442 7.61-7.679 7.61-4.162 0-7.604-3.303-7.713-7.403 0-5.619 4.02-8.864 13.206-14.94 4.589-3.037 9.329-6.166 13.223-10.357 5.1-5.486 7.688-11.819 7.688-18.815h-18.641c0 4.946-3.844 8.009-12.62 13.81-4.723 3.12-9.597 6.35-13.625 10.732-5.218 5.685-7.864 12.267-7.864 19.562.025 3.444.754 6.789 2.102 9.951a25.943 25.943 0 005.636 8.283 26.207 26.207 0 008.358 5.586 26.381 26.381 0 0010.241 2.05 26.353 26.353 0 0018.6-7.636 25.943 25.943 0 005.636-8.283 25.752 25.752 0 002.068-10.15c0-3.52-.695-6.93-2.068-10.15a25.791 25.791 0 00-5.628-8.284z" fill="#406AFE"/></mask><g opacity=".2" filter="url(#filter0_f)" mask="url(#a)"><rect x="157.786" y="44.164" width="33.911" height="33.911" rx="16.955" fill="#1B202A"/></g><g filter="url(#filter1_b)"><path d="M159.883 79.125c.109 4.1 3.551 7.403 7.713 7.403l-.009 18.459c-3.542 0-6.992-.689-10.241-2.05a26.207 26.207 0 01-8.358-5.586 25.943 25.943 0 01-5.636-8.283c-1.348-3.162-2.077-6.507-2.102-9.951 0-7.295 2.646-13.877 7.864-19.562 4.028-4.383 8.902-7.611 13.625-10.732 8.776-5.801 12.62-8.864 12.62-13.81H194c0 6.996-2.588 13.329-7.688 18.815-3.873 4.17-8.584 7.288-13.151 10.31l-.072.048c-9.186 6.075-13.206 9.32-13.206 14.94z" fill="#fff"/></g><path opacity=".1" d="M33.025 114.759l18.41 13.366-16.644-28.75 30.515 28.75-3.202-13.794 16.316 13.794 2.336-8.728 25.658 8.728-10.592-11.853" stroke="#406AFE" stroke-width="6.211" stroke-linecap="round" stroke-linejoin="round"/><defs><filter id="filter0_f" x="131.619" y="17.997" width="86.244" height="86.244" filterUnits="userSpaceOnUse" color-interpolation-filters="sRGB"><feFlood flood-opacity="0" result="BackgroundImageFix"/><feBlend in="SourceGraphic" in2="BackgroundImageFix" result="shape"/><feGaussianBlur stdDeviation="13.083" result="effect1_foregroundBlur"/></filter><filter id="filter1_b" x="134.324" y="28.086" width="66.603" height="83.827" filterUnits="userSpaceOnUse" color-interpolation-filters="sRGB"><feFlood flood-opacity="0" result="BackgroundImageFix"/><feGaussianBlur in="BackgroundImage" stdDeviation="3.463"/><feComposite in2="SourceAlpha" operator="in" result="effect1_backgroundBlur"/><feBlend in="SourceGraphic" in2="effect1_backgroundBlur" result="shape"/></filter></defs></svg>