<svg width="200" height="200" fill="none" xmlns="http://www.w3.org/2000/svg"><rect width="200" height="200" rx="43" fill="#406AFE"/><path opacity=".2" d="M183.928 45.982l-41.964-28.571 41.964 78.125L87.5 17.41l96.428 127.232L42.411 26.786 162.5 175.893 15.178 62.947l87.947 116.071-87.947-45.982 40.626 49.553-26.34-6.696" stroke="#fff" stroke-width="8.054" stroke-linecap="round" stroke-linejoin="round"/><path d="M128.125 84.216c-.959-.95-1.973-1.831-3.001-2.685-3.639 3.125-7.39 5.356-16.975 12.322-4.195 3.056-8.126 5.576-10.862 8.095 6.765.289 12.724 6.071 12.724 12.845 0 6.952-5.709 12.624-12.738 12.624-6.904 0-12.613-5.479-12.794-12.28 0-9.32 6.668-14.703 21.906-24.78 7.613-5.04 15.475-10.23 21.934-17.182 8.46-9.1 12.752-19.605 12.752-31.21H110.15c0 8.205-6.376 13.285-20.934 22.908-7.835 5.176-15.92 10.532-22.601 17.801-8.654 9.43-13.044 20.348-13.044 32.449.042 5.714 1.25 11.262 3.487 16.507a43.042 43.042 0 009.349 13.74c4 3.965 8.668 7.09 13.863 9.265a43.759 43.759 0 0016.989 3.401c5.89 0 11.599-1.143 16.989-3.401a43.474 43.474 0 0013.863-9.265 43.043 43.043 0 009.349-13.74 42.706 42.706 0 003.431-16.837 42.66 42.66 0 00-3.431-16.837c-2.181-5.15-5.335-9.775-9.335-13.74z" fill="#fff"/><mask id="a" maskUnits="userSpaceOnUse" x="53" y="41" width="89" height="118"><path d="M128.125 84.216c-.959-.95-1.973-1.831-3.001-2.685-3.639 3.125-7.39 5.356-16.975 12.322-4.195 3.056-8.126 5.576-10.862 8.095 6.765.289 12.724 6.071 12.724 12.845 0 6.952-5.709 12.624-12.738 12.624-6.904 0-12.613-5.479-12.794-12.28 0-9.32 6.668-14.703 21.906-24.78 7.613-5.04 15.475-10.23 21.934-17.182 8.46-9.1 12.752-19.605 12.752-31.21H110.15c0 8.205-6.376 13.285-20.934 22.908-7.835 5.176-15.92 10.532-22.601 17.801-8.654 9.43-13.044 20.348-13.044 32.449.042 5.714 1.25 11.262 3.487 16.507a43.042 43.042 0 009.349 13.74c4 3.965 8.668 7.09 13.863 9.265a43.759 43.759 0 0016.989 3.401c5.89 0 11.599-1.143 16.989-3.401a43.474 43.474 0 0013.863-9.265 43.043 43.043 0 009.349-13.74 42.706 42.706 0 003.431-16.837 42.66 42.66 0 00-3.431-16.837c-2.181-5.15-5.335-9.775-9.335-13.74z" fill="#406AFE"/></mask><g opacity=".2" filter="url(#filter0_f)" mask="url(#a)"><rect x="81" y="57.143" width="56.25" height="56.25" rx="28.125" fill="#1B202A"/></g><g filter="url(#filter1_b)"><path d="M84.479 115.137c.18 6.801 5.89 12.28 12.794 12.28l-.014 30.619c-5.876 0-11.6-1.143-16.989-3.401a43.468 43.468 0 01-13.863-9.265 43.042 43.042 0 01-9.349-13.74c-2.236-5.245-3.445-10.793-3.487-16.507 0-12.101 4.39-23.018 13.044-32.449 6.682-7.27 14.766-12.625 22.6-17.801 14.559-9.623 20.935-14.703 20.935-22.909h30.921c0 11.606-4.292 22.11-12.752 31.21-6.425 6.917-14.24 12.09-21.815 17.103l-.119.08c-15.238 10.077-21.906 15.46-21.906 24.78z" fill="#fff"/></g><path opacity=".1" d="M28.607 163.941l26.3 19.094-23.778-41.071 43.593 41.071-4.574-19.705 23.308 19.705 3.337-12.468 36.654 12.468-15.132-16.933" stroke="#406AFE" stroke-width="7.222" stroke-linecap="round" stroke-linejoin="round"/><defs><filter id="filter0_f" x="50.574" y="26.717" width="117.103" height="117.103" filterUnits="userSpaceOnUse" color-interpolation-filters="sRGB"><feFlood flood-opacity="0" result="BackgroundImageFix"/><feBlend in="SourceGraphic" in2="BackgroundImageFix" result="shape"/><feGaussianBlur stdDeviation="15.213" result="effect1_foregroundBlur"/></filter><filter id="filter1_b" x="45.517" y="33.91" width="103.608" height="132.18" filterUnits="userSpaceOnUse" color-interpolation-filters="sRGB"><feFlood flood-opacity="0" result="BackgroundImageFix"/><feGaussianBlur in="BackgroundImage" stdDeviation="4.027"/><feComposite in2="SourceAlpha" operator="in" result="effect1_backgroundBlur"/><feBlend in="SourceGraphic" in2="effect1_backgroundBlur" result="shape"/></filter></defs></svg>