<svg width="335" height="140" viewBox="0 0 335 140" fill="none" xmlns="http://www.w3.org/2000/svg">
<path d="M162.413 29.0627L133.038 9.06274L162.413 63.7502L94.9129 9.06274L162.413 98.1252L63.3504 15.6252L147.413 120L44.2879 40.9377L105.85 122.188L44.2879 90.0002L72.7254 124.688L54.2879 120" stroke="#406AFE" stroke-width="5.5762" stroke-linecap="round" stroke-linejoin="round"/>
<rect width="335" height="140" rx="28" fill="#406AFE"/>
<mask id="mask0" mask-type="alpha" maskUnits="userSpaceOnUse" x="0" y="0" width="335" height="140">
<rect width="335" height="140" rx="28" fill="#406AFE"/>
</mask>
<g mask="url(#mask0)">
<path opacity="0.2" d="M80.1752 80.3798L115.789 61.51L88.4142 90.7449L142.897 61.51L106.752 107.223L182.232 72.1409L149.186 134.302L257.849 72.1409L223.663 153.43L318.895 72.1409" stroke="white" stroke-width="6.25" stroke-linecap="round" stroke-linejoin="round"/>
<g filter="url(#filter0_b)">
<path fill-rule="evenodd" clip-rule="evenodd" d="M144.429 -33.425L187.251 4.48941L144.429 -33.425Z" fill="url(#paint0_linear)" fill-opacity="0.76"/>
<path fill-rule="evenodd" clip-rule="evenodd" d="M144.429 -33.425L187.251 4.48941L144.429 -33.425Z" fill="url(#paint1_linear)" fill-opacity="0.76"/>
<path d="M87.9213 30.4268C69.8514 50.8193 83.0971 78.9902 83.0971 78.9902C83.0971 78.9902 112.924 88.436 130.719 68.3293L187.251 4.48941L144.429 -33.425L87.9213 30.4268Z" fill="url(#paint2_linear)" fill-opacity="0.76"/>
</g>
<g filter="url(#filter1_b)">
<path fill-rule="evenodd" clip-rule="evenodd" d="M144.425 -33.4238L187.247 4.49069L144.425 -33.4238Z" fill="url(#paint3_linear)" fill-opacity="0.76"/>
<path d="M198.373 -51.2137C186.545 -61.6839 168.475 -60.5881 158.005 -48.7599L144.425 -33.4238L187.247 4.49069L200.827 -10.8455C211.297 -22.6736 210.189 -40.7434 198.373 -51.2137Z" fill="url(#paint4_linear)" fill-opacity="0.76"/>
<path fill-rule="evenodd" clip-rule="evenodd" d="M144.425 -33.4238L187.247 4.49069L144.425 -33.4238Z" fill="url(#paint5_linear)" fill-opacity="0.76"/>
</g>
</g>
<defs>
<filter id="filter0_b" x="72.7908" y="-39.05" width="120.085" height="125.882" filterUnits="userSpaceOnUse" color-interpolation-filters="sRGB">
<feFlood flood-opacity="0" result="BackgroundImageFix"/>
<feGaussianBlur in="BackgroundImage" stdDeviation="2.8125"/>
<feComposite in2="SourceAlpha" operator="in" result="effect1_backgroundBlur"/>
<feBlend mode="normal" in="SourceGraphic" in2="effect1_backgroundBlur" result="shape"/>
</filter>
<filter id="filter1_b" x="138.8" y="-64.0266" width="74.8356" height="74.1423" filterUnits="userSpaceOnUse" color-interpolation-filters="sRGB">
<feFlood flood-opacity="0" result="BackgroundImageFix"/>
<feGaussianBlur in="BackgroundImage" stdDeviation="2.8125"/>
<feComposite in2="SourceAlpha" operator="in" result="effect1_backgroundBlur"/>
<feBlend mode="normal" in="SourceGraphic" in2="effect1_backgroundBlur" result="shape"/>
</filter>
<linearGradient id="paint0_linear" x1="89.8539" y1="68.6018" x2="195.367" y2="-3.52098" gradientUnits="userSpaceOnUse">
<stop stop-color="white"/>
<stop offset="1" stop-color="white" stop-opacity="0.36"/>
</linearGradient>
<linearGradient id="paint1_linear" x1="89.8539" y1="68.6018" x2="195.367" y2="-3.52098" gradientUnits="userSpaceOnUse">
<stop stop-color="white"/>
<stop offset="1" stop-color="white" stop-opacity="0.36"/>
</linearGradient>
<linearGradient id="paint2_linear" x1="89.8539" y1="68.6018" x2="195.367" y2="-3.52098" gradientUnits="userSpaceOnUse">
<stop stop-color="white"/>
<stop offset="1" stop-color="white" stop-opacity="0.36"/>
</linearGradient>
<linearGradient id="paint3_linear" x1="151.108" y1="-2.42495" x2="210.231" y2="-45.4597" gradientUnits="userSpaceOnUse">
<stop stop-color="white"/>
<stop offset="1" stop-color="white" stop-opacity="0.36"/>
</linearGradient>
<linearGradient id="paint4_linear" x1="151.108" y1="-2.42495" x2="210.231" y2="-45.4597" gradientUnits="userSpaceOnUse">
<stop stop-color="white"/>
<stop offset="1" stop-color="white" stop-opacity="0.36"/>
</linearGradient>
<linearGradient id="paint5_linear" x1="151.108" y1="-2.42495" x2="210.231" y2="-45.4597" gradientUnits="userSpaceOnUse">
<stop stop-color="white"/>
<stop offset="1" stop-color="white" stop-opacity="0.36"/>
</linearGradient>
</defs>
</svg>
