<svg width="335" height="140" viewBox="0 0 335 140" fill="none" xmlns="http://www.w3.org/2000/svg">
<mask id="mask0" mask-type="alpha" maskUnits="userSpaceOnUse" x="0" y="0" width="335" height="140">
<rect width="335" height="140" rx="28" fill="#406AFE"/>
</mask>
<g mask="url(#mask0)">
<rect x="0.0232544" width="335" height="140" rx="28" fill="#406AFE"/>
<g opacity="0.2">
<path d="M171.139 -26.8201L187.64 6.79427C190.231 12.0721 191.526 14.711 193.517 16.0242C195.263 17.176 197.364 17.6652 199.439 17.4037C201.805 17.1054 204.134 15.3106 208.79 11.721L240.23 -12.516M166.803 -6.77194L184.805 -24.7903" stroke="white" stroke-width="5.63434" stroke-linecap="round" stroke-linejoin="round"/>
<path d="M246.455 0.956046C242.168 2.67291 240.085 7.53978 241.802 11.8265C243.519 16.1132 248.386 18.1965 252.672 16.4796C256.959 14.7628 259.042 9.8959 257.326 5.60918C255.609 1.32246 250.742 -0.76082 246.455 0.956046Z" stroke="white" stroke-width="5.63434" stroke-linecap="round" stroke-linejoin="round"/>
</g>
<g opacity="0.2">
<path d="M334.228 -10.0847L358.504 18.427C362.315 22.9037 364.221 25.1421 366.474 25.9242C368.45 26.6102 370.606 26.5668 372.553 25.8019C374.773 24.9298 376.587 22.6166 380.216 17.9902L404.714 -13.2467M334.966 10.4138L347.973 -11.4851" stroke="white" stroke-width="5.63434" stroke-linecap="round" stroke-linejoin="round"/>
</g>
<g opacity="0.2">
<path d="M66.2489 117.46L36.1625 139.754C31.4386 143.254 29.0767 145.004 28.1441 147.2C27.3263 149.125 27.2239 151.279 27.8556 153.273C28.5757 155.547 30.7611 157.513 35.1318 161.446L64.6426 187.998M45.7474 116.811L66.7176 131.268" stroke="white" stroke-width="5.63434" stroke-linecap="round" stroke-linejoin="round"/>
<path d="M52.5143 196.551C50.0524 192.644 44.8895 191.473 40.9828 193.935C37.0761 196.397 35.905 201.56 38.3669 205.466C40.8289 209.373 45.9917 210.544 49.8984 208.082C53.8051 205.62 54.9763 200.457 52.5143 196.551Z" stroke="white" stroke-width="5.63434" stroke-linecap="round" stroke-linejoin="round"/>
</g>
<g opacity="0.2">
<path d="M103.346 126.523L118.18 124.375C122.533 123.745 124.71 123.43 126.102 122.315C127.324 121.337 128.155 119.954 128.446 118.417C128.778 116.664 128.036 114.594 126.552 110.453L121.107 95.2633M112.387 131.767L106.471 120.215" stroke="white" stroke-width="4.21492" stroke-linecap="round" stroke-linejoin="round"/>
<path d="M128.615 94.3561C128.776 96.7036 130.81 98.4764 133.157 98.3156C135.505 98.1548 137.277 96.1213 137.117 93.7738C136.956 91.4263 134.922 89.6535 132.575 89.8143C130.227 89.9751 128.454 92.0085 128.615 94.3561Z" stroke="white" stroke-width="4.21492" stroke-linecap="round" stroke-linejoin="round"/>
</g>
<g opacity="0.2">
<path d="M298.946 35.7272L310.583 26.2795C313.997 23.5072 315.705 22.121 316.329 20.4497C316.877 18.9838 316.882 17.3705 316.344 15.9011C315.73 14.2257 314.032 12.8286 310.636 10.0342L298.174 -0.217746M309.398 35.5955L298.397 28.7085" stroke="white" stroke-width="4.21492" stroke-linecap="round" stroke-linejoin="round"/>
<path d="M304.156 -4.84523C305.497 -2.91194 308.152 -2.43207 310.085 -3.77342C312.019 -5.11477 312.498 -7.76939 311.157 -9.70269C309.816 -11.636 307.161 -12.1158 305.228 -10.7745C303.295 -9.43314 302.815 -6.77852 304.156 -4.84523Z" stroke="white" stroke-width="4.21492" stroke-linecap="round" stroke-linejoin="round"/>
</g>
<g opacity="0.2">
<path d="M105.887 60.1004L91.1576 57.3226C86.8354 56.5075 84.6744 56.0999 82.9954 56.7032C81.5228 57.2324 80.288 58.2707 79.514 59.6307C78.6316 61.1813 78.6624 63.3803 78.724 67.7781L78.9498 83.9129M99.034 52.2084L100.885 65.0547" stroke="white" stroke-width="4.21492" stroke-linecap="round" stroke-linejoin="round"/>
<path d="M71.5533 82.3368C72.1623 80.0639 70.8135 77.7277 68.5406 77.1187C66.2677 76.5097 63.9315 77.8585 63.3225 80.1314C62.7135 82.4043 64.0623 84.7405 66.3352 85.3495C68.608 85.9585 70.9442 84.6097 71.5533 82.3368Z" stroke="white" stroke-width="4.21492" stroke-linecap="round" stroke-linejoin="round"/>
</g>
<g opacity="0.2">
<path d="M267.082 50.6467L253.011 55.8112C248.882 57.3267 246.817 58.0845 245.685 59.4631C244.692 60.6723 244.164 62.1968 244.196 63.7612C244.233 65.5449 245.387 67.4173 247.694 71.1619L256.158 84.9002M257.152 47.3827L265.326 57.4645" stroke="white" stroke-width="4.21492" stroke-linecap="round" stroke-linejoin="round"/>
<path d="M248.999 87.338C248.357 85.0743 246.001 83.7596 243.738 84.4017C241.474 85.0438 240.159 87.3994 240.801 89.6632C241.444 91.9269 243.799 93.2416 246.063 92.5995C248.327 91.9574 249.641 89.6018 248.999 87.338Z" stroke="white" stroke-width="4.21492" stroke-linecap="round" stroke-linejoin="round"/>
</g>
<g opacity="0.2">
<path d="M102.488 -23.0093L94.1342 -5.63646C91.683 -0.53863 90.4574 2.01029 90.6479 4.29686C90.8151 6.30234 91.694 8.18191 93.1258 9.59602C94.7584 11.2083 97.5002 11.902 102.984 13.2895L123.103 18.3796M90.4028 -17.1233L106.977 -15.1465" stroke="white" stroke-width="5.42071" stroke-linecap="round" stroke-linejoin="round"/>
<path d="M118.684 27.0432C116.063 25.5302 112.712 26.4281 111.199 29.0489C109.686 31.6696 110.584 35.0208 113.204 36.5339C115.825 38.047 119.176 37.149 120.689 34.5283C122.202 31.9075 121.305 28.5563 118.684 27.0432Z" stroke="white" stroke-width="5.42071" stroke-linecap="round" stroke-linejoin="round"/>
</g>
<g opacity="0.2">
<path d="M86.611 154.319C89.2318 155.832 92.5829 154.934 94.096 152.313C95.6091 149.692 94.7112 146.341 92.0904 144.828C89.4696 143.315 86.1185 144.213 84.6054 146.834C83.0923 149.455 83.9902 152.806 86.611 154.319Z" stroke="white" stroke-width="5.42071" stroke-linecap="round" stroke-linejoin="round"/>
</g>
<g opacity="0.2">
<path d="M178.872 94.4529L192.351 124.38C196.307 133.162 198.284 137.553 201.473 139.811C204.269 141.792 207.681 142.707 211.093 142.391C214.984 142.031 218.893 139.219 226.712 133.595L255.397 112.961M173.294 116.651L194.038 97.222" stroke="white" stroke-width="6.88642" stroke-linecap="round" stroke-linejoin="round"/>
<path d="M261.841 128.214C256.996 129.971 254.493 135.321 256.249 140.166C258.005 145.01 263.356 147.513 268.2 145.757C273.044 144.001 275.548 138.65 273.792 133.806C272.035 128.962 266.685 126.458 261.841 128.214Z" stroke="white" stroke-width="6.88642" stroke-linecap="round" stroke-linejoin="round"/>
</g>
<g opacity="0.2">
<path d="M16.6984 93.6256L22.1339 61.256C23.7288 51.7575 24.5263 47.0083 23.1318 43.3588C21.9087 40.1579 19.5812 37.5 16.5697 35.8653C13.1361 34.0014 8.32314 34.1652 -1.30274 34.4929L-36.6177 35.6953M33.6764 78.2759L5.63218 82.8918" stroke="white" stroke-width="6.88641" stroke-linecap="round" stroke-linejoin="round"/>
<path d="M-33.4928 19.4334C-28.4899 20.667 -23.4342 17.6115 -22.2006 12.6086C-20.9669 7.60572 -24.0225 2.55003 -29.0254 1.3164C-34.0283 0.0827693 -39.0839 3.13835 -40.3176 8.14122C-41.5512 13.1441 -38.4956 18.1998 -33.4928 19.4334Z" stroke="white" stroke-width="6.88642" stroke-linecap="round" stroke-linejoin="round"/>
</g>
<path d="M197.118 100.599L215.795 119.227" stroke="white" stroke-width="7" stroke-linecap="round" stroke-linejoin="round"/>
<g filter="url(#filter0_b)">
<ellipse cx="165.382" cy="66.3883" rx="47.6386" ry="47.6386" fill="url(#paint0_linear)" fill-opacity="0.76"/>
</g>
<g opacity="0.2">
<path d="M327.834 173.812L341.908 144.16C346.038 135.459 348.103 131.108 347.759 127.217C347.457 123.803 345.944 120.611 343.494 118.215C340.701 115.484 336.026 114.326 326.677 112.011L292.378 103.517M348.36 163.686L320.122 160.463" stroke="white" stroke-width="6.88642" stroke-linecap="round" stroke-linejoin="round"/>
<path d="M299.828 88.7283C304.303 91.2821 310.001 89.7244 312.555 85.2491C315.109 80.7737 313.551 75.0755 309.076 72.5217C304.6 69.9679 298.902 71.5256 296.348 76.0009C293.794 80.4763 295.352 86.1745 299.828 88.7283Z" stroke="white" stroke-width="6.88642" stroke-linecap="round" stroke-linejoin="round"/>
</g>
</g>
<defs>
<filter id="filter0_b" x="112.109" y="13.1154" width="106.546" height="106.546" filterUnits="userSpaceOnUse" color-interpolation-filters="sRGB">
<feFlood flood-opacity="0" result="BackgroundImageFix"/>
<feGaussianBlur in="BackgroundImage" stdDeviation="2.81717"/>
<feComposite in2="SourceAlpha" operator="in" result="effect1_backgroundBlur"/>
<feBlend mode="normal" in="SourceGraphic" in2="effect1_backgroundBlur" result="shape"/>
</filter>
<linearGradient id="paint0_linear" x1="127.757" y1="103.55" x2="217.018" y2="39.287" gradientUnits="userSpaceOnUse">
<stop stop-color="white"/>
<stop offset="1" stop-color="white" stop-opacity="0.36"/>
</linearGradient>
</defs>
</svg>
