<svg width="201" height="201" viewBox="0 0 201 201" fill="none" xmlns="http://www.w3.org/2000/svg">
<mask id="mask0" mask-type="alpha" maskUnits="userSpaceOnUse" x="0" y="0" width="201" height="201">
<rect width="200.332" height="200.332" rx="43" fill="#406AFE"/>
</mask>
<g mask="url(#mask0)">
<path d="M187.811 41.5866L145.777 12.9678L187.811 91.2225L91.2228 12.9678L187.811 140.411L46.0586 22.3583L166.347 171.713L18.7812 58.5791L106.874 174.843L18.7812 128.785L59.4737 178.421L33.0907 171.713" stroke="#406AFE" stroke-width="7.97923" stroke-linecap="round" stroke-linejoin="round"/>
<rect width="200.332" height="200.332" rx="42.9283" fill="#406AFE"/>
<mask id="mask1" mask-type="alpha" maskUnits="userSpaceOnUse" x="0" y="0" width="201" height="201">
<rect width="200.332" height="200.332" rx="42.9283" fill="#406AFE"/>
</mask>
<g mask="url(#mask1)">
<path d="M187.811 41.5866L145.777 12.9678L187.811 91.2225L91.2228 12.9678L187.811 140.411L46.0586 22.3583L166.347 171.713L18.7812 58.5791L106.874 174.843L18.7812 128.785L59.4737 178.421L33.0907 171.713" stroke="#406AFE" stroke-width="7.97923" stroke-linecap="round" stroke-linejoin="round"/>
<rect width="200.332" height="200.332" rx="43" fill="#406AFE"/>
<g opacity="0.2">
<path d="M100.39 -8.85037L135.07 31.8808C140.515 38.276 143.237 41.4736 146.456 42.5909C149.279 43.5709 152.359 43.5089 155.14 42.4162C158.311 41.1703 160.903 37.8658 166.086 31.2567L201.084 -13.3675M101.444 20.4333L120.026 -10.8509" stroke="white" stroke-width="8.04906" stroke-linecap="round" stroke-linejoin="round"/>
<path d="M214.445 3.09426C209.114 6.9803 207.943 14.4519 211.829 19.7826C215.715 25.1133 223.187 26.2844 228.518 22.3984C233.848 18.5124 235.019 11.0407 231.133 5.71003C227.247 0.379341 219.776 -0.79178 214.445 3.09426Z" stroke="white" stroke-width="8.04906" stroke-linecap="round" stroke-linejoin="round"/>
</g>
<g opacity="0.2">
<path d="M8.00264 180.747L29.1944 177.679C35.4129 176.779 38.5221 176.329 40.5117 174.736C42.2567 173.339 43.4445 171.363 43.8604 169.167C44.3347 166.663 43.2746 163.705 41.1545 157.791L33.3762 136.091M20.919 188.239L12.4677 171.735" stroke="white" stroke-width="6.02132" stroke-linecap="round" stroke-linejoin="round"/>
<path d="M44.1017 134.794C44.3314 138.148 47.2363 140.681 50.5899 140.451C53.9436 140.221 56.476 137.316 56.2463 133.963C56.0166 130.609 53.1117 128.077 49.7581 128.306C46.4044 128.536 43.872 131.441 44.1017 134.794Z" stroke="white" stroke-width="6.02132" stroke-linecap="round" stroke-linejoin="round"/>
</g>
<g opacity="0.2">
<path d="M6.77677 -32.8704L-5.1569 -8.05211C-8.65869 -0.76948 -10.4096 2.87183 -10.1373 6.13837C-9.89855 9.00334 -8.64299 11.6884 -6.59749 13.7086C-4.26529 16.0119 -0.34832 17.0029 7.48562 18.9849L36.2264 26.2565M-10.4875 -24.4618L13.1903 -21.6378" stroke="white" stroke-width="7.74386" stroke-linecap="round" stroke-linejoin="round"/>
<path d="M29.913 38.6332C26.1691 36.4716 21.3817 37.7544 19.2201 41.4983C17.0586 45.2423 18.3413 50.0296 22.0853 52.1912C25.8292 54.3528 30.6166 53.07 32.7782 49.3261C34.9397 45.5821 33.657 40.7947 29.913 38.6332Z" stroke="white" stroke-width="7.74386" stroke-linecap="round" stroke-linejoin="round"/>
</g>
<g opacity="0.2">
<path d="M121.885 122.148L133.311 167.625C136.664 180.969 138.34 187.641 142.256 191.619C145.69 195.107 150.258 197.253 155.136 197.667C160.697 198.14 166.902 195.169 179.312 189.227L224.841 167.426M108.457 151.961L142.515 129.858" stroke="white" stroke-width="9.83774" stroke-linecap="round" stroke-linejoin="round"/>
<path d="M230.065 190.499C222.811 191.75 217.945 198.644 219.196 205.898C220.447 213.152 227.341 218.019 234.595 216.768C241.849 215.517 246.716 208.622 245.465 201.368C244.214 194.114 237.319 189.248 230.065 190.499Z" stroke="white" stroke-width="9.83774" stroke-linecap="round" stroke-linejoin="round"/>
</g>
<path d="M144.199 145.951L170.925 172.608" stroke="white" stroke-width="10" stroke-linecap="round" stroke-linejoin="round"/>
<g filter="url(#filter0_b)">
<ellipse cx="96.7869" cy="94.9982" rx="68.1681" ry="68.1681" fill="url(#paint0_linear)" fill-opacity="0.76"/>
</g>
</g>
</g>
<defs>
<filter id="filter0_b" x="20.5697" y="18.781" width="152.434" height="152.434" filterUnits="userSpaceOnUse" color-interpolation-filters="sRGB">
<feFlood flood-opacity="0" result="BackgroundImageFix"/>
<feGaussianBlur in="BackgroundImage" stdDeviation="4.02453"/>
<feComposite in2="SourceAlpha" operator="in" result="effect1_backgroundBlur"/>
<feBlend mode="normal" in="SourceGraphic" in2="effect1_backgroundBlur" result="shape"/>
</filter>
<linearGradient id="paint0_linear" x1="42.9472" y1="148.175" x2="170.674" y2="56.2177" gradientUnits="userSpaceOnUse">
<stop stop-color="white"/>
<stop offset="1" stop-color="white" stop-opacity="0.36"/>
</linearGradient>
</defs>
</svg>
