<svg width="335" height="145" fill="none" xmlns="http://www.w3.org/2000/svg"><rect width="335" height="140" rx="28" fill="#406AFE"/><path opacity=".1" d="M87.863 8.4h-17.5m17.5 16.178h-34.3m47.6 41.222h-17.5m-34.3-16.282h-28.7m144.9-21.868h-18.9M144.913 14h-28.35m35.35 116.2h-23.45m-22.05-13.65h-22.75m-34.3-38.15h-18.9m138.6-20.3h-17.15m-81.55 74.55h-31.15m107.45-47.25h-19.95m-43.05 17.85h-16.1M242.514 141.604h-17.5m17.5-16.178h-34.3m47.6-41.222h-17.5m-34.3 16.281h-28.7m144.9 21.869h-18.9m-1.75 13.65h-28.35m35.35-116.2h-23.45m-22.05 13.65h-22.75m-34.3 38.15h-18.9m121.45 28.881h-17.15m-64.4-83.132h-31.15m107.45 47.25h-19.95m-43.05-17.85h-16.1" stroke="#fff" stroke-width="5.6" stroke-linecap="round"/><path d="M135.706 94.626h32.249a8.4 8.4 0 006.713-3.35L190.671 70m0 0l7.881 24.626M190.671 70l-9.011-28.16a8.4 8.4 0 00-8-5.839h-4.655" stroke="#fff" stroke-width="7" stroke-linecap="round" stroke-linejoin="round"/><g filter="url(#filter0_b)"><rect x="122.098" y="81.9" width="25.2" height="25.2" rx="12.6" fill="url(#paint0_linear)" fill-opacity=".76"/></g><g filter="url(#filter1_b)"><rect x="185.798" y="81.9" width="25.2" height="25.2" rx="12.6" fill="url(#paint1_linear)" fill-opacity=".76"/></g><defs><linearGradient id="paint0_linear" x1="124.746" y1="104.329" x2="148.355" y2="87.332" gradientUnits="userSpaceOnUse"><stop stop-color="#fff"/><stop offset="1" stop-color="#fff" stop-opacity=".36"/></linearGradient><linearGradient id="paint1_linear" x1="188.446" y1="104.329" x2="212.055" y2="87.332" gradientUnits="userSpaceOnUse"><stop stop-color="#fff"/><stop offset="1" stop-color="#fff" stop-opacity=".36"/></linearGradient><filter id="filter0_b" x="116.463" y="76.266" width="36.469" height="36.469" filterUnits="userSpaceOnUse" color-interpolation-filters="sRGB"><feFlood flood-opacity="0" result="BackgroundImageFix"/><feGaussianBlur in="BackgroundImage" stdDeviation="2.817"/><feComposite in2="SourceAlpha" operator="in" result="effect1_backgroundBlur"/><feBlend in="SourceGraphic" in2="effect1_backgroundBlur" result="shape"/></filter><filter id="filter1_b" x="180.163" y="76.266" width="36.469" height="36.469" filterUnits="userSpaceOnUse" color-interpolation-filters="sRGB"><feFlood flood-opacity="0" result="BackgroundImageFix"/><feGaussianBlur in="BackgroundImage" stdDeviation="2.817"/><feComposite in2="SourceAlpha" operator="in" result="effect1_backgroundBlur"/><feBlend in="SourceGraphic" in2="effect1_backgroundBlur" result="shape"/></filter></defs></svg>