<svg width="205" height="201" viewBox="0 0 205 201" fill="none" xmlns="http://www.w3.org/2000/svg">
<mask id="mask0" mask-type="alpha" maskUnits="userSpaceOnUse" x="4" y="0" width="201" height="201">
<rect x="4" width="200.332" height="200.332" rx="43" fill="#406AFE"/>
</mask>
<g mask="url(#mask0)">
<rect x="4.00012" y="0.000244141" width="200.332" height="200.332" rx="43" fill="#406AFE"/>
</g>
<path opacity="0.1" d="M93.2075 12H69.9764M93.2075 35.046H47.6745M110.863 93.769H87.6321M42.0991 70.5753H4M196.354 39.4225H171.264M168.941 19.9775H131.307M178.233 185.51H147.104M117.833 166.065H87.6321M42.0991 111.718H17.0094M201 82.8H178.233M69.9764 189H28.625M171.264 121.69H144.781M87.6321 147.118H66.2594" stroke="white" stroke-width="8" stroke-linecap="round"/>
<path d="M58.44 135.18H104.511C108.282 135.18 111.834 133.407 114.1 130.393L136.962 99.9999M136.962 99.9999L148.22 135.18M136.962 99.9999L124.09 59.7726C122.499 54.8025 117.879 51.4299 112.661 51.4299H106.01" stroke="white" stroke-width="10" stroke-linecap="round" stroke-linejoin="round"/>
<g filter="url(#filter0_b)">
<rect x="39" y="117" width="36" height="36" rx="18" fill="url(#paint0_linear)" fill-opacity="0.76"/>
</g>
<g filter="url(#filter1_b)">
<rect x="130" y="117" width="36" height="36" rx="18" fill="url(#paint1_linear)" fill-opacity="0.76"/>
</g>
<defs>
<filter id="filter0_b" x="30.9509" y="108.951" width="52.0981" height="52.0981" filterUnits="userSpaceOnUse" color-interpolation-filters="sRGB">
<feFlood flood-opacity="0" result="BackgroundImageFix"/>
<feGaussianBlur in="BackgroundImage" stdDeviation="4.02453"/>
<feComposite in2="SourceAlpha" operator="in" result="effect1_backgroundBlur"/>
<feBlend mode="normal" in="SourceGraphic" in2="effect1_backgroundBlur" result="shape"/>
</filter>
<filter id="filter1_b" x="121.951" y="108.951" width="52.0981" height="52.0981" filterUnits="userSpaceOnUse" color-interpolation-filters="sRGB">
<feFlood flood-opacity="0" result="BackgroundImageFix"/>
<feGaussianBlur in="BackgroundImage" stdDeviation="4.02453"/>
<feComposite in2="SourceAlpha" operator="in" result="effect1_backgroundBlur"/>
<feBlend mode="normal" in="SourceGraphic" in2="effect1_backgroundBlur" result="shape"/>
</filter>
<linearGradient id="paint0_linear" x1="42.7835" y1="149.041" x2="76.5101" y2="124.76" gradientUnits="userSpaceOnUse">
<stop stop-color="white"/>
<stop offset="1" stop-color="white" stop-opacity="0.36"/>
</linearGradient>
<linearGradient id="paint1_linear" x1="133.783" y1="149.041" x2="167.51" y2="124.76" gradientUnits="userSpaceOnUse">
<stop stop-color="white"/>
<stop offset="1" stop-color="white" stop-opacity="0.36"/>
</linearGradient>
</defs>
</svg>
