<svg width="159" height="46" viewBox="0 0 159 46" fill="none" xmlns="http://www.w3.org/2000/svg">
<path fill-rule="evenodd" clip-rule="evenodd" d="M34.2029 15.3571C33.1841 17.6557 32.6889 20.5658 32.5706 23.7697L26.7254 21.494C26.6637 16.3762 27.2877 11.3951 28.9796 7.78296L34.2029 15.3571Z" fill="#727271"/>
<path fill-rule="evenodd" clip-rule="evenodd" d="M56.9565 16.2961C57.8189 17.6303 58.6446 19.0459 59.4232 20.5398L59.6746 21.028H57.1065C56.5141 20.2636 55.91 19.5348 55.298 18.8434L56.9565 16.2961Z" fill="#5CA636"/>
<path fill-rule="evenodd" clip-rule="evenodd" d="M52.2854 10.2256C53.6962 11.7568 55.0645 13.4841 56.3583 15.3922L54.6068 18.0817C53.2953 16.6729 51.9517 15.4345 50.6093 14.3849L52.2854 10.2256Z" fill="#81BE60"/>
<path fill-rule="evenodd" clip-rule="evenodd" d="M45.8854 4.79077C47.783 5.98359 49.6886 7.54152 51.5328 9.4323L49.7869 13.7653C48.4691 12.8101 47.1586 12.0406 45.8854 11.4745V4.79077Z" fill="#99C76C"/>
<path fill-rule="evenodd" clip-rule="evenodd" d="M38.1358 2.01807C40.2711 2.14413 42.5657 2.89152 44.8908 4.19876V11.0709C43.0769 10.4062 41.3588 10.1772 39.8292 10.4379L38.1358 2.01807Z" fill="#9EBE7F"/>
<path fill-rule="evenodd" clip-rule="evenodd" d="M31.8393 3.93729C33.368 2.70218 35.1638 2.07513 37.1187 2.00464L38.8626 10.6766C38.4329 10.8177 38.0216 11.0029 37.6314 11.2344C36.4169 11.9548 35.4558 13.0175 34.7108 14.3417L29.4972 6.78103C30.1449 5.6444 30.9203 4.67999 31.8393 3.93729Z" fill="#C5C6C6"/>
<path fill-rule="evenodd" clip-rule="evenodd" d="M42.1168 20.3903C42.4139 20.5177 42.6517 20.726 42.8145 20.9789L48.1511 20.9466L55.2876 20.9037L48.2106 21.8217L42.9105 22.5091C42.5491 23.2597 41.657 23.6001 40.8837 23.2687C40.0889 22.9283 39.7205 22.0077 40.0609 21.2131C40.4015 20.4183 41.322 20.0499 42.1168 20.3903Z" fill="#5CA636"/>
<path d="M64.7163 33.3822C65.5483 30.0458 67.8933 28.0139 69.706 27.298C68.0713 29.2413 67.1179 31.0219 66.187 34.006C69.6325 34.2358 71.3733 32.0049 71.9184 28.6406C72.3334 26.0817 72.8276 23.8868 74.9587 23.1883C67.7924 22.9823 62.8221 28.4366 64.7163 33.3822Z" fill="#5CA636"/>
<path d="M42.6811 42.4606C42.6464 42.3463 42.5943 42.2428 42.5246 42.1486C42.456 42.0536 42.3757 41.9733 42.2837 41.9056C42.1916 41.839 42.0902 41.7861 41.9801 41.7491C41.8691 41.7121 41.7549 41.6933 41.6377 41.6933C41.5204 41.6933 41.4051 41.7121 41.2942 41.7491C41.182 41.7861 41.0805 41.839 40.9875 41.9056C40.8943 41.9733 40.814 42.0536 40.7454 42.1486C40.6778 42.2428 40.6271 42.3463 40.5942 42.4606H42.6811ZM22.9555 24.1501C23.084 26.0739 23.3053 28.4608 23.642 31.3364C22.7207 31.4279 21.8477 31.7422 21.0318 32.3222C20.7296 29.9887 20.5272 27.5399 20.4381 24.9643C21.2603 24.4862 22.0982 24.2101 22.9555 24.1501ZM20.3666 23.8638C20.3408 22.594 20.511 16.1988 20.766 15.5321C21.5972 14.887 22.4637 14.8024 23.2246 14.7303C22.8915 17.4723 22.8425 20.2476 22.9289 23.0945C22.1844 23.2184 21.3025 23.4566 20.3666 23.8638ZM20.8663 14.5444C21.2592 12.48 21.5628 10.3861 22.6167 8.30224C23.6945 7.69173 24.378 7.62512 25.0933 7.65863C24.3193 9.38452 23.6392 11.5166 23.3731 13.8146C22.375 13.9143 21.8906 13.9903 20.8663 14.5444ZM23.8962 5.5288L22.3971 7.6807C16.8314 11.7238 12.5838 18.4238 10.2801 30.5363C10.4195 24.0381 14.2548 15.1653 16.4185 10.8201C19.46 8.44505 22.0481 6.5743 23.8962 5.5288ZM22.9328 7.46024C23.6363 6.47235 24.0504 5.68816 24.5177 5.21312C25.5595 4.56257 26.2189 4.18111 28.308 3.29294C26.7748 4.554 26.1233 5.54984 25.4282 6.84073C24.5827 6.86362 23.8782 6.88365 22.9328 7.46024ZM15.4081 11.5517C12.329 17.4805 8.90118 25.1357 9.19867 37.9986H10.284C10.3445 34.7246 11.5314 16.6252 22.1315 8.49225C21.6726 9.42047 21.353 10.2876 21.1524 11.1024C15.7283 15.432 13.7072 21.8155 12.8962 24.9581C13.8935 21.9884 16.3247 15.9654 20.9372 12.1085L20.3827 14.7344C13.3096 19.2574 11.76 31.6441 10.8751 37.9986H11.7725C11.9008 36.3177 13.8545 20.5514 20.1998 15.9135C20.0975 16.9897 20.0092 18.1668 19.942 19.4793C18.7945 19.0255 14.5071 26.5616 13.4528 34.2498C14.2382 30.9964 17.7811 20.7144 19.8535 20.6008L19.7789 24.0745C16.4835 25.5002 14.1046 36.0088 14.0026 37.9986H14.8142C15.1419 36.3177 17.1493 27.3989 19.8267 25.2646L20.1163 28.9232C18.7866 28.6187 16.4847 34.8891 16.1275 37.9986H16.3396C16.5728 35.7507 18.7776 29.7601 20.1377 29.7566C20.1843 30.6325 20.3096 31.8153 20.3788 32.6871C19.1086 33.9652 18.0841 36.3177 17.8316 37.9986L18.7108 37.9976C19.1819 35.7985 19.9252 34.7561 20.5188 33.7927C20.7162 35.5961 21.0143 37.3994 21.0948 37.9986H21.9347L21.1967 33.2842C21.9968 32.6702 22.6827 32.3825 23.783 32.255C24.1886 34.7356 24.7737 37.9986 24.7737 37.9986H26.2916C24.4542 26.2343 19.7765 -2.06127 39.5893 0.920158C39.0814 0.618992 36.3507 -0.741359 31.5195 0.54095C22.6075 2.90677 14.4703 10.7283 7.75618 16.9742C2.06486 22.4172 0.48628 31.8456 0 37.9986H1.27903C1.45516 34.4261 2.38277 26.8115 5.15559 22.5374C3.96891 27.5025 3.26646 31.5201 3.66917 36.3018C3.69471 36.3232 2.76506 35.0092 2.66024 31.4974C2.43958 34.4443 2.6204 36.6379 3.66468 37.9986H4.44864C3.99954 37.0291 3.89432 31.1159 4.78311 28.0176C4.97088 32.8093 5.40017 36.7868 5.85621 37.9986H6.52739C6.23317 37.2531 3.75968 24.7461 7.13177 19.463C6.52044 24.0808 6.06543 30.2441 7.37573 34.2802C7.26826 36.6003 7.20737 37.9647 7.20573 37.9986H7.9088C8.05264 28.8361 10.1557 20.0173 13.7172 13.8039C10.548 18.2287 8.20914 25.6081 7.60517 31.8762C6.8259 28.6727 7.31382 21.5186 7.71204 18.7855C7.96908 18.156 12.1441 14.2277 15.4081 11.5517ZM32.5454 24.8274C32.497 29.019 33.0436 33.6362 33.8755 38.0033L29.1337 38.018C27.8829 33.8996 26.9187 28.2052 26.7481 22.5703L32.5454 24.8274ZM39.7757 34.2381L39.7734 34.2361V35.1206L39.7724 35.5397L39.7734 35.5864V36.1471V36.1824C39.7734 36.54 39.8985 36.8614 40.1488 37.1293C40.4344 37.3796 40.756 37.5226 41.1132 37.5226C41.1487 37.5226 41.1845 37.5226 41.1845 37.5226H49.3654C49.4008 37.5226 49.419 37.5226 49.4367 37.5226C49.8121 37.5226 50.1337 37.3796 50.3835 37.1293C50.6514 36.8614 50.7765 36.54 50.7765 36.1824C50.7765 35.8253 50.6514 35.5039 50.4015 35.2538C50.151 34.9859 49.8478 34.8429 49.4905 34.8429C49.4547 34.8429 49.4189 34.8429 49.3836 34.8429H42.457L42.4737 32.5717H47.9568H47.975C48.2964 32.5717 48.5825 32.4646 48.8325 32.2679C49.1539 31.9824 49.3148 31.6427 49.3148 31.232C49.3148 30.8924 49.2075 30.6068 48.993 30.3567C48.7251 30.0353 48.3861 29.8925 47.975 29.8925H47.9568H42.4737V27.6595V27.6586L49.4008 27.7009C49.4367 27.7009 49.4549 27.702 49.4725 27.7009C49.8658 27.6844 50.1692 27.5401 50.4193 27.2545C50.6694 27.0044 50.7765 26.701 50.7765 26.3612C50.7765 25.9687 50.6336 25.6291 50.3296 25.3791C50.0975 25.1469 49.8121 25.0217 49.4547 25.0217H49.4367H49.4189L43.0775 24.9827L43.0806 24.9802H42.6243L42.3007 24.9782C42.2739 24.978 42.2473 24.9786 42.221 24.9802H41.1342H41.116C40.7227 24.9802 40.3837 25.1408 40.1157 25.4624C39.9013 25.6947 39.7945 25.9806 39.7945 26.302V26.3197L39.7757 34.2381ZM58.4215 25.0013H58.381L58.3747 25.0015H58.3412L58.3281 25.0019L58.3013 25.0021L58.2813 25.0029C57.474 25.0178 56.6993 25.1645 55.9566 25.5035C55.381 25.7589 54.8547 26.0944 54.379 26.5038L54.3684 26.513L54.3494 26.5294L54.3353 26.5418L54.3198 26.5551L54.3018 26.5711L54.2903 26.5813L54.2683 26.6005C54.1694 26.6891 54.0725 26.7807 53.9792 26.8763L53.9755 26.8802L53.9481 26.9078L53.9479 26.9086L53.9201 26.937L53.9168 26.94L53.8862 26.9725L53.8668 26.9934L53.8558 27.0052L53.8251 27.0383L53.8145 27.0502L53.7951 27.0714L53.765 27.1049L53.7628 27.1076L53.7354 27.1386L53.7121 27.1648L53.7056 27.1728L53.6762 27.2069C52.7755 28.2577 52.2759 29.4889 52.1987 30.8889L52.1954 30.9523L52.193 31.0164L52.192 31.0381L52.1903 31.0802L52.1895 31.1165L52.1891 31.1447L52.1881 31.1948V31.2091L52.1879 31.2735L52.1881 31.3382V31.3523L52.1891 31.4024L52.1895 31.4308L52.1903 31.4667L52.192 31.5088L52.193 31.5309L52.1954 31.5947L52.1987 31.6584C52.2761 33.0578 52.7755 34.289 53.6762 35.3402L53.7056 35.3743L53.7121 35.3821L53.7354 35.4085L53.7628 35.4395L53.765 35.4424L53.7951 35.4759L53.8145 35.4969L53.8251 35.5086L53.8558 35.5419L53.8668 35.5539L53.8862 35.5744L53.9168 35.6069L53.9201 35.6101L53.9479 35.6387L53.9481 35.6391L53.9755 35.6669L53.9792 35.671C54.0732 35.766 54.1692 35.8582 54.2683 35.9464L54.2903 35.9657L54.3018 35.9763L54.3198 35.9918L54.3353 36.0053L54.3494 36.018L54.3684 36.0339L54.379 36.0435C54.8547 36.4519 55.3806 36.7884 55.9566 37.0438C56.6995 37.3824 57.474 37.5291 58.2813 37.5442L58.3013 37.5448L58.3281 37.545L58.3412 37.5455H58.3747L58.381 37.5459H58.4215H58.4601L58.4793 37.5455H58.4985L58.5367 37.5448C59.7242 37.5254 60.811 37.2016 61.7974 36.5418H61.796C62.1423 36.3204 62.4641 36.0697 62.7622 35.7895C62.7622 35.7895 62.7798 35.7716 62.7798 35.7536C63.0659 35.4855 63.1909 35.1627 63.1909 34.8039C63.1909 34.4102 63.0658 34.1053 62.798 33.8542C62.5473 33.5855 62.2263 33.4599 61.8512 33.4599C61.4934 33.4599 61.1898 33.5674 60.9399 33.8185C60.9399 33.8185 60.9223 33.8185 60.9042 33.8364C60.9042 33.8364 60.8866 33.8542 60.8688 33.8722C60.6334 34.0953 60.3838 34.2823 60.1173 34.4308L60.1181 34.4277C59.665 34.678 59.1709 34.8196 58.6472 34.8511L58.6448 34.8515L58.6005 34.8538L58.5913 34.854L58.5631 34.855L58.5559 34.8552L58.5347 34.856L58.5116 34.8566H58.5067L58.4783 34.8572H58.4668L58.4499 34.8578H58.4215H58.3963L58.373 34.8572H58.3712L58.3463 34.8568L58.3246 34.8566L58.3212 34.8562L58.2962 34.8556L58.2768 34.855L58.2713 34.8546L58.2462 34.8538L58.2292 34.8531L58.2212 34.8527L58.1965 34.8511L58.1818 34.8505L58.1716 34.8499L58.1467 34.848L58.1346 34.8472L58.1217 34.846L58.0972 34.8442L58.0874 34.8435L58.0723 34.8419C57.6598 34.8037 57.2583 34.6948 56.8676 34.499C56.7321 34.4335 56.602 34.3613 56.478 34.2812L56.4774 34.281L56.4743 34.279C56.234 34.117 56.0078 33.9216 55.7958 33.693C55.2737 33.0921 54.9625 32.4123 54.8857 31.6527L54.8829 31.6232L54.8818 31.6112L54.8794 31.585L54.8784 31.5695L54.8728 31.4855L54.872 31.4692L54.8704 31.4435L54.8698 31.4304L54.8688 31.4014L54.8686 31.3916L54.8677 31.3589L54.8675 31.3523L54.8671 31.3162V31.3131L54.8669 31.2735L54.8671 31.234V31.2308L54.8675 31.1948L54.8677 31.1881L54.8686 31.1556L54.8688 31.1456L54.8698 31.1169L54.8704 31.1035L54.872 31.0777L54.8728 31.0614L54.8784 30.9776L54.8794 30.9619L54.8818 30.9357L54.8829 30.9237L54.8857 30.8942C54.9631 30.135 55.2737 29.4546 55.7958 28.8541C56.0078 28.6255 56.234 28.4299 56.4743 28.2679L56.4774 28.2661L56.478 28.2657C56.602 28.1854 56.7321 28.1132 56.8676 28.0479C57.2585 27.8521 57.6593 27.7436 58.0723 27.7054L58.0874 27.7036L58.0972 27.7028L58.1217 27.7009L58.1346 27.6997L58.1467 27.6991L58.1716 27.6975L58.1818 27.6968L58.1965 27.6962L58.2212 27.6942L58.2292 27.694L58.2462 27.6934L58.2713 27.6924L58.2768 27.6919L58.2962 27.6913L58.3212 27.6907L58.3246 27.6905L58.3463 27.6901L58.3712 27.6897H58.373L58.3963 27.6895H58.4215H58.4499L58.4668 27.6897H58.4783L58.5067 27.6905H58.5116L58.5347 27.6911L58.5559 27.6917L58.5631 27.6919L58.5913 27.693L58.6005 27.6934L58.6448 27.6958L58.6472 27.6962C59.1707 27.7275 59.665 27.8687 60.1181 28.1196L60.1173 28.1161C60.3838 28.2651 60.6336 28.4516 60.8688 28.6749C60.8866 28.6927 60.9042 28.7105 60.9042 28.7105C60.9223 28.7287 60.9399 28.7287 60.9399 28.7287C61.1898 28.9798 61.4934 29.0872 61.8512 29.0872C62.2263 29.0872 62.5473 28.9616 62.798 28.6927C63.0658 28.442 63.1909 28.1371 63.1909 27.743C63.1909 27.3846 63.0659 27.0618 62.7798 26.7933C62.7798 26.7756 62.7622 26.7576 62.7622 26.7576C62.4641 26.4777 62.1423 26.2268 61.796 26.0051H61.7974C60.811 25.3453 59.7242 25.0219 58.5367 25.0021L58.4985 25.0015H58.4793L58.4601 25.0013H58.4215ZM68.0488 28.766C66.8938 29.7182 65.9809 31.0226 65.457 32.4217C65.3561 32.691 65.3714 32.6657 65.2921 32.9233C65.2298 33.1268 65.1579 33.3634 65.1358 33.4519L64.9815 34.069C65.3826 34.9165 65.9666 35.6581 66.7383 36.2973C67.9268 37.2629 69.3009 37.7643 70.8232 37.7643C72.0118 37.7643 73.0706 37.4674 74.0732 36.8916C75.076 36.2973 75.8556 35.5362 76.4316 34.5332C77.0258 33.5306 77.3041 32.4348 77.3041 31.2649C77.3041 30.0763 77.0442 29.0184 76.45 28.0154C75.8744 27.0124 75.0946 26.2139 74.092 25.6387C73.8169 25.4757 73.5364 25.3364 73.2493 25.2199C73.2238 25.2708 73.1987 25.322 73.1748 25.3743C72.8438 26.0905 72.6368 26.9588 72.4652 27.9034C72.8201 28.0767 73.1459 28.3168 73.442 28.6279C74.1661 29.3522 74.5186 30.2253 74.5186 31.2649C74.5186 32.2861 74.1661 33.1403 73.442 33.8832C72.7363 34.6071 71.8634 34.9786 70.8232 34.9786C70.0066 34.9786 69.2635 34.7373 68.5951 34.2363L68.483 34.1458C67.803 34.3654 67.0313 34.4553 66.1601 34.3973L65.6176 34.3609L65.7796 33.8426C65.8358 33.6624 65.9672 33.2723 66.0724 32.9595C66.1129 32.8408 66.2475 32.4522 66.2635 32.4074C66.7587 31.0546 67.2583 29.9679 68.0488 28.766ZM80.6173 30.0108C81.2446 30.0108 81.7533 30.5197 81.7533 31.1466C81.7533 31.7738 81.2446 32.2824 80.6173 32.2824C79.9901 32.2824 79.4815 31.7738 79.4815 31.1466C79.4815 30.5197 79.9901 30.0108 80.6173 30.0108ZM87.9663 32.019V28.6161H89.9807C90.4475 28.6161 90.8461 28.7842 91.1761 29.1175C91.5094 29.4536 91.6775 29.8522 91.6775 30.3221C91.6775 30.7894 91.5094 31.1909 91.1761 31.5274C90.8461 31.8541 90.4475 32.019 89.9807 32.019H87.9663ZM95.4168 30.3221C95.4168 28.8184 94.8843 27.5358 93.8194 26.4738C92.7578 25.4154 91.475 24.886 89.9807 24.886H84.2238V37.9662H87.9663V35.7587H89.9807C90.1394 35.7587 90.3043 35.7524 90.4725 35.7399L91.5872 37.9662H95.7625L93.8476 34.1366C94.8937 33.0778 95.4168 31.8045 95.4168 30.3221ZM105.48 31.9724C105.48 32.5921 105.256 33.1244 104.814 33.5698C104.374 34.0058 103.842 34.2267 103.216 34.2267C102.597 34.2267 102.064 34.0058 101.622 33.5698C101.183 33.1244 100.965 32.5921 100.965 31.9724V24.886H97.2228V31.9724C97.2228 33.6197 97.811 35.0331 98.9848 36.2069C100.159 37.3806 101.569 37.9662 103.216 37.9662C104.869 37.9662 106.286 37.3806 107.46 36.2069C108.631 35.0331 109.219 33.6197 109.219 31.9724V24.886H105.48V31.9724ZM118.012 33.2956C118.012 33.4948 117.937 33.6693 117.794 33.8156C117.654 33.9621 117.479 34.0334 117.274 34.0334H114.409V32.5484H117.274C117.479 32.5484 117.654 32.6201 117.794 32.7666C117.937 32.9129 118.012 33.0903 118.012 33.2956ZM114.419 28.2424H116.754C116.959 28.2424 117.137 28.3141 117.28 28.4606C117.426 28.6067 117.501 28.7842 117.501 28.9896C117.501 29.1984 117.426 29.3727 117.28 29.519C117.137 29.6653 116.959 29.737 116.754 29.737H114.419V28.2424ZM120.939 28.6161C120.939 27.5822 120.586 26.7045 119.88 25.9789C119.17 25.2503 118.305 24.886 117.28 24.886H110.676V37.9662H117.28C118.466 37.9662 119.488 37.5459 120.337 36.708C121.188 35.8615 121.614 34.8495 121.614 33.6693C121.614 32.5452 121.203 31.5521 120.384 30.696C120.755 30.1417 120.939 29.4503 120.939 28.6161ZM130.407 33.2956C130.407 33.4948 130.332 33.6693 130.189 33.8156C130.049 33.9621 129.874 34.0334 129.669 34.0334H126.804V32.5484H129.669C129.874 32.5484 130.049 32.6201 130.189 32.7666C130.332 32.9129 130.407 33.0903 130.407 33.2956ZM126.814 28.2424H129.149C129.354 28.2424 129.532 28.3141 129.675 28.4606C129.821 28.6067 129.896 28.7842 129.896 28.9896C129.896 29.1984 129.821 29.3727 129.675 29.519C129.532 29.6653 129.354 29.737 129.149 29.737H126.814V28.2424ZM133.334 28.6161C133.334 27.5822 132.982 26.7045 132.275 25.9789C131.565 25.2503 130.699 24.886 129.675 24.886H123.071V37.9662H129.675C130.861 37.9662 131.883 37.5459 132.732 36.708C133.583 35.8615 134.009 34.8495 134.009 33.6693C134.009 32.5452 133.598 31.5521 132.779 30.696C133.15 30.1417 133.334 29.4503 133.334 28.6161ZM135.466 24.886V37.9662H145.567V34.2267H139.209V32.9221H144.069V29.9301H139.209V28.6161H145.567V24.886H135.466ZM150.767 32.019V28.6161H152.781C153.248 28.6161 153.646 28.7842 153.976 29.1175C154.31 29.4536 154.478 29.8522 154.478 30.3221C154.478 30.7894 154.31 31.1909 153.976 31.5274C153.646 31.8541 153.248 32.019 152.781 32.019H150.767ZM158.217 30.3221C158.217 28.8184 157.685 27.5358 156.62 26.4738C155.558 25.4154 154.275 24.886 152.781 24.886H147.024V37.9662H150.767V35.7587H152.781C152.94 35.7587 153.105 35.7524 153.273 35.7399L154.387 37.9662H158.563L156.648 34.1366C157.694 33.0778 158.217 31.8045 158.217 30.3221ZM42.5413 43.539C42.6345 43.539 42.7117 43.5696 42.7728 43.6309C42.8331 43.6912 42.8642 43.7682 42.8642 43.8614C42.8642 43.9523 42.8331 44.0295 42.771 44.0939C42.4519 44.3753 42.0733 44.5158 41.6377 44.5158C41.1587 44.5158 40.7495 44.3468 40.4111 44.0071C40.073 43.6691 39.903 43.2601 39.903 42.7809C39.903 42.302 40.073 41.893 40.4111 41.5546C40.7495 41.2152 41.1587 41.0463 41.6377 41.0463C42.1121 41.0463 42.5213 41.2163 42.8642 41.5558C43.0332 41.7226 43.16 41.9097 43.2454 42.1161C43.3304 42.3212 43.3725 42.5441 43.3725 42.7852C43.3725 42.8782 43.3409 42.9554 43.2773 43.0157C43.215 43.077 43.1378 43.1076 43.0468 43.1076H40.5942C40.6289 43.2208 40.681 43.3244 40.7487 43.4176C40.8171 43.5104 40.8966 43.5907 40.9883 43.6573C41.0805 43.7249 41.182 43.777 41.2919 43.814C41.4029 43.851 41.5181 43.8687 41.6377 43.8687C41.7741 43.8687 41.8988 43.8477 42.013 43.8066C42.1262 43.7651 42.2318 43.7028 42.328 43.6195C42.3902 43.5674 42.461 43.541 42.5413 43.539ZM48.8348 43.5326C48.927 43.5326 49.004 43.5633 49.0653 43.6246C49.1256 43.6846 49.1562 43.7619 49.1562 43.855C49.1562 43.946 49.1223 44.0253 49.0548 44.0939C48.7343 44.3753 48.3571 44.5158 47.9237 44.5158C47.4446 44.5158 47.0356 44.3468 46.6972 44.0071C46.357 43.6691 46.1866 43.2601 46.1866 42.7809C46.1866 42.302 46.357 41.893 46.6972 41.5546C47.0356 41.2152 47.4446 41.0463 47.9237 41.0463C48.3594 41.0463 48.7365 41.1868 49.0548 41.4668C49.1288 41.5325 49.1658 41.6139 49.1658 41.7111C49.1658 41.8043 49.1352 41.8813 49.0749 41.9426C49.0136 42.0047 48.9366 42.0358 48.8434 42.0358C48.7651 42.0358 48.6955 42.0113 48.6329 41.9618C48.5283 41.8727 48.4174 41.8061 48.3021 41.7608C48.1859 41.7152 48.0598 41.6933 47.9237 41.6933C47.7734 41.6933 47.6318 41.7217 47.4996 41.7787C47.3676 41.8349 47.2511 41.913 47.1528 42.0113C47.0533 42.1085 46.9753 42.224 46.9191 42.3559C46.8621 42.4883 46.8337 42.6299 46.8337 42.7809C46.8337 42.9321 46.8621 43.0737 46.9191 43.2061C46.9753 43.3381 47.0533 43.4531 47.1528 43.5504C47.2511 43.6491 47.3676 43.7271 47.4996 43.7833C47.6318 43.8403 47.7734 43.8687 47.9237 43.8687C48.0598 43.8687 48.1859 43.8465 48.3021 43.8021C48.4174 43.7568 48.5273 43.6902 48.6297 43.6013C48.6881 43.5578 48.7557 43.5349 48.8348 43.5326ZM66.4945 43.5326C66.5867 43.5326 66.6639 43.5633 66.7252 43.6246C66.7855 43.6846 66.8161 43.7619 66.8161 43.855C66.8161 43.946 66.7822 44.0253 66.7146 44.0939C66.3942 44.3753 66.0168 44.5158 65.5835 44.5158C65.1045 44.5158 64.6955 44.3468 64.3572 44.0071C64.0168 43.6691 63.8466 43.2601 63.8466 42.7809C63.8466 42.302 64.0168 41.893 64.3572 41.5546C64.6955 41.2152 65.1045 41.0463 65.5835 41.0463C66.0191 41.0463 66.3965 41.1868 66.7146 41.4668C66.7886 41.5325 66.8255 41.6139 66.8255 41.7111C66.8255 41.8043 66.7951 41.8813 66.7348 41.9426C66.6735 42.0047 66.5963 42.0358 66.5031 42.0358C66.4251 42.0358 66.3552 42.0113 66.2927 41.9618C66.1881 41.8727 66.0771 41.8061 65.9621 41.7608C65.8456 41.7152 65.7198 41.6933 65.5835 41.6933C65.4333 41.6933 65.2917 41.7217 65.1593 41.7787C65.0273 41.8349 64.9111 41.913 64.8128 42.0113C64.7133 42.1085 64.6352 42.224 64.5791 42.3559C64.522 42.4883 64.4936 42.6299 64.4936 42.7809C64.4936 42.9321 64.522 43.0737 64.5791 43.2061C64.6352 43.3381 64.7133 43.4531 64.8128 43.5504C64.9111 43.6491 65.0273 43.7271 65.1593 43.7833C65.2917 43.8403 65.4333 43.8687 65.5835 43.8687C65.7198 43.8687 65.8456 43.8465 65.9621 43.8021C66.0771 43.7568 66.1872 43.6902 66.2896 43.6013C66.3478 43.5578 66.4155 43.5349 66.4945 43.5326ZM71.3819 41.6933C71.2286 41.6933 71.087 41.7217 70.9536 41.7798C70.8216 41.838 70.7074 41.9163 70.6101 42.0135C70.5129 42.1116 70.4359 42.227 70.3797 42.359C70.3227 42.4912 70.2943 42.6318 70.2943 42.7809C70.2943 42.9299 70.3227 43.0705 70.3797 43.2029C70.4359 43.3348 70.5129 43.4501 70.6101 43.5486C70.7074 43.6458 70.8216 43.7239 70.9536 43.7821C71.087 43.8403 71.2286 43.8687 71.3819 43.8687C71.533 43.8687 71.6747 43.8403 71.8071 43.7821C71.939 43.7239 72.0541 43.6458 72.1513 43.5463C72.25 43.4468 72.3281 43.3318 72.3843 43.2006C72.4413 43.0696 72.4697 42.9299 72.4697 42.7809C72.4697 42.6318 72.4413 42.4924 72.3843 42.3613C72.3281 42.2303 72.25 42.1149 72.1513 42.0158C72.0541 41.9163 71.939 41.838 71.8071 41.7798C71.6747 41.7217 71.533 41.6933 71.3819 41.6933ZM72.4697 44.1934V44.1321C72.3144 44.2555 72.1462 44.3509 71.9646 44.4163C71.7825 44.4829 71.588 44.5158 71.3819 44.5158C70.9029 44.5158 70.4939 44.3468 70.1555 44.0071C69.8162 43.6691 69.6472 43.2601 69.6472 42.7809C69.6472 42.302 69.8162 41.893 70.1555 41.5546C70.4939 41.2152 70.9029 41.0463 71.3819 41.0463C71.8565 41.0463 72.2655 41.2152 72.6084 41.5546C72.9478 41.893 73.1167 42.302 73.1167 42.7809V44.1934C73.1167 44.2821 73.0851 44.3583 73.0226 44.4216C72.9592 44.4842 72.883 44.5158 72.7953 44.5158C72.7044 44.5158 72.6272 44.4842 72.5639 44.4216C72.5015 44.3583 72.4697 44.2821 72.4697 44.1934ZM76.5716 41.3675V41.4298C76.7269 41.3062 76.895 41.2111 77.0767 41.1454C77.2575 41.0787 77.452 41.0463 77.6584 41.0463C77.7493 41.0463 77.8476 41.0526 77.9511 41.0651C78.0558 41.0769 78.152 41.0988 78.2396 41.1317C78.3273 41.1635 78.4004 41.2079 78.4575 41.2641C78.5155 41.3199 78.5443 41.392 78.5443 41.4806C78.5443 41.527 78.5357 41.5695 78.5177 41.6083C78.501 41.6476 78.4777 41.6825 78.4478 41.7121C78.4196 41.7428 78.3857 41.7659 78.3465 41.782C78.3073 41.7988 78.2652 41.8074 78.2196 41.8074C78.1808 41.8074 78.135 41.7957 78.0835 41.7724C77.9534 41.7195 77.8118 41.6933 77.6584 41.6933C77.5082 41.6933 77.3666 41.7217 77.2342 41.7787C77.1022 41.8349 76.9872 41.913 76.8885 42.0102C76.7912 42.1085 76.7132 42.224 76.657 42.3559C76.6 42.4883 76.5716 42.6299 76.5716 42.7809V44.1934C76.5716 44.2821 76.5397 44.3583 76.4776 44.4216C76.414 44.4842 76.3378 44.5158 76.2502 44.5158C76.1593 44.5158 76.082 44.4842 76.0187 44.4216C75.9562 44.3583 75.9245 44.2821 75.9245 44.1934V41.3687C75.9245 41.2796 75.9562 41.2038 76.0187 41.1402C76.082 41.0777 76.1593 41.0463 76.2502 41.0463C76.3378 41.0463 76.414 41.0777 76.4776 41.1402C76.5397 41.2038 76.5716 41.2796 76.5716 41.3675ZM87.1179 41.0463H87.2628V39.8833C87.2628 39.7942 87.2943 39.7194 87.3568 39.6559C87.4203 39.5938 87.4974 39.5619 87.5883 39.5619C87.6759 39.5619 87.7521 39.5938 87.8157 39.6559C87.8778 39.7194 87.9097 39.7942 87.9097 39.8833V41.0463H88.2956C88.3843 41.0463 88.4595 41.0777 88.5208 41.1402C88.5833 41.2038 88.614 41.2796 88.614 41.3675C88.614 41.4586 88.5833 41.5358 88.5208 41.5989C88.4595 41.6615 88.3843 41.6933 88.2956 41.6933H87.9097V43.2523C87.9097 43.6636 88.1158 43.8687 88.5294 43.8687C88.618 43.8687 88.693 43.9006 88.7556 43.9627C88.8179 44.0263 88.8485 44.1025 88.8485 44.1901C88.8485 44.2811 88.8179 44.3583 88.7556 44.4216C88.6943 44.4842 88.618 44.5158 88.5294 44.5158C87.6847 44.5158 87.2628 44.0939 87.2628 43.2513V41.6933H87.1179C87.0313 41.6933 86.9563 41.6615 86.8938 41.5989C86.8313 41.5358 86.7996 41.4586 86.7996 41.3675C86.7996 41.2796 86.8313 41.2038 86.8938 41.1402C86.9563 41.0777 87.0313 41.0463 87.1179 41.0463ZM92.4936 40.4309C92.4936 40.5355 92.4556 40.6254 92.3816 40.7006C92.3076 40.7745 92.2178 40.8115 92.1121 40.8115C92.0071 40.8115 91.9176 40.7745 91.8424 40.7006C91.7682 40.6254 91.7313 40.5355 91.7313 40.4309C91.7313 40.3252 91.7682 40.2363 91.8424 40.1613C91.9176 40.0874 92.0071 40.0504 92.1121 40.0504C92.2178 40.0504 92.3076 40.0874 92.3816 40.1613C92.4556 40.2363 92.4936 40.3252 92.4936 40.4309ZM91.7874 44.1901V41.3717C91.7874 41.281 91.8191 41.2048 91.8816 41.1413C91.945 41.0787 92.021 41.0473 92.1099 41.0473C92.1975 41.0473 92.2737 41.0787 92.3373 41.1413C92.3994 41.2048 92.4323 41.281 92.4345 41.3717V44.1901C92.4323 44.2811 92.3994 44.3583 92.3373 44.4216C92.2737 44.4842 92.1975 44.5158 92.1099 44.5158C92.021 44.5158 91.945 44.4842 91.8816 44.4216C91.8191 44.3583 91.7874 44.2811 91.7874 44.1901ZM96.0626 41.3675V41.4298C96.2179 41.3062 96.3859 41.2111 96.5677 41.1454C96.7485 41.0787 96.943 41.0463 97.1494 41.0463C97.2401 41.0463 97.3384 41.0526 97.442 41.0651C97.5466 41.0769 97.643 41.0988 97.7307 41.1317C97.8183 41.1635 97.8913 41.2079 97.9485 41.2641C98.0065 41.3199 98.0351 41.392 98.0351 41.4806C98.0351 41.527 98.0265 41.5695 98.0088 41.6083C97.9918 41.6476 97.9685 41.6825 97.9389 41.7121C97.9105 41.7428 97.8768 41.7659 97.8376 41.782C97.7983 41.7988 97.7562 41.8074 97.7105 41.8074C97.6716 41.8074 97.6261 41.7957 97.5744 41.7724C97.4442 41.7195 97.3026 41.6933 97.1494 41.6933C96.999 41.6933 96.8574 41.7217 96.7252 41.7787C96.5932 41.8349 96.478 41.913 96.3795 42.0102C96.2823 42.1085 96.2042 42.224 96.148 42.3559C96.0908 42.4883 96.0626 42.6299 96.0626 42.7809V44.1934C96.0626 44.2821 96.0305 44.3583 95.9684 44.4216C95.9051 44.4842 95.8289 44.5158 95.741 44.5158C95.6501 44.5158 95.5731 44.4842 95.5095 44.4216C95.447 44.3583 95.4155 44.2821 95.4155 44.1934V41.3687C95.4155 41.2796 95.447 41.2038 95.5095 41.1402C95.5731 41.0777 95.6501 41.0463 95.741 41.0463C95.8289 41.0463 95.9051 41.0777 95.9684 41.1402C96.0305 41.2038 96.0626 41.2796 96.0626 41.3675ZM103.506 42.4606C103.471 42.3463 103.419 42.2428 103.349 42.1486C103.281 42.0536 103.201 41.9733 103.109 41.9056C103.017 41.839 102.915 41.7861 102.805 41.7491C102.694 41.7121 102.58 41.6933 102.463 41.6933C102.345 41.6933 102.23 41.7121 102.119 41.7491C102.007 41.7861 101.906 41.839 101.812 41.9056C101.719 41.9733 101.639 42.0536 101.57 42.1486C101.503 42.2428 101.452 42.3463 101.419 42.4606H103.506ZM103.366 43.539C103.46 43.539 103.537 43.5696 103.598 43.6309C103.658 43.6912 103.689 43.7682 103.689 43.8614C103.689 43.9523 103.658 44.0295 103.596 44.0939C103.277 44.3753 102.898 44.5158 102.463 44.5158C101.984 44.5158 101.575 44.3468 101.236 44.0071C100.898 43.6691 100.728 43.2601 100.728 42.7809C100.728 42.302 100.898 41.893 101.236 41.5546C101.575 41.2152 101.984 41.0463 102.463 41.0463C102.937 41.0463 103.346 41.2163 103.689 41.5558C103.858 41.7226 103.985 41.9097 104.071 42.1161C104.155 42.3212 104.197 42.5441 104.197 42.7852C104.197 42.8782 104.166 42.9554 104.102 43.0157C104.04 43.077 103.963 43.1076 103.872 43.1076H101.419C101.454 43.2208 101.506 43.3244 101.574 43.4176C101.642 43.5104 101.722 43.5907 101.813 43.6573C101.906 43.7249 102.007 43.777 102.117 43.814C102.228 43.851 102.343 43.8687 102.463 43.8687C102.599 43.8687 102.724 43.8477 102.838 43.8066C102.951 43.7651 103.057 43.7028 103.153 43.6195C103.215 43.5674 103.286 43.541 103.366 43.539ZM113.228 41.3675V41.4298C113.383 41.3062 113.551 41.2111 113.733 41.1454C113.914 41.0787 114.108 41.0463 114.315 41.0463C114.405 41.0463 114.504 41.0526 114.607 41.0651C114.712 41.0769 114.808 41.0988 114.896 41.1317C114.984 41.1635 115.057 41.2079 115.114 41.2641C115.172 41.3199 115.2 41.392 115.2 41.4806C115.2 41.527 115.192 41.5695 115.174 41.6083C115.157 41.6476 115.134 41.6825 115.104 41.7121C115.076 41.7428 115.042 41.7659 115.003 41.782C114.964 41.7988 114.922 41.8074 114.876 41.8074C114.837 41.8074 114.791 41.7957 114.74 41.7724C114.61 41.7195 114.468 41.6933 114.315 41.6933C114.164 41.6933 114.023 41.7217 113.891 41.7787C113.759 41.8349 113.643 41.913 113.545 42.0102C113.448 42.1085 113.369 42.224 113.313 42.3559C113.256 42.4883 113.228 42.6299 113.228 42.7809V44.1934C113.228 44.2821 113.196 44.3583 113.134 44.4216C113.07 44.4842 112.994 44.5158 112.906 44.5158C112.815 44.5158 112.738 44.4842 112.675 44.4216C112.612 44.3583 112.581 44.2821 112.581 44.1934V41.3687C112.581 41.2796 112.612 41.2038 112.675 41.1402C112.738 41.0777 112.815 41.0463 112.906 41.0463C112.994 41.0463 113.07 41.0777 113.134 41.1402C113.196 41.2038 113.228 41.2796 113.228 41.3675ZM120.671 42.4606C120.637 42.3463 120.585 42.2428 120.515 42.1486C120.446 42.0536 120.366 41.9733 120.274 41.9056C120.182 41.839 120.08 41.7861 119.97 41.7491C119.86 41.7121 119.745 41.6933 119.628 41.6933C119.511 41.6933 119.395 41.7121 119.285 41.7491C119.172 41.7861 119.071 41.839 118.978 41.9056C118.885 41.9733 118.804 42.0536 118.736 42.1486C118.668 42.2428 118.617 42.3463 118.585 42.4606H120.671ZM120.532 43.539C120.625 43.539 120.702 43.5696 120.763 43.6309C120.824 43.6912 120.854 43.7682 120.854 43.8614C120.854 43.9523 120.824 44.0295 120.761 44.0939C120.442 44.3753 120.064 44.5158 119.628 44.5158C119.149 44.5158 118.74 44.3468 118.401 44.0071C118.063 43.6691 117.893 43.2601 117.893 42.7809C117.893 42.302 118.063 41.893 118.401 41.5546C118.74 41.2152 119.149 41.0463 119.628 41.0463C120.102 41.0463 120.512 41.2163 120.854 41.5558C121.024 41.7226 121.15 41.9097 121.236 42.1161C121.321 42.3212 121.363 42.5441 121.363 42.7852C121.363 42.8782 121.331 42.9554 121.268 43.0157C121.205 43.077 121.128 43.1076 121.037 43.1076H118.585C118.619 43.2208 118.671 43.3244 118.739 43.4176C118.807 43.5104 118.887 43.5907 118.979 43.6573C119.071 43.7249 119.172 43.777 119.282 43.814C119.393 43.851 119.508 43.8687 119.628 43.8687C119.765 43.8687 119.889 43.8477 120.003 43.8066C120.117 43.7651 120.222 43.7028 120.318 43.6195C120.381 43.5674 120.451 43.541 120.532 43.539ZM126.825 43.5326C126.917 43.5326 126.994 43.5633 127.056 43.6246C127.116 43.6846 127.147 43.7619 127.147 43.855C127.147 43.946 127.113 44.0253 127.045 44.0939C126.725 44.3753 126.347 44.5158 125.914 44.5158C125.435 44.5158 125.026 44.3468 124.688 44.0071C124.347 43.6691 124.177 43.2601 124.177 42.7809C124.177 42.302 124.347 41.893 124.688 41.5546C125.026 41.2152 125.435 41.0463 125.914 41.0463C126.35 41.0463 126.727 41.1868 127.045 41.4668C127.119 41.5325 127.156 41.6139 127.156 41.7111C127.156 41.8043 127.126 41.8813 127.065 41.9426C127.004 42.0047 126.927 42.0358 126.834 42.0358C126.756 42.0358 126.686 42.0113 126.623 41.9618C126.518 41.8727 126.408 41.8061 126.293 41.7608C126.176 41.7152 126.05 41.6933 125.914 41.6933C125.764 41.6933 125.622 41.7217 125.49 41.7787C125.358 41.8349 125.241 41.913 125.143 42.0113C125.044 42.1085 124.966 42.224 124.909 42.3559C124.852 42.4883 124.824 42.6299 124.824 42.7809C124.824 42.9321 124.852 43.0737 124.909 43.2061C124.966 43.3381 125.044 43.4531 125.143 43.5504C125.241 43.6491 125.358 43.7271 125.49 43.7833C125.622 43.8403 125.764 43.8687 125.914 43.8687C126.05 43.8687 126.176 43.8465 126.293 43.8021C126.408 43.7568 126.518 43.6902 126.62 43.6013C126.678 43.5578 126.746 43.5349 126.825 43.5326ZM131.118 44.1924L130.003 41.5133C129.982 41.4659 129.972 41.4171 129.972 41.3687C129.972 41.3254 129.979 41.2841 129.996 41.244C130.013 41.2048 130.036 41.1709 130.064 41.1402C130.094 41.1106 130.128 41.0873 130.167 41.0704C130.206 41.0544 130.248 41.0463 130.294 41.0463C130.358 41.0463 130.417 41.064 130.474 41.1002C130.529 41.1358 130.572 41.1897 130.6 41.2596L131.471 43.3371L132.341 41.2532C132.366 41.1919 132.401 41.1413 132.448 41.1033C132.495 41.0651 132.56 41.0463 132.645 41.0463C132.69 41.0463 132.732 41.0544 132.772 41.0704C132.811 41.0873 132.844 41.1106 132.874 41.1402C132.903 41.1709 132.926 41.2048 132.944 41.244C132.961 41.2841 132.97 41.3254 132.97 41.3687C132.97 41.4138 132.959 41.4614 132.936 41.5133L131.155 45.7834C131.128 45.8478 131.086 45.8997 131.03 45.9399C130.975 45.9802 130.914 46 130.848 46C130.756 46 130.678 45.9693 130.617 45.907C130.557 45.8455 130.526 45.7675 130.526 45.6755C130.526 45.6259 130.537 45.5783 130.557 45.5327L131.118 44.1924ZM138.414 43.5326C138.506 43.5326 138.583 43.5633 138.644 43.6246C138.704 43.6846 138.735 43.7619 138.735 43.855C138.735 43.946 138.701 44.0253 138.634 44.0939C138.313 44.3753 137.936 44.5158 137.503 44.5158C137.024 44.5158 136.614 44.3468 136.276 44.0071C135.936 43.6691 135.765 43.2601 135.765 42.7809C135.765 42.302 135.936 41.893 136.276 41.5546C136.614 41.2152 137.024 41.0463 137.503 41.0463C137.938 41.0463 138.315 41.1868 138.634 41.4668C138.708 41.5325 138.745 41.6139 138.745 41.7111C138.745 41.8043 138.714 41.8813 138.654 41.9426C138.592 42.0047 138.515 42.0358 138.422 42.0358C138.344 42.0358 138.274 42.0113 138.212 41.9618C138.107 41.8727 137.996 41.8061 137.881 41.7608C137.765 41.7152 137.639 41.6933 137.503 41.6933C137.352 41.6933 137.211 41.7217 137.078 41.7787C136.946 41.8349 136.83 41.913 136.732 42.0113C136.632 42.1085 136.554 42.224 136.498 42.3559C136.441 42.4883 136.412 42.6299 136.412 42.7809C136.412 42.9321 136.441 43.0737 136.498 43.2061C136.554 43.3381 136.632 43.4531 136.732 43.5504C136.83 43.6491 136.946 43.7271 137.078 43.7833C137.211 43.8403 137.352 43.8687 137.503 43.8687C137.639 43.8687 137.765 43.8465 137.881 43.8021C137.996 43.7568 138.106 43.6902 138.208 43.6013C138.267 43.5578 138.334 43.5349 138.414 43.5326ZM141.534 44.1934V39.8863C141.534 39.7964 141.565 39.7194 141.626 39.6559C141.688 39.5938 141.765 39.5619 141.858 39.5619C141.951 39.5619 142.028 39.5938 142.089 39.6559C142.151 39.7194 142.181 39.7964 142.181 39.8863V43.8687H142.329C142.418 43.8687 142.493 43.9006 142.557 43.9627C142.619 44.0263 142.651 44.1035 142.651 44.1934C142.651 44.2821 142.619 44.3583 142.557 44.4216C142.493 44.4842 142.417 44.5158 142.328 44.5158H141.853C141.765 44.5158 141.69 44.4842 141.627 44.4216C141.565 44.3583 141.534 44.2821 141.534 44.1934ZM146.255 40.4309C146.255 40.5355 146.218 40.6254 146.143 40.7006C146.069 40.7745 145.98 40.8115 145.874 40.8115C145.769 40.8115 145.68 40.7745 145.604 40.7006C145.53 40.6254 145.493 40.5355 145.493 40.4309C145.493 40.3252 145.53 40.2363 145.604 40.1613C145.68 40.0874 145.769 40.0504 145.874 40.0504C145.98 40.0504 146.069 40.0874 146.143 40.1613C146.218 40.2363 146.255 40.3252 146.255 40.4309ZM145.549 44.1901V41.3717C145.549 41.281 145.581 41.2048 145.643 41.1413C145.707 41.0787 145.783 41.0473 145.872 41.0473C145.959 41.0473 146.036 41.0787 146.099 41.1413C146.161 41.2048 146.194 41.281 146.196 41.3717V44.1901C146.194 44.2811 146.161 44.3583 146.099 44.4216C146.036 44.4842 145.959 44.5158 145.872 44.5158C145.783 44.5158 145.707 44.4842 145.643 44.4216C145.581 44.3583 145.549 44.2811 145.549 44.1901ZM149.837 41.3654C150.111 41.1527 150.433 41.0463 150.804 41.0463C151.021 41.0463 151.227 41.0883 151.422 41.1727C151.616 41.2577 151.787 41.3728 151.937 41.5189C152.085 41.6645 152.202 41.8358 152.289 42.0325C152.375 42.2303 152.419 42.4403 152.419 42.6637V44.1901C152.419 44.2811 152.387 44.3583 152.324 44.4216C152.261 44.4842 152.185 44.5158 152.097 44.5158C152.006 44.5158 151.929 44.4842 151.866 44.4216C151.803 44.3583 151.772 44.2811 151.772 44.1901V42.6626C151.772 42.5304 151.746 42.4056 151.694 42.2883C151.643 42.17 151.573 42.0672 151.486 41.9796C151.398 41.8919 151.296 41.8221 151.179 41.7704C151.061 41.7185 150.936 41.6933 150.804 41.6933C150.67 41.6933 150.545 41.7185 150.429 41.7691C150.313 41.8198 150.21 41.8897 150.121 41.9786C150.033 42.0673 149.963 42.17 149.913 42.2883C149.862 42.4056 149.837 42.5304 149.837 42.6626V44.1901C149.837 44.2811 149.805 44.3583 149.743 44.4216C149.68 44.4842 149.604 44.5158 149.516 44.5158C149.425 44.5158 149.348 44.4842 149.284 44.4216C149.222 44.3583 149.19 44.2811 149.19 44.1901V41.3717C149.19 41.2829 149.222 41.2056 149.284 41.1423C149.348 41.0777 149.425 41.0463 149.516 41.0463C149.604 41.0463 149.68 41.0777 149.743 41.1423C149.805 41.2056 149.837 41.281 149.837 41.3654ZM156.968 41.6933C156.814 41.6933 156.673 41.7217 156.539 41.7798C156.407 41.838 156.293 41.9163 156.196 42.0135C156.099 42.1116 156.021 42.227 155.965 42.359C155.908 42.4912 155.88 42.6318 155.88 42.7809C155.88 42.9299 155.908 43.0705 155.965 43.2029C156.021 43.3348 156.099 43.4501 156.196 43.5486C156.293 43.6458 156.407 43.7239 156.539 43.7821C156.673 43.8403 156.814 43.8687 156.968 43.8687C157.119 43.8687 157.26 43.8403 157.393 43.7821C157.525 43.7239 157.64 43.6458 157.737 43.5463C157.836 43.4468 157.914 43.3318 157.97 43.2006C158.027 43.0696 158.055 42.9299 158.055 42.7809C158.055 42.6318 158.027 42.4924 157.97 42.3613C157.914 42.2303 157.836 42.1149 157.737 42.0158C157.64 41.9163 157.525 41.838 157.393 41.7798C157.26 41.7217 157.119 41.6933 156.968 41.6933ZM158.055 44.1354C157.746 44.3889 157.383 44.5158 156.968 44.5158C156.489 44.5158 156.079 44.3468 155.741 44.0071C155.402 43.6691 155.233 43.2601 155.233 42.7809C155.233 42.302 155.402 41.893 155.741 41.5546C156.079 41.2152 156.489 41.0463 156.968 41.0463C157.442 41.0463 157.851 41.2152 158.194 41.5536C158.533 41.893 158.702 42.301 158.702 42.7797V44.5011C158.702 44.6501 158.68 44.7906 158.635 44.9226C158.589 45.055 158.526 45.1756 158.446 45.2865C158.365 45.3966 158.27 45.4968 158.161 45.5856C158.051 45.6733 157.933 45.7483 157.806 45.8098C157.679 45.87 157.547 45.9176 157.408 45.9505C157.27 45.983 157.131 46 156.993 46C156.828 46 156.666 45.9789 156.507 45.9368C156.348 45.8943 156.197 45.8318 156.054 45.7495C155.912 45.6669 155.781 45.5656 155.663 45.444C155.544 45.3223 155.443 45.186 155.361 45.0358C155.328 44.9884 155.311 44.9304 155.311 44.8623C155.311 44.7696 155.343 44.6934 155.404 44.6321C155.466 44.5718 155.543 44.5414 155.636 44.5414C155.699 44.5414 155.75 44.5559 155.79 44.5843C155.83 44.6131 155.885 44.6764 155.956 44.7759C156.026 44.8742 156.088 44.9492 156.141 45.0011C156.377 45.2358 156.661 45.3531 156.993 45.3531C157.328 45.3531 157.61 45.2377 157.842 45.0062C157.985 44.8339 158.055 44.666 158.055 44.5029V44.1354ZM55.4568 42.7809C55.4568 43.2641 55.2878 43.6732 54.9484 44.0071C54.6058 44.3468 54.1966 44.5158 53.7221 44.5158C53.243 44.5158 52.8339 44.3468 52.4956 44.0071C52.1562 43.6691 51.9872 43.2601 51.9872 42.7809C51.9872 42.302 52.1562 41.893 52.4956 41.5546C52.8339 41.2152 53.243 41.0463 53.7221 41.0463C54.1966 41.0463 54.6058 41.2152 54.9484 41.5546C55.1184 41.7238 55.2445 41.9107 55.3281 42.1149C55.4125 42.319 55.4545 42.5409 55.4568 42.7809ZM53.7221 41.6933C53.5687 41.6933 53.4271 41.7217 53.2939 41.7798C53.1617 41.838 53.0477 41.9163 52.9504 42.0135C52.8531 42.1116 52.7759 42.227 52.7197 42.359C52.6627 42.4912 52.6343 42.6318 52.6343 42.7809C52.6343 42.9299 52.6627 43.0705 52.7197 43.2029C52.7759 43.3348 52.8531 43.4501 52.9504 43.5486C53.0477 43.6458 53.1617 43.7239 53.2939 43.7821C53.4271 43.8403 53.5687 43.8687 53.7221 43.8687C53.8731 43.8687 54.0147 43.8403 54.1471 43.7821C54.2791 43.7239 54.3943 43.6458 54.4916 43.5463C54.5901 43.4468 54.6681 43.3318 54.7243 43.2006C54.7813 43.0696 54.8097 42.9299 54.8097 42.7809C54.8097 42.6318 54.7813 42.4924 54.7243 42.3613C54.6681 42.2303 54.5901 42.1149 54.4916 42.0158C54.3943 41.9163 54.2791 41.838 54.1471 41.7798C54.0147 41.7217 53.8731 41.6933 53.7221 41.6933Z" fill="white"/>
</svg>
