<svg width="183" height="37" fill="none" xmlns="http://www.w3.org/2000/svg"><path d="M12.66.81L1.273 24.775l12.266 5.773 7.43-5.423L12.66.81zM.81 25.346L6.1 36.014l6.704-4.933L.81 25.346zM6.527 36.695H24.02L13.49 31.6l-6.962 5.095zM14.293 31.017L21.28 25.9l3.523 10.206-10.511-5.09zM25.39 35.716l5.478-16.836-9.012 6.596 3.534 10.24zM21.577 24.695l8.842-6.491L13.424.416l8.153 24.28zM63.164 21.828h-2.599l-2.53-4.254h-14.88v4.254h-2.13L41 11.138l2.155.017v4.28h14.873l2.564-4.297h2.572l-3.01 5.346 3.01 5.344zM85.326 21.814h-2.153v-3.43H67.013v3.43h-2.122v-8.015c0-1.763.855-2.644 2.565-2.644h15.298c1.716 0 2.573.89 2.572 2.669v7.99zm-18.312-5.56h16.159v-2.12c0-.566-.285-.848-.852-.848H67.866c-.569 0-.852.291-.852.873v2.094zM101.715 18.436l-12.546-4.74v8.131h-2.164V11.18h2.165l12.51 4.69 12.156-4.69h2.165v10.648h-2.156l.018-8.117-12.148 4.725zM138.139 21.828h-20.444V11.155h20.444v2.13h-18.281v2.158h18.28v2.13h-18.28v2.124h18.28l.001 2.131zM160.287 21.828h-2.122v-4.262h-16.211v4.262h-2.102V11.18h2.102v4.254h16.211V11.18h2.122v10.648zM179.817 14.6c1.727 0 2.59.861 2.59 2.583v2.096c0 1.69-.872 2.534-2.615 2.534h-17.836V11.155h2.156v3.451l15.705-.005zm.427 4.255l-.009-1.306c-.005-.544-.249-.817-.732-.817l-15.418-.028v2.976h15.341c.551 0 .824-.276.818-.825zM44.798 30.249H42.16v5.133h-.837v-5.87h3.476v.737zM49.64 29.57c.252-.052.508-.087.765-.104.276-.02.55-.028.817-.028.29 0 .58.024.867.074.281.046.552.14.801.278.24.133.444.325.59.558.165.277.245.596.231.918.01.313-.063.623-.21.9a1.76 1.76 0 0 1-.556.606c-.243.162-.513.28-.797.346a3.876 3.876 0 0 1-.925.107c-.033 0-.085 0-.154-.003l-.218-.008a2.653 2.653 0 0 1-.218-.014 1.276 1.276 0 0 1-.155-.014v2.196h-.838V29.57zm1.608.606c-.15 0-.298 0-.441.006a1.643 1.643 0 0 0-.33.042v2.224c.044.014.09.02.137.02.064.002.132.005.201.011.067.007.134.01.2.008h.148c.2 0 .398-.015.595-.045.186-.027.367-.087.532-.178.16-.086.292-.214.385-.37.105-.188.156-.402.147-.618a.974.974 0 0 0-.143-.546 1.012 1.012 0 0 0-.368-.338 1.538 1.538 0 0 0-.507-.17 3.4 3.4 0 0 0-.556-.045v-.001zM60.728 32.533l.226.746h.052l.175-.775 1.207-2.992h.837l-1.641 3.874c-.163.374-.306.69-.428.951-.103.225-.23.438-.382.634a1.278 1.278 0 0 1-.422.352 1.259 1.259 0 0 1-.553.106 2.01 2.01 0 0 1-.48-.045 1.288 1.288 0 0 1-.349-.147l.243-.687a.92.92 0 0 0 .331.121c.096.014.192.02.289.02a.512.512 0 0 0 .415-.214c.14-.193.243-.41.305-.639l-2.386-4.327h.962l1.6 3.022zM71.902 30.249h-2.857v5.133h-.837v-5.87h4.532v5.87h-.838v-5.133zM82.17 30.249h-2.856v5.133h-.836v-5.87h4.531v5.87h-.838v-5.133zM91.817 33.83h-2.299l-.614 1.552h-.837l2.412-5.955h.434l2.422 5.955h-.888l-.63-1.551zm-2.05-.686h1.808l-.672-1.67-.224-.898h-.016l-.224.916-.671 1.652zM105.983 32.715h-.411v2.667h-.838v-5.87h.838v2.7l.385-.115 2.111-2.585h.955l-2.112 2.517-.393.284.46.335 2.328 2.734h-1.053l-2.27-2.666zM114.284 32.448a4.172 4.172 0 0 1 .18-1.29 2.63 2.63 0 0 1 .519-.954c.226-.26.51-.464.828-.597.353-.14.73-.208 1.11-.202.398-.009.793.066 1.16.22.321.14.604.353.83.622.229.282.397.609.495.96.112.404.167.822.163 1.241.005.435-.055.867-.18 1.284a2.613 2.613 0 0 1-.526.957c-.228.26-.513.464-.833.596a3.124 3.124 0 0 1-2.272-.018 2.263 2.263 0 0 1-.822-.619 2.677 2.677 0 0 1-.489-.96 4.403 4.403 0 0 1-.163-1.24zm.887 0c-.002.3.033.599.105.89.062.26.169.51.318.732a1.523 1.523 0 0 0 1.327.682 1.6 1.6 0 0 0 1.287-.558c.315-.372.473-.953.474-1.745a3.659 3.659 0 0 0-.106-.885 2.338 2.338 0 0 0-.318-.732 1.639 1.639 0 0 0-.545-.504 1.743 1.743 0 0 0-2.068.38c-.315.377-.473.957-.474 1.74zM129.988 31.6l.093-.94h-.035l-.36.814-1.633 2.599h-.252l-1.717-2.608-.343-.796h-.042l.134.923v3.79h-.787v-5.87h.627l1.987 2.992.309.64h.017l.292-.657 1.885-2.976h.663v5.87h-.837l-.001-3.78zM140.256 30.249H137.4v5.133h-.838v-5.87h4.532v5.87h-.838v-5.133zM149.904 33.83h-2.3l-.614 1.552h-.838l2.413-5.955h.436l2.419 5.955h-.888l-.628-1.551zm-2.051-.686h1.809l-.672-1.67-.225-.898h-.017l-.223.916-.672 1.652zM160.292 32.758h-2.974v2.624h-.838v-5.87h.837v2.508h2.974v-2.508h.835v5.87h-.835l.001-2.624zM170.769 31.5l.049-.645h-.032l-.401.661-3.007 3.866h-.513v-5.87h.838v3.907l-.076.637h.042l.419-.662 2.999-3.882h.518v5.87h-.837l.001-3.883zM181.247 31.5l.049-.645h-.033l-.401.661-3.007 3.866h-.511v-5.87h.837v3.907l-.074.637h.042l.418-.662 2.998-3.882h.519v5.87h-.837v-3.883zm-2.28-3.421a.656.656 0 0 0 .256.456 1.096 1.096 0 0 0 1.132 0 .627.627 0 0 0 .255-.448l.703.152c-.062.292-.233.55-.478.72a1.797 1.797 0 0 1-1.053.26 2.307 2.307 0 0 1-1.085-.226.98.98 0 0 1-.508-.737l.778-.177z" fill="#fff"/></svg>