<svg width="144" height="30" fill="none" xmlns="http://www.w3.org/2000/svg"><path d="M9.396.728L.367 19.733l9.727 4.577 5.892-4.3L9.396.728zM0 20.185l4.196 8.459 5.315-3.911L0 20.184zM4.534 29.184h13.871l-8.351-4.04-5.52 4.04zM10.691 24.681l5.542-4.057 2.793 8.094-8.335-4.037zM19.49 28.408l4.345-13.351-7.146 5.23 2.802 8.12zM16.468 19.669l7.01-5.148L10.004.416l6.465 19.253zM49.444 17.395h-2.06l-2.007-3.373h-11.8v3.373H31.89l-.02-8.477 1.709.013v3.394H45.37l2.034-3.407h2.04l-2.387 4.24 2.386 4.237zM67.018 17.384H65.31v-2.72H52.497v2.72h-1.682v-6.356c0-1.398.678-2.097 2.034-2.097h12.13c1.36 0 2.04.706 2.04 2.117v6.336zm-14.52-4.41H65.31v-1.68c0-.45-.226-.672-.675-.672H53.173c-.45 0-.676.23-.676.692v1.66zM80.014 14.705l-9.949-3.758v6.447H68.35V8.951h1.717l9.92 3.72 9.64-3.72h1.716v8.444h-1.71l.015-6.436-9.633 3.746zM108.897 17.395H92.686V8.93h16.211v1.69H94.4v1.71h14.496v1.69H94.4v1.684h14.496l.001 1.69zM126.459 17.395h-1.682v-3.38h-12.855v3.38h-1.667V8.95h1.667v3.374h12.855V8.95h1.682v8.444zM141.946 11.664c1.369 0 2.054.682 2.054 2.047v1.663c0 1.34-.691 2.009-2.074 2.009h-14.143V8.931h1.709v2.737l12.454-.004zm.339 3.373l-.008-1.036c-.003-.43-.198-.647-.58-.647l-12.226-.022v2.36h12.164c.438 0 .654-.22.65-.655zM34.881 24.072h-2.092v4.07h-.664v-4.654h2.756v.584zM38.72 23.535c.2-.042.403-.07.607-.083a9.06 9.06 0 0 1 .648-.023c.23 0 .46.02.688.059.222.036.437.111.635.22.19.106.351.258.468.443.13.22.194.472.183.727.007.249-.05.495-.166.715a1.395 1.395 0 0 1-.442.48 1.933 1.933 0 0 1-.632.275c-.24.057-.486.086-.733.084-.027 0-.068 0-.123-.002l-.172-.006a2.112 2.112 0 0 1-.173-.012.992.992 0 0 1-.123-.011v1.741h-.664l-.001-4.607zm1.275.48c-.12 0-.236 0-.35.004a1.302 1.302 0 0 0-.261.033v1.764c.035.01.072.016.109.016.05.002.104.004.16.009.052.005.105.007.158.006h.117c.158 0 .316-.012.472-.036.148-.021.29-.069.422-.14a.803.803 0 0 0 .305-.294.924.924 0 0 0 .117-.49.773.773 0 0 0-.114-.433.804.804 0 0 0-.292-.268 1.22 1.22 0 0 0-.402-.134 2.694 2.694 0 0 0-.44-.037zM47.513 25.883l.18.592h.04l.14-.614.956-2.373h.664L48.19 26.56c-.129.297-.242.547-.34.754a2.548 2.548 0 0 1-.301.503c-.09.116-.205.211-.336.279a.999.999 0 0 1-.438.084 1.59 1.59 0 0 1-.381-.036 1.021 1.021 0 0 1-.276-.116l.192-.545c.081.049.17.081.263.096.076.01.152.016.229.016a.406.406 0 0 0 .329-.17c.11-.153.193-.325.242-.507l-1.892-3.43h.763l1.268 2.395zM56.373 24.072h-2.265v4.07h-.664v-4.654h3.594v4.654h-.664v-4.07zM64.516 24.072H62.25v4.07h-.663v-4.654h3.593v4.654h-.665v-4.07zM72.165 26.912h-1.823l-.486 1.23h-.664l1.912-4.721h.345l1.92 4.721h-.705l-.5-1.23zm-1.625-.544h1.433l-.533-1.324-.177-.712h-.013l-.178.726-.532 1.31zM83.398 26.028h-.325v2.114h-.665v-4.654h.665v2.14l.305-.09 1.674-2.05h.757l-1.675 1.996-.311.225.364.266 1.847 2.167h-.835l-1.801-2.114zM89.98 25.816a3.349 3.349 0 0 1 .143-1.022c.083-.278.224-.536.412-.757.18-.206.404-.368.657-.474.28-.11.579-.165.88-.16.315-.007.628.053.92.174.254.112.479.28.658.493.181.224.315.484.392.762.089.32.132.652.13.984.004.345-.044.688-.143 1.018a2.08 2.08 0 0 1-.417.76c-.181.206-.407.367-.66.471a2.48 2.48 0 0 1-1.803-.013 1.792 1.792 0 0 1-.651-.491 2.121 2.121 0 0 1-.388-.762 3.495 3.495 0 0 1-.13-.983zm.704 0c-.002.238.026.475.084.706.048.207.134.404.252.58a1.21 1.21 0 0 0 1.052.54 1.272 1.272 0 0 0 1.02-.441c.25-.295.375-.756.376-1.384 0-.237-.028-.472-.084-.702a1.855 1.855 0 0 0-.252-.58 1.305 1.305 0 0 0-.433-.4 1.38 1.38 0 0 0-1.64.301c-.249.3-.374.76-.375 1.38zM102.434 25.144l.073-.745h-.028l-.285.645-1.295 2.06h-.199l-1.362-2.067-.272-.632h-.034l.106.732v3.005h-.623v-4.654h.497l1.575 2.373.245.507h.014l.232-.52 1.494-2.36h.526v4.654h-.664v-2.998zM110.575 24.072h-2.264v4.07h-.665v-4.654h3.594v4.654h-.665v-4.07zM118.226 26.912h-1.823l-.488 1.23h-.664l1.913-4.721h.346l1.918 4.721h-.704l-.498-1.23zm-1.626-.544h1.434l-.533-1.324-.178-.712h-.014l-.177.726-.532 1.31zM126.463 26.062h-2.358v2.08h-.665v-4.654h.664v1.989h2.358v-1.99h.663v4.655h-.663l.001-2.08zM134.771 25.064l.039-.511h-.026l-.317.524-2.385 3.065h-.407v-4.654h.665v3.098l-.06.505h.033l.333-.525 2.377-3.078h.411v4.654h-.664l.001-3.078zM143.08 25.064l.039-.511h-.027l-.318.524-2.384 3.065h-.405v-4.654h.664v3.098l-.059.505h.033l.331-.525 2.378-3.078h.411v4.654h-.663v-3.078zm-1.808-2.713a.515.515 0 0 0 .203.362.87.87 0 0 0 .898 0 .514.514 0 0 0 .202-.355l.557.12a.934.934 0 0 1-.379.572c-.25.153-.542.225-.835.205a1.827 1.827 0 0 1-.86-.178.77.77 0 0 1-.403-.585l.617-.14z" fill="#303133"/></svg>