<svg width="174" height="26" viewBox="0 0 174 26" fill="none" xmlns="http://www.w3.org/2000/svg">
<path d="M3.3006 2.4375L33.5115 10.1738L30.2109 21.946L0 14.2097L3.3006 2.4375Z" fill="#D6FF97"/>
<path d="M28.0546 5.66814C28.0542 5.65311 28.0534 5.63811 28.0522 5.62313C28.0512 5.61091 28.05 5.59877 28.0484 5.58671C28.0466 5.57267 28.0443 5.55871 28.0417 5.54475C28.0394 5.53216 28.0368 5.51966 28.0339 5.50729C28.0308 5.49404 28.0271 5.48093 28.0233 5.46784C28.0196 5.45531 28.0158 5.44292 28.0116 5.43066C28.0071 5.41787 28.0021 5.40527 27.997 5.39268C27.9921 5.38063 27.9871 5.3687 27.9816 5.35698C27.9758 5.34458 27.9695 5.3324 27.9631 5.32025C27.957 5.30872 27.9507 5.29732 27.9441 5.28611C27.9371 5.27453 27.9298 5.26315 27.9223 5.25182C27.9146 5.24039 27.9068 5.22918 27.8986 5.21814C27.8909 5.20776 27.8829 5.19756 27.8746 5.18745C27.8653 5.17607 27.8556 5.165 27.8457 5.15412C27.8411 5.14899 27.837 5.14353 27.8322 5.13848C27.8281 5.13422 27.8236 5.1306 27.8194 5.12643C27.8092 5.11617 27.7985 5.10632 27.7877 5.09658C27.7777 5.08755 27.7676 5.0786 27.7573 5.0701C27.747 5.06177 27.7365 5.05388 27.7259 5.04599C27.7142 5.03736 27.7027 5.02881 27.6907 5.02085C27.6803 5.01393 27.6696 5.00751 27.6589 5.00104C27.6462 4.9934 27.6336 4.98579 27.6206 4.97885C27.6093 4.9728 27.5977 4.96732 27.5861 4.96176C27.5733 4.95564 27.5606 4.94946 27.5475 4.94399C27.5348 4.93863 27.5218 4.93397 27.5088 4.92921C27.4963 4.92465 27.4838 4.92001 27.4711 4.91605C27.4574 4.91171 27.4433 4.90809 27.4293 4.90442C27.4167 4.90114 27.4042 4.89785 27.3915 4.89514C27.3775 4.89214 27.3633 4.88979 27.349 4.88746C27.3356 4.88527 27.3222 4.88314 27.3086 4.88158C27.2952 4.88002 27.2816 4.87898 27.268 4.87803C27.2531 4.87699 27.2383 4.87617 27.2234 4.87588C27.2174 4.87574 27.2115 4.875 27.2055 4.875H6.80138C6.79567 4.875 6.79017 4.87572 6.78446 4.87582C6.76879 4.87612 6.75312 4.87696 6.7375 4.87807C6.72458 4.87902 6.71177 4.87998 6.69905 4.88145C6.68478 4.88308 6.67062 4.88531 6.6564 4.88767C6.64286 4.88991 6.62931 4.89211 6.61603 4.89496C6.60264 4.89781 6.58946 4.90128 6.57618 4.90475C6.56279 4.90828 6.5494 4.91172 6.53627 4.91584C6.52299 4.92 6.50992 4.92484 6.49678 4.92965C6.48438 4.93421 6.47193 4.93868 6.45979 4.94376C6.44624 4.94944 6.43301 4.95583 6.41972 4.96223C6.40856 4.96759 6.39741 4.97282 6.38657 4.97862C6.37328 4.98574 6.36031 4.99355 6.34734 5.00141C6.33696 5.00771 6.32648 5.01395 6.31641 5.02068C6.30422 5.02876 6.29244 5.03743 6.28066 5.04621C6.27018 5.05398 6.2598 5.06176 6.24974 5.06999C6.23925 5.07855 6.22913 5.08755 6.21896 5.0967C6.20822 5.10637 6.19769 5.11619 6.18747 5.12638C6.18332 5.13057 6.17875 5.13421 6.17465 5.13848C6.16982 5.14354 6.16578 5.14899 6.16111 5.15412C6.1512 5.165 6.14154 5.17606 6.1322 5.18745C6.12395 5.19756 6.11591 5.20776 6.10823 5.21814C6.10003 5.22917 6.09219 5.24038 6.08457 5.25181C6.07704 5.26315 6.06973 5.27453 6.06277 5.28611C6.05613 5.29731 6.04985 5.30872 6.04373 5.32025C6.03729 5.3324 6.03102 5.34457 6.0252 5.35697C6.01976 5.3687 6.01472 5.38063 6.00984 5.39268C6.00471 5.40527 5.99973 5.41786 5.99526 5.43066C5.99101 5.44291 5.98722 5.45531 5.98354 5.46783C5.9797 5.48093 5.97606 5.49404 5.9729 5.50728C5.96999 5.51966 5.96745 5.53215 5.96511 5.54475C5.96252 5.55871 5.96024 5.57267 5.95842 5.5867C5.95686 5.59878 5.9556 5.61092 5.95463 5.62313C5.95339 5.63813 5.95259 5.65313 5.95225 5.66813C5.95209 5.67463 5.95121 5.68095 5.95121 5.6875V19.5C5.95173 19.9308 6.13103 20.3439 6.4498 20.6485C6.76856 20.9531 7.20075 21.1245 7.65155 21.125H26.3553C26.8061 21.1245 27.2383 20.9531 27.557 20.6485C27.8758 20.3439 28.0551 19.9308 28.0556 19.5V5.6875C28.0556 5.68095 28.0548 5.67463 28.0546 5.66814ZM7.65155 7.53454L13.8903 13L7.65155 18.4655V7.53454ZM8.9871 19.5L15.1486 14.1023L16.4289 15.2239C16.5857 15.3613 16.7907 15.4375 17.0034 15.4375C17.2161 15.4375 17.4211 15.3613 17.578 15.2239L18.8583 14.1023L25.0198 19.5H8.9871ZM20.1165 13L26.3555 7.53439L26.3563 18.4662L20.1165 13Z" fill="#2778F1"/>
<path d="M44.2922 9.633H46.8019V10.6714C47.0875 10.2716 47.4446 9.9645 47.8731 9.75C48.3628 9.4965 48.9851 9.36975 49.7401 9.36975C50.4032 9.36975 50.9388 9.48675 51.3469 9.72075C51.7754 9.95475 52.0916 10.3155 52.2957 10.803C52.5915 10.374 52.9741 10.0376 53.4434 9.79387C53.9943 9.51112 54.6677 9.36975 55.4634 9.36975C56.5958 9.36975 57.4273 9.62325 57.9578 10.1302C58.5189 10.6665 58.7995 11.5586 58.7995 12.8066V17.0625H56.1062V12.7774C56.1062 12.1631 55.9582 11.7195 55.6624 11.4465C55.4175 11.2125 55.0757 11.0955 54.6371 11.0955C54.1576 11.0955 53.7648 11.2417 53.4587 11.5342C53.0812 11.895 52.8925 12.4556 52.8925 13.2161V17.0625H50.1992V12.7189C50.1992 12.1339 50.0461 11.7 49.7401 11.4173C49.5156 11.2027 49.1892 11.0955 48.7607 11.0955C48.322 11.0955 47.9445 11.2271 47.6283 11.4904C47.1998 11.8706 46.9855 12.5141 46.9855 13.4209V17.0625H44.2922V9.633Z" fill="#27313F"/>
<path d="M60.6862 8.44837V6.72263H63.3795V8.44837H60.6862ZM60.6862 9.633H63.3795V17.0625H60.6862V9.633Z" fill="#27313F"/>
<path d="M74.3481 12.2655H71.7619C71.7313 11.8365 71.5375 11.5148 71.1804 11.3002C70.8845 11.115 70.4611 11.0224 69.9102 11.0224C69.2063 11.0224 68.6707 11.2222 68.3034 11.622C67.9157 12.0412 67.7219 12.6409 67.7219 13.4209C67.7219 14.1911 67.931 14.7761 68.3493 15.1759C68.6962 15.5074 69.2216 15.6731 69.9255 15.6731C70.507 15.6731 70.9304 15.5756 71.1957 15.3806C71.5732 15.1271 71.767 14.7566 71.7772 14.2691H74.3787V14.313C74.3787 15.1027 74.1033 15.7804 73.5524 16.3459C73.1341 16.7651 72.624 17.0332 72.0221 17.1502C71.4201 17.277 70.6856 17.3404 69.8184 17.3404C69.2879 17.3404 68.8339 17.3209 68.4564 17.2819C68.0892 17.2526 67.6658 17.1551 67.1863 16.9894C66.7068 16.8236 66.3089 16.5896 65.9926 16.2874C65.2887 15.6146 64.9367 14.6738 64.9367 13.4648C64.9367 12.246 65.2836 11.2856 65.9773 10.5836C66.7731 9.76463 68.028 9.35512 69.7419 9.35512C71.1294 9.35512 72.1955 9.56475 72.9402 9.984C73.8788 10.491 74.3481 11.2515 74.3481 12.2655Z" fill="#27313F"/>
<path d="M81.945 9.516V11.2856C81.7614 11.2661 81.5726 11.2564 81.3788 11.2564C80.6443 11.2564 80.0729 11.3929 79.6649 11.6659C78.9303 12.1436 78.563 13.0114 78.563 14.2691V17.0625H75.8697V9.633H78.4559V10.8469C78.711 10.4081 79.1037 10.0571 79.6343 9.79387C80.0933 9.56962 80.629 9.4575 81.2411 9.4575C81.4961 9.4575 81.7308 9.477 81.945 9.516Z" fill="#27313F"/>
<path d="M89.0504 11.5781C88.6627 11.2076 88.1118 11.0224 87.3977 11.0224C86.6835 11.0224 86.1326 11.2076 85.745 11.5781C85.3165 11.9876 85.1022 12.5775 85.1022 13.3477C85.1022 14.118 85.3165 14.7079 85.745 15.1174C86.1326 15.4879 86.6835 15.6731 87.3977 15.6731C88.1118 15.6731 88.6627 15.4879 89.0504 15.1174C89.4789 14.7079 89.6932 14.118 89.6932 13.3477C89.6932 12.5775 89.4789 11.9876 89.0504 11.5781ZM91.1316 10.335C92.0294 11.0273 92.4783 12.0315 92.4783 13.3477C92.4783 14.664 92.0294 15.6682 91.1316 16.3605C90.2849 17.0137 89.0402 17.3404 87.3977 17.3404C85.7552 17.3404 84.5105 17.0137 83.6637 16.3605C82.766 15.6682 82.3171 14.664 82.3171 13.3477C82.3171 12.0315 82.766 11.0273 83.6637 10.335C84.5309 9.68175 85.7756 9.35512 87.3977 9.35512C89.0198 9.35512 90.2645 9.68175 91.1316 10.335Z" fill="#27313F"/>
<path d="M93.5378 14.7225H96.1699V14.7664C96.1699 15.0979 96.3383 15.3514 96.6749 15.5269C96.981 15.6536 97.384 15.717 97.8839 15.717C98.4144 15.717 98.7766 15.6585 98.9704 15.5415C99.256 15.405 99.3989 15.21 99.3989 14.9565C99.3989 14.6835 99.205 14.4641 98.8174 14.2984C98.6031 14.2204 98.1644 14.1375 97.5013 14.0497L96.5831 13.9181C95.5017 13.7719 94.7927 13.5915 94.456 13.377C93.8949 13.0455 93.6143 12.519 93.6143 11.7975C93.6143 10.9492 94.0071 10.3106 94.7927 9.88162C95.4048 9.52088 96.374 9.3405 97.7002 9.3405C98.7306 9.3405 99.6437 9.47212 100.439 9.73537C101.317 10.1156 101.766 10.764 101.786 11.6805H99.2152V11.6513C99.2152 11.3782 99.0673 11.1735 98.7715 11.037C98.5164 10.92 98.1644 10.8615 97.7155 10.8615C97.2667 10.8615 96.93 10.9151 96.7055 11.0224C96.4097 11.1784 96.2618 11.3782 96.2618 11.622C96.2618 11.8462 96.4148 12.0266 96.7208 12.1631C96.8025 12.2021 96.8994 12.2362 97.0116 12.2655C97.134 12.2947 97.2411 12.3143 97.333 12.324C97.435 12.3338 97.5829 12.3532 97.7768 12.3825C97.9808 12.4118 98.1542 12.4361 98.2971 12.4556L99.3377 12.6019C100.276 12.7286 100.965 12.9577 101.404 13.2892C101.903 13.6597 102.153 14.1814 102.153 14.8541C102.153 15.4781 101.944 16.0046 101.526 16.4336C101.138 16.8139 100.669 17.0625 100.118 17.1795C99.5774 17.2965 98.9041 17.355 98.0981 17.355C97.1493 17.355 96.3689 17.2965 95.7567 17.1795C95.1548 17.0625 94.6549 16.8285 94.257 16.4775C93.7776 16.0193 93.5378 15.444 93.5378 14.7518V14.7225Z" fill="#27313F"/>
<path d="M105.83 12.5141H110.131C110.09 12.0071 109.906 11.6269 109.58 11.3734C109.233 11.0809 108.702 10.9346 107.988 10.9346C107.345 10.9346 106.84 11.0711 106.473 11.3441C106.086 11.6464 105.871 12.0364 105.83 12.5141ZM110.085 14.6347H112.793C112.671 15.7462 112.11 16.5165 111.11 16.9455C110.478 17.2088 109.503 17.3404 108.187 17.3404C107.187 17.3404 106.371 17.2673 105.739 17.121C105.106 16.9748 104.56 16.6823 104.101 16.2435C103.387 15.561 103.03 14.6348 103.03 13.4648C103.03 12.207 103.418 11.2222 104.193 10.5105C105.04 9.74025 106.3 9.35512 107.973 9.35512C109.717 9.35512 111.008 9.75487 111.845 10.5544C112.549 11.2271 112.9 12.2314 112.9 13.5671V13.8304H105.785V13.8743C105.785 14.4398 105.953 14.8834 106.29 15.2051C106.636 15.5366 107.208 15.7024 108.004 15.7024C108.636 15.7024 109.1 15.6341 109.396 15.4976C109.763 15.3319 109.993 15.0442 110.085 14.6347Z" fill="#27313F"/>
<path d="M114.426 9.633H117.012V10.5398C117.339 10.1985 117.701 9.9255 118.099 9.72075C118.568 9.4965 119.145 9.38437 119.828 9.38437C120.859 9.38437 121.67 9.56475 122.261 9.9255C123.016 10.3837 123.394 11.232 123.394 12.4702V17.0625H120.701V13.0406C120.701 12.2606 120.547 11.7341 120.241 11.4611C119.997 11.2271 119.634 11.1101 119.155 11.1101C118.563 11.1101 118.094 11.2856 117.747 11.6366C117.329 12.0559 117.12 12.7286 117.12 13.6549V17.0625H114.426V9.633Z" fill="#27313F"/>
<path d="M129.851 11.037C129.178 11.037 128.648 11.2466 128.26 11.6659C127.903 12.0656 127.724 12.6262 127.724 13.3477C127.724 14.079 127.934 14.664 128.352 15.1027C128.719 15.4732 129.229 15.6585 129.882 15.6585C130.504 15.6585 130.994 15.4879 131.351 15.1466C131.81 14.7079 132.04 14.1034 132.04 13.3331C132.04 12.6799 131.866 12.1436 131.52 11.7244C131.132 11.2661 130.576 11.037 129.851 11.037ZM132.086 16.185H132.025C131.8 16.5653 131.458 16.848 130.999 17.0333C130.571 17.2088 129.933 17.2965 129.086 17.2965C128.413 17.2965 127.826 17.2331 127.326 17.1064C126.837 16.9796 126.378 16.7066 125.949 16.2874C125.255 15.5951 124.909 14.625 124.909 13.377C124.909 12.0803 125.312 11.076 126.118 10.3642C126.821 9.72075 127.842 9.399 129.178 9.399C129.913 9.399 130.515 9.50625 130.984 9.72075C131.402 9.8865 131.729 10.14 131.963 10.4812V6.825H134.657V17.0625H132.086V16.185Z" fill="#27313F"/>
<path d="M139.022 12.5141H143.322C143.281 12.0071 143.098 11.6269 142.771 11.3734C142.424 11.0809 141.894 10.9346 141.18 10.9346C140.537 10.9346 140.032 11.0711 139.665 11.3441C139.277 11.6464 139.063 12.0364 139.022 12.5141ZM143.276 14.6347H145.985C145.862 15.7462 145.301 16.5165 144.302 16.9455C143.669 17.2088 142.695 17.3404 141.379 17.3404C140.379 17.3404 139.563 17.2673 138.93 17.121C138.298 16.9748 137.752 16.6823 137.293 16.2435C136.579 15.561 136.222 14.6348 136.222 13.4648C136.222 12.207 136.609 11.2222 137.385 10.5105C138.231 9.74025 139.491 9.35512 141.164 9.35512C142.909 9.35512 144.2 9.75487 145.036 10.5544C145.74 11.2271 146.092 12.2314 146.092 13.5671V13.8304H138.976V13.8743C138.976 14.4398 139.144 14.8834 139.481 15.2051C139.828 15.5366 140.399 15.7024 141.195 15.7024C141.828 15.7024 142.292 15.6341 142.588 15.4976C142.955 15.3319 143.184 15.0442 143.276 14.6347Z" fill="#27313F"/>
<path d="M153.693 9.516V11.2856C153.509 11.2661 153.321 11.2564 153.127 11.2564C152.392 11.2564 151.821 11.3929 151.413 11.6659C150.678 12.1436 150.311 13.0114 150.311 14.2691V17.0625H147.618V9.633H150.204V10.8469C150.459 10.4081 150.852 10.0571 151.382 9.79387C151.841 9.56962 152.377 9.4575 152.989 9.4575C153.244 9.4575 153.479 9.477 153.693 9.516Z" fill="#27313F"/>
<path d="M154.209 17.0625V14.664H157.025V17.0625H154.209Z" fill="#27313F"/>
<path d="M159.588 8.44837V6.72263H162.282V8.44837H159.588ZM159.588 9.633H162.282V17.0625H159.588V9.633Z" fill="#27313F"/>
<path d="M170.572 11.5781C170.184 11.2076 169.634 11.0224 168.919 11.0224C168.205 11.0224 167.654 11.2076 167.267 11.5781C166.838 11.9876 166.624 12.5775 166.624 13.3477C166.624 14.118 166.838 14.7079 167.267 15.1174C167.654 15.4879 168.205 15.6731 168.919 15.6731C169.634 15.6731 170.184 15.4879 170.572 15.1174C171.001 14.7079 171.215 14.118 171.215 13.3477C171.215 12.5775 171.001 11.9876 170.572 11.5781ZM172.653 10.335C173.551 11.0273 174 12.0315 174 13.3477C174 14.664 173.551 15.6682 172.653 16.3605C171.807 17.0137 170.562 17.3404 168.919 17.3404C167.277 17.3404 166.032 17.0137 165.185 16.3605C164.288 15.6682 163.839 14.664 163.839 13.3477C163.839 12.0315 164.288 11.0273 165.185 10.335C166.053 9.68175 167.297 9.35512 168.919 9.35512C170.542 9.35512 171.786 9.68175 172.653 10.335Z" fill="#27313F"/>
</svg>
