<svg width="15" height="14" fill="none" xmlns="http://www.w3.org/2000/svg"><path d="M13.793 10.641l-4.97-8.855a1.506 1.506 0 0 0-2.647 0l-4.969 8.855a1.596 1.596 0 0 0 0 1.573c.277.492.771.786 1.324.786h9.938c.553 0 1.047-.294 1.324-.786a1.596 1.596 0 0 0 0-1.573zm-.66 1.18a.756.756 0 0 1-.664.395H2.53a.755.755 0 0 1-.664-.394.8.8 0 0 1 0-.79l4.969-8.854a.756.756 0 0 1 1.328 0l4.97 8.855a.8.8 0 0 1 0 .789z" fill="#000" stroke="#000" stroke-width=".5"/><path d="M7.88 4.91h-.76v3.918h.76V4.91zM7.5 9.612a.516.516 0 0 0-.508.523c0 .288.228.522.508.522s.508-.234.508-.522a.516.516 0 0 0-.508-.523z" fill="#000" stroke="#000" stroke-width=".5"/></svg>