<svg width="22" height="22" fill="none" xmlns="http://www.w3.org/2000/svg"><circle cx="11" cy="11" r="11" fill="url(#paint0_linear)"/><path d="M7.496 8.288h2.336c.032-1.088.4-1.968 1.664-1.968.832 0 1.376.512 1.376 1.28 0 .992-.832 1.456-1.504 2.032-1.056.912-1.104 1.632-1.104 2.944h2.128c0-1.12.192-1.424 1.12-2.064 1.024-.704 1.808-1.536 1.808-2.864 0-1.968-1.52-3.28-3.792-3.28-2.56 0-3.888 1.536-4.032 3.92zm5.056 5.264h-2.48V16h2.48v-2.448z" fill="#000"/><defs><linearGradient id="paint0_linear" x1="-.311" y1="1.833" x2="22.51" y2="2.428" gradientUnits="userSpaceOnUse"><stop stop-color="#FFC738"/><stop offset="1" stop-color="#FFAA2C"/></linearGradient></defs></svg>