<svg width="392" height="392" viewBox="0 0 392 392" fill="none" xmlns="http://www.w3.org/2000/svg">
<path d="M0.7839 212.802C3.12723 238.841 10.6539 264.148 22.9213 287.235C35.1886 310.323 51.9489 330.724 72.2163 347.239C92.4838 363.754 115.849 376.05 140.938 383.402C166.027 390.755 192.333 393.016 218.309 390.053C253.282 386.047 286.53 372.696 314.562 351.403C342.593 330.11 364.372 301.66 377.611 269.043C390.85 236.425 395.06 200.845 389.8 166.038C384.539 131.232 370.001 98.4848 347.713 71.2373C331.266 50.9729 310.906 34.2282 287.848 22.002C264.79 9.77585 239.505 2.31857 213.503 0.0749174C210.267 -0.18427 207.012 0.23075 203.944 1.29374C200.876 2.35673 198.062 4.04458 195.68 6.2506C193.298 8.45661 191.399 11.1328 190.104 14.11C188.809 17.0873 188.146 20.3008 188.157 23.5475V187.455H24.2486C21.0026 187.446 17.7899 188.11 14.8136 189.406C11.8373 190.701 9.16209 192.6 6.95692 194.982C4.75176 197.364 3.06461 200.177 2.00209 203.245C0.939568 206.312 0.524769 209.566 0.7839 212.802ZM16.4009 211.422C16.3319 210.353 16.4839 209.282 16.8476 208.275C17.2113 207.268 17.7787 206.347 18.5145 205.57C19.2503 204.792 20.1386 204.174 21.1238 203.755C22.1091 203.337 23.1702 203.125 24.2408 203.135H195.996C198.076 203.135 200.07 202.309 201.54 200.839C203.01 199.369 203.836 197.375 203.836 195.295V23.5475C203.834 22.4785 204.051 21.4205 204.473 20.4384C204.896 19.4563 205.514 18.5709 206.291 17.8367C207.068 17.1024 207.987 16.5348 208.991 16.1686C209.995 15.8025 211.064 15.6456 212.131 15.7076C256.638 19.6527 298.095 39.9818 328.466 72.7542C358.838 105.527 375.959 148.408 376.513 193.086C377.067 237.764 361.012 281.057 331.462 314.572C301.913 348.087 260.972 369.437 216.576 374.483C192.674 377.216 168.467 375.14 145.38 368.379C122.292 361.618 100.789 350.308 82.137 335.113C63.4849 319.919 48.0598 301.148 36.7693 279.905C25.4788 258.662 18.5508 235.375 16.3931 211.414L16.4009 211.422Z" fill="#5B6770"/>
<path d="M172.477 148.256V124.737C172.477 118.499 169.999 112.516 165.588 108.106C161.177 103.695 155.195 101.217 148.957 101.217C142.719 101.217 136.737 103.695 132.326 108.106C127.915 112.516 125.438 118.499 125.438 124.737V148.256C125.438 154.494 127.915 160.476 132.326 164.887C136.737 169.298 142.719 171.776 148.957 171.776C155.195 171.776 161.177 169.298 165.588 164.887C169.999 160.476 172.477 154.494 172.477 148.256ZM156.797 148.256C156.797 150.335 155.971 152.329 154.501 153.8C153.03 155.27 151.036 156.096 148.957 156.096C146.878 156.096 144.884 155.27 143.413 153.8C141.943 152.329 141.117 150.335 141.117 148.256V124.737C141.117 122.657 141.943 120.663 143.413 119.193C144.884 117.723 146.878 116.897 148.957 116.897C151.036 116.897 153.03 117.723 154.501 119.193C155.971 120.663 156.797 122.657 156.797 124.737V148.256Z" fill="#DA291C"/>
<path d="M0 93.3771V148.256C9.29502e-08 154.494 2.47795 160.476 6.88873 164.887C11.2995 169.298 17.2818 171.776 23.5196 171.776C29.7574 171.776 35.7397 169.298 40.1504 164.887C44.5612 160.476 47.0392 154.494 47.0392 148.256V93.3771C47.0392 90.2884 46.4308 87.23 45.2488 84.3765C44.0669 81.523 42.3344 78.9302 40.1504 76.7462C37.9664 74.5622 35.3737 72.8298 32.5201 71.6478C29.6666 70.4658 26.6082 69.8575 23.5196 69.8575C20.4309 69.8575 17.3726 70.4658 14.519 71.6478C11.6655 72.8298 9.07272 74.5622 6.88873 76.7462C4.70473 78.9302 2.97229 81.523 1.79032 84.3765C0.608352 87.23 -4.60243e-08 90.2884 0 93.3771ZM15.6797 93.3771C15.6797 91.2978 16.5057 89.3037 17.976 87.8335C19.4462 86.3632 21.4403 85.5372 23.5196 85.5372C25.5988 85.5372 27.5929 86.3632 29.0632 87.8335C30.5335 89.3037 31.3594 91.2978 31.3594 93.3771V148.256C31.3594 150.335 30.5335 152.329 29.0632 153.8C27.5929 155.27 25.5988 156.096 23.5196 156.096C21.4403 156.096 19.4462 155.27 17.976 153.8C16.5057 152.329 15.6797 150.335 15.6797 148.256V93.3771Z" fill="#DA291C"/>
<path d="M109.758 148.256V54.1778C109.758 47.94 107.28 41.9577 102.869 37.5469C98.4584 33.1361 92.4761 30.6582 86.2383 30.6582C80.0006 30.6582 74.0183 33.1361 69.6075 37.5469C65.1967 41.9577 62.7188 47.94 62.7188 54.1778V148.256C62.7188 154.494 65.1967 160.476 69.6075 164.887C74.0183 169.298 80.0006 171.776 86.2383 171.776C92.4761 171.776 98.4584 169.298 102.869 164.887C107.28 160.476 109.758 154.494 109.758 148.256ZM94.0782 148.256C94.0782 150.335 93.2522 152.329 91.7819 153.8C90.3117 155.27 88.3176 156.096 86.2383 156.096C84.1591 156.096 82.165 155.27 80.6947 153.8C79.2245 152.329 78.3985 150.335 78.3985 148.256V54.1778C78.3985 52.0985 79.2245 50.1044 80.6947 48.6342C82.165 47.1639 84.1591 46.3379 86.2383 46.3379C88.3176 46.3379 90.3117 47.1639 91.7819 48.6342C93.2522 50.1044 94.0782 52.0985 94.0782 54.1778V148.256Z" fill="#DA291C"/>
</svg>
