<svg width="400" height="401" viewBox="0 0 400 401" fill="none" xmlns="http://www.w3.org/2000/svg">
<path fill-rule="evenodd" clip-rule="evenodd" d="M331.776 134.493C345.553 126.61 356.339 114.394 362.456 99.7466C368.572 85.0991 369.677 68.8408 365.598 53.5005C361.52 38.1601 352.486 24.5976 339.902 14.9224C327.318 5.24723 311.889 0.00170201 296.016 0.00170201C280.143 0.00170201 264.714 5.24723 252.13 14.9224C239.546 24.5976 230.512 38.1601 226.434 53.5005C222.355 68.8408 223.46 85.0991 229.576 99.7466C235.693 114.394 246.479 126.61 260.256 134.493C244.686 140.2 230.716 149.565 219.52 161.797L237.712 166.133C250.409 154.908 266.077 147.588 282.833 145.052C299.59 142.516 316.722 144.873 332.172 151.839C347.621 158.805 360.73 170.084 369.924 184.321C379.119 198.558 384.006 215.146 384 232.093V288.093H319.736L317.488 304.093H392C394.122 304.093 396.157 303.251 397.657 301.75C399.157 300.25 400 298.215 400 296.093V232.093C400.058 210.781 393.537 189.97 381.326 172.502C369.116 155.034 351.812 141.76 331.776 134.493ZM249.438 40.9815C243.284 50.1907 240 61.0177 240 72.0935C240.017 86.9404 245.922 101.174 256.421 111.673C266.919 122.171 281.153 128.077 296 128.093C307.076 128.093 317.903 124.809 327.112 118.656C336.321 112.502 343.499 103.756 347.737 93.5238C351.976 83.2911 353.085 72.0314 350.924 61.1684C348.763 50.3055 343.43 40.3272 335.598 32.4955C327.766 24.6638 317.788 19.3303 306.925 17.1695C296.062 15.0087 284.802 16.1177 274.57 20.3562C264.337 24.5947 255.591 31.7724 249.438 40.9815Z" fill="#5B6770"/>
<path fill-rule="evenodd" clip-rule="evenodd" d="M180.568 161.797C169.415 149.482 155.403 140.099 139.768 134.477C153.544 126.587 164.326 114.365 170.436 99.712C176.547 85.0593 177.643 68.7978 173.554 53.4576C169.466 38.1174 160.422 24.5585 147.829 14.8906C135.237 5.22258 119.802 -0.0124169 103.927 2.21163e-05C88.0509 0.0124611 72.6244 5.27164 60.0471 14.9593C47.4699 24.647 38.4471 38.22 34.3827 53.5666C30.3182 68.9133 31.4399 85.173 37.5732 99.8161C43.7065 114.459 54.5076 126.665 68.296 134.533C48.2987 141.855 31.0285 155.135 18.8158 172.58C6.60318 190.026 0.0358398 210.798 0 232.093V296.093C0 298.215 0.842854 300.25 2.34315 301.75C3.84344 303.251 5.87827 304.093 8 304.093H82.512L80.264 288.093H16V232.093C16.0126 215.151 20.9125 198.571 30.112 184.343C39.3115 170.115 52.42 158.843 67.8654 151.879C83.3108 144.914 100.437 142.553 117.191 145.079C133.945 147.605 149.614 154.909 162.32 166.117L180.568 161.797ZM57.4377 40.9815C51.2843 50.1907 48 61.0177 48 72.0935C48.0169 86.9404 53.9224 101.174 64.4207 111.673C74.9191 122.171 89.1531 128.077 104 128.093C115.076 128.093 125.903 124.809 135.112 118.656C144.321 112.502 151.499 103.756 155.737 93.5238C159.976 83.2911 161.085 72.0314 158.924 61.1684C156.763 50.3055 151.43 40.3272 143.598 32.4955C135.766 24.6638 125.788 19.3303 114.925 17.1695C104.062 15.0087 92.8024 16.1177 82.5697 20.3562C72.3371 24.5947 63.5911 31.7724 57.4377 40.9815Z" fill="#5B6770"/>
<path d="M141.657 322.364C150.558 334.659 163.124 343.82 177.552 348.534C178.571 348.843 179.518 349.354 180.337 350.034C181.157 350.715 181.832 351.553 182.323 352.498C182.814 353.443 183.112 354.476 183.198 355.538C183.285 356.6 183.158 357.668 182.826 358.68C182.494 359.692 181.964 360.628 181.266 361.432C180.567 362.236 179.715 362.893 178.76 363.364C177.804 363.835 176.765 364.11 175.701 364.173C174.638 364.237 173.573 364.087 172.568 363.734C154.932 357.977 139.572 346.783 128.691 331.757C117.81 316.731 111.967 298.645 112 280.094C112 277.972 112.843 275.937 114.343 274.437C115.844 272.936 117.878 272.094 120 272.094C122.122 272.094 124.157 272.936 125.657 274.437C127.157 275.937 128 277.972 128 280.094C127.974 295.272 132.755 310.07 141.657 322.364Z" fill="#DA291C"/>
<path fill-rule="evenodd" clip-rule="evenodd" d="M180.568 161.797C193.468 159.706 206.62 159.706 219.52 161.797C225.595 162.882 229.472 163.795 237.712 166.133C261.585 174.197 282.346 189.512 297.098 209.941C311.849 230.371 319.856 254.895 320 280.093C320 282.733 319.912 285.413 319.736 288.093C319.149 294.305 318.714 297.805 317.488 304.094C311.975 331.186 297.267 355.541 275.857 373.033C254.446 390.526 227.648 400.081 200 400.081C172.352 400.081 145.554 390.526 124.143 373.033C102.733 355.541 88.0253 331.186 82.512 304.094C81.3453 298.212 80.8981 294.692 80.264 288.093C80.088 285.413 80 282.733 80 280.093C80.1241 254.884 88.1263 230.344 102.887 209.908C117.647 189.471 138.428 174.16 162.32 166.118C169.415 164.136 173.422 163.175 180.568 161.797ZM200 384.094C179.431 384.094 159.323 377.994 142.221 366.566C125.118 355.139 111.788 338.896 103.917 319.893C96.045 300.889 93.9855 279.978 97.9983 259.804C102.011 239.63 111.916 221.099 126.461 206.554C141.006 192.01 159.537 182.105 179.711 178.092C199.885 174.079 220.796 176.139 239.799 184.01C258.803 191.882 275.045 205.211 286.473 222.314C297.901 239.417 304 259.524 304 280.093C303.928 307.654 292.948 334.065 273.46 353.553C253.972 373.042 227.56 384.022 200 384.094Z" fill="#DA291C"/>
</svg>
