<svg width="32" height="32" viewBox="0 0 32 32" fill="none" xmlns="http://www.w3.org/2000/svg">
<path d="M32 16C32 7.16344 24.8366 0 16 0C7.16344 0 0 7.16344 0 16C0 24.8366 7.16344 32 16 32C24.8366 32 32 24.8366 32 16Z" fill="#0077FF"/>
<path d="M16.7859 21.382C10.7726 21.382 7.34286 17.2596 7.19995 10.3999H10.212C10.311 15.4347 12.5315 17.5674 14.2904 18.0071V10.3999H17.1268V14.7422C18.8637 14.5553 20.6883 12.5765 21.3039 10.3999H24.1402C23.6675 13.0822 21.6887 15.061 20.2816 15.8745C21.6887 16.5341 23.9424 18.26 24.7999 21.382H21.6778C21.0072 19.2933 19.3364 17.6773 17.1268 17.4575V21.382H16.7859Z" fill="white"/>
</svg>
