<svg width="64" height="64" fill="none" xmlns="http://www.w3.org/2000/svg"><path d="M59.733 38.4H4.267v-32h55.466v32zM6.4 36.267h51.2V8.533H6.4v27.734z" fill="#FF3D23"/><path d="M16 41.6h41.6v2.133H16V41.6zM12.8 40.533h2.133V44.8H12.8v-4.267zM6.4 41.6h5.333v2.133H6.4V41.6z" fill="#2E2928"/><path d="M24.533 32.66V12.14L45.052 22.4 24.533 32.66zm2.134-17.067v13.614L40.282 22.4l-13.615-6.807z" fill="#FF3D23"/><path d="M60.8 2.133H3.2a3.2 3.2 0 0 0-3.2 3.2v40.534a3.2 3.2 0 0 0 3.2 3.2h19.2v6.4H11.733v6.4h40.534v-6.4H41.6v-6.4h19.2a3.2 3.2 0 0 0 3.2-3.2V5.333a3.2 3.2 0 0 0-3.2-3.2zM50.133 57.6v2.133H13.867V57.6h36.266zm-10.666-2.133H24.533v-6.4h14.934v6.4zm22.4-9.6c0 .589-.478 1.066-1.067 1.066H3.2c-.59 0-1.067-.477-1.067-1.066V5.333c0-.589.478-1.066 1.067-1.066h57.6c.59 0 1.067.477 1.067 1.066v40.534z" fill="#2E2928"/></svg>