<svg width="64" height="64" fill="none" xmlns="http://www.w3.org/2000/svg"><path d="M8.533 57.6h21.334v2.133H8.532V57.6zM32 57.6h2.133v2.133H32V57.6z" fill="#2E2928"/><path d="M36.267 41.6v11.733H5.333a5.28 5.28 0 0 0-3.2 1.094V22.4a5.34 5.34 0 0 1 5.334-5.334h1.066v13.727l4.267-2.846 4.267 2.843V17.066H22.4v-2.133H7.467A7.476 7.476 0 0 0 0 22.4v36.266A5.34 5.34 0 0 0 5.333 64H38.4V41.6h-2.133zm-25.6-24.534h4.266v9.741l-2.133-1.42-2.133 1.422v-9.743zm25.6 44.8H5.333a3.2 3.2 0 0 1 0-6.4h30.934v6.4z" fill="#2E2928"/><path d="M4.267 57.6H6.4v2.133H4.267V57.6z" fill="#2E2928"/><path d="M43.733 0C32.54 0 23.468 9.073 23.468 20.267c0 11.193 9.073 20.266 20.267 20.266C54.926 40.533 64 31.46 64 20.267 63.988 9.079 54.922.012 43.733 0zM44.8 13.83a29.885 29.885 0 0 0 8.514-1.482c.63 2.232.983 4.533 1.054 6.852H44.8v-5.37zm-2.133 5.37h-9.568c.07-2.319.424-4.62 1.054-6.852a29.885 29.885 0 0 0 8.514 1.481V19.2zm-11.692 0h-5.333a17.976 17.976 0 0 1 3.299-9.377 20.248 20.248 0 0 0 3.254 1.772 29.812 29.812 0 0 0-1.22 7.605zm0 2.133a29.808 29.808 0 0 0 1.218 7.606 20.25 20.25 0 0 0-3.254 1.771 17.975 17.975 0 0 1-3.3-9.377h5.336zm2.124 0h9.568v5.371a29.885 29.885 0 0 0-8.514 1.481 28.434 28.434 0 0 1-1.054-6.852zm11.701 0h9.568a28.439 28.439 0 0 1-1.054 6.852 29.885 29.885 0 0 0-8.514-1.48v-5.372zm11.692 0h5.333a17.975 17.975 0 0 1-3.299 9.377 20.255 20.255 0 0 0-3.255-1.771 29.807 29.807 0 0 0 1.22-7.606zm0-2.133a29.809 29.809 0 0 0-1.218-7.605 20.253 20.253 0 0 0 3.254-1.772 17.976 17.976 0 0 1 3.3 9.377h-5.336zm.705-11.05a18.082 18.082 0 0 1-2.624 1.428 19.658 19.658 0 0 0-3.484-5.867 18.272 18.272 0 0 1 6.108 4.44zm-4.553 2.178a27.676 27.676 0 0 1-7.844 1.369V2.225c3.28.556 6.12 3.65 7.844 8.103zm-9.977-8.103v9.472a27.676 27.676 0 0 1-7.845-1.37c1.724-4.452 4.566-7.546 7.845-8.102zm-6.293 1.482a19.647 19.647 0 0 0-3.484 5.866c-.913-.402-1.79-.88-2.624-1.427a18.271 18.271 0 0 1 6.108-4.44zM30.27 32.383a18.082 18.082 0 0 1 2.624-1.427 19.66 19.66 0 0 0 3.484 5.866 18.271 18.271 0 0 1-6.108-4.44zm4.552-2.177a27.672 27.672 0 0 1 7.845-1.37v9.472c-3.28-.555-6.12-3.65-7.845-8.102zm9.978 8.102v-9.471c2.667.076 5.31.536 7.844 1.369-1.724 4.452-4.565 7.547-7.844 8.102zm6.293-1.481a19.648 19.648 0 0 0 3.484-5.867c.913.402 1.79.88 2.624 1.427a18.274 18.274 0 0 1-6.108 4.44z" fill="#FF3D23"/><path d="M21.83.054L20.32 1.563l2.704 2.704H10.667A5.34 5.34 0 0 0 5.334 9.6v3.2h2.133V9.6a3.2 3.2 0 0 1 3.2-3.2h12.358l-2.704 2.704 1.508 1.509 5.28-5.28-5.28-5.279zM55.467 39.467V54.4a3.2 3.2 0 0 1-3.2 3.2h-8.092l2.704-2.704-1.508-1.508-5.28 5.279 5.28 5.279 1.508-1.508-2.704-2.705h8.092A5.34 5.34 0 0 0 57.6 54.4V39.467h-2.133zM33.067 51.2H6.4V32h19.2v2.133H8.533v14.934h22.4v-9.6h2.134V51.2z" fill="#2E2928"/><path d="M16 46.526v-9.852l9.852 4.926L16 46.526zm2.133-6.4v2.948l2.949-1.474-2.949-1.474z" fill="#2E2928"/></svg>