<svg width="64" height="64" fill="none" xmlns="http://www.w3.org/2000/svg"><path d="M61.15 44.9a4.007 4.007 0 0 0-5.46-1.47l-9.75 5.63a3.982 3.982 0 0 0-2.26-1.63l-14.92-3.99a6.957 6.957 0 0 0-3.51-.03L20 44.72V44a1 1 0 0 0-1-1h-3a1 1 0 0 0-1-1H3a1 1 0 0 0-1 1v18a1 1 0 0 0 1 1h12a1 1 0 0 0 1-1h3a1 1 0 0 0 1-1v-.38l1.29.64a7.063 7.063 0 0 0 3.13.74h14.97a6.93 6.93 0 0 0 3.5-.94l16.8-9.7a4.009 4.009 0 0 0 1.46-5.46zM14 60H4V44h10v16zm4-1h-2V45h2v14zm40.69-10.37l-16.8 9.7c-.76.44-1.622.67-2.5.67H24.42a4.956 4.956 0 0 1-2.24-.53L20 57.38v-10.6l5.73-1.43a4.963 4.963 0 0 1 2.51.02l14.92 4a1.991 1.991 0 0 1 .48 3.66 1.95 1.95 0 0 1-1.51.2l-11.93-3.2a1.004 1.004 0 1 0-.52 1.94l11.93 3.19a3.916 3.916 0 0 0 3.03-.4 3.975 3.975 0 0 0 1.87-2.43c.11-.44.148-.897.11-1.35l10.07-5.81a2.025 2.025 0 0 1 2.72.73 2 2 0 0 1-.72 2.73z" fill="#2E2928"/><path d="M42 29a3 3 0 1 0 0-5.999A3 3 0 0 0 42 29zm0-4a1 1 0 1 1 0 2 1 1 0 0 1 0-2z" fill="#FF3D23"/><path d="M61 2H36a1 1 0 0 0-1 1v14h-5V9a1 1 0 0 0-1-1H7a1 1 0 0 0-1 1v14a1 1 0 0 0 1 1h15v16a1 1 0 0 0 1 1h34a1 1 0 0 0 1-1V22h3a1 1 0 0 0 1-1V3a1 1 0 0 0-1-1zM9.8 22l5.755-4.706 1.177.962a2.007 2.007 0 0 0 2.533 0l1.176-.962L26.2 22H9.8zM28 20.891L22.021 16 28 11.11v9.781zm-10-4.183L9.8 10h16.4L18 16.708zM13.979 16L8 20.891V11.11L13.979 16zm31.528 23l-2.228-3.039L48 29.667 55 39h-9.493zm-2.481 0H24.974L34 26.691 43.026 39zM56 37l-7.2-9.6a1.036 1.036 0 0 0-1.6 0l-5.157 6.876-7.236-9.867a1.038 1.038 0 0 0-1.614 0L24 36.945V24h5a1 1 0 0 0 1-1v-4h5v2a1 1 0 0 0 1 1h20v15zm4-17H37V4h23v16z" fill="#FF3D23"/><path d="M44.474 16.851a1 1 0 0 0 .973.044l8-4a1 1 0 0 0 0-1.79l-8-4A1 1 0 0 0 44 8v8a1 1 0 0 0 .474.851zM46 9.618L50.764 12 46 14.382V9.618z" fill="#FF3D23"/></svg>