<svg width="39" height="43" fill="none" xmlns="http://www.w3.org/2000/svg"><path d="M20 9.785l4.294-.707c.314-.052.631-.078.949-.078h.007c1.912 0 3.723.912 4.671 2.46.608.992 1.079 2.326 1.079 4.078 0 1.508-.422 2.99-1.225 4.298l-1.228 2.004a7.194 7.194 0 0 0-1.048 3.096 16.604 16.604 0 0 1-2.419 7.189l-.817 1.327a1.19 1.19 0 0 1-1.016.548c-.648 0-1.173-.49-1.173-1.094v-2.095a8.449 8.449 0 0 0-.603-3.129l-.325-.814c-.183-.461-.655-.767-1.18-.767-.539 0-1.018.32-1.192.794l-.326.883a8.43 8.43 0 0 0-.522 2.917v2.21c0 .605-.524 1.094-1.172 1.094-.42 0-.807-.209-1.016-.548l-.818-1.327a16.611 16.611 0 0 1-2.418-7.189 7.205 7.205 0 0 0-1.049-3.095l-1.228-2.004A8.21 8.21 0 0 1 9 15.538c0-1.757.474-3.093 1.082-4.084C11.032 9.91 12.841 9 14.75 9h.007c.318 0 .635.026.948.078L20 9.785z" stroke="#fff" stroke-width="1.5" stroke-miterlimit="10" stroke-linecap="round" stroke-linejoin="round"/><path d="M1 9V1h8M38 9V1h-8M38 34v8h-8M1 34v8h8" stroke="#20A1E5" stroke-width="2" stroke-miterlimit="10" stroke-linecap="round" stroke-linejoin="round"/></svg>