<svg width="50" height="35" fill="none" xmlns="http://www.w3.org/2000/svg"><path d="M38.7 15.743C38.7 6.838 29.267 1 19.85 1 10.395 1 1 6.865 1 15.743c0 3.36 1.478 6.644 4.162 9.25.103.1.142.25.103.394-.843 3.074-2.84 5.85-3.66 6.902-.254.327-.296.76-.109 1.129a1.057 1.057 0 0 0 .978.582c4.01-.1 8.657-1.226 11.53-4.037a.411.411 0 0 1 .385-.104c1.765.417 3.602.628 5.46.628 9.453 0 18.85-5.863 18.85-14.743zM14.72 28.47a1.844 1.844 0 0 0-1.723.475c-2.873 2.811-7.564 3.45-9.784 3.592 1.014-1.393 2.663-3.953 3.437-6.772a1.826 1.826 0 0 0-.485-1.794c-2.44-2.368-3.73-5.213-3.73-8.226 0-7.342 7.813-13.315 17.415-13.315s17.414 5.973 17.414 13.314c0 7.342-7.812 13.315-17.414 13.315-1.747 0-3.473-.198-5.13-.589z" fill="#fff" stroke="#fff" stroke-width=".2"/><path d="M43.272 27.524h0a.435.435 0 0 0-.232.48c.4 1.872 1.392 3.595 1.946 4.453a.924.924 0 0 1 .007 1.002.936.936 0 0 1-.91.434c-.91-.105-2.475-.37-4.052-1.026-1.578-.655-3.16-1.695-4.117-3.346h0a.432.432 0 0 0-.374-.211h-.001 0-.059s0 0 0 0c-.858 0-1.717-.06-2.554-.177a.615.615 0 1 1 .172-1.216c.78.109 1.582.164 2.382.164h.058c.598 0 1.151.317 1.447.826.522.9 2.154 2.944 6.423 3.651l.21.035-.107-.184c-.593-1.022-1.333-2.528-1.68-4.15a1.663 1.663 0 0 1 .883-1.831c3.716-1.87 5.95-5.01 5.95-8.411 0-4.868-4.55-9.015-10.769-9.896a.615.615 0 0 1-.525-.694h0a.618.618 0 0 1 .7-.522c6.874.974 11.83 5.66 11.83 11.112 0 3.858-2.469 7.415-6.628 9.507z" fill="#20A1E5" stroke="#20A1E5" stroke-width=".2"/><path d="M8.681 13.189a2.485 2.485 0 0 0-2.487 2.475A2.485 2.485 0 0 0 8.68 18.14a2.485 2.485 0 0 0 2.488-2.476A2.485 2.485 0 0 0 8.68 13.19zm0 3.523a1.05 1.05 0 0 1-1.052-1.047 1.05 1.05 0 0 1 1.052-1.048c.58 0 1.052.47 1.052 1.047a1.05 1.05 0 0 1-1.052 1.048zM15.778 13.189a2.485 2.485 0 0 0-2.488 2.475 2.485 2.485 0 0 0 2.488 2.476 2.485 2.485 0 0 0 2.488-2.476 2.485 2.485 0 0 0-2.488-2.475zm0 3.523a1.05 1.05 0 0 1-1.052-1.047 1.05 1.05 0 0 1 1.052-1.048c.58 0 1.052.47 1.052 1.047a1.05 1.05 0 0 1-1.052 1.048zM22.874 13.189a2.485 2.485 0 0 0-2.487 2.475 2.485 2.485 0 0 0 2.487 2.476 2.485 2.485 0 0 0 2.488-2.476 2.485 2.485 0 0 0-2.488-2.475zm0 3.523a1.05 1.05 0 0 1-1.052-1.047 1.05 1.05 0 0 1 1.052-1.048c.58 0 1.052.47 1.052 1.047a1.05 1.05 0 0 1-1.052 1.048zM29.97 13.189a2.485 2.485 0 0 0-2.487 2.475 2.485 2.485 0 0 0 2.488 2.476 2.485 2.485 0 0 0 2.487-2.476 2.485 2.485 0 0 0-2.487-2.475zm0 3.523a1.05 1.05 0 0 1-1.051-1.047 1.05 1.05 0 0 1 1.052-1.048c.58 0 1.052.47 1.052 1.047a1.05 1.05 0 0 1-1.052 1.048z" fill="#20A1E5"/></svg>