<svg width="33" height="43" fill="none" xmlns="http://www.w3.org/2000/svg"><path d="M16.497 13.66l3.385-.594c.247-.044.497-.065.748-.065h.006c1.506 0 2.935.766 3.682 2.067.48.832.85 1.952.85 3.424a7.238 7.238 0 0 1-.965 3.61l-.969 1.683a6.323 6.323 0 0 0-.826 2.601 14.585 14.585 0 0 1-1.906 6.039l-.645 1.114a.924.924 0 0 1-.8.461.921.921 0 0 1-.925-.919v-1.76c0-.897-.161-1.787-.476-2.627l-.255-.685a.993.993 0 0 0-.932-.643.992.992 0 0 0-.94.666l-.256.741a7.505 7.505 0 0 0-.412 2.451v1.857a.926.926 0 1 1-1.726.458l-.644-1.114a14.585 14.585 0 0 1-1.906-6.039 6.323 6.323 0 0 0-.827-2.6l-.968-1.683a7.238 7.238 0 0 1-.966-3.611c0-1.475.374-2.598.854-3.43.748-1.299 2.174-2.062 3.68-2.062h.005c.25 0 .5.022.748.065l3.386.595z" stroke="#fff" stroke-width="2" stroke-miterlimit="10" stroke-linecap="round" stroke-linejoin="round"/><path d="M22.2 3.042V1H10.995v2.042" stroke="#20A1E5" stroke-width="2" stroke-miterlimit="10" stroke-linecap="round" stroke-linejoin="round"/><path d="M10.994 3.042a3.833 3.833 0 0 0 3.833 3.834h3.541a3.833 3.833 0 0 0 3.833-3.834" stroke="#20A1E5" stroke-width="2" stroke-miterlimit="10" stroke-linecap="round" stroke-linejoin="round"/><path d="M7.978 1H1v41h31V1h-7.493" stroke="#20A1E5" stroke-width="2" stroke-miterlimit="10" stroke-linecap="round" stroke-linejoin="round"/></svg>