<svg width="42" height="46" fill="none" xmlns="http://www.w3.org/2000/svg"><path d="M16.66 40.06s1.256 1.072.58 4.457c0 0 7.98 1.81 13.094-1.575M5.682 31.509h2.03M36.176 20.648c.326-.988.587-1.984.74-2.994.476-3.137-.416-6.816-2.02-9.543-1.936-3.296-5.137-5.437-8.774-6.463-.727-.206-10.136-2.693-16.773 3.686-2.776 2.668-3.947 5.81-4.458 7.842a9.66 9.66 0 0 0-.28 2.356v.024c0 .51.05 1.011.116 1.511.042.306.062.661.033 1.054l-.001.03a9.125 9.125 0 0 1-1.09 3.713C2.78 23.5 1.775 25.156 1 26.77h3.892l-.06 1.953c-.012.353-.1.71-.31.994-.107.146-.2.372-.183.708.021.437.343.803.764.921l.58.163c-.543.09-.982.467-1.12.964 0 .006-.002.012-.004.017-.13.5.172 1.014.654 1.2.253.097.542.267.714.565.343.595.13 1.557-.648 2.253a.814.814 0 0 0-.168.221c-.406.753.053 1.69.877 1.919.732.203 1.77.404 2.959.515 1.721.16 3.375-.116 4.857-.735" stroke="#20A1E5" stroke-width="2" stroke-miterlimit="10" stroke-linecap="round" stroke-linejoin="round"/><path d="M40.752 36.263c0 .952-.502 1.838-1.332 2.345-.748.458-1.614.7-2.499.7h-8.458c-.602 0-1.195-.242-1.556-.71-.428-.553-.574-1.4.89-2.43h-1.392c-.757 0-1.476-.474-1.636-1.195a1.526 1.526 0 0 1-.03-.458c.042-.813 1.34-1.635 1.472-1.763h-1.453c-.69 0-1.351-.417-1.512-1.069a1.432 1.432 0 0 1-.037-.474c.05-.552.423-1.04.963-1.267l.736-.331h-6.694c-.836 0-1.617-.541-1.77-1.34a1.753 1.753 0 0 1 .013-.744c.18-.77.942-1.278 1.753-1.277l10.648.013c.024.002.29.02.467-.186a.521.521 0 0 0 .085-.537l-1.508-1.033s-1.606-.793-1.77-1.967c-.085-.603.542-1.066 1.12-.835l11.736 4.7c.378.152.719.381.997.672a2.73 2.73 0 0 1 .766 1.89M20.723 34.76a7.49 7.49 0 1 1 .572-12.153" stroke="#fff" stroke-width="2" stroke-miterlimit="10" stroke-linecap="round" stroke-linejoin="round"/><path d="M19.211 31.634a3.922 3.922 0 0 1-2.361.787 3.948 3.948 0 0 1-3.944-3.944 3.948 3.948 0 0 1 3.943-3.943" stroke="#fff" stroke-width="2" stroke-miterlimit="10" stroke-linecap="round" stroke-linejoin="round"/></svg>