<svg width="51" height="51" fill="none" xmlns="http://www.w3.org/2000/svg"><path d="M17.167.5h16.666c9.2.033 16.634 7.467 16.667 16.667v16.666c-.033 9.2-7.467 16.634-16.667 16.667H17.167C7.967 50.467.533 43.033.5 33.833V17.167C.533 7.967 7.967.533 17.167.5z" fill="#F4F4F4"/><path d="M20.926 29.09l-.441 6.203c.631 0 .904-.27 1.232-.596l2.958-2.828 6.13 4.49c1.124.626 1.916.296 2.22-1.035l4.023-18.853.001-.002c.357-1.661-.6-2.311-1.696-1.904l-23.65 9.055c-1.614.627-1.59 1.526-.275 1.934l6.047 1.88 14.044-8.787c.661-.438 1.262-.196.768.242L20.927 29.09z" fill="#039BE5"/></svg>