<svg width="51" height="51" fill="none" xmlns="http://www.w3.org/2000/svg"><path d="M17.167.5h16.666c9.2.033 16.634 7.467 16.667 16.667v16.666c-.033 9.2-7.467 16.634-16.667 16.667H17.167C7.967 50.467.533 43.033.5 33.833V17.167C.533 7.967 7.967.533 17.167.5z" fill="#F4F4F4"/><path d="M38.189 14.275c-.803-.74-4.045-3.094-11.268-3.126 0 0-8.517-.513-12.669 3.295-2.31 2.312-3.124 5.694-3.21 9.888-.085 4.193-.196 12.052 7.38 14.183h.006l-.004 3.252s-.049 1.316.818 1.585c1.049.326 1.664-.675 2.665-1.754a85.59 85.59 0 0 0 1.88-2.126c5.181.436 9.166-.56 9.618-.708 1.046-.34 6.966-1.098 7.929-8.956.993-8.1-.481-13.223-3.145-15.533zm.878 14.952c-.813 6.561-5.614 6.974-6.5 7.258-.376.12-3.876.992-8.277.704 0 0-3.279 3.956-4.303 4.985-.16.16-.348.226-.474.194-.176-.043-.224-.252-.223-.557l.029-5.404s-.004 0 0 0c-6.409-1.779-6.035-8.468-5.962-11.97.072-3.503.73-6.373 2.685-8.303 3.512-3.18 10.746-2.705 10.746-2.705 6.11.027 9.037 1.866 9.716 2.483 2.254 1.93 3.402 6.547 2.563 13.313v.002z" fill="#7360F2"/><path fill-rule="evenodd" clip-rule="evenodd" d="M27.044 21.603a.408.408 0 0 1 .43-.387c.842.044 1.543.3 2.043.816.497.514.741 1.233.784 2.096a.408.408 0 1 1-.816.04c-.037-.738-.24-1.241-.555-1.568-.315-.325-.794-.531-1.5-.568a.409.409 0 0 1-.386-.429z" fill="#7360F2"/><path fill-rule="evenodd" clip-rule="evenodd" d="M26.423 19.401a.408.408 0 0 1 .437-.377c1.715.125 3.096.711 4.102 1.809.995 1.087 1.467 2.44 1.433 4.025a.408.408 0 0 1-.817-.017c.03-1.4-.38-2.54-1.219-3.456-.835-.912-2.003-1.433-3.559-1.547a.408.408 0 0 1-.377-.437z" fill="#7360F2"/><path fill-rule="evenodd" clip-rule="evenodd" d="M25.703 17.31a.408.408 0 0 1 .412-.406c2.37.017 4.374.806 5.982 2.374 1.623 1.582 2.425 3.734 2.445 6.408a.408.408 0 1 1-.817.006c-.019-2.505-.764-4.431-2.198-5.829-1.447-1.41-3.244-2.127-5.418-2.142a.408.408 0 0 1-.406-.411z" fill="#7360F2"/><path d="M27.531 29.618s.574.048.883-.332l.603-.759c.29-.376.992-.616 1.68-.233.514.294 1.014.613 1.497.957.456.335 1.39 1.114 1.393 1.114.444.376.547.927.244 1.508l-.002.012a6.289 6.289 0 0 1-1.255 1.545c-.005.003-.005.006-.01.009-.433.361-.858.566-1.274.616a.834.834 0 0 1-.186.011 1.694 1.694 0 0 1-.542-.083l-.014-.02c-.642-.181-1.715-.635-3.501-1.62a20.857 20.857 0 0 1-2.943-1.944 15.423 15.423 0 0 1-1.323-1.173l-.044-.045-.045-.044-.044-.045c-.016-.014-.03-.03-.045-.044a15.41 15.41 0 0 1-1.174-1.324 20.875 20.875 0 0 1-1.943-2.941c-.986-1.787-1.44-2.859-1.62-3.502l-.02-.014a1.697 1.697 0 0 1-.083-.542.817.817 0 0 1 .011-.186c.052-.416.258-.841.617-1.275.003-.005.006-.005.009-.01.445-.498.966-.922 1.544-1.255l.012-.003c.582-.302 1.133-.2 1.508.243.003.003.78.936 1.115 1.392.343.484.662.984.956 1.5.383.686.143 1.389-.233 1.679l-.758.603c-.383.309-.333.883-.333.883s1.123 4.25 5.32 5.322z" fill="#7360F2"/></svg>