<svg width="24" height="27" fill="none" xmlns="http://www.w3.org/2000/svg"><path fill-rule="evenodd" clip-rule="evenodd" d="M21.29 3.348C20.663 2.771 18.12.935 12.46.91c0 0-6.675-.4-9.93 2.57C.72 5.283.083 7.92.016 11.192c-.067 3.271-.154 9.401 5.783 11.063h.006L5.8 24.792s-.038 1.026.641 1.236c.686.212 1.136-.297 1.722-.96.116-.131.237-.269.367-.408.43-.462 1.025-1.14 1.474-1.659 4.06.34 7.183-.437 7.538-.552.073-.023.177-.05.305-.082 1.312-.332 5.222-1.321 5.909-6.904.779-6.317-.377-10.314-2.465-12.115zm.689 11.662c-.573 4.609-3.681 5.328-4.801 5.588a4.31 4.31 0 0 0-.293.073c-.295.095-3.038.774-6.487.55 0 0-2.57 3.086-3.373 3.888-.125.126-.273.176-.37.151-.14-.033-.177-.196-.176-.434.003-.34.022-4.215.022-4.215-4.856-1.342-4.743-6.265-4.679-9.059l.007-.278c.057-2.732.572-4.97 2.104-6.476 2.753-2.48 8.423-2.11 8.423-2.11 4.788.02 7.083 1.456 7.615 1.936 1.766 1.506 2.666 5.108 2.008 10.385v.001zm-9.42-5.945a.32.32 0 0 1 .335-.302c.661.034 1.21.233 1.602.636.39.401.581.962.615 1.635a.32.32 0 1 1-.64.031c-.028-.575-.187-.968-.435-1.223-.246-.253-.622-.414-1.175-.443a.32.32 0 0 1-.303-.334zm-.144-2.01a.319.319 0 0 0-.047.636c1.219.088 2.134.494 2.79 1.205.656.714.978 1.605.955 2.696a.32.32 0 1 0 .64.014c.027-1.238-.344-2.292-1.123-3.14-.789-.856-1.87-1.314-3.215-1.411zm-.908-1.337a.32.32 0 0 1 .322-.317c1.858.013 3.428.629 4.69 1.852 1.27 1.233 1.9 2.913 1.915 4.998a.32.32 0 0 1-.64.005c-.015-1.954-.6-3.457-1.723-4.547-1.134-1.1-2.542-1.659-4.246-1.67a.32.32 0 0 1-.318-.321zm2.125 9.34c-.242.298-.692.26-.692.26-3.29-.836-4.17-4.151-4.17-4.151s-.039-.448.261-.69l.594-.47c.295-.225.483-.774.183-1.31a13.85 13.85 0 0 0-.75-1.169 31.678 31.678 0 0 0-.873-1.086c-.294-.345-.726-.425-1.182-.189l-.005.001a4.914 4.914 0 0 0-1.222.988c-.281.338-.442.67-.483.995a.634.634 0 0 0-.009.145c-.001.143.02.286.065.422l.016.01c.142.503.497 1.339 1.27 2.733.441.806.95 1.573 1.523 2.294a12.052 12.052 0 0 0 .954 1.067l.035.035.035.034.035.035c.328.325.674.63 1.037.916.725.569 1.496 1.076 2.306 1.515 1.4.77 2.241 1.123 2.745 1.264l.01.016a1.336 1.336 0 0 0 .57.056c.328-.039.66-.199 1-.48.003-.003.003-.005.008-.007.39-.348.722-.754.983-1.205l.002-.01c.237-.453.157-.883-.192-1.176l-.077-.063c-.197-.162-.727-.596-1.014-.806-.379-.268-.77-.518-1.174-.746-.539-.3-1.088-.112-1.316.181l-.473.592z" fill="#7360F2"/></svg>