<svg width="21" height="22" fill="none" xmlns="http://www.w3.org/2000/svg"><path d="M21 11.121c0 5.65-4.615 10.23-10.31 10.23-1.807 0-3.505-.462-4.982-1.273L0 21.892l1.86-5.489a10.122 10.122 0 0 1-1.478-5.282C.382 5.471 4.997.891 10.69.891 16.385.892 21 5.472 21 11.122zm-10.31-8.6c-4.779 0-8.667 3.858-8.667 8.6a8.51 8.51 0 0 0 1.652 5.042l-1.083 3.195 3.33-1.059a8.661 8.661 0 0 0 4.77 1.423c4.778 0 8.666-3.858 8.666-8.6 0-4.743-3.888-8.601-8.667-8.601zm5.207 10.956c-.064-.104-.232-.167-.485-.293-.253-.125-1.495-.732-1.726-.815-.232-.083-.401-.126-.57.125-.167.251-.652.816-.8.983-.147.168-.294.189-.547.063-.253-.125-1.067-.39-2.032-1.244-.751-.665-1.258-1.485-1.406-1.736-.147-.251-.015-.387.111-.511.114-.113.253-.293.38-.44.126-.146.168-.25.252-.418.084-.167.042-.314-.021-.44-.063-.125-.57-1.359-.78-1.86-.21-.502-.42-.419-.568-.419-.147 0-.316-.02-.484-.02a.933.933 0 0 0-.675.313c-.231.25-.884.858-.884 2.091 0 1.234.905 2.426 1.032 2.593.126.167 1.748 2.782 4.317 3.786 2.569 1.003 2.569.668 3.032.626.463-.041 1.495-.606 1.707-1.191.21-.586.21-1.088.147-1.193z" fill="#72CF4E"/></svg>