<svg width="51" height="50" fill="none" xmlns="http://www.w3.org/2000/svg"><path d="M17.167 0h16.666c9.2.033 16.634 7.467 16.667 16.667v16.666c-.033 9.2-7.467 16.634-16.667 16.667H17.167C7.967 49.967.533 42.533.5 33.333V16.667C.533 7.467 7.967.033 17.167 0z" fill="#F4F4F4"/><path d="M38.833 24.78c0 7.244-5.917 13.116-13.217 13.116a13.24 13.24 0 0 1-6.389-1.632l-7.317 2.325 2.385-7.037a12.976 12.976 0 0 1-1.896-6.771c0-7.243 5.917-13.115 13.217-13.115 7.3 0 13.217 5.872 13.217 13.115zM25.616 13.756c-6.128 0-11.112 4.946-11.112 11.026 0 2.412.786 4.647 2.117 6.464l-1.389 4.095 4.27-1.357a11.104 11.104 0 0 0 6.114 1.824c6.127 0 11.112-4.946 11.112-11.026s-4.985-11.026-11.112-11.026zM32.29 27.8c-.081-.133-.297-.214-.62-.375-.325-.16-1.919-.938-2.215-1.045-.297-.107-.513-.161-.729.16-.216.322-.837 1.046-1.026 1.26-.189.215-.378.242-.702.081-.324-.16-1.367-.5-2.605-1.595-.963-.852-1.613-1.904-1.802-2.226-.19-.322-.02-.495.142-.655.146-.144.324-.376.486-.563.162-.188.216-.322.324-.537.108-.214.054-.402-.027-.563-.081-.16-.73-1.742-1-2.386-.27-.643-.539-.536-.728-.536-.189 0-.405-.027-.621-.027-.216 0-.568.08-.865.402-.296.322-1.133 1.1-1.133 2.681 0 1.582 1.16 3.11 1.323 3.324.162.215 2.24 3.566 5.534 4.854 3.294 1.286 3.294.857 3.888.803.594-.053 1.916-.777 2.187-1.528.27-.751.27-1.395.19-1.529z" fill="#72CF4E"/></svg>