<svg width="196" height="55" viewBox="0 0 196 55" fill="none" xmlns="http://www.w3.org/2000/svg">
<path d="M0 10.4976C5.54346 9.5718 9.68606 9.1137 12.4272 9.1137C15.012 9.1137 17.1442 9.4521 18.8324 10.1392C20.5207 10.8261 21.8609 11.9212 22.853 13.4247C23.8364 14.9281 24.5587 16.8993 25.0113 19.3385C25.2549 21.469 25.3768 22.9624 25.3768 23.8186C25.3768 26.4669 24.9241 28.8762 24.0105 31.0467C23.0966 33.2169 21.8609 34.9095 20.3032 36.1341C18.7367 37.3586 17.0397 37.9758 15.1947 37.9758C12.4361 37.9758 9.70328 36.6021 6.99685 33.8442V48.8509H0V10.4976ZM6.99685 15.8738V25.8995C7.03164 27.094 7.3451 28.1894 7.93687 29.165C8.53721 30.1505 9.28563 30.9171 10.1907 31.4746C11.0957 32.0223 12.0357 32.301 13.0017 32.301C14.5246 32.301 15.8212 31.5544 16.8831 30.0609C17.9534 28.5675 18.4844 26.3674 18.4844 23.4701V21.0709C18.2755 18.761 17.5182 17.0785 16.2303 16.0232C14.9337 14.9678 13.4455 14.4401 11.7485 14.4401C10.8174 14.4401 9.9121 14.5796 9.03318 14.8582C8.15426 15.1371 7.4756 15.4656 6.99685 15.8738ZM50.2314 30.7976L49.4481 36.4725C48.7868 36.801 47.6555 37.1396 46.0629 37.4681C44.4615 37.8068 42.8603 37.9758 41.2591 37.9758C37.4124 37.9758 34.1229 36.8608 31.3728 34.6407C28.6316 32.4204 27.2565 28.6373 27.2565 23.2811C27.2565 23.0422 27.2826 22.6139 27.3349 22.0167C27.387 21.4093 27.4131 20.9613 27.4131 20.6526C27.6655 18.1637 28.414 16.033 29.6672 14.2609C30.9116 12.4888 32.4606 11.1447 34.3056 10.2387C36.1506 9.3327 38.0825 8.8847 40.1102 8.8847H41.0502C42.4513 8.9644 43.8088 9.3028 45.1143 9.9102C46.4196 10.5075 47.5683 11.3538 48.5692 12.439C49.5786 13.5341 50.3706 14.8782 50.9623 16.481C51.5541 18.084 51.8502 19.8761 51.8502 21.8474C51.8502 22.9225 51.8152 23.7192 51.7457 24.2367H34.0009C34.0009 24.3066 33.9922 24.3961 33.9748 24.5255C33.9488 24.6449 33.9401 24.7247 33.9401 24.7743C33.9401 27.6217 34.7146 29.7025 36.2636 31.0067C37.804 32.3111 39.7448 32.9582 42.0858 32.9582C44.9402 32.9582 47.6555 32.2412 50.2314 30.7976ZM45.1665 20.2345V19.886C45.1665 18.1536 44.6617 16.7399 43.6609 15.6547C42.6601 14.5695 41.5115 14.022 40.206 14.022H39.9537C39.0136 14.022 38.1175 14.2609 37.2733 14.7289C36.4291 15.1968 35.7154 15.9037 35.1323 16.8295C34.5494 17.7555 34.1751 18.8903 34.0009 20.2345H45.1665ZM69.0291 9.6513H76.7568L67.9238 21.5386L78.2711 37.3188H70.5866L61.0312 21.5386L69.0291 9.6513ZM60.6657 -1V37.3188H53.721V-1H60.6657ZM80.1335 37.3188L89.6891 9.6513H97.0078L106.659 37.3188H99.7753L93.5966 16.71L87.0174 37.3188H80.1335ZM111.741 11.0453C115.153 9.8803 118.564 9.3028 121.958 9.3028C124.865 9.3028 127.267 9.8505 129.164 10.9456C131.061 12.0406 132.053 13.8229 132.149 16.2919V37.3287H125.57V23.2811C124.787 23.8186 123.821 24.2964 122.672 24.6948C121.515 25.103 120.34 25.5211 119.139 25.9691C117.938 26.4072 116.998 26.9647 116.328 27.6417C115.658 28.3088 115.275 29.2047 115.179 30.3297C115.275 31.4946 115.684 32.3308 116.424 32.8387C117.154 33.3563 118.051 33.6152 119.095 33.6152C119.861 33.6152 120.661 33.4859 121.506 33.227C122.359 32.9681 122.942 32.739 123.272 32.5399L122.533 37.3287C120.418 37.9161 118.634 38.2147 117.172 38.2147C114.344 38.2147 112.176 37.3786 110.662 35.7158C109.139 34.0434 108.382 32.1119 108.382 29.9116C108.382 29.3541 108.461 28.7768 108.6 28.1792C108.991 26.885 109.566 25.8099 110.323 24.9537C111.08 24.0973 111.976 23.4104 113.003 22.8926C114.039 22.375 115.118 21.9468 116.241 21.6183C117.372 21.2898 119.086 20.8219 121.393 20.2345C123.96 19.6372 125.248 18.5818 125.248 17.0684C125.248 16.4511 125.022 15.844 124.56 15.2464C124.108 14.6393 123.551 14.2511 122.907 14.0818C121.958 13.9623 121.305 13.9026 120.931 13.9026C118.164 13.9026 114.979 14.699 111.367 16.2919L111.741 11.0453ZM148.849 37.3188L144.106 16.4114L139.929 37.3188H134.177L139.929 9.6513H148.023L152.4 29.4935L156.586 9.6513H164.784L170.414 37.3188H164.679L160.598 16.4114L155.846 37.3188H148.849ZM175.592 11.0453C179.004 9.8803 182.415 9.3028 185.809 9.3028C188.716 9.3028 191.118 9.8505 193.015 10.9456C194.912 12.0406 196 13.8216 196 16.2919V48.8509H189.421V23.2811C188.638 23.8186 187.672 24.2964 186.523 24.6948C185.366 25.103 184.191 25.5211 182.99 25.9691C181.789 26.4072 180.849 26.9647 180.179 27.6417C179.509 28.3088 179.126 29.2047 179.03 30.3297C179.126 31.4946 179.535 32.3308 180.275 32.8387C181.006 33.3563 181.902 33.6152 182.946 33.6152C183.712 33.6152 184.513 33.4859 185.357 33.227C186.21 32.9681 186.793 32.739 187.123 32.5399L186.384 37.3287C184.269 37.9161 182.485 38.2147 181.023 38.2147C178.195 38.2147 176.028 37.3786 174.513 35.7158C172.99 34.0434 172.233 32.1119 172.233 29.9116C172.233 29.3541 172.312 28.7768 172.451 28.1792C172.843 26.885 173.417 25.8099 174.174 24.9537C174.931 24.0973 175.828 23.4104 176.854 22.8926C177.89 22.375 178.969 21.9468 180.092 21.6183C181.223 21.2898 182.937 20.8219 185.244 20.2345C187.811 19.6372 189.099 18.5818 189.099 17.0684C189.099 16.4511 188.873 15.844 188.411 15.2464C187.959 14.6393 187.402 14.2511 186.758 14.0818C185.809 13.9623 185.157 13.9026 184.782 13.9026C182.015 13.9026 178.83 14.699 175.218 16.2919L175.592 11.0453Z" fill="url(#paint0_linear_39_555)"/>
<path fill-rule="evenodd" clip-rule="evenodd" d="M25.4267 50.8759C25.4267 52.6588 24.5916 53.5501 22.919 53.5501H16.6453V44.5695H24.6408V46.0526H18.0514V48.2018H22.919C24.5916 48.2018 25.4267 49.0932 25.4267 50.8759ZM24.0206 50.8759C24.0206 50.0818 23.6535 49.6849 22.919 49.6849H18.0514V52.0825H22.9055C23.6488 52.0825 24.0206 51.6803 24.0206 50.8759ZM41.6129 53.5501H34.0898V44.5695H41.6129V46.0526H35.4959V48.271H41.4069V49.7386H35.4959V52.0825H41.6129V53.5501ZM59.1649 50.9734C59.1649 51.8031 59.0082 52.4153 58.6925 52.8098C58.3767 53.2019 57.8574 53.4528 57.1296 53.5656C56.6707 53.6397 55.8737 53.6756 54.7429 53.6756C52.9985 53.6756 51.8611 53.527 51.3283 53.2325C50.6969 52.8816 50.3834 52.1412 50.3834 51.0144H51.7514C51.7514 51.6343 51.9822 52.0081 52.4434 52.1362C52.58 52.1747 53.0478 52.1925 53.8471 52.1925H54.7429C55.7773 52.1925 56.3863 52.1798 56.5722 52.1516C57.3715 52.003 57.7723 51.6112 57.7723 50.9734C57.7723 50.4739 57.6178 50.1281 57.3111 49.9332C57.0848 49.8027 56.7311 49.7386 56.2452 49.7386H53.012V48.271H56.2452C56.7469 48.271 57.0982 48.2146 57.2999 48.1045C57.6155 47.9379 57.7723 47.605 57.7723 47.1055C57.7723 46.4779 57.3715 46.0938 56.5722 45.9553C56.4356 45.9375 55.8265 45.9271 54.7429 45.9271C53.1935 45.9271 52.7211 45.9194 53.3254 45.9016C52.8173 45.9194 52.4455 46.0297 52.2127 46.232C51.906 46.5112 51.7514 46.9724 51.7514 47.6178H50.3588C50.3588 46.5752 50.5603 45.8016 50.9655 45.3048C51.2948 44.8975 51.8209 44.6389 52.5396 44.5262C52.8867 44.4722 53.6211 44.444 54.7429 44.444C55.681 44.444 56.3549 44.4773 56.7668 44.5413C58.3656 44.7822 59.1649 45.6352 59.1649 47.1055C59.1649 48.1301 58.9432 48.7883 58.4999 49.0727C58.9432 49.3596 59.1649 49.9922 59.1649 50.9734ZM89.9809 46.0526H84.1796V53.5501H82.7735V44.5695H89.9809V46.0526ZM106.978 47.4947C106.978 48.3914 106.787 49.0932 106.409 49.6004C106.004 50.1358 105.419 50.4046 104.651 50.4046H99.7701V53.5501H98.3775V44.5695H104.689C105.455 44.5695 106.037 44.8412 106.433 45.3867C106.796 45.8965 106.978 46.5983 106.978 47.4947ZM105.571 47.4947C105.571 46.5343 105.26 46.0526 104.64 46.0526H99.7701V48.9215H104.651C105.265 48.9215 105.571 48.4451 105.571 47.4947ZM125.515 53.5501H123.929L123.043 51.6239H117.799L116.914 53.5501H115.327L119.458 44.5695H121.384L125.515 53.5501ZM122.411 50.169L120.488 45.9271H120.365L118.442 50.169H122.411ZM142.823 53.5501H141.416V49.7386H135.181V53.5501H133.775V44.5695H135.181V48.271H141.416V44.5695H142.823V53.5501ZM161.212 53.5501H159.819V46.2474L153.557 53.5501H151.642V44.5695H153.048V51.9493L159.36 44.5695H161.212V53.5501ZM179.876 55.1433H178.484C178.484 54.6156 178.48 54.311 178.473 54.2288C178.424 53.7756 178.294 53.5501 178.083 53.5501H170.307V44.5695H171.7V52.0825H177.951V44.5695H179.344V52.0825H179.876V55.1433Z" fill="#1B1918"/>
<defs>
<linearGradient id="paint0_linear_39_555" x1="220" y1="23.9254" x2="-24.9254" y2="23.9254" gradientUnits="userSpaceOnUse">
<stop stop-color="white"/>
<stop offset="0.06" stop-color="#472881"/>
<stop offset="0.25" stop-color="#102A83"/>
<stop offset="0.35" stop-color="#008BD0"/>
<stop offset="0.5" stop-color="#009035"/>
<stop offset="0.65" stop-color="#FFCB00"/>
<stop offset="0.75" stop-color="#F07C00"/>
<stop offset="0.91" stop-color="#E30016"/>
<stop offset="1" stop-color="white"/>
</linearGradient>
</defs>
</svg>
