<svg width="194" height="193" viewBox="0 0 194 193" fill="none" xmlns="http://www.w3.org/2000/svg">
<path d="M52.862 0.411929C52.7394 0.274188 52.6187 0.136864 52.5 0C52.6224 0.13636 52.743 0.273673 52.862 0.411929C67.372 16.7122 109.159 38.8715 163.5 0C131.1 36.4 134.333 57.8333 140 64C143.667 69.3333 159.8 78.8 195 74C174.5 97.5 160.5 140.5 195 150C223.8 169.2 233.333 183 234.5 187.5L105.5 210.5L109.5 194.5C112.167 176.833 101.8 145.2 39 160C60.5 144 107.5 68.5 0 86C52.1329 58.6923 69.7535 20.0449 52.862 0.411929Z" fill="#2921E3"/>
</svg>
