<svg width="50" height="202" viewBox="0 0 50 202" fill="none" xmlns="http://www.w3.org/2000/svg">
<path d="M-114 78.1476C-117.2 63.3476 -142 45.6476 -154 38.6476C-151.333 34.481 -143.6 22.6477 -134 8.64771C-122.4 7.04771 -97.8333 36.3143 -87 51.1476C-73.6667 31.8143 -38.1 -5.35237 -2.5 0.647635C33.1 6.64763 6.66667 51.8143 -11 73.6476L24.5 54.6476L44.5 82.1476L14.5 114.148L50 99.6476V142.648L38 155.148L50 150.148V201.648H-106L-78 182.148L-90 162.148L-102 169.648L-124 139.148L-102 116.648L-127 90.1476C-126.5 89.6476 -123.2 86.5476 -114 78.1476Z" fill="#FFCC96"/>
</svg>
