<svg width="204" height="202" viewBox="0 0 204 202" fill="none" xmlns="http://www.w3.org/2000/svg">
<path d="M40 78.1476C36.8 63.3476 12 45.6476 0 38.6476C2.66667 34.481 10.4 22.6477 20 8.64771C31.6 7.04771 56.1667 36.3143 67 51.1476C80.3333 31.8143 115.9 -5.35237 151.5 0.647635C187.1 6.64763 160.667 51.8143 143 73.6476L178.5 54.6476L198.5 82.1476L168.5 114.148L204 99.6476V142.648L192 155.148L204 150.148V201.648H48L76 182.148L64 162.148L52 169.648L30 139.148L52 116.648L27 90.1476C27.5 89.6476 30.8 86.5476 40 78.1476Z" fill="#D2F154"/>
</svg>
