<svg xmlns="http://www.w3.org/2000/svg" height="92.765" width="558.032"><defs><clipPath id="a" clipPathUnits="userSpaceOnUse"><path d="M0 0h4243.7v3705H0z"/></clipPath></defs><g clip-path="url(#a)" transform="matrix(.13333 0 0 -.13333 0 494)"><path d="M204.438 3391.46c-1.883 3.14-4.461 4.4-1.602 9.01 2.926 4.69 2.086 6.29 1.602 10.49-.344 4.15-2.86 10.09-4.461 12.04 0 0-3.727-15.84-4.914-22.3-1.325-6.52-1.672-6.69-.844-9.54.844-2.87 2.445-11.18 1.816-12.31l7.43 7.56s2.887 2.02.973 5.05zm34.578-18.67c-4.879-1.51-12.586-9.23-18.825-14.96-6.519-5.79-15.191-11.33-15.191-11.33s-3.004-4.6-3.004-8.33c0-3.81-1.187-8.68 0-13.52 1.254-4.92 5.367-15.86 4.356-20.57-1.082-4.64-6.618-3.58-6.618-3.58l1.075-2.86c.984-2.86 6.062-43.5 5.925-46.53-.171-3.01 2.274-14.26 1.848-19.11-.375-4.84-.375-27.84-3.312-35.65-2.86-7.78 3.941-38.41 1.293-46.64-2.645-8.29 1.644-12.96 1.816-21.89.203-8.78.629-16.47-1.508-21.61-1.949-5.02-1.871-35.58-1.601-37.65.21-1.87-1.176-12.53-1.176-15.04 0-2.55.277-8.93.906-11.57.898-2.77.629-7.77 1.871-9.41 1.336-1.6 2.762-2.63 9.352-5.24 6.547-2.43 9.859-5.92 10.07-9.13.137-3.27-2.441-4.35-17.914-4.69-15.414-.35-34.332 2.88-34.332 2.88l-.176-2.31c-4.566-.23-21.226.64-21.226.64-1.188 2.38-1.536 16.52-.559 18.81 1.043 2.34-.418 5.68-2.02 10.79-1.601 5.01-3.699 11.74-2.683 14.42 1.082 2.69.762 7.98.383 13.39-.383 5.68 1.257 21.71 4.32 29.86 3.137 8.09 6.129 40.02 5.957 46.08-.203 6.13 2.445 34.46 2.445 35.87 0 1.43 1.668 11.91-.496 15.27-2.297 3.47-2.992 9.79-4.769 15.86-1.883 6.19-5.024 15.36-10.567 21.29-5.504 5.96-7.976 16.06-8.605 13.35-.559-2.72-7-17.26-8.055-21.86-.973-4.46-1.738-28.44-2.855-34.88-.903-6.46-15.196-30.54-16.235-32.28-.91-1.82-5.894-17.5-6.308-22.87-.387-5.37-18.754-51.3-19.875-55.66-1.325-4.35-9.582-24.58-9.098-26.66.422-2.17 3.734-3.98 2.86-5.93-.833-1.99-2.715-7.03-2.02-9.76.629-2.72 5.957-15.89 5.957-15.89 0-9.2-9.094-11.65-9.094-11.65-12.96-1.58-29.555 10.22-32.414 17.23-2.789 7.03-4.527 14.64-4.918 18.08-.41 3.42-3.273 11.34-6.2 17.4-2.894 6.2-2.269 9.76-1.573 13 .562 3.25 1.226 5.82.32 10.14-.8 4.33 14.188 38.13 15.23 41.8a8343.43 8343.43 0 0 0 4.914 16.58c0 3.6 2.231 12.51 4.532 14.64 2.23 1.92 11.261 15.23 13.242 18.89 2.164 3.56 3.695 6.1.492 11.12-3.273 4.98-1.39 24.74.278 27.77 1.605 3.04.761 6.67-.493 9.32-1.175 2.71-.828 21.12 1.043 29.76 1.817 8.58.844 9.21 0 13.52-.828 4.25 0 34.1 0 34.1l-3.476 3.55c-14.157 13.83-27.746 11.55-32.344 17.11-4.434 5.63 3.207 25.07 6.164 31.18 2.79 6.13 8.469 29.43 11.047 33.39 2.375 3.91 7.293 21.07 9.793 25.19 2.441 4.1 6.598 20.85 9.66 27.16 3.066 6.39 1.465 8.4.414 14.27-1.047 5.99-7.766 11.34-7.633 18.25.282 6.81-2.82 6.95-7 10.59-4.113 3.58-31.754 33.67-33.425 38.01-1.641 4.26-8.922 11.6-14.43 22.41-5.543 10.77-5.13 32.19-3.418 37.39 1.605 5.22 5.719 38.75 5.719 38.75 0 3.26 12.824 1 12.824 1 .347 1.91 9.687 13.41 9.898 16.7.242 3.2 3.102 10.6 1.149 12.54-2.094 2.04-2.094 16.03-2.094 18.61 0 2.45-1.043 6.31-1.18 8.84-.316 2.5-1.922 7.19-1.922 7.19-.828 6.31 4.047 5.03 4.047 5.03 1.711.22 3.383-7 4.012-9.57.625-2.52 1.184-6.07 1.184-6.07s.832.1.55 1.73c-.132 1.69-.761 8.52-.761 10.16 0 1.6 1.043 6.3 1.043 6.3-.63 6.63 3.097 6.41 3.097 6.41 2.864 0 3.074-4.26 3.074-4.95l.133-7.76.32-5.26.31-4.61s1.468 6.22.945 8.42c-.665 2.14 1.46 7.18 1.46 7.18l.211 7.9c0 3.31 3.422 2.38 3.422 2.38 3.059.4 2.922-5.94 2.922-6.85l-.414-6.73c0-.69-.316-2.23-.316-3.88 0-1.66.453-8.34.453-8.34l.867-.08c-.453 5.17 1.043 15.46 1.043 15.46.531 6.48 4.887 5.03 4.887 5.03 2.859-.37 2.234-10.21 2.234-10.21s-.844-7.28-1.258-9.32c-.347-1.9 1.711-13.25 3.102-14.88 1.469-1.71 4.742-2.7 6.062 1.83 1.535 4.51 10.559 5.58 10.559 5.58 5.129 0 3.523-3.65 3.523-3.65-1.949-.37-6.101-5.75-8.191-7.94-2.027-2.14-3.55-7.49-5.89-8.48-2.165-.79-3.204-1.98-4.594-3.78-1.47-1.77-6.868-5.11-6.868-5.11-4.847-3.16-12.902-21.03-12.625-23.92.524-2.88-1.91-32.81-3.687-37.77-1.469-5.05 0-12.2 2.086-13.95 2.125-1.76 4.984-14.61 4.984-14.61s4.043-5.71 6.867-8.12c2.79-2.6 19.45-17.57 22.375-19.33 2.793-1.74 8.54-.71 9.727 1.05 1.293 1.86 15.336-1.76 18.367-2.44 2.793-.77 14.883-3.29 14.883-3.29l.484 3.29c-.484 4.62-4.386 8.22-4.386 8.22s-2.055 1.37-6.172 4.94c-4.114 3.57-1.602 11.38-1.602 11.38-1.254 6.4 1.602 15.35 1.602 15.35 6.172 20.36 25.265 20.74 25.265 20.74 3.981 3.14 14.508.3 14.508.3 16.727 0 21.293-23.2 21.293-23.2v-5.33c0-1.73 1.606-7.86 1.606-7.86 1.39-7.13-1.606-14.74-1.922-15.86-.203-1.05-1.809-2.89-2.782-6.24-1.05-3.45-3.941-4.88-3.941-4.88-1.672-4.33 11.223-12.3 16.594-13.15 5.398-.84 26.515-10.5 28.789-12.07 2.23-1.65 10.273-3.27 10.273-3.27 5.09.91 6.801-15.96 7.36-20.03.695-3.92 3.062-8.02 2.859-13.29-.145-5.21.832-6.99 2.301-9.87 1.496-2.88 9.269-28.45 9.269-32.31 0-3.74 3.274-5.41 5.371-18.57 2.02-13.16-2.445-25.41-7.425-26.78M4071.21 3498.75s-6.21 1.46-5.29 5.44c1.04 3.87-4 3.87-4.8.54 0 0-7.29-3.57-5.98 3.06 0 0 5.02 6.29 3.36 8.59 0 0-1.91 5-3.36-.31 0 0-6.24-1.68-2.95 7.32 0 0-5.68-1.3 1.04 2.69 0 0-12.13-.74 4.7 12.28 0 0 1.66 2.97 0 6.6 0 0-1.79 12.92 3.57 12.92 0 0 2.34 15.55 7.44 15.55 0 0 6.61 21.94 26.5 22.6 0 0 8.37-.37 8.37-2.01 0 0 18.03-3.34 18.03-8.95 0 0 14.75-11.92 13.17-18.27 0 0 5.3-5.96 3.23-12.91 0 0 6-3.57 8.78-2.64 0 0-4.57-.69-6.71-.38 0 0 .55-9.94 3.52-10.16 0 0 9.44-9.08 2.51-9.08 0 0 3.02-8.6-2.8-7.25 0 0 .99-9.99-3-9.99 0 0 .81-10.6-1.3-11.57l1.07-2.34 16.66-5.99s15.3-4.94 23.08-38.82l-2.62-4.27s4.38-48.76 3.3-52.42c0 0-1.21-12.67-.26-18.53 0 0 2.6-28.92.58-36.25 0 0-2.89-30.5-1.91-32.74 0 0-.39-11.93.67-15.32l.66-17.28s.58-9.95-4.33-12.91c0 0-1.72-4.71-4.44-3.69 0 0 3.31-23.13 1.97-31.79 0 0 3.08-26.48 1.34-30.92l.89-15.54s2.85-10.06 4.15-10.06c0 0 6.4-4.52-15.11-5.17 0 0 7.71-20.6 6.1-39.48 0 0 3.38 1.91 3.38-5.05 0 0 7.73-25.48 9.07-30.46 0 0 6.06-32.21-4.35-41.18 0 0-28.44-25.14-26.83 2.73 0 0 .71 29.87 2.09 32.15l1.82 5.66s1.13 4.55-.44 6.34c0 0-3.81 4.25-1.77 11.51 0 0-6.71 20.21-14 22.91 0 0-13.77 7.37-17.41 27.81 0 0-15.81-1.9-17.77-.27 0 0 8.67-37.2 3.34-45.48 0 0 2.57-60.63 3.23-65.63 0 0 9.82-23.6 2.42-26.51 0 0-11.75-1.98-13.51-4 0 0-31.01-1.74-33.09 3.31 0 0-9.29.69 4.95 9.57 0 0 10.16 3.46 9.78 7.98 0 0 1.33 6 9.09 10.63 0 0 2.64 10.63.77 16.57 0 0-12.25 34.19-10.86 37.75 0 0-15.73 48.92-9.74 59.76l-.23 6.34s-9.86.69-9.86 6.61c0 0-2.21 32.89-6.91 36.85 0 0-10.78 41.14-7.08 50.75 0 0-4.65-3.34-4.65-1.63 0 0-6.06-5.93-7.68-3.31 0 0-8.73-20.93-6.69-2.01 0 0-6.1 1.32-8.1 4.98l-1.7 1.06s-9.69-10.03-7.39 2.65c0 0 1.08 9.84 3.08 11.55 0 0-5.76 1.33-1.7 7.29 0 0-1 13 9.16 14.59 0 0 3.33-1.37 2.53 8.59 0 0-1.26 30.84-5.27 34.8 0 0-6.42 18.02-6.42 25.92 0 0-4.06 18.64-2.38 21.9 0 0-8.08 20.61-8.31 24.56l-4.38 4.97s-3.3-18.95-5.38-20.26c0 0 8.67-23.23 7.38-26.5 0 0 4.97-50.72-1.28-51.41 0 0 5.72-58.05-9.73-74.35 0 0-14.64-44.48-13.73-51.7 0 0 1.68-43.84-2.34-46.11 0 0 7.33-12.32 7.33-15.64 0 0 26.04-13.92 22.74-24.89l-1.85-5.57s3-4.72-.76-9.96l-5.38-9.62s8.67-19.94-1.1-37.56c0 0-2.53-9.62-10.54-11.59 0 0-9.82-2.01-11.48 4.37l-.91 12.23s-4.68 19.33-2.05 23.16l-6.35 6.74s-2.7-5.71-6.87-5.29l-.27-19.3s12.67-21.91 4.82-26.88c0 0 .79-7.31-3.78-8.45l-1.04-.14c-5.68-.34-25.78-2.28-29.52-.34 0 0-4.57-.61-4.57 4.29l.96 7.33s-3.34 8.23-5.02 9.96c0 0-4.23 16.29 1.11 22.21l.95 20.18s1 57.77 5.76 63.05c0 0-13.11 16.37-12.43 21.61 0 0-10.44 10.27-10.44 15.92 0 0-4.4 22.54-4.74 25.87 0 0-13.43 26.14-13.43 32.51 0 0-1.61 32.23 2.87 35.79 0 0 4.57 25.15 2.53 26.87 0 0-3.21 1.05-3.21 2.69l-.81 45.1s-.42 38.15 1.19 41.43c0 0-9.58-51.35-12.96-52.72 0 0-7.02-28.16-5-34.19 0 0 6.19-9.58 3.72-16.57v-19.14s-2.97-8.67-7.35 1.63l-.34 8.28s-3.66 3.99-2.89-6.04l-.38-3.26s4.95-2.32 3.27-5.01c0 0 10.69-4.64 3.97-6.61 0 0 4.76-5.59-4.86-4.68 0 0-11.5 7.78-12.78 12.27v.68c0 4.37-2.06 9.27-2.06 9.27s-3 19.27-.34 22.95c0 0 1.34 11.58 3.25 12.61 0 0-3.25 11.92-.14 13.53 0 0 6.97 41.18 6.09 46.79 0 0 1.15 50.46 3.21 53.39 0 0-7.01-.22-4.35 4.65 0 0 8.73 30.85 8.73 34.25 0 0 9.44 40.03 21.21 39.77 0 0 35.37 18.54 37.43 17.89 0 0-8.16 28.24-5.67 32.49 0 0 1.95 4.95.57 6.66 0 0-1.68 11.97.96 14.28 0 0-6.87 7.98-.28 14.24 0 0 8.67 14.35 14.11 13.67 0 0 5.61 8.6 13.01 3.89 0 0 12.43 1.67 14.05-1.62 0 0 11.07.7 12.49-7.01 0 0 10.97-9.22 7.67-16.63 0 0 2.68-8.55.92-12.23 0 0-5.68-7.6-3.21-8.93 0 0 5.59-4.62.57-8.95l-4.9-8.58s-2.15-3.04-3.38-3.04c0 0-3.81-9.25-3.81-13.26 0 0 .62-4.65 3.81-7.35 0 0 30.32-14.82 30.32-18.52 0 0 14.16-9.31 14.16-14 0 0 17.76-39.07 17.76-45.05l1.64-2.27s.32 25.15 2.96 25.15c0 0 11.2 19.9 17.87 16.61 0 0 14.69 5.28 14.69 6.69 0 0 1.61 2.2 1.61 5.16M3660.92 3409.68c-4.4-1.82-18.64-21.66-18.64-21.66-4.18-1.79-12.03-1.2-12.03-1.2-3.72 2.58-4.08 9.59-4.08 9.59 3.08 39.19 12.14 75.41 12.14 75.41 3.1 1.31 7.12-3.35 7.12-3.35 2.29-3.13 19.74-12.09 19.74-12.09 3.19-9.79 7.67-12.11 7.67-12.11.94-10.11-11.92-34.59-11.92-34.59zm46.48 63.07s-19.32 34.09-24.08 36.87c0 0-8.16 10.27-8.16 14.01 0 0-14.96 17.75-17.73 19.45 0 0-41.69 32.04-48.67 32.04 0 0-2.67 22.89-16.44 17.16l-2.05 3.05s6.19 4.69 6.19 6.79l6.91 14.98s10.03 27.67-14.09 52.91c0 0-8.74 6.5-11.39 6.5 0 0-5.64 2.66-13.18.68 0 0-9.59 1.98-12.31 0 0 0-6.27-3.13-8.24-2.06 0 0-10.42-.31-11.44-11.25v-3.79s-12.09-17.73-11.05-21.85c0 0 2.42-3.33 1-6.51l-4.06-9.8s-3.42-4.09 1.4-6.51c0 0 1.66-4.46.62-6.12l-.21-3.42s-1.05-6.22.87-6.22c0 0-.34-10.9 1.87-10.9 0 0-14.22-2.66-14.22-4.43 0 0-15.45 4.43-17.26 3.84 0 0-8.63 2.67-11.92 1.21l-14.84 1.79s-43.13 18.72-50.47 17.62c0 0-12 3.48-17.87 9.23 0 0-25.84 14.35-47.63 14.35 0 0-20.29 6.49-26.84 9.89 0 0-20.72 6.5-24.08 6.5 0 0-19.06 9.56-24.21 9.56 0 0-14.11 6.11-18.94 6.11 0 0-17.23 6.12-16.8 1.02 0 0-1.83-5.75 11.73-6.46l6.05-1.7s3.55-4.47 5.57-4.47l-5.57-8.21s-2.34-5.08 1.36-6.78c0 0 4.21-13.23 11.03-14 0 0 9.01 0 8.34 3.79 0 0-2 7.12 1.04 4.4 0 0 7.67-5.45 22.38-5.13 0 0 5.84.33 11-3.06 0 0 28.27-17.69 30.97-18.47 0 0 15.88-12.27 27.29-13.57 0 0 13.96-2.43 13.96-4.46 0 0 10.82-3.78 14.05-3.78 0 0 32.51-9.41 32.81-22.44 0 0 2.38-8.49 13.11-9.2 0 0 24.4-10.23 27.04-19.43 0 0 5.91-13.68 12.09-17.05 0 0 7.01-17.78 7.4-31.17 0 0 6.9-75.76 11.54-86.72l.42-.94c4.53-6.85-13.07-21.21-11.96-32.42 0 0-8.14-136.44 7.77-169.3 0 0 12.86-45.06 16.65-50.49 0 0 3.18-10.9 1.27-13.64 0 0-6.48-55.01-.62-63.93l2-1.98s-11.3-6.38-13.19-8.23c0 0-26.7-5.75-25.62-10.48 0 0-.65-13.96 20.85-14.4 0 0 25.25 2.41 30.35 3.72 0 0 17.69 2.13 23.81 1.05 0 0 27.24 1.79 27.24 8.93 0 0-.38 6.12-2.35 7.5 0 0-1.68 44.35-4.87 51.19 0 0-4.34 20.06-.3 29.03 0 0 2.38 81.6-2.85 91.47 0 0 14.88-27.31 16.3-29.03 0 0-.42-24.61 4.1-33.07 0 0 4.81-23.6 4.81-28 0 0 3.38-57.68 9.88-67.7 0 0-1.87-20.69 4.23-26.88 0 0-11.62-5.37-12.07-7.16 0 0-16.24-8.19-8.91-13.9 0 0 5.83-10.33 27.53-9.58 0 0 20.72 1.99 24.73 7.79 0 0 12.48 6.51 17.65 6.51 0 0 15.11 1.62 13 13.6l-2.99 14.69 2.42 1.04s.95 7.85-1.81 11.91c0 0-5.82 20.52-6.5 28.42 0 0-13.35 104.38-23.34 112.55 0 0-4.97 8.21-4.97 16.07 0 0-.89 13.53-3.3 19.49 0 0-3.12 19.33-1.46 23.89 0 0-.3 11.55-1 15.31 0 0 .7 6.81 2.46 12.27 0 0 .22 52.27-3.12 60.1 0 0 5.53 7.06 13.35 6.47 0 0 11.77 3.33 11.77 7.22 0 0 4.29 7.45 7.57 9.5 0 0 28.65 23.85 36.51 45.01l15.22 26.62 3.65 1.82s-3.95 17.73-8.18 23.17" fill="#fffefe"/><path d="M3802.23 3554.59s-8.59 15.64-8.4 22.35c0 0 2.64 25.65 2.64 28.16 0 0 9.71 28.22-20.64 40.28 0 0-20.08 13.94-35.24-4.58 0 0-16.15-8.26-13.02-13.96 0 0-3.74-23.42-2.05-26.63 0 0 1.73-5.64.96-8.16 0 0-1.85-12.05 4.29-16.91 0 0 8.1-12.84 8.1-16.81 0 0 4.57-18.06 13.84-18.23l-.73-7.72s-16.3-23.11-20.06-35.11c0 0-5.44-16.24-2.63-28.8 3.01-12.59-.56.26-.56.26s-1.48-37.37-3.44-49.37c0 0-2.66-22.45-1.46-34.82 0 0-.88-19.04 1.99-26.76 0 0-.83-17.15-1.68-21.71 0 0-2.61-12 .3-13.11 0 0-9.82-26.82-11.16-31.41 0 0-13.64-41.1-11.6-47.1 0 0-.98-7.67-2.57-10.57 0 0-12.39-30.46-12.39-36.15 0 0-13.92-41.68-14.07-47.95 0 0-5.81-22.25-5.81-25.4 0 0-6.48-14.59-11.35-17.75 0 0-21.16-32.21-21.01-35.33.38-3.16.38-.61.38-.61l-8.06-12.52s-2.4-4.87-4.86-5.67c0 0-38.15-6.65-25.04-17.22l34.47-3.32s13.59 2.31 19.6-.57c6.1-2.93.68-.97.68-.97s35.07-5.92 41.08-1.66c0 0 10.82 10.56 8.95 20.29 0 0 1.74 12.84 4.59 19.75 0 0 10.09 20.29 10.39 25.87 0 0 42.57 75.63 42.95 82.78l19.52 35.39s2.04 4.04 5.03-.83c0 0 25.23-36.85 30.46-40.58 0 0 13.26-17.92 13.26-20.76 0 0 14.62-19.73 14.62-23.14 0 0 13.03-33.98 21.66-39.14 0 0 9.35-13.07 8.1-22.52l-5.3-17.37-2.33-8.8s-22.13 1.62-20.96-4.9c0 0-9.07-7.41 10.9-9.77 0 0 22.21-2.8 33.41.93 0 0 15.31 8.54 21.05 9.11 0 0 15.57 1.71 17.02 7.71l2.08 4.29s11.92 1.43 7.93 11.47c0 0-14.94 37.98-23.85 45.9 0 0-2 7.93-7.48 14.54 0 0-32.24 75.02-42.04 83.53 0 0-10.07 3.79-13.64 12.91 0 0 0 6.04-3.38 9.96 0 0-4.83 50.52-7.74 54.55 0 0-.19 5.92-.19 8.84v.54c0 2.55-.32 11.39.64 15.16 0 0 6.99 17.92 7.61 23.09 0 0-2.66 31.69-6.42 35.65 0 0-2.87 20.52-6.31 25.1 0 0 7.84 60.53 4.48 72.25 0 0 3.1 85.18-35.51 94.03M1584.55 3021.05h-176.23v365.66l-220.23-365.66h-150.12v602.11h176.18v-327.03l201.89 327.03h168.51v-602.11M2174.77 3196.11c0-33.17-7.6-61.27-22.74-84.52-15.3-23.25-35.64-41.76-61.21-55.77-24.63-13.34-53.13-23.08-85.37-29.22-32.26-6.17-66.88-9.2-103.86-9.2-47.02 0-89.5 4.46-127.44 13.24-37.96 8.92-73.22 19.32-105.99 31.24v138.38h18.9c25.58-14.96 54-27.81 85.33-38.35 31.3-10.6 63.06-15.95 95.45-15.95 11.94 0 26.54.85 43.65 2.61 17.07 1.6 30.41 4.55 39.96 8.65 14.66 5.72 25.03 12.86 31.17 21.3 6.19 8.32 9.25 19.05 9.25 31.94 0 14.42-3.44 25.74-10.2 34.09-6.87 8.32-16.18 14.69-28.18 18.75-12.06 3.99-25.83 6.56-41.53 7.37-15.73.92-32.73 1.27-51.24 1.27h-67.08v114.77h51.24c12.97 0 28.71.28 47.12.85 18.4.44 33.03 2.24 44.08 5.28 13.98 3.85 24.93 9.18 32.77 16.2 7.8 7 11.78 18.19 11.78 33.51 0 10.99-3.36 19.95-10.01 27-6.64 6.93-15.5 12.47-26.42 16.6-9.16 3.34-19.9 5.96-32.24 7.65-12.25 1.74-25.32 2.64-38.94 2.64-24.93 0-51.58-4.18-79.91-12.35-28.31-8.22-54.05-18.41-77.32-30.7h-18.98v136.21c19.43 6.13 49.65 13.56 90.45 22.35 40.75 8.71 80.43 13.06 119.04 13.06 34.52 0 66.25-2.59 95.34-7.67 28.97-5.16 56.2-14.25 81.96-27.19 23.91-12.3 43.31-28.65 57.85-49.2 14.71-20.5 22.04-45.6 22.04-75.27 0-30.49-9.74-57.73-29.18-82-19.45-24.21-43.27-40.68-71.18-49.23v-4.57c35.51-9.89 63.02-26.34 82.44-49.48 19.45-23.08 29.2-51.15 29.2-84.29M2724.97 3196.11c0-33.17-7.62-61.27-22.69-84.52-15.16-23.25-35.8-41.76-61.32-55.77-24.55-13.34-52.94-23.08-85.33-29.22-32.26-6.17-66.86-9.2-103.67-9.2-47.12 0-89.63 4.46-127.59 13.24-38 8.92-73.32 19.32-106.01 31.24v138.38h18.96c25.61-14.96 53.92-27.81 85.35-38.35 31.18-10.6 62.98-15.95 95.43-15.95 12.01 0 26.42.85 43.61 2.61 17.03 1.6 30.48 4.55 39.83 8.65 14.73 5.72 25.21 12.86 31.41 21.3 6.04 8.32 9.14 19.05 9.14 31.94 0 14.42-3.42 25.74-10.24 34.09-6.87 8.32-16.11 14.69-28.23 18.75-11.86 3.99-25.69 6.56-41.46 7.37-15.64.92-32.82 1.27-51.24 1.27h-66.99v114.77h51.11c13.05 0 28.74.28 47.23.85 18.4.44 33.04 2.24 43.97 5.28 14.09 3.85 24.97 9.18 32.83 16.2 7.83 7 11.82 18.19 11.82 33.51 0 10.99-3.33 19.95-9.97 27-6.8 6.93-15.53 12.47-26.35 16.6-9.44 3.34-20.11 5.96-32.41 7.65-12.26 1.74-25.27 2.64-38.92 2.64-24.88 0-51.58-4.18-79.85-12.35-28.45-8.22-54.15-18.41-77.42-30.7h-18.91v136.21c19.4 6.13 49.58 13.56 90.38 22.35 40.85 8.71 80.51 13.06 119.17 13.06 34.43 0 66.23-2.59 95.26-7.67 28.94-5.16 56.36-14.25 81.91-27.19 23.93-12.3 43.27-28.65 58-49.2 14.51-20.5 21.89-45.6 21.89-75.27 0-30.49-9.72-57.73-29.12-82-19.44-24.21-43.25-40.68-71.24-49.23v-4.57c35.51-9.89 63.08-26.34 82.48-49.48 19.41-23.08 29.18-51.15 29.18-84.29M3139.47 3183.34v119.85c-30.41-3.06-55.06-5.67-73.68-7.94-18.89-2.18-37.19-6.56-55.41-12.92-15.68-5.56-27.92-13.81-36.62-25.01-8.82-11.04-13.11-25.77-13.11-44.26 0-26.99 7.29-45.48 21.81-55.56 14.53-10.1 35.87-15.16 64.2-15.16 15.73 0 31.9 3.62 48.25 10.78 16.49 7.22 31.22 17.26 44.56 30.22zm0-89.16c-12.3-10.24-23.31-19.4-33.02-27.64-9.78-8.19-22.81-16.41-39.11-24.64-16.19-7.86-31.75-13.79-47.05-17.89-15.11-4.08-36.37-6.06-63.64-6.06-50.96 0-93.15 17.02-126.81 51.18-33.6 34.13-50.56 77.17-50.56 129.06 0 42.72 8.48 77.16 25.65 103.54 17.19 26.27 41.7 47.1 73.73 62.45 32.47 15.73 71.32 26.66 116.34 32.78 45.07 6.22 93.53 10.99 145.52 14.38v3.07c0 31.73-11.76 53.69-35.18 65.85-23.31 12.17-58.44 18.17-105.24 18.17-21.09 0-45.82-3.85-74.28-11.56-28.23-7.63-56.07-17.48-82.91-29.44h-15.49v138.84c17.78 5.15 46.52 11.2 86.13 18.23 39.54 7 79.58 10.51 119.91 10.51 99.02 0 171.18-16.51 216.28-49.49 45.33-32.97 68.07-83.26 68.07-150.91v-405.9h-178.34v75.47M817.801 3329.43c0 37.46-9.008 67.93-27.457 91.82-18.364 23.72-43.719 38.66-76.043 44.74v-281.92c37.426 8.44 64.043 24.59 79.847 48.32 15.875 23.74 23.653 56.23 23.653 97.04zm-245.707-145.36v281.92c-33.664-6.31-59.211-21.4-76.926-45.2-17.723-23.76-26.543-54.23-26.543-91.36 0-40.36 8.215-72.72 24.855-97.04 16.567-24.24 42.758-40.42 78.614-48.32zm392.484 142.97c0-71.44-23.285-127.97-69.531-169.46-46.449-41.57-106.692-65.67-180.746-72.3v-64.23H572.094v64.23c-74.055 6.63-134.297 30.37-180.672 71.41-46.363 41.04-69.52 97.83-69.52 170.35 0 72.2 22.508 128.27 67.684 168.07 45.066 39.83 105.922 63.19 182.508 70.15v59.75h142.207v-59.75c74.281-5.69 134.691-28.48 180.98-68.76 46.129-40.23 69.297-96.71 69.297-169.46" fill="#fffefe"/></g></svg>