<svg width="16" height="17" fill="none" xmlns="http://www.w3.org/2000/svg"><path d="M15.542 7.481A3.13 3.13 0 0 1 16 9.136c0 1.461-1.24 2.841-2.86 2.841h-1.217c.164.426.295.934.295 1.546 0 2.417-1.256 3.477-3.175 3.477-2.054 0-1.937-3.152-2.392-3.606-.759-.755-1.654-2.206-2.292-2.769H1.067C.477 10.625 0 10.149 0 9.562V1.595C0 1.007.478.53 1.067.53H3.2c.496 0 .914.338 1.033.795C5.716 1.293 6.735 0 10.159 0h.741c2.57 0 3.733 1.309 3.765 3.165.444.612.676 1.432.578 2.225.328.612.455 1.339.3 2.091zm-2.058-1.787c.419-.702.042-1.64-.465-1.912.257-1.62-.587-2.188-1.77-2.188H9.988C7.6 1.594 6.054 2.85 4.267 2.85V9.03h.364c.945 0 2.266 2.354 3.151 3.236.945.942.63 2.511 1.26 3.14 1.576 0 1.576-1.096 1.576-1.884 0-1.3-.945-1.884-.945-3.14h3.466c.704 0 1.258-.627 1.261-1.255.003-.628-.427-1.256-.742-1.256.45-.483.545-1.502-.174-2.178zM2.934 2.656a.798.798 0 0 0-.8-.797c-.442 0-.8.357-.8.797 0 .44.357.797.8.797.441 0 .8-.357.8-.797z" fill="#E16B58"/></svg>