<svg width="16" height="17" fill="none" xmlns="http://www.w3.org/2000/svg"><path d="M15.542 9.519A3.13 3.13 0 0 0 16 7.864c0-1.461-1.24-2.841-2.86-2.841h-1.217c.164-.426.295-.934.295-1.546C12.218 1.06 10.962 0 9.043 0 6.989 0 7.106 3.152 6.65 3.606c-.759.755-1.654 2.206-2.292 2.769H1.067C.477 6.375 0 6.851 0 7.438v7.968c0 .587.478 1.063 1.067 1.063H3.2c.496 0 .914-.338 1.033-.796C5.716 15.708 6.735 17 10.159 17h.741c2.57 0 3.733-1.309 3.765-3.165a3.192 3.192 0 0 0 .578-2.225c.328-.612.455-1.339.3-2.091zm-2.058 1.787c.419.702.042 1.64-.465 1.912.257 1.62-.587 2.188-1.77 2.188H9.988c-2.388 0-3.934-1.256-5.721-1.256V7.97h.364c.945 0 2.266-2.354 3.151-3.236.945-.942.63-2.511 1.26-3.14 1.576 0 1.576 1.096 1.576 1.884 0 1.3-.945 1.884-.945 3.14h3.466c.704 0 1.258.627 1.261 1.255.003.628-.427 1.256-.742 1.256.45.483.545 1.502-.174 2.178zm-10.55 3.038c0 .44-.359.797-.8.797a.798.798 0 0 1-.8-.797c0-.44.357-.797.8-.797.441 0 .8.357.8.797z" fill="#2A8BFB"/></svg>