<svg width="25" height="21" fill="none" xmlns="http://www.w3.org/2000/svg"><path d="M13.386 0C6.973 0 1.774 4.701 1.774 10.5c0 1.575.385 3.07 1.072 4.41L.098 19.779a.756.756 0 0 0 .07.847.79.79 0 0 0 .823.266l6.014-1.618C8.836 20.364 11.03 21 13.386 21 19.802 21 25 16.3 25 10.5 25 4.701 19.8 0 13.386 0zm-.019 15.894a1.14 1.14 0 0 1-1.15-1.126 1.14 1.14 0 0 1 1.15-1.126c.634 0 1.15.505 1.15 1.126a1.14 1.14 0 0 1-1.15 1.126zm1.204-5.358c-.15.101-.255.176-.312.223v1.177c0 .482-.4.874-.892.874a.884.884 0 0 1-.892-.874v-1.268c0-.846.63-1.268 1.09-1.576.496-.332.824-.551.824-1.237 0-.552-.458-1-1.022-1-.563 0-1.021.448-1.021 1 0 .482-.4.874-.893.874a.885.885 0 0 1-.892-.874c0-1.516 1.259-2.75 2.806-2.75 1.547 0 2.806 1.234 2.806 2.75 0 1.609-1.003 2.28-1.602 2.681z" fill="#2A8BFB"/></svg>