<svg width="12" height="11" fill="none" xmlns="http://www.w3.org/2000/svg"><path d="M6.434 5.302V2.958a.478.478 0 00-.47-.469.478.478 0 00-.47.469v2.524c0 .109.035.253.144.325L7.447 7.61a.46.46 0 00.325.145c.145 0 .217-.037.326-.145.108-.108.145-.18.145-.324 0-.145-.037-.217-.145-.325L6.434 5.302z" fill="gray"/><path d="M5.964 0c-3.039 0-5.5 2.452-5.5 5.482C.465 8.512 2.926 11 6 11c3.04 0 5.536-2.452 5.536-5.518C11.498 2.452 9.003 0 5.964 0zm3.799 5.482c0 .252.217.469.47.469h.326c-.217 2.164-1.954 3.931-4.125 4.111V9.81a.478.478 0 00-.47-.469.478.478 0 00-.47.469v.252C3.323 9.846 1.55 8.115 1.369 5.951h.254c.253 0 .47-.217.47-.469s-.217-.433-.47-.433h-.254C1.586 2.885 3.323 1.118 5.494.938v.216c0 .253.217.469.47.469s.47-.216.47-.469V.902c2.171.216 3.944 1.947 4.125 4.111h-.326c-.253.036-.47.217-.47.469z" fill="gray"/></svg>