<svg width="127" height="29" fill="none" xmlns="http://www.w3.org/2000/svg"><mask id="a" fill="#fff"><path fill-rule="evenodd" clip-rule="evenodd" d="M55.222 21l8 8 8-8H127V0H0v21h55.222z"/></mask><path fill-rule="evenodd" clip-rule="evenodd" d="M55.222 21l8 8 8-8H127V0H0v21h55.222z" fill="#fff"/><path d="M63.222 29l-.707.707.707.707.707-.707-.707-.707zm-8-8l.707-.707-.293-.293h-.414v1zm16 0v-1h-.414l-.293.293.707.707zM127 21v1h1v-1h-1zm0-21h1v-1h-1v1zM0 0v-1h-1v1h1zm0 21h-1v1h1v-1zm63.929 7.293l-8-8-1.414 1.414 8 8 1.414-1.414zm6.586-8l-8 8 1.414 1.414 8-8-1.414-1.414zM127 20H71.222v2H127v-2zm-1-20v21h2V0h-2zM0 1h127v-2H0v2zm1 20V0h-2v21h2zm54.222-1H0v2h55.222v-2z" fill="#B6B6B6" mask="url(#a)"/></svg>