<svg width="15" height="11" fill="none" xmlns="http://www.w3.org/2000/svg"><path d="M4.437 7.383h3.63c.15 0 .294.008.358.153.064.149-.038.243-.145.337-.256.227-.508.457-.756.688-.337.317-.337.725.009 1.042.427.391.858.783 1.294 1.166.341.305.781.31 1.119.004 1.52-1.39 3.044-2.783 4.556-4.18.658-.607.666-1.566.013-2.169-1.529-1.417-3.07-2.814-4.608-4.22A.793.793 0 0 0 8.848.202 48.99 48.99 0 0 0 7.49 1.445c-.303.29-.294.693.013.983.26.246.534.49.803.732.098.086.175.18.12.309-.06.137-.189.157-.334.157-2.4-.004-4.795 0-7.195-.004-.594 0-.897.27-.897.814v2.172c0 .49.316.775.85.775h3.587z" fill="#fff"/></svg>