<svg width="15" height="11" fill="none" xmlns="http://www.w3.org/2000/svg"><path d="M10.563 7.383h-3.63c-.15 0-.294.008-.358.153-.064.149.038.243.145.337.256.227.508.457.756.688.337.317.337.725-.009 1.042-.427.391-.858.783-1.294 1.166-.341.305-.781.31-1.119.004C3.534 9.383 2.01 7.99.498 6.593-.16 5.986-.168 5.027.485 4.424 2.014 3.007 3.555 1.61 5.093.204A.793.793 0 0 1 6.152.202c.461.407.914.822 1.358 1.244.303.29.295.693-.013.983-.26.246-.534.49-.803.732-.098.086-.175.18-.12.309.06.137.189.157.334.157 2.4-.004 4.795 0 7.195-.004.594 0 .897.27.897.814v2.172c0 .49-.316.775-.85.775h-3.587z" fill="#fff"/></svg>