<svg width="50" height="50" fill="none" xmlns="http://www.w3.org/2000/svg"><path d="M16.91 48.622c-2.255-.645-4.306-1.684-6.212-3.033-2.69-1.9-4.983-4.192-6.756-6.963a24.865 24.865 0 0 1-3.1-7.01C.19 29.19-.052 26.743.008 24.247c.072-2.64.555-5.195 1.484-7.667C3.097 12.316 5.595 8.698 9.14 5.784a25.48 25.48 0 0 1 6.961-4.037c.447-.18.905-.37 1.388-.454.096-.048.217-.083.29-.024.277.215.265.215.578.12 1.134-.347 2.268-.633 3.463-.61.35.013.663-.119 1-.167C23.414.6 24.005.59 24.608.565c.41-.048.833-.06 1.243 0C32.92.78 38.807 3.55 43.608 8.638c.12.12.314.191.326.406.048.06.048.107 0 .167-.41.108-.58-.227-.784-.442-1.737-1.827-3.728-3.332-5.936-4.562-1.568-.872-3.233-1.505-4.958-1.982-2.292-.633-4.633-.968-7.021-.884-1.846.06-3.668.334-5.477.728-2.473.526-4.741 1.517-6.889 2.783-3.257 1.923-5.935 4.479-7.986 7.643-1.4 2.162-2.389 4.503-3.016 6.987-.326 1.29-.47 2.615-.615 3.94-.206 1.852-.037 3.691.156 5.53.17 1.565.688 3.058 1.207 4.55 1.025 2.926 2.69 5.47 4.693 7.8 1.568 1.826 3.474 3.307 5.561 4.537 1.279.765 2.642 1.35 4.005 1.923.193.143.495.215.399.55-.049.179-.06.43-.362.31zM49.712 26.409c-.012 2.233-.289 4.406-.989 6.544-1.158 3.523-2.955 6.652-5.5 9.363-.676.717-1.4 1.374-2.16 1.995-.218-.048-.218-.048-.085-.251-1.472.991-2.823 2.114-4.476 2.735-.555.322-1.158.537-1.737.812-.12.048-.241.06-.362.048a.404.404 0 0 1-.253-.108c-.012-.346.265-.406.495-.502 1.882-.824 3.607-1.898 5.223-3.14.205-.132.338-.37.603-.418.664-.335 1.183-.836 1.726-1.314.313-.275-.06-.61.144-.872.809-.967 1.641-1.899 2.365-2.926a23.374 23.374 0 0 0 3.414-6.927c.338-1.11.519-2.233.736-3.367.096-.478.362-.92.386-1.422.133-.155.241-.31.47-.25z" fill="#EFF5F2"/><path d="M35.26 47.87a23.63 23.63 0 0 1-5.815 1.743c-2.497.418-5.019.55-7.528.132-.41-.072-.844-.036-1.243-.191-.12-.084-.265-.036-.398-.06-.35-.06-.543-.215-.325-.585.241-.156.494-.108.76-.048 1.628.358 3.269.55 4.934.537 1.604-.012 3.185-.227 4.753-.537.519-.096 1.086-.048 1.544-.406a.91.91 0 0 1 .386-.12c.386.06.712-.179 1.074-.239.519-.119.977-.394 1.484-.537.193-.107.386-.167.603-.12.362.359-.18.275-.23.43zM22.846.612c-.446.31-.965.192-1.448.275-1.11.18-2.22.406-3.293.752-.145.048-.314.024-.507.048.06-.167.483-.418-.072-.382.688-.394 1.46-.513 2.207-.693C22.087.063 24.476-.08 26.887.04c1.159.048 2.317.191 3.45.55-3.064-.466-6.116-.502-9.12.107.52.18 1.062-.203 1.629-.084zM49.773 21.118c.048.645.277 1.266.217 1.935-.024.215.012.43-.253.645.084-1.015-.145-1.911-.338-2.83-.266-.371-.29-.825-.386-1.23-.664-2.82-1.786-5.423-3.414-7.823-.17-.24-.374-.478-.362-.8.036-.096.096-.168.193-.18.724.789 1.242 1.72 1.737 2.652.917 1.695 1.653 3.463 2.111 5.326.193.764.338 1.54.495 2.305z" fill="#EFF5F2"/><path d="M35.26 47.87c-.048-.203.386-.108.23-.37.204-.49.723-.478 1.097-.681.12-.06.277-.024.374-.108-.157.06-.314.12-.483 0 1.026-.43 1.93-1.063 2.86-1.672.53-.346 1.049-.705 1.568-1.063.18.06-.205.382.157.347-1.738 1.48-3.692 2.65-5.803 3.547zM16.91 48.622c.568-.239.254-.478 0-.717.073-.083.17-.119.266-.083.47.19.977.286 1.472.442.12.035.193.12.241.238 0 .024.012.048 0 .06-.277.203-.302.227-.302.55-.555-.203-1.194-.096-1.676-.49zM45.43 10.847c-.024.084-.073.144-.17.155-.626-.25-.783-.931-1.242-1.337-.12-.108-.193-.25-.084-.418l.036-.203c.591.513 1.013 1.158 1.46 1.803z" fill="#EFF5F2"/><path d="M18.575 49.1c-.12-.191-.24-.383-.374-.61.242.036.459.06.664.084.217-.143.374-.06.519.108.12.25.024.442-.181.609-.242.06-.435-.06-.628-.191zM49.712 26.409c-.108.083-.217.155-.325.238-.193-.19-.181-.394-.036-.597.096-.227-.145-.68.205-.68s.108.453.193.68a17.95 17.95 0 0 0-.037.359z" fill="#EFF5F2"/><path d="M19.203 49.303c.036-.18.072-.37.12-.55.133-.131.266-.035.398 0 .109.048.206.108.242.227-.109.61.506.335.7.562-.52.13-.942-.299-1.46-.24zM25.874.577h-1.242c.41-.18.82-.168 1.242 0zM29.36 48.741c1.641-.25 3.185-.883 4.814-1.206.084 0 .169.012.253.012.013.335-.313.287-.494.394-.181.108-.398.143-.591.227-.326.084-.64.203-.965.31-.133.013-.266.013-.387.024-.084.168-.253.192-.398.215-.735.096-1.435.311-2.171.395-.253.023-.507.06-.7-.192.205-.226.447-.071.64-.179zM41.774 42.161c.206-.275.423-.537.712-.74-.024.06-.072.143-.06.167.422.561-.181.716-.422.967-.41.406-.833.848-1.436 1.015-.084-.263.096-.394.278-.525.337-.263.663-.55.928-.884z" fill="#EFF5F2"/><path d="M41.774 42.161c0 .394-.361.514-.567.752-.205.227-.543.335-.639.657-.277 0-.253.406-.53.382-.121-.012-.23-.023-.46-.035.773-.645 1.424-1.278 2.196-1.756zM36.478 46.7h.495c-.483.345-1.062.417-1.484.8-.193.047-.386.107-.579.155-.06-.048-.145-.06-.145-.156.507-.382 1.158-.49 1.713-.8z" fill="#EFF5F2"/><path d="M34.753 47.5c.048.047.097.107.145.155-.483.19-.977.382-1.46.56-.06-.023-.133-.035-.145-.107.302-.334.845-.179 1.122-.56.121-.025.23-.037.338-.049zM29.36 48.741c-.168.048-.325.096-.663.191 1.243.12 2.244-.334 3.294-.453-.097.49-.567.394-.857.441-2.16.407-4.331.717-6.55.598-1.34-.072-2.667-.156-3.97-.49-.205-.048-.434-.036-.651-.048-.109-.012-.217-.024-.266-.143.82-.645 1.677-.108 2.51-.048.446.024.904.12 1.35.143 1.449.06 2.896.12 4.344 0 .494-.023.94-.346 1.46-.19z" fill="#EFF5F2"/><path d="M33.293 48.108l.145.108c-.362.06-.663.382-1.061.25.205-.37.615-.226.916-.358zM26.429 49.303c.157.024.314.036.47.06v.06H23.98c-.084-.096.048-.06.06-.096.797-.108 1.593-.084 2.389-.024z" fill="#EFF5F2"/><path d="M26.429 49.303c-.796 0-1.592.012-2.389.012.797-.227 1.593-.168 2.389-.012z" fill="#EFF5F2"/><path d="M24.212 26.52c-1.567-1.584-3.138-3.165-4.706-4.753-.596-.602-.672-1.491-.195-2.107.54-.695 1.42-.86 2.156-.405.118.072.225.166.322.264l9.372 9.463c.604.61.68 1.53.188 2.176-.485.634-1.367.801-2.075.39a1.7 1.7 0 0 1-.355-.276l-4.707-4.753z" fill="#32AB77"/><path d="M26.797 26.737c-1.568 1.583-3.133 3.169-4.706 4.752-.596.602-1.477.678-2.087.197-.689-.546-.851-1.433-.401-2.177.072-.119.164-.227.261-.325l9.372-9.463c.604-.61 1.515-.686 2.155-.19.628.49.794 1.38.387 2.095-.075.132-.167.25-.274.359l-4.707 4.752z" fill="#32AB77"/></svg>