<svg width="50" height="50" fill="none" xmlns="http://www.w3.org/2000/svg"><circle cx="25" cy="25" r="25" fill="#fff"/><path d="M18.205 44.842c-1.895-.541-3.618-1.414-5.219-2.548-2.26-1.595-4.185-3.52-5.675-5.848a20.887 20.887 0 0 1-2.604-5.889c-.547-2.036-.75-4.093-.7-6.19.061-2.217.467-4.363 1.247-6.44 1.348-3.581 3.445-6.621 6.425-9.069a21.406 21.406 0 0 1 5.847-3.39c.375-.151.76-.312 1.165-.382.081-.04.183-.07.244-.02.233.18.222.18.486.1.953-.29 1.905-.531 2.908-.511.294.01.558-.1.841-.14.497-.01.993-.02 1.5-.04.345-.04.7-.05 1.044 0 5.938.18 10.884 2.507 14.917 6.78.101.101.263.161.273.342.041.05.041.09 0 .14-.344.09-.486-.19-.658-.37-1.46-1.536-3.132-2.8-4.986-3.833-1.317-.732-2.716-1.264-4.165-1.665-1.925-.532-3.891-.813-5.898-.743-1.55.05-3.08.281-4.6.612-2.078.442-3.983 1.274-5.787 2.338a20.035 20.035 0 0 0-6.708 6.42 19.511 19.511 0 0 0-2.534 5.869c-.273 1.083-.395 2.197-.517 3.31-.172 1.555-.03 3.1.132 4.645.142 1.314.578 2.568 1.013 3.822.862 2.458 2.26 4.595 3.942 6.55 1.318 1.536 2.919 2.78 4.672 3.813 1.074.642 2.22 1.134 3.364 1.615.163.12.416.18.335.462-.04.15-.05.36-.304.26zM45.758 26.183c-.01 1.876-.243 3.702-.83 5.498-.973 2.96-2.483 5.587-4.621 7.865a18.999 18.999 0 0 1-1.814 1.675c-.183-.04-.183-.04-.071-.21-1.237.832-2.372 1.775-3.76 2.297-.466.27-.973.451-1.46.682-.1.04-.202.05-.303.04a.34.34 0 0 1-.213-.09c-.01-.291.223-.341.416-.422 1.58-.692 3.03-1.595 4.387-2.638.173-.11.284-.311.507-.351.557-.281.993-.703 1.45-1.104.263-.23-.051-.511.12-.732.68-.813 1.379-1.595 1.987-2.458a19.638 19.638 0 0 0 2.868-5.818c.284-.933.436-1.876.618-2.83.081-.4.304-.772.324-1.193.112-.13.203-.26.395-.21z" fill="#EFF5F2"/><path d="M33.618 44.21a19.846 19.846 0 0 1-4.884 1.465c-2.098.351-4.216.462-6.324.11-.344-.06-.709-.03-1.043-.16-.102-.07-.223-.03-.335-.05-.294-.05-.456-.18-.273-.492.202-.13.415-.09.638-.04 1.368.301 2.746.462 4.145.452 1.348-.01 2.675-.191 3.992-.452.436-.08.912-.04 1.297-.341a.763.763 0 0 1 .325-.1c.324.05.598-.15.902-.201.435-.1.82-.331 1.246-.451.162-.09.324-.14.507-.1.304.3-.152.23-.193.36zM23.19 4.514c-.374.261-.81.16-1.215.231-.933.15-1.865.341-2.767.632-.121.04-.263.02-.425.04.05-.14.405-.35-.061-.32.577-.332 1.226-.432 1.854-.583 1.976-.461 3.983-.581 6.01-.481.972.04 1.945.16 2.898.461-2.574-.39-5.138-.421-7.661.09.435.151.891-.17 1.368-.07zM45.81 21.74c.04.54.232 1.063.182 1.624-.02.18.01.361-.213.542.07-.853-.122-1.605-.284-2.378-.223-.31-.243-.692-.324-1.033a19.559 19.559 0 0 0-2.868-6.57c-.142-.201-.314-.402-.304-.673.03-.08.081-.14.162-.15.608.662 1.044 1.444 1.46 2.227.77 1.424 1.388 2.909 1.773 4.474.162.642.283 1.294.415 1.936z" fill="#EFF5F2"/><path d="M33.618 44.21c-.04-.17.325-.09.193-.31.172-.412.608-.402.922-.572.101-.05.233-.02.314-.09-.132.05-.263.1-.405 0 .861-.362 1.621-.894 2.401-1.405.446-.291.882-.592 1.318-.893.152.05-.172.321.132.291-1.46 1.244-3.101 2.227-4.875 2.98zM18.205 44.842c.476-.2.213-.4 0-.602.06-.07.142-.1.223-.07.395.16.82.241 1.236.371.101.03.162.1.203.201 0 .02.01.04 0 .05-.233.17-.254.19-.254.462-.466-.17-1.003-.08-1.408-.412zM42.161 13.112c-.02.07-.06.12-.142.13-.527-.21-.658-.782-1.044-1.123-.101-.09-.162-.211-.07-.351l.03-.171c.496.431.851.973 1.226 1.515z" fill="#EFF5F2"/><path d="M19.603 45.244a17 17 0 0 1-.314-.512c.203.03.385.05.557.07.183-.12.315-.05.436.09.102.211.02.372-.152.512-.202.05-.364-.05-.527-.16zM45.758 26.183c-.09.07-.182.13-.273.2-.162-.16-.152-.33-.03-.5.08-.191-.122-.573.172-.573s.091.382.162.572c-.01.09-.02.19-.03.301z" fill="#EFF5F2"/><path d="M20.13 45.414c.03-.15.061-.31.102-.461.111-.11.223-.03.334 0 .091.04.172.09.203.19-.091.512.425.281.588.472-.436.11-.791-.25-1.227-.2zM25.734 4.484H24.69c.345-.15.69-.14 1.044 0zM28.663 44.943c1.378-.21 2.675-.743 4.043-1.013.071 0 .142.01.213.01.01.28-.263.24-.415.33-.152.09-.335.121-.497.191-.274.07-.537.17-.81.261-.112.01-.224.01-.325.02-.07.14-.213.16-.334.18-.619.081-1.206.262-1.824.332-.213.02-.426.05-.588-.16.172-.191.375-.06.537-.151zM39.09 39.415c.173-.23.355-.451.598-.622-.02.05-.06.12-.05.14.354.472-.152.603-.355.813-.345.341-.7.712-1.206.853-.07-.22.081-.331.233-.441.284-.221.558-.462.78-.743z" fill="#EFF5F2"/><path d="M39.09 39.415c0 .331-.304.432-.476.632-.172.19-.456.281-.537.552-.233 0-.213.341-.446.321-.101-.01-.192-.02-.385-.03.649-.542 1.196-1.074 1.844-1.475zM34.642 43.227h.415c-.405.291-.892.351-1.246.673-.162.04-.325.09-.487.13-.05-.04-.121-.05-.121-.13.425-.322.973-.412 1.439-.673z" fill="#EFF5F2"/><path d="M33.193 43.9c.04.04.08.09.121.13-.405.16-.82.32-1.226.471-.05-.02-.111-.03-.122-.09.254-.28.71-.15.943-.471.101-.02.193-.03.284-.04zM28.663 44.943c-.142.04-.274.08-.558.16 1.044.1 1.885-.28 2.767-.38-.081.41-.476.33-.72.37-1.813.341-3.637.602-5.502.502-1.125-.06-2.24-.13-3.334-.411-.172-.04-.365-.03-.547-.04-.091-.01-.183-.02-.223-.121.689-.542 1.408-.09 2.108-.04.375.02.76.1 1.135.12 1.216.05 2.432.1 3.648 0 .415-.02.79-.29 1.226-.16z" fill="#EFF5F2"/><path d="M31.966 44.411l.122.09c-.304.05-.557.321-.892.211.173-.311.517-.19.77-.3zM26.2 45.414c.132.02.264.03.396.05v.05h-2.452c-.072-.08.04-.05.05-.08.669-.09 1.338-.07 2.006-.02z" fill="#EFF5F2"/><path d="M26.2 45.414c-.668 0-1.337.01-2.006.01.669-.19 1.338-.14 2.006-.01z" fill="#EFF5F2"/><path d="M24.212 26.52c-1.567-1.584-3.138-3.165-4.706-4.753-.596-.602-.672-1.491-.195-2.107.54-.695 1.42-.86 2.156-.405.118.072.225.166.322.264l9.372 9.463c.604.61.68 1.53.188 2.176-.485.634-1.367.801-2.075.39a1.7 1.7 0 0 1-.355-.276l-4.707-4.753z" fill="#32AB77"/><path d="M26.797 26.737c-1.568 1.583-3.133 3.169-4.706 4.752-.596.602-1.477.678-2.087.197-.689-.546-.851-1.433-.401-2.177.072-.119.164-.227.261-.325l9.372-9.463c.604-.61 1.515-.686 2.155-.19.628.49.794 1.38.387 2.095-.075.132-.167.25-.274.359l-4.707 4.752z" fill="#32AB77"/></svg>