<svg width="32" height="21" fill="none" xmlns="http://www.w3.org/2000/svg"><path d="M31.63 9.204C27.857 2.57 20.562-1.005 13.123.248c-5.548.939-9.78 3.946-12.7 8.847-.559.932-.566 1.856-.008 2.781C3.973 17.767 9.2 20.716 15.945 21c1.159-.007 2.304-.102 3.421-.342 5.355-1.129 9.458-4.07 12.257-8.862.501-.859.501-1.733.007-2.592zm-15.75 8.272c-3.766-.03-6.78-3.219-6.759-7.143.022-3.721 3.179-6.86 6.88-6.838 3.866.03 6.895 3.182 6.866 7.143-.028 3.78-3.186 6.867-6.987 6.838z" fill="url(#paint0_linear)"/><path d="M16.009 5.825c2.555.008 4.574 2.112 4.567 4.762-.007 2.447-2.105 4.559-4.524 4.559-2.6-.008-4.647-2.076-4.64-4.697.007-2.541 2.076-4.624 4.597-4.624z" fill="url(#paint1_linear)"/><defs><linearGradient id="paint0_linear" x1="16" y1="0" x2="35.734" y2="25.059" gradientUnits="userSpaceOnUse"><stop stop-color="#F4A261"/><stop offset="1" stop-color="#E9C46A"/></linearGradient><linearGradient id="paint1_linear" x1="16" y1="0" x2="35.734" y2="25.059" gradientUnits="userSpaceOnUse"><stop stop-color="#F4A261"/><stop offset="1" stop-color="#E9C46A"/></linearGradient></defs></svg>