<svg xmlns="http://www.w3.org/2000/svg" width="40" height="40" fill="none"><circle r="20" transform="scale(-1 1)" cx="-19.991" cy="19.998" fill="#96aba2"/><mask id="a" maskUnits="userSpaceOnUse" x="54" y="45" width="40" height="40"><circle r="20" transform="matrix(-1 0 0 1 74 65)" fill="#96aba2"/></mask><g mask="url(#a)" transform="translate(0 -111)" fill="#fff"><g opacity=".25"><path d="M-40.425 211.95c-.242-.318-.31-.518-.111-.586.147-.028.16-.121-.015-.24-.134-.065-.255-.225-.19-.358.013-.094-.135-.399-.297-.612-.215-.171-.323-.424-.27-.464.106-.081-.194-1.026-.409-1.197-.04-.053-.146.027-.252.108-.106.081-.132.268.002.333.08.107.121.16.028.147-.093-.013-.242-.318-.325-.758-.084-.439-.354-.904-.609-1.129-.335-.331-.376-.384-.15-.639.211-.161.237-.348.115-.507-.12-.159-.267-.132-.333.002s-.212.162-.293.056c-.08-.107-.068-.2.132-.268.146-.028.265-.202.237-.348-.028-.147-.121-.16-.146.027-.026.187-.12.174-.308-.184-.109-.253-.217-.505-.205-.599.013-.093-.095-.346-.35-.571-.255-.224-.364-.477-.31-.517.052-.041-.018-.574-.182-1.119-.164-.546-.222-1.172-.156-1.306.066-.133.076-.56.02-.853-.055-.293-.11-.586.036-.614.093.013.119-.174-.002-.333-.202-.265-.15-.306.106-.081.335.331.494.21.543-.497.063-.467.116-.508.396-.47.228.079.28.038.107-.08-.081-.106-.162-.213-.069-.2.094.013.172-.214.157-.454-.015-.24-.047-1.053-.093-1.773-.06-.96.044-1.374.296-1.482.16-.121.278-.296.238-.349-.215-.171.432-1.083.7-.951.134.065.146-.028.131-.268-.068-.199-.002-.333.144-.361.147-.028.213-.161.132-.268-.028-.146.038-.28.05-.373.106-.081.147-.028.187.025-.012.093.162.212.402.197.28.038.32.091.08.106-.146.028-.277.296-.222.589.058.626.378.717.361.144-.015-.24.063-.468.116-.508.319-.242.397-.469.155-.788-.202-.265-.296-.278-.508-.116-.543.497 1.132-2.035 2.072-3.002.225-.255.369-.616.394-.803-.015-.239.21-.494.37-.616.41-.229.858-1.072 1.157-2.221.116-.508.288-.722.475-.697.134.066.399-.136.57-.351.7-.951 1.653-2.012 1.827-1.893.04.053.412-.23.755-.659.397-.469.675-.765.756-.658.12.159.333-.003.929-.54.212-.162.359-.19.427.01.068.199.161.212.227.078-.174-.119-.202-.265-.283-.371-.174-.119.41-.563.915-.78.305-.149.505-.217.836-.553.159-.121.252-.108.333-.002.028.146.174.119.24-.015.106-.081.078-.227-.015-.24-.093-.013-.068-.2.091-.321.16-.121.359-.189.399-.136.08.106.24-.015.371-.283.132-.267.29-.388.412-.229.08.106.227.078.24-.015.013-.094.16-.121.293-.056.134.066.187.026-.028-.146-.335-.331.102-.748.49-.457.308.184.455.157.546-.164.263-.535.634-.818 1.048-.714.361.144.361.144.318-.242-.042-.387-.042-.387.384-.377.334-.002.586-.11.718-.378.303-.482.714-.712.81-.366.04.053.268.132.414.104.44-.083.506-.217.25-.442-.08-.106-.095-.346-.017-.573.197-.402.65-.578.824-.459.04.053.411-.23.742-.566.384-.376.755-.659.849-.646.093.013.558-.257.995-.674.437-.416.914-.78 1.06-.807.493-.124 1.33-.677 2.297-1.497 1.286-1.062 1.339-1.103 2.099-1.095.374.051.626-.058.533-.07-.121-.16.977-1.247 1.217-1.263.094.013.212-.161.29-.388.08-.228.344-.43.49-.457.2-.068.665-.338 1.05-.714.383-.377.754-.66.9-.687.147-.028.519-.31.85-.646 1.086-.995 1.962-1.494 2.177-1.322.08.106.134.065.066-.134-.056-.293.05-.374.833-.886.518-.31 1.579-1.118 2.4-1.91.78-.846 1.576-1.452 1.67-1.44.146-.027.411-.229.636-.484.225-.255.49-.457.677-.432.227.079.28.038.106-.08-.08-.106-.055-.293.064-.467.224-.255.265-.202.36.144.043.386.043.386.228.078.222-.588 1.518-2.078 1.52-1.744-.078.227.016.24.268.131.4-.136.452-.176.157-.454-.121-.16-.03-.48.367-.95.29-.388.5-.883.525-1.07-.083-.44.407-.896 1.23-1.356.811-.365 1.913-1.12 3.332-2.117.584-.444 1.195-.742 1.288-.73.134.067.24-.014.225-.254-.015-.24.05-.374.104-.414l.106-.081c.197-.401.475-.697.662-.671.08.106.24-.015.358-.19.12-.174.331-.335.53-.404.2-.068.413-.23.544-.497.09-.32.237-.348.359-.189.12.16.32.091.532-.07l.584-.445c.106-.08.184-.308.144-.36-.028-.147.131-.268.344-.43.305-.149.37-.282.184-.308-.134-.065-.121-.159.131-.267.306-.15.306-.15.228.078-.066.134-.091.32-.051.374.04.053-.038.28-.197.401-.212.162-.29.389-.17.548.081.106.162.212.134.066a.203.203 0 0 1 .213-.162c.227.079.848-.646 1.124-1.275.078-.227.159-.12.161.213.058.626.192.692.657.422.252-.109.492-.124.48-.03.027.146.12.159.227.078.106-.081.24-.015.414.104.202.265.389.29.56.076.225-.255.238-.349-.042-.387-.187-.025-.362-.144-.349-.237.013-.094.212-.162.4-.137.226.079.466.064.572-.017.053-.04.346-.096.627-.058.467.063.507.117.51.45.002.333-.051.373-.319.242-.227-.078-.28-.038-.171.215.068.2-.036.613-.433 1.083-.343.429-.606.964-.578 1.11-.079.228-.076.561-.114.841-.038.28.03.48.11.586.134.066.069.2-.224.255-.493.124-.809.7-.657 1.338.083.44.083.44-.238.349-.187-.026-.427-.01-.48.03-.106.08-.065.134.028.146.093.013.161.213.136.4-.038.28.096.345.881.166.733-.138.839-.219.571-.35-.267-.132-.255-.225.117-.508.265-.202.384-.376.262-.535-.161-.212-.085-.773.127-.934.053-.04.066-.134-.015-.24-.08-.106-.121-.16-.028-.147.094.013.265-.202.344-.429.21-.495 1.058-1.14 1.154-.795.028.147.015.24-.131.268-.346.096-.516.643-.364 1.282.164.546.164.546.267.132.038-.28.235-.682.394-.803.172-.215.569-.684.86-1.073.409-.563.62-.724.742-.565.08.106.227.078.306-.15.065-.133.33-.335.477-.362.293-.056.333-.002.149.305-.119.174-.116.508.045.72.202.265.083.44-.42.99-.33.335-.634.817-.659 1.004-.05.374.056.293.717-.378.437-.417.728-.805.647-.912a.143.143 0 0 1 .026-.186c.053-.04.262-.536.42-.99.1-.747.298-1.149.39-1.136.094.012.135.065.029.146-.053.04.08.106.308.185.467.063.679-.099.424-.323-.134-.066-.149-.306-.043-.387.172-.214.266-.202.682.235.295.278.603.463.656.422.053-.04.24-.015.321.091.121.16.149.306-.05.374-.16.121-.387.043-.549-.17-.161-.212-.295-.277-.36-.143-.039.28-1.09.66-1.157.461-.028-.146-.121-.159-.268-.131-.146.028.015.24.31.518.296.277.563.409.63.275.065-.134.17-.214.305-.149.134.066.293-.055.358-.19.132-.267.132-.267.081.107-.025.187-.263.535-.568.684-.518.31-.647.912-.271 1.295.162.213.215.172.146-.027-.136-.4.42-.99.688-.859.133.066.108.253-.051.374-.225.255-.245 1.109-.02.854.053-.04.093.012.068.2-.038.28.055.292.507.115.599-.204.902-.686.488-.79-.134-.065-.24.015-.253.109-.012.093-.119.174-.2.068-.08-.106-.055-.293.104-.414.16-.121.144-.361.036-.614a.61.61 0 0 1-.124-.492c.107-.081.187.025.308.184.069.2.255.225.321.091.106-.08.306-.149.44-.083.133.066.106-.08-.043-.386-.217-.505-.245-.652-.086-.773.147-.028.16-.121.026-.187s-.175-.119-.122-.159c.053-.04.172-.215.29-.389.067-.134.266-.202.307-.149.08.106.068.2-.091.321-.16.121-.132.268-.051.374.08.106.187.025.2-.068.012-.094.118-.174.199-.068a.51.51 0 0 1 .096.346c.027.146.055.293.149.305.133.066.174.119.068.2-.053.04-.2.068-.334.002-.174-.12-.24.015-.184.308.015.24-.036.613-.154.787-.276.63.217.506.785-.178.462-.604.515-.644.558-.258.015.24-.063.467-.21.495-.146.028-.159.121-.065.134.093.013.161.212.095.346-.025.187-.118.174-.146.028-.028-.147-.093-.013-.184.308-.038.28-.223.588-.37.616-.146.027-.199.068-.012.093.134.066.149.306.07.533-.156.454-.156.454-.44.083-.201-.265-.375-.384-.428-.344-.106.081-.025.187.068.2.093.013.121.159.096.346-.066.134.002.333.176.452.175.119.255.225.096.346a.287.287 0 0 0-.05.374c.08.106.068.2-.038.28-.107.08-.291.389-.382.71-.091.32-.394.802-.526 1.07-.647.911-.723 1.472-.172 1.974.63.61 1.045.713 1.47.39.264-.202.305-.149.4.197.11.253.043.386-.196.401-.187-.025-.172.215-.09.654.205.599.205.599.443.25.184-.307.237-.348.227.079-.023.52.098.68.376.384.212-.162.212-.162.134.066a.804.804 0 0 0-.063.467c.027.146-.051.374-.276.628-.41.563-.382.71.166.88.548.169.548.169.164.545-.33.336-.29.389.167.879.295.278.537.596.484.636-.053.04.296.278.737.528.844.448 1.167.872.553.836a.72.72 0 0 0-.492.124c-.172.214.244.651.711.715a.757.757 0 0 1 .483.303c.148.306.095.346-.518.31-.614-.035-1.227-.07-1.934-.12-.894-.073-3.24.037-3.4.159-.106.08-.452.176-.785.179-.72.045-1.475.703-2.425 2.097-.303.483-.846.98-1.164 1.222-.465.27-.518.31-.387.043.172-.215.025-.187-.399.136-.371.283-.65.578-.662.67-.012.095-.184.309-.424.325-.293.055-.412.229-.397.469-.038.28-.144.36-.53.404-.48.03-.493.123-.384.376.108.253.055.293-.412.23-.28-.038-.613-.036-.573.017-.238.348-.505.217-.588-.222-.084-.44-.03-.48.29-.39.32.092.28.039-.015-.24-.255-.224-.389-.29-.72.046-.277.295-.303.482-.06.8.27.465.27.465-.21.495-.28-.038-.493.124-.505.217-.013.094-.225.255-.465.27-.333.003-.387.043.015.24.308.185.295.278.083.44-.371.282-.705.285-.654-.09.078-.226-.055-.292-.401-.196-.64.15-1.435.757-1.102.755.187.025.44-.084.599-.205.424-.323.705-.285.735.195.015.24.136.399.27.465.093.012.12.159.015.24-.106.08-.346.095-.52-.023-.175-.12-.415-.104-.627.057-.159.122-.437.417-.596.538-.225.255-.318.242-.507-.116-.15-.306-.243-.32-.321-.091a.32.32 0 0 1-.4.136c-.173-.12-.332.002-.398.136s.002.333.176.452c.134.066.162.212.109.253-.106.08-.331.335-.556.59-.384.377-.343.43-.023.52.508.117.243.319-.278.296-.333.002-.386.043-.265.202.121.159.015.24-.359.189-.52-.023-.785.179-.57.35.08.107.068.2.055.294-.106.08-.187-.026-.348-.238-.27-.464-.536-.263-.331.336.055.293.03.48-.104.414s-.174-.12-.108-.252c.106-.081-.028-.147-.228-.08-.598.205-.77.42-.409.564.227.078.255.225.043.386-.172.215-.359.19-.614-.035-.214-.172-.255-.225-.227-.078.068.199.015.239-.306.148-.414-.103-.414-.103-.171.215.255.225.201.265-.266.202-.56-.076-.56-.076-.33.336.229.41-.021.853-.316.575-.081-.106-.069-.2.05-.374.106-.08.132-.267.05-.373-.254-.225-.504.217-.315.575.149.306.149.306-.212.162-.227-.078-.32-.091-.24.015.08.106.068.199.015.24-.093-.013-.119.174-.05.374.108.252.055.293-.198.4-.2.069-.399.137-.452.178-.053.04-.318.242-.677.43-.783.513-.836.554-1.207.836-.16.122-.505.217-.745.232-.467-.063-.611.298-.276.629.296.278.19.359-.396.47-.493.123-1.064.474-1.672 1.105-.172.215-.624.39-.917.447-.387.042-.493.123-.266.202.228.078.215.17-.144.36-.57.35-.677.432-3.278 2.077-1.195.742-2.549 1.605-3.054 1.822-.465.27-.982.58-1.194.742-.438.417-1.647.919-1.662.679.012-.093-.081-.106-.134-.066-.106.08-.079.227-.091.32.123.493-.142.695-.407.897-.717.379-2.112 1.189-2.43 1.43-.16.122-.452.178-.598.205-.187-.025-.546.164-.811.366-.955.727-1.685 1.199-1.965 1.16-.187-.024-.187-.024-.106.082.12.159.015.24-.29.388-.253.109-1.13.609-1.86 1.08-2.614 1.739-2.773 1.86-3.715 2.494-.518.31-1.036.62-1.235.689-.147.027-.306.149-.319.242-.012.093-.212.162-.358.189-.387.043-1.498 1.224-1.284 1.396.081.106.387-.043.652-.244.318-.243.583-.445.73-.472.346-.096-1.458 1.277-2.612 2.072-.73.472-1.235.689-1.556.598-.414-.104-.467-.064-.384.376a.658.658 0 0 1-.889.593c-.093-.013-.053.04.08.106.175.119.11.252-.315.575-1.579 1.118-2.003 1.442-3.327 2.784-.768.753-1.442 1.517-1.455 1.61-.066.135-.16.122-.28-.037-.215-.172-.268-.132-.493.123-.171.215-.384.376-.57.35-.187-.024-.493.125-.677.433-.132.267-.291.388-.225.255.065-.134-.003-.334-.043-.387-.215-.172-.505.217-.581.778-.063.467-.116.507-.465.27-.267-.132-.414-.104-.533.07-.156.455-.525 1.07-.566 1.018l-.565-.743zm56.308-66.912c.253-.109.253-.109-.068-.2-.467-.063-.52-.023-.359.19.134.065.32.09.427.01zm1.279 3.55c.225-.254.237-.348-.136-.398-.187-.026-.414-.104-.468-.064-.04-.053-.065.134-.09.32.03.48.35.572.694.143zm-.986 2.008c.147-.028.119-.174-.015-.24-.121-.16-.267-.132-.28-.038-.013.093.015.24.015.24.04.053.227.078.28.038zm-3.907-3.812c.106-.081.131-.268.09-.321-.214-.172-.507-.116-.492.124-.038.28.23.411.402.197zm9.39 19.16c.213-.162.344-.43.317-.576-.028-.147-.28-.038-.505.217-.556.59-.354.856.189.358zm-1.72 1.812c.106-.081.147-.028.122.159-.026.187.002.333.015.24.053-.04.212-.162.411-.23.2-.068.212-.161.026-.187-.187-.025-.175-.118.025-.186.2-.069.172-.215-.136-.399-.47-.397-1.306.156-.93.54.174.118.361.144.467.063zM11.02 156.7c.2-.068.22-.922.006-1.094-.08-.106-.227-.078-.28-.038-.053.04.015.24.136.4.215.171.162.211-.065.133-.187-.025-.334.002-.36.19.003.333.311.517.564.409zm-2.778 2.953c-.295-.278-.535-.263-.533.07.015.24.323.425.576.316.146-.027.078-.227-.043-.386zm.424-.323c-.12-.16-.308-.185-.32-.091-.106.08-.079.227.015.24.08.106.227.078.32.09.094.013.106-.08-.015-.24zm1.478-2.13c.081.105.147-.028.079-.228-.164-.545-.884-.5-1.293.063-.622.724-.377 1.376.272.798.212-.162.49-.457.556-.591a.366.366 0 0 1 .386-.043zm8.28 12.967c.106-.081.119-.174.026-.187-.04-.053-.134-.066-.28-.038-.147.028-.16.121-.026.187.093.012.227.078.28.038zm-3.886-.812c.053-.041.079-.228-.002-.334-.08-.106.184-.308.624-.391.545-.164.904-.353 1.313-.916.29-.389.488-.79.448-.843-.04-.053-.187-.025-.24.015-.106.081-.147.028-.228-.078-.055-.293-.494-.21-.532.07-.026.187.015.24.255.225.24-.015.24-.015.12.159-.105.081-.29.389-.462.603l-.29.389-.018-.573c.049-.707-.325-.758-.613-.036-.197.402-.263.535-.49.457-.134-.066-.134-.066.012-.093.147-.028.2-.068.12-.174-.082-.107-.294.055-.506.216-.384.377-.344.43.21 1.266.133.065.226.078.28.038zm-2.097-2.425c.121.159.255.224.268.131.012-.093-.162-.212-.296-.278-.174-.119-.134-.066.028.147zm-1.537-2.35c.253-.108.225-.254.104-.414-.081-.106-.215-.171-.268-.13-.053.04-.16.12-.359.188-.2.069-.171.215-.09.321.214.172.4.197.613.036zm2.728 4.795c.161.212.348.237.401.197.16-.122-.472-.73-.886-.834-.134-.066-.333.002-.305.149-.038.28.217.505.376.384.065-.134.24-.015.414.104zm-.528.737c.12.159.32.091.48-.03.277-.296.197-.402-.258-.559-.414-.103-.558.258-.222.589zM.454 157.789c-.106.08-.025.187.015.24.08.106.227.078.28.038.106-.081.026-.187-.015-.24-.08-.106-.174-.119-.28-.038zm8.85 10.523c.093.013.199-.068.224-.255.066-.134-.028-.146-.187-.025-.025.187-.131.268-.038.28zm-5.875-4.745c-.068-.199.038-.28.318-.242.467.064.733-.138.371-.282-.227-.079-.227-.079.107-.081.186.025.545-.164.717-.379.33-.335.384-.376-.124-.492-.414-.104-.666.005-1.21.502-.649.578-.661.671-.366.95.202.264.255.224.187.025zm7.46 10.241c.227.078.2-.068-.083-.44-.283-.371-.416-.437-.576-.316-.171.215.205.599.66.756zm-1.146.035c.053-.041.025-.187.038-.281-.028-.146-.121-.159-.227-.078-.107.081-.079.227-.038.28.133.066.227.079.227.079zm-9.191-8.001c-.056-.293-.308-.185-1.197.408-.955.727-1.337 1.436-.579 1.111.2-.068.16-.121.025-.187-.28-.038.834-.886 1.433-1.09.24-.015.346-.096.318-.242zm7.434 12.187c.119-.175.091-.321-.043-.387-.133-.066-.2.068-.224.255.03.48.07.533.267.132zm-2.469-2.143c.16-.121.372-.282.465-.27.094.013.346-.096.412-.229.159-.122.305-.149.293-.056.027.147.134.066.252-.108.37-.616-.1-1.013-.563-.41a.72.72 0 0 1-.492.124c-.28-.038-.44.083-.571.351-.131.267-.278.295-.412.229-.08-.106-.227-.078-.2.068-.05.374.538.597.816.301zm-7.43-8c.12.159.267.131.28.038a.706.706 0 0 0-.096-.346c-.08-.106-.227-.078-.28-.038-.053.04-.026.187.095.346zm-5.383 4.265c.467.064.545-.164.25-.441-.336-.331-.722-.289-.76-.008-.038.28.136.399.51.449zm5.372 9.149c.121.159.308.184.32.091.107-.081.079-.227-.014-.24-.081-.106-.268-.132-.321-.091-.147.028-.16.121.015.24zm-7.87 5.07c.053-.041.025-.187.037-.281-.027-.146-.12-.159-.227-.078-.106.081-.078.227-.038.28.134.066.174.119.228.079zm-8.993-6.309c.147-.028.16-.121.026-.187-.081-.106-.228-.079-.28-.038-.107.081-.12.174-.026.187.04.053.187.025.28.038zm-24.46 15.856c.053-.041.025-.187-.015-.24-.028-.147-.121-.159-.227-.079-.106.081-.079.228.015.24.08.106.174.119.227.079zM9.382 132.729c-.053.04-.2.068-.28-.038-.081-.107-.068-.2.025-.187.146-.028.24-.015.28.038.04.053.028.146-.025.187zM9.8 131.406c-.107.08-.135-.066-.056-.293.131-.268.184-.308.252-.109.028.147-.09.321-.197.402zM66.162 109.361c.121.159.109.252.015.239-.146.028-.24.016-.28-.038-.04-.053-.028-.146-.015-.239.066-.134.2-.069.28.038zM66.521 109.171c.106-.08.2-.068.28.038.081.106.068.2.015.24-.106.081-.2.068-.28-.038-.04-.053-.068-.199-.015-.24zM66.342 108.386c.187.025.346-.096.318-.242.013-.094.094.012.15.305.204.599-.05.707-.506.217-.214-.172-.202-.265.038-.28zM70.024 106.839c.081.107.109.253.056.293-.106.081-.16.122-.2.069-.04-.054-.027-.147-.055-.293.025-.187.119-.175.2-.069zM66.412 79.091c-.147.028-.08-.106.184-.308.172-.214.319-.242.253-.108-.119.174-.29.389-.437.416zM69.052 77.166c-.107.08-.253.108-.334.002-.08-.106-.068-.2.05-.374.107-.08.253-.108.334-.002a.287.287 0 0 1-.05.374zM80.933 88.48c-.402-.196-.402-.196-.257-.557.131-.268.225-.255.414.103.363.478.244.652-.157.455zM70.238 77.184c-.159.121-.358.19-.399.136-.08-.106-.068-.2.05-.374.107-.08.307-.148.4-.136.08.106.068.2-.05.374zM81.204 87.185c.278-.295.411-.23.267.132-.065.134-.225.255-.318.242-.134-.066-.068-.2.05-.374zM83.224 88.078c.254.225.322.424.244.651-.09.32-.184.308-.735-.194-.335-.331-.578-.65-.578-.65-.015-.24.68-.098 1.068.193zM72.1 76.437c.134.066.12.16.015.24-.106.08-.306.149-.4.136-.133-.065-.12-.159-.014-.24.159-.12.265-.202.399-.136zM82.004 87.246c-.08-.106-.068-.2.091-.32.106-.081.212-.162.253-.109.04.053.027.147-.091.32-.12.175-.12.175-.253.11zM83.07 87.105c.106-.08.212-.161.252-.108.04.053-.025.187-.09.32-.066.134-.172.215-.253.109-.04-.053-.068-.2.09-.32zM74.064 77.036c-.21.495-.21.495-.374-.05-.313-.851-.608-1.13-.59-.556.03.48-.102.747-.357.522-.08-.106-.042-.386-.004-.666.103-.414.21-.495.53-.404.227.078.52.023.68-.098.224-.255.265-.202.254.225.056.293-.008.76-.139 1.027zM83.683 87.141c.24-.015.243.318-.01.427-.2.068-.2.068-.214-.172.012-.094.131-.268.224-.255zM82.879 84.653c.053-.04.225-.255.303-.482.132-.268.29-.389.57-.35.334-.003.375.05.324.424-.116.507.26.891.833.874.386-.043.374.05-.063.467-.45.51-1.023.527-.813.032.065-.133-.03-.48-.245-.651-.295-.278-.389-.29-.573.017-.25.442-.304.482-.427-.01.013-.093.038-.28.09-.32zM74.77 74.991c-.051.374-.263.535-.306.15-.04-.054.078-.228.237-.35.119-.173.16-.12.068.2zM80.648 80.403c-.093-.013-.133-.066-.161-.213.013-.093.078-.227.09-.32.107-.081.147-.028.162.212.068.2.003.333-.09.32zM80.636 78.736c-.106.08-.2.068-.28-.038-.08-.106-.068-.2-.015-.24.106-.08.2-.068.28.038.094.013.121.16.015.24zM80.847 76.481c.144-.361.263-.535.45-.51.186.025.214.172.03.48-.37.616-.756.659-.48.03zM82.248 78.431c-.094-.013-.081-.106.078-.227.16-.121.212-.162.187.025-.066.134-.172.215-.265.202zM83.381 78.49c-.012.093-.131.267-.343.429l-.318.242.156-.455c.25-.441.503-.55.505-.216zM79.874 78.395c.106-.081.2-.068.24-.015.04.053.028.146-.079.227-.106.08-.2.068-.24.015-.04-.053-.027-.146.079-.227z"/></g><g opacity=".25"><path d="M46.04 125.066c-.395.069-.603.037-.572-.171.043-.143-.034-.197-.22-.097-.12.089-.317.123-.405.003-.078-.054-.417-.063-.68-.017-.251.112-.525.092-.537.026-.023-.131-1-.299-1.25-.187-.067.011-.044.143-.02.274.022.131.177.24.296.151.132-.023.197-.034.143.043-.054.077-.394.069-.822-.06-.429-.127-.965-.101-1.282.022-.449.146-.514.157-.637-.16-.046-.262-.2-.37-.398-.336-.197.034-.24.177-.15.297.088.12.045.262-.086.285-.131.023-.209-.03-.177-.24a.32.32 0 0 0-.2-.37c-.143-.043-.198.034-.043.142.154.109.1.186-.306.19-.274-.02-.548-.04-.625-.095-.077-.054-.351-.074-.668.05-.317.123-.591.103-.603.037-.011-.066-.517-.248-1.077-.353-.56-.105-1.142-.342-1.23-.462-.09-.12-.464-.325-.75-.41-.285-.086-.57-.171-.528-.314.054-.077-.1-.186-.297-.151-.328.057-.34-.008-.023-.131.448-.146.414-.344-.192-.711-.386-.271-.397-.337-.235-.568.174-.166.163-.232-.023-.132-.13.023-.262.046-.208-.031.054-.077-.112-.251-.332-.348-.22-.097-.957-.442-1.616-.733-.88-.387-1.2-.67-1.18-.944-.035-.197-.135-.383-.2-.371-.252.111-.764-.882-.524-1.06.12-.088.042-.142-.178-.239-.208-.031-.297-.151-.254-.294.043-.143-.046-.263-.177-.24-.143-.042-.232-.162-.309-.216-.023-.132.043-.143.109-.155.077.055.262-.046.36-.266.162-.231.227-.243.13-.023-.042.143.135.383.42.469.583.236.812-.007.295-.255-.22-.097-.386-.27-.398-.337-.068-.394-.234-.568-.628-.499-.329.058-.383.135-.337.397.192.711-1.287-1.94-1.713-3.22-.123-.316-.377-.61-.532-.719-.22-.097-.343-.413-.377-.61-.015-.472-.558-1.257-1.441-2.05-.397-.336-.509-.588-.4-.742.12-.088.062-.417-.05-.668-.523-1.059-1.027-2.392-.841-2.492.065-.012-.015-.471-.238-.974-.235-.568-.37-.95-.238-.974.197-.034.151-.297-.052-1.073-.046-.263-.003-.406.205-.375.209.032.263-.045.174-.165-.185.1-.328.057-.46.08-.185.1-.311-.622-.272-1.17.009-.34.04-.549-.106-.997-.035-.197.02-.274.15-.297.144.042.186-.1.098-.22-.023-.131-.166-.174-.22-.097-.054.077-.209-.031-.243-.228-.035-.197-.003-.406.062-.417.132-.023.097-.22-.08-.46-.177-.24-.212-.437-.015-.471.132-.023.174-.166.097-.22-.077-.054-.034-.197.086-.286.12-.088.108-.154-.143-.042-.448.146-.617-.434-.18-.646.305-.188.348-.331.105-.56-.355-.479-.435-.939-.153-1.259.294-.254.294-.254-.069-.394-.362-.14-.362-.14-.157-.514.151-.297.17-.571-.006-.81-.29-.492-.304-.963.047-.889.066-.011.24-.177.283-.32.128-.428.04-.548-.277-.425-.132.023-.352-.074-.518-.248-.265-.36-.214-.842-.029-.943.066-.011-.015-.47-.16-.919-.158-.514-.238-.974-.184-1.05.054-.078.028-.615-.141-1.194-.169-.58-.272-1.17-.23-1.314.117-.494.01-1.49-.273-2.727-.353-1.63-.364-1.696-.008-2.367.217-.309.237-.583.183-.506-.197.035-.658-1.441-.561-1.661.054-.077-.046-.263-.212-.437-.166-.174-.223-.502-.18-.645.03-.209.005-.745-.153-1.26-.157-.513-.238-.973-.195-1.116.043-.143-.038-.602-.184-1.05-.383-1.422-.424-2.43-.173-2.542.131-.023.12-.089-.089-.12-.285-.085-.308-.217-.403-1.148-.038-.602-.267-1.915-.594-3.009-.392-1.082-.564-2.067-.51-2.144.043-.143-.015-.471-.138-.788-.123-.317-.18-.645-.072-.8.174-.165.163-.231-.023-.131-.131.023-.285-.086-.385-.271-.123-.317-.058-.328.294-.254.362.14.362.14.174-.166-.42-.468-1.147-2.304-.85-2.153.166.174.22.097.24-.177.062-.417.05-.483-.332-.348-.197.034-.44-.194-.675-.762-.211-.437-.554-.85-.709-.959-.428-.128-.608-.773-.638-1.716.048-.888-.116-2.213-.349-3.932-.126-.722-.11-1.402-.055-1.479.12-.088.097-.22-.123-.317s-.309-.216-.32-.282l-.023-.132c-.266-.36-.4-.742-.292-.896.131-.023.097-.22-.003-.405a1.136 1.136 0 0 1-.115-.657.965.965 0 0 0-.192-.711c-.243-.228-.2-.371-.003-.406.197-.034.228-.243.182-.505l-.126-.723c-.023-.131-.189-.305-.254-.294-.143-.042-.178-.24-.224-.502.009-.34-.08-.46-.188-.305-.12.088-.197.034-.178-.24.009-.34.009-.34.175-.166.088.12.242.228.308.217.066-.012.232.163.266.36.046.262.212.436.409.402.131-.023.262-.046.12-.089a.203.203 0 0 1-.046-.262c.174-.166-.184-1.051-.616-1.585-.165-.174-.034-.197.263-.046.583.237.703.148.677-.389.02-.274.116-.494.193-.44.143.043.197-.034.174-.165-.022-.132.097-.22.283-.32.328-.058.437-.212.325-.463-.123-.317-.2-.371-.363-.14-.108.154-.294.254-.37.2-.078-.054-.047-.262.062-.417.174-.166.27-.385.248-.517-.012-.066.074-.351.236-.583.271-.385.337-.397.634-.246.297.151.309.217.069.394-.174.166-.163.232.111.252.209.03.529.313.764.881.223.503.577.982.72 1.025.166.174.463.325.694.488.232.162.44.194.572.17.12-.088.208.032.123.317-.117.495.249 1.04.886 1.2.428.127.428.127.2.37-.108.154-.205.374-.194.44.023.131.089.12.143.043.054-.077.263-.046.417.062.232.163.352.074.554-.705.213-.715.19-.846-.05-.669-.24.178-.316.123-.397-.336-.057-.329-.157-.514-.354-.48-.263.046-.726-.28-.772-.542-.011-.065-.088-.12-.22-.097-.131.023-.197.035-.142-.042.054-.078-.058-.329-.224-.503-.343-.414-.526-1.464-.175-1.39.143.042.22.097.177.24-.074.35.335.753.972.912.56.106.56.106.24-.177-.232-.162-.498-.522-.532-.72-.112-.25-.346-.818-.558-1.255-.312-.622-.358-.885-.16-.92.13-.022.174-.165.008-.34-.089-.12-.146-.448-.104-.59.086-.286.152-.297.34.008.1.185.397.337.66.29.329-.057.429.129.686.828.146.448.435.94.59 1.048.308.217.285.085-.007-.811-.169-.58-.38-1.017-.512-.994a.143.143 0 0 1-.154-.108c-.012-.066-.355-.48-.686-.828-.618-.433-.883-.793-.83-.87.055-.077.12-.088.144.043.011.066.13-.023.305-.189.271-.386.225-.648-.092-.525-.12.088-.34-.009-.363-.14-.111-.251-.057-.328.523-.497.382-.135.688-.323.676-.39-.011-.065.097-.22.228-.242.197-.034.34.008.309.217.034.197-.14.363-.402.408-.263.046-.383.135-.294.255.231.162.086 1.27-.122 1.24-.143-.043-.197.034-.24.177-.043.142.22.096.603-.038.382-.135.622-.312.533-.432-.088-.12-.111-.251.009-.34.12-.088.085-.285-.004-.405-.177-.24-.177-.24.132-.023.154.108.354.48.346.82.038.602.512.993 1.026.835.263-.046.251-.111.043-.143-.417-.062-.686-.827-.447-1.004.12-.09.274.02.309.216.123.317.871.728.748.41-.011-.065.055-.076.209.032.231.163.286.086.337-.397.093-.626-.196-1.116-.478-.796-.12.088-.097.22-.02.274.077.054.1.185-.031.208-.131.023-.286-.085-.32-.282-.034-.197-.254-.294-.529-.314a.61.61 0 0 1-.494-.117c-.023-.131.109-.154.306-.188.208.03.317-.123.228-.243-.023-.132.008-.34.128-.429.12-.088-.023-.131-.363-.14-.548-.039-.69-.082-.725-.279.042-.142-.035-.197-.155-.108-.12.089-.185.1-.197.034-.011-.065-.111-.25-.211-.436-.089-.12-.058-.329.008-.34.131-.023.209.031.243.228s.177.24.309.217c.13-.023.108-.154.03-.209-.076-.054-.1-.185.032-.208a.509.509 0 0 1 .351.074c.143.043.286.085.34.008.12-.088.186-.1.209.031.011.066-.032.209-.151.298-.186.1-.097.22.188.305.22.097.529.314.629.5.432.533.548.039.202-.78-.323-.689-.335-.754.028-.615.22.097.386.271.343.414-.043.143.035.197.089.12.054-.077.262-.046.351.074.154.108.1.186-.043.143-.142-.043-.054.077.189.305.231.163.42.468.377.611-.042.143-.03.209.078.054.12-.088.34.009.505.183.332.348.332.348-.128.428-.328.057-.514.158-.502.223.023.132.154.109.208.031.054-.077.197-.034.351.074.089.12.298.152.483.051.186-.1.317-.123.351.074.023.132.178.24.309.217.131-.023.209.031.231.163.023.131.212.437.455.665.243.228.532.719.709.959.512.993.975 1.318 1.674 1.06.831-.28 1.114-.6 1.022-1.125-.058-.329.008-.34.36-.266.274.02.362.14.265.36-.108.154.112.25.54.379.626.094.626.094.426-.278-.19-.305-.2-.37.174-.165.451.26.648.225.514-.158-.046-.262-.046-.262.12-.088.088.12.242.228.385.27.143.043.309.217.432.534.312.623.454.665.857.257.402-.41.402-.41.56.105.145.448.211.436.856.256.383-.134.777-.203.788-.138.012.066.383-.134.808-.412.785-.543 1.31-.635.997-.106a.72.72 0 0 0-.117.494c.112.251.691.082.962-.303a.757.757 0 0 1 .491-.29c.34.01.352.075.038.603-.314.529-.628 1.057-.995 1.663-.477.76-1.457 2.894-1.423 3.091.023.132-.051.483-.202.78-.29.66-.053 1.633.748 3.118.289.49.48 1.202.55 1.596.026.536.037.602-.14.362-.112-.25-.155-.108-.063.417.08.46.215.843.292.897.077.054.189.305.092.525-.085.286.015.471.235.568.231.163.254.294.114.657-.193.44-.116.494.158.514.274.02.286.085.015.471-.163.232-.314.529-.248.517.2.371-.04.548-.468.42-.429-.128-.44-.193-.212-.436s.163-.232-.22-.097c-.317.123-.437.211-.29.66.134.382.288.49.682.422.537-.026.537-.026.343.413-.162.232-.117.495-.04.549.078.054.124.317.027.537-.151.297-.14.362.22.096.305-.188.382-.134.428.129.08.46-.07.756-.38.54-.165-.174-.285-.086-.359.266-.16.637.013 1.622.164 1.324.108-.154.128-.428.094-.625-.092-.525.07-.757.51-.563.22.097.417.062.537-.026.054-.077.197-.035.22.097.023.131-.074.351-.26.451-.185.1-.282.32-.236.583.035.197.17.58.204.777.123.316.068.394-.337.397-.34-.009-.394.069-.228.243a.32.32 0 0 1-.063.417c-.185.1-.15.297-.062.417s.297.15.482.05c.12-.088.263-.045.275.02.022.132.146.449.269.766.157.513.223.502.451.259.337-.397.394-.069.135.383-.152.297-.14.362.057.328.197-.035.22.097.003.405-.26.452-.202.78.05.669.13-.023.208.03.285.085.023.131-.109.154-.371.2-.537.026-.48.355.146.448.285.086.44.194.32.283-.12.089-.186.1-.274-.02-.023-.131-.143-.043-.174.166-.094.625.017.877.311.622.174-.166.317-.123.363.14.112.251.003.405-.314.528-.25.112-.316.123-.174.166.209.031.22.097-.008.34-.282.32-.282.32.112.251.317-.123.328-.057.057.329-.325.462-.325.462.146.448.471-.015.749.41.366.545-.131.023-.208-.031-.309-.217a.287.287 0 0 0-.308-.217c-.317.123-.04.549.366.546.34.008.34.008.046.262-.174.166-.229.243-.097.22.131-.023.208.031.22.097-.054.077.1.186.308.217.275.02.286.085.266.36-.031.208-.062.416-.05.482.01.066.068.394.071.8.095.93.107.996.187 1.456.035.197-.04.548-.136.768-.271.386-.017.68.431.534.383-.135.406-.003.235.568-.117.494-.068 1.162.213 1.993.111.251.06.734-.025 1.02-.14.362-.117.494.057.328.174-.166.252-.112.255.294.049.668.072.8.337 3.866.11 1.402.254 3.001.214 3.55.026.536.064 1.139.11 1.402.169.58.059 1.884-.161 1.787-.078-.054-.132.023-.12.09.023.13.165.173.243.227.494.117.551.445.609.774.006.81.084 2.421.153 2.815.035.197-.05.483-.094.626-.108.154-.105.56-.047.888.206 1.182.29 2.047.127 2.279-.108.154-.108.154.023.131.197-.034.22.097.212.437-.02.274.02 1.282.104 2.147.343 3.121.377 3.318.507 4.446.037.602.075 1.205.043 1.414-.042.142-.008.34.07.394.076.054.045.262.003.405-.14.363.398 1.893.65 1.781.13-.022.139-.362.081-.69-.068-.395-.126-.723-.083-.866.074-.351.464 1.882.64 3.272.083.865.043 1.414-.185 1.657-.282.32-.27.385.158.514.374.205.466.73.118 1.062-.055.077.011.065.13-.023.186-.1.275.02.367.545.267 1.916.359 2.441.943 4.234.314 1.028.684 1.979.761 2.033.088.12.034.197-.163.231-.25.112-.24.178-.116.494.111.252.157.514.05.669-.11.154-.118.494.071.8.177.239.211.436.123.316-.089-.12-.297-.151-.363-.14-.251.112-.04.549.423.874.386.27.397.336.026.537-.239.177-.282.32-.182.505.332.348.71.96.643.97l-.919.161zM12.501 44.3c.02-.274.02-.274-.208-.031-.271.385-.26.451.003.405.12-.088.228-.243.205-.374zm3.741.497c-.123-.317-.2-.372-.417-.063-.108.154-.282.32-.27.386-.066.011.088.12.242.228.44.194.669-.05.445-.551zm1.33 1.798c.043-.143-.1-.186-.22-.097-.197.034-.24.177-.163.231.077.054.22.097.22.097.066-.011.174-.166.163-.231zm-5.182 1.717c-.023-.131-.177-.24-.243-.228-.251.112-.336.397-.116.494.23.163.47-.015.36-.266zm21.333.468c-.046-.262-.224-.502-.366-.545-.143-.043-.163.232-.04.548.269.766.597.708.406-.003zm.818 2.361c-.023-.131.043-.143.197-.034.154.108.297.15.22.097a1.501 1.501 0 0 1-.015-.471c.032-.209-.045-.263-.154-.109-.108.155-.185.1-.154-.108.031-.209-.112-.251-.417-.063-.568.235-.462 1.232.052 1.074.186-.1.294-.254.271-.386zm-13.92 2.839c.032-.209-.716-.62-.967-.508-.132.023-.175.166-.163.232.011.065.22.097.417.062.251-.111.263-.046.089.12-.109.154-.152.297.003.406.297.15.602-.038.622-.312zm1.346 3.825c-.382.135-.48.355-.182.506.22.097.525-.092.545-.366.043-.143-.166-.174-.363-.14zm-.092-.525c-.197.034-.305.189-.228.243.023.131.166.174.22.097.132-.023.174-.166.228-.243.055-.077-.023-.132-.22-.097zm-1.212-2.292c.131-.023.043-.143-.166-.174-.56-.105-.85.554-.539 1.177.358.885 1.049.967.834.125-.046-.263-.18-.646-.269-.765a.367.367 0 0 1 .14-.363zm15.322-1.392c-.023-.131-.1-.186-.154-.108-.066.011-.12.088-.163.231-.042.143.035.197.155.108.054-.077.174-.165.162-.231zm-2.507 3.078c-.012-.066-.166-.174-.297-.152-.132.023-.19-.305-.061-.733.105-.56.102-.966-.21-1.588-.211-.437-.477-.796-.543-.785-.066.012-.108.154-.097.22.023.132-.043.143-.174.166-.286-.086-.414.343-.182.506.154.108.22.096.317-.124.096-.22.096-.22.197-.034.022.131.211.437.323.688l.211.437-.517-.248c-.605-.368-.822-.06-.313.528.266.36.354.48.18.645-.12.09-.12.09-.077-.054.043-.143.031-.208-.1-.185-.131.023-.086.285-.04.548.158.514.224.502 1.22.396.12-.089.174-.166.163-.231zm-3.118.747c.197-.034.317-.123.24-.177-.078-.054-.263.046-.383.135-.186.1-.12.088.143.042zm-2.793.285c.02-.274-.123-.316-.32-.282-.131.023-.251.112-.24.177.012.066.035.197.004.406-.032.208.111.25.243.228.25-.112.36-.266.313-.529zm5.512-.218c.262-.046.37-.2.36-.266-.035-.197-.866.083-1.149.403-.12.09-.15.298-.008.34.232.163.548.04.514-.157-.089-.12.097-.22.283-.32zm.411.808c.197-.035.229-.243.194-.44-.134-.383-.266-.36-.614-.028-.282.32-.028.614.42.468zm-16.758 5.568c.023.13.154.108.22.096.131-.022.174-.165.163-.231-.023-.131-.155-.108-.22-.097-.132.023-.186.1-.163.232zm13.414-3.021c.054-.077.03-.209-.123-.317-.09-.12-.143-.043-.109.154.154.109.177.24.232.163zm-6.914 3.035c-.209-.031-.232-.162-.07-.394.272-.386.214-.714-.08-.46-.174.166-.174.166-.023-.13.109-.155.106-.56-.006-.812-.146-.448-.157-.514-.494-.117-.283.32-.302.595-.11 1.306.214.842.292.896.674.762.329-.058.317-.124.109-.155zm12.523-1.918c.174-.165.031-.208-.428-.128-.46.08-.58.17-.546.366.112.251.626.094.974-.238zm-.496 1.035c-.011-.066-.154-.109-.231-.163-.143-.043-.197.034-.174.166.022.131.165.174.23.162.12-.088.175-.165.175-.165zm-11.33 4.484c-.286-.086-.306.188-.188 1.25.207 1.183.661 1.848.72 1.025.032-.208-.034-.197-.154-.108-.162.231-.403-1.148-.31-1.773.097-.22.074-.352-.069-.394zm14.24-1c-.1-.185-.243-.228-.363-.14-.12.089-.031.209.123.317.44.194.506.183.24-.177zm-3.038 1.208c-.034-.197-.08-.46-.026-.537.055-.077.074-.352-.014-.471-.035-.197.008-.34.085-.286.143.043.12-.089.02-.274-.378-.611-.946-.376-.622.312a.72.72 0 0 1-.117.494c-.163.231-.128.428.049.668.177.24.135.382.015.471-.132.023-.174.166-.032.209.309.216.777-.204.642-.586zm-10.52 2.921c.197-.034.24-.177.162-.231a.704.704 0 0 0-.351-.074c-.131.023-.174.165-.163.231.012.066.155.108.352.074zm1.313 6.741c.271-.386.105-.56-.277-.425-.449.146-.588.509-.357.671.232.163.417.063.634-.246zm10.594-.565c.197-.035.306-.189.228-.243-.023-.132-.165-.174-.22-.097-.13.023-.24.177-.228.243-.043.143.035.197.22.097zm.884 9.32c-.011-.066-.154-.108-.231-.163-.143-.042-.197.035-.174.166.023.132.166.174.231.163.12-.089.186-.1.174-.166zm-9.736 5.085c.043-.142-.035-.197-.154-.108-.132.023-.175.166-.163.231.023.132.1.186.154.109.066-.012.109-.155.163-.232zm2.836 29.012c-.011-.066-.154-.109-.22-.097-.142-.043-.197.034-.174.166.023.131.166.174.22.097.132-.023.186-.1.174-.166zM86.373 56.72c.011.066-.031.208-.163.231-.13.023-.208-.03-.154-.108.043-.143.097-.22.163-.231a.143.143 0 0 1 .154.108zM85.39 55.741c.023.132-.12.089-.286-.085-.177-.24-.189-.306.02-.274.143.042.243.228.266.36zM91.723-4.447c.197-.035.274.02.22.096-.042.143-.097.22-.162.232-.066.011-.143-.043-.22-.097-.089-.12.031-.209.162-.231zM91.72-4.853c-.023-.131.031-.209.163-.231.131-.023.208.03.22.096.023.132-.031.209-.163.232-.065.011-.208-.031-.22-.097zM90.94-5.055c.109-.154.074-.351-.068-.394-.078-.054.054-.077.34.008.625.094.605.368-.04.548-.251.112-.329.058-.232-.162zM91.26-9.036c.131-.023.274.02.285.085.024.132.035.197-.03.209-.066.011-.143-.043-.286-.086-.155-.108-.1-.185.03-.208zM64.957-18.584c-.043.143-.131.023-.189-.306-.111-.25-.069-.394.02-.274.1.186.212.437.169.58zM64.46-21.814c.023.132-.02.275-.15.297-.132.023-.21-.03-.31-.216-.022-.132.02-.274.152-.297a.287.287 0 0 1 .308.216zM79.97-27.163c-.359.265-.359.265-.613-.029-.177-.24-.123-.316.282-.32.591-.103.691.083.332.349zM65.022-22.86c.034.198.003.406-.063.418-.13.023-.208-.032-.308-.217-.023-.131.008-.34.062-.417.132-.023.209.031.309.217zM78.945-28c-.135-.382-.015-.47.24-.177.088.12.123.317.069.394-.12.089-.209-.03-.309-.216zM80.666-29.383c.317-.123.525-.092.691.082.243.229.189.306-.51.563-.449.146-.843.215-.843.215-.22-.097.225-.648.662-.86zM65.215-24.855c.12-.09.197-.035.22.096.022.132-.009.34-.063.417-.12.089-.197.035-.22-.096-.034-.198-.057-.329.063-.417zM79.367-28.682c-.131.023-.208-.032-.243-.229-.023-.13-.046-.262.02-.274.066-.011.143.043.243.229.1.185.1.185-.02.274zM79.732-29.693c-.023-.132-.046-.263.02-.275.065-.011.154.109.243.229.088.12.111.25-.02.274-.066.011-.209-.031-.243-.228zM66.65-26.325c.343.414.343.414-.217.31-.9-.114-1.282.02-.765.268.44.194.617.434.3.557-.131.023-.363-.14-.594-.303-.32-.282-.343-.413-.115-.656a.795.795 0 0 0 .225-.649c-.123-.317-.057-.328.317-.123.286.086.671.357.849.596zM80.046-30.222c.096-.22.393-.069.374.205-.031.209-.031.209-.251.112-.078-.054-.178-.24-.123-.317zM77.466-30.651a1.332 1.332 0 0 0-.288-.491c-.178-.24-.212-.437-.05-.668.152-.297.217-.309.526-.092.397.337.911.18 1.16-.338.139-.363.216-.309.385.271.246.634-.002 1.15-.345.737-.089-.12-.44-.194-.691-.082-.383.134-.437.212-.248.517.277.425.289.49-.206.374-.077-.054-.231-.162-.242-.228zM65.158-27.891c.308.217.354.48-.009.34-.065.011-.165-.174-.2-.371-.1-.186-.034-.197.209.03zM72.666-30.624c-.054.077-.12.088-.263.045-.077-.054-.165-.174-.243-.228-.022-.131.043-.143.263-.046.209.032.297.151.243.229zM71.18-31.38c.023.131-.03.209-.162.231-.131.024-.209-.03-.22-.096-.023-.132.031-.209.162-.232.055-.077.198-.034.22.097zM69.275-32.603c-.255-.294-.355-.48-.246-.634.108-.154.25-.112.44.194.377.61.237.973-.194.44zM71.65-32.95c-.054.076-.13.022-.165-.175-.035-.197-.046-.263.108-.154.089.12.112.25.057.328zM72.224-33.93c.077.053.177.239.223.501l.069.395-.332-.349c-.277-.425-.257-.699.04-.548zM70.527-30.86c-.023-.131.031-.208.097-.22.066-.011.143.043.166.174.023.132-.032.209-.097.22-.066.012-.143-.042-.166-.174z"/></g></g><path d="M20.002 21.995c1.749 0 3.497.007 5.246 0 .869-.006 1.58-.718 1.721-1.711.137-.924-.377-1.867-1.174-2.18a1.737 1.737 0 0 0-.59-.106h-10.41c-1.028 0-1.804.868-1.804 2.005.011 1.124.782 1.986 1.798 1.992 1.738.007 3.476 0 5.213 0z" fill="#fefefe"/></svg>