<svg xmlns="http://www.w3.org/2000/svg" width="40" height="40" fill="none"><g transform="translate(-59.973 -44.975)" filter="url(#filter0_d)"><circle r="20" transform="matrix(-1 0 0 1 80 65)" fill="url(#paint0_linear)"/></g><mask id="a" maskUnits="userSpaceOnUse" x="60" y="45" width="40" height="40"><circle r="20" transform="matrix(-1 0 0 1 80 65)" fill="url(#paint1_linear)"/></mask><g mask="url(#a)" transform="translate(-59.973 -44.975)" fill="#fff"><g opacity=".25"><path d="M19.584 145.952c-.243-.318-.31-.518-.111-.586.146-.028.159-.121-.015-.24-.134-.065-.255-.225-.19-.358.013-.094-.136-.399-.297-.612-.215-.171-.323-.424-.27-.464.106-.081-.194-1.026-.409-1.197-.04-.053-.146.027-.253.108-.106.081-.13.268.003.333.08.107.121.16.028.147-.094-.013-.243-.318-.326-.758-.083-.439-.353-.904-.608-1.129-.336-.331-.376-.384-.151-.639.212-.161.237-.348.116-.507-.121-.159-.267-.132-.333.002s-.212.162-.293.056c-.08-.107-.068-.2.131-.268.147-.028.265-.202.238-.348-.028-.147-.121-.16-.147.027-.025.187-.118.174-.308-.184-.108-.253-.217-.505-.204-.599.013-.093-.096-.346-.35-.571-.256-.224-.364-.477-.311-.517.053-.041-.018-.574-.181-1.119-.164-.546-.222-1.172-.156-1.306.065-.133.076-.56.02-.853-.055-.293-.11-.586.036-.614.093.013.118-.174-.003-.333-.202-.265-.149-.306.106-.081.336.331.495.21.543-.497.064-.467.117-.508.397-.47.227.079.28.038.106-.08-.08-.106-.161-.213-.068-.2.094.013.172-.214.157-.454-.015-.24-.048-1.053-.093-1.773-.06-.96.044-1.374.296-1.482.16-.121.278-.296.238-.349-.215-.171.432-1.083.7-.951.133.065.146-.028.13-.268-.067-.199-.001-.333.145-.361.147-.028.212-.161.131-.268-.027-.146.038-.28.051-.373.106-.081.147-.028.187.025-.013.093.161.212.401.197.28.038.321.091.081.106-.146.028-.278.296-.222.589.058.626.378.717.36.144-.014-.24.064-.468.117-.508.318-.242.397-.469.154-.788-.201-.265-.295-.278-.507-.116-.543.497 1.132-2.035 2.072-3.002.225-.255.369-.616.394-.803-.015-.239.21-.494.369-.616.412-.229.859-1.072 1.157-2.221.117-.508.289-.722.475-.697.134.066.4-.136.571-.351.7-.951 1.652-2.012 1.827-1.893.04.053.411-.23.755-.659.397-.469.675-.765.755-.658.121.159.333-.003.93-.54.212-.162.358-.19.427.01.068.199.161.212.227.078-.175-.119-.202-.265-.283-.371-.174-.119.41-.563.914-.78.306-.149.506-.217.837-.553.159-.121.252-.108.333-.002.028.146.174.119.24-.015.106-.081.078-.227-.015-.24-.094-.013-.068-.2.09-.321.16-.121.36-.189.4-.136.08.106.24-.015.371-.283.132-.267.29-.388.412-.229.08.106.227.078.24-.015.012-.094.159-.121.293-.056.133.066.186.026-.028-.146-.336-.331.101-.748.49-.457.308.184.454.157.545-.164.263-.535.635-.818 1.049-.714.36.144.36.144.318-.242-.043-.387-.043-.387.384-.377.333-.002.586-.11.717-.378.303-.482.715-.712.811-.366.04.053.268.132.414.104.44-.083.505-.217.25-.442-.08-.106-.096-.346-.017-.573.197-.402.649-.578.823-.459.04.053.412-.23.743-.566.384-.376.755-.659.849-.646.093.013.558-.257.995-.674.437-.416.914-.78 1.06-.807.493-.124 1.33-.677 2.297-1.497 1.285-1.062 1.338-1.103 2.098-1.095.374.051.627-.058.533-.07-.12-.16.978-1.247 1.218-1.263.093.013.212-.161.29-.388.079-.228.344-.43.49-.457.2-.068.665-.338 1.049-.714.384-.377.755-.66.902-.687.146-.028.517-.31.848-.646 1.086-.995 1.963-1.494 2.177-1.322.081.106.134.065.066-.134-.055-.293.05-.374.834-.886.518-.31 1.579-1.118 2.4-1.91.78-.846 1.576-1.452 1.67-1.44.146-.027.411-.229.636-.484.225-.255.49-.457.677-.432.227.079.28.038.106-.08-.08-.106-.056-.293.063-.467.225-.255.265-.202.361.144.043.386.043.386.227.078.223-.588 1.519-2.078 1.521-1.744-.078.227.015.24.268.131.399-.136.452-.176.157-.454-.122-.16-.03-.48.366-.95.29-.388.5-.883.526-1.07-.083-.44.407-.896 1.23-1.356.81-.365 1.912-1.12 3.332-2.117.583-.444 1.194-.742 1.288-.73.134.067.24-.014.225-.254-.015-.24.05-.374.103-.414l.106-.081c.198-.401.476-.697.662-.671.081.106.24-.015.359-.19.119-.174.331-.335.53-.404.2-.068.412-.23.544-.497.09-.32.237-.348.358-.189.121.16.32.091.533-.07l.584-.445c.106-.08.184-.308.144-.36-.028-.147.131-.268.343-.43.306-.149.372-.282.185-.308-.134-.066-.121-.159.131-.267.306-.15.306-.15.227.078-.065.134-.09.32-.05.374.04.053-.038.28-.197.401-.213.162-.291.389-.17.548.08.106.162.212.134.066a.203.203 0 0 1 .212-.162c.227.078.849-.646 1.124-1.275.079-.227.16-.12.162.213.058.626.191.691.656.421.253-.108.493-.123.48-.03.028.147.121.16.227.079.106-.081.24-.015.414.103.202.266.39.291.561.076.225-.255.237-.348-.043-.386-.187-.025-.36-.144-.348-.237.012-.094.212-.162.399-.137.227.079.467.064.573-.017.053-.04.346-.096.626-.058.467.063.508.116.51.45.003.333-.05.373-.318.242-.227-.078-.28-.038-.172.215.068.2-.035.613-.432 1.083-.344.429-.607.964-.579 1.11-.078.228-.076.561-.114.841-.038.28.03.48.111.586.134.066.068.2-.225.255-.492.124-.808.7-.657 1.338.083.44.083.44-.237.349-.187-.026-.427-.01-.48.03-.106.08-.066.134.028.146.093.013.161.212.136.4-.038.28.096.345.881.166.732-.138.838-.219.57-.35-.267-.132-.254-.225.117-.508.265-.202.384-.376.263-.535-.162-.212-.086-.773.127-.934.053-.04.065-.134-.015-.24-.081-.106-.122-.16-.028-.147.093.013.265-.202.343-.429.21-.495 1.059-1.14 1.155-.795.028.147.015.24-.132.268-.346.096-.515.643-.364 1.282.164.546.164.546.268.132.038-.28.235-.682.394-.803.172-.215.569-.684.86-1.073.408-.563.62-.724.742-.565.08.106.227.078.305-.15.066-.133.331-.335.478-.362.293-.056.333-.003.149.305-.12.174-.117.508.045.72.202.265.083.44-.42.99-.33.335-.634.817-.66 1.004-.05.374.056.293.718-.378.437-.417.728-.805.647-.912a.143.143 0 0 1 .025-.186c.053-.04.263-.536.42-.99.101-.748.298-1.149.392-1.136.093.012.133.065.027.146-.053.04.081.106.308.185.467.063.68-.099.425-.323-.134-.066-.15-.306-.043-.387.172-.214.265-.202.682.235.295.278.603.463.656.422.053-.04.24-.015.32.091.122.16.15.306-.05.374-.16.121-.386.043-.548-.17-.161-.212-.295-.277-.36-.143-.039.28-1.09.66-1.158.461-.027-.146-.12-.159-.267-.131-.147.028.015.24.31.518.295.277.563.409.629.275.065-.134.172-.215.305-.149.134.066.293-.055.36-.19.13-.267.13-.267.08.107-.026.187-.263.535-.569.684-.517.31-.646.911-.27 1.295.161.213.214.172.146-.027-.136-.4.42-.99.687-.859.134.066.109.253-.05.374-.225.255-.246 1.109-.02.854.052-.04.093.012.067.2-.038.28.056.292.508.115.598-.204.901-.686.487-.79-.133-.065-.24.015-.252.109-.013.093-.119.174-.2.068-.08-.106-.055-.293.104-.414.16-.121.144-.361.036-.614a.61.61 0 0 1-.124-.492c.106-.081.187.025.308.184.068.2.255.225.32.091.107-.08.306-.149.44-.083.134.066.106-.08-.043-.386-.217-.505-.244-.652-.085-.773.146-.028.159-.121.025-.187s-.174-.119-.121-.159c.053-.04.172-.215.29-.389.066-.134.266-.202.306-.149.081.106.068.2-.09.321-.16.121-.132.268-.052.374.081.106.187.025.2-.068.013-.094.119-.175.2-.068a.51.51 0 0 1 .095.345c.028.147.056.293.15.306.133.066.173.119.067.2-.053.04-.2.068-.333.002-.174-.119-.24.015-.185.308.016.24-.035.614-.154.788-.275.628.217.505.786-.18.462-.602.515-.643.558-.256.015.24-.064.467-.21.494-.147.028-.16.121-.066.134.094.013.162.212.096.346-.025.187-.119.174-.146.028-.028-.147-.094-.013-.185.308-.038.28-.222.588-.369.616-.146.028-.2.068-.012.093.133.066.148.306.07.533-.157.455-.157.455-.44.083-.201-.265-.376-.384-.429-.343-.106.08-.025.187.069.2.093.012.12.158.095.345-.065.134.003.334.177.452.174.12.255.225.096.346a.287.287 0 0 0-.05.374c.08.106.067.2-.039.28-.106.081-.29.389-.381.71-.091.32-.395.803-.526 1.07-.647.912-.723 1.472-.173 1.975.631.609 1.046.712 1.47.39.265-.203.305-.15.401.196.109.253.043.387-.197.402-.187-.026-.172.214-.088.654.204.598.204.598.441.25.185-.308.238-.348.228.078-.023.52.098.68.376.384.212-.161.212-.161.133.066a.804.804 0 0 0-.063.467c.028.147-.05.374-.275.629-.41.563-.382.71.166.879.548.169.548.169.164.545-.331.336-.29.389.166.879.296.278.538.596.485.636-.053.04.295.278.737.529.843.447 1.166.871.553.836a.72.72 0 0 0-.493.123c-.172.215.245.652.712.715a.757.757 0 0 1 .482.303c.149.306.096.346-.518.31-.613-.035-1.227-.07-1.934-.119-.894-.073-3.24.037-3.399.158-.106.08-.452.176-.785.179-.72.045-1.475.704-2.425 2.097-.303.483-.847.98-1.165 1.222-.465.27-.518.31-.386.043.172-.215.025-.187-.4.136-.37.283-.648.578-.661.671-.013.094-.185.308-.424.324-.293.055-.412.229-.397.469-.038.28-.144.361-.53.404-.48.03-.493.123-.385.376.109.253.056.293-.411.23-.28-.038-.614-.036-.573.017-.238.348-.506.217-.589-.222-.083-.44-.03-.48.29-.389.321.091.281.038-.014-.24-.255-.225-.389-.291-.72.045-.278.295-.303.482-.06.801.27.464.27.464-.21.494-.28-.038-.493.124-.506.217-.012.094-.225.255-.465.27-.333.003-.386.043.016.24.308.185.295.278.083.44-.372.282-.705.285-.654-.089.078-.227-.056-.293-.402-.197-.639.151-1.434.757-1.101.755.187.025.44-.084.599-.205.424-.323.704-.285.734.195.015.24.136.399.27.465.094.012.121.159.015.24-.106.08-.346.095-.52-.023-.174-.119-.414-.104-.626.057-.16.122-.437.417-.596.538-.225.255-.319.242-.508-.116-.149-.306-.242-.319-.32-.091a.32.32 0 0 1-.4.136c-.174-.119-.333.002-.399.136-.065.134.003.333.177.452.134.066.162.212.109.253-.107.081-.331.335-.556.59-.384.377-.344.43-.023.521.507.116.242.318-.278.295-.333.002-.386.043-.265.202.12.159.015.24-.359.189-.52-.023-.785.179-.57.351.08.106.067.199.055.293-.106.081-.187-.026-.349-.238-.27-.464-.535-.263-.33.336.055.293.03.48-.104.414s-.175-.119-.109-.252c.106-.081-.028-.147-.227-.079-.599.204-.77.419-.41.563.228.078.256.225.043.386-.171.215-.358.19-.613-.035-.215-.172-.255-.225-.227-.078.068.199.015.239-.306.148-.414-.103-.414-.103-.172.215.255.225.202.265-.265.202-.56-.076-.56-.076-.33.336.229.411-.022.853-.317.575-.08-.106-.068-.199.05-.374.107-.08.132-.267.051-.373-.254-.225-.505.217-.315.575.148.306.148.306-.213.162-.227-.078-.32-.091-.24.015.081.106.069.199.016.24-.094-.013-.12.174-.051.374.108.252.055.293-.197.401-.2.068-.4.136-.452.177-.053.04-.319.242-.677.431-.783.512-.836.553-1.208.835-.159.122-.505.217-.745.232-.467-.063-.61.298-.275.629.295.278.19.359-.397.47-.492.123-1.063.474-1.672 1.105-.172.215-.624.391-.917.447-.386.042-.492.123-.265.202.227.078.215.171-.144.361-.57.35-.677.431-3.279 2.076-1.194.742-2.548 1.605-3.053 1.822-.465.27-.983.581-1.195.742-.437.417-1.647.919-1.662.679.013-.093-.08-.106-.134-.066-.106.081-.078.227-.09.321.123.492-.142.694-.407.896-.718.379-2.112 1.189-2.43 1.431-.16.121-.452.177-.599.204-.187-.025-.545.164-.81.366-.955.727-1.685 1.199-1.966 1.161-.186-.025-.186-.025-.106.081.121.159.015.24-.29.388-.253.109-1.13.609-1.86 1.08-2.613 1.739-2.773 1.86-3.715 2.494-.518.31-1.035.621-1.235.689-.146.027-.305.149-.318.242-.013.093-.212.162-.359.189-.386.043-1.498 1.224-1.283 1.396.08.106.386-.043.651-.244.319-.243.584-.445.73-.472.346-.096-1.457 1.277-2.611 2.072-.73.472-1.236.689-1.556.598-.414-.104-.467-.064-.384.376a.658.658 0 0 1-.89.593c-.093-.013-.052.04.082.106.174.119.108.252-.316.575-1.579 1.118-2.003 1.442-3.327 2.784-.768.753-1.443 1.517-1.455 1.611-.066.134-.16.121-.28-.038-.215-.172-.268-.132-.493.123-.172.215-.384.376-.57.351-.188-.025-.493.124-.678.432-.131.267-.29.388-.225.255.066-.134-.002-.334-.042-.387-.215-.172-.506.217-.582.778-.063.467-.116.507-.464.27-.268-.132-.414-.104-.533.07-.157.455-.526 1.071-.566 1.018l-.565-.743zM75.892 79.04c.252-.109.252-.109-.068-.2-.468-.063-.52-.023-.36.19.135.065.322.09.428.01zm1.278 3.55c.225-.254.238-.348-.136-.398-.187-.026-.414-.104-.467-.064-.04-.053-.066.134-.09.32.03.48.35.572.693.143zm-.985 2.008c.146-.028.119-.174-.015-.24-.121-.16-.268-.132-.28-.038-.013.093.014.24.014.24.04.053.228.078.28.038zm-3.908-3.812c.106-.081.132-.268.091-.321-.214-.172-.507-.116-.492.124-.038.28.23.411.401.197zm9.391 19.16c.213-.162.344-.43.316-.576-.027-.147-.28-.038-.505.217-.556.59-.354.856.19.358zm-1.72 1.812c.106-.081.147-.028.121.159-.025.187.003.333.015.24.053-.04.212-.162.412-.23.2-.068.212-.161.025-.187-.187-.025-.174-.118.026-.186.2-.069.171-.215-.137-.399-.47-.397-1.305.156-.93.54.175.118.362.144.468.063zm-8.92-11.056c.2-.068.22-.922.006-1.094-.08-.106-.227-.078-.28-.038-.053.04.015.24.136.4.214.171.161.211-.066.133-.187-.025-.333.002-.359.19.003.333.31.517.563.409zm-2.778 2.953c-.296-.278-.536-.263-.533.07.015.24.323.425.575.316.147-.027.079-.227-.042-.386zm.424-.323c-.121-.16-.308-.185-.32-.091-.107.08-.08.227.014.24.081.106.228.078.321.09.093.013.106-.08-.015-.24zm1.478-2.13c.08.105.146-.028.078-.228-.164-.545-.883-.5-1.293.063-.621.724-.376 1.376.273.798.212-.162.49-.457.556-.591a.366.366 0 0 1 .386-.043zm8.28 12.967c.106-.081.119-.174.025-.187-.04-.053-.134-.066-.28-.038-.147.028-.16.121-.025.187.093.012.227.078.28.038zm-3.886-.812c.053-.041.078-.228-.002-.334-.081-.106.184-.308.624-.391.545-.164.904-.353 1.313-.916.29-.389.488-.79.447-.843-.04-.053-.187-.025-.24.015-.106.081-.146.028-.227-.078-.055-.293-.495-.21-.533.07-.025.187.015.24.255.225.24-.015.24-.015.121.159-.106.081-.29.389-.462.603l-.29.389-.018-.573c.048-.707-.325-.758-.614-.036-.197.402-.262.535-.49.457-.133-.066-.133-.066.013-.093.147-.028.2-.068.119-.174-.081-.107-.293.055-.505.216-.384.377-.344.43.209 1.266.134.065.227.078.28.038zm-2.097-2.425c.12.159.255.224.267.131.013-.093-.161-.212-.295-.278-.174-.119-.134-.066.028.147zm-1.537-2.35c.252-.108.224-.254.103-.413-.08-.107-.214-.172-.267-.132-.053.04-.16.121-.359.19-.2.067-.172.214-.09.32.214.172.4.197.613.036zm2.727 4.795c.162.212.349.237.402.197.159-.122-.472-.73-.886-.834-.134-.066-.333.002-.306.149-.038.28.217.505.376.384.066-.134.24-.015.414.104zm-.528.737c.122.159.321.091.48-.03.278-.296.197-.402-.257-.559-.414-.103-.558.258-.223.589zM60.463 91.791c-.106.08-.026.187.015.24.08.106.227.078.28.038.106-.081.025-.187-.015-.24-.08-.106-.174-.119-.28-.038zm8.849 10.523c.093.013.2-.068.225-.255.065-.134-.028-.146-.187-.025-.026.187-.132.268-.038.28zm-5.874-4.744c-.068-.2.038-.28.318-.243.467.064.732-.138.371-.282-.227-.079-.227-.079.106-.081.187.025.546-.164.717-.379.331-.335.384-.376-.123-.492-.414-.104-.667.005-1.21.502-.649.578-.662.671-.366.95.202.264.255.224.187.024zm7.46 10.24c.227.078.2-.068-.083-.44-.283-.371-.417-.437-.576-.316-.172.215.204.599.659.756zm-1.147.035c.053-.041.026-.187.038-.281-.027-.146-.12-.159-.227-.078-.106.081-.078.227-.038.28.134.066.227.079.227.079zm-9.19-8.001c-.056-.293-.308-.185-1.198.408-.954.727-1.336 1.436-.578 1.111.2-.068.159-.121.025-.187-.28-.038.834-.886 1.432-1.09.24-.015.346-.096.319-.242zm7.434 12.187c.118-.175.09-.321-.043-.387-.134-.066-.2.068-.225.255.03.48.07.533.268.132zm-2.469-2.143c.16-.121.371-.282.465-.27.093.013.346-.096.411-.229.16-.122.306-.149.293-.056.028.147.134.066.253-.108.369-.616-.1-1.013-.563-.41a.72.72 0 0 1-.493.124c-.28-.038-.439.083-.57.351-.132.267-.278.295-.412.229-.08-.106-.227-.078-.2.068-.05.374.538.597.816.301zm-7.43-8c.12.159.267.131.28.038a.706.706 0 0 0-.097-.346c-.08-.106-.227-.078-.28-.038-.053.04-.025.187.096.346zm-5.384 4.265c.467.064.546-.164.25-.441-.335-.331-.722-.289-.76-.008-.038.28.136.399.51.449zm5.373 9.149c.12.159.308.184.32.091.106-.081.079-.227-.015-.24-.08-.106-.267-.132-.32-.091-.147.028-.16.121.015.24zm-7.87 5.07c.052-.041.024-.187.037-.281-.028-.146-.121-.159-.227-.078-.106.081-.079.227-.038.28.134.066.174.119.227.079zm-8.993-6.309c.146-.028.16-.121.025-.187-.08-.106-.227-.079-.28-.038-.106.081-.119.174-.025.187.04.053.187.025.28.038zm-24.46 15.856c.053-.041.025-.187-.015-.24-.028-.147-.121-.159-.228-.079-.106.081-.078.228.016.24.08.106.174.119.227.079z"/><path d="M15.382 132.729c-.053.04-.2.068-.28-.038-.081-.107-.069-.2.025-.187.146-.028.24-.015.28.038.04.053.028.146-.025.187zM15.8 131.406c-.107.08-.135-.066-.056-.293.131-.268.184-.308.252-.109.028.147-.09.321-.197.402zM72.162 109.361c.121.159.109.252.015.239-.146.028-.24.016-.28-.038-.04-.053-.028-.146-.015-.239.066-.134.2-.069.28.038zM72.521 109.171c.106-.08.2-.068.28.038.081.106.068.2.015.24-.106.081-.2.068-.28-.038-.04-.053-.068-.199-.015-.24zM72.342 108.386c.187.025.346-.096.318-.242.013-.094.094.012.15.305.204.599-.05.707-.506.217-.214-.172-.202-.265.038-.28zM76.024 106.839c.081.107.109.253.056.293-.106.081-.16.122-.2.069-.04-.054-.027-.147-.055-.293.025-.187.119-.175.2-.069zM72.412 79.091c-.147.028-.08-.106.184-.308.172-.214.319-.242.253-.108-.119.174-.29.389-.437.416zM75.052 77.166c-.107.08-.253.108-.334.002-.08-.106-.068-.2.05-.374.107-.08.253-.108.334-.002a.287.287 0 0 1-.05.374zM86.933 88.48c-.402-.196-.402-.196-.257-.557.131-.268.225-.255.414.103.363.478.244.652-.157.455zM76.238 77.184c-.159.121-.358.19-.399.136-.08-.106-.068-.2.05-.374.107-.08.307-.148.4-.136.08.106.068.2-.05.374zM87.204 87.185c.278-.295.411-.23.267.132-.065.134-.225.255-.318.242-.134-.066-.068-.2.05-.374zM89.224 88.078c.254.225.322.424.244.651-.09.32-.184.308-.735-.194-.335-.331-.578-.65-.578-.65-.015-.24.68-.098 1.068.193zM78.1 76.437c.134.066.12.16.015.24-.106.08-.306.149-.4.136-.133-.065-.12-.159-.014-.24.159-.12.265-.202.399-.136zM88.004 87.246c-.08-.106-.068-.2.091-.32.106-.081.212-.162.253-.109.04.053.027.147-.091.32-.12.175-.12.175-.253.11zM89.07 87.105c.106-.08.212-.161.252-.108.04.053-.025.187-.09.32-.066.134-.172.215-.253.109-.04-.053-.068-.2.09-.32zM80.064 77.036c-.21.495-.21.495-.374-.05-.313-.851-.608-1.13-.59-.556.03.48-.102.747-.357.522-.08-.106-.042-.386-.004-.666.103-.414.21-.495.53-.404.227.078.52.023.68-.098.224-.255.265-.202.254.225.056.293-.008.76-.139 1.027zM89.683 87.141c.24-.015.243.318-.01.427-.2.068-.2.068-.214-.172.012-.094.131-.268.224-.255zM88.879 84.653c.053-.04.225-.255.303-.482.132-.268.29-.389.57-.35.334-.003.375.05.324.424-.116.507.26.891.833.874.386-.043.374.05-.063.467-.45.51-1.023.527-.813.032.065-.133-.03-.48-.245-.651-.295-.278-.389-.29-.573.017-.25.442-.304.482-.427-.01.013-.093.038-.28.09-.32zM80.77 74.991c-.051.374-.263.535-.306.15-.04-.054.078-.228.237-.35.119-.173.16-.12.068.2zM86.648 80.403c-.093-.013-.133-.066-.161-.213.013-.093.078-.227.09-.32.107-.081.147-.028.162.212.068.2.003.333-.09.32zM86.636 78.736c-.106.08-.2.068-.28-.038-.08-.106-.068-.2-.015-.24.106-.08.2-.068.28.038.094.013.121.16.015.24zM86.847 76.481c.144-.361.263-.535.45-.51.186.025.214.172.03.48-.37.616-.756.659-.48.03zM88.248 78.431c-.094-.013-.081-.106.078-.227.16-.121.212-.162.187.025-.066.134-.172.215-.265.202zM89.381 78.49c-.012.093-.131.267-.343.429l-.318.242.156-.455c.25-.441.503-.55.505-.216zM85.874 78.395c.106-.081.2-.068.24-.015.04.053.028.146-.079.227-.106.08-.2.068-.24.015-.04-.053-.027-.146.079-.227z"/></g><g opacity=".25"><path d="M106.048 59.068c-.394.069-.603.037-.571-.171.042-.143-.035-.197-.22-.097-.12.089-.317.123-.406.003-.077-.054-.417-.063-.679-.017-.252.112-.526.092-.537.027-.023-.132-1-.3-1.251-.188-.066.012-.043.143-.02.274.023.132.177.24.297.151.131-.023.197-.034.143.043-.054.077-.394.069-.823-.06-.428-.127-.965-.101-1.282.022-.448.146-.514.157-.637-.16-.046-.262-.2-.37-.397-.336-.197.034-.24.177-.151.297s.046.263-.085.286c-.132.023-.209-.032-.178-.24a.32.32 0 0 0-.2-.371c-.143-.043-.197.034-.043.143.155.108.1.185-.305.188-.274-.02-.548-.04-.626-.093-.077-.055-.35-.074-.668.049-.317.123-.59.103-.602.037-.012-.065-.517-.248-1.077-.353-.56-.105-1.143-.342-1.231-.462-.089-.12-.463-.325-.749-.41-.285-.086-.571-.171-.528-.314.054-.077-.1-.185-.297-.151-.329.057-.34-.008-.023-.131.448-.146.413-.343-.192-.711-.386-.271-.397-.337-.235-.568.174-.166.163-.232-.023-.132-.131.023-.263.046-.208-.03.054-.078-.112-.252-.332-.35-.22-.096-.957-.44-1.617-.732-.88-.387-1.2-.67-1.18-.944-.034-.197-.135-.382-.2-.371-.251.112-.763-.882-.524-1.059.12-.089.043-.143-.177-.24-.208-.031-.297-.15-.254-.294.042-.142-.046-.262-.177-.24-.143-.042-.232-.162-.31-.216-.022-.132.044-.143.11-.154.076.054.262-.046.359-.266.162-.232.228-.243.131-.023-.042.143.135.382.42.468.583.236.811-.007.294-.255-.22-.097-.385-.27-.397-.336-.069-.394-.235-.568-.629-.5-.328.058-.382.135-.336.398.192.71-1.287-1.941-1.713-3.22-.124-.317-.378-.611-.532-.72-.22-.096-.343-.413-.378-.61-.014-.471-.558-1.256-1.44-2.05-.398-.336-.51-.587-.4-.742.119-.088.062-.417-.05-.668-.524-1.059-1.027-2.392-.842-2.492.066-.012-.014-.471-.237-.974-.235-.568-.37-.95-.238-.973.197-.035.15-.297-.053-1.074-.045-.263-.003-.405.206-.374.208.031.262-.046.174-.166-.186.1-.329.057-.46.08-.185.1-.312-.622-.272-1.17.008-.34.04-.549-.107-.997-.034-.197.02-.274.151-.297.143.043.186-.1.098-.22-.024-.131-.166-.174-.22-.097-.055.077-.209-.031-.243-.228-.035-.197-.004-.406.062-.417.131-.023.097-.22-.08-.46-.178-.24-.212-.436-.015-.471.131-.023.174-.166.097-.22-.077-.054-.035-.197.085-.286.12-.088.109-.154-.142-.042-.449.146-.618-.434-.18-.645.305-.19.347-.332.104-.56-.354-.48-.435-.94-.152-1.26.294-.254.294-.254-.069-.394s-.363-.14-.157-.513c.15-.298.17-.572-.007-.811-.289-.491-.303-.963.048-.889.066-.011.24-.177.283-.32.128-.428.04-.548-.278-.425-.131.023-.351-.074-.517-.248-.266-.36-.215-.842-.03-.942.066-.012-.014-.472-.16-.92-.157-.514-.238-.973-.184-1.05.055-.078.029-.614-.14-1.194-.17-.58-.273-1.17-.23-1.313.117-.495.01-1.491-.273-2.727-.353-1.63-.365-1.696-.008-2.368.217-.308.236-.583.182-.505-.197.034-.658-1.442-.56-1.662.053-.077-.047-.263-.212-.437-.166-.174-.224-.502-.18-.645.03-.208.004-.745-.153-1.26-.158-.513-.238-.973-.195-1.116.042-.142-.038-.602-.184-1.05-.384-1.422-.425-2.43-.173-2.542.131-.023.12-.088-.089-.12-.286-.085-.309-.216-.404-1.147-.037-.603-.267-1.916-.593-3.01-.392-1.082-.564-2.067-.51-2.144.042-.143-.015-.471-.138-.788-.123-.317-.18-.645-.072-.8.174-.165.163-.231-.023-.13-.131.022-.286-.086-.386-.272-.123-.317-.057-.328.294-.254.363.14.363.14.174-.166-.42-.468-1.147-2.304-.85-2.153.166.175.22.097.24-.177.063-.417.051-.482-.331-.348-.197.035-.44-.194-.675-.762-.212-.437-.555-.85-.709-.959-.428-.128-.609-.773-.638-1.715.048-.889-.116-2.213-.349-3.932-.126-.723-.11-1.402-.055-1.48.12-.088.097-.22-.123-.317s-.309-.216-.32-.282l-.023-.131c-.266-.36-.4-.743-.292-.897.13-.023.097-.22-.004-.405a1.136 1.136 0 0 1-.114-.657.965.965 0 0 0-.192-.71c-.243-.23-.2-.372-.004-.406.198-.035.229-.243.183-.506l-.126-.722c-.023-.132-.19-.306-.255-.294-.143-.043-.177-.24-.223-.503.008-.34-.08-.46-.189-.305-.12.088-.197.034-.177-.24.008-.34.008-.34.174-.166.089.12.243.229.309.217.065-.011.231.163.266.36.046.262.211.436.408.402.132-.023.263-.046.12-.089a.203.203 0 0 1-.046-.262c.174-.166-.183-1.051-.615-1.585-.166-.174-.034-.197.263-.046.582.237.702.148.676-.388.02-.275.117-.495.194-.44.143.042.197-.035.174-.166-.023-.132.097-.22.283-.32.328-.058.436-.212.325-.463-.123-.317-.2-.371-.363-.14-.108.154-.294.255-.371.2-.077-.054-.046-.262.062-.417.174-.165.271-.385.248-.517-.011-.065.074-.351.237-.582.27-.386.337-.398.634-.247.297.152.308.217.068.394-.174.166-.162.232.112.252.209.03.529.313.763.881.223.503.578.982.72 1.025.166.174.464.325.695.488.231.162.44.194.571.17.12-.088.209.032.123.318-.116.494.25 1.039.887 1.198.428.128.428.128.2.371-.109.155-.205.375-.194.44.023.132.089.12.143.043.054-.077.262-.046.417.062.231.163.351.074.553-.705.214-.714.19-.846-.049-.669-.24.178-.317.123-.397-.336-.057-.329-.158-.514-.355-.48-.262.046-.725-.279-.771-.542-.012-.065-.089-.12-.22-.097-.131.023-.197.035-.143-.042.054-.077-.057-.329-.223-.503-.343-.413-.527-1.464-.175-1.39.142.042.22.097.177.24-.074.35.335.753.972.913.56.105.56.105.24-.178-.232-.162-.498-.522-.532-.719-.112-.251-.347-.82-.558-1.256-.312-.622-.358-.885-.16-.92.13-.022.173-.165.007-.34-.088-.119-.146-.447-.103-.59.085-.286.151-.297.34.008.1.186.397.337.66.29.328-.057.428.129.686.828.146.449.435.94.589 1.048.309.217.286.085-.006-.811-.17-.58-.381-1.016-.512-.993a.143.143 0 0 1-.155-.109c-.011-.066-.354-.48-.686-.827-.617-.434-.883-.794-.829-.87.055-.078.12-.09.143.042.012.066.132-.023.306-.189.27-.385.225-.648-.092-.525-.12.088-.34-.008-.363-.14-.112-.25-.057-.328.522-.497.383-.135.688-.323.677-.389-.012-.066.097-.22.228-.243.197-.034.34.008.309.217.034.197-.14.363-.403.409-.262.045-.382.134-.294.254.232.163.087 1.27-.121 1.24-.143-.043-.197.034-.24.177-.043.142.22.097.602-.038.383-.134.623-.312.534-.432-.089-.12-.112-.25.008-.34.12-.088.086-.285-.003-.405-.177-.24-.177-.24.131-.023.155.109.355.48.347.82.037.602.512.993 1.025.835.263-.046.252-.111.043-.143-.417-.062-.686-.827-.446-1.004.12-.089.274.02.308.216.124.317.872.728.75.411-.012-.066.053-.077.208.031.231.163.285.086.336-.397.094-.625-.195-1.116-.477-.796-.12.088-.097.22-.02.274.077.054.1.185-.031.208-.132.023-.286-.085-.32-.282-.035-.197-.255-.294-.529-.314a.61.61 0 0 1-.494-.116c-.023-.132.108-.155.305-.19.209.032.317-.122.229-.242-.023-.131.008-.34.128-.429.12-.088-.023-.13-.363-.14-.548-.039-.691-.081-.726-.278.043-.143-.034-.197-.154-.109-.12.089-.186.1-.197.035-.011-.066-.112-.252-.212-.437-.088-.12-.057-.329.009-.34.131-.023.208.031.243.228.034.197.177.24.308.217.131-.023.109-.154.031-.208-.077-.055-.1-.186.032-.209a.509.509 0 0 1 .351.074c.143.043.286.085.34.008.12-.088.185-.1.208.032.012.065-.031.208-.15.297-.186.1-.098.22.188.305.22.097.528.314.629.5.431.533.548.039.202-.78-.324-.688-.335-.754.028-.614.22.096.385.27.343.413-.043.143.034.197.088.12.055-.077.263-.046.352.074.154.109.1.186-.043.143-.143-.043-.054.077.189.305.231.163.42.468.377.611-.043.143-.031.209.077.054.12-.088.34.009.506.183.331.348.331.348-.128.428-.329.058-.514.158-.503.223.023.132.155.109.209.032.054-.078.197-.035.351.074.089.12.297.15.483.05.185-.1.317-.122.351.075.023.13.177.24.309.216.131-.023.208.032.231.163.023.131.212.437.455.665.243.228.531.72.709.959.512.993.975 1.318 1.674 1.06.83-.28 1.113-.6 1.021-1.125-.057-.329.009-.34.36-.266.274.02.363.14.266.36-.109.154.111.25.54.379.625.094.625.094.425-.277-.189-.306-.2-.372.174-.166.452.26.649.225.514-.158-.046-.262-.046-.262.12-.088.089.12.243.228.386.27.143.043.308.217.431.534.312.623.455.665.857.257.403-.409.403-.409.56.105.146.448.212.437.857.256.383-.134.777-.203.788-.138.012.066.383-.134.808-.411.785-.544 1.31-.635.996-.107a.72.72 0 0 0-.116.494c.111.251.69.082.962-.303a.757.757 0 0 1 .49-.289c.34.008.352.074.038.602-.313.529-.627 1.058-.995 1.663-.476.76-1.457 2.894-1.422 3.091.023.132-.051.483-.202.78-.291.66-.053 1.634.747 3.118.29.49.481 1.202.55 1.596.026.537.038.602-.14.363-.111-.252-.154-.109-.062.416.08.46.215.843.292.897.077.054.189.305.092.525-.086.286.014.471.234.568.232.163.255.294.115.657-.194.44-.117.494.158.514.274.02.285.085.014.471-.162.232-.313.529-.248.517.2.371-.04.549-.468.42-.428-.128-.44-.193-.211-.436.228-.243.162-.232-.22-.097-.317.123-.437.211-.291.66.134.382.289.49.683.422.537-.026.537-.026.343.414-.163.231-.117.494-.04.548.077.054.123.317.026.537-.15.297-.14.363.22.097.306-.189.383-.135.429.128.08.46-.071.757-.38.54-.165-.174-.285-.086-.36.266-.159.637.014 1.622.165 1.325.108-.155.128-.429.093-.626-.091-.525.071-.757.511-.563.22.097.417.063.537-.026.054-.077.197-.034.22.097.023.131-.074.351-.26.451-.185.1-.282.32-.236.583.034.197.169.58.203.777.123.317.07.394-.336.397-.34-.008-.394.069-.229.243a.32.32 0 0 1-.062.417c-.186.1-.151.297-.063.417.089.12.297.15.483.05.12-.088.263-.045.274.02.023.132.146.449.27.766.157.514.222.502.45.26.337-.398.395-.07.135.382-.15.297-.14.363.058.328.197-.034.22.097.003.406-.26.451-.202.78.049.668.131-.023.208.031.285.085.023.132-.108.155-.37.2-.537.027-.48.355.145.449.286.085.44.193.32.282-.12.089-.185.1-.274-.02-.023-.131-.143-.042-.174.166-.094.626.018.877.312.622.174-.165.317-.123.363.14.111.251.003.406-.314.529-.251.111-.317.123-.174.165.208.032.22.097-.008.34-.283.32-.283.32.111.251.317-.123.329-.057.058.329-.325.463-.325.463.146.448.47-.015.748.41.366.545-.132.023-.209-.031-.309-.217a.287.287 0 0 0-.308-.216c-.317.123-.04.548.366.545.34.008.34.008.045.262-.174.166-.228.243-.097.22.132-.023.209.032.22.097-.054.077.1.186.309.217.274.02.286.085.266.36-.031.208-.063.417-.051.482.011.066.069.394.072.8.095.93.106.996.187 1.456.034.197-.04.548-.137.768-.27.386-.016.68.432.534.382-.134.405-.003.235.568-.117.494-.068 1.162.213 1.993.111.251.06.734-.025 1.02-.14.363-.117.494.057.328.174-.166.251-.112.254.294.05.668.072.8.338 3.866.109 1.402.253 3.002.214 3.55.026.537.064 1.14.11 1.402.169.58.058 1.885-.162 1.788-.077-.055-.131.023-.12.088.023.132.166.174.243.229.494.116.552.445.609.773.007.81.085 2.422.154 2.816.034.197-.051.482-.094.625-.108.154-.105.56-.048.888.207 1.182.29 2.047.128 2.279-.109.154-.109.154.023.131.197-.034.22.097.211.437-.019.274.021 1.282.105 2.147.342 3.121.377 3.318.506 4.446.038.603.075 1.205.044 1.414-.043.143-.008.34.069.394.077.054.046.263.003.405-.139.363.399 1.893.65 1.782.131-.023.14-.363.082-.691-.069-.394-.126-.723-.083-.866.074-.35.464 1.882.639 3.272.084.866.044 1.414-.184 1.657-.283.32-.271.386.157.514.375.205.466.73.118 1.062-.054.077.012.066.132-.023.185-.1.274.02.366.545.267 1.916.359 2.441.943 4.234.314 1.028.684 1.979.761 2.033.088.12.034.197-.163.231-.251.112-.24.178-.116.495.111.25.157.514.049.668-.109.154-.117.494.072.8.177.24.211.436.123.316-.089-.12-.297-.15-.363-.14-.251.112-.04.549.423.874.386.271.397.337.026.537-.239.177-.282.32-.182.506.332.348.709.959.643.97l-.919.16zM72.511-21.698c.02-.274.02-.274-.209-.031-.27.385-.26.451.003.405.12-.088.229-.243.206-.374zm3.741.497c-.123-.317-.2-.372-.417-.063-.108.154-.282.32-.27.386-.066.011.088.12.242.228.44.194.668-.05.445-.551zm1.33 1.798c.042-.143-.1-.186-.22-.097-.197.034-.24.177-.163.231.077.054.22.097.22.097.066-.011.174-.166.163-.232zM72.4-17.687c-.023-.131-.177-.24-.243-.228-.251.112-.337.397-.117.494.232.163.471-.015.36-.266zm21.332.468c-.046-.262-.223-.502-.366-.545-.143-.043-.162.232-.04.548.27.765.598.708.406-.003zm.819 2.361c-.023-.131.043-.143.197-.034.154.108.297.15.22.097a1.501 1.501 0 0 1-.015-.471c.031-.209-.046-.263-.154-.109-.109.155-.186.1-.155-.108.032-.209-.111-.251-.416-.063-.568.235-.462 1.232.052 1.074.185-.1.294-.254.27-.386zm-13.92 2.839c.032-.209-.717-.62-.968-.508-.131.023-.174.166-.162.232.011.065.22.097.417.062.25-.112.262-.046.088.12-.108.154-.15.297.003.406.298.15.603-.038.623-.312zm1.346 3.825c-.383.135-.48.355-.182.506.22.097.525-.092.545-.366.042-.143-.166-.174-.363-.14zm-.092-.525c-.197.034-.305.189-.228.243.023.131.166.174.22.097.131-.023.174-.166.228-.243.054-.077-.023-.132-.22-.097zm-1.213-2.292c.132-.023.043-.143-.165-.174-.56-.105-.85.554-.54 1.177.359.885 1.05.967.835.125-.046-.263-.18-.646-.27-.765a.367.367 0 0 1 .14-.363zm15.323-1.392c-.023-.131-.1-.186-.154-.108-.066.011-.12.088-.163.231-.043.143.035.197.154.108.055-.077.174-.165.163-.231zm-2.508 3.078c-.011-.066-.165-.174-.297-.152-.131.023-.189-.305-.06-.733.105-.56.102-.966-.21-1.588-.212-.437-.478-.796-.543-.785-.066.012-.109.154-.097.22.023.132-.043.143-.174.166-.286-.086-.414.343-.183.506.155.108.22.096.317-.124s.097-.22.197-.034c.023.131.212.437.323.688l.212.437-.517-.248c-.606-.368-.822-.06-.314.528.266.36.355.48.18.645-.12.09-.12.09-.076-.054.042-.143.03-.208-.1-.185-.132.023-.086.285-.04.548.157.514.223.502 1.22.396.12-.089.174-.166.162-.231zm-3.117.747c.196-.034.316-.123.24-.177-.078-.054-.263.046-.383.135-.186.1-.12.088.143.042zm-2.793.285c.02-.274-.123-.316-.32-.282-.132.023-.251.112-.24.177.012.066.035.197.003.406-.031.208.112.25.243.228.251-.112.36-.266.314-.529zm5.511-.218c.263-.046.371-.2.36-.266-.035-.197-.865.083-1.148.403-.12.09-.151.298-.008.34.231.163.548.04.514-.157-.089-.12.097-.22.282-.32zm.412.808c.197-.035.228-.243.194-.44-.135-.383-.266-.36-.614-.028-.283.32-.028.614.42.468zM76.742-2.134c.023.13.154.108.22.096.131-.022.174-.165.162-.231-.023-.131-.154-.108-.22-.097-.131.023-.185.1-.162.232zm13.413-3.021c.054-.077.032-.209-.123-.317-.088-.12-.143-.043-.108.154.154.109.177.24.231.163zM83.241-2.12c-.208-.031-.231-.162-.069-.394.271-.386.214-.714-.08-.46-.174.166-.174.166-.023-.13.109-.155.105-.56-.006-.812-.146-.448-.158-.514-.494-.117-.283.32-.303.595-.11 1.306.214.842.291.896.674.762.328-.058.317-.124.108-.155zm12.524-1.918c.174-.165.031-.208-.429-.128-.46.08-.58.17-.545.366.112.251.626.094.974-.238zm-.496 1.035c-.012-.066-.155-.109-.232-.163-.143-.043-.197.034-.174.166.023.131.166.174.232.162.12-.088.174-.165.174-.165zM83.939 1.48c-.286-.086-.306.188-.188 1.25.206 1.183.66 1.848.72 1.025.031-.208-.034-.197-.154-.108-.163.231-.404-1.148-.31-1.773.097-.22.074-.352-.069-.394zm14.24-1c-.1-.185-.243-.228-.363-.14-.12.089-.031.209.123.317.44.194.506.183.24-.177zM95.14 1.689c-.034-.197-.08-.46-.026-.537.054-.077.074-.352-.015-.471-.034-.197.009-.34.086-.286.143.043.12-.089.02-.274-.378-.611-.946-.376-.623.312a.72.72 0 0 1-.116.494c-.163.231-.129.428.049.668.177.24.134.382.014.471-.131.023-.174.166-.03.209.308.216.776-.204.641-.586zM84.621 4.61c.196-.034.239-.177.162-.231a.704.704 0 0 0-.351-.074c-.132.023-.175.165-.163.231.011.066.154.108.351.074zm1.313 6.741c.27-.386.105-.56-.278-.425-.448.146-.588.509-.356.671.231.163.417.063.634-.246zm10.594-.565c.197-.035.305-.189.228-.243-.023-.132-.166-.174-.22-.097-.131.023-.24.177-.228.243-.043.143.034.197.22.097zm.884 9.32c-.011-.066-.154-.108-.231-.163-.143-.042-.197.035-.174.166.023.131.165.174.231.163.12-.089.186-.1.174-.166zm-9.737 5.085c.043-.142-.034-.197-.154-.108-.131.023-.174.166-.162.231.023.132.1.186.154.109.066-.012.108-.155.162-.232zm2.837 29.012c-.012-.066-.154-.109-.22-.097-.143-.043-.197.034-.174.166.023.131.166.174.22.097.131-.023.185-.1.174-.166z"/><path d="M92.373 56.72c.011.066-.031.208-.163.231-.13.023-.208-.03-.154-.108.043-.143.097-.22.163-.231a.143.143 0 0 1 .154.108zM91.39 55.741c.023.132-.12.089-.286-.085-.177-.24-.189-.306.02-.274.143.042.243.228.266.36zM97.723-4.447c.197-.035.274.02.22.096-.042.143-.097.22-.162.232-.066.011-.143-.043-.22-.097-.089-.12.031-.209.162-.231zM97.72-4.853c-.023-.131.031-.209.163-.231.131-.023.208.03.22.096.023.132-.031.209-.163.232-.065.011-.208-.031-.22-.097zM96.94-5.055c.109-.154.074-.351-.068-.394-.078-.054.054-.077.34.008.625.094.605.368-.04.548-.251.112-.329.058-.232-.162zM97.26-9.036c.131-.023.274.02.285.085.024.132.035.197-.03.209-.066.011-.143-.043-.286-.086-.155-.108-.1-.185.03-.208zM70.957-18.584c-.043.143-.131.023-.189-.306-.111-.25-.069-.394.02-.274.1.186.212.437.169.58zM70.46-21.814c.023.132-.02.275-.15.297-.132.023-.21-.03-.31-.216-.022-.132.02-.274.152-.297a.287.287 0 0 1 .308.216zM85.97-27.163c-.359.265-.359.265-.613-.029-.177-.24-.123-.316.282-.32.591-.103.691.083.332.349zM71.022-22.86c.034.198.003.406-.063.418-.13.023-.208-.032-.308-.217-.023-.131.008-.34.062-.417.132-.023.209.031.309.217zM84.945-28c-.135-.382-.015-.47.24-.177.088.12.123.317.069.394-.12.089-.209-.03-.309-.216zM86.666-29.383c.317-.123.525-.092.691.082.243.229.189.306-.51.563-.449.146-.843.215-.843.215-.22-.097.225-.648.662-.86zM71.215-24.855c.12-.09.197-.035.22.096.022.132-.009.34-.063.417-.12.089-.197.035-.22-.096-.034-.198-.057-.329.063-.417zM85.367-28.682c-.131.023-.208-.032-.243-.229-.023-.13-.046-.262.02-.274.066-.011.143.043.243.229.1.185.1.185-.02.274zM85.732-29.693c-.023-.132-.046-.263.02-.275.065-.011.154.109.243.229.088.12.111.25-.02.274-.066.011-.209-.031-.243-.228zM72.65-26.325c.343.414.343.414-.217.31-.9-.114-1.282.02-.765.268.44.194.617.434.3.557-.131.023-.363-.14-.594-.303-.32-.282-.343-.413-.115-.656a.795.795 0 0 0 .225-.649c-.123-.317-.057-.328.317-.123.286.086.671.357.849.596zM86.046-30.222c.096-.22.393-.069.374.205-.031.209-.031.209-.251.112-.078-.054-.178-.24-.123-.317zM83.466-30.651a1.332 1.332 0 0 0-.288-.491c-.178-.24-.212-.437-.05-.668.152-.297.217-.309.526-.092.397.337.911.18 1.16-.338.139-.363.216-.309.385.271.246.634-.002 1.15-.345.737-.089-.12-.44-.194-.691-.082-.383.134-.437.212-.248.517.277.425.289.49-.206.374-.077-.054-.231-.162-.242-.228zM71.158-27.891c.308.217.354.48-.009.34-.065.011-.165-.174-.2-.371-.1-.186-.034-.197.209.03zM78.666-30.624c-.054.077-.12.088-.263.045-.077-.054-.165-.174-.243-.228-.022-.131.043-.143.263-.046.209.032.297.151.243.229zM77.18-31.38c.023.131-.03.209-.162.231-.131.024-.209-.03-.22-.096-.023-.132.031-.209.162-.232.055-.077.198-.034.22.097zM75.275-32.603c-.255-.294-.355-.48-.246-.634.108-.154.25-.112.44.194.377.61.237.973-.194.44zM77.65-32.95c-.054.076-.13.022-.165-.175-.035-.197-.046-.263.108-.154.089.12.112.25.057.328zM78.224-33.93c.077.053.177.239.223.501l.069.395-.332-.349c-.277-.425-.257-.699.04-.548zM76.527-30.86c-.023-.131.031-.208.097-.22.066-.011.143.043.166.174.023.132-.032.209-.097.22-.066.012-.143-.042-.166-.174z"/></g></g><path d="M20.039 18.282c1.749 0 3.497-.005 5.246 0 .869 0 1.58.629 1.722 1.498.13.808-.378 1.634-1.175 1.907a1.96 1.96 0 0 1-.59.093H14.83c-1.028 0-1.804-.76-1.804-1.755.006-.978.776-1.737 1.793-1.737 1.743-.011 3.48-.006 5.219-.006z" fill="#fefefe"/><path d="M21.777 20.036c0 1.75.005 3.498 0 5.247 0 .869-.629 1.58-1.498 1.721-.809.131-1.634-.377-1.907-1.175a1.803 1.803 0 0 1-.093-.59v-10.41c0-1.028.76-1.804 1.754-1.804.978.005 1.738.776 1.738 1.792.011 1.744.006 3.482.006 5.22z" fill="#fefefe"/><defs id="defs148"><filter id="filter0_d" x="0" y="0" width="160" height="160" filterUnits="userSpaceOnUse" color-interpolation-filters="sRGB"><feFlood flood-opacity="0" result="BackgroundImageFix" id="feFlood123"/><feColorMatrix in="SourceAlpha" type="matrix" values="0 0 0 0 0 0 0 0 0 0 0 0 0 0 0 0 0 0 127 0" id="feColorMatrix125"/><feOffset dy="15" id="feOffset127"/><feGaussianBlur stdDeviation="30" id="feGaussianBlur129"/><feColorMatrix type="matrix" values="0 0 0 0 0.188235 0 0 0 0 0.670588 0 0 0 0 0.466667 0 0 0 0.15 0" id="feColorMatrix131"/><feBlend mode="multiply" in2="BackgroundImageFix" result="effect1_dropShadow" id="feBlend133"/><feBlend mode="normal" in="SourceGraphic" in2="effect1_dropShadow" result="shape" id="feBlend135"/></filter><linearGradient id="paint0_linear" x1="20" y1="0" x2="58.033" y2="31.694" gradientUnits="userSpaceOnUse"><stop stop-color="#32AB77" id="stop138"/><stop offset="1" stop-color="#1F983A" id="stop140"/></linearGradient><linearGradient id="paint1_linear" x1="20" y1="0" x2="58.033" y2="31.694" gradientUnits="userSpaceOnUse"><stop stop-color="#32AB77" id="stop143"/><stop offset="1" stop-color="#1F983A" id="stop145"/></linearGradient></defs></svg>