<svg width="12" height="12" fill="none" xmlns="http://www.w3.org/2000/svg"><path d="M8.425 12h-4.85A3.579 3.579 0 0 1 0 8.425v-4.85A3.579 3.579 0 0 1 3.575 0h4.85A3.579 3.579 0 0 1 12 3.575v4.85A3.579 3.579 0 0 1 8.425 12zm2.368-8.425a2.368 2.368 0 0 0-2.368-2.368h-4.85a2.368 2.368 0 0 0-2.368 2.368v4.85a2.368 2.368 0 0 0 2.368 2.368h4.85a2.368 2.368 0 0 0 2.368-2.368v-4.85z" fill="url(#paint0_linear)"/><path d="M6 9.104A3.107 3.107 0 0 1 2.896 6 3.107 3.107 0 0 1 6 2.896 3.107 3.107 0 0 1 9.104 6 3.107 3.107 0 0 1 6 9.104zm0-5a1.896 1.896 0 1 0 0 3.792 1.896 1.896 0 0 0 0-3.792z" fill="url(#paint1_linear)"/><path d="M9.11 8.337a.744.744 0 1 1 0 1.487.744.744 0 0 1 0-1.487z" fill="url(#paint2_linear)"/><defs><linearGradient id="paint0_linear" x1="9.11" y1=".035" x2="9.11" y2="11.907" gradientUnits="userSpaceOnUse"><stop stop-color="#E09B3D"/><stop offset=".3" stop-color="#C74C4D"/><stop offset=".6" stop-color="#C21975"/><stop offset="1" stop-color="#7024C4"/></linearGradient><linearGradient id="paint1_linear" x1="9.11" y1=".035" x2="9.11" y2="11.907" gradientUnits="userSpaceOnUse"><stop stop-color="#E09B3D"/><stop offset=".3" stop-color="#C74C4D"/><stop offset=".6" stop-color="#C21975"/><stop offset="1" stop-color="#7024C4"/></linearGradient><linearGradient id="paint2_linear" x1="9.11" y1=".035" x2="9.11" y2="11.907" gradientUnits="userSpaceOnUse"><stop stop-color="#E09B3D"/><stop offset=".3" stop-color="#C74C4D"/><stop offset=".6" stop-color="#C21975"/><stop offset="1" stop-color="#7024C4"/></linearGradient></defs></svg>