<svg width="99" height="60" fill="none" xmlns="http://www.w3.org/2000/svg"><path d="M17.595 60l6.334-.69h3.284l3.52.46 4.457-3.448 5.395-14.483.704-3.448.938-2.3 3.754-11.723V18.39l-.704-3.448-1.173-2.76-1.877-3.217-1.876-2.3-2.346-1.838-2.58-1.84-6.1-2.528-3.05-.46-6.803.46-3.285-.23-2.58 1.839-6.1 2.529-2.111 2.069-3.52 5.287L0 17.931v6.207l.47 3.448 1.407 3.219 1.877 2.298 3.753 4.368 5.63 3.449 2.112 3.908-.47 2.298-1.407 3.219-.704 3.448-1.407 2.529 2.815 2.988 3.519.69zm52.315 0l3.519-.69 3.284.46 7.038.23 3.988-2.989 1.642-3.218 1.643-6.437 1.407-2.988 4.223-11.724 1.408-5.518.938-2.758-.235-6.437-.469-2.759-1.407-3.448-3.754-5.287-2.346-2.07-5.63-2.758L78.59.46 72.256.23l-6.334 1.15-5.63 2.989-4.223 5.057-1.408 2.529-1.173 2.759-.47 2.988-.234 6.897 3.52 8.735 1.876 2.53 4.927 3.677 3.284 1.15 2.111 3.678-1.407 2.758-1.642 6.207-1.173 3.219 2.815 3.218 2.815.23zM24.398 6.897l-.47-2.3 2.347-.23.47 2.53h-2.347zM14.31 5.747v-1.15h1.408v1.15H14.31zm62.638.92v-1.61h1.642v1.61h-1.642zm-10.322-.46l-.235-.69.704-.23.234.69-.703.23zM15.249 28.046l-1.642-1.38v-1.149l1.407-1.839.939-.92.469-.689 1.407-2.299 1.643-1.61 1.173-.459 2.346-.46.234-1.149-.235-1.15-1.642-1.609-1.173-.69-1.876-1.379-.235-1.15 1.408-2.068.938-.23 1.173.23 1.642 1.84.704 1.149.938 1.149.704.69 1.642 2.298v1.38l-.704 1.15-1.876 1.608-.704.92-.47 1.15-.234 1.379.938.92 1.174-.23 1.172.23.704.919.235 2.528-2.346.46-.939-.46-.703-1.149-.235-1.15-1.408-1.149-1.172.23-1.173.46-1.643 1.609-1.407 1.84-1.173.229zm56.538-17.011l-.47-2.53 2.347-.23.234 2.3-2.111.46zm9.384.919l-.235-2.299.704-.92h2.58l.235 2.3-.704.919h-2.58zM5.396 16.322l-.939-2.07 2.112-2.068.704-.92 1.642-2.298 2.58.92.47 2.068-.47.92-2.111 1.149-.939.46-2.11 1.15-.94.689zm23.929-4.828l.234-2.528 2.346.23-.234 2.298h-2.346zm33.547.23l-1.877-.46.704-2.069 1.642.69-.469 1.84zm15.718 5.977l-2.346-.23-.704-.69.47-2.528.938-1.15h2.346l.704.92v2.299l-.704 1.15-.704.23zM40.82 22.07L38.943 20l-.704-1.15-.938-.69-1.173-.689-1.877-1.379.704-2.529h1.877l1.407 1.61.939.919.938 1.15.938.689 1.408 2.299-1.642 1.839zm27.682-5.747l-2.111-.69.235-2.069 2.11.46-.234 2.299zm20.41.69l-1.877-.46.47-2.529 2.346-.46-.235 2.529-.704.92zm-74.836.919l-.704-.46-.235-2.528.939-.92 2.346-.23.704.92.234 2.299-.938.69-2.346.229zm46.685 2.988l-.235-2.988 2.815-.23.235 2.759-2.815.46zm-52.08.69v-2.758l2.814-.23v2.988H8.68zm20.409.23v-2.758l2.58-.23.235 2.758-2.815.23zm53.488.92l-.938-.46V19.77l2.58-.69.704.92v2.529l-2.346.23zm9.853-1.15l-.234-1.839 2.111-.23v1.61l-1.877.46zm-18.533.92l-2.346-.23.235-2.529 2.58.23-.469 2.529zm-7.507 3.678v-2.529l2.346.23-.235 2.299h-2.111zm-31.436.69l-.235-2.53 2.112-.459.469 2.529-2.346.46zm44.339.46l-2.815-.23-.235-2.76 2.58-.459.704.69-.234 2.758zm9.618-.46l-2.346-.46.704-2.529 2.58.23v2.299l-.938.46zm-84.924 0l-.234-2.07 2.11-.23.236 2.3H3.988zM61.7 32.413l-1.877-2.3-.938-1.608-1.173-.46-.704-.92-.47-.92.47-1.608 1.173.46.47 1.149.234 1.15v1.149h1.642l2.815.23.704 2.758-2.346.92zm-37.3 4.827l-.47-2.298 2.111-1.38.939-.69.938-.919.704-2.529.469-.92.938-.459 2.112.69.469 1.379v1.15l-.938 2.298-1.173.69-.939.69-.938.92-2.346 1.378h-1.877zm-3.285-4.367l-2.346-.46.234-2.759.704-.92 2.346.46v2.53l-.938 1.149zm-10.323-.23l-2.11-.69v-2.759l3.049.23v2.529l-.939.69zm62.638-.46l-2.112-.23.235-2.529 2.111.46-.234 2.299zm19.237-.46l-.235-2.299h2.112l.234 2.3h-2.111zm-51.377 0l-1.407-.23.234-1.609 1.408.23-.235 1.61zm40.82.92l-.235-2.53 2.581-.229v2.759h-2.346zM34.955 38.16l-.938-.92v-2.758l2.346-.46 1.173.92L37.3 37.7l-2.346.46zm31.436-1.15l-.235-2.528 2.346-.23v2.529l-2.111.23zm10.088.46l-.235-2.988h2.815l.235 2.758-2.815.23zm12.668 0l-2.58-.23v-2.528l2.815.23-.235 2.528zm-74.837-.23l-.234-1.839 1.642-.23.47 1.84-1.878.23zM29.794 42.3l-1.173-.69-.235-1.38v-1.378l1.642-.69 1.173-.23 1.173.69.704 2.299-.704.92-2.58.459zm41.758-.23l-.704-1.15.47-2.298h2.346l.703.69-.469 2.758h-2.346zm12.2 1.15l-2.347-.23-.704-.92.235-2.529.938-.92h2.581l.704.46-.235 2.53-.469.919-.704.69zm-62.17 0l-2.58-.23V40l2.346-.92.939.92.234 2.299-.938.92zm3.52 4.367l-.704-.92-.47-2.528 2.347-.23.938.46.235 2.758-2.346.46zm9.853-1.15l-.235-1.379 1.408-.46.235 1.84h-1.408zm41.758.69l-.469-2.528h2.58l.235 2.299-2.346.23zm12.2 0l-1.877-.46.469-2.068 1.877.46-.47 2.068zM31.67 52.874l-2.346-.23-.235-2.529.938-.69h2.346v2.529l-.703.92zm46.45 4.367l-1.173-.23-.235-1.609 1.408-.92 2.58-2.528.704-1.15 1.642-1.379 1.408 1.15-.938 2.069-.939.92-1.173.919-.938.69-.939.919-1.407 1.15zm-58.884-4.827l-.235-2.529 2.112-.23.234 2.529-2.111.23zm52.55-.69l-.47-1.839 2.112.23v1.61h-1.642zm-47.154 4.828v-2.3l2.111.23v2.07h-2.111z" fill="#D8E1DD"/></svg>