<svg xmlns="http://www.w3.org/2000/svg" width="40" height="40"><defs><filter id="a" width="200%" height="200%" x="-50%" y="-50%"><feGaussianBlur in="SourceGraphic" result="FeGaussianBlur1049Out" stdDeviation="0.5 0.5"/></filter><mask id="b"><path fill="#fff" d="M20.25.598C31.158.598 40 9.44 40 20.349s-8.842 19.752-19.75 19.752S.5 31.258.5 20.35C.5 9.441 9.342.598 20.25.598z"/></mask></defs><path fill="#e53737" d="M20.25.598C31.158.598 40 9.44 40 20.349s-8.842 19.752-19.75 19.752S.5 31.258.5 20.35C.5 9.441 9.342.598 20.25.598z"/><path fill="#53b93f" d="M20.25.598C31.158.598 40 9.44 40 20.349s-8.842 19.752-19.75 19.752S.5 31.258.5 20.35C.5 9.441 9.342.598 20.25.598z"/><path fill="#30343f" fill-opacity=".21" d="M-1.5 42.9V-1.9h43v44.8zM1 21.25C1 32.157 9.842 41 20.75 41S40.5 32.158 40.5 21.25 31.658 1.499 20.75 1.499 1 10.34 1 21.249z" filter="url(#a)" mask="url(&quot;#b&quot;)"/></svg>