<svg aria-hidden="true" style="position:absolute;width:0;height:0" xmlns="http://www.w3.org/2000/svg" overflow="hidden"><defs><symbol id="icon-clock" viewBox="0 0 32 32"><path d="M16 4c6.617 0 12 5.383 12 12s-5.383 12-12 12S4 22.617 4 16 9.383 4 16 4zm0-4C7.164 0 0 7.164 0 16s7.164 16 16 16 16-7.164 16-16S24.836 0 16 0zm5.422 18.578L18 15.152V8h-4.023v7.992c0 .602.277 1.121.695 1.492l3.922 3.922 2.828-2.828z"/></symbol><symbol id="icon-infinity" viewBox="0 0 24 24"><path d="M16.433 8.596a4.282 4.282 0 0 0-3.036 1.246l-1.396 1.34-1.375-1.32c-.815-.817-1.901-1.266-3.055-1.266s-2.239.451-3.053 1.266a4.288 4.288 0 0 0-1.267 3.055c0 1.152.449 2.238 1.266 3.053a4.285 4.285 0 0 0 3.054 1.266 4.272 4.272 0 0 0 3.036-1.248l1.395-1.338 1.376 1.32c.815.816 1.901 1.266 3.055 1.266s2.238-.449 3.053-1.266c.817-.814 1.267-1.9 1.267-3.055s-.449-2.238-1.266-3.055a4.296 4.296 0 0 0-3.054-1.264zm-7.576 5.605c-.687.688-1.884.688-2.572 0a1.807 1.807 0 0 1-.533-1.285c0-.486.189-.941.535-1.287.342-.344.799-.533 1.284-.533s.942.189 1.305.551l1.321 1.27-1.34 1.284zm8.861 0c-.687.689-1.866.705-2.59-.018l-1.321-1.27 1.339-1.285c.688-.688 1.886-.688 2.573-.002.344.346.533.801.533 1.287s-.19.944-.534 1.288z"/></symbol><symbol id="icon-alert" viewBox="0 0 32 32"><path d="M16 1C8.875 1 3 6.875 3 14s5.875 13 13 13 13-5.875 13-13S23.125 1 16 1zm1.5 19.5h-3V18h3zm0-5.5h-3V7h3z"/></symbol><symbol id="icon-android-arrow-down" viewBox="0 0 32 32"><path d="M17.313 3.313v16.25l7.5-7.5 1.875 1.938L16 24.689 5.312 14.001l1.875-1.875 7.5 7.438V3.314z"/></symbol><symbol id="icon-android-bus" viewBox="0 0 32 32"><path d="M5 20c0 1.188.875 1.563 1.688 2.25v2.438a1.32 1.32 0 0 0 1.313 1.313h1.313c.75 0 1.375-.625 1.375-1.313v-1.375h10.625v1.375c0 .688.625 1.313 1.375 1.313h1.313a1.32 1.32 0 0 0 1.313-1.313V22.25c.813-.688 1.688-1.125 1.688-2.25V7.25c0-4.625-5.125-5.25-11-5.25s-11 .625-11 5.25zm5 1c-1.125 0-2-.875-2-2s.875-2 2-2 2 .875 2 2-.875 2-2 2zm12 0c-1.125 0-2-.875-2-2s.875-2 2-2 2 .875 2 2-.875 2-2 2zm2-7.687H8V6.688h16z"/></symbol><symbol id="icon-android-exit" viewBox="0 0 32 32"><path d="M13.438 18.813l1.875 1.875L22.001 14l-6.688-6.688-1.875 1.875 3.5 3.5H4v2.625h12.875zM25.313 2H6.688A2.668 2.668 0 0 0 4 4.688v5.313h2.688V4.688h18.625v18.625H6.688V18H4v5.313c0 1.5 1.188 2.688 2.688 2.688h18.625c1.5 0 2.688-1.188 2.688-2.688V4.688c0-1.5-1.188-2.688-2.688-2.688z"/></symbol><symbol id="icon-android-textsms" viewBox="0 0 32 32"><path d="M25.5 2H6C4.625 2 4 3.125 4 4.5V26l4-4h17.5c1.375 0 2.5-1.125 2.5-2.5v-15C28 3.125 26.875 2 25.5 2zM12.375 13.125H10v-2.5h2.375zm4.813 0h-2.375v-2.5h2.375zm4.812 0h-2.375v-2.5H22z"/></symbol><symbol id="icon-angle-down" viewBox="0 0 32 32"><path d="M24.938 11.125a.568.568 0 0 1-.188.438l-8.313 8.313c-.125.125-.313.188-.438.188s-.313-.063-.438-.188l-8.313-8.313a.568.568 0 0 1-.188-.438c0-.125.063-.25.188-.375l.938-.938c.063-.063.25-.125.375-.125.188 0 .313.063.438.125l7 7.063 7-7.063a.898.898 0 0 1 .438-.125c.125 0 .313.063.375.125l.938.938c.125.125.188.25.188.375z"/></symbol><symbol id="icon-angle-left" viewBox="0 0 32 32"><path d="M21.5 7.688a.568.568 0 0 1-.188.438l-7 7 7 7.063c.125.063.188.25.188.375a.568.568 0 0 1-.188.438l-.875.875c-.125.125-.313.188-.438.188s-.313-.063-.438-.188l-8.313-8.313a.568.568 0 0 1-.188-.438c0-.125.063-.25.188-.375l8.313-8.313c.125-.125.313-.188.438-.188s.313.063.438.188l.875.875c.125.125.188.25.188.375z"/></symbol><symbol id="icon-angle-right" viewBox="0 0 32 32"><path d="M20.938 15.125a.568.568 0 0 1-.188.438l-8.313 8.313c-.125.125-.313.188-.438.188s-.313-.063-.438-.188l-.875-.875a.568.568 0 0 1-.188-.438c0-.125.063-.313.188-.375l7-7.063-7-7a.568.568 0 0 1-.188-.438c0-.125.063-.25.188-.375l.875-.875c.125-.125.313-.188.438-.188s.313.063.438.188l8.313 8.313c.125.125.188.25.188.375z"/></symbol><symbol id="icon-angle-up" viewBox="0 0 32 32"><path d="M24.938 19.125a.568.568 0 0 1-.188.438l-.938.875c-.063.125-.25.188-.375.188a.568.568 0 0 1-.438-.188l-7-7-7 7a.568.568 0 0 1-.438.188c-.125 0-.313-.063-.375-.188l-.938-.875a.568.568 0 0 1-.188-.438c0-.125.063-.25.188-.375l8.313-8.313c.125-.125.313-.188.438-.188s.313.063.438.188l8.313 8.313c.125.125.188.25.188.375z"/></symbol><symbol id="icon-bars" viewBox="0 0 32 32"><path d="M29.688 22v2.313c0 .313-.063.563-.313.75-.25.25-.5.375-.813.375H3.437c-.313 0-.563-.125-.813-.375-.25-.188-.313-.438-.313-.75V22c0-.313.063-.563.313-.813.25-.188.5-.313.813-.313h25.125c.313 0 .563.125.813.313.25.25.313.5.313.813zm0-9.125v2.25c0 .313-.063.625-.313.813-.25.25-.5.375-.813.375H3.437c-.313 0-.563-.125-.813-.375-.25-.188-.313-.5-.313-.813v-2.25c0-.313.063-.625.313-.813.25-.25.5-.375.813-.375h25.125c.313 0 .563.125.813.375.25.188.313.5.313.813zm0-9.187v2.313c0 .313-.063.563-.313.813-.25.188-.5.313-.813.313H3.437c-.313 0-.563-.125-.813-.313-.25-.25-.313-.5-.313-.813V3.688c0-.313.063-.563.313-.75.25-.25.5-.375.813-.375h25.125c.313 0 .563.125.813.375.25.188.313.438.313.75z"/></symbol><symbol id="icon-caret-down" viewBox="0 0 32 32"><path d="M25.125 10.563c0 .313-.125.563-.313.813l-8 8c-.25.25-.5.313-.813.313s-.563-.063-.813-.313l-8-8c-.188-.25-.313-.5-.313-.813s.125-.563.313-.813c.25-.188.5-.313.813-.313h16c.313 0 .563.125.813.313.188.25.313.5.313.813z"/></symbol><symbol id="icon-caret-left" viewBox="0 0 32 32"><path d="M21.688 6v16c0 .313-.063.563-.313.813-.25.188-.5.313-.813.313s-.563-.125-.813-.313l-8-8c-.188-.25-.313-.5-.313-.813s.125-.563.313-.813l8-8c.25-.188.5-.313.813-.313s.563.125.813.313c.25.25.313.5.313.813z"/></symbol><symbol id="icon-caret-right" viewBox="0 0 32 32"><path d="M20.563 14c0 .313-.125.563-.313.813l-8 8c-.25.188-.5.313-.813.313s-.563-.125-.813-.313c-.25-.25-.313-.5-.313-.813V6c0-.313.063-.563.313-.813.25-.188.5-.313.813-.313s.563.125.813.313l8 8c.188.25.313.5.313.813z"/></symbol><symbol id="icon-caret-up" viewBox="0 0 32 32"><path d="M25.125 19.688c0 .313-.125.625-.313.813-.25.25-.5.375-.813.375h-16c-.313 0-.563-.125-.813-.375-.188-.188-.313-.5-.313-.813s.125-.563.313-.75l8-8c.25-.25.5-.375.813-.375s.563.125.813.375l8 8c.188.188.313.438.313.75z"/></symbol><symbol id="icon-check" viewBox="0 0 32 32"><path d="M29.813 8.125c0 .438-.125.875-.5 1.188L14 24.688c-.375.313-.75.5-1.25.5a1.71 1.71 0 0 1-1.188-.5l-8.875-8.875c-.375-.375-.5-.75-.5-1.25 0-.438.125-.875.5-1.188l2.375-2.438c.375-.313.75-.5 1.25-.5.438 0 .875.188 1.188.5l5.25 5.25L24.5 4.437c.313-.313.75-.5 1.188-.5.5 0 .875.188 1.25.5l2.375 2.438c.375.375.5.75.5 1.25z"/></symbol><symbol id="icon-comment-discussion" viewBox="0 0 32 32"><path d="M10 14V8H4c-1 0-2 1-2 2v10c0 1 1 2 2 2h2v6l6.063-6h6c.937 0 1.938-1 1.938-2v-2h-6c-2 0-4-2-4-4zM28 2H14c-1 0-2 1-2 2v10c0 1 1 2 2 2h5.938l6.063 6v-6h2c1 0 2-1 2-2V4c0-1-1-2-2-2z"/></symbol><symbol id="icon-download" viewBox="0 0 32 32"><path d="M30.938 18.875c.438.188.688.563.875 1 .188.5.25.938.125 1.313l-.875 4.938c-.125.375-.375.75-.75 1a1.91 1.91 0 0 1-1.25.438H2.938c-.5 0-.875-.125-1.313-.438-.375-.25-.563-.625-.688-1l-.875-4.938c-.25-1.063.125-1.813 1-2.313l5.063-3.438H9.25l-5.438 4.125H9.5c.188 0 .313.063.438.25l1.25 3.563h9.625l1.25-3.563c.188-.188.313-.25.375-.25h5.688l-5.438-4.125h3.188l5.063 3.438zM24.313 8.563L16 16.376 7.687 8.563H13V.375h6.063v8.188h5.25z"/></symbol><symbol id="icon-email" viewBox="0 0 32 32"><path d="M4.188 7.313c.688.375 10.25 5.563 10.625 5.75.313.188.688.25 1.25.25s.938-.063 1.313-.25c.313-.188 9.875-5.375 10.563-5.75.25-.125.688-.375.813-.625.125-.5-.063-.688-.75-.688H4.127c-.688 0-.875.188-.688.688.063.25.5.5.75.625zm24.312.25c-.5.25-5.125 3.563-8.188 5.5l5.125 5.813c.125.125.188.25.125.313-.063.125-.25.063-.375-.063l-6.125-5.188c-.938.563-1.625 1-1.688 1.063-.5.25-.875.25-1.313.25s-.813 0-1.25-.25c-.125-.063-.813-.5-1.75-1.063l-6.125 5.188c-.125.125-.313.188-.375.063-.063-.063 0-.188.125-.313l5.125-5.813c-3.063-1.938-7.688-5.25-8.25-5.5-.5-.25-.563.063-.563.313v12.813c0 .563.875 1.313 1.5 1.313h23.188c.563 0 1.313-.75 1.313-1.313V7.876c0-.25.063-.563-.5-.313z"/></symbol><symbol id="icon-envelope" viewBox="0 0 32 32"><path d="M32 10.688v14.188c0 .75-.25 1.438-.813 2s-1.25.813-2.063.813H2.874c-.813 0-1.5-.25-2.063-.813s-.813-1.25-.813-2V10.688c.5.563 1.125 1.063 1.813 1.563 4.313 2.938 7.25 4.938 8.875 6.125.688.5 1.25.938 1.625 1.188.438.25 1 .563 1.688.875.75.25 1.375.438 2 .438s1.25-.188 2-.438c.688-.313 1.25-.625 1.688-.875.375-.25.938-.688 1.625-1.188 2.063-1.438 5-3.5 8.875-6.125.688-.5 1.313-1 1.813-1.563zm0-5.25c0 .938-.313 1.813-.875 2.688s-1.313 1.563-2.188 2.188c-4.438 3.125-7.25 5.063-8.375 5.813-.063.063-.375.25-.75.563-.375.25-.688.5-.938.688a9.19 9.19 0 0 0-.938.563c-.375.188-.688.375-1 .5-.375.063-.625.125-.938.125-.313 0-.563-.063-.938-.125-.313-.125-.625-.313-1-.5a9.19 9.19 0 0 0-.938-.563c-.25-.188-.563-.438-.938-.688-.375-.313-.688-.5-.75-.563-1.125-.75-2.688-1.875-4.688-3.25-2.063-1.438-3.25-2.25-3.688-2.563-.75-.5-1.438-1.188-2.063-2.063-.688-.875-1-1.688-1-2.438 0-.938.25-1.688.75-2.313s1.188-.938 2.125-.938h26.25c.813 0 1.438.313 2 .875s.875 1.188.875 2z"/></symbol><symbol id="icon-heart" viewBox="0 0 32 32"><path d="M16 27.688c-.313 0-.563-.063-.813-.313L4.062 16.625c-.125-.063-.25-.25-.5-.438-.188-.25-.5-.625-1-1.188a17.167 17.167 0 0 1-1.188-1.75c-.375-.563-.688-1.313-.938-2.125a7.267 7.267 0 0 1-.438-2.5c0-2.625.75-4.625 2.25-6.125S5.873.311 8.561.311c.688 0 1.438.125 2.25.375.75.25 1.438.563 2.125 1s1.25.875 1.688 1.25c.5.375.938.75 1.375 1.188.438-.438.875-.813 1.375-1.188.438-.375 1-.813 1.688-1.25s1.375-.75 2.125-1C22 .436 22.75.311 23.437.311c2.688 0 4.813.688 6.313 2.188S32 5.999 32 8.624s-1.375 5.313-4.063 8.063L16.812 27.375c-.25.25-.5.313-.813.313z"/></symbol><symbol id="icon-heart-o" viewBox="0 0 32 32"><path d="M29.688 8.625c0-.938-.125-1.813-.375-2.563-.25-.688-.563-1.313-.938-1.75-.438-.438-.938-.75-1.5-1.063a8.92 8.92 0 0 0-1.688-.563c-.5-.063-1.125-.125-1.75-.125-.563 0-1.25.188-2 .438-.688.313-1.375.688-1.938 1.188-.625.438-1.125.875-1.563 1.25-.438.438-.75.813-1.063 1.125-.188.25-.5.375-.875.375s-.688-.125-.875-.375c-.313-.313-.625-.688-1.063-1.125-.438-.375-.938-.813-1.563-1.25-.563-.5-1.25-.875-1.938-1.188-.75-.25-1.438-.438-2-.438-.625 0-1.25.063-1.75.125a8.92 8.92 0 0 0-1.688.563c-.563.313-1.063.625-1.5 1.063-.375.438-.688 1.063-.938 1.75-.25.75-.375 1.625-.375 2.563 0 2 1.063 4.125 3.313 6.375l10.375 10 10.375-10c2.25-2.25 3.313-4.375 3.313-6.375zm2.312 0c0 2.625-1.375 5.313-4.063 8.063L16.812 27.376c-.25.25-.5.313-.813.313s-.563-.063-.813-.313L4.061 16.626c-.125-.063-.25-.25-.5-.438-.188-.25-.5-.625-1-1.188a17.167 17.167 0 0 1-1.188-1.75c-.375-.563-.688-1.313-.938-2.125a7.267 7.267 0 0 1-.438-2.5C-.003 6 .747 4 2.247 2.5S5.872.312 8.56.312c.688 0 1.438.125 2.25.375.75.25 1.438.563 2.125 1s1.25.875 1.688 1.25c.5.375.938.75 1.375 1.188.438-.438.875-.813 1.375-1.188.438-.375 1-.813 1.688-1.25s1.375-.75 2.125-1c.813-.25 1.563-.375 2.25-.375 2.688 0 4.813.688 6.313 2.188s2.25 3.5 2.25 6.125z"/></symbol><symbol id="icon-home" viewBox="0 0 32 32"><path d="M26.313 15.688v8.625a.89.89 0 0 1-.375.75c-.188.25-.5.375-.813.375h-6.813v-6.875h-4.625v6.875H6.874c-.313 0-.625-.125-.813-.375a.892.892 0 0 1-.375-.75v-8.625-.063l10.25-8.5 10.313 8.5v.063zM30.25 14.5l-1.063 1.313c-.125.125-.25.188-.375.188h-.063c-.188 0-.313-.063-.375-.125L15.999 5.563 3.624 15.876c-.125.125-.25.125-.438.125-.125 0-.25-.063-.375-.188L1.748 14.5c-.125-.125-.125-.25-.125-.438s.063-.313.188-.375L14.624 2.999c.375-.313.875-.5 1.375-.5s1 .188 1.375.5l4.313 3.625v-3.5c0-.125.063-.313.188-.375a.568.568 0 0 1 .438-.188h3.375c.188 0 .313.063.438.188.125.063.188.25.188.375v7.313l3.875 3.25c.125.063.188.188.188.375s0 .313-.125.438z"/></symbol><symbol id="icon-ic-close-black-36px" viewBox="0 0 32 32"><path d="M25.313 6.563l-1.875-1.875L16 12.126 8.562 4.688 6.687 6.563l7.438 7.438-7.438 7.438 1.875 1.875L16 15.876l7.438 7.438 1.875-1.875-7.438-7.438z"/></symbol><symbol id="icon-icon1" viewBox="0 0 32 32"><path d="M3.313 26.625h1.25s-.313-5.938.25-10.563c.563-4.563 5.313 1.938 6.688 4.438 1.375 2.563 1.688 6 6.5 6.375 4.75.375 11.875-.938 13.375-1.5s-.063-2.063-1.5-2.563c-1.5-.563-3.25-1.063-5.313-1.938-2.063-.813-3.313 1.625-4.813 2.438-.313.188-.75.688-1.188.813a3.9 3.9 0 0 0-1.375-.625c-1.438-.5-1.875-1.375-2.188-2.75-.563-2.313-1.125-4.313-2.188-6.5-1.125-2.375-2.563-4.688-4-6.938-1.125-1.75-2.188-3.5-3.813-4.75-.563-.875-1-1.5-1-1.5C-2.877 7.75.935 10.937 2.31 12.812c1.375 1.813 1 13.813 1 13.813zm5.812-17.75A59.365 59.365 0 0 1 13 15.938c.5 1.125.938 2.25 1.188 3.5.188.938.313 1.875.688 2.813.563 1.438 2 1.5 3.188 2.188-1.625 1-3.375 1.813-3.563-1.125-.25-4.125-3.313-8.313-4.188-11.313-.875-2.938-2.938-3.625-3.625-5.938-.188-.625-.5-1.313-.813-2 1.313 1.438 2.25 3.188 3.25 4.813z"/></symbol><symbol id="icon-icon2" viewBox="0 0 32 32"><path d="M7.313 24.563H0v3.813c0 .25.125.563.313.75s.5.313.75.313h7.188c.438 0 .75-.188.938-.5.25-.375.25-.813 0-1.125zM32 10.125a6.354 6.354 0 0 1-4.813 2.188c-1.313 0-2.625-.438-3.75-1.188a6.299 6.299 0 0 1-2.563 1.125v4.625c0 2.813 1.813 5.313 4.5 6.125h6.625zm-27.187.688c1.438 0 2.813-.688 3.75-1.813.875 1.125 2.25 1.813 3.688 1.813s2.813-.688 3.75-1.813a4.741 4.741 0 0 0 3.75 1.813A4.71 4.71 0 0 0 23.439 9c.938 1.125 2.313 1.813 3.75 1.813 2.625 0 4.813-2.188 4.813-4.875V-.375c0-.563-.5-1.063-1.125-1.063H1.127C.564-1.438.002-1 .002-.375v6.313c0 2.688 2.188 4.875 4.813 4.875zm3.75.312c-1.125.813-2.438 1.188-3.75 1.188A6.354 6.354 0 0 1 0 10.125v12.938h6.625a6.51 6.51 0 0 0 4.5-6.188V12.25a6.326 6.326 0 0 1-2.563-1.125zm16.125 13.438l-1.875 3.25a.847.847 0 0 0 0 1.063c.188.375.5.563.938.563h7.188c.563 0 1.063-.5 1.063-1.063v-3.813z"/></symbol><symbol id="icon-icon3" viewBox="0 0 32 32"><path d="M32 8.438h-2V6.875H16.187v1.563H-.001v11.125h16.188v1.563H30v-1.563h2zM5.625 15.563c-.875 0-1.563-.688-1.563-1.563s.688-1.563 1.563-1.563 1.563.688 1.563 1.563-.688 1.563-1.563 1.563zm7.563 0c-.875 0-1.563-.688-1.563-1.563s.688-1.563 1.563-1.563 1.563.688 1.563 1.563-.688 1.563-1.563 1.563zm12.75-3.063h-3.125v3h3.125v1.625H20.25v-6.25h5.688z"/></symbol><symbol id="icon-icon4" viewBox="0 0 32 32"><path d="M26.063 15.625c-.25.5-.5.938-.75 1.375l3.688 4.625H9.438v.063H3l3.875-4.813v-.125c0-.688.25-1.313.688-1.813.5-.5 1.188-.813 1.875-.813.375 0 .688.125 1.063.25h2.563c-.313-.438-.563-.938-.813-1.438H8.126L.001 23.061h32zm-6.313-2.687c-.25.5-.5 1-.813 1.438H20.5a3.439 3.439 0 0 1-.188-1v-.438zm.375-3.875c0-2.313-1.875-4.125-4.125-4.125s-4.125 1.813-4.125 4.125c0 2.25 4.125 8.188 4.125 8.188s4.125-5.938 4.125-8.188zm-6.187 0c0-1.188.938-2.063 2.063-2.063.563 0 1.063.188 1.438.563.375.438.625.938.625 1.5 0 .5-.25 1.063-.625 1.438s-.875.625-1.438.625a2.082 2.082 0 0 1-2.063-2.063zM26 13.375a2.441 2.441 0 0 0-2.438-2.438 2.402 2.402 0 0 0-2.438 2.438c0 1.313 2.438 4.875 2.438 4.875S26 14.687 26 13.375zm-3.687 0c0-.688.563-1.25 1.25-1.25.625 0 1.188.563 1.188 1.25 0 .313-.125.625-.375.875-.188.188-.5.313-.813.313s-.625-.125-.875-.313a1.235 1.235 0 0 1-.375-.875zM7.5 16.688c0 1.063 1.938 3.813 1.938 3.813s1.875-2.75 1.875-3.813c0-.5-.188-1-.563-1.313-.313-.375-.813-.563-1.313-.563s-1 .188-1.375.563c-.375.313-.563.813-.563 1.313zm2.875 0a.921.921 0 0 1-.938.938c-.563 0-.938-.375-.938-.938 0-.5.375-.938.938-.938.5 0 .938.438.938.938z"/></symbol><symbol id="icon-icon5" viewBox="0 0 32 32"><path d="M9.313 30h20.5c1.125 0 2-.875 2-2V10.75c0-.375-.125-.75-.438-1.063a1.508 1.508 0 0 0-1.063-.438h-8.5c-.438 0-.813-.125-1.063-.438-.313-.25-.438-.625-.438-1V-.502c0-.438-.188-.813-.438-1.063s-.625-.438-1.063-.438h-9.5c-1.063 0-1.938.875-1.938 2v2.5l13.25 13.188c.375.375.625.813.75 1.25l1.563 4.813c.25.75.125 1.625-.313 2.25-.5.688-1.313 1.125-2.125 1.125-.188 0-.438-.063-.625-.125l-5.063-1.25a2.99 2.99 0 0 1-1.438-.813l-6-5.938v11c0 1.125.875 2 1.938 2zM31.188 7c.563 0 .875-.688.438-1.125l-7.688-7.688c-.438-.375-1.125-.125-1.125.5v7.688c0 .375.313.625.625.625h7.75zM3.938 2.625c-.375 0-.813.125-1.063.375L.625 5.25C.062 5.813.062 6.938.562 7.438l2 2L7 4.938 5.062 3a1.747 1.747 0 0 0-1.125-.375zM13.75 20.5l4.438-4.438-9.75-9.75-4.5 4.5 3.438 3.375zm6.625 2.625h.125c.438 0 .75-.375.563-.813l-1.563-4.75v-.063l-4.313 4.313h.063z"/></symbol><symbol id="icon-icon6" viewBox="0 0 32 32"><path d="M15.875-2S4.812-2.5 6.062 14.688c0 0-.063 14.063 6.188 15.313 0 0-2.75-3.188-1.938-5.438 0 0 3.438-.625 2.938-5.938 0 0-2.875-2.563-3.25-4.313 0 0 0-5.5.5-6.188 0 0 2.75.188 3.063 0 0 0 2.25-2.063 2.75-3.125 0 0 .438 1.813-.625 2.938h2.875c0 1.188.938-.875 1.063-1.875 0 0 .313 1.75-.125 2h1.688c0 .188.938 4.875.688 6.25 0 0-1.625 3.625-3.25 4.25 0 0-.563 5.438 3.375 6.125 0 0-.313 4.875-2.75 5.125 0 0 4.063 1.063 6.375-7.563 0 0 1.125-12-.375-15.938 0 0-1.438-7.375-9.375-8.313z"/></symbol><symbol id="icon-icon7" viewBox="0 0 32 32"><path d="M31.938 13.063c-.438.5-.875.438-1.375.25a26.46 26.46 0 0 1-2-.813c-1.625-.688-3.25-1.125-5.063-1-1.375.125-2.688.375-3.938.875-.5.125-1 .25-1.438.25-.5 0-.938-.125-1.438-.25-.188-.063-.313-.125-.5-.188 1.25-1.188.375-3.438 1.938-4.375-2.313-.438-3.563-.313-4.938.813-1.063.813-1.563 1.938-1.5 2.875-.125.063-.188.063-.313.125-.063-1.188.563-2.438 1.688-3.375.5-.375 1-.688 1.5-.875-.063-.688 0-1.375.563-1.938-2.688.375-4 .875-5.188 2.625-.875 1.313-1.063 2.813-.563 3.875L9.06 12c-.063-.813-.5-1.625-1.188-2.375-1.313-1.25-3.563 0-4.75-1.5-.125 2.375.188 3.563 1.438 4.813.188.188.375.375.625.5-.313.063-.625-.063-.938-.375-.125 2.563.063 5.063 1.125 7.438.563 1.375 1.438 2.563 2.688 3.438 2 1.375 4.25 1.188 6.625.438.5-.188 1-.438 1.438-.688.688-.5 1.438-.875 2.063-.875s1.313.375 2.063.875c.438.25.938.5 1.438.688 2.313.75 4.438.938 6.5-.438 1.25-.875 2.063-2.063 2.688-3.438 1-2.375 1.25-4.875 1.063-7.438zM7.313 20.688c0 .188-.25.125-.25-.063.25-.75.313-1.375-.438-1.813-.438-.313-.875-.563-1.25-.938-.875-.875-.875-1.75.25-2.375.125-.063.25.125.125.25-1.813 1 .125 2.25 1.125 2.938.75.5.688 1.188.438 2zm3.875 2.75c0-.188.25-.125.25.063-.25 1.75 1.25.188.813-.375-.375-.438-1.375-.063-1.813.125-.563.125-1.25.313-1.813.188-1-.125-1.5-1.375-.75-2.125.75-.813 1.813-.25 1.875.75 0 .125-.25.125-.25 0-.063-1-1.125-1.125-1.625-.375-.25.375-.063.938.188 1.25.313.313.75.313 1.063.313.813-.063 2.5-.875 3.25-.188.875.688-1.5 2.75-1.188.375zM9.5 20.75c-2.25-1.188-2.75-4.688-2.75-4.688s2.938-1.125 5.188.063c2.313 1.188 3.063 4.25 3.063 4.25s-3.188 1.563-5.5.375zm4.813-6.125c-.375.5-.813.75-1 .625-.125-.125.063-.563.5-1.063.375-.438 1.188-.813 1.188-.813s-.25.813-.688 1.25zm1.75 1.125c-.25.75-.688 1.313-.875 1.25-.25-.125-.25-.75 0-1.563.25-.75 1.063-1.625 1.063-1.625s.063 1.188-.188 1.938zm1.75 3.063c-.375 0-.688-1.063-.688-2.313 0-1.313.688-3 .688-3s.75 1.688.75 3c0 1.25-.313 2.313-.75 2.313zm2.687-1.938c-.25.063-.625-.5-.938-1.25-.25-.813-.125-1.938-.125-1.938s.75.875 1 1.625.25 1.438.063 1.563zm1.313-2.812c.438.5.625.938.5 1.063s-.625-.125-1-.625c-.438-.438-.688-1.313-.688-1.313s.813.438 1.188.875zm-.563 6.312s.75-3.063 3-4.25c2.313-1.188 5.25-.063 5.25-.063s-.5 3.5-2.813 4.688c-2.25 1.188-5.438-.375-5.438-.375zm6.313 3c-.563.063-1.25-.063-1.813-.25-.438-.063-1.438-.438-1.813 0-.438.563 1.063 2.125.813.375 0-.188.25-.25.25-.063.313 2.375-2.063.313-1.188-.5.75-.688 2.375.125 3.25.188.313.125.75 0 1.063-.25.25-.313.438-.938.188-1.313-.5-.75-1.563-.625-1.625.375 0 .125-.25.125-.25 0 .063-1 1.125-1.563 1.875-.75.75.75.25 2-.75 2.188zM30.688 18c-.438.438-.875.688-1.375 1-.625.5-.563 1.125-.375 1.813.063.125-.188.188-.188.063-.25-.813-.313-1.563.438-2.063 1-.688 2.875-1.938 1.125-2.938-.125-.063 0-.313.125-.188.438.188.938.563.938 1.125-.063.438-.375.875-.688 1.188zM3.5 12.25c-.688-.125-1.438-.5-2.063-1.125-1.25-1.313-1.5-2.5-1.438-4.813 1.188 1.438 3.438.188 4.75 1.5.25.25.438.5.625.813-.75 0-1.438-.063-1.938-.688l-.625-.75v1c-.125 1.688 0 2.938.688 4.063zm-.75-7.687L2.375 4 3 4.188c2.125.438 3.313 1 4.25 2.563v.563c-.063.563 0 1.125.188 1.625-.5-.25-1.125-.25-1.625-.313-.125-.188-.188-.313-.313-.5-.563-.875-1.625-1.063-2.625-1.313.188-.813.313-1.563-.125-2.25zm4.625 2.375c0-.063-.063-.125-.125-.188.25-1.5 1-2.375 2.625-3.688-.25 1.25.875 2.063 1.563 3.063-.75.375-1.313.938-1.938 1.813a5.544 5.544 0 0 0-.813 2.125 5.592 5.592 0 0 0-.563-.625c0-.063-.063-.125-.125-.188 0-.688-.188-1.5-.625-2.313z"/></symbol><symbol id="icon-icon8" viewBox="0 0 32 32"><path d="M5.938 15.938c-.188 0-.438.063-.563.188-.125.188-.25.375-.25.563 0 .25.125.438.25.563.125.188.375.25.563.25h.063c.25 0 .438-.063.563-.25.188-.125.25-.313.25-.563 0-.188-.063-.375-.25-.563-.125-.125-.313-.188-.563-.188zm2.75 0a1.01 1.01 0 0 0-.563.188 1.01 1.01 0 0 0-.188.563c0 .25.063.438.188.563.188.188.375.25.563.25h.063c.25 0 .438-.063.563-.25.188-.125.25-.313.25-.563 0-.188-.063-.375-.25-.563-.125-.125-.313-.188-.563-.188zM32 3.25v8.938a3.789 3.789 0 0 1-3.813 3.813H16.999c-.063.063-.188.188-.375.313l-.188.188-2.938 2.688c-.188.188-.563.25-.813.125a.812.812 0 0 1-.5-.75V10.19H3.872c-1.25 0-2.313 1-2.313 2.25v8.938c0 1.25 1.063 2.188 2.313 2.188h11.5c.188 0 .375.125.5.25l2.375 2.188v-7.563c0-.188.063-.375.25-.563.125-.125.313-.188.563-.188.188 0 .375.063.563.188.125.188.188.375.188.563v9.375c0 .188-.063.375-.188.563-.188.125-.375.188-.563.188s-.375-.063-.563-.188l-3.5-3.188H3.872c-2.125 0-3.875-1.688-3.875-3.813V12.44c0-2.125 1.75-3.813 3.875-3.813h8.313V3.252c0-2.125 1.75-3.813 3.875-3.813h12.125a3.789 3.789 0 0 1 3.813 3.813zm-9.687 7.313l.125.063c3.688 0 3.25-2.375 6.75-3.938-2.063 0-4.25-2.875-5.438-2.875-1.25 0-1.313 1.25-1.313 1.25v.125s-.188-1.375-1.375-1.375c-1.25 0-3.375 2.813-5.438 2.813 3.5 1.563 3.063 3.938 6.688 3.938zm3.75-3.875c-1.438.375-1.938 1.188-3.625 1.188-1.625 0-3-1.188-3.563-1.188 0 0 5.5.063 7.188 0z"/></symbol><symbol id="icon-icon9" viewBox="0 0 32 32"><path d="M24 5.438H10.312c-4.438 0-8 3.813-8 8.563S.124 20.564.062 22.626H24c4.375 0 8-3.875 8-8.625s-3.625-8.563-8-8.563z"/></symbol><symbol id="icon-icon10" viewBox="0 0 32 32"><path d="M9.438 17.688c-.063-.063-.063-.188-.063-.313 0-.063 0-.188.063-.313 1.375-1.063 3.125-1.688 4.5-3.063-2.625-2.5-4.063-5.625-4.75-9.125.125-.125.125-.25.188-.375.313-.688.813-1.125 1.563-1 .813.063 1.25.625 1.313 1.375.25 1.563.5 3.063 1.25 4.5.563 1.063 1.188 2.063 2.063 2.938.75-.25 1.063-.875 1.438-1.438 1.125-1.625 1.813-3.375 1.938-5.313.063-.438.188-.875.375-1.313.25-.688.813-.938 1.563-.75.688.188 1.125.625 1.125 1.375.063 1.063-.25 2.125-.625 3.063-.688 1.75-1.5 3.438-2.75 4.813-.375.438-.813.75-1.25 1.188 1.625 1.625 3.688 2.375 5.375 3.813.063.813-.438.813-.938.625-1.938-.563-3.813-1.188-5.438-2.438-.5-.375-.875-.313-1.375.188-1.313.875-2.688 1.625-4.188 2-.5-.063-.938 0-1.375-.438zm2.187 2.875c-.25 1.313.313 2.125 1.063 3-1.75.813-3.625.813-5.25 1.625.125.688.625.563.938.5 2.813-.25 5.625-.625 8.438-.563.313.125.625 0 .875.25 0 .25-.25.313-.375.313-1.563.438-2.938.813-4.375 1.25-3.125 1-6.313 1.375-9.563.625-.688-.125-1.313-.25-1.938-.875 2.813-2.875 6.375-4.438 10.188-6.125zm3.438 6.687c1.313-.563 2.75-.688 4.125-1.063 1.375-.438 2.938.125 4.375-.375.063-.688-.188-.875-1.063-1-1.313-.188-2.625-.5-4.125-.75.625-1.125 1.313-2.125 1.063-3.5 3.563 1.875 7.375 3.125 10.563 5.688-.438.688-.875 1.063-1.563 1.25-1.25.375-2.563.25-3.813.125-1.25-.188-2.563-.125-3.813-.125-1.938-.063-3.813 0-5.75 0zM1.125 29.375c.375-.375.813-.438 1.313-.438 2.063.5 4.188.25 6.313.125 7-.25 14.063 0 21.125-.125.375 0 .813-.063 1 .5-.125.625-.563.563-1 .563H1.938c-.438 0-.75-.125-.813-.625zM16.5 24.188c-1.438.125-2.875-.875-3.375-2.25-.563-1.563-.188-2.938 1.063-3.875.5-.375 2.375-.438 3-.063.875.563 1.25 1.5 1.063 2.625-.188 1.375-.563 2.688-1.75 3.563zm1.438-23c0 1.5-1.125 2.875-2.375 3-1.563.125-2.938-1.5-2.75-3.313.125-1.313.938-2.25 2.125-2.813.313-.063.625-.063.875 0 1.188.438 2.125 1.75 2.125 3.125z"/></symbol><symbol id="icon-icon11" viewBox="0 0 32 32"><path d="M10.875 19.375c-3.063.313-5.313-1-7.438-2.75C1.624 15.062.624 13.187.187 11c-.563-3.188.25-6.125 2.188-8.563 1.5-1.75 3.438-2.938 5.75-3.563 1.313-.375 2.563-.563 3.75-.313 1.625.313 3.188.813 4.563 1.688 1.875 1.125 3.25 2.688 4.063 4.688.688 1.625 1 3.375.75 5.188-.188 1.188-.375 2.375-1 3.438-.188.25 0 .5.313.688 1.063.563 1.188.938.813 2-.125.438.063.688.313.938 1.125 1.063 2.188 2.063 3.313 3.125 2 1.875 3.875 3.875 5.875 5.813.188.25.438.438.688.625.563.438.625 1.188.063 1.625-.375.25-.688.563-1 .813-.563.5-1 .5-1.563-.063l-.063-.063c-3.188-3.125-6.375-6.188-9.563-9.375-.375-.375-.75-.625-1.313-.313-.625.313-1.375.188-1.75-.5-.438-.75-.813-.688-1.563-.313-1.313.625-2.75.938-3.938.813zM17 14.25c-.375-.063-.563.25-.813.438-1.5 1.5-3.313 2.313-5.375 2.313-2.813.063-4.938-1.25-6.563-3.375-1.125-1.438-1.938-3-1.813-4.875.063-1.25.563-2.375 1.25-3.438 1.313-2.125 3-3.688 5.563-4.188 1.938-.375 3.688 0 5.313 1 1.25.688 2.25 1.625 3.063 2.813.125.188.313.375.625.125-.25-.5-.5-1.063-.938-1.438-.75-.688-1.5-1.375-2.438-1.875-1.875-1-3.875-1.438-6-.938-1.313.25-2.375.813-3.375 1.5-1.938 1.313-3.125 3.063-3.375 5.375-.25 2.25-.063 4.313 1.438 6.188.625.75 1.25 1.563 2.063 2.063 2.688 1.625 5.563 1.938 8.438.75 1.188-.5 2.375-1.188 3-2.375.375-.063.563-.25.625-.625-.438-.063-.688.125-.688.563zm.75-5.187c.188-3.625-3.313-7.063-7.188-6.938-3.813.063-6.75 2.875-6.813 6.75-.125 3.875 2.875 6.938 6.875 7 3.75.125 7.25-3.25 7.125-6.813zm2.875 6.562c0-.25-.188-.375-.375-.438-.25-.125-.5-.063-.688.188a75.024 75.024 0 0 0-2.313 2.188c-.25.188-.25.438-.125.688a.593.593 0 0 0 .625.25c.188-.063.375-.188.5-.313l2.063-2.063c.125-.125.188-.313.313-.5zM18.5 11.688c-.063.625-.75 1.063-.75 1.75.688-.5 1-1.125.75-1.75zm-.125-6.375c-.25.5-.063.75.25 1.125.125-.5-.063-.75-.25-1.125z"/></symbol><symbol id="icon-info" viewBox="0 0 32 32"><path d="M16 10c1.125 0 2-.875 2-2 0-1.063-.875-2-2-2-1.063 0-2 .938-2 2 0 1.125.938 2 2 2zm0-10C8.312 0 2 6.313 2 14c0 7.75 6.313 14 14 14 7.75 0 14-6.25 14-14 0-7.688-6.25-14-14-14zm0 24c-5.5 0-10-4.438-10-10C6 8.5 10.5 4 16 4c5.563 0 10 4.5 10 10a9.95 9.95 0 0 1-10 10zm2-10c0-1-1-2-2-2h-2c-1 0-2 1-2 2h2v6c0 1 1 2 2 2h2c1 0 2-1 2-2h-2v-6z"/></symbol><symbol id="icon-map-marker" viewBox="0 0 32 32"><path d="M20.563 9.438c0-1.25-.438-2.375-1.313-3.25-.938-.875-2-1.313-3.25-1.313s-2.313.438-3.25 1.313c-.875.875-1.313 2-1.313 3.25s.438 2.313 1.313 3.25c.938.875 2 1.313 3.25 1.313s2.313-.438 3.25-1.313c.875-.938 1.313-2 1.313-3.25zm4.562 0c0 1.313-.188 2.375-.563 3.188l-6.5 13.813c-.188.375-.5.688-.875.938s-.75.313-1.188.313c-.438 0-.813-.063-1.188-.313s-.688-.563-.875-.938l-6.5-13.813c-.375-.813-.563-1.875-.563-3.188 0-2.563.875-4.688 2.688-6.5 1.75-1.75 3.938-2.625 6.438-2.625s4.688.875 6.438 2.625c1.813 1.813 2.688 3.938 2.688 6.5z"/></symbol><symbol id="icon-minus" viewBox="0 0 32 32"><path d="M16 0C8.25 0 2 6.25 2 14s6.25 14 14 14 14-6.25 14-14S23.75 0 16 0zm8 15H8v-2h16z"/></symbol><symbol id="icon-person" viewBox="0 0 32 32"><path d="M28 26s0-1.625-.125-2.5c-.125-.688-1.063-1.563-5.063-3.063-3.938-1.438-3.75-.75-3.75-3.438 0-1.688.938-.688 1.5-4 .188-1.313.375-.438.813-2.5.25-1.063-.125-1.188-.063-1.688 0-.5.063-1 .188-2.063.063-1.313-1.125-4.75-5.5-4.75s-5.563 3.438-5.438 4.75c.063 1.063.125 1.563.188 2.063 0 .5-.375.625-.125 1.688.438 2.063.625 1.188.875 2.5.563 3.313 1.438 2.313 1.438 4 0 2.688.25 2-3.75 3.438-4 1.5-4.938 2.375-5.063 3.063C4 24.375 4 26 4 26z"/></symbol><symbol id="icon-person-stalker" viewBox="0 0 32 32"><path d="M26.563 18.313c-2.563-1-2.438-.625-2.438-2.438 0-1.125.625-.75 1-2.938.125-.875.25-.313.563-1.75.125-.688-.125-.75-.063-1.125 0-.375.063-.688.125-1.375.063-.938-.75-3.25-3.625-3.25S18.5 7.75 18.562 8.687c.063.688.063 1 .125 1.375 0 .375-.25.438-.063 1.125.25 1.438.375.813.563 1.75.375 2.188.938 1.813.938 2.938 0 .875.188 1.188-.938 1.75.313.125.75.25 1.188.438 3.438 1.313 3.313 2.563 3.438 3.125.063.438.063 3.688.063 4.813h6.125s0-5-.063-5.625c-.125-.438-.688-1.063-3.375-2.063zM22.313 26v-1.875c0-1.188-.063-2.5-.125-2.938-.063-.563-.875-1.375-4.25-2.688-.5-.125-.875-.313-1.25-.438-2.063-.75-1.938-.938-1.938-3 0-1.5.75-.5 1.25-3.375.188-1.188.313-.375.75-2.25.188-.938-.188-1-.125-1.438.063-.5.063-.875.188-1.813.063-1.125-.938-4.188-4.625-4.188-3.75 0-4.75 3-4.688 4.188.125.938.125 1.313.188 1.813.063.438-.313.5-.063 1.438.375 1.875.5 1.063.688 2.25.5 2.875 1.25 1.875 1.25 3.375 0 2.375.188 2.188-3.125 3.438C3 19.812 2.25 20.624 2.125 21.187 2 21.937 2 26 2 26z"/></symbol><symbol id="icon-phone-square" viewBox="0 0 32 32"><path d="M25.125 19.313V19c-.063-.063-.313-.25-.688-.5-.438-.25-.938-.563-1.625-.875l-.938-.563c-.063 0-.125-.063-.313-.188s-.313-.25-.438-.313-.25-.063-.375-.063c-.25 0-.5.188-.875.563-.313.375-.688.813-1 1.188s-.625.563-.813.563c-.063 0-.125 0-.25-.063-.125 0-.25-.063-.313-.063-.063-.063-.125-.125-.313-.188a.856.856 0 0 1-.25-.188c-1.125-.625-2.188-1.375-3-2.25-.875-.813-1.625-1.875-2.25-3-.063-.063-.125-.125-.188-.25-.063-.188-.125-.25-.188-.313 0-.063-.063-.188-.063-.313-.063-.125-.063-.188-.063-.25 0-.188.125-.375.313-.625.25-.25.563-.5.813-.688.313-.188.563-.438.813-.688s.375-.5.375-.688c0-.125 0-.25-.063-.375s-.188-.25-.313-.438-.188-.25-.188-.313c-.063-.063-.125-.25-.313-.5a3.345 3.345 0 0 0-.438-.813c-.125-.313-.313-.563-.438-.875-.188-.313-.313-.563-.5-.75-.125-.188-.188-.25-.25-.313h-.313c-.563 0-1.188.125-1.813.375-.5.25-1 .813-1.438 1.688-.375.875-.563 1.625-.563 2.313v.625c.063.188.063.375.125.563 0 .125.063.313.125.563.125.25.188.438.188.563.063.063.125.25.25.563s.188.438.188.563c.688 1.938 2 3.813 3.875 5.688s3.75 3.188 5.688 3.875c.125 0 .25.063.563.188s.5.188.563.25c.125 0 .313.063.563.188.25.063.438.125.563.125.188.063.375.063.563.125h.625c.688 0 1.438-.188 2.313-.563.875-.438 1.438-.938 1.688-1.438.25-.625.375-1.25.375-1.813zm4.563-13.875v17.125c0 1.438-.5 2.625-1.5 3.625s-2.188 1.5-3.625 1.5H7.438c-1.438 0-2.625-.5-3.625-1.5s-1.5-2.188-1.5-3.625V5.438c0-1.438.5-2.625 1.5-3.625s2.188-1.5 3.625-1.5h17.125c1.438 0 2.625.5 3.625 1.5s1.5 2.188 1.5 3.625z"/></symbol><symbol id="icon-play" viewBox="0 0 32 32"><path d="M16 .313c2.5 0 4.813.563 6.875 1.813 2.125 1.25 3.75 2.875 5 5 1.25 2.063 1.813 4.375 1.813 6.875s-.563 4.813-1.813 6.875c-1.25 2.125-2.875 3.75-5 5-2.063 1.25-4.375 1.813-6.875 1.813s-4.813-.563-6.875-1.813c-2.125-1.25-3.75-2.875-5-5-1.25-2.063-1.813-4.375-1.813-6.875s.563-4.813 1.813-6.875c1.25-2.125 2.875-3.75 5-5C11.188.876 13.5.313 16 .313zM22.875 15c.375-.25.563-.563.563-1s-.188-.75-.563-1l-9.75-5.688c-.375-.25-.75-.25-1.125 0-.375.188-.563.563-.563 1v11.375c0 .438.188.813.563 1 .188.125.375.188.563.188s.375-.063.563-.188z"/></symbol><symbol id="icon-play-circle-o" viewBox="0 0 32 32"><path d="M23.438 14c0 .438-.188.75-.563 1l-9.75 5.688c-.188.125-.375.188-.563.188s-.375-.063-.563-.188-.563-.563-.563-1V8.313c0-.438.188-.813.563-1 .375-.25.75-.25 1.125 0l9.75 5.688c.375.25.563.563.563 1zm2.25 0c0-1.75-.438-3.375-1.25-4.875a9.74 9.74 0 0 0-3.563-3.563c-1.5-.813-3.125-1.25-4.875-1.25s-3.375.438-4.875 1.25a9.74 9.74 0 0 0-3.563 3.563c-.813 1.5-1.25 3.125-1.25 4.875s.438 3.375 1.25 4.875a9.74 9.74 0 0 0 3.563 3.563c1.5.813 3.125 1.25 4.875 1.25s3.375-.438 4.875-1.25a9.74 9.74 0 0 0 3.563-3.563c.813-1.5 1.25-3.125 1.25-4.875zm4 0c0 2.5-.563 4.813-1.813 6.875-1.25 2.125-2.875 3.75-5 5-2.063 1.25-4.375 1.813-6.875 1.813s-4.813-.563-6.875-1.813c-2.125-1.25-3.75-2.875-5-5C2.875 18.812 2.312 16.5 2.312 14s.563-4.813 1.813-6.875c1.25-2.125 2.875-3.75 5-5C11.188.875 13.5.312 16 .312s4.813.563 6.875 1.813c2.125 1.25 3.75 2.875 5 5 1.25 2.063 1.813 4.375 1.813 6.875z"/></symbol><symbol id="icon-plus" viewBox="0 0 32 32"><path d="M16 0C8.25 0 2 6.25 2 14s6.25 14 14 14 14-6.25 14-14S23.75 0 16 0zm8 15h-7v7h-2v-7H8v-2h7V6h2v7h7z"/></symbol><symbol id="icon-rub" viewBox="0 0 32 32"><path d="M23.188 8.063c0-1.188-.375-2.125-1.125-2.875-.813-.75-1.813-1.125-3.063-1.125h-5.75v8H19c1.25 0 2.25-.313 3.063-1.063.75-.75 1.125-1.75 1.125-2.938zm4.25 0c0 2.313-.75 4.188-2.25 5.625-1.5 1.5-3.438 2.188-5.875 2.188H13.25v2.125h9.063c.125 0 .25.063.375.188.125.063.188.188.188.375v2.313c0 .125-.063.313-.188.375-.125.125-.25.188-.375.188H13.25v3.438c0 .125-.063.313-.125.375a.568.568 0 0 1-.438.188h-3c-.125 0-.25-.063-.375-.188-.125-.063-.188-.25-.188-.375V21.44h-4c-.125 0-.313-.063-.375-.188-.125-.063-.188-.25-.188-.375v-2.313c0-.188.063-.313.188-.375.063-.125.25-.188.375-.188h4v-2.125h-4c-.125 0-.313-.063-.375-.125a.568.568 0 0 1-.188-.438v-2.625c0-.188.063-.313.188-.438.063-.125.25-.188.375-.188h4V.874c0-.188.063-.313.188-.438s.25-.125.375-.125h9.625c2.438 0 4.375.688 5.875 2.125 1.5 1.5 2.25 3.375 2.25 5.625z"/></symbol><symbol id="icon-search" viewBox="0 0 32 32"><path d="M21.688 12.875c0-2.25-.75-4.125-2.313-5.688s-3.438-2.313-5.688-2.313c-2.188 0-4.063.75-5.625 2.313s-2.375 3.438-2.375 5.688c0 2.188.813 4.063 2.375 5.625s3.438 2.375 5.625 2.375c2.25 0 4.125-.813 5.688-2.375s2.313-3.438 2.313-5.625zm9.187 14.813c0 .625-.25 1.188-.688 1.625s-1 .688-1.625.688-1.188-.25-1.625-.688l-6.125-6.125c-2.125 1.5-4.5 2.25-7.125 2.25-1.688 0-3.313-.313-4.875-1s-2.875-1.563-4-2.688c-1.125-1.125-2-2.438-2.688-4-.625-1.563-1-3.188-1-4.875 0-1.75.375-3.375 1-4.875.688-1.563 1.563-2.938 2.688-4.063s2.438-2 4-2.688a13.013 13.013 0 0 1 4.875-.938c1.75 0 3.375.313 4.938.938 1.5.688 2.875 1.563 4 2.688s2 2.5 2.688 4.063c.625 1.5 1 3.125 1 4.875 0 2.625-.75 5-2.25 7.125l6.125 6.125c.438.438.688.938.688 1.563z"/></symbol><symbol id="icon-search-plus" viewBox="0 0 32 32"><path d="M19.438 12.313v1.125c0 .125-.063.25-.188.375s-.25.188-.375.188h-4v4c0 .125-.063.313-.188.375-.125.125-.25.188-.375.188h-1.188c-.125 0-.25-.063-.375-.188-.125-.063-.188-.25-.188-.375v-4h-4c-.125 0-.25-.063-.375-.188s-.188-.25-.188-.375v-1.125c0-.188.063-.313.188-.438s.25-.188.375-.188h4v-4c0-.125.063-.25.188-.375s.25-.188.375-.188h1.188c.125 0 .25.063.375.188s.188.25.188.375v4h4c.125 0 .25.063.375.188s.188.25.188.438zm2.25.562c0-2.25-.75-4.125-2.313-5.688s-3.438-2.313-5.688-2.313c-2.188 0-4.063.75-5.625 2.313s-2.375 3.438-2.375 5.688c0 2.188.813 4.063 2.375 5.625s3.438 2.375 5.625 2.375c2.25 0 4.125-.813 5.688-2.375s2.313-3.438 2.313-5.625zm9.187 14.813c0 .688-.25 1.188-.688 1.625s-1 .688-1.625.688-1.188-.25-1.625-.688l-6.125-6.125c-2.125 1.5-4.5 2.25-7.125 2.25-1.688 0-3.313-.313-4.875-1s-2.875-1.563-4-2.688c-1.125-1.125-2-2.438-2.688-4-.625-1.563-1-3.188-1-4.875 0-1.75.375-3.375 1-4.875.688-1.563 1.563-2.938 2.688-4.063s2.438-2 4-2.688a13.013 13.013 0 0 1 4.875-.938c1.75 0 3.375.313 4.938.938 1.5.688 2.875 1.563 4 2.688s2 2.5 2.688 4.063c.625 1.5 1 3.125 1 4.875 0 2.625-.75 5-2.25 7.125l6.125 6.125c.438.438.688.938.688 1.563z"/></symbol><symbol id="icon-star" viewBox="0 0 32 32"><path d="M30.875 9.563c0 .25-.188.563-.5.875l-6.438 6.313 1.5 8.938v.313c0 .25-.063.5-.188.625-.125.188-.25.313-.5.313s-.5-.125-.75-.25l-8-4.188-8 4.188c-.25.125-.5.25-.75.25s-.438-.125-.563-.313c-.125-.125-.188-.375-.188-.625 0-.063 0-.188.063-.313l1.5-8.938-6.5-6.313c-.25-.375-.438-.625-.438-.875 0-.438.375-.75 1-.813l9-1.313 4-8.125c.25-.5.5-.75.875-.75s.625.25.875.75l4 8.125 9 1.313c.625.063 1 .375 1 .813z"/></symbol><symbol id="icon-video" viewBox="0 0 32 32"><path d="M31.688 6H28.5v3.188h3.188v3.188H28.5v3.25h3.188v3.188H28.5v3.188h3.188v1.938c0 .313-.125.625-.375.875s-.563.375-.938.375H1.625c-.375 0-.688-.125-.938-.375s-.375-.563-.375-.875v-1.938H3.5v-3.188H.312v-3.188H3.5v-3.25H.312V9.188H3.5V6H.312V4.062c0-.375.125-.688.375-.938.25-.188.563-.313.938-.313h28.75c.375 0 .688.125.938.313.25.25.375.563.375.938V6zM12.5 18.813l8-4.813-8-4.813v9.625z"/></symbol><symbol id="icon-list" viewBox="0 0 32 32"><path d="M8 12h4V8H8v4zm0 6h4v-4H8v4zm0 6h4v-4H8v4zm6-16v4h10V8H14zm0 10h10v-4H14v4zm0 6h10v-4H14v4z"/></symbol><symbol id="logo" viewBox="0 0 50 48"><path fill-rule="evenodd" clip-rule="evenodd" d="M39.477 26H23.219c-5.259 0-9.522 4.59-9.522 10.251 0 5.662-2.591 7.791-2.697 10.252h28.477c5.26 0 9.523-4.59 9.523-10.252C49 30.59 44.737 26 39.477 26z" fill="#fff" stroke="#fff" stroke-width="2"/><path d="M24.606 43.216c3.654 0 5.418-2.034 5.418-5.022v-7.2h-2.61v7.128c0 1.674-.954 2.826-2.808 2.826-1.854 0-2.826-1.152-2.826-2.826v-7.128h-2.592v7.218c0 2.952 1.764 5.004 5.418 5.004zM35.143 43v-6.696h1.764v-1.998h-1.764v-.468c0-.81.45-1.224 1.08-1.224.414 0 .72.126.954.36l.864-1.35c-.558-.594-1.44-.81-2.268-.81-1.746 0-2.934 1.17-2.934 3.024v.468H31.4v1.998h1.44V43h2.304zm5.886 0v-6.696h1.764v-1.998H41.03v-.468c0-.81.45-1.224 1.08-1.224.414 0 .72.126.954.36l.864-1.35c-.558-.594-1.44-.81-2.268-.81-1.746 0-2.934 1.17-2.934 3.024v.468h-1.44v1.998h1.44V43h2.304z" fill="#E62F61"/><path opacity=".8" fill-rule="evenodd" clip-rule="evenodd" d="M10.523 1h16.258c5.259 0 9.522 4.589 9.522 10.25 0 5.662 2.591 7.791 2.697 10.251H10.523C5.263 21.501 1 16.912 1 11.25 1 5.589 5.263 1 10.523 1z" fill="#DDE8F9" stroke="#DDE8F9" stroke-width="2"/><path d="M11.606 18.216c3.654 0 5.418-2.034 5.418-5.022v-7.2h-2.61v7.128c0 1.674-.954 2.826-2.808 2.826-1.854 0-2.826-1.152-2.826-2.826V5.994H6.188v7.218c0 2.952 1.764 5.004 5.418 5.004zM22.143 18v-6.696h1.764V9.306h-1.764v-.468c0-.81.45-1.224 1.08-1.224.414 0 .72.126.954.36l.864-1.35c-.558-.594-1.44-.81-2.268-.81-1.746 0-2.934 1.17-2.934 3.024v.468H18.4v1.998h1.44V18h2.304zm5.886 0v-6.696h1.764V9.306H28.03v-.468c0-.81.45-1.224 1.08-1.224.414 0 .72.126.954.36l.864-1.35c-.558-.594-1.44-.81-2.268-.81-1.746 0-2.934 1.17-2.934 3.024v.468h-1.44v1.998h1.44V18h2.304z" fill="#538CE0"/></symbol><symbol id="logo-mobile" viewBox="0 0 65 49"><path fill-rule="evenodd" clip-rule="evenodd" d="M39.477 27H23.219c-5.259 0-9.522 4.59-9.522 10.251 0 5.662-2.591 7.791-2.697 10.252h28.477c5.26 0 9.523-4.59 9.523-10.252C49 31.59 44.737 27 39.477 27z" fill="#fff" stroke="#fff" stroke-width="2"/><path d="M24.606 44.216c3.654 0 5.418-2.034 5.418-5.022v-7.2h-2.61v7.128c0 1.674-.954 2.826-2.808 2.826-1.854 0-2.826-1.152-2.826-2.826v-7.128h-2.592v7.218c0 2.952 1.764 5.004 5.418 5.004zM35.143 44v-6.696h1.764v-1.998h-1.764v-.468c0-.81.45-1.224 1.08-1.224.414 0 .72.126.954.36l.864-1.35c-.558-.594-1.44-.81-2.268-.81-1.746 0-2.934 1.17-2.934 3.024v.468H31.4v1.998h1.44V44h2.304zm5.886 0v-6.696h1.764v-1.998H41.03v-.468c0-.81.45-1.224 1.08-1.224.414 0 .72.126.954.36l.864-1.35c-.558-.594-1.44-.81-2.268-.81-1.746 0-2.934 1.17-2.934 3.024v.468h-1.44v1.998h1.44V44h2.304z" fill="#E62F61"/><path opacity=".8" fill-rule="evenodd" clip-rule="evenodd" d="M10.523 2h16.258c5.259 0 9.522 4.589 9.522 10.25 0 5.662 2.591 7.791 2.697 10.251H10.523C5.263 22.501 1 17.912 1 12.25 1 6.589 5.263 2 10.523 2z" fill="#DDE8F9" stroke="#DDE8F9" stroke-width="2"/><path d="M11.606 19.216c3.654 0 5.418-2.034 5.418-5.022v-7.2h-2.61v7.128c0 1.674-.954 2.826-2.808 2.826-1.854 0-2.826-1.152-2.826-2.826V6.994H6.188v7.218c0 2.952 1.764 5.004 5.418 5.004zM22.143 19v-6.696h1.764v-1.998h-1.764v-.468c0-.81.45-1.224 1.08-1.224.414 0 .72.126.954.36l.864-1.35c-.558-.594-1.44-.81-2.268-.81-1.746 0-2.934 1.17-2.934 3.024v.468H18.4v1.998h1.44V19h2.304zm5.886 0v-6.696h1.764v-1.998H28.03v-.468c0-.81.45-1.224 1.08-1.224.414 0 .72.126.954.36l.864-1.35c-.558-.594-1.44-.81-2.268-.81-1.746 0-2.934 1.17-2.934 3.024v.468h-1.44v1.998h1.44V19h2.304z" fill="#538CE0"/><rect x="41" y="1" width="23" height="18" rx="4" stroke="#376CC4" fill="none" stroke-width="2" stroke-linecap="round" stroke-linejoin="round"/><path d="M47.795 14V6.663h-1.364l-2.31 2.321.891.935 1.221-1.243V14h1.562zm4.06.132c1.54 0 2.949-.671 2.949-2.035 0-.891-.705-1.573-1.585-1.881.814-.286 1.463-.814 1.463-1.727 0-1.375-1.474-1.936-2.827-1.936-1.363 0-2.826.561-2.826 1.936 0 .913.637 1.441 1.451 1.727-.88.308-1.572.99-1.572 1.881 0 1.375 1.407 2.035 2.947 2.035zm0-4.532c-.45-.066-1.242-.319-1.242-.869 0-.528.517-.836 1.242-.836.716 0 1.233.308 1.233.836 0 .55-.782.803-1.233.869zm0 3.19c-.77 0-1.363-.352-1.363-.891 0-.616.902-.913 1.364-.979.45.066 1.363.363 1.363.979 0 .539-.616.891-1.364.891zM61.225 8.722v-.869h-1.969V5.708h-.957v2.145h-1.98v.869h1.98v2.233h.957V8.722h1.969z" fill="#fff"/></symbol></defs></svg>