<svg width="50" height="50" fill="none" xmlns="http://www.w3.org/2000/svg"><g filter="url(#filter0_b)"><circle cx="25" cy="25" r="25" fill="#fff"/><circle cx="25" cy="25" r="24.5" stroke="url(#paint0_linear)"/></g><path d="M42.466 16.848h0c.343-.368.788-.635 1.157-.715a.728.728 0 0 1 .405.007c.08.03.16.089.227.223h0c.027.055.066.177.103.387.036.202.063.453.082.745.038.584.04 1.3.006 2.044-.067 1.509-.27 3.036-.55 3.775-.293.77-.718 1.387-1.169 1.695-.218.149-.428.217-.63.215-.2-.002-.439-.072-.715-.278-.707-.529-1.45-1.109-1.83-1.86a2.209 2.209 0 0 1-.24-1.22c.04-.461.222-1.012.643-1.67h0l.015-.02.056-.083a91.873 91.873 0 0 1 .901-1.268c.546-.753 1.168-1.58 1.54-1.977z" fill="#fff" stroke="#000"/><mask id="a" fill="#fff"><path d="M42.104 26c-.403 0-.803-.145-1.187-.432-.664-.497-1.575-1.178-2.058-2.131-.558-1.102-.407-2.336.447-3.667l.005-.008c.073-.105 1.791-2.59 2.588-3.444.559-.599 1.319-.986 1.936-.986.498 0 .894.243 1.114.684.528 1.054.32 5.867-.328 7.573-.573 1.51-1.514 2.411-2.517 2.411zm-2.335-5.928c-1.58 2.465-.202 3.797 1.48 5.053.286.214.574.323.855.323.9 0 1.623-1.062 2-2.055.629-1.658.777-6.278.35-7.13-.126-.254-.33-.378-.62-.378-.463 0-1.079.326-1.531.81-.755.81-2.456 3.265-2.534 3.377z"/></mask><path d="M42.104 26c-.403 0-.803-.145-1.187-.432-.664-.497-1.575-1.178-2.058-2.131-.558-1.102-.407-2.336.447-3.667l.005-.008c.073-.105 1.791-2.59 2.588-3.444.559-.599 1.319-.986 1.936-.986.498 0 .894.243 1.114.684.528 1.054.32 5.867-.328 7.573-.573 1.51-1.514 2.411-2.517 2.411zm-2.335-5.928c-1.58 2.465-.202 3.797 1.48 5.053.286.214.574.323.855.323.9 0 1.623-1.062 2-2.055.629-1.658.777-6.278.35-7.13-.126-.254-.33-.378-.62-.378-.463 0-1.079.326-1.531.81-.755.81-2.456 3.265-2.534 3.377z" fill="#000"/><path d="M40.917 25.568l.6-.801h-.001l-.599.8zm-2.058-2.131l.893-.452-.893.452zm.447-3.667l-.836-.549-.006.009.842.54zm.005-.008l.812.584.006-.008.006-.008-.824-.568zm2.588-3.444l.73.683-.73-.683zm3.05-.302l-.894.447.894-.447zm-.328 7.573l.935.355-.935-.355zm-4.852-3.517l-.823-.569-.01.015-.01.015.843.54zm1.48 5.053l-.6.8.6-.8zm2.855-1.732l.935.355-.935-.355zm.35-7.13l-.894.447.895-.447zm-2.151.432l-.731-.682.73.682zM42.104 25c-.15 0-.343-.05-.588-.233l-1.197 1.602c.523.39 1.127.631 1.785.631v-2zm-.588-.233c-.696-.52-1.404-1.07-1.764-1.782l-1.785.904c.606 1.196 1.718 2.006 2.352 2.48l1.197-1.602zm-1.764-1.782c-.353-.695-.329-1.546.396-2.675l-1.684-1.08c-.983 1.533-1.26 3.15-.497 4.659l1.785-.904zm.39-2.666c0-.002.002-.003.002-.003v-.001l-.001.003a.712.712 0 0 1-.02.028L38.5 19.179l-.025.036-.004.007c-.001.002 0 0 0 0l1.672 1.097zm-.008.01c.095-.136 1.763-2.543 2.496-3.328l-1.462-1.365c-.86.921-2.63 3.485-2.68 3.559l1.647 1.135zm2.496-3.328c.434-.466.947-.669 1.205-.669v-2c-.977 0-1.984.572-2.667 1.304l1.462 1.365zm1.205-.669c.083 0 .122.02.139.03.015.01.047.033.08.1l1.79-.893a2.19 2.19 0 0 0-2.01-1.237v2zm.22.131c-.002-.004.008.017.025.073.015.053.032.126.05.22.034.188.063.43.084.72.041.577.045 1.292.013 2.039-.067 1.536-.278 3.027-.54 3.72l1.87.709c.384-1.014.6-2.782.668-4.342.034-.801.032-1.595-.016-2.269-.044-.617-.134-1.302-.365-1.764l-1.79.894zm-.369 6.771C43.16 24.624 42.464 25 42.104 25v2c1.647 0 2.834-1.427 3.452-3.056l-1.87-.71zm-4.76-3.701c-.919 1.435-1.083 2.743-.553 3.927.476 1.064 1.45 1.848 2.277 2.466l1.197-1.602c-.854-.638-1.41-1.148-1.648-1.68-.184-.412-.248-1.002.412-2.032l-1.684-1.08zm1.724 6.393c.412.308.904.522 1.454.522v-2c-.013 0-.096-.004-.257-.124l-1.197 1.602zm1.454.522c.863 0 1.52-.506 1.95-.997.44-.505.769-1.132.985-1.703l-1.87-.71c-.16.422-.381.822-.621 1.096-.252.288-.407.314-.444.314v2zm2.935-2.7c.377-.993.573-2.705.635-4.18.032-.76.031-1.505-.008-2.127-.02-.31-.049-.604-.092-.86a2.774 2.774 0 0 0-.225-.765l-1.789.894c-.015-.03.01.014.042.202.028.166.051.386.068.654.034.535.036 1.208.006 1.918-.062 1.462-.255 2.89-.507 3.554l1.87.71zm.31-7.932a1.669 1.669 0 0 0-.623-.691 1.696 1.696 0 0 0-.891-.24v2s-.065 0-.15-.052a.345.345 0 0 1-.125-.123l1.79-.894zm-1.514-.93c-.448 0-.88.15-1.238.339a3.945 3.945 0 0 0-1.025.788l1.462 1.365c.151-.163.33-.296.498-.385.083-.044.155-.073.212-.09a.558.558 0 0 1 .067-.015l.024-.003v-2zm-2.263 1.127c-.819.877-2.571 3.412-2.626 3.49l1.645 1.138c.101-.146 1.75-2.522 2.443-3.263l-1.462-1.365z" fill="#000" mask="url(#a)"/><path d="M39.229 23.142c0 .18-.14.427-.687.654-.517.215-1.243.334-1.996.334-.754 0-1.48-.119-1.997-.334-.546-.227-.687-.475-.687-.654 0-1.662.31-3.528.843-4.963.267-.719.58-1.3.916-1.694.337-.394.648-.546.925-.546.98 0 1.665.762 2.114 2.214.44 1.423.569 3.288.569 4.99z" fill="#fff" stroke="#000"/><mask id="b" fill="#fff"><path d="M36.546 24.906c-1.722 0-3.46-.545-3.46-1.764 0-1.775.333-3.732.891-5.233.668-1.797 1.556-2.746 2.569-2.746 1.329 0 2.29.928 2.855 2.76.4 1.298.604 3.054.604 5.22 0 1.218-1.738 1.763-3.46 1.763zm0-9.19c-1.637 0-2.907 3.992-2.907 7.426 0 .787 1.497 1.211 2.907 1.211 1.409 0 2.906-.424 2.906-1.21 0-3.389-.504-7.428-2.906-7.428z"/></mask><path d="M36.546 24.906c-1.722 0-3.46-.545-3.46-1.764 0-1.775.333-3.732.891-5.233.668-1.797 1.556-2.746 2.569-2.746 1.329 0 2.29.928 2.855 2.76.4 1.298.604 3.054.604 5.22 0 1.218-1.738 1.763-3.46 1.763zm0-9.19c-1.637 0-2.907 3.992-2.907 7.426 0 .787 1.497 1.211 2.907 1.211 1.409 0 2.906-.424 2.906-1.21 0-3.389-.504-7.428-2.906-7.428z" fill="#000"/><path d="M33.977 17.909l.938.348-.938-.348zm5.424.015l.956-.296-.956.296zm.604 5.218h1-1zm-3.46.764c-.776 0-1.49-.126-1.969-.339-.496-.22-.49-.396-.49-.425h-2c0 1.19.875 1.896 1.678 2.253.82.364 1.836.511 2.782.511v-2zm-2.459-.764c0-1.67.316-3.506.829-4.885l-1.875-.697c-.604 1.625-.954 3.7-.954 5.582h2zm.829-4.885c.308-.83.64-1.382.948-1.712.296-.317.523-.382.683-.382v-2c-.853 0-1.577.41-2.144 1.016-.556.594-1.003 1.415-1.362 2.381l1.875.697zm1.63-2.094c.405 0 .729.13 1.02.412.314.304.627.822.88 1.644l1.912-.59c-.312-1.011-.762-1.873-1.402-2.492a3.381 3.381 0 0 0-2.41-.974v2zm1.9 2.055c.36 1.163.56 2.807.56 4.924h2c0-2.213-.206-4.081-.648-5.514l-1.911.59zm.56 4.924c0 .029.006.205-.49.425-.48.213-1.193.339-1.97.339v2c.946 0 1.962-.147 2.782-.511.804-.357 1.678-1.063 1.678-2.253h-2zm-2.46-8.427c-.842 0-1.484.513-1.919 1.046-.446.547-.805 1.266-1.087 2.037-.566 1.547-.9 3.521-.9 5.345h2c0-1.612.3-3.351.778-4.659.24-.657.506-1.15.759-1.459.123-.152.224-.235.293-.276a.29.29 0 0 1 .074-.033h.003v-2zm-3.906 8.427c0 .55.271.972.576 1.255.294.272.657.456 1 .583.692.257 1.544.373 2.33.373v-2c-.622 0-1.224-.096-1.633-.248-.207-.077-.306-.146-.338-.175-.02-.018.065.057.065.212h-2zm3.907 2.211c.787 0 1.638-.116 2.33-.373.343-.127.706-.311 1-.583.305-.283.576-.705.576-1.255h-2c0-.155.084-.23.065-.212-.032.029-.13.099-.338.175-.41.152-1.011.248-1.633.248v2zm3.906-2.21c0-1.72-.125-3.694-.594-5.27-.234-.787-.576-1.554-1.099-2.14-.548-.614-1.29-1.018-2.213-1.018v2c.277 0 .499.101.721.35.248.278.482.732.674 1.378.384 1.291.511 3.03.511 4.7h2z" fill="#000" mask="url(#b)"/><path d="M10.132 20.196c.42.657.602 1.209.642 1.67a2.21 2.21 0 0 1-.24 1.22c-.38.75-1.122 1.331-1.83 1.86-.275.206-.514.276-.714.278-.202.002-.412-.066-.63-.215-.452-.308-.876-.925-1.169-1.695-.28-.74-.484-2.266-.55-3.776-.034-.743-.032-1.46.005-2.043.02-.292.047-.543.082-.745.037-.21.077-.333.104-.387.067-.134.147-.193.226-.223a.728.728 0 0 1 .405-.007c.37.08.814.347 1.157.715.371.398.994 1.224 1.54 1.977a83.408 83.408 0 0 1 .9 1.268l.057.082.015.021h0z" fill="#fff" stroke="#000"/><path d="M5.466 23.589l.049-.019-.05.019z" fill="#000" stroke="#000"/><path d="M16.224 23.142c0 .18-.14.427-.686.654-.518.215-1.243.334-1.997.334s-1.479-.119-1.997-.334c-.546-.227-.686-.475-.686-.654 0-1.701.13-3.566.57-4.99.447-1.451 1.132-2.213 2.113-2.213.276 0 .588.152.925.546.335.393.648.975.916 1.694.533 1.435.842 3.301.842 4.963z" fill="#fff" stroke="#000"/><mask id="c" fill="#fff"><path d="M13.541 24.906c-1.722 0-3.46-.545-3.46-1.764 0-2.165.204-3.921.604-5.218.566-1.832 1.527-2.761 2.856-2.761 1.012 0 1.9.95 2.568 2.746.558 1.501.892 3.458.892 5.233 0 1.219-1.738 1.764-3.46 1.764zm0-9.19c-2.402 0-2.907 4.038-2.907 7.426 0 .787 1.498 1.211 2.907 1.211 1.41 0 2.907-.424 2.907-1.21 0-3.435-1.27-7.428-2.907-7.428z"/></mask><path d="M13.541 24.906c-1.722 0-3.46-.545-3.46-1.764 0-2.165.204-3.921.604-5.218.566-1.832 1.527-2.761 2.856-2.761 1.012 0 1.9.95 2.568 2.746.558 1.501.892 3.458.892 5.233 0 1.219-1.738 1.764-3.46 1.764zm0-9.19c-2.402 0-2.907 4.038-2.907 7.426 0 .787 1.498 1.211 2.907 1.211 1.41 0 2.907-.424 2.907-1.21 0-3.435-1.27-7.428-2.907-7.428z" fill="#000"/><path d="M10.685 17.924l.956.295-.956-.296zm5.424-.015l-.937.348.937-.348zm-2.568 5.997c-.777 0-1.49-.126-1.97-.339-.495-.22-.49-.396-.49-.425h-2c0 1.19.875 1.896 1.679 2.253.82.364 1.836.511 2.781.511v-2zm-2.46-.764c0-2.117.2-3.761.56-4.923l-1.911-.59c-.442 1.432-.648 3.3-.648 5.513h2zm.56-4.923c.254-.822.567-1.34.881-1.644a1.384 1.384 0 0 1 1.02-.412v-2c-.925 0-1.747.333-2.41.974-.64.619-1.09 1.48-1.402 2.491l1.91.59zm1.9-2.056c.16 0 .386.065.683.382.308.33.64.882.948 1.712l1.875-.697c-.36-.966-.806-1.787-1.362-2.381-.568-.607-1.291-1.016-2.144-1.016v2zm1.631 2.094c.512 1.378.829 3.216.829 4.885h2c0-1.881-.35-3.957-.954-5.582l-1.875.697zm.829 4.885c0 .029.005.205-.49.425-.48.213-1.193.339-1.97.339v2c.945 0 1.962-.147 2.782-.511.803-.357 1.678-1.063 1.678-2.253h-2zm-2.46-8.427c-.923 0-1.666.404-2.214 1.019-.522.585-.864 1.352-1.099 2.14-.468 1.575-.594 3.55-.594 5.268h2c0-1.668.127-3.408.511-4.698.193-.647.427-1.101.675-1.379.222-.249.443-.35.721-.35v-2zm-3.907 8.427c0 .55.272.973.577 1.255.293.272.657.456 1 .583.692.257 1.543.373 2.33.373v-2c-.622 0-1.224-.096-1.634-.248a1.105 1.105 0 0 1-.337-.175c-.02-.018.064.057.064.212h-2zm3.907 2.211c.787 0 1.638-.116 2.33-.373.343-.127.707-.31 1-.583.306-.282.577-.705.577-1.255h-2c0-.155.084-.23.064-.212-.03.029-.13.099-.337.175-.41.152-1.012.248-1.634.248v2zm3.907-2.21c0-1.824-.334-3.798-.9-5.346-.282-.77-.641-1.49-1.087-2.036-.435-.533-1.077-1.046-1.92-1.046v2h.002l.01.003a.29.29 0 0 1 .065.031c.068.041.17.124.293.276.252.31.518.802.758 1.46.478 1.307.779 3.046.779 4.657h2z" fill="#000" mask="url(#c)"/><path d="M32.862 23.847c0 .054-.022.144-.175.27-.16.131-.418.263-.777.378-.715.23-1.699.351-2.707.351-1.008 0-1.993-.122-2.707-.35-.36-.116-.618-.248-.777-.379-.154-.126-.176-.216-.176-.27 0-1.709.169-3.86.747-5.566.585-1.727 1.507-2.795 2.913-2.795s2.328 1.068 2.913 2.795c.578 1.706.746 3.857.746 5.566z" fill="#fff" stroke="#000"/><mask id="d" fill="#fff"><path d="M29.203 25.623c-2.046 0-4.436-.465-4.436-1.776 0-2.747.432-9.137 4.436-9.137 4.003 0 4.436 6.39 4.436 9.137 0 1.31-2.39 1.776-4.436 1.776zm0-10.36c-1.411 0-2.462.991-3.125 2.946-.66 1.947-.758 4.368-.758 5.638 0 .686 1.705 1.223 3.883 1.223 2.177 0 3.883-.537 3.883-1.223 0-1.27-.099-3.691-.758-5.638-.663-1.955-1.714-2.946-3.125-2.946z"/></mask><path d="M29.203 25.623c-2.046 0-4.436-.465-4.436-1.776 0-2.747.432-9.137 4.436-9.137 4.003 0 4.436 6.39 4.436 9.137 0 1.31-2.39 1.776-4.436 1.776zm0-10.36c-1.411 0-2.462.991-3.125 2.946-.66 1.947-.758 4.368-.758 5.638 0 .686 1.705 1.223 3.883 1.223 2.177 0 3.883-.537 3.883-1.223 0-1.27-.099-3.691-.758-5.638-.663-1.955-1.714-2.946-3.125-2.946z" fill="#000"/><path d="M26.078 18.209l-.947-.321.947.321zm6.25 0l-.947.32v.001l.947-.321zm-3.125 6.414c-.968 0-1.96-.112-2.674-.347-.359-.118-.578-.244-.692-.345a.304.304 0 0 1-.07-.08v-.004h-2c0 .673.32 1.204.74 1.577.399.355.904.59 1.399.753.992.326 2.219.446 3.297.446v-2zm-3.436-.776c0-1.347.109-3.507.67-5.3.58-1.846 1.464-2.837 2.766-2.837v-2c-2.702 0-4.036 2.204-4.674 4.24-.655 2.088-.762 4.496-.762 5.897h2zm3.436-8.137c1.302 0 2.186.99 2.765 2.837.562 1.793.67 3.953.67 5.3h2c0-1.4-.106-3.809-.762-5.898-.638-2.035-1.971-4.239-4.673-4.239v2zm3.436 8.137v.004a.304.304 0 0 1-.07.08c-.114.1-.334.227-.693.345-.713.235-1.705.347-2.673.347v2c1.078 0 2.304-.12 3.297-.447.494-.162 1-.397 1.398-.752.42-.373.74-.904.74-1.577h-2zm-3.436-9.584c-.966 0-1.826.349-2.53 1.012-.68.643-1.18 1.543-1.542 2.613l1.894.642c.3-.886.658-1.458 1.02-1.8.341-.32.713-.467 1.158-.467v-2zm-4.072 3.625c-.715 2.111-.811 4.67-.811 5.959h2c0-1.252.1-3.534.705-5.317l-1.894-.642zm-.811 5.959c0 .622.388 1.044.697 1.278.32.243.722.417 1.127.544.823.26 1.9.401 3.059.401v-2c-1.02 0-1.883-.127-2.458-.308-.293-.092-.454-.181-.521-.232-.08-.06.096.038.096.317h-2zm4.883 2.223c1.158 0 2.236-.141 3.058-.4.406-.128.807-.302 1.128-.545.308-.234.697-.656.697-1.278h-2c0-.28.175-.377.096-.317-.067.05-.228.14-.522.232-.574.181-1.438.308-2.457.308v2zm4.883-2.223c0-1.288-.096-3.848-.811-5.959l-1.894.642c.604 1.783.705 4.065.705 5.317h2zm-.811-5.959c-.363-1.07-.862-1.97-1.543-2.613a3.601 3.601 0 0 0-2.53-1.012v2c.445 0 .817.146 1.158.467.363.342.72.915 1.02 1.8l1.895-.642z" fill="#000" mask="url(#d)"/><path d="M24.543 23.847c0 .054-.022.144-.175.27-.16.131-.418.263-.777.378-.715.23-1.699.351-2.707.351-1.009 0-1.993-.122-2.707-.35-.36-.116-.618-.248-.777-.379-.154-.126-.176-.216-.176-.27 0-1.709.168-3.86.747-5.566.585-1.727 1.507-2.795 2.913-2.795s2.328 1.068 2.913 2.795c.578 1.706.746 3.857.746 5.566z" fill="#fff" stroke="#000"/><mask id="e" fill="#fff"><path d="M20.884 25.623c-2.047 0-4.436-.465-4.436-1.776 0-2.747.432-9.137 4.436-9.137 4.003 0 4.436 6.39 4.436 9.137 0 1.31-2.39 1.776-4.436 1.776zm0-10.36c-1.411 0-2.463.991-3.125 2.946-.66 1.947-.759 4.368-.759 5.638 0 .686 1.706 1.223 3.884 1.223 2.177 0 3.883-.537 3.883-1.223 0-1.27-.099-3.691-.758-5.638-.663-1.955-1.714-2.946-3.125-2.946z"/></mask><path d="M20.884 25.623c-2.047 0-4.436-.465-4.436-1.776 0-2.747.432-9.137 4.436-9.137 4.003 0 4.436 6.39 4.436 9.137 0 1.31-2.39 1.776-4.436 1.776zm0-10.36c-1.411 0-2.463.991-3.125 2.946-.66 1.947-.759 4.368-.759 5.638 0 .686 1.706 1.223 3.884 1.223 2.177 0 3.883-.537 3.883-1.223 0-1.27-.099-3.691-.758-5.638-.663-1.955-1.714-2.946-3.125-2.946z" fill="#000"/><path d="M17.759 18.209l.947.321-.947-.321zm6.25 0l-.948.32v.001l.948-.321zm-3.125 6.414c-.968 0-1.96-.112-2.674-.347-.359-.118-.578-.244-.692-.345a.306.306 0 0 1-.07-.08v-.004h-2c0 .673.32 1.204.74 1.577.399.355.905.59 1.399.753.992.326 2.219.446 3.297.446v-2zm-3.436-.776c0-1.347.109-3.507.67-5.3.58-1.846 1.464-2.837 2.766-2.837v-2c-2.702 0-4.036 2.204-4.674 4.24-.655 2.088-.762 4.496-.762 5.897h2zm3.436-8.137c1.301 0 2.186.99 2.765 2.837.562 1.793.67 3.953.67 5.3h2c0-1.4-.107-3.809-.762-5.898-.638-2.035-1.971-4.239-4.673-4.239v2zm3.436 8.137v.004a.306.306 0 0 1-.07.08c-.114.1-.334.227-.693.345-.713.235-1.705.347-2.673.347v2c1.078 0 2.304-.12 3.297-.447.494-.162 1-.397 1.398-.752.42-.373.74-.904.74-1.577h-2zm-3.436-9.584c-.966 0-1.826.349-2.53 1.012-.68.643-1.18 1.543-1.542 2.613l1.894.642c.3-.886.658-1.458 1.02-1.8.341-.32.713-.467 1.158-.467v-2zm-4.072 3.625c-.716 2.111-.812 4.67-.812 5.959h2c0-1.252.102-3.534.706-5.317l-1.894-.642zM16 23.847c0 .622.389 1.044.698 1.278.32.243.722.417 1.127.544.823.26 1.9.401 3.059.401v-2c-1.02 0-1.883-.127-2.458-.308-.293-.092-.454-.181-.521-.232-.08-.06.095.038.095.317h-2zm4.884 2.223c1.158 0 2.236-.141 3.058-.4.406-.128.807-.302 1.128-.545.308-.234.697-.656.697-1.278h-2c0-.28.175-.377.096-.317-.067.05-.228.14-.522.232-.574.181-1.438.308-2.457.308v2zm4.883-2.223c0-1.288-.096-3.848-.811-5.959l-1.895.642c.605 1.783.706 4.065.706 5.317h2zm-.811-5.959c-.363-1.07-.862-1.97-1.543-2.613a3.602 3.602 0 0 0-2.53-1.012v2c.445 0 .817.146 1.158.467.363.342.72.915 1.02 1.8l1.895-.642z" fill="#000" mask="url(#e)"/><path d="M37.109 32.908h0c.835 2.023 1.752 3.305 2.544 4.023.828.749 1.388.782 1.598.692.1-.044.211-.142.317-.365.108-.228.191-.548.25-.964.117-.835.118-1.922.118-3.15 0-2.236-1.074-3.347-1.489-3.76l-3.338 3.524zm0 0c-.479-1.16.088-2.24 1.037-2.964m-1.037 2.964l1.037-2.964m0 0c.469-.357.994-.592 1.444-.677m-1.444.677l1.444-.677m0 0c.472-.089.743.004.857.118l-.857-.118z" fill="#fff" stroke="#CACACA"/><path d="M41.016 28.904h0z" fill="#000" stroke="#CACACA"/><path d="M8.87 33.236c0-2.237 1.075-3.348 1.489-3.76h0c.114-.114.385-.207.857-.118.45.084.975.32 1.444.677.95.723 1.516 1.804 1.038 2.964-.836 2.023-1.753 3.305-2.545 4.023-.828.749-1.388.782-1.597.692l-.191.441.19-.441c-.1-.044-.21-.142-.317-.366-.107-.227-.19-.547-.25-.963-.117-.835-.118-1.922-.118-3.15z" fill="#fff" stroke="#CACACA"/><mask id="f" fill="#fff"><path d="M9.76 38.556c-.189 0-.365-.034-.524-.103-1.172-.507-1.172-2.585-1.172-5.217 0-2.615 1.3-3.907 1.727-4.332.254-.253.627-.387 1.077-.387 1.131 0 2.532.817 3.257 1.902.426.636.827 1.654.318 2.887-1.6 3.875-3.523 5.25-4.682 5.25zm1.107-9.428c-.198 0-.471.037-.645.21-.382.38-1.546 1.538-1.546 3.898 0 2.216 0 4.309.803 4.656a.71.71 0 0 0 .282.053c1.013 0 2.734-1.525 4.116-4.872.406-.984.083-1.802-.26-2.314-.683-1.02-1.934-1.63-2.75-1.63z"/></mask><path d="M9.76 38.556c-.189 0-.365-.034-.524-.103-1.172-.507-1.172-2.585-1.172-5.217 0-2.615 1.3-3.907 1.727-4.332.254-.253.627-.387 1.077-.387 1.131 0 2.532.817 3.257 1.902.426.636.827 1.654.318 2.887-1.6 3.875-3.523 5.25-4.682 5.25zm1.107-9.428c-.198 0-.471.037-.645.21-.382.38-1.546 1.538-1.546 3.898 0 2.216 0 4.309.803 4.656a.71.71 0 0 0 .282.053c1.013 0 2.734-1.525 4.116-4.872.406-.984.083-1.802-.26-2.314-.683-1.02-1.934-1.63-2.75-1.63z" fill="#000"/><path d="M9.236 38.453l.397-.918-.397.918zm.555-9.549l.705.71-.705-.71zm4.334 1.515l-.831.555.83-.555zm.318 2.887l-.925-.382.925.382zm-4.221-3.968l.705.709-.705-.71zm-.743 8.554l-.397.918.397-.918zm.282.053v-1 1zm4.116-4.872l.925.382-.925-.382zm-.26-2.314l-.832.555.832-.555zM9.76 37.556v2-2zm0 0a.32.32 0 0 1-.128-.02L8.84 39.37c.296.128.609.185.922.185v-2zm-.128-.02c-.074-.033-.296-.188-.435-1.053-.13-.816-.134-1.902-.134-3.247h-2c0 1.286-.002 2.555.16 3.564.153.958.518 2.096 1.615 2.57l.794-1.835zm-.569-4.3c0-2.222 1.08-3.272 1.432-3.622l-1.41-1.419c-.502.5-2.022 2.034-2.022 5.04h2zm1.432-3.623c.023-.022.116-.096.372-.096v-2c-.644 0-1.296.194-1.783.678l1.411 1.418zm.372-.096c.341 0 .801.13 1.277.408.47.274.881.65 1.149 1.05l1.662-1.112c-.458-.685-1.108-1.26-1.803-1.665-.689-.402-1.495-.68-2.285-.68v2zm2.426 1.458c.315.47.562 1.131.224 1.95l1.849.763c.68-1.649.125-3.024-.41-3.826l-1.663 1.113zm.224 1.95c-.765 1.852-1.58 3.042-2.29 3.753-.729.732-1.26.878-1.467.878v2c.952 0 1.962-.54 2.884-1.466.942-.945 1.886-2.38 2.722-4.402l-1.849-.764zm-2.65-4.797c-.247 0-.878.03-1.352.501l1.411 1.418a.404.404 0 0 1-.096.072c-.023.012-.037.015-.037.015l.021-.003a.49.49 0 0 1 .053-.003v-2zm-1.351.5c-.46.457-1.841 1.857-1.841 4.608h2c0-1.97.945-2.885 1.251-3.19l-1.41-1.417zm-1.841 4.608c0 1.087-.002 2.231.107 3.147.055.457.143.921.304 1.32.157.388.445.869.995 1.107l.794-1.836c.148.064.135.153.066-.019-.065-.16-.127-.422-.173-.809-.092-.772-.093-1.782-.093-2.91h-2zm1.407 5.574c.227.098.46.135.678.135v-2c.006 0 .05.001.114.029l-.792 1.836zm.678.135c.943 0 1.879-.652 2.658-1.507.827-.905 1.659-2.23 2.383-3.983l-1.85-.764c-.658 1.595-1.377 2.706-2.01 3.4-.68.744-1.111.854-1.181.854v2zm5.04-5.49c.58-1.402.098-2.578-.353-3.252l-1.663 1.112c.235.35.401.81.168 1.376l1.849.763zm-.353-3.252a4.884 4.884 0 0 0-1.668-1.515c-.6-.336-1.286-.56-1.912-.56v2c.188 0 .536.082.935.305.387.217.743.524.982.881l1.663-1.111z" fill="#CACACA" mask="url(#f)"/><path d="M26.466 29.493c-.509.19-.563.375-.563.427 0 1.36.115 3.07.508 4.423.197.678.452 1.227.766 1.598.302.357.645.538 1.066.538l-1.777-6.986zm0 0c.458-.172 1.104-.267 1.777-.267m-1.777.267l1.777-.267m0 0c.672 0 1.318.095 1.777.267m-1.777-.267l1.777.267m0 0c.508.19.562.375.562.427m-.563-.427l.563.427m0 0c0 1.36-.115 3.07-.508 4.423m.508-4.423l-.508 4.423m0 0c-.197.678-.452 1.227-.766 1.597m.766-1.597l-.766 1.597m0 0c-.302.358-.645.54-1.065.54l1.065-.54z" fill="#fff" stroke="#CACACA"/><mask id="g" fill="#fff"><path d="M28.243 37.284c-2.839 0-3.145-5.15-3.145-7.364 0-1.037 1.58-1.5 3.145-1.5s3.145.463 3.145 1.5c0 2.214-.307 7.364-3.145 7.364zm0-8.253c-1.397 0-2.534.399-2.534.889 0 1.584.183 6.753 2.534 6.753 2.35 0 2.533-5.169 2.533-6.753 0-.49-1.136-.89-2.533-.89z"/></mask><path d="M28.243 37.284c-2.839 0-3.145-5.15-3.145-7.364 0-1.037 1.58-1.5 3.145-1.5s3.145.463 3.145 1.5c0 2.214-.307 7.364-3.145 7.364zm0-8.253c-1.397 0-2.534.399-2.534.889 0 1.584.183 6.753 2.534 6.753 2.35 0 2.533-5.169 2.533-6.753 0-.49-1.136-.89-2.533-.89z" fill="#000"/><path d="M31.388 29.92h1-1zm-.612 0h1-1zm-2.533 6.364c-.358 0-.643-.143-.919-.476-.3-.363-.556-.923-.754-1.641-.395-1.431-.473-3.163-.473-4.247h-2c0 1.13.076 3.08.545 4.778.233.846.585 1.712 1.141 2.384.58.702 1.398 1.202 2.46 1.202v-2zm-2.145-6.364l-.001.006a.073.073 0 0 1-.004.014c-.004.008-.003.002.015-.018.042-.046.147-.13.359-.218.427-.177 1.07-.285 1.776-.285v-2c-.861 0-1.79.125-2.544.439-.716.297-1.602.926-1.602 2.062h2zm2.145-.5c.704 0 1.348.107 1.775.284.212.088.317.172.36.218.017.02.018.026.015.018a.073.073 0 0 1-.004-.014l-.001-.006h2c0-1.136-.886-1.765-1.602-2.063-.754-.313-1.683-.438-2.543-.438v2zm2.145.5c0 1.084-.078 2.816-.472 4.247-.198.718-.455 1.278-.755 1.64-.275.334-.561.477-.918.477v2c1.062 0 1.879-.5 2.46-1.202.555-.672.907-1.538 1.14-2.384.469-1.697.545-3.648.545-4.778h-2zm-2.145-1.89c-.781 0-1.532.11-2.122.318-.29.102-.597.246-.85.456-.247.204-.562.576-.562 1.116h2a.65.65 0 0 1-.085.326c-.04.067-.076.097-.078.098-.002.002.013-.01.057-.033.042-.022.102-.048.18-.076.327-.115.843-.204 1.46-.204v-2zm-3.534 1.89c0 .81.045 2.59.41 4.192.181.795.46 1.632.91 2.292.466.683 1.19 1.269 2.214 1.269v-2c-.153 0-.333-.06-.562-.396-.245-.358-.453-.913-.612-1.609-.314-1.378-.36-2.975-.36-3.748h-2zm3.534 7.753c1.023 0 1.747-.586 2.213-1.269.451-.66.729-1.497.91-2.292.365-1.602.41-3.381.41-4.192h-2c0 .773-.046 2.37-.36 3.748-.159.696-.367 1.25-.612 1.609-.23.336-.409.396-.561.396v2zm3.533-7.753c0-.54-.315-.912-.561-1.116a2.776 2.776 0 0 0-.85-.456c-.591-.207-1.341-.317-2.122-.317v2c.616 0 1.132.09 1.46.204.078.028.137.054.18.076.043.022.058.035.056.033-.001 0-.038-.03-.078-.098a.65.65 0 0 1-.085-.326h2z" fill="#CACACA" mask="url(#g)"/><path d="M31.582 30.305c0-.092.079-.29.576-.486.458-.18 1.105-.282 1.779-.282.674 0 1.32.101 1.78.282.496.196.575.394.575.486 0 1.456-.066 3.284-.376 4.736-.155.73-.363 1.322-.624 1.72-.254.386-.516.533-.803.533-.36 0-.724-.182-1.088-.592-.367-.411-.698-1.012-.974-1.735-.553-1.445-.845-3.256-.845-4.662z" fill="#fff" stroke="#CACACA"/><mask id="h" fill="#fff"><path d="M34.489 38.19c-1.13 0-2.103-.983-2.815-2.845-.554-1.448-.898-3.345-.898-4.95 0-1.087 1.588-1.573 3.16-1.573 1.574 0 3.161.486 3.161 1.573 0 5.246-.853 7.796-2.608 7.796zm-.552-8.757c-1.43 0-2.55.423-2.55.962 0 2.93 1.209 7.184 3.101 7.184 1.288 0 1.998-2.551 1.998-7.184 0-.54-1.12-.962-2.55-.962z"/></mask><path d="M34.489 38.19c-1.13 0-2.103-.983-2.815-2.845-.554-1.448-.898-3.345-.898-4.95 0-1.087 1.588-1.573 3.16-1.573 1.574 0 3.161.486 3.161 1.573 0 5.246-.853 7.796-2.608 7.796zm-.552-8.757c-1.43 0-2.55.423-2.55.962 0 2.93 1.209 7.184 3.101 7.184 1.288 0 1.998-2.551 1.998-7.184 0-.54-1.12-.962-2.55-.962z" fill="#000"/><path d="M31.674 35.345l.934-.357-.934.357zm5.423-4.95h-1 1zm-.611 0h-1 1zm-1.997 6.796c-.454 0-1.194-.407-1.881-2.203l-1.868.714c.737 1.928 1.944 3.489 3.749 3.489v-2zm-1.881-2.203c-.509-1.33-.832-3.105-.832-4.593h-2c0 1.723.365 3.741.964 5.307l1.868-.714zm-.832-4.593c0-.004-.006-.01.026-.046.045-.052.152-.14.362-.23.426-.185 1.068-.297 1.773-.297v-2c-.869 0-1.807.131-2.568.462-.738.32-1.593.974-1.593 2.111h2zm2.16-.573c.705 0 1.347.112 1.773.296.21.091.317.179.363.23.031.037.025.043.025.047h2c0-1.137-.854-1.792-1.592-2.111-.761-.33-1.7-.462-2.568-.462v2zm2.161.573c0 2.596-.214 4.413-.594 5.548-.189.563-.394.884-.567 1.054a.589.589 0 0 1-.447.194v2c.711 0 1.343-.27 1.848-.767.481-.473.819-1.117 1.063-1.847.485-1.451.697-3.532.697-6.182h-2zm-2.16-1.962c-.8 0-1.563.117-2.164.343-.297.112-.607.271-.86.5-.256.232-.525.609-.525 1.12h2a.51.51 0 0 1-.131.362c-.003.003.01-.01.05-.033.04-.022.096-.049.172-.078.317-.119.828-.214 1.458-.214v-2zm-3.55 1.962c0 1.577.322 3.493.905 5.043.291.773.67 1.514 1.153 2.08.48.562 1.163 1.061 2.043 1.061v-2c-.066 0-.243-.033-.522-.36-.276-.323-.555-.829-.802-1.486-.494-1.31-.776-2.986-.776-4.338h-2zm4.101 8.184c.704 0 1.255-.366 1.639-.849.366-.46.62-1.068.807-1.738.374-1.347.552-3.25.552-5.597h-2c0 2.285-.177 3.975-.48 5.061-.151.548-.316.867-.445 1.03-.111.14-.132.093-.073.093v2zm2.998-8.184c0-.51-.27-.887-.525-1.118a2.693 2.693 0 0 0-.86-.5c-.601-.227-1.365-.344-2.164-.344v2c.63 0 1.14.095 1.457.215.076.028.132.055.172.077.04.023.054.035.05.033a.51.51 0 0 1-.13-.363h2z" fill="#CACACA" mask="url(#h)"/><path d="M20.787 29.493c-.508.19-.563.375-.563.427 0 1.36.115 3.07.508 4.423.197.678.453 1.227.766 1.597.302.358.646.54 1.066.54l-1.777-6.987zm0 0c.459-.172 1.105-.267 1.777-.267m-1.777.267l1.777-.267m0 0c.672 0 1.318.095 1.777.267m-1.777-.267l1.777.267m0 0c.508.19.562.375.562.427m-.562-.427l.562.427m0 0c0 1.36-.115 3.07-.508 4.423m.508-4.423l-.508 4.423m0 0c-.196.678-.452 1.227-.766 1.598m.766-1.598l-.766 1.598m0 0c-.302.357-.645.538-1.065.538l1.065-.538z" fill="#fff" stroke="#CACACA"/><mask id="i" fill="#fff"><path d="M22.564 37.284c-2.839 0-3.145-5.15-3.145-7.364 0-1.037 1.58-1.5 3.145-1.5s3.145.463 3.145 1.5c0 2.214-.306 7.364-3.145 7.364zm0-8.253c-1.397 0-2.534.399-2.534.889 0 1.584.183 6.753 2.534 6.753 2.35 0 2.534-5.169 2.534-6.753 0-.49-1.137-.89-2.534-.89z"/></mask><path d="M22.564 37.284c-2.839 0-3.145-5.15-3.145-7.364 0-1.037 1.58-1.5 3.145-1.5s3.145.463 3.145 1.5c0 2.214-.306 7.364-3.145 7.364zm0-8.253c-1.397 0-2.534.399-2.534.889 0 1.584.183 6.753 2.534 6.753 2.35 0 2.534-5.169 2.534-6.753 0-.49-1.137-.89-2.534-.89z" fill="#000"/><path d="M25.098 29.92h-1 1zm-2.534 6.364c-.358 0-.643-.143-.919-.476-.3-.363-.556-.923-.754-1.641-.395-1.431-.472-3.163-.472-4.247h-2c0 1.13.076 3.08.544 4.778.233.846.585 1.712 1.141 2.384.58.702 1.398 1.202 2.46 1.202v-2zm-2.145-6.364l-.001.006a.073.073 0 0 1-.004.014c-.003.008-.003.002.015-.018.042-.046.147-.13.36-.218.427-.177 1.07-.285 1.775-.285v-2c-.86 0-1.79.125-2.544.439-.715.297-1.601.926-1.601 2.062h2zm2.145-.5c.705 0 1.348.107 1.776.284.212.088.317.172.359.218.018.02.018.026.015.018a.073.073 0 0 1-.004-.014l-.001-.006h2c0-1.136-.886-1.765-1.602-2.063-.753-.313-1.683-.438-2.543-.438v2zm2.145.5c0 1.084-.077 2.816-.472 4.247-.198.718-.455 1.278-.755 1.64-.275.334-.56.477-.918.477v2c1.062 0 1.879-.5 2.46-1.202.555-.672.908-1.538 1.14-2.384.47-1.697.545-3.648.545-4.778h-2zm-2.145-1.89c-.781 0-1.531.11-2.122.318-.29.102-.597.246-.85.456-.247.204-.562.576-.562 1.116h2a.65.65 0 0 1-.085.326c-.04.067-.076.097-.078.098-.002.002.014-.01.057-.033.042-.022.102-.048.18-.076.327-.115.844-.204 1.46-.204v-2zm-3.534 1.89c0 .81.045 2.59.41 4.192.181.795.46 1.632.91 2.292.466.683 1.19 1.269 2.214 1.269v-2c-.153 0-.332-.06-.562-.396-.244-.358-.453-.913-.611-1.609-.314-1.378-.36-2.975-.36-3.748h-2zm3.534 7.753c1.023 0 1.747-.586 2.213-1.269.451-.66.73-1.497.91-2.292.365-1.602.41-3.381.41-4.192h-2c0 .773-.046 2.37-.36 3.748-.158.696-.367 1.25-.611 1.609-.23.336-.41.396-.562.396v2zm3.534-7.753c0-.54-.316-.912-.562-1.116a2.777 2.777 0 0 0-.85-.456c-.59-.207-1.341-.317-2.122-.317v2c.616 0 1.132.09 1.46.204.078.028.137.054.18.076.043.022.059.035.056.033 0 0-.038-.03-.077-.098a.65.65 0 0 1-.085-.326h2z" fill="#CACACA" mask="url(#i)"/><path d="M14.515 30.395c0-.092.078-.29.575-.486.459-.18 1.106-.282 1.78-.282.674 0 1.32.101 1.779.282.497.197.575.394.575.486 0 1.406-.292 3.217-.844 4.662-.277.723-.607 1.324-.974 1.736-.365.409-.728.592-1.088.592-.287 0-.55-.148-.803-.534-.262-.398-.47-.99-.625-1.72-.31-1.452-.375-3.28-.375-4.736z" fill="#fff" stroke="#CACACA"/><mask id="j" fill="#fff"><path d="M16.318 38.19c-1.756 0-2.61-2.55-2.61-7.795 0-1.087 1.588-1.573 3.162-1.573 1.573 0 3.16.486 3.16 1.573 0 1.605-.344 3.502-.898 4.95-.712 1.862-1.685 2.846-2.814 2.846zm.552-8.757c-1.43 0-2.55.423-2.55.962 0 4.633.71 7.184 1.998 7.184 1.893 0 3.1-4.255 3.1-7.184 0-.54-1.119-.962-2.548-.962z"/></mask><path d="M16.318 38.19c-1.756 0-2.61-2.55-2.61-7.795 0-1.087 1.588-1.573 3.162-1.573 1.573 0 3.16.486 3.16 1.573 0 1.605-.344 3.502-.898 4.95-.712 1.862-1.685 2.846-2.814 2.846zm.552-8.757c-1.43 0-2.55.423-2.55.962 0 4.633.71 7.184 1.998 7.184 1.893 0 3.1-4.255 3.1-7.184 0-.54-1.119-.962-2.548-.962z" fill="#000"/><path d="M19.132 35.345l.934.357-.934-.357zm.287-4.95h-1 1zm-3.101 6.796a.589.589 0 0 1-.448-.194c-.172-.17-.378-.49-.567-1.054-.38-1.135-.594-2.952-.594-5.548h-2c0 2.65.212 4.731.698 6.182.244.73.581 1.375 1.062 1.847a2.584 2.584 0 0 0 1.849.767v-2zm-1.61-6.796c0-.004-.005-.01.027-.046.045-.052.152-.14.362-.23.426-.185 1.068-.297 1.773-.297v-2c-.869 0-1.807.131-2.569.462-.737.32-1.592.974-1.592 2.111h2zm2.162-.573c.704 0 1.346.112 1.772.296.21.091.317.179.363.23.031.037.025.043.025.047h2c0-1.137-.855-1.791-1.592-2.111-.761-.33-1.7-.462-2.568-.462v2zm2.16.573c0 1.488-.323 3.263-.832 4.593l1.868.714c.6-1.566.964-3.584.964-5.307h-2zm-.832 4.593c-.687 1.796-1.427 2.203-1.88 2.203v2c1.805 0 3.011-1.562 3.748-3.489l-1.868-.714zm-1.328-6.555c-.8 0-1.563.117-2.164.343a2.69 2.69 0 0 0-.86.5c-.256.232-.526.609-.526 1.12h2a.51.51 0 0 1-.13.362c-.003.003.01-.01.05-.033.04-.022.096-.049.172-.077.317-.12.828-.215 1.458-.215v-2zm-3.55 1.962c0 2.348.178 4.25.553 5.597.186.67.44 1.278.807 1.739.383.482.934.848 1.638.848v-2c.06 0 .039.047-.073-.093-.13-.163-.293-.482-.446-1.03-.302-1.086-.479-2.776-.479-5.06h-2zm2.998 8.184c.88 0 1.563-.498 2.044-1.061.483-.566.861-1.307 1.152-2.08.584-1.55.905-3.466.905-5.043h-2c0 1.352-.283 3.028-.777 4.338-.247.657-.526 1.163-.802 1.487-.278.326-.456.36-.522.36v2zm4.1-8.184c0-.51-.27-.887-.525-1.118a2.69 2.69 0 0 0-.86-.5c-.6-.227-1.364-.344-2.163-.344v2c.63 0 1.14.095 1.457.215.076.028.132.055.171.077.04.023.055.036.052.033-.001 0-.131-.122-.131-.363h2z" fill="#CACACA" mask="url(#j)"/><defs><filter id="filter0_b" x="-10" y="-10" width="70" height="70" filterUnits="userSpaceOnUse" color-interpolation-filters="sRGB"><feFlood flood-opacity="0" result="BackgroundImageFix"/><feGaussianBlur in="BackgroundImage" stdDeviation="5"/><feComposite in2="SourceAlpha" operator="in" result="effect1_backgroundBlur"/><feBlend in="SourceGraphic" in2="effect1_backgroundBlur" result="shape"/></filter><linearGradient id="paint0_linear" x1="25" y1="0" x2="25" y2="50" gradientUnits="userSpaceOnUse"><stop stop-color="#FEEEC2"/><stop offset=".089" stop-color="#FDE294"/><stop offset=".693" stop-color="#F7B446"/><stop offset="1" stop-color="#F79B46"/></linearGradient></defs></svg>