<svg width="50" height="50" fill="none" xmlns="http://www.w3.org/2000/svg"><g filter="url(#filter0_b)"><circle cx="25" cy="25" r="25" fill="#fff"/><circle cx="25" cy="25" r="24.5" stroke="url(#paint0_linear)"/></g><path d="M21.84 15.07v10.409h4.416c1.826 0 3.237-.465 4.233-1.395.996-.93 1.494-2.203 1.494-3.818 0-1.616-.498-2.883-1.494-3.802-.996-.93-2.407-1.395-4.233-1.395H21.84zm7.055 17.647H21.84V37h-2.258v-4.283h-3.32v-1.76h3.32v-3.486h-3.32v-1.992h3.32V13.043h7.205c2.258 0 4.073.675 5.445 2.025 1.384 1.34 2.076 3.072 2.076 5.197 0 2.136-.692 3.873-2.076 5.213-1.372 1.328-3.193 1.992-5.462 1.992h-4.93v3.486h7.055v1.76z" fill="#000"/><defs><filter id="filter0_b" x="-10" y="-10" width="70" height="70" filterUnits="userSpaceOnUse" color-interpolation-filters="sRGB"><feFlood flood-opacity="0" result="BackgroundImageFix"/><feGaussianBlur in="BackgroundImage" stdDeviation="5"/><feComposite in2="SourceAlpha" operator="in" result="effect1_backgroundBlur"/><feBlend in="SourceGraphic" in2="effect1_backgroundBlur" result="shape"/></filter><linearGradient id="paint0_linear" x1="25" y1="0" x2="25" y2="50" gradientUnits="userSpaceOnUse"><stop stop-color="#FEEEC2"/><stop offset=".089" stop-color="#FDE294"/><stop offset=".693" stop-color="#F7B446"/><stop offset="1" stop-color="#F79B46"/></linearGradient></defs></svg>