<svg width="50" height="50" fill="none" xmlns="http://www.w3.org/2000/svg"><g filter="url(#filter0_b)"><circle cx="25" cy="25" r="25" fill="#fff"/><circle cx="25" cy="25" r="24.5" stroke="url(#paint0_linear)"/></g><path d="M33.645 14.613h-18.29c-1.443 0-2.613 1.213-2.613 2.71V36.29c0 1.497 1.17 2.71 2.613 2.71h18.29c1.443 0 2.613-1.213 2.613-2.71V17.323c0-1.497-1.17-2.71-2.613-2.71zM29.726 12v5.226M19.274 12v5.226M12.742 22.452h23.516" stroke="#000" stroke-width="1.5" stroke-linecap="round" stroke-linejoin="round"/><rect x="15.355" y="25.064" width="7.839" height="2.613" rx="1.306" fill="#E3E3E3"/><rect x="25.806" y="25.064" width="7.839" height="2.613" rx="1.306" fill="#E3E3E3"/><rect x="15.355" y="29.419" width="7.839" height="2.613" rx="1.306" fill="#E3E3E3"/><rect x="25.806" y="29.419" width="7.839" height="2.613" rx="1.306" fill="#E3E3E3"/><rect x="15.355" y="33.774" width="7.839" height="2.613" rx="1.306" fill="#E3E3E3"/><rect x="25.806" y="33.774" width="7.839" height="2.613" rx="1.306" fill="#E3E3E3"/><defs><filter id="filter0_b" x="-10" y="-10" width="70" height="70" filterUnits="userSpaceOnUse" color-interpolation-filters="sRGB"><feFlood flood-opacity="0" result="BackgroundImageFix"/><feGaussianBlur in="BackgroundImage" stdDeviation="5"/><feComposite in2="SourceAlpha" operator="in" result="effect1_backgroundBlur"/><feBlend in="SourceGraphic" in2="effect1_backgroundBlur" result="shape"/></filter><linearGradient id="paint0_linear" x1="25" y1="0" x2="25" y2="50" gradientUnits="userSpaceOnUse"><stop stop-color="#FEEEC2"/><stop offset=".089" stop-color="#FDE294"/><stop offset=".693" stop-color="#F7B446"/><stop offset="1" stop-color="#F79B46"/></linearGradient></defs></svg>