<svg id="Слой_1" data-name="Слой 1" xmlns="http://www.w3.org/2000/svg" viewBox="0 0 116.19993 52.14286">
  <defs>
    <style>
      .cls-1, .cls-2 {
        fill: #fdfcf5;
      }

      .cls-1 {
        fill-rule: evenodd;
      }
    </style>
  </defs>
  <title>logo</title>
  <g>
    <path class="cls-1" d="M46.46284,21.8a14.09889,14.09889,0,0,1-2.45594-7.94286A13.831,13.831,0,0,1,67.65241,4.08572,10.38048,10.38048,0,0,1,68.82326,5.4,8.71237,8.71237,0,0,0,66.71,5.17143a2.4412,2.4412,0,0,0-.45692,0A12.11,12.11,0,0,0,45.7489,13.85714a12.19108,12.19108,0,0,0,1.97046,6.65715Z"/>
    <path class="cls-1" d="M68.42346,10.68571a.98805.98805,0,0,1-1.02807.94286h-.02856a.99445.99445,0,0,1-.94239-1.05714v-.02857a1.00215,1.00215,0,1,1,1.999.14285ZM45.035,26.77143a.34724.34724,0,0,0,0,.45714.31133.31133,0,0,0,.34269.05715c1.88478-.91429,4.76908-2.08572,7.33924-.71429a14.46164,14.46164,0,0,0,5.85426,1.51429,10.75842,10.75842,0,0,0,10.709-10.74286c0-2.68572.54258-4.68572,2.91285-6.08572A5.57607,5.57607,0,0,0,66.71,7.68571a5.9208,5.9208,0,0,0-4.45495,1.8Z"/>
    <polygon class="cls-1" points="0 32.771 1.856 32.771 6.511 40.8 11.166 32.771 13.022 32.771 13.022 43.4 11.166 43.4 11.166 36 6.825 43.4 6.168 43.4 1.856 36 1.856 43.4 0 43.4 0 32.771"/>
    <rect class="cls-2" x="16.0778" y="32.77143" width="1.88479" height="10.62857"/>
    <path class="cls-1" d="M22.87445,41.8h3.94092A3.51061,3.51061,0,0,0,30.385,38.08572a3.4955,3.4955,0,0,0-3.56967-3.71429H22.87445ZM26.901,32.77143a5.31492,5.31492,0,1,1,0,10.62857H21.01822V32.77143Z"/>
    <path class="cls-1" d="M43.97835,35.48572A6.544,6.544,0,0,0,39.9232,34.2c-1.45643,0-2.71295.48571-2.71295,1.57143,0,2.37143,7.85327.45714,7.85327,4.74286,0,2.25714-2.42737,3.2-4.99753,3.2a8.29707,8.29707,0,0,1-5.31167-1.62857l1.05662-1.45715a6.80235,6.80235,0,0,0,4.39783,1.4c1.5421,0,2.8843-.45714,2.8843-1.51428,0-2.48572-7.85328-.57143-7.85328-4.77143,0-2.31429,2.22747-3.22857,4.62629-3.22857a8.68389,8.68389,0,0,1,5.11177,1.51428Z"/>
    <path class="cls-1" d="M47.71936,32.77143H49.547V39.2c0,1.85714,1.68489,2.74286,3.36977,2.74286s3.36977-.88572,3.36977-2.74286V32.77143h1.82767V39.2c0,3.02857-2.59872,4.57143-5.19744,4.57143S47.71936,42.22857,47.71936,39.2Z"/>
    <polygon class="cls-1" points="61.056 32.771 62.912 32.771 67.567 40.8 72.25 32.771 74.106 32.771 74.106 43.4 72.25 43.4 72.25 36 67.909 43.4 67.224 43.4 62.912 36 62.912 43.4 61.056 43.4 61.056 32.771"/>
    <polygon class="cls-1" points="77.162 32.771 79.018 32.771 83.673 40.8 88.328 32.771 90.213 32.771 90.213 43.4 88.328 43.4 88.328 36 84.016 43.4 83.33 43.4 79.018 36 79.018 43.4 77.162 43.4 77.162 32.771"/>
    <polygon class="cls-1" points="102.721 41.8 102.721 43.4 93.268 43.4 93.268 32.771 102.635 32.771 102.635 34.371 95.125 34.371 95.125 37.286 101.607 37.286 101.607 38.886 95.125 38.886 95.125 41.8 102.721 41.8"/>
    <path class="cls-1" d="M107.26147,37.51429h4.0266a1.58125,1.58125,0,1,0,0-3.11429h-4.0266Zm-1.85622-4.74286h6.2255a3.18159,3.18159,0,0,1,3.42688,3.2A3.05986,3.05986,0,0,1,112.71593,39l3.484,4.4h-2.3417l-3.14132-4.28571h-3.45544V43.4h-1.85622Z"/>
    <path class="cls-2" d="M44.7494,48.28572H44.064L43.0074,51.22857h-.02856l-1.02807-2.94285h-.74249l-1.02806,2.94285h-.02856l-1.02807-2.94285h-.68537l1.34219,3.8h.771l1.02807-2.91429h0l1.02806,2.91429h.74249Zm.5997,3.8h.65682v-3.8H45.3491Zm5.08321-3.8h-.65682v2.82857h0l-1.9419-2.82857h-.82816v3.8h.65682V49.22857h.02856l1.94189,2.85715h.79961ZM52.08864,50.4h2.1418v-.57142h-2.1418v-.97144h2.39882v-.57142H51.43182v3.8h3.05564v-.6H52.08864Zm5.74,1.74286a1.698,1.698,0,0,0,1.14229-.45715l.11423-.11428.31413.31429a.62622.62622,0,0,0,.48548.2h.42836v-.54286h-.37124a.32417.32417,0,0,1-.22846-.08571l-.22846-.22858.65682-.57142-.34269-.4-.68538.6-.71393-.71428c.45691-.2.85672-.45715.85672-1,0-.62857-.54259-.94286-1.1423-.94286s-1.14229.31429-1.14229.94286a.98013.98013,0,0,0,.34269.71428l.11423.11429c-.45692.22857-.85672.51429-.85672,1.11429,0,.71428.5997,1.05714,1.25652,1.05714Zm.14279-2.4L57.82867,49.6a.68747.68747,0,0,1-.257-.45714c0-.25714.22846-.4.54259-.4s.54259.14286.54259.4c0,.31429-.31413.45714-.68537.6Zm.74249,1.48571-.08567.05715a1.2823,1.2823,0,0,1-.79961.34285c-.37125,0-.65682-.2-.65682-.54285s.31413-.54286.68538-.71429Zm3.6839.85715h2.17036a1.05872,1.05872,0,0,0,1.19941-1.02858,1.00282,1.00282,0,0,0-.62827-.94285v-.02857a.91365.91365,0,0,0,.514-.85715c0-.57142-.48548-.94285-1.19941-.94285H62.39785Zm.65682-2.22858v-1H64.3683c.37125,0,.62827.17143.62827.48572,0,.34285-.257.51428-.62827.51428Zm0,1.62858V50.42857h1.37075c.45692,0,.68538.22858.68538.54286,0,.28571-.1999.51429-.65682.51429ZM67.16693,50.4h2.1418v-.57142h-2.1418v-.97144h2.39881v-.57142H66.51011v3.8h3.05563v-.6H67.16693Zm3.91236,0h2.1418v-.57142h-2.1418v-.97144h2.39882v-.57142H70.42247v3.8h3.05564v-.6H71.07929Zm5.91137,1.68572h.7425L76.87644,50.6a1.07489,1.07489,0,0,0,.88527-1.14285,1.15709,1.15709,0,0,0-1.28508-1.17143h-2.1418v3.8h.65682V50.65715H76.1625Zm-1.999-2V48.85714h1.485a.57765.57765,0,0,1,.62826.6.58492.58492,0,0,1-.62826.62857Z"/>
    <rect class="cls-2" y="49.85714" width="36.21074" height="0.65714"/>
    <rect class="cls-2" x="79.98918" y="49.85714" width="36.21075" height="0.65714"/>
  </g>
</svg>
