<svg width="149" height="121" viewBox="0 0 149 121" fill="none" xmlns="http://www.w3.org/2000/svg">
<circle cx="6.12372" cy="37.182" r="5" transform="rotate(-15 6.12372 37.182)" fill="#2778F1" fill-opacity="0.25"/>
<circle cx="25.4422" cy="32.0056" r="5" transform="rotate(-15 25.4422 32.0056)" fill="#2778F1" fill-opacity="0.25"/>
<circle cx="44.7608" cy="26.8292" r="5" transform="rotate(-15 44.7608 26.8292)" fill="#2778F1" fill-opacity="0.25"/>
<circle cx="64.0793" cy="21.6529" r="5" transform="rotate(-15 64.0793 21.6529)" fill="#2778F1" fill-opacity="0.25"/>
<circle cx="83.3978" cy="16.4765" r="5" transform="rotate(-15 83.3978 16.4765)" fill="#2778F1" fill-opacity="0.25"/>
<circle cx="102.716" cy="11.3001" r="5" transform="rotate(-15 102.716 11.3001)" fill="#2778F1" fill-opacity="0.25"/>
<circle cx="122.035" cy="6.12371" r="5" transform="rotate(-15 122.035 6.12371)" fill="#2778F1" fill-opacity="0.25"/>
<circle cx="11.3001" cy="56.5005" r="5" transform="rotate(-15 11.3001 56.5005)" fill="#2778F1" fill-opacity="0.25"/>
<circle cx="30.6186" cy="51.3241" r="5" transform="rotate(-15 30.6186 51.3241)" fill="#2778F1" fill-opacity="0.25"/>
<circle cx="49.9371" cy="46.1477" r="5" transform="rotate(-15 49.9371 46.1477)" fill="#2778F1" fill-opacity="0.25"/>
<circle cx="69.2557" cy="40.9714" r="5" transform="rotate(-15 69.2557 40.9714)" fill="#2778F1" fill-opacity="0.25"/>
<circle cx="88.5742" cy="35.795" r="5" transform="rotate(-15 88.5742 35.795)" fill="#2778F1" fill-opacity="0.25"/>
<circle cx="107.893" cy="30.6186" r="5" transform="rotate(-15 107.893 30.6186)" fill="#2778F1" fill-opacity="0.25"/>
<circle cx="127.211" cy="25.4422" r="5" transform="rotate(-15 127.211 25.4422)" fill="#2778F1" fill-opacity="0.25"/>
<circle cx="16.4765" cy="75.819" r="5" transform="rotate(-15 16.4765 75.819)" fill="#2778F1" fill-opacity="0.25"/>
<circle cx="35.795" cy="70.6427" r="5" transform="rotate(-15 35.795 70.6427)" fill="#2778F1" fill-opacity="0.25"/>
<circle cx="55.1135" cy="65.4663" r="5" transform="rotate(-15 55.1135 65.4663)" fill="#2778F1" fill-opacity="0.25"/>
<circle cx="74.432" cy="60.2899" r="5" transform="rotate(-15 74.432 60.2899)" fill="#2778F1" fill-opacity="0.25"/>
<circle cx="93.7505" cy="55.1135" r="5" transform="rotate(-15 93.7505 55.1135)" fill="#2778F1" fill-opacity="0.25"/>
<circle cx="113.069" cy="49.9371" r="5" transform="rotate(-15 113.069 49.9371)" fill="#2778F1" fill-opacity="0.25"/>
<circle cx="132.388" cy="44.7608" r="5" transform="rotate(-15 132.388 44.7608)" fill="#2778F1" fill-opacity="0.25"/>
<circle cx="21.6529" cy="95.1376" r="5" transform="rotate(-15 21.6529 95.1376)" fill="#2778F1" fill-opacity="0.25"/>
<circle cx="40.9714" cy="89.9612" r="5" transform="rotate(-15 40.9714 89.9612)" fill="#2778F1" fill-opacity="0.25"/>
<circle cx="60.2899" cy="84.7848" r="5" transform="rotate(-15 60.2899 84.7848)" fill="#2778F1" fill-opacity="0.25"/>
<circle cx="79.6084" cy="79.6084" r="5" transform="rotate(-15 79.6084 79.6084)" fill="#2778F1" fill-opacity="0.25"/>
<circle cx="98.9269" cy="74.432" r="5" transform="rotate(-15 98.9269 74.432)" fill="#2778F1" fill-opacity="0.25"/>
<circle cx="118.245" cy="69.2557" r="5" transform="rotate(-15 118.245 69.2557)" fill="#2778F1" fill-opacity="0.25"/>
<circle cx="137.564" cy="64.0793" r="5" transform="rotate(-15 137.564 64.0793)" fill="#2778F1" fill-opacity="0.25"/>
<circle cx="26.8292" cy="114.456" r="5" transform="rotate(-15 26.8292 114.456)" fill="#2778F1" fill-opacity="0.25"/>
<circle cx="46.1478" cy="109.28" r="5" transform="rotate(-15 46.1478 109.28)" fill="#2778F1" fill-opacity="0.25"/>
<circle cx="65.4663" cy="104.103" r="5" transform="rotate(-15 65.4663 104.103)" fill="#2778F1" fill-opacity="0.25"/>
<circle cx="84.7848" cy="98.9269" r="5" transform="rotate(-15 84.7848 98.9269)" fill="#2778F1" fill-opacity="0.25"/>
<circle cx="104.103" cy="93.7505" r="5" transform="rotate(-15 104.103 93.7505)" fill="#2778F1" fill-opacity="0.25"/>
<circle cx="123.422" cy="88.5742" r="5" transform="rotate(-15 123.422 88.5742)" fill="#2778F1" fill-opacity="0.25"/>
<circle cx="142.74" cy="83.3978" r="5" transform="rotate(-15 142.74 83.3978)" fill="#2778F1" fill-opacity="0.25"/>
</svg>
