<svg width="184" height="184" viewBox="0 0 184 184" fill="none" xmlns="http://www.w3.org/2000/svg">
<circle cx="6.12372" cy="42.3584" r="5" transform="rotate(-15 6.12372 42.3584)" fill="#D6FF97"/>
<circle cx="25.4422" cy="37.182" r="5" transform="rotate(-15 25.4422 37.182)" fill="#D6FF97"/>
<circle cx="44.7608" cy="32.0056" r="5" transform="rotate(-15 44.7608 32.0056)" fill="#D6FF97"/>
<circle cx="64.0793" cy="26.8292" r="5" transform="rotate(-15 64.0793 26.8292)" fill="#D6FF97"/>
<circle cx="83.3978" cy="21.6528" r="5" transform="rotate(-15 83.3978 21.6528)" fill="#D6FF97"/>
<circle cx="102.716" cy="16.4765" r="5" transform="rotate(-15 102.716 16.4765)" fill="#D6FF97"/>
<circle cx="122.035" cy="11.3002" r="5" transform="rotate(-15 122.035 11.3002)" fill="#D6FF97"/>
<circle cx="141.353" cy="6.12379" r="5" transform="rotate(-15 141.353 6.12379)" fill="#D6FF97"/>
<circle cx="11.3001" cy="61.6769" r="5" transform="rotate(-15 11.3001 61.6769)" fill="#D6FF97"/>
<circle cx="30.6186" cy="56.5005" r="5" transform="rotate(-15 30.6186 56.5005)" fill="#D6FF97"/>
<circle cx="49.9371" cy="51.3241" r="5" transform="rotate(-15 49.9371 51.3241)" fill="#D6FF97"/>
<circle cx="69.2557" cy="46.1477" r="5" transform="rotate(-15 69.2557 46.1477)" fill="#D6FF97"/>
<circle cx="88.5742" cy="40.9713" r="5" transform="rotate(-15 88.5742 40.9713)" fill="#D6FF97"/>
<circle cx="107.893" cy="35.7949" r="5" transform="rotate(-15 107.893 35.7949)" fill="#D6FF97"/>
<circle cx="127.211" cy="30.6187" r="5" transform="rotate(-15 127.211 30.6187)" fill="#D6FF97"/>
<circle cx="146.53" cy="25.4423" r="5" transform="rotate(-15 146.53 25.4423)" fill="#D6FF97"/>
<circle cx="16.4765" cy="80.9955" r="5" transform="rotate(-15 16.4765 80.9955)" fill="#D6FF97"/>
<circle cx="35.795" cy="75.8191" r="5" transform="rotate(-15 35.795 75.8191)" fill="#D6FF97"/>
<circle cx="55.1135" cy="70.6427" r="5" transform="rotate(-15 55.1135 70.6427)" fill="#D6FF97"/>
<circle cx="74.432" cy="65.4663" r="5" transform="rotate(-15 74.432 65.4663)" fill="#D6FF97"/>
<circle cx="93.7506" cy="60.2899" r="5" transform="rotate(-15 93.7506 60.2899)" fill="#D6FF97"/>
<circle cx="113.069" cy="55.1135" r="5" transform="rotate(-15 113.069 55.1135)" fill="#D6FF97"/>
<circle cx="132.388" cy="49.9373" r="5" transform="rotate(-15 132.388 49.9373)" fill="#D6FF97"/>
<circle cx="151.706" cy="44.7609" r="5" transform="rotate(-15 151.706 44.7609)" fill="#D6FF97"/>
<circle cx="21.6529" cy="100.314" r="5" transform="rotate(-15 21.6529 100.314)" fill="#D6FF97"/>
<circle cx="40.9714" cy="95.1376" r="5" transform="rotate(-15 40.9714 95.1376)" fill="#D6FF97"/>
<circle cx="60.2899" cy="89.9612" r="5" transform="rotate(-15 60.2899 89.9612)" fill="#D6FF97"/>
<circle cx="79.6084" cy="84.7848" r="5" transform="rotate(-15 79.6084 84.7848)" fill="#D6FF97"/>
<circle cx="98.9269" cy="79.6084" r="5" transform="rotate(-15 98.9269 79.6084)" fill="#D6FF97"/>
<circle cx="118.245" cy="74.432" r="5" transform="rotate(-15 118.245 74.432)" fill="#D6FF97"/>
<circle cx="137.564" cy="69.2557" r="5" transform="rotate(-15 137.564 69.2557)" fill="#D6FF97"/>
<circle cx="156.882" cy="64.0794" r="5" transform="rotate(-15 156.882 64.0794)" fill="#D6FF97"/>
<circle cx="26.8292" cy="119.632" r="5" transform="rotate(-15 26.8292 119.632)" fill="#D6FF97"/>
<circle cx="46.1478" cy="114.456" r="5" transform="rotate(-15 46.1478 114.456)" fill="#D6FF97"/>
<circle cx="65.4663" cy="109.28" r="5" transform="rotate(-15 65.4663 109.28)" fill="#D6FF97"/>
<circle cx="84.7848" cy="104.103" r="5" transform="rotate(-15 84.7848 104.103)" fill="#D6FF97"/>
<circle cx="104.103" cy="98.9269" r="5" transform="rotate(-15 104.103 98.9269)" fill="#D6FF97"/>
<circle cx="123.422" cy="93.7505" r="5" transform="rotate(-15 123.422 93.7505)" fill="#D6FF97"/>
<circle cx="142.74" cy="88.5742" r="5" transform="rotate(-15 142.74 88.5742)" fill="#D6FF97"/>
<circle cx="162.059" cy="83.3978" r="5" transform="rotate(-15 162.059 83.3978)" fill="#D6FF97"/>
<circle cx="32.0056" cy="138.951" r="5" transform="rotate(-15 32.0056 138.951)" fill="#D6FF97"/>
<circle cx="51.3241" cy="133.775" r="5" transform="rotate(-15 51.3241 133.775)" fill="#D6FF97"/>
<circle cx="70.6427" cy="128.598" r="5" transform="rotate(-15 70.6427 128.598)" fill="#D6FF97"/>
<circle cx="89.9612" cy="123.422" r="5" transform="rotate(-15 89.9612 123.422)" fill="#D6FF97"/>
<circle cx="109.28" cy="118.245" r="5" transform="rotate(-15 109.28 118.245)" fill="#D6FF97"/>
<circle cx="128.598" cy="113.069" r="5" transform="rotate(-15 128.598 113.069)" fill="#D6FF97"/>
<circle cx="147.917" cy="107.893" r="5" transform="rotate(-15 147.917 107.893)" fill="#D6FF97"/>
<circle cx="167.235" cy="102.716" r="5" transform="rotate(-15 167.235 102.716)" fill="#D6FF97"/>
<circle cx="37.182" cy="158.27" r="5" transform="rotate(-15 37.182 158.27)" fill="#D6FF97"/>
<circle cx="56.5005" cy="153.093" r="5" transform="rotate(-15 56.5005 153.093)" fill="#D6FF97"/>
<circle cx="75.8191" cy="147.917" r="5" transform="rotate(-15 75.8191 147.917)" fill="#D6FF97"/>
<circle cx="95.1376" cy="142.74" r="5" transform="rotate(-15 95.1376 142.74)" fill="#D6FF97"/>
<circle cx="114.456" cy="137.564" r="5" transform="rotate(-15 114.456 137.564)" fill="#D6FF97"/>
<circle cx="133.775" cy="132.388" r="5" transform="rotate(-15 133.775 132.388)" fill="#D6FF97"/>
<circle cx="153.093" cy="127.211" r="5" transform="rotate(-15 153.093 127.211)" fill="#D6FF97"/>
<circle cx="172.412" cy="122.035" r="5" transform="rotate(-15 172.412 122.035)" fill="#D6FF97"/>
<circle cx="42.3584" cy="177.588" r="5" transform="rotate(-15 42.3584 177.588)" fill="#D6FF97"/>
<circle cx="61.6769" cy="172.412" r="5" transform="rotate(-15 61.6769 172.412)" fill="#D6FF97"/>
<circle cx="80.9954" cy="167.235" r="5" transform="rotate(-15 80.9954 167.235)" fill="#D6FF97"/>
<circle cx="100.314" cy="162.059" r="5" transform="rotate(-15 100.314 162.059)" fill="#D6FF97"/>
<circle cx="119.632" cy="156.882" r="5" transform="rotate(-15 119.632 156.882)" fill="#D6FF97"/>
<circle cx="138.951" cy="151.706" r="5" transform="rotate(-15 138.951 151.706)" fill="#D6FF97"/>
<circle cx="158.269" cy="146.53" r="5" transform="rotate(-15 158.269 146.53)" fill="#D6FF97"/>
<circle cx="177.588" cy="141.353" r="5" transform="rotate(-15 177.588 141.353)" fill="#D6FF97"/>
</svg>
