<svg width="170" height="198" viewBox="0 0 170 198" fill="none" xmlns="http://www.w3.org/2000/svg">
<circle cx="6.12372" cy="37.182" r="5" transform="rotate(-15 6.12372 37.182)" fill="#2778F1" fill-opacity="0.25"/>
<circle cx="25.4422" cy="32.0057" r="5" transform="rotate(-15 25.4422 32.0057)" fill="#2778F1" fill-opacity="0.25"/>
<circle cx="44.7608" cy="26.8295" r="5" transform="rotate(-15 44.7608 26.8295)" fill="#2778F1" fill-opacity="0.25"/>
<circle cx="64.0793" cy="21.6527" r="5" transform="rotate(-15 64.0793 21.6527)" fill="#2778F1" fill-opacity="0.25"/>
<circle cx="83.3978" cy="16.4765" r="5" transform="rotate(-15 83.3978 16.4765)" fill="#2778F1" fill-opacity="0.25"/>
<circle cx="102.716" cy="11.3002" r="5" transform="rotate(-15 102.716 11.3002)" fill="#2778F1" fill-opacity="0.25"/>
<circle cx="122.035" cy="6.12391" r="5" transform="rotate(-15 122.035 6.12391)" fill="#2778F1" fill-opacity="0.25"/>
<circle cx="11.3001" cy="56.5004" r="5" transform="rotate(-15 11.3001 56.5004)" fill="#2778F1" fill-opacity="0.25"/>
<circle cx="30.6186" cy="51.3241" r="5" transform="rotate(-15 30.6186 51.3241)" fill="#2778F1" fill-opacity="0.25"/>
<circle cx="49.9371" cy="46.1478" r="5" transform="rotate(-15 49.9371 46.1478)" fill="#2778F1" fill-opacity="0.25"/>
<circle cx="69.2557" cy="40.9711" r="5" transform="rotate(-15 69.2557 40.9711)" fill="#2778F1" fill-opacity="0.25"/>
<circle cx="88.5742" cy="35.7948" r="5" transform="rotate(-15 88.5742 35.7948)" fill="#2778F1" fill-opacity="0.25"/>
<circle cx="107.893" cy="30.6185" r="5" transform="rotate(-15 107.893 30.6185)" fill="#2778F1" fill-opacity="0.25"/>
<circle cx="127.211" cy="25.4423" r="5" transform="rotate(-15 127.211 25.4423)" fill="#2778F1" fill-opacity="0.25"/>
<circle cx="16.4765" cy="75.8192" r="5" transform="rotate(-15 16.4765 75.8192)" fill="#2778F1" fill-opacity="0.25"/>
<circle cx="35.795" cy="70.643" r="5" transform="rotate(-15 35.795 70.643)" fill="#2778F1" fill-opacity="0.25"/>
<circle cx="55.1135" cy="65.4667" r="5" transform="rotate(-15 55.1135 65.4667)" fill="#2778F1" fill-opacity="0.25"/>
<circle cx="74.432" cy="60.2899" r="5" transform="rotate(-15 74.432 60.2899)" fill="#2778F1" fill-opacity="0.25"/>
<circle cx="93.7506" cy="55.1137" r="5" transform="rotate(-15 93.7506 55.1137)" fill="#2778F1" fill-opacity="0.25"/>
<circle cx="113.069" cy="49.9374" r="5" transform="rotate(-15 113.069 49.9374)" fill="#2778F1" fill-opacity="0.25"/>
<circle cx="132.388" cy="44.7611" r="5" transform="rotate(-15 132.388 44.7611)" fill="#2778F1" fill-opacity="0.25"/>
<circle cx="21.6529" cy="95.1376" r="5" transform="rotate(-15 21.6529 95.1376)" fill="#2778F1" fill-opacity="0.25"/>
<circle cx="40.9714" cy="89.9613" r="5" transform="rotate(-15 40.9714 89.9613)" fill="#2778F1" fill-opacity="0.25"/>
<circle cx="60.2899" cy="84.785" r="5" transform="rotate(-15 60.2899 84.785)" fill="#2778F1" fill-opacity="0.25"/>
<circle cx="79.6084" cy="79.6083" r="5" transform="rotate(-15 79.6084 79.6083)" fill="#2778F1" fill-opacity="0.25"/>
<circle cx="98.9269" cy="74.432" r="5" transform="rotate(-15 98.9269 74.432)" fill="#2778F1" fill-opacity="0.25"/>
<circle cx="118.245" cy="69.2557" r="5" transform="rotate(-15 118.245 69.2557)" fill="#2778F1" fill-opacity="0.25"/>
<circle cx="137.564" cy="64.0795" r="5" transform="rotate(-15 137.564 64.0795)" fill="#2778F1" fill-opacity="0.25"/>
<circle cx="26.8292" cy="114.456" r="5" transform="rotate(-15 26.8292 114.456)" fill="#2778F1" fill-opacity="0.25"/>
<circle cx="46.1478" cy="109.28" r="5" transform="rotate(-15 46.1478 109.28)" fill="#2778F1" fill-opacity="0.25"/>
<circle cx="65.4663" cy="104.103" r="5" transform="rotate(-15 65.4663 104.103)" fill="#2778F1" fill-opacity="0.25"/>
<circle cx="84.7848" cy="98.9266" r="5" transform="rotate(-15 84.7848 98.9266)" fill="#2778F1" fill-opacity="0.25"/>
<circle cx="104.103" cy="93.7504" r="5" transform="rotate(-15 104.103 93.7504)" fill="#2778F1" fill-opacity="0.25"/>
<circle cx="123.422" cy="88.5741" r="5" transform="rotate(-15 123.422 88.5741)" fill="#2778F1" fill-opacity="0.25"/>
<circle cx="142.74" cy="83.3978" r="5" transform="rotate(-15 142.74 83.3978)" fill="#2778F1" fill-opacity="0.25"/>
<circle cx="32.0056" cy="133.775" r="5" transform="rotate(-15 32.0056 133.775)" fill="#2778F1" fill-opacity="0.25"/>
<circle cx="51.3241" cy="128.599" r="5" transform="rotate(-15 51.3241 128.599)" fill="#2778F1" fill-opacity="0.25"/>
<circle cx="70.6427" cy="123.422" r="5" transform="rotate(-15 70.6427 123.422)" fill="#2778F1" fill-opacity="0.25"/>
<circle cx="89.9612" cy="118.245" r="5" transform="rotate(-15 89.9612 118.245)" fill="#2778F1" fill-opacity="0.25"/>
<circle cx="109.28" cy="113.069" r="5" transform="rotate(-15 109.28 113.069)" fill="#2778F1" fill-opacity="0.25"/>
<circle cx="128.598" cy="107.893" r="5" transform="rotate(-15 128.598 107.893)" fill="#2778F1" fill-opacity="0.25"/>
<circle cx="147.917" cy="102.717" r="5" transform="rotate(-15 147.917 102.717)" fill="#2778F1" fill-opacity="0.25"/>
<circle cx="37.182" cy="153.093" r="5" transform="rotate(-15 37.182 153.093)" fill="#2778F1" fill-opacity="0.25"/>
<circle cx="56.5005" cy="147.917" r="5" transform="rotate(-15 56.5005 147.917)" fill="#2778F1" fill-opacity="0.25"/>
<circle cx="75.819" cy="142.741" r="5" transform="rotate(-15 75.819 142.741)" fill="#2778F1" fill-opacity="0.25"/>
<circle cx="95.1376" cy="137.564" r="5" transform="rotate(-15 95.1376 137.564)" fill="#2778F1" fill-opacity="0.25"/>
<circle cx="114.456" cy="132.388" r="5" transform="rotate(-15 114.456 132.388)" fill="#2778F1" fill-opacity="0.25"/>
<circle cx="133.775" cy="127.211" r="5" transform="rotate(-15 133.775 127.211)" fill="#2778F1" fill-opacity="0.25"/>
<circle cx="153.093" cy="122.035" r="5" transform="rotate(-15 153.093 122.035)" fill="#2778F1" fill-opacity="0.25"/>
<circle cx="42.3584" cy="172.412" r="5" transform="rotate(-15 42.3584 172.412)" fill="#2778F1" fill-opacity="0.25"/>
<circle cx="61.6769" cy="167.235" r="5" transform="rotate(-15 61.6769 167.235)" fill="#2778F1" fill-opacity="0.25"/>
<circle cx="80.9954" cy="162.059" r="5" transform="rotate(-15 80.9954 162.059)" fill="#2778F1" fill-opacity="0.25"/>
<circle cx="100.314" cy="156.882" r="5" transform="rotate(-15 100.314 156.882)" fill="#2778F1" fill-opacity="0.25"/>
<circle cx="119.632" cy="151.706" r="5" transform="rotate(-15 119.632 151.706)" fill="#2778F1" fill-opacity="0.25"/>
<circle cx="138.951" cy="146.53" r="5" transform="rotate(-15 138.951 146.53)" fill="#2778F1" fill-opacity="0.25"/>
<circle cx="158.269" cy="141.353" r="5" transform="rotate(-15 158.269 141.353)" fill="#2778F1" fill-opacity="0.25"/>
<circle cx="47.5348" cy="191.73" r="5" transform="rotate(-15 47.5348 191.73)" fill="#2778F1" fill-opacity="0.25"/>
<circle cx="66.8533" cy="186.554" r="5" transform="rotate(-15 66.8533 186.554)" fill="#2778F1" fill-opacity="0.25"/>
<circle cx="86.1718" cy="181.378" r="5" transform="rotate(-15 86.1718 181.378)" fill="#2778F1" fill-opacity="0.25"/>
<circle cx="105.49" cy="176.201" r="5" transform="rotate(-15 105.49 176.201)" fill="#2778F1" fill-opacity="0.25"/>
<circle cx="124.809" cy="171.025" r="5" transform="rotate(-15 124.809 171.025)" fill="#2778F1" fill-opacity="0.25"/>
<circle cx="144.127" cy="165.849" r="5" transform="rotate(-15 144.127 165.849)" fill="#2778F1" fill-opacity="0.25"/>
<circle cx="163.446" cy="160.672" r="5" transform="rotate(-15 163.446 160.672)" fill="#2778F1" fill-opacity="0.25"/>
</svg>
