<svg width="49" height="44" fill="none" xmlns="http://www.w3.org/2000/svg"><circle cx="24" cy="20" r="19" fill="url(#paint0_radial)" stroke="#fff" stroke-width="2"/><g filter="url(#filter0_d)" fill="#fff"><path d="M19.315 23.968a3.007 3.007 0 0 1-.204-1.256c.043-.815.238-1.588.685-2.28a3.243 3.243 0 0 1 2.089-1.447c.252-.056.514-.095.771-.09.348.005.654.135.842.458.139.24.177.503.152.774-.079.85-.594 1.418-1.243 1.893a3.66 3.66 0 0 1-1.054.526c-.104.033-.159.08-.142.186.027.16.043.326.099.477.056.153.178.236.363.241.362.011.688-.098 1.006-.25.5-.238.853-.637 1.178-1.068.115-.152.1-.339.118-.513.065-.605.119-1.212.176-1.818.033-.348.072-.695.094-1.043.008-.125.044-.191.17-.217.582-.117 1.163-.239 1.745-.357.035-.008.072-.001.136-.001-.011.155-.02.3-.034.444-.026.273-.055.546-.083.82-.074.724-.151 1.447-.222 2.171a6.63 6.63 0 0 0-.03.58c-.002.206.099.27.305.218.383-.097.623-.366.817-.683.252-.408.426-.85.513-1.322.066-.358.115-.718.166-1.078.012-.086.002-.176.002-.284-.079.009-.139.003-.189.022-.413.159-.852-.348-.726-.788.07-.248.242-.405.471-.5.221-.094.45-.156.693-.104.387.083.569.362.646.717.164.756.1 1.506-.067 2.255-.15.675-.398 1.305-.809 1.866-.545.745-1.27 1.187-2.183 1.339a1.87 1.87 0 0 1-.902-.064 1.033 1.033 0 0 1-.603-.53l-.081-.157c-.08.087-.152.158-.215.236-.359.44-.818.746-1.305 1.03-.731.427-1.54.6-2.35.776-.442.096-.888.177-1.336.244-.36.053-.723.092-1.086.103-.247.007-.405.084-.55.294-.324.47-.673.926-1.034 1.37-.43.528-.965.923-1.6 1.178-2.245.936-4.767.203-4.397-2.084.317-1.321 1.152-2.17 2.413-2.614.791-.279 1.613-.33 2.444-.253.06.005.119.008.178.01.26.009.275-.003.293-.266.008-.119.005-.238.001-.357-.01-.312-.024-.624-.037-.936-.03-.788-.058-1.576-.095-2.364-.013-.281-.045-.563-.075-.843-.02-.186-.027-.187-.223-.188-.305-.002-.612.017-.915-.007-.694-.056-1.273-.323-1.575-.995-.208-.462-.155-.928.064-1.379.016-.033.04-.063.063-.092.16-.207.35-.25.56-.099.194.138.368.302.553.451.262.21.546.36.897.333.268-.02.343-.074.38-.335.068-.47.115-.945.193-1.413.154-.926.403-1.818 1.04-2.547.458-.525 1.03-.864 1.727-.923.59-.05 1.086.193 1.43.67.652.902.707 1.866.229 2.864-.218.454-.557.824-.861 1.217-.278.36-.57.707-.842 1.07-.16.213-.303.449-.323.723-.015.198.006.4.024.598.053.562.105 1.124.17 1.685.054.45.103.901.079 1.356-.023.408-.046.816-.076 1.223-.024.319-.057.636-.087.954-.007.077.014.131.1.143.044.007.087.029.13.03h1.35zm-4.19 1.29c-.492-.103-.979-.159-1.467-.096-.231.03-.456.12-.68.195-.14.047-.271.12-.408.178-.331.14-.559.392-.718.702-.216.421.026.876.49.967.476.093.921-.004 1.332-.232.659-.365 1.111-.926 1.428-1.601.015-.031.015-.07.023-.113zm2.232-9.958c.119-.157.225-.289.323-.426.27-.377.509-.77.633-1.222.074-.264.073-.528-.055-.78-.085-.168-.208-.204-.364-.096a.56.56 0 0 0-.167.175c-.073.129-.15.262-.185.403-.083.338-.159.68-.206 1.024-.04.292-.093.59.021.922zm3.87 6.44c.018.009.025.015.03.014.022-.004.045-.006.065-.015.432-.204.75-.527.962-.95.14-.28.175-.582.105-.889-.036-.156-.096-.18-.241-.118a.835.835 0 0 0-.359.322c-.334.497-.466 1.061-.561 1.637zM34.536 16.466v.255c.054-.035.096-.056.131-.085a2.241 2.241 0 0 1 1.383-.503c.744-.015 1.215.328 1.293 1.141.049.506-.03 1.01-.104 1.51-.042.287-.101.575-.1.863.002.415.084.528.507.406.151-.044.287-.142.428-.214.133.627-.227 1.277-.835 1.546a2.05 2.05 0 0 1-.91.183c-.657-.023-1.035-.517-1.08-1.046-.036-.43-.01-.86.056-1.29.06-.381.083-.768.11-1.153a.929.929 0 0 0-.044-.307c-.065-.233-.195-.289-.421-.193-.204.086-.326.25-.424.44-.163.312-.184.654-.218.994-.073.716-.147 1.433-.218 2.15-.022.221-.03.444-.05.666-.019.198-.05.227-.236.266-.56.117-1.118.235-1.678.35-.034.008-.072.002-.136.002l.027-.332c-.074.049-.13.08-.179.119-.44.356-.946.567-1.504.62-.637.059-1.197-.217-1.354-.974a2.738 2.738 0 0 1-.006-.997c.072-.454.13-.91.193-1.366.015-.106.05-.174.17-.197.401-.079.8-.17 1.2-.254.216-.045.433-.087.675-.135 0 .101.009.182-.002.26-.068.485-.142.969-.21 1.454a3.72 3.72 0 0 0-.044.51c0 .2.065.25.264.232.301-.029.525-.192.704-.425.168-.22.249-.473.277-.743.061-.576.119-1.153.172-1.73.039-.421.067-.844.102-1.265.006-.074.027-.147.031-.22.006-.114.079-.15.174-.168l1.637-.334c.065-.013.13-.021.22-.036z"/><path d="M28.805 14.456c-.065-.047-.155-.086-.152-.115.01-.089.03-.206.092-.253.077-.06.103-.112.107-.199.003-.074.03-.147.029-.22-.005-.17.077-.25.237-.292.213-.056.421-.133.665-.212l-.07.691.256-.036c.052.219.031.279-.149.342-.103.037-.136.109-.145.201-.023.215-.042.43-.062.644-.014.148-.032.295-.038.444-.008.167.07.214.22.139.134-.068.188-.176.18-.328a1.871 1.871 0 0 1 .278-1.107c.256-.42.65-.627 1.126-.669a.522.522 0 0 1 .544.313c.032.066.062.133.092.197.272-.041.3-.071.324-.308.012-.118.016-.243.06-.35.054-.136.211-.072.319-.112.13-.049.273-.07.412-.088.042-.005.091.04.152.069.104-.053.232-.126.367-.184.171-.073.323-.017.447.109.09.091.102.277.04.4-.064.124-.3.282-.422.246-.097-.03-.177-.115-.28-.186-.195.058-.23.104-.25.322-.041.459-.086.917-.127 1.376-.007.077-.013.158-.103.178-.25.056-.503.105-.785.163l.114-1.31c-.237.029-.244.038-.254.271-.022.503-.229.911-.666 1.168-.38.223-.781.275-1.226.005-.021.034-.046.09-.085.13a1.215 1.215 0 0 1-.521.332c-.37.114-.542.07-.798-.235l-.185.186c-.342.334-.749.5-1.23.475a.584.584 0 0 1-.558-.462c-.04-.188-.084-.379-.022-.573.008-.026.001-.056.001-.085-.173-.016-.163.097-.165.202a1.444 1.444 0 0 1-.284.853c-.312.42-.734.585-1.249.516-.342-.046-.484-.279-.512-.539-.066-.596.066-1.143.539-1.557.28-.246.612-.362.99-.325.214.021.35.146.429.34l.065.163a.541.541 0 0 0 .423-.298c.209-.383.548-.603.973-.674.14-.024.297-.005.436.03.147.038.247.235.24.393a.374.374 0 0 1-.274.344c-.185.058-.268-.008-.266-.2 0-.059-.036-.117-.055-.176-.061.034-.15.052-.178.104a1.619 1.619 0 0 0-.171.409c-.063.26-.118.524-.038.791.042.141.08.172.222.157.371-.04.624-.256.82-.554a.192.192 0 0 0 .028-.084c.032-.303.062-.606.092-.909.003-.029 0-.058 0-.063zm2.054.476c.006.07.005.152.023.23.05.21.2.255.35.096a.958.958 0 0 0 .16-.287c.035-.081.04-.174.067-.258.03-.1.03-.182-.057-.26-.107-.097-.111-.22-.052-.348.016-.033.04-.066.043-.101a.141.141 0 0 0-.034-.096c-.013-.014-.065-.013-.081.002-.076.069-.168.133-.212.22-.126.246-.19.512-.207.802zm-5.445 1.178c0 .066-.014.138.004.2.021.072.057.172.113.193.06.023.154-.021.224-.056a.215.215 0 0 0 .094-.12c.058-.183.108-.368.156-.554.007-.03-.004-.08-.025-.099-.164-.135-.156-.287-.063-.457.014-.026.013-.08-.004-.097-.02-.02-.08-.033-.1-.018-.073.058-.157.117-.2.196-.139.25-.21.522-.199.812z"/><path d="M22.109 14.962c-.409.327-.48.661-.274 1.211-.206.046-.416.094-.593-.033-.171-.123-.195-.325-.15-.527.046-.216.154-.404.309-.558.565-.562 1.244-.87 2.046-.809.54.041.845.323.975.89.158.684.016 1.333-.36 1.918-.22.344-.535.58-.973.578-.102 0-.204-.028-.312-.044-.254.225-.594.18-.921.28-.048-.343.063-.651.073-.965.01-.318.056-.635.086-.953l.094-.988zm.856-.311c.014.041.028.063.026.082-.032.37-.067.74-.101 1.11-.036.376-.076.753-.107 1.13-.015.177.044.218.212.162.196-.067.316-.214.405-.393.104-.21.135-.438.183-.663.077-.36.029-.712-.056-1.06-.062-.257-.265-.422-.516-.412-.258.01-.5.095-.714.254l.668-.21zM31.402 17.897a.837.837 0 0 1-.31.689c-.368.314-.782.46-1.277.31-.448-.134-.791-.636-.556-1.166.296-.666 1.275-.975 1.864-.46.184.16.281.368.28.627z"/></g><defs><filter id="filter0_d" x=".07" y="6.428" width="48.031" height="37.304" filterUnits="userSpaceOnUse" color-interpolation-filters="sRGB"><feFlood flood-opacity="0" result="BackgroundImageFix"/><feColorMatrix in="SourceAlpha" values="0 0 0 0 0 0 0 0 0 0 0 0 0 0 0 0 0 0 127 0"/><feOffset dy="5"/><feGaussianBlur stdDeviation="5"/><feColorMatrix values="0 0 0 0 0.111806 0 0 0 0 0.450991 0 0 0 0 0.670833 0 0 0 0.8 0"/><feBlend in2="BackgroundImageFix" result="effect1_dropShadow"/><feBlend in="SourceGraphic" in2="effect1_dropShadow" result="shape"/></filter><radialGradient id="paint0_radial" cx="0" cy="0" r="1" gradientUnits="userSpaceOnUse" gradientTransform="matrix(20 0 0 20 24 20)"><stop stop-color="#23AAED"/><stop offset=".304" stop-color="#22A6E9"/><stop offset=".633" stop-color="#1D99DD"/><stop offset=".973" stop-color="#1783C9"/><stop offset="1" stop-color="#1681C7"/></radialGradient></defs></svg>