<svg width="49" height="49" fill="none" xmlns="http://www.w3.org/2000/svg"><path fill-rule="evenodd" clip-rule="evenodd" d="M24.5 45.918c11.829 0 21.418-9.589 21.418-21.418 0-11.829-9.589-21.418-21.418-21.418-11.829 0-21.418 9.589-21.418 21.418 0 11.829 9.589 21.418 21.418 21.418zm0 3.082C38.031 49 49 38.031 49 24.5S38.031 0 24.5 0 0 10.969 0 24.5 10.969 49 24.5 49z" fill="#B3C4D0"/><path d="M18.761 29.361a3.685 3.685 0 0 1-.25-1.538c.052-.999.29-1.946.839-2.793.607-.94 1.469-1.53 2.559-1.773.308-.069.63-.116.945-.111.426.007.801.166 1.03.561.171.294.218.616.187.948-.096 1.042-.727 1.737-1.523 2.32a4.486 4.486 0 0 1-1.29.644c-.128.04-.195.099-.174.228.032.196.052.4.12.584.07.187.22.289.445.296.443.013.842-.121 1.233-.307.612-.291 1.044-.78 1.442-1.308.141-.186.122-.415.145-.629.08-.741.146-1.484.216-2.227.04-.426.088-.851.115-1.278.01-.152.054-.234.207-.265.714-.143 1.426-.293 2.14-.438.042-.009.088-.001.166-.001-.015.19-.025.367-.042.544-.032.335-.068.67-.102 1.004-.091.887-.185 1.773-.272 2.66a8.118 8.118 0 0 0-.037.71c-.002.253.122.331.375.267.469-.118.762-.447 1-.835a4.71 4.71 0 0 0 .628-1.62c.08-.438.141-.88.204-1.321.015-.106.002-.215.002-.347-.096.01-.17.003-.231.026-.506.195-1.044-.426-.89-.965.087-.304.296-.496.577-.614.271-.113.552-.19.849-.126.475.102.697.443.791.878.202.926.124 1.846-.081 2.763-.184.827-.488 1.598-.991 2.286-.669.912-1.557 1.454-2.675 1.64a2.292 2.292 0 0 1-1.105-.079c-.335-.109-.575-.338-.738-.649-.03-.055-.058-.11-.1-.192-.097.106-.185.193-.263.288-.44.54-1.002.915-1.598 1.262-.896.524-1.887.735-2.88.951-.54.118-1.088.217-1.636.299-.44.065-.886.113-1.33.126-.303.009-.496.104-.674.36a26.474 26.474 0 0 1-1.266 1.678 4.804 4.804 0 0 1-1.961 1.444c-2.75 1.146-5.839.249-5.387-2.554.39-1.617 1.412-2.658 2.957-3.202.969-.341 1.975-.404 2.994-.31.073.007.146.01.218.013.318.01.337-.003.359-.326.01-.145.006-.292.001-.438-.013-.382-.03-.764-.045-1.146-.038-.965-.072-1.93-.117-2.895-.016-.345-.054-.69-.092-1.034-.025-.227-.032-.228-.273-.23-.373-.002-.75.021-1.121-.008-.85-.068-1.56-.396-1.93-1.219-.254-.566-.189-1.137.08-1.689.02-.04.048-.077.076-.113.197-.253.43-.305.687-.121.237.169.45.37.677.552.32.258.668.44 1.1.408.327-.024.419-.09.465-.41.083-.577.14-1.157.236-1.732.188-1.134.493-2.226 1.273-3.12.562-.643 1.262-1.058 2.117-1.13.722-.061 1.33.236 1.752.82.798 1.105.865 2.287.28 3.51-.267.556-.683 1.009-1.056 1.49-.34.44-.697.866-1.03 1.31-.197.262-.371.55-.397.886-.018.243.008.49.03.733.064.689.128 1.377.21 2.064.064.552.125 1.104.095 1.661-.028.5-.057 1-.093 1.499-.029.39-.07.779-.107 1.168-.009.095.017.16.123.176.054.007.107.035.16.035.536.002 1.073.002 1.652.002zm-5.133 1.58c-.603-.127-1.2-.194-1.797-.117-.284.037-.56.146-.833.239-.172.058-.332.147-.5.218-.405.172-.685.48-.88.86-.264.515.033 1.073.6 1.184.584.114 1.13-.005 1.633-.284.807-.447 1.36-1.134 1.75-1.962.017-.038.017-.084.027-.138zm2.735-12.199c.145-.191.274-.353.395-.522.33-.461.623-.943.776-1.495.09-.324.088-.648-.069-.958-.103-.204-.254-.249-.445-.116a.688.688 0 0 0-.204.214c-.09.158-.185.321-.227.494-.102.414-.195.832-.252 1.254-.049.358-.114.723.026 1.13zm4.74 7.89c.022.01.03.018.038.016.026-.004.054-.007.078-.018.53-.249.919-.645 1.178-1.164a1.59 1.59 0 0 0 .13-1.088c-.044-.191-.118-.221-.296-.145-.19.082-.326.226-.44.395-.408.608-.57 1.3-.687 2.004zM37.407 20.171v.312c.066-.042.117-.069.16-.104a2.745 2.745 0 0 1 1.694-.616c.911-.018 1.488.402 1.584 1.398.06.62-.036 1.236-.127 1.85-.052.35-.125.704-.123 1.056.003.51.103.647.62.498.186-.053.353-.173.525-.262.164.768-.277 1.565-1.023 1.894a2.51 2.51 0 0 1-1.114.224c-.806-.028-1.268-.633-1.323-1.282a6.623 6.623 0 0 1 .069-1.58c.073-.467.1-.94.135-1.413a1.144 1.144 0 0 0-.055-.375c-.08-.285-.238-.354-.516-.237-.25.106-.398.306-.519.539-.199.383-.225.801-.267 1.218-.09.878-.18 1.755-.266 2.633-.027.272-.039.545-.063.817-.022.242-.06.278-.289.326l-2.054.429c-.043.009-.088.001-.167.001l.033-.406c-.09.06-.16.097-.22.146a3.39 3.39 0 0 1-1.843.759c-.779.072-1.466-.266-1.657-1.193a3.352 3.352 0 0 1-.008-1.22c.088-.557.16-1.116.237-1.675.017-.13.06-.212.209-.241.49-.096.978-.208 1.468-.31.265-.056.531-.107.827-.166 0 .124.011.222-.002.317-.083.595-.174 1.188-.257 1.783a4.55 4.55 0 0 0-.054.623c0 .245.08.308.323.285.37-.035.644-.235.863-.52.206-.269.305-.58.34-.911.074-.706.145-1.412.21-2.118.047-.517.082-1.034.125-1.551.007-.09.032-.18.038-.27.007-.139.096-.182.213-.205l2.006-.41c.078-.015.158-.025.268-.043z" fill="#B3C4D0"/><path d="M30.386 17.709c-.08-.058-.19-.106-.187-.14.012-.11.038-.253.114-.311.094-.072.126-.138.13-.244.004-.09.038-.18.036-.27-.006-.208.095-.306.29-.357.262-.069.517-.163.815-.26l-.085.847.313-.044c.064.268.038.341-.182.419-.127.045-.167.133-.179.246-.028.263-.051.525-.076.788-.016.181-.038.362-.046.544-.01.206.085.263.27.17.164-.082.23-.214.22-.401-.03-.487.087-.941.34-1.357.314-.514.797-.767 1.38-.818a.64.64 0 0 1 .667.382l.112.242c.333-.05.368-.087.397-.377.015-.145.02-.298.073-.43.067-.166.26-.087.39-.136.16-.06.336-.086.506-.108.052-.006.112.049.186.085.128-.065.285-.155.45-.226.21-.09.396-.02.547.134.11.111.125.34.049.49-.077.152-.367.345-.516.3-.12-.035-.218-.14-.344-.226-.238.07-.282.127-.306.394-.05.562-.105 1.123-.156 1.685-.008.095-.015.193-.125.218-.308.069-.617.129-.962.2l.139-1.604c-.29.035-.299.046-.311.331-.027.617-.28 1.116-.816 1.431-.464.273-.956.336-1.501.007-.026.041-.056.11-.105.16a1.49 1.49 0 0 1-.638.405c-.454.14-.664.085-.977-.288-.077.077-.151.154-.227.228-.42.41-.917.613-1.507.582a.715.715 0 0 1-.684-.566c-.049-.23-.102-.464-.026-.702.01-.031.001-.068.001-.104-.212-.02-.2.118-.202.247a1.77 1.77 0 0 1-.348 1.045c-.382.515-.9.717-1.53.632-.42-.057-.593-.34-.628-.66-.08-.73.081-1.4.661-1.908.344-.3.75-.443 1.212-.397.263.026.43.179.526.417l.08.198a.663.663 0 0 0 .518-.364c.256-.47.672-.739 1.193-.826.172-.029.363-.006.534.038.179.046.302.286.292.48a.458.458 0 0 1-.334.421c-.228.072-.328-.01-.326-.245 0-.071-.044-.143-.068-.215-.075.041-.182.064-.218.127a1.988 1.988 0 0 0-.21.502c-.077.317-.144.641-.046.97.051.172.098.209.273.19.454-.047.764-.313 1.004-.678.02-.03.03-.067.035-.102l.112-1.114c.004-.035 0-.071 0-.077zm2.516.583c.008.084.006.186.029.282.06.257.245.312.428.117.089-.096.145-.228.197-.352.042-.099.048-.212.08-.316.039-.123.038-.223-.069-.319-.13-.118-.136-.269-.063-.425.019-.04.049-.082.052-.124a.172.172 0 0 0-.042-.118c-.016-.017-.08-.015-.099.003-.093.084-.206.162-.26.269a2.444 2.444 0 0 0-.253.983zm-6.67 1.442c0 .082-.017.17.005.245.026.088.07.211.138.237.073.029.189-.026.274-.068a.264.264 0 0 0 .115-.146c.072-.225.134-.452.192-.68.009-.037-.005-.099-.03-.12-.201-.167-.192-.353-.077-.561.017-.032.016-.098-.006-.119-.025-.025-.098-.04-.121-.022-.09.071-.194.143-.247.24-.169.307-.256.64-.243.994z" fill="#B3C4D0"/><path d="M22.183 18.329c-.5.4-.587.81-.336 1.483-.252.056-.509.115-.726-.04-.21-.15-.238-.399-.184-.645a1.37 1.37 0 0 1 .379-.685c.692-.688 1.524-1.065 2.506-.99.662.05 1.036.396 1.195 1.089.193.838.02 1.633-.44 2.35-.271.422-.657.711-1.193.709-.125 0-.25-.035-.383-.055-.31.276-.726.222-1.128.344-.058-.421.078-.799.09-1.183.012-.39.068-.778.105-1.167l.115-1.21zm1.05-.382c.016.051.034.077.032.101-.04.453-.083.906-.125 1.359-.044.462-.093.923-.131 1.386-.018.216.054.266.26.197.24-.081.387-.262.496-.481.127-.256.165-.536.224-.812.094-.442.035-.872-.068-1.299-.076-.314-.326-.517-.632-.505a1.558 1.558 0 0 0-.876.312l.82-.258zM33.568 21.924c.014.345-.131.63-.38.843-.451.386-.958.565-1.565.382-.549-.166-.97-.78-.68-1.43.362-.815 1.561-1.194 2.283-.563.225.197.344.45.342.768z" fill="#B3C4D0"/></svg>