<svg width="32" height="32" viewBox="0 0 32 32" fill="none" xmlns="http://www.w3.org/2000/svg">
<rect width="32" height="32" rx="3" fill="#43E07C"/>
<path d="M21.3571 6H10.5065C10.2268 6 10 6.25592 10 6.57158V24.9385C10 25.0515 10.0297 25.162 10.0854 25.256C10.141 25.35 10.2201 25.4232 10.3127 25.4665C10.4052 25.5097 10.5071 25.5211 10.6053 25.499C10.7036 25.477 10.7938 25.4225 10.8647 25.3426L15.9319 19.6244L20.999 25.3426C21.0698 25.4225 21.16 25.477 21.2583 25.499C21.3565 25.5211 21.4584 25.5098 21.5509 25.4665C21.6435 25.4233 21.7226 25.35 21.7783 25.256C21.8339 25.162 21.8636 25.0515 21.8636 24.9385V6.57158C21.8636 6.25592 21.6369 6 21.3571 6Z" fill="white"/>
</svg>
