<svg width="47" height="68" fill="none" xmlns="http://www.w3.org/2000/svg"><path d="M28.444 7.638s1.007 3.295-.404 5.713c-1.374 2.348-4.065 3.433-4.665 3.076a.388.388 0 0 1-.047-.034c-.49-.453-1.009-3.295.403-5.712 1.413-2.417 4.712-3.043 4.712-3.043z" fill="url(#paint0_linear)"/><path d="M28.466 17.961s-.774 3.092-3.316 4.328c-2.214 1.078-4.874.842-5.665.372-.117-.07-.193-.145-.22-.22-.215-.593.775-3.092 3.316-4.329 2.54-1.237 5.886-.15 5.886-.15z" fill="url(#paint1_linear)"/><path d="M17.333 11.267s2.498 2.551 2.632 5.457c.134 2.905-1.525 5.247-2.146 5.065a.583.583 0 0 1-.137-.063c-.72-.429-2.37-2.677-2.496-5.394-.133-2.907 2.147-5.066 2.147-5.066z" fill="url(#paint2_linear)"/><path d="M24.098 24.713s-.295 3.244-2.595 4.853c-2.09 1.461-4.87 1.543-5.586 1.118a.395.395 0 0 1-.15-.144c-.3-.572.294-3.243 2.595-4.852 2.301-1.609 5.736-.975 5.736-.975z" fill="url(#paint3_linear)"/><path d="M12.17 19.661s2.782 2.21 3.34 5.1c.558 2.891-.694 5.463-1.318 5.366a.847.847 0 0 1-.289-.121c-.834-.497-2.561-2.437-3.052-4.977-.557-2.892 1.319-5.368 1.319-5.368z" fill="url(#paint4_linear)"/><path d="M21.783 31.166s.52 3.336-1.264 5.485c-1.7 2.045-4.49 2.737-5.122 2.363a.311.311 0 0 1-.08-.066c-.424-.507-.52-3.336 1.265-5.485 1.785-2.15 5.2-2.297 5.2-2.297z" fill="url(#paint5_linear)"/><path d="M9.58 29.302c.899.535 2.958 1.94 3.892 4.042 1.213 2.728.673 5.55.07 5.595-.172.014-.5-.107-.908-.351-1.022-.61-2.55-1.983-3.417-3.932-1.212-2.729-.068-5.597-.068-5.597s.164.084.432.243z" fill="url(#paint6_linear)"/><path d="M20.528 37.621s1.703 3.092.916 5.814c-.784 2.715-3.186 4.386-3.76 4.045l-.004-.003c-.566-.35-1.702-3.091-.916-5.813.787-2.722 3.764-4.043 3.764-4.043z" fill="url(#paint7_linear)"/><path d="M11.928 41.439c.59.35 1.173.789 1.681 1.336 2.057 2.215 2.612 5.116 2.1 5.364-.35.17-1.77-.1-3.293-1.005a9.248 9.248 0 0 1-2.052-1.65c-2.057-2.213-2.101-5.365-2.101-5.365s1.865.25 3.665 1.32z" fill="url(#paint8_linear)"/><path d="M21.902 44.891s2.326 2.267 2.522 4.911c.196 2.645-1.247 4.818-1.814 4.667a.57.57 0 0 1-.142-.064c-.674-.401-2.197-2.397-2.378-4.847-.196-2.645 1.812-4.667 1.812-4.667z" fill="url(#paint9_linear)"/><path d="M16.993 51.177c2.583 1.53 4.053 4.188 3.679 4.59-.376.405-3.11.605-5.712-.924l-.023-.014c-2.584-1.533-3.686-4.596-3.686-4.596s3.11-.603 5.712.926l.03.018z" fill="url(#paint10_linear)"/><path d="M26.67 51.467c.692.606 2.146 2.06 2.606 3.908.613 2.458-.253 4.737-.76 4.688-.15-.014-.413-.172-.729-.448-.76-.666-1.816-2.028-2.249-3.766-.613-2.459.76-4.688.76-4.688s.145.108.372.306z" fill="url(#paint11_linear)"/><path d="M25.64 59.57c1.39.827 2.27 1.799 2.154 2.132-.186.53-2.558 1.67-5.453 1.055-.822-.175-1.582-.515-2.25-.911a11.422 11.422 0 0 1-2.781-2.37s2.558-1.668 5.453-1.053c1.07.227 2.06.662 2.877 1.147z" fill="url(#paint12_linear)"/><defs><linearGradient id="paint0_linear" x1="30.175" y1="9.656" x2="25.547" y2="7.164" gradientUnits="userSpaceOnUse"><stop stop-color="#FFC738"/><stop offset="1" stop-color="#FFAA2C"/></linearGradient><linearGradient id="paint1_linear" x1="28.373" y1="18.745" x2="22.423" y2="15.607" gradientUnits="userSpaceOnUse"><stop stop-color="#FFC738"/><stop offset="1" stop-color="#FFAA2C"/></linearGradient><linearGradient id="paint2_linear" x1="22.241" y1="15.061" x2="16.433" y2="11.99" gradientUnits="userSpaceOnUse"><stop stop-color="#FFC738"/><stop offset="1" stop-color="#FFAA2C"/></linearGradient><linearGradient id="paint3_linear" x1="24.314" y1="25.748" x2="18.991" y2="22.913" gradientUnits="userSpaceOnUse"><stop stop-color="#FFC738"/><stop offset="1" stop-color="#FFAA2C"/></linearGradient><linearGradient id="paint4_linear" x1="18.06" y1="23.971" x2="11.457" y2="20.524" gradientUnits="userSpaceOnUse"><stop stop-color="#FFC738"/><stop offset="1" stop-color="#FFAA2C"/></linearGradient><linearGradient id="paint5_linear" x1="22.849" y1="32.774" x2="18.114" y2="30.229" gradientUnits="userSpaceOnUse"><stop stop-color="#FFC738"/><stop offset="1" stop-color="#FFAA2C"/></linearGradient><linearGradient id="paint6_linear" x1="16.518" y1="34.085" x2="8.424" y2="29.988" gradientUnits="userSpaceOnUse"><stop stop-color="#FFC738"/><stop offset="1" stop-color="#FFAA2C"/></linearGradient><linearGradient id="paint7_linear" x1="23.447" y1="40.327" x2="18.651" y2="37.752" gradientUnits="userSpaceOnUse"><stop stop-color="#FFC738"/><stop offset="1" stop-color="#FFAA2C"/></linearGradient><linearGradient id="paint8_linear" x1="17.528" y1="45.236" x2="7.795" y2="40.568" gradientUnits="userSpaceOnUse"><stop stop-color="#FFC738"/><stop offset="1" stop-color="#FFAA2C"/></linearGradient><linearGradient id="paint9_linear" x1="26.536" y1="48.433" x2="21.129" y2="45.581" gradientUnits="userSpaceOnUse"><stop stop-color="#FFC738"/><stop offset="1" stop-color="#FFAA2C"/></linearGradient><linearGradient id="paint10_linear" x1="21.638" y1="54.354" x2="11.413" y2="49.558" gradientUnits="userSpaceOnUse"><stop stop-color="#FFC738"/><stop offset="1" stop-color="#FFAA2C"/></linearGradient><linearGradient id="paint11_linear" x1="31.707" y1="56.502" x2="25.548" y2="51.83" gradientUnits="userSpaceOnUse"><stop stop-color="#FFC738"/><stop offset="1" stop-color="#FFAA2C"/></linearGradient><linearGradient id="paint12_linear" x1="28.079" y1="61.495" x2="18.526" y2="56.881" gradientUnits="userSpaceOnUse"><stop stop-color="#FFC738"/><stop offset="1" stop-color="#FFAA2C"/></linearGradient></defs></svg>