<svg width="47" height="68" fill="none" xmlns="http://www.w3.org/2000/svg"><path d="M18.265 7.638s-1.008 3.295.404 5.713c1.374 2.348 4.064 3.433 4.665 3.076a.388.388 0 0 0 .047-.034c.49-.453 1.008-3.295-.404-5.712-1.413-2.417-4.712-3.043-4.712-3.043z" fill="url(#paint0_linear)"/><path d="M18.242 17.961s.775 3.092 3.316 4.328c2.215 1.078 4.875.842 5.665.372.117-.07.194-.145.22-.22.216-.593-.774-3.092-3.316-4.329-2.54-1.237-5.885-.15-5.885-.15z" fill="url(#paint1_linear)"/><path d="M29.375 11.267s-2.498 2.551-2.632 5.457c-.134 2.905 1.525 5.247 2.146 5.065a.583.583 0 0 0 .137-.063c.72-.429 2.37-2.677 2.496-5.394.134-2.907-2.147-5.066-2.147-5.066z" fill="url(#paint2_linear)"/><path d="M22.61 24.713s.296 3.244 2.596 4.853c2.09 1.461 4.87 1.543 5.585 1.118a.395.395 0 0 0 .151-.144c.3-.572-.295-3.243-2.596-4.852-2.3-1.609-5.735-.975-5.735-.975z" fill="url(#paint3_linear)"/><path d="M34.539 19.661s-2.783 2.21-3.34 5.1c-.559 2.891.694 5.463 1.318 5.366a.847.847 0 0 0 .288-.121c.835-.497 2.562-2.437 3.052-4.977.558-2.892-1.318-5.368-1.318-5.368z" fill="url(#paint4_linear)"/><path d="M24.926 31.166s-.521 3.336 1.264 5.485c1.7 2.045 4.49 2.737 5.121 2.363a.311.311 0 0 0 .08-.066c.425-.507.521-3.336-1.265-5.485-1.785-2.15-5.2-2.297-5.2-2.297z" fill="url(#paint5_linear)"/><path d="M37.128 29.302c-.898.535-2.957 1.94-3.891 4.042-1.214 2.728-.673 5.55-.07 5.595.172.014.5-.107.908-.351 1.022-.61 2.55-1.983 3.417-3.932 1.212-2.729.068-5.597.068-5.597s-.164.084-.432.243z" fill="url(#paint6_linear)"/><path d="M26.18 37.621s-1.702 3.092-.915 5.814c.784 2.715 3.186 4.386 3.76 4.045l.004-.003c.566-.35 1.702-3.091.916-5.813-.787-2.722-3.765-4.043-3.765-4.043z" fill="url(#paint7_linear)"/><path d="M34.78 41.439c-.59.35-1.173.789-1.68 1.336-2.058 2.215-2.612 5.116-2.101 5.364.35.17 1.771-.1 3.293-1.005a9.25 9.25 0 0 0 2.053-1.65c2.056-2.213 2.1-5.365 2.1-5.365s-1.865.25-3.664 1.32z" fill="url(#paint8_linear)"/><path d="M24.806 44.891s-2.326 2.267-2.521 4.911c-.196 2.645 1.246 4.818 1.813 4.667a.57.57 0 0 0 .143-.064c.673-.401 2.197-2.397 2.378-4.847.195-2.645-1.813-4.667-1.813-4.667z" fill="url(#paint9_linear)"/><path d="M29.715 51.177c-2.582 1.53-4.053 4.188-3.678 4.59.376.405 3.11.605 5.712-.924l.022-.014c2.585-1.533 3.687-4.596 3.687-4.596s-3.11-.603-5.712.926l-.03.018z" fill="url(#paint10_linear)"/><path d="M20.038 51.467c-.691.606-2.146 2.06-2.606 3.908-.612 2.458.253 4.737.761 4.688.149-.014.413-.172.728-.448.761-.666 1.817-2.028 2.25-3.766.612-2.459-.76-4.688-.76-4.688s-.145.108-.373.306z" fill="url(#paint11_linear)"/><path d="M21.069 59.57c-1.391.827-2.271 1.799-2.154 2.132.186.53 2.558 1.67 5.453 1.055.822-.175 1.582-.515 2.25-.911a11.422 11.422 0 0 0 2.78-2.37s-2.557-1.668-5.453-1.053a9.615 9.615 0 0 0-2.876 1.147z" fill="url(#paint12_linear)"/><defs><linearGradient id="paint0_linear" x1="16.534" y1="9.656" x2="21.161" y2="7.164" gradientUnits="userSpaceOnUse"><stop stop-color="#FFC738"/><stop offset="1" stop-color="#FFAA2C"/></linearGradient><linearGradient id="paint1_linear" x1="18.336" y1="18.745" x2="24.285" y2="15.607" gradientUnits="userSpaceOnUse"><stop stop-color="#FFC738"/><stop offset="1" stop-color="#FFAA2C"/></linearGradient><linearGradient id="paint2_linear" x1="24.468" y1="15.061" x2="30.276" y2="11.99" gradientUnits="userSpaceOnUse"><stop stop-color="#FFC738"/><stop offset="1" stop-color="#FFAA2C"/></linearGradient><linearGradient id="paint3_linear" x1="22.395" y1="25.748" x2="27.718" y2="22.913" gradientUnits="userSpaceOnUse"><stop stop-color="#FFC738"/><stop offset="1" stop-color="#FFAA2C"/></linearGradient><linearGradient id="paint4_linear" x1="28.648" y1="23.971" x2="35.252" y2="20.524" gradientUnits="userSpaceOnUse"><stop stop-color="#FFC738"/><stop offset="1" stop-color="#FFAA2C"/></linearGradient><linearGradient id="paint5_linear" x1="23.859" y1="32.774" x2="28.594" y2="30.229" gradientUnits="userSpaceOnUse"><stop stop-color="#FFC738"/><stop offset="1" stop-color="#FFAA2C"/></linearGradient><linearGradient id="paint6_linear" x1="30.19" y1="34.085" x2="38.285" y2="29.988" gradientUnits="userSpaceOnUse"><stop stop-color="#FFC738"/><stop offset="1" stop-color="#FFAA2C"/></linearGradient><linearGradient id="paint7_linear" x1="23.262" y1="40.327" x2="28.058" y2="37.752" gradientUnits="userSpaceOnUse"><stop stop-color="#FFC738"/><stop offset="1" stop-color="#FFAA2C"/></linearGradient><linearGradient id="paint8_linear" x1="29.181" y1="45.236" x2="38.913" y2="40.568" gradientUnits="userSpaceOnUse"><stop stop-color="#FFC738"/><stop offset="1" stop-color="#FFAA2C"/></linearGradient><linearGradient id="paint9_linear" x1="20.172" y1="48.433" x2="25.579" y2="45.581" gradientUnits="userSpaceOnUse"><stop stop-color="#FFC738"/><stop offset="1" stop-color="#FFAA2C"/></linearGradient><linearGradient id="paint10_linear" x1="25.071" y1="54.354" x2="35.295" y2="49.558" gradientUnits="userSpaceOnUse"><stop stop-color="#FFC738"/><stop offset="1" stop-color="#FFAA2C"/></linearGradient><linearGradient id="paint11_linear" x1="15.002" y1="56.502" x2="21.161" y2="51.83" gradientUnits="userSpaceOnUse"><stop stop-color="#FFC738"/><stop offset="1" stop-color="#FFAA2C"/></linearGradient><linearGradient id="paint12_linear" x1="18.63" y1="61.495" x2="28.183" y2="56.881" gradientUnits="userSpaceOnUse"><stop stop-color="#FFC738"/><stop offset="1" stop-color="#FFAA2C"/></linearGradient></defs></svg>