<svg width="950" height="796" fill="none" xmlns="http://www.w3.org/2000/svg"><g filter="url(#filter0_f)"><ellipse rx="337" ry="313.5" transform="matrix(-1 0 0 1 973 363.5)" fill="#246890" fill-opacity=".3"/></g><g filter="url(#filter1_f)"><ellipse rx="164.766" ry="204.663" transform="scale(-1 1) rotate(69.815 -579.91 -166.467)" fill="#246890"/></g><g filter="url(#filter2_f)"><ellipse rx="301.5" ry="249.5" transform="matrix(-1 0 0 1 576.5 769.5)" fill="#0A0E15"/></g><g filter="url(#filter3_f)"><ellipse rx="82" ry="209.5" transform="matrix(0 1 1 0 706.5 810)" fill="#246890"/></g><g filter="url(#filter4_f)"><ellipse rx="76" ry="193.5" transform="matrix(0 1 1 0 393.5 805)" fill="#246890"/></g><defs><filter id="filter0_f" x="436" y="-150" width="1074" height="1027" filterUnits="userSpaceOnUse" color-interpolation-filters="sRGB"><feFlood flood-opacity="0" result="BackgroundImageFix"/><feBlend in="SourceGraphic" in2="BackgroundImageFix" result="shape"/><feGaussianBlur stdDeviation="100" result="effect1_foregroundBlur"/></filter><filter id="filter1_f" x="87.108" y="10" width="897.892" height="850.531" filterUnits="userSpaceOnUse" color-interpolation-filters="sRGB"><feFlood flood-opacity="0" result="BackgroundImageFix"/><feBlend in="SourceGraphic" in2="BackgroundImageFix" result="shape"/><feGaussianBlur stdDeviation="100" result="effect1_foregroundBlur"/></filter><filter id="filter2_f" x="155" y="400" width="843" height="739" filterUnits="userSpaceOnUse" color-interpolation-filters="sRGB"><feFlood flood-opacity="0" result="BackgroundImageFix"/><feBlend in="SourceGraphic" in2="BackgroundImageFix" result="shape"/><feGaussianBlur stdDeviation="60" result="effect1_foregroundBlur"/></filter><filter id="filter3_f" x="297" y="528" width="819" height="564" filterUnits="userSpaceOnUse" color-interpolation-filters="sRGB"><feFlood flood-opacity="0" result="BackgroundImageFix"/><feBlend in="SourceGraphic" in2="BackgroundImageFix" result="shape"/><feGaussianBlur stdDeviation="100" result="effect1_foregroundBlur"/></filter><filter id="filter4_f" x="0" y="529" width="787" height="552" filterUnits="userSpaceOnUse" color-interpolation-filters="sRGB"><feFlood flood-opacity="0" result="BackgroundImageFix"/><feBlend in="SourceGraphic" in2="BackgroundImageFix" result="shape"/><feGaussianBlur stdDeviation="100" result="effect1_foregroundBlur"/></filter></defs></svg>