<svg width="40" height="51" fill="none" xmlns="http://www.w3.org/2000/svg"><path d="M19.7 32.746c-7.4 0-13.4-7.353-13.4-16.373C6.3 7.353 12.3 0 19.7 0s13.4 7.353 13.4 16.373c0 9.02-6 16.373-13.4 16.373zm0-30.687c-6.2 0-11.2 6.373-11.2 14.216 0 7.844 5 14.216 11.2 14.216 6.2 0 11.2-6.372 11.2-14.216 0-7.843-5-14.216-11.2-14.216z" fill="#009BC8"/><path d="M39.4 50.1H0v-.98c0-.49-.3-11.667 10.7-17.256l.2-.098h.6l.4.196c2.3 1.863 5 2.844 7.8 2.844s5.5-.98 7.8-2.844l.3-.196h.8l.2.098c11 5.589 10.7 16.766 10.7 17.256l-.1.98zM2.1 47.943h35.2c-.2-2.647-1.4-9.804-9-14.02-2.6 1.961-5.6 2.942-8.7 2.942-3.1 0-6-.98-8.6-2.942-7.4 4.216-8.7 11.373-8.9 14.02z" fill="#009BC8"/></svg>