<svg width="51" height="42" fill="none" xmlns="http://www.w3.org/2000/svg"><path d="M19.9 33c-2.5 0-4.5 2-4.5 4.5s2 4.5 4.5 4.5 4.5-2 4.5-4.5-2-4.5-4.5-4.5zm2.2 4.5c0 1.3-1 2.3-2.3 2.3-1.3 0-2.3-1-2.3-2.3 0-1.3 1-2.3 2.3-2.3 1.3 0 2.3 1 2.3 2.3zM49.2 5.1h-39L9 .8C8.9.3 8.4 0 7.9 0H1C.7 0 .4.1.3.3c-.3.3-.3.6-.3.9 0 .3.1.6.4.8.2.2.6.2.7.2H7l7.2 27.6c.1.5.6.8 1.1.8h27.9c.3 0 .6-.2.8-.3.2-.2.3-.5.4-.8 0-.3-.1-.6-.3-.8-.1-.1-.4-.3-.8-.3h-27l-1-3.4h29c.5 0 1-.3 1.1-.8L50 6.5c.1-.6-.2-1.2-.8-1.4zm-1.8 2.2l-4 15.4H14.7l-4-15.4h36.7zM39.2 33c-2.5 0-4.5 2-4.5 4.5s2 4.5 4.5 4.5 4.5-2 4.5-4.5-2-4.5-4.5-4.5zm2.3 4.5c0 1.3-1 2.3-2.3 2.3-1.3 0-2.3-1-2.3-2.3 0-1.3 1-2.3 2.3-2.3 1.3 0 2.3 1 2.3 2.3z" fill="#009BC8"/></svg>