<svg width="50" height="50" fill="none" xmlns="http://www.w3.org/2000/svg"><path d="M25 0C11.2 0 0 11.2 0 25s11.2 25 25 25 25-11.2 25-25S38.8 0 25 0zm0 2.2c12.6 0 22.7 10.2 22.7 22.7S37.5 47.6 25 47.6 2.3 37.5 2.3 25C2.3 12.5 12.4 2.2 25 2.2zm-.1 5.1c-.6.1-1 .6-1 1.2v2.3c-4.4.5-7.4 3.7-7.4 7.3 0 2.5 1.1 4.3 2.6 5.5 1.5 1.2 3.5 1.8 5.6 2.4 2 .6 3.7 1.2 4.8 2 1.1.8 1.8 1.8 1.8 3.7 0 2.6-2.2 5.1-6.3 5.1-1.6 0-3.3-.6-4.4-1.5-1.2-.9-1.8-2-1.8-3.1 0-.6-.5-1.1-1.1-1.2-.6 0-1.1.5-1.2 1.1 0 2 1.1 3.7 2.7 4.9 1.3 1 2.9 1.7 4.7 1.9v2.3c0 .6.5 1.1 1.1 1.2.6 0 1.1-.5 1.2-1.1V39c4.4-.5 7.4-3.7 7.4-7.3 0-2.5-1.1-4.3-2.6-5.5-1.6-1.2-3.5-1.8-5.6-2.4-2-.6-3.7-1.2-4.8-2-1.1-.8-1.8-1.8-1.8-3.7 0-2.6 2.2-5.1 6.3-5.1 1.6 0 3.3.6 4.4 1.5 1.2.9 1.8 2 1.8 3.1 0 .6.5 1.1 1.1 1.2.6 0 1.1-.5 1.2-1.1 0-2-1.1-3.7-2.7-4.9-1.3-1-2.9-1.6-4.7-1.8V8.6c0-.6-.5-1.1-1.1-1.2-.1-.1-.2-.1-.2-.1z" fill="#009BC8"/></svg>