<svg width="46" height="46" fill="none" xmlns="http://www.w3.org/2000/svg"><path d="M18.284 3.108c-4.16-4.144-11.003-4.144-15.163 0-4.161 4.144-4.161 10.96 0 15.103 4.16 4.144 11.003 4.144 15.163 0 4.161-4.144 4.161-10.959 0-15.103zm-2.219 2.118c2.96 2.947 2.96 7.736 0 10.775-2.959 2.947-7.767 2.947-10.818 0-2.959-2.947-2.959-7.736.093-10.775 2.958-2.947 7.767-2.947 10.725 0zM42.88 27.79c-4.16-4.144-11.003-4.144-15.163 0-4.161 4.144-4.161 10.959 0 15.103 4.16 4.144 11.003 4.144 15.163 0 4.161-4.144 4.161-10.96 0-15.103zm-2.219 2.21c2.96 2.947 2.96 7.736 0 10.775-2.958 2.947-7.766 2.947-10.818 0-2.959-2.947-2.959-7.736 0-10.775 3.052-3.039 7.86-3.039 10.818 0zm3.514-28.18a1.676 1.676 0 010 2.21L3.86 44.089l-.092.092c-.647.553-1.572.553-2.22-.092-.554-.645-.554-1.566.093-2.21l40.314-40.06c.277-.276.647-.46 1.017-.46.462 0 .925.184 1.202.46z" fill="#009BC8"/></svg>