<svg xmlns="http://www.w3.org/2000/svg" width="87.662" height="78.497" fill="none"><path d="M86.808 65.809a.5.5 0 00.854-.355l-.084-23.349V10.526C87.578 4.713 82.866 0 77.052 0H27.93c-5.813 0-10.526 4.713-10.526 10.526V25h37.993a3 3 0 013 3v24.632h15.235z" clip-rule="evenodd" fill="#2ccaf5" fill-rule="evenodd"/><path d="M0 62.5V41.667a8.333 8.333 0 018.333-8.334h33.334A8.333 8.333 0 0150 41.667V62.5a8.333 8.333 0 01-8.333 8.333H8.816L.955 78.357a.5.5 0 01-.846-.361V63.851A8.393 8.393 0 010 62.5zm16.73-16.167a.5.5 0 01.5-.5h24a.5.5 0 01.5.5V49.5a.5.5 0 01-.5.5h-24a.5.5 0 01-.5-.5zm13 7.834a.5.5 0 00-.5.5v3.166a.5.5 0 00.5.5h11.5a.5.5 0 00.5-.5v-3.166a.5.5 0 00-.5-.5z" clip-rule="evenodd" opacity=".3" fill="#2ccaf5" fill-rule="evenodd"/></svg>