<svg xmlns="http://www.w3.org/2000/svg" width="75" height="91.667" fill="none"><path d="M7.738 0h30.403a1.5 1.5 0 01.969.355L61.969 19.69a1.5 1.5 0 01.531 1.145v54.512c0 7.46-.085 7.986-7.738 7.986H7.738C.085 83.333 0 82.808 0 75.347V7.987C0 .525.085 0 7.738 0zm8.929 46.833a1 1 0 011-1h35.5a1 1 0 011 1v6.334a1 1 0 01-1 1h-35.5a1 1 0 01-1-1zm1 15.667a1 1 0 00-1 1v6.333a1 1 0 001 1H36.5a1 1 0 001-1V63.5a1 1 0 00-1-1z" clip-rule="evenodd" opacity=".3" fill="#2ccaf5" fill-rule="evenodd"/><path d="M16.071 8.333h34.57a1.5 1.5 0 01.969.355l22.859 19.335a1.5 1.5 0 01.53 1.145v54.513c0 7.46-.084 7.986-7.737 7.986h-51.19c-7.653 0-7.739-.526-7.739-7.986V16.319c0-7.46.086-7.986 7.738-7.986zm.596 38.5a1 1 0 011-1h35.5a1 1 0 011 1v6.334a1 1 0 01-1 1h-35.5a1 1 0 01-1-1zm1 15.667a1 1 0 00-1 1v6.333a1 1 0 001 1H36.5a1 1 0 001-1V63.5a1 1 0 00-1-1z" clip-rule="evenodd" fill="#2ccaf5" fill-rule="evenodd"/></svg>