<svg xmlns="http://www.w3.org/2000/svg" width="82.957" height="64.642" fill="none"><path d="M44.993 47.932h-7.029l-.714 2.664C34.542 60.702 24.154 66.7 14.047 63.992 3.94 61.284-2.058 50.895.65 40.79l7.166-26.742C10.524 3.94 20.912-2.058 31.019.65a18.867 18.867 0 0110.46 7.213A18.867 18.867 0 0151.939.65c10.106-2.708 20.495 3.29 23.203 13.397l7.165 26.742c2.708 10.106-3.29 20.495-13.396 23.203-10.107 2.708-20.496-3.29-23.204-13.396zm19.22 8.771c6.279 0 11.368-5.28 11.368-11.795 0-6.514-5.09-11.795-11.367-11.795-6.278 0-11.368 5.281-11.368 11.795 0 6.515 5.09 11.795 11.368 11.795zm-45.469 0c6.278 0 11.368-5.28 11.368-11.795 0-6.514-5.09-11.795-11.368-11.795-6.278 0-11.367 5.281-11.367 11.795 0 6.515 5.09 11.795 11.367 11.795z" clip-rule="evenodd" fill="#2ccaf5" fill-rule="evenodd"/></svg>