<svg xmlns="http://www.w3.org/2000/svg" width="228" height="130"><path fill="#f4d5c4" d="M169 0a2 2 0 1 1 0 4 2 2 0 0 1 0-4zm0 21a2 2 0 1 1 0 4 2 2 0 0 1 0-4zm0 21a2 2 0 1 1 0 4 2 2 0 0 1 0-4zm0 21a2 2 0 1 1 0 4 2 2 0 0 1 0-4zm0 21a2 2 0 1 1 0 4 2 2 0 0 1 0-4zm0 21a2 2 0 1 1 0 4 2 2 0 0 1 0-4zm0 21a2 2 0 1 1 0 4 2 2 0 0 1 0-4zM149 0a2 2 0 1 1 0 4 2 2 0 0 1 0-4zm0 21a2 2 0 1 1 0 4 2 2 0 0 1 0-4zm0 21a2 2 0 1 1 0 4 2 2 0 0 1 0-4zm0 21a2 2 0 1 1 0 4 2 2 0 0 1 0-4zm0 21a2 2 0 1 1 0 4 2 2 0 0 1 0-4zm0 21a2 2 0 1 1 0 4 2 2 0 0 1 0-4zm0 21a2 2 0 1 1 0 4 2 2 0 0 1 0-4zM128 0a2 2 0 1 1 0 4 2 2 0 0 1 0-4zm0 21a2 2 0 1 1 0 4 2 2 0 0 1 0-4zm0 21a2 2 0 1 1 0 4 2 2 0 0 1 0-4zm0 21a2 2 0 1 1 0 4 2 2 0 0 1 0-4zm0 21a2 2 0 1 1 0 4 2 2 0 0 1 0-4zm0 21a2 2 0 1 1 0 4 2 2 0 0 1 0-4zm0 21a2 2 0 1 1 0 4 2 2 0 0 1 0-4zM107 0a2 2 0 1 1 0 4 2 2 0 0 1 0-4zm0 21a2 2 0 1 1 0 4 2 2 0 0 1 0-4zm0 21a2 2 0 1 1 0 4 2 2 0 0 1 0-4zm0 21a2 2 0 1 1 0 4 2 2 0 0 1 0-4zm0 21a2 2 0 1 1 0 4 2 2 0 0 1 0-4zm0 21a2 2 0 1 1 0 4 2 2 0 0 1 0-4zm0 21a2 2 0 1 1 0 4 2 2 0 0 1 0-4zM86 0a2 2 0 1 1 0 4 2 2 0 0 1 0-4zm0 21a2 2 0 1 1 0 4 2 2 0 0 1 0-4zm0 21a2 2 0 1 1 0 4 2 2 0 0 1 0-4zm0 21a2 2 0 1 1 0 4 2 2 0 0 1 0-4zm0 21a2 2 0 1 1 0 4 2 2 0 0 1 0-4zm0 21a2 2 0 1 1 0 4 2 2 0 0 1 0-4zm0 21a2 2 0 1 1 0 4 2 2 0 0 1 0-4zM65 0a2 2 0 1 1 0 4 2 2 0 0 1 0-4zm0 21a2 2 0 1 1 0 4 2 2 0 0 1 0-4zm0 21a2 2 0 1 1 0 4 2 2 0 0 1 0-4zm0 21a2 2 0 1 1 0 4 2 2 0 0 1 0-4zm0 21a2 2 0 1 1 0 4 2 2 0 0 1 0-4zm0 21a2 2 0 1 1 0 4 2 2 0 0 1 0-4zm0 21a2 2 0 1 1 0 4 2 2 0 0 1 0-4zM44 0a2 2 0 1 1 0 4 2 2 0 0 1 0-4zm0 21a2 2 0 1 1 0 4 2 2 0 0 1 0-4zm0 21a2 2 0 1 1 0 4 2 2 0 0 1 0-4zm0 21a2 2 0 1 1 0 4 2 2 0 0 1 0-4zm0 21a2 2 0 1 1 0 4 2 2 0 0 1 0-4zm0 21a2 2 0 1 1 0 4 2 2 0 0 1 0-4zm0 21a2 2 0 1 1 0 4 2 2 0 0 1 0-4zM23 0a2 2 0 1 1 0 4 2 2 0 0 1 0-4zm0 21a2 2 0 1 1 0 4 2 2 0 0 1 0-4zm0 21a2 2 0 1 1 0 4 2 2 0 0 1 0-4zm0 21a2 2 0 1 1 0 4 2 2 0 0 1 0-4zm0 21a2 2 0 1 1 0 4 2 2 0 0 1 0-4zm0 21a2 2 0 1 1 0 4 2 2 0 0 1 0-4zm0 21a2 2 0 1 1 0 4 2 2 0 0 1 0-4zM2 0a2 2 0 1 1 0 4 2 2 0 0 1 0-4zm0 21a2 2 0 1 1 0 4 2 2 0 0 1 0-4zm0 21a2 2 0 1 1 0 4 2 2 0 0 1 0-4zm0 21a2 2 0 1 1 0 4 2 2 0 0 1 0-4zm0 21a2 2 0 1 1 0 4 2 2 0 0 1 0-4zm0 21a2 2 0 1 1 0 4 2 2 0 0 1 0-4zm0 21a2 2 0 1 1 0 4 2 2 0 0 1 0-4zM188 0a2 2 0 1 1 0 4 2 2 0 0 1 0-4zm0 21a2 2 0 1 1 0 4 2 2 0 0 1 0-4zm0 21a2 2 0 1 1 0 4 2 2 0 0 1 0-4zm0 21a2 2 0 1 1 0 4 2 2 0 0 1 0-4zm0 21a2 2 0 1 1-.001 4 2 2 0 0 1 .001-4zm0 21a2 2 0 1 1 0 4 2 2 0 0 1 0-4zm0 21a2 2 0 1 1 0 4 2 2 0 0 1 0-4zM207 0a2 2 0 1 1 0 4 2 2 0 0 1 0-4zm0 21a2 2 0 1 1 0 4 2 2 0 0 1 0-4zm0 21a2 2 0 1 1 0 4 2 2 0 0 1 0-4zm0 21a2 2 0 1 1 0 4 2 2 0 0 1 0-4zm0 21a2 2 0 1 1-.001 4 2 2 0 0 1 .001-4zm0 21a2 2 0 1 1 0 4 2 2 0 0 1 0-4zm0 21a2 2 0 1 1 0 4 2 2 0 0 1 0-4zM226 0a2 2 0 1 1 0 4 2 2 0 0 1 0-4zm0 21a2 2 0 1 1 0 4 2 2 0 0 1 0-4zm0 21a2 2 0 1 1 0 4 2 2 0 0 1 0-4zm0 21a2 2 0 1 1 0 4 2 2 0 0 1 0-4zm0 21a2 2 0 1 1-.001 4 2 2 0 0 1 .001-4zm0 21a2 2 0 1 1 0 4 2 2 0 0 1 0-4zm0 21a2 2 0 1 1 0 4 2 2 0 0 1 0-4z" opacity=".6"/></svg>