<svg xmlns="http://www.w3.org/2000/svg" width="182" height="182"><defs><clipPath id="a"><path fill="#fff" d="M91 19c35.346 0 64 28.654 64 64 0 35.347-28.654 64-64 64-35.346 0-64-28.653-64-64 0-35.346 28.654-64 64-64z"/></clipPath><mask id="c" width="2" height="2" x="-1" y="-1"><path fill="#fff" d="M34 26h114v114H34z"/><path d="M91 26.108c31.42 0 56.892 25.472 56.892 56.892S122.421 139.892 91 139.892c-31.42 0-56.892-25.471-56.892-56.892 0-31.42 25.471-56.892 56.892-56.892z"/></mask><filter id="b" width="210" height="218" x="-14" y="-22" filterUnits="userSpaceOnUse"><feOffset dy="8" in="SourceGraphic" result="FeOffset1053Out"/><feGaussianBlur in="FeOffset1053Out" result="FeGaussianBlur1054Out" stdDeviation="15.2 15.2"/></filter></defs><path fill="none" stroke="#fff" stroke-dasharray="0 4" stroke-linecap="round" stroke-miterlimit="50" stroke-width="4" d="M91 19c35.346 0 64 28.654 64 64 0 35.347-28.654 64-64 64-35.346 0-64-28.653-64-64 0-35.346 28.654-64 64-64z" clip-path="url(&quot;#a&quot;)" opacity=".15"/><g filter="url(#b)"><path fill="none" d="M91 26.108c31.42 0 56.892 25.472 56.892 56.892S122.421 139.892 91 139.892c-31.42 0-56.892-25.471-56.892-56.892 0-31.42 25.471-56.892 56.892-56.892z" mask="url(&quot;#c&quot;)"/><path fill="#31211b" d="M91 26.108c31.42 0 56.892 25.472 56.892 56.892S122.421 139.892 91 139.892c-31.42 0-56.892-25.471-56.892-56.892 0-31.42 25.471-56.892 56.892-56.892z"/></g><path fill="#f46746" d="M91 26.108c31.42 0 56.892 25.472 56.892 56.892S122.421 139.892 91 139.892c-31.42 0-56.892-25.471-56.892-56.892 0-31.42 25.471-56.892 56.892-56.892z"/><g><path fill="#fff" d="M101.012 83.01l-15.013 8v-16z"/></g></svg>