<svg width="69" height="69" fill="none" xmlns="http://www.w3.org/2000/svg"><rect width="69" height="69" rx="8" fill="#CCE3C4"/><path d="M53.11 32.621c-4.867-5.847-20.028-20.444-37.112-.385-1.263 1.484-1.337 3.603-.166 5.156 13.642 18.093 30.733 9.651 37.535-.342.94-1.38.815-3.14-.257-4.429z" fill="#C1FCAC"/><path d="M53.11 32.621c-4.867-5.847-20.028-20.444-37.112-.385-1.263 1.484-1.337 3.603-.166 5.156 13.642 18.093 30.733 9.651 37.535-.342.94-1.38.815-3.14-.257-4.429z" fill="url(#paint0_linear)"/><path d="M32.281 41.963c.18-.02.36-.047.538-.079 7.218-1.284 9.94-8.953 3.716-13.1-7.232-4.816-12.705 14.16-4.254 13.18z" fill="#B9D6AF"/><path d="M43.472 27.202l-3.145.933a8.829 8.829 0 0 0-4.318 2.872l-.643.787c-.123.15-.231.311-.324.482l-.271.497a2.042 2.042 0 0 0 .82 2.772l.517.28c.905.49 1.967.607 2.908.19 1.265-.56 2.674-1.313 2.932-1.573.038-.038.085-.08.138-.125 1.258-1.068 2.355-2.275 3.144-3.725l.4-.758a1.846 1.846 0 0 0-2.158-2.632z" fill="#F7F6F4"/><defs><linearGradient id="paint0_linear" x1="2.5" y1="27.5" x2="45.636" y2="41.435" gradientUnits="userSpaceOnUse"><stop stop-color="#fff"/><stop offset="1" stop-color="#fff" stop-opacity="0"/></linearGradient></defs></svg>