<svg width="69" height="69" fill="none" xmlns="http://www.w3.org/2000/svg"><rect opacity=".7" width="69" height="69" rx="8" fill="#FFE684"/><mask id="a" maskUnits="userSpaceOnUse" x="0" y="0" width="69" height="69"><path fill="#C4C4C4" d="M0 0h69v69H0z"/></mask><g mask="url(#a)"><circle cx="34.5" cy="-9.5" r="16.5" fill="#FC7664"/><circle cx="34.5" cy="-9.5" r="16.5" fill="url(#paint0_linear)"/><circle cx="34.5" cy="80.5" r="16.5" fill="#FC7664"/><circle cx="34.5" cy="80.5" r="16.5" fill="url(#paint1_linear)"/><circle cx="34.5" cy="35.5" r="16.5" fill="#FC7664"/><circle cx="34.5" cy="35.5" r="16.5" fill="url(#paint2_linear)"/><path d="M39.325 13.427l-2.842 1.94a9.71 9.71 0 0 0-3.457 4.216l-.431 1.014c-.077.18-.137.367-.18.558l-.151.66a2.016 2.016 0 0 0 1.578 2.426l.586.115c.994.195 2.027-.012 2.79-.68 1.106-.968 2.33-2.21 2.517-2.557a2.57 2.57 0 0 1 .105-.175c.945-1.454 1.69-3 2.075-4.691l.204-.948a1.813 1.813 0 0 0-2.794-1.878z" fill="#94CB81"/><path d="M39.325 13.427l-2.842 1.94a9.71 9.71 0 0 0-3.457 4.216l-.431 1.014c-.077.18-.137.367-.18.558l-.151.66a2.016 2.016 0 0 0 1.578 2.426l.586.115c.994.195 2.027-.012 2.79-.68 1.106-.968 2.33-2.21 2.517-2.557a2.57 2.57 0 0 1 .105-.175c.945-1.454 1.69-3 2.075-4.691l.204-.948a1.813 1.813 0 0 0-2.794-1.878z" fill="url(#paint3_linear)"/></g><defs><linearGradient id="paint0_linear" x1="14" y1="-26" x2="34" y2="-9" gradientUnits="userSpaceOnUse"><stop stop-color="#fff"/><stop offset="1" stop-color="#fff" stop-opacity="0"/></linearGradient><linearGradient id="paint1_linear" x1="14" y1="64" x2="34" y2="81" gradientUnits="userSpaceOnUse"><stop stop-color="#fff"/><stop offset="1" stop-color="#fff" stop-opacity="0"/></linearGradient><linearGradient id="paint2_linear" x1="14" y1="19" x2="34" y2="36" gradientUnits="userSpaceOnUse"><stop stop-color="#fff"/><stop offset="1" stop-color="#fff" stop-opacity="0"/></linearGradient><linearGradient id="paint3_linear" x1="27.634" y1="11.848" x2="36.603" y2="23.34" gradientUnits="userSpaceOnUse"><stop stop-color="#fff"/><stop offset="1" stop-color="#fff" stop-opacity="0"/></linearGradient></defs></svg>