<svg width="69" height="69" fill="none" xmlns="http://www.w3.org/2000/svg"><rect opacity=".7" width="69" height="69" rx="8" fill="#FFC7BF"/><path d="M45.322 42.51c-4.037 3.615-6.78 1.835-14.088 8.39-5.928 5.31-13.92-10.007-16.737-16.003-1.227-2.616-1.75-5.46-1.38-8.275.3-2.316 1.213-4.884 3.46-6.898 4.565-4.096 7.261.03 12.049 2.838 6.055 3.555 11.64-5.999 17.93-.358 6.29 5.648 2.796 16.686-1.234 20.306z" fill="#FE5E5E"/><path d="M45.322 42.51c-4.037 3.615-6.78 1.835-14.088 8.39-5.928 5.31-13.92-10.007-16.737-16.003-1.227-2.616-1.75-5.46-1.38-8.275.3-2.316 1.213-4.884 3.46-6.898 4.565-4.096 7.261.03 12.049 2.838 6.055 3.555 11.64-5.999 17.93-.358 6.29 5.648 2.796 16.686-1.234 20.306z" fill="url(#paint0_linear)"/><path d="M50.543 24.255l-3.394.564a9.685 9.685 0 0 0-4.91 2.37l-.818.738a3.297 3.297 0 0 0-.399.43l-.414.536a2.016 2.016 0 0 0 .41 2.864l.484.351c.82.596 1.844.843 2.817.558 1.41-.413 3.043-1.024 3.36-1.261.047-.036.104-.074.168-.114 1.47-.922 2.796-2.01 3.857-3.383l.584-.774a1.812 1.812 0 0 0-1.745-2.88z" fill="#FFE2E2"/><defs><linearGradient id="paint0_linear" x1="-2.341" y1="27.842" x2="33.705" y2="38.749" gradientUnits="userSpaceOnUse"><stop stop-color="#fff"/><stop offset="1" stop-color="#fff" stop-opacity="0"/></linearGradient></defs></svg>