<svg width="69" height="69" fill="none" xmlns="http://www.w3.org/2000/svg"><rect opacity=".7" width="69" height="69" rx="8" fill="#FFCC80"/><path d="M31.683 19.637c1.243-2.183 4.391-2.183 5.634 0L49.571 41.16C50.801 43.32 49.24 46 46.754 46H22.246c-2.486 0-4.047-2.681-2.817-4.84l12.254-21.523z" fill="#ABD59C"/><path d="M31.683 19.637c1.243-2.183 4.391-2.183 5.634 0L49.571 41.16C50.801 43.32 49.24 46 46.754 46H22.246c-2.486 0-4.047-2.681-2.817-4.84l12.254-21.523z" fill="url(#paint0_linear)"/><path d="M31.683 19.637c1.243-2.183 4.391-2.183 5.634 0L49.571 41.16C50.801 43.32 49.24 46 46.754 46H22.246c-2.486 0-4.047-2.681-2.817-4.84l12.254-21.523z" fill="#FE5E5E"/><path d="M31.683 19.637c1.243-2.183 4.391-2.183 5.634 0L49.571 41.16C50.801 43.32 49.24 46 46.754 46H22.246c-2.486 0-4.047-2.681-2.817-4.84l12.254-21.523z" fill="url(#paint1_linear)"/><path d="M32.955 38.877c.682-1.17 2.408-1.17 3.09 0l6.72 11.53C43.439 51.564 42.583 53 41.22 53H27.78c-1.363 0-2.219-1.437-1.545-2.593l6.72-11.53z" fill="#A7D696"/><path d="M32.955 38.877c.682-1.17 2.408-1.17 3.09 0l6.72 11.53C43.439 51.564 42.583 53 41.22 53H27.78c-1.363 0-2.219-1.437-1.545-2.593l6.72-11.53z" fill="url(#paint2_linear)"/><defs><linearGradient id="paint0_linear" x1="12" y1="19.5" x2="32.204" y2="47.648" gradientUnits="userSpaceOnUse"><stop stop-color="#fff"/><stop offset="1" stop-color="#fff" stop-opacity="0"/></linearGradient><linearGradient id="paint1_linear" x1="6.146" y1="26.105" x2="36.259" y2="35.375" gradientUnits="userSpaceOnUse"><stop stop-color="#fff"/><stop offset="1" stop-color="#fff" stop-opacity="0"/></linearGradient><linearGradient id="paint2_linear" x1="27.5" y1="39.5" x2="35.326" y2="47.291" gradientUnits="userSpaceOnUse"><stop stop-color="#fff"/><stop offset="1" stop-color="#fff" stop-opacity="0"/></linearGradient></defs></svg>