<svg width="69" height="69" fill="none" xmlns="http://www.w3.org/2000/svg"><rect opacity=".7" width="69" height="69" rx="8" fill="#BED2B7"/><g opacity=".9"><path d="M30.432 18.93l-8.537 7.028a18.13 18.13 0 0 0-2.865 2.965 18.016 18.016 0 0 0-3.71 11.699l.063 1.567c.038.947.219 1.882.536 2.776a9.552 9.552 0 0 0 6.071 5.885l1.376.444c1.419.46 2.91.662 4.4.598l2.71-.115c5.863-.25 11.532-2.367 15.132-6.962 2.08-2.654 3.727-5.165 3.828-5.963.005-.04.012-.08.019-.123.89-5.1 1.626-9.984-.108-14.87-1.92-5.102-7.19-8.233-12.632-7.593a12.16 12.16 0 0 0-6.283 2.665z" fill="#E4F4DE"/><path d="M30.432 18.93l-8.537 7.028a18.13 18.13 0 0 0-2.865 2.965 18.016 18.016 0 0 0-3.71 11.699l.063 1.567c.038.947.219 1.882.536 2.776a9.552 9.552 0 0 0 6.071 5.885l1.376.444c1.419.46 2.91.662 4.4.598l2.71-.115c5.863-.25 11.532-2.367 15.132-6.962 2.08-2.654 3.727-5.165 3.828-5.963.005-.04.012-.08.019-.123.89-5.1 1.626-9.984-.108-14.87-1.92-5.102-7.19-8.233-12.632-7.593a12.16 12.16 0 0 0-6.283 2.665z" fill="url(#paint0_linear)"/></g><g opacity=".9"><path d="M34.087 27.922l-5.234 1.483a8.703 8.703 0 0 0-1.844.76 8.605 8.605 0 0 0-3.913 4.56l-.246.67a4.6 4.6 0 0 0-.278 1.383 4.687 4.687 0 0 0 1.653 3.774l.608.516c.56.477 1.2.854 1.889 1.114l1.268.477c2.758 1.038 5.792 1.193 8.36-.203 1.419-.771 2.606-1.554 2.798-1.886l.023-.038c1.343-2.14 2.62-4.178 2.733-6.709.067-2.674-1.692-5.075-4.279-5.84l-.132-.039a6.125 6.125 0 0 0-3.406-.022z" fill="#FAA"/><path d="M34.087 27.922l-5.234 1.483a8.703 8.703 0 0 0-1.844.76 8.605 8.605 0 0 0-3.913 4.56l-.246.67a4.6 4.6 0 0 0-.278 1.383 4.687 4.687 0 0 0 1.653 3.774l.608.516c.56.477 1.2.854 1.889 1.114l1.268.477c2.758 1.038 5.792 1.193 8.36-.203 1.419-.771 2.606-1.554 2.798-1.886l.023-.038c1.343-2.14 2.62-4.178 2.733-6.709.067-2.674-1.692-5.075-4.279-5.84l-.132-.039a6.125 6.125 0 0 0-3.406-.022z" fill="url(#paint1_linear)"/></g><defs><linearGradient id="paint0_linear" x1="5.837" y1="5.532" x2="30.672" y2="52.848" gradientUnits="userSpaceOnUse"><stop stop-color="#fff"/><stop offset="1" stop-color="#fff" stop-opacity="0"/></linearGradient><linearGradient id="paint1_linear" x1="18.858" y1="31.292" x2="32.503" y2="41.729" gradientUnits="userSpaceOnUse"><stop stop-color="#fff"/><stop offset="1" stop-color="#fff" stop-opacity="0"/></linearGradient></defs></svg>