<svg width="31" height="34" fill="none" xmlns="http://www.w3.org/2000/svg"><path d="M28.16 6.53A19.777 19.777 0 0 1 16.89 1.9a1.74 1.74 0 0 0-2.222 0 19.788 19.788 0 0 1-11.27 4.63 1.71 1.71 0 0 0-1.57 1.707v7.458c0 7.521 5.504 14.575 13.04 16.681a3.41 3.41 0 0 0 1.823 0c7.535-2.108 13.038-9.158 13.038-16.68V8.24a1.71 1.71 0 0 0-1.57-1.709z" stroke="#002033" stroke-width="2" stroke-linecap="round" stroke-linejoin="round"/><path d="M21.566 14.144l-7.233 7.144L9.993 17" stroke="#00ABE9" stroke-width="2" stroke-linecap="round" stroke-linejoin="round"/></svg>