<svg width="37" height="36" fill="none" xmlns="http://www.w3.org/2000/svg"><path d="M24.333 6.335c6.444-3.222 9.056-.61 5.834 5.833-3.222 6.444-11.057 14.28-17.5 17.501-6.444 3.222-9.056.61-5.834-5.833 3.222-6.444 11.057-14.28 17.5-17.501" stroke="#002033" stroke-width="2" stroke-linecap="round" stroke-linejoin="round"/><path d="M12.666 6.333c6.444 3.222 14.28 11.057 17.501 17.5 3.222 6.444.61 9.056-5.833 5.834-6.444-3.222-14.28-11.057-17.501-17.5-3.222-6.444-.61-9.056 5.833-5.834" stroke="#00ABE9" stroke-width="2" stroke-linecap="round" stroke-linejoin="round"/><path d="M19.028 18.001a.538.538 0 0 1-.528.547.538.538 0 0 1-.528-.547c0-.302.237-.547.528-.547.292 0 .528.245.528.547z" stroke="#00ABE9" stroke-width="2" stroke-linecap="round" stroke-linejoin="round"/></svg>