<svg width="34" height="34" fill="none" xmlns="http://www.w3.org/2000/svg"><path d="M31.504 6.177a9.63 9.63 0 0 0-10.866-4.316l-1.848.519a5.161 5.161 0 0 1-2.788 0l-1.849-.52A9.633 9.633 0 0 0 3.286 6.178a9.686 9.686 0 0 0-1.38 4.974v.18A44.147 44.147 0 0 0 5.43 28.664l.635 1.492a3.857 3.857 0 0 0 7.13-.087l1.839-4.631a2.543 2.543 0 0 1 2.362-1.61c1.04 0 1.976.637 2.362 1.61l1.838 4.63a3.855 3.855 0 1 0 7.13.085l.636-1.491a44.112 44.112 0 0 0 3.522-17.333v-.18a9.684 9.684 0 0 0-1.38-4.972v0z" stroke="#002033" stroke-width="2" stroke-linecap="round" stroke-linejoin="round"/><path d="M20.63 7.839a11.957 11.957 0 0 1-6.47 0" stroke="#00ABE9" stroke-width="2" stroke-linecap="round" stroke-linejoin="round"/></svg>