<svg width="53" height="35" fill="none" xmlns="http://www.w3.org/2000/svg"><path d="M52.934 16.773l-4.102-6.399a.553.553 0 00-.5-.29H36.323V.97c0-.582-.5-.97-1.001-.97H1C.4 0 0 .485 0 .97v28.116c0 .776.6 1.357 1.4 1.357h7.206c.3 2.521 2.601 4.557 5.203 4.557 2.702 0 4.903-1.94 5.203-4.557h18.612c.3 2.521 2.602 4.557 5.204 4.557 2.701 0 4.903-1.94 5.203-4.557h4.203c.3 0 .6-.29.6-.582V17.064c.2-.097.2-.194.1-.291zM38.925 29.86c0-2.133 1.801-3.878 4.103-3.878 2.301 0 4.002 1.745 4.102 3.878v.098c0 2.132-1.8 3.878-4.102 3.878-2.302 0-4.103-1.746-4.103-3.976zm3.102-18.615h5.904l3.903 5.915v1.357h-8.806c-.6 0-1-.485-1-.97v-6.301zm1 8.435h8.807v9.599H48.23c-.3-2.521-2.602-4.46-5.303-4.46-2.702 0-4.903 1.939-5.204 4.557h-1.3v-18.13h4.502v6.302c-.1 1.163.901 2.132 2.102 2.132zm-7.904-18.42v21.135H1.2V1.163l33.922.097zM17.912 29.958c0 2.132-1.802 3.878-4.003 3.878s-4.003-1.746-4.003-3.879c0-2.132 1.802-3.878 4.003-3.878 2.201-.097 4.003 1.649 4.003 3.879zm17.21-6.4v5.818h-16.01c-.3-2.521-2.601-4.557-5.203-4.557-2.702 0-4.903 1.939-5.203 4.557H1.4c-.1 0-.2-.097-.2-.194V23.56h33.922z" fill="#009BC8"/><path d="M42.928 32.77c1.6 0 2.902-1.26 2.902-2.812 0-1.55-1.301-2.811-2.902-2.811-1.601 0-2.902 1.26-2.902 2.812 0 1.55 1.3 2.811 2.902 2.811zm-1.701-2.812c0-.969.8-1.648 1.7-1.648 1.001 0 1.702.776 1.702 1.649 0 .872-.7 1.648-1.701 1.648-.9 0-1.701-.776-1.701-1.648zM13.909 27.147c-1.601 0-2.802 1.26-2.802 2.715 0 1.55 1.301 2.714 2.802 2.714 1.501 0 2.802-1.26 2.802-2.715 0-1.454-1.301-2.714-2.802-2.714zm1.601 2.812c0 .872-.7 1.55-1.601 1.55-.9 0-1.601-.678-1.601-1.55 0-.873.7-1.552 1.601-1.552.9 0 1.601.679 1.601 1.552zM40.026 22.202c0 .291.3.582.6.582h2.102c.3 0 .6-.29.6-.582 0-.29-.3-.582-.6-.582h-2.102c-.3 0-.6.194-.6.582zM9.806 7.271h16.711c.3 0 .6-.29.6-.581s-.3-.582-.6-.582H9.807c-.3 0-.601.29-.601.582 0 .29.3.581.6.581zM9.806 12.41h16.711c.3 0 .6-.29.6-.582 0-.29-.3-.581-.6-.581H9.807c-.3 0-.601.29-.601.581s.3.582.6.582zM9.806 17.451h16.711c.3 0 .6-.29.6-.581s-.3-.582-.6-.582H9.807c-.3 0-.601.29-.601.582 0 .29.3.581.6.581z" fill="#009BC8"/></svg>