<svg width="45" height="45" fill="none" xmlns="http://www.w3.org/2000/svg"><path d="M42.206 0H2.694A2.686 2.686 0 000 2.7v39.7C0 43.8 1.197 45 2.694 45h39.612C43.803 45 45 43.8 45 42.3V2.7C44.9 1.2 43.703 0 42.206 0zm1.497 10.9v31.5c0 .8-.699 1.5-1.497 1.5H2.694c-.798 0-1.497-.7-1.497-1.5V10.9h42.506zm0-8.2v7H1.197v-7c0-.8.699-1.5 1.497-1.5h39.612c.698 0 1.397.7 1.397 1.5z" fill="#009BC8"/><path d="M24.546 4.9H4.889c-.3 0-.598.3-.598.6s.299.6.598.6h19.657c.299 0 .598-.3.598-.6s-.3-.6-.598-.6zM41.209 4.9h-2.295c-.3 0-.6.3-.6.6s.3.6.6.6h2.294c.3 0 .6-.3.6-.6s-.3-.6-.6-.6zM36.02 4.9h-2.295c-.3 0-.599.3-.599.6s.3.6.6.6h2.294c.3 0 .599-.3.599-.6s-.2-.6-.599-.6zM30.931 4.9h-2.295c-.3 0-.598.3-.598.6s.299.6.598.6h2.295c.3 0 .599-.3.599-.6s-.3-.6-.599-.6zM30.333 35.2c-1.198 0-2.195 1-2.195 2.2 0 1.2.997 2.2 2.195 2.2 1.197 0 2.195-1 2.195-2.2 0-1.2-.998-2.2-2.195-2.2zm.997 2.2c0 .5-.399 1-.997 1a1 1 0 010-2c.598 0 .997.5.997 1zM20.953 35.2c-1.197 0-2.195 1-2.195 2.2 0 1.2.998 2.2 2.195 2.2 1.198 0 2.195-1 2.195-2.2 0-1.2-.997-2.2-2.195-2.2zm0 3.2a1 1 0 010-2 1 1 0 01.998 1c-.1.5-.499 1-.998 1zM11.375 16.7h2.394l2.794 15.2.3 1.4c.2.9.997 1.6 1.895 1.6h14.768c.299 0 .598-.3.598-.6s-.3-.6-.599-.6H18.759c-.399 0-.698-.3-.798-.6l-.1-.7 14.867-2.6c.3 0 .5-.3.5-.5l.797-8.1c0-.2 0-.3-.2-.5-.099-.1-.298-.2-.398-.2h-17.86l-.799-4.5c-.1-.3-.3-.5-.598-.5h-2.894c-.3 0-.599.3-.599.6.1.3.3.6.699.6zm6.186 14.4l-1.696-9.5h16.862l-.698 7-14.468 2.5z" fill="#009BC8"/></svg>