<svg width="45" height="45" fill="none" xmlns="http://www.w3.org/2000/svg"><path d="M43.89 24.5v-8c0-1.5-1.197-2.6-2.593-2.6h-5.088v-6c0-1.1-.898-2-1.995-2h-3.192L27.432.3c0-.2-.1-.3-.3-.3-.2 0-.3 0-.399.1l-8.977 5.8H4.588C2.095 5.9 0 8 0 10.5V41c0 2.2 1.796 4 3.99 4h37.207c1.496 0 2.593-1.2 2.593-2.6v-8c.699-.1 1.197-.6 1.197-1.3V26c.1-.8-.399-1.4-1.097-1.5zM5.386 13.9h-.798a3.368 3.368 0 01-3.391-3.4c0-1.9 1.496-3.4 3.391-3.4H15.96L5.386 13.9zm37.307 10.6h-7.88c-2.694 0-4.888 2.2-4.888 4.9s2.195 4.9 4.888 4.9h7.88v8c0 .8-.698 1.5-1.496 1.5H3.99a2.898 2.898 0 01-2.893-2.9V13.5c.898 1 2.095 1.5 3.392 1.5h36.608c.798 0 1.496.7 1.496 1.5v8h.1zm-11.571 4.9c0-2.1 1.696-3.7 3.69-3.7h8.978c.1 0 .2.1.2.2V33c0 .1-.1.2-.2.2h-8.977c-2.095 0-3.691-1.7-3.691-3.8zM31.82 7h2.394c.4 0 .798.4.798.8V12L31.82 7zm-2.294 6.9H11.172L24.04 5.4c.898.9 2.294 1.2 3.491.8l2.793 4.4c-.499.4-.798 1-.898 1.6-.2.5-.2 1.1.1 1.7zm3.69 0h-2.393c-.3-.4-.4-1-.3-1.5.1-.5.4-1 .898-1.3.3-.2.3-.5.2-.8L28.13 5c-.2-.3-.5-.3-.799-.2-.897.6-2.194.3-2.793-.6 0-.1-.1-.2-.299-.2-.2 0-.299 0-.399.1L9.077 13.9H7.481L26.833 1.4l7.481 11.7-1.097.8z" fill="#009BC8"/><path d="M37.107 29.4c0-1.4-1.097-2.5-2.494-2.5a2.473 2.473 0 00-2.493 2.5c0 1.4 1.097 2.5 2.493 2.5 1.397.1 2.494-1.1 2.494-2.5zm-1.197 0c0 .8-.598 1.4-1.396 1.4-.799 0-1.397-.6-1.397-1.4 0-.8.599-1.4 1.397-1.4.797.1 1.396.7 1.396 1.4zM39.002 18h-1.895c-.3 0-.599.3-.599.6s.3.6.599.6h1.895c.3 0 .599-.3.599-.6s-.3-.6-.599-.6zM33.616 18H31.72c-.3 0-.599.3-.599.6s.3.6.599.6h1.895c.3 0 .598-.3.598-.6s-.299-.6-.598-.6zM28.23 18h-1.896c-.3 0-.599.3-.599.6s.3.6.599.6h1.895c.3 0 .599-.3.599-.6s-.3-.6-.599-.6zM22.843 18h-1.895c-.3 0-.599.3-.599.6s.3.6.599.6h1.895c.299 0 .598-.3.598-.6s-.2-.6-.598-.6zM17.556 18h-1.895c-.3 0-.599.3-.599.6s.3.6.599.6h1.895c.3 0 .598-.3.598-.6s-.299-.6-.598-.6zM12.17 18h-1.896c-.299 0-.598.3-.598.6s.299.6.598.6h1.896c.299 0 .598-.3.598-.6s-.3-.6-.599-.6zM6.783 18H4.888c-.3 0-.599.3-.599.6s.3.6.599.6h1.895c.3 0 .599-.3.599-.6s-.3-.6-.599-.6zM37.107 40.8h1.895c.3 0 .599-.3.599-.6s-.3-.6-.599-.6h-1.895c-.3 0-.599.3-.599.6s.3.6.599.6zM31.72 40.8h1.896c.3 0 .598-.3.598-.6s-.299-.6-.598-.6H31.72c-.3 0-.599.3-.599.6s.3.6.599.6zM28.23 39.7h-1.896c-.3 0-.599.3-.599.6s.3.6.599.6h1.895c.3 0 .599-.3.599-.6s-.3-.6-.599-.6zM22.843 39.7h-1.895c-.3 0-.599.3-.599.6s.3.6.599.6h1.895c.299 0 .598-.3.598-.6s-.2-.6-.598-.6zM17.556 39.7h-1.895c-.3 0-.599.3-.599.6s.3.6.599.6h1.895c.3 0 .598-.3.598-.6s-.299-.6-.598-.6zM12.17 39.7h-1.896c-.299 0-.598.3-.598.6s.299.6.598.6h1.896c.299 0 .598-.3.598-.6s-.3-.6-.599-.6zM6.783 39.7H4.888c-.3 0-.599.3-.599.6s.3.6.599.6h1.895c.3 0 .599-.3.599-.6s-.3-.6-.599-.6z" fill="#009BC8"/></svg>