<svg width="51" height="46" fill="none" xmlns="http://www.w3.org/2000/svg"><path d="M50.402 37.088l-7.968-2.293 2.39-5.284c.1-.2.1-.3 0-.499-.1-.2-.199-.299-.398-.299-1.694-.399-3.486-.797-5.28-1.097 2.291-2.99 3.487-6.58 3.487-10.368C42.633 7.776 34.963 0 25.4 0 15.838 0 8.168 7.776 8.168 17.348c0 3.788 1.195 7.477 3.586 10.468-2.889.498-4.582.997-4.682.997-.199 0-.299.2-.398.299-.1.2-.1.299 0 .498l2.39 4.985-8.666 2.393c-.199.1-.398.3-.398.498 0 .3.1.499.398.599l5.38 2.193-3.288 4.786c-.1.199-.1.498 0 .697.1.2.399.3.697.2 5.08-1.795 12.65-2.891 13.547-2.991h.1c.299 0 .598-.2.598-.499v-.1l-.3-3.987c7.272-.997 13.249-.698 17.034-.2l-.498 4.188c0 .299.2.598.498.598a70.744 70.744 0 0113.647 2.891h.199c.199 0 .398-.1.498-.2.1-.199.199-.498 0-.697l-3.188-4.786 5.28-2.093c.199-.1.398-.3.398-.599-.2-.1-.299-.299-.598-.398zm-15.24 1.296c2.988.498 4.682.997 4.682.997.299.1.597-.1.697-.3l1.395-3.09 6.474 1.894-4.383 1.596c-.199.1-.299.199-.299.398-.1.2 0 .4.1.499l2.69 3.988a79.239 79.239 0 00-11.754-2.393l.398-3.59zM25.4 33.399c-8.865 0-16.037-7.178-16.037-16.052 0-8.873 7.172-16.05 16.037-16.05 8.866 0 16.038 7.177 16.038 16.05 0 8.874-7.172 16.052-16.038 16.052zm-13.447 4.586L8.068 29.71c.897-.2 2.391-.498 4.483-.897 3.287 3.589 7.869 5.683 12.75 5.683 4.88 0 9.662-2.094 12.85-5.883 1.792.3 3.486.599 5.18.997l-3.786 8.375c-.797-.2-2.49-.598-4.98-.997-2.192-.3-4.981-.598-8.368-.598-2.988 0-6.375.2-10.06.698-1.295.398-2.69.598-4.184.897zm-4.88 2.393c.099-.1.099-.3.099-.499-.1-.2-.2-.299-.399-.398l-4.482-1.795 7.271-1.994 1.495 3.29c.1.2.398.399.597.3 1.295-.3 2.59-.5 3.985-.699l.299 3.29c-2.192.2-7.87 1.296-11.754 2.493l2.888-3.988z" fill="#009BC8"/><path d="M25.4 3.29c-7.77 0-14.044 6.281-14.044 14.058 0 7.776 6.275 14.057 14.044 14.057 7.77 0 14.045-6.281 14.045-14.058C39.445 9.572 33.17 3.29 25.4 3.29zm12.85 14.058c0 7.078-5.777 12.86-12.85 12.86-7.072 0-12.85-5.782-12.85-12.86 0-7.08 5.778-12.961 12.85-12.961 7.073 0 12.85 5.782 12.85 12.96z" fill="#009BC8"/><path d="M33.27 14.955H27.69L25.998 9.57c-.1-.2-.299-.399-.598-.399-.298 0-.498.2-.597.399l-1.694 5.384h-5.578c-.299 0-.498.2-.597.399-.1.199 0 .498.199.697l4.582 3.29-1.793 5.284c-.1.2 0 .499.2.698.099.1.198.1.298.1.1 0 .2 0 .299-.1l4.582-3.29 4.582 3.29c.199.1.498.1.697 0 .2-.1.299-.398.2-.698l-1.694-5.383 4.582-3.29c.2-.1.299-.4.2-.698-.1-.1-.3-.3-.599-.3zm-10.36 4.287c.1-.2 0-.499-.199-.698l-3.387-2.493h4.283c.3 0 .498-.199.598-.398l1.295-3.988 1.295 3.988c.1.199.299.398.598.398h4.283l-3.387 2.493c-.2.1-.299.399-.2.698l1.296 3.988-3.387-2.493c-.1-.1-.2-.1-.299-.1-.1 0-.199 0-.299.1l-3.386 2.493.896-3.988z" fill="#009BC8"/></svg>