<svg width="32" height="32" viewBox="0 0 32 32" fill="none" xmlns="http://www.w3.org/2000/svg">
<path d="M32 16C32 7.16344 24.8366 0 16 0C7.16344 0 0 7.16344 0 16C0 24.8366 7.16344 32 16 32C24.8366 32 32 24.8366 32 16Z" fill="#28A5E5"/>
<path fill-rule="evenodd" clip-rule="evenodd" d="M20.8255 9.68893C21.0123 9.61027 21.2169 9.58314 21.4178 9.61037C21.6188 9.63759 21.8087 9.71817 21.9679 9.84373C22.1271 9.96928 22.2498 10.1352 22.3231 10.3243C22.3965 10.5133 22.4178 10.7186 22.3849 10.9186L20.6697 21.3226C20.5033 22.3261 19.4022 22.9016 18.4818 22.4018C17.7119 21.9835 16.5684 21.3392 15.5399 20.6669C15.0257 20.3303 13.4504 19.2527 13.644 18.4858C13.8103 17.8301 16.4573 15.3662 17.9698 13.9013C18.5635 13.3258 18.2927 12.9938 17.5917 13.5232C15.85 14.8376 13.0556 16.8364 12.1314 17.3991C11.3162 17.8952 10.8912 17.9799 10.3829 17.8952C9.45581 17.7409 8.59593 17.5019 7.89412 17.2108C6.94576 16.8175 6.99189 15.5137 7.89336 15.134L20.8255 9.68893Z" fill="white"/>
</svg>
