<svg width="18" height="18" fill="none" xmlns="http://www.w3.org/2000/svg"><path d="M12.127 5.776a4.518 4.518 0 0 0-1.141-.806c.204.31.383.668.532 1.067.214-.077.417-.164.608-.26zM6.756 8.689h1.932V7.052a8.14 8.14 0 0 1-1.656-.24 8.227 8.227 0 0 0-.276 1.877zM6.995 11.037a8.121 8.121 0 0 1 1.694-.251V9.31H6.756a8.32 8.32 0 0 0 .239 1.726zM7.225 6.22c.459.114.952.185 1.464.208v-1.91c-.09.006-.18.015-.268.027-.479.29-.898.888-1.196 1.675zM5.815 12.168c.402.403.879.73 1.408.959a5.336 5.336 0 0 1-.65-1.308c-.272.1-.526.217-.758.349zM7.217 4.876c-.481.209-.918.5-1.295.854.217.116.451.218.7.308.164-.441.365-.832.595-1.162zM6.431 6.629a5.746 5.746 0 0 1-.942-.43 4.47 4.47 0 0 0-.971 2.49h1.614a8.84 8.84 0 0 1 .3-2.06zM6.133 9.311H4.518a4.47 4.47 0 0 0 .883 2.378c.3-.18.633-.337.993-.466a8.949 8.949 0 0 1-.26-1.912zM8.432 13.457c.085.01.17.02.257.025V11.41c-.53.025-1.042.1-1.516.223.303.863.747 1.52 1.26 1.825zM11.746 11.22c.32.116.62.253.895.41a4.468 4.468 0 0 0 .841-2.318h-1.476a8.93 8.93 0 0 1-.26 1.908zM10.98 13.033c.47-.231.892-.542 1.252-.915-.206-.11-.43-.21-.666-.297-.16.457-.357.866-.586 1.212z" fill="#B1C5CA"/><path d="M9 0a9 9 0 1 0 0 18A9 9 0 0 0 9 0zm0 14.428A5.434 5.434 0 0 1 3.572 9 5.434 5.434 0 0 1 9 3.572 5.434 5.434 0 0 1 14.428 9 5.434 5.434 0 0 1 9 14.428z" fill="#B1C5CA"/><path d="M9.763 4.572a4.52 4.52 0 0 0-.452-.054v1.916a7.57 7.57 0 0 0 1.603-.216c-.29-.76-.691-1.346-1.15-1.646zM11.707 6.628c.171.623.276 1.32.3 2.061h1.475a4.466 4.466 0 0 0-.93-2.436 5.843 5.843 0 0 1-.845.375zM9.311 13.482c.15-.01.297-.028.442-.052.492-.316.919-.96 1.213-1.797a7.57 7.57 0 0 0-1.655-.23v2.08zM11.106 6.81a8.188 8.188 0 0 1-1.795.247v1.632h2.072a8.231 8.231 0 0 0-.277-1.878zM11.383 9.311H9.31v1.47a8.16 8.16 0 0 1 1.835.252 8.305 8.305 0 0 0 .237-1.722z" fill="#B1C5CA"/></svg>