<svg width="64" height="64" fill="none" xmlns="http://www.w3.org/2000/svg"><g fill="#2E2928"><path d="M46 19c-.552 0-1-.449-1-1h-2c0 1.654 1.346 3 3 3v2h2v-2h3v-3c0-1.654-1.346-3-3-3h-2c-.552 0-1-.449-1-1v-1h3c.552 0 1 .449 1 1h2c0-1.654-1.346-3-3-3V9h-2v2h-3v3c0 1.654 1.346 3 3 3h2c.552 0 1 .449 1 1v1h-3z"/><path d="M48 61h-2V49h-8v12h-2V43h-8v18h-3.026A4.948 4.948 0 0 0 26 58V32c0-.395-.081-.77-.22-1.116.175-.048.344-.108.506-.185L41 45.414l5-5L51.586 46l-3.667 3.667 15.298 2.55-2.55-15.298L57 40.586l-11-11-5 5-10.692-10.693A2.97 2.97 0 0 0 31 22v-1h2v1c0 1.654 1.346 3 3 3h2c.7 0 1.336-.251 1.847-.654A10.877 10.877 0 0 0 47 27c6.065 0 11-4.935 11-11S53.065 5 47 5c-2.159 0-4.228.624-6 1.783V4c0-1.654-1.346-3-3-3h-2c-1.654 0-3 1.346-3 3v1h-2V4c0-1.654-1.346-3-3-3H14c-1.654 0-3 1.346-3 3v1H9V4c0-1.654-1.346-3-3-3H4C2.346 1 1 2.346 1 4v18c0 1.654 1.346 3 3 3h2c1.654 0 3-1.346 3-3v-1h2v1c0 1.654 1.346 3 3 3v3c0 1.383.945 2.539 2.22 2.884-.139.346-.22.721-.22 1.116v26c0 2.757 2.243 5 5 5h35V53h-8v8zm-8-10h4v10h-4V51zm-10-6h4v16h-4V45zm16-12.586l11 11 2.333-2.333 1.45 8.702-8.702-1.45L54.414 46 46 37.586l-5 5-13.301-13.301A2.95 2.95 0 0 0 28 28v-3c.182 0 .359-.023.533-.054L41 37.414l5-5zM47 7c4.963 0 9 4.038 9 9s-4.037 9-9 9a8.896 8.896 0 0 1-6.067-2.377c.043-.201.067-.409.067-.623V9.311A8.93 8.93 0 0 1 47 7zM35 4c0-.551.448-1 1-1h2c.552 0 1 .449 1 1v18c0 .551-.448 1-1 1h-2c-.552 0-1-.449-1-1V4zm-2 3v12h-2V7h2zM7 22c0 .551-.448 1-1 1H4c-.552 0-1-.449-1-1V4c0-.551.448-1 1-1h2c.552 0 1 .449 1 1v18zm2-3V7h2v12H9zm4 3V4c0-.551.448-1 1-1h14c.552 0 1 .449 1 1v18c0 .551-.448 1-1 1H14c-.552 0-1-.449-1-1zm3 3h10v3c0 .551-.448 1-1 1h-8c-.552 0-1-.449-1-1v-3zm2 33V32c0-.551.448-1 1-1h4c.552 0 1 .449 1 1v26c0 1.654-1.346 3-3 3s-3-1.346-3-3zm32-3h4v6h-4v-6z"/></g></svg>