<svg width="64" height="64" fill="none" xmlns="http://www.w3.org/2000/svg"><path d="M31 19c-.551 0-1-.449-1-1h-2c0 1.654 1.346 3 3 3v2h2v-2h3v-3c0-1.654-1.346-3-3-3h-2c-.551 0-1-.449-1-1v-1h3c.551 0 1 .449 1 1h2c0-1.654-1.346-3-3-3V9h-2v2h-3v3c0 1.654 1.346 3 3 3h2c.551 0 1 .449 1 1v1h-3zM33 37c.551 0 1 .449 1 1h2c0-1.654-1.346-3-3-3v-2h-2v2h-3v3c0 1.654 1.346 3 3 3h2c.551 0 1 .449 1 1v1h-3c-.551 0-1-.449-1-1h-2c0 1.654 1.346 3 3 3v2h2v-2h3v-3c0-1.654-1.346-3-3-3h-2c-.551 0-1-.449-1-1v-1h3z" fill="#2E2928"/><path d="M1 1v30h23v18h-6.273l11.86 12.938A3.282 3.282 0 0 0 32 63c.915 0 1.794-.387 2.413-1.062L46.273 49H40V31h23V1H1zm6 20.101A5.016 5.016 0 0 1 10.899 25H7v-3.899zM12.92 25A7.004 7.004 0 0 0 7 19.08v-6.16A7.004 7.004 0 0 0 12.92 7h12.775C22.861 8.992 21 12.28 21 16c0 2.912 1.146 5.557 3 7.526V25H12.92zM7 10.899V7h3.899A5.016 5.016 0 0 1 7 10.899zm50 0A5.016 5.016 0 0 1 53.101 7H57v3.899zM51.08 7A7.004 7.004 0 0 0 57 12.92v6.16A7.004 7.004 0 0 0 51.08 25H40v-1.474A10.95 10.95 0 0 0 43 16c0-3.72-1.861-7.008-4.695-9H51.08zM57 21.101V25h-3.899A5.016 5.016 0 0 1 57 21.101zM41 16c0 4.962-4.038 9-9 9s-9-4.038-9-9 4.038-9 9-9 9 4.038 9 9zm.727 35l-8.788 9.587c-.481.525-1.396.525-1.877 0L22.273 51H26V25.208A10.93 10.93 0 0 0 32 27a10.93 10.93 0 0 0 6-1.792V51h3.727zM61 29H40v-2h19V5H5v22h19v2H3V3h58v26z" fill="#2E2928"/><path d="M14 45V33H6v12H2l8 10.667L18 45h-4zm-4 7.333L6 47h2V35h4v12h2l-4 5.333zM58 33h-8v12h-4l8 10.667L62 45h-4V33zm-4 19.333L50 47h2V35h4v12h2l-4 5.333z" fill="#2E2928"/></svg>