<svg width="67" height="67" fill="none" xmlns="http://www.w3.org/2000/svg"><path d="M34.547 36.64v-2.093h3.14v-3.14c0-1.732-1.409-3.141-3.14-3.141h-2.094a1.048 1.048 0 0 1-1.047-1.047v-1.047h3.14c.578 0 1.048.469 1.048 1.047h2.093c0-1.732-1.409-3.14-3.14-3.14v-2.095h-2.094v2.094h-3.14v3.14c0 1.732 1.409 3.141 3.14 3.141h2.094c.577 0 1.047.47 1.047 1.047v1.047h-3.14a1.048 1.048 0 0 1-1.048-1.047h-2.093c0 1.732 1.409 3.14 3.14 3.14v2.095h2.094z" fill="#2E2928"/><path d="M56.531 20.938h-2.093a3.144 3.144 0 0 0-3.141 3.14v.4l-.394.197a3.059 3.059 0 0 0-1.7 2.75c0 .81.328 1.602.9 2.174l1.194 1.194v11.463a.558.558 0 0 1-.646.554l-12.217-1.88-.418-1.027c4.111-1.76 7-5.843 7-10.59 0-6.35-5.167-11.516-11.516-11.516-6.35 0-11.516 5.166-11.516 11.515 0 4.748 2.889 8.832 7 10.592l-.417 1.027-12.217 1.88a.564.564 0 0 1-.647-.555V30.793l1.194-1.194c.572-.572.9-1.365.9-2.174a3.059 3.059 0 0 0-1.7-2.75l-.394-.197v-.4c0-1.731-1.409-3.14-3.14-3.14h-2.094a3.144 3.144 0 0 0-3.14 3.14v19.269c0 2.03.79 3.941 2.226 5.376a7.55 7.55 0 0 0 6.319 2.168l5.063-.633v15.695h25.125V50.258l5.064.633a7.546 7.546 0 0 0 6.32-2.168 7.55 7.55 0 0 0 2.226-5.376V24.078c0-1.731-1.41-3.14-3.14-3.14zm-4.692 5.61l1.552-.776v-1.694c0-.578.47-1.047 1.047-1.047h2.093c.577 0 1.047.47 1.047 1.047v5.235h-4.8l-1.194-1.194a.99.99 0 0 1-.287-.694c0-.374.208-.71.542-.877zM35.526 57.213L33.5 59.239l-2.026-2.026 1.39-9.036.636-.634.636.635 1.39 9.035zM28.947 42.99l3.073 3.072-2.1 2.098-1.143-5.144.17-.026zm6.033 3.072l3.073-3.072.17.026-1.144 5.144-2.099-2.099zm-10.902-16.75c0-5.196 4.227-9.422 9.422-9.422s9.422 4.226 9.422 9.422c0 5.195-4.227 9.421-9.422 9.421s-9.422-4.226-9.422-9.422zM33.5 40.828c.865 0 1.704-.104 2.516-.285l.44 1.084-2.956 2.955-2.956-2.956.44-1.084c.812.182 1.651.286 2.516.286zM10.469 23.031h2.094c.576 0 1.046.47 1.046 1.047v1.694l1.552.776a.977.977 0 0 1 .542.877.99.99 0 0 1-.287.694l-1.193 1.194H9.422v-5.235c0-.578.47-1.047 1.047-1.047zm45.495 24.211a5.491 5.491 0 0 1-4.578 1.572l-5.194-.65-2.223-.008V63.86H23.03V48.156h-2.093l-5.324.658a5.494 5.494 0 0 1-4.579-1.572 5.468 5.468 0 0 1-1.613-3.895v-11.94h4.187v10.85c0 .709.277 1.375.778 1.877a2.67 2.67 0 0 0 2.28.745l10.037-1.544 2 9.004 1.657-1.658-1.117 7.261L33.5 62.2l4.255-4.255-1.117-7.262 1.658 1.658 2-9.004 10.037 1.545a2.667 2.667 0 0 0 2.28-.747 2.638 2.638 0 0 0 .778-1.878v-10.85h4.187v11.94a5.464 5.464 0 0 1-1.614 3.896zM38.428 11.209l-1.48-1.48-2.401 2.4V1.047h-2.094v11.082l-2.4-2.4-1.48 1.48 4.927 4.928 4.928-4.928zM27.959 13.303l-1.48-1.48-2.401 2.4V3.14h-2.094v11.082l-2.4-2.4-1.48 1.48 4.927 4.927 4.928-4.927zM17.49 15.396l-1.48-1.48-2.4 2.4V5.235h-2.095v11.083l-2.4-2.4-1.48 1.48 4.927 4.927 4.928-4.928zM48.896 13.303l-1.48-1.48-2.4 2.4V3.14h-2.094v11.082l-2.4-2.4-1.481 1.48 4.928 4.927 4.927-4.927zM59.365 15.396l-1.48-1.48-2.4 2.4V5.235H53.39v11.083l-2.401-2.4-1.48 1.48 4.927 4.927 4.928-4.928z" fill="#2E2928"/></svg>