<svg width="64" height="64" fill="none" xmlns="http://www.w3.org/2000/svg"><path d="M43.355 49.548a6.2 6.2 0 0 0 6.193 6.194 6.2 6.2 0 0 0 6.194-6.194 6.2 6.2 0 0 0-6.194-6.193 6.2 6.2 0 0 0-6.193 6.193zm10.323 0a4.133 4.133 0 0 1-4.13 4.13 4.133 4.133 0 0 1-4.129-4.13 4.133 4.133 0 0 1 4.13-4.129 4.134 4.134 0 0 1 4.129 4.13z" fill="#2E2928"/><path d="M64 0H45.42v6.233A27.71 27.71 0 0 0 27.87 0C12.504 0 0 12.503 0 27.87 0 43.24 12.503 55.743 27.87 55.743c3.64 0 7.18-.698 10.528-2.065h.574c.057.144.115.286.18.43l-2.741 2.74 5.838 5.839 2.741-2.741c.143.064.286.123.43.18V64h8.257v-3.875c.144-.057.286-.116.43-.18l2.74 2.74 5.839-5.838-2.74-2.74c.063-.144.122-.286.179-.43H64V45.42h-3.875a10.581 10.581 0 0 0-.18-.429l2.74-2.74-5.838-5.84-2.74 2.742a11.032 11.032 0 0 0-.43-.18v-.574a27.712 27.712 0 0 0 2.065-10.527c0-3.194-.537-6.311-1.593-9.29H64V0zM45.42 8.968v4.412c-1.325.689-3.168 1.41-5.69 1.986-2.592-6.179-6.536-10.711-8.998-13.138a25.66 25.66 0 0 1 14.687 6.74zM28.902 3.352c2.21 2.143 6.128 6.483 8.733 12.427-2.384.406-5.266.68-8.733.726V3.352zM26.84 3.35v13.155c-3.461-.047-6.341-.321-8.728-.729 2.606-5.94 6.519-10.282 8.728-12.426zm-1.831-1.123c-2.465 2.425-6.417 6.952-9.009 13.128-4.787-1.103-7.146-2.73-8.187-3.697 4.17-5.147 10.273-8.664 17.196-9.431zM6.57 13.32c1.342 1.193 3.938 2.847 8.685 3.98a31.902 31.902 0 0 0-1.81 9.538H2.09c.198-5 1.822-9.638 4.48-13.518zM2.09 28.903h11.354c.116 3.465.8 6.658 1.81 9.538-4.743 1.134-7.34 2.788-8.684 3.98a25.664 25.664 0 0 1-4.48-13.518zm5.722 15.18c1.043-.969 3.404-2.596 8.186-3.698 2.593 6.177 6.544 10.705 9.01 13.13-6.924-.769-13.027-4.285-17.196-9.432zm27.285 8.562c-2.01.587-4.08.925-6.194 1.008v-9.266H26.84v8.007c-2.21-2.14-6.128-6.479-8.734-12.428 1.91-.326 4.126-.57 6.712-.677l-.085-2.063c-2.86.12-5.307.401-7.41.783-1.004-2.754-1.69-5.806-1.811-9.106h9.263V26.84h-9.263c.12-3.3.81-6.35 1.816-9.106 2.599.472 5.738.787 9.513.836v6.205h2.064v-6.206c3.794-.05 6.934-.368 9.52-.837a29.961 29.961 0 0 1 1.676 7.151l2.052-.215a32.405 32.405 0 0 0-1.673-7.362c2.04-.484 3.661-1.058 4.941-1.637v2.912h6.524a25.623 25.623 0 0 1 1.709 8.259h-9.266v2.064h9.266a25.583 25.583 0 0 1-1.008 6.194H45.42v3.875c-.143.057-.285.115-.429.18l-7.276-7.277 5.036-5.036H26.839V42.75l5.036-5.036 7.276 7.276c-.064.144-.123.286-.18.43h-3.874v7.225zm18.743-11.33l.672.35 2.335-2.336 2.92 2.92-2.336 2.334.35.672c.262.5.473 1.008.63 1.506l.23.723h3.294v4.13h-3.294l-.229.72a9.288 9.288 0 0 1-.63 1.507l-.35.672 2.336 2.335-2.92 2.919-2.334-2.336-.672.351c-.5.261-1.008.473-1.507.63l-.722.229v3.295h-4.13V58.64l-.72-.228a9.292 9.292 0 0 1-1.507-.63l-.672-.35-2.335 2.335-2.919-2.92 2.336-2.334-.351-.672a9.283 9.283 0 0 1-.63-1.507l-.229-.722h-3.295v-4.13h3.295l.228-.72a9.283 9.283 0 0 1 .63-1.507l.35-.672-9.79-9.789-2.971 2.971v-8.863h8.863l-2.972 2.972 9.789 9.79.672-.351a9.283 9.283 0 0 1 1.506-.63l.722-.228v-3.295h4.13v3.295l.721.228c.5.157 1.007.37 1.506.63zm8.095-24.799H47.484V2.065h14.451v14.451z" fill="#2E2928"/><path d="M59.87 4.13H49.549v2.064h10.323V4.129zM59.87 8.258H49.549v2.065h10.323V8.258zM55.742 12.387h-6.194v2.065h6.194v-2.065zM59.871 12.387h-2.064v2.065h2.064v-2.065z" fill="#2E2928"/></svg>