<svg width="33" height="36" fill="none" xmlns="http://www.w3.org/2000/svg"><path d="M26.051 5.784l-.288-.39-.462-.149-8.343-2.673-.458-.147-.458.147L7.7 5.245l-.462.148-.288.391-5.157 7-.292.397v9.638l.292.397 5.157 7 .288.39.462.149 8.343 2.673.458.147.458-.147 8.343-2.673.462-.148.288-.391 5.157-7 .292-.397v-9.638l-.292-.397-5.157-7zM5.5 14.495l4.19-5.687 6.81-2.183 6.81 2.183 4.19 5.687v7.01l-4.19 5.687-6.81 2.183-6.81-2.183-4.19-5.687v-7.01z" fill="#232323" stroke="#F7F6F4" stroke-width="3"/></svg>