<svg width="24" height="24" fill="none" xmlns="http://www.w3.org/2000/svg"><path fill-rule="evenodd" clip-rule="evenodd" d="M4.746 3C2.99 3 1.773 4.637 2.036 6.305l.073.465a.992.992 0 0 0 .01.055c1.484 6.856 7.203 11.572 13.847 13.74.643.21 1.521.454 2.352.434.87-.02 1.896-.353 2.373-1.49l1.141-2.722c.408-.973.058-2.147-.886-2.69l-1.69-.974a12.222 12.222 0 0 0-1.353-.647 6.154 6.154 0 0 0-.877-.288 2.6 2.6 0 0 0-.486-.07 1.467 1.467 0 0 0-.668.123 1.012 1.012 0 0 0-.106.056l-1.932 1.188c-1.075-.716-2.331-1.57-3.218-2.486a.285.285 0 0 1-.073-.172.565.565 0 0 1 .055-.3l.824-1.743a1.448 1.448 0 0 0 .105-.73 3.261 3.261 0 0 0-.085-.47 9.872 9.872 0 0 0-.32-1 29.658 29.658 0 0 0-.892-2.107A2.546 2.546 0 0 0 7.902 3H4.746zm-.735 2.993C3.92 5.41 4.345 5 4.746 5h3.156c.232 0 .42.117.516.323.268.575.592 1.32.827 1.956a7.988 7.988 0 0 1 .272.856L8.79 9.672c-.395.834-.358 1.946.389 2.718 1.073 1.109 2.536 2.087 3.587 2.787l.502.329a1 1 0 0 0 1.072.016l2.249-1.383c.145.035.341.102.568.193.465.186.93.426 1.101.524l1.69.974c.01.005.03.022.044.063a.176.176 0 0 1-.005.12l-1.14 2.722c-.057.136-.147.254-.577.264-.468.012-1.07-.135-1.684-.335C10.38 16.638 5.374 12.353 4.08 6.43l-.069-.437zm5.525 2.252c.002.02 0 .017 0-.004v.004zm10.171-1.32a1.06 1.06 0 0 0 .21-.326l.007-.017A1.11 1.11 0 0 0 20 6.18v-.007c0-.287-.11-.548-.286-.738l-.007-.007-2-2.118a.961.961 0 0 0-1.414 0 1.103 1.103 0 0 0 0 1.498l.293.31H14c-.552 0-1 .474-1 1.058 0 .585.448 1.06 1 1.06h2.586l-.293.31a1.103 1.103 0 0 0 0 1.497.961.961 0 0 0 1.414 0l2-2.118z" fill="#1D1D1D"/></svg>