<svg width="15" height="17" fill="none" xmlns="http://www.w3.org/2000/svg"><path d="M7.5 8.27c1.9 0 3.44-1.851 3.44-4.135S10.434 0 7.5 0 4.06 1.851 4.06 4.135 5.6 8.27 7.5 8.27zM0 15.53c0-.162 0-.046 0 0zM14.999 15.656c.002-.044 0-.307 0 0zM14.142 14.522c-.065-3.953-.603-5.08-4.715-5.793 0 0-.578.71-1.928.71-1.349 0-1.928-.71-1.928-.71C1.504 9.435.934 10.545.86 14.394c-.006.314-.009.33-.01.294v.415S1.83 17 7.5 17c5.671 0 6.65-1.896 6.65-1.896v-.308a2.44 2.44 0 0 1-.007-.274z" fill="#B1C5CA"/></svg>