<svg width="15" height="15" fill="none" xmlns="http://www.w3.org/2000/svg"><path d="M14.933 11.959l-.075-.228c-.176-.524-.755-1.071-1.29-1.218l-1.97-.538c-.534-.145-1.295.05-1.688.442l-.712.713a7.571 7.571 0 0 1-5.324-5.326l.713-.713c.39-.39.586-1.152.441-1.688l-.537-1.971C4.346.898 3.796.319 3.272.142L3.047.069C2.522-.108 1.771.07 1.381.462L.313 1.53c-.19.189-.312.73-.312.732a12.617 12.617 0 0 0 3.688 9.05A12.598 12.598 0 0 0 12.706 15c.018 0 .577-.12.767-.31l1.068-1.068c.39-.389.566-1.139.392-1.663z" fill="#B1C5CA"/></svg>