<svg width="456" height="425" viewBox="0 0 456 425" fill="none" xmlns="http://www.w3.org/2000/svg">
<g clip-path="url(#clip0_51_30)">
<path d="M439.981 329.409C438.49 325.861 433.838 324.015 426.153 323.923C419.277 323.841 410.185 325.203 399.834 327.859C394.596 323.334 388.237 320.307 381.398 319.103C374.175 317.831 366.767 318.667 359.975 321.521C353.184 324.375 347.402 329.08 343.255 335.129C339.328 340.857 337.038 347.517 336.605 354.425C327.464 359.96 320.127 365.5 315.373 370.469C310.06 376.022 308.122 380.636 309.613 384.185C310.346 385.928 311.84 387.26 314.082 388.175C316.405 389.124 319.531 389.625 323.442 389.671C330.317 389.753 339.407 388.392 349.756 385.737C352.917 388.469 356.487 390.654 360.326 392.221C362.847 393.251 365.485 394.014 368.197 394.492C375.419 395.763 382.827 394.927 389.619 392.073C396.411 389.22 402.193 384.514 406.34 378.465C410.267 372.738 412.556 366.077 412.989 359.169C422.131 353.635 429.467 348.094 434.221 343.126C439.534 337.573 441.473 332.958 439.981 329.409ZM345.063 336.369C348.971 330.668 354.422 326.233 360.825 323.542C367.228 320.852 374.211 320.063 381.018 321.262C387.65 322.429 393.806 325.409 398.822 329.88C400.744 331.592 402.482 333.515 403.989 335.595C405.606 337.823 406.973 340.255 408.053 342.825C409.049 345.196 409.787 347.661 410.257 350.159C402.875 356.033 391.643 362.338 379.303 367.522C366.963 372.707 354.599 376.317 345.238 377.478C343.782 375.394 342.538 373.142 341.542 370.771C340.462 368.202 339.682 365.523 339.222 362.807C338.791 360.276 338.634 357.689 338.757 355.117C339.074 348.406 341.255 341.923 345.063 336.369ZM412.169 348.571C411.673 346.326 410.972 344.115 410.074 341.976C409.175 339.836 408.085 337.789 406.83 335.863C413.337 335.343 417.677 336.263 418.577 338.403C419.476 340.544 417.095 344.287 412.169 348.571ZM337.426 365.024C337.922 367.269 338.623 369.481 339.521 371.62C340.42 373.759 341.51 375.806 342.765 377.732C336.258 378.252 331.918 377.332 331.019 375.192C330.12 373.051 332.5 369.308 337.426 365.024ZM404.532 377.226C400.624 382.927 395.173 387.363 388.771 390.053C382.367 392.743 375.385 393.532 368.577 392.333C362.631 391.286 357.069 388.778 352.367 385.049C361.853 382.468 372.149 378.882 382.287 374.622C392.425 370.362 402.193 365.518 410.675 360.55C410.048 366.518 407.947 372.246 404.532 377.226ZM432.637 341.611C427.931 346.53 420.576 352.056 411.368 357.591C402.565 362.883 392.215 368.073 381.438 372.601C370.661 377.129 359.71 380.889 349.768 383.473C339.371 386.176 330.276 387.561 323.469 387.48C316.927 387.402 312.725 385.93 311.635 383.336C310.544 380.742 312.435 376.711 316.958 371.984C321.371 367.372 328.112 362.226 336.526 357.04C336.537 358.883 336.684 360.724 336.962 362.541C330.345 368.03 327.591 372.692 328.998 376.041C329.54 377.33 330.651 378.314 332.301 378.988C335.042 380.107 339.271 380.367 344.843 379.733C354.475 378.638 367.345 374.924 380.153 369.542C392.96 364.161 404.621 357.569 412.145 351.455C419.116 345.792 422.038 340.985 420.597 337.554C419.19 334.205 413.933 332.91 405.381 333.794C404.277 332.324 403.065 330.929 401.757 329.632C411.35 327.252 419.744 326.039 426.127 326.115C432.667 326.193 436.871 327.665 437.961 330.259C439.05 332.853 437.16 336.884 432.637 341.611Z" fill="url(#paint0_diamond_51_30)"/>
</g>
<g clip-path="url(#clip1_51_30)">
<path d="M406.625 216.344C411.437 202.802 404.335 187.871 390.793 183.059C377.251 178.246 362.32 185.348 357.508 198.89C356.724 201.096 356.261 203.38 356.088 205.689C348.198 206.618 340.142 205.736 332.521 203.027L323.064 199.667C321.183 198.999 319.163 199.646 317.969 201.111L316.259 200.503C313.87 199.654 311.234 200.907 310.385 203.297L307.305 211.964C306.456 214.354 307.709 216.989 310.099 217.838L311.809 218.446C311.811 220.336 312.97 222.112 314.851 222.781L320.639 224.838L307.865 247.284C307.698 247.578 307.557 247.885 307.444 248.204C306.38 251.196 307.951 254.497 310.942 255.56L315.11 257.041C317.8 257.997 320.74 256.869 322.1 254.361L326.413 246.414L330.36 247.816C331.953 248.383 333.709 247.547 334.276 245.954L335.302 243.065C335.869 241.471 335.033 239.715 333.44 239.149L330.852 238.229L334.677 231.181C342.197 235.92 348.43 242.526 352.736 250.469L353.014 250.986L360.792 253.75L365.967 239.188C370.752 240.149 375.648 237.735 377.761 233.296C390.127 235.385 402.379 228.294 406.625 216.344ZM402.75 216.719C400.625 216.246 398.806 215.24 397.485 213.82C396.524 212.789 395.261 212.138 393.834 211.934C391.397 211.585 388.933 212.794 387.707 214.939C387.164 215.885 386.88 216.95 386.885 218.018C386.894 220.09 386.364 221.884 385.312 223.347C383.771 225.489 382.787 227.93 382.358 230.595C381.136 230.61 379.905 230.532 378.667 230.346C379.377 225.844 377.131 221.332 373.07 219.194L375.164 213.3L377.432 214.106C381.758 215.643 386.527 213.374 388.064 209.049C389.062 206.242 388.475 203.095 386.532 200.834L385.447 199.574C383.09 196.829 382.377 193.008 383.588 189.6C384.14 188.047 384.38 186.401 384.323 184.757C385.79 184.901 387.258 185.193 388.716 185.635C388.15 186.366 387.701 187.182 387.387 188.065C386.191 191.433 387.113 195.177 389.737 197.605L392.495 200.156C393.403 200.995 393.721 202.291 393.308 203.455C392.172 206.651 393.848 210.177 397.045 211.313C399.504 212.186 402.082 212.408 404.616 211.987C404.4 213.101 404.127 214.215 403.736 215.317C403.552 215.834 403.337 216.331 403.12 216.826C402.996 216.794 402.873 216.747 402.75 216.719ZM405.029 208.738C402.714 209.305 400.331 209.226 398.071 208.423C396.468 207.854 395.627 206.086 396.197 204.481C397.022 202.159 396.386 199.577 394.577 197.904L391.82 195.353C390.097 193.759 389.491 191.304 390.276 189.092C390.59 188.209 391.115 187.428 391.804 186.789C400.36 190.783 405.472 199.579 405.029 208.738ZM381.26 184.654C381.332 185.983 381.145 187.318 380.699 188.573C379.12 193.015 380.049 197.998 383.124 201.574L384.208 202.835C385.436 204.262 385.806 206.25 385.176 208.023C384.205 210.756 381.192 212.188 378.461 211.217L376.193 210.411L378.246 204.632L370.468 201.869L369.924 202.094C369.721 202.177 369.513 202.25 369.308 202.332C369.314 202.313 369.315 202.293 369.322 202.275C370.75 198.254 368.927 193.862 365.233 191.963C369.379 187.515 375.168 184.875 381.26 184.654ZM360.397 199.917C361.108 197.916 362.088 196.092 363.252 194.433C365.985 195.455 367.413 198.489 366.432 201.248C366.17 201.986 366.052 202.75 366.001 203.52C363.761 204.243 361.487 204.808 359.19 205.218C359.38 203.42 359.784 201.643 360.397 199.917ZM310.194 212.991L313.274 204.323C313.558 203.526 314.436 203.109 315.232 203.392L316.677 203.905L312.57 215.462L311.125 214.949C310.329 214.666 309.911 213.788 310.194 212.991ZM314.946 217.934L320.079 203.487C320.363 202.69 321.241 202.273 322.037 202.556L331.494 205.917C343.33 210.122 356.15 210.165 367.96 206.107L353.743 246.116C347.144 235.515 337.17 227.458 325.334 223.252L315.877 219.892C315.081 219.609 314.663 218.731 314.946 217.934ZM319.406 252.899C318.77 254.072 317.395 254.599 316.137 254.152L311.969 252.671C310.747 252.236 310.032 251.003 310.203 249.765L312.507 249.482C315.169 249.156 317.544 247.81 319.219 245.665C320.565 243.942 322.648 242.985 324.777 242.997L319.406 252.899ZM332.413 242.038L331.386 244.927L327.892 243.685L329.372 240.957L332.413 242.038ZM326.364 240.072C322.787 239.485 319.066 240.881 316.779 243.809C315.633 245.278 313.983 246.211 312.132 246.438L311.853 246.473L323.573 225.88L324.308 226.142C326.993 227.096 329.569 228.271 332.031 229.628L326.364 240.072ZM358.93 249.834L356.04 248.807L371.441 205.468L374.33 206.495L358.93 249.834ZM367.004 236.268L372.034 222.114C375.088 223.955 376.537 227.756 375.298 231.244C374.058 234.733 370.535 236.766 367.004 236.268ZM385.534 230.355C385.937 228.45 386.684 226.692 387.801 225.136C389.218 223.165 389.961 220.699 389.952 218.003C389.949 217.467 390.09 216.947 390.37 216.461C390.969 215.413 392.215 214.798 393.402 214.969C394.129 215.073 394.767 215.397 395.243 215.911C396.899 217.688 399.126 218.94 401.681 219.592C398.122 225.419 392.166 229.336 385.534 230.355Z" fill="#6F6FAB"/>
<path d="M330.096 211.928C330.663 210.335 329.827 208.578 328.234 208.012L325.345 206.985C323.751 206.419 321.995 207.255 321.429 208.848L319.375 214.626C318.809 216.22 319.644 217.976 321.238 218.542L324.127 219.569C325.72 220.135 327.477 219.3 328.043 217.707L330.096 211.928ZM322.264 215.653L324.318 209.875L327.207 210.901L325.155 216.68L322.264 215.653Z" fill="#6F6FAB"/>
</g>
<g clip-path="url(#clip2_51_30)">
<path d="M452.441 74.5218C452.715 73.2643 451.914 72.0181 450.657 71.7442L443.814 70.254L445.5 62.5112C445.746 61.3814 445.587 60.4883 445.031 59.8558C444.409 59.1551 443.374 58.8642 441.968 58.9929L404.864 61.5851C404.475 61.612 404.187 61.9252 404.158 62.3026C404.145 62.3381 404.122 62.3664 404.113 62.4044L396.497 97.3778C396.223 98.6354 397.024 99.8816 398.281 100.155L442.378 109.759C443.636 110.033 444.882 109.232 445.156 107.975L452.441 74.5218ZM445.787 97.7597L431.342 94.6138C430.924 94.5227 430.656 94.1076 430.747 93.6879L433.396 81.5233C433.488 81.1036 433.904 80.8375 434.322 80.9285L448.768 84.0745L445.787 97.7597ZM442.093 60.5445C442.968 60.4657 443.599 60.5842 443.864 60.8854C444.128 61.1851 444.073 61.7543 443.98 62.1801L442.294 69.9229L409.641 62.8117L442.093 60.5445ZM442.709 108.238L398.612 98.6349C398.194 98.5438 397.926 98.1287 398.017 97.709L405.468 63.4958L450.326 73.2648C450.744 73.3559 451.012 73.771 450.92 74.1907L449.099 82.5539L434.653 79.408C433.396 79.1341 432.15 79.9346 431.876 81.1921L429.227 93.3568C428.953 94.6143 429.753 95.8605 431.011 96.1344L445.456 99.2803L443.635 107.644C443.544 108.063 443.127 108.329 442.709 108.238Z" fill="url(#paint1_diamond_51_30)"/>
<path d="M437.991 92.2473C439.805 92.6423 441.604 91.4877 441.999 89.6737C442.395 87.8596 441.238 86.0597 439.424 85.6647C437.61 85.2696 435.812 86.4245 435.417 88.2401C435.021 90.0557 436.175 91.8519 437.991 92.2473ZM439.093 87.1868C440.071 87.3997 440.691 88.3663 440.479 89.344C440.266 90.3218 439.299 90.9411 438.322 90.7282C437.345 90.5156 436.724 89.549 436.937 88.5728C437.15 87.5966 438.117 86.9742 439.093 87.1868Z" fill="url(#paint2_diamond_51_30)"/>
</g>
<path d="M218.557 60.7609C195.726 68.69 189.594 76.8519 188.334 100.987C180.405 78.1567 172.243 72.0245 148.107 70.7645C170.938 62.8354 177.07 54.6735 178.33 30.5379C186.259 53.3687 194.421 59.5009 218.557 60.7609Z" stroke="url(#paint3_diamond_51_30)" stroke-width="2" stroke-miterlimit="10" stroke-linecap="round" stroke-linejoin="round"/>
<path d="M249.412 135.02C233.511 140.403 229.641 146.16 228.388 163.004C223.005 147.102 217.247 143.233 200.404 141.979C216.305 136.596 220.175 130.839 221.429 113.995C226.811 129.896 232.641 134.277 249.412 135.02Z" stroke="url(#paint4_diamond_51_30)" stroke-width="2" stroke-miterlimit="10" stroke-linecap="round" stroke-linejoin="round"/>
<path d="M278.92 78.7503C266.009 83.1875 262.505 87.8515 261.837 101.487C257.4 88.5764 252.736 85.0723 239.1 84.4045C252.011 79.9672 255.515 75.3033 256.183 61.6677C260.62 74.5784 265.284 78.0825 278.92 78.7503Z" stroke="url(#paint5_diamond_51_30)" stroke-width="2" stroke-miterlimit="10" stroke-linecap="round" stroke-linejoin="round"/>
<circle cx="162.198" cy="136.988" r="5.15625" transform="rotate(-8.08174 162.198 136.988)" fill="url(#paint6_diamond_51_30)"/>
<circle cx="267.291" cy="33.5298" r="5.15625" transform="rotate(-8.08174 267.291 33.5298)" fill="url(#paint7_diamond_51_30)"/>
<path d="M55 241.625C66.3909 241.625 75.625 232.391 75.625 221C75.625 209.609 66.3909 200.375 55 200.375C43.6091 200.375 34.375 209.609 34.375 221C34.375 232.391 43.6091 241.625 55 241.625Z" stroke="#646497" stroke-width="2" stroke-miterlimit="10" stroke-linejoin="round"/>
<path d="M87.6562 207.25C92.4024 207.25 96.25 203.402 96.25 198.656C96.25 193.91 92.4024 190.062 87.6562 190.062C82.9101 190.062 79.0625 193.91 79.0625 198.656C79.0625 203.402 82.9101 207.25 87.6562 207.25Z" stroke="#646497" stroke-width="2" stroke-miterlimit="10" stroke-linejoin="round"/>
<path d="M18.9062 193.5C23.6524 193.5 27.5 189.652 27.5 184.906C27.5 180.16 23.6524 176.312 18.9062 176.312C14.1601 176.312 10.3125 180.16 10.3125 184.906C10.3125 189.652 14.1601 193.5 18.9062 193.5Z" stroke="#646497" stroke-width="2" stroke-miterlimit="10" stroke-linejoin="round"/>
<path d="M25.7812 265.688C30.5274 265.688 34.375 261.84 34.375 257.094C34.375 252.348 30.5274 248.5 25.7812 248.5C21.0351 248.5 17.1875 252.348 17.1875 257.094C17.1875 261.84 21.0351 265.688 25.7812 265.688Z" stroke="#646497" stroke-width="2" stroke-miterlimit="10" stroke-linejoin="round"/>
<path d="M91.0938 255.375C95.8399 255.375 99.6875 251.527 99.6875 246.781C99.6875 242.035 95.8399 238.188 91.0938 238.188C86.3476 238.188 82.5 242.035 82.5 246.781C82.5 251.527 86.3476 255.375 91.0938 255.375Z" stroke="#646497" stroke-width="2" stroke-miterlimit="10" stroke-linejoin="round"/>
<path d="M42.2812 237.156L31.2812 250.562" stroke="#646497" stroke-width="2" stroke-miterlimit="10" stroke-linejoin="round"/>
<path d="M25.0938 191.094L40.5625 206.562" stroke="#646497" stroke-width="2" stroke-miterlimit="10" stroke-linejoin="round"/>
<path d="M80.7812 203.812L72.1875 209.656" stroke="#646497" stroke-width="2" stroke-miterlimit="10" stroke-linejoin="round"/>
<path d="M84.2188 241.625L71.8438 232.688" stroke="#646497" stroke-width="2" stroke-miterlimit="10" stroke-linejoin="round"/>
<defs>
<radialGradient id="paint0_diamond_51_30" cx="0" cy="0" r="1" gradientUnits="userSpaceOnUse" gradientTransform="translate(376.91 336.407) rotate(108.052) scale(102.533 97.312)">
<stop offset="0.102961" stop-color="#FFDC98"/>
<stop offset="0.406774" stop-color="#C8942E"/>
<stop offset="0.735486" stop-color="#624917"/>
</radialGradient>
<radialGradient id="paint1_diamond_51_30" cx="0" cy="0" r="1" gradientUnits="userSpaceOnUse" gradientTransform="translate(424.941 70.8402) rotate(129.136) scale(68.7081 65.2169)">
<stop offset="0.102961" stop-color="#FFDC98"/>
<stop offset="0.57" stop-color="#C8942E"/>
<stop offset="0.735486" stop-color="#624917"/>
</radialGradient>
<radialGradient id="paint2_diamond_51_30" cx="0" cy="0" r="1" gradientUnits="userSpaceOnUse" gradientTransform="translate(438.615 87.6315) rotate(129.133) scale(9.29585 8.82285)">
<stop offset="0.102961" stop-color="#FFDC98"/>
<stop offset="0.57" stop-color="#C8942E"/>
<stop offset="0.735486" stop-color="#624917"/>
</radialGradient>
<radialGradient id="paint3_diamond_51_30" cx="0" cy="0" r="1" gradientUnits="userSpaceOnUse" gradientTransform="translate(177.543 52.9876) rotate(77.7612) scale(70.153 66.5801)">
<stop offset="0.102961" stop-color="#FFDC98"/>
<stop offset="0.406774" stop-color="#C8942E"/>
<stop offset="0.735486" stop-color="#624917"/>
</radialGradient>
<radialGradient id="paint4_diamond_51_30" cx="0" cy="0" r="1" gradientUnits="userSpaceOnUse" gradientTransform="translate(220.881 129.612) rotate(77.7612) scale(48.8021 46.3166)">
<stop offset="0.102961" stop-color="#FFDC98"/>
<stop offset="0.406774" stop-color="#C8942E"/>
<stop offset="0.735486" stop-color="#624917"/>
</radialGradient>
<radialGradient id="paint5_diamond_51_30" cx="0" cy="0" r="1" gradientUnits="userSpaceOnUse" gradientTransform="translate(255.738 74.3567) rotate(77.7612) scale(39.6517 37.6322)">
<stop offset="0.102961" stop-color="#FFDC98"/>
<stop offset="0.406774" stop-color="#C8942E"/>
<stop offset="0.735486" stop-color="#624917"/>
</radialGradient>
<radialGradient id="paint6_diamond_51_30" cx="0" cy="0" r="1" gradientUnits="userSpaceOnUse" gradientTransform="translate(161.628 135.037) rotate(85.8429) scale(10.1671 9.64929)">
<stop offset="0.102961" stop-color="#FFDC98"/>
<stop offset="0.406774" stop-color="#C8942E"/>
<stop offset="0.735486" stop-color="#624917"/>
</radialGradient>
<radialGradient id="paint7_diamond_51_30" cx="0" cy="0" r="1" gradientUnits="userSpaceOnUse" gradientTransform="translate(266.72 31.5788) rotate(85.8429) scale(10.1671 9.64929)">
<stop offset="0.102961" stop-color="#FFDC98"/>
<stop offset="0.406774" stop-color="#C8942E"/>
<stop offset="0.735486" stop-color="#624917"/>
</radialGradient>
<clipPath id="clip0_51_30">
<rect width="104" height="104" fill="white" transform="translate(346.312 289) rotate(22.2095)"/>
</clipPath>
<clipPath id="clip1_51_30">
<rect width="98.1196" height="98.1196" fill="white" transform="translate(324.854 158) rotate(19.5627)"/>
</clipPath>
<clipPath id="clip2_51_30">
<rect width="49.7992" height="49.7992" fill="white" transform="translate(406.597 51) rotate(12.286)"/>
</clipPath>
</defs>
</svg>
