<svg width="1527" height="699" viewBox="0 0 1527 699" fill="none" xmlns="http://www.w3.org/2000/svg">
<g filter="url(#filter0_d_2041_2)">
<g clip-path="url(#clip0_2041_2)">
<path d="M349.885 371.237C356.874 371.237 363.442 368.516 368.384 363.575C378.585 353.374 378.585 336.777 368.384 326.577C363.444 321.636 356.874 318.914 349.885 318.914C342.898 318.914 336.328 321.635 331.386 326.576C321.186 336.777 321.186 353.374 331.386 363.575C336.328 368.515 342.898 371.237 349.885 371.237ZM338.017 333.208C341.187 330.038 345.403 328.292 349.885 328.292C354.368 328.292 358.583 330.038 361.753 333.208C368.296 339.751 368.296 350.399 361.753 356.943C358.583 360.113 354.368 361.858 349.885 361.858C345.403 361.858 341.187 360.113 338.017 356.944C331.474 350.399 331.474 339.751 338.017 333.208Z" fill="url(#paint0_linear_2041_2)"/>
<path d="M244.706 450.255C240.598 446.147 235.136 443.883 229.326 443.883C223.516 443.883 218.054 446.145 213.946 450.255C205.466 458.734 205.466 472.534 213.946 481.015C218.054 485.123 223.516 487.386 229.326 487.386C235.136 487.386 240.597 485.123 244.705 481.015C248.814 476.907 251.077 471.445 251.077 465.635C251.077 459.825 248.814 454.363 244.706 450.255ZM238.074 474.383C235.738 476.72 232.63 478.006 229.326 478.006C226.021 478.006 222.913 476.718 220.577 474.383C215.754 469.559 215.754 461.71 220.577 456.887C222.913 454.549 226.021 453.263 229.326 453.263C232.63 453.263 235.738 454.55 238.074 456.887C240.411 459.223 241.698 462.33 241.698 465.635C241.698 468.94 240.411 472.047 238.074 474.383Z" fill="url(#paint1_linear_2041_2)"/>
<path d="M441.626 625.257L318.432 502.063C316.602 500.231 313.632 500.231 311.801 502.063L297.183 516.681L287.44 506.938L323.706 470.673C342.401 451.978 348.815 424.752 341.138 400.111C347.874 402.192 354.937 403.272 362.001 403.272C380.771 403.272 398.415 395.964 411.684 382.695C424.962 369.417 432.274 351.763 432.274 332.987C432.274 323.946 430.564 315.174 427.323 307.018L439.675 294.665C440.555 293.786 441.049 292.593 441.049 291.349C441.049 290.105 440.555 288.913 439.675 288.032L406.928 255.283C405.095 253.452 402.126 253.452 400.297 255.283L387.945 267.635C379.789 264.396 371.016 262.686 361.976 262.686C343.198 262.686 325.546 269.998 312.269 283.276C293.573 301.97 287.158 329.195 294.835 353.838C288.1 351.757 281.037 350.678 273.972 350.678C255.204 350.678 237.558 357.985 224.29 371.255L188.023 407.522L178.28 397.78L192.897 383.163C194.73 381.33 194.73 378.362 192.897 376.53L69.7029 253.334C68.8236 252.455 67.6301 251.961 66.3874 251.961C65.1447 251.961 63.9512 252.455 63.072 253.334L5.37406 311.033C3.54165 312.865 3.54165 315.834 5.37406 317.665L128.568 440.859C129.448 441.739 130.641 442.232 131.884 442.232C133.127 442.232 134.32 441.739 135.199 440.859L149.816 426.242L159.559 435.985L150.034 445.509L150.032 445.51L150.031 445.512L121.045 474.498C119.213 476.33 119.213 479.299 121.045 481.13L213.831 573.916C214.71 574.795 215.904 575.288 217.146 575.288C218.389 575.288 219.583 574.795 220.462 573.916L258.976 535.401L268.719 545.143L254.102 559.76C253.222 560.64 252.728 561.833 252.728 563.077C252.728 564.321 253.222 565.513 254.102 566.394L377.296 689.588C378.211 690.504 379.412 690.961 380.612 690.961C381.811 690.961 383.013 690.503 383.927 689.588L441.626 631.89C442.505 631.011 443 629.817 443 628.574C443 627.33 442.505 626.137 441.626 625.257ZM325.646 624.674L376.713 573.607L401.27 598.165L350.203 649.231L325.646 624.674ZM294.458 593.486L345.525 542.42L370.081 566.976L319.014 618.042L294.458 593.486ZM246.134 534.98L159.981 448.827L210.708 398.1L296.861 484.253L246.134 534.98ZM405.053 289.908C415.951 300.806 422.202 315.107 422.833 330.414L364.547 272.128C379.854 272.759 394.155 279.01 405.053 289.908ZM403.612 265.232L429.728 291.348L423.004 298.072C419.936 292.73 416.158 287.75 411.684 283.276C407.21 278.802 402.231 275.024 396.889 271.956L403.612 265.232ZM318.899 289.908C328.027 280.78 339.545 274.922 352.037 272.883L422.078 342.924C420.039 355.416 414.18 366.935 405.053 376.062C393.554 387.56 378.266 393.892 362.001 393.892C352.614 393.892 343.237 391.695 334.876 387.541L307.416 360.081C295.765 336.624 300.374 308.433 318.899 289.908ZM299.947 365.876L329.112 395.041C338.688 415.381 336.228 439.055 323.22 456.861L238.099 371.74C248.452 364.159 260.896 360.056 273.972 360.056C282.934 360.056 291.879 362.079 299.947 365.876ZM230.921 377.887C230.931 377.876 230.942 377.867 230.952 377.856L317.105 464.01C317.094 464.021 317.086 464.03 317.075 464.04L303.493 477.622L217.339 391.468L230.921 377.887ZM76.9188 375.947L127.985 324.88L152.542 349.437L101.475 400.503L76.9188 375.947ZM45.7304 344.757L96.7962 293.691L121.353 318.249L70.2867 369.315L45.7304 344.757ZM66.3874 263.282L90.1641 287.059L39.0983 338.126L15.3216 314.349L66.3874 263.282ZM131.884 430.912L108.107 407.135L159.174 356.069L182.951 379.846L146.506 416.292L146.502 416.295L146.5 416.298L131.884 430.912ZM156.448 419.61L171.649 404.409L181.392 414.152L166.191 429.353L156.448 419.61ZM217.146 563.968L130.994 477.815L153.35 455.459L239.503 541.612L217.146 563.968ZM265.608 528.77L280.808 513.57L290.55 523.313L275.35 538.513L265.608 528.77ZM315.116 512.01L338.893 535.787L287.826 586.853L264.049 563.076L315.116 512.01ZM380.612 679.639L356.835 655.863L407.902 604.797L431.679 628.574L380.612 679.639Z" fill="url(#paint2_linear_2041_2)"/>
</g>
<path d="M457.771 308.01C458.351 310.898 461.162 312.77 464.05 312.19C466.938 311.61 468.809 308.799 468.229 305.911C467.649 303.023 464.838 301.152 461.95 301.732C459.063 302.312 457.191 305.123 457.771 308.01ZM1512.27 159.275C1512.85 162.163 1515.66 164.034 1518.55 163.455C1521.44 162.875 1523.31 160.064 1522.73 157.176C1522.15 154.288 1519.34 152.417 1516.45 152.997C1513.56 153.576 1511.69 156.387 1512.27 159.275ZM697.5 158.226L697.5 157.226L697.21 157.226L696.965 157.381L697.5 158.226ZM463.536 307.805L698.036 159.07L696.965 157.381L462.464 306.116L463.536 307.805ZM697.5 159.226L1517.5 159.226L1517.5 157.226L697.5 157.226L697.5 159.226Z" fill="#B2B2EB" fill-opacity="0.78"/>
</g>
<defs>
<filter id="filter0_d_2041_2" x="0" y="152.891" width="1526.83" height="546.07" filterUnits="userSpaceOnUse" color-interpolation-filters="sRGB">
<feFlood flood-opacity="0" result="BackgroundImageFix"/>
<feColorMatrix in="SourceAlpha" type="matrix" values="0 0 0 0 0 0 0 0 0 0 0 0 0 0 0 0 0 0 127 0" result="hardAlpha"/>
<feOffset dy="4"/>
<feGaussianBlur stdDeviation="2"/>
<feComposite in2="hardAlpha" operator="out"/>
<feColorMatrix type="matrix" values="0 0 0 0 0 0 0 0 0 0 0 0 0 0 0 0 0 0 0.25 0"/>
<feBlend mode="normal" in2="BackgroundImageFix" result="effect1_dropShadow_2041_2"/>
<feBlend mode="normal" in="SourceGraphic" in2="effect1_dropShadow_2041_2" result="shape"/>
</filter>
<linearGradient id="paint0_linear_2041_2" x1="349.885" y1="318.914" x2="349.885" y2="371.237" gradientUnits="userSpaceOnUse">
<stop stop-color="#B2B2EB"/>
<stop offset="1" stop-color="#656585"/>
</linearGradient>
<linearGradient id="paint1_linear_2041_2" x1="229.332" y1="443.883" x2="229.332" y2="487.386" gradientUnits="userSpaceOnUse">
<stop stop-color="#B2B2EB"/>
<stop offset="1" stop-color="#656585"/>
</linearGradient>
<linearGradient id="paint2_linear_2041_2" x1="223.5" y1="251.961" x2="223.5" y2="690.961" gradientUnits="userSpaceOnUse">
<stop stop-color="#B2B2EB"/>
<stop offset="1" stop-color="#6363A1"/>
</linearGradient>
<clipPath id="clip0_2041_2">
<rect width="439" height="439" fill="white" transform="translate(4 251.961)"/>
</clipPath>
</defs>
</svg>
