<svg width="245" height="41" fill="none" xmlns="http://www.w3.org/2000/svg"><rect y=".5" width="40" height="40" rx="15.684" fill="#FCFCFF"/><path d="M31.187 20.514c0 6.17-5.002 11.172-11.173 11.172-6.17 0-11.172-5.002-11.172-11.172 0-6.17 5.002-11.172 11.172-11.172 6.17 0 11.173 5.002 11.173 11.172zm-17.962 0a6.79 6.79 0 1013.58 0 6.79 6.79 0 00-13.58 0z" fill="url(#paint0_linear_801)"/><circle cx="20" cy="20.5" r="3.051" fill="#FF8181"/><path d="M77.104 23.452c0 1.184-.264 2.256-.792 3.216-.512.944-1.296 1.696-2.352 2.256-1.04.544-2.36.816-3.96.816-2.272 0-4-.576-5.184-1.728-1.184-1.168-1.776-2.704-1.776-4.608v-11.04h3.624v10.488c0 1.408.288 2.4.864 2.976.576.576 1.432.864 2.568.864 1.184 0 2.04-.312 2.568-.936.544-.624.816-1.6.816-2.928V12.364h3.624v11.088zm11.349-7.296c1.408 0 2.536.384 3.384 1.152.848.752 1.272 1.968 1.272 3.648V29.5h-3.576v-7.656c0-.944-.168-1.648-.504-2.112-.336-.48-.872-.72-1.608-.72-1.088 0-1.832.376-2.232 1.128-.4.736-.6 1.8-.6 3.192V29.5h-3.576V16.396h2.736l.48 1.68h.192a3.615 3.615 0 011.704-1.464 6.038 6.038 0 012.328-.456zm10.133-4.896c.528 0 .984.128 1.368.384.384.24.576.696.576 1.368 0 .656-.192 1.112-.576 1.368-.384.256-.84.384-1.368.384-.544 0-1.008-.128-1.392-.384-.368-.256-.552-.712-.552-1.368 0-.672.184-1.128.552-1.368.384-.256.848-.384 1.392-.384zm1.776 5.136V29.5h-3.576V16.396h3.576zm9.257 10.488c.4 0 .784-.04 1.152-.12.368-.08.736-.176 1.104-.288v2.664c-.384.16-.864.296-1.44.408a8.298 8.298 0 01-1.848.192c-.784 0-1.488-.128-2.112-.384-.608-.256-1.096-.696-1.464-1.32-.352-.64-.528-1.52-.528-2.64v-6.312h-1.704v-1.512l1.968-1.2 1.032-2.76h2.28v2.784h3.672v2.688h-3.672v6.312c0 .496.144.872.432 1.128.288.24.664.36 1.128.36zm10.286-10.728c1.808 0 3.24.52 4.296 1.56 1.056 1.024 1.584 2.488 1.584 4.392v1.728h-8.448c.032 1.008.328 1.8.888 2.376.576.576 1.368.864 2.376.864.848 0 1.616-.08 2.304-.24.688-.176 1.4-.44 2.136-.792v2.76c-.64.32-1.32.552-2.04.696-.704.16-1.56.24-2.568.24-1.312 0-2.472-.24-3.48-.72a5.512 5.512 0 01-2.376-2.232c-.576-.992-.864-2.24-.864-3.744 0-1.536.256-2.808.768-3.816.528-1.024 1.256-1.792 2.184-2.304.928-.512 2.008-.768 3.24-.768zm.024 2.544c-.688 0-1.264.224-1.728.672-.448.448-.712 1.144-.792 2.088h5.016c-.016-.8-.224-1.456-.624-1.968-.4-.528-1.024-.792-1.872-.792zm12.908 11.04c-1.456 0-2.648-.568-3.576-1.704-.912-1.152-1.368-2.84-1.368-5.064 0-2.24.464-3.936 1.392-5.088.928-1.152 2.144-1.728 3.648-1.728.944 0 1.72.184 2.328.552a4.381 4.381 0 011.44 1.368h.12a22.725 22.725 0 01-.168-1.104c-.064-.496-.096-1-.096-1.512v-4.2h3.576V29.5h-2.736l-.696-1.704h-.144a4.705 4.705 0 01-1.416 1.392c-.592.368-1.36.552-2.304.552zm1.248-2.856c.992 0 1.688-.288 2.088-.864.4-.592.608-1.472.624-2.64v-.384c0-1.28-.2-2.256-.6-2.928-.384-.672-1.104-1.008-2.16-1.008-.784 0-1.4.344-1.848 1.032-.448.672-.672 1.648-.672 2.928s.224 2.248.672 2.904c.448.64 1.08.96 1.896.96zm20.563 2.616l-1.248-4.08h-6.24l-1.248 4.08H142l6.048-17.208h4.44L158.56 29.5h-3.912zm-3.36-11.112c-.08-.272-.184-.616-.312-1.032-.128-.416-.256-.84-.384-1.272a27.668 27.668 0 01-.312-1.128c-.08.32-.192.72-.336 1.2-.128.464-.256.912-.384 1.344-.112.416-.2.712-.264.888l-1.224 3.984h4.464l-1.248-3.984zm13.306 11.352c-1.456 0-2.648-.568-3.576-1.704-.912-1.152-1.368-2.84-1.368-5.064 0-2.24.464-3.936 1.392-5.088.928-1.152 2.144-1.728 3.648-1.728.944 0 1.72.184 2.328.552a4.381 4.381 0 011.44 1.368h.12a22.725 22.725 0 01-.168-1.104c-.064-.496-.096-1-.096-1.512v-4.2h3.576V29.5h-2.736l-.696-1.704h-.144a4.705 4.705 0 01-1.416 1.392c-.592.368-1.36.552-2.304.552zm1.248-2.856c.992 0 1.688-.288 2.088-.864.4-.592.608-1.472.624-2.64v-.384c0-1.28-.2-2.256-.6-2.928-.384-.672-1.104-1.008-2.16-1.008-.784 0-1.4.344-1.848 1.032-.448.672-.672 1.648-.672 2.928s.224 2.248.672 2.904c.448.64 1.08.96 1.896.96zM178.75 29.5l-4.992-13.104h3.744l2.52 7.464c.144.448.256.912.336 1.392.096.48.152.912.168 1.296h.096c.048-.864.224-1.76.528-2.688l2.52-7.464h3.744L182.422 29.5h-3.672zm12.344-18.24c.528 0 .984.128 1.368.384.384.24.576.696.576 1.368 0 .656-.192 1.112-.576 1.368-.384.256-.84.384-1.368.384-.544 0-1.008-.128-1.392-.384-.368-.256-.552-.712-.552-1.368 0-.672.184-1.128.552-1.368.384-.256.848-.384 1.392-.384zm1.776 5.136V29.5h-3.576V16.396h3.576zm12.88 9.216c0 1.328-.472 2.352-1.416 3.072-.928.704-2.32 1.056-4.176 1.056-.912 0-1.696-.064-2.352-.192a9.154 9.154 0 01-1.968-.576V26.02c.704.32 1.464.584 2.28.792.816.208 1.536.312 2.16.312.704 0 1.2-.104 1.488-.312.304-.208.456-.48.456-.816a.994.994 0 00-.192-.6c-.112-.176-.368-.376-.768-.6-.4-.224-1.024-.512-1.872-.864-.816-.352-1.488-.696-2.016-1.032-.528-.352-.92-.768-1.176-1.248-.256-.496-.384-1.112-.384-1.848 0-1.216.472-2.128 1.416-2.736.944-.608 2.2-.912 3.768-.912.816 0 1.592.08 2.328.24.736.16 1.496.424 2.28.792l-1.08 2.568a18.523 18.523 0 00-1.824-.672 5.507 5.507 0 00-1.752-.288c-1.056 0-1.584.288-1.584.864 0 .208.064.4.192.576.144.16.408.336.792.528.4.192.984.448 1.752.768.752.304 1.4.624 1.944.96.544.32.96.728 1.248 1.224.304.48.456 1.112.456 1.896zm14.69-2.688c0 2.176-.576 3.856-1.728 5.04-1.136 1.184-2.688 1.776-4.656 1.776-1.216 0-2.304-.264-3.264-.792-.944-.528-1.688-1.296-2.232-2.304-.544-1.024-.816-2.264-.816-3.72 0-2.176.568-3.848 1.704-5.016 1.136-1.168 2.696-1.752 4.68-1.752 1.232 0 2.32.264 3.264.792s1.688 1.296 2.232 2.304c.544.992.816 2.216.816 3.672zm-9.048 0c0 1.296.208 2.28.624 2.952.432.656 1.128.984 2.088.984.944 0 1.624-.328 2.04-.984.432-.672.648-1.656.648-2.952s-.216-2.264-.648-2.904c-.416-.656-1.104-.984-2.064-.984-.944 0-1.632.328-2.064.984-.416.64-.624 1.608-.624 2.904zm19.323-6.768c.176 0 .384.008.624.024s.432.04.576.072l-.264 3.36a2.664 2.664 0 00-.504-.072 3.68 3.68 0 00-.552-.048c-.608 0-1.192.112-1.752.336a2.923 2.923 0 00-1.368 1.032c-.336.48-.504 1.136-.504 1.968V29.5h-3.576V16.396h2.712l.528 2.208h.168a5.418 5.418 0 011.584-1.728c.672-.48 1.448-.72 2.328-.72zm12.723 9.456c0 1.328-.472 2.352-1.416 3.072-.928.704-2.32 1.056-4.176 1.056-.912 0-1.696-.064-2.352-.192a9.154 9.154 0 01-1.968-.576V26.02c.704.32 1.464.584 2.28.792.816.208 1.536.312 2.16.312.704 0 1.2-.104 1.488-.312.304-.208.456-.48.456-.816a.994.994 0 00-.192-.6c-.112-.176-.368-.376-.768-.6-.4-.224-1.024-.512-1.872-.864-.816-.352-1.488-.696-2.016-1.032-.528-.352-.92-.768-1.176-1.248-.256-.496-.384-1.112-.384-1.848 0-1.216.472-2.128 1.416-2.736.944-.608 2.2-.912 3.768-.912.816 0 1.592.08 2.328.24.736.16 1.496.424 2.28.792l-1.08 2.568a18.523 18.523 0 00-1.824-.672 5.507 5.507 0 00-1.752-.288c-1.056 0-1.584.288-1.584.864 0 .208.064.4.192.576.144.16.408.336.792.528.4.192.984.448 1.752.768.752.304 1.4.624 1.944.96.544.32.96.728 1.248 1.224.304.48.456 1.112.456 1.896z" fill="#fff"/><defs><linearGradient id="paint0_linear_801" x1="15.249" y1="14.467" x2="23.792" y2="26.854" gradientUnits="userSpaceOnUse"><stop stop-color="#7C7AFC"/><stop offset="1" stop-color="#5531E4"/></linearGradient></defs></svg>