<svg width="17" height="18" fill="none" xmlns="http://www.w3.org/2000/svg"><path d="M2.245.916h11.971c1.138 0 2.067.981 2.067 2.181V15.73c0 1.2-.93 2.18-2.067 2.18H2.245c-1.138 0-2.068-.98-2.068-2.18V3.097c0-1.2.93-2.181 2.068-2.181zm9.665 1.887c-.4 0-.725.345-.725.767V5.4c0 .421.326.766.725.766h1.82c.4 0 .726-.345.726-.766V3.57c0-.422-.327-.767-.726-.767h-1.82zm2.552 5.3h-1.417c.135.462.207.95.207 1.458 0 2.826-2.242 5.118-5.007 5.118-2.764 0-5.006-2.292-5.006-5.118 0-.507.073-.996.207-1.459H1.967v7.18c0 .371.288.674.64.674h11.216c.352 0 .64-.303.64-.675V8.102zM8.245 6.068c-1.785 0-3.234 1.48-3.234 3.308 0 1.825 1.449 3.306 3.234 3.306 1.787 0 3.236-1.48 3.236-3.306 0-1.828-1.45-3.308-3.236-3.308z" fill="#1A1A1A"/></svg>