<svg width="18" height="11" fill="none" xmlns="http://www.w3.org/2000/svg"><path fill-rule="evenodd" clip-rule="evenodd" d="M14.668 7.444c.597.583 1.228 1.131 1.763 1.773.237.285.46.58.632.91.243.47.023.989-.399 1.017l-2.622-.002c-.677.056-1.216-.216-1.67-.678-.363-.37-.7-.764-1.048-1.146a2.481 2.481 0 0 0-.472-.42c-.358-.232-.669-.16-.873.213-.209.38-.256.8-.276 1.223-.028.618-.215.78-.835.808-1.326.063-2.584-.138-3.753-.806-1.03-.59-1.829-1.422-2.524-2.364C1.237 6.137.2 4.122-.732 2.049c-.21-.467-.057-.718.458-.727a71.15 71.15 0 0 1 2.568 0c.347.004.578.204.712.532a15.914 15.914 0 0 0 1.74 3.225c.19.267.382.534.657.722.304.208.536.14.679-.2.09-.214.13-.446.15-.676.069-.791.078-1.581-.041-2.37-.073-.492-.35-.81-.842-.904-.25-.048-.213-.14-.092-.284.211-.247.41-.4.804-.4h2.964c.467.092.57.301.634.77l.003 3.293c-.005.182.09.72.418.841.262.086.434-.124.592-.29.71-.753 1.216-1.643 1.668-2.565.2-.405.373-.826.54-1.246.125-.312.32-.466.67-.459l2.853.003c.085 0 .17 0 .252.015.48.082.612.289.464.758-.234.736-.689 1.35-1.134 1.966-.476.659-.984 1.294-1.456 1.956-.434.605-.399.91.14 1.435z" fill="#1A1A1A"/></svg>