<svg width="192" height="64" fill="none" xmlns="http://www.w3.org/2000/svg"><g filter="url(#filter0_b)"><rect x=".928" width="191.071" height="64" rx="11.464" fill="#fff" fill-opacity=".15"/></g><path d="M40.842 31.823a8.247 8.247 0 013.913-6.908 8.417 8.417 0 00-6.627-3.59c-2.788-.293-5.491 1.672-6.912 1.672-1.449 0-3.636-1.643-5.992-1.595a8.814 8.814 0 00-4.31 1.29 8.836 8.836 0 00-3.117 3.25c-3.211 5.57-.816 13.758 2.26 18.261 1.54 2.206 3.338 4.669 5.692 4.581 2.303-.095 3.163-1.471 5.943-1.471 2.754 0 3.561 1.471 5.963 1.416 2.471-.04 4.028-2.215 5.513-4.441a18.256 18.256 0 002.521-5.145 7.945 7.945 0 01-3.523-2.93 7.968 7.968 0 01-1.324-4.39zM36.307 18.363a8.118 8.118 0 001.85-5.808 8.226 8.226 0 00-5.325 2.762 7.716 7.716 0 00-1.9 5.593 6.794 6.794 0 005.375-2.547zM68.474 43.424h-7.558l-1.815 5.37H55.9l7.158-19.869h3.326l7.16 19.869h-3.257l-1.813-5.37zm-6.775-2.478h5.99l-2.953-8.716h-.082l-2.955 8.716zM89.004 41.551c0 4.502-2.404 7.394-6.033 7.394a4.892 4.892 0 01-4.548-2.534h-.069v7.175h-2.967V34.308h2.872v2.41h.055a5.132 5.132 0 014.603-2.562c3.669 0 6.087 2.907 6.087 7.395zm-3.05 0c0-2.932-1.512-4.86-3.82-4.86-2.267 0-3.792 1.968-3.792 4.86 0 2.92 1.525 4.874 3.792 4.874 2.308 0 3.82-1.914 3.82-4.873zM104.916 41.551c0 4.502-2.405 7.394-6.033 7.394a4.892 4.892 0 01-4.549-2.534h-.069v7.175h-2.967V34.308h2.872v2.41h.055a5.131 5.131 0 014.603-2.562c3.669 0 6.088 2.907 6.088 7.395zm-3.05 0c0-2.932-1.513-4.86-3.82-4.86-2.268 0-3.793 1.968-3.793 4.86 0 2.92 1.525 4.874 3.792 4.874 2.308 0 3.821-1.914 3.821-4.873zM115.431 43.258c.22 1.97 2.13 3.264 4.74 3.264 2.501 0 4.301-1.294 4.301-3.07 0-1.543-1.085-2.466-3.655-3.099l-2.57-.62c-3.641-.881-5.331-2.588-5.331-5.356 0-3.429 2.981-5.783 7.213-5.783 4.192 0 7.064 2.354 7.161 5.782h-2.996c-.179-1.982-1.815-3.18-4.205-3.18-2.391 0-4.027 1.212-4.027 2.974 0 1.405 1.045 2.231 3.601 2.864l2.185.538c4.068.964 5.756 2.601 5.756 5.508 0 3.717-2.953 6.045-7.653 6.045-4.397 0-7.366-2.274-7.558-5.867h3.038zM134.012 30.88v3.428h2.749v2.355h-2.749v7.986c0 1.24.55 1.818 1.759 1.818.326-.005.652-.028.976-.069v2.341a8.133 8.133 0 01-1.648.138c-2.927 0-4.069-1.102-4.069-3.911v-8.303h-2.102v-2.355h2.102V30.88h2.982zM138.351 41.552c0-4.558 2.679-7.422 6.857-7.422 4.191 0 6.857 2.864 6.857 7.422 0 4.57-2.652 7.422-6.857 7.422-4.204 0-6.857-2.852-6.857-7.422zm10.691 0c0-3.127-1.43-4.972-3.834-4.972-2.405 0-3.835 1.86-3.835 4.972 0 3.139 1.43 4.97 3.835 4.97 2.404 0 3.834-1.831 3.834-4.97zM154.511 34.308h2.83v2.465h.069a3.45 3.45 0 013.477-2.617c.342 0 .683.036 1.017.111v2.781a4.142 4.142 0 00-1.334-.18 2.982 2.982 0 00-2.311.954 3.01 3.01 0 00-.781 2.38v8.592h-2.967V34.308zM175.586 44.54c-.4 2.629-2.955 4.434-6.225 4.434-4.206 0-6.816-2.824-6.816-7.353 0-4.544 2.624-7.491 6.691-7.491 4 0 6.515 2.753 6.515 7.145v1.019h-10.21v.18a3.764 3.764 0 001.02 2.93 3.77 3.77 0 002.868 1.173 3.267 3.267 0 003.339-2.038h2.818zm-10.031-4.324h7.227a3.486 3.486 0 00-2.148-3.415 3.47 3.47 0 00-1.398-.262 3.653 3.653 0 00-3.403 2.265c-.185.448-.28.928-.278 1.412zM59.59 18.006h1.274a1.597 1.597 0 001.634-.885c.098-.199.153-.416.163-.637 0-.88-.662-1.45-1.783-1.45a1.696 1.696 0 00-1.922 1.496h-1.4a2.997 2.997 0 012.154-2.7 2.982 2.982 0 011.213-.092c1.876 0 3.197 1.052 3.197 2.567a2.22 2.22 0 01-1.73 2.184v.112a2.218 2.218 0 011.534.716c.397.433.607 1.005.584 1.593a3.196 3.196 0 01-1.183 2.168 3.18 3.18 0 01-2.375.67 3.162 3.162 0 01-3.204-1.617 3.179 3.179 0 01-.375-1.208h1.42c.087.913.924 1.502 2.159 1.502 1.235 0 2.041-.661 2.041-1.594 0-.946-.76-1.529-2.086-1.529H59.59v-1.296zM66.122 21.48c0-1.298.966-2.045 2.674-2.152l1.948-.112v-.622c0-.761-.5-1.19-1.472-1.19-.792 0-1.34.29-1.498.8H66.4c.145-1.237 1.308-2.031 2.94-2.031 1.802 0 2.818.899 2.818 2.42v4.924h-1.367v-1.013h-.112a2.422 2.422 0 01-2.16 1.131 2.167 2.167 0 01-2.207-1.274 2.18 2.18 0 01-.19-.882zm4.622-.617v-.602l-1.756.113c-.99.066-1.439.404-1.439 1.039 0 .648.561 1.025 1.333 1.025a1.692 1.692 0 001.683-.922c.103-.203.164-.425.18-.653zM75.923 17.509v6.008h-1.419v-7.205h4.734v1.197h-3.315zM87.838 19.911c0 2.29-1.155 3.724-2.97 3.724a2.34 2.34 0 01-2.213-1.21h-.112v3.487h-1.42v-9.6h1.367v1.19h.106a2.5 2.5 0 012.258-1.31c1.829 0 2.984 1.43 2.984 3.72zm-1.46 0c0-1.522-.718-2.441-1.92-2.441-1.195 0-1.942.939-1.942 2.447 0 1.502.747 2.442 1.935 2.442 1.209 0 1.928-.92 1.928-2.448zM89.728 26.097v-1.224c.153.02.308.028.463.026a1.228 1.228 0 001.3-1.005l.106-.35-2.602-7.232h1.545l1.803 5.723h.112l1.796-5.723h1.505l-2.68 7.502c-.615 1.753-1.295 2.316-2.76 2.316-.119 0-.456-.013-.588-.033zM96.862 21.472h1.413c.138.635.733.967 1.564.967.945 0 1.525-.418 1.525-1.066 0-.695-.521-1.026-1.525-1.026h-1.076v-1.104h1.057c.858 0 1.294-.33 1.294-.933 0-.53-.422-.933-1.294-.933-.794 0-1.374.338-1.466.906h-1.367c.102-.653.456-1.24.986-1.635a2.515 2.515 0 011.847-.475c1.709 0 2.687.774 2.687 1.992a1.478 1.478 0 01-1.135 1.475v.112a1.611 1.611 0 011.406 1.621c0 1.37-1.163 2.276-2.94 2.276-1.57 0-2.845-.721-2.976-2.177zM104.821 23.517v-7.205h1.407v4.955h.112l3.314-4.955h1.406v7.205h-1.406v-4.982h-.106l-3.32 4.982h-1.407zM118.807 17.509h-2.264v6.008h-1.42v-6.008h-2.264v-1.197h5.948v1.197zM126.452 21.571a2.918 2.918 0 01-3.117 2.084 3.26 3.26 0 01-2.52-1.088 3.269 3.269 0 01-.802-2.63 3.332 3.332 0 01.801-2.64 3.31 3.31 0 012.514-1.124c2.001 0 3.209 1.37 3.209 3.632v.496h-5.077v.08a1.89 1.89 0 00.502 1.457 1.896 1.896 0 001.413.607 1.72 1.72 0 001.709-.874h1.368zm-4.992-2.322h3.63a1.741 1.741 0 00-1.063-1.733 1.73 1.73 0 00-.705-.133 1.832 1.832 0 00-1.727 1.148 1.859 1.859 0 00-.135.719zM132.467 16.312h3.242c1.407 0 2.232.714 2.232 1.832a1.552 1.552 0 01-1.215 1.522v.112a1.64 1.64 0 011.537 1.661c0 1.257-.943 2.078-2.521 2.078h-3.275v-7.205zm1.407 1.091v1.866h1.406c.858 0 1.268-.33 1.268-.94 0-.562-.357-.926-1.11-.926h-1.564zm0 2.911v2.111h1.683c.838 0 1.288-.37 1.288-1.052 0-.721-.509-1.059-1.466-1.059h-1.505z" fill="#fff"/><defs><filter id="filter0_b" x="-9.262" y="-10.191" width="211.452" height="84.381" filterUnits="userSpaceOnUse" color-interpolation-filters="sRGB"><feFlood flood-opacity="0" result="BackgroundImageFix"/><feGaussianBlur in="BackgroundImage" stdDeviation="5.095"/><feComposite in2="SourceAlpha" operator="in" result="effect1_backgroundBlur"/><feBlend in="SourceGraphic" in2="effect1_backgroundBlur" result="shape"/></filter></defs></svg>