<svg width="144" height="48" fill="none" xmlns="http://www.w3.org/2000/svg"><g filter="url(#filter0_b)"><rect x=".198" width="143.305" height="48" rx="8.598" fill="#1B202A" fill-opacity=".15"/></g><path d="M30.133 23.868a6.185 6.185 0 012.935-5.181 6.313 6.313 0 00-4.97-2.693c-2.092-.22-4.119 1.254-5.185 1.254-1.086 0-2.727-1.232-4.494-1.195a6.61 6.61 0 00-5.57 3.404c-2.408 4.178-.612 10.319 1.695 13.697 1.155 1.653 2.504 3.5 4.269 3.435 1.727-.072 2.373-1.103 4.457-1.103 2.066 0 2.672 1.103 4.473 1.062 1.853-.03 3.02-1.662 4.135-3.331a13.69 13.69 0 001.89-3.86 5.958 5.958 0 01-2.642-2.196 5.975 5.975 0 01-.993-3.293zM26.732 13.772a6.089 6.089 0 001.388-4.356 6.17 6.17 0 00-3.995 2.072 5.788 5.788 0 00-1.424 4.194 5.097 5.097 0 004.031-1.91zM50.857 32.569H45.19l-1.361 4.027h-2.402l5.37-14.901h2.494l5.37 14.901h-2.443l-1.36-4.027zm-5.081-1.86h4.493l-2.215-6.536h-.062l-2.216 6.537zM66.255 31.165c0 3.376-1.803 5.545-4.524 5.545a3.67 3.67 0 01-3.412-1.901h-.051v5.381h-2.226V25.732h2.154v1.807h.041a3.85 3.85 0 013.453-1.921c2.752 0 4.565 2.18 4.565 5.547zm-2.287 0c0-2.2-1.135-3.646-2.865-3.646-1.7 0-2.845 1.476-2.845 3.646 0 2.189 1.144 3.655 2.845 3.655 1.73 0 2.865-1.436 2.865-3.655zM78.19 31.165c0 3.376-1.804 5.545-4.525 5.545a3.67 3.67 0 01-3.412-1.901h-.051v5.381h-2.226V25.732h2.154v1.807h.041a3.85 3.85 0 013.453-1.921c2.751 0 4.566 2.18 4.566 5.547zm-2.288 0c0-2.2-1.135-3.646-2.865-3.646-1.7 0-2.845 1.476-2.845 3.646 0 2.189 1.144 3.655 2.845 3.655 1.73 0 2.865-1.436 2.865-3.655zM86.075 32.444c.165 1.478 1.598 2.448 3.555 2.448 1.876 0 3.226-.97 3.226-2.303 0-1.156-.814-1.849-2.741-2.323l-1.928-.466c-2.73-.66-3.998-1.94-3.998-4.017 0-2.57 2.236-4.337 5.41-4.337 3.143 0 5.298 1.766 5.37 4.337h-2.246c-.135-1.487-1.362-2.385-3.155-2.385-1.793 0-3.02.909-3.02 2.23 0 1.054.784 1.674 2.701 2.148l1.639.404c3.05.723 4.317 1.95 4.317 4.13 0 2.788-2.215 4.534-5.74 4.534-3.298 0-5.524-1.705-5.668-4.4h2.278zM100.011 23.161v2.571h2.062v1.766h-2.062v5.99c0 .93.413 1.364 1.319 1.364.245-.005.489-.022.732-.052v1.756a6.1 6.1 0 01-1.236.103c-2.195 0-3.051-.826-3.051-2.933v-6.228h-1.577v-1.766h1.577v-2.57h2.236zM103.266 31.165c0-3.418 2.009-5.566 5.142-5.566 3.144 0 5.144 2.148 5.144 5.566 0 3.428-1.99 5.566-5.144 5.566-3.153 0-5.142-2.138-5.142-5.566zm8.018 0c0-2.345-1.073-3.729-2.876-3.729s-2.876 1.395-2.876 3.73c0 2.353 1.073 3.727 2.876 3.727s2.876-1.374 2.876-3.728zM115.386 25.732h2.123v1.849h.051a2.584 2.584 0 012.608-1.963c.257-.001.512.027.763.083v2.086a3.109 3.109 0 00-1-.135 2.237 2.237 0 00-1.734.715 2.247 2.247 0 00-.585 1.784v6.445h-2.226V25.732zM131.191 33.406c-.299 1.972-2.216 3.325-4.668 3.325-3.154 0-5.112-2.117-5.112-5.514 0-3.408 1.968-5.618 5.018-5.618 3 0 4.886 2.064 4.886 5.359v.764h-7.658v.134a2.84 2.84 0 00.766 2.199 2.823 2.823 0 002.151.879 2.45 2.45 0 002.504-1.528h2.113zm-7.523-3.243h5.421a2.623 2.623 0 00-.729-1.96 2.61 2.61 0 00-1.931-.797 2.74 2.74 0 00-2.553 1.699 2.764 2.764 0 00-.208 1.058zM44.194 13.505h.956a1.199 1.199 0 001.347-1.142c0-.66-.496-1.087-1.337-1.087a1.272 1.272 0 00-1.441 1.122h-1.05a2.249 2.249 0 011.615-2.025c.296-.085.605-.11.91-.07 1.407 0 2.398.79 2.398 1.926a1.665 1.665 0 01-1.298 1.638v.084a1.663 1.663 0 011.589 1.732 2.396 2.396 0 01-1.728 2.057c-.306.086-.626.11-.94.071a2.373 2.373 0 01-2.685-2.118h1.066c.064.685.692 1.126 1.618 1.126.927 0 1.531-.496 1.531-1.196 0-.71-.57-1.146-1.565-1.146h-.986v-.972zM49.093 16.109c0-.973.724-1.534 2.006-1.613l1.46-.085v-.466c0-.57-.375-.893-1.104-.893-.594 0-1.004.219-1.123.6h-1.03c.108-.927.98-1.523 2.204-1.523 1.352 0 2.114.675 2.114 1.816v3.692h-1.026v-.76h-.084a1.815 1.815 0 01-1.62.849 1.626 1.626 0 01-1.654-.956 1.636 1.636 0 01-.143-.661zm3.466-.462v-.452l-1.316.085c-.743.05-1.08.303-1.08.779 0 .486.421.77 1 .77a1.27 1.27 0 001.396-1.182zM56.444 13.13v4.507h-1.065v-5.404h3.551v.898h-2.486zM65.38 14.933c0 1.717-.866 2.793-2.227 2.793a1.754 1.754 0 01-1.66-.907h-.084v2.614h-1.064v-7.2h1.024v.893h.08a1.876 1.876 0 011.693-.982c1.372 0 2.239 1.072 2.239 2.789zm-1.094 0c0-1.142-.54-1.831-1.44-1.831-.897 0-1.457.704-1.457 1.836 0 1.126.56 1.83 1.451 1.83.907 0 1.446-.689 1.446-1.835zM66.797 19.572v-.918c.116.015.232.021.348.02a.921.921 0 00.975-.754l.08-.263-1.952-5.424h1.159l1.352 4.292h.084l1.347-4.292h1.129l-2.01 5.627c-.461 1.315-.971 1.737-2.07 1.737-.09 0-.342-.01-.442-.025zM72.148 16.103h1.06c.104.476.55.725 1.173.725.709 0 1.144-.313 1.144-.8 0-.52-.39-.769-1.144-.769h-.807v-.828h.793c.643 0 .97-.248.97-.7 0-.397-.316-.7-.97-.7-.595 0-1.03.254-1.1.68h-1.025a1.894 1.894 0 012.125-1.582c1.282 0 2.015.58 2.015 1.493a1.111 1.111 0 01-.851 1.106v.085a1.21 1.21 0 011.054 1.216c0 1.027-.872 1.706-2.204 1.706-1.178 0-2.134-.54-2.233-1.632zM78.118 17.637v-5.404h1.055v3.717h.084l2.485-3.717h1.055v5.404h-1.055V13.9h-.08l-2.49 3.737h-1.054zM88.607 13.13h-1.698v4.507h-1.066V13.13h-1.698v-.898h4.462v.898zM94.34 16.178a2.196 2.196 0 01-2.338 1.563 2.445 2.445 0 01-2.407-1.736c-.103-.34-.132-.7-.084-1.053a2.497 2.497 0 011.452-2.607c.326-.145.679-.219 1.035-.216 1.5 0 2.407 1.027 2.407 2.724v.372h-3.808v.06a1.431 1.431 0 00.858 1.433c.182.078.38.117.578.115a1.29 1.29 0 001.282-.655h1.025zm-3.743-1.741h2.722a1.306 1.306 0 00-1.326-1.4 1.377 1.377 0 00-1.396 1.4zM98.853 12.233h2.431c1.055 0 1.674.536 1.674 1.374a1.165 1.165 0 01-.911 1.142v.084a1.233 1.233 0 011.153 1.246c0 .942-.708 1.558-1.891 1.558h-2.456v-5.404zm1.055.819v1.399h1.055c.643 0 .95-.248.95-.705 0-.421-.267-.694-.832-.694h-1.173zm0 2.183v1.583h1.262c.629 0 .966-.278.966-.79 0-.54-.382-.793-1.1-.793h-1.128z" fill="#1B202A"/><defs><filter id="filter0_b" x="-7.445" y="-7.643" width="158.591" height="63.286" filterUnits="userSpaceOnUse" color-interpolation-filters="sRGB"><feFlood flood-opacity="0" result="BackgroundImageFix"/><feGaussianBlur in="BackgroundImage" stdDeviation="3.821"/><feComposite in2="SourceAlpha" operator="in" result="effect1_backgroundBlur"/><feBlend in="SourceGraphic" in2="effect1_backgroundBlur" result="shape"/></filter></defs></svg>