<svg width="212" height="64" fill="none" xmlns="http://www.w3.org/2000/svg"><g filter="url(#filter0_b)"><rect width="211.452" height="64" rx="11.464" fill="#fff" fill-opacity=".15"/></g><path d="M106.57 34.118c-3.675 0-6.678 2.807-6.678 6.666 0 3.843 3.003 6.667 6.678 6.667 3.676 0 6.679-2.824 6.679-6.667 0-3.858-3.003-6.666-6.679-6.666zm0 10.713c-2.017 0-3.753-1.662-3.753-4.047 0-2.4 1.736-4.047 3.753-4.047 2.018 0 3.754 1.647 3.754 4.047 0 2.385-1.752 4.047-3.754 4.047zM91.994 34.118c-3.675 0-6.678 2.807-6.678 6.666 0 3.843 3.002 6.667 6.678 6.667 3.675 0 6.678-2.824 6.678-6.667 0-3.858-3.003-6.666-6.678-6.666zm0 10.713c-2.018 0-3.754-1.662-3.754-4.047 0-2.4 1.736-4.047 3.754-4.047 2.017 0 3.754 1.647 3.754 4.047 0 2.385-1.737 4.047-3.754 4.047zm-17.33-8.658v2.823h6.757c-.203 1.584-.735 2.76-1.532 3.56-.986.99-2.518 2.072-5.209 2.072-4.16 0-7.413-3.357-7.413-7.53 0-4.172 3.253-7.53 7.413-7.53 2.237 0 3.88.88 5.083 2.024L81.75 29.6c-1.69-1.616-3.926-2.855-7.085-2.855-5.693 0-10.479 4.643-10.479 10.369 0 5.71 4.786 10.368 10.479 10.368 3.08 0 5.396-1.004 7.21-2.902 1.861-1.866 2.44-4.502 2.44-6.62 0-.658-.047-1.27-.157-1.772h-9.493v-.015zm70.866 2.196c-.548-1.49-2.237-4.251-5.693-4.251-3.426 0-6.272 2.698-6.272 6.666 0 3.734 2.815 6.667 6.6 6.667 3.05 0 4.817-1.867 5.537-2.949l-2.268-1.522c-.751 1.114-1.783 1.851-3.269 1.851-1.486 0-2.549-.69-3.222-2.023l8.899-3.686-.312-.753zm-9.072 2.227c-.078-2.572 1.987-3.89 3.472-3.89 1.158 0 2.143.58 2.472 1.412l-5.944 2.478zm-7.225 6.463h2.924V27.45h-2.924v19.608zm-4.786-11.451h-.11c-.657-.784-1.908-1.49-3.503-1.49-3.331 0-6.381 2.933-6.381 6.698 0 3.733 3.05 6.65 6.381 6.65 1.58 0 2.846-.705 3.503-1.52h.094v.956c0 2.557-1.36 3.922-3.55 3.922-1.783 0-2.893-1.287-3.347-2.37l-2.549 1.068c.735 1.772 2.674 3.937 5.896 3.937 3.425 0 6.318-2.024 6.318-6.95V34.527h-2.768v1.082h.016zm-3.363 9.223c-2.017 0-3.706-1.694-3.706-4.015 0-2.353 1.689-4.063 3.706-4.063 1.987 0 3.551 1.725 3.551 4.063.015 2.321-1.549 4.015-3.551 4.015zm38.146-17.38h-6.991v19.608h2.925v-7.435h4.082c3.237 0 6.412-2.353 6.412-6.087 0-3.733-3.206-6.086-6.428-6.086zm.063 9.443h-4.145v-6.73h4.145c2.189 0 3.425 1.82 3.425 3.358 0 1.537-1.236 3.372-3.425 3.372zm18.048-2.808c-2.111 0-4.301.942-5.208 2.996l2.596 1.083c.548-1.083 1.58-1.443 2.659-1.443 1.502 0 3.05.91 3.066 2.525v.204c-.532-.298-1.658-.753-3.05-.753-2.8 0-5.631 1.537-5.631 4.408 0 2.62 2.284 4.314 4.849 4.314 1.955 0 3.05-.879 3.722-1.914h.094v1.522h2.815v-7.514c.016-3.483-2.58-5.428-5.912-5.428zm-.36 10.745c-.954 0-2.283-.486-2.283-1.662 0-1.506 1.658-2.087 3.097-2.087 1.282 0 1.892.283 2.659.66-.219 1.803-1.783 3.09-3.473 3.09zm16.548-10.321l-3.347 8.502h-.094l-3.472-8.502h-3.144l5.208 11.89-2.971 6.604h3.049l8.024-18.494h-3.253zm-26.276 12.549h2.925V27.45h-2.925v19.608z" fill="#fff"/><path opacity=".8" d="M16.328 11.827c-.454.487-.72 1.24-.72 2.196v34.698c0 .973.266 1.726.72 2.197l.11.11 19.377-19.42v-.471l-19.378-19.42-.11.11z" fill="#fff"/><path opacity=".6" d="M42.275 38.086l-6.46-6.478v-.471l6.46-6.478.141.078 7.648 4.36c2.19 1.24 2.19 3.28 0 4.534l-7.648 4.361-.14.094z" fill="#fff"/><path d="M42.416 37.992l-6.6-6.62-19.488 19.546c.72.768 1.908.862 3.253.094l22.835-13.02z" fill="#fff"/><path opacity=".4" d="M42.417 24.753l-22.85-13.02c-1.345-.768-2.534-.674-3.253.094l19.502 19.545 6.6-6.62z" fill="#fff"/><path opacity=".12" d="M50.063 33.412L42.26 37.85l.14.141 7.648-4.36c1.095-.628 1.643-1.444 1.643-2.26-.078.738-.626 1.475-1.627 2.04z" fill="#fff"/><path opacity=".6" d="M19.566 11.952l30.498 17.38c.985.565 1.548 1.287 1.642 2.04 0-.816-.548-1.647-1.642-2.26l-30.498-17.38c-2.19-1.239-3.973-.203-3.973 2.307v.235c0-2.526 1.799-3.561 3.973-2.322z" fill="#fff"/><path d="M65.86 22.384h-1.158v-3.153h.923c.813-.706 1.204-1.898 1.189-3.608V10.98h6.271v8.251h1.048v3.153h-1.157v-1.992h-7.117v1.992zm2.174-6.745c.015 1.49-.282 2.682-.892 3.608h4.739V12.14h-3.847v3.498zM83.533 19.168c-.923.957-2.064 1.428-3.44 1.428-1.377 0-2.519-.47-3.442-1.428-.922-.957-1.376-2.117-1.376-3.482 0-1.365.454-2.541 1.376-3.482.923-.957 2.065-1.428 3.441-1.428 1.36 0 2.503.47 3.441 1.428.923.956 1.392 2.117 1.392 3.482 0 1.38-.47 2.541-1.392 3.482zm-5.99-.784c.688.706 1.548 1.05 2.55 1.05 1 0 1.86-.344 2.549-1.05.688-.706 1.047-1.6 1.047-2.698 0-1.098-.344-1.992-1.047-2.698-.689-.706-1.549-1.051-2.55-1.051-1 0-1.86.345-2.55 1.05-.687.707-1.047 1.6-1.047 2.699 0 1.098.36 1.992 1.048 2.698zM90.993 20.596c-1.377 0-2.534-.47-3.472-1.412-.939-.941-1.408-2.102-1.408-3.514 0-1.411.47-2.572 1.407-3.513.939-.941 2.096-1.412 3.473-1.412 1.407 0 2.565.518 3.44 1.537l-.844.816c-.641-.8-1.502-1.192-2.612-1.192-1.017 0-1.892.345-2.596 1.035-.704.69-1.048 1.6-1.048 2.714 0 1.113.344 2.023 1.048 2.713.704.69 1.564 1.036 2.596 1.036 1.126 0 2.08-.455 2.878-1.365l.844.847c-.422.518-.97.925-1.61 1.224-.642.345-1.346.486-2.096.486zM99.595 20.392h-1.204v-8.251h-2.628v-1.16h6.444v1.16h-2.628v8.251h.016zM110.496 10.98l-3.55 7.938c-.485 1.113-1.22 1.678-2.19 1.678-.281 0-.594-.063-.938-.204l.312-1.114a1.3 1.3 0 00.626.173c.282 0 .501-.047.657-.157.156-.11.297-.314.422-.596l.344-.753-3.159-6.965h1.423l2.315 5.396h.047l2.268-5.396h1.423zM111.856 20.392V10.98h6.788v9.412h-1.204v-8.251h-4.379v8.251h-1.205zM120.787 20.392V10.98h1.204v4.032h4.692V10.98h1.205v9.412h-1.205v-4.251h-4.692v4.251h-1.204zM137.724 19.168c-.923.957-2.065 1.428-3.441 1.428s-2.518-.47-3.441-1.428c-.922-.957-1.376-2.117-1.376-3.482 0-1.365.454-2.541 1.376-3.482.923-.957 2.065-1.428 3.441-1.428 1.361 0 2.503.47 3.441 1.428.923.956 1.392 2.117 1.392 3.482-.016 1.38-.469 2.541-1.392 3.482zm-5.99-.784c.688.706 1.548 1.05 2.549 1.05s1.861-.344 2.549-1.05c.689-.706 1.048-1.6 1.048-2.698 0-1.098-.344-1.992-1.048-2.698-.688-.706-1.548-1.051-2.549-1.051s-1.861.345-2.549 1.05c-.688.707-1.048 1.6-1.048 2.699 0 1.098.344 1.992 1.048 2.698zM144.028 20.392V10.98h3.394c.735 0 1.376.251 1.908.722.532.486.813 1.098.813 1.835 0 .455-.109.847-.344 1.177a2.113 2.113 0 01-.923.768v.047c.469.157.845.424 1.142.816.297.392.454.831.454 1.349 0 .769-.282 1.412-.845 1.914a2.933 2.933 0 01-2.002.768h-3.597v.016zm1.204-5.38h2.19c.453 0 .813-.157 1.095-.455.281-.298.406-.628.406-.989 0-.36-.125-.69-.406-.988-.266-.298-.61-.455-1.048-.455h-2.237v2.887zm0 4.22h2.424c.47 0 .845-.158 1.126-.487.282-.33.438-.675.438-1.067 0-.392-.14-.737-.453-1.05-.297-.314-.688-.487-1.173-.487h-2.378v3.09h.016z" fill="#fff" stroke="#fff" stroke-width=".255" stroke-miterlimit="10"/><defs><filter id="filter0_b" x="-10.191" y="-10.191" width="231.833" height="84.381" filterUnits="userSpaceOnUse" color-interpolation-filters="sRGB"><feFlood flood-opacity="0" result="BackgroundImageFix"/><feGaussianBlur in="BackgroundImage" stdDeviation="5.095"/><feComposite in2="SourceAlpha" operator="in" result="effect1_backgroundBlur"/><feBlend in="SourceGraphic" in2="effect1_backgroundBlur" result="shape"/></filter></defs></svg>