<svg width="160" height="49" fill="none" xmlns="http://www.w3.org/2000/svg"><g filter="url(#filter0_b)"><rect x=".5" y=".001" width="158.591" height="48" rx="8.598" fill="#1B202A" fill-opacity=".15"/></g><path d="M80.428 25.589c-2.756 0-5.009 2.106-5.009 5 0 2.882 2.253 5 5.01 5 2.756 0 5.008-2.118 5.008-5 0-2.894-2.252-5-5.009-5zm0 8.035c-1.513 0-2.815-1.247-2.815-3.035 0-1.8 1.302-3.035 2.815-3.035s2.815 1.235 2.815 3.035c0 1.788-1.313 3.035-2.815 3.035zM69.496 25.59c-2.757 0-5.009 2.106-5.009 5 0 2.882 2.252 5 5.009 5 2.756 0 5.008-2.118 5.008-5 0-2.894-2.252-5-5.008-5zm0 8.035c-1.513 0-2.816-1.247-2.816-3.035 0-1.8 1.302-3.035 2.816-3.035 1.513 0 2.815 1.235 2.815 3.035 0 1.788-1.302 3.035-2.815 3.035zM56.499 27.13v2.118h5.067c-.152 1.188-.551 2.07-1.15 2.67-.738.742-1.888 1.553-3.905 1.553-3.12 0-5.56-2.517-5.56-5.647 0-3.13 2.44-5.647 5.56-5.647 1.677 0 2.909.66 3.812 1.518l1.49-1.494c-1.267-1.212-2.945-2.141-5.314-2.141-4.27 0-7.86 3.482-7.86 7.776 0 4.282 3.59 7.777 7.86 7.777 2.31 0 4.047-.753 5.407-2.177 1.396-1.4 1.83-3.376 1.83-4.965 0-.494-.035-.953-.117-1.329h-7.12v-.012zm53.149 1.647c-.411-1.117-1.678-3.188-4.27-3.188-2.569 0-4.704 2.024-4.704 5 0 2.8 2.112 5 4.95 5 2.288 0 3.613-1.4 4.153-2.212l-1.701-1.14c-.563.834-1.337 1.387-2.452 1.387-1.114 0-1.912-.517-2.416-1.517l6.674-2.765-.234-.565zm-6.804 1.67c-.058-1.928 1.49-2.917 2.604-2.917.868 0 1.607.435 1.854 1.059l-4.458 1.859zm-5.419 4.848h2.194V20.589h-2.194v14.706zm-3.59-8.588h-.081c-.493-.589-1.432-1.118-2.628-1.118-2.499 0-4.786 2.2-4.786 5.024 0 2.8 2.287 4.988 4.786 4.988 1.185 0 2.135-.53 2.627-1.141h.07v.717c0 1.918-1.02 2.941-2.662 2.941-1.337 0-2.17-.964-2.51-1.776l-1.912.8c.551 1.33 2.006 2.953 4.422 2.953 2.57 0 4.74-1.518 4.74-5.212v-8.988h-2.077v.812h.012zm-2.521 6.917c-1.513 0-2.78-1.27-2.78-3.011 0-1.765 1.266-3.047 2.78-3.047 1.49 0 2.662 1.294 2.662 3.047.012 1.74-1.16 3.011-2.662 3.011zm28.609-13.035h-5.243v14.706h2.193v-5.577h3.062c2.428 0 4.809-1.764 4.809-4.564s-2.404-4.565-4.821-4.565zm.047 7.082h-3.108v-5.047h3.108c1.642 0 2.569 1.365 2.569 2.518 0 1.153-.927 2.53-2.569 2.53zm13.537-2.105c-1.584 0-3.226.705-3.906 2.247l1.947.811c.41-.811 1.185-1.082 1.994-1.082 1.126 0 2.287.682 2.299 1.894v.153c-.399-.223-1.243-.565-2.287-.565-2.1 0-4.223 1.153-4.223 3.306 0 1.965 1.712 3.236 3.636 3.236 1.466 0 2.288-.66 2.792-1.436h.07v1.142h2.112v-5.636c.011-2.612-1.936-4.07-4.434-4.07zm-.27 8.058c-.716 0-1.713-.364-1.713-1.247 0-1.13 1.244-1.564 2.323-1.564.962 0 1.419.211 1.994.494a2.65 2.65 0 01-2.604 2.317zm12.41-7.74l-2.51 6.376h-.07l-2.604-6.377h-2.358l3.906 8.918-2.229 4.953h2.288l6.017-13.87h-2.44zm-19.706 9.411h2.193V20.589h-2.193v14.706z" fill="#1B202A"/><path opacity=".8" d="M12.746 8.872c-.34.365-.54.93-.54 1.647v26.024c0 .73.2 1.294.54 1.647l.082.082 14.534-14.564v-.353L12.828 8.79l-.082.082z" fill="#1B202A"/><path opacity=".6" d="M32.207 28.566l-4.844-4.86v-.352l4.844-4.86.106.06 5.736 3.27c1.642.93 1.642 2.46 0 3.4l-5.736 3.271-.106.07z" fill="#1B202A"/><path d="M32.313 28.496l-4.95-4.965L12.747 38.19c.54.576 1.43.647 2.44.07l17.126-9.764z" fill="#1B202A"/><path opacity=".4" d="M32.313 18.566L15.175 8.801c-1.009-.576-1.9-.506-2.44.07l14.628 14.66 4.95-4.965z" fill="#1B202A"/><path opacity=".12" d="M38.047 25.06l-5.853 3.33.105.106 5.736-3.27c.822-.471 1.232-1.083 1.232-1.695-.059.553-.47 1.106-1.22 1.53z" fill="#1B202A"/><path opacity=".6" d="M15.174 8.965l22.874 13.036c.739.423 1.16.964 1.231 1.53 0-.613-.41-1.236-1.231-1.695L15.174 8.801c-1.642-.93-2.98-.153-2.98 1.729v.177c0-1.895 1.35-2.671 2.98-1.742z" fill="#1B202A"/><path d="M49.895 16.789h-.868v-2.365h.692c.61-.53.903-1.423.892-2.706V8.236h4.703v6.188h.786v2.365h-.868v-1.494h-5.337v1.494zm1.63-5.059c.012 1.118-.21 2.012-.668 2.706h3.554v-5.33h-2.885v2.624zM63.15 14.377c-.692.718-1.549 1.07-2.581 1.07s-1.889-.352-2.58-1.07c-.693-.718-1.033-1.588-1.033-2.612 0-1.023.34-1.906 1.032-2.611.692-.718 1.549-1.071 2.58-1.071 1.021 0 1.878.353 2.582 1.07.692.718 1.044 1.589 1.044 2.612 0 1.036-.352 1.906-1.044 2.612zm-4.493-.588c.516.53 1.161.788 1.912.788.75 0 1.396-.259 1.912-.788.516-.53.786-1.2.786-2.024 0-.823-.258-1.494-.786-2.023-.516-.53-1.161-.788-1.912-.788-.75 0-1.396.258-1.912.788s-.786 1.2-.786 2.023c0 .824.27 1.494.786 2.024zM68.745 15.448c-1.032 0-1.9-.353-2.604-1.059-.704-.706-1.056-1.576-1.056-2.635 0-1.06.352-1.93 1.056-2.636.704-.705 1.572-1.058 2.604-1.058 1.056 0 1.924.388 2.58 1.153l-.633.611c-.48-.6-1.126-.894-1.958-.894-.763 0-1.42.259-1.948.777-.528.517-.786 1.2-.786 2.035 0 .835.258 1.518.786 2.035.528.518 1.173.777 1.948.777.844 0 1.56-.341 2.158-1.024l.633.636a3.373 3.373 0 01-1.208.917c-.48.259-1.009.365-1.572.365zM75.197 15.295h-.903V9.106h-1.971v-.87h4.833v.87h-1.97v6.189h.01zM83.373 8.236l-2.663 5.953c-.364.835-.915 1.259-1.642 1.259-.212 0-.446-.047-.704-.153l.234-.836c.153.083.305.13.47.13.21 0 .375-.036.492-.118.118-.082.223-.235.317-.447l.258-.565-2.37-5.223h1.068l1.736 4.047h.035l1.701-4.047h1.068zM84.393 15.295v-7.06h5.09v7.06h-.903V9.106h-3.284v6.189h-.903zM91.091 15.295v-7.06h.904v3.024h3.518V8.236h.904v7.059h-.904v-3.188h-3.519v3.188h-.903zM103.794 14.377c-.692.718-1.549 1.07-2.581 1.07s-1.888-.352-2.58-1.07c-.692-.718-1.033-1.588-1.033-2.612 0-1.023.34-1.906 1.033-2.611.692-.718 1.548-1.071 2.58-1.071 1.021 0 1.877.353 2.581 1.07.692.718 1.044 1.589 1.044 2.612-.012 1.036-.352 1.906-1.044 2.612zm-4.493-.588c.516.53 1.161.788 1.912.788.751 0 1.396-.259 1.912-.788.516-.53.786-1.2.786-2.024 0-.823-.258-1.494-.786-2.023-.516-.53-1.161-.788-1.912-.788-.751 0-1.396.258-1.912.788s-.786 1.2-.786 2.023c0 .824.258 1.494.786 2.024zM108.521 15.295v-7.06h2.546c.551 0 1.032.19 1.431.542.399.365.61.824.61 1.377 0 .34-.082.635-.258.882a1.584 1.584 0 01-.692.576v.036c.352.117.633.317.856.611.223.294.34.624.34 1.012 0 .577-.211 1.059-.633 1.435a2.2 2.2 0 01-1.502.577h-2.698v.012zm.904-4.036h1.642c.34 0 .61-.117.821-.34.211-.224.305-.471.305-.742 0-.27-.094-.518-.305-.741a1 1 0 00-.786-.341h-1.677v2.164zm0 3.165h1.818c.352 0 .633-.117.844-.365.212-.247.329-.505.329-.8 0-.294-.106-.553-.34-.788a1.165 1.165 0 00-.88-.364h-1.783v2.317h.012z" fill="#1B202A" stroke="#1B202A" stroke-width=".191" stroke-miterlimit="10"/><defs><filter id="filter0_b" x="-7.143" y="-7.642" width="173.876" height="63.286" filterUnits="userSpaceOnUse" color-interpolation-filters="sRGB"><feFlood flood-opacity="0" result="BackgroundImageFix"/><feGaussianBlur in="BackgroundImage" stdDeviation="3.821"/><feComposite in2="SourceAlpha" operator="in" result="effect1_backgroundBlur"/><feBlend in="SourceGraphic" in2="effect1_backgroundBlur" result="shape"/></filter></defs></svg>