<svg width="190" height="56" fill="none" xmlns="http://www.w3.org/2000/svg"><path d="M183.24 56H6.656C2.986 56 0 53.02 0 49.374V6.616C0 2.968 2.987 0 6.656 0H183.24c3.668 0 6.76 2.968 6.76 6.616v42.758c0 3.647-3.092 6.626-6.76 6.626z" fill="#A6A6A6"/><path d="M188.638 49.375c0 2.963-2.413 5.362-5.396 5.362H6.656c-2.983 0-5.403-2.4-5.403-5.362V6.615c0-2.961 2.42-5.369 5.403-5.369H183.24c2.985 0 5.396 2.408 5.396 5.369l.002 42.76z" fill="#000"/><path d="M42.402 27.698c-.04-4.512 3.715-6.708 3.886-6.81-2.126-3.084-5.422-3.506-6.58-3.54-2.77-.289-5.454 1.649-6.865 1.649-1.438 0-3.61-1.62-5.95-1.573-3.012.047-5.83 1.781-7.375 4.475-3.19 5.492-.81 13.563 2.245 18.002 1.528 2.175 3.314 4.602 5.652 4.517 2.287-.094 3.141-1.45 5.901-1.45 2.735 0 3.537 1.45 5.921 1.395 2.455-.039 4-2.184 5.475-4.377 1.766-2.492 2.475-4.947 2.504-5.073-.058-.02-4.767-1.807-4.814-7.215zM37.899 14.428c1.23-1.53 2.071-3.612 1.838-5.724-1.78.078-4.007 1.225-5.29 2.721-1.134 1.32-2.147 3.48-1.885 5.514 2 .148 4.053-1.004 5.337-2.51zM75.5 44.106h-3.196l-1.75-5.473h-6.086L62.8 44.106h-3.112l6.03-18.632h3.724L75.5 44.106zm-5.474-7.769l-1.584-4.865c-.167-.497-.481-1.667-.944-3.51h-.056c-.185.793-.482 1.963-.89 3.51l-1.555 4.865h5.029zM91.006 37.223c0 2.285-.62 4.091-1.862 5.417-1.112 1.18-2.493 1.77-4.14 1.77-1.78 0-3.058-.636-3.836-1.907h-.056v7.077h-3V35.094c0-1.437-.039-2.91-.112-4.423h2.639l.167 2.13h.057c1-1.605 2.519-2.406 4.557-2.406 1.593 0 2.923.626 3.987 1.88 1.067 1.254 1.599 2.903 1.599 4.948zm-3.057.11c0-1.308-.296-2.386-.89-3.235-.648-.884-1.52-1.327-2.612-1.327-.74 0-1.413.247-2.014.732-.602.49-.996 1.13-1.18 1.923-.093.37-.14.672-.14.91v2.24c0 .977.301 1.801.904 2.475.602.673 1.385 1.01 2.347 1.01 1.13 0 2.01-.435 2.64-1.3.63-.867.945-2.009.945-3.429zM106.539 37.223c0 2.285-.62 4.091-1.863 5.417-1.111 1.18-2.491 1.77-4.139 1.77-1.78 0-3.057-.636-3.834-1.907h-.056v7.077h-3V35.094c0-1.437-.039-2.91-.112-4.423h2.639l.167 2.13h.057c.999-1.605 2.517-2.406 4.557-2.406 1.592 0 2.922.626 3.988 1.88 1.063 1.254 1.596 2.903 1.596 4.948zm-3.057.11c0-1.308-.297-2.386-.89-3.235-.649-.884-1.518-1.327-2.611-1.327-.742 0-1.413.247-2.016.732-.602.49-.995 1.13-1.179 1.923-.091.37-.14.672-.14.91v2.24c0 .977.302 1.801.901 2.475.603.672 1.385 1.01 2.35 1.01 1.131 0 2.011-.435 2.64-1.3.63-.867.945-2.009.945-3.429zM123.907 38.88c0 1.586-.553 2.875-1.664 3.87-1.22 1.088-2.919 1.631-5.102 1.631-2.015 0-3.631-.386-4.854-1.16l.695-2.488a8.26 8.26 0 0 0 4.338 1.19c1.13 0 2.01-.255 2.642-.762.629-.506.943-1.187.943-2.035 0-.756-.259-1.393-.779-1.91-.516-.516-1.379-.997-2.584-1.44-3.279-1.217-4.917-3-4.917-5.343 0-1.531.574-2.787 1.724-3.764 1.146-.979 2.674-1.468 4.585-1.468 1.705 0 3.121.296 4.251.885l-.75 2.433c-1.056-.57-2.249-.856-3.585-.856-1.056 0-1.88.259-2.471.774-.5.46-.751 1.022-.751 1.687 0 .736.286 1.345.86 1.824.5.442 1.408.921 2.725 1.438 1.612.645 2.795 1.4 3.557 2.265.758.862 1.137 1.942 1.137 3.23zM133.828 32.911h-3.308v6.523c0 1.659.583 2.488 1.751 2.488.536 0 .981-.046 1.333-.139l.083 2.267c-.591.22-1.37.33-2.334.33-1.185 0-2.111-.36-2.779-1.078-.666-.72-1.001-1.926-1.001-3.622v-6.772h-1.97v-2.24h1.97v-2.46l2.947-.884v3.345h3.308v2.242zM148.75 37.278c0 2.065-.594 3.76-1.779 5.086-1.242 1.365-2.892 2.046-4.948 2.046-1.982 0-3.559-.654-4.736-1.962-1.177-1.307-1.765-2.958-1.765-4.947 0-2.082.605-3.787 1.82-5.113 1.212-1.327 2.847-1.991 4.903-1.991 1.982 0 3.576.654 4.78 1.963 1.151 1.27 1.725 2.909 1.725 4.918zm-3.113.096c0-1.239-.266-2.301-.805-3.187-.629-1.073-1.528-1.607-2.694-1.607-1.206 0-2.122.536-2.751 1.607-.539.887-.805 1.967-.805 3.244 0 1.239.266 2.301.805 3.186.649 1.072 1.555 1.607 2.725 1.607 1.145 0 2.045-.546 2.693-1.635.553-.903.832-1.977.832-3.215zM158.504 33.296a5.241 5.241 0 0 0-.946-.082c-1.056 0-1.872.396-2.446 1.19-.5.7-.75 1.584-.75 2.653v7.049h-3l.029-9.204c0-1.548-.038-2.958-.113-4.23h2.614l.109 2.571h.083c.317-.883.817-1.595 1.501-2.128.668-.48 1.39-.72 2.168-.72.278 0 .528.02.751.055v2.846zM171.923 36.753c0 .535-.035.985-.11 1.354h-9.001c.035 1.327.47 2.342 1.306 3.042.758.626 1.739.94 2.944.94 1.333 0 2.549-.212 3.642-.636l.471 2.072c-1.278.554-2.787.83-4.528.83-2.094 0-3.738-.613-4.934-1.838-1.194-1.225-1.792-2.87-1.792-4.934 0-2.026.556-3.713 1.669-5.058 1.165-1.437 2.74-2.155 4.722-2.155 1.946 0 3.42.718 4.421 2.155.792 1.14 1.19 2.552 1.19 4.228zm-2.861-.774c.02-.885-.176-1.65-.583-2.295-.519-.83-1.317-1.245-2.391-1.245-.981 0-1.779.405-2.388 1.217-.5.645-.797 1.42-.888 2.321h6.25v.002zM69.033 14.013c0 1.648-.496 2.888-1.489 3.72-.919.77-2.225 1.154-3.916 1.154-.84 0-1.557-.036-2.158-.109V9.775c.784-.126 1.628-.19 2.54-.19 1.612 0 2.826.348 3.645 1.045.918.788 1.378 1.915 1.378 3.383zm-1.555.04c0-1.068-.284-1.887-.853-2.458-.568-.57-1.399-.856-2.492-.856-.465 0-.86.031-1.188.096v6.844c.181.028.514.04.996.04 1.13 0 2-.311 2.614-.936.613-.624.923-1.534.923-2.73zM77.28 15.452c0 1.015-.292 1.847-.875 2.499-.61.67-1.42 1.005-2.43 1.005-.974 0-1.75-.32-2.328-.965-.577-.642-.866-1.453-.866-2.43 0-1.022.297-1.86.894-2.511.597-.652 1.399-.978 2.41-.978.973 0 1.756.32 2.349.964.562.624.845 1.43.845 2.416zm-1.53.047c0-.609-.133-1.13-.396-1.566-.31-.527-.75-.79-1.323-.79-.593 0-1.043.263-1.353.79-.264.435-.395.966-.395 1.593 0 .61.132 1.131.395 1.567.32.526.765.79 1.339.79.563 0 1.005-.268 1.323-.804.273-.444.41-.97.41-1.58zM88.336 12.207l-2.076 6.6h-1.351l-.86-2.866a21.334 21.334 0 0 1-.533-2.133h-.027a15.546 15.546 0 0 1-.534 2.133l-.913 2.865h-1.367l-1.952-6.6h1.516l.75 3.138c.182.742.331 1.45.45 2.118h.027c.11-.551.292-1.254.548-2.104l.941-3.15h1.202l.903 3.083c.218.752.395 1.476.531 2.173h.041c.1-.68.25-1.403.45-2.173l.806-3.083h1.448v-.001zM95.982 18.806h-1.475v-3.78c0-1.165-.444-1.747-1.337-1.747-.437 0-.79.16-1.065.48-.272.32-.41.699-.41 1.131v3.915H90.22v-4.713c0-.58-.018-1.208-.053-1.888h1.296l.07 1.032h.04c.172-.321.428-.586.764-.797.4-.246.847-.371 1.337-.371.62 0 1.135.199 1.544.598.51.488.764 1.218.764 2.187v3.953zM100.05 18.806h-1.474V9.178h1.474v9.628zM108.733 15.452c0 1.015-.291 1.847-.874 2.499-.61.67-1.421 1.005-2.43 1.005-.975 0-1.751-.32-2.328-.965-.577-.642-.866-1.453-.866-2.43 0-1.022.297-1.86.894-2.511.597-.652 1.399-.978 2.408-.978.976 0 1.757.32 2.351.964.563.624.845 1.43.845 2.416zm-1.531.047c0-.609-.132-1.13-.395-1.566-.308-.527-.75-.79-1.322-.79-.594 0-1.044.263-1.352.79-.265.435-.396.966-.396 1.593 0 .61.132 1.131.396 1.567.319.526.764.79 1.338.79.563 0 1.004-.268 1.322-.804.274-.444.409-.97.409-1.58zM115.872 18.806h-1.325l-.109-.76h-.041c-.453.606-1.099.91-1.938.91-.626 0-1.133-.2-1.514-.598-.347-.36-.52-.81-.52-1.344 0-.806.338-1.42 1.018-1.846.678-.426 1.632-.634 2.861-.625v-.123c0-.87-.459-1.303-1.378-1.303-.654 0-1.231.163-1.73.488l-.299-.963c.616-.38 1.378-.57 2.275-.57 1.734 0 2.604.91 2.604 2.73v2.43c0 .66.033 1.185.096 1.574zm-1.531-2.268V15.52c-1.627-.027-2.441.416-2.441 1.33 0 .345.093.602.283.775.19.172.432.257.721.257.323 0 .626-.102.902-.305a1.253 1.253 0 0 0 .535-1.039zM124.253 18.806h-1.309l-.069-1.06h-.041c-.418.807-1.13 1.21-2.131 1.21-.799 0-1.465-.312-1.992-.936-.528-.625-.791-1.436-.791-2.43 0-1.07.285-1.934.86-2.595.555-.616 1.237-.924 2.047-.924.891 0 1.515.298 1.869.896h.029V9.178h1.476v7.85c0 .643.017 1.235.052 1.778zm-1.528-2.783v-1.1c0-.19-.015-.345-.041-.462a1.668 1.668 0 0 0-.534-.89 1.453 1.453 0 0 0-.986-.36c-.551 0-.981.218-1.298.653-.314.436-.473.991-.473 1.67 0 .653.151 1.182.453 1.59.32.434.751.65 1.29.65.484 0 .871-.18 1.165-.543.284-.334.424-.738.424-1.208zM136.868 15.452c0 1.015-.292 1.847-.874 2.499-.611.67-1.419 1.005-2.431 1.005-.973 0-1.748-.32-2.328-.965-.577-.642-.865-1.453-.865-2.43 0-1.022.297-1.86.893-2.511.597-.652 1.399-.978 2.411-.978.973 0 1.757.32 2.348.964.563.624.846 1.43.846 2.416zm-1.529.047c0-.609-.132-1.13-.395-1.566-.311-.527-.751-.79-1.325-.79-.591 0-1.041.263-1.352.79-.265.435-.396.966-.396 1.593 0 .61.133 1.131.396 1.567.319.526.764.79 1.338.79.563 0 1.006-.268 1.325-.804.271-.444.409-.97.409-1.58zM144.798 18.806h-1.473v-3.78c0-1.165-.445-1.747-1.339-1.747-.437 0-.791.16-1.064.48-.273.32-.409.699-.409 1.131v3.915h-1.477v-4.713c0-.58-.017-1.208-.052-1.888h1.295l.069 1.032h.041c.173-.321.429-.586.764-.797a2.507 2.507 0 0 1 1.339-.371c.617 0 1.133.199 1.542.598.511.488.764 1.218.764 2.187v3.953zM154.725 13.306h-1.624v3.206c0 .814.288 1.222.86 1.222.264 0 .484-.023.657-.069l.038 1.113c-.292.11-.674.164-1.146.164-.583 0-1.036-.176-1.364-.53-.329-.352-.492-.945-.492-1.778v-3.328h-.97v-1.1h.97v-1.209l1.445-.434v1.642h1.624v1.1h.002zM162.533 18.806h-1.476v-3.752c0-1.183-.445-1.775-1.336-1.775-.684 0-1.151.343-1.407 1.03-.044.143-.069.32-.069.527v3.969h-1.474V9.178h1.474v3.978h.028c.464-.724 1.13-1.085 1.993-1.085.611 0 1.116.199 1.517.598.5.497.75 1.236.75 2.213v3.924zM170.588 15.194c0 .263-.02.485-.055.665h-4.424c.02.653.231 1.15.641 1.494.374.308.857.462 1.448.462.654 0 1.251-.104 1.789-.312l.23 1.02c-.629.27-1.369.407-2.226.407-1.027 0-1.837-.302-2.422-.904-.589-.602-.88-1.41-.88-2.423 0-.995.272-1.824.819-2.485.572-.706 1.344-1.058 2.32-1.058.954 0 1.679.352 2.169 1.058.395.56.591 1.253.591 2.076zm-1.408-.38c.011-.434-.086-.81-.286-1.126-.256-.408-.646-.612-1.173-.612-.482 0-.874.199-1.174.598-.245.318-.39.697-.438 1.14h3.071z" fill="#fff"/></svg>