<svg width="58" height="58" fill="none" xmlns="http://www.w3.org/2000/svg"><g clip-path="url(#clip0)"><rect width="58" height="58" rx="12.348" fill="#fff"/><rect width="58" height="58" rx="12.348" fill="url(#paint0_linear)"/><path fill-rule="evenodd" clip-rule="evenodd" d="M0 44.803v.85C0 52.471 5.528 58 12.348 58h33.304C52.472 58 58 52.472 58 45.652v-.85c0 6.82-5.528 12.348-12.348 12.348H12.348C5.528 57.15 0 51.622 0 44.803z" fill="#DA2849"/><path fill-rule="evenodd" clip-rule="evenodd" d="M58 13.197v-.85C58 5.529 52.472 0 45.652 0H12.348C5.528 0 0 5.528 0 12.348v.85C0 6.377 5.528.85 12.348.85h33.304C52.472.85 58 6.378 58 13.197z" fill="#FF8A8C"/><path d="M15.566 15.641V37.48c0 4.095 3.35 5.584 5.583 5.584h15.758c4.095 0 5.584-3.35 5.584-5.584v-2.481h2.481c4.095 0 5.584-3.35 5.584-5.584v-4.467c0-4.094-3.35-5.583-5.584-5.583h-2.481V15.64c0-.868-.745-1.489-1.49-1.489H17.18c-.869-.124-1.613.62-1.613 1.49zm29.406 6.825c.372 0 2.482.124 2.482 2.481v4.467c0 .372-.124 2.482-2.482 2.482h-2.481v-9.43h2.481zM18.667 17.13H39.39v20.35c0 .744-.249 2.48-2.482 2.48H21.149c-.372 0-2.482-.123-2.482-2.48V17.13z" fill="#fff"/></g><defs><linearGradient id="paint0_linear" x1="29" y1="0" x2="29" y2="58" gradientUnits="userSpaceOnUse"><stop stop-color="#F65F62"/><stop offset="1" stop-color="#F13E5F"/></linearGradient><clipPath id="clip0"><path fill="#fff" d="M0 0h58v58H0z"/></clipPath></defs></svg>