<svg width="120" height="24" fill="none" xmlns="http://www.w3.org/2000/svg"><path d="M108 17l-5.878 3.59 1.598-6.7-5.23-4.48 6.865-.55L108 2.5l2.645 6.36 6.866.55-5.231 4.48 1.598 6.7L108 17zM84 17l-5.878 3.59 1.598-6.7-5.23-4.48 6.865-.55L84 2.5l2.645 6.36 6.866.55-5.231 4.48 1.598 6.7L84 17zM60 17l-5.878 3.59 1.598-6.7-5.23-4.48 6.865-.55L60 2.5l2.645 6.36 6.866.55-5.231 4.48 1.598 6.7L60 17zM36 17l-5.878 3.59 1.598-6.7-5.23-4.48 6.865-.55L36 2.5l2.645 6.36 6.866.55-5.231 4.48 1.598 6.7L36 17zM12 17l-5.878 3.59 1.598-6.7-5.23-4.48 6.865-.55L12 2.5l2.645 6.36 6.866.55-5.231 4.48 1.598 6.7L12 17z" fill="#EFBC41"/></svg>