<svg width="387" height="328" fill="none" xmlns="http://www.w3.org/2000/svg"><g filter="url(#filter0_d)"><path d="M381 301.273V28.8c0-10.08 0-15.121-1.962-18.972a18 18 0 0 0-7.866-7.866C367.321 0 362.318 0 352.311 0H34.661c-9.988 0-14.982 0-18.833 1.962a18 18 0 0 0-7.866 7.866C6 13.678 6 18.71 6 28.77v272.503C6 309.407 13.556 316 24.653 316h337.694c11.097 0 18.653-6.593 18.653-14.727z" fill="#fff"/></g><path d="M296.723 281.512c.082 1.663 1.472 2.717 3.573 2.717 2.222 0 3.6-1.111 3.6-2.895 0-1.396-.781-2.171-2.641-2.59l-1.054-.241c-1.136-.26-1.599-.622-1.599-1.238 0-.781.698-1.288 1.752-1.288 1.002 0 1.713.507 1.828 1.314h1.568c-.077-1.575-1.467-2.679-3.39-2.679-2.05 0-3.409 1.104-3.409 2.767 0 1.365.781 2.19 2.444 2.565l1.187.273c1.174.273 1.676.66 1.676 1.32 0 .768-.781 1.32-1.86 1.32-1.162 0-1.974-.526-2.076-1.345h-1.599zm12.631-4.571c-.952 0-1.758.476-2.158 1.264h-.108v-1.149h-1.517v9.255h1.575v-3.365h.107c.356.737 1.124 1.168 2.121 1.168 1.751 0 2.843-1.371 2.843-3.586 0-2.228-1.104-3.587-2.863-3.587zm-.495 5.834c-1.072 0-1.739-.857-1.745-2.247.006-1.384.679-2.247 1.752-2.247 1.079 0 1.733.844 1.733 2.247s-.648 2.247-1.74 2.247zm7.313.101c-.698 0-1.2-.349-1.2-.933 0-.565.413-.882 1.295-.939l1.568-.102v.553c0 .806-.711 1.421-1.663 1.421zm-.464 1.238c.908 0 1.67-.393 2.057-1.066h.108V284h1.517v-4.742c0-1.472-1.003-2.342-2.786-2.342-1.651 0-2.8.781-2.927 2.006h1.486c.146-.47.641-.724 1.364-.724.851 0 1.308.381 1.308 1.06v.584l-1.79.108c-1.689.102-2.634.825-2.634 2.082 0 1.27.958 2.082 2.297 2.082zm5.58-.114h1.574v-4.012c0-.971.711-1.606 1.733-1.606.267 0 .686.045.806.089v-1.46a2.728 2.728 0 0 0-.653-.07c-.895 0-1.644.508-1.835 1.194h-.108v-1.079h-1.517V284zm7.154-4.113h-.108v-5.516h-1.574V284h1.574v-2.418l.559-.559 2.228 2.977h1.904l-2.958-3.967 2.767-2.977h-1.828l-2.564 2.831zm5.814 4.113h1.568v-6.944h-1.568V284zm.781-8.093c.521 0 .94-.419.94-.946a.944.944 0 0 0-.94-.952.948.948 0 0 0-.939.952c0 .527.425.946.939.946zm2.742 8.093h1.575v-4.043c0-1.022.59-1.67 1.529-1.67.959 0 1.403.533 1.403 1.593V284h1.574v-4.494c0-1.657-.844-2.59-2.393-2.59-1.034 0-1.733.476-2.063 1.251h-.108v-1.111h-1.517V284zm10.931-1.384c-1.098 0-1.72-.838-1.72-2.164 0-1.327.622-2.171 1.72-2.171 1.092 0 1.758.844 1.758 2.171 0 1.326-.66 2.164-1.758 2.164zm0 4.025c2.025 0 3.307-1.01 3.307-2.616v-6.969H350.5v1.111h-.108c-.381-.756-1.206-1.226-2.152-1.226-1.771 0-2.869 1.384-2.869 3.511 0 2.088 1.092 3.446 2.844 3.446.965 0 1.72-.406 2.12-1.148h.108v1.313c0 .87-.629 1.378-1.708 1.378-.863 0-1.422-.305-1.523-.781h-1.581c.127 1.194 1.295 1.981 3.079 1.981z" fill="#405360"/><rect opacity=".4" x="298" y="188" width="52" height="72" rx="8" fill="#B6B6B6"/><path d="M320.998 180h.73v-7.75h-.73c-.317.188-1.923 1.326-2.09 1.434v.778c.263-.171 1.826-1.283 2.02-1.391h.07V180zm2.959-5.607h.714c.011-.983.709-1.66 1.719-1.66.994 0 1.654.682 1.654 1.579 0 .704-.306 1.16-1.375 2.31L324 179.484V180h4.99v-.666h-3.959v-.064l2.02-2.106c1.364-1.418 1.745-2.057 1.745-2.922 0-1.235-1.025-2.154-2.363-2.154-1.429 0-2.465.962-2.476 2.305z" fill="#909BA4"/><path d="M245.083 276.199h1.853c1.041 0 1.676.584 1.676 1.536 0 .971-.597 1.53-1.638 1.53h-1.891v-3.066zm0 4.367h1.815l1.796 3.434h1.873l-2-3.688c1.092-.394 1.727-1.403 1.727-2.609 0-1.758-1.206-2.863-3.129-2.863h-3.72V284h1.638v-3.434zm9.813 3.574c2.076 0 3.339-1.359 3.339-3.612 0-2.247-1.27-3.612-3.339-3.612-2.063 0-3.339 1.371-3.339 3.612 0 2.253 1.257 3.612 3.339 3.612zm0-1.321c-1.098 0-1.727-.838-1.727-2.291 0-1.447.629-2.292 1.727-2.292 1.092 0 1.72.845 1.72 2.292 0 1.453-.622 2.291-1.72 2.291zm4.767-3.777c0 1.048.629 1.664 1.962 1.968l1.231.286c.66.146.958.393.958.787 0 .514-.552.863-1.345.863-.787 0-1.276-.304-1.428-.819h-1.556c.121 1.264 1.213 2.013 2.946 2.013s2.958-.889 2.958-2.222c0-1.022-.616-1.593-1.943-1.892l-1.225-.279c-.698-.159-1.028-.4-1.028-.793 0-.502.539-.845 1.257-.845.736 0 1.199.311 1.314.8h1.479c-.115-1.263-1.149-1.993-2.8-1.993-1.637 0-2.78.87-2.78 2.126zm10.233-.875c.945 0 1.567.66 1.599 1.688h-3.269c.07-1.016.73-1.688 1.67-1.688zm1.612 3.922c-.229.515-.768.8-1.549.8-1.035 0-1.701-.723-1.739-1.879v-.082h4.849v-.508c0-2.19-1.187-3.504-3.167-3.504-2.012 0-3.263 1.403-3.263 3.637 0 2.235 1.232 3.587 3.276 3.587 1.637 0 2.799-.787 3.085-2.051h-1.492z" fill="#405360"/><rect opacity=".4" x="233" y="180" width="52" height="80" rx="8" fill="#B6B6B6"/><path d="M255.767 172h.73v-7.75h-.73c-.317.188-1.923 1.326-2.09 1.434v.778c.263-.171 1.826-1.283 2.02-1.391h.07V172zm6.654 0h.715v-1.751h1.16v-.661h-1.16v-5.349h-1.053c-1.692 2.352-2.621 3.803-3.556 5.339v.671h3.894V172zm-3.126-2.455c.779-1.283 1.553-2.486 3.078-4.603h.048v4.652h-3.126v-.049z" fill="#909BA4"/><path d="M183.979 276.199h1.853c1.041 0 1.676.584 1.676 1.536 0 .971-.597 1.53-1.638 1.53h-1.891v-3.066zm0 4.367h1.815L187.59 284h1.873l-2-3.688c1.092-.394 1.727-1.403 1.727-2.609 0-1.758-1.206-2.863-3.129-2.863h-3.72V284h1.638v-3.434zm9.73-2.399c.946 0 1.568.66 1.6 1.688h-3.269c.07-1.016.73-1.688 1.669-1.688zm1.613 3.922c-.229.515-.768.8-1.549.8-1.035 0-1.701-.723-1.739-1.879v-.082h4.849v-.508c0-2.19-1.187-3.504-3.167-3.504-2.012 0-3.263 1.403-3.263 3.637 0 2.235 1.232 3.587 3.276 3.587 1.637 0 2.799-.787 3.084-2.051h-1.491zm5.656 2.025c.964 0 1.764-.45 2.158-1.212h.108V284h1.523v-9.629h-1.574v3.789h-.108c-.368-.762-1.155-1.219-2.107-1.219-1.752 0-2.857 1.384-2.857 3.58 0 2.209 1.098 3.593 2.857 3.593zm.488-5.833c1.079 0 1.746.863 1.746 2.247 0 1.396-.66 2.247-1.746 2.247-1.079 0-1.733-.844-1.733-2.247 0-1.397.661-2.247 1.733-2.247z" fill="#405360"/><rect x="168" y="124" width="52" height="136" rx="8" fill="#62C78B"/><path d="M188.741 112.315h.924c1.24 0 1.992.602 1.992 1.574 0 .951-.822 1.628-1.944 1.628-1.064 0-1.869-.623-1.934-1.488h-.709c.049 1.246 1.15 2.132 2.648 2.132 1.531 0 2.697-.967 2.697-2.256 0-1.079-.704-1.783-1.778-1.923v-.069c.859-.215 1.45-.86 1.455-1.805 0-1.085-.913-2.02-2.358-2.02-1.471 0-2.433.897-2.519 2.111h.72c.07-.907.763-1.466 1.751-1.466.994 0 1.66.655 1.66 1.45 0 .886-.704 1.499-1.708 1.499h-.897v.633zm5.177-1.922h.715c.011-.983.709-1.66 1.719-1.66.993 0 1.654.682 1.654 1.579 0 .704-.306 1.16-1.375 2.31l-2.67 2.862V116h4.99v-.666h-3.958v-.064l2.019-2.106c1.364-1.418 1.746-2.057 1.746-2.922 0-1.235-1.026-2.154-2.363-2.154-1.429 0-2.466.962-2.477 2.305z" fill="#909BA4"/><path d="M116.768 277.513h.095l1.866 6.487h1.537l2.456-9.16h-1.695l-1.568 6.818h-.088l-1.829-6.818h-1.453l-1.803 6.818h-.095l-1.568-6.818h-1.707l2.456 9.16h1.543l1.853-6.487zm7.541 6.487h1.574v-4.031c0-.996.578-1.669 1.613-1.669.914 0 1.396.539 1.396 1.593V284h1.574v-4.481c0-1.651-.901-2.59-2.386-2.59-1.035 0-1.778.469-2.108 1.25h-.114v-3.808h-1.549V284zm8.043 0h1.567v-6.944h-1.567V284zm.78-8.093c.521 0 .94-.419.94-.946a.944.944 0 0 0-.94-.952.948.948 0 0 0-.939.952c0 .527.425.946.939.946zm3.244-.553v1.746h-1.098v1.257h1.098v3.789c0 1.346.635 1.886 2.228 1.886.305 0 .597-.032.825-.076v-1.232c-.19.019-.311.032-.533.032-.66 0-.952-.305-.952-.99v-3.409h1.485V277.1h-1.485v-1.746h-1.568zm7.478 2.813c.945 0 1.567.66 1.599 1.688h-3.269c.07-1.016.73-1.688 1.67-1.688zm1.612 3.922c-.229.515-.768.8-1.549.8-1.035 0-1.701-.723-1.739-1.879v-.082h4.849v-.508c0-2.19-1.187-3.504-3.167-3.504-2.012 0-3.263 1.403-3.263 3.637 0 2.235 1.232 3.587 3.276 3.587 1.637 0 2.799-.787 3.085-2.051h-1.492z" fill="#405360"/><rect opacity=".4" x="103" y="172" width="52" height="88" rx="8" fill="#B6B6B6"/><path d="M125.772 164h.73v-7.75h-.73c-.317.188-1.923 1.326-2.089 1.434v.778c.263-.171 1.826-1.283 2.019-1.391h.07V164zm5.683.161c1.627 0 2.75-.918 2.75-2.25 0-1.005-.683-1.8-1.692-1.982v-.065c.843-.204 1.385-.881 1.385-1.724 0-1.203-1.015-2.052-2.443-2.052-1.429 0-2.444.854-2.444 2.052 0 .849.548 1.526 1.391 1.724v.065c-1.015.182-1.692.977-1.692 1.982 0 1.326 1.123 2.25 2.745 2.25zm0-.634c-1.187 0-2.004-.682-2.004-1.665 0-.956.817-1.616 2.004-1.616 1.192 0 2.008.655 2.008 1.616 0 .983-.821 1.665-2.008 1.665zm0-3.915c-1.021 0-1.719-.575-1.719-1.413 0-.875.698-1.477 1.719-1.477 1.02 0 1.718.602 1.718 1.477 0 .843-.698 1.413-1.718 1.413z" fill="#909BA4"/><path d="M58.35 282.584h-4.292v-2.564h4.056v-1.333h-4.056v-2.431h4.291v-1.416H52.42V284h5.93v-1.416zM60.278 284h1.574v-9.629h-1.574V284zm3.408-4.958c0 1.048.629 1.664 1.962 1.968l1.231.286c.66.146.959.393.959.787 0 .514-.552.863-1.346.863-.787 0-1.276-.304-1.428-.819H63.51c.12 1.264 1.212 2.013 2.945 2.013 1.733 0 2.958-.889 2.958-2.222 0-1.022-.616-1.593-1.942-1.892l-1.225-.279c-.699-.159-1.029-.4-1.029-.793 0-.502.54-.845 1.257-.845.736 0 1.2.311 1.314.8h1.48c-.115-1.263-1.15-1.993-2.8-1.993-1.638 0-2.78.87-2.78 2.126zm10.233-.875c.946 0 1.568.66 1.6 1.688h-3.27c.07-1.016.73-1.688 1.67-1.688zm1.612 3.922c-.228.515-.768.8-1.549.8-1.034 0-1.7-.723-1.739-1.879v-.082h4.85v-.508c0-2.19-1.187-3.504-3.168-3.504-2.012 0-3.262 1.403-3.262 3.637 0 2.235 1.231 3.587 3.275 3.587 1.638 0 2.8-.787 3.085-2.051h-1.492z" fill="#405360"/><rect opacity=".4" x="38" y="236" width="52" height="24" rx="8" fill="#B6B6B6"/><path d="M64.613 228.156c1.547 0 2.67-1.117 2.67-2.659 0-1.482-1.086-2.578-2.557-2.578-1.016 0-1.87.559-2.208 1.429h-.064c0-2.331.821-3.599 2.234-3.599.876 0 1.541.494 1.703 1.289h.752c-.188-1.176-1.123-1.95-2.477-1.95-1.793 0-2.927 1.563-2.927 4.201 0 2.648 1.257 3.867 2.874 3.867zm-.01-.65c-1.107 0-1.956-.881-1.956-2.036 0-1.085.854-1.912 1.96-1.912 1.123 0 1.934.822 1.934 1.966 0 1.122-.838 1.982-1.939 1.982z" fill="#909BA4"/><path d="M90.706 84h1.318V73.431h-1.31L87.9 75.453v1.391l2.688-1.948h.117V84zm5.01-9.939v2.043H94.44v1.055h1.275v4.79c0 1.509.652 2.11 2.278 2.11.249 0 .49-.03.74-.074v-1.062c-.235.022-.36.03-.587.03-.82 0-1.171-.396-1.171-1.326v-4.468h1.757v-1.055h-1.757v-2.043h-1.26zM100.71 84h1.26v-4.673c0-1.333.776-2.226 2.19-2.226 1.193 0 1.823.695 1.823 2.094V84h1.26v-5.112c0-1.853-1.055-2.923-2.724-2.923-1.209 0-2.037.513-2.432 1.385h-.117v-4.38h-1.26V84zm16.311.14c2.249 0 3.64-1.554 3.64-4.088 0-2.541-1.391-4.087-3.64-4.087s-3.64 1.546-3.64 4.087c0 2.534 1.391 4.087 3.64 4.087zm0-1.136c-1.494 0-2.336-1.084-2.336-2.952 0-1.875.842-2.951 2.336-2.951 1.494 0 2.336 1.076 2.336 2.951 0 1.868-.842 2.952-2.336 2.952zm6.145.996h1.26v-6.84h1.809v-1.055h-1.809v-.843c0-.864.381-1.303 1.289-1.303.227 0 .439.007.593.036V72.97a4.433 4.433 0 0 0-.85-.073c-1.501 0-2.292.754-2.292 2.329v.879h-1.311v1.054h1.311V84zm19.717 0V73.431h-1.531l-3.618 8.819h-.117L134 73.43h-1.531V84h1.23v-8.071h.088L137.12 84h1.113l3.332-8.071h.088V84h1.231zm4.966-.967c-.916 0-1.597-.469-1.597-1.274 0-.791.527-1.209 1.728-1.29l2.124-.138v.725c0 1.128-.959 1.977-2.255 1.977zm-.235 1.106c1.055 0 1.919-.461 2.432-1.304h.117V84h1.201v-5.405c0-1.64-1.076-2.63-3.003-2.63-1.684 0-2.929.835-3.098 2.102h1.275c.175-.622.835-.981 1.779-.981 1.18 0 1.787.535 1.787 1.509v.718l-2.277.139c-1.839.11-2.879.922-2.879 2.336 0 1.443 1.135 2.351 2.666 2.351zm6.079-.139h1.26v-4.893c0-1.113.872-1.918 2.073-1.918.249 0 .703.043.806.073v-1.26a5.418 5.418 0 0 0-.63-.037c-1.048 0-1.956.542-2.19 1.311h-.117v-1.171h-1.202V84zm12.027-5.478c-.22-1.407-1.392-2.557-3.311-2.557-2.212 0-3.618 1.597-3.618 4.058 0 2.512 1.414 4.116 3.625 4.116 1.897 0 3.077-1.07 3.304-2.52h-1.275c-.234.894-.974 1.385-2.036 1.385-1.406 0-2.314-1.157-2.314-2.981 0-1.787.893-2.922 2.314-2.922 1.135 0 1.831.637 2.036 1.42h1.275zM167.654 84h1.26v-4.673c0-1.333.776-2.226 2.19-2.226 1.194 0 1.824.695 1.824 2.094V84h1.26v-5.112c0-1.853-1.055-2.923-2.725-2.923-1.209 0-2.036.513-2.432 1.385h-.117v-4.38h-1.26V84zm26.88-3.655v-1.194h-15v1.194h15zm5.347-3.933h1.274c0-1.252.843-2.08 2.11-2.08 1.245 0 1.999.835 1.999 1.956 0 .93-.395 1.48-1.743 2.937l-3.574 3.867V84h6.841v-1.186h-5.01v-.118l2.402-2.483c1.904-1.97 2.432-2.849 2.432-4.065 0-1.713-1.414-2.966-3.259-2.966-2.022 0-3.472 1.348-3.472 3.23zm12.685 7.837c2.373 0 3.736-2.007 3.736-5.515 0-3.501-1.385-5.552-3.736-5.552-2.365 0-3.75 2.044-3.75 5.53 0 3.516 1.37 5.537 3.75 5.537zm0-1.15c-1.56 0-2.424-1.56-2.424-4.387 0-2.79.879-4.373 2.424-4.373 1.546 0 2.41 1.568 2.41 4.373 0 2.834-.85 4.387-2.41 4.387zm6.431-9.038v2.043h-1.274v1.055h1.274v4.79c0 1.509.652 2.11 2.278 2.11.249 0 .491-.03.74-.074v-1.062c-.235.022-.359.03-.586.03-.821 0-1.172-.396-1.172-1.326v-4.468h1.758v-1.055h-1.758v-2.043h-1.26zM223.992 84h1.26v-4.673c0-1.333.776-2.226 2.19-2.226 1.194 0 1.824.695 1.824 2.094V84h1.259v-5.112c0-1.853-1.054-2.923-2.724-2.923-1.209 0-2.036.513-2.432 1.385h-.117v-4.38h-1.26V84zm16.311.14c2.249 0 3.64-1.554 3.64-4.088 0-2.541-1.391-4.087-3.64-4.087-2.248 0-3.64 1.546-3.64 4.087 0 2.534 1.392 4.087 3.64 4.087zm0-1.136c-1.494 0-2.336-1.084-2.336-2.952 0-1.875.842-2.951 2.336-2.951 1.494 0 2.337 1.076 2.337 2.951 0 1.868-.843 2.952-2.337 2.952zm6.145.996h1.26v-6.84h1.809v-1.055h-1.809v-.843c0-.864.381-1.303 1.289-1.303.227 0 .44.007.593.036V72.97a4.423 4.423 0 0 0-.849-.073c-1.502 0-2.293.754-2.293 2.329v.879h-1.311v1.054h1.311V84zm19.717 0V73.431h-1.531l-3.618 8.819h-.117l-3.618-8.819h-1.531V84h1.23v-8.071h.088L260.401 84h1.113l3.333-8.071h.088V84h1.23zm4.966-.967c-.916 0-1.597-.469-1.597-1.274 0-.791.528-1.209 1.729-1.29l2.124-.138v.725c0 1.128-.96 1.977-2.256 1.977zm-.235 1.106c1.055 0 1.919-.461 2.432-1.304h.117V84h1.201v-5.405c0-1.64-1.076-2.63-3.002-2.63-1.685 0-2.93.835-3.099 2.102h1.275c.176-.622.835-.981 1.78-.981 1.179 0 1.787.535 1.787 1.509v.718l-2.278.139c-1.838.11-2.879.922-2.879 2.336 0 1.443 1.136 2.351 2.666 2.351zm6.08-.139h1.259v-4.893c0-1.113.872-1.918 2.073-1.918.249 0 .703.043.806.073v-1.26a5.404 5.404 0 0 0-.63-.037c-1.047 0-1.956.542-2.19 1.311h-.117v-1.171h-1.201V84zm12.026-5.478c-.22-1.407-1.392-2.557-3.311-2.557-2.212 0-3.618 1.597-3.618 4.058 0 2.512 1.414 4.116 3.626 4.116 1.897 0 3.076-1.07 3.303-2.52h-1.274c-.235.894-.975 1.385-2.037 1.385-1.406 0-2.314-1.157-2.314-2.981 0-1.787.894-2.922 2.314-2.922 1.136 0 1.831.637 2.037 1.42h1.274zM290.936 84h1.259v-4.673c0-1.333.777-2.226 2.19-2.226 1.194 0 1.824.695 1.824 2.094V84h1.26v-5.112c0-1.853-1.055-2.923-2.725-2.923-1.208 0-2.036.513-2.432 1.385h-.117v-4.38h-1.259V84z" fill="#B6B6B6"/><path d="M149.098 47.868c.123 2.707 2.389 4.378 5.814 4.378 3.558 0 5.783-1.784 5.783-4.614 0-2.194-1.302-3.445-4.419-4.091l-1.6-.329c-1.845-.39-2.584-1.035-2.584-2.04 0-1.24 1.169-2.02 2.81-2.02 1.692 0 2.861.84 2.984 2.235h2.532c-.061-2.645-2.225-4.43-5.496-4.43-3.209 0-5.496 1.764-5.496 4.369 0 2.163 1.384 3.558 4.348 4.163l1.589.328c1.928.4 2.666 1.056 2.666 2.123 0 1.23-1.24 2.112-3.025 2.112-1.845 0-3.178-.82-3.373-2.184h-2.533zm14.281-9.28v2.543h-1.559V43.1h1.559v6.008c0 2.113.923 2.943 3.271 2.943.543 0 1.046-.04 1.322-.102V50c-.164.03-.492.05-.728.05-.902 0-1.312-.41-1.312-1.302V43.1h2.051v-1.968h-2.051v-2.543h-2.553zm10.425 11.659c-1.108 0-1.846-.564-1.846-1.456 0-.862.708-1.415 1.938-1.497l2.512-.154v.83c0 1.313-1.158 2.277-2.604 2.277zm-.769 1.927c1.394 0 2.758-.728 3.384-1.907h.051V52h2.461v-7.485c0-2.184-1.754-3.61-4.45-3.61-2.769 0-4.502 1.456-4.615 3.487h2.369c.164-.903.933-1.487 2.143-1.487 1.261 0 2.03.656 2.03 1.794v.78l-2.871.164c-2.645.164-4.132 1.322-4.132 3.25 0 1.959 1.528 3.281 3.63 3.281zm8.918-13.586v2.543h-1.559V43.1h1.559v6.008c0 2.113.922 2.943 3.271 2.943.543 0 1.045-.04 1.322-.102V50c-.164.03-.492.05-.728.05-.902 0-1.312-.41-1.312-1.302V43.1h2.051v-1.968h-2.051v-2.543h-2.553zM188.614 52h2.554V41.13h-2.554V52zm1.262-12.51a1.39 1.39 0 0 0 1.404-1.384c0-.77-.615-1.384-1.404-1.384-.769 0-1.395.615-1.395 1.384 0 .759.626 1.384 1.395 1.384zm3.493 4.758c0 1.61 1.046 2.635 3.128 3.097l1.804.4c1.138.256 1.528.625 1.528 1.281 0 .81-.769 1.323-2.01 1.323-1.292 0-2.02-.533-2.215-1.59h-2.512c.205 2.103 1.887 3.456 4.727 3.456 2.666 0 4.553-1.384 4.553-3.435 0-1.579-.872-2.45-3.127-2.953l-1.805-.4c-1.138-.256-1.589-.687-1.589-1.312 0-.8.748-1.333 1.876-1.333 1.179 0 1.907.625 2.01 1.61h2.379c-.062-2.061-1.743-3.487-4.389-3.487-2.625 0-4.358 1.354-4.358 3.343zm11.594-5.66v2.543h-1.558V43.1h1.558v6.008c0 2.113.923 2.943 3.271 2.943.544 0 1.046-.04 1.323-.102V50c-.164.03-.492.05-.728.05-.902 0-1.313-.41-1.313-1.302V43.1h2.051v-1.968h-2.051v-2.543h-2.553zM211.625 52h2.553V41.13h-2.553V52zm1.261-12.51a1.39 1.39 0 0 0 1.405-1.384c0-.77-.615-1.384-1.405-1.384-.769 0-1.394.615-1.394 1.384 0 .759.625 1.384 1.394 1.384zm13.266 5.517c-.175-2.287-1.948-4.102-4.82-4.102-3.158 0-5.209 2.184-5.209 5.66 0 3.528 2.051 5.65 5.23 5.65 2.728 0 4.604-1.6 4.809-4.03h-2.41c-.235 1.231-1.076 1.97-2.368 1.97-1.62 0-2.666-1.313-2.666-3.59 0-2.235 1.035-3.588 2.645-3.588 1.364 0 2.174.871 2.379 2.03h2.41zm1.596-.759c0 1.61 1.046 2.635 3.128 3.097l1.804.4c1.139.256 1.528.625 1.528 1.281 0 .81-.769 1.323-2.01 1.323-1.292 0-2.02-.533-2.214-1.59h-2.513c.206 2.103 1.887 3.456 4.727 3.456 2.667 0 4.553-1.384 4.553-3.435 0-1.579-.871-2.45-3.127-2.953l-1.805-.4c-1.138-.256-1.589-.687-1.589-1.312 0-.8.748-1.333 1.876-1.333 1.179 0 1.907.625 2.01 1.61h2.379c-.062-2.061-1.743-3.487-4.389-3.487-2.625 0-4.358 1.354-4.358 3.343z" fill="#405360"/><defs><filter id="filter0_d" x="0" y="0" width="387" height="328" filterUnits="userSpaceOnUse" color-interpolation-filters="sRGB"><feFlood flood-opacity="0" result="BackgroundImageFix"/><feColorMatrix in="SourceAlpha" values="0 0 0 0 0 0 0 0 0 0 0 0 0 0 0 0 0 0 127 0"/><feOffset dy="6"/><feGaussianBlur stdDeviation="3"/><feColorMatrix values="0 0 0 0 0 0 0 0 0 0 0 0 0 0 0 0 0 0 0.06 0"/><feBlend in2="BackgroundImageFix" result="effect1_dropShadow"/><feBlend in="SourceGraphic" in2="effect1_dropShadow" result="shape"/></filter></defs></svg>