<svg width="342" height="384" viewBox="0 0 342 384" fill="none" xmlns="http://www.w3.org/2000/svg">
<path d="M78.7504 243.548L67.8479 233.664L51.8136 244.571L57.0803 258.288L43.5861 267.467L22.7592 201.173L38.5553 190.429L92.5621 234.153L78.7504 243.548ZM47.6111 233.613L59.2002 225.73L36.8839 205.382L47.6111 233.613ZM104.823 145.354L108.203 179.511L143.748 199.336L129.54 209.001L101.461 193.153L95.7454 197.041L111.997 220.933L98.9792 229.788L61.5624 174.78L74.5804 165.925L89.2663 187.516L95.299 183.412L92.0435 154.046L104.823 145.354ZM185.9 156.152L192.25 151.833L207.962 174.932L198.913 181.087L188.521 168.882L150.817 194.529L113.4 139.52L126.418 130.665L156.923 175.514L172.72 164.769L142.214 119.921L155.232 111.066L185.9 156.152ZM250.003 127.062L237.223 135.755L223.239 115.196C218.092 107.629 213.787 99.9918 210.325 92.2845L223.252 145.258L207.615 155.894L170.198 100.886L182.978 92.193L197.232 113.149C200.22 117.541 202.545 121.3 204.207 124.427C205.869 127.553 207.696 131.264 209.689 135.559L197.187 82.5283L212.586 72.0538L250.003 127.062ZM263.156 37.6559L300.573 92.6646L287.555 101.519L274.057 81.675L267.627 86.0484L271.918 112.156L257.63 121.875L254.393 91.6833C250.229 92.5031 246.481 92.2274 243.149 90.8561C239.87 89.4488 236.934 86.84 234.342 83.0299C226.352 71.282 229.871 60.2968 244.899 50.0742L263.156 37.6559ZM267.902 72.6259L256.347 55.6391L251.744 58.7707C245.34 63.1261 244.137 68.2408 248.132 74.1147C249.932 76.7606 252.058 78.294 254.512 78.715C256.983 79.047 259.488 78.3491 262.028 76.6214L267.902 72.6259ZM286.922 21.4907L308.983 57.3379L298.823 64.249L273.586 30.5614L286.922 21.4907ZM308.816 68.0168C310.827 66.649 313.006 66.2115 315.354 66.7045C317.719 67.1085 319.567 68.2895 320.899 70.2475C322.267 72.2584 322.722 74.4642 322.265 76.8648C321.825 79.1766 320.6 81.0163 318.589 82.3842C316.631 83.716 314.469 84.1799 312.105 83.7759C309.757 83.2829 307.899 82.031 306.531 80.0201C305.2 78.0621 304.754 75.9273 305.194 73.6155C305.651 71.2149 306.858 69.3486 308.816 68.0168Z" fill="white" fill-opacity="0.4"/>
<path d="M173 212.794L187.095 230.177L187.349 230.491L187.71 230.308L207.656 220.16L213.462 241.774L213.567 242.164L213.971 242.143L236.32 240.986L232.833 263.092L232.77 263.492L233.148 263.637L254.036 271.67L241.859 290.446L241.639 290.786L241.925 291.072L257.739 306.906L238.978 319.107L238.639 319.327L238.784 319.705L246.791 340.603L224.689 344.118L224.29 344.181L224.268 344.585L223.083 366.933L201.462 361.155L201.072 361.05L200.888 361.41L190.715 381.344L173.314 367.271L173 367.017L172.686 367.271L155.285 381.344L145.112 361.41L144.928 361.05L144.538 361.155L122.917 366.933L121.732 344.585L121.71 344.181L121.311 344.118L99.2093 340.603L107.216 319.705L107.361 319.327L107.022 319.107L88.2607 306.906L104.075 291.072L104.361 290.786L104.141 290.446L91.9642 271.67L112.852 263.637L113.23 263.492L113.167 263.092L109.68 240.986L132.029 242.143L132.433 242.164L132.538 241.774L138.344 220.16L158.29 230.308L158.651 230.491L158.905 230.177L173 212.794Z" fill="white" stroke="#ACADAE"/>
<path d="M191.032 266.64L199.568 272.096L158.824 333.52L150.288 328.064L191.032 266.64ZM155.216 269.28C158.149 269.28 160.789 269.925 163.136 271.216C165.541 272.507 167.419 274.355 168.768 276.76C170.176 279.165 170.88 281.952 170.88 285.12C170.88 288.288 170.176 291.075 168.768 293.48C167.419 295.885 165.541 297.733 163.136 299.024C160.789 300.315 158.149 300.96 155.216 300.96C152.283 300.96 149.613 300.315 147.208 299.024C144.861 297.675 142.984 295.827 141.576 293.48C140.227 291.075 139.552 288.288 139.552 285.12C139.552 281.952 140.227 279.195 141.576 276.848C142.984 274.443 144.861 272.595 147.208 271.304C149.613 269.955 152.283 269.28 155.216 269.28ZM155.216 277.64C151.403 277.64 149.496 280.133 149.496 285.12C149.496 287.291 149.907 289.08 150.728 290.488C151.608 291.896 153.104 292.6 155.216 292.6C158.971 292.6 160.848 290.107 160.848 285.12C160.848 280.133 158.971 277.64 155.216 277.64ZM194.376 299.904C197.309 299.904 199.949 300.549 202.296 301.84C204.701 303.131 206.579 304.979 207.928 307.384C209.336 309.731 210.04 312.488 210.04 315.656C210.04 318.824 209.336 321.611 207.928 324.016C206.579 326.421 204.701 328.269 202.296 329.56C199.949 330.851 197.309 331.496 194.376 331.496C191.443 331.496 188.773 330.851 186.368 329.56C183.963 328.269 182.056 326.421 180.648 324.016C179.299 321.611 178.624 318.824 178.624 315.656C178.624 312.488 179.299 309.731 180.648 307.384C182.056 304.979 183.963 303.131 186.368 301.84C188.773 300.549 191.443 299.904 194.376 299.904ZM194.376 308.264C190.563 308.264 188.656 310.728 188.656 315.656C188.656 317.827 189.067 319.645 189.888 321.112C190.768 322.52 192.264 323.224 194.376 323.224C198.131 323.224 200.008 320.701 200.008 315.656C200.008 310.728 198.131 308.264 194.376 308.264Z" fill="#0BA7FF"/>
</svg>
