<svg width="143" height="73" fill="none" xmlns="http://www.w3.org/2000/svg"><path fill="#EAEBEB" d="M0 0h3v3H0zM0 10h3v3H0zM0 20h3v3H0zM0 30h3v3H0zM0 40h3v3H0zM0 50h3v3H0zM0 60h3v3H0zM0 70h3v3H0zM10 0h3v3h-3zM10 10h3v3h-3zM10 20h3v3h-3zM10 30h3v3h-3zM10 40h3v3h-3zM10 50h3v3h-3zM10 60h3v3h-3zM10 70h3v3h-3zM20 0h3v3h-3zM20 10h3v3h-3zM20 20h3v3h-3zM20 30h3v3h-3zM20 40h3v3h-3zM20 50h3v3h-3zM20 60h3v3h-3zM20 70h3v3h-3zM30 0h3v3h-3zM30 10h3v3h-3zM30 20h3v3h-3zM30 30h3v3h-3zM30 40h3v3h-3zM30 50h3v3h-3zM30 60h3v3h-3zM30 70h3v3h-3zM40 0h3v3h-3zM40 10h3v3h-3zM40 20h3v3h-3zM40 30h3v3h-3zM40 40h3v3h-3zM40 50h3v3h-3zM40 60h3v3h-3zM40 70h3v3h-3zM50 0h3v3h-3zM50 10h3v3h-3zM50 20h3v3h-3zM50 30h3v3h-3zM50 40h3v3h-3zM50 50h3v3h-3zM50 60h3v3h-3zM50 70h3v3h-3zM60 0h3v3h-3zM60 10h3v3h-3zM60 20h3v3h-3zM60 30h3v3h-3zM60 40h3v3h-3zM60 50h3v3h-3zM60 60h3v3h-3zM60 70h3v3h-3zM70 0h3v3h-3zM70 10h3v3h-3zM70 20h3v3h-3zM70 30h3v3h-3zM70 40h3v3h-3zM70 50h3v3h-3zM70 60h3v3h-3zM70 70h3v3h-3zM80 0h3v3h-3zM80 10h3v3h-3zM80 20h3v3h-3zM80 30h3v3h-3zM80 40h3v3h-3zM80 50h3v3h-3zM80 60h3v3h-3zM80 70h3v3h-3zM90 0h3v3h-3zM90 10h3v3h-3zM90 20h3v3h-3zM90 30h3v3h-3zM90 40h3v3h-3zM90 50h3v3h-3zM90 60h3v3h-3zM90 70h3v3h-3zM100 0h3v3h-3zM100 10h3v3h-3zM100 20h3v3h-3zM100 30h3v3h-3zM100 40h3v3h-3zM100 50h3v3h-3zM100 60h3v3h-3zM100 70h3v3h-3zM110 0h3v3h-3zM110 10h3v3h-3zM110 20h3v3h-3zM110 30h3v3h-3zM110 40h3v3h-3zM110 50h3v3h-3zM110 60h3v3h-3zM110 70h3v3h-3zM120 0h3v3h-3zM120 10h3v3h-3zM120 20h3v3h-3zM120 30h3v3h-3zM120 40h3v3h-3zM120 50h3v3h-3zM120 60h3v3h-3zM120 70h3v3h-3zM130 0h3v3h-3zM130 10h3v3h-3zM130 20h3v3h-3zM130 30h3v3h-3zM130 40h3v3h-3zM130 50h3v3h-3zM130 60h3v3h-3zM130 70h3v3h-3zM140 0h3v3h-3zM140 10h3v3h-3zM140 20h3v3h-3zM140 30h3v3h-3zM140 40h3v3h-3zM140 50h3v3h-3zM140 60h3v3h-3zM140 70h3v3h-3z"/></svg>