<svg width="443" height="363" fill="none" xmlns="http://www.w3.org/2000/svg"><path fill="#E5E5E5" d="M0 0h3v3H0zM0 10h3v3H0zM0 20h3v3H0zM0 30h3v3H0zM0 40h3v3H0zM0 50h3v3H0zM0 60h3v3H0zM0 70h3v3H0zM0 80h3v3H0zM0 90h3v3H0zM0 100h3v3H0zM0 110h3v3H0zM0 120h3v3H0zM0 130h3v3H0zM0 140h3v3H0zM10 0h3v3h-3zM10 10h3v3h-3zM10 20h3v3h-3zM10 30h3v3h-3zM10 40h3v3h-3zM10 50h3v3h-3zM10 60h3v3h-3zM10 70h3v3h-3zM10 80h3v3h-3zM10 90h3v3h-3zM10 100h3v3h-3zM10 110h3v3h-3zM10 120h3v3h-3zM10 130h3v3h-3zM10 140h3v3h-3zM20 0h3v3h-3zM20 10h3v3h-3zM20 20h3v3h-3zM20 30h3v3h-3zM20 40h3v3h-3zM20 50h3v3h-3zM20 60h3v3h-3zM20 70h3v3h-3zM20 80h3v3h-3zM20 90h3v3h-3zM20 100h3v3h-3zM20 110h3v3h-3zM20 120h3v3h-3zM20 130h3v3h-3zM20 140h3v3h-3zM30 0h3v3h-3zM30 10h3v3h-3zM30 20h3v3h-3zM30 30h3v3h-3zM30 40h3v3h-3zM30 50h3v3h-3zM30 60h3v3h-3zM30 70h3v3h-3zM30 80h3v3h-3zM30 90h3v3h-3zM30 100h3v3h-3zM30 110h3v3h-3zM30 120h3v3h-3zM30 130h3v3h-3zM30 140h3v3h-3zM40 0h3v3h-3zM40 10h3v3h-3zM40 20h3v3h-3zM40 30h3v3h-3zM40 40h3v3h-3zM40 50h3v3h-3zM40 60h3v3h-3zM40 70h3v3h-3zM40 80h3v3h-3zM40 90h3v3h-3zM40 100h3v3h-3zM40 110h3v3h-3zM40 120h3v3h-3zM40 130h3v3h-3zM40 140h3v3h-3zM50 0h3v3h-3zM50 10h3v3h-3zM50 20h3v3h-3zM50 30h3v3h-3zM50 40h3v3h-3zM50 50h3v3h-3zM50 60h3v3h-3zM50 70h3v3h-3zM50 80h3v3h-3zM50 90h3v3h-3zM50 100h3v3h-3zM50 110h3v3h-3zM50 120h3v3h-3zM50 130h3v3h-3zM50 140h3v3h-3zM60 0h3v3h-3zM60 10h3v3h-3zM60 20h3v3h-3zM60 30h3v3h-3zM60 40h3v3h-3zM60 50h3v3h-3zM60 60h3v3h-3zM60 70h3v3h-3zM60 80h3v3h-3zM60 90h3v3h-3zM60 100h3v3h-3zM60 110h3v3h-3zM60 120h3v3h-3zM60 130h3v3h-3zM60 140h3v3h-3zM70 0h3v3h-3zM70 10h3v3h-3zM70 20h3v3h-3zM70 30h3v3h-3zM70 40h3v3h-3zM70 50h3v3h-3zM70 60h3v3h-3zM70 70h3v3h-3zM70 80h3v3h-3zM70 90h3v3h-3zM70 100h3v3h-3zM70 110h3v3h-3zM70 120h3v3h-3zM70 130h3v3h-3zM70 140h3v3h-3zM80 0h3v3h-3zM80 10h3v3h-3zM80 20h3v3h-3zM80 30h3v3h-3zM80 40h3v3h-3zM80 50h3v3h-3zM80 60h3v3h-3zM80 70h3v3h-3zM80 80h3v3h-3zM80 90h3v3h-3zM80 100h3v3h-3zM80 110h3v3h-3zM80 120h3v3h-3zM80 130h3v3h-3zM80 140h3v3h-3zM90 0h3v3h-3zM90 10h3v3h-3zM90 20h3v3h-3zM90 30h3v3h-3zM90 40h3v3h-3zM90 50h3v3h-3zM90 60h3v3h-3zM90 70h3v3h-3zM90 80h3v3h-3zM90 90h3v3h-3zM90 100h3v3h-3zM90 110h3v3h-3zM90 120h3v3h-3zM90 130h3v3h-3zM90 140h3v3h-3zM100 0h3v3h-3zM100 10h3v3h-3zM100 20h3v3h-3zM100 30h3v3h-3zM100 40h3v3h-3zM100 50h3v3h-3zM100 60h3v3h-3zM100 70h3v3h-3zM100 80h3v3h-3zM100 90h3v3h-3zM100 100h3v3h-3zM100 110h3v3h-3zM100 120h3v3h-3zM100 130h3v3h-3zM100 140h3v3h-3zM110 0h3v3h-3zM110 10h3v3h-3zM110 20h3v3h-3zM110 30h3v3h-3zM110 40h3v3h-3zM110 50h3v3h-3zM110 60h3v3h-3zM110 70h3v3h-3zM110 80h3v3h-3zM110 90h3v3h-3zM110 100h3v3h-3zM110 110h3v3h-3zM110 120h3v3h-3zM110 130h3v3h-3zM110 140h3v3h-3zM120 0h3v3h-3zM120 10h3v3h-3zM120 20h3v3h-3zM120 30h3v3h-3zM120 40h3v3h-3zM120 50h3v3h-3zM120 60h3v3h-3zM120 70h3v3h-3zM120 80h3v3h-3zM120 90h3v3h-3zM120 100h3v3h-3zM120 110h3v3h-3zM120 120h3v3h-3zM120 130h3v3h-3zM120 140h3v3h-3zM130 0h3v3h-3zM130 10h3v3h-3zM130 20h3v3h-3zM130 30h3v3h-3zM130 40h3v3h-3zM130 50h3v3h-3zM130 60h3v3h-3zM130 70h3v3h-3zM130 80h3v3h-3zM130 90h3v3h-3zM130 100h3v3h-3zM130 110h3v3h-3zM130 120h3v3h-3zM130 130h3v3h-3zM130 140h3v3h-3zM140 0h3v3h-3zM140 10h3v3h-3zM140 20h3v3h-3zM140 30h3v3h-3zM140 40h3v3h-3zM140 50h3v3h-3zM140 60h3v3h-3zM140 70h3v3h-3zM140 80h3v3h-3zM140 90h3v3h-3zM140 100h3v3h-3zM140 110h3v3h-3zM140 120h3v3h-3zM140 130h3v3h-3zM140 140h3v3h-3zM150 0h3v3h-3zM150 10h3v3h-3zM150 20h3v3h-3zM150 30h3v3h-3zM150 40h3v3h-3zM150 50h3v3h-3zM150 60h3v3h-3zM150 70h3v3h-3zM150 80h3v3h-3zM150 90h3v3h-3zM150 100h3v3h-3zM150 110h3v3h-3zM150 120h3v3h-3zM150 130h3v3h-3zM150 140h3v3h-3zM160 0h3v3h-3zM160 10h3v3h-3zM160 20h3v3h-3zM160 30h3v3h-3zM160 40h3v3h-3zM160 50h3v3h-3zM160 60h3v3h-3zM160 70h3v3h-3zM160 80h3v3h-3zM160 90h3v3h-3zM160 100h3v3h-3zM160 110h3v3h-3zM160 120h3v3h-3zM160 130h3v3h-3zM160 140h3v3h-3zM170 0h3v3h-3zM170 10h3v3h-3zM170 20h3v3h-3zM170 30h3v3h-3zM170 40h3v3h-3zM170 50h3v3h-3zM170 60h3v3h-3zM170 70h3v3h-3zM170 80h3v3h-3zM170 90h3v3h-3zM170 100h3v3h-3zM170 110h3v3h-3zM170 120h3v3h-3zM170 130h3v3h-3zM170 140h3v3h-3zM180 0h3v3h-3zM180 10h3v3h-3zM180 20h3v3h-3zM180 30h3v3h-3zM180 40h3v3h-3zM180 50h3v3h-3zM180 60h3v3h-3zM180 70h3v3h-3zM180 80h3v3h-3zM180 90h3v3h-3zM180 100h3v3h-3zM180 110h3v3h-3zM180 120h3v3h-3zM180 130h3v3h-3zM180 140h3v3h-3zM190 0h3v3h-3zM190 10h3v3h-3zM190 20h3v3h-3zM190 30h3v3h-3zM190 40h3v3h-3zM190 50h3v3h-3zM190 60h3v3h-3zM190 70h3v3h-3zM190 80h3v3h-3zM190 90h3v3h-3zM190 100h3v3h-3zM190 110h3v3h-3zM190 120h3v3h-3zM190 130h3v3h-3zM190 140h3v3h-3zM200 0h3v3h-3zM200 10h3v3h-3zM200 20h3v3h-3zM200 30h3v3h-3zM200 40h3v3h-3zM200 50h3v3h-3zM200 60h3v3h-3zM200 70h3v3h-3zM200 80h3v3h-3zM200 90h3v3h-3zM200 100h3v3h-3zM200 110h3v3h-3zM200 120h3v3h-3zM200 130h3v3h-3zM200 140h3v3h-3zM210 0h3v3h-3zM210 10h3v3h-3zM210 20h3v3h-3zM210 30h3v3h-3zM210 40h3v3h-3zM210 50h3v3h-3zM210 60h3v3h-3zM210 70h3v3h-3zM210 80h3v3h-3zM210 90h3v3h-3zM210 100h3v3h-3zM210 110h3v3h-3zM210 120h3v3h-3zM210 130h3v3h-3zM210 140h3v3h-3zM220 0h3v3h-3zM220 10h3v3h-3zM220 20h3v3h-3zM220 30h3v3h-3zM220 40h3v3h-3zM220 50h3v3h-3zM220 60h3v3h-3zM220 70h3v3h-3zM220 80h3v3h-3zM220 90h3v3h-3zM220 100h3v3h-3zM220 110h3v3h-3zM220 120h3v3h-3zM220 130h3v3h-3zM220 140h3v3h-3zM230 0h3v3h-3zM230 10h3v3h-3zM230 20h3v3h-3zM230 30h3v3h-3zM230 40h3v3h-3zM230 50h3v3h-3zM230 60h3v3h-3zM230 70h3v3h-3zM230 80h3v3h-3zM230 90h3v3h-3zM230 100h3v3h-3zM230 110h3v3h-3zM230 120h3v3h-3zM230 130h3v3h-3zM230 140h3v3h-3zM240 0h3v3h-3zM240 10h3v3h-3zM240 20h3v3h-3zM240 30h3v3h-3zM240 40h3v3h-3zM240 50h3v3h-3zM240 60h3v3h-3zM240 70h3v3h-3zM240 80h3v3h-3zM240 90h3v3h-3zM240 100h3v3h-3zM240 110h3v3h-3zM240 120h3v3h-3zM240 130h3v3h-3zM240 140h3v3h-3zM250 0h3v3h-3zM250 10h3v3h-3zM250 20h3v3h-3zM250 30h3v3h-3zM250 40h3v3h-3zM250 50h3v3h-3zM250 60h3v3h-3zM250 70h3v3h-3zM250 80h3v3h-3zM250 90h3v3h-3zM250 100h3v3h-3zM250 110h3v3h-3zM250 120h3v3h-3zM250 130h3v3h-3zM250 140h3v3h-3zM260 0h3v3h-3zM260 10h3v3h-3zM260 20h3v3h-3zM260 30h3v3h-3zM260 40h3v3h-3zM260 50h3v3h-3zM260 60h3v3h-3zM260 70h3v3h-3zM260 80h3v3h-3zM260 90h3v3h-3zM260 100h3v3h-3zM260 110h3v3h-3zM260 120h3v3h-3zM260 130h3v3h-3zM260 140h3v3h-3zM270 0h3v3h-3zM270 10h3v3h-3zM270 20h3v3h-3zM270 30h3v3h-3zM270 40h3v3h-3zM270 50h3v3h-3zM270 60h3v3h-3zM270 70h3v3h-3zM270 80h3v3h-3zM270 90h3v3h-3zM270 100h3v3h-3zM270 110h3v3h-3zM270 120h3v3h-3zM270 130h3v3h-3zM270 140h3v3h-3zM280 0h3v3h-3zM280 10h3v3h-3zM280 20h3v3h-3zM280 30h3v3h-3zM280 40h3v3h-3zM280 50h3v3h-3zM280 60h3v3h-3zM280 70h3v3h-3zM280 80h3v3h-3zM280 90h3v3h-3zM280 100h3v3h-3zM280 110h3v3h-3zM280 120h3v3h-3zM280 130h3v3h-3zM280 140h3v3h-3zM290 0h3v3h-3zM290 10h3v3h-3zM290 20h3v3h-3zM290 30h3v3h-3zM290 40h3v3h-3zM290 50h3v3h-3zM290 60h3v3h-3zM290 70h3v3h-3zM290 80h3v3h-3zM290 90h3v3h-3zM290 100h3v3h-3zM290 110h3v3h-3zM290 120h3v3h-3zM290 130h3v3h-3zM290 140h3v3h-3z"/><path fill="#E5E5E5" d="M150 90h3v3h-3zM150 100h3v3h-3zM150 110h3v3h-3zM150 120h3v3h-3zM150 130h3v3h-3zM150 140h3v3h-3zM150 150h3v3h-3zM150 160h3v3h-3zM150 170h3v3h-3zM150 180h3v3h-3zM150 190h3v3h-3zM150 200h3v3h-3zM150 210h3v3h-3zM150 220h3v3h-3zM150 230h3v3h-3zM160 90h3v3h-3zM160 100h3v3h-3zM160 110h3v3h-3zM160 120h3v3h-3zM160 130h3v3h-3zM160 140h3v3h-3zM160 150h3v3h-3zM160 160h3v3h-3zM160 170h3v3h-3zM160 180h3v3h-3zM160 190h3v3h-3zM160 200h3v3h-3zM160 210h3v3h-3zM160 220h3v3h-3zM160 230h3v3h-3zM170 90h3v3h-3zM170 100h3v3h-3zM170 110h3v3h-3zM170 120h3v3h-3zM170 130h3v3h-3zM170 140h3v3h-3zM170 150h3v3h-3zM170 160h3v3h-3zM170 170h3v3h-3zM170 180h3v3h-3zM170 190h3v3h-3zM170 200h3v3h-3zM170 210h3v3h-3zM170 220h3v3h-3zM170 230h3v3h-3zM180 90h3v3h-3zM180 100h3v3h-3zM180 110h3v3h-3zM180 120h3v3h-3zM180 130h3v3h-3zM180 140h3v3h-3zM180 150h3v3h-3zM180 160h3v3h-3zM180 170h3v3h-3zM180 180h3v3h-3zM180 190h3v3h-3zM180 200h3v3h-3zM180 210h3v3h-3zM180 220h3v3h-3zM180 230h3v3h-3zM190 90h3v3h-3zM190 100h3v3h-3zM190 110h3v3h-3zM190 120h3v3h-3zM190 130h3v3h-3zM190 140h3v3h-3zM190 150h3v3h-3zM190 160h3v3h-3zM190 170h3v3h-3zM190 180h3v3h-3zM190 190h3v3h-3zM190 200h3v3h-3zM190 210h3v3h-3zM190 220h3v3h-3zM190 230h3v3h-3zM200 90h3v3h-3zM200 100h3v3h-3zM200 110h3v3h-3zM200 120h3v3h-3zM200 130h3v3h-3zM200 140h3v3h-3zM200 150h3v3h-3zM200 160h3v3h-3zM200 170h3v3h-3zM200 180h3v3h-3zM200 190h3v3h-3zM200 200h3v3h-3zM200 210h3v3h-3zM200 220h3v3h-3zM200 230h3v3h-3zM210 90h3v3h-3zM210 100h3v3h-3zM210 110h3v3h-3zM210 120h3v3h-3zM210 130h3v3h-3zM210 140h3v3h-3zM210 150h3v3h-3zM210 160h3v3h-3zM210 170h3v3h-3zM210 180h3v3h-3zM210 190h3v3h-3zM210 200h3v3h-3zM210 210h3v3h-3zM210 220h3v3h-3zM210 230h3v3h-3zM220 90h3v3h-3zM220 100h3v3h-3zM220 110h3v3h-3zM220 120h3v3h-3zM220 130h3v3h-3zM220 140h3v3h-3zM220 150h3v3h-3zM220 160h3v3h-3zM220 170h3v3h-3zM220 180h3v3h-3zM220 190h3v3h-3zM220 200h3v3h-3zM220 210h3v3h-3zM220 220h3v3h-3zM220 230h3v3h-3zM230 90h3v3h-3zM230 100h3v3h-3zM230 110h3v3h-3zM230 120h3v3h-3zM230 130h3v3h-3zM230 140h3v3h-3zM230 150h3v3h-3zM230 160h3v3h-3zM230 170h3v3h-3zM230 180h3v3h-3zM230 190h3v3h-3zM230 200h3v3h-3zM230 210h3v3h-3zM230 220h3v3h-3zM230 230h3v3h-3zM240 90h3v3h-3zM240 100h3v3h-3zM240 110h3v3h-3zM240 120h3v3h-3zM240 130h3v3h-3zM240 140h3v3h-3zM240 150h3v3h-3zM240 160h3v3h-3zM240 170h3v3h-3zM240 180h3v3h-3zM240 190h3v3h-3zM240 200h3v3h-3zM240 210h3v3h-3zM240 220h3v3h-3zM240 230h3v3h-3zM250 90h3v3h-3zM250 100h3v3h-3zM250 110h3v3h-3zM250 120h3v3h-3zM250 130h3v3h-3zM250 140h3v3h-3zM250 150h3v3h-3zM250 160h3v3h-3zM250 170h3v3h-3zM250 180h3v3h-3zM250 190h3v3h-3zM250 200h3v3h-3zM250 210h3v3h-3zM250 220h3v3h-3zM250 230h3v3h-3zM260 90h3v3h-3zM260 100h3v3h-3zM260 110h3v3h-3zM260 120h3v3h-3zM260 130h3v3h-3zM260 140h3v3h-3zM260 150h3v3h-3zM260 160h3v3h-3zM260 170h3v3h-3zM260 180h3v3h-3zM260 190h3v3h-3zM260 200h3v3h-3zM260 210h3v3h-3zM260 220h3v3h-3zM260 230h3v3h-3zM270 90h3v3h-3zM270 100h3v3h-3zM270 110h3v3h-3zM270 120h3v3h-3zM270 130h3v3h-3zM270 140h3v3h-3zM270 150h3v3h-3zM270 160h3v3h-3zM270 170h3v3h-3zM270 180h3v3h-3zM270 190h3v3h-3zM270 200h3v3h-3zM270 210h3v3h-3zM270 220h3v3h-3zM270 230h3v3h-3zM280 90h3v3h-3zM280 100h3v3h-3zM280 110h3v3h-3zM280 120h3v3h-3zM280 130h3v3h-3zM280 140h3v3h-3zM280 150h3v3h-3zM280 160h3v3h-3zM280 170h3v3h-3zM280 180h3v3h-3zM280 190h3v3h-3zM280 200h3v3h-3zM280 210h3v3h-3zM280 220h3v3h-3zM280 230h3v3h-3zM290 90h3v3h-3zM290 100h3v3h-3zM290 110h3v3h-3zM290 120h3v3h-3zM290 130h3v3h-3zM290 140h3v3h-3zM290 150h3v3h-3zM290 160h3v3h-3zM290 170h3v3h-3zM290 180h3v3h-3zM290 190h3v3h-3zM290 200h3v3h-3zM290 210h3v3h-3zM290 220h3v3h-3zM290 230h3v3h-3z"/><path fill="#E5E5E5" d="M150 220h3v3h-3zM150 230h3v3h-3zM150 240h3v3h-3zM150 250h3v3h-3zM150 260h3v3h-3zM150 270h3v3h-3zM150 280h3v3h-3zM150 290h3v3h-3zM150 300h3v3h-3zM150 310h3v3h-3zM150 320h3v3h-3zM150 330h3v3h-3zM150 340h3v3h-3zM150 350h3v3h-3zM150 360h3v3h-3zM160 220h3v3h-3zM160 230h3v3h-3zM160 240h3v3h-3zM160 250h3v3h-3zM160 260h3v3h-3zM160 270h3v3h-3zM160 280h3v3h-3zM160 290h3v3h-3zM160 300h3v3h-3zM160 310h3v3h-3zM160 320h3v3h-3zM160 330h3v3h-3zM160 340h3v3h-3zM160 350h3v3h-3zM160 360h3v3h-3zM170 220h3v3h-3zM170 230h3v3h-3zM170 240h3v3h-3zM170 250h3v3h-3zM170 260h3v3h-3zM170 270h3v3h-3zM170 280h3v3h-3zM170 290h3v3h-3zM170 300h3v3h-3zM170 310h3v3h-3zM170 320h3v3h-3zM170 330h3v3h-3zM170 340h3v3h-3zM170 350h3v3h-3zM170 360h3v3h-3zM180 220h3v3h-3zM180 230h3v3h-3zM180 240h3v3h-3zM180 250h3v3h-3zM180 260h3v3h-3zM180 270h3v3h-3zM180 280h3v3h-3zM180 290h3v3h-3zM180 300h3v3h-3zM180 310h3v3h-3zM180 320h3v3h-3zM180 330h3v3h-3zM180 340h3v3h-3zM180 350h3v3h-3zM180 360h3v3h-3zM190 220h3v3h-3zM190 230h3v3h-3zM190 240h3v3h-3zM190 250h3v3h-3zM190 260h3v3h-3zM190 270h3v3h-3zM190 280h3v3h-3zM190 290h3v3h-3zM190 300h3v3h-3zM190 310h3v3h-3zM190 320h3v3h-3zM190 330h3v3h-3zM190 340h3v3h-3zM190 350h3v3h-3zM190 360h3v3h-3zM200 220h3v3h-3zM200 230h3v3h-3zM200 240h3v3h-3zM200 250h3v3h-3zM200 260h3v3h-3zM200 270h3v3h-3zM200 280h3v3h-3zM200 290h3v3h-3zM200 300h3v3h-3zM200 310h3v3h-3zM200 320h3v3h-3zM200 330h3v3h-3zM200 340h3v3h-3zM200 350h3v3h-3zM200 360h3v3h-3zM210 220h3v3h-3zM210 230h3v3h-3zM210 240h3v3h-3zM210 250h3v3h-3zM210 260h3v3h-3zM210 270h3v3h-3zM210 280h3v3h-3zM210 290h3v3h-3zM210 300h3v3h-3zM210 310h3v3h-3zM210 320h3v3h-3zM210 330h3v3h-3zM210 340h3v3h-3zM210 350h3v3h-3zM210 360h3v3h-3zM220 220h3v3h-3zM220 230h3v3h-3zM220 240h3v3h-3zM220 250h3v3h-3zM220 260h3v3h-3zM220 270h3v3h-3zM220 280h3v3h-3zM220 290h3v3h-3zM220 300h3v3h-3zM220 310h3v3h-3zM220 320h3v3h-3zM220 330h3v3h-3zM220 340h3v3h-3zM220 350h3v3h-3zM220 360h3v3h-3zM230 220h3v3h-3zM230 230h3v3h-3zM230 240h3v3h-3zM230 250h3v3h-3zM230 260h3v3h-3zM230 270h3v3h-3zM230 280h3v3h-3zM230 290h3v3h-3zM230 300h3v3h-3zM230 310h3v3h-3zM230 320h3v3h-3zM230 330h3v3h-3zM230 340h3v3h-3zM230 350h3v3h-3zM230 360h3v3h-3zM240 220h3v3h-3zM240 230h3v3h-3zM240 240h3v3h-3zM240 250h3v3h-3zM240 260h3v3h-3zM240 270h3v3h-3zM240 280h3v3h-3zM240 290h3v3h-3zM240 300h3v3h-3zM240 310h3v3h-3zM240 320h3v3h-3zM240 330h3v3h-3zM240 340h3v3h-3zM240 350h3v3h-3zM240 360h3v3h-3zM250 220h3v3h-3zM250 230h3v3h-3zM250 240h3v3h-3zM250 250h3v3h-3zM250 260h3v3h-3zM250 270h3v3h-3zM250 280h3v3h-3zM250 290h3v3h-3zM250 300h3v3h-3zM250 310h3v3h-3zM250 320h3v3h-3zM250 330h3v3h-3zM250 340h3v3h-3zM250 350h3v3h-3zM250 360h3v3h-3zM260 220h3v3h-3zM260 230h3v3h-3zM260 240h3v3h-3zM260 250h3v3h-3zM260 260h3v3h-3zM260 270h3v3h-3zM260 280h3v3h-3zM260 290h3v3h-3zM260 300h3v3h-3zM260 310h3v3h-3zM260 320h3v3h-3zM260 330h3v3h-3zM260 340h3v3h-3zM260 350h3v3h-3zM260 360h3v3h-3zM270 220h3v3h-3zM270 230h3v3h-3zM270 240h3v3h-3zM270 250h3v3h-3zM270 260h3v3h-3zM270 270h3v3h-3zM270 280h3v3h-3zM270 290h3v3h-3zM270 300h3v3h-3zM270 310h3v3h-3zM270 320h3v3h-3zM270 330h3v3h-3zM270 340h3v3h-3zM270 350h3v3h-3zM270 360h3v3h-3zM280 220h3v3h-3zM280 230h3v3h-3zM280 240h3v3h-3zM280 250h3v3h-3zM280 260h3v3h-3zM280 270h3v3h-3zM280 280h3v3h-3zM280 290h3v3h-3zM280 300h3v3h-3zM280 310h3v3h-3zM280 320h3v3h-3zM280 330h3v3h-3zM280 340h3v3h-3zM280 350h3v3h-3zM280 360h3v3h-3zM290 220h3v3h-3zM290 230h3v3h-3zM290 240h3v3h-3zM290 250h3v3h-3zM290 260h3v3h-3zM290 270h3v3h-3zM290 280h3v3h-3zM290 290h3v3h-3zM290 300h3v3h-3zM290 310h3v3h-3zM290 320h3v3h-3zM290 330h3v3h-3zM290 340h3v3h-3zM290 350h3v3h-3zM290 360h3v3h-3zM300 0h3v3h-3zM300 10h3v3h-3zM300 20h3v3h-3zM300 30h3v3h-3zM300 40h3v3h-3zM300 50h3v3h-3zM300 60h3v3h-3zM300 70h3v3h-3zM300 80h3v3h-3zM300 90h3v3h-3zM300 100h3v3h-3zM300 110h3v3h-3zM300 120h3v3h-3zM300 130h3v3h-3zM300 140h3v3h-3zM310 0h3v3h-3zM310 10h3v3h-3zM310 20h3v3h-3zM310 30h3v3h-3zM310 40h3v3h-3zM310 50h3v3h-3zM310 60h3v3h-3zM310 70h3v3h-3zM310 80h3v3h-3zM310 90h3v3h-3zM310 100h3v3h-3zM310 110h3v3h-3zM310 120h3v3h-3zM310 130h3v3h-3zM310 140h3v3h-3zM320 0h3v3h-3zM320 10h3v3h-3zM320 20h3v3h-3zM320 30h3v3h-3zM320 40h3v3h-3zM320 50h3v3h-3zM320 60h3v3h-3zM320 70h3v3h-3zM320 80h3v3h-3zM320 90h3v3h-3zM320 100h3v3h-3zM320 110h3v3h-3zM320 120h3v3h-3zM320 130h3v3h-3zM320 140h3v3h-3zM330 0h3v3h-3zM330 10h3v3h-3zM330 20h3v3h-3zM330 30h3v3h-3zM330 40h3v3h-3zM330 50h3v3h-3zM330 60h3v3h-3zM330 70h3v3h-3zM330 80h3v3h-3zM330 90h3v3h-3zM330 100h3v3h-3zM330 110h3v3h-3zM330 120h3v3h-3zM330 130h3v3h-3zM330 140h3v3h-3zM340 0h3v3h-3zM340 10h3v3h-3zM340 20h3v3h-3zM340 30h3v3h-3zM340 40h3v3h-3zM340 50h3v3h-3zM340 60h3v3h-3zM340 70h3v3h-3zM340 80h3v3h-3zM340 90h3v3h-3zM340 100h3v3h-3zM340 110h3v3h-3zM340 120h3v3h-3zM340 130h3v3h-3zM340 140h3v3h-3zM350 0h3v3h-3zM350 10h3v3h-3zM350 20h3v3h-3zM350 30h3v3h-3zM350 40h3v3h-3zM350 50h3v3h-3zM350 60h3v3h-3zM350 70h3v3h-3zM350 80h3v3h-3zM350 90h3v3h-3zM350 100h3v3h-3zM350 110h3v3h-3zM350 120h3v3h-3zM350 130h3v3h-3zM350 140h3v3h-3zM360 0h3v3h-3zM360 10h3v3h-3zM360 20h3v3h-3zM360 30h3v3h-3zM360 40h3v3h-3zM360 50h3v3h-3zM360 60h3v3h-3zM360 70h3v3h-3zM360 80h3v3h-3zM360 90h3v3h-3zM360 100h3v3h-3zM360 110h3v3h-3zM360 120h3v3h-3zM360 130h3v3h-3zM360 140h3v3h-3zM370 0h3v3h-3zM370 10h3v3h-3zM370 20h3v3h-3zM370 30h3v3h-3zM370 40h3v3h-3zM370 50h3v3h-3zM370 60h3v3h-3zM370 70h3v3h-3zM370 80h3v3h-3zM370 90h3v3h-3zM370 100h3v3h-3zM370 110h3v3h-3zM370 120h3v3h-3zM370 130h3v3h-3zM370 140h3v3h-3zM380 0h3v3h-3zM380 10h3v3h-3zM380 20h3v3h-3zM380 30h3v3h-3zM380 40h3v3h-3zM380 50h3v3h-3zM380 60h3v3h-3zM380 70h3v3h-3zM380 80h3v3h-3zM380 90h3v3h-3zM380 100h3v3h-3zM380 110h3v3h-3zM380 120h3v3h-3zM380 130h3v3h-3zM380 140h3v3h-3zM390 0h3v3h-3zM390 10h3v3h-3zM390 20h3v3h-3zM390 30h3v3h-3zM390 40h3v3h-3zM390 50h3v3h-3zM390 60h3v3h-3zM390 70h3v3h-3zM390 80h3v3h-3zM390 90h3v3h-3zM390 100h3v3h-3zM390 110h3v3h-3zM390 120h3v3h-3zM390 130h3v3h-3zM390 140h3v3h-3zM400 0h3v3h-3zM400 10h3v3h-3zM400 20h3v3h-3zM400 30h3v3h-3zM400 40h3v3h-3zM400 50h3v3h-3zM400 60h3v3h-3zM400 70h3v3h-3zM400 80h3v3h-3zM400 90h3v3h-3zM400 100h3v3h-3zM400 110h3v3h-3zM400 120h3v3h-3zM400 130h3v3h-3zM400 140h3v3h-3zM410 0h3v3h-3zM410 10h3v3h-3zM410 20h3v3h-3zM410 30h3v3h-3zM410 40h3v3h-3zM410 50h3v3h-3zM410 60h3v3h-3zM410 70h3v3h-3zM410 80h3v3h-3zM410 90h3v3h-3zM410 100h3v3h-3zM410 110h3v3h-3zM410 120h3v3h-3zM410 130h3v3h-3zM410 140h3v3h-3zM420 0h3v3h-3zM420 10h3v3h-3zM420 20h3v3h-3zM420 30h3v3h-3zM420 40h3v3h-3zM420 50h3v3h-3zM420 60h3v3h-3zM420 70h3v3h-3zM420 80h3v3h-3zM420 90h3v3h-3zM420 100h3v3h-3zM420 110h3v3h-3zM420 120h3v3h-3zM420 130h3v3h-3zM420 140h3v3h-3zM430 0h3v3h-3zM430 10h3v3h-3zM430 20h3v3h-3zM430 30h3v3h-3zM430 40h3v3h-3zM430 50h3v3h-3zM430 60h3v3h-3zM430 70h3v3h-3zM430 80h3v3h-3zM430 90h3v3h-3zM430 100h3v3h-3zM430 110h3v3h-3zM430 120h3v3h-3zM430 130h3v3h-3zM430 140h3v3h-3zM440 0h3v3h-3zM440 10h3v3h-3zM440 20h3v3h-3zM440 30h3v3h-3zM440 40h3v3h-3zM440 50h3v3h-3zM440 60h3v3h-3zM440 70h3v3h-3zM440 80h3v3h-3zM440 90h3v3h-3zM440 100h3v3h-3zM440 110h3v3h-3zM440 120h3v3h-3zM440 130h3v3h-3zM440 140h3v3h-3z"/></svg>