<svg width="434" height="373" fill="none" xmlns="http://www.w3.org/2000/svg"><g opacity=".15" fill="#EAEBEB"><path d="M291 150h3v3h-3zM291 160h3v3h-3zM291 170h3v3h-3zM291 180h3v3h-3zM291 190h3v3h-3zM291 200h3v3h-3zM291 210h3v3h-3zM291 220h3v3h-3zM291 230h3v3h-3zM291 240h3v3h-3zM291 250h3v3h-3zM291 260h3v3h-3zM291 270h3v3h-3zM291 280h3v3h-3zM291 290h3v3h-3zM301 150h3v3h-3zM301 160h3v3h-3zM301 170h3v3h-3zM301 180h3v3h-3zM301 190h3v3h-3zM301 200h3v3h-3zM301 210h3v3h-3zM301 220h3v3h-3zM301 230h3v3h-3zM301 240h3v3h-3zM301 250h3v3h-3zM301 260h3v3h-3zM301 270h3v3h-3zM301 280h3v3h-3zM301 290h3v3h-3zM311 150h3v3h-3zM311 160h3v3h-3zM311 170h3v3h-3zM311 180h3v3h-3zM311 190h3v3h-3zM311 200h3v3h-3zM311 210h3v3h-3zM311 220h3v3h-3zM311 230h3v3h-3zM311 240h3v3h-3zM311 250h3v3h-3zM311 260h3v3h-3zM311 270h3v3h-3zM311 280h3v3h-3zM311 290h3v3h-3zM321 150h3v3h-3zM321 160h3v3h-3zM321 170h3v3h-3zM321 180h3v3h-3zM321 190h3v3h-3zM321 200h3v3h-3zM321 210h3v3h-3zM321 220h3v3h-3zM321 230h3v3h-3zM321 240h3v3h-3zM321 250h3v3h-3zM321 260h3v3h-3zM321 270h3v3h-3zM321 280h3v3h-3zM321 290h3v3h-3zM331 150h3v3h-3zM331 160h3v3h-3zM331 170h3v3h-3zM331 180h3v3h-3zM331 190h3v3h-3zM331 200h3v3h-3zM331 210h3v3h-3zM331 220h3v3h-3zM331 230h3v3h-3zM331 240h3v3h-3zM331 250h3v3h-3zM331 260h3v3h-3zM331 270h3v3h-3zM331 280h3v3h-3zM331 290h3v3h-3zM341 150h3v3h-3zM341 160h3v3h-3zM341 170h3v3h-3zM341 180h3v3h-3zM341 190h3v3h-3zM341 200h3v3h-3zM341 210h3v3h-3zM341 220h3v3h-3zM341 230h3v3h-3zM341 240h3v3h-3zM341 250h3v3h-3zM341 260h3v3h-3zM341 270h3v3h-3zM341 280h3v3h-3zM341 290h3v3h-3zM351 150h3v3h-3zM351 160h3v3h-3zM351 170h3v3h-3zM351 180h3v3h-3zM351 190h3v3h-3zM351 200h3v3h-3zM351 210h3v3h-3zM351 220h3v3h-3zM351 230h3v3h-3zM351 240h3v3h-3zM351 250h3v3h-3zM351 260h3v3h-3zM351 270h3v3h-3zM351 280h3v3h-3zM351 290h3v3h-3zM361 150h3v3h-3zM361 160h3v3h-3zM361 170h3v3h-3zM361 180h3v3h-3zM361 190h3v3h-3zM361 200h3v3h-3zM361 210h3v3h-3zM361 220h3v3h-3zM361 230h3v3h-3zM361 240h3v3h-3zM361 250h3v3h-3zM361 260h3v3h-3zM361 270h3v3h-3zM361 280h3v3h-3zM361 290h3v3h-3zM371 150h3v3h-3zM371 160h3v3h-3zM371 170h3v3h-3zM371 180h3v3h-3zM371 190h3v3h-3zM371 200h3v3h-3zM371 210h3v3h-3zM371 220h3v3h-3zM371 230h3v3h-3zM371 240h3v3h-3zM371 250h3v3h-3zM371 260h3v3h-3zM371 270h3v3h-3zM371 280h3v3h-3zM371 290h3v3h-3zM381 150h3v3h-3zM381 160h3v3h-3zM381 170h3v3h-3zM381 180h3v3h-3zM381 190h3v3h-3zM381 200h3v3h-3zM381 210h3v3h-3zM381 220h3v3h-3zM381 230h3v3h-3zM381 240h3v3h-3zM381 250h3v3h-3zM381 260h3v3h-3zM381 270h3v3h-3zM381 280h3v3h-3zM381 290h3v3h-3zM391 150h3v3h-3zM391 160h3v3h-3zM391 170h3v3h-3zM391 180h3v3h-3zM391 190h3v3h-3zM391 200h3v3h-3zM391 210h3v3h-3zM391 220h3v3h-3zM391 230h3v3h-3zM391 240h3v3h-3zM391 250h3v3h-3zM391 260h3v3h-3zM391 270h3v3h-3zM391 280h3v3h-3zM391 290h3v3h-3zM401 150h3v3h-3zM401 160h3v3h-3zM401 170h3v3h-3zM401 180h3v3h-3zM401 190h3v3h-3zM401 200h3v3h-3zM401 210h3v3h-3zM401 220h3v3h-3zM401 230h3v3h-3zM401 240h3v3h-3zM401 250h3v3h-3zM401 260h3v3h-3zM401 270h3v3h-3zM401 280h3v3h-3zM401 290h3v3h-3zM411 150h3v3h-3zM411 160h3v3h-3zM411 170h3v3h-3zM411 180h3v3h-3zM411 190h3v3h-3zM411 200h3v3h-3zM411 210h3v3h-3zM411 220h3v3h-3zM411 230h3v3h-3zM411 240h3v3h-3zM411 250h3v3h-3zM411 260h3v3h-3zM411 270h3v3h-3zM411 280h3v3h-3zM411 290h3v3h-3zM421 150h3v3h-3zM421 160h3v3h-3zM421 170h3v3h-3zM421 180h3v3h-3zM421 190h3v3h-3zM421 200h3v3h-3zM421 210h3v3h-3zM421 220h3v3h-3zM421 230h3v3h-3zM421 240h3v3h-3zM421 250h3v3h-3zM421 260h3v3h-3zM421 270h3v3h-3zM421 280h3v3h-3zM421 290h3v3h-3zM431 150h3v3h-3zM431 160h3v3h-3zM431 170h3v3h-3zM431 180h3v3h-3zM431 190h3v3h-3zM431 200h3v3h-3zM431 210h3v3h-3zM431 220h3v3h-3zM431 230h3v3h-3zM431 240h3v3h-3zM431 250h3v3h-3zM431 260h3v3h-3zM431 270h3v3h-3zM431 280h3v3h-3zM431 290h3v3h-3z"/></g><g opacity=".15" fill="#EAEBEB"><path d="M141 0h3v3h-3zM141 10h3v3h-3zM141 20h3v3h-3zM141 30h3v3h-3zM141 40h3v3h-3zM141 50h3v3h-3zM141 60h3v3h-3zM141 70h3v3h-3zM141 80h3v3h-3zM141 90h3v3h-3zM141 100h3v3h-3zM141 110h3v3h-3zM141 120h3v3h-3zM141 130h3v3h-3zM141 140h3v3h-3zM151 0h3v3h-3zM151 10h3v3h-3zM151 20h3v3h-3zM151 30h3v3h-3zM151 40h3v3h-3zM151 50h3v3h-3zM151 60h3v3h-3zM151 70h3v3h-3zM151 80h3v3h-3zM151 90h3v3h-3zM151 100h3v3h-3zM151 110h3v3h-3zM151 120h3v3h-3zM151 130h3v3h-3zM151 140h3v3h-3zM161 0h3v3h-3zM161 10h3v3h-3zM161 20h3v3h-3zM161 30h3v3h-3zM161 40h3v3h-3zM161 50h3v3h-3zM161 60h3v3h-3zM161 70h3v3h-3zM161 80h3v3h-3zM161 90h3v3h-3zM161 100h3v3h-3zM161 110h3v3h-3zM161 120h3v3h-3zM161 130h3v3h-3zM161 140h3v3h-3zM171 0h3v3h-3zM171 10h3v3h-3zM171 20h3v3h-3zM171 30h3v3h-3zM171 40h3v3h-3zM171 50h3v3h-3zM171 60h3v3h-3zM171 70h3v3h-3zM171 80h3v3h-3zM171 90h3v3h-3zM171 100h3v3h-3zM171 110h3v3h-3zM171 120h3v3h-3zM171 130h3v3h-3zM171 140h3v3h-3zM181 0h3v3h-3zM181 10h3v3h-3zM181 20h3v3h-3zM181 30h3v3h-3zM181 40h3v3h-3zM181 50h3v3h-3zM181 60h3v3h-3zM181 70h3v3h-3zM181 80h3v3h-3zM181 90h3v3h-3zM181 100h3v3h-3zM181 110h3v3h-3zM181 120h3v3h-3zM181 130h3v3h-3zM181 140h3v3h-3zM191 0h3v3h-3zM191 10h3v3h-3zM191 20h3v3h-3zM191 30h3v3h-3zM191 40h3v3h-3zM191 50h3v3h-3zM191 60h3v3h-3zM191 70h3v3h-3zM191 80h3v3h-3zM191 90h3v3h-3zM191 100h3v3h-3zM191 110h3v3h-3zM191 120h3v3h-3zM191 130h3v3h-3zM191 140h3v3h-3zM201 0h3v3h-3zM201 10h3v3h-3zM201 20h3v3h-3zM201 30h3v3h-3zM201 40h3v3h-3zM201 50h3v3h-3zM201 60h3v3h-3zM201 70h3v3h-3zM201 80h3v3h-3zM201 90h3v3h-3zM201 100h3v3h-3zM201 110h3v3h-3zM201 120h3v3h-3zM201 130h3v3h-3zM201 140h3v3h-3zM211 0h3v3h-3zM211 10h3v3h-3zM211 20h3v3h-3zM211 30h3v3h-3zM211 40h3v3h-3zM211 50h3v3h-3zM211 60h3v3h-3zM211 70h3v3h-3zM211 80h3v3h-3zM211 90h3v3h-3zM211 100h3v3h-3zM211 110h3v3h-3zM211 120h3v3h-3zM211 130h3v3h-3zM211 140h3v3h-3zM221 0h3v3h-3zM221 10h3v3h-3zM221 20h3v3h-3zM221 30h3v3h-3zM221 40h3v3h-3zM221 50h3v3h-3zM221 60h3v3h-3zM221 70h3v3h-3zM221 80h3v3h-3zM221 90h3v3h-3zM221 100h3v3h-3zM221 110h3v3h-3zM221 120h3v3h-3zM221 130h3v3h-3zM221 140h3v3h-3zM231 0h3v3h-3zM231 10h3v3h-3zM231 20h3v3h-3zM231 30h3v3h-3zM231 40h3v3h-3zM231 50h3v3h-3zM231 60h3v3h-3zM231 70h3v3h-3zM231 80h3v3h-3zM231 90h3v3h-3zM231 100h3v3h-3zM231 110h3v3h-3zM231 120h3v3h-3zM231 130h3v3h-3zM231 140h3v3h-3zM241 0h3v3h-3zM241 10h3v3h-3zM241 20h3v3h-3zM241 30h3v3h-3zM241 40h3v3h-3zM241 50h3v3h-3zM241 60h3v3h-3zM241 70h3v3h-3zM241 80h3v3h-3zM241 90h3v3h-3zM241 100h3v3h-3zM241 110h3v3h-3zM241 120h3v3h-3zM241 130h3v3h-3zM241 140h3v3h-3zM251 0h3v3h-3zM251 10h3v3h-3zM251 20h3v3h-3zM251 30h3v3h-3zM251 40h3v3h-3zM251 50h3v3h-3zM251 60h3v3h-3zM251 70h3v3h-3zM251 80h3v3h-3zM251 90h3v3h-3zM251 100h3v3h-3zM251 110h3v3h-3zM251 120h3v3h-3zM251 130h3v3h-3zM251 140h3v3h-3zM261 0h3v3h-3zM261 10h3v3h-3zM261 20h3v3h-3zM261 30h3v3h-3zM261 40h3v3h-3zM261 50h3v3h-3zM261 60h3v3h-3zM261 70h3v3h-3zM261 80h3v3h-3zM261 90h3v3h-3zM261 100h3v3h-3zM261 110h3v3h-3zM261 120h3v3h-3zM261 130h3v3h-3zM261 140h3v3h-3zM271 0h3v3h-3zM271 10h3v3h-3zM271 20h3v3h-3zM271 30h3v3h-3zM271 40h3v3h-3zM271 50h3v3h-3zM271 60h3v3h-3zM271 70h3v3h-3zM271 80h3v3h-3zM271 90h3v3h-3zM271 100h3v3h-3zM271 110h3v3h-3zM271 120h3v3h-3zM271 130h3v3h-3zM271 140h3v3h-3zM281 0h3v3h-3zM281 10h3v3h-3zM281 20h3v3h-3zM281 30h3v3h-3zM281 40h3v3h-3zM281 50h3v3h-3zM281 60h3v3h-3zM281 70h3v3h-3zM281 80h3v3h-3zM281 90h3v3h-3zM281 100h3v3h-3zM281 110h3v3h-3zM281 120h3v3h-3zM281 130h3v3h-3zM281 140h3v3h-3z"/></g><g opacity=".15" fill="#EAEBEB"><path d="M1 0h3v3H1zM1 10h3v3H1zM1 20h3v3H1zM1 30h3v3H1zM1 40h3v3H1zM1 50h3v3H1zM1 60h3v3H1zM1 70h3v3H1zM1 80h3v3H1zM1 90h3v3H1zM1 100h3v3H1zM1 110h3v3H1zM1 120h3v3H1zM1 130h3v3H1zM1 140h3v3H1zM11 0h3v3h-3zM11 10h3v3h-3zM11 20h3v3h-3zM11 30h3v3h-3zM11 40h3v3h-3zM11 50h3v3h-3zM11 60h3v3h-3zM11 70h3v3h-3zM11 80h3v3h-3zM11 90h3v3h-3zM11 100h3v3h-3zM11 110h3v3h-3zM11 120h3v3h-3zM11 130h3v3h-3zM11 140h3v3h-3zM21 0h3v3h-3zM21 10h3v3h-3zM21 20h3v3h-3zM21 30h3v3h-3zM21 40h3v3h-3zM21 50h3v3h-3zM21 60h3v3h-3zM21 70h3v3h-3zM21 80h3v3h-3zM21 90h3v3h-3zM21 100h3v3h-3zM21 110h3v3h-3zM21 120h3v3h-3zM21 130h3v3h-3zM21 140h3v3h-3zM31 0h3v3h-3zM31 10h3v3h-3zM31 20h3v3h-3zM31 30h3v3h-3zM31 40h3v3h-3zM31 50h3v3h-3zM31 60h3v3h-3zM31 70h3v3h-3zM31 80h3v3h-3zM31 90h3v3h-3zM31 100h3v3h-3zM31 110h3v3h-3zM31 120h3v3h-3zM31 130h3v3h-3zM31 140h3v3h-3zM41 0h3v3h-3zM41 10h3v3h-3zM41 20h3v3h-3zM41 30h3v3h-3zM41 40h3v3h-3zM41 50h3v3h-3zM41 60h3v3h-3zM41 70h3v3h-3zM41 80h3v3h-3zM41 90h3v3h-3zM41 100h3v3h-3zM41 110h3v3h-3zM41 120h3v3h-3zM41 130h3v3h-3zM41 140h3v3h-3zM51 0h3v3h-3zM51 10h3v3h-3zM51 20h3v3h-3zM51 30h3v3h-3zM51 40h3v3h-3zM51 50h3v3h-3zM51 60h3v3h-3zM51 70h3v3h-3zM51 80h3v3h-3zM51 90h3v3h-3zM51 100h3v3h-3zM51 110h3v3h-3zM51 120h3v3h-3zM51 130h3v3h-3zM51 140h3v3h-3zM61 0h3v3h-3zM61 10h3v3h-3zM61 20h3v3h-3zM61 30h3v3h-3zM61 40h3v3h-3zM61 50h3v3h-3zM61 60h3v3h-3zM61 70h3v3h-3zM61 80h3v3h-3zM61 90h3v3h-3zM61 100h3v3h-3zM61 110h3v3h-3zM61 120h3v3h-3zM61 130h3v3h-3zM61 140h3v3h-3zM71 0h3v3h-3zM71 10h3v3h-3zM71 20h3v3h-3zM71 30h3v3h-3zM71 40h3v3h-3zM71 50h3v3h-3zM71 60h3v3h-3zM71 70h3v3h-3zM71 80h3v3h-3zM71 90h3v3h-3zM71 100h3v3h-3zM71 110h3v3h-3zM71 120h3v3h-3zM71 130h3v3h-3zM71 140h3v3h-3zM81 0h3v3h-3zM81 10h3v3h-3zM81 20h3v3h-3zM81 30h3v3h-3zM81 40h3v3h-3zM81 50h3v3h-3zM81 60h3v3h-3zM81 70h3v3h-3zM81 80h3v3h-3zM81 90h3v3h-3zM81 100h3v3h-3zM81 110h3v3h-3zM81 120h3v3h-3zM81 130h3v3h-3zM81 140h3v3h-3zM91 0h3v3h-3zM91 10h3v3h-3zM91 20h3v3h-3zM91 30h3v3h-3zM91 40h3v3h-3zM91 50h3v3h-3zM91 60h3v3h-3zM91 70h3v3h-3zM91 80h3v3h-3zM91 90h3v3h-3zM91 100h3v3h-3zM91 110h3v3h-3zM91 120h3v3h-3zM91 130h3v3h-3zM91 140h3v3h-3zM101 0h3v3h-3zM101 10h3v3h-3zM101 20h3v3h-3zM101 30h3v3h-3zM101 40h3v3h-3zM101 50h3v3h-3zM101 60h3v3h-3zM101 70h3v3h-3zM101 80h3v3h-3zM101 90h3v3h-3zM101 100h3v3h-3zM101 110h3v3h-3zM101 120h3v3h-3zM101 130h3v3h-3zM101 140h3v3h-3zM111 0h3v3h-3zM111 10h3v3h-3zM111 20h3v3h-3zM111 30h3v3h-3zM111 40h3v3h-3zM111 50h3v3h-3zM111 60h3v3h-3zM111 70h3v3h-3zM111 80h3v3h-3zM111 90h3v3h-3zM111 100h3v3h-3zM111 110h3v3h-3zM111 120h3v3h-3zM111 130h3v3h-3zM111 140h3v3h-3zM121 0h3v3h-3zM121 10h3v3h-3zM121 20h3v3h-3zM121 30h3v3h-3zM121 40h3v3h-3zM121 50h3v3h-3zM121 60h3v3h-3zM121 70h3v3h-3zM121 80h3v3h-3zM121 90h3v3h-3zM121 100h3v3h-3zM121 110h3v3h-3zM121 120h3v3h-3zM121 130h3v3h-3zM121 140h3v3h-3zM131 0h3v3h-3zM131 10h3v3h-3zM131 20h3v3h-3zM131 30h3v3h-3zM131 40h3v3h-3zM131 50h3v3h-3zM131 60h3v3h-3zM131 70h3v3h-3zM131 80h3v3h-3zM131 90h3v3h-3zM131 100h3v3h-3zM131 110h3v3h-3zM131 120h3v3h-3zM131 130h3v3h-3zM131 140h3v3h-3z"/></g><g opacity=".15" fill="#EAEBEB"><path d="M141 150h3v3h-3zM141 160h3v3h-3zM141 170h3v3h-3zM141 180h3v3h-3zM141 190h3v3h-3zM141 200h3v3h-3zM141 210h3v3h-3zM141 220h3v3h-3zM141 230h3v3h-3zM141 240h3v3h-3zM141 250h3v3h-3zM141 260h3v3h-3zM141 270h3v3h-3zM141 280h3v3h-3zM141 290h3v3h-3zM151 150h3v3h-3zM151 160h3v3h-3zM151 170h3v3h-3zM151 180h3v3h-3zM151 190h3v3h-3zM151 200h3v3h-3zM151 210h3v3h-3zM151 220h3v3h-3zM151 230h3v3h-3zM151 240h3v3h-3zM151 250h3v3h-3zM151 260h3v3h-3zM151 270h3v3h-3zM151 280h3v3h-3zM151 290h3v3h-3zM161 150h3v3h-3zM161 160h3v3h-3zM161 170h3v3h-3zM161 180h3v3h-3zM161 190h3v3h-3zM161 200h3v3h-3zM161 210h3v3h-3zM161 220h3v3h-3zM161 230h3v3h-3zM161 240h3v3h-3zM161 250h3v3h-3zM161 260h3v3h-3zM161 270h3v3h-3zM161 280h3v3h-3zM161 290h3v3h-3zM171 150h3v3h-3zM171 160h3v3h-3zM171 170h3v3h-3zM171 180h3v3h-3zM171 190h3v3h-3zM171 200h3v3h-3zM171 210h3v3h-3zM171 220h3v3h-3zM171 230h3v3h-3zM171 240h3v3h-3zM171 250h3v3h-3zM171 260h3v3h-3zM171 270h3v3h-3zM171 280h3v3h-3zM171 290h3v3h-3zM181 150h3v3h-3zM181 160h3v3h-3zM181 170h3v3h-3zM181 180h3v3h-3zM181 190h3v3h-3zM181 200h3v3h-3zM181 210h3v3h-3zM181 220h3v3h-3zM181 230h3v3h-3zM181 240h3v3h-3zM181 250h3v3h-3zM181 260h3v3h-3zM181 270h3v3h-3zM181 280h3v3h-3zM181 290h3v3h-3zM191 150h3v3h-3zM191 160h3v3h-3zM191 170h3v3h-3zM191 180h3v3h-3zM191 190h3v3h-3zM191 200h3v3h-3zM191 210h3v3h-3zM191 220h3v3h-3zM191 230h3v3h-3zM191 240h3v3h-3zM191 250h3v3h-3zM191 260h3v3h-3zM191 270h3v3h-3zM191 280h3v3h-3zM191 290h3v3h-3zM201 150h3v3h-3zM201 160h3v3h-3zM201 170h3v3h-3zM201 180h3v3h-3zM201 190h3v3h-3zM201 200h3v3h-3zM201 210h3v3h-3zM201 220h3v3h-3zM201 230h3v3h-3zM201 240h3v3h-3zM201 250h3v3h-3zM201 260h3v3h-3zM201 270h3v3h-3zM201 280h3v3h-3zM201 290h3v3h-3zM211 150h3v3h-3zM211 160h3v3h-3zM211 170h3v3h-3zM211 180h3v3h-3zM211 190h3v3h-3zM211 200h3v3h-3zM211 210h3v3h-3zM211 220h3v3h-3zM211 230h3v3h-3zM211 240h3v3h-3zM211 250h3v3h-3zM211 260h3v3h-3zM211 270h3v3h-3zM211 280h3v3h-3zM211 290h3v3h-3zM221 150h3v3h-3zM221 160h3v3h-3zM221 170h3v3h-3zM221 180h3v3h-3zM221 190h3v3h-3zM221 200h3v3h-3zM221 210h3v3h-3zM221 220h3v3h-3zM221 230h3v3h-3zM221 240h3v3h-3zM221 250h3v3h-3zM221 260h3v3h-3zM221 270h3v3h-3zM221 280h3v3h-3zM221 290h3v3h-3zM231 150h3v3h-3zM231 160h3v3h-3zM231 170h3v3h-3zM231 180h3v3h-3zM231 190h3v3h-3zM231 200h3v3h-3zM231 210h3v3h-3zM231 220h3v3h-3zM231 230h3v3h-3zM231 240h3v3h-3zM231 250h3v3h-3zM231 260h3v3h-3zM231 270h3v3h-3zM231 280h3v3h-3zM231 290h3v3h-3zM241 150h3v3h-3zM241 160h3v3h-3zM241 170h3v3h-3zM241 180h3v3h-3zM241 190h3v3h-3zM241 200h3v3h-3zM241 210h3v3h-3zM241 220h3v3h-3zM241 230h3v3h-3zM241 240h3v3h-3zM241 250h3v3h-3zM241 260h3v3h-3zM241 270h3v3h-3zM241 280h3v3h-3zM241 290h3v3h-3zM251 150h3v3h-3zM251 160h3v3h-3zM251 170h3v3h-3zM251 180h3v3h-3zM251 190h3v3h-3zM251 200h3v3h-3zM251 210h3v3h-3zM251 220h3v3h-3zM251 230h3v3h-3zM251 240h3v3h-3zM251 250h3v3h-3zM251 260h3v3h-3zM251 270h3v3h-3zM251 280h3v3h-3zM251 290h3v3h-3zM261 150h3v3h-3zM261 160h3v3h-3zM261 170h3v3h-3zM261 180h3v3h-3zM261 190h3v3h-3zM261 200h3v3h-3zM261 210h3v3h-3zM261 220h3v3h-3zM261 230h3v3h-3zM261 240h3v3h-3zM261 250h3v3h-3zM261 260h3v3h-3zM261 270h3v3h-3zM261 280h3v3h-3zM261 290h3v3h-3zM271 150h3v3h-3zM271 160h3v3h-3zM271 170h3v3h-3zM271 180h3v3h-3zM271 190h3v3h-3zM271 200h3v3h-3zM271 210h3v3h-3zM271 220h3v3h-3zM271 230h3v3h-3zM271 240h3v3h-3zM271 250h3v3h-3zM271 260h3v3h-3zM271 270h3v3h-3zM271 280h3v3h-3zM271 290h3v3h-3zM281 150h3v3h-3zM281 160h3v3h-3zM281 170h3v3h-3zM281 180h3v3h-3zM281 190h3v3h-3zM281 200h3v3h-3zM281 210h3v3h-3zM281 220h3v3h-3zM281 230h3v3h-3zM281 240h3v3h-3zM281 250h3v3h-3zM281 260h3v3h-3zM281 270h3v3h-3zM281 280h3v3h-3zM281 290h3v3h-3z"/></g><g opacity=".15" fill="#EAEBEB"><path d="M1 150h3v3H1zM1 160h3v3H1zM1 170h3v3H1zM1 180h3v3H1zM1 190h3v3H1zM1 200h3v3H1zM1 210h3v3H1zM1 220h3v3H1zM1 230h3v3H1zM1 240h3v3H1zM1 250h3v3H1zM1 260h3v3H1zM1 270h3v3H1zM1 280h3v3H1zM1 290h3v3H1zM11 150h3v3h-3zM11 160h3v3h-3zM11 170h3v3h-3zM11 180h3v3h-3zM11 190h3v3h-3zM11 200h3v3h-3zM11 210h3v3h-3zM11 220h3v3h-3zM11 230h3v3h-3zM11 240h3v3h-3zM11 250h3v3h-3zM11 260h3v3h-3zM11 270h3v3h-3zM11 280h3v3h-3zM11 290h3v3h-3zM21 150h3v3h-3zM21 160h3v3h-3zM21 170h3v3h-3zM21 180h3v3h-3zM21 190h3v3h-3zM21 200h3v3h-3zM21 210h3v3h-3zM21 220h3v3h-3zM21 230h3v3h-3zM21 240h3v3h-3zM21 250h3v3h-3zM21 260h3v3h-3zM21 270h3v3h-3zM21 280h3v3h-3zM21 290h3v3h-3zM31 150h3v3h-3zM31 160h3v3h-3zM31 170h3v3h-3zM31 180h3v3h-3zM31 190h3v3h-3zM31 200h3v3h-3zM31 210h3v3h-3zM31 220h3v3h-3zM31 230h3v3h-3zM31 240h3v3h-3zM31 250h3v3h-3zM31 260h3v3h-3zM31 270h3v3h-3zM31 280h3v3h-3zM31 290h3v3h-3zM41 150h3v3h-3zM41 160h3v3h-3zM41 170h3v3h-3zM41 180h3v3h-3zM41 190h3v3h-3zM41 200h3v3h-3zM41 210h3v3h-3zM41 220h3v3h-3zM41 230h3v3h-3zM41 240h3v3h-3zM41 250h3v3h-3zM41 260h3v3h-3zM41 270h3v3h-3zM41 280h3v3h-3zM41 290h3v3h-3zM51 150h3v3h-3zM51 160h3v3h-3zM51 170h3v3h-3zM51 180h3v3h-3zM51 190h3v3h-3zM51 200h3v3h-3zM51 210h3v3h-3zM51 220h3v3h-3zM51 230h3v3h-3zM51 240h3v3h-3zM51 250h3v3h-3zM51 260h3v3h-3zM51 270h3v3h-3zM51 280h3v3h-3zM51 290h3v3h-3zM61 150h3v3h-3zM61 160h3v3h-3zM61 170h3v3h-3zM61 180h3v3h-3zM61 190h3v3h-3zM61 200h3v3h-3zM61 210h3v3h-3zM61 220h3v3h-3zM61 230h3v3h-3zM61 240h3v3h-3zM61 250h3v3h-3zM61 260h3v3h-3zM61 270h3v3h-3zM61 280h3v3h-3zM61 290h3v3h-3zM71 150h3v3h-3zM71 160h3v3h-3zM71 170h3v3h-3zM71 180h3v3h-3zM71 190h3v3h-3zM71 200h3v3h-3zM71 210h3v3h-3zM71 220h3v3h-3zM71 230h3v3h-3zM71 240h3v3h-3zM71 250h3v3h-3zM71 260h3v3h-3zM71 270h3v3h-3zM71 280h3v3h-3zM71 290h3v3h-3zM81 150h3v3h-3zM81 160h3v3h-3zM81 170h3v3h-3zM81 180h3v3h-3zM81 190h3v3h-3zM81 200h3v3h-3zM81 210h3v3h-3zM81 220h3v3h-3zM81 230h3v3h-3zM81 240h3v3h-3zM81 250h3v3h-3zM81 260h3v3h-3zM81 270h3v3h-3zM81 280h3v3h-3zM81 290h3v3h-3zM91 150h3v3h-3zM91 160h3v3h-3zM91 170h3v3h-3zM91 180h3v3h-3zM91 190h3v3h-3zM91 200h3v3h-3zM91 210h3v3h-3zM91 220h3v3h-3zM91 230h3v3h-3zM91 240h3v3h-3zM91 250h3v3h-3zM91 260h3v3h-3zM91 270h3v3h-3zM91 280h3v3h-3zM91 290h3v3h-3zM101 150h3v3h-3zM101 160h3v3h-3zM101 170h3v3h-3zM101 180h3v3h-3zM101 190h3v3h-3zM101 200h3v3h-3zM101 210h3v3h-3zM101 220h3v3h-3zM101 230h3v3h-3zM101 240h3v3h-3zM101 250h3v3h-3zM101 260h3v3h-3zM101 270h3v3h-3zM101 280h3v3h-3zM101 290h3v3h-3zM111 150h3v3h-3zM111 160h3v3h-3zM111 170h3v3h-3zM111 180h3v3h-3zM111 190h3v3h-3zM111 200h3v3h-3zM111 210h3v3h-3zM111 220h3v3h-3zM111 230h3v3h-3zM111 240h3v3h-3zM111 250h3v3h-3zM111 260h3v3h-3zM111 270h3v3h-3zM111 280h3v3h-3zM111 290h3v3h-3zM121 150h3v3h-3zM121 160h3v3h-3zM121 170h3v3h-3zM121 180h3v3h-3zM121 190h3v3h-3zM121 200h3v3h-3zM121 210h3v3h-3zM121 220h3v3h-3zM121 230h3v3h-3zM121 240h3v3h-3zM121 250h3v3h-3zM121 260h3v3h-3zM121 270h3v3h-3zM121 280h3v3h-3zM121 290h3v3h-3zM131 150h3v3h-3zM131 160h3v3h-3zM131 170h3v3h-3zM131 180h3v3h-3zM131 190h3v3h-3zM131 200h3v3h-3zM131 210h3v3h-3zM131 220h3v3h-3zM131 230h3v3h-3zM131 240h3v3h-3zM131 250h3v3h-3zM131 260h3v3h-3zM131 270h3v3h-3zM131 280h3v3h-3zM131 290h3v3h-3z"/></g><g opacity=".15" fill="#EAEBEB"><path d="M141 300h3v3h-3zM141 310h3v3h-3zM141 320h3v3h-3zM141 330h3v3h-3zM141 340h3v3h-3zM141 350h3v3h-3zM141 360h3v3h-3zM141 370h3v3h-3zM151 300h3v3h-3zM151 310h3v3h-3zM151 320h3v3h-3zM151 330h3v3h-3zM151 340h3v3h-3zM151 350h3v3h-3zM151 360h3v3h-3zM151 370h3v3h-3zM161 300h3v3h-3zM161 310h3v3h-3zM161 320h3v3h-3zM161 330h3v3h-3zM161 340h3v3h-3zM161 350h3v3h-3zM161 360h3v3h-3zM161 370h3v3h-3zM171 300h3v3h-3zM171 310h3v3h-3zM171 320h3v3h-3zM171 330h3v3h-3zM171 340h3v3h-3zM171 350h3v3h-3zM171 360h3v3h-3zM171 370h3v3h-3zM181 300h3v3h-3zM181 310h3v3h-3zM181 320h3v3h-3zM181 330h3v3h-3zM181 340h3v3h-3zM181 350h3v3h-3zM181 360h3v3h-3zM181 370h3v3h-3zM191 300h3v3h-3zM191 310h3v3h-3zM191 320h3v3h-3zM191 330h3v3h-3zM191 340h3v3h-3zM191 350h3v3h-3zM191 360h3v3h-3zM191 370h3v3h-3zM201 300h3v3h-3zM201 310h3v3h-3zM201 320h3v3h-3zM201 330h3v3h-3zM201 340h3v3h-3zM201 350h3v3h-3zM201 360h3v3h-3zM201 370h3v3h-3zM211 300h3v3h-3zM211 310h3v3h-3zM211 320h3v3h-3zM211 330h3v3h-3zM211 340h3v3h-3zM211 350h3v3h-3zM211 360h3v3h-3zM211 370h3v3h-3zM221 300h3v3h-3zM221 310h3v3h-3zM221 320h3v3h-3zM221 330h3v3h-3zM221 340h3v3h-3zM221 350h3v3h-3zM221 360h3v3h-3zM221 370h3v3h-3zM231 300h3v3h-3zM231 310h3v3h-3zM231 320h3v3h-3zM231 330h3v3h-3zM231 340h3v3h-3zM231 350h3v3h-3zM231 360h3v3h-3zM231 370h3v3h-3zM241 300h3v3h-3zM241 310h3v3h-3zM241 320h3v3h-3zM241 330h3v3h-3zM241 340h3v3h-3zM241 350h3v3h-3zM241 360h3v3h-3zM241 370h3v3h-3zM251 300h3v3h-3zM251 310h3v3h-3zM251 320h3v3h-3zM251 330h3v3h-3zM251 340h3v3h-3zM251 350h3v3h-3zM251 360h3v3h-3zM251 370h3v3h-3zM261 300h3v3h-3zM261 310h3v3h-3zM261 320h3v3h-3zM261 330h3v3h-3zM261 340h3v3h-3zM261 350h3v3h-3zM261 360h3v3h-3zM261 370h3v3h-3zM271 300h3v3h-3zM271 310h3v3h-3zM271 320h3v3h-3zM271 330h3v3h-3zM271 340h3v3h-3zM271 350h3v3h-3zM271 360h3v3h-3zM271 370h3v3h-3zM281 300h3v3h-3zM281 310h3v3h-3zM281 320h3v3h-3zM281 330h3v3h-3zM281 340h3v3h-3zM281 350h3v3h-3zM281 360h3v3h-3zM281 370h3v3h-3z"/></g></svg>