<svg width="444" height="295" fill="none" xmlns="http://www.w3.org/2000/svg"><path fill="#EAEBEB" d="M1 150h3v3H1zM1 160h3v3H1zM1 170h3v3H1zM1 180h3v3H1zM1 190h3v3H1zM1 200h3v3H1zM1 210h3v3H1zM1 220h3v3H1zM1 230h3v3H1zM1 240h3v3H1zM1 250h3v3H1zM1 260h3v3H1zM1 270h3v3H1zM1 280h3v3H1zM1 290h3v3H1zM11 150h3v3h-3zM11 160h3v3h-3zM11 170h3v3h-3zM11 180h3v3h-3zM11 190h3v3h-3zM11 200h3v3h-3zM11 210h3v3h-3zM11 220h3v3h-3zM11 230h3v3h-3zM11 240h3v3h-3zM11 250h3v3h-3zM11 260h3v3h-3zM11 270h3v3h-3zM11 280h3v3h-3zM11 290h3v3h-3zM21 150h3v3h-3zM21 160h3v3h-3zM21 170h3v3h-3zM21 180h3v3h-3zM21 190h3v3h-3zM21 200h3v3h-3zM21 210h3v3h-3zM21 220h3v3h-3zM21 230h3v3h-3zM21 240h3v3h-3zM21 250h3v3h-3zM21 260h3v3h-3zM21 270h3v3h-3zM21 280h3v3h-3zM21 290h3v3h-3zM31 150h3v3h-3zM31 160h3v3h-3zM31 170h3v3h-3zM31 180h3v3h-3zM31 190h3v3h-3zM31 200h3v3h-3zM31 210h3v3h-3zM31 220h3v3h-3zM31 230h3v3h-3zM31 240h3v3h-3zM31 250h3v3h-3zM31 260h3v3h-3zM31 270h3v3h-3zM31 280h3v3h-3zM31 290h3v3h-3zM41 150h3v3h-3zM41 160h3v3h-3zM41 170h3v3h-3zM41 180h3v3h-3zM41 190h3v3h-3zM41 200h3v3h-3zM41 210h3v3h-3zM41 220h3v3h-3zM41 230h3v3h-3zM41 240h3v3h-3zM41 250h3v3h-3zM41 260h3v3h-3zM41 270h3v3h-3zM41 280h3v3h-3zM41 290h3v3h-3zM51 150h3v3h-3zM51 160h3v3h-3zM51 170h3v3h-3zM51 180h3v3h-3zM51 190h3v3h-3zM51 200h3v3h-3zM51 210h3v3h-3zM51 220h3v3h-3zM51 230h3v3h-3zM51 240h3v3h-3zM51 250h3v3h-3zM51 260h3v3h-3zM51 270h3v3h-3zM51 280h3v3h-3zM51 290h3v3h-3zM61 150h3v3h-3zM61 160h3v3h-3zM61 170h3v3h-3zM61 180h3v3h-3zM61 190h3v3h-3zM61 200h3v3h-3zM61 210h3v3h-3zM61 220h3v3h-3zM61 230h3v3h-3zM61 240h3v3h-3zM61 250h3v3h-3zM61 260h3v3h-3zM61 270h3v3h-3zM61 280h3v3h-3zM61 290h3v3h-3zM71 150h3v3h-3zM71 160h3v3h-3zM71 170h3v3h-3zM71 180h3v3h-3zM71 190h3v3h-3zM71 200h3v3h-3zM71 210h3v3h-3zM71 220h3v3h-3zM71 230h3v3h-3zM71 240h3v3h-3zM71 250h3v3h-3zM71 260h3v3h-3zM71 270h3v3h-3zM71 280h3v3h-3zM71 290h3v3h-3zM81 150h3v3h-3zM81 160h3v3h-3zM81 170h3v3h-3zM81 180h3v3h-3zM81 190h3v3h-3zM81 200h3v3h-3zM81 210h3v3h-3zM81 220h3v3h-3zM81 230h3v3h-3zM81 240h3v3h-3zM81 250h3v3h-3zM81 260h3v3h-3zM81 270h3v3h-3zM81 280h3v3h-3zM81 290h3v3h-3zM91 150h3v3h-3zM91 160h3v3h-3zM91 170h3v3h-3zM91 180h3v3h-3zM91 190h3v3h-3zM91 200h3v3h-3zM91 210h3v3h-3zM91 220h3v3h-3zM91 230h3v3h-3zM91 240h3v3h-3zM91 250h3v3h-3zM91 260h3v3h-3zM91 270h3v3h-3zM91 280h3v3h-3zM91 290h3v3h-3zM101 150h3v3h-3zM101 160h3v3h-3zM101 170h3v3h-3zM101 180h3v3h-3zM101 190h3v3h-3zM101 200h3v3h-3zM101 210h3v3h-3zM101 220h3v3h-3zM101 230h3v3h-3zM101 240h3v3h-3zM101 250h3v3h-3zM101 260h3v3h-3zM101 270h3v3h-3zM101 280h3v3h-3zM101 290h3v3h-3zM111 150h3v3h-3zM111 160h3v3h-3zM111 170h3v3h-3zM111 180h3v3h-3zM111 190h3v3h-3zM111 200h3v3h-3zM111 210h3v3h-3zM111 220h3v3h-3zM111 230h3v3h-3zM111 240h3v3h-3zM111 250h3v3h-3zM111 260h3v3h-3zM111 270h3v3h-3zM111 280h3v3h-3zM111 290h3v3h-3zM121 150h3v3h-3zM121 160h3v3h-3zM121 170h3v3h-3zM121 180h3v3h-3zM121 190h3v3h-3zM121 200h3v3h-3zM121 210h3v3h-3zM121 220h3v3h-3zM121 230h3v3h-3zM121 240h3v3h-3zM121 250h3v3h-3zM121 260h3v3h-3zM121 270h3v3h-3zM121 280h3v3h-3zM121 290h3v3h-3zM131 150h3v3h-3zM131 160h3v3h-3zM131 170h3v3h-3zM131 180h3v3h-3zM131 190h3v3h-3zM131 200h3v3h-3zM131 210h3v3h-3zM131 220h3v3h-3zM131 230h3v3h-3zM131 240h3v3h-3zM131 250h3v3h-3zM131 260h3v3h-3zM131 270h3v3h-3zM131 280h3v3h-3zM131 290h3v3h-3zM141 150h3v3h-3zM141 160h3v3h-3zM141 170h3v3h-3zM141 180h3v3h-3zM141 190h3v3h-3zM141 200h3v3h-3zM141 210h3v3h-3zM141 220h3v3h-3zM141 230h3v3h-3zM141 240h3v3h-3zM141 250h3v3h-3zM141 260h3v3h-3zM141 270h3v3h-3zM141 280h3v3h-3zM141 290h3v3h-3zM151 0h3v3h-3zM151 10h3v3h-3zM151 20h3v3h-3zM151 30h3v3h-3zM151 40h3v3h-3zM151 50h3v3h-3zM151 60h3v3h-3zM151 70h3v3h-3zM151 80h3v3h-3zM151 90h3v3h-3zM151 100h3v3h-3zM151 110h3v3h-3zM151 120h3v3h-3zM151 130h3v3h-3zM151 140h3v3h-3zM161 0h3v3h-3zM161 10h3v3h-3zM161 20h3v3h-3zM161 30h3v3h-3zM161 40h3v3h-3zM161 50h3v3h-3zM161 60h3v3h-3zM161 70h3v3h-3zM161 80h3v3h-3zM161 90h3v3h-3zM161 100h3v3h-3zM161 110h3v3h-3zM161 120h3v3h-3zM161 130h3v3h-3zM161 140h3v3h-3zM171 0h3v3h-3zM171 10h3v3h-3zM171 20h3v3h-3zM171 30h3v3h-3zM171 40h3v3h-3zM171 50h3v3h-3zM171 60h3v3h-3zM171 70h3v3h-3zM171 80h3v3h-3zM171 90h3v3h-3zM171 100h3v3h-3zM171 110h3v3h-3zM171 120h3v3h-3zM171 130h3v3h-3zM171 140h3v3h-3zM181 0h3v3h-3zM181 10h3v3h-3zM181 20h3v3h-3zM181 30h3v3h-3zM181 40h3v3h-3zM181 50h3v3h-3zM181 60h3v3h-3zM181 70h3v3h-3zM181 80h3v3h-3zM181 90h3v3h-3zM181 100h3v3h-3zM181 110h3v3h-3zM181 120h3v3h-3zM181 130h3v3h-3zM181 140h3v3h-3zM191 0h3v3h-3zM191 10h3v3h-3zM191 20h3v3h-3zM191 30h3v3h-3zM191 40h3v3h-3zM191 50h3v3h-3zM191 60h3v3h-3zM191 70h3v3h-3zM191 80h3v3h-3zM191 90h3v3h-3zM191 100h3v3h-3zM191 110h3v3h-3zM191 120h3v3h-3zM191 130h3v3h-3zM191 140h3v3h-3zM201 0h3v3h-3zM201 10h3v3h-3zM201 20h3v3h-3zM201 30h3v3h-3zM201 40h3v3h-3zM201 50h3v3h-3zM201 60h3v3h-3zM201 70h3v3h-3zM201 80h3v3h-3zM201 90h3v3h-3zM201 100h3v3h-3zM201 110h3v3h-3zM201 120h3v3h-3zM201 130h3v3h-3zM201 140h3v3h-3zM211 0h3v3h-3zM211 10h3v3h-3zM211 20h3v3h-3zM211 30h3v3h-3zM211 40h3v3h-3zM211 50h3v3h-3zM211 60h3v3h-3zM211 70h3v3h-3zM211 80h3v3h-3zM211 90h3v3h-3zM211 100h3v3h-3zM211 110h3v3h-3zM211 120h3v3h-3zM211 130h3v3h-3zM211 140h3v3h-3zM221 0h3v3h-3zM221 10h3v3h-3zM221 20h3v3h-3zM221 30h3v3h-3zM221 40h3v3h-3zM221 50h3v3h-3zM221 60h3v3h-3zM221 70h3v3h-3zM221 80h3v3h-3zM221 90h3v3h-3zM221 100h3v3h-3zM221 110h3v3h-3zM221 120h3v3h-3zM221 130h3v3h-3zM221 140h3v3h-3zM231 0h3v3h-3zM231 10h3v3h-3zM231 20h3v3h-3zM231 30h3v3h-3zM231 40h3v3h-3zM231 50h3v3h-3zM231 60h3v3h-3zM231 70h3v3h-3zM231 80h3v3h-3zM231 90h3v3h-3zM231 100h3v3h-3zM231 110h3v3h-3zM231 120h3v3h-3zM231 130h3v3h-3zM231 140h3v3h-3zM241 0h3v3h-3zM241 10h3v3h-3zM241 20h3v3h-3zM241 30h3v3h-3zM241 40h3v3h-3zM241 50h3v3h-3zM241 60h3v3h-3zM241 70h3v3h-3zM241 80h3v3h-3zM241 90h3v3h-3zM241 100h3v3h-3zM241 110h3v3h-3zM241 120h3v3h-3zM241 130h3v3h-3zM241 140h3v3h-3zM251 0h3v3h-3zM251 10h3v3h-3zM251 20h3v3h-3zM251 30h3v3h-3zM251 40h3v3h-3zM251 50h3v3h-3zM251 60h3v3h-3zM251 70h3v3h-3zM251 80h3v3h-3zM251 90h3v3h-3zM251 100h3v3h-3zM251 110h3v3h-3zM251 120h3v3h-3zM251 130h3v3h-3zM251 140h3v3h-3zM261 0h3v3h-3zM261 10h3v3h-3zM261 20h3v3h-3zM261 30h3v3h-3zM261 40h3v3h-3zM261 50h3v3h-3zM261 60h3v3h-3zM261 70h3v3h-3zM261 80h3v3h-3zM261 90h3v3h-3zM261 100h3v3h-3zM261 110h3v3h-3zM261 120h3v3h-3zM261 130h3v3h-3zM261 140h3v3h-3zM271 0h3v3h-3zM271 10h3v3h-3zM271 20h3v3h-3zM271 30h3v3h-3zM271 40h3v3h-3zM271 50h3v3h-3zM271 60h3v3h-3zM271 70h3v3h-3zM271 80h3v3h-3zM271 90h3v3h-3zM271 100h3v3h-3zM271 110h3v3h-3zM271 120h3v3h-3zM271 130h3v3h-3zM271 140h3v3h-3zM281 0h3v3h-3zM281 10h3v3h-3zM281 20h3v3h-3zM281 30h3v3h-3zM281 40h3v3h-3zM281 50h3v3h-3zM281 60h3v3h-3zM281 70h3v3h-3zM281 80h3v3h-3zM281 90h3v3h-3zM281 100h3v3h-3zM281 110h3v3h-3zM281 120h3v3h-3zM281 130h3v3h-3zM281 140h3v3h-3zM291 0h3v3h-3zM291 10h3v3h-3zM291 20h3v3h-3zM291 30h3v3h-3zM291 40h3v3h-3zM291 50h3v3h-3zM291 60h3v3h-3zM291 70h3v3h-3zM291 80h3v3h-3zM291 90h3v3h-3zM291 100h3v3h-3zM291 110h3v3h-3zM291 120h3v3h-3zM291 130h3v3h-3zM291 140h3v3h-3zM0 0h3v3H0zM0 10h3v3H0zM0 20h3v3H0zM0 30h3v3H0zM0 40h3v3H0zM0 50h3v3H0zM0 60h3v3H0zM0 70h3v3H0zM0 80h3v3H0zM0 90h3v3H0zM0 100h3v3H0zM0 110h3v3H0zM0 120h3v3H0zM0 130h3v3H0zM0 140h3v3H0zM10 0h3v3h-3zM10 10h3v3h-3zM10 20h3v3h-3zM10 30h3v3h-3zM10 40h3v3h-3zM10 50h3v3h-3zM10 60h3v3h-3zM10 70h3v3h-3zM10 80h3v3h-3zM10 90h3v3h-3zM10 100h3v3h-3zM10 110h3v3h-3zM10 120h3v3h-3zM10 130h3v3h-3zM10 140h3v3h-3zM20 0h3v3h-3zM20 10h3v3h-3zM20 20h3v3h-3zM20 30h3v3h-3zM20 40h3v3h-3zM20 50h3v3h-3zM20 60h3v3h-3zM20 70h3v3h-3zM20 80h3v3h-3zM20 90h3v3h-3zM20 100h3v3h-3zM20 110h3v3h-3zM20 120h3v3h-3zM20 130h3v3h-3zM20 140h3v3h-3zM30 0h3v3h-3zM30 10h3v3h-3zM30 20h3v3h-3zM30 30h3v3h-3zM30 40h3v3h-3zM30 50h3v3h-3zM30 60h3v3h-3zM30 70h3v3h-3zM30 80h3v3h-3zM30 90h3v3h-3zM30 100h3v3h-3zM30 110h3v3h-3zM30 120h3v3h-3zM30 130h3v3h-3zM30 140h3v3h-3zM40 0h3v3h-3zM40 10h3v3h-3zM40 20h3v3h-3zM40 30h3v3h-3zM40 40h3v3h-3zM40 50h3v3h-3zM40 60h3v3h-3zM40 70h3v3h-3zM40 80h3v3h-3zM40 90h3v3h-3zM40 100h3v3h-3zM40 110h3v3h-3zM40 120h3v3h-3zM40 130h3v3h-3zM40 140h3v3h-3zM50 0h3v3h-3zM50 10h3v3h-3zM50 20h3v3h-3zM50 30h3v3h-3zM50 40h3v3h-3zM50 50h3v3h-3zM50 60h3v3h-3zM50 70h3v3h-3zM50 80h3v3h-3zM50 90h3v3h-3zM50 100h3v3h-3zM50 110h3v3h-3zM50 120h3v3h-3zM50 130h3v3h-3zM50 140h3v3h-3zM60 0h3v3h-3zM60 10h3v3h-3zM60 20h3v3h-3zM60 30h3v3h-3zM60 40h3v3h-3zM60 50h3v3h-3zM60 60h3v3h-3zM60 70h3v3h-3zM60 80h3v3h-3zM60 90h3v3h-3zM60 100h3v3h-3zM60 110h3v3h-3zM60 120h3v3h-3zM60 130h3v3h-3zM60 140h3v3h-3zM70 0h3v3h-3zM70 10h3v3h-3zM70 20h3v3h-3zM70 30h3v3h-3zM70 40h3v3h-3zM70 50h3v3h-3zM70 60h3v3h-3zM70 70h3v3h-3zM70 80h3v3h-3zM70 90h3v3h-3zM70 100h3v3h-3zM70 110h3v3h-3zM70 120h3v3h-3zM70 130h3v3h-3zM70 140h3v3h-3zM80 0h3v3h-3zM80 10h3v3h-3zM80 20h3v3h-3zM80 30h3v3h-3zM80 40h3v3h-3zM80 50h3v3h-3zM80 60h3v3h-3zM80 70h3v3h-3zM80 80h3v3h-3zM80 90h3v3h-3zM80 100h3v3h-3zM80 110h3v3h-3zM80 120h3v3h-3zM80 130h3v3h-3zM80 140h3v3h-3zM90 0h3v3h-3zM90 10h3v3h-3zM90 20h3v3h-3zM90 30h3v3h-3zM90 40h3v3h-3zM90 50h3v3h-3zM90 60h3v3h-3zM90 70h3v3h-3zM90 80h3v3h-3zM90 90h3v3h-3zM90 100h3v3h-3zM90 110h3v3h-3zM90 120h3v3h-3zM90 130h3v3h-3zM90 140h3v3h-3zM100 0h3v3h-3zM100 10h3v3h-3zM100 20h3v3h-3zM100 30h3v3h-3zM100 40h3v3h-3zM100 50h3v3h-3zM100 60h3v3h-3zM100 70h3v3h-3zM100 80h3v3h-3zM100 90h3v3h-3zM100 100h3v3h-3zM100 110h3v3h-3zM100 120h3v3h-3zM100 130h3v3h-3zM100 140h3v3h-3zM110 0h3v3h-3zM110 10h3v3h-3zM110 20h3v3h-3zM110 30h3v3h-3zM110 40h3v3h-3zM110 50h3v3h-3zM110 60h3v3h-3zM110 70h3v3h-3zM110 80h3v3h-3zM110 90h3v3h-3zM110 100h3v3h-3zM110 110h3v3h-3zM110 120h3v3h-3zM110 130h3v3h-3zM110 140h3v3h-3zM120 0h3v3h-3zM120 10h3v3h-3zM120 20h3v3h-3zM120 30h3v3h-3zM120 40h3v3h-3zM120 50h3v3h-3zM120 60h3v3h-3zM120 70h3v3h-3zM120 80h3v3h-3zM120 90h3v3h-3zM120 100h3v3h-3zM120 110h3v3h-3zM120 120h3v3h-3zM120 130h3v3h-3zM120 140h3v3h-3zM130 0h3v3h-3zM130 10h3v3h-3zM130 20h3v3h-3zM130 30h3v3h-3zM130 40h3v3h-3zM130 50h3v3h-3zM130 60h3v3h-3zM130 70h3v3h-3zM130 80h3v3h-3zM130 90h3v3h-3zM130 100h3v3h-3zM130 110h3v3h-3zM130 120h3v3h-3zM130 130h3v3h-3zM130 140h3v3h-3zM140 0h3v3h-3zM140 10h3v3h-3zM140 20h3v3h-3zM140 30h3v3h-3zM140 40h3v3h-3zM140 50h3v3h-3zM140 60h3v3h-3zM140 70h3v3h-3zM140 80h3v3h-3zM140 90h3v3h-3zM140 100h3v3h-3zM140 110h3v3h-3zM140 120h3v3h-3zM140 130h3v3h-3zM140 140h3v3h-3zM151 152h3v3h-3zM151 162h3v3h-3zM151 172h3v3h-3zM151 182h3v3h-3zM151 192h3v3h-3zM151 202h3v3h-3zM151 212h3v3h-3zM151 222h3v3h-3zM151 232h3v3h-3zM151 242h3v3h-3zM151 252h3v3h-3zM151 262h3v3h-3zM151 272h3v3h-3zM151 282h3v3h-3zM151 292h3v3h-3zM161 152h3v3h-3zM161 162h3v3h-3zM161 172h3v3h-3zM161 182h3v3h-3zM161 192h3v3h-3zM161 202h3v3h-3zM161 212h3v3h-3zM161 222h3v3h-3zM161 232h3v3h-3zM161 242h3v3h-3zM161 252h3v3h-3zM161 262h3v3h-3zM161 272h3v3h-3zM161 282h3v3h-3zM161 292h3v3h-3zM171 152h3v3h-3zM171 162h3v3h-3zM171 172h3v3h-3zM171 182h3v3h-3zM171 192h3v3h-3zM171 202h3v3h-3zM171 212h3v3h-3zM171 222h3v3h-3zM171 232h3v3h-3zM171 242h3v3h-3zM171 252h3v3h-3zM171 262h3v3h-3zM171 272h3v3h-3zM171 282h3v3h-3zM171 292h3v3h-3zM181 152h3v3h-3zM181 162h3v3h-3zM181 172h3v3h-3zM181 182h3v3h-3zM181 192h3v3h-3zM181 202h3v3h-3zM181 212h3v3h-3zM181 222h3v3h-3zM181 232h3v3h-3zM181 242h3v3h-3zM181 252h3v3h-3zM181 262h3v3h-3zM181 272h3v3h-3zM181 282h3v3h-3zM181 292h3v3h-3zM191 152h3v3h-3zM191 162h3v3h-3zM191 172h3v3h-3zM191 182h3v3h-3zM191 192h3v3h-3zM191 202h3v3h-3zM191 212h3v3h-3zM191 222h3v3h-3zM191 232h3v3h-3zM191 242h3v3h-3zM191 252h3v3h-3zM191 262h3v3h-3zM191 272h3v3h-3zM191 282h3v3h-3zM191 292h3v3h-3zM201 152h3v3h-3zM201 162h3v3h-3zM201 172h3v3h-3zM201 182h3v3h-3zM201 192h3v3h-3zM201 202h3v3h-3zM201 212h3v3h-3zM201 222h3v3h-3zM201 232h3v3h-3zM201 242h3v3h-3zM201 252h3v3h-3zM201 262h3v3h-3zM201 272h3v3h-3zM201 282h3v3h-3zM201 292h3v3h-3zM211 152h3v3h-3zM211 162h3v3h-3zM211 172h3v3h-3zM211 182h3v3h-3zM211 192h3v3h-3zM211 202h3v3h-3zM211 212h3v3h-3zM211 222h3v3h-3zM211 232h3v3h-3zM211 242h3v3h-3zM211 252h3v3h-3zM211 262h3v3h-3zM211 272h3v3h-3zM211 282h3v3h-3zM211 292h3v3h-3zM221 152h3v3h-3zM221 162h3v3h-3zM221 172h3v3h-3zM221 182h3v3h-3zM221 192h3v3h-3zM221 202h3v3h-3zM221 212h3v3h-3zM221 222h3v3h-3zM221 232h3v3h-3zM221 242h3v3h-3zM221 252h3v3h-3zM221 262h3v3h-3zM221 272h3v3h-3zM221 282h3v3h-3zM221 292h3v3h-3zM231 152h3v3h-3zM231 162h3v3h-3zM231 172h3v3h-3zM231 182h3v3h-3zM231 192h3v3h-3zM231 202h3v3h-3zM231 212h3v3h-3zM231 222h3v3h-3zM231 232h3v3h-3zM231 242h3v3h-3zM231 252h3v3h-3zM231 262h3v3h-3zM231 272h3v3h-3zM231 282h3v3h-3zM231 292h3v3h-3zM241 152h3v3h-3zM241 162h3v3h-3zM241 172h3v3h-3zM241 182h3v3h-3zM241 192h3v3h-3zM241 202h3v3h-3zM241 212h3v3h-3zM241 222h3v3h-3zM241 232h3v3h-3zM241 242h3v3h-3zM241 252h3v3h-3zM241 262h3v3h-3zM241 272h3v3h-3zM241 282h3v3h-3zM241 292h3v3h-3zM251 152h3v3h-3zM251 162h3v3h-3zM251 172h3v3h-3zM251 182h3v3h-3zM251 192h3v3h-3zM251 202h3v3h-3zM251 212h3v3h-3zM251 222h3v3h-3zM251 232h3v3h-3zM251 242h3v3h-3zM251 252h3v3h-3zM251 262h3v3h-3zM251 272h3v3h-3zM251 282h3v3h-3zM251 292h3v3h-3zM261 152h3v3h-3zM261 162h3v3h-3zM261 172h3v3h-3zM261 182h3v3h-3zM261 192h3v3h-3zM261 202h3v3h-3zM261 212h3v3h-3zM261 222h3v3h-3zM261 232h3v3h-3zM261 242h3v3h-3zM261 252h3v3h-3zM261 262h3v3h-3zM261 272h3v3h-3zM261 282h3v3h-3zM261 292h3v3h-3zM271 152h3v3h-3zM271 162h3v3h-3zM271 172h3v3h-3zM271 182h3v3h-3zM271 192h3v3h-3zM271 202h3v3h-3zM271 212h3v3h-3zM271 222h3v3h-3zM271 232h3v3h-3zM271 242h3v3h-3zM271 252h3v3h-3zM271 262h3v3h-3zM271 272h3v3h-3zM271 282h3v3h-3zM271 292h3v3h-3zM281 152h3v3h-3zM281 162h3v3h-3zM281 172h3v3h-3zM281 182h3v3h-3zM281 192h3v3h-3zM281 202h3v3h-3zM281 212h3v3h-3zM281 222h3v3h-3zM281 232h3v3h-3zM281 242h3v3h-3zM281 252h3v3h-3zM281 262h3v3h-3zM281 272h3v3h-3zM281 282h3v3h-3zM281 292h3v3h-3zM291 152h3v3h-3zM291 162h3v3h-3zM291 172h3v3h-3zM291 182h3v3h-3zM291 192h3v3h-3zM291 202h3v3h-3zM291 212h3v3h-3zM291 222h3v3h-3zM291 232h3v3h-3zM291 242h3v3h-3zM291 252h3v3h-3zM291 262h3v3h-3zM291 272h3v3h-3zM291 282h3v3h-3zM291 292h3v3h-3zM301 0h3v3h-3zM301 10h3v3h-3zM301 20h3v3h-3zM301 30h3v3h-3zM301 40h3v3h-3zM301 50h3v3h-3zM301 60h3v3h-3zM301 70h3v3h-3zM301 80h3v3h-3zM301 90h3v3h-3zM301 100h3v3h-3zM301 110h3v3h-3zM301 120h3v3h-3zM301 130h3v3h-3zM301 140h3v3h-3zM311 0h3v3h-3zM311 10h3v3h-3zM311 20h3v3h-3zM311 30h3v3h-3zM311 40h3v3h-3zM311 50h3v3h-3zM311 60h3v3h-3zM311 70h3v3h-3zM311 80h3v3h-3zM311 90h3v3h-3zM311 100h3v3h-3zM311 110h3v3h-3zM311 120h3v3h-3zM311 130h3v3h-3zM311 140h3v3h-3zM321 0h3v3h-3zM321 10h3v3h-3zM321 20h3v3h-3zM321 30h3v3h-3zM321 40h3v3h-3zM321 50h3v3h-3zM321 60h3v3h-3zM321 70h3v3h-3zM321 80h3v3h-3zM321 90h3v3h-3zM321 100h3v3h-3zM321 110h3v3h-3zM321 120h3v3h-3zM321 130h3v3h-3zM321 140h3v3h-3zM331 0h3v3h-3zM331 10h3v3h-3zM331 20h3v3h-3zM331 30h3v3h-3zM331 40h3v3h-3zM331 50h3v3h-3zM331 60h3v3h-3zM331 70h3v3h-3zM331 80h3v3h-3zM331 90h3v3h-3zM331 100h3v3h-3zM331 110h3v3h-3zM331 120h3v3h-3zM331 130h3v3h-3zM331 140h3v3h-3zM341 0h3v3h-3zM341 10h3v3h-3zM341 20h3v3h-3zM341 30h3v3h-3zM341 40h3v3h-3zM341 50h3v3h-3zM341 60h3v3h-3zM341 70h3v3h-3zM341 80h3v3h-3zM341 90h3v3h-3zM341 100h3v3h-3zM341 110h3v3h-3zM341 120h3v3h-3zM341 130h3v3h-3zM341 140h3v3h-3zM351 0h3v3h-3zM351 10h3v3h-3zM351 20h3v3h-3zM351 30h3v3h-3zM351 40h3v3h-3zM351 50h3v3h-3zM351 60h3v3h-3zM351 70h3v3h-3zM351 80h3v3h-3zM351 90h3v3h-3zM351 100h3v3h-3zM351 110h3v3h-3zM351 120h3v3h-3zM351 130h3v3h-3zM351 140h3v3h-3zM361 0h3v3h-3zM361 10h3v3h-3zM361 20h3v3h-3zM361 30h3v3h-3zM361 40h3v3h-3zM361 50h3v3h-3zM361 60h3v3h-3zM361 70h3v3h-3zM361 80h3v3h-3zM361 90h3v3h-3zM361 100h3v3h-3zM361 110h3v3h-3zM361 120h3v3h-3zM361 130h3v3h-3zM361 140h3v3h-3zM371 0h3v3h-3zM371 10h3v3h-3zM371 20h3v3h-3zM371 30h3v3h-3zM371 40h3v3h-3zM371 50h3v3h-3zM371 60h3v3h-3zM371 70h3v3h-3zM371 80h3v3h-3zM371 90h3v3h-3zM371 100h3v3h-3zM371 110h3v3h-3zM371 120h3v3h-3zM371 130h3v3h-3zM371 140h3v3h-3zM381 0h3v3h-3zM381 10h3v3h-3zM381 20h3v3h-3zM381 30h3v3h-3zM381 40h3v3h-3zM381 50h3v3h-3zM381 60h3v3h-3zM381 70h3v3h-3zM381 80h3v3h-3zM381 90h3v3h-3zM381 100h3v3h-3zM381 110h3v3h-3zM381 120h3v3h-3zM381 130h3v3h-3zM381 140h3v3h-3zM391 0h3v3h-3zM391 10h3v3h-3zM391 20h3v3h-3zM391 30h3v3h-3zM391 40h3v3h-3zM391 50h3v3h-3zM391 60h3v3h-3zM391 70h3v3h-3zM391 80h3v3h-3zM391 90h3v3h-3zM391 100h3v3h-3zM391 110h3v3h-3zM391 120h3v3h-3zM391 130h3v3h-3zM391 140h3v3h-3zM401 0h3v3h-3zM401 10h3v3h-3zM401 20h3v3h-3zM401 30h3v3h-3zM401 40h3v3h-3zM401 50h3v3h-3zM401 60h3v3h-3zM401 70h3v3h-3zM401 80h3v3h-3zM401 90h3v3h-3zM401 100h3v3h-3zM401 110h3v3h-3zM401 120h3v3h-3zM401 130h3v3h-3zM401 140h3v3h-3zM411 0h3v3h-3zM411 10h3v3h-3zM411 20h3v3h-3zM411 30h3v3h-3zM411 40h3v3h-3zM411 50h3v3h-3zM411 60h3v3h-3zM411 70h3v3h-3zM411 80h3v3h-3zM411 90h3v3h-3zM411 100h3v3h-3zM411 110h3v3h-3zM411 120h3v3h-3zM411 130h3v3h-3zM411 140h3v3h-3zM421 0h3v3h-3zM421 10h3v3h-3zM421 20h3v3h-3zM421 30h3v3h-3zM421 40h3v3h-3zM421 50h3v3h-3zM421 60h3v3h-3zM421 70h3v3h-3zM421 80h3v3h-3zM421 90h3v3h-3zM421 100h3v3h-3zM421 110h3v3h-3zM421 120h3v3h-3zM421 130h3v3h-3zM421 140h3v3h-3zM431 0h3v3h-3zM431 10h3v3h-3zM431 20h3v3h-3zM431 30h3v3h-3zM431 40h3v3h-3zM431 50h3v3h-3zM431 60h3v3h-3zM431 70h3v3h-3zM431 80h3v3h-3zM431 90h3v3h-3zM431 100h3v3h-3zM431 110h3v3h-3zM431 120h3v3h-3zM431 130h3v3h-3zM431 140h3v3h-3zM441 0h3v3h-3zM441 10h3v3h-3zM441 20h3v3h-3zM441 30h3v3h-3zM441 40h3v3h-3zM441 50h3v3h-3zM441 60h3v3h-3zM441 70h3v3h-3zM441 80h3v3h-3zM441 90h3v3h-3zM441 100h3v3h-3zM441 110h3v3h-3zM441 120h3v3h-3zM441 130h3v3h-3zM441 140h3v3h-3z"/></svg>