<svg width="143" height="263" fill="none" xmlns="http://www.w3.org/2000/svg"><path fill="#E5E6E6" d="M0 0h3v3H0zM0 10h3v3H0zM0 20h3v3H0zM0 30h3v3H0zM0 40h3v3H0zM0 50h3v3H0zM0 60h3v3H0zM0 70h3v3H0zM0 80h3v3H0zM0 90h3v3H0zM0 100h3v3H0zM0 110h3v3H0zM0 120h3v3H0zM0 130h3v3H0zM0 140h3v3H0zM10 0h3v3h-3zM10 10h3v3h-3zM10 20h3v3h-3zM10 30h3v3h-3zM10 40h3v3h-3zM10 50h3v3h-3zM10 60h3v3h-3zM10 70h3v3h-3zM10 80h3v3h-3zM10 90h3v3h-3zM10 100h3v3h-3zM10 110h3v3h-3zM10 120h3v3h-3zM10 130h3v3h-3zM10 140h3v3h-3zM20 0h3v3h-3zM20 10h3v3h-3zM20 20h3v3h-3zM20 30h3v3h-3zM20 40h3v3h-3zM20 50h3v3h-3zM20 60h3v3h-3zM20 70h3v3h-3zM20 80h3v3h-3zM20 90h3v3h-3zM20 100h3v3h-3zM20 110h3v3h-3zM20 120h3v3h-3zM20 130h3v3h-3zM20 140h3v3h-3zM30 0h3v3h-3zM30 10h3v3h-3zM30 20h3v3h-3zM30 30h3v3h-3zM30 40h3v3h-3zM30 50h3v3h-3zM30 60h3v3h-3zM30 70h3v3h-3zM30 80h3v3h-3zM30 90h3v3h-3zM30 100h3v3h-3zM30 110h3v3h-3zM30 120h3v3h-3zM30 130h3v3h-3zM30 140h3v3h-3zM40 0h3v3h-3zM40 10h3v3h-3zM40 20h3v3h-3zM40 30h3v3h-3zM40 40h3v3h-3zM40 50h3v3h-3zM40 60h3v3h-3zM40 70h3v3h-3zM40 80h3v3h-3zM40 90h3v3h-3zM40 100h3v3h-3zM40 110h3v3h-3zM40 120h3v3h-3zM40 130h3v3h-3zM40 140h3v3h-3zM50 100h3v3h-3zM50 110h3v3h-3zM50 120h3v3h-3zM50 130h3v3h-3zM50 140h3v3h-3zM60 100h3v3h-3zM60 110h3v3h-3zM60 120h3v3h-3zM60 130h3v3h-3zM60 140h3v3h-3zM70 100h3v3h-3zM70 110h3v3h-3zM70 120h3v3h-3zM70 130h3v3h-3zM70 140h3v3h-3zM80 100h3v3h-3zM80 110h3v3h-3zM80 120h3v3h-3zM80 130h3v3h-3zM80 140h3v3h-3zM90 100h3v3h-3zM90 110h3v3h-3zM90 120h3v3h-3zM90 130h3v3h-3zM90 140h3v3h-3zM100 100h3v3h-3zM100 110h3v3h-3zM100 120h3v3h-3zM100 130h3v3h-3zM100 140h3v3h-3zM110 100h3v3h-3zM110 110h3v3h-3zM110 120h3v3h-3zM110 130h3v3h-3zM110 140h3v3h-3zM120 100h3v3h-3zM120 110h3v3h-3zM120 120h3v3h-3zM120 130h3v3h-3zM120 140h3v3h-3zM130 100h3v3h-3zM130 110h3v3h-3zM130 120h3v3h-3zM130 130h3v3h-3zM130 140h3v3h-3zM140 100h3v3h-3zM140 110h3v3h-3zM140 120h3v3h-3zM140 130h3v3h-3zM140 140h3v3h-3zM0 150h3v3H0zM0 160h3v3H0zM0 170h3v3H0zM0 180h3v3H0zM0 190h3v3H0zM0 200h3v3H0zM10 150h3v3h-3zM10 160h3v3h-3zM10 170h3v3h-3zM10 180h3v3h-3zM10 190h3v3h-3zM10 200h3v3h-3zM20 150h3v3h-3zM20 160h3v3h-3zM20 170h3v3h-3zM20 180h3v3h-3zM20 190h3v3h-3zM20 200h3v3h-3zM30 150h3v3h-3zM30 160h3v3h-3zM30 170h3v3h-3zM30 180h3v3h-3zM30 190h3v3h-3zM30 200h3v3h-3zM40 150h3v3h-3zM40 160h3v3h-3zM40 170h3v3h-3zM40 180h3v3h-3zM40 190h3v3h-3zM40 200h3v3h-3zM50 150h3v3h-3zM50 160h3v3h-3zM50 170h3v3h-3zM50 180h3v3h-3zM50 190h3v3h-3zM50 200h3v3h-3zM60 150h3v3h-3zM60 160h3v3h-3zM60 170h3v3h-3zM60 180h3v3h-3zM60 190h3v3h-3zM60 200h3v3h-3zM70 150h3v3h-3zM70 160h3v3h-3zM70 170h3v3h-3zM70 180h3v3h-3zM70 190h3v3h-3zM70 200h3v3h-3zM80 150h3v3h-3zM80 160h3v3h-3zM80 170h3v3h-3zM80 180h3v3h-3zM80 190h3v3h-3zM80 200h3v3h-3zM90 150h3v3h-3zM90 160h3v3h-3zM90 170h3v3h-3zM90 180h3v3h-3zM90 190h3v3h-3zM90 200h3v3h-3zM100 150h3v3h-3zM100 160h3v3h-3zM100 170h3v3h-3zM100 180h3v3h-3zM100 190h3v3h-3zM100 200h3v3h-3zM110 150h3v3h-3zM110 160h3v3h-3zM110 170h3v3h-3zM110 180h3v3h-3zM110 190h3v3h-3zM110 200h3v3h-3zM120 150h3v3h-3zM120 160h3v3h-3zM120 170h3v3h-3zM120 180h3v3h-3zM120 190h3v3h-3zM120 200h3v3h-3zM130 150h3v3h-3zM130 160h3v3h-3zM130 170h3v3h-3zM130 180h3v3h-3zM130 190h3v3h-3zM130 200h3v3h-3zM140 150h3v3h-3zM140 160h3v3h-3zM140 170h3v3h-3zM140 180h3v3h-3zM140 190h3v3h-3zM140 200h3v3h-3z"/><g opacity=".15" fill="#E5E6E6"><path d="M0 210h3v3H0zM0 220h3v3H0zM0 230h3v3H0zM0 240h3v3H0zM0 250h3v3H0zM0 260h3v3H0zM10 210h3v3h-3zM10 220h3v3h-3zM10 230h3v3h-3zM10 240h3v3h-3zM10 250h3v3h-3zM10 260h3v3h-3zM20 210h3v3h-3zM20 220h3v3h-3zM20 230h3v3h-3zM20 240h3v3h-3zM20 250h3v3h-3zM20 260h3v3h-3zM30 210h3v3h-3zM30 220h3v3h-3zM30 230h3v3h-3zM30 240h3v3h-3zM30 250h3v3h-3zM30 260h3v3h-3zM40 210h3v3h-3zM40 220h3v3h-3zM40 230h3v3h-3zM40 240h3v3h-3zM40 250h3v3h-3zM40 260h3v3h-3zM50 210h3v3h-3zM50 220h3v3h-3zM50 230h3v3h-3zM50 240h3v3h-3zM50 250h3v3h-3zM50 260h3v3h-3zM60 210h3v3h-3zM60 220h3v3h-3zM60 230h3v3h-3zM60 240h3v3h-3zM60 250h3v3h-3zM60 260h3v3h-3zM70 210h3v3h-3zM70 220h3v3h-3zM70 230h3v3h-3zM70 240h3v3h-3zM70 250h3v3h-3zM70 260h3v3h-3zM80 210h3v3h-3zM80 220h3v3h-3zM80 230h3v3h-3zM80 240h3v3h-3zM80 250h3v3h-3zM80 260h3v3h-3zM90 210h3v3h-3zM90 220h3v3h-3zM90 230h3v3h-3zM90 240h3v3h-3zM90 250h3v3h-3zM90 260h3v3h-3zM100 210h3v3h-3zM100 220h3v3h-3zM100 230h3v3h-3zM100 240h3v3h-3zM100 250h3v3h-3zM100 260h3v3h-3zM110 210h3v3h-3zM110 220h3v3h-3zM110 230h3v3h-3zM110 240h3v3h-3zM110 250h3v3h-3zM110 260h3v3h-3zM120 210h3v3h-3zM120 220h3v3h-3zM120 230h3v3h-3zM120 240h3v3h-3zM120 250h3v3h-3zM120 260h3v3h-3zM130 210h3v3h-3zM130 220h3v3h-3zM130 230h3v3h-3zM130 240h3v3h-3zM130 250h3v3h-3zM130 260h3v3h-3zM140 210h3v3h-3zM140 220h3v3h-3zM140 230h3v3h-3zM140 240h3v3h-3zM140 250h3v3h-3zM140 260h3v3h-3z"/></g></svg>