<svg width="403" height="283" fill="none" xmlns="http://www.w3.org/2000/svg"><path fill="#E5E5E5" d="M260 0h3v3h-3zM260 10h3v3h-3zM260 20h3v3h-3zM260 30h3v3h-3zM260 40h3v3h-3zM260 50h3v3h-3zM260 60h3v3h-3zM260 70h3v3h-3zM260 80h3v3h-3zM260 90h3v3h-3zM260 100h3v3h-3zM260 110h3v3h-3zM260 120h3v3h-3zM260 130h3v3h-3zM260 140h3v3h-3zM270 0h3v3h-3zM270 10h3v3h-3zM270 20h3v3h-3zM270 30h3v3h-3zM270 40h3v3h-3zM270 50h3v3h-3zM270 60h3v3h-3zM270 70h3v3h-3zM270 80h3v3h-3zM270 90h3v3h-3zM270 100h3v3h-3zM270 110h3v3h-3zM270 120h3v3h-3zM270 130h3v3h-3zM270 140h3v3h-3zM280 0h3v3h-3zM280 10h3v3h-3zM280 20h3v3h-3zM280 30h3v3h-3zM280 40h3v3h-3zM280 50h3v3h-3zM280 60h3v3h-3zM280 70h3v3h-3zM280 80h3v3h-3zM280 90h3v3h-3zM280 100h3v3h-3zM280 110h3v3h-3zM280 120h3v3h-3zM280 130h3v3h-3zM280 140h3v3h-3zM290 0h3v3h-3zM290 10h3v3h-3zM290 20h3v3h-3zM290 30h3v3h-3zM290 40h3v3h-3zM290 50h3v3h-3zM290 60h3v3h-3zM290 70h3v3h-3zM290 80h3v3h-3zM290 90h3v3h-3zM290 100h3v3h-3zM290 110h3v3h-3zM290 120h3v3h-3zM290 130h3v3h-3zM290 140h3v3h-3zM300 0h3v3h-3zM300 10h3v3h-3zM300 20h3v3h-3zM300 30h3v3h-3zM300 40h3v3h-3zM300 50h3v3h-3zM300 60h3v3h-3zM300 70h3v3h-3zM300 80h3v3h-3zM300 90h3v3h-3zM300 100h3v3h-3zM300 110h3v3h-3zM300 120h3v3h-3zM300 130h3v3h-3zM300 140h3v3h-3zM310 0h3v3h-3zM310 10h3v3h-3zM310 20h3v3h-3zM310 30h3v3h-3zM310 40h3v3h-3zM310 50h3v3h-3zM310 60h3v3h-3zM310 70h3v3h-3zM310 80h3v3h-3zM310 90h3v3h-3zM310 100h3v3h-3zM310 110h3v3h-3zM310 120h3v3h-3zM310 130h3v3h-3zM310 140h3v3h-3zM320 0h3v3h-3zM320 10h3v3h-3zM320 20h3v3h-3zM320 30h3v3h-3zM320 40h3v3h-3zM320 50h3v3h-3zM320 60h3v3h-3zM320 70h3v3h-3zM320 80h3v3h-3zM320 90h3v3h-3zM320 100h3v3h-3zM320 110h3v3h-3zM320 120h3v3h-3zM320 130h3v3h-3zM320 140h3v3h-3zM330 0h3v3h-3zM330 10h3v3h-3zM330 20h3v3h-3zM330 30h3v3h-3zM330 40h3v3h-3zM330 50h3v3h-3zM330 60h3v3h-3zM330 70h3v3h-3zM330 80h3v3h-3zM330 90h3v3h-3zM330 100h3v3h-3zM330 110h3v3h-3zM330 120h3v3h-3zM330 130h3v3h-3zM330 140h3v3h-3zM340 0h3v3h-3zM340 10h3v3h-3zM340 20h3v3h-3zM340 30h3v3h-3zM340 40h3v3h-3zM340 50h3v3h-3zM340 60h3v3h-3zM340 70h3v3h-3zM340 80h3v3h-3zM340 90h3v3h-3zM340 100h3v3h-3zM340 110h3v3h-3zM340 120h3v3h-3zM340 130h3v3h-3zM340 140h3v3h-3zM350 0h3v3h-3zM350 10h3v3h-3zM350 20h3v3h-3zM350 30h3v3h-3zM350 40h3v3h-3zM350 50h3v3h-3zM350 60h3v3h-3zM350 70h3v3h-3zM350 80h3v3h-3zM350 90h3v3h-3zM350 100h3v3h-3zM350 110h3v3h-3zM350 120h3v3h-3zM350 130h3v3h-3zM350 140h3v3h-3zM360 0h3v3h-3zM360 10h3v3h-3zM360 20h3v3h-3zM360 30h3v3h-3zM360 40h3v3h-3zM360 50h3v3h-3zM360 60h3v3h-3zM360 70h3v3h-3zM360 80h3v3h-3zM360 90h3v3h-3zM360 100h3v3h-3zM360 110h3v3h-3zM360 120h3v3h-3zM360 130h3v3h-3zM360 140h3v3h-3zM370 0h3v3h-3zM370 10h3v3h-3zM370 20h3v3h-3zM370 30h3v3h-3zM370 40h3v3h-3zM370 50h3v3h-3zM370 60h3v3h-3zM370 70h3v3h-3zM370 80h3v3h-3zM370 90h3v3h-3zM370 100h3v3h-3zM370 110h3v3h-3zM370 120h3v3h-3zM370 130h3v3h-3zM370 140h3v3h-3zM380 0h3v3h-3zM380 10h3v3h-3zM380 20h3v3h-3zM380 30h3v3h-3zM380 40h3v3h-3zM380 50h3v3h-3zM380 60h3v3h-3zM380 70h3v3h-3zM380 80h3v3h-3zM380 90h3v3h-3zM380 100h3v3h-3zM380 110h3v3h-3zM380 120h3v3h-3zM380 130h3v3h-3zM380 140h3v3h-3zM390 0h3v3h-3zM390 10h3v3h-3zM390 20h3v3h-3zM390 30h3v3h-3zM390 40h3v3h-3zM390 50h3v3h-3zM390 60h3v3h-3zM390 70h3v3h-3zM390 80h3v3h-3zM390 90h3v3h-3zM390 100h3v3h-3zM390 110h3v3h-3zM390 120h3v3h-3zM390 130h3v3h-3zM390 140h3v3h-3zM400 0h3v3h-3zM400 10h3v3h-3zM400 20h3v3h-3zM400 30h3v3h-3zM400 40h3v3h-3zM400 50h3v3h-3zM400 60h3v3h-3zM400 70h3v3h-3zM400 80h3v3h-3zM400 90h3v3h-3zM400 100h3v3h-3zM400 110h3v3h-3zM400 120h3v3h-3zM400 130h3v3h-3zM400 140h3v3h-3zM120 140h3v3h-3zM120 150h3v3h-3zM120 160h3v3h-3zM120 170h3v3h-3zM120 180h3v3h-3zM120 190h3v3h-3zM120 200h3v3h-3zM120 210h3v3h-3zM120 220h3v3h-3zM120 230h3v3h-3zM120 240h3v3h-3zM120 250h3v3h-3zM120 260h3v3h-3zM120 270h3v3h-3zM120 280h3v3h-3zM130 140h3v3h-3zM130 150h3v3h-3zM130 160h3v3h-3zM130 170h3v3h-3zM130 180h3v3h-3zM130 190h3v3h-3zM130 200h3v3h-3zM130 210h3v3h-3zM130 220h3v3h-3zM130 230h3v3h-3zM130 240h3v3h-3zM130 250h3v3h-3zM130 260h3v3h-3zM130 270h3v3h-3zM130 280h3v3h-3zM140 140h3v3h-3zM140 150h3v3h-3zM140 160h3v3h-3zM140 170h3v3h-3zM140 180h3v3h-3zM140 190h3v3h-3zM140 200h3v3h-3zM140 210h3v3h-3zM140 220h3v3h-3zM140 230h3v3h-3zM140 240h3v3h-3zM140 250h3v3h-3zM140 260h3v3h-3zM140 270h3v3h-3zM140 280h3v3h-3zM150 140h3v3h-3zM150 150h3v3h-3zM150 160h3v3h-3zM150 170h3v3h-3zM150 180h3v3h-3zM150 190h3v3h-3zM150 200h3v3h-3zM150 210h3v3h-3zM150 220h3v3h-3zM150 230h3v3h-3zM150 240h3v3h-3zM150 250h3v3h-3zM150 260h3v3h-3zM150 270h3v3h-3zM150 280h3v3h-3zM160 140h3v3h-3zM160 150h3v3h-3zM160 160h3v3h-3zM160 170h3v3h-3zM160 180h3v3h-3zM160 190h3v3h-3zM160 200h3v3h-3zM160 210h3v3h-3zM160 220h3v3h-3zM160 230h3v3h-3zM160 240h3v3h-3zM160 250h3v3h-3zM160 260h3v3h-3zM160 270h3v3h-3zM160 280h3v3h-3zM170 140h3v3h-3zM170 150h3v3h-3zM170 160h3v3h-3zM170 170h3v3h-3zM170 180h3v3h-3zM170 190h3v3h-3zM170 200h3v3h-3zM170 210h3v3h-3zM170 220h3v3h-3zM170 230h3v3h-3zM170 240h3v3h-3zM170 250h3v3h-3zM170 260h3v3h-3zM170 270h3v3h-3zM170 280h3v3h-3zM180 140h3v3h-3zM180 150h3v3h-3zM180 160h3v3h-3zM180 170h3v3h-3zM180 180h3v3h-3zM180 190h3v3h-3zM180 200h3v3h-3zM180 210h3v3h-3zM180 220h3v3h-3zM180 230h3v3h-3zM180 240h3v3h-3zM180 250h3v3h-3zM180 260h3v3h-3zM180 270h3v3h-3zM180 280h3v3h-3zM190 140h3v3h-3zM190 150h3v3h-3zM190 160h3v3h-3zM190 170h3v3h-3zM190 180h3v3h-3zM190 190h3v3h-3zM190 200h3v3h-3zM190 210h3v3h-3zM190 220h3v3h-3zM190 230h3v3h-3zM190 240h3v3h-3zM190 250h3v3h-3zM190 260h3v3h-3zM190 270h3v3h-3zM190 280h3v3h-3zM200 140h3v3h-3zM200 150h3v3h-3zM200 160h3v3h-3zM200 170h3v3h-3zM200 180h3v3h-3zM200 190h3v3h-3zM200 200h3v3h-3zM200 210h3v3h-3zM200 220h3v3h-3zM200 230h3v3h-3zM200 240h3v3h-3zM200 250h3v3h-3zM200 260h3v3h-3zM200 270h3v3h-3zM200 280h3v3h-3zM210 140h3v3h-3zM210 150h3v3h-3zM210 160h3v3h-3zM210 170h3v3h-3zM210 180h3v3h-3zM210 190h3v3h-3zM210 200h3v3h-3zM210 210h3v3h-3zM210 220h3v3h-3zM210 230h3v3h-3zM210 240h3v3h-3zM210 250h3v3h-3zM210 260h3v3h-3zM210 270h3v3h-3zM210 280h3v3h-3zM220 140h3v3h-3zM220 150h3v3h-3zM220 160h3v3h-3zM220 170h3v3h-3zM220 180h3v3h-3zM220 190h3v3h-3zM220 200h3v3h-3zM220 210h3v3h-3zM220 220h3v3h-3zM220 230h3v3h-3zM220 240h3v3h-3zM220 250h3v3h-3zM220 260h3v3h-3zM220 270h3v3h-3zM220 280h3v3h-3zM230 140h3v3h-3zM230 150h3v3h-3zM230 160h3v3h-3zM230 170h3v3h-3zM230 180h3v3h-3zM230 190h3v3h-3zM230 200h3v3h-3zM230 210h3v3h-3zM230 220h3v3h-3zM230 230h3v3h-3zM230 240h3v3h-3zM230 250h3v3h-3zM230 260h3v3h-3zM230 270h3v3h-3zM230 280h3v3h-3zM240 140h3v3h-3zM240 150h3v3h-3zM240 160h3v3h-3zM240 170h3v3h-3zM240 180h3v3h-3zM240 190h3v3h-3zM240 200h3v3h-3zM240 210h3v3h-3zM240 220h3v3h-3zM240 230h3v3h-3zM240 240h3v3h-3zM240 250h3v3h-3zM240 260h3v3h-3zM240 270h3v3h-3zM240 280h3v3h-3zM250 140h3v3h-3zM250 150h3v3h-3zM250 160h3v3h-3zM250 170h3v3h-3zM250 180h3v3h-3zM250 190h3v3h-3zM250 200h3v3h-3zM250 210h3v3h-3zM250 220h3v3h-3zM250 230h3v3h-3zM250 240h3v3h-3zM250 250h3v3h-3zM250 260h3v3h-3zM250 270h3v3h-3zM250 280h3v3h-3z"/><path fill="#E5E5E5" d="M260 140h3v3h-3zM260 150h3v3h-3zM260 160h3v3h-3zM260 170h3v3h-3zM260 180h3v3h-3zM260 190h3v3h-3zM260 200h3v3h-3zM260 210h3v3h-3zM260 220h3v3h-3zM260 230h3v3h-3zM260 240h3v3h-3zM260 250h3v3h-3zM260 260h3v3h-3zM260 270h3v3h-3zM260 280h3v3h-3zM0 140h3v3H0zM0 150h3v3H0zM0 160h3v3H0zM0 170h3v3H0zM0 180h3v3H0zM0 190h3v3H0zM0 200h3v3H0zM0 210h3v3H0zM0 220h3v3H0zM0 230h3v3H0zM0 240h3v3H0zM0 250h3v3H0zM0 260h3v3H0zM0 270h3v3H0zM0 280h3v3H0zM10 140h3v3h-3zM10 150h3v3h-3zM10 160h3v3h-3zM10 170h3v3h-3zM10 180h3v3h-3zM10 190h3v3h-3zM10 200h3v3h-3zM10 210h3v3h-3zM10 220h3v3h-3zM10 230h3v3h-3zM10 240h3v3h-3zM10 250h3v3h-3zM10 260h3v3h-3zM10 270h3v3h-3zM10 280h3v3h-3zM20 140h3v3h-3zM20 150h3v3h-3zM20 160h3v3h-3zM20 170h3v3h-3zM20 180h3v3h-3zM20 190h3v3h-3zM20 200h3v3h-3zM20 210h3v3h-3zM20 220h3v3h-3zM20 230h3v3h-3zM20 240h3v3h-3zM20 250h3v3h-3zM20 260h3v3h-3zM20 270h3v3h-3zM20 280h3v3h-3zM30 140h3v3h-3zM30 150h3v3h-3zM30 160h3v3h-3zM30 170h3v3h-3zM30 180h3v3h-3zM30 190h3v3h-3zM30 200h3v3h-3zM30 210h3v3h-3zM30 220h3v3h-3zM30 230h3v3h-3zM30 240h3v3h-3zM30 250h3v3h-3zM30 260h3v3h-3zM30 270h3v3h-3zM30 280h3v3h-3zM40 140h3v3h-3zM40 150h3v3h-3zM40 160h3v3h-3zM40 170h3v3h-3zM40 180h3v3h-3zM40 190h3v3h-3zM40 200h3v3h-3zM40 210h3v3h-3zM40 220h3v3h-3zM40 230h3v3h-3zM40 240h3v3h-3zM40 250h3v3h-3zM40 260h3v3h-3zM40 270h3v3h-3zM40 280h3v3h-3zM50 140h3v3h-3zM50 150h3v3h-3zM50 160h3v3h-3zM50 170h3v3h-3zM50 180h3v3h-3zM50 190h3v3h-3zM50 200h3v3h-3zM50 210h3v3h-3zM50 220h3v3h-3zM50 230h3v3h-3zM50 240h3v3h-3zM50 250h3v3h-3zM50 260h3v3h-3zM50 270h3v3h-3zM50 280h3v3h-3zM60 140h3v3h-3zM60 150h3v3h-3zM60 160h3v3h-3zM60 170h3v3h-3zM60 180h3v3h-3zM60 190h3v3h-3zM60 200h3v3h-3zM60 210h3v3h-3zM60 220h3v3h-3zM60 230h3v3h-3zM60 240h3v3h-3zM60 250h3v3h-3zM60 260h3v3h-3zM60 270h3v3h-3zM60 280h3v3h-3zM70 140h3v3h-3zM70 150h3v3h-3zM70 160h3v3h-3zM70 170h3v3h-3zM70 180h3v3h-3zM70 190h3v3h-3zM70 200h3v3h-3zM70 210h3v3h-3zM70 220h3v3h-3zM70 230h3v3h-3zM70 240h3v3h-3zM70 250h3v3h-3zM70 260h3v3h-3zM70 270h3v3h-3zM70 280h3v3h-3zM80 140h3v3h-3zM80 150h3v3h-3zM80 160h3v3h-3zM80 170h3v3h-3zM80 180h3v3h-3zM80 190h3v3h-3zM80 200h3v3h-3zM80 210h3v3h-3zM80 220h3v3h-3zM80 230h3v3h-3zM80 240h3v3h-3zM80 250h3v3h-3zM80 260h3v3h-3zM80 270h3v3h-3zM80 280h3v3h-3zM90 140h3v3h-3zM90 150h3v3h-3zM90 160h3v3h-3zM90 170h3v3h-3zM90 180h3v3h-3zM90 190h3v3h-3zM90 200h3v3h-3zM90 210h3v3h-3zM90 220h3v3h-3zM90 230h3v3h-3zM90 240h3v3h-3zM90 250h3v3h-3zM90 260h3v3h-3zM90 270h3v3h-3zM90 280h3v3h-3zM100 140h3v3h-3zM100 150h3v3h-3zM100 160h3v3h-3zM100 170h3v3h-3zM100 180h3v3h-3zM100 190h3v3h-3zM100 200h3v3h-3zM100 210h3v3h-3zM100 220h3v3h-3zM100 230h3v3h-3zM100 240h3v3h-3zM100 250h3v3h-3zM100 260h3v3h-3zM100 270h3v3h-3zM100 280h3v3h-3zM110 140h3v3h-3zM110 150h3v3h-3zM110 160h3v3h-3zM110 170h3v3h-3zM110 180h3v3h-3zM110 190h3v3h-3zM110 200h3v3h-3zM110 210h3v3h-3zM110 220h3v3h-3zM110 230h3v3h-3zM110 240h3v3h-3zM110 250h3v3h-3zM110 260h3v3h-3zM110 270h3v3h-3zM110 280h3v3h-3zM120 140h3v3h-3zM120 150h3v3h-3zM120 160h3v3h-3zM120 170h3v3h-3zM120 180h3v3h-3zM120 190h3v3h-3zM120 200h3v3h-3zM120 210h3v3h-3zM120 220h3v3h-3zM120 230h3v3h-3zM120 240h3v3h-3zM120 250h3v3h-3zM120 260h3v3h-3zM120 270h3v3h-3zM120 280h3v3h-3zM130 140h3v3h-3zM130 150h3v3h-3zM130 160h3v3h-3zM130 170h3v3h-3zM130 180h3v3h-3zM130 190h3v3h-3zM130 200h3v3h-3zM130 210h3v3h-3zM130 220h3v3h-3zM130 230h3v3h-3zM130 240h3v3h-3zM130 250h3v3h-3zM130 260h3v3h-3zM130 270h3v3h-3zM130 280h3v3h-3zM140 140h3v3h-3zM140 150h3v3h-3zM140 160h3v3h-3zM140 170h3v3h-3zM140 180h3v3h-3zM140 190h3v3h-3zM140 200h3v3h-3zM140 210h3v3h-3zM140 220h3v3h-3zM140 230h3v3h-3zM140 240h3v3h-3zM140 250h3v3h-3zM140 260h3v3h-3zM140 270h3v3h-3zM140 280h3v3h-3zM120 0h3v3h-3zM120 10h3v3h-3zM120 20h3v3h-3zM120 30h3v3h-3zM120 40h3v3h-3zM120 50h3v3h-3zM120 60h3v3h-3zM120 70h3v3h-3zM120 80h3v3h-3zM120 90h3v3h-3zM120 100h3v3h-3zM120 110h3v3h-3zM120 120h3v3h-3zM120 130h3v3h-3z"/><path fill="#E5E5E5" d="M120 140h3v3h-3zM130 0h3v3h-3zM130 10h3v3h-3zM130 20h3v3h-3zM130 30h3v3h-3zM130 40h3v3h-3zM130 50h3v3h-3zM130 60h3v3h-3zM130 70h3v3h-3zM130 80h3v3h-3zM130 90h3v3h-3zM130 100h3v3h-3zM130 110h3v3h-3zM130 120h3v3h-3zM130 130h3v3h-3zM130 140h3v3h-3zM140 0h3v3h-3zM140 10h3v3h-3zM140 20h3v3h-3zM140 30h3v3h-3zM140 40h3v3h-3zM140 50h3v3h-3zM140 60h3v3h-3zM140 70h3v3h-3zM140 80h3v3h-3zM140 90h3v3h-3zM140 100h3v3h-3zM140 110h3v3h-3zM140 120h3v3h-3zM140 130h3v3h-3zM140 140h3v3h-3zM150 0h3v3h-3zM150 10h3v3h-3zM150 20h3v3h-3zM150 30h3v3h-3zM150 40h3v3h-3zM150 50h3v3h-3zM150 60h3v3h-3zM150 70h3v3h-3zM150 80h3v3h-3zM150 90h3v3h-3zM150 100h3v3h-3zM150 110h3v3h-3zM150 120h3v3h-3zM150 130h3v3h-3zM150 140h3v3h-3zM160 0h3v3h-3zM160 10h3v3h-3zM160 20h3v3h-3zM160 30h3v3h-3zM160 40h3v3h-3zM160 50h3v3h-3zM160 60h3v3h-3zM160 70h3v3h-3zM160 80h3v3h-3zM160 90h3v3h-3zM160 100h3v3h-3zM160 110h3v3h-3zM160 120h3v3h-3zM160 130h3v3h-3zM160 140h3v3h-3zM170 0h3v3h-3zM170 10h3v3h-3zM170 20h3v3h-3zM170 30h3v3h-3zM170 40h3v3h-3zM170 50h3v3h-3zM170 60h3v3h-3zM170 70h3v3h-3zM170 80h3v3h-3zM170 90h3v3h-3zM170 100h3v3h-3zM170 110h3v3h-3zM170 120h3v3h-3zM170 130h3v3h-3zM170 140h3v3h-3zM180 0h3v3h-3zM180 10h3v3h-3zM180 20h3v3h-3zM180 30h3v3h-3zM180 40h3v3h-3zM180 50h3v3h-3zM180 60h3v3h-3zM180 70h3v3h-3zM180 80h3v3h-3zM180 90h3v3h-3zM180 100h3v3h-3zM180 110h3v3h-3zM180 120h3v3h-3zM180 130h3v3h-3zM180 140h3v3h-3zM190 0h3v3h-3zM190 10h3v3h-3zM190 20h3v3h-3zM190 30h3v3h-3zM190 40h3v3h-3zM190 50h3v3h-3zM190 60h3v3h-3zM190 70h3v3h-3zM190 80h3v3h-3zM190 90h3v3h-3zM190 100h3v3h-3zM190 110h3v3h-3zM190 120h3v3h-3zM190 130h3v3h-3zM190 140h3v3h-3zM200 0h3v3h-3zM200 10h3v3h-3zM200 20h3v3h-3zM200 30h3v3h-3zM200 40h3v3h-3zM200 50h3v3h-3zM200 60h3v3h-3zM200 70h3v3h-3zM200 80h3v3h-3zM200 90h3v3h-3zM200 100h3v3h-3zM200 110h3v3h-3zM200 120h3v3h-3zM200 130h3v3h-3zM200 140h3v3h-3zM210 0h3v3h-3zM210 10h3v3h-3zM210 20h3v3h-3zM210 30h3v3h-3zM210 40h3v3h-3zM210 50h3v3h-3zM210 60h3v3h-3zM210 70h3v3h-3zM210 80h3v3h-3zM210 90h3v3h-3zM210 100h3v3h-3zM210 110h3v3h-3zM210 120h3v3h-3zM210 130h3v3h-3zM210 140h3v3h-3zM220 0h3v3h-3zM220 10h3v3h-3zM220 20h3v3h-3zM220 30h3v3h-3zM220 40h3v3h-3zM220 50h3v3h-3zM220 60h3v3h-3zM220 70h3v3h-3zM220 80h3v3h-3zM220 90h3v3h-3zM220 100h3v3h-3zM220 110h3v3h-3zM220 120h3v3h-3zM220 130h3v3h-3zM220 140h3v3h-3zM230 0h3v3h-3zM230 10h3v3h-3zM230 20h3v3h-3zM230 30h3v3h-3zM230 40h3v3h-3zM230 50h3v3h-3zM230 60h3v3h-3zM230 70h3v3h-3zM230 80h3v3h-3zM230 90h3v3h-3zM230 100h3v3h-3zM230 110h3v3h-3zM230 120h3v3h-3zM230 130h3v3h-3zM230 140h3v3h-3zM240 0h3v3h-3zM240 10h3v3h-3zM240 20h3v3h-3zM240 30h3v3h-3zM240 40h3v3h-3zM240 50h3v3h-3zM240 60h3v3h-3zM240 70h3v3h-3zM240 80h3v3h-3zM240 90h3v3h-3zM240 100h3v3h-3zM240 110h3v3h-3zM240 120h3v3h-3zM240 130h3v3h-3zM240 140h3v3h-3zM250 0h3v3h-3zM250 10h3v3h-3zM250 20h3v3h-3zM250 30h3v3h-3zM250 40h3v3h-3zM250 50h3v3h-3zM250 60h3v3h-3zM250 70h3v3h-3zM250 80h3v3h-3zM250 90h3v3h-3zM250 100h3v3h-3zM250 110h3v3h-3zM250 120h3v3h-3zM250 130h3v3h-3zM250 140h3v3h-3zM260 0h3v3h-3zM260 10h3v3h-3zM260 20h3v3h-3zM260 30h3v3h-3zM260 40h3v3h-3zM260 50h3v3h-3zM260 60h3v3h-3zM260 70h3v3h-3zM260 80h3v3h-3zM260 90h3v3h-3zM260 100h3v3h-3zM260 110h3v3h-3zM260 120h3v3h-3zM260 130h3v3h-3zM260 140h3v3h-3z"/></svg>