<svg width="253" height="263" fill="none" xmlns="http://www.w3.org/2000/svg"><path fill="#EAEBEB" d="M0 120h3v3H0zM0 130h3v3H0zM0 140h3v3H0zM0 150h3v3H0zM0 160h3v3H0zM0 170h3v3H0zM0 180h3v3H0zM0 190h3v3H0zM0 200h3v3H0zM0 210h3v3H0zM0 220h3v3H0zM0 230h3v3H0zM0 240h3v3H0zM0 250h3v3H0zM0 260h3v3H0zM10 120h3v3h-3zM10 130h3v3h-3zM10 140h3v3h-3zM10 150h3v3h-3zM10 160h3v3h-3zM10 170h3v3h-3zM10 180h3v3h-3zM10 190h3v3h-3zM10 200h3v3h-3zM10 210h3v3h-3zM10 220h3v3h-3zM10 230h3v3h-3zM10 240h3v3h-3zM10 250h3v3h-3zM10 260h3v3h-3zM20 120h3v3h-3zM20 130h3v3h-3zM20 140h3v3h-3zM20 150h3v3h-3zM20 160h3v3h-3zM20 170h3v3h-3zM20 180h3v3h-3zM20 190h3v3h-3zM20 200h3v3h-3zM20 210h3v3h-3zM20 220h3v3h-3zM20 230h3v3h-3zM20 240h3v3h-3zM20 250h3v3h-3zM20 260h3v3h-3zM30 120h3v3h-3zM30 130h3v3h-3zM30 140h3v3h-3zM30 150h3v3h-3zM30 160h3v3h-3zM30 170h3v3h-3zM30 180h3v3h-3zM30 190h3v3h-3zM30 200h3v3h-3zM30 210h3v3h-3zM30 220h3v3h-3zM30 230h3v3h-3zM30 240h3v3h-3zM30 250h3v3h-3zM30 260h3v3h-3zM40 120h3v3h-3zM40 130h3v3h-3zM40 140h3v3h-3zM40 150h3v3h-3zM40 160h3v3h-3zM40 170h3v3h-3zM40 180h3v3h-3zM40 190h3v3h-3zM40 200h3v3h-3zM40 210h3v3h-3zM40 220h3v3h-3zM40 230h3v3h-3zM40 240h3v3h-3zM40 250h3v3h-3zM40 260h3v3h-3zM50 120h3v3h-3zM50 130h3v3h-3zM50 140h3v3h-3zM50 150h3v3h-3zM50 160h3v3h-3zM50 170h3v3h-3zM50 180h3v3h-3zM50 190h3v3h-3zM50 200h3v3h-3zM50 210h3v3h-3zM50 220h3v3h-3zM50 230h3v3h-3zM50 240h3v3h-3zM50 250h3v3h-3zM50 260h3v3h-3zM60 120h3v3h-3zM60 130h3v3h-3zM60 140h3v3h-3zM60 150h3v3h-3zM60 160h3v3h-3zM60 170h3v3h-3zM60 180h3v3h-3zM60 190h3v3h-3zM60 200h3v3h-3zM60 210h3v3h-3zM60 220h3v3h-3zM60 230h3v3h-3zM60 240h3v3h-3zM60 250h3v3h-3zM60 260h3v3h-3zM70 120h3v3h-3zM70 130h3v3h-3zM70 140h3v3h-3zM70 150h3v3h-3zM70 160h3v3h-3zM70 170h3v3h-3zM70 180h3v3h-3zM70 190h3v3h-3zM70 200h3v3h-3zM70 210h3v3h-3zM70 220h3v3h-3zM70 230h3v3h-3zM70 240h3v3h-3zM70 250h3v3h-3zM70 260h3v3h-3zM80 120h3v3h-3zM80 130h3v3h-3zM80 140h3v3h-3zM80 150h3v3h-3zM80 160h3v3h-3zM80 170h3v3h-3zM80 180h3v3h-3zM80 190h3v3h-3zM80 200h3v3h-3zM80 210h3v3h-3zM80 220h3v3h-3zM80 230h3v3h-3zM80 240h3v3h-3zM80 250h3v3h-3zM80 260h3v3h-3zM90 120h3v3h-3zM90 130h3v3h-3zM90 140h3v3h-3zM90 150h3v3h-3zM90 160h3v3h-3zM90 170h3v3h-3zM90 180h3v3h-3zM90 190h3v3h-3zM90 200h3v3h-3zM90 210h3v3h-3zM90 220h3v3h-3zM90 230h3v3h-3zM90 240h3v3h-3zM90 250h3v3h-3zM90 260h3v3h-3zM100 120h3v3h-3zM100 130h3v3h-3zM100 140h3v3h-3zM100 150h3v3h-3zM100 160h3v3h-3zM100 170h3v3h-3zM100 180h3v3h-3zM100 190h3v3h-3zM100 200h3v3h-3zM100 210h3v3h-3zM100 220h3v3h-3zM100 230h3v3h-3zM100 240h3v3h-3zM100 250h3v3h-3zM100 260h3v3h-3zM110 120h3v3h-3zM110 130h3v3h-3zM110 140h3v3h-3zM110 150h3v3h-3zM110 160h3v3h-3zM110 170h3v3h-3zM110 180h3v3h-3zM110 190h3v3h-3zM110 200h3v3h-3zM110 210h3v3h-3zM110 220h3v3h-3zM110 230h3v3h-3zM110 240h3v3h-3zM110 250h3v3h-3zM110 260h3v3h-3zM120 120h3v3h-3zM120 130h3v3h-3zM120 140h3v3h-3zM120 150h3v3h-3zM120 160h3v3h-3zM120 170h3v3h-3zM120 180h3v3h-3zM120 190h3v3h-3zM120 200h3v3h-3zM120 210h3v3h-3zM120 220h3v3h-3zM120 230h3v3h-3zM120 240h3v3h-3zM120 250h3v3h-3zM120 260h3v3h-3zM130 120h3v3h-3zM130 130h3v3h-3zM130 140h3v3h-3zM130 150h3v3h-3zM130 160h3v3h-3zM130 170h3v3h-3zM130 180h3v3h-3zM130 190h3v3h-3zM130 200h3v3h-3zM130 210h3v3h-3zM130 220h3v3h-3zM130 230h3v3h-3zM130 240h3v3h-3zM130 250h3v3h-3zM130 260h3v3h-3zM140 120h3v3h-3zM140 130h3v3h-3zM140 140h3v3h-3zM140 150h3v3h-3zM140 160h3v3h-3zM140 170h3v3h-3zM140 180h3v3h-3zM140 190h3v3h-3zM140 200h3v3h-3zM140 210h3v3h-3zM140 220h3v3h-3zM140 230h3v3h-3zM140 240h3v3h-3zM140 250h3v3h-3zM140 260h3v3h-3zM110 0h3v3h-3zM110 10h3v3h-3zM110 20h3v3h-3zM110 30h3v3h-3zM110 40h3v3h-3zM110 50h3v3h-3zM110 60h3v3h-3zM110 70h3v3h-3zM110 80h3v3h-3zM110 90h3v3h-3zM110 100h3v3h-3zM110 110h3v3h-3z"/><path fill="#EAEBEB" d="M110 120h3v3h-3zM110 130h3v3h-3zM110 140h3v3h-3zM120 0h3v3h-3zM120 10h3v3h-3zM120 20h3v3h-3zM120 30h3v3h-3zM120 40h3v3h-3zM120 50h3v3h-3zM120 60h3v3h-3zM120 70h3v3h-3zM120 80h3v3h-3zM120 90h3v3h-3zM120 100h3v3h-3zM120 110h3v3h-3zM120 120h3v3h-3zM120 130h3v3h-3zM120 140h3v3h-3zM130 0h3v3h-3zM130 10h3v3h-3zM130 20h3v3h-3zM130 30h3v3h-3zM130 40h3v3h-3zM130 50h3v3h-3zM130 60h3v3h-3zM130 70h3v3h-3zM130 80h3v3h-3zM130 90h3v3h-3zM130 100h3v3h-3zM130 110h3v3h-3zM130 120h3v3h-3zM130 130h3v3h-3zM130 140h3v3h-3zM140 0h3v3h-3zM140 10h3v3h-3zM140 20h3v3h-3zM140 30h3v3h-3zM140 40h3v3h-3zM140 50h3v3h-3zM140 60h3v3h-3zM140 70h3v3h-3zM140 80h3v3h-3zM140 90h3v3h-3zM140 100h3v3h-3zM140 110h3v3h-3zM140 120h3v3h-3zM140 130h3v3h-3zM140 140h3v3h-3zM150 0h3v3h-3zM150 10h3v3h-3zM150 20h3v3h-3zM150 30h3v3h-3zM150 40h3v3h-3zM150 50h3v3h-3zM150 60h3v3h-3zM150 70h3v3h-3zM150 80h3v3h-3zM150 90h3v3h-3zM150 100h3v3h-3zM150 110h3v3h-3zM150 120h3v3h-3zM150 130h3v3h-3zM150 140h3v3h-3zM160 0h3v3h-3zM160 10h3v3h-3zM160 20h3v3h-3zM160 30h3v3h-3zM160 40h3v3h-3zM160 50h3v3h-3zM160 60h3v3h-3zM160 70h3v3h-3zM160 80h3v3h-3zM160 90h3v3h-3zM160 100h3v3h-3zM160 110h3v3h-3zM160 120h3v3h-3zM160 130h3v3h-3zM160 140h3v3h-3zM170 0h3v3h-3zM170 10h3v3h-3zM170 20h3v3h-3zM170 30h3v3h-3zM170 40h3v3h-3zM170 50h3v3h-3zM170 60h3v3h-3zM170 70h3v3h-3zM170 80h3v3h-3zM170 90h3v3h-3zM170 100h3v3h-3zM170 110h3v3h-3zM170 120h3v3h-3zM170 130h3v3h-3zM170 140h3v3h-3zM180 0h3v3h-3zM180 10h3v3h-3zM180 20h3v3h-3zM180 30h3v3h-3zM180 40h3v3h-3zM180 50h3v3h-3zM180 60h3v3h-3zM180 70h3v3h-3zM180 80h3v3h-3zM180 90h3v3h-3zM180 100h3v3h-3zM180 110h3v3h-3zM180 120h3v3h-3zM180 130h3v3h-3zM180 140h3v3h-3zM190 0h3v3h-3zM190 10h3v3h-3zM190 20h3v3h-3zM190 30h3v3h-3zM190 40h3v3h-3zM190 50h3v3h-3zM190 60h3v3h-3zM190 70h3v3h-3zM190 80h3v3h-3zM190 90h3v3h-3zM190 100h3v3h-3zM190 110h3v3h-3zM190 120h3v3h-3zM190 130h3v3h-3zM190 140h3v3h-3zM200 0h3v3h-3zM200 10h3v3h-3zM200 20h3v3h-3zM200 30h3v3h-3zM200 40h3v3h-3zM200 50h3v3h-3zM200 60h3v3h-3zM200 70h3v3h-3zM200 80h3v3h-3zM200 90h3v3h-3zM200 100h3v3h-3zM200 110h3v3h-3zM200 120h3v3h-3zM200 130h3v3h-3zM200 140h3v3h-3zM210 0h3v3h-3zM210 10h3v3h-3zM210 20h3v3h-3zM210 30h3v3h-3zM210 40h3v3h-3zM210 50h3v3h-3zM210 60h3v3h-3zM210 70h3v3h-3zM210 80h3v3h-3zM210 90h3v3h-3zM210 100h3v3h-3zM210 110h3v3h-3zM210 120h3v3h-3zM210 130h3v3h-3zM210 140h3v3h-3zM220 0h3v3h-3zM220 10h3v3h-3zM220 20h3v3h-3zM220 30h3v3h-3zM220 40h3v3h-3zM220 50h3v3h-3zM220 60h3v3h-3zM220 70h3v3h-3zM220 80h3v3h-3zM220 90h3v3h-3zM220 100h3v3h-3zM220 110h3v3h-3zM220 120h3v3h-3zM220 130h3v3h-3zM220 140h3v3h-3zM230 0h3v3h-3zM230 10h3v3h-3zM230 20h3v3h-3zM230 30h3v3h-3zM230 40h3v3h-3zM230 50h3v3h-3zM230 60h3v3h-3zM230 70h3v3h-3zM230 80h3v3h-3zM230 90h3v3h-3zM230 100h3v3h-3zM230 110h3v3h-3zM230 120h3v3h-3zM230 130h3v3h-3zM230 140h3v3h-3zM240 0h3v3h-3zM240 10h3v3h-3zM240 20h3v3h-3zM240 30h3v3h-3zM240 40h3v3h-3zM240 50h3v3h-3zM240 60h3v3h-3zM240 70h3v3h-3zM240 80h3v3h-3zM240 90h3v3h-3zM240 100h3v3h-3zM240 110h3v3h-3zM240 120h3v3h-3zM240 130h3v3h-3zM240 140h3v3h-3zM250 0h3v3h-3zM250 10h3v3h-3zM250 20h3v3h-3zM250 30h3v3h-3zM250 40h3v3h-3zM250 50h3v3h-3zM250 60h3v3h-3zM250 70h3v3h-3zM250 80h3v3h-3zM250 90h3v3h-3zM250 100h3v3h-3zM250 110h3v3h-3zM250 120h3v3h-3zM250 130h3v3h-3zM250 140h3v3h-3z"/></svg>