<svg width="177" height="177" fill="none" xmlns="http://www.w3.org/2000/svg"><path fill="#fff" d="M.931 37.942l2.898-.777.776 2.898-2.898.777zM3.519 47.601l2.898-.777.776 2.898-2.898.777zM6.107 57.26l2.898-.776.776 2.897-2.898.777zM8.695 66.92l2.898-.776.776 2.897-2.897.777zM11.283 76.58l2.898-.777.776 2.897-2.898.777zM13.872 86.238l2.898-.777.776 2.898-2.898.777zM16.46 95.897l2.898-.777.776 2.898-2.898.777zM19.048 105.557l2.898-.776.776 2.897-2.898.777zM21.636 115.216l2.898-.776.776 2.897-2.898.777zM24.224 124.875l2.898-.776.776 2.897-2.898.777zM26.813 134.534l2.898-.777.776 2.898-2.898.777zM29.401 144.194l2.898-.776.776 2.897-2.898.777zM31.989 153.853l2.898-.776.776 2.897-2.898.777zM34.577 163.512l2.898-.776.776 2.897-2.898.777zM37.165 173.172l2.898-.776.776 2.897-2.898.777zM10.59 35.354l2.898-.777.776 2.898-2.897.777zM13.178 45.013l2.898-.776.776 2.897-2.898.777zM15.766 54.672l2.898-.776.776 2.897-2.898.777zM18.355 64.332l2.898-.777.776 2.898-2.897.777zM20.943 73.99l2.898-.776.776 2.898-2.897.777zM23.531 83.65l2.898-.777.776 2.898-2.898.777zM26.119 93.309l2.898-.776.776 2.897-2.898.777zM28.707 102.97l2.898-.777.776 2.897-2.898.777zM31.295 112.628l2.898-.776.776 2.897-2.898.777zM33.883 122.287l2.898-.776.776 2.897-2.898.777zM36.472 131.946l2.898-.776.776 2.897-2.898.777zM39.06 141.606l2.898-.776.776 2.897-2.898.777zM41.648 151.265l2.898-.776.776 2.897-2.898.777zM44.236 160.924l2.898-.776.776 2.897-2.898.777zM46.825 170.583l2.898-.777.776 2.898-2.898.777zM20.25 32.766l2.897-.776.776 2.897-2.897.777zM22.837 42.425l2.898-.776.776 2.897-2.897.777zM25.425 52.084l2.898-.776.776 2.897-2.898.777zM28.014 61.743l2.898-.777.776 2.898-2.898.777zM30.602 71.403l2.898-.776.776 2.897-2.897.777zM33.19 81.062l2.898-.776.776 2.897-2.897.777zM35.778 90.721l2.898-.776.776 2.897-2.898.777zM38.367 100.38l2.898-.777.776 2.898-2.898.777zM40.955 110.04l2.898-.777.776 2.898-2.898.777zM43.543 119.699l2.898-.776.776 2.897-2.898.777zM46.131 129.358l2.898-.776.776 2.897-2.898.777zM48.719 139.017l2.898-.776.776 2.897-2.898.777zM51.307 148.677l2.898-.776.776 2.897-2.898.777zM53.896 158.336l2.898-.777.776 2.898-2.898.777zM56.484 167.995l2.898-.776.776 2.897-2.898.777zM29.908 30.177l2.898-.776.776 2.897-2.898.777zM32.497 39.837l2.898-.777.776 2.898-2.897.777zM35.085 49.496l2.898-.777.776 2.898-2.898.777zM37.673 59.155l2.898-.776.776 2.897-2.898.777zM40.26 68.814l2.899-.776.776 2.897-2.898.777zM42.85 78.474l2.897-.776.776 2.897-2.897.777zM45.438 88.133l2.898-.777.776 2.898-2.898.777zM48.026 97.792l2.898-.776.776 2.897-2.898.777zM50.614 107.451l2.898-.776.776 2.897-2.898.777zM53.202 117.111l2.898-.776.776 2.897-2.898.777zM55.79 126.77l2.898-.776.776 2.897-2.898.777zM58.378 136.43l2.898-.777.776 2.897-2.898.777zM60.967 146.088l2.898-.777.776 2.898-2.898.777zM63.555 155.748l2.898-.776.776 2.897-2.898.777zM66.143 165.407l2.898-.776.776 2.897-2.898.777zM39.568 27.589l2.898-.777.776 2.898-2.898.777zM42.156 37.248l2.898-.776.776 2.897-2.898.777zM44.744 46.908l2.898-.776.776 2.897-2.897.777zM47.332 56.567l2.898-.776.776 2.897-2.898.777zM49.92 66.226l2.898-.776.776 2.897-2.898.777zM52.508 75.885l2.898-.776.776 2.897-2.898.777zM55.097 85.545l2.898-.776.776 2.897-2.897.777zM57.685 95.204l2.898-.776.776 2.897-2.898.777zM60.273 104.863l2.898-.776.776 2.897-2.898.777zM62.861 114.522l2.898-.776.776 2.897-2.898.777zM65.45 124.182l2.898-.777.776 2.898-2.898.777zM68.038 133.84l2.898-.776.776 2.898-2.898.777zM70.626 143.5l2.898-.776.776 2.897-2.898.777zM73.214 153.159l2.898-.776.776 2.897-2.898.777zM75.802 162.82l2.898-.777.776 2.897-2.898.777zM49.227 25.001l2.898-.776.776 2.897-2.898.777zM51.815 34.66l2.898-.776.776 2.897-2.898.777zM54.403 44.32l2.898-.777.776 2.897-2.898.777zM56.992 53.979l2.898-.777.776 2.898-2.897.777zM59.58 63.638l2.898-.777.776 2.898-2.898.777zM62.168 73.297l2.898-.776.776 2.897-2.898.777zM64.756 82.957l2.898-.776.776 2.897-2.897.777zM67.344 92.616l2.898-.776.776 2.897-2.897.777zM69.932 102.275l2.898-.776.776 2.897-2.898.777zM72.521 111.934l2.898-.777.776 2.898-2.898.777zM75.109 121.594l2.898-.776.776 2.897-2.898.777zM77.697 131.253l2.898-.776.776 2.897-2.898.777zM80.285 140.912l2.898-.776.776 2.897-2.898.777zM82.874 150.57l2.898-.776.776 2.898-2.898.777zM85.462 160.23l2.898-.776.776 2.898-2.898.777zM58.886 22.413l2.898-.776.776 2.897-2.897.777zM61.474 32.072l2.898-.776.776 2.897-2.898.777zM64.063 41.73l2.898-.776.776 2.898-2.898.777zM66.651 51.391l2.898-.777.776 2.898-2.897.777zM69.24 61.05l2.897-.776.776 2.897-2.897.777zM71.827 70.709l2.898-.776.776 2.897-2.898.777zM74.415 80.368l2.898-.776.776 2.897-2.898.777zM77.004 90.028l2.898-.777.776 2.898-2.897.777zM79.592 99.687l2.898-.777.776 2.898-2.897.777zM82.18 109.346l2.898-.776.776 2.897-2.898.777zM84.768 119.005l2.898-.776.776 2.897-2.898.777zM87.356 128.665l2.898-.776.776 2.897-2.898.777zM89.945 138.324l2.898-.777.776 2.898-2.898.777zM92.533 147.983l2.898-.777.776 2.898-2.898.777zM95.121 157.642l2.898-.777.776 2.898-2.898.777zM68.545 19.825l2.898-.776.776 2.897-2.897.777zM71.133 29.484l2.898-.776.776 2.897-2.897.777zM73.722 39.143l2.898-.776.776 2.897-2.898.777zM76.31 48.802l2.898-.776.776 2.897-2.898.777zM78.898 58.462l2.898-.776.776 2.897-2.897.777zM81.486 68.121l2.898-.776.776 2.897-2.898.777zM84.075 77.78l2.898-.777.776 2.898-2.898.777zM86.663 87.439l2.898-.776.776 2.897-2.898.777zM89.251 97.099l2.898-.776.776 2.897-2.897.777zM91.839 106.758l2.898-.776.776 2.897-2.898.777zM94.427 116.417l2.898-.776.776 2.897-2.898.777zM97.016 126.076l2.898-.777.776 2.898-2.898.777zM99.604 135.736l2.898-.777.776 2.898-2.898.777zM102.192 145.395l2.898-.776.776 2.897-2.898.777zM104.78 155.054l2.898-.776.776 2.897-2.898.777zM78.205 17.236l2.898-.776.776 2.897-2.898.777zM80.793 26.896l2.898-.776.776 2.897-2.897.777zM83.381 36.555l2.898-.776.776 2.897-2.898.777zM85.969 46.214l2.898-.776.776 2.897-2.898.777zM88.557 55.873l2.898-.776.776 2.897-2.898.777zM91.146 65.533l2.898-.777.776 2.898-2.897.777zM93.734 75.192l2.898-.776.776 2.897-2.898.777zM96.322 84.851l2.898-.776.776 2.897-2.898.777zM98.91 94.51l2.898-.776.776 2.897-2.898.777zM101.499 104.17l2.898-.776.776 2.897-2.898.777zM104.087 113.829l2.898-.776.776 2.897-2.898.777zM106.675 123.488l2.898-.776.776 2.897-2.898.777zM109.263 133.147l2.898-.776.776 2.897-2.898.777zM111.851 142.807l2.898-.776.776 2.897-2.898.777zM114.439 152.466l2.898-.776.776 2.897-2.898.777zM87.864 14.648l2.898-.776.776 2.897-2.898.777zM90.452 24.307l2.898-.776.776 2.897-2.898.777zM93.04 33.967l2.898-.776.776 2.897-2.897.777zM95.629 43.626l2.898-.777.776 2.898-2.898.777zM98.217 53.285l2.898-.777.776 2.898-2.898.777zM100.805 62.944l2.898-.776.776 2.897-2.898.777zM103.393 72.604l2.898-.776.776 2.897-2.897.777zM105.981 82.263l2.898-.776.776 2.897-2.898.777zM108.57 91.922l2.898-.776.776 2.897-2.898.777zM111.158 101.582l2.898-.776.776 2.897-2.898.777zM113.746 111.241l2.898-.776.776 2.897-2.898.777zM116.334 120.9l2.898-.776.776 2.897-2.898.777zM118.922 130.559l2.898-.776.776 2.897-2.898.777zM121.51 140.219l2.898-.776.776 2.897-2.898.777zM124.099 149.878l2.898-.776.776 2.897-2.898.777zM97.523 12.06l2.898-.776.776 2.897-2.898.777zM100.11 21.719l2.899-.776.776 2.897-2.898.777zM102.7 31.378l2.898-.776.776 2.897-2.898.777zM105.288 41.038l2.898-.776.776 2.897-2.897.777zM107.876 50.697l2.898-.776.776 2.897-2.898.777zM110.464 60.356l2.898-.776.776 2.897-2.898.777zM113.052 70.016l2.898-.776.776 2.897-2.897.777zM115.641 79.675l2.898-.776.776 2.897-2.897.777zM118.229 89.334l2.898-.776.776 2.897-2.898.777zM120.817 98.993l2.898-.776.776 2.897-2.898.777zM123.405 108.653l2.898-.776.776 2.897-2.898.777zM125.993 118.312l2.898-.776.776 2.897-2.898.777zM128.582 127.971l2.898-.776.776 2.897-2.898.777zM131.17 137.63l2.898-.776.776 2.897-2.898.777zM133.758 147.29l2.898-.776.776 2.897-2.898.777zM107.183 9.472l2.898-.776.776 2.897-2.897.777zM109.771 19.131l2.898-.776.776 2.897-2.898.777zM112.359 28.79l2.898-.776.776 2.897-2.898.777zM114.947 38.45l2.898-.776.776 2.897-2.897.777zM117.535 48.109l2.898-.776.776 2.897-2.897.777zM120.124 57.768l2.898-.776.776 2.897-2.898.777zM122.712 67.427l2.898-.776.776 2.897-2.898.777zM125.3 77.087l2.898-.776.776 2.897-2.897.777zM127.888 86.746l2.898-.776.776 2.897-2.898.777zM130.476 96.405l2.898-.776.776 2.897-2.898.777zM133.064 106.064l2.898-.776.776 2.897-2.898.777zM135.653 115.724l2.898-.776.776 2.897-2.898.777zM138.241 125.383l2.898-.776.776 2.897-2.898.777zM140.829 135.042l2.898-.776.776 2.897-2.898.777zM143.417 144.701l2.898-.776.776 2.897-2.898.777zM116.842 6.884l2.898-.776.776 2.897-2.897.777zM119.43 16.543l2.898-.776.776 2.897-2.898.777zM122.018 26.202l2.898-.776.776 2.897-2.898.777zM124.606 35.861l2.898-.776.776 2.897-2.898.777zM127.195 45.521l2.898-.776.776 2.897-2.897.777zM129.783 55.18l2.898-.776.776 2.897-2.898.777zM132.37 64.839l2.899-.776.776 2.897-2.898.777zM134.959 74.498l2.898-.776.776 2.897-2.898.777zM137.547 84.158l2.898-.776.776 2.897-2.897.777zM140.135 93.817l2.898-.776.776 2.897-2.898.777zM142.724 103.476l2.898-.776.776 2.897-2.898.777zM145.312 113.135l2.898-.776.776 2.897-2.898.777zM147.9 122.795l2.898-.776.776 2.897-2.898.777zM150.488 132.454l2.898-.776.776 2.897-2.898.777zM153.076 142.113l2.898-.776.776 2.897-2.898.777zM126.5 4.295l2.899-.776.776 2.897-2.898.777zM129.09 13.955l2.897-.776.776 2.897-2.897.777zM131.677 23.614l2.898-.776.776 2.897-2.898.777zM134.266 33.273l2.898-.776.776 2.897-2.898.777zM136.854 42.932l2.898-.776.776 2.897-2.898.777zM139.442 52.592l2.898-.776.776 2.897-2.897.777zM142.03 62.251l2.898-.776.776 2.897-2.898.777zM144.618 71.91l2.898-.776.776 2.897-2.898.777zM147.207 81.57l2.898-.776.776 2.897-2.897.777zM149.795 91.229l2.898-.776.776 2.897-2.897.777zM152.383 100.888l2.898-.776.776 2.897-2.898.777zM154.971 110.547l2.898-.776.776 2.897-2.898.777zM157.559 120.207l2.898-.776.776 2.897-2.898.777zM160.147 129.866l2.898-.776.776 2.897-2.898.777zM162.736 139.525l2.898-.776.776 2.897-2.898.777zM136.16 1.707l2.898-.776.776 2.897-2.898.777zM138.75 11.367l2.897-.776.776 2.897-2.897.777zM141.337 21.026l2.898-.776.776 2.897-2.897.777zM143.925 30.685l2.898-.776.776 2.897-2.898.777zM146.513 40.344l2.898-.776.776 2.897-2.898.777zM149.101 50.004l2.898-.776.776 2.897-2.897.777zM151.69 59.663l2.897-.776.776 2.897-2.897.777zM154.278 69.322l2.898-.776.776 2.897-2.898.777zM156.866 78.981l2.898-.776.776 2.897-2.898.777zM159.454 88.641l2.898-.776.776 2.897-2.897.777zM162.042 98.3l2.898-.776.776 2.897-2.897.777zM164.63 107.959l2.898-.776.776 2.897-2.898.777zM167.219 117.618l2.898-.776.776 2.897-2.898.777zM169.807 127.278l2.898-.776.776 2.897-2.898.777zM172.395 136.937l2.898-.776.776 2.897-2.898.777z"/></svg>