<svg width="60" height="60" fill="none" xmlns="http://www.w3.org/2000/svg"><g clip-path="url(#clip0)" fill="#2E2928"><path d="M14.516 3.871h9.678v1.935h-9.678V3.871zM17.42 11.613h-1.936v10.645h-1.936v-7.742h-1.935v7.742H9.677V17.42H7.742v4.84H5.806v1.935h13.549v-1.936h-1.936V11.613zM5.806 26.129h1.936v1.935H5.806V26.13zM9.677 26.129h9.678v1.935H9.677V26.13z"/><path d="M57.097 39.677c1.6 0 2.903-1.302 2.903-2.903V21.873a3.89 3.89 0 0 0-3.323-3.832l-3.451-.493v-1.619a5.787 5.787 0 0 0 1.935-4.316V9.677a5.812 5.812 0 0 0-5.806-5.806 5.812 5.812 0 0 0-5.807 5.806v1.936a5.79 5.79 0 0 0 1.936 4.316v1.619l-5.423.775-3.331-3.807h.044V9.677h1.936V3.871H28.465L24.595 0h-10.48l-3.87 3.871H0v5.806h1.935v23.226H0v5.807h9.677v2.721L3.21 58.065H0V60h60v-1.935h-3.871V39.499c.304.109.627.178.968.178zM50.27 27.715l-.916.917-.916-.917.803-6.431c.038 0 .074.006.113.006.039 0 .075-.005.112-.006l.804 6.431zM45.484 9.677a3.875 3.875 0 0 1 3.87-3.87 3.875 3.875 0 0 1 3.872 3.87v1.936a3.875 3.875 0 0 1-3.871 3.87 3.875 3.875 0 0 1-3.871-3.87V9.677zm3.87 7.742c.68 0 1.33-.123 1.936-.338v1.04c-.24.37-.907 1.234-1.935 1.234-1.03 0-1.698-.867-1.936-1.234v-1.04a5.775 5.775 0 0 0 1.936.338zm-3.38 2.013c.294.396.755.907 1.387 1.292l-.96 7.69 2.954 2.954 2.955-2.954-.962-7.69a5 5 0 0 0 1.387-1.292l3.668.524c.947.136 1.662.96 1.662 1.916v14.902a.97.97 0 0 1-.968.968.97.97 0 0 1-.968-.968V23.226h-1.935v9.677h-9.678v-9.677h-5.844a.965.965 0 0 1-.756-.363l-6.723-8.404a1.036 1.036 0 0 1-.225-.644v-.206a1.03 1.03 0 0 1 1.803-.677l6.523 7.454 6.68-.954zM16.452 42.581v15.483H9.157l6.021-15.483h1.274zm1.935 0h1.936v15.483h-1.936V42.582zm3.871 0h1.274l6.021 15.483h-7.295V42.582zm3.35 0h1.794l6.022 15.483H31.63l-6.022-15.483zm3.424-1.15V38.71h9.678v-5.807h-1.936V24.44a2.88 2.88 0 0 0 1.898.721h3.909v32.903H35.5l-6.469-16.633zm15.484-6.592h3.871v23.226h-3.87V34.839zM1.936 5.806h9.11l3.87-3.87h8.877l3.87 3.87h9.111v1.936H1.935V5.806zM3.87 9.677h30.968v2.678l-.61-.698a2.965 2.965 0 0 0-5.197 1.952v.206c0 .67.23 1.328.65 1.853l5.157 6.446v10.79H3.87V9.676zM1.935 34.84h34.84v1.935H1.934V34.84zm25.162 3.87v1.936H11.613V38.71h15.484zm-15.79 3.872h1.794L7.08 58.064H5.286l6.021-15.483zm39.016 15.483V34.84h3.87v23.226h-3.87z"/><path d="M27.097 19.355a5.812 5.812 0 0 0-5.807 5.806 5.812 5.812 0 0 0 5.807 5.807 5.812 5.812 0 0 0 5.806-5.807 5.812 5.812 0 0 0-5.806-5.806zm-.968 2.073v2.766h-2.766a3.865 3.865 0 0 1 2.766-2.766zm-2.766 4.701h2.766v2.766a3.865 3.865 0 0 1-2.766-2.766zm4.701 2.766v-7.467c1.665.432 2.904 1.935 2.904 3.733s-1.239 3.301-2.904 3.734z"/></g><defs><clipPath id="clip0"><path fill="#fff" d="M0 0h60v60H0z"/></clipPath></defs></svg>