<svg width="60" height="60" fill="none" xmlns="http://www.w3.org/2000/svg"><path d="M28.665 22.766h3.989c0 1.814-1.995 2.263-1.995 2.263s-1.994-.449-1.994-2.263zm-3.416-8.82c-.893-.725-.996-2.69-1.007-3.276a.791.791 0 0 1 .793-.806h4.759c.231 0 .45.1.601.277.015.017.018.039.03.056h.583c.013-.017.016-.04.03-.056a.792.792 0 0 1 .602-.277h4.76a.795.795 0 0 1 .792.807c-.01.585-.114 2.55-1.006 3.275-.562.457-1.436.74-2.28.74-.82 0-1.513-.264-1.951-.745-.436-.477-.726-1.404-.903-2.159h-.67c-.177.755-.467 1.682-.904 2.16-.439.48-1.132.745-1.952.745-.842 0-1.715-.284-2.277-.74zm7.357-2.497c.155.644.356 1.243.52 1.423.129.141.428.23.78.23.475 0 1.001-.16 1.28-.386.139-.132.28-.662.36-1.267h-2.94zm-6.717 0c.08.605.221 1.136.362 1.269.482.392 1.755.485 2.057.153.165-.18.366-.779.52-1.422H25.89zm33.692 34.437v5.198a.792.792 0 0 1-.793.792l-2.657.001v7.33a.792.792 0 1 1-1.585 0v-7.329h-1.374v7.33a.792.792 0 1 1-1.586 0v-7.33l-43.173.019v7.31a.792.792 0 1 1-1.585 0v-7.31l-1.375.002v7.308a.792.792 0 1 1-1.585 0V51.9l-2.657.001a.789.789 0 0 1-.793-.792v-5.223c0-.162.05-.32.142-.452l7.53-10.849a.792.792 0 0 1 .651-.34h2.708V16.843c0-5.442 5.11-7.433 7.813-7.726a.797.797 0 0 1 .872.701.794.794 0 0 1-.7.875c-.262.03-6.4.778-6.4 6.15v1.195h10.852c-.672-1.099-1.17-2.419-1.361-3.99-.752-.442-2.135-1.574-2.067-3.885.013-.423.05-1.711 1.025-2.079.132-.05.263-.071.392-.078C22.585 3.55 26.447 0 30.715 0h.004c4.268 0 8.129 3.549 8.84 8.007.13.006.26.027.39.076.975.368 1.013 1.656 1.026 2.08.068 2.312-1.315 3.443-2.066 3.886-.192 1.57-.688 2.89-1.36 3.989h10.939v-1.195c0-5.372-6.137-6.121-6.399-6.15a.794.794 0 0 1-.7-.875.796.796 0 0 1 .872-.701c2.702.292 7.812 2.283 7.812 7.726v14.862h5.268a.791.791 0 0 1 .772.97l-1.353 5.888 4.682 6.876a.786.786 0 0 1 .139.447zM54.346 33.29H39.752l-1.738 8.62h14.35l1.982-8.62zm-17.8 7.883l.603-2.998H33.26l3.285 2.998zm11.943-18.09h-6.686c.7.506 1.42 1.125 2.097 1.875h4.589v-1.874zm-3.374 3.46c.368.569.703 1.192.994 1.875h2.38v-1.875h-3.374zm3.374 5.162v-1.702h-1.822c.15.536.27 1.104.36 1.702h1.462zm-24.43-18.233c.451 5.373 4.68 7.112 6.658 7.112 1.978 0 6.207-1.738 6.658-7.112a.791.791 0 0 1 .512-.676c.057-.023 1.561-.642 1.503-2.586a2.932 2.932 0 0 0-.055-.533c-.103.068-.22.165-.307.256a.792.792 0 1 1-1.156-1.085c.034-.036.102-.103.187-.18-.41-3.905-3.701-7.083-7.34-7.083h-.002c-3.64 0-6.932 3.176-7.342 7.083.084.076.153.144.187.18a.794.794 0 0 1-1.158 1.084 1.938 1.938 0 0 0-.304-.254c-.025.112-.05.282-.056.533-.058 1.944 1.446 2.563 1.51 2.59a.8.8 0 0 1 .505.671zm-11.024 6.151v1.874h9.548c.551-.274.9-.404.917-.41.01-.003.021 0 .03-.004l-.025-.472a.792.792 0 1 1 1.582-.086l.163 2.966 1.799-.844a.792.792 0 1 1 .674 1.434l-2.863 1.344a.797.797 0 0 1-.744-.037.788.788 0 0 1-.384-.638l-.11-2.002c-1.636.72-7.498 3.825-7.88 11.497h4.716v-1.347a.792.792 0 1 1 1.585 0v1.346h5.78c.373-2.163 1.505-8.898 1.614-9.062.658.46 1.224.522 1.224.522s.566-.063 1.224-.522c.11.164 1.241 6.9 1.614 9.063h4.445l.384-1.904a.789.789 0 0 1 .775-.636h6.302c-1.086-6.354-6.294-8.531-7.683-8.998l-.111 2.043a.791.791 0 0 1-1.128.675l-2.863-1.344a.792.792 0 1 1 .674-1.434l1.8.844.162-2.966a.791.791 0 1 1 1.582.086l-.025.466c.131.036.562.165 1.17.42h9.507v-1.874H36.324c-1.692 1.73-3.878 2.546-5.606 2.546-1.728 0-3.914-.817-5.606-2.546H13.035zm7.007 3.46h-7.007v1.875h4.936a15.951 15.951 0 0 1 2.071-1.874zm-7.007 5.335h2.56c.331-.679.703-1.302 1.1-1.875h-3.66v1.875zm0 5.827h1.122c.072-1.579.357-2.989.788-4.243h-1.91v4.243zM2.727 45.093H57.29l-3.013-4.424-.508 2.212a.793.793 0 0 1-.773.615h-15.95a.785.785 0 0 1-.312-.07c-.033-.015-.06-.038-.091-.057-.044-.027-.092-.044-.13-.08l-5.83-5.32a.793.793 0 0 1 .534-1.378h6.253l.153-.76H9.156l-6.43 9.262zm55.268 5.198v-3.613H2.005v3.637H4.66l53.334-.024z" fill="#2E2928"/></svg>