<svg width="60" height="60" fill="none" xmlns="http://www.w3.org/2000/svg"><path d="M56.25 3.75H30V1.875h27.188a.938.938 0 0 1 .937.938v54.374a.938.938 0 0 1-.938.938H40.314V56.25H56.25V3.75z" fill="#2E2928"/><path d="M48.75 20.625h1.875A1.877 1.877 0 0 0 52.5 18.75h1.875a3.754 3.754 0 0 1-3.75 3.75v1.875H48.75V22.5a3.75 3.75 0 0 1 0-7.5h1.875a1.875 1.875 0 1 0 0-3.75H48.75a1.877 1.877 0 0 0-1.875 1.875H45a3.754 3.754 0 0 1 3.75-3.75V7.5h1.875v1.875a3.75 3.75 0 0 1 0 7.5H48.75a1.875 1.875 0 1 0 0 3.75zM35.625 8.438h5.625v1.874h-5.625V8.438zM30 8.438h3.75v1.874H30V8.438zM31.875 13.125h11.25V15h-11.25v-1.875zM33.75 17.813h9.375v1.875H33.75v-1.875zM35.625 22.5h7.5v1.875h-7.5V22.5zM34.688 44.063a.938.938 0 0 1-.938-.938V29.062a.938.938 0 0 1 .938-.937h3.75a.938.938 0 0 1 .937.938v2.812h2.813a.938.938 0 0 1 .937.938v3.75H45v-1.876a.938.938 0 0 1 .938-.937h3.75a.938.938 0 0 1 .937.938v1.874h2.813a.938.938 0 0 1 .937.938v9.375a.938.938 0 0 1-.938.938H36.564v-1.876H52.5v-1.874H34.687zM37.5 30h-1.875v12.188H37.5V30zm3.75 3.75h-1.875v8.438h1.875V33.75zM45 38.438h-1.875v3.75H45v-3.75zm3.75-2.813h-1.875v6.563h1.875v-6.563zm3.75 2.813h-1.875v3.75H52.5v-3.75z" fill="#2E2928"/><path d="M1.735 9.252a6.563 6.563 0 0 1 6.512-7.377h16.597a3.28 3.28 0 0 1 1.014 6.401l5.905 10.967a.938.938 0 0 1-.825 1.382h-3.75v11.25a.937.937 0 0 1-.938.938h-8.437v2.31l11.43 7.62a20.797 20.797 0 0 1 9.19 15.289l-1.866.186a18.93 18.93 0 0 0-8.364-13.914l-2.265-1.51a61.607 61.607 0 0 1 6.835 15.062l-1.796.538a59.749 59.749 0 0 0-8.067-16.792l-.38 1.523 3.692 14.773-1.819.454L20.9 44.335l-1.165.388.89 13.34-1.872.124-.914-13.71-3.939-3.94-1.364 1.593a68.047 68.047 0 0 1 4.724 13.531l.529 2.25-1.825.429-.53-2.25A65.884 65.884 0 0 0 4.32 32.014l-.569.158v18.812l6.982 3.491a.936.936 0 0 1 .36 1.359l-1.874 2.812-1.56-1.04 1.286-1.929-6.55-3.275a.937.937 0 0 1-.519-.839V31.459a.938.938 0 0 1 .687-.903l1.188-.33V25.37L1.735 9.25zM24.844 3.75H8.247a4.688 4.688 0 0 0-4.651 5.269L5.35 23.053l2.913-3.495-1.601-3.201a.937.937 0 0 1 .49-1.29l4.687-1.875a.936.936 0 0 1 1.069.27l3.03 3.636V7.5a.938.938 0 0 1 .937-.938h7.5c.165 0 .327.044.469.127v-.127a1.407 1.407 0 0 0 0-2.812zm.469 27.188v-11.25a.938.938 0 0 1 .937-.938h3.118L23.815 8.437h-6.002v11.25a.938.938 0 0 1-1.658.6l-4.252-5.101-3.109 1.244 1.42 2.838a.937.937 0 0 1-.119 1.02l-4.47 5.364v4.976a69.282 69.282 0 0 1 2.799 4.06h7.514v-2.425l-5.35-5.35 1.325-1.326 5.35 5.35h8.05zm-6.31 12.052l1.775-.592.652-2.61-4.384-2.922-1.923 2.244 3.88 3.88zm-4.166-6.428H9.575a67.65 67.65 0 0 1 2.06 3.737l3.202-3.736z" fill="#2E2928"/><path d="M21.563 13.125h1.875a.938.938 0 0 1 0 1.875h-1.875a.938.938 0 0 1 0-1.875z" fill="#2E2928"/></svg>