<svg width="60" height="60" fill="none" xmlns="http://www.w3.org/2000/svg"><path d="M57 30H35a3 3 0 0 0-3 3v13a3 3 0 0 0 3 3h8v3h-4v2h-9v-5.42a7.031 7.031 0 0 0-5.157-6.755L19 40.235v-1.5A6.99 6.99 0 0 0 22 33v-1a1 1 0 0 0 1-1v-3a8.01 8.01 0 0 0-8-8H6a2 2 0 0 0-2 2v5a4.978 4.978 0 0 0 3.729 4.833c.089.025.181.036.271.055V33a6.99 6.99 0 0 0 3 5.736v1.5l-5.846 1.59A7.03 7.03 0 0 0 0 48.58V59a1 1 0 0 0 1 1h58a1 1 0 0 0 1-1v-4a1 1 0 0 0-1-1h-6v-2h-4v-3h8a3 3 0 0 0 3-3V33a3 3 0 0 0-3-3zM6 27v-5h9a6.006 6.006 0 0 1 6 6v2h-.66a2.006 2.006 0 0 1-1.94-1.511l-.43-1.73a1.001 1.001 0 0 0-1.77-.36l-.6.801a7.3 7.3 0 0 1-1.23 1.267A6.98 6.98 0 0 1 10 30H9a2.688 2.688 0 0 1-.753-.1A2.987 2.987 0 0 1 6 27zm4 6v-1a8.99 8.99 0 0 0 6.523-2.806A4 4 0 0 0 20 31.972V33a5 5 0 0 1-10 0zm5 7a6.958 6.958 0 0 0 2-.3V41a.99.99 0 0 0 .35.743L15 43.7l-2.35-1.956A.989.989 0 0 0 13 41v-1.3a6.958 6.958 0 0 0 2 .3zm-9.317 3.755L10.4 42.47l3.96 3.3a1 1 0 0 0 1.28 0l3.96-3.3 4.714 1.283A5.026 5.026 0 0 1 28 48.58V54h-3v-5h-2v5H7v-5H5v5H2v-5.42a5.024 5.024 0 0 1 3.683-4.825zM58 56v2H2v-2h56zm-13-4V41h2v11h-2zm13-6a1 1 0 0 1-1 1h-8v-7a1 1 0 0 0-1-1h-4a1 1 0 0 0-1 1v7h-8a1 1 0 0 1-1-1V33a1 1 0 0 1 1-1h22a1 1 0 0 1 1 1v13zM57 0H39a3 3 0 0 0-3 3v1h-1a3 3 0 0 0-3 3v14a3 3 0 0 0 3 3h18a3 3 0 0 0 3-3v-1h1a3 3 0 0 0 3-3V3a3 3 0 0 0-3-3zM35 6h18a1 1 0 0 1 1 1v1H34V7a1 1 0 0 1 1-1zm18 16H35a1 1 0 0 1-1-1V10h20v11a1 1 0 0 1-1 1zm5-5a1 1 0 0 1-1 1h-1V7a3 3 0 0 0-3-3H38V3a1 1 0 0 1 1-1h18a1 1 0 0 1 1 1v14z" fill="#2E2928"/><path d="M43 14h2v2h-2v-2zM47 14h2v2h-2v-2zM39 14h2v2h-2v-2zM6 4h4v2H6V4zM12 4h12v2H12V4zM7 12h4v2H7v-2zM13 12h12v2H13v-2zM8 8h4v2H8V8zM14 8h12v2H14V8z" fill="#2E2928"/></svg>