<svg width="60" height="60" fill="none" xmlns="http://www.w3.org/2000/svg"><path d="M3.612.018L9.238 4.23l5.657 13.19h4.55l1.786-3.87h-1.167a3.86 3.86 0 0 1-3.871-3.853v-3.89h-1.936V0h5.807v5.806h-1.936v3.89c0 1.066.868 1.917 1.936 1.917h2.06l2.474-5.352-2.963-1.476L31.337.629l2.281 7.983c.062-4.75 3.94-8.595 8.704-8.595 4.803 0 8.71 3.907 8.71 8.71a8.74 8.74 0 0 1-3.871 7.234v1.458h2.344l.15.794c.47 2.44.514 4.947.13 7.448l6.602 11.767-7.29 1.666V51.29h-9.678V60H16.193V46.514C9.419 41.722 5.55 34.017 5.556 25.797l-.003-3.53c0-1.33.123-2.698.371-4.045l.143-.803h1.9L3.612 6.986V.018zM18.128 3.89V1.954h-1.935v1.935h1.935zm3.448 13.53h3.671l1.76-3.87h-3.644l-1.787 3.87zm8.505-14.143l-3.847 1.648.908.445-2.886 6.244h3.63l2.359-5.176.866.437-1.03-3.598zm-2.708 14.143h4.304v-1.917c0-1.067-.868-1.953-1.936-1.953h-.608l-1.76 3.87zm3.8-8.345L30 11.657c2.013.136 3.612 1.799 3.612 3.845v1.917h3.871v-1.458a8.745 8.745 0 0 1-3.694-5.579l-2.615-1.308zm17.923-.346a6.783 6.783 0 0 0-6.774-6.774 6.783 6.783 0 0 0-6.774 6.774 6.8 6.8 0 0 0 3.388 5.86l.483.28v2.551h1.935v-5.967a2.9 2.9 0 0 1-1.935-2.725c0-1.6 1.302-2.903 2.903-2.903 1.6 0 2.903 1.303 2.903 2.903a2.9 2.9 0 0 1-1.935 2.725v5.967h1.935v-2.552l.483-.28a6.798 6.798 0 0 0 3.388-5.859zm-6.774.968a.969.969 0 0 0 0-1.936.968.968 0 0 0 0 1.936zM7.696 19.355c-.14.968-.21 1.949-.21 2.903l-.003 3.537a23.564 23.564 0 0 0 10.22 19.419l.425.29v12.56h19.355v-8.709h9.678V37.55l6.272-1.43-5.665-10.101.055-.346c.36-2.117.38-4.383.067-6.318H7.696zm2.368-1.936h2.726L7.966 6.172 5.821 7.241l4.243 10.178zM5.548 5.226l1.07-.535-1.07-.802v1.337z" fill="#2E2928"/><path d="M40.386 25.161c1.6 0 2.904-.967 2.904-2.903h1.935c0 2.903-2.17 4.839-4.839 4.839-2.668 0-4.839-1.936-4.839-4.839h1.936c0 1.936 1.303 2.903 2.903 2.903z" fill="#2E2928"/></svg>