<svg width="60" height="60" fill="none" xmlns="http://www.w3.org/2000/svg"><path d="M60 30.968v-7.765a4.809 4.809 0 0 0-3.448-4.635l-6.23-1.869v-1.47a6.767 6.767 0 0 0 2.904-5.55V6.773A6.782 6.782 0 0 0 46.452 0a6.782 6.782 0 0 0-6.775 6.774v2.903a6.764 6.764 0 0 0 2.904 5.551v1.47l-5.49 1.648a11.147 11.147 0 0 0-7.472-2.862 11.172 11.172 0 0 0-7.278 2.692L17.42 16.7v-1.47a6.767 6.767 0 0 0 2.904-5.55V6.773A6.782 6.782 0 0 0 13.548 0a6.782 6.782 0 0 0-6.774 6.774v2.903a6.764 6.764 0 0 0 2.903 5.551v1.47l-6.229 1.87A4.811 4.811 0 0 0 0 23.202v7.765h1.935v-7.765c0-1.292.832-2.41 2.07-2.78l6.23-1.87c.564.731 1.654 1.77 3.313 1.77 1.66 0 2.75-1.039 3.313-1.77l3.969 1.19a11.17 11.17 0 0 0-2.354 5.622 6.75 6.75 0 0 0-4.928-2.14A6.782 6.782 0 0 0 6.774 30v2.903a6.764 6.764 0 0 0 2.903 5.551v1.47l-6.229 1.869A4.811 4.811 0 0 0 0 46.429v8.732h11.613a.97.97 0 0 1 .968.968V60h34.838v-3.871a.97.97 0 0 1 .968-.968H60v-8.733a4.809 4.809 0 0 0-3.448-4.634l-6.23-1.869v-1.47a6.767 6.767 0 0 0 2.904-5.55V30a6.782 6.782 0 0 0-6.774-6.774 6.752 6.752 0 0 0-4.84 2.042v-.918a5.204 5.204 0 0 0-2.659-4.541l4.186-1.257c.563.731 1.653 1.77 3.313 1.77 1.66 0 2.749-1.039 3.312-1.77l6.232 1.87a2.884 2.884 0 0 1 2.069 2.78v7.765H60zM13.548 1.935a4.844 4.844 0 0 1 4.84 4.84h-4.439c-.615 0-1.218-.25-1.652-.685l-.684-.684-.684.684a2.352 2.352 0 0 1-1.652.684H8.71a4.844 4.844 0 0 1 4.838-4.839zM8.71 9.677V8.71h.567c.843 0 1.648-.242 2.336-.694a4.238 4.238 0 0 0 2.336.694h4.438v.967a4.844 4.844 0 0 1-4.839 4.84 4.844 4.844 0 0 1-4.838-4.84zm4.838 8.71c-1.028 0-1.695-.864-1.935-1.234v-.986a6.734 6.734 0 0 0 3.871 0v.985c-.24.372-.907 1.235-1.936 1.235zM40.15 35.373a6.804 6.804 0 0 0 2.43 3.082v1.47l-6.228 1.869c-.205.06-.404.14-.599.228l-.914-.21v-1.907a7.782 7.782 0 0 0 2.35-3.174 4.82 4.82 0 0 0 2.96-1.358zM30 41.613a7.688 7.688 0 0 0 2.903-.57v1.054L30 44.274l-2.903-2.177v-1.054c.897.365 1.876.57 2.903.57zm-4.092 2.012l2.36 1.77-2.427 1.456-.614-3.068.681-.158zm3.023 7.665h2.138l.753 6.775h-3.644l.753-6.775zm2.307-1.935h-2.476l-.556-1.667L30 46.612l1.793 1.076-.555 1.667zm.494-3.96l2.36-1.77.681.157-.614 3.068-2.427-1.455zm7.19-11.507c-.334.368-.76.626-1.222.782.027-.263.042-.53.042-.799v-4.63c1.041.394 1.816 1.31 1.92 2.405a2.887 2.887 0 0 1-.74 2.242zm-3.116-.017A5.812 5.812 0 0 1 30 39.677a5.812 5.812 0 0 1-5.806-5.806v-4.839h3.285c2.109 0 4.161-.526 5.996-1.532l.765 1.532h1.566v4.839zm-13.506.8a2.903 2.903 0 0 1-1.223-.782 2.885 2.885 0 0 1-.74-2.242c.105-1.095.88-2.012 1.921-2.406v4.63c0 .27.015.536.042.8zm.511 2.06a7.766 7.766 0 0 0 2.35 3.174v1.906l-.914.211a5 5 0 0 0-.598-.228l-6.23-1.869v-1.47a6.81 6.81 0 0 0 2.431-3.082 4.82 4.82 0 0 0 2.961 1.358zm-9.263-11.57A4.844 4.844 0 0 1 18.388 30h-.568c-.615 0-1.218-.25-1.652-.684l-.684-.684-.684.684a2.352 2.352 0 0 1-1.652.684H8.71a4.844 4.844 0 0 1 4.838-4.839zM8.71 32.903v-.967h4.438c.843 0 1.648-.242 2.336-.694a4.238 4.238 0 0 0 2.336.694h.567v.967a4.844 4.844 0 0 1-4.839 4.839 4.844 4.844 0 0 1-4.838-4.839zm4.838 6.774c.673 0 1.322-.101 1.936-.285v.986c-.24.372-.907 1.235-1.936 1.235-1.028 0-1.695-.864-1.935-1.234v-.986a6.768 6.768 0 0 0 1.935.284zm-1.935 13.549H7.742v-6.774H5.806v6.774h-3.87v-6.797c0-1.292.83-2.41 2.069-2.78l6.23-1.87c.564.73 1.654 1.77 3.313 1.77 1.66 0 2.75-1.04 3.313-1.77l3.67 1.1-2.7.623a6.744 6.744 0 0 0-5.25 6.6v1.188h1.935v-1.187a4.818 4.818 0 0 1 3.751-4.715l5.073-1.171 1.14 5.706 2.026-1.215.572 1.719-.847 7.638h-4.94v-7.742h-1.936v7.742h-4.839v-1.936c0-1.6-1.303-2.903-2.903-2.903zm44.382-9.578a2.884 2.884 0 0 1 2.07 2.78v6.798h-3.871v-6.774h-1.936v6.774h-3.87a2.907 2.907 0 0 0-2.904 2.903v1.936h-4.839v-7.742H38.71v7.742h-4.94l-.85-7.638.573-1.719 2.025 1.215 1.14-5.706 5.075 1.17a4.818 4.818 0 0 1 3.75 4.716v1.187h1.936v-1.187a6.744 6.744 0 0 0-5.25-6.6l-2.7-.623 3.67-1.102c.563.732 1.653 1.77 3.313 1.77 1.66 0 2.749-1.038 3.312-1.77l6.231 1.87zm-7.608-3.269c-.24.37-.907 1.234-1.935 1.234-1.031 0-1.699-.867-1.936-1.234v-.987a6.734 6.734 0 0 0 3.871 0v.987zm-1.935-2.637a4.844 4.844 0 0 1-4.84-4.839v-.967h.568c.843 0 1.648-.242 2.336-.694a4.238 4.238 0 0 0 2.336.694h4.438v.967a4.844 4.844 0 0 1-4.838 4.839zm0-12.58A4.844 4.844 0 0 1 51.29 30h-4.438c-.614 0-1.217-.25-1.652-.684l-.684-.684-.684.684A2.352 2.352 0 0 1 42.18 30h-.567a4.844 4.844 0 0 1 4.839-4.839zm-6.775 2.985a5.084 5.084 0 0 0-3.07-1.05h-1.17l-1.19-2.38-.912.607a10.52 10.52 0 0 1-5.856 1.773h-4.087c-1.15 0-2.213.401-3.07 1.05v-1.432c0-5.125 4.172-9.296 9.297-9.296 2.483 0 4.818.967 6.574 2.723l1.026 1.026.217.073a3.274 3.274 0 0 1 2.241 3.11v3.796zm6.775-26.212a4.844 4.844 0 0 1 4.838 4.84h-.567c-.614 0-1.217-.25-1.652-.685l-.684-.684-.684.684a2.352 2.352 0 0 1-1.652.684h-4.438a4.844 4.844 0 0 1 4.839-4.839zm-4.84 7.742V8.71h4.439c.843 0 1.648-.242 2.336-.694a4.238 4.238 0 0 0 2.336.694h.567v.967a4.844 4.844 0 0 1-4.838 4.84 4.844 4.844 0 0 1-4.84-4.84zm4.84 8.71c-1.031 0-1.699-.867-1.936-1.234v-.987a6.734 6.734 0 0 0 3.871 0v.986c-.24.372-.907 1.235-1.935 1.235z" fill="#2E2928"/><path d="M22.258 0h1.935v1.935h-1.935V0zM22.258 3.871h1.935v10.645h-1.935V3.871zM35.807 0h1.935v1.935h-1.935V0zM35.807 3.871h1.935v10.645h-1.935V3.871zM26.129 3.871h1.935v6.774H26.13V3.871zM26.129 12.58h1.935v1.936H26.13v-1.935zM31.936 3.871h1.935v6.774h-1.936V3.871zM31.936 12.58h1.935v1.936h-1.936v-1.935z" fill="#2E2928"/></svg>