<svg xmlns="http://www.w3.org/2000/svg" width="64" height="64" fill="#4b73cd"><path d="M32.848 39.65a1.01 1.01 0 0 0-1.346-.479c-.82.39-1.68.711-2.556.956a1.01 1.01 0 0 0-.718.775l-1.07 5.345c-.105.528-.572.91-1.11.91H23.13a1.136 1.136 0 0 1-1.11-.91l-1.07-5.345a1.01 1.01 0 0 0-.718-.775 16.056 16.056 0 0 1-3.549-1.47 1.01 1.01 0 0 0-1.056.04l-4.536 3.023a1.136 1.136 0 0 1-1.43-.141L7.6 39.516c-.38-.38-.44-.982-.142-1.43l3.024-4.535a1.01 1.01 0 0 0 .04-1.057 16.051 16.051 0 0 1-1.47-3.549 1.01 1.01 0 0 0-.776-.718l-5.344-1.069a1.136 1.136 0 0 1-.911-1.111v-2.916c0-.538.383-1.006.91-1.111l5.345-1.07a1.01 1.01 0 0 0 .775-.718 16.056 16.056 0 0 1 1.47-3.548 1.01 1.01 0 0 0-.039-1.057L7.46 11.092a1.136 1.136 0 0 1 .141-1.43L9.662 7.6c.38-.38.982-.44 1.43-.142l4.536 3.024a1.01 1.01 0 0 0 1.056.04 16.056 16.056 0 0 1 3.55-1.47 1.01 1.01 0 0 0 .718-.776l1.069-5.345c.105-.527.572-.91 1.11-.91h2.917c.538 0 1.005.383 1.11.91l1.07 5.345c.074.373.352.673.718.775 1.238.346 2.432.841 3.55 1.47.33.187.74.172 1.056-.039l4.535-3.024a1.136 1.136 0 0 1 1.43.142l2.062 2.062c.38.38.44.982.142 1.43l-3.024 4.536a1.01 1.01 0 0 0-.04 1.056 16.056 16.056 0 0 1 1.471 3.549c.102.366.402.644.775.718l5.345 1.07c.527.105.91.572.91 1.11v2.916c0 .539-.382 1.006-.91 1.111l-5.345 1.07a1.01 1.01 0 0 0-.775.718 16.084 16.084 0 0 1-.985 2.617 1.01 1.01 0 1 0 1.822.874c.363-.757.675-1.544.93-2.347l4.75-.95a3.163 3.163 0 0 0 2.534-3.093v-2.916a3.163 3.163 0 0 0-2.536-3.093l-4.748-.95a18.082 18.082 0 0 0-1.18-2.846l2.687-4.03a3.163 3.163 0 0 0-.394-3.98l-2.062-2.061a3.163 3.163 0 0 0-3.98-.394l-4.03 2.686a18.094 18.094 0 0 0-2.846-1.18l-.95-4.748A3.162 3.162 0 0 0 26.048 0H23.13a3.163 3.163 0 0 0-3.092 2.535l-.95 4.75c-.98.31-1.934.706-2.846 1.178l-4.03-2.686a3.163 3.163 0 0 0-3.98.394L6.171 8.233a3.163 3.163 0 0 0-.394 3.98l2.687 4.03a18.09 18.09 0 0 0-1.18 2.846l-4.749.95A3.162 3.162 0 0 0 0 23.13v2.917a3.163 3.163 0 0 0 2.536 3.093l4.748.95c.312.98.707 1.933 1.18 2.845l-2.687 4.03a3.163 3.163 0 0 0 .394 3.98l2.062 2.062a3.163 3.163 0 0 0 3.98.394l4.03-2.686a18.09 18.09 0 0 0 2.846 1.179l.95 4.749a3.163 3.163 0 0 0 3.093 2.535h2.916a3.163 3.163 0 0 0 3.093-2.535l.95-4.75a18.104 18.104 0 0 0 2.278-.897 1.01 1.01 0 0 0 .48-1.346z"/><path d="M33.342 30.204a1.01 1.01 0 0 0 1.36-.438 11.395 11.395 0 0 0 1.247-5.176c0-6.264-5.096-11.36-11.36-11.36-2.98 0-5.795 1.146-7.928 3.226a1.01 1.01 0 0 0 1.41 1.447 9.288 9.288 0 0 1 6.518-2.651c5.15 0 9.338 4.189 9.338 9.338 0 1.499-.344 2.93-1.023 4.255a1.01 1.01 0 0 0 .438 1.36zM15.13 20.266a1.01 1.01 0 0 0-1.284.626 11.34 11.34 0 0 0-.615 3.698c0 6.263 5.095 11.359 11.359 11.359 2.409 0 4.71-.745 6.656-2.154a1.01 1.01 0 0 0-1.186-1.637 9.27 9.27 0 0 1-5.47 1.77c-5.15 0-9.338-4.19-9.338-9.339 0-1.041.17-2.064.505-3.04a1.01 1.01 0 0 0-.627-1.283zM62.055 44.164l-2.922-.584a12.224 12.224 0 0 0-.64-1.547l1.653-2.48c.637-.956.51-2.24-.303-3.052l-1.355-1.355a2.426 2.426 0 0 0-3.052-.302l-2.48 1.653c-.5-.248-1.017-.463-1.547-.64l-.584-2.923a2.426 2.426 0 0 0-2.372-1.944h-1.916a2.426 2.426 0 0 0-2.373 1.944l-.584 2.923c-.53.178-1.047.392-1.547.64l-2.48-1.653a2.426 2.426 0 0 0-3.052.302l-1.355 1.355a2.426 2.426 0 0 0-.302 3.053l1.653 2.48a12.213 12.213 0 0 0-.825 2.147 1.01 1.01 0 0 0 1.946.544c.22-.786.534-1.545.934-2.255a1.01 1.01 0 0 0-.04-1.057l-1.986-2.98a.4.4 0 0 1 .05-.503l1.354-1.355a.4.4 0 0 1 .503-.05l2.98 1.988a1.01 1.01 0 0 0 1.057.04 10.2 10.2 0 0 1 2.255-.935 1.01 1.01 0 0 0 .719-.775l.702-3.512a.4.4 0 0 1 .39-.32h1.917a.4.4 0 0 1 .39.32l.703 3.512c.074.373.352.673.718.775.787.22 1.545.535 2.256.935.331.186.74.171 1.056-.04l2.98-1.987a.4.4 0 0 1 .503.05l1.355 1.355a.4.4 0 0 1 .05.502l-1.987 2.98a1.01 1.01 0 0 0-.04 1.057c.4.71.715 1.469.935 2.255.102.367.401.644.775.719l3.512.702a.4.4 0 0 1 .32.39v1.917a.4.4 0 0 1-.32.39l-3.513.703a1.01 1.01 0 0 0-.775.718c-.22.787-.534 1.546-.934 2.256a1.01 1.01 0 0 0 .04 1.056l1.987 2.98a.4.4 0 0 1-.05.503l-1.355 1.355a.4.4 0 0 1-.503.05l-2.98-1.987a1.01 1.01 0 0 0-1.057-.04 10.2 10.2 0 0 1-2.255.935 1.01 1.01 0 0 0-.719.775l-.702 3.512a.4.4 0 0 1-.39.32h-1.917a.4.4 0 0 1-.39-.32l-.702-3.513a1.01 1.01 0 0 0-.719-.775 10.197 10.197 0 0 1-2.255-.934 1.01 1.01 0 0 0-1.057.04l-2.98 1.987a.4.4 0 0 1-.503-.05l-1.355-1.355a.4.4 0 0 1-.05-.502l1.988-2.981a1.01 1.01 0 0 0 .04-1.056 10.2 10.2 0 0 1-.935-2.256 1.01 1.01 0 0 0-.775-.718l-3.512-.703a.4.4 0 0 1-.32-.39v-1.917a.4.4 0 0 1 .32-.39l.215-.043a1.01 1.01 0 1 0-.397-1.982l-.215.043a2.426 2.426 0 0 0-1.945 2.373v1.916c0 1.149.818 2.147 1.945 2.372l2.922.584c.178.53.393 1.047.641 1.547l-1.653 2.48c-.638.956-.51 2.24.302 3.052l1.355 1.355c.813.813 2.096.94 3.053.303l2.48-1.654c.5.249 1.016.463 1.546.641l.584 2.922A2.426 2.426 0 0 0 46.537 64h1.916a2.426 2.426 0 0 0 2.372-1.945l.585-2.922c.53-.178 1.046-.392 1.546-.64l2.48 1.652c.956.638 2.24.51 3.052-.302l1.355-1.355c.813-.812.94-2.096.303-3.052l-1.654-2.48c.249-.5.463-1.017.641-1.547l2.922-.584A2.426 2.426 0 0 0 64 48.453v-1.917a2.425 2.425 0 0 0-1.945-2.372z"/><path d="M47.495 43.857a3.642 3.642 0 0 1 3.638 3.638 1.01 1.01 0 0 0 2.02 0 5.665 5.665 0 0 0-5.658-5.66 5.665 5.665 0 0 0-5.66 5.66 5.665 5.665 0 0 0 5.66 5.659c1.264 0 2.46-.408 3.457-1.179a1.01 1.01 0 0 0-1.236-1.6 3.603 3.603 0 0 1-2.221.758 3.642 3.642 0 0 1-3.638-3.638 3.642 3.642 0 0 1 3.638-3.638zM30.746 24.59a6.164 6.164 0 0 0-6.156-6.157 6.164 6.164 0 0 0-6.157 6.157 6.164 6.164 0 0 0 6.157 6.156 6.164 6.164 0 0 0 6.156-6.156zm-10.292 0a4.14 4.14 0 0 1 4.136-4.136 4.14 4.14 0 0 1 4.135 4.135 4.14 4.14 0 0 1-4.135 4.136 4.14 4.14 0 0 1-4.136-4.135z"/></svg>