<svg xmlns="http://www.w3.org/2000/svg" width="512.001" height="441.208" fill="#fff"><path d="M463.014 37.822H48.985c-7.258 0-13.163 5.904-13.163 13.163v239.874c0 7.258 5.904 13.163 13.163 13.163h414.029c7.258.001 13.163-5.904 13.163-13.163V50.985c0-7.258-5.904-13.163-13.163-13.163zm-1.838 28.373H429.09a7.499 7.499 0 0 0-7.5 7.5 7.5 7.5 0 0 0 7.5 7.5h32.086v207.826H50.823V81.196h343.265a7.5 7.5 0 0 0 7.5-7.5c0-4.143-3.357-7.5-7.5-7.5H50.823V52.823h410.353zM263.351 314.741c-.09-.48-.24-.95-.42-1.4-.19-.46-.421-.89-.69-1.3-.28-.41-.591-.79-.94-1.14a7.635 7.635 0 0 0-3.83-2.052 7.688 7.688 0 0 0-2.939 0 7.597 7.597 0 0 0-3.83 2.052c-.351.35-.66.729-.94 1.14-.27.41-.5.84-.691 1.3-.18.45-.329.92-.42 1.4a7.26 7.26 0 0 0 0 2.93c.091.48.24.95.42 1.4.191.46.421.89.691 1.3.28.41.59.79.94 1.14.34.351.729.66 1.14.931.4.27.84.5 1.29.689.45.19.93.33 1.4.43a7.255 7.255 0 0 0 2.94 0 7.63 7.63 0 0 0 2.69-1.119c.409-.27.8-.58 1.14-.931.35-.35.66-.729.94-1.14a7.528 7.528 0 0 0 1.109-2.7 7.26 7.26 0 0 0 0-2.93z"/><path d="M479.894 0H32.106C14.402 0 0 14.402 0 32.105v24.091c0 4.143 3.357 7.5 7.5 7.5s7.5-3.357 7.5-7.5V32.105C15 22.673 22.673 15 32.105 15h447.789c9.432 0 17.105 7.673 17.105 17.105v279.634c0 9.432-7.674 17.105-17.105 17.105H32.105c-9.432 0-17.105-7.673-17.105-17.105V91.195c0-4.143-3.357-7.5-7.5-7.5a7.499 7.499 0 0 0-7.5 7.5v220.544c0 17.703 14.402 32.106 32.106 32.106h161.686l-3.768 36.963c-1.316 10.51-10.647 13.342-14.777 16.87h-11.731c-12.002 0-21.765 9.764-21.765 21.765 0 12.002 9.764 21.765 21.765 21.765h29.482c4.143 0 7.5-3.357 7.5-7.5s-3.357-7.5-7.5-7.5h-29.482a6.771 6.771 0 0 1-6.764-6.764 6.771 6.771 0 0 1 6.764-6.764h184.971a6.772 6.772 0 0 1 6.765 6.764 6.771 6.771 0 0 1-6.765 6.764H227.998a7.499 7.499 0 0 0-7.5 7.5c0 4.143 3.357 7.5 7.5 7.5h120.486c12.002 0 21.766-9.764 21.766-21.765 0-12.002-9.765-21.765-21.766-21.765h-11.73c-4.161-3.555-13.457-6.353-14.778-16.871l-3.767-36.962h161.686c17.703 0 32.106-14.402 32.106-32.106V32.105C512 14.402 497.597 0 479.894 0zM198.863 397.678c8.592-11.51 5.479-20.602 10.007-53.833h94.262c4.387 32.209 1.384 42.283 10.007 53.833H198.863z"/><path d="M149.081 238.643h-20.07c-5.98 0-10.846 4.865-10.846 10.846v20.07c0 5.979 4.865 10.846 10.846 10.846h20.07c5.98 0 10.846-4.865 10.846-10.846v-20.07c0-5.981-4.866-10.846-10.846-10.846zm-4.155 26.759h-11.76v-11.76h11.76zM242.64 238.643h-20.07c-5.979 0-10.846 4.865-10.846 10.846v20.07c0 5.979 4.865 10.846 10.846 10.846h20.07c5.98 0 10.846-4.865 10.846-10.846v-20.07c-.001-5.981-4.866-10.846-10.846-10.846zm-4.156 26.759h-11.76v-11.76h11.76zM336.198 238.643h-20.07c-5.979 0-10.846 4.865-10.846 10.846v20.07c0 5.979 4.865 10.846 10.846 10.846h20.07c5.979 0 10.846-4.865 10.846-10.846v-20.07c-.001-5.981-4.866-10.846-10.846-10.846zm-4.156 26.759h-11.76v-11.76h11.76zM195.861 238.643h-20.07c-5.979 0-10.846 4.865-10.846 10.846v20.07c0 5.979 4.865 10.846 10.846 10.846h20.07c5.98 0 10.846-4.865 10.846-10.846v-20.07c-.001-5.981-4.867-10.846-10.846-10.846zm-4.156 26.759h-11.76v-11.76h11.76zM289.419 238.643h-20.07c-5.979 0-10.846 4.865-10.846 10.846v20.07c0 5.979 4.865 10.846 10.846 10.846h20.07c5.979 0 10.846-4.865 10.846-10.846v-20.07c-.001-5.981-4.866-10.846-10.846-10.846zm-4.156 26.759h-11.76v-11.76h11.76zM382.977 238.643h-20.07c-5.979 0-10.846 4.865-10.846 10.846v20.07c0 5.979 4.865 10.846 10.846 10.846h20.07c5.979 0 10.846-4.865 10.846-10.846v-20.07c0-5.981-4.865-10.846-10.846-10.846zm-4.155 26.759h-11.76v-11.76h11.76z"/></svg>