<svg xmlns="http://www.w3.org/2000/svg" width="64" height="58" fill="#4b73cd"><path d="M3.943 41.964a3.931 3.931 0 0 0 2.858-1.23l7.38 4.217a3.948 3.948 0 0 0 3.79 5.03 3.948 3.948 0 0 0 3.944-3.943 3.933 3.933 0 0 0-1.205-2.835l10.17-17.437a3.927 3.927 0 0 0 2.936-.282l8.986 10.272a3.922 3.922 0 0 0-.718 2.264 3.948 3.948 0 0 0 3.944 3.944 3.948 3.948 0 0 0 3.944-3.944c0-1.241-.577-2.35-1.476-3.073l10.79-23.126A3.948 3.948 0 0 0 64 7.953a3.948 3.948 0 0 0-3.944-3.944 3.948 3.948 0 0 0-3.943 3.944c0 1.241.576 2.35 1.475 3.073l-10.79 23.126a3.917 3.917 0 0 0-2.586.369l-8.986-10.273a3.922 3.922 0 0 0 .718-2.264A3.948 3.948 0 0 0 32 18.04a3.948 3.948 0 0 0-3.943 3.944c0 1.112.462 2.117 1.205 2.835l-10.17 17.437a3.927 3.927 0 0 0-3.978 1.068l-7.38-4.218a3.948 3.948 0 0 0-3.79-5.03A3.948 3.948 0 0 0 0 38.02a3.948 3.948 0 0 0 3.943 3.944zm56.114-36.08c1.14 0 2.068.928 2.068 2.07 0 1.14-.928 2.068-2.068 2.068a2.071 2.071 0 0 1-2.069-2.069c0-1.14.928-2.069 2.068-2.069zM48.096 38.02c0 1.14-.928 2.069-2.069 2.069a2.071 2.071 0 0 1-2.068-2.069c0-1.14.928-2.069 2.068-2.069 1.14 0 2.069.928 2.069 2.069zM32 19.915c1.14 0 2.068.929 2.068 2.07 0 1.14-.927 2.068-2.068 2.068a2.071 2.071 0 0 1-2.068-2.069c0-1.14.927-2.069 2.068-2.069zM17.972 43.97c1.14 0 2.068.928 2.068 2.069 0 1.14-.928 2.069-2.068 2.069a2.071 2.071 0 0 1-2.069-2.07c0-1.14.928-2.068 2.069-2.068zM3.943 35.95c1.141 0 2.069.928 2.069 2.069 0 1.14-.928 2.069-2.068 2.069a2.071 2.071 0 0 1-2.069-2.069c0-1.14.928-2.069 2.069-2.069z"/><path d="M63.063 56.125h-2.069V16.973a.938.938 0 1 0-1.875 0v39.152H46.966v-11.09a.938.938 0 1 0-1.875 0v11.09H32.937V29a.938.938 0 1 0-1.874 0v27.125H18.909v-3.072a.938.938 0 1 0-1.875 0v3.072h-6.076a.938.938 0 0 0 0 1.875h52.105a.938.938 0 0 0 0-1.875zM6.95 56.125H4.881v-11.09a.938.938 0 1 0-1.875 0v11.09H.938a.938.938 0 0 0 0 1.875H6.95a.938.938 0 0 0 0-1.875zM32.005 15.907a.938.938 0 0 0 0-1.876h-.01a.933.933 0 0 0-.932.938c0 .518.424.938.942.938zM3.943 31.942a.938.938 0 0 0 0-1.875h-.01a.933.933 0 0 0-.932.937c0 .518.425.938.943.938zM60.066 1.875a.938.938 0 0 0 0-1.875h-.01a.933.933 0 0 0-.932.938c0 .518.425.937.943.937zM17.982 39.96a.938.938 0 0 0 0-1.875h-.01a.933.933 0 0 0-.933.937c0 .518.425.938.943.938z"/><path d="M46.033 31.942a.938.938 0 0 0 0-1.875h-.01a.933.933 0 0 0-.932.937c0 .518.425.938.942.938z"/></svg>