<svg xmlns="http://www.w3.org/2000/svg" width="84" height="65pt" viewBox="0 0 63 65"><g fill="#4b73cd"><path d="M58.656 56.332V6.5a2.171 2.171 0 0 0-2.172-2.168H17.38c-1.2 0-2.172.973-2.172 2.168v21.668h2.172V6.5h39.105v49.832H17.38v-8.664h-2.172v8.664c0 1.2.973 2.168 2.172 2.168h39.105c1.2 0 2.172-.969 2.172-2.168zm0 0"/><path d="M59.742 0h-45.62a3.254 3.254 0 0 0-3.259 3.25v24.918h2.172V3.25c0-.598.485-1.082 1.086-1.082h45.621c.598 0 1.086.484 1.086 1.082v58.5c0 .598-.488 1.082-1.086 1.082h-45.62a1.083 1.083 0 0 1-1.087-1.082V47.668h-2.172V61.75A3.254 3.254 0 0 0 14.121 65h45.621A3.257 3.257 0 0 0 63 61.75V3.25C63 1.457 61.54 0 59.742 0zm0 0"/><path d="M35.844 59.582h2.172v2.168h-2.172zm0 0M48.879 52c1.2 0 2.172-.969 2.172-2.168v-32.5c0-.285-.114-.562-.317-.766l-5.441-5.418a1.088 1.088 0 0 0-.77-.316H24.984A2.172 2.172 0 0 0 22.81 13v36.832c0 1.2.972 2.168 2.175 2.168zM45.62 14.54l1.719 1.71H45.62zM24.984 13H43.45v3.25c0 1.195.973 2.168 2.172 2.168h3.258v31.414H24.984zm0 0"/><path d="M29.328 16.25h4.344v2.168h-4.344zm0 0M29.328 20.582h8.688v2.168h-8.688zm0 0M29.328 27.082h15.207v2.168H29.328zm0 0M29.328 31.418h15.207v2.164H29.328zm0 0M29.328 35.75h15.207v2.168H29.328zm0 0M29.328 40.082h15.207v2.168H29.328zm0 0M4.344 30.332H19.55V32.5H4.344zm0 0M0 30.332h2.172V32.5H0zm0 0M11.95 36.832h8.687V39h-8.688zm0 0M7.602 36.832h2.175V39H7.602zm0 0M9.777 43.332h8.688V45.5H9.777zm0 0M5.43 43.332h2.172V45.5H5.43zm0 0M1.086 43.332h2.172V45.5H1.086zm0 0"/></g></svg>