<svg xmlns="http://www.w3.org/2000/svg" width="511.997" height="512.001" fill="#fff"><path d="M268.66 243.351a10 10 0 0 0-14.15 0c-3.9 3.9-3.9 10.23 0 14.14 3.91 3.9 10.24 3.9 14.15 0 3.9-3.91 3.9-10.24 0-14.14zM395.932 116.07c-19.54-19.539-51.172-19.54-70.713 0-19.49 19.49-19.49 51.21.003 70.714 19.496 19.484 51.216 19.492 70.71-.002 19.538-19.538 19.542-51.17 0-70.712zm-14.142 56.57c-11.693 11.693-30.727 11.693-42.426.001-11.695-11.702-11.696-30.736-.002-42.429 11.723-11.723 30.703-11.725 42.428 0 11.723 11.722 11.725 30.703 0 42.427z"/><path d="M509.069 2.93a9.965 9.965 0 0 0-7.43-2.923c-2.261.081-56.096 2.245-120.091 24.864-51.28 18.106-94.023 44.03-127.042 77.05a380.537 380.537 0 0 0-21.488 23.395c-32.648-19.218-58.81-13.192-75.35-4.34-38.08 20.38-61.651 75.715-61.651 115.295a10.007 10.007 0 0 0 10 10 10 10 0 0 0 7.074-2.929c20.083-20.083 44.854-18.827 52.946-17.763l3.502 3.502c-6.892 16.4-12.444 32.708-16.516 48.57-1.47 5.74-.974 11.813 1.21 17.37-9.627 4.436-18.916 10.951-27.004 19.04-25.741 25.741-30.968 88.475-31.178 91.133a10 10 0 0 0 10.755 10.756c2.658-.209 65.394-5.436 91.135-31.177 8.085-8.085 14.599-17.373 19.036-26.999 5.882 2.313 11.936 2.598 17.38 1.203 15.854-4.07 32.16-9.62 48.562-16.514l3.502 3.502c1.063 8.093 2.319 32.864-17.763 52.945a10 10 0 0 0 7.07 17.07c39.58 0 94.916-23.57 115.296-61.652 8.85-16.537 14.877-42.699-4.341-75.348a380.674 380.674 0 0 0 23.396-21.488c33.02-33.02 58.942-75.763 77.048-127.039C509.747 66.455 511.91 12.62 511.99 10.36c.1-2.775-.96-5.466-2.922-7.43zM118.375 214.761c6.212-30.063 24.255-63.052 48.735-76.154 16.359-8.754 34.24-7.896 53.252 2.511a404.33 404.33 0 0 0-42.015 68.487c-.15-.092-1.95-2.355-5.293-3.109-1.375-.31-27.834-6.002-54.68 8.265zm65.424 155.868c-13.75 13.75-46.005 21.002-66.392 23.963 2.962-20.388 10.215-52.642 23.964-66.39 7.7-7.7 16.628-13.539 25.602-16.827l33.652 33.652c-3.288 8.974-9.125 17.902-16.826 25.602zm45.59-31.027c-2.894.741-6.246-.347-8.738-2.835l-19.586-19.585-25.826-25.827c-2.494-2.499-3.582-5.85-2.843-8.739 3.203-12.474 7.392-25.272 12.486-38.193l82.695 82.695c-12.923 5.095-25.72 9.283-38.188 12.484zm144.004 5.288c-13.102 24.48-46.09 42.523-76.152 48.734 9.585-18.037 11.698-40.998 8.196-54.92-.813-3.235-2.923-4.86-3.041-5.052a404.48 404.48 0 0 0 68.486-42.015c10.407 19.014 11.264 36.897 2.51 53.253zm22.546-101.54a362.965 362.965 0 0 1-28.84 25.871c-24.342 19.6-51.134 36.202-79.718 49.418l-94.02-94.018c13.216-28.586 29.818-55.378 49.416-79.717 8.164-10.133 16.868-19.837 25.875-28.843 29.625-29.626 67.859-53.204 113.67-70.176l83.793 83.792c-16.97 45.811-40.548 84.045-70.176 113.672zm77.37-134.764l-69.895-69.896c38.08-11.828 71.21-16.257 87.746-17.849-1.593 16.54-6.023 49.668-17.85 87.745z"/><path d="M240.37 413.05c-3.907-3.906-10.24-3.904-14.143.001l-28.28 28.29c-3.904 3.906-3.903 10.238.002 14.142 3.907 3.904 10.239 3.904 14.143-.002l28.28-28.29c3.904-3.906 3.903-10.238-.002-14.142zM98.953 271.631c-3.904-3.906-10.235-3.906-14.142-.002l-28.29 28.28c-3.906 3.904-3.907 10.236-.003 14.142 3.903 3.904 10.234 3.908 14.142.002l28.29-28.28c3.906-3.904 3.907-10.236.003-14.142zM169.662 427.2c-3.903-3.905-10.236-3.905-14.142 0l-67.74 67.73c-3.906 3.904-3.906 10.236-.001 14.141 3.903 3.905 10.236 3.907 14.142.001l67.74-67.73c3.906-3.905 3.906-10.237 0-14.142zM89.662 427.2c-3.904-3.905-10.237-3.905-14.142 0L7.78 494.93c-3.906 3.904-3.906 10.236-.001 14.141 3.903 3.905 10.236 3.907 14.142.001l67.74-67.73c3.906-3.905 3.906-10.237 0-14.142zM84.8 342.338c-3.903-3.904-10.236-3.904-14.141.001l-67.73 67.74c-3.905 3.906-3.905 10.237 0 14.143 3.906 3.905 10.238 3.905 14.143 0l67.73-67.74c3.905-3.907 3.905-10.238-.001-14.144zM311.082 200.92c-3.906-3.906-10.236-3.906-14.143 0l-14.14 14.14c-3.905 3.904-3.905 10.236 0 14.142 3.906 3.905 10.237 3.905 14.143 0l14.14-14.14c3.905-3.905 3.905-10.237 0-14.143z"/></svg>