<svg xmlns="http://www.w3.org/2000/svg" width="76" height="56pt" viewBox="0 0 57 56"><g fill="#4b73cd"><path d="M53.2 0H3.8C1.708 0 0 1.734 0 3.863V35.72c0 .535.426.965.95.965h55.1c.524 0 .95-.43.95-.965V3.863C57 1.734 55.293 0 53.2 0zm1.902 34.754H1.898V3.864c0-1.067.856-1.934 1.903-1.934h49.398c1.047 0 1.903.867 1.903 1.933zm0 0"/><path d="M56.05 34.754H.95a.959.959 0 0 0-.95.965v4.828c0 2.129 1.707 3.86 3.8 3.86h49.4c2.093 0 3.8-1.731 3.8-3.86v-4.828a.959.959 0 0 0-.95-.965zm-.948 5.793c0 1.062-.856 1.93-1.903 1.93H3.801c-1.047 0-1.903-.868-1.903-1.93v-3.863h53.204zm0 0"/><path d="M31.352 38.617h-5.704c-.523 0-.949.43-.949.965 0 .531.426.965.95.965h5.703c.523 0 .949-.434.949-.965a.956.956 0 0 0-.95-.965zm0 0M52.25 3.863H4.75c-.523 0-.95.43-.95.965v30.89c0 .536.427.966.95.966h47.5c.523 0 .95-.43.95-.965V4.829a.956.956 0 0 0-.95-.966zm-.95 30.89H5.7V5.794h45.6zm0 0M40.852 50.2H16.148c-1.57 0-2.847 1.3-2.847 2.898 0 1.593 1.277 2.894 2.847 2.894h24.704c1.57 0 2.847-1.3 2.847-2.894 0-1.598-1.277-2.899-2.847-2.899zm0 3.862H16.148a.959.959 0 0 1-.949-.964c0-.535.426-.965.95-.965h24.703c.523 0 .949.43.949.965a.959.959 0 0 1-.95.965zm0 0"/><path d="M38.95 50.2c-3.153 0-4.75-2.274-4.75-6.759a.959.959 0 0 0-.95-.964h-9.5a.959.959 0 0 0-.95.964c0 4.485-1.597 6.758-4.75 6.758a.959.959 0 0 0-.948.965.96.96 0 0 0 .949.969h20.898a.96.96 0 0 0 .95-.969.959.959 0 0 0-.95-.965zm-16.274 0c1.172-1.317 1.86-3.278 2-5.794h7.652c.137 2.516.824 4.477 1.996 5.793zm0 0M45.395 28.445l-2.293-2.332 1.277-1.297a.989.989 0 0 0 .25-.918.96.96 0 0 0-.649-.687l-9.5-2.898a.943.943 0 0 0-.945.242.98.98 0 0 0-.238.96l2.851 9.653a.946.946 0 0 0 .676.66.934.934 0 0 0 .903-.254l1.343-1.367 2.293 2.332a.94.94 0 0 0 .672.285.927.927 0 0 0 .672-.285l2.688-2.73a.974.974 0 0 0 0-1.364zm-3.36 2.047l-2.086-2.12a1.228 1.228 0 0 0-1.754-.005l-.687.7-1.883-6.387 6.285 1.914-.734.746c-.203.207-.317.48-.317.773 0 .293.114.57.317.774l2.203 2.238zm0 0M39.898 7.723H13.301a.959.959 0 0 0-.95.965v4.828c0 .53.426.964.95.964h26.597a.96.96 0 0 0 .954-.964V8.687a.96.96 0 0 0-.954-.964zm-.949 4.828H14.25V9.652h24.7zm0 0M24.7 18.344h-7.598a.957.957 0 0 0-.954.965v3.859c0 .535.426.965.954.965h7.597c.524 0 .95-.43.95-.965v-3.86a.956.956 0 0 0-.95-.964zm-.95 3.86h-5.7v-1.93h5.7zm0 0"/><path d="M39.898 7.723H13.301a.959.959 0 0 0-.95.965V27.03c0 .532.426.965.95.965h22.613a.931.931 0 0 0 .762-.39.96.96 0 0 0 .148-.852l-1.199-4.074 4.004 1.218a.94.94 0 0 0 .84-.148.98.98 0 0 0 .383-.777V8.688a.96.96 0 0 0-.954-.965zm-.949 13.953l-4.472-1.363a.938.938 0 0 0-.942.242.97.97 0 0 0-.238.96l1.344 4.551H14.25V9.652h24.7zm0 0"/></g></svg>