<svg width="334" height="334" fill="none" xmlns="http://www.w3.org/2000/svg"><g filter="url(#filter0_b)"><path d="M265.041 104.043l-4.863 26.331 21.402 16.091-14.569 22.466 13.614 23.057-22.057 15.18 3.755 26.512-26.188 5.583-6.677 25.931-26.331-4.863-16.091 21.402-22.466-14.57-23.057 13.615-15.18-22.058-26.512 3.755-5.584-26.188-25.93-6.676 4.863-26.331-21.402-16.092 14.57-22.466-13.615-23.056 22.058-15.181-3.755-26.511 26.188-5.584 6.676-25.93 26.331 4.863 16.092-21.402 22.465 14.57 23.057-13.615 15.18 22.057 26.512-3.755 5.584 26.188 25.93 6.677z" fill="url(#paint0_linear)"/><path d="M259.781 130.3l-.045.246.2.15 21.101 15.866-14.365 22.149-.136.21.127.215 13.423 22.733-21.747 14.966-.206.142.035.248 3.702 26.139-25.819 5.505-.245.052-.062.242-6.583 25.566-25.961-4.795-.245-.045-.151.199-15.865 21.101-22.149-14.364-.21-.136-.215.127-22.733 13.423-14.967-21.748-.141-.205-.248.035-26.139 3.702-5.505-25.82-.052-.244-.242-.063-25.566-6.582 4.795-25.961.045-.246-.2-.15-21.1-15.865 14.364-22.15.136-.21-.127-.215-13.423-22.732 21.747-14.967.206-.142-.035-.247-3.702-26.139 25.82-5.505.244-.052.062-.242 6.583-25.566 25.961 4.794.246.046.15-.2 15.865-21.1 22.15 14.364.21.136.215-.127 22.732-13.423 14.967 21.747.142.206.247-.035 26.139-3.702 5.505 25.82.052.244.242.062 25.566 6.583-4.795 25.96z" stroke="#D6D6D6" stroke-opacity=".2" stroke-width=".807"/></g><path d="M123.452 186.006l12.987 22.494 11.272-6.508-20.96-36.303-8.88 5.127c.538 4.764-.784 9.236-6.804 13.232l3.944 6.831 8.441-4.873zm56.871-39.015c-1.944-3.367-6.98-9.047-26.254 2.08l-2.147 1.24c-19.323 11.156-16.971 18.386-15.027 21.752l.282.488c2.705 4.685 8.371 4.471 11.853 3.176-3.258 2.922-6.421 8.262-3.688 12.995l.366.634c2.338 4.05 8.298 9.978 27.962-1.376l2.147-1.239c19.274-11.128 17.462-19.45 15.124-23.5l-.366-.634c-2.818-4.88-8.926-4.867-13.049-3.332 2.653-2.052 5.783-7.112 3.078-11.796l-.281-.488zm-11.168 7.814c.817 1.415 1.345 3.907-7.926 9.26-9.173 5.296-11.117 3.621-11.934 2.206l-.084-.147c-.789-1.366-1.436-3.725 7.933-9.134 9.32-5.381 11.137-3.698 11.926-2.332l.085.147zm9.681 14.514c.901 1.561 1.319 4.313-8.733 10.116-9.954 5.747-12.177 4.038-13.079 2.477l-.084-.147c-.986-1.708-1.381-4.082 8.768-9.942 10.052-5.803 12.057-4.358 13.043-2.65l.085.146z" fill="#05F"/><path opacity=".5" d="M219.786 144.829l-3.887-6.734-9.271 5.353-4.958-8.588-8.198 4.733 4.958 8.588-9.222 5.324 3.888 6.734 9.222-5.324 4.958 8.587 8.198-4.732-4.959-8.588 9.271-5.353z" fill="#05F"/><defs><linearGradient id="paint0_linear" x1="278.464" y1="125.073" x2="53.801" y2="206.885" gradientUnits="userSpaceOnUse"><stop stop-color="#3A98EF" stop-opacity=".36"/><stop offset="1" stop-color="#3A98EF" stop-opacity=".1"/></linearGradient><filter id="filter0_b" x="-10.625" y="-10.473" width="354.599" height="354.599" filterUnits="userSpaceOnUse" color-interpolation-filters="sRGB"><feFlood flood-opacity="0" result="BackgroundImageFix"/><feGaussianBlur in="BackgroundImage" stdDeviation="8.074"/><feComposite in2="SourceAlpha" operator="in" result="effect1_backgroundBlur"/><feBlend in="SourceGraphic" in2="effect1_backgroundBlur" result="shape"/></filter></defs></svg>