<svg width="44" height="52" fill="none" xmlns="http://www.w3.org/2000/svg"><ellipse cx="22" cy="11" rx="20" ry="9" stroke="#2CCAF5" stroke-width="3" stroke-linecap="round" stroke-linejoin="round"/><path d="M3 14v9.2c-.6.9-1 1.8-1 2.8 0 1 .4 1.9 1 2.8v9.4c-.6.9-1 1.8-1 2.8 0 5 9 9 20 9s20-4 20-9c0-1-.4-1.9-1-2.8v-9.4c.6-.9 1-1.8 1-2.8 0-1-.4-1.9-1-2.8V14" stroke="#2CCAF5" stroke-width="3" stroke-linecap="round" stroke-linejoin="round"/><ellipse cx="13.5" cy="10.5" rx="3.5" ry="1.5" fill="#2CCAF5"/><path clip-rule="evenodd" d="M22 41c-3.3 0-6-2.5-6-5.6 0-3.7 6-10.4 6-10.4s6 6.7 6 10.4c0 3.1-2.7 5.6-6 5.6z" stroke="#2CCAF5" stroke-width="3" stroke-linecap="round" stroke-linejoin="round"/><path d="M2 26c0 3.4 4.1 6.3 10.2 7.8M31.8 33.8C37.9 32.3 42 29.4 42 26" stroke="#2CCAF5" stroke-width="3" stroke-linecap="round" stroke-linejoin="round"/><path d="M18.7 35.3c0 1 .4 2.4 2 3.1-.2-.6-.6-1.9-.6-2.6 0-2.1 1.5-5.3 1.6-6.4-1.1 2.1-3 4.4-3 5.9z" fill="#2CCAF5"/></svg>