<svg width="52" height="40" fill="none" xmlns="http://www.w3.org/2000/svg"><path d="M44 24.5h4.154v-3H44v3zm4.154 0a3.355 3.355 0 003.346-3.357h-3a.355.355 0 01-.346.357v3zm3.346-3.357v-3.714h-3v3.714h3zm0-3.714c0-1.288-.607-3.489-2.225-5.381-1.68-1.965-4.407-3.548-8.506-3.548v3c3.236 0 5.124 1.21 6.226 2.498 1.164 1.36 1.505 2.874 1.505 3.431h3zM40.769 8.5H6.374h-.006-.002L6.364 10v1.5H40.77v-3zm-34.404 0c-1.025 0-1.879.618-2.427 1.112-.61.549-1.176 1.251-1.65 1.94-.478.694-.9 1.427-1.207 2.072a8.573 8.573 0 00-.387.936C.607 14.819.5 15.19.5 15.57h3c0 .124-.025.131.037-.055.05-.149.133-.352.252-.6.236-.496.577-1.092.97-1.663.398-.577.813-1.075 1.186-1.411.435-.392.566-.342.42-.342v-3zM.5 15.571v5.571h3v-5.571h-3zm0 5.571A3.355 3.355 0 003.846 24.5v-3a.355.355 0 01-.346-.358h-3zM3.846 24.5H9v-3H3.846v3zM17 24.5h19v-3H17v3z" fill="#2CCAF5"/><path d="M35 33H18M41 10c-2.666 0-9.417-8-15-8H15.505C10.062 2 5.148 9.777 3.453 12.503M21 2v8" stroke="#2CCAF5" stroke-width="3"/><circle cx="40" cy="33" r="5" stroke="#2CCAF5" stroke-width="3"/><path d="M35 23a5 5 0 015-5 5 5 0 015 5M8 23a5 5 0 015-5 5 5 0 015 5" stroke="#2CCAF5" stroke-width="3"/><circle cx="13" cy="33" r="5" stroke="#2CCAF5" stroke-width="3"/><circle cx="26" cy="33" r="3" fill="#2CCAF5"/></svg>