<svg width="52" height="52" fill="none" xmlns="http://www.w3.org/2000/svg"><path clip-rule="evenodd" d="M37 9a6 6 0 00-6 6c0 .879.194 1.712.534 2.464l-14.07 14.07A5.965 5.965 0 0015 31a6 6 0 106 6c0-.879-.194-1.712-.534-2.465l14.069-14.069c.753.34 1.586.534 2.465.534a6 6 0 100-12z" stroke="#2CCAF5" stroke-width="3" stroke-linecap="round" stroke-linejoin="round"/><path d="M39.444 42.482a6 6 0 113.029-3.02M20.462 12.513a6 6 0 11-3.014-2.992" stroke="#2CCAF5" stroke-width="3" stroke-linecap="round" stroke-linejoin="round"/><path d="M17.468 9.53l7.553-7.553H4.022a2 2 0 00-2 2v44a2 2 0 002 2H47.02l-7.523-7.523" stroke="#2CCAF5" stroke-width="3" stroke-linecap="round" stroke-linejoin="round"/><path d="M42.476 39.43l7.546 7.546V3.978a2 2 0 00-2-2H31.024L20.47 12.532" stroke="#2CCAF5" stroke-width="3" stroke-linecap="round" stroke-linejoin="round"/><circle cx="37" cy="37" r="2" fill="#2CCAF5"/><circle cx="15" cy="37" r="2" fill="#2CCAF5"/><circle cx="37" cy="15" r="2" fill="#2CCAF5"/><circle cx="15" cy="15" r="2" fill="#2CCAF5"/></svg>