<svg width="52" height="52" fill="none" xmlns="http://www.w3.org/2000/svg"><path d="M44.572 28.981l4.34 7.205c2.539 4.298.47 7.814-4.597 7.814H34.15M16.404 13.66l4.98-8.442c2.54-4.296 6.693-4.296 9.232 0l6.141 10.397M19.001 44H7.685c-5.068 0-7.136-3.516-4.597-7.813l5.503-9.315" stroke="#2CCAF5" stroke-width="3" stroke-linecap="round" stroke-linejoin="round"/><path clip-rule="evenodd" d="M34.001 50V37.999L24 44l10.001 6z" stroke="#2CCAF5" stroke-width="3" stroke-linecap="round" stroke-linejoin="round"/><path clip-rule="evenodd" d="M34.001 50V37.999L24 44l10.001 6zM41.964 24.748v-12l-10.001 6 10 6zM13.853 29.936v-12l-10 6 10 6z" stroke="#2CCAF5" stroke-width="3" stroke-linecap="round" stroke-linejoin="round"/></svg>