<svg width="52" height="50" fill="none" xmlns="http://www.w3.org/2000/svg"><path d="M28 2l12 39 10-2" stroke="#2CCAF5" stroke-width="3" stroke-linecap="round" stroke-linejoin="round"/><path d="M27 27L21 9H6v15" stroke="#2CCAF5" stroke-width="2.97" stroke-linecap="round" stroke-linejoin="round"/><path clip-rule="evenodd" d="M28 32c-4.416 0-8 3.584-8 8s3.584 8 8 8 8-3.584 8-8-3.584-8-8-8v0zM8 38c-2.76 0-5 2.241-5 5s2.24 5 5 5 5-2.241 5-5-2.24-5-5-5v0z" stroke="#2CCAF5" stroke-width="3" stroke-linecap="round" stroke-linejoin="round"/><path d="M31 32.404V29.7c0-1.047-.846-1.9-1.882-1.9h-8.299l-1.882-1.9c-.794-.95-1.558-1.9-2.764-1.9H3.882A1.894 1.894 0 002 25.9v15.5c0 .495.199.939.509 1.277M13 43h7" stroke="#2CCAF5" stroke-width="3.049" stroke-linecap="round" stroke-linejoin="round"/></svg>