<svg width="50" height="52" fill="none" xmlns="http://www.w3.org/2000/svg"><path d="M12 2v2" stroke="#2CCAF5" stroke-width="3" stroke-linecap="round" stroke-linejoin="round"/><path d="M12 4v3" stroke="#2CCAF5" stroke-width="3" stroke-linejoin="round"/><path d="M36 2v2" stroke="#2CCAF5" stroke-width="3" stroke-linecap="round" stroke-linejoin="round"/><path d="M36 4v3" stroke="#2CCAF5" stroke-width="3" stroke-linejoin="round"/><path d="M30 2v2" stroke="#2CCAF5" stroke-width="3" stroke-linecap="round" stroke-linejoin="round"/><path d="M30 4v3" stroke="#2CCAF5" stroke-width="3" stroke-linejoin="round"/><path d="M24 2v2" stroke="#2CCAF5" stroke-width="3" stroke-linecap="round" stroke-linejoin="round"/><path d="M24 4v3" stroke="#2CCAF5" stroke-width="3" stroke-linejoin="round"/><path d="M18 2v2" stroke="#2CCAF5" stroke-width="3" stroke-linecap="round" stroke-linejoin="round"/><path d="M18 4v3" stroke="#2CCAF5" stroke-width="3" stroke-linejoin="round"/><path d="M48 14h-2" stroke="#2CCAF5" stroke-width="3" stroke-linecap="round" stroke-linejoin="round"/><path d="M46 14h-3" stroke="#2CCAF5" stroke-width="3" stroke-linejoin="round"/><path d="M48 38h-2" stroke="#2CCAF5" stroke-width="3" stroke-linecap="round" stroke-linejoin="round"/><path d="M46 38h-3" stroke="#2CCAF5" stroke-width="3" stroke-linejoin="round"/><path d="M48 32h-2" stroke="#2CCAF5" stroke-width="3" stroke-linecap="round" stroke-linejoin="round"/><path d="M46 32h-3" stroke="#2CCAF5" stroke-width="3" stroke-linejoin="round"/><path d="M48 26h-2" stroke="#2CCAF5" stroke-width="3" stroke-linecap="round" stroke-linejoin="round"/><path d="M46 26h-3" stroke="#2CCAF5" stroke-width="3" stroke-linejoin="round"/><path d="M48 20h-2" stroke="#2CCAF5" stroke-width="3" stroke-linecap="round" stroke-linejoin="round"/><path d="M46 20h-3" stroke="#2CCAF5" stroke-width="3" stroke-linejoin="round"/><path d="M36 50v-2" stroke="#2CCAF5" stroke-width="3" stroke-linecap="round" stroke-linejoin="round"/><path d="M36 48v-3" stroke="#2CCAF5" stroke-width="3" stroke-linejoin="round"/><path d="M12 50v-2" stroke="#2CCAF5" stroke-width="3" stroke-linecap="round" stroke-linejoin="round"/><path d="M12 48v-3" stroke="#2CCAF5" stroke-width="3" stroke-linejoin="round"/><path d="M18 50v-2" stroke="#2CCAF5" stroke-width="3" stroke-linecap="round" stroke-linejoin="round"/><path d="M18 48v-3" stroke="#2CCAF5" stroke-width="3" stroke-linejoin="round"/><path d="M24 50v-2" stroke="#2CCAF5" stroke-width="3" stroke-linecap="round" stroke-linejoin="round"/><path d="M24 48v-3" stroke="#2CCAF5" stroke-width="3" stroke-linejoin="round"/><path d="M30 50v-2" stroke="#2CCAF5" stroke-width="3" stroke-linecap="round" stroke-linejoin="round"/><path d="M30 48v-3" stroke="#2CCAF5" stroke-width="3" stroke-linejoin="round"/><path d="M0 38h2" stroke="#2CCAF5" stroke-width="3" stroke-linecap="round" stroke-linejoin="round"/><path d="M2 38h3" stroke="#2CCAF5" stroke-width="3" stroke-linejoin="round"/><path d="M0 14h2" stroke="#2CCAF5" stroke-width="3" stroke-linecap="round" stroke-linejoin="round"/><path d="M2 14h3" stroke="#2CCAF5" stroke-width="3" stroke-linejoin="round"/><path d="M0 20h2" stroke="#2CCAF5" stroke-width="3" stroke-linecap="round" stroke-linejoin="round"/><path d="M2 20h3" stroke="#2CCAF5" stroke-width="3" stroke-linejoin="round"/><path d="M0 26h2" stroke="#2CCAF5" stroke-width="3" stroke-linecap="round" stroke-linejoin="round"/><path d="M2 26h3" stroke="#2CCAF5" stroke-width="3" stroke-linejoin="round"/><path d="M0 32h2" stroke="#2CCAF5" stroke-width="3" stroke-linecap="round" stroke-linejoin="round"/><path d="M2 32h3" stroke="#2CCAF5" stroke-width="3" stroke-linejoin="round"/><path clip-rule="evenodd" d="M38.734 9H9.266A2.265 2.265 0 007 11.266v29.468A2.265 2.265 0 009.266 43h29.468A2.265 2.265 0 0041 40.734V11.266A2.265 2.265 0 0038.734 9z" stroke="#2CCAF5" stroke-width="3" stroke-linecap="round" stroke-linejoin="round"/><path stroke="#2CCAF5" stroke-width="3" stroke-linecap="round" stroke-linejoin="round" d="M15 19h18v14H15z"/></svg>