<svg width="52" height="52" fill="none" xmlns="http://www.w3.org/2000/svg"><circle cx="8.5" cy="26.5" r="4.5" stroke="#2CCAF5" stroke-width="3" stroke-linecap="round" stroke-linejoin="round"/><path clip-rule="evenodd" d="M3.2 9.1L24.3 2l3.5 10.6-6.7 2.2-14.3 4.9L3.2 9.1z" stroke="#2CCAF5" stroke-width="3" stroke-linecap="round" stroke-linejoin="round"/><path d="M18.1 17.7l1.7 4.5" stroke="#2CCAF5" stroke-width="3" stroke-linejoin="round"/><path d="M15 50V37.1l4.2-3.3c.5-.4.9-1.1 1-1.6l1.7-8c.2-1-.4-2-1.4-2.2-1-.2-2 .4-2.2 1.4l-1.5 7.2-4.8 2.3H5.7c-1.3.1-3.7.5-3.7 3.8V50M25.8 13.2l-1.6 4.9 21 7 3.6-10.5-20.7-6.9-.8 3" stroke="#2CCAF5" stroke-width="3" stroke-linecap="round" stroke-linejoin="round"/><circle cx="43.5" cy="32.5" r="4.5" stroke="#2CCAF5" stroke-width="3" stroke-linecap="round" stroke-linejoin="round"/><path d="M33.9 23.7l-1.7 4.5" stroke="#2CCAF5" stroke-width="3" stroke-linejoin="round"/><path d="M37 50v-6.9l-4.2-3.3c-.5-.4-.9-1.1-1-1.6l-1.7-8c-.2-1 .4-2 1.4-2.2 1-.2 2 .4 2.2 1.4l1.5 7.2 4.8 2.3h6.3c1.3 0 3.7.4 3.7 3.7V50" stroke="#2CCAF5" stroke-width="3" stroke-linecap="round" stroke-linejoin="round"/></svg>