<svg width="43" height="52" fill="none" xmlns="http://www.w3.org/2000/svg"><path d="M20.677 49.987L19.27 30.531M14.461 36.219l-1.159 13.768" stroke="#2CCAF5" stroke-width="3" stroke-linecap="round" stroke-linejoin="round"/><path clip-rule="evenodd" d="M17 17.692c1.327 0 2.558.402 3.584 1.087C15.496 8.418 9.756 1.266 7.214 2.409c-2.546 1.147-.99 10.21 3.408 20.912.413-3.171 3.094-5.63 6.378-5.63zM20.918 19.046c1.537 1.18 2.544 3.018 2.544 5.108 0 2.553-1.491 4.736-3.637 5.787 11.538.777 20.621-.617 20.901-3.395.28-2.776-8.346-5.957-19.808-7.5zM17 30.615a6.46 6.46 0 01-6.462-6.462c0-.155.034-.297.045-.449C4.14 33.306.799 41.87 3.065 43.502c2.26 1.63 9.31-4.235 16.367-13.368a6.45 6.45 0 01-2.432.481z" stroke="#2CCAF5" stroke-width="3" stroke-linecap="round" stroke-linejoin="round"/></svg>