<svg width="24" height="24" fill="none" xmlns="http://www.w3.org/2000/svg"><g clip-path="url(#clip0_67_4359)"><rect x="-.001" width="24.001" height="24" rx="12" fill="#5B5CE2"/><path d="M-1 11a1 1 0 100 2v-2zm16 1l.707.707a1 1 0 000-1.414l-.708.707zm-4.293-5.707a1 1 0 10-1.415 1.414l1.415-1.414zm-1.415 10a1 1 0 101.415 1.414l-1.415-1.414zM-1 13h16v-2H-1v2zM9.292 7.707l5 5 1.415-1.414-5-5-1.415 1.414zm5 3.586l-5 5 1.415 1.414 5-5-1.415-1.414z" fill="#fff"/></g><defs><clipPath id="clip0_67_4359"><rect x="-.001" width="24.001" height="24" rx="12" fill="#fff"/></clipPath></defs></svg>