<svg width="62" height="62" fill="none" xmlns="http://www.w3.org/2000/svg"><circle cx="31" cy="31" r="30.5" fill="#fff" stroke="#DCDCDC"/><path fill-rule="evenodd" clip-rule="evenodd" d="M37.5 15a1 1 0 1 0-2 0v2h-10v-2a1 1 0 1 0-2 0v2H20c-2.243 0-4 1.875-4 4.111V42.89C16 45.125 17.757 47 20 47h21c2.243 0 4-1.875 4-4.111V21.11C45 18.875 43.243 17 41 17h-3.5v-2zM43 26v-4.889c0-1.2-.93-2.111-2-2.111h-3.5v2a1 1 0 1 1-2 0v-2h-10v2a1 1 0 1 1-2 0v-2H20c-1.07 0-2 .91-2 2.111V26h25zm-25 2h25v14.889c0 1.2-.93 2.111-2 2.111H20c-1.07 0-2-.91-2-2.111V28z" fill="url(#paint0_linear)"/><defs><linearGradient id="paint0_linear" x1="30.5" y1="14" x2="30.5" y2="41.261" gradientUnits="userSpaceOnUse"><stop stop-color="#FFC650"/><stop offset=".61" stop-color="#FFBD34"/><stop offset="1" stop-color="#FFA234"/></linearGradient></defs></svg>