<svg width="62" height="62" fill="none" xmlns="http://www.w3.org/2000/svg"><circle cx="31" cy="31" r="30.5" fill="#fff" stroke="#DCDCDC"/><path d="M27.852 17.62v13.47h5.714c2.364 0 4.19-.602 5.479-1.805 1.289-1.203 1.933-2.85 1.933-4.941 0-2.091-.644-3.731-1.933-4.92-1.29-1.203-3.115-1.805-5.479-1.805h-5.714zm9.13 22.837h-9.13V46H24.93v-5.543h-4.297V38.18h4.297v-4.512h-4.297V31.09h4.297V14.998h9.324c2.922 0 5.27.874 7.047 2.621 1.79 1.733 2.685 3.975 2.685 6.725 0 2.764-.895 5.013-2.685 6.746-1.776 1.719-4.132 2.578-7.069 2.578h-6.38v4.512h9.13v2.277z" fill="url(#paint0_linear)"/><defs><linearGradient id="paint0_linear" x1="32.5" y1="4" x2="32.5" y2="47.783" gradientUnits="userSpaceOnUse"><stop stop-color="#FFC650"/><stop offset=".61" stop-color="#FFBD34"/><stop offset="1" stop-color="#FFA234"/></linearGradient></defs></svg>