<svg width="62" height="62" fill="none" xmlns="http://www.w3.org/2000/svg"><circle cx="31" cy="31" r="30.5" fill="#fff" stroke="#DCDCDC"/><path fill-rule="evenodd" clip-rule="evenodd" d="M23.2 13a4.2 4.2 0 0 0-4.2 4.2v25.6a4.2 4.2 0 0 0 4.2 4.2h19.2a4.2 4.2 0 0 0 4.2-4.2V25.207 25.2a.997.997 0 0 0-.297-.711L35.111 13.297A.997.997 0 0 0 34.4 13H23.2zm10.2 2H23.2a2.2 2.2 0 0 0-2.2 2.2v25.6a2.2 2.2 0 0 0 2.2 2.2h19.2a2.2 2.2 0 0 0 2.2-2.2V26.2H34.4a1 1 0 0 1-1-1V15zm9.786 9.2L35.4 16.414V24.2h7.786z" fill="url(#paint0_linear)"/><defs><linearGradient id="paint0_linear" x1="32.8" y1="13" x2="32.8" y2="41.087" gradientUnits="userSpaceOnUse"><stop stop-color="#FFC650"/><stop offset=".61" stop-color="#FFBD34"/><stop offset="1" stop-color="#FFA234"/></linearGradient></defs></svg>