<svg width="330" height="263" fill="none" xmlns="http://www.w3.org/2000/svg"><path d="M130.5 262.5H81V249h49.5v13.5zM50.5 222.5H1V209h49.5v13.5zM1 222.5l80 40M1 209l80 40M50.5 209l80 40M50.5 222.5l80 40M180.5 212.5H131V199h49.5v13.5zM100.5 172.5H51V159h49.5v13.5zM51 172.5l80 40M51 159l80 40M100.5 159l80 40M100.5 172.5l80 40M230.5 162.5H181V149h49.5v13.5zM150.5 122.5H101V109h49.5v13.5zM101 122.5l80 40M101 109l80 40M150.5 109l80 40M150.5 122.5l80 40M280.5 112.5H231V99h49.5v13.5zM200.5 72.5H151V59h49.5v13.5zM151 72.5l80 40M151 59l80 40M200.5 59l80 40M200.5 72.5l80 40M329.5 54.5H280V41h49.5v13.5zM249.5 14.5H200V1h49.5v13.5zM200 14.5l80 40M200 1l80 40M249.5 1l80 40M249.5 14.5l80 40" stroke="#000"/></svg>