<svg width="60" height="60" fill="none" xmlns="http://www.w3.org/2000/svg"><path d="M33.789 8.211a.947.947 0 0 1-.822-1.417l3.6-6.315a.947.947 0 1 1 1.645.939l-3.6 6.315a.946.946 0 0 1-.823.478zM27.473 8.211a.947.947 0 0 1-.88-1.299L29.12.597a.947.947 0 1 1 1.759.703l-2.526 6.316a.947.947 0 0 1-.88.595z" fill="#fff"/><path d="M30 60c-12.207 0-20.77-1.839-25.805-3.38C1.457 55.78 0 50.739 0 47.42c0-.728.07-1.362.21-1.888l.303-2.624a.948.948 0 0 1 1.882.218l-.311 2.695c-.007.051-.017.1-.03.15-.104.367-.16.868-.16 1.449 0 3.226 1.442 6.953 2.856 7.386 4.91 1.505 13.278 3.298 25.25 3.298 11.971 0 20.339-1.793 25.25-3.298 1.414-.433 2.855-4.161 2.855-7.387 0-.58-.055-1.08-.16-1.448a1.011 1.011 0 0 1-.03-.15l-.344-2.97a.948.948 0 0 1 1.883-.218l.335 2.898c.14.527.21 1.161.21 1.888 0 3.318-1.458 8.36-4.195 9.2C50.77 58.16 42.206 60 30 60z" fill="#20A1E5"/><path d="M32.989 45.946a.947.947 0 0 1-.113-1.888c.367-.044.737-.098 1.11-.165 1.506-.269 2.747-1.433 3.163-2.965.215-.795.43-1.479.627-2.102.435-1.38.75-2.378.75-3.601 0-3.014-2.869-4.542-8.526-4.542-5.658 0-8.526 1.528-8.526 4.542 0 1.592.33 2.575.789 3.936.178.527.369 1.094.559 1.751.203.7.586 1.336 1.109 1.838a.947.947 0 1 1-1.313 1.366 6.045 6.045 0 0 1-1.615-2.676c-.182-.628-.366-1.17-.535-1.674-.477-1.416-.89-2.638-.89-4.541 0-2.937 1.809-6.437 10.422-6.437 8.613 0 10.42 3.5 10.42 6.437 0 1.515-.37 2.687-.837 4.171-.19.6-.398 1.26-.605 2.028-.607 2.236-2.436 3.938-4.66 4.334-.408.073-.814.133-1.215.182a1.051 1.051 0 0 1-.114.006z" fill="#fff"/><path d="M11.157 43.995h-.008a27.116 27.116 0 0 1-4.461-.415c-2.219-.392-4.006-1.988-4.666-4.168-.62-2.045-1.39-4.591-1.39-7.048 0-4.18 2.275-7.1 5.531-7.1 2.015 0 4.095.624 4.89.89.795-.266 2.875-.89 4.89-.89 3.256 0 5.53 2.92 5.53 7.1 0 1.869-.641 4.303-1.3 6.637a.947.947 0 1 1-1.823-.514c.622-2.206 1.229-4.496 1.229-6.123 0-2.591-1.124-5.206-3.636-5.206-2.157 0-4.534.878-4.558.888a.96.96 0 0 1-.664 0c-.024-.01-2.401-.888-4.558-.888-2.512 0-3.636 2.615-3.636 5.206 0 2.177.725 4.574 1.308 6.5.452 1.491 1.671 2.584 3.182 2.85 1.39.244 2.785.374 4.148.386a.948.948 0 0 1-.008 1.895zM49.05 43.995h-.007a27.114 27.114 0 0 1-4.462-.415c-2.218-.392-4.006-1.988-4.666-4.168-.619-2.045-1.39-4.591-1.39-7.048 0-4.18 2.275-7.1 5.532-7.1 2.015 0 4.094.624 4.89.89.795-.266 2.874-.89 4.89-.89 3.256 0 5.53 2.92 5.53 7.1 0 1.869-.642 4.303-1.3 6.637a.947.947 0 1 1-1.823-.514c.622-2.206 1.229-4.496 1.229-6.123 0-2.591-1.125-5.206-3.637-5.206-2.156 0-4.533.878-4.557.888a.96.96 0 0 1-.664 0c-.024-.01-2.402-.888-4.558-.888-2.512 0-3.636 2.615-3.636 5.206 0 2.177.725 4.574 1.308 6.5.452 1.491 1.67 2.584 3.181 2.85 1.39.244 2.786.374 4.15.386a.948.948 0 0 1-.01 1.895zM29.69 25.897c-1.364 0-2.703-.116-4.009-.349-2.224-.396-4.053-2.098-4.659-4.334-.676-2.496-1.443-5.324-1.443-7.462 0-4.378 2.274-7.435 5.53-7.435 1.988 0 4.027.79 4.89 1.167.864-.378 2.903-1.167 4.89-1.167 1.935 0 3.548 1.054 4.542 2.968a.947.947 0 1 1-1.681.874c-.462-.888-1.332-1.947-2.86-1.947-2.116 0-4.443 1.151-4.467 1.163a.952.952 0 0 1-.846 0c-.023-.011-2.363-1.163-4.467-1.163-2.499 0-3.636 2.872-3.636 5.54 0 1.886.731 4.585 1.376 6.966.416 1.532 1.657 2.696 3.163 2.965 2.548.453 5.244.423 8.009-.088 1.51-.281 2.72-1.389 3.156-2.892.315-1.092.674-2.328.934-3.535a.947.947 0 1 1 1.851.4c-.273 1.27-.641 2.54-.966 3.662-.636 2.195-2.41 3.815-4.63 4.227-1.582.293-3.146.44-4.678.44z" fill="#fff"/><path d="M27.474 10.737a.947.947 0 0 1-.425-1.794l2.527-1.264a.949.949 0 0 1 .847 1.695l-2.526 1.263a.941.941 0 0 1-.423.1zM30 38.526a.948.948 0 0 1-.948-.947V24.948a.948.948 0 0 1 1.895 0v12.631a.947.947 0 0 1-.947.947z" fill="#fff"/><path d="M30 39.681a.947.947 0 0 1-.789-.422l-2.526-3.789a.947.947 0 1 1 1.576-1.05L30 37.025l1.738-2.607a.947.947 0 1 1 1.576 1.05l-2.526 3.79a.947.947 0 0 1-.787.422zM34.96 18.738c-1.235 0-2.203-.98-2.203-2.228 0-.758.373-1.43 1.024-1.846l1.255-.801a7.812 7.812 0 0 0 1.729-1.5L41.605.94a.948.948 0 0 1 1.745.738l-4.897 11.555a.947.947 0 0 1-.142.234 9.717 9.717 0 0 1-2.254 1.992l-1.256.802c-.101.065-.149.143-.149.248 0 .093.056.334.309.334l1.125-.07c2.391-.152 4.42-1.054 5.879-2.611L49.183.505a.946.946 0 1 1 1.675.886l-7.276 13.766a.925.925 0 0 1-.136.194c-1.801 1.981-4.305 3.126-7.24 3.312l-1.094.07a5.45 5.45 0 0 1-.151.005z" fill="#fff"/></svg>