<svg width="60" height="60" fill="none" xmlns="http://www.w3.org/2000/svg"><g clip-path="url(#clip0)"><path d="M56.526 24.785a.948.948 0 0 1-.947-.947v-4.796a.948.948 0 0 1 1.895 0v4.796a.948.948 0 0 1-.947.947zM56.526 33.883a.948.948 0 0 1-.947-.948v-3.513a.948.948 0 0 1 1.895 0v3.513a.948.948 0 0 1-.947.947zM37.58 50.548a.948.948 0 0 1-.948-.947v-5.535a.948.948 0 0 1 1.895 0V49.6a.948.948 0 0 1-.948.947zM51.474 38.468a.948.948 0 0 1-.947-.948v-7.427h-12v1.58a.948.948 0 0 1-1.895 0v-2.527c0-.523.424-.947.947-.947h13.895c.523 0 .947.424.947.947v8.374a.948.948 0 0 1-.947.948zM51.474 57.88h-8.077a.948.948 0 0 1 0-1.895h7.13v-.315a.948.948 0 0 1 1.894 0v1.263a.948.948 0 0 1-.947.947zM39.474 59.143H18a.948.948 0 0 1-.947-.947c0-3.308 2.691-6 6-6h11.368c3.309 0 6 2.692 6 6a.948.948 0 0 1-.947.947zm-20.416-1.895h19.358a4.112 4.112 0 0 0-3.994-3.157H23.053a4.112 4.112 0 0 0-3.995 3.157zM33.158 45.881a.948.948 0 0 1-.947-.947v-3.473h-6.948v3.473a.948.948 0 0 1-1.894 0v-4.42c0-.524.424-.948.947-.948h8.842c.523 0 .947.424.947.947v4.421a.948.948 0 0 1-.947.947z" fill="#fff"/><path d="M52.806 54.09a3.427 3.427 0 0 1-2.859-1.53l-5.632-8.455c-.989-1.646-2.753-2.644-4.628-2.644h-17.86a9.83 9.83 0 0 1-7.137-3.088L4.924 27.974a3.583 3.583 0 0 1-.96-2.668.935.935 0 0 1 1.006-.885.947.947 0 0 1 .885 1.005c-.028.46.136.916.45 1.252l9.767 10.398a7.927 7.927 0 0 0 5.755 2.49h17.86a7.3 7.3 0 0 1 6.229 3.526l5.608 8.417c.597.896 2.085.845 2.62-.089a1.524 1.524 0 0 0-.01-1.545l-4.824-8.188c-2-3.557-4.771-5.279-8.477-5.279H23.25a5.96 5.96 0 0 1-4.242-1.757l-10.302-10.3a1.666 1.666 0 0 0-.585-.381.947.947 0 1 1 .675-1.77c.47.18.89.452 1.25.81l10.301 10.302a4.133 4.133 0 0 0 2.903 1.202h17.582c4.39 0 7.795 2.096 10.12 6.228l4.813 8.172a3.398 3.398 0 0 1 .023 3.446 3.398 3.398 0 0 1-2.983 1.73z" fill="#20A1E5"/><path d="M37.227 13.396a.947.947 0 0 1-.67-.278L25.414 1.976a.947.947 0 0 1 0-1.34c2.255-2.253 7.444-2.105 11.017 1.467 3.572 3.572 3.72 8.761 1.466 11.015a.949.949 0 0 1-.67.278zM27.549 1.432l9.553 9.552c.878-1.879.322-5.209-2.01-7.542C32.76 1.11 29.43.556 27.548 1.432z" fill="#fff"/><path d="M46.421 25.041a.948.948 0 0 1-.947-.947V4.59a2.845 2.845 0 0 0-2.842-2.841h-3.423l-2.391 2.176a.947.947 0 1 1-1.275-1.401L38.205.1a.95.95 0 0 1 .637-.247h3.79a4.742 4.742 0 0 1 4.736 4.736v19.504a.947.947 0 0 1-.947.947zM31.895 54.09H25.58a.948.948 0 0 1-.947-.947v-4.42a4.11 4.11 0 0 1 4.105-4.105 4.11 4.11 0 0 1 4.105 4.105v4.42a.948.948 0 0 1-.947.948zm-5.369-1.894h4.422v-3.473c0-1.219-.992-2.21-2.21-2.21-1.22 0-2.212.991-2.212 2.21v3.473z" fill="#fff"/><path d="M5.013 26.32a.95.95 0 0 1-.841-.512L.106 17.957a.947.947 0 0 1 .406-1.277l1.122-.58a4.705 4.705 0 0 1 3.612-.308 4.706 4.706 0 0 1 2.772 2.336l.58 1.122c1.202 2.319.291 5.182-2.028 6.383l-1.122.581a.944.944 0 0 1-.435.106zm-2.789-8.393l3.195 6.17.28-.146a2.845 2.845 0 0 0 1.217-3.83l-.58-1.122a2.822 2.822 0 0 0-1.663-1.402 2.817 2.817 0 0 0-2.168.185l-.28.145z" fill="#20A1E5"/><path d="M56.526 30.093h-24a3.477 3.477 0 0 1-3.473-3.473v-2.526c0-.523.424-.947.947-.947h29.053c.523 0 .947.424.947.947v2.526a3.477 3.477 0 0 1-3.474 3.473zm-25.578-5.052v1.579c0 .87.708 1.579 1.578 1.579h24a1.58 1.58 0 0 0 1.58-1.579v-1.579H30.947z" fill="#fff"/><path d="M51.474 25.041a.948.948 0 0 1-.948-.947v-5.052a.948.948 0 0 1 1.895 0v5.052a.948.948 0 0 1-.947.947zM30 25.041h-7.579a.948.948 0 0 1 0-1.894h7.58a.948.948 0 0 1 0 1.894z" fill="#fff"/><path d="M21.452 15.336a.947.947 0 0 1-.67-1.617l3.572-3.573a.947.947 0 0 1 1.34 1.34l-3.572 3.572a.944.944 0 0 1-.67.278zM17.877 8.191a.947.947 0 0 1-.184-1.876l4.466-.893a.947.947 0 1 1 .371 1.857l-4.466.894a.962.962 0 0 1-.187.018zM28.598 18.909a.946.946 0 0 1-.93-1.133l.893-4.466a.946.946 0 1 1 1.858.371l-.893 4.466a.948.948 0 0 1-.928.762z" fill="#20A1E5"/></g><defs><clipPath id="clip0"><path fill="#fff" d="M0 0h60v60H0z"/></clipPath></defs></svg>