<svg width="61" height="50" fill="none" xmlns="http://www.w3.org/2000/svg"><g clip-path="url(#clip0)"><path d="M30.488 50c-12.075 0-19.718-1.948-24.004-3.582-2.38-.907-3.917-3.112-3.917-5.617v-1.67c0-.524.432-.95.963-.95.532 0 .963.426.963.95v1.67c0 1.714 1.054 3.224 2.685 3.845 4.133 1.576 11.532 3.455 23.31 3.455 11.778 0 19.176-1.879 23.31-3.455 1.63-.621 2.685-2.13 2.685-3.845v-1.177c0-.524.431-.95.963-.95.531 0 .962.426.962.95V40.8c0 2.505-1.537 4.71-3.916 5.617C50.206 48.052 42.562 50 30.488 50z" fill="#20A1E5"/><path d="M34.98 42.405c-3.008 0-5.455-2.414-5.455-5.38v-3.164c0-1.222 1.008-2.216 2.246-2.216h6.419c1.239 0 2.247.994 2.247 2.216v3.164c0 2.967-2.448 5.38-5.456 5.38zm-3.208-8.86a.32.32 0 0 0-.321.316v3.164c0 1.92 1.583 3.482 3.53 3.482 1.947 0 3.53-1.562 3.53-3.482v-3.164a.32.32 0 0 0-.321-.317h-6.418z" fill="#fff"/><path d="M25.995 42.405c-3.009 0-5.456-2.414-5.456-5.38v-3.164c0-1.222 1.008-2.216 2.247-2.216h6.418c1.239 0 2.247.994 2.247 2.216v3.164c0 2.967-2.448 5.38-5.456 5.38zm-3.21-8.86a.32.32 0 0 0-.32.316v3.164c0 1.92 1.583 3.482 3.53 3.482 1.947 0 3.53-1.562 3.53-3.482v-3.164a.32.32 0 0 0-.321-.317h-6.418z" fill="#fff"/><path d="M18.293 41.14c-2.3 0-4.172-1.846-4.172-4.115v-4.43c0-1.221 1.008-2.215 2.246-2.215h3.851c1.239 0 2.247.994 2.247 2.215v4.43c0 2.269-1.872 4.114-4.172 4.114zm-1.926-8.861a.32.32 0 0 0-.32.316v4.43c0 1.222 1.007 2.216 2.246 2.216 1.238 0 2.246-.994 2.246-2.216v-4.43a.32.32 0 0 0-.32-.316h-3.852z" fill="#fff"/><path d="M12.516 39.873h-.642c-2.3 0-4.172-1.845-4.172-4.114v-5.696c0-.347.192-.667.502-.833l2.353-1.266a.974.974 0 0 1 .975.03l4.066 2.532c.28.174.449.477.449.803v5.063c0 1.92-1.584 3.481-3.53 3.481zm-2.888-9.246v5.132c0 1.222 1.008 2.216 2.246 2.216h.642c.885 0 1.604-.71 1.604-1.583v-4.54l-3.137-1.954-1.355.729zM42.683 41.14c-2.3 0-4.172-1.846-4.172-4.115v-4.43c0-1.221 1.008-2.215 2.246-2.215h3.851c1.239 0 2.247.994 2.247 2.215v4.43c0 2.269-1.872 4.114-4.172 4.114zm-1.926-8.861a.32.32 0 0 0-.32.316v4.43c0 1.222 1.007 2.216 2.246 2.216 1.238 0 2.246-.994 2.246-2.216v-4.43a.32.32 0 0 0-.32-.316h-3.852z" fill="#fff"/><path d="M49.101 39.873h-.642c-1.946 0-3.53-1.56-3.53-3.48v-5.064c0-.313.157-.606.419-.783l3.744-2.532a.977.977 0 0 1 .96-.072l2.675 1.265c.335.159.546.491.546.856v5.697c0 2.268-1.871 4.113-4.172 4.113zm-2.246-8.044v4.563c0 .873.72 1.582 1.605 1.582h.641c1.239 0 2.247-.993 2.247-2.215V30.66l-1.626-.77-2.867 1.939z" fill="#fff"/><path d="M1.412 12.599a.96.96 0 0 1-.94-.745l-.251-1.13A5.819 5.819 0 0 1 0 9.12a5.957 5.957 0 0 1 4.263-5.733C9.38 1.842 18.083 0 30.488 0c12.404 0 21.108 1.842 26.224 3.388a5.957 5.957 0 0 1 4.264 5.733 6 6 0 0 1-.235 1.658l-.13.591a.959.959 0 0 1-1.147.723.95.95 0 0 1-.734-1.13l.145-.647c.121-.427.175-.81.175-1.195a4.064 4.064 0 0 0-2.902-3.917c-4.99-1.508-13.494-3.305-25.66-3.305S9.818 3.696 4.828 5.203a4.064 4.064 0 0 0-2.902 3.918c0 .384.054.767.161 1.14l.266 1.184a.95.95 0 0 1-.941 1.154z" fill="#20A1E5"/><path d="M29.204 22.152h-6.418c-1.239 0-2.247-.994-2.247-2.215V14.24c0-2.967 2.447-5.38 5.456-5.38 3.008 0 5.456 2.413 5.456 5.38v5.696c0 1.221-1.008 2.215-2.247 2.215zm-3.21-11.393c-1.946 0-3.53 1.562-3.53 3.482v5.696a.32.32 0 0 0 .322.316h6.418a.32.32 0 0 0 .321-.316V14.24c0-1.92-1.583-3.482-3.53-3.482z" fill="#fff"/><path d="M38.19 22.152h-6.419c-1.238 0-2.246-.994-2.246-2.215V14.24c0-2.967 2.447-5.38 5.456-5.38 3.008 0 5.456 2.413 5.456 5.38v5.696c0 1.221-1.008 2.215-2.247 2.215zm-3.21-11.393c-1.946 0-3.53 1.562-3.53 3.482v5.696a.32.32 0 0 0 .321.316h6.419a.32.32 0 0 0 .321-.316V14.24c0-1.92-1.583-3.482-3.53-3.482z" fill="#fff"/><path d="M45.892 22.152h-5.135c-1.238 0-2.246-.994-2.246-2.215v-5.064c0-2.617 2.16-4.746 4.813-4.746 2.654 0 4.814 2.129 4.814 4.746v5.064c0 1.221-1.007 2.215-2.246 2.215zm-2.567-10.127c-1.592 0-2.889 1.278-2.889 2.848v5.064a.32.32 0 0 0 .322.316h5.134a.32.32 0 0 0 .321-.316v-5.064c0-1.57-1.296-2.848-2.888-2.848z" fill="#fff"/><path d="M51.027 23.418a.97.97 0 0 1-.534-.16l-3.851-2.531a.945.945 0 0 1-.43-.79v-5.064c0-1.92 1.584-3.48 3.531-3.48h.642c2.3 0 4.172 1.845 4.172 4.113v5.696c0 .36-.206.689-.533.85l-2.567 1.265a.975.975 0 0 1-.43.1zm-2.889-3.99l2.958 1.945 1.536-.757v-5.11c0-1.22-1.008-2.215-2.247-2.215h-.642c-.885 0-1.604.71-1.604 1.582v4.556zm5.456 1.775h.013-.013zM20.218 22.152h-5.135c-1.238 0-2.246-.994-2.246-2.215v-5.064c0-2.617 2.16-4.746 4.814-4.746s4.814 2.129 4.814 4.746v5.064c0 1.221-1.008 2.215-2.247 2.215zm-2.567-10.127c-1.593 0-2.889 1.278-2.889 2.848v5.064a.32.32 0 0 0 .321.316h5.135a.32.32 0 0 0 .321-.316v-5.064c0-1.57-1.296-2.848-2.888-2.848z" fill="#fff"/><path d="M9.948 23.418a.976.976 0 0 1-.43-.1l-2.567-1.266a.946.946 0 0 1-.533-.85v-5.696c0-2.268 1.872-4.114 4.173-4.114h.641c1.947 0 3.53 1.562 3.53 3.481v5.064c0 .317-.16.613-.428.79l-3.851 2.531a.973.973 0 0 1-.535.16zm-1.604-2.802l1.536.757 2.957-1.944v-4.556c0-.872-.72-1.582-1.604-1.582h-.642c-1.239 0-2.247.994-2.247 2.216v5.11zm5.456-.68h.012-.012zM56.162 22.152h-2.568a.956.956 0 0 1-.962-.95v-6.329c0-1.22 1.008-2.215 2.246-2.215h1.284c1.947 0 3.53 1.562 3.53 3.481v2.532c0 1.92-1.584 3.48-3.53 3.48zm-1.605-1.899h1.605c.885 0 1.604-.71 1.604-1.582V16.14c0-.872-.72-1.582-1.604-1.582h-1.284a.32.32 0 0 0-.321.317v5.38z" fill="#fff"/><path d="M7.381 22.152H4.814c-1.947 0-3.53-1.561-3.53-3.48v-2.533c0-1.92 1.583-3.48 3.53-3.48h1.283c1.239 0 2.247.993 2.247 2.215v6.329c0 .524-.431.949-.963.949zm-2.567-7.595c-.885 0-1.605.71-1.605 1.582v2.532c0 .873.72 1.582 1.605 1.582h1.604v-5.38a.32.32 0 0 0-.32-.316H4.813zM7.381 37.342H6.098c-1.947 0-3.53-1.562-3.53-3.481v-2.532c0-1.221 1.008-2.215 2.246-2.215h3.851c.532 0 .963.425.963.95v5.062c0 1.222-1.008 2.216-2.247 2.216zm-2.567-6.33a.32.32 0 0 0-.321.317v2.532c0 .873.72 1.582 1.604 1.582h1.284a.32.32 0 0 0 .321-.316v-4.114H4.814zM54.878 37.342h-1.284c-1.238 0-2.246-.994-2.246-2.216v-5.063c0-.524.43-.949.962-.949h3.851c1.239 0 2.247.994 2.247 2.215v2.532c0 1.92-1.583 3.48-3.53 3.48zm-1.605-6.33v4.115a.32.32 0 0 0 .321.316h1.284c.885 0 1.605-.71 1.605-1.582v-2.532a.32.32 0 0 0-.322-.316h-2.888z" fill="#fff"/></g><defs><clipPath id="clip0"><path fill="#fff" d="M0 0h60.976v50H0z"/></clipPath></defs></svg>