<svg width="60" height="60" fill="none" xmlns="http://www.w3.org/2000/svg"><path d="M30 34.737a.948.948 0 0 1-.923-.735l-3.46-14.997a.948.948 0 0 1 1.846-.426L30 29.576l2.537-10.993a.948.948 0 0 1 1.847.426l-3.46 14.993a.948.948 0 0 1-.924.735zM29.834 14.348c-2.936 0-5.832-.272-8.67-.815a.95.95 0 0 1-.737-.689c-.395-1.493-.848-3.458-.848-5.409C19.58 3.057 21.854 0 25.11 0c2.01 0 4.083.652 4.89.936C30.808.652 32.88 0 34.89 0c3.257 0 5.531 3.057 5.531 7.435 0 1.65-.453 3.651-.896 5.393a.947.947 0 0 1-.749.698 49.862 49.862 0 0 1-8.942.822zm8.773-1.754h.012-.012zm-16.498-.814c5.084.9 10.369.897 15.728-.013.347-1.417.69-3.064.69-4.332 0-2.668-1.138-5.54-3.637-5.54-2.147 0-4.518.923-4.542.932a.955.955 0 0 1-.695 0c-.024-.009-2.395-.932-4.543-.932-2.498 0-3.636 2.872-3.636 5.54 0 1.5.3 3.01.635 4.345z" fill="#fff"/><path d="M30.309 19.58a25.61 25.61 0 0 1-4.676-.44c-2.22-.412-3.994-2.031-4.63-4.227a92.405 92.405 0 0 1-.576-2.068.948.948 0 0 1 1.094-1.174c5.455 1.046 11.145 1.043 16.916-.009a.947.947 0 0 1 1.088 1.166c-.174.685-.36 1.38-.546 2.07-.607 2.236-2.436 3.937-4.66 4.333-1.306.233-2.646.35-4.01.35zm-7.657-5.788l.17.593c.436 1.504 1.645 2.612 3.156 2.893 2.768.514 5.463.543 8.008.088 1.507-.268 2.748-1.432 3.164-2.965l.17-.63c-4.983.762-9.904.77-14.668.02z" fill="#fff"/><path d="M30 60c-12.207 0-20.77-1.839-25.805-3.38C1.457 55.78 0 50.739 0 47.42c0-.727.07-1.362.21-1.888l.205-1.774a.948.948 0 0 1 1.882.218l-.213 1.846c-.007.05-.017.1-.03.15-.104.367-.16.868-.16 1.449 0 3.225 1.441 6.953 2.856 7.386 4.91 1.505 13.278 3.298 25.25 3.298s20.34-1.793 25.25-3.298c1.414-.433 2.856-4.161 2.856-7.387 0-.58-.055-1.08-.16-1.449a1.01 1.01 0 0 1-.03-.149l-.181-1.572a.948.948 0 0 1 1.882-.218l.173 1.5c.14.527.21 1.16.21 1.888 0 3.318-1.458 8.36-4.195 9.2C50.77 58.16 42.207 60 30 60z" fill="#20A1E5"/><path d="M11.157 43.995h-.008a27.106 27.106 0 0 1-4.462-.416c-2.218-.39-4.005-1.988-4.665-4.167-.62-2.045-1.39-4.591-1.39-7.048 0-4.181 2.275-7.101 5.531-7.101 2.015 0 4.095.625 4.89.891.795-.266 2.875-.891 4.89-.891 3.256 0 5.53 2.92 5.53 7.1 0 1.87-.641 4.304-1.3 6.638a.947.947 0 1 1-1.823-.514c.622-2.206 1.23-4.496 1.23-6.123 0-2.592-1.125-5.206-3.637-5.206-2.156 0-4.534.878-4.558.887a.96.96 0 0 1-.664 0c-.024-.01-2.402-.887-4.558-.887-2.512 0-3.636 2.614-3.636 5.206 0 2.177.725 4.573 1.308 6.499.451 1.492 1.67 2.584 3.181 2.85 1.39.245 2.786.375 4.15.387a.948.948 0 0 1-.009 1.895zM49.052 43.995h-.009a27.106 27.106 0 0 1-4.461-.416c-2.219-.39-4.006-1.988-4.666-4.167-.62-2.045-1.39-4.591-1.39-7.048 0-4.181 2.275-7.101 5.531-7.101 2.016 0 4.095.625 4.89.891.795-.266 2.875-.891 4.89-.891 3.257 0 5.531 2.92 5.531 7.1 0 1.87-.642 4.304-1.3 6.638a.947.947 0 1 1-1.823-.514c.621-2.206 1.228-4.496 1.228-6.123 0-2.592-1.124-5.206-3.636-5.206-2.156 0-4.534.878-4.558.887a.961.961 0 0 1-.664 0c-.024-.01-2.401-.887-4.558-.887-2.512 0-3.636 2.614-3.636 5.206 0 2.177.725 4.573 1.308 6.499.452 1.492 1.67 2.584 3.181 2.85 1.39.245 2.786.375 4.15.387a.948.948 0 0 1-.008 1.895z" fill="#fff"/><path d="M14.842 29.368a.94.94 0 0 1-.3-.048l-3.79-1.264a.947.947 0 1 1 .6-1.797l3.79 1.263a.947.947 0 0 1-.3 1.846zM52.737 29.368c-.1 0-.2-.015-.3-.048l-3.79-1.264a.947.947 0 1 1 .6-1.797l3.79 1.263a.947.947 0 0 1-.3 1.846zM30.058 48.633c-1.49 0-3.01-.147-4.547-.44-2.166-.415-3.894-2.037-4.511-4.235a.948.948 0 0 1 1.824-.512c.422 1.501 1.587 2.607 3.042 2.885 2.675.511 5.282.541 7.748.088 1.45-.266 2.646-1.427 3.048-2.959a.948.948 0 0 1 1.833.483c-.589 2.237-2.37 3.942-4.538 4.34a21.56 21.56 0 0 1-3.9.35zM33.79 4.105a.94.94 0 0 1-.3-.048L29.7 2.793a.947.947 0 1 1 .6-1.797l3.79 1.263a.947.947 0 0 1-.3 1.846zM26.842 24H25.58a.948.948 0 0 1 0-1.895h1.263a.948.948 0 0 1 0 1.895zM34.421 24h-1.263a.948.948 0 0 1 0-1.895h1.263a.948.948 0 0 1 0 1.895zM28.105 29.053h-1.263a.948.948 0 0 1 0-1.895h1.263a.948.948 0 0 1 0 1.895zM33.158 29.053h-1.264a.948.948 0 0 1 0-1.895h1.264a.948.948 0 0 1 0 1.895z" fill="#fff"/></svg>