<svg width="123" height="16" fill="none" xmlns="http://www.w3.org/2000/svg"><path d="M6.96 10.482H4.516l-.787 4.516H0L2.61.165h6.297c1.533 0 2.651.373 3.314 1.077.497.539.705 1.243.705 2.113 0 .29-.042.58-.083.912l-.415 2.32c-.207 1.16-.828 2.071-1.822 2.817-.995.704-2.196 1.077-3.646 1.077zm.621-7.126H5.717L5.054 7.25h1.823c1.119 0 1.781-.497 1.947-1.49l.124-.83c.042-.124.042-.29.042-.497 0-.207-.083-.414-.29-.662-.166-.29-.58-.415-1.119-.415z" fill="url(#paint0_linear)"/><path d="M20.175 14.998l.124-3.232h-3.438l-.995 3.232h-3.935L17.192.165h6.794l.083 14.832h-3.894zM19.346 3.77l-1.615 5.22h2.692l.208-5.22h-1.285z" fill="url(#paint1_linear)"/><path d="M34.634.166c1.574 0 2.693.332 3.355 1.036.498.539.746 1.201.746 1.989 0 .29-.041.58-.083.87l-.29 1.615c-.165.912-.455 1.616-.87 2.154-.414.539-.87.953-1.367 1.16l1.906 6.008h-4.143l-1.74-5.552h-1.284l-.829 5.552H26.1L28.71.165h5.924zm-1.285 3.19h-1.532l-.539 3.604h1.45c.746 0 1.243-.165 1.574-.538.332-.332.456-.829.456-1.409 0-1.077-.497-1.657-1.409-1.657z" fill="url(#paint2_linear)"/><path d="M49.672 13.92c-1.077.912-2.651 1.367-4.64 1.367-1.989 0-3.356-.455-4.143-1.367-.539-.621-.829-1.491-.829-2.61 0-.497.042-1.036.166-1.615L41.883.208h3.729l-1.657 9.404a8.753 8.753 0 00-.083 1.077c0 .953.58 1.45 1.74 1.45.704 0 1.243-.166 1.657-.539.414-.373.704-1.035.87-1.988L49.796.208h3.729l-1.657 9.487c-.373 1.864-1.078 3.314-2.196 4.225z" fill="url(#paint3_linear)"/><path d="M57.627 10.771c0 .953.663 1.409 2.03 1.409 1.367 0 2.03-.414 2.03-1.284 0-.456-.249-.829-.704-1.119a5.822 5.822 0 00-1.7-.704c-.662-.207-1.325-.415-1.988-.663a4.115 4.115 0 01-1.698-1.202c-.456-.538-.704-1.2-.704-2.03C54.893 1.74 57.13 0 61.563 0c1.615 0 2.858.29 3.687.911.828.622 1.242 1.45 1.242 2.528 0 .414-.041.787-.165 1.16-.083.372-.207.62-.332.787l-.165.248h-3.646c.29-.331.456-.704.456-1.201 0-.912-.58-1.326-1.74-1.326-1.45 0-2.196.456-2.196 1.409 0 .455.248.828.704 1.118.456.29 1.036.497 1.699.663.663.166 1.325.373 1.988.58.663.249 1.243.621 1.699 1.16.456.539.704 1.243.704 2.113 0 1.74-.538 3.024-1.574 3.894-1.036.829-2.651 1.284-4.806 1.284-2.154 0-3.646-.372-4.433-1.16-.58-.58-.87-1.367-.87-2.402 0-.373.042-.788.125-1.243l.041-.332h3.729l-.042.249c-.041.083-.041.207-.041.331z" fill="url(#paint4_linear)"/><path d="M75.73 14.998l.125-3.232h-3.439l-.994 3.232h-3.977L72.748.165h6.794l.083 14.832H75.73zM74.86 3.77l-1.615 5.22h2.693l.207-5.22H74.86zM91.68 13.92c-1.077.912-2.65 1.367-4.64 1.367-1.988 0-3.355-.455-4.142-1.367-.539-.621-.829-1.491-.829-2.61 0-.497.042-1.036.166-1.615L83.892.208h3.729l-1.657 9.404a8.734 8.734 0 00-.083 1.077c0 .953.58 1.45 1.74 1.45.704 0 1.243-.166 1.657-.539.414-.373.704-1.035.87-1.988L91.805.208h3.728l-1.657 9.487c-.373 1.864-1.077 3.314-2.195 4.225zM110.406 3.355h-5.054l-2.03 11.6h-3.729l2.03-11.6h-5.096l.58-3.231h13.837l-.538 3.231zM118.029 0C121.343 0 123 1.367 123 4.06c0 .456-.041.953-.124 1.45l-.746 4.143c-.331 1.905-1.035 3.314-2.154 4.225-1.118.912-2.651 1.367-4.64 1.367-1.988 0-3.397-.455-4.143-1.367-.538-.621-.787-1.491-.787-2.61 0-.497.042-1.035.166-1.615l.704-4.102c.663-3.687 2.9-5.551 6.753-5.551zm-2.113 12.097c.704 0 1.243-.166 1.657-.539.415-.372.705-1.035.87-1.988l.705-3.936c.041-.29.041-.538.041-.745 0-1.119-.58-1.658-1.699-1.658-1.408.042-2.278.829-2.527 2.403l-.704 3.936a8.832 8.832 0 00-.083 1.077c0 .953.58 1.45 1.74 1.45z" fill="#BCC2C5"/><defs><linearGradient id="paint0_linear" x1="61.653" y1="-26.116" x2="-48.133" y2="37.1" gradientUnits="userSpaceOnUse"><stop stop-color="#5EC4E4"/><stop offset="1" stop-color="#116BB3"/></linearGradient><linearGradient id="paint1_linear" x1="66.011" y1="-18.548" x2="-43.776" y2="44.669" gradientUnits="userSpaceOnUse"><stop stop-color="#5EC4E4"/><stop offset="1" stop-color="#116BB3"/></linearGradient><linearGradient id="paint2_linear" x1="69.171" y1="-13.06" x2="-40.615" y2="50.157" gradientUnits="userSpaceOnUse"><stop stop-color="#5EC4E4"/><stop offset="1" stop-color="#116BB3"/></linearGradient><linearGradient id="paint3_linear" x1="72.06" y1="-8.042" x2="-37.726" y2="55.174" gradientUnits="userSpaceOnUse"><stop stop-color="#5EC4E4"/><stop offset="1" stop-color="#116BB3"/></linearGradient><linearGradient id="paint4_linear" x1="75.92" y1="-1.341" x2="-33.866" y2="61.876" gradientUnits="userSpaceOnUse"><stop stop-color="#5EC4E4"/><stop offset="1" stop-color="#116BB3"/></linearGradient></defs></svg>