<svg width="120" height="17" fill="none" xmlns="http://www.w3.org/2000/svg"><g clip-path="url(#clip0)"><path d="M6.496 11.756H4.17l-.75 4.385H-.126L2.356 1.697H8.35c1.498 0 2.523.362 3.154 1.046.473.523.67 1.207.67 2.052 0 .282-.04.564-.079.885L11.7 7.934c-.197 1.126-.789 2.011-1.735 2.735-.907.725-2.09 1.087-3.47 1.087zm.63-6.92H5.354l-.631 3.782h1.734c1.065 0 1.696-.483 1.853-1.449l.158-.805c.04-.12.04-.281.04-.482 0-.202-.08-.403-.276-.644-.237-.282-.592-.402-1.104-.402zM19.15 16.141l.12-3.138h-3.273l-.946 3.138h-3.746l5.047-14.444h6.505l.079 14.444H19.15zm-.827-10.943l-1.538 5.11h2.563l.197-5.11h-1.222zM32.95 1.697c1.497 0 2.562.322 3.193 1.006.473.523.71 1.167.71 1.931 0 .282-.04.564-.08.845l-.275 1.57c-.158.885-.434 1.569-.828 2.092-.395.523-.828.925-1.301 1.126l1.774 5.874H32.16l-1.656-5.391h-1.222l-.789 5.391H24.71l2.483-14.444h5.756zm-1.223 3.139h-1.459l-.512 3.5h1.38c.71 0 1.183-.161 1.498-.523.315-.322.434-.805.434-1.368 0-1.086-.473-1.61-1.34-1.61zM47.34 15.096c-1.026.885-2.524 1.327-4.416 1.327-1.893 0-3.233-.442-3.943-1.327-.512-.604-.788-1.449-.788-2.535 0-.483.04-1.006.158-1.57l1.577-9.253h3.548l-1.577 9.173c-.04.322-.08.684-.08 1.046 0 .926.553 1.409 1.657 1.409.67 0 1.182-.161 1.577-.524.394-.362.67-1.005.828-1.93l1.577-9.174h3.548l-1.577 9.254c-.355 1.85-1.065 3.218-2.09 4.104zM54.909 12.038c0 .925.67 1.367 1.971 1.367 1.301 0 1.971-.402 1.971-1.247 0-.442-.236-.804-.67-1.086a5.48 5.48 0 00-1.616-.684c-.631-.201-1.262-.402-1.893-.644a3.918 3.918 0 01-1.616-1.167c-.434-.523-.67-1.207-.67-1.971 0-3.38 2.129-5.03 6.347-5.03 1.538 0 2.72.282 3.509.886.788.603 1.183 1.408 1.183 2.494 0 .403-.04.765-.158 1.127-.079.362-.197.603-.316.764l-.157.242h-3.47c.276-.322.434-.684.434-1.167 0-.885-.552-1.288-1.656-1.288-1.419 0-2.09.443-2.09 1.368 0 .443.237.805.671 1.087.434.281.986.483 1.616.643.631.161 1.262.363 1.932.564.631.241 1.183.603 1.617 1.126.433.523.67 1.207.67 2.052 0 1.69-.513 2.978-1.498 3.782-.986.805-2.524 1.248-4.613 1.248-2.09 0-3.509-.443-4.297-1.208-.552-.563-.828-1.327-.828-2.333 0-.362.04-.764.118-1.207l.04-.322h3.548l-.04.242c0 .12-.04.24-.04.362z" fill="#fff"/><path d="M72.807 16.142l.119-3.138h-3.273l-.946 3.138h-3.745l5.046-14.444h6.505l.08 14.444h-3.786zM71.98 5.198l-1.537 5.11h2.563l.197-5.11h-1.223zM88.065 15.096c-1.025.885-2.523 1.327-4.416 1.327-1.892 0-3.233-.442-3.942-1.327-.513-.604-.789-1.449-.789-2.535 0-.483.04-1.006.158-1.57l1.577-9.253H84.2l-1.577 9.173c-.04.322-.079.684-.079 1.046 0 .926.552 1.409 1.656 1.409.67 0 1.183-.161 1.577-.524.394-.362.67-1.005.828-1.93l1.577-9.174h3.548l-1.577 9.254c-.355 1.85-1.064 3.218-2.09 4.104zM105.924 4.836h-4.849l-1.932 11.346h-3.548l1.931-11.346h-4.849l.552-3.138h13.286l-.591 3.138zM113.257 1.537c3.154 0 4.731 1.327 4.731 3.943 0 .442-.04.925-.158 1.408l-.67 4.023c-.316 1.851-.986 3.26-2.05 4.144-1.065.886-2.524 1.328-4.416 1.328-1.892 0-3.233-.442-3.982-1.328-.512-.603-.749-1.448-.749-2.534 0-.483.04-1.006.158-1.57l.67-4.023c.631-3.58 2.76-5.391 6.466-5.391zm-2.05 11.788c.67 0 1.182-.16 1.577-.523.394-.362.67-1.006.827-1.931l.671-3.863c.039-.281.039-.523.039-.724 0-1.086-.552-1.61-1.616-1.61-1.341.041-2.169.806-2.405 2.334l-.67 3.863a8.55 8.55 0 00-.079 1.046c0 .925.552 1.408 1.656 1.408z" fill="#BCC2C5"/></g><defs><clipPath id="clip0"><path fill="#fff" d="M0 0h120v17H0z"/></clipPath></defs></svg>