<svg width="236" height="44" fill="none" xmlns="http://www.w3.org/2000/svg"><g clip-path="url(#clip0)"><path d="M11.191 26.664H7.184l-1.29 7.422H-.22L4.06 9.642h10.324c2.581 0 4.347.613 5.434 1.77.815.885 1.154 2.043 1.154 3.473 0 .476-.068.953-.135 1.498l-.68 3.813c-.34 1.906-1.358 3.404-2.988 4.63-1.563 1.225-3.6 1.838-5.978 1.838zm1.087-11.711H9.222l-1.087 6.4h2.989c1.833 0 2.92-.817 3.192-2.451l.272-1.362c.068-.204.068-.476.068-.817 0-.34-.136-.68-.476-1.09-.407-.476-1.019-.68-1.902-.68zM32.995 34.086l.203-5.311h-5.637l-1.63 5.31h-6.453l8.694-24.443H39.38l.136 24.444h-6.52zm-1.427-18.52l-2.649 8.647h4.415l.34-8.647h-2.106zM56.768 9.642c2.58 0 4.415.545 5.501 1.702.815.885 1.223 1.975 1.223 3.268 0 .477-.068.954-.136 1.43l-.475 2.656c-.272 1.498-.748 2.655-1.427 3.54-.679.886-1.426 1.566-2.241 1.907l3.056 9.94h-6.86l-2.853-9.123h-2.105l-1.359 9.124h-6.52L46.85 9.642h9.917zm-2.106 5.31h-2.513l-.883 5.925h2.377c1.223 0 2.038-.273 2.581-.886.544-.544.747-1.361.747-2.315 0-1.838-.815-2.723-2.309-2.723zM81.56 32.316c-1.766 1.497-4.347 2.246-7.608 2.246-3.26 0-5.57-.749-6.792-2.246-.883-1.022-1.358-2.452-1.358-4.29 0-.817.067-1.702.271-2.656L68.79 9.71h6.113l-2.717 15.524a14.396 14.396 0 00-.136 1.77c0 1.567.951 2.384 2.853 2.384 1.155 0 2.038-.273 2.717-.886.68-.612 1.155-1.702 1.426-3.268L81.763 9.71h6.113L85.16 25.37c-.61 3.133-1.833 5.447-3.6 6.945zM94.6 27.14c0 1.567 1.155 2.316 3.397 2.316 2.241 0 3.396-.681 3.396-2.111 0-.749-.408-1.362-1.155-1.838-.747-.477-1.698-.886-2.784-1.158-1.087-.34-2.174-.68-3.26-1.09a6.748 6.748 0 01-2.786-1.974c-.747-.885-1.154-2.043-1.154-3.336 0-5.72 3.667-8.511 10.935-8.511 2.649 0 4.687.476 6.045 1.498 1.359 1.02 2.038 2.383 2.038 4.221 0 .681-.068 1.294-.272 1.907-.136.612-.339 1.02-.543 1.293l-.272.409h-5.977c.476-.545.747-1.158.747-1.975 0-1.498-.951-2.179-2.853-2.179-2.445 0-3.6.75-3.6 2.315 0 .75.408 1.362 1.155 1.839.747.476 1.698.817 2.785 1.09 1.087.272 2.174.612 3.328.952 1.087.409 2.038 1.022 2.785 1.907.747.885 1.155 2.043 1.155 3.473 0 2.86-.883 5.038-2.581 6.4s-4.347 2.11-7.947 2.11c-3.6 0-6.045-.748-7.404-2.042-.95-.953-1.426-2.247-1.426-3.95 0-.612.068-1.293.204-2.042l.068-.545h6.113l-.068.409c0 .204-.068.408-.068.613z" fill="#fff"/><path d="M125.438 34.086l.203-5.311h-5.637l-1.63 5.31h-6.453l8.694-24.443h11.207l.136 24.444h-6.52zm-1.427-18.52l-2.649 8.647h4.415l.34-8.647h-2.106zM151.724 32.315c-1.766 1.498-4.347 2.247-7.608 2.247-3.26 0-5.569-.749-6.792-2.247-.883-1.021-1.358-2.45-1.358-4.29 0-.816.067-1.701.271-2.655l2.717-15.66h6.113l-2.717 15.524a14.395 14.395 0 00-.136 1.77c0 1.566.951 2.384 2.853 2.384 1.155 0 2.038-.273 2.717-.886.679-.612 1.155-1.702 1.427-3.268l2.716-15.524h6.113l-2.716 15.66c-.612 3.132-1.834 5.447-3.6 6.945zM182.493 14.953h-8.355l-3.328 19.2h-6.113l3.328-19.2h-8.354l.951-5.311h22.89l-1.019 5.31zM195.126 9.37c5.434 0 8.151 2.246 8.151 6.672 0 .75-.068 1.566-.272 2.383l-1.154 6.81c-.544 3.131-1.698 5.514-3.532 7.012-1.834 1.498-4.347 2.247-7.608 2.247-3.26 0-5.569-.749-6.86-2.247-.883-1.021-1.29-2.45-1.29-4.29 0-.816.067-1.701.271-2.655l1.155-6.809c1.087-6.06 4.755-9.124 11.139-9.124zm-3.532 19.95c1.155 0 2.038-.273 2.717-.886.679-.613 1.155-1.702 1.427-3.268l1.154-6.537c.068-.476.068-.885.068-1.225 0-1.838-.951-2.724-2.785-2.724-2.309.069-3.735 1.362-4.143 3.95l-1.155 6.536a14.404 14.404 0 00-.135 1.77c0 1.566.95 2.384 2.852 2.384z" fill="#BCC2C5"/><path d="M198.998 43.959c6.996-.681 11.003-3.677 18.135-4.222 2.445-1.634 4.347-2.928 6.385-3.268l-9.985-29.346c0-.069-.136-.069-.136 0 1.019 19.95-4.211 30.844-14.399 36.836z" fill="#fff"/><path d="M208.439 41.644c5.026-2.383 9.034-4.767 11.887-5.243l-6.929-20.29c-.815 14.366-5.909 22.809-14.399 27.848 3.668-.34 6.52-1.362 9.441-2.315z" fill="#fff"/><path d="M208.439 41.644c4.619-1.498 9.374-2.86 17.864-1.43 4.143.68 7.2 1.77 9.781 2.996l.204-3.813c0-.681.067-1.43 0-2.18-.748-14.706-7.744-26.69-19.358-37.176-.068-.068-.272 0-.272.136 1.019 20.563 2.038 32.206-8.219 41.466z" fill="#fff"/></g><defs><clipPath id="clip0"><path fill="#fff" d="M0 0h236v44H0z"/></clipPath></defs></svg>