<svg width="286" height="55" fill="none" xmlns="http://www.w3.org/2000/svg"><g clip-path="url(#clip0)"><path d="M13.53 32.95H8.75l-1.54 8.736H0l5.104-28.875h12.234c3.079 0 5.185.728 6.4 2.103.973 1.051 1.378 2.426 1.378 4.125 0 .566-.08 1.132-.162 1.78l-.81 4.529c-.405 2.265-1.62 4.044-3.565 5.5-1.782 1.375-4.213 2.103-7.049 2.103zm1.297-13.83H11.18l-1.297 7.522h3.565c2.188 0 3.484-.97 3.808-2.912l.324-1.617c.081-.243.081-.567.081-.971s-.162-.809-.567-1.294c-.486-.485-1.215-.728-2.268-.728z" fill="url(#paint0_linear)"/><path d="M39.376 41.686l.243-6.228h-6.644l-1.944 6.228h-7.616l10.208-28.875h13.288l.162 28.875h-7.697zm-1.702-21.838l-3.16 10.191h5.267l.405-10.191h-2.512z" fill="url(#paint1_linear)"/><path d="M67.57 12.811c3.08 0 5.267.647 6.482 2.022.972 1.052 1.458 2.346 1.458 3.882 0 .567-.08 1.133-.162 1.699l-.567 3.154c-.324 1.78-.891 3.155-1.701 4.206-.81 1.052-1.702 1.86-2.674 2.265l3.646 11.728h-8.021L62.628 31.01h-2.511l-1.62 10.757h-7.698l5.105-28.875H67.57v-.081zM65.06 19.12H62.06l-1.053 6.956h2.835c1.459 0 2.431-.324 3.08-1.052.647-.647.89-1.617.89-2.75 0-2.103-.972-3.154-2.754-3.154z" fill="url(#paint2_linear)"/><path d="M96.9 39.583c-2.107 1.78-5.186 2.67-8.994 2.67-3.889 0-6.562-.89-8.02-2.67-1.054-1.213-1.62-2.911-1.62-5.095 0-.97.08-2.022.323-3.155l3.241-18.44h7.21L85.8 31.171c-.081.647-.162 1.375-.162 2.102 0 1.86 1.134 2.831 3.403 2.831 1.377 0 2.43-.323 3.24-1.051s1.378-2.022 1.702-3.883l3.24-18.279h7.212l-3.241 18.441c-.729 3.64-2.188 6.47-4.294 8.25z" fill="url(#paint3_linear)"/><path d="M112.375 33.436c0 1.86 1.377 2.75 4.051 2.75 2.673 0 4.051-.809 4.051-2.507 0-.89-.487-1.618-1.378-2.184-.891-.566-2.025-1.052-3.322-1.375-1.296-.405-2.592-.809-3.889-1.294a8.046 8.046 0 01-3.321-2.346c-.892-1.051-1.378-2.426-1.378-3.963 0-6.713 4.375-10.03 12.963-10.03 3.16 0 5.591.567 7.13 1.78 1.621 1.213 2.431 2.83 2.431 5.015 0 .808-.081 1.536-.324 2.264-.162.728-.405 1.214-.648 1.537l-.325.485h-7.048c.567-.647.891-1.375.891-2.345 0-1.78-1.134-2.588-3.403-2.588-2.917 0-4.294.89-4.294 2.75 0 .89.486 1.617 1.377 2.183.892.567 2.026.971 3.322 1.294 1.297.324 2.593.729 3.97 1.133 1.297.485 2.431 1.213 3.322 2.265.891 1.051 1.377 2.426 1.377 4.125 0 3.397-1.053 5.985-3.078 7.522-2.026 1.536-5.186 2.507-9.399 2.507-4.213 0-7.129-.728-8.669-2.265-1.134-1.132-1.701-2.669-1.701-4.69 0-.729.081-1.538.243-2.427l.081-.647h7.211l-.081.485c-.081.162-.162.404-.162.566z" fill="url(#paint4_linear)"/><path d="M148.996 41.767l.324-6.309h-6.725l-2.026 6.31h-7.696l10.37-28.876h13.206l.162 28.875h-7.615zm-1.621-21.838l-3.079 10.191h5.348l.486-10.191h-2.755zM180.269 39.745c-2.187 1.699-5.185 2.67-8.993 2.67-3.808 0-6.563-.971-8.021-2.67-1.134-1.294-1.539-2.992-1.539-5.176 0-.97.162-2.022.324-3.155l3.321-18.522h7.211l-3.322 18.36c-.162.648-.162 1.375-.162 2.023 0 1.86 1.135 2.83 3.484 2.83 1.378 0 2.35-.323 3.16-1.132.81-.647 1.377-2.022 1.701-3.882l3.322-18.36h7.211l-3.322 18.522c-.972 3.963-2.349 6.713-4.375 8.492zM216.728 19.2h-9.884l-3.889 22.567h-7.211l3.889-22.566h-9.966l1.135-6.309h27.222l-1.296 6.309zM231.636 12.569c6.481 0 9.722 2.669 9.722 7.845 0 .97-.162 1.86-.324 2.831l-1.377 8.007c-.649 3.802-2.026 6.471-4.213 8.331-2.188 1.699-5.186 2.67-9.075 2.67-3.889 0-6.562-.971-8.183-2.67-1.134-1.294-1.539-2.992-1.539-5.176 0-.97.162-2.022.324-3.155l1.377-8.007c1.378-7.037 5.753-10.676 13.288-10.676zm-4.051 23.536c1.377 0 2.349-.323 3.159-1.132.811-.647 1.378-2.022 1.702-3.882l1.377-7.684c.162-.485.162-.97.162-1.375 0-2.184-1.134-3.316-3.322-3.316-2.835 0-4.375 1.536-4.861 4.69l-1.377 7.685c-.162.647-.162 1.375-.162 2.022-.162 2.103 1.053 2.992 3.322 2.992z" fill="#888889"/><path d="M239.171 55.032c8.75-.89 13.773-4.61 22.766-5.338 3.079-2.023 5.429-3.64 8.021-4.125L257.4 8.848c0-.08-.162-.08-.162 0 1.296 24.993-5.266 38.662-18.067 46.184z" fill="url(#paint5_linear)"/><path d="M251 52.12c6.319-2.993 11.342-5.904 14.907-6.551l-8.669-25.398c-1.053 17.956-7.373 28.552-18.067 34.86 4.618-.485 8.183-1.698 11.829-2.911z" fill="url(#paint6_linear)"/><path d="M251 52.12c5.833-1.86 11.747-3.64 22.442-1.78 5.185.89 9.074 2.184 12.234 3.721l.243-4.772c.081-.89.081-1.78 0-2.669-.891-18.36-9.722-33.404-24.387-46.588-.162-.081-.324 0-.324.161 1.458 25.721 2.755 40.28-10.208 51.927z" fill="url(#paint7_linear)"/></g><defs><linearGradient id="paint0_linear" x1="120.247" y1="-38.321" x2="-93.669" y2="85.064" gradientUnits="userSpaceOnUse"><stop stop-color="#5EC4E4"/><stop offset="1" stop-color="#116BB3"/></linearGradient><linearGradient id="paint1_linear" x1="128.743" y1="-23.591" x2="-85.173" y2="99.795" gradientUnits="userSpaceOnUse"><stop stop-color="#5EC4E4"/><stop offset="1" stop-color="#116BB3"/></linearGradient><linearGradient id="paint2_linear" x1="134.885" y1="-12.943" x2="-79.031" y2="110.443" gradientUnits="userSpaceOnUse"><stop stop-color="#5EC4E4"/><stop offset="1" stop-color="#116BB3"/></linearGradient><linearGradient id="paint3_linear" x1="140.557" y1="-3.107" x2="-73.358" y2="120.278" gradientUnits="userSpaceOnUse"><stop stop-color="#5EC4E4"/><stop offset="1" stop-color="#116BB3"/></linearGradient><linearGradient id="paint4_linear" x1="148.112" y1="9.99" x2="-65.804" y2="133.375" gradientUnits="userSpaceOnUse"><stop stop-color="#5EC4E4"/><stop offset="1" stop-color="#116BB3"/></linearGradient><linearGradient id="paint5_linear" x1="274.25" y1="10.327" x2="253.999" y2="42.64" gradientUnits="userSpaceOnUse"><stop stop-color="#FAC03D"/><stop offset="1" stop-color="#F08324"/></linearGradient><linearGradient id="paint6_linear" x1="238.27" y1="56.181" x2="259.288" y2="35.127" gradientUnits="userSpaceOnUse"><stop stop-color="#EB6716"/><stop offset="1" stop-color="#FAC03D"/></linearGradient><linearGradient id="paint7_linear" x1="280.875" y1="20.913" x2="244.52" y2="51.241" gradientUnits="userSpaceOnUse"><stop stop-color="#5DC3E3"/><stop offset="1" stop-color="#116BB2"/></linearGradient><clipPath id="clip0"><path fill="#fff" d="M0 0h286v55H0z"/></clipPath></defs></svg>