<?xml version="1.0" encoding="UTF-8" standalone="no"?>
<svg
   id="uuid-3be0b5f0-c806-4159-b822-04dfded5bd87"
   data-name="Слой 1"
   width="823.32971"
   height="287.82532"
   viewBox="0 0 823.32971 287.82532"
   version="1.1"
   sodipodi:docname="SVG.svg"
   inkscape:version="1.2.1 (9c6d41e410, 2022-07-14)"
   xmlns:inkscape="http://www.inkscape.org/namespaces/inkscape"
   xmlns:sodipodi="http://sodipodi.sourceforge.net/DTD/sodipodi-0.dtd"
   xmlns="http://www.w3.org/2000/svg"
   xmlns:svg="http://www.w3.org/2000/svg">
  <sodipodi:namedview
     id="namedview41"
     pagecolor="#ffffff"
     bordercolor="#000000"
     borderopacity="0.25"
     inkscape:showpageshadow="2"
     inkscape:pageopacity="0.0"
     inkscape:pagecheckerboard="0"
     inkscape:deskcolor="#d1d1d1"
     showgrid="false"
     inkscape:zoom="0.829"
     inkscape:cx="411.33896"
     inkscape:cy="144.75271"
     inkscape:window-width="1920"
     inkscape:window-height="1009"
     inkscape:window-x="-8"
     inkscape:window-y="-8"
     inkscape:window-maximized="1"
     inkscape:current-layer="uuid-3be0b5f0-c806-4159-b822-04dfded5bd87" />
  <defs
     id="defs4">
    <style
       id="style2">
      .uuid-aa908fd9-5f81-4ed8-ad87-1c89237b0d83 {
        fill: #8cbd3d;
      }

      .uuid-d4ff0682-2df8-41a9-bebc-9c06632ddb32 {
        fill: #3f3f3f;
      }
    </style>
  </defs>
  <path
     class="uuid-d4ff0682-2df8-41a9-bebc-9c06632ddb32"
     d="m 821.40335,113.67533 c -2.34,-4.47 -4.24,-9.18 -6.88,-13.45 -12.81,-20.639999 -29.11,-38.159999 -48.39,-52.859999 -41.51,-31.72 -88.89,-47.00000019 -140.67,-47.10000019 -183.63,-0.44 -367.27,-0.2 -550.899997,-0.2 h -4.88 c -2.27,0 -4.34,1.11999999 -5.52,2.94999999 l -1.25,1.83 c -1.36,2.07 -1.56,4.81 -0.2,6.9100002 1.8,2.81 4.88,3.05 8.34,3.05 38.899997,-0.1 77.839997,-0.07 116.739997,-0.07 h 8.37 c -5.56,16.91 -10.67,32.5 -15.79,48.15 -2.68,0.14 -4.71,0.34 -6.74,0.34 -18.3,-0.14 -36.63,-0.24 -54.93,-0.44 -9.29,-0.07 -14,6.54 -10.4,16.47 2.44,0.41 5.46,1.36 8.47,1.39 16.71,0.14 33.41,0.07 50.15,0.07 h 7.62 c -17.18,52.799999 -33.95,104.409999 -50.9,156.519999 2.41,0.17 3.76,0.34 5.12,0.34 20.16,0.03 40.36,0.34 60.52,-0.07 15.83,-0.34 31.51,-2.47 46.59,-7.69 31.31,-10.88 53.54,-30.5 59.91,-64.35 2.91,-15.45 0.03,-29.72 -14.13,-39.51 -0.68,-0.47 -1.08,-1.29 -1.73,-2.07 26.8,-12.23 41.68,-32.869999 46.9,-61.509999 h -49.24 c -14.88,36.9 -34.02,42.359999 -55.44,38.389999 7.05,-19.819999 14.03,-39.549999 21.15,-59.569999 h 7.93 c 80.45,0.07 160.93,0.14 241.38,0.17 42.19,0.03 84.38,0.07 126.57,0.03 32.4,0 63.74,5.59 93.83,17.72 27.92,11.25 53.03,26.91 74.35,48.289999 5.12,5.15 10.27,10.34 13.11,18.4 -38.12,52.76 -91.63,84.62 -150.02,109.9 0.37,1.08 0.24,0.64 0.58,1.69 12.5,-3.32 25.21,-6 37.41,-10.06 37.92,-12.67 70.96,-33.68 100.24,-60.69 11.79,-10.88 22.67,-22.64 31.48,-36.19 3.56,-5.49 4.34,-10.88 1.25,-16.77 z m -591.94,34.16 c 8.13,1.56 11.49,7.62 10.13,15.79 -2.61,16.23 -11.39,24.87 -29.21,27.82 -6.17,1.02 -12.57,0.75 -19.89,1.12 5.39,-16.2 10.37,-31.08 15.59,-46.7 8.06,0.61 15.86,0.54 23.38,1.97 z"
     id="path6" />
  <path
     class="uuid-d4ff0682-2df8-41a9-bebc-9c06632ddb32"
     d="m 339.61335,69.685331 h 37.11 c -7.01,22.23 -14.08,42.189999 -20.67,62.299999 -6.5,19.83 -14.52,39.21 -19.34,59.45 5.26,3.18 8.06,1.08 9.83,-2.51 2.02,-4.07 3.65,-8.36 5.13,-12.67 11.5,-33.46 22.93,-66.95 34.39,-100.429999 0.51,-1.48 1.15,-2.92 1.74,-4.32 h 36.68 c -0.94,2.86 -1.69,5.39 -2.54,7.88 -10.85,31.759999 -21.71,63.519999 -32.58,95.279999 -4.2,12.26 -9.59,23.64 -20.64,31.53 -15.36,10.97 -32.26,13.7 -50.21,9.22 -15.39,-3.84 -21.55,-14.84 -17.1,-30.3 3.9,-13.58 8.61,-26.94 13.14,-40.33 8.27,-24.43 16.67,-48.809999 25.06,-75.109999 z"
     id="path8" />
  <path
     class="uuid-d4ff0682-2df8-41a9-bebc-9c06632ddb32"
     d="m 528.15335,214.45533 c 16.47,-48.2 32.61,-95.43 48.85,-142.939999 h 61.62 c -3.06,9.17 -6.02,18.07 -9.16,27.49 h -25 c -3.09,9.179999 -6.01,17.849999 -9.26,27.489999 h 23.04 c -3.16,9.57 -6.01,18.16 -9.09,27.49 h -23.22 c -3.75,11.04 -7.26,21.35 -11.22,32.99 h 27.28 c -3.37,9.97 -6.28,18.6 -9.28,27.49 h -64.56 z"
     id="path10" />
  <path
     class="uuid-d4ff0682-2df8-41a9-bebc-9c06632ddb32"
     d="m 643.42335,71.515331 h 81.69 c -3.34,9.95 -6.52,19.41 -9.85,29.319999 h -22.26 c -13.03,37.99 -25.94,75.64 -38.97,113.62 h -37.13 c 12.93,-37.86 25.71,-75.31 38.79,-113.62 h -22.37 c 3.55,-10.309999 6.77,-19.649999 10.1,-29.319999 z"
     id="path12" />
  <path
     class="uuid-d4ff0682-2df8-41a9-bebc-9c06632ddb32"
     d="m 528.43335,186.96533 c -3.38,9.96 -6.33,18.66 -9.33,27.49 h -59.76 c 16.47,-48.18 32.68,-95.61 48.86,-142.939999 h 37.22 c -13.17,38.499999 -26.16,76.489999 -39.48,115.449999 z"
     id="path14" />
  <path
     class="uuid-d4ff0682-2df8-41a9-bebc-9c06632ddb32"
     d="m 439.37335,71.515331 h 37.12 c -13.1,38.359999 -26.09,76.359999 -39.44,115.449999 h 22.43 c -1.79,5.47 -3.21,9.88 -4.69,14.28 -1.44,4.28 -2.94,8.54 -4.55,13.21 h -59.81 c 16.39,-47.86 32.61,-95.23 48.95,-142.939999 z"
     id="path16" />
  <path
     class="uuid-aa908fd9-5f81-4ed8-ad87-1c89237b0d83"
     d="m 821.32335,142.39533 c -1.81,3.54 -3.43,7.19 -5.45,10.61 -20.02,33.76 -46.11,61.74 -79.47,82.64 -29.82,18.69 -62.21,30.49 -96.96,36.08 -11.03,1.78 -22.08,2.85 -33.17,3.39 -4.92,0.24 -9.03,-3.72 -9.03,-8.65 v 0 c 0,-4.69 3.73,-8.48 8.42,-8.65 37.17,-1.29 72.51,-10.5 106.34,-26.36 30.97,-14.51 58.3,-34.09 81.86,-58.79 8.48,-8.9 16.06,-18.68 24.05,-28.05 0.81,-0.94 1.62,-1.89 3.4,-2.22 z"
     id="path18" />
  <path
     class="uuid-aa908fd9-5f81-4ed8-ad87-1c89237b0d83"
     d="m 85.703353,50.375331 c -24.02,0 -48.04,0 -72.06,0 -8.9600001,0 -13.25000009,-2.85 -13.62000009,-9.01 -0.44,-7.39 5.38999999,-14.17 13.06000009,-15.07 1.81,-0.21 3.66,-0.15 5.49,-0.15 48.04,0 96.079997,0 144.129997,0.04 8.34,0 12.67,2.91 13.29,8.78 0.71,6.77 -4.35,13.58 -11.37,15.02 -1.99,0.41 -4.1,0.3 -6.15,0.31 -24.25,0.02 -48.5,0.01 -72.749997,0.01 v 0.08 z"
     id="path20" />
  <path
     class="uuid-aa908fd9-5f81-4ed8-ad87-1c89237b0d83"
     d="m 274.70335,266.76533 v 0 c 0,4.84 -3.92,8.76 -8.76,8.76 H 58.573353 c -6.34,-0.07 -9.69,-2.47 -10.03,-6.95 -0.3,-4.98 4.34,-10.44 9.62,-10.51 3.63,0 7.22,-0.07 10.81,0 5.39,-0.07 10.74,-0.07 16.03,-0.07 H 265.94335 c 4.84,0 8.76,3.92 8.76,8.76 z"
     id="path22" />
  <path
     class="uuid-d4ff0682-2df8-41a9-bebc-9c06632ddb32"
     d="m 92.153353,63.095331 c 5.91,7.8 2.98,15.56 -5.98,16.84 -2.24,0.32 -4.57,0.09 -6.85,0.13 -4.01,0.07 -7.29,-1 -8.32,-5.44 -0.95,-4.1 0.88,-8.33 4.78,-10.42 5.39,-2.91 11.07,-1.58 16.37,-1.11 z"
     id="path24" />
  <g
     id="g38"
     transform="translate(-88.336647,-356.09467)">
    <path
       class="uuid-aa908fd9-5f81-4ed8-ad87-1c89237b0d83"
       d="m 404.35,634.97 c -7.56,0 -12.57,-6.34 -11.52,-13.69 0.95,-6.85 7.29,-13.66 15.35,-13.66 5.25,0 8,2.54 9.69,4.95 l 5.69,-5.08 c -3.02,-3.93 -7.32,-6.91 -14.37,-6.91 -12.06,0 -21.82,9.79 -23.42,20.7 -0.14,0.95 -0.2,1.93 -0.2,2.85 0,9.62 6.81,17.89 17.79,17.89 6.64,0 12.1,-2.58 16.3,-6.95 l -4.3,-4.98 c -2.44,3.02 -6.34,4.88 -11.01,4.88 z"
       id="path26" />
    <path
       class="uuid-aa908fd9-5f81-4ed8-ad87-1c89237b0d83"
       d="m 462.6,601.73 -2,14.64 h -18.43 l 2.03,-14.64 h -7.66 l -5.69,40.29 h 6.68 l 2.54,-18.3 h 20.57 l -2.54,18.3 h 6.68 l 5.69,-40.29 h -7.86 z"
       id="path28" />
    <path
       class="uuid-aa908fd9-5f81-4ed8-ad87-1c89237b0d83"
       d="m 500.93,601.46 -27.58,40.56 h 7.9 l 5.02,-7.32 h 20.16 l 2.98,7.32 h 7.93 l -16.4,-40.56 z m -10.2,25.92 8.2,-12.06 4.78,12.06 z"
       id="path30" />
    <path
       class="uuid-aa908fd9-5f81-4ed8-ad87-1c89237b0d83"
       d="m 561.89,601.73 -3.73,26.5 -26.63,-26.47 -5.69,40.26 h 7.42 l 3.49,-24.53 26.64,26.43 5.93,-42.19 h -7.42 z"
       id="path32" />
    <path
       class="uuid-aa908fd9-5f81-4ed8-ad87-1c89237b0d83"
       d="m 610.29,620.03 -1.56,11.01 c -0.17,0.17 -0.34,0.34 -0.51,0.54 -2.98,2.95 -7.18,4.24 -10.44,4.24 -3.66,0 -7.01,-1.59 -9.18,-4.24 -1.97,-2.37 -2.95,-5.56 -2.41,-9.29 0.44,-3.19 1.9,-6 3.93,-8.23 3.02,-3.29 7.32,-5.32 11.45,-5.32 4.13,0 7.08,1.59 9.18,4.03 l 5.66,-4.95 c -3.15,-3.9 -8,-6.13 -13.86,-6.13 -7.93,0 -16.3,4.81 -20.64,12.47 -1.39,2.44 -2.34,5.18 -2.78,8.13 -0.41,3.02 -0.17,5.86 0.58,8.4 2.2,7.22 8.74,12.17 17.01,12.17 5.66,0 13.79,-2.24 18.43,-7.9 l 0.51,-3.42 1.59,-11.52 h -6.98 z"
       id="path34" />
    <path
       class="uuid-aa908fd9-5f81-4ed8-ad87-1c89237b0d83"
       d="m 640.92,609.05 h 21.18 l 0.91,-7.32 h -28.4 l -1.73,12.37 -2.47,17.45 -1.49,10.47 h 28.53 l 0.88,-7.32 h -21.18 l 0.44,-3.15 1.12,-7.83 h 18.27 l 0.91,-5.52 h -18.27 l 0.58,-4.1 0.71,-5.05 z"
       id="path36" />
  </g>
</svg>
