<svg width="100" height="100" viewBox="0 0 100 100" fill="none" xmlns="http://www.w3.org/2000/svg">
<rect width="100" height="100" rx="50" fill="#006073"/>
<path fill-rule="evenodd" clip-rule="evenodd" d="M29 50C29 38.402 38.402 29 50 29C61.598 29 71 38.402 71 50C71 61.598 61.598 71 50 71C38.402 71 29 61.598 29 50ZM50 33.6482C40.9692 33.6482 33.6482 40.9692 33.6482 50C33.6482 59.0308 40.9692 66.3518 50 66.3518C59.0308 66.3518 66.3518 59.0308 66.3518 50C66.3518 40.9692 59.0308 33.6482 50 33.6482ZM58.1634 44.1711C59.071 45.0787 59.071 46.5503 58.1634 47.4579L49.3089 56.3124C48.4013 57.22 46.9297 57.22 46.0221 56.3124L43.0039 53.2941C42.0963 52.3865 42.0963 50.915 43.0039 50.0073C43.9115 49.0997 45.383 49.0997 46.2907 50.0073L47.6655 51.3822L54.8766 44.1711C55.7842 43.2635 57.2557 43.2635 58.1634 44.1711Z" fill="#00C0A0"/>
</svg>
