<svg width="100" height="100" viewBox="0 0 100 100" fill="none" xmlns="http://www.w3.org/2000/svg">
<rect width="100" height="100" rx="50" fill="#3D0F99"/>
<path fill-rule="evenodd" clip-rule="evenodd" d="M29.0027 40.3454C29.0027 36.4796 32.0543 33.2006 35.9948 33.2006H64.0047C67.9452 33.2006 70.9967 36.4796 70.9967 40.3454V59.6558C70.9967 63.5216 67.9452 66.8006 64.0047 66.8006H35.9948C32.0543 66.8006 29.0027 63.5216 29.0027 59.6558V40.3454ZM36.9916 37.8351L49.9997 47.148L63.0079 37.8351H36.9916ZM66.3492 41.1482L52.6836 50.9317C51.0744 52.0839 48.9251 52.0839 47.3159 50.9317L33.6503 41.1482V59.6558C33.6503 61.1223 34.7789 62.1661 35.9948 62.1661H64.0047C65.2206 62.1661 66.3492 61.1223 66.3492 59.6558V41.1482Z" fill="#8972FF"/>
<path fill-rule="evenodd" clip-rule="evenodd" d="M35.9948 33.2006C32.0543 33.2006 29.0027 36.4796 29.0027 40.3454V59.6558C29.0027 63.5216 32.0543 66.8006 35.9948 66.8006H64.0047C67.9452 66.8006 70.9967 63.5216 70.9967 59.6558V40.3454C70.9967 36.4796 67.9452 33.2006 64.0047 33.2006H35.9948ZM49.9997 47.148L36.9916 37.8351H63.0079L49.9997 47.148ZM66.3492 41.1482L52.6836 50.9317C51.0744 52.0839 48.9251 52.0839 47.3159 50.9317L33.6503 41.1482V59.6558C33.6503 61.1223 34.7789 62.1661 35.9948 62.1661H64.0047C65.2206 62.1661 66.3492 61.1223 66.3492 59.6558V41.1482Z" fill="#8972FF"/>
</svg>
