<svg width="20" height="20" fill="none" xmlns="http://www.w3.org/2000/svg"><path fill-rule="evenodd" clip-rule="evenodd" d="M0 18.333C0 19.253.746 20 1.667 20h16.666c.92 0 1.667-.746 1.667-1.667V9.167H0v9.166zM18.333 1.667h-2.5V.833a.833.833 0 1 0-1.666 0v.834H5.833V.833a.833.833 0 1 0-1.666 0v.834h-2.5C.747 1.667 0 2.413 0 3.333V7.5h20V3.333c0-.92-.746-1.666-1.667-1.666zM5 5.833a.833.833 0 1 1 0-1.666.833.833 0 0 1 0 1.666zm10 0a.833.833 0 1 1 0-1.666.833.833 0 0 1 0 1.666z" fill="#FFC107"/></svg>