<svg width="24" height="24" fill="none" xmlns="http://www.w3.org/2000/svg"><path fill-rule="evenodd" clip-rule="evenodd" d="M15.12 12.929c.68 1.97 1.14 3.994 1.38 6.071 2.091-1.348 3.51-3.565 3.78-6.071-2.027-.139-3.388-.127-5.16 0zm-1.18-3.016c.2.426.427.966.68 1.618 1.821-.172 3.853-.17 5.68-.08-.107-1.81-.76-3.422-1.96-4.833-.867 1.291-2.333 2.39-4.4 3.295zM9.96 3.962c1.173 1.211 2.26 2.723 3.26 4.533 1.813-.759 3.18-1.724 4.1-2.896-2.231-1.843-4.98-2.29-7.36-1.637zM6.9 18.58c2.4 1.866 5.376 2.218 8.04 1.198a29.322 29.322 0 0 0-1.56-6.61c-2.6.564-5.345 3.17-6.48 5.412zM3.92 9.953c1.17.106 4.368.122 7.64-.859C10.547 7.297 9.433 5.8 8.22 4.601c-2.147 1.085-3.696 3.097-4.3 5.352zm1.84 7.55c1.252-2.45 4.365-5.105 7.1-5.713-.2-.466-.393-.885-.58-1.258-2.772.886-5.932 1.219-8.6 1.079 0 2.13.349 3.932 2.08 5.891zM2 12.01c0-3.747 2.008-6.918 4.98-8.647C13.603-.491 22 4.28 22 12.01c0 3.748-2.008 6.918-4.98 8.648a10.057 10.057 0 0 1-10.04 0C4.005 18.928 2 15.755 2 12.01z" fill="#FFC107"/><mask id="a" maskUnits="userSpaceOnUse" x="2" y="2" width="20" height="21"><path fill-rule="evenodd" clip-rule="evenodd" d="M15.12 12.929c.68 1.97 1.14 3.994 1.38 6.071 2.091-1.348 3.51-3.565 3.78-6.071-2.027-.139-3.388-.127-5.16 0zm-1.18-3.016c.2.426.427.966.68 1.618 1.821-.172 3.853-.17 5.68-.08-.107-1.81-.76-3.422-1.96-4.833-.867 1.291-2.333 2.39-4.4 3.295zM9.96 3.962c1.173 1.211 2.26 2.723 3.26 4.533 1.813-.759 3.18-1.724 4.1-2.896-2.231-1.843-4.98-2.29-7.36-1.637zM6.9 18.58c2.4 1.866 5.376 2.218 8.04 1.198a29.322 29.322 0 0 0-1.56-6.61c-2.6.564-5.345 3.17-6.48 5.412zM3.92 9.953c1.17.106 4.368.122 7.64-.859C10.547 7.297 9.433 5.8 8.22 4.601c-2.147 1.085-3.696 3.097-4.3 5.352zm1.84 7.55c1.252-2.45 4.365-5.105 7.1-5.713-.2-.466-.393-.885-.58-1.258-2.772.886-5.932 1.219-8.6 1.079 0 2.13.349 3.932 2.08 5.891zM2 12.01c0-3.747 2.008-6.918 4.98-8.647C13.603-.491 22 4.28 22 12.01c0 3.748-2.008 6.918-4.98 8.648a10.057 10.057 0 0 1-10.04 0C4.005 18.928 2 15.755 2 12.01z" fill="#fff"/></mask></svg>