<svg width="28" height="21" fill="none" xmlns="http://www.w3.org/2000/svg"><path fill-rule="evenodd" clip-rule="evenodd" d="M3.579 4.481H24.42c1.44 0 2.605-.908 2.605-2.028 0-1.121-1.166-2.03-2.605-2.03H3.58c-1.44 0-2.606.909-2.606 2.03 0 1.12 1.167 2.028 2.606 2.028zM24.42 8.666H3.58c-1.44 0-2.606.908-2.606 2.029 0 1.12 1.167 2.029 2.606 2.029H24.42c1.44 0 2.605-.909 2.605-2.03 0-1.12-1.166-2.028-2.605-2.028zm0 8.242H3.58c-1.44 0-2.606.908-2.606 2.029 0 1.12 1.167 2.029 2.606 2.029H24.42c1.44 0 2.605-.909 2.605-2.03 0-1.12-1.166-2.028-2.605-2.028z" fill="#303133"/></svg>