<svg width="32" height="28" fill="none" xmlns="http://www.w3.org/2000/svg"><path fill-rule="evenodd" clip-rule="evenodd" d="M5.579 7.481H26.42c1.44 0 2.605-.908 2.605-2.028 0-1.121-1.166-2.03-2.605-2.03H5.58c-1.44 0-2.605.909-2.605 2.03 0 1.12 1.166 2.028 2.605 2.028zm20.842 4.185H5.58c-1.44 0-2.605.908-2.605 2.029 0 1.12 1.166 2.029 2.605 2.029H26.42c1.44 0 2.605-.909 2.605-2.03 0-1.12-1.166-2.028-2.605-2.028zm0 8.242H5.58c-1.44 0-2.605.908-2.605 2.029 0 1.12 1.166 2.029 2.605 2.029H26.42c1.44 0 2.605-.909 2.605-2.03 0-1.12-1.166-2.028-2.605-2.028z" fill="#fff"/><mask id="a" maskUnits="userSpaceOnUse" x="2" y="3" width="28" height="21"><path fill-rule="evenodd" clip-rule="evenodd" d="M5.579 7.989H26.42c1.44 0 2.605-1.022 2.605-2.283 0-1.26-1.166-2.282-2.605-2.282H5.58c-1.44 0-2.605 1.022-2.605 2.282S4.14 7.99 5.579 7.99zM26.42 19.4H5.58c-1.44 0-2.605 1.022-2.605 2.282s1.166 2.283 2.605 2.283H26.42c1.44 0 2.605-1.022 2.605-2.283 0-1.26-1.166-2.282-2.605-2.282zm0-7.989H5.58c-1.44 0-2.605 1.022-2.605 2.283 0 1.26 1.166 2.282 2.605 2.282H26.42c1.44 0 2.605-1.022 2.605-2.282s-1.166-2.283-2.605-2.283z" fill="#fff"/></mask></svg>