<svg width="28" height="28" fill="none" xmlns="http://www.w3.org/2000/svg"><path d="M14 1.75c6.754 0 12.25 5.496 12.25 12.25S20.754 26.25 14 26.25 1.75 20.754 1.75 14 7.246 1.75 14 1.75zM14 0C6.269 0 0 6.269 0 14s6.269 14 14 14 14-6.269 14-14S21.731 0 14 0zm7.805 18.68l-.079-.238c-.184-.55-.793-1.125-1.353-1.279l-2.07-.565c-.56-.152-1.36.053-1.772.465l-.748.748a7.95 7.95 0 0 1-5.59-5.592l.748-.748c.41-.41.615-1.21.463-1.773l-.564-2.07c-.152-.56-.73-1.168-1.28-1.353l-.236-.078c-.552-.185-1.34.001-1.75.413l-1.12 1.121c-.2.199-.329.768-.329.77a13.245 13.245 0 0 0 3.873 9.502 13.23 13.23 0 0 0 9.47 3.87c.018 0 .604-.124.804-.324l1.121-1.122c.41-.408.595-1.196.412-1.746z" fill="#303133"/></svg>