<svg width="24" height="24" fill="none" xmlns="http://www.w3.org/2000/svg"><path d="M17.797 12.349a4.95 4.95 0 012.357-4.152 5.066 5.066 0 00-3.991-2.158c-1.68-.176-3.308 1.005-4.163 1.005-.873 0-2.19-.987-3.609-.958a5.315 5.315 0 00-4.473 2.728c-1.934 3.348-.491 8.27 1.362 10.976.926 1.325 2.01 2.806 3.427 2.753 1.387-.057 1.905-.884 3.58-.884 1.658 0 2.144.884 3.59.85 1.489-.023 2.427-1.33 3.321-2.668a10.963 10.963 0 001.519-3.093 4.781 4.781 0 01-2.92-4.4z" fill="#fff"/><path d="M15.066 4.49A4.872 4.872 0 0016.18 1a4.957 4.957 0 00-3.207 1.66 4.635 4.635 0 00-1.144 3.361 4.1 4.1 0 003.237-1.53z" fill="#fff"/></svg>