<svg width="24" height="24" fill="none" xmlns="http://www.w3.org/2000/svg"><path d="M3.362 2.316a1.556 1.556 0 00-.36 1.092v17.184c-.023.397.106.787.36 1.092l.058.056 9.627-9.626v-.228L3.42 2.26l-.058.056z" fill="url(#paint0_linear)"/><path d="M16.255 15.324l-3.208-3.21v-.227l3.209-3.21.072.042 3.802 2.16c1.086.617 1.086 1.626 0 2.244l-3.802 2.16-.073.041z" fill="url(#paint1_linear)"/><path d="M16.328 15.282L13.046 12l-9.684 9.684a1.264 1.264 0 001.615.048l11.351-6.45z" fill="url(#paint2_linear)"/><path d="M16.328 8.718L4.977 2.268a1.264 1.264 0 00-1.615.048L13.046 12l3.282-3.282z" fill="url(#paint3_linear)"/><path opacity=".2" d="M16.256 15.21L4.977 21.618a1.294 1.294 0 01-1.557.008l-.058.058.058.056a1.294 1.294 0 001.557-.008l11.351-6.45-.072-.072z" fill="#fff"/><path opacity=".12" d="M3.362 21.571a1.556 1.556 0 01-.36-1.092v.114c-.023.396.106.787.36 1.091l.058-.057-.058-.056zM20.13 13.008l-3.874 2.202.072.072 3.802-2.16a1.363 1.363 0 00.814-1.121 1.446 1.446 0 01-.814 1.008z" fill="#fff"/><path opacity=".25" d="M4.978 2.382l15.152 8.61A1.446 1.446 0 0120.945 12a1.363 1.363 0 00-.815-1.122L4.978 2.268c-1.086-.616-1.975-.104-1.975 1.14v.114c0-1.244.889-1.757 1.975-1.14z" fill="#010D1E"/><defs><linearGradient id="paint0_linear" x1="12.193" y1="3.226" x2="-.848" y2="16.267" gradientUnits="userSpaceOnUse"><stop stop-color="#00A0FF"/><stop offset=".007" stop-color="#00A1FF"/><stop offset=".26" stop-color="#00BEFF"/><stop offset=".512" stop-color="#00D2FF"/><stop offset=".76" stop-color="#00DFFF"/><stop offset="1" stop-color="#00E3FF"/></linearGradient><linearGradient id="paint1_linear" x1="21.544" y1="12.001" x2="2.743" y2="12.001" gradientUnits="userSpaceOnUse"><stop stop-color="#FFE000"/><stop offset=".409" stop-color="#FFBD00"/><stop offset=".775" stop-color="orange"/><stop offset="1" stop-color="#FF9C00"/></linearGradient><linearGradient id="paint2_linear" x1="14.545" y1="13.783" x2="-3.139" y2="31.467" gradientUnits="userSpaceOnUse"><stop stop-color="#FF3A44"/><stop offset="1" stop-color="#C31162"/></linearGradient><linearGradient id="paint3_linear" x1=".924" y1="-3.404" x2="8.82" y2="4.492" gradientUnits="userSpaceOnUse"><stop stop-color="#32A071"/><stop offset=".069" stop-color="#2DA771"/><stop offset=".476" stop-color="#15CF74"/><stop offset=".801" stop-color="#06E775"/><stop offset="1" stop-color="#00F076"/></linearGradient></defs></svg>