<svg width="1920" height="1026" viewBox="0 0 1920 1026" fill="none" xmlns="http://www.w3.org/2000/svg">
<g clip-path="url(#clip0_1715_11448)">
<rect width="1920" height="1026" fill="#F2F5F7"/>
<mask id="mask0_1715_11448" style="mask-type:alpha" maskUnits="userSpaceOnUse" x="220" y="185" width="2132" height="1412">
<path d="M1401.16 415.351C1278.63 292.824 1112 219.307 925.756 219.307C739.515 219.307 572.879 295.274 450.352 415.351C327.824 537.878 254.308 704.515 254.308 890.756C254.308 1077 330.275 1243.63 450.352 1366.16C572.879 1488.69 739.515 1562.2 925.756 1562.2C1112 1562.2 1278.63 1486.24 1401.16 1366.16C1523.69 1243.63 1597.2 1077 1597.2 890.756C1597.2 704.515 1523.69 537.878 1401.16 415.351ZM925.756 185C1121.8 185 1298.24 263.417 1425.67 390.845C1553.1 518.273 1631.51 694.713 1631.51 890.756C1631.51 1086.8 1553.1 1263.24 1425.67 1390.67C1298.24 1518.09 1121.8 1596.51 925.756 1596.51C729.712 1596.51 553.274 1518.09 425.846 1390.67C298.418 1263.24 220 1086.8 220 890.756C220 694.713 298.418 518.273 425.846 390.845C553.274 263.417 729.712 185 925.756 185Z" fill="#E41D32"/>
<path fill-rule="evenodd" clip-rule="evenodd" d="M1663.4 197.345C2043.23 197.345 2352 506.113 2352 885.947C2352 1265.78 2043.23 1574.55 1663.4 1574.55C1283.56 1574.55 974.795 1265.78 974.795 885.947C974.795 506.113 1283.56 197.345 1663.4 197.345Z" fill="#E41D32"/>
</mask>
<g mask="url(#mask0_1715_11448)">
<rect width="2267" height="1080" transform="matrix(-1 0 0 1 2267 -17.998)" fill="#EAEFF2"/>
</g>
</g>
<defs>
<clipPath id="clip0_1715_11448">
<rect width="1920" height="1026" fill="white"/>
</clipPath>
</defs>
</svg>
