<svg width="234" height="242" fill="none" xmlns="http://www.w3.org/2000/svg"><path d="M103.598 122.603c0 11.538-22.637 20.912-50.708 20.912-28.071 0-50.709-9.374-50.709-20.912 0-11.537 22.638-20.912 50.709-20.912 28.07-.18 50.708 9.194 50.708 20.912zm0 0v96.447M2 122.603v96.447c0 7.03 8.512 13.34 21.551 17.126 8.15 2.343 18.292 3.786 29.158 3.786h.362m29.52-3.967v-14.241m0-60.212v-21.993l-8.512-8.112m8.512 44.708v31.187m-29.52 32.63V225.72m0 14.242c11.047 0 21.189-1.443 29.338-3.967 12.678-3.785 21.008-10.095 21.008-16.945m-50.346 6.67h-.362c-10.867 0-21.008-1.442-29.158-3.786C10.511 218.148 2 211.839 2 204.808m51.07 20.912c11.048 0 21.19-1.442 29.34-3.966 12.677-3.786 21.007-10.095 21.007-16.946m-50.346-39.119v-22.174l1.087-9.915m-1.087 46.511v31.187m-29.339 24.878v-14.242m0-60.211v-21.994l7.788-8.292m-7.788 44.888v31.187M2 190.206c0 7.031 8.512 13.34 21.551 17.126 8.15 2.344 18.292 3.786 29.158 3.786h.362c11.047 0 21.189-1.442 29.338-3.966 12.678-3.786 21.008-10.096 21.008-16.946M2 144.597c0 7.03 8.512 13.34 21.551 17.126 8.15 2.343 18.292 3.785 29.158 3.785h.362c11.047 0 21.189-1.442 29.338-3.966 12.678-3.785 21.008-10.095 21.008-16.945M2 159.019c0 7.03 8.512 13.34 21.551 17.126 8.15 2.343 18.292 3.785 29.158 3.785h.362c11.047 0 21.189-1.442 29.338-3.966 12.678-3.785 21.008-10.095 21.008-16.945m.181 52.279c11.591 0 21.552-7.932 24.268-19.109 10.504-44.888 39.299-153.233 74.252-155.757 14.669-1.081 14.307 21.813 21.732 18.93C232 52.115 232 25.435 232 25.435 232 14.078 224.937 2 209.543 2c-66.645 0-78.779 155.576-105.945 155.576M6.165 114.311l10.867 4.687m10.684-14.602l6.158 8.833m20.283-11.718l-1.267 9.915m16.48 1.262l6.882-8.653m10.866 14.061l12.315-3.785M52.89 133.6c-25.174 0-38.756-7.932-39.843-11.177 1.087-3.245 14.488-11.177 39.843-11.177 25.173 0 38.756 7.932 39.842 11.177-1.267 3.245-14.669 11.177-39.842 11.177zM209.543 13.718c-6.157 0-11.771 1.983-17.023 5.408-1.449 1.082-2.174 2.884-1.268 4.687a3.597 3.597 0 0 0 4.346 1.983c1.811-.54 3.804-.901 5.615-.901 5.795-.36 10.322 1.081 13.944 3.425 1.087.721 2.355.721 3.26.18 1.087-.54 1.63-1.622 1.63-2.884 0-3.245-1.086-6.31-2.716-8.473-1.811-2.344-4.347-3.425-7.788-3.425z" stroke="url(#paint0_linear)" stroke-width="3" stroke-miterlimit="10" stroke-linecap="round" stroke-linejoin="round"/><defs><linearGradient id="paint0_linear" x1="117" y1="2" x2="341.749" y2="183.025" gradientUnits="userSpaceOnUse"><stop stop-color="#F4A261"/><stop offset="1" stop-color="#E9C46A"/></linearGradient></defs></svg>