<svg width="311" height="329" fill="none" xmlns="http://www.w3.org/2000/svg"><path d="M187.008 79.226c89.48 33.481 7.286 184.148 43.945 210.704 0 0-15.261 12.179-23.294 12.33-8.102.336-16.04-10.421-24.234-10.962-7.94-.656-17.378 8.862-25.479 7.514-8.102-1.348-13.692-13.332-21.702-15.487-7.825-2.086-18.804 5.381-26.537 2.488-7.733-2.894-11.114-15.734-18.386-19.297-7.457-3.632-19.725 1.669-26.537-2.564-7.065-4.117-7.753-17.423-14.289-22.394-6.535-4.971-19.586-2.067-25.477-7.639-5.96-5.387-9.478-24.593-9.478-24.593 44.834 4.148 81.989-163.582 171.468-130.1zm0 0c-12.29-2.494-25.227 12.448-25.227 12.448m25.227-12.448s19.34-34.857 41.986-26.383c8.838 3.306 6.764 12.212 5.659 15.166-3.799 10.154-35.192 2.617-39.751 14.802m-60.698 29.273c3.729-3.235 7.366-5.663 10.865-7.721m-64.574 78.335c2.832-4.202 5.664-8.404 8.565-12.791 8.771-13.345 18.141-27.728 28.247-40.152m81.664-17.43s2.466-17.809-8.349-31.537" stroke="url(#paint0_linear)" stroke-width="3" stroke-miterlimit="10" stroke-linecap="round" stroke-linejoin="round"/><defs><linearGradient id="paint0_linear" x1="200.825" y1="42.302" x2="363.658" y2="292.202" gradientUnits="userSpaceOnUse"><stop stop-color="#F4A261"/><stop offset="1" stop-color="#E9C46A"/></linearGradient></defs></svg>