<svg width="268" height="303" fill="none" xmlns="http://www.w3.org/2000/svg"><path d="M163.498 46.828c-13.809-23.919-44.559-32.299-68.644-18.393-23.919 13.81-32.298 44.56-18.393 68.644l26.947 46.674-41.9-12.35m82.849 83.276l-21.193-36.709m125.179 15.43s20.174 26.887 5.723 35.23m-5.723-35.23l-7.309 4.219m7.309-4.219L163.664 46.732m77.37 150.887l-98.83 57.06-35.099-60.793-57.634-35.381c-2.051-1.251-3.796-3.123-5.043-5.282-4.123-7.143-1.666-16.313 5.476-20.436 3.654-2.11 7.84-2.533 11.77-1.48m179.36 66.312l-8.969 5.179s6.388 34.847 20.839 26.504m-12.521-49.689l-106.139 61.279m67.925-73.765l-40.695 23.495m-6.901-59.134l20.644 14.658 10.012-22.169 10.131 31.357-40.695 23.495-21.924-24.548 24.204 2.413-2.372-25.206z" stroke="url(#paint0_linear)" stroke-width="3" stroke-miterlimit="10" stroke-linecap="round" stroke-linejoin="round"/><defs><linearGradient id="paint0_linear" x1="70.954" y1="42.233" x2="295.313" y2="31.797" gradientUnits="userSpaceOnUse"><stop stop-color="#F4A261"/><stop offset="1" stop-color="#E9C46A"/></linearGradient></defs></svg>