<svg width="245" height="217" fill="none" xmlns="http://www.w3.org/2000/svg"><path d="M100.926 98.934s4.561 3.104 5.109 6.939c.547 3.835-2.737 8.218-2.737 8.218m2.189 13.515l-2.372.365h-.182c-3.649.548-7.116 2.191-9.852 4.383-6.204 4.748-9.488 12.601-8.21 20.819.912 5.478 3.831 10.227 7.662 13.514 1.095.913 2.19 1.644 3.467 2.374.547.365 1.095.548 1.642.731a28.88 28.88 0 0 0 5.656 1.643m0 0c2.189.365 4.561.365 6.75 0l122.058-20.636m-128.808 20.636c-11.494 2.374-19.157 13.332-17.333 25.02.912 5.296 3.65 9.861 7.48 13.148m138.661-58.804l.73-.183c5.838-.913 9.852-6.574 8.94-12.418-.912-5.844-6.568-9.862-12.406-8.949l-122.788 20.819a.392.392 0 0 1-.365-.365c0-.183 0-.365.182-.365l124.978-20.454c5.838-.913 9.852-6.575 8.939-12.419-.912-5.843-6.568-9.861-12.406-8.948l-29.192 4.748h-.365m33.753 38.534c4.744.548 8.575 4.2 9.305 8.948.912 5.844-3.101 11.505-8.94 12.419l-124.977 20.453c-.182 0-.182.183-.182.366 0 .182.182.365.365.365l122.787-20.637c5.839-.913 11.495 3.105 12.407 8.949.912 5.844-3.102 11.505-8.94 12.418l-122.788 20.637c-4.379.73-8.575 0-12.406-1.644-.73-.365-1.277-.548-1.825-.913-1.095-.73-2.372-1.644-3.466-2.557m7.662-66.657s4.562 3.104 5.109 6.94c.547 3.835-2.737 8.218-2.737 8.218m-10.034 51.499l-83.014-70.675c-3.65-3.104-6.204-7.305-7.116-12.418-1.46-9.679 4.014-18.993 12.954-22.463m85.751 81.998s4.561 3.105 5.108 6.94c.548 3.835-2.736 8.218-2.736 8.218m131.18-135.872L143.436 3.787c-.364-.365-.729-.548-1.094-.73-.183 0-.183-.183-.365-.183-1.642-.73-3.649-1.096-5.656-.73L19.554 21.318h-.182C8.242 23.145.579 33.737 2.222 44.877c.912 5.296 3.83 9.68 7.662 12.784l6.933 5.478m76.081 59.901l-76.08-59.9m0 0C7.147 66.06.761 75.922 2.403 86.15c.912 5.113 3.466 9.496 7.298 12.601l6.568 5.296m76.446 62.64l-76.446-62.64m131.545-5.479c0 .183-.182.366-.365.548m85.386 7.488l-33.935 5.661h-.365l-88.305 14.975c-1.46.183-2.919.366-4.379.183-2.737-.183-5.473-.731-8.028-1.826-.547-.183-.912-.366-1.46-.731-1.094-.548-2.189-1.278-3.283-2.191-4.197-3.288-7.116-8.036-8.028-13.697-.912-6.209.73-12.236 4.196-16.801a21.661 21.661 0 0 1 13.866-8.401h.183l124.794-20.454c2.19-.365 4.197 0 6.204.73.182 0 .182.183.365.183.364.183.912.365 1.277.73 2.372 1.644 4.196 4.201 4.743 7.306.913 5.844-3.101 11.505-8.94 12.418l-83.378 13.697-41.964 6.939c-.182 0-.364.183-.182.366 0 .182.182.365.365.365l122.788-20.82c5.838-.912 11.494 3.105 12.406 8.95.912 6.026-3.102 11.505-8.94 12.418z" stroke="url(#paint0_linear)" stroke-width="3" stroke-miterlimit="10" stroke-linecap="round" stroke-linejoin="round"/><defs><linearGradient id="paint0_linear" x1="122.5" y1="2" x2="328.044" y2="195.804" gradientUnits="userSpaceOnUse"><stop stop-color="#F4A261"/><stop offset="1" stop-color="#E9C46A"/></linearGradient></defs></svg>