<svg width="235" height="234" fill="none" xmlns="http://www.w3.org/2000/svg"><path d="M140.192 116.602c1.393-2.779 2.613-5.906 3.658-9.032 1.045-2.953 1.742-5.733 2.439-8.512 1.916-7.643 2.787-13.549 2.787-13.549s-5.923.869-13.588 2.78c-2.613.694-5.575 1.563-8.536 2.431-3.136 1.043-6.098 2.259-9.059 3.648m60.799-57.148c12.195-4.517 25.26-6.427 25.26-6.427s-.522 3.647-1.568 8.858c-1.045 4.69-2.613 10.77-4.703 16.502m0 0c-1.917.348-3.833.695-5.923 1.043-11.15 2.258-24.215 7.121-23.693 16.502 0 .694.174 1.39.349 2.084m29.267-19.629c5.749-.868 10.104-1.042 10.104-1.042s-2.265 9.728-6.446 19.108c-4.878 10.943-15.505 19.454-25.609 12.854l2.788 2.084m-84.144 37.694a20.91 20.91 0 0 1-2.787-1.39m0 0C57.617 106.528 116.5 80.646 116.5 80.646s3.659 26.576-2.961 40.299c13.762-6.601 40.416-2.953 40.416-2.953s-25.957 58.712-44.772 25.013m-17.595-17.544l12.369-22.408m5.226 39.952c-.522-1.042-1.045-1.91-1.393-2.779m1.393 2.779l22.473-12.333m18.989-12.854c9.582-7.295 28.048-10.248 35.19-11.117m0 0h.349c1.568-.173 2.613-.347 2.613-.347s-.174.868-.523 2.432c-.696 2.779-1.742 7.469-3.484 12.68m1.045-14.765c-1.916-1.911-3.484-4.516-5.052-7.643m5.052 7.643l.175-.174c5.574-4.168 15.33-5.037 24.563-4.863 11.15.347 21.428 2.432 21.428 2.432s-11.149 21.018-23.692 30.05m-62.542-.694c1.046 2.258 2.613 4.69 5.052 7.295m0 0c5.401 5.906 10.279 7.991 14.46 7.296 4.007-.521 7.491-3.474 10.452-7.47.697-1.042 1.394-2.084 2.091-3.3m-27.003 3.474l18.989-17.197m-18.989 17.197s-1.916 11.812-17.246 15.112M113.189 50.247c0-.173 0-.173 0 0zm0 0c5.226-1.737 10.104-2.953 12.717-3.474 1.568-.347 2.439-.52 2.439-.52s-.174 1.041-.348 2.605v.347c-.348 3.127-1.219 8.164-2.439 13.723m-12.369-12.68c8.188-9.728 13.763-25.361 13.763-25.361s-14.634-1.043-26.654 1.737m12.891 23.624c-.522.694-1.219 1.39-1.742 1.91-4.355 4.517-9.233 7.122-14.285 5.038-.697-.348-1.568-.695-2.265-1.216m6.272 33.003c-2.265-1.042-4.704-2.605-7.317-5.037m0 0c-5.923-5.385-8.014-10.248-7.317-14.417.523-3.996 3.484-7.47 7.491-10.423 1.045-.695 2.09-1.39 3.31-2.084m-3.484 26.924l17.247-18.934M93.852 83.946s-12.195 1.563-14.982 18.239m128.218 36.304c.523-1.39.871-2.779 1.22-4.169 2.787-11.985 1.742-26.577 1.742-26.577s-15.679 5.559-25.435 13.723c-.697.521-1.394 1.216-1.916 1.737-4.53 4.343-7.143 9.206-5.052 14.244.348.695.696 1.563 1.219 2.258M96.116 27.84c1.394-.521 2.788-.869 4.182-1.216m0 0C109.357 14.117 130.61 3 130.61 3s2.091 10.248 2.439 21.366c.174 9.032-.697 18.933-4.878 24.492l-.174.174m62.367 20.497l-12.717 10.77m0 0c-.175.694-.523 1.389-.697 2.257 0 .348-.174.522-.174.869-2.614 8.685-7.143 21.713-13.937 28.314m14.808-31.44c.871-3.475 1.393-5.907 1.393-5.907s-1.219.174-3.135.348c-.871.173-1.917.173-3.136.347-1.394.174-2.788.347-4.53.695l-3.135.521c-4.007.869-8.362 1.91-12.544 3.3m-3.658-15.112c1.916 2.258 10.453 2.085 12.195 2.258 9.407.521 14.285-12.506 16.55-23.623 1.742-8.338 2.09-15.807 2.09-15.807s-9.756 2.258-19.163 6.427m0 0c-7.839 3.474-15.505 8.511-16.724 14.59m16.724-14.59c.523-13.202-2.439-27.272-2.439-27.272s-14.982 7.817-25.26 17.892m10.975 23.97c-1.394.87-3.31 2.085-5.575 3.822-.174.174-.522.348-.697.521-.696.348-1.219.869-1.916 1.39m8.188-5.732c.871-.695 1.568-.869 1.568-.869s.348 1.042.697 3.127c.174.868.522 1.91.697 2.953a64.272 64.272 0 0 1 1.393 7.47c.523 3.473 1.917 13.722 2.439 19.28m14.634-35.783L149.076 66.75m52.089 7.47c13.24-.521 27.351 2.431 27.351 2.431s-8.014 15.113-17.944 25.188m-29.79-2.78c-1.742-3.474-1.916-7.816-2.09-10.422m2.09 10.422l23.867-11.29m-68.813-33.7c-.174 0-.174 0 0 0zm0 0c-3.484-1.562-5.923-3.3-7.839-5.036m0 0l-.174-.174m19.163-18.586l-11.324 23.797m0 0c-3.136 2.432-6.794 5.385-10.104 8.685-6.097 5.906-11.149 12.68-11.149 18.934m-13.066 74.866c13.762-5.385 39.371.521 40.765.869m0 0s-4.878 8.685-11.672 17.023c-10.627 12.854-25.783 25.013-35.365 3.647-2.09-4.69-2.787-8.337-2.439-11.464m49.476-9.206c6.794-1.564 15.156-1.216 22.299-.521m-45.643 10.769L95.246 177.92s-34.494-.869-47.734 8.859l36.758-36.652M78 133.104c5.4-13.722-.523-39.257-.871-40.647 0 0-8.71 4.864-17.073 11.639m0 0c-12.891 10.596-25.086 25.708-3.658 35.262m3.658-35.262c-1.742-.348-3.484-1.043-5.574-1.911m1.916 37.173c4.703 2.084 8.362 2.779 11.498 2.431m-11.498-2.431l10.453-23.45m-10.453 23.45s-.871 35.261-8.885 47.594m83.098-12.506c.349 1.737 1.045 3.474 1.916 5.558m0 0c10.976 24.666 29.442 4.864 39.72-9.38m-39.72 9.38l23.519-10.422m16.201 1.042c4.355-6.079 7.317-11.291 7.317-11.291s-.871-.173-2.439-.521m-4.878 11.812c18.292 18.413 40.068-31.614 40.068-31.614s-1.916-.174-5.052-.521c-1.916-.174-4.355-.347-6.968-.347h-4.704c-1.742 0-3.484 0-5.4.173m-13.066 20.497c-2.613-.521-7.317-1.389-12.717-1.91m12.717 1.91l12.717-7.121m-25.434 5.211c-.871-3.648-.523-6.427.697-8.859M54.481 102.185c-24.738-10.77-4.878-29.356 9.407-39.605m-9.407 39.605l10.452-23.45M63.888 62.58c6.097-4.342 11.324-7.295 11.324-7.295s.174.868.522 2.432M63.888 62.58C45.422 44.342 95.594 22.63 95.594 22.63s.174 1.91.523 5.037c.174 1.91.348 4.342.348 6.948v4.69c0 1.737 0 3.474-.174 5.385M75.734 57.717c.523 2.605 1.394 7.295 1.916 12.68m-1.916-12.68l7.143-12.68m-5.227 25.36c.697 7.122 1.046 15.46-.522 22.234m.522-22.234c3.659.869 6.446.521 8.885-.695m103.655 68.613c-3.833.174-7.665.695-11.15 1.39-1.219.347-2.439.521-3.484.868m14.634-2.258l6.968-7.643M96.291 44.689c-.174 3.821-.697 7.643-1.394 11.117-.348 1.216-.523 2.432-.87 3.474M96.29 44.69l7.665-3.474m55.921 50.2l-14.982 12.681m8.014-24.493s-10.104 1.564-16.027 8.512m-23.17 32.83s-1.568.868-3.136 2.258m-62.541 10.77s.174 36.651-6.794 46.9l12.194 12.159c10.279-6.774 47.037-6.774 47.037-6.774m-46.862 6.774L17.025 229.51a8.85 8.85 0 0 1-12.544 0c-3.31-3.301-3.31-8.685 0-11.812l36.933-36.825m-7.665 7.469l12.368 12.333m-28.396 3.648l12.37 12.333m-20.035-4.517l12.195 12.16m104.7-117.424l-12.543 12.507m21.427-48.464l-3.31 14.765m53.308-36.652l-12.891 15.46m-61.322 58.538s-9.407 66.703-38.152 38.042c-28.744-28.662 38.152-38.042 38.152-38.042z" stroke="url(#paint0_linear)" stroke-width="3" stroke-miterlimit="10"/><defs><linearGradient id="paint0_linear" x1="117" y1="3" x2="334.997" y2="185.366" gradientUnits="userSpaceOnUse"><stop stop-color="#F4A261"/><stop offset="1" stop-color="#E9C46A"/></linearGradient></defs></svg>