<svg width="234" height="237" fill="none" xmlns="http://www.w3.org/2000/svg"><path d="M67.134 189.477c-5.119 4.764-8.296 11.646-8.296 19.056 0 6.176 2.118 11.822 5.649 16.233m0 0c4.766 6.176 12.356 10.058 20.652 10.058m-20.652-10.058l-58.25-73.753A19.598 19.598 0 0 1 2 138.838c0-5.646 2.295-10.587 6.178-14.292L117.971 20.444c1.765-1.588 3.883-2.47 6.354-2.293 2.295.176 4.413 1.235 5.825 3.175l43.6 55.404c3.001 3.705 2.648 9.175-.883 12.35L66.957 189.478m32.833-31.054H191.4c4.237 0 7.591 3.353 7.591 7.587m0 0v61.05a7.91 7.91 0 0 1-7.944 7.94H85.315m113.677-68.99h20.122m0 62.638h-20.299M188.048 61.026L171.985 74.26m-23.83-61.58l-15.004 12.352m15.004-12.351l39.893 48.169c2.294 2.823 6.354 3.176 9.178.882 2.648-2.117 3.001-6.352 1.059-9.175l-40.069-48.17c-2.294-2.822-6.354-3.175-9.178-.881-2.825 2.293-3.178 6.352-.883 9.175zm-97.79 160.211l-30.184-38.289m22.241 48.875L12.238 145.19m60.898 5.999l-30.184-38.288m52.954 16.586L65.722 91.375m52.955 16.585L88.669 69.672m52.955 16.586L111.44 47.97M62.898 162.834l-30.184-38.111m52.954 16.585L55.484 103.02m53.132 16.586L78.431 81.317m52.955 16.586l-30.184-38.112m52.955 16.586l-30.185-38.288m62.31 145.389v34.407m-14.297-34.407v34.407m-14.122-34.407v34.407m-14.297-34.407v34.407m-14.298-34.407v34.407m-14.121-34.407v34.407m-14.298-34.407v34.407m-14.121-6.528v-33.701M72.43 211.18v-20.115M225.469 235c-3.53 0-6.531-2.823-6.531-6.528V166.01c0-3.528 2.824-6.528 6.531-6.528 3.53 0 6.531 2.823 6.531 6.528v62.638c0 3.529-2.824 6.352-6.531 6.352z" stroke="url(#paint0_linear)" stroke-width="3" stroke-linecap="round" stroke-linejoin="round"/><defs><linearGradient id="paint0_linear" x1="117" y1="2" x2="338.006" y2="183.8" gradientUnits="userSpaceOnUse"><stop stop-color="#F4A261"/><stop offset="1" stop-color="#E9C46A"/></linearGradient></defs></svg>