<svg width="233" height="233" fill="none" xmlns="http://www.w3.org/2000/svg"><path d="M142.892 67.443c-.52-2.955-.52-5.736.694-7.822 5.547-9.56 9.187 7.474 12.828 3.65 3.987-3.997-1.907-15.469 4.333-21.9 5.721-5.736 10.575.348 11.268 7.822.174 1.39 3.294 2.954 4.854.173.52-.869 8.321-20.162 16.989-11.297a255.28 255.28 0 0 0 1.04 1.042c8.841 8.865-10.401 16.686-11.268 17.034-2.774 1.564-1.387 4.693.173 4.867 7.281.695 13.522 5.736 7.801 11.298-6.414 6.43-17.855.521-21.842 4.345-3.814 3.824 13.348 7.474 3.64 12.862-2.08 1.217-4.854 1.217-7.801.695m0 0c-.52-5.562-3.813-9.733-9.361-6.257-1.56 1.043-2.773 2.607-3.64 4.171-2.947 5.736-1.907 13.905-5.547 16.165-1.734 1.043-2.774-.695-3.814-2.955m22.362-11.124v.522c0 1.043 0 2.26-.173 3.476-.173 1.39 2.6 3.65 4.68 1.217.694-.696 12.655-17.73 19.243-6.953 0 .174.346.348.52.695.173.348.346.696.52.696 1.04 1.738 1.386 3.302 1.213 4.519-.173.869-.52 1.738-1.04 2.607-1.734 2.433-5.374 4.171-8.668 5.214-3.293 1.043-6.24 1.565-6.587 1.565-3.12.869-2.427 4.171-1.04 4.692 6.934 2.434 11.788 8.691 4.854 12.863-3.814 2.259-7.974 1.39-11.962.347-4.16-1.216-7.974-2.607-10.401-1.216-3.64 2.259 5.548 7.473 4.161 10.95m-74.195 4.171c-.173-2.433-.694-5.04-1.213-7.3-1.04-5.04-2.08-9.907-.174-13.21 6.067-10.602 10.055 8.17 14.215 3.998 2.08-2.086 1.56-6.257 1.387-10.776-.173-2.608-.173-5.215.52-7.822.52-1.912 1.387-3.824 2.947-5.388 1.04-1.043 1.907-1.564 2.774-2.086 1.56-.695 2.947-.521 4.333.174 1.561.87 2.947 2.607 3.987 4.693.694 1.738 1.214 3.65 1.387 5.736.174 1.564 3.641 3.302 5.374.174.174-.348 1.56-3.65 3.814-7.127 1.907-3.128 4.507-6.257 7.454-7.3 2.427-.869 4.854-.695 7.628 2.086l.52.521.52.522c2.6 2.607 2.947 5.214 2.08 7.648-1.214 2.954-4.334 5.561-7.281 7.473-3.467 2.26-6.761 3.65-7.107 3.824-3.121 1.738-1.387 5.215.173 5.388 2.08.174 3.987.696 5.721 1.391 2.253.869 3.987 2.26 4.68 3.998.694 1.216.867 2.781.174 4.345-.347.869-1.041 1.912-2.081 2.781-1.56 1.564-3.467 2.433-5.374 2.955-2.427.695-5.2.521-7.8.521-4.508-.174-8.668-.695-10.748 1.391-4.161 4.171 14.561 8.169 3.987 14.252-3.294 1.912-8.148.869-13.175-.174-2.427-.521-4.854-1.042-7.28-1.216m-21.15 37.369c.347 1.738 1.387 3.303 2.774 4.172 6.934 4.171 11.441 13.036 17.335 13.557 11.095.869-1.04-11.819 4.161-12.862 5.547-1.043 11.614 10.255 20.455 8.691 2.774-.522 4.161-1.738 4.854-3.303 1.213-2.955-1.04-7.3-4.854-10.428-1.213-.869-.693-4.52 2.6-4.172 1.041.174 21.323 4.345 18.896-7.821 0-.174-.174-.522-.174-.87 0-.347-.173-.695-.173-.869-.347-1.912-1.213-3.302-2.253-4.171-.521-.348-.867-.695-1.561-.869-3.12-1.217-7.28.174-10.747 1.738-1.387.521-2.427 1.217-3.468 1.738m-75.755-12.514c-1.733-.348-3.293-1.391-4.16-2.781-4.16-6.953-13.001-11.472-13.521-17.382-.867-11.124 11.788 1.043 12.828-4.171 1.04-5.562-10.228-11.645-8.668-20.51.52-2.781 1.733-4.171 3.294-4.867 2.947-1.216 7.28 1.043 10.4 4.867.868 1.217 4.508.695 4.161-2.607 0-1.043-4.334-21.379 7.974-19.12.174 0 .52.174.867.174s.694.174.867.174c1.907.348 3.294 1.217 4.16 2.26.347.521.694.869.867 1.564 1.214 3.129-.173 7.3-1.733 10.776-.52 1.391-1.214 2.434-1.734 3.477m54.433 58.401c0-.174.173-.174.173-.348m-.173.348l-.173-.174c.173 0 .173-.174.346-.174m-.173.348c1.56 1.216 3.12 1.911 4.854 2.085h1.213c2.08 0 3.121-.695 3.467-1.738.694-1.912-.867-5.04-1.56-7.474-.52-1.912-.693-3.302 1.04-3.65.867-.174 1.734 0 2.6.348 2.774 1.043 5.721 3.824 9.015 6.083 1.907 1.217 3.814 2.086 5.894 2.434m-26.35 1.564c2.774-6.257 1.734-13.036-5.72-11.645-1.907.347-3.294 1.216-4.681 2.259m0 0c-5.027 4.172-6.761 12.515-11.095 13.384-1.386.347-2.08-.696-2.253-2.26m13.348-11.124c-.867-.695-1.56-1.217-2.427-1.738a6.099 6.099 0 0 1-2.774-3.998l-.173-.695c-.173-1.043-.173-2.086.173-2.955M66.79 114.198c.174 0 .174-.174.347-.174m-.347.174l.174.174c0-.174.173-.174.173-.348m-.347.174c-1.213-1.564-1.906-3.128-2.08-4.866v-1.217c0-2.086.694-3.129 1.734-3.476 1.907-.696 5.027.869 7.454 1.564 1.907.521 3.294.695 3.64-1.043.174-.869 0-1.738-.346-2.607-1.04-2.781-3.814-5.736-6.068-9.038-1.213-1.912-2.08-3.824-2.427-5.91m-1.56 26.419c6.24-2.781 13.002-1.738 11.615 5.736-.347 1.912-1.214 3.303-2.254 4.693-4.16 5.041-12.481 6.779-13.348 11.124-.347 1.391.694 2.086 2.254 2.26m61.366 56.662c.347.174.694.522 1.04.696 9.882 5.04 3.641-11.298 8.841-10.081 5.374 1.216 6.761 14.078 15.602 15.99 7.974 1.738 8.668-6.083 5.374-12.688-.693-1.217 1.214-4.345 3.987-2.781.867.521 17.855 12.341 20.456.174 0-.174.173-.522.173-.869 0-.348.173-.695.173-.869 2.601-12.167-17.855-8.343-18.722-8.169-3.12.347-3.64-3.303-2.427-4.172 1.561-1.217 2.947-2.781 3.814-4.345 2.427-3.998 2.08-8.169-3.64-9.386-1.04-.174-1.907-.174-2.774-.174-1.733.174-3.294.695-4.68 1.391-2.947 1.564-5.721 3.823-8.148 5.388-1.733 1.043-3.294 1.738-4.854 1.564h-.346c-.694-.174-1.041-.348-1.214-.869m-100.37-58.748c-.174-.348-.521-.696-.694-1.043-5.028-9.908 11.268-3.65 10.054-8.865C47.202 91.255 34.374 89.865 32.467 81c-1.734-7.995 6.067-8.69 12.654-5.388 1.214.695 4.334-1.217 2.774-3.998-.52-.869-12.308-17.902-.173-20.51.173 0 .52-.173.866-.173.347 0 .694-.174.867-.174 12.135-2.607 8.321 17.902 8.148 18.772-.347 3.128 3.294 3.65 4.16 2.433 1.214-1.564 2.774-2.955 4.334-3.824 3.987-2.433 8.148-2.086 9.361 3.65.173 1.043.173 1.912.173 2.781-.173 1.738-.693 3.303-1.386 4.693-1.56 2.955-3.814 5.736-5.374 8.17-1.04 1.737-1.734 3.302-1.56 4.866v.348c.173.695.346 1.043.866 1.216m97.771 38.239c1.387-1.564 2.947-2.781 4.854-3.302.52-.174.867-.174 1.387-.348 2.427-.348 3.467.521 3.813 1.738.867 3.476-2.6 10.255 1.214 10.429 2.427 0 4.68-2.434 7.107-5.041 2.427-2.607 5.201-5.562 8.841-6.605.867-.174 1.734-.347 2.774-.347 8.148.174 7.107 7.995 2.254 13.557-1.041 1.043.173 4.519 3.293 3.65.867-.348 20.282-7.995 19.936 4.519v1.738c-.174 12.515-19.242 3.998-20.109 3.65-3.12-1.042-4.334 2.26-3.467 3.477 4.507 5.735 5.2 13.557-2.774 13.557-9.014-.174-12.655-12.688-18.202-12.688-5.374-.174 3.814 14.774-6.761 11.645-1.906-.521-3.64-2.086-5.027-3.998M101.288 67.269c1.56-1.39 2.773-2.955 3.293-4.867.174-.521.174-.869.347-1.39.347-2.434-.52-3.477-1.734-3.824-3.467-.87-10.227 2.607-10.4-1.217 0-2.433 2.426-4.693 5.026-7.126 2.601-2.433 5.548-5.214 6.588-8.864m0 0c.173-.87.347-1.739.347-2.782-.174-8.169-7.975-7.126-13.522-2.259-1.04 1.043-4.507-.174-3.64-3.302.346-.87 7.974-20.337-4.507-19.989h-1.734c-12.308.522-3.987 19.467-3.64 20.336 1.04 3.129-2.254 4.346-3.467 3.476-5.721-4.519-13.522-5.214-13.522 2.781.174 9.039 12.655 12.689 12.655 18.25.173 5.389-14.735-3.823-11.615 6.78.52 1.911 2.08 3.65 3.987 5.04m38.658-28.331c2.08 1.216 3.814 1.911 4.507.173 2.254-5.214-7.627-13.557-3.987-21.9 3.12-7.474 10.054-3.65 13.348 2.955.694 1.39 4.161 1.564 4.507-1.738.174-.87.174-21.727 11.615-16.686.173 0 .52.174.867.347l.693.348c11.441 4.867-3.467 19.293-4.16 19.988-2.081 2.434.52 4.867 1.906 4.52 7.108-2.086 14.562.173 11.442 7.647-.347.696-.694 1.217-1.04 1.738-1.387 1.912-3.467 3.303-5.548 4.172l-2.6 1.043-4.68 1.564c-2.254.87-4.161 1.912-5.028 3.65-.866 2.086 1.56 2.781 4.334 3.476m9.188 70.22c.173 0 .346 0 .52-.173 6.934-1.391 8.321 4.345 6.241 10.081-.347.869-.694 1.738-1.214 2.607-.693 1.217 1.04 4.345 3.987 2.781.347-.174 2.254-1.391 4.681-2.607 2.08-1.043 4.68-2.086 7.107-2.608 1.734-.347 3.294-.347 4.854.174 1.907.696 3.294 2.26 3.814 5.215 0 .173.173.521.173.869 0 .347.173.695.173.869 1.907 9.386-9.881 9.038-15.775 8.343-1.733-.174-2.947-.522-3.12-.522-3.12-.347-3.64 3.129-2.6 3.998 2.947 2.433 5.027 5.736 5.2 8.517m-41.951-65.701c0-.174 0-.348.173-.522 1.387-6.952-4.333-8.343-10.054-6.257-.867.348-1.734.695-2.6 1.217-1.214.695-4.334-1.043-2.774-3.998.173-.348 1.387-2.26 2.6-4.693 1.04-2.085 2.081-4.693 2.601-7.126.346-1.738.346-3.303-.174-4.867-.693-1.912-2.253-3.302-5.2-3.824-.174 0-.52-.174-.867-.174s-.693-.173-.867-.173c-9.36-1.912-9.014 9.907-8.32 15.817.173 1.738.52 2.954.52 3.128.346 3.129-3.121 3.65-3.988 2.607-2.427-2.954-5.72-5.04-8.494-5.214m11.268 50.406c-.867.347-1.907.347-2.947.173l-.694-.173c-1.733-.348-3.12-1.391-3.987-2.781-.52-.869-1.04-1.565-1.733-2.434m55.646-34.415c-2.254-1.042-3.987-2.085-2.947-3.823 2.254-3.65 10.401-2.608 16.122-5.562 1.56-.87 3.12-2.086 4.16-3.65 3.467-5.563-.693-8.865-6.241-9.386h-.52c-1.04 0-2.253 0-3.467.173-1.386.174-3.64-2.607-1.213-4.693.693-.695 17.682-12.688 6.934-19.293-.173 0-.347-.347-.693-.521-.347-.174-.694-.348-.694-.522-1.733-1.042-3.294-1.39-4.507-1.216-.867.174-1.733.521-2.6 1.043-2.427 1.738-4.161 5.388-5.201 8.69-1.04 3.303-1.56 6.258-1.56 6.605-.867 3.129-4.16 2.433-4.681 1.043-2.426-6.952-8.667-11.82-12.828-4.867-2.253 3.824-1.386 7.996-.346 11.993 1.213 4.172 2.6 7.996 1.213 10.43-2.253 3.65-7.454-5.563-10.921-4.172m91.01 56.662c-1.214-2.085-1.907-3.824-.173-4.519 5.2-2.259 13.521 7.648 21.842 3.998 7.454-3.129 3.64-10.081-2.947-13.384-1.387-.695-1.56-4.171 1.734-4.519 1.04-.174 21.669-.174 16.815-11.645 0-.174-.174-.522-.347-.87l-.347-.695c-4.854-11.471-19.242 3.477-19.935 4.172-2.427 2.086-4.854-.521-4.507-1.912 2.08-7.126-.174-14.6-7.628-11.472-.693.348-1.213.696-1.733 1.043-1.907 1.39-3.294 3.477-4.161 5.562l-1.04 2.608-1.56 4.692c-.867 2.26-1.907 4.172-3.641 5.041-2.08.869-2.773-1.564-3.467-4.345m3.814-41.368c-.693-.347-1.56-.521-2.427-.521m-11.441-13.384c.347.696.52 1.565.52 2.434m16.122 24.681c.693 1.043 2.427 1.912 3.987.348.693-.695 15.082-15.643 19.935-4.172 0 .174.174.522.347.695.173.348.347.696.347.87 4.854 11.471-15.775 11.471-16.815 11.645-3.121.348-2.947 3.824-1.734 4.52l1.04.52m-36.924-44.322c-1.04-.695-1.907-2.433-.347-3.997.694-.696 15.602-15.122 4.161-19.989-.173 0-.52-.173-.693-.347-.347-.174-.694-.348-.867-.348-11.441-4.867-11.441 15.817-11.615 16.86-.347 3.129-3.814 2.955-4.507 1.738l-.52-1.043M66.444 182.854l-44.725 44.844c-2.08 2.085-5.027 3.302-8.148 3.302-3.12 0-5.894-1.217-8.147-3.302l-.174-.174c-4.333-4.346-4.333-11.124 0-15.47l45.245-45.364m.174 32.155L34.72 182.854m9.015 22.943l-15.949-15.99m2.08 29.721l-15.775-15.99m9.015 22.943L7.157 210.49m93.957-78.215l.52.521c8.841 8.865-10.4 16.686-11.268 17.034-2.773 1.564-1.386 4.693.174 4.867 7.28.695 13.521 5.735 7.8 11.297-6.413 6.431-17.855.522-21.842 4.346-3.814 3.823 13.348 7.474 3.64 12.862-5.2 2.954-13.868-1.738-22.015-1.391-1.734 0-3.294-.521-4.507-1.738l-.347-.348c-1.213-1.216-1.907-2.781-1.734-4.519.347-7.995-4.333-16.859-1.386-22.074 5.547-9.559 9.187 7.474 12.828 3.65 3.987-3.997-1.907-15.469 4.334-21.9 5.72-5.736 10.574.348 11.267 7.821.174 1.391 3.294 2.955 4.854.174.52-.869 8.321-20.162 16.989-11.298.173.348.346.522.693.696z" stroke="url(#paint0_linear)" stroke-width="3" stroke-miterlimit="10" stroke-linecap="round" stroke-linejoin="round"/><defs><linearGradient id="paint0_linear" x1="116.5" y1="2" x2="334.238" y2="183.448" gradientUnits="userSpaceOnUse"><stop stop-color="#F4A261"/><stop offset="1" stop-color="#E9C46A"/></linearGradient></defs></svg>