<svg width="238" height="291" fill="none" xmlns="http://www.w3.org/2000/svg"><path d="M87.652 106.706l2.6-9.704m0 0l7.898-29.475c1.03-3.845 1.1-7.75.295-11.302-.757-3.735-2.57-7.164-4.946-9.96-2.956-3.538-7.117-6.223-11.853-7.492-12.884-3.649-25.783 3.688-29.217 16.503l-1.177 4.394m39 37.332c10.256 4.711 22.166 9.079 34.867 12.679l3.097.83 2.186.586m-72.79-23.43c-5.31-4.954-8.52-9.738-9.08-14.205m9.08 14.206c4.546 4.161 10.599 8.53 17.892 12.643 3.713 2.172 7.84 4.259 12.197 6.212 11.118 5.137 23.938 9.75 37.964 13.508l2.186.586m-70.24-32.95l7.751-28.926.295-1.098c1.87-4.797 7.14-7.702 12.24-6.335 2.55.683 4.672 2.233 5.87 4.32 1.513 2.367 2.053 5.455 1.268 8.385l-9.762 36.432m106.066-32.997l2.551-9.52c3.385-12.633 16.332-20.152 28.901-16.784 12.568 3.367 20.022 16.353 16.637 28.985l-9.321 34.785m-38.768-37.466c-2.403-1.233-5.22-2.38-7.854-3.478m7.854 3.478c4.357 1.952 8.484 4.039 12.197 6.211 7.293 4.113 13.345 8.482 17.892 12.643M193.354 73.61l3.335-12.449c1.472-5.492 7.07-8.898 12.717-7.385a10.368 10.368 0 0 1 7.32 12.754l-5.298 19.772m0 0c7.02 6.59 10.382 12.986 8.91 18.478M60.162 78.148c4.547 4.161 10.6 8.53 17.893 12.643m115.505 27.221c11.413-1.062 19.842-4.102 23.997-8.679 1.121-1.27 1.828-2.453 2.403-3.869l-51.352 153.03c-5.031 15.135-41.47 18.518-82.09 7.634-40.62-10.884-70.484-32.033-67.274-47.656l4.43-22.36M134.63 51.597c2.964.597 5.878 1.378 8.792 2.16 4.19 1.122 8.33 2.428 12.289 3.684m-39.871-9.31c-8.078-1.183-15.525-1.805-22.657-2.146M51.287 60.268c.05-.183.098-.366.147-.55m76.417 60.899c24.093 6.259 46.75 8.406 63.207 6.732 3.623-.403 7.063-.854 10.005-1.636 6.894-1.685 11.883-4.272 14.552-7.678m-87.764 2.582l2.6-9.704c-.778-.012-14.458-30.56 18.694-21.677 42.077 11.274 44.464 28.593 44.464 28.593l-2.6 9.703m-167.336 68.58l3.014-14.89m-3.014 14.89c3.474 15.452 32.106 33.916 69.63 43.97 37.523 10.054 71.551 8.38 82.285-3.264M26.687 181.222l12.545-61.393m-12.545 61.393c.86 15.732 30.424 35.819 69.951 46.411 39.527 10.591 75.125 8.16 83.967-5.169M39.232 119.829l3.357-16.171 6.126-30.147 1.45-6.872 1.304-6.322m-12.237 59.512c2.633 16.404 33.157 36.552 73.777 47.436 40.62 10.884 77.31 8.746 87.61-4.192M42.407 103.609c-1.998 16.928 30.221 39.493 73.938 51.207 43.534 11.665 82.719 8.233 89.635-7.378m-78.786-46.227c3.216-3.26 9.101-4.822 19.302-2.089 29.922 7.822 40.871 22.333 41.718 23.541 1.913 3.063 2.746 5.053 2.746 5.053m-41.654 143.07l6.819-25.448m22.614-84.399l8.88-33.138M159.46 232.889l15.895-59.318m-52.434 98.779l6.966-25.997m22.811-85.132l9.125-34.053M133.272 233.72l16.041-59.866m-41.052 56.304l16.09-60.05m3.385-12.632l9.223-34.419M98.155 267.873l6.721-25.082m-20.841-19.124l16.139-60.233m3.336-12.45l9.271-34.601M73.929 261.381l6.77-25.265M50.34 252.51l6.966-25.997m22.761-84.949l9.174-34.236m-28.6 106.735l16.09-60.05m-48.361 83.584l6.819-25.448m22.566-84.217l8.83-32.954M38.526 199.7l15.894-59.317m109.053-61.631c-10.565-2.831 3.602-22.19-17.345-27.802-23.316-6.247-18.659 22.275-29.952 19.25-12.386-3.32 4.627-38.398 33.042-30.784 25.502 6.833 27.734 42.948 14.255 39.336z" stroke="url(#paint0_linear)" stroke-width="3" stroke-miterlimit="10" stroke-linecap="round" stroke-linejoin="round"/><defs><linearGradient id="paint0_linear" x1="151.223" y1="24.647" x2="322.658" y2="197.623" gradientUnits="userSpaceOnUse"><stop stop-color="#F4A261"/><stop offset="1" stop-color="#E9C46A"/></linearGradient></defs></svg>