<svg width="319" height="320" fill="none" xmlns="http://www.w3.org/2000/svg"><path d="M47.247 136.789l-13.453 10.505c-8.154 6.366-9.597 17.965-3.247 26.098l100.012 128.092c6.667 8.54 18.995 10.041 27.557 3.356l108.853-84.991c5.028-3.925 7.578-9.625 7.574-15.513M130.688 71.64l13.454-10.505c8.154-6.366 19.757-4.953 26.107 3.18l64.664 82.819M114.245 84.479L63.691 123.95m93.584 91.003l-95.626-45.991c-7.752-3.765-12.924-11.509-13.563-20.173l-.626-9.766-1.144-17.434c-.7-10.143 3.704-19.91 11.722-26.17l29.898-23.344c8.018-6.26 18.561-8.165 28.232-5.025l16.636 5.338 9.322 2.976c8.386 2.615 14.509 9.617 16.282 18.05l20.183 98.132m-21.316 23.407l-29.919-108.639c-3.876-14.21-14.081-25.878-27.862-31.482l-9.928-4.03m67.709 144.151l7.782 28.178m-17.881-64.366l-65.482-36.799c-12.845-7.207-21.796-20.072-23.784-34.665l-1.502-10.61m134.426 154.24l4.985 24.035m-4.985-24.035l32.616-25.465m-32.616 25.465l-19.569 15.279m9.402-64.722l5.318 25.302m0 0l28.946-22.6m-28.946 22.6l-20.928 16.341m0 0l-49.874 38.94m56.082-15.861l6.344 22.974m-6.344-22.974l-42.536 33.212m106.475-121.097c-14.502 2.159-23.78-2.16-29.691-8.891-12.88-14.815-9.891-41.804-9.891-41.804s27.769 3.628 38.687 20.412m.895 30.283c-6.157-12.648-5.166-22.585-.895-30.283m.895 30.283c10.297-9.785 19.873-11.808 28.485-10.023 19.612 4.106 33.253 28.581 33.253 28.581s-24.812 13.046-43.519 5.616m-18.219-24.174c12.286 6.771 17.231 15.346 18.113 24.039 2.052 19.998-17.288 40.334-17.288 40.334s-19.998-19.731-18.364-39.77m17.539-24.603c7.94 14.091 1.636 31.231 1.636 31.231m-2.531-61.514c9.778-17.453 37.345-23.049 37.345-23.049s4.912 27.582-7.935 43.067m-49.12-12.483s5.916 14.581 17.992 23.043m20.875-28.735s-18.995 16.576-18.867 27.385m31.051 9.792s-17.049-12.87-30.582-8.631c-2.711 13.898-9.504 21.166-17.539 24.603-18.184 8.089-43.42-4.062-43.42-4.062s12.448-24.119 31.51-29.402m-2.163 19.362s20.561 1.4 29.981-9.228" stroke="url(#paint0_linear)" stroke-width="3" stroke-miterlimit="10" stroke-linecap="round" stroke-linejoin="round"/><defs><linearGradient id="paint0_linear" x1="89.702" y1="70.696" x2="365.41" y2="75.237" gradientUnits="userSpaceOnUse"><stop stop-color="#F4A261"/><stop offset="1" stop-color="#E9C46A"/></linearGradient></defs></svg>