<svg width="283" height="284" fill="none" xmlns="http://www.w3.org/2000/svg"><path d="M44.542 152.985c1.133 2.211 5.626 3.521 12.717 3.776m0 0c16.928.673 48.697-4.427 84.317-13.971 35.62-9.545 65.637-21.18 80.006-30.059 6.014-3.766 9.295-6.98 9.125-9.629M57.259 156.761l-12.93-24.733c-.437-.96-1.379-1.786-2.522-2.018-1.143-.233-2.196-.13-3.282.52-2.464 1.558-3.257 4.645-2.035 7.191l7.929 15.476 18.538 37.599.438.961M220.846 98.56c-15.886-1.49-49.47 3.557-87.442 13.731-37.972 10.175-69.58 22.596-82.593 31.83m6.987 35.485c-3.437 3.975-5.138 8.382-3.79 13.409.179.67.403 1.508.751 2.133 2.355 4.757 7.13 7.789 15.162 8.869m0 0c5.837.951 13.388.903 22.865-.02.717-.012 1.39-.193 2.106-.205 16.849-1.641 38.087-5.715 59.93-11.568 21.842-5.853 42.104-12.898 57.684-19.947.627-.347 1.299-.527 1.926-.875 8.669-3.939 15.187-7.841 19.812-11.415 6.372-5.12 9.036-9.964 8.697-15.262-.012-.715-.236-1.553-.416-2.223-1.347-5.027-5.023-7.994-9.987-9.717M69.921 204.017l6.023 12.396m-12.258-24.914c5.134 7.066 43.637 3.574 88.666-8.492 45.029-12.065 80.119-28.292 81.033-36.979M75.944 216.413c-3.482 3.806-5.183 8.213-3.836 13.24.18.671.404 1.509.752 2.134 2.187 4.802 7.084 7.621 15.118 8.701 5.243.75 11.696.638 19.616-.048m-31.65-24.027l5.888 11.892c2.365 2.779 10.353 3.692 22.194 2.854m3.568 9.281c.168-.045.504-.135.717-.012a291.185 291.185 0 0 0 28.24-4.155c9.085-1.715 18.539-4.069 28.116-6.635m-57.073 10.802l8.234 21.322m48.839-32.124c9.577-2.566 18.896-5.423 27.666-8.311 9.902-3.372 19.042-6.898 26.534-10.523.168-.045.336-.09.628-.347 7.369-3.412 12.969-6.708 17.18-9.812 6.416-4.952 9.08-9.797 8.741-15.094-.012-.716-.191-1.386-.416-2.224-1.347-5.027-5.023-7.993-9.942-9.549m-70.391 55.86l6.151 22.958m64.24-78.818l-.982-13.746m.982 13.746l.847 13.243m-131.879 44.138c8.301-.608 18.361-2.046 29.506-4.135m-29.506 4.135l-10.355-27.22m39.861 23.085c8.917-1.67 18.584-3.901 28.665-6.603m-28.665 6.603l-9.055-27.747m37.72 21.144c10.081-2.701 19.569-5.602 28.126-8.614 10.697-3.764 20.128-7.548 27.62-11.172 10.674-5.195 17.135-9.98 17.794-13.569m-73.54 33.355l-7.543-28.152m81.976 8.208l1.186 18.541c.52 8.661-28.857 23.358-66.998 33.578m-82.885-12.275l8.243 16.649m125.238-144.194l-1.169-27.885c-.101-1.05.301-2.236 1.175-3.008.873-.773 1.837-1.21 3.102-1.19 2.913.117 5.144 2.393 5.358 5.209l.872 17.368 2.745 41.83.101 1.051m-62.78 106.445c-38.14 10.219-70.975 12.013-74.81 4.419m133.93-167.536c2.913.117 6.24-.236 9.6-1.136a4.67 4.67 0 0 1 5.749 3.309 4.67 4.67 0 0 1-3.324 5.74c-4.032 1.08-7.863 1.568-11.493 1.463M38.228 140.847c-2.464 1.558-5.521 2.916-8.882 3.817a4.67 4.67 0 0 0-3.324 5.74 4.672 4.672 0 0 0 5.749 3.309c4.032-1.081 7.594-2.574 10.685-4.48m2.96-15.162c6.572-8.406 9.243-20.616 12.317-34.012 6.27-27.004 13.323-57.81 53.984-68.706m0 0c40.66-10.895 62.003 12.303 80.935 32.554 9.36 10.065 17.734 19.136 27.673 23.298M111.717 31.353l2.469 9.217m106.559 56.94c-13.692-4.055-24.554-15.692-35.158-27.04-17.778-19.303-36.453-39.264-71.401-29.9m0 0c-34.948 9.364-41.14 35.989-47.053 61.64-3.51 15.129-6.93 30.593-16.928 40.995m101.979 39.848l-10.776-40.218m51.048 78.279l4.808 23.318M173.902 133.05l8.592 40.803m1.966 9.352l6.031 28.557m-46.489 46.941l-7.496-22.597m-15.003-45.91l-12.96-39.633m111.12 59.849l3.529 22.582m-17.928-111.939l6.654 40.963m1.551 9.822l4.642 28.75m-128.007-5.932l-14.719-38.802M131.88 28.645l2.38 8.881M92.9 39.09l2.38 8.882m60.095-14.307l-4.162 8.66M74.894 55.228l8.103 5.373m86.521-18.514l-4.678 8.078m-97.982 19.43l8.091 4.656m107.918-20.654l-4.679 8.078M61.221 86.194l8.09 4.657m126.693-23.171l-4.678 8.079M56.716 105l8.091 4.657m143.841-29.741l-4.679 8.078M51.886 121.921l8.09 4.657" stroke="url(#paint0_linear)" stroke-width="3" stroke-miterlimit="10" stroke-linecap="round" stroke-linejoin="round"/><defs><linearGradient id="paint0_linear" x1="111.633" y1="31.376" x2="368.088" y2="148.566" gradientUnits="userSpaceOnUse"><stop stop-color="#F4A261"/><stop offset="1" stop-color="#E9C46A"/></linearGradient></defs></svg>