<svg width="288" height="296" fill="none" xmlns="http://www.w3.org/2000/svg"><path d="M200.727 73.78c6.748-6.28 13.772-10.795 20.79-12.488 6.4-1.484 12.222-.112 18.389 4.174 13.289 9.205 19.774 17.903 20.956 28.19.723 6.402-.552 13.961-3.779 22.503m-104.699 27.442c-3.537 6.201-6.348 11.091-8.783 14.578l-.901 1.263c-7.62 10.939-21.784 31.6-30.437 51.291-3.751 8.401-11.448 28.726-3.067 34.546 13.768 9.52 21.272 10.214 33.483 3.14 15.59-9.18 36.853-31.136 67.701-65.763m-39.386-95.208c9.192-2.805 35.218-.534 51.98 11.106 21.368 14.755 30.278 43.104 29.381 54.151m-68.958-80.746c15.688.253 33.679 4.51 47.924 14.346 16.588 11.593 27.862 30.417 32.803 46.978m-125.39 6.661c13.426-1.106 32.681 1.232 47.707 11.654 17.241 11.956 26.457 32.862 28.859 46.298m-68.039-72.975c15.64.428 33.281 4.591 47.527 14.428 15.981 11.055 27.094 29.082 32.304 45.34m-74.479-69.245c-.166-10.579-.669-22.001-1.791-33.213a149.685 149.685 0 0 0-3.172-19.662c-5.666-27.856-18.685-49.968-46.506-47.64-30.727 2.677-52.15 16.126-53.893 60.432m0 0c-.293 6.694-.074 14.277.529 22.528M47.25 75.36c12.56-11.873 31.782-22.713 51.944-24.459 17.256-1.396 34.964 3.913 48.677 11.538M47.779 97.889c.982 11.738 2.987 25.256 6.062 40.377M47.78 97.889c4.747-10.016 26.638-30.111 52.52-32.206 20.337-1.699 39.906 7.871 50.57 16.372m-97.028 56.211c.034.574.243 1.194.324 1.592 18.953 92.367 28.704 120.377 58.849 123.375M53.841 138.266c12.594-11.299 31.056-21.402 50.646-23.113 15.142-1.21 30.636 2.565 43.406 8.809m-15.941-68.61c-2.702-8.813-6.528-16.234-11.76-21.21-4.8-4.485-10.528-6.208-18.012-5.58-16.11 1.328-26.076 5.618-32.244 13.936-3.827 5.183-6.502 12.367-7.978 21.377m76.951 76.115c.047-.175.094-.351-.081-.398m-69.626 5.048c8.606 40.683 15.322 68.819 23.075 85.382M57.45 155.6c2.96-3.346 6.807-7.206 11.705-10.785 9.62-7.204 22.391-13.565 36.389-14.705 11.885-.954 23.704 1.836 33.43 6.136.525.14 1.003.456 1.528.597M247.62 54.177c34.959 24.229 44.093 57.34-21.78 131.681-71.16 80.074-90.307 94.132-124.311 70.535-29.27-20.259 15.899-84.534 30.917-106.283 14.971-21.573 63.276-131.85 115.174-95.933z" stroke="url(#paint0_linear)" stroke-width="3" stroke-miterlimit="10" stroke-linecap="round" stroke-linejoin="round"/><defs><linearGradient id="paint0_linear" x1="175.048" y1="32.087" x2="346.769" y2="265.177" gradientUnits="userSpaceOnUse"><stop stop-color="#F4A261"/><stop offset="1" stop-color="#E9C46A"/></linearGradient></defs></svg>