<svg xmlns="http://www.w3.org/2000/svg" viewBox="0 0 512.002 512.002" fill="#4b73cd"><path d="M500.345 443.475L370.403 313.533c52.017-78.41 43.508-185.415-25.539-254.463-78.761-78.76-206.911-78.76-285.672 0C26.387 91.876 5.744 135.315 1.065 181.386c-4.612 45.418 6.371 91.459 30.925 129.643 2.988 4.645 9.176 5.988 13.82 3.002 4.646-2.987 5.989-9.175 3.002-13.82C2.894 228.807 13.207 133.34 73.334 73.213c70.962-70.962 186.425-70.962 257.387 0s70.962 186.425 0 257.386c-60.19 60.192-152.618 70.856-224.766 25.935-4.688-2.917-10.855-1.485-13.775 3.204-2.919 4.688-1.484 10.855 3.204 13.774 31.932 19.881 69.193 30.383 106.837 30.383 7.241 0 14.502-.389 21.736-1.175 32.022-3.478 62.76-14.707 89.472-32.349l130.01 130.01c7.751 7.751 17.942 11.622 28.161 11.621 10.314-.001 20.659-3.946 28.54-11.827 15.688-15.69 15.78-41.125.205-56.7zm-170.609-85.083a200.682 200.682 0 0 0 15.128-13.651 203.39 203.39 0 0 0 13.524-14.939l25.337 25.337-28.621 28.621-25.368-25.368zm156.262 127.641c-7.892 7.893-20.639 7.983-28.417.205l-88.336-88.336 28.621-28.621 88.336 88.335c7.778 7.779 7.686 20.526-.204 28.417z"/><path d="M73.312 330.577l-.238-.238c-3.917-3.893-10.248-3.874-14.142.044-3.893 3.917-3.874 10.248.043 14.142l.238.238a9.971 9.971 0 0 0 7.049 2.907 9.97 9.97 0 0 0 7.093-2.951c3.893-3.917 3.874-10.248-.043-14.142zM202.028 47.905c-84.916 0-154 69.084-154 154s69.084 154 154 154 154-69.084 154-154-69.084-154-154-154zm0 288.001c-48.369 0-90.832-25.763-114.395-64.284l59.156-59.156 47.449 47.45a9.998 9.998 0 0 0 14.142 0l74.532-74.532v3.024c0 5.523 4.477 10 10 10s10-4.477 10-10v-27.167c0-5.523-4.477-10-10-10h-27.167c-5.523 0-10 4.477-10 10s4.477 10 10 10h3.024l-67.461 67.461-47.449-47.45a10.001 10.001 0 0 0-14.142 0l-61.613 61.612c-6.487-15.718-10.076-32.926-10.076-50.958 0-73.888 60.112-134 134-134s134 60.112 134 134c0 73.887-60.112 134-134 134z"/></svg>