<svg xmlns="http://www.w3.org/2000/svg" viewBox="0 0 512 512" fill="#4b73cd"><path d="M441.983 224.562a10.004 10.004 0 0 0-8.438-9.873l-24.837-3.935-12.791-30.847 14.765-20.356a10 10 0 0 0-1.026-12.945l-44.375-44.344a9.998 9.998 0 0 0-12.945-1.017l-20.337 14.773-30.87-12.773-3.952-24.824a10 10 0 0 0-9.876-8.427H256c-5.522 0-10 4.477-10 10s4.478 10 10 10h22.768l3.49 21.924a10 10 0 0 0 6.053 7.668l41.214 17.053a10 10 0 0 0 9.7-1.15l17.959-13.045 32.297 32.275-13.039 17.977a10 10 0 0 0-1.143 9.702l17.08 41.188a9.999 9.999 0 0 0 7.673 6.046l21.934 3.475.019 45.66-21.92 3.49a10 10 0 0 0-7.668 6.053l-17.054 41.214a9.998 9.998 0 0 0 1.149 9.7l13.046 17.958-32.274 32.297-17.978-13.038a9.999 9.999 0 0 0-9.701-1.143l-41.188 17.079a10 10 0 0 0-6.047 7.673l-3.476 21.943H256c-5.522 0-10 4.478-10 10s4.478 10 10 10h31.435a10 10 0 0 0 9.877-8.436l3.936-24.851 30.848-12.791 20.356 14.765a9.998 9.998 0 0 0 12.944-1.026l44.344-44.374a9.999 9.999 0 0 0 1.018-12.945l-14.774-20.337 12.774-30.87 24.823-3.952a10.001 10.001 0 0 0 8.428-9.88l-.026-62.734z"/><path d="M255.908 321.432c-5.481.048-9.909 4.507-9.909 10 0 5.522 4.478 10 10 10 .128 0 .334-.004.463-.009 5.519-.212 9.82-4.857 9.607-10.377-.209-5.446-4.751-9.677-10.161-9.614zm.091-150.863c-5.522 0-10 4.477-10 10s4.478 10 10 10c36.079 0 65.432 29.353 65.432 65.432 0 24.352-13.395 46.545-34.957 57.918-4.885 2.576-6.757 8.625-4.18 13.51a9.998 9.998 0 0 0 13.51 4.18c28.144-14.844 45.627-43.815 45.627-75.608 0-47.107-38.324-85.432-85.432-85.432zM58 444H10c-5.522 0-10 4.478-10 10v48c0 5.522 4.478 10 10 10h48c5.522 0 10-4.478 10-10v-48c0-5.522-4.478-10-10-10zm-10 48H20v-28h28v28zm454-48h-48c-5.522 0-10 4.478-10 10v48c0 5.522 4.478 10 10 10h48c5.522 0 10-4.478 10-10v-48c0-5.522-4.478-10-10-10zm-10 48h-28v-28h28v28zM58 0H10C4.478 0 0 4.477 0 10v48c0 5.523 4.478 10 10 10h48c5.522 0 10-4.477 10-10V10c0-5.523-4.478-10-10-10zM48 48H20V20h28v28zM502 0h-48c-5.522 0-10 4.477-10 10v48c0 5.523 4.478 10 10 10h48c5.522 0 10-4.477 10-10V10c0-5.523-4.478-10-10-10zm-10 48h-28V20h28v28zm-14 339.571c-5.522 0-10 4.478-10 10v10c0 5.522 4.478 10 10 10s10-4.478 10-10v-10c0-5.522-4.478-10-10-10zm0-50c-5.522 0-10 4.478-10 10v10c0 5.522 4.478 10 10 10s10-4.478 10-10v-10c0-5.522-4.478-10-10-10zm0-241.546c-5.522 0-10 4.477-10 10v1.546c0 5.523 4.478 10 10 10s10-4.477 10-10v-1.546c0-5.523-4.478-10-10-10zm0 191.546c-5.522 0-10 4.478-10 10v10c0 5.522 4.478 10 10 10s10-4.478 10-10v-10c0-5.522-4.478-10-10-10zm0-150c-5.522 0-10 4.477-10 10v10c0 5.523 4.478 10 10 10s10-4.477 10-10v-10c0-5.523-4.478-10-10-10zm0 100c-5.522 0-10 4.477-10 10v10c0 5.522 4.478 10 10 10s10-4.478 10-10v-10c0-5.523-4.478-10-10-10zm0-50c-5.522 0-10 4.477-10 10v10c0 5.523 4.478 10 10 10s10-4.477 10-10v-10c0-5.523-4.478-10-10-10zm-444 50c-5.522 0-10 4.477-10 10v10c0 5.522 4.478 10 10 10s10-4.478 10-10v-10c0-5.523-4.478-10-10-10zm0 50c-5.522 0-10 4.478-10 10v10c0 5.522 4.478 10 10 10s10-4.478 10-10v-10c0-5.522-4.478-10-10-10zm0-191.546c-5.522 0-10 4.477-10 10v1.546c0 5.523 4.478 10 10 10s10-4.477 10-10v-1.546c0-5.523-4.478-10-10-10zm0 91.546c-5.522 0-10 4.477-10 10v10c0 5.523 4.478 10 10 10s10-4.477 10-10v-10c0-5.523-4.478-10-10-10zm0 150c-5.522 0-10 4.478-10 10v10c0 5.522 4.478 10 10 10s10-4.478 10-10v-10c0-5.522-4.478-10-10-10zm0-200c-5.522 0-10 4.477-10 10v10c0 5.523 4.478 10 10 10s10-4.477 10-10v-10c0-5.523-4.478-10-10-10zm0 250c-5.522 0-10 4.478-10 10v10c0 5.522 4.478 10 10 10s10-4.478 10-10v-10c0-5.522-4.478-10-10-10zm281.228 81.227h-10c-5.522 0-10 4.478-10 10s4.478 10 10 10h10c5.522 0 10-4.478 10-10s-4.478-10-10-10zm-100 0h-10c-5.522 0-10 4.478-10 10s4.478 10 10 10h10c5.522 0 10-4.478 10-10s-4.478-10-10-10zm50 0h-10c-5.522 0-10 4.478-10 10s4.478 10 10 10h10c5.522 0 10-4.478 10-10s-4.478-10-10-10zm-100 0h-10c-5.522 0-10 4.478-10 10s4.478 10 10 10h10c5.522 0 10-4.478 10-10s-4.478-10-10-10zm200 0h-10c-5.522 0-10 4.478-10 10s4.478 10 10 10h10c5.522 0 10-4.478 10-10s-4.478-10-10-10zm-250 0h-10c-5.522 0-10 4.478-10 10s4.478 10 10 10h10c5.522 0 10-4.478 10-10s-4.478-10-10-10zm291.544 0h-1.545c-5.522 0-10 4.478-10 10s4.478 10 10 10h1.545c5.522 0 10-4.478 10-10s-4.477-10-10-10zm-91.544-444h-10c-5.522 0-10 4.477-10 10s4.477 10 10 10h10c5.522 0 10-4.477 10-10s-4.478-10-10-10zm-50 0h-10c-5.522 0-10 4.477-10 10s4.477 10 10 10h10c5.522 0 10-4.477 10-10s-4.478-10-10-10zm141.545 0h-1.545c-5.522 0-10 4.477-10 10s4.477 10 10 10h1.545c5.522 0 10-4.477 10-10s-4.478-10-10-10zm-41.545 0h-10c-5.522 0-10 4.477-10 10s4.477 10 10 10h10c5.522 0 10-4.477 10-10s-4.478-10-10-10zm-150 0h-10c-5.522 0-10 4.477-10 10s4.477 10 10 10h10c5.522 0 10-4.477 10-10s-4.478-10-10-10zm-50 0h-10c-5.522 0-10 4.477-10 10s4.477 10 10 10h10c5.522 0 10-4.477 10-10s-4.478-10-10-10zm-50 0h-10c-5.522 0-10 4.477-10 10s4.478 10 10 10h10c5.522 0 10-4.477 10-10s-4.478-10-10-10zM159.2 217.93a10.076 10.076 0 0 0-7.07-2.93c-2.64 0-5.21 1.07-7.07 2.93a10.016 10.016 0 0 0-2.93 7.07c0 2.63 1.06 5.21 2.93 7.07 1.86 1.86 4.43 2.93 7.07 2.93 2.63 0 5.21-1.07 7.07-2.93 1.859-1.86 2.93-4.44 2.93-7.07s-1.07-5.21-2.93-7.07z"/><path d="M204.698 65.168h-41.143c-11.815 0-21.429 9.613-21.429 21.429v103.737c0 5.523 4.478 10 10 10s10-4.477 10-10v-43.451h44v201.968h-44V264c0-5.522-4.478-10-10-10s-10 4.478-10 10v94.851c0 1.38.285 2.744.839 4.008l32 73.143a9.997 9.997 0 0 0 18.322 0l32-73.143a9.981 9.981 0 0 0 .839-4.008V86.597c.001-11.816-9.612-21.429-21.428-21.429zm-20.571 341.876l-16.71-38.193h33.419l-16.709 38.193zm22.001-280.161h-44.001V86.597a1.43 1.43 0 0 1 1.429-1.429h41.143a1.43 1.43 0 0 1 1.429 1.429v40.286z"/></svg>