<svg xmlns="http://www.w3.org/2000/svg" viewBox="0 0 512 512" fill="#4b73cd"><path d="M481.658 0H30.342C13.646 0 .064 13.582.064 30.278v331.481c0 16.696 13.582 30.278 30.278 30.278h153.446l-13.183 71.47h-7.281c-13.37 0-24.247 10.876-24.247 24.247S149.954 512 163.324 512h185.351c13.369 0 24.247-10.876 24.247-24.247s-10.878-24.247-24.247-24.247h-7.28l-13.183-71.47h153.446c16.695 0 30.278-13.582 30.278-30.278V30.278C511.935 13.582 498.352 0 481.658 0zM334.622 479.671l.036.001.035-.001h13.984c4.457 0 8.082 3.625 8.082 8.082s-3.625 8.082-8.082 8.082H163.325c-4.457 0-8.082-3.625-8.082-8.082s3.625-8.082 8.082-8.082h116.236a8.082 8.082 0 0 0 0-16.164h-92.518l13.183-71.47h111.549l13.182 71.47h-20.073a8.082 8.082 0 0 0 0 16.164h29.738zm161.15-196.456h-56.903a8.082 8.082 0 0 0 0 16.164h56.903v62.379c-.001 7.783-6.332 14.114-14.114 14.114H30.342c-7.783 0-14.114-6.331-14.114-14.114V299.38h398.214a8.082 8.082 0 0 0 0-16.164H16.228V30.278c0-7.783 6.331-14.114 14.114-14.114h451.316c7.783 0 14.114 6.331 14.114 14.114v252.937z"/><path d="M256.359 310.479c-14.36 0-26.043 11.683-26.043 26.043s11.682 26.043 26.043 26.043c14.359 0 26.042-11.682 26.042-26.043 0-14.36-11.682-26.043-26.042-26.043zm0 35.922c-5.447 0-9.879-4.431-9.879-9.879 0-5.447 4.431-9.879 9.879-9.879 5.446 0 9.878 4.431 9.878 9.879 0 5.446-4.431 9.879-9.878 9.879zM469.76 33.536H40.866a8.082 8.082 0 0 0-8.082 8.082v217.55a8.082 8.082 0 0 0 8.082 8.082H469.76a8.082 8.082 0 0 0 8.082-8.082V41.618a8.081 8.081 0 0 0-8.082-8.082zM48.948 49.7h22.63v16.753h-22.63V49.7zm412.73 201.386H48.948V82.618h412.729v168.468zm0-184.632H87.743V49.7h373.935v16.754z"/><path d="M65.113 107.282v44.937a8.082 8.082 0 0 0 8.082 8.082h363.159a8.081 8.081 0 0 0 8.082-8.082v-44.937a8.082 8.082 0 0 0-8.082-8.082H73.195a8.08 8.08 0 0 0-8.082 8.082zm16.164 8.082h346.994v28.772H81.277v-28.772zm156.045 62.596H73.195a8.082 8.082 0 0 0 0 16.164h164.128a8.082 8.082 0 1 0-.001-16.164zm0 34.946H73.195a8.082 8.082 0 0 0 0 16.164h164.128a8.082 8.082 0 1 0-.001-16.164zm199.032-34.946H272.225a8.082 8.082 0 0 0 0 16.164h164.128a8.081 8.081 0 0 0 8.082-8.082 8.08 8.08 0 0 0-8.081-8.082zm0 34.946H272.225a8.082 8.082 0 0 0 0 16.164h164.128a8.081 8.081 0 0 0 8.082-8.082 8.081 8.081 0 0 0-8.081-8.082z"/></svg>