<svg width="40" height="40" fill="none" xmlns="http://www.w3.org/2000/svg"><path d="M13.333 0h13.334A13.372 13.372 0 0 1 40 13.333v13.334A13.372 13.372 0 0 1 26.667 40H13.333A13.372 13.372 0 0 1 0 26.667V13.333A13.372 13.372 0 0 1 13.333 0z" fill="#FEE600"/><path d="M30.667 6.667H9.333a2.667 2.667 0 0 0-2.666 2.666v16A2.667 2.667 0 0 0 9.333 28h4v-2.667h-4v-16h21.334v16H19.448l-6.115 6.115v1.885h1.886L20.552 28h10.115a2.667 2.667 0 0 0 2.666-2.667v-16a2.667 2.667 0 0 0-2.666-2.666z" fill="#2B2D33"/><path d="M26.667 13.333H13.333V16h13.334v-2.667zM26.667 18.667H13.333v2.666h13.334v-2.666z" fill="#2B2D33"/></svg>