<svg width="61" height="60" viewBox="0 0 61 60" fill="none" xmlns="http://www.w3.org/2000/svg">
<rect x="0.5" width="60" height="60" rx="30" fill="#EE9F0F"/>
<g clip-path="url(#clip0_205_12100)">
<path d="M21.0716 30.5V24.3008C21.09 23.0822 21.3487 21.8792 21.8328 20.7608C22.3169 19.6424 23.017 18.6305 23.8928 17.7831C24.7687 16.9357 25.8032 16.2694 26.937 15.8225C28.0708 15.3756 29.2816 15.1568 30.5001 15.1786C31.7187 15.1568 32.9295 15.3756 34.0633 15.8225C35.1971 16.2694 36.2316 16.9357 37.1075 17.7831C37.9833 18.6305 38.6834 19.6424 39.1675 20.7608C39.6516 21.8792 39.9103 23.0822 39.9287 24.3008V30.5M35.2144 42.875C36.4647 42.875 37.6638 42.3784 38.5479 41.4943C39.432 40.6102 39.9287 39.4111 39.9287 38.1608V32.8572M35.2144 42.875C35.2144 43.6565 34.904 44.4059 34.3514 44.9585C33.7989 45.511 33.0494 45.8215 32.268 45.8215H28.7323C27.9508 45.8215 27.2014 45.511 26.6488 44.9585C26.0963 44.4059 25.7859 43.6565 25.7859 42.875C25.7859 42.0936 26.0963 41.3442 26.6488 40.7916C27.2014 40.239 27.9508 39.9286 28.7323 39.9286H32.268C33.0494 39.9286 33.7989 40.239 34.3514 40.7916C34.904 41.3442 35.2144 42.0936 35.2144 42.875ZM17.5359 26.9643H19.893C20.2056 26.9643 20.5053 27.0885 20.7264 27.3095C20.9474 27.5305 21.0716 27.8303 21.0716 28.1429V35.2143C21.0716 35.5269 20.9474 35.8267 20.7264 36.0477C20.5053 36.2687 20.2056 36.3929 19.893 36.3929H17.5359C16.9107 36.3929 16.3112 36.1446 15.8691 35.7025C15.4271 35.2605 15.1787 34.6609 15.1787 34.0358V29.3215C15.1787 28.6963 15.4271 28.0968 15.8691 27.6547C16.3112 27.2127 16.9107 26.9643 17.5359 26.9643ZM43.4644 36.3929H41.1073C40.7947 36.3929 40.4949 36.2687 40.2739 36.0477C40.0529 35.8267 39.9287 35.5269 39.9287 35.2143V28.1429C39.9287 27.8303 40.0529 27.5305 40.2739 27.3095C40.4949 27.0885 40.7947 26.9643 41.1073 26.9643H43.4644C44.0896 26.9643 44.6891 27.2127 45.1312 27.6547C45.5732 28.0968 45.8216 28.6963 45.8216 29.3215V34.0358C45.8216 34.6609 45.5732 35.2605 45.1312 35.7025C44.6891 36.1446 44.0896 36.3929 43.4644 36.3929Z" stroke="#F6F6F6" stroke-width="2" stroke-linecap="round" stroke-linejoin="round"/>
</g>
<defs>
<clipPath id="clip0_205_12100">
<rect width="33" height="33" fill="white" transform="translate(14 14)"/>
</clipPath>
</defs>
</svg>
