<svg width="61" height="60" viewBox="0 0 61 60" fill="none" xmlns="http://www.w3.org/2000/svg">
<rect x="0.5" width="60" height="60" rx="30" fill="#EE9F0F"/>
<path d="M22.8022 39.729C20.4372 39.0048 18.7002 37.7389 17.591 35.9312C16.4818 34.1245 15.9272 32.3141 15.9272 30.5C15.9272 28.6859 16.4818 26.8755 17.591 25.0688C18.7002 23.262 20.4372 21.9961 22.8022 21.271V22.7312C21.1752 23.2812 19.852 24.2667 18.8326 25.6875C17.8133 27.1083 17.3032 28.7125 17.3022 30.5C17.3022 32.2875 17.8124 33.8917 18.8326 35.3125C19.8529 36.7333 21.1761 37.7188 22.8022 38.2687V39.729ZM33.8022 40.125C31.1256 40.125 28.8522 39.19 26.9822 37.32C25.1122 35.45 24.1772 33.1767 24.1772 30.5C24.1772 27.8224 25.1122 25.5491 26.9822 23.68C28.8522 21.8109 31.1256 20.8759 33.8022 20.875C35.0507 20.875 36.2378 21.0996 37.3635 21.5487C38.491 21.9979 39.497 22.6304 40.3816 23.4462L39.4081 24.4184C38.6702 23.7327 37.8292 23.1997 36.885 22.8193C35.9408 22.4398 34.9132 22.25 33.8022 22.25C31.5106 22.25 29.5627 23.0521 27.9585 24.6562C26.3543 26.2604 25.5522 28.2083 25.5522 30.5C25.5522 32.7917 26.3543 34.7396 27.9585 36.3438C29.5627 37.9479 31.5106 38.75 33.8022 38.75C34.9132 38.75 35.9408 38.5603 36.885 38.1807C37.8292 37.8003 38.6702 37.2673 39.4081 36.5816L40.3816 37.5551C39.497 38.3691 38.4915 39.0012 37.3649 39.4513C36.2383 39.9004 35.0498 40.125 33.8022 40.125ZM41.5242 35.0485L40.5507 34.075L43.4382 31.1875H32.5867V29.8125H43.4382L40.5507 26.925L41.5242 25.9515L46.0727 30.5L41.5242 35.0485Z" fill="#F6F6F6"/>
</svg>
