<svg width="170" height="170" fill="none" xmlns="http://www.w3.org/2000/svg"><circle cx="85" cy="85" r="83.5" stroke="#28445C" stroke-width="3"/><path d="M65.09 101.866c-.692-1.815-.963-3.556-.87-5.34.184-3.462 1.012-6.749 2.913-9.688 2.108-3.259 5.096-5.308 8.877-6.15 1.071-.24 2.187-.405 3.28-.387 1.478.025 2.779.577 3.575 1.948.593 1.02.755 2.138.648 3.29-.335 3.612-2.524 6.025-5.284 8.044-1.361.996-2.873 1.724-4.477 2.237-.444.142-.677.342-.603.792.111.68.18 1.385.417 2.024.241.651.76 1.004 1.543 1.028 1.539.046 2.924-.42 4.277-1.065 2.124-1.01 3.625-2.708 5.006-4.537.488-.645.423-1.442.503-2.181.276-2.573.504-5.151.748-7.728.14-1.477.304-2.953.397-4.433.034-.53.188-.812.72-.92 2.476-.497 4.947-1.015 7.421-1.52.148-.03.307-.004.579-.004-.05.66-.088 1.275-.146 1.887-.112 1.162-.234 2.324-.353 3.485-.316 3.077-.642 6.152-.944 9.23-.08.816-.119 1.64-.127 2.46-.009.877.42 1.15 1.298.929 1.627-.41 2.644-1.553 3.472-2.9a16.33 16.33 0 0 0 2.178-5.621c.28-1.519.49-3.051.707-4.581.052-.367.008-.747.008-1.205-.334.035-.589.01-.803.092-1.755.675-3.623-1.48-3.088-3.35.302-1.054 1.029-1.72 2.004-2.128.94-.394 1.912-.658 2.945-.437 1.646.351 2.416 1.537 2.745 3.047.699 3.211.428 6.401-.282 9.583-.64 2.869-1.693 5.545-3.44 7.93-2.318 3.166-5.401 5.045-9.278 5.69a7.947 7.947 0 0 1-3.834-.272c-1.162-.377-1.996-1.173-2.562-2.252-.101-.192-.2-.384-.346-.666-.337.367-.643.669-.913 1-1.523 1.874-3.475 3.173-5.543 4.379-3.11 1.815-6.549 2.547-9.989 3.298-1.88.41-3.777.753-5.68 1.036-1.527.226-3.073.392-4.616.438-1.048.031-1.718.359-2.335 1.252a91.88 91.88 0 0 1-4.393 5.82 16.66 16.66 0 0 1-6.804 5.009c-9.539 3.976-20.256.862-18.688-8.859 1.35-5.613 4.899-9.224 10.257-11.111 3.362-1.183 6.854-1.404 10.388-1.074.252.024.505.034.758.042 1.103.037 1.167-.01 1.244-1.129.034-.504.022-1.013.005-1.518-.045-1.327-.104-2.653-.157-3.979-.133-3.348-.25-6.697-.407-10.043-.056-1.198-.188-2.393-.318-3.585-.087-.79-.113-.793-.946-.8-1.298-.008-2.602.075-3.892-.029-2.95-.236-5.41-1.373-6.693-4.228-.882-1.964-.658-3.946.274-5.86.069-.14.169-.267.266-.392.682-.88 1.489-1.06 2.384-.42.82.586 1.56 1.284 2.349 1.917 1.111.893 2.318 1.525 3.812 1.414 1.136-.084 1.455-.314 1.615-1.425.288-2 .488-4.013.819-6.005.654-3.935 1.712-7.725 4.419-10.824 1.948-2.231 4.375-3.672 7.341-3.923 2.506-.212 4.615.82 6.08 2.848 2.77 3.832 3.002 7.931.97 12.173-.926 1.93-2.367 3.502-3.661 5.173-1.18 1.525-2.42 3.001-3.575 4.544-.681.91-1.288 1.909-1.375 3.074-.063.84.025 1.698.103 2.543.223 2.388.445 4.777.726 7.159.225 1.917.436 3.83.33 5.764a277.71 277.71 0 0 1-.322 5.2c-.1 1.353-.243 2.703-.37 4.054-.03.328.06.555.427.608.187.026.37.121.554.122 1.861.009 3.722.006 5.733.006zm-17.808 5.479c-2.093-.438-4.16-.674-6.236-.405-.983.127-1.939.508-2.89.828-.595.2-1.152.51-1.733.756-1.407.598-2.375 1.666-3.051 2.982-.92 1.791.11 3.725 2.082 4.111 2.023.395 3.916-.019 5.661-.986 2.8-1.55 4.722-3.936 6.07-6.806.063-.132.061-.293.097-.48zm9.487-42.322c.504-.663.954-1.225 1.371-1.81 1.144-1.601 2.163-3.274 2.692-5.19.311-1.124.307-2.247-.237-3.32-.36-.71-.881-.865-1.546-.406a2.388 2.388 0 0 0-.708.745c-.31.547-.64 1.113-.788 1.714-.353 1.436-.674 2.888-.874 4.351-.169 1.24-.396 2.508.09 3.916zm16.45 27.375c.074.034.103.06.127.055.092-.015.189-.025.272-.064 1.838-.863 3.187-2.24 4.088-4.038.595-1.19.746-2.47.448-3.775-.153-.664-.409-.768-1.025-.504-.66.284-1.132.784-1.525 1.37-1.418 2.112-1.98 4.51-2.386 6.956zM129.781 69.981v1.082c.228-.147.405-.239.557-.361a9.524 9.524 0 0 1 5.874-2.137c3.162-.065 5.165 1.394 5.498 4.85.207 2.151-.128 4.287-.443 6.416-.18 1.218-.432 2.444-.425 3.666.009 1.766.356 2.245 2.153 1.727.644-.185 1.221-.602 1.819-.908.568 2.664-.963 5.427-3.548 6.57-1.227.541-2.507.823-3.869.776-2.792-.096-4.398-2.195-4.588-4.446-.154-1.825-.046-3.657.24-5.484.252-1.618.349-3.262.467-4.898.031-.429-.074-.882-.19-1.303-.274-.99-.825-1.229-1.788-.822-.867.365-1.383 1.06-1.802 1.868-.691 1.329-.78 2.782-.927 4.226-.309 3.045-.624 6.09-.924 9.137-.093.943-.133 1.89-.218 2.834-.076.839-.205.963-1.001 1.13-2.376.496-4.751.997-7.128 1.489-.147.03-.306.004-.578.004l.114-1.41c-.315.208-.554.338-.762.506-1.871 1.513-4.021 2.412-6.394 2.633-2.703.252-5.086-.921-5.752-4.136-.292-1.414-.253-2.817-.027-4.236.307-1.931.557-3.871.822-5.809.061-.448.211-.737.725-.837 1.703-.333 3.395-.72 5.094-1.077.919-.194 1.843-.37 2.869-.574 0 .43.04.771-.006 1.1-.288 2.063-.605 4.122-.89 6.185-.099.716-.19 1.441-.189 2.162 0 .85.275 1.068 1.12.988 1.282-.12 2.234-.814 2.995-1.806.714-.93 1.057-2.01 1.178-3.158.258-2.448.504-4.898.729-7.35.165-1.79.286-3.586.434-5.379.026-.314.113-.623.131-.936.027-.482.335-.63.74-.713 2.32-.47 4.639-.947 6.959-1.418.273-.055.551-.09.931-.151z" fill="#28445C"/><path d="M105.421 61.438c-.277-.2-.659-.365-.646-.488.042-.379.132-.875.394-1.077.326-.25.436-.477.453-.844.013-.314.131-.627.122-.938-.021-.723.33-1.06 1.008-1.238.907-.238 1.792-.566 2.826-.9l-.294 2.935 1.086-.152c.222.928.132 1.184-.632 1.453-.441.156-.578.462-.62.855-.097.91-.178 1.822-.262 2.734-.059.628-.134 1.257-.162 1.887-.033.713.297.913.935.591.571-.287.801-.745.762-1.393-.103-1.689.307-3.266 1.184-4.706 1.087-1.785 2.763-2.662 4.785-2.84 1.006-.09 1.849.353 2.316 1.327.135.282.263.566.389.84 1.156-.176 1.275-.305 1.377-1.31.052-.501.067-1.033.252-1.489.234-.577.9-.305 1.356-.474.556-.207 1.162-.297 1.755-.373.179-.024.386.168.645.291.441-.223.986-.536 1.559-.78.729-.311 1.373-.074 1.9.462.381.387.433 1.177.169 1.698-.269.53-1.273 1.2-1.791 1.046-.413-.123-.754-.486-1.194-.787-.825.244-.979.44-1.061 1.367-.175 1.95-.364 3.898-.54 5.848-.03.328-.053.669-.436.755-1.066.238-2.138.447-3.336.694l.482-5.565c-1.005.12-1.037.158-1.08 1.149-.092 2.139-.971 3.872-2.828 4.964-1.612.948-3.32 1.167-5.209.023-.092.144-.196.38-.365.554-.623.644-1.338 1.14-2.214 1.409-1.574.484-2.303.295-3.389-1-.265.267-.524.531-.788.79-1.454 1.42-3.182 2.127-5.228 2.02-1.172-.06-2.127-.816-2.371-1.963-.171-.8-.354-1.612-.093-2.437.034-.109.005-.238.005-.361-.736-.069-.693.41-.702.858-.025 1.334-.413 2.555-1.208 3.626-1.325 1.785-3.118 2.487-5.306 2.192-1.455-.197-2.058-1.183-2.178-2.288-.278-2.533.28-4.86 2.292-6.62 1.192-1.044 2.602-1.538 4.204-1.38.914.091 1.49.62 1.825 1.448l.28.688c.836-.134 1.393-.524 1.797-1.266.887-1.628 2.33-2.562 4.136-2.864.597-.1 1.26-.022 1.853.13.621.16 1.048.994 1.014 1.67-.034.69-.474 1.242-1.16 1.459-.788.248-1.137-.034-1.129-.85.002-.248-.153-.497-.236-.746-.26.142-.634.22-.758.44-.308.544-.579 1.134-.726 1.74-.267 1.1-.5 2.225-.161 3.364.178.599.34.727.945.663 1.577-.165 2.652-1.088 3.486-2.355a.82.82 0 0 0 .119-.355c.135-1.287.263-2.574.39-3.862.012-.123.002-.247.002-.269zm8.73 2.024c.027.292.022.645.1.979.208.89.851 1.083 1.484.404.31-.332.506-.79.686-1.22.144-.344.166-.737.279-1.097.133-.425.129-.772-.241-1.106-.453-.409-.473-.934-.219-1.475.066-.142.17-.283.18-.43a.6.6 0 0 0-.144-.409c-.055-.058-.276-.053-.344.01-.322.29-.714.563-.903.933-.532 1.045-.807 2.177-.878 3.411zm-23.14 5.003c0 .285-.06.587.017.85.091.306.243.733.478.823.254.098.656-.091.952-.237.177-.087.337-.312.4-.508.247-.779.462-1.568.664-2.36.032-.125-.015-.34-.107-.417-.695-.575-.661-1.223-.265-1.945.06-.108.055-.338-.018-.41-.089-.088-.343-.14-.422-.077-.313.246-.672.496-.857.83-.585 1.066-.886 2.223-.841 3.451z" fill="#28445C"/><path d="M76.963 63.588c-1.736 1.39-2.037 2.811-1.166 5.149-.875.192-1.765.398-2.518-.142-.728-.521-.829-1.383-.642-2.238a4.754 4.754 0 0 1 1.317-2.375c2.401-2.387 5.286-3.696 8.694-3.436 2.296.175 3.594 1.374 4.147 3.779.67 2.909.067 5.667-1.53 8.155-.938 1.46-2.275 2.466-4.135 2.458-.436-.002-.87-.12-1.33-.19-1.077.956-2.52.769-3.913 1.192-.203-1.46.269-2.77.311-4.103.043-1.352.238-2.7.366-4.049l.399-4.2zm3.639-1.322c.059.177.12.266.112.35-.14 1.572-.285 3.142-.433 4.713-.152 1.603-.322 3.204-.454 4.808-.061.75.188.925.9.685.833-.282 1.344-.91 1.722-1.669.443-.89.573-1.86.778-2.818.328-1.533.123-3.025-.235-4.504-.265-1.093-1.13-1.796-2.194-1.754a5.403 5.403 0 0 0-3.037 1.082l2.84-.893zM116.46 76.063c.049 1.195-.454 2.188-1.318 2.926-1.565 1.336-3.323 1.958-5.429 1.322-1.904-.575-3.362-2.704-2.36-4.96 1.257-2.828 5.417-4.143 7.921-1.954.781.683 1.194 1.564 1.186 2.666z" fill="#28445C"/></svg>