<svg width="176" height="85" fill="none" xmlns="http://www.w3.org/2000/svg"><path d="M3.843 24.449c-.501-.034-.816-.124-.946-.272-.129-.147-.185-.342-.169-.584.062-.152.143-.32.242-.505.204-.456.34-.785.405-.99.091-.323.231-.731.42-1.222.967-2.507 1.611-4.088 1.933-4.744l1.17-2.684 1.084-2.585c.495-.905.85-1.663 1.064-2.274a.362.362 0 0 0 .037-.154.599.599 0 0 0-.063-.24.98.98 0 0 1-.051-.393c-.004-.21.058-.353.185-.431.145-.095.32-.109.524-.043.424.15 1.146.259 2.167.327.38.025.606.023.678-.007.143-.06.973-.143 2.492-.25 1.518-.107 2.949-.194 4.29-.26l.236-.011c.139.01.293.037.464.083.188.047.316.082.384.104.256.069.471.222.646.46.194.221.256.46.187.716-.083.203-.28.294-.591.273-.104-.007-.361-.059-.772-.156-.034-.002-.106.158-.214.481a4.615 4.615 0 0 1-.288.789c-.206.23-.497.818-.873 1.765-.376.948-.574 1.569-.594 1.863-.266.347-.501.878-.706 1.595-.11.357-.216.645-.318.864-.255.695-.662 1.85-1.221 3.463-.543 1.614-.805 2.421-.788 2.422l-.166.927c-.107.567-.177.961-.21 1.185.013.07.01.13-.011.182-.004.052-.032.084-.085.098-.13.113-.358.159-.687.137a1.71 1.71 0 0 1-.412-.08c-.118-.043-.193-.091-.224-.145a1.711 1.711 0 0 0-.137-.296.649.649 0 0 1-.046-.472c.088-.55.29-1.492.605-2.826.116-.427.246-.818.391-1.173.147-.372.247-.574.301-.605l.616-1.809c.226-.523.41-1.076.554-1.657l.166-.536a8.43 8.43 0 0 1 .38-1.017c.223-.471.422-.979.598-1.523.193-.56.312-.909.356-1.045.065-.187.241-.618.53-1.293.04-.085.112-.262.217-.533.124-.287.183-.518.177-.692l-1.728.12-1.57.103-1.808.14c-.943.076-1.44.112-1.492.108-.298.033-.452.127-.462.282a29.618 29.618 0 0 0-1.275 2.312c-.38.757-.649 1.39-.804 1.901-.08.151-.416.893-1.01 2.226a48.152 48.152 0 0 0-.516 1.112 42.465 42.465 0 0 1-1.334 3.194c-.1.184-.19.36-.27.53-.064.169-.132.416-.206.741-.163.354-.357.923-.583 1.707-.084.22-.14.39-.165.51a2.235 2.235 0 0 1-.08.412c-.156.267-.364.392-.624.375zm20.162.695c-.388-.425-.66-1.034-.816-1.826-.027-.106-.032-.289-.015-.548l.036-.545c-.12.252-.327.473-.617.662-.425.372-.842.639-1.253.803-.631.357-1.138.523-1.518.497-.346-.023-.662-.235-.948-.636a2.588 2.588 0 0 1-.48-.605 1.448 1.448 0 0 1-.11-.711 2.79 2.79 0 0 1 .12-.618c.077-.637.205-1.245.383-1.824.195-.578.53-1.311 1.006-2.2.627-1.053 1.073-1.752 1.34-2.1a.922.922 0 0 1 .34-.029.562.562 0 0 1 .405.184.604.604 0 0 1 .18.428c.047.073.066.17.058.291-.029.432-.335 1.124-.92 2.075-.783 1.581-1.196 2.683-1.237 3.305-.024.363.065.587.268.67.083.057.176.09.28.096.432.03.97-.23 1.615-.778.645-.547 1.287-1.451 1.927-2.711a6.082 6.082 0 0 0 .563-1.787.788.788 0 0 1-.01-.235c.02-.311.193-.551.517-.721.076-.1.176-.17.3-.214.126-.061.204-.056.234.015l.417.002c.053-.014.101.041.145.166.045.107.092.18.142.218.114.112.162.306.143.583-.038.57-.347 1.427-.927 2.57-.375.67-.635 1.19-.782 1.563a4.74 4.74 0 0 0-.253 1.052 2.07 2.07 0 0 0 .644 1.684c.164.133.26.27.285.41.025.14.021.332-.012.573-.045.153-.158.276-.338.368a1.052 1.052 0 0 1-.527.095 1.017 1.017 0 0 1-.585-.221zm3.473-.445a26.327 26.327 0 0 0-.491-.45 2.32 2.32 0 0 1-.502-.685c-.105-.25-.162-.566-.17-.95-.017-.539.116-1.095.397-1.666l.716-1.36.445-.804c.644-1.312 1.181-1.953 1.614-1.924a.848.848 0 0 1 .48.214c.115.112.227.258.336.44.11.18.204.326.284.435-.091.324-.277.633-.557.927-.442.37-.79.886-1.042 1.546l-.297.554a11.9 11.9 0 0 0-.505.93c-.271.416-.413.72-.426.91-.008.12.04.185.143.192.295.02.82-.319 1.58-1.015l.442-.388c.351-.306.64-.591.865-.854.111-.097.337-.36.678-.789.436-.544.747-.905.933-1.084.338-.377.57-.726.695-1.048.09-.306.315-.422.675-.345.233.154.414.305.543.453.13.13.247.329.35.596.06.16.018.392-.124.696-.124.304-.324.69-.598 1.158-.156.25-.288.528-.395.834a39.3 39.3 0 0 0-.17.588l-.164.51-.038.18c-.01.156.036.376.138.66a2.19 2.19 0 0 0 .59-.247 2.68 2.68 0 0 0 .414-.337c.111-.114.186-.187.223-.22.281-.31.566-.544.854-.698a.73.73 0 0 1 .2-.273c.094-.098.16-.163.196-.196.238-.175.388-.347.452-.517l1.091-1.125c.093-.081.178-.188.256-.322.079-.134.137-.226.175-.275.174-.266.317-.457.429-.57.13-.131.263-.166.398-.104.523.226.853.613.99 1.16-.01.156-.13.513-.358 1.07-.045.154-.13.392-.256.713a7.14 7.14 0 0 0-.235.792c-.097.41-.152.72-.166.927a3.31 3.31 0 0 0 .07.891c.084.058.186.09.307.099a1.8 1.8 0 0 0 .366-.028c.176-.023.324-.03.445-.022.11.18.156.4.138.66a3.28 3.28 0 0 1-.116.566c-.377.183-.712.256-1.005.22-.24-.052-.409-.115-.508-.191a1.793 1.793 0 0 1-.317-.334 2.374 2.374 0 0 0-.313-.386c-.407-.409-.61-1.126-.611-2.151-.12-.043-.441.222-.966.795-.672.702-1.2 1.197-1.584 1.484-.367.288-.749.419-1.147.392a1.786 1.786 0 0 1-.335-.048c-.083-.058-.262-.243-.536-.557a1.585 1.585 0 0 0-.459-.552c-.155-.531-.245-.885-.268-1.06a1.992 1.992 0 0 1-.043-.524.823.823 0 0 1 .132-.408c-.068-.022-.158.015-.268.112-.111.097-.223.22-.338.368-.038.05-.14.165-.31.345a1.997 1.997 0 0 1-.497.435c-.237.158-.613.463-1.13.915-.461.404-.783.669-.965.796l-.83-.056zm20.411 1.78c-.523-.225-.93-.626-1.223-1.201a4.7 4.7 0 0 1-.504-1.806c-.034-.02-.245.148-.633.505a19.971 19.971 0 0 1-1.71 1.397c-.509.348-.97.482-1.381.403a5.314 5.314 0 0 1-.813-.706c-.145-.166-.23-.32-.256-.46-.167-.62-.236-1.145-.207-1.578a4.54 4.54 0 0 1 .17-.978c.108-.323.287-.789.536-1.398.041-.101.274-.728.699-1.881.443-1.17.755-1.817.938-1.944l.338-.004c.173.012.3.081.377.208.03.072.12.164.269.279.166.115.244.242.235.38-.018.26-.252.904-.703 1.934-.37.86-.661 1.58-.873 2.156-.212.56-.333 1.072-.364 1.54-.016.241-.005.46.035.653.103.007.275-.086.513-.278.257-.209.44-.353.55-.433.234-.123.611-.436 1.132-.94.538-.52.912-.92 1.122-1.202.192-.265.468-.76.829-1.482.378-.722.576-1.213.593-1.472.013-.19.049-.335.108-.436a.75.75 0 0 1 .304-.266c.26.017.449.039.569.064.112.146.224.284.337.413.132.113.238.216.318.308.026.141.036.246.031.315-.023.346-.23.984-.623 1.913-.267.625-.476 1.15-.626 1.574a5.444 5.444 0 0 0-.24 1.26c-.043.64.103 1.189.437 1.645.285-.102.535-.216.752-.34.217-.125.417-.25.599-.377.202-.16.5-.35.898-.566.15.097.257.304.323.621.084.301.119.564.103.789-.2.143-.32.239-.358.289-.159.302-.49.584-.994.845-.486.246-.919.356-1.3.33a1.42 1.42 0 0 1-.307-.072zm3.995-.384c-.127-.182-.184-.36-.172-.533.009-.138-.03-.21-.116-.216-.097-.11.141-.685.714-1.724.575-1.056 1.062-1.857 1.464-2.404a.473.473 0 0 0 .17-.197c.04-.101.044-.153.01-.156.038-.05.095-.132.172-.249a2.43 2.43 0 0 1 .229-.297c.332-.551.484-1.001.455-1.35a.247.247 0 0 0-.228-.094.32.32 0 0 0-.133.043 3.15 3.15 0 0 1-.293.085c-.14.025-.265.069-.373.131-.416.233-.675.346-.779.34-.103-.008-.195-.066-.275-.176a2.565 2.565 0 0 1-.198-.534 1.238 1.238 0 0 1-.056-.342c.008-.122.085-.238.232-.35.11-.097.237-.166.379-.21.16-.058.267-.103.322-.134.377-.183.644-.287.802-.311.317-.066.57-.092.761-.08.519.035.866.302 1.041.8.222.31.321.655.296 1.036-.022.328-.172.744-.449 1.247l-.285.371a.629.629 0 0 0-.092.203c-.002.034.006.052.023.053.07.005.15-.05.245-.166.093-.08.212-.177.358-.288.148-.13.248-.192.3-.189a.198.198 0 0 0 .08-.02c.036-.033.058-.101.065-.205l.275-.216c.07.005.287-.129.652-.4l.52-.356c.199-.125.376-.183.532-.172a.787.787 0 0 1 .235-.01c.329.021.584.22.768.598.184.36.258.816.221 1.37l-.638 1.364 1.01-1.079c.168-.18.39-.374.664-.581.041-.101.089-.16.142-.173a.453.453 0 0 1 .133-.043c.017 0 .035-.007.054-.023.035-.015.054-.04.057-.074.072-.047.163-.102.271-.164a.994.994 0 0 0 .248-.192c.16-.059.335-.082.525-.07.364.025.65.279.862.762.09.197.14.374.146.53.026.141.027.385.004.73-.095.376-.182.77-.262 1.182a5.97 5.97 0 0 1-.086.515c-.1.185-.162.476-.189.873a2.522 2.522 0 0 0-.005.47c.03.07.097.11.2.117.264-.035.609-.133 1.037-.296.446-.178.77-.357.974-.534.276-.242.518-.356.726-.342.19.012.304.124.342.335.045.107-.112.375-.47.803-.342.428-.573.639-.694.63-.034-.002-.107.046-.218.143a1.143 1.143 0 0 1-.221.193c-.316.31-.57.457-.76.445a.79.79 0 0 0-.29.058.911.911 0 0 1-.289.033c-.036.015-.123.018-.261.009a1.5 1.5 0 0 1-.739-.258.956.956 0 0 1-.425-.654c-.115-.355-.152-.844-.11-1.466.01-.156.044-.406.102-.75l.183-.795c.057-.326.105-.523.144-.59l.015-.233c.02-.294.004-.443-.048-.446-.138-.01-.627.41-1.465 1.257-.837.83-1.485 1.551-1.942 2.163a4.391 4.391 0 0 0-.462.673c-.158.285-.255.435-.291.45a.323.323 0 0 1-.24.088c-.104-.007-.213-.067-.327-.178a1.403 1.403 0 0 1-.285-.41c-.058-.178-.084-.31-.078-.396.008-.121.075-.352.202-.69.128-.357.307-.823.536-1.398.229-.558.418-1.04.566-1.447.166-.406.271-.677.315-.813.008-.121-.445.161-1.36.847a9.82 9.82 0 0 1-.64.609c-.425.388-.907.843-1.445 1.362-.522.521-.98 1.02-1.377 1.498-.416.493-.725.838-.93 1.032-.186.196-.34.29-.461.282-.087-.006-.194-.091-.322-.256zm15.914 1.402c-.538-.262-.908-.573-1.11-.934-.2-.378-.28-.887-.237-1.527.021-.312.071-.673.15-1.085l.115-.93a1.01 1.01 0 0 0-.027-.367.806.806 0 0 0-.215-.3l-.242-.277c-.13-.148-.182-.264-.159-.35l-.017-.131c.008-.121.033-.233.074-.334.059-.1.114-.149.166-.145.052.003.122 0 .21-.012a.38.38 0 0 1 .235-.01c.242.016.36.076.352.18.06.142.172.167.334.074.181-.11.36-.324.538-.642.268-.364.649-.738 1.144-1.122.513-.4.93-.676 1.254-.828.125-.062.328-.109.608-.142.282-.05.526-.07.734-.055.311.02.574.108.79.26.233.155.462.37.686.646.313.264.452.656.417 1.174a2.69 2.69 0 0 1-.334 1.099c-.086.255-.385.565-.896.93-.493.367-.944.614-1.352.744a6.887 6.887 0 0 1-1.673.07c-.415-.028-.68-.08-.797-.157-.2-.135-.378.322-.535 1.371-.025.12-.045.284-.059.491-.02.294.008.53.083.71.017.018.072.091.168.219.097.11.22.214.37.311.151.08.313.125.486.137.156.01.278.001.367-.027.194-.04.381-.123.564-.25.183-.144.44-.36.773-.651.295-.259.507-.436.635-.531.097-.15.275-.216.534-.2.07.006.19.03.36.077.147.131.216.267.207.405-.009.138-.113.392-.311.76-.098.168-.33.396-.697.684a8.141 8.141 0 0 1-.93.641c-.555.259-1.1.37-1.637.334-.329-.022-.704-.125-1.126-.31zm1.883-5.164c.175-.023.428-.05.76-.08.333-.03.608-.124.827-.283.238-.175.519-.478.843-.908.06-.135.096-.271.105-.41.018-.259-.022-.444-.119-.555a.572.572 0 0 0-.403-.21c-.242-.015-.5.072-.773.262-.176.04-.449.213-.816.519-.351.306-.658.616-.922.928-.263.295-.353.472-.27.53-.038.049.045.098.25.146.207.032.38.052.518.061zm13.166-.345a.998.998 0 0 0 .022.445 3.3 3.3 0 0 0 .178.454c.102.302.172.55.211.744.058.178.079.387.062.63a2.374 2.374 0 0 1-.15.693c-.15.424-.372.887-.666 1.389-.059.1-.22.29-.481.567-.245.28-.412.45-.503.514a.177.177 0 0 1-.134.043.466.466 0 0 1-.228-.094.517.517 0 0 1-.143-.192c-.074-.196-.132-.503-.173-.923-.023-.436-.01-.756.038-.962.023-.085.079-.403.168-.953.09-.567.22-1.088.39-1.563.172-.475.346-.741.523-.799.481-.176.854-.3 1.12-.368.265-.07.606-.238 1.023-.505.434-.25.669-.381.704-.396.15-.164.37-.323.658-.477.252-.14.472-.308.659-.503.13-.13.35-.316.662-.555.073-.048.166-.146.28-.294.116-.166.236-.271.36-.315.023-.086.09-.168.199-.248.11-.096.177-.179.199-.247.116-.183.25-.374.403-.572.228-.298.383-.53.464-.699l.33-.655c.161-.337.25-.626.266-.868a.878.878 0 0 0-.074-.448 2.987 2.987 0 0 0-.773-.912c-.327-.3-.514-.486-.562-.559l-.2-.117c-.037.032-.09.046-.16.041a.491.491 0 0 0-.153-.036 1.024 1.024 0 0 0-.708.057c-.25.105-.564.257-.942.458-1.172.634-2.209 1.59-3.11 2.867a20.978 20.978 0 0 0-2.236 4.202c-.159.042-.395.07-.709.083a4.99 4.99 0 0 1-.214.481c.015.036.06.152.133.348.092.18.221.327.387.442-.218.403-.395.973-.531 1.71a16.612 16.612 0 0 0-.213 2.02.823.823 0 0 0 .036.236c.046.09.058.17.037.237-.049.205-.024.476.076.813.117.32.263.608.437.863.191.256.365.39.52.4.104.007.274.07.509.19.234.137.438.212.61.223.122.008.21-.003.263-.034.09-.03.222-.064.398-.104.177-.04.31-.084.4-.13.324-.17.761-.609 1.313-1.32.208-.263.421-.718.638-1.364l.192-.534c.06-.118.1-.332.121-.643l.026-.39c.01-.138.024-.224.043-.257l-.13-.79a2.39 2.39 0 0 0-.248-.565 18.037 18.037 0 0 0-.278-.513c-.086-.023-.23-.068-.435-.133a4.019 4.019 0 0 0-.563-.142c-.141.025-.255.035-.341.029zm-.567-1.653c.134-.183.369-.584.706-1.204.356-.654.61-1.088.764-1.304l.343-.446.835-1.195.088-.15c.15-.147.47-.404.964-.77.44-.335.65-.495.631-.479.203-.178.473-.316.81-.415l.105-.019a.247.247 0 0 1 .2.118.323.323 0 0 1 .089.24c-.025.38-.175.805-.45 1.273a5.098 5.098 0 0 1-.858 1.141l-.507.566-.532.563c-.372.358-.903.774-1.595 1.249-.674.459-1.205.736-1.593.832zm18.649 11.382a.99.99 0 0 1-.612-.197.844.844 0 0 1-.335-.44 2.345 2.345 0 0 1-.306-.489 1.859 1.859 0 0 1-.194-.612 24.595 24.595 0 0 1 .017-1.823c.033-.484.103-1.14.21-1.966.105-.793.25-1.53.434-2.213.203-.698.469-1.549.796-2.552.126-.322.222-.593.289-.815.068-.238.076-.36.025-.363-.088.012-.259.226-.512.643-.253.4-.508.835-.765 1.304-.117.184-.234.384-.353.602-.1.202-.209.395-.325.578-.556 1.04-1.555 2.606-2.998 4.698-.168.18-.405.469-.71.865-.59.777-1.068 1.31-1.435 1.598-.46.386-.906.565-1.339.536a1.058 1.058 0 0 1-.757-.364c-.206-.291-.301-.567-.284-.826.005-.07.03-.19.076-.36-.022-.436.08-1.315.307-2.637.246-1.339.477-2.453.692-3.342.177-.822.536-2.17 1.078-4.045l.758-2.763c.121-.253.32-.76.597-1.524l.29-.84c.039-.31.123-.53.253-.661a.544.544 0 0 1 .457-.204c.242.016.442.142.6.379.256.33.37.71.34 1.143a2.696 2.696 0 0 1-.304 1.048c-.905 1.85-1.695 4.317-2.37 7.398a92.32 92.32 0 0 0-.713 3.262c-.216 1.15-.29 1.735-.222 1.757.136.044.333-.047.591-.273.26-.243.499-.566.717-.968 1.306-1.876 2.849-4.292 4.627-7.248.038-.05.466-.733 1.284-2.05l.7-1.127c.059-.1.127-.208.204-.325l.288-.398c.427-.683.757-1.191.987-1.523.248-.331.434-.518.559-.562.293.037.53.13.711.282.182.134.332.36.449.681.012.088-.015.234-.081.438a2.79 2.79 0 0 1-.192.534l-.311.761c-.149.407-.281.815-.395 1.225a15.15 15.15 0 0 0-.894 2.468 47.621 47.621 0 0 1-.511 1.79 90.47 90.47 0 0 0-.895 3.249 17.87 17.87 0 0 0-.389 2.32c-.076.88-.064 1.48.036 1.8.04.176.164.271.372.285a.492.492 0 0 0 .401-.155 30.07 30.07 0 0 0 1.361-1.655 27.15 27.15 0 0 0 1.184-1.72c1.186-1.9 2.621-4.523 4.304-7.868.66-1.554 1.101-2.567 1.323-3.038.24-.47.494-.767.763-.888a.561.561 0 0 1 .318-.083.762.762 0 0 1 .505.243c.065.073.118.19.159.349.059.16.074.335.044.524-.214.594-.696 1.7-1.447 3.317-.732 1.601-1.296 2.762-1.692 3.483-.077.116-.231.34-.462.673-.038.05-.124.174-.259.373-.117.184-.178.327-.185.43-.012.174-.531 1.051-1.557 2.633-1.008 1.566-1.747 2.61-2.216 3.135-.619.688-1.236 1.212-1.851 1.57-.598.377-1.01.558-1.235.543zm9.058-2.183c-.259-.017-.454-.091-.585-.221a2.152 2.152 0 0 1-.266-.305.578.578 0 0 1-.034-.263c.004-.069.086-.385.245-.947l.291-.84c.22-.698.415-1.276.585-1.734.098-.427.258-.877.481-1.349.24-.47.38-.756.422-.858.172-.492.492-1.252.96-2.28l.919-2.05a152.912 152.912 0 0 0 1.29-2.936l.492-1.114c.018-.277.166-.406.443-.388.242.017.431.168.568.455a1.6 1.6 0 0 1 .199.926c-.017.26-.086.507-.206.742a27.293 27.293 0 0 0-.936 1.918c-.328.76-.544 1.257-.647 1.494-.699 1.62-1.196 2.7-1.493 3.236-.004.069-.038.188-.102.357a2.84 2.84 0 0 1-.213.455l-.323.552c-.004.052-.123.409-.358 1.07-.292.728-.475 1.263-.55 1.605.096-.15.294-.37.591-.664.299-.31.576-.56.832-.752 1.006-.75 1.626-1.194 1.861-1.335.216-.107.396-.208.542-.302.145-.095.245-.158.299-.189.006-.086.104-.123.294-.11.069.004.104-.002.105-.02.019-.016.03-.058.035-.128.008-.12.214-.211.617-.271a4.284 4.284 0 0 1 1.074-.085c.208.014.369.069.485.163.115.095.258.295.429.602.266.435.383.894.35 1.378a2.567 2.567 0 0 1-.212.846c-.01.139-.05.353-.122.643a5.998 5.998 0 0 0-.1.723l-.211.82.415.028c.121.008.232.033.334.074.119.043.195.074.228.094.143.2.275.305.396.313.156.01.229.076.221.197-.004.07-.045.153-.121.253a.834.834 0 0 1-.302.24c-.469.247-.858.36-1.17.339-.294-.02-.587-.178-.88-.476a1.878 1.878 0 0 1-.479-1.413c.019-.277.093-.602.222-.976l.133-.824c.062-.413.097-.672.104-.775.027-.398-.055-.603-.246-.616-.242-.016-.723.169-1.444.555-.702.37-1.438.85-2.207 1.442-.768.574-1.389 1.167-1.864 1.778a6.464 6.464 0 0 1-.725.707c-.184.144-.354.22-.51.226l-.156-.01zm10.368 1.162a1.024 1.024 0 0 0-.239-.329c-.095-.128-.142-.21-.14-.244.013-.19-.02-.34-.1-.45-.032-.036-.044-.115-.036-.236.018-.277.179-.735.483-1.375.321-.656.724-1.359 1.209-2.108.111-.097.252-.27.425-.52.191-.247.313-.386.367-.418a.253.253 0 0 1 .09-.176c.057-.066.119-.096.189-.092l.01-.155c.01-.156.321-.509.931-1.059.611-.567 1.105-.95 1.484-1.151.452-.265.903-.383 1.352-.353.311.021.574.125.787.313.08.11.453.508 1.119 1.196l.903.92-.554 1.266c-.187.456-.293.875-.318 1.255-.044.657.104 1.302.444 1.932.073.196.234.39.482.58.248.19.501.311.758.363.375.095.553.297.532.609-.023.346-.192.543-.508.591a1.388 1.388 0 0 1-.313.005c-1.021-.068-1.855-.845-2.503-2.33a4.304 4.304 0 0 1-.247-.59 3.75 3.75 0 0 1-.143-.582c-.113.131-.254.287-.422.467a7 7 0 0 1-.474.463c-2.011 1.76-3.562 2.602-4.651 2.53a1.73 1.73 0 0 1-.917-.322zm1.031-1.39c-.006.086.079.118.254.095a2.41 2.41 0 0 0 .692-.215c.286-.12.575-.283.867-.49 1.573-1.18 2.719-2.223 3.44-3.13l.633-.896c-.148-.375-.313-.647-.493-.815-.178-.186-.345-.284-.501-.294-.363-.024-.965.396-1.804 1.26-.838.848-1.619 1.864-2.341 3.05a8.702 8.702 0 0 0-.475.88c-.141.285-.232.47-.272.554zm12.258 3.164a2.879 2.879 0 0 1-.581-.274c-.15-.097-.346-.275-.59-.534-.283-.436-.465-.83-.546-1.183-.062-.37-.067-.943-.015-1.721.027-.415.337-1.541.929-3.378-.043.12.034-.128.232-.74.064-.187.003-.312-.184-.377-.186-.065-.453-.108-.799-.132-.294-.02-.465-.048-.515-.086-.051-.02-.084-.049-.099-.085l.006-.078a.668.668 0 0 0-.083-.318c-.016-.018-.023-.045-.021-.08.006-.086.055-.178.149-.276a.61.61 0 0 1 .375-.157c.088-.012.288-.025.602-.038.314-.014.612-.064.896-.149.283-.085.509-.218.678-.398.263-.555.591-1.176.984-1.862.395-.703.657-1.12.787-1.25.286-.12.481-.177.585-.17a.35.35 0 0 1 .252.121c.065.074.152.201.261.382.015.036.055.1.118.19.063.092.092.18.086.267-.009.138-.092.341-.249.609-.139.268-.422.736-.849 1.402l-.381.626c.051.021.172.038.362.05.19.013.346.015.469.006a5.968 5.968 0 0 1 1.07-.033c.173.012.294.028.362.05.397.027.678.124.84.29.181.152.277.402.289.75.022.192-.02.303-.127.33-.106.028-.401.026-.885-.007-2.012-.047-3.029-.037-3.051.03-.073.048-.222.342-.45.883a27.12 27.12 0 0 0-.598 1.55c-.294 1.022-.468 1.931-.521 2.727-.049.726.023 1.217.214 1.473.081.093.242.147.484.163.242.016.505-.01.787-.078.301-.084.552-.198.753-.34.328-.24.596-.351.804-.338.104.007.179.047.226.12a.246.246 0 0 1 .09.214c-.012.19-.132.426-.36.706-.286.38-.653.686-1.103.916-.45.23-.874.333-1.271.306-.191-.013-.328-.039-.412-.08zm6.715.136c-.864-.058-1.475-.412-1.831-1.06a.76.76 0 0 1-.147-.532.583.583 0 0 1 .069-.256c.058-.083.121-.122.19-.117.087.005.178.072.274.2.233.155.574.247 1.024.277.484.033.965-.022 1.444-.164.569-.205.738-.385.505-.54l.026.002c-.663-.218-1.316-.591-1.958-1.12-.624-.546-.957-1.02-.999-1.422a2.672 2.672 0 0 1-.035-.654 3.21 3.21 0 0 1 .372-1.278c.219-.42.505-.8.858-1.142.541-.294.89-.453 1.048-.477l-.001.026a4.057 4.057 0 0 1 1.113-.681 14.702 14.702 0 0 1 1.704-.538l.393-.026.522-.017c.016.019.058.039.126.06l.204.066c.101.06.185.091.255.096.325.073.597.291.816.653.236.364.327.7.271 1.009-.058.343-.182.64-.372.887-.172.232-.371.357-.598.377.018-.016-.014-.053-.097-.11a5.796 5.796 0 0 1-.199-.144l-.081.046a.203.203 0 0 0-.021-.08.284.284 0 0 0-.041-.158.859.859 0 0 1-.052-.395l.052-.387.069-.256c.003-.052-.029-.089-.097-.11a.65.65 0 0 0-.282-.072l-.206-.04c-.276-.018-.618.029-1.025.14a3.323 3.323 0 0 0-1.021.453c-.613.342-1.077.65-1.39.924a3.33 3.33 0 0 0-.741.94c-.227.28-.345.49-.354.628-.013.19.104.39.351.597.264.209.689.472 1.276.789.47.24.845.482 1.124.726.296.246.487.51.572.794a.54.54 0 0 1 .012.21c-.008.12-.03.197-.067.23.032.037.048.064.047.08l.001-.025c.06.143.087.258.081.344-.018.277-.208.525-.57.744-.361.201-.813.336-1.356.404l.026.002a4.53 4.53 0 0 1-1.284.097zm4.532 1.527a1.892 1.892 0 0 1-.396-.313.522.522 0 0 1-.081-.344c.011-.173.097-.41.256-.713.177-.318.471-.81.88-1.478.119-.218.345-.603.677-1.154 1.131-1.852 1.702-2.865 1.714-3.038a.37.37 0 0 1-.016-.158c.012-.173.161-.319.447-.439a6.14 6.14 0 0 0 1.07-1.205c.199-.37.462-.803.791-1.302.33-.517.735-1.124 1.216-1.821.232-.35.579-.856 1.04-1.52.716-1.1 1.621-2.29 2.714-3.571.433-.51.779-.748 1.038-.713.328.022.681.202 1.058.54.395.322.658.678.789 1.069.061.126.078.387.051.785-.035.536-.157 1.44-.363 2.712-.05.222-.108.575-.175 1.057a49.55 49.55 0 0 1-.4 2.474c-.32 1.925-.559 3.429-.718 4.512a38.79 38.79 0 0 0-.335 3.053c-.032.484-.047.84-.045 1.065l-.012.182-.066.595c-.11.097-.269.138-.477.124a1.459 1.459 0 0 1-.688-.228c-.218-.119-.339-.257-.363-.415a.312.312 0 0 0-.075-.057c-.033-.02-.045-.099-.036-.237l.064-.57.175-1.447.41-4.194-.339.004c-.346-.023-1.12-.006-2.322.053-1.203.059-1.954.121-2.254.188-.156-.01-.353.08-.591.273a2.956 2.956 0 0 0-.651.765c-.063.17-.201.412-.413.728-.211.298-.319.474-.322.526-.108.062-.21.15-.304.266-.077.099-.124.165-.144.199-.013.19-.227.662-.642 1.416-.398.755-.787 1.38-1.168 1.876l-.6.794-.394-.339zm5.928-7.995c.105-.01.332-.03.681-.058.351-.046.665-.069.943-.067 1.265-.211 2.036-.308 2.312-.289a.744.744 0 0 1 .332.1.67.67 0 0 0 .146.166c.068.022.11.034.128.035.041-.101.207-1.028.498-2.781.309-1.769.492-2.946.549-3.533l.164-1.292c-.103-.007-.341.177-.714.552-.372.374-.796.867-1.271 1.478-.457.595-.872 1.21-1.244 1.845-.194.3-.386.582-.578.848-.173.249-.294.37-.363.366-.129.113-.446.561-.95 1.344s-.715 1.212-.633 1.287zm5.308 13.749c-.138-.01-.245-.095-.322-.256a.747.747 0 0 1-.1-.45c.008-.12.071-.412.189-.873.239-.714.367-1.209.386-1.486.006-.086.031-.215.078-.385.045-.154.08-.299.107-.436.077-.117.15-.303.22-.559.085-.237.134-.451.147-.641a.82.82 0 0 1 .098-.306c.076-.1.16-.18.251-.244.007-.104.043-.258.109-.462.067-.221.112-.375.135-.46.118-.461.529-1.546 1.234-3.253a105.16 105.16 0 0 1 1.787-4.128c.219-.42.384-.808.495-1.166.11-.357.173-.64.187-.847a.316.316 0 0 1 .064-.178 2.59 2.59 0 0 1 .25-.244c.13-.113.246-.166.35-.16a.527.527 0 0 1 .278.124c.099.076.198.16.296.254.093.162.161.315.204.456.06.143.085.293.074.448a6.236 6.236 0 0 1-.084.49c-.025.363-.123.66-.295.892-.17.215-.238.314-.202.3.802-.312 1.506-.447 2.112-.407.726.049 1.273.32 1.639.813.384.495.551 1.114.501 1.858-.02.311-.141.685-.361 1.122-.202.421-.395.704-.578.848-.104-.007-.254.165-.451.517-.244.261-.635.53-1.175.807-.538.26-.909.348-1.112.265a.204.204 0 0 0-.08.02c-.035.016-.055.058-.06.127-.005.069-.307.179-.908.33-.601.15-1.091.214-1.472.188a3.083 3.083 0 0 1-.465-.057.967.967 0 0 1-.299-.202c-.129.113-.198.221-.204.325-.013.19-.123.53-.329 1.02-.207.49-.362.732-.466.725a.827.827 0 0 0-.084.098c-.021.051.001.113.065.187-.003.052-.02.172-.05.362a.955.955 0 0 1-.159.432c-.01.156-.05.361-.119.617-.071.274-.145.477-.224.61a1.713 1.713 0 0 1-.143.59c-.066.205-.133.304-.203.3-.106.027-.174.275-.206.742-.046.43-.155.762-.327.994-.171.232-.361.34-.569.327l-.209.012zm3.927-8.467c.26.017.787-.078 1.583-.285.814-.224 1.385-.455 1.714-.694.384-.287.7-.595.948-.926.249-.349.386-.704.41-1.067a1.303 1.303 0 0 0-.183-.768c-.109-.199-.31-.308-.604-.327-.346-.023-.769.07-1.269.28a5.26 5.26 0 0 0-1.362.873c-.332.29-.639.721-.92 1.293-.28.555-.431.997-.453 1.325-.013.19.033.289.136.296zm6.249 7.844a.645.645 0 0 1-.29.059c-.242-.017-.441-.16-.597-.431-.157-.254-.223-.553-.2-.9.01-.155.048-.326.112-.513.022-.068.076-.23.163-.484.103-.237.168-.44.197-.612.047-.188.174-.527.381-1.017.206-.49.367-.818.482-.984a2.589 2.589 0 0 0 .36-1.096c.147-.373.277-.625.39-.757.146-.372.295-.657.448-.856.02-.05.046-.17.076-.36.048-.205.117-.322.206-.35.068-.24.122-.4.162-.485.157-.528.427-1.187.81-1.978.203-.438.32-.882.35-1.332.035-.536-.074-.856-.327-.96-.186-.081-.272-.226-.258-.434a.598.598 0 0 1 .126-.33c.077-.1.177-.17.301-.214a1.18 1.18 0 0 1 .421-.05c.19.012.361.05.513.112.17.063.245.112.225.145a.296.296 0 0 0 .017.132c.017.018.051.029.102.033.057-.066.177.09.36.466.185.36.272.61.263.748-.038.05-.058.083-.059.1.016.018.05.03.102.033.125-.044.357-.141.697-.292.359-.167.585-.3.678-.398.036-.015.098-.037.187-.066.09-.046.163-.093.218-.142.195-.056.413-.076.655-.06.277.019.542.08.796.183.254.104.462.24.624.407.332.491.484.944.457 1.36-.025.363-.177.83-.459 1.402-.041.102-.168.302-.379.6-.192.283-.327.473-.403.572a6.272 6.272 0 0 1-1.396 1.393 11.25 11.25 0 0 1-1.816 1.05 2.69 2.69 0 0 1-.616.246 1.48 1.48 0 0 1-.499.071.453.453 0 0 1-.204-.066c-.181-.15-.335-.456-.46-.916-.261.52-.415.875-.462 1.063a1.165 1.165 0 0 1-.069.256.353.353 0 0 1-.146.225.448.448 0 0 1-.06.126.975.975 0 0 1-.175.275 54.917 54.917 0 0 1-.583 1.316c-.35.81-.559 1.344-.628 1.6-.064.43-.189.873-.376 1.33-.188.474-.327.734-.417.78zm3.582-7.187c.161-.076.605-.35 1.331-.823.728-.49 1.185-.833 1.372-1.03.355-.375.605-.732.749-1.07.202-.42.344-.732.427-.935.059-.1.093-.22.102-.358.013-.19-.029-.341-.126-.452-.102-.024-.34.021-.712.135a5.844 5.844 0 0 0-1.18.495 3.64 3.64 0 0 0-1.072.84 5.76 5.76 0 0 0-.843 1.299c-.205.472-.319.882-.342 1.228-.029.432.069.656.294.67z" fill="#A8A8A8"/><path d="M55.026 77.003l8.374 2.208-2.276-8.356-6.098 6.148zm6.731-1.056c8.187-2.464 16.63-6.03 21.547-11.624 2.477-2.818 4.07-6.162 4.268-10.125.198-3.953-.994-8.447-3.945-13.572l-1.3.749c2.853 4.953 3.926 9.162 3.747 12.748-.18 3.575-1.607 6.605-3.897 9.21-4.616 5.252-12.695 8.722-20.852 11.178l.432 1.436z" fill="#C4C3C3"/></svg>