<svg width="255" height="143" fill="none" xmlns="http://www.w3.org/2000/svg"><path d="M213.105 28.766c3.918 2.275 8.3 2.069 9.024 1.202 1.116-.42 3.141-4.185 2.847-8.6-.308-4.643-4.248-9.915-4.248-9.915s-3.207 5.747-2.899 10.391c.037.562.114 1.105.216 1.63-.42-.318-.867-.622-1.345-.9-4.025-2.336-10.599-2.01-10.599-2.01s2.978 5.866 7.004 8.202z" fill="#173445"/><path d="M204.396 12.443c3.38 3.696 8.117 4.867 8.965 4.091.848-.775.103-5.596-3.277-9.293-3.38-3.696-10.235-5.48-10.235-5.48s1.167 6.986 4.547 10.682zM213.167 35.831s2.188 6.967 6.167 10.259c3.874 3.205 8.706 3.777 9.657 2.963 1.298-.257 4.202-4.006 4.686-8.893.51-5.139-2.838-11.628-2.838-11.628s-4.56 5.704-5.069 10.843c-.062.62-.077 1.23-.062 1.825a14.804 14.804 0 0 0-1.307-1.233c-3.981-3.292-11.234-4.136-11.234-4.136z" fill="#173445"/><path d="M227.784 58.471c-3.523-5.056-11.595-8.345-11.595-8.345s.29 8.71 3.814 13.767c3.431 4.922 8.805 7.126 10.158 6.493 1.575.12 6.111-3.265 8.23-8.727 2.228-5.746.453-14.278.453-14.278s-7.065 5.102-9.294 10.848a17.68 17.68 0 0 0-.656 2.07 17.46 17.46 0 0 0-1.11-1.828z" fill="#173445"/><path d="M239.569 71.013s-8.293 2.344-12.215 6.847c-.38.437-.719.886-1.039 1.34a16.762 16.762 0 0 0-.518-2.319c-1.734-5.747-8.326-11.364-8.326-11.364s-2.479 8.02-.745 13.767c1.461 4.843 4.94 8.303 6.812 9.062.08.307.195.54.351.668 1.085.895 6.818-.653 10.742-5.156 3.922-4.503 4.938-12.845 4.938-12.845z" fill="#173445"/><path d="M216.881 97.325c.166-.74.292-1.508.357-2.307.481-5.868-3.462-13.199-3.462-13.199s-5.085 6.591-5.567 12.459c-.406 4.943 1.5 9.269 2.917 10.579-.037.31-.016.563.077.732.661 1.179 6.377 1.621 11.515-1.255 5.137-2.876 9.018-10.24 9.018-10.24s-8.307-.54-13.445 2.335c-.496.279-.962.583-1.41.896zM204.78 111.326c-.511.114-.989.266-1.461.422.293-.559.56-1.145.771-1.773 1.528-4.558-.672-11.248-.672-11.248s-5.829 4.124-7.358 8.681c-1.292 3.852-.364 7.701.678 9.04-.092.239-.131.45-.079.605.378 1.081 5.467 2.685 10.65 1.526 5.183-1.159 10.068-6.161 10.068-6.161s-7.414-2.251-12.597-1.092zM186.879 120.492a12.136 12.136 0 0 0-1.246-.027c.412-.385.813-.8 1.187-1.265 2.713-3.365 3.343-9.446 3.343-9.446s-5.809 1.906-8.521 5.273c-2.293 2.844-2.91 6.257-2.583 7.629-.15.173-.252.337-.264.477-.086.988 3.205 3.616 7.512 3.987 4.307.372 9.703-2.499 9.703-2.499s-4.824-3.758-9.131-4.129zM170.248 122.829c.494-.226.988-.481 1.469-.79 3.483-2.228 5.713-7.459 5.713-7.459s-6.035.053-9.518 2.279c-2.943 1.883-4.446 4.744-4.502 6.058-.189.111-.331.229-.381.35-.347.855 2.077 4.125 6.073 5.674 3.997 1.549 9.898.52 9.898.52s-3.579-4.706-7.574-6.255a12.952 12.952 0 0 0-1.178-.377zM41.37 28.766c-3.917 2.275-8.299 2.069-9.023 1.202-1.117-.42-3.142-4.185-2.847-8.6.308-4.643 4.248-9.915 4.248-9.915s3.207 5.747 2.899 10.391a13.212 13.212 0 0 1-.216 1.63c.42-.318.867-.622 1.345-.9 4.025-2.336 10.6-2.01 10.6-2.01s-2.979 5.866-7.005 8.202z" fill="#173445"/><path d="M50.08 12.443c-3.38 3.696-8.117 4.867-8.965 4.091-.848-.775-.103-5.596 3.277-9.293 3.38-3.696 10.234-5.48 10.234-5.48S53.46 8.747 50.08 12.443zM41.309 35.831s-2.188 6.967-6.167 10.259c-3.874 3.205-8.706 3.777-9.657 2.963-1.298-.257-4.202-4.006-4.686-8.893-.51-5.139 2.838-11.628 2.838-11.628s4.56 5.704 5.069 10.843c.062.62.077 1.23.062 1.825.402-.425.835-.842 1.307-1.233 3.98-3.292 11.234-4.136 11.234-4.136z" fill="#173445"/><path d="M26.692 58.471c3.523-5.056 11.595-8.345 11.595-8.345s-.29 8.71-3.814 13.767c-3.431 4.922-8.805 7.126-10.158 6.493-1.575.12-6.111-3.265-8.23-8.727-2.229-5.746-.453-14.278-.453-14.278s7.065 5.102 9.294 10.848c.27.691.482 1.384.656 2.07.326-.617.693-1.23 1.11-1.828z" fill="#173445"/><path d="M14.907 71.013s8.293 2.344 12.215 6.847c.38.437.72.886 1.039 1.34.116-.76.282-1.536.518-2.319 1.734-5.747 8.326-11.364 8.326-11.364s2.479 8.02.745 13.767c-1.461 4.843-4.94 8.303-6.812 9.062-.08.307-.195.54-.35.668-1.086.895-6.82-.653-10.743-5.156-3.922-4.503-4.938-12.845-4.938-12.845z" fill="#173445"/><path d="M37.595 97.325a16.812 16.812 0 0 1-.357-2.307C36.758 89.15 40.7 81.82 40.7 81.82s5.085 6.591 5.567 12.459c.406 4.943-1.5 9.269-2.917 10.579.037.31.016.563-.077.732-.661 1.179-6.377 1.621-11.515-1.255-5.137-2.876-9.019-10.24-9.019-10.24s8.308-.54 13.446 2.335c.496.279.962.583 1.41.896zM49.696 111.326c.51.114.989.266 1.46.422a12.147 12.147 0 0 1-.77-1.773c-1.528-4.558.672-11.248.672-11.248s5.83 4.124 7.358 8.681c1.292 3.852.364 7.701-.678 9.04.092.239.131.45.078.605-.378 1.081-5.466 2.685-10.65 1.526-5.182-1.159-10.067-6.161-10.067-6.161s7.414-2.251 12.597-1.092zM67.597 120.492c.424-.037.836-.033 1.246-.027-.412-.385-.814-.8-1.187-1.265-2.713-3.365-3.343-9.446-3.343-9.446s5.809 1.906 8.521 5.273c2.293 2.844 2.91 6.257 2.583 7.629.15.173.252.337.264.477.085.988-3.205 3.616-7.512 3.987-4.307.372-9.703-2.499-9.703-2.499s4.824-3.758 9.13-4.129zM84.228 122.829a11.641 11.641 0 0 1-1.469-.79c-3.483-2.228-5.713-7.459-5.713-7.459s6.035.053 9.517 2.279c2.944 1.883 4.447 4.744 4.503 6.058.189.111.331.229.38.35.348.855-2.076 4.125-6.072 5.674-3.997 1.549-9.898.52-9.898.52s3.579-4.706 7.574-6.255c.394-.153.786-.266 1.178-.377z" fill="#173445"/></svg>