<svg width="22" height="26" fill="none" xmlns="http://www.w3.org/2000/svg"><path d="M.009 13.586c0-1.81-.023-3.615.006-5.426.046-2.843 1.261-5.112 3.598-6.725 3.918-2.71 9.306-1.45 11.69 2.67a8.866 8.866 0 0 1 1.209 4.59 232.3 232.3 0 0 0 0 2.842c0 .76-.256 1.416-.808 1.95-.239.226-.471.464-.698.696-.22.227-.232.523-.035.72.198.197.489.186.721-.04.46-.442.913-.894 1.372-1.335 1.157-1.114 2.97-1.109 4.08.005a2.88 2.88 0 0 1 .024 4.074c-.913.922-1.756 1.915-2.796 2.698-1.71 1.282-3.639 1.956-5.772 1.973-3.267.017-6.528.012-9.795.006-1.494 0-2.779-1.271-2.796-2.78-.018-1.973 0-3.945 0-5.918zM8.205 25.997h-6.33c-.64 0-.895-.4-.616-.974.47-.975.418-.882 1.412-.882 3.83 0 7.667.005 11.498-.006.39 0 .651.127.796.487.064.163.157.308.233.47.22.488-.04.905-.575.905-1.425.006-2.849 0-4.267 0H8.205z" fill="#fff"/></svg>