<svg width="22" height="25" fill="none" xmlns="http://www.w3.org/2000/svg"><path d="M0 18.787c.609-1.003 1.042-2.031 1.733-2.899 1.532-1.908 3.56-2.639 5.99-2.316.257.037.514.111.772.13.22.018.22.124.182.285-.509 2.335-2.65 4.323-5.06 4.689-1.181.186-2.361.062-3.617.111zM.138 6.213c1.312.074 2.58-.136 3.817.155 2.487.582 4.075 2.137 4.841 4.528.025.086.113.204-.088.247-1.82.39-3.585.397-5.242-.6A5.572 5.572 0 0 1 1.55 8.666C1.074 7.879.634 7.074.138 6.213zM11.138 0c.684 1.369 1.651 2.527 1.909 4.026.364 2.131-.157 4.002-1.702 5.569-.144.149-.232.192-.414.018-2.09-1.982-2.524-4.868-1.093-7.352A249.7 249.7 0 0 0 11.138 0zM11.12 25c-.56-1.127-1.332-2.081-1.69-3.233-.766-2.44-.232-4.609 1.495-6.504.163-.18.244-.161.408 0 1.959 1.976 2.398 5.104 1.048 7.526-.402.724-.816 1.43-1.262 2.211zM21.987 6.225c-.508.867-.935 1.71-1.462 2.484-1.407 2.069-4.094 3.066-6.643 2.515-.502-.111-.502-.111-.34-.595.886-2.657 3.322-4.398 6.16-4.404h2.285zM22 18.923c-1.325-.136-2.587-.012-3.799-.31-2.43-.6-3.974-2.142-4.734-4.478-.062-.185-.025-.248.189-.297 2.072-.483 3.955-.118 5.632 1.183.364.279.684.607.96.973.666.898 1.118 1.914 1.752 2.93zM9.933 12.562v-.403c0-.093.018-.173.113-.198.257-.062.458-.235.678-.365.144-.087.288-.124.42.024.02.025.05.044.076.05.609.136.76.6.841 1.127.031.205.025.372-.22.421-.15.031-.257.13-.383.199-.22.117-.446.29-.684.024-.044-.049-.132-.055-.201-.074-.628-.18-.64-.192-.64-.805z" fill="#fff"/></svg>