<svg width="24" height="26" fill="none" xmlns="http://www.w3.org/2000/svg"><path d="M22.451 15.818c-1.412-1.613-1.453-3.87-.093-5.529.415-.51.878-.986 1.3-1.491.387-.458.451-.98.164-1.514a31.618 31.618 0 0 0-.902-1.555c-.31-.505-.844-.731-1.43-.62-.538.098-1.072.202-1.605.324-2.267.51-4.423-.679-5.167-2.872-.176-.51-.34-1.027-.504-1.543-.205-.638-.703-1.01-1.37-1.015-.545-.006-1.096 0-1.64 0-.721 0-1.196.342-1.424 1.02-.176.511-.34 1.028-.516 1.538-.744 2.164-2.771 3.313-5.032 2.86-.65-.127-1.3-.237-1.828-.33-.639 0-1.043.203-1.307.632-.316.51-.62 1.027-.913 1.55-.293.521-.217 1.113.175 1.56.358.406.72.812 1.084 1.218 1.53 1.683 1.576 3.963.123 5.703-.392.487-.814.958-1.218 1.445-.381.464-.463.98-.176 1.514.287.534.592 1.068.92 1.578.31.482.773.708 1.347.61.568-.093 1.13-.215 1.693-.337 2.226-.482 4.353.661 5.103 2.761.193.546.357 1.103.539 1.654.222.673.714 1.021 1.423 1.021h1.582c.738 0 1.201-.337 1.435-1.038.194-.575.387-1.155.592-1.73.598-1.641 2.203-2.75 3.96-2.75.89 0 1.729.28 2.59.43.685.116 1.206-.087 1.564-.685.263-.44.515-.887.773-1.328.416-.72.363-1.26-.187-1.88-.346-.394-.703-.795-1.055-1.201zm-10.457.894c-2.021.011-3.732-1.66-3.743-3.656-.012-2.07 1.652-3.765 3.708-3.77 2.062-.006 3.779 1.641 3.79 3.637a3.734 3.734 0 0 1-3.755 3.789z" fill="#fff"/></svg>