<svg width="28" height="24" fill="none" xmlns="http://www.w3.org/2000/svg"><path d="M14.816 18.046c.022 1.355.663 2.464 1.464 3.51.517.674.823 1.419.816 2.318 2.454-.927 3.853-2.704 4.538-5.02.728-2.459.524-4.797-1.224-6.966-.007 2.17-.976 3.644-3.038 4.5.256-1.86-.029-3.58-.917-5.189-.889-1.608-2.193-2.801-3.934-3.623.066.4.124.759.175 1.124.146 1.095-.124 2.113-.706 3.054-.226.358-.452.723-.692 1.074-.874 1.278-1.486 2.64-1.617 4.256-1.516-1.194-2.244-2.683-2.288-4.515-3.467 3.63-2.112 9.71 3.817 11.424h-.291c-3.518 0-7.044 0-10.562.007-.24 0-.357-.014-.357-.309.015-3.42-.015-6.832.015-10.252C.08 7.337 4.203 2.155 10.285.5c7.729-2.114 15.887 2.717 17.424 10.314.189.92.284 1.847.284 2.788 0 3.35-.008 6.691.007 10.04 0 .31-.102.352-.386.352-3.365-.007-6.723-.007-10.088-.007h-4.699c-.196 0-.335 0-.35-.267-.109-2.12.569-3.953 2.077-5.498.065-.063.094-.154.145-.239.044.021.08.043.117.064z" fill="#fff"/></svg>