<svg width="27" height="21" fill="none" xmlns="http://www.w3.org/2000/svg"><path d="M17.917 4.685c-.632-.76-1.242-1.503-1.858-2.24-.264-.316-.529-.632-.788-.954-.356-.438-.304-.987.115-1.303.415-.31.961-.232 1.318.2 1.478 1.78 2.956 3.56 4.434 5.344.121.144.253.239.432.3 1.737.62 3.468 1.253 5.205 1.873.173.061.23.14.225.316a54.568 54.568 0 0 0 0 1.94c0 .167-.035.195-.213.167-1.709-.277-3.411-.576-5.13-.804-1.393-.183-2.612.26-3.619 1.192-.65.599-1.277 1.225-1.91 1.84a.54.54 0 0 1-.42.178c-1.478-.005-2.95-.005-4.428 0a.524.524 0 0 1-.403-.16c-.61-.6-1.23-1.192-1.846-1.786C7.92 9.713 6.586 9.17 5.01 9.181c-.851.005-1.708.005-2.56 0-.552-.006-.983-.294-1.156-.76a1.112 1.112 0 0 1 .322-1.242c.248-.216.541-.316.869-.3 2.847.173 5.7.35 8.547.522 1.168.072 2.336.133 3.503.21.144.012.184-.022.184-.155 0-.332-.017-.665.029-.997.161-1.093 1.15-1.974 2.29-2.018.31-.012.557.194.88.244zM13.437 15.08a184.852 184.852 0 0 0-3.51.005c-.212 0-.287-.072-.344-.255-.667-2.024-2.698-3.399-4.85-3.299-2.524.122-4.457 1.902-4.71 4.33-.276 2.66 1.956 5.084 4.734 5.133 2.255.04 4.164-1.275 4.837-3.343.052-.155.121-.21.294-.21.604.011 1.208.005 1.812.005.604 0 1.207.006 1.811 0 .53-.01.915-.266 1.122-.726.35-.793-.259-1.635-1.196-1.64zm-7.219 2.377c-.46.682-1.691.782-2.456.2a1.736 1.736 0 0 1-.201-2.6c.724-.748 1.95-.754 2.668.006-.88.1-1.34.554-1.311 1.264.023.648.535 1.092 1.3 1.13z" fill="#fff"/><path d="M22.093 11.531c-2.709 0-4.912 2.123-4.912 4.74 0 2.611 2.197 4.729 4.918 4.729 2.692 0 4.895-2.123 4.9-4.718.006-2.61-2.202-4.75-4.906-4.75zm-.011 6.514c-1.007 0-1.847-.815-1.84-1.79.005-.982.833-1.763 1.863-1.758 1.012.006 1.817.787 1.817 1.763 0 .992-.822 1.785-1.84 1.785z" fill="#fff"/></svg>