<svg width="27" height="25" fill="none" xmlns="http://www.w3.org/2000/svg"><path d="M3.896 4.015c.495 0 .99-.007 1.492 0 .765.014 1.195.448 1.136 1.183-.116 1.44-.262 2.874-.393 4.315l-.11 1.182c-.094 1.134-1.077 1.938-2.256 1.847a2.019 2.019 0 0 1-1.857-2.126c.08-1.392.16-2.791.247-4.19.015-.224-.007-.37-.27-.49-.421-.189-.589-.65-.48-1.063.124-.455.48-.742.969-.756.51-.007 1.02 0 1.529 0-.007.035-.007.07-.007.098zM11.214 3.952c-1.144-.014-2.061-.888-2.061-1.98C9.153.869 10.1-.02 11.25 0c1.15.014 2.06.917 2.039 2.029-.007 1.063-.954 1.937-2.075 1.923z" fill="#fff"/><path d="M26.993 13.347c0-.434 0-.434-.43-.35-1.886.37-3.575 1.217-5.3 1.98-.22.097-.3.076-.416-.113-1.85-2.951-3.706-5.896-5.556-8.848-.371-.595-.364-.588-.99-.238-.219.119-.255.21-.117.42.437.664.86 1.35 1.29 2.042-.387.161-.75.315-1.115.469-.56.238-.56.238-.917-.259-.728-.993-1.442-1.986-2.185-2.966-.531-.7-1.289-.937-2.155-.755-.808.168-1.464.867-1.544 1.63-.116 1.09-.204 2.182-.298 3.273-.11 1.273-.197 2.553-.32 3.827-.226 2.238-.481 4.47-.707 6.708-.08.79.306 1.175 1.23 1.217-1.376.44-2.657.881-3.895 1.44-1.252.567-2.461 1.197-3.568 2.169h.35c8.774 0 17.54 0 26.315.007.277 0 .335-.07.335-.329-.007-3.777-.007-7.547-.007-11.324zm-7.027 2.413c-1.252.811-2.184 1.944-3.175 3.008-.138.146-.298.28-.407.44-.38.532-.918.658-1.537.609 0 0-.007 0-.007.007h-.037c-.793.133-1.587.266-2.388.398-1.405.238-2.789.574-4.165.945-.117.035-.233.07-.386.035.313-.252.4-.58.437-.945.182-1.853.386-3.707.582-5.553.044-.427.044-.427.474-.273.88.329 1.755.657 2.643.972.226.077.35.196.422.42.306.993.634 1.972.947 2.966.277.874.517 1.056 1.442 1.035.014 0 .021-.007.036-.007h.007c.707-.567.765-.777.474-1.679-.372-1.14-.75-2.28-1.107-3.427-.146-.47-.422-.784-.918-.952-.64-.217-1.26-.482-1.9-.7-.255-.083-.32-.174-.284-.454.153-1.28.255-2.574.386-3.938.313.427.582.804.86 1.175.174.238.349.476.538.707.255.3.531.363.903.21.764-.315 1.536-.63 2.293-.973.219-.098.32-.084.452.126 1.136 1.826 2.286 3.651 3.43 5.47.058.126.203.23-.015.378z" fill="#fff"/></svg>