<svg width="24" height="23" fill="none" xmlns="http://www.w3.org/2000/svg"><path d="M11.993 11.511H1.527C.562 11.511 0 10.968 0 10.05V7.973C.005 7.158.595 6.59 1.452 6.59h21.125c.82 0 1.414.579 1.419 1.358.005.734.005 1.472 0 2.205-.005.785-.6 1.354-1.425 1.36H11.993zM12.85 18.075v-4.18c0-.517.235-.743.787-.743h7.552c.67 0 1.088.395 1.088 1.036v7.18c0 .902-.766 1.63-1.704 1.63-2.33.005-4.66 0-6.99 0-.482 0-.733-.246-.733-.718v-4.205zM11.136 18.08v4.18c0 .502-.241.733-.772.733H3.482c-1.034 0-1.773-.708-1.773-1.693v-7.102c0-.656.412-1.05 1.098-1.05h7.579c.503 0 .75.24.75.727v4.205zM11.993 4.948H6.85C5.415 4.943 4.269 3.835 4.28 2.46 4.29 1.343 5.212.27 6.374.086c.905-.143 1.816-.123 2.694.175 1.12.384 1.944 1.092 2.475 2.107.096.185.203.354.439.36.252.004.359-.17.466-.365.83-1.502 2.137-2.287 3.915-2.338.391-.01.782-.03 1.173.036 1.323.236 2.287 1.41 2.159 2.656-.129 1.272-1.243 2.226-2.593 2.226-1.703.005-3.406.005-5.11.005z" fill="#fff"/></svg>