<svg width="24" height="26" fill="none" xmlns="http://www.w3.org/2000/svg"><path d="M23.931 11.87c-.27-2-1.874-3.775-3.823-4.268-.68-.174-1.367-.169-2.105-.169.058-.121.104-.208.139-.295.329-.726.438-1.48.277-2.263-.462-2.215-2.555-3.474-4.723-2.842-.133.04-.208.047-.294-.098C12.346.108 10.299-.501 8.437.45c-.127.064-.22.064-.34-.006C6.192-.548 4.018.171 3.038 2.109c-.046.087-.086.162-.179.214C1.58 3.077.97 4.208.946 5.676a.363.363 0 0 1-.15.319C.259 6.418 0 6.98 0 7.677a991.89 991.89 0 0 1 0 5.858c0 .33.052.656.15.969a3.156 3.156 0 0 0 3.23 2.204c.241-.012.322.04.322.307-.011 1.77-.011 3.538-.006 5.308.012 2.03 1.638 3.665 3.65 3.671 2.469.006 4.937 0 7.41.006.272 0 .537-.029.802-.081a3.684 3.684 0 0 0 2.895-3.393c.012-.186.058-.25.248-.238.248.011.496-.006.744-.04 2.578-.314 4.544-2.536 4.55-5.151 0-.917.011-1.84 0-2.756-.017-.829.052-1.653-.064-2.47zM8.304 21.367a.922.922 0 0 1-.923.916.91.91 0 0 1-.917-.887 36.164 36.164 0 0 1 0-1.938.919.919 0 0 1 .952-.887.919.919 0 0 1 .888.916c.006.32 0 .638 0 .957 0 .302.006.61 0 .923zm3.69-.053c0 .505-.351.905-.818.957a.923.923 0 0 1-.992-.701 1.411 1.411 0 0 1-.029-.314v-2.69-2.692c0-.603.392-1.027.934-1.021.525.006.906.435.906 1.02 0 1.816.005 3.632 0 5.441zm3.691.035c0 .487-.357.87-.824.928a.927.927 0 0 1-.992-.702 1.405 1.405 0 0 1-.03-.313v-7.21c0-.614.37-1.044.912-1.044.56 0 .934.418.934 1.05v3.62c0 1.218.006 2.447 0 3.671zm.848-15.202a1.833 1.833 0 0 1-1.684 1.276c-.427.011-.744.197-.9.597-.15.389-.063.748.248 1.027.116.104.098.18.03.29-.583.951-1.43 1.52-2.51 1.74-.305.064-.553.18-.755.43-.294.353-.715.457-1.113.3-.386-.15-.622-.504-.622-.95 0-.505.005-1.004 0-1.509-.006-.585-.393-.997-.935-.997-.536 0-.91.417-.91 1.009v4.002c0 .922-.572 1.508-1.489 1.508-.922 0-1.845-.005-2.767-.023a1.306 1.306 0 0 1-1.28-1.3c-.006-.956 0-1.913 0-2.87 0-.957.005-1.914-.006-2.871 0-.238.046-.36.322-.395.583-.07.912-.632.75-1.206-.305-1.085.092-1.938 1.113-2.384.317-.14.484-.383.588-.702.3-.893 1.211-1.415 2.094-1.23.219.047.265.093.155.314-.415.817-.57 1.693-.519 2.61.023.446.266.783.635.91a.92.92 0 0 0 1.02-.278.914.914 0 0 0 .22-.696c-.07-.685.103-1.317.403-1.926.398-.8 1.182-.986 1.776-.899.744.11 1.257.545 1.505 1.27.04.116.064.244.081.366.046.377.22.661.577.8.363.14.686.076.992-.18.738-.614 1.643-.643 2.352-.092.617.481.871 1.316.629 2.059zm3.765 10.91c0 .76-.559 1.398-1.303 1.502-.375.052-.542-.087-.542-.47V14.84v-3.219c0-.383.167-.528.542-.47.773.116 1.303.737 1.303 1.526.006 1.462 0 2.923 0 4.379z" fill="#fff"/></svg>