<svg width="370" height="280" fill="none" xmlns="http://www.w3.org/2000/svg"><g opacity=".1" fill="#fff"><path d="M324.522 276.387c-12.04 2.528-24.08 4.55-36.349 3.16-11.466-1.264-22.933-1.264-34.285-1.77-19.607-1.011-39.1.759-58.708.253-14.677-.505-29.354-.126-44.031-.379-14.906-.253-29.927.506-44.719-1.39-15.709-2.022-31.533-1.137-47.127-3.791-6.88-1.138-13.99-1.138-22.13-3.539 2.408-1.011 3.44-1.517 4.586-1.896-.458-1.769-1.834-2.401-2.98-1.769-7.225 4.044-14.563.632-20.87-1.517-5.848-2.022-11.925-7.203-13.874-14.912A154.759 154.759 0 0 1 .25 228.743c-.688-6.067.114-12.259 1.49-18.199.574-2.275-.688-4.55-.458-6.698.23-3.791-1.72-8.72 3.784-10.489.917-.253.688-2.022-.23-3.286-2.522-3.412-4.013-6.825-1.72-11.374 1.491-2.907-2.637-4.424-2.178-7.33.114-1.011-.23-2.401 1.146-2.275.344 0 .688 1.643 1.262 3.412.573-3.033.802-5.055-.115-7.077-2.867-6.445-4.128-12.891.23-19.21.114-6.318-.689-12.637-.115-18.956 1.72-3.792 1.146-7.836 1.261-11.754.573-16.302 2.293-32.605 2.293-48.908 0-5.055 1.376-10.11 2.179-15.165.803-.759 1.49-.759 2.293 0-.458 36.397-2.293 72.794-2.178 109.317.114 20.221 2.408 40.441-.803 60.788-1.147 7.709 1.261 16.303 3.325 24.138 1.606 6.193 7.454 8.215 12.499 9.984 10.32 3.792 21.213 5.308 31.991 6.572 11.008 1.137 22.13 1.39 33.138 3.033 16.97 2.528 34.055 2.78 51.026 2.654 45.407-.126 90.699.885 135.992 1.264 11.007.126 22.13 1.011 33.138 1.011 7.109 0 13.989-1.264 20.639-4.044 1.262 2.022 1.376 2.022.918 2.654-1.72 3.033-4.243 5.181-6.536 7.582zM363.277 29.95c-.229-1.644-.573-3.287-.802-4.93-.803-8.088-4.128-11.753-11.581-11.5-26.259.885-52.058-3.033-78.087-5.687-15.824-1.643-31.991-.885-48.044-.127-37.381 1.896-74.876-.379-112.371-.631-1.491-6.572 2.408-5.687 5.962-5.182 11.352.38 22.704 1.643 34.056.885C171.788 1.514 191.166.882 210.544.756c16.168 0 32.221-1.517 48.389-.253 18.575 1.643 37.266 2.022 55.841 4.17 12.155 1.39 24.08 1.77 36.234 1.39 10.664-.252 17.2 6.067 18.347 16.809.573 1.516.688 3.286.458 4.802-.344 2.149 1.376 5.308-1.605 6.32-3.211 1.263-3.325-2.528-4.931-4.045z"/><path d="M363.277 29.95c.688.252 1.72.378 1.95.884.573 1.516 1.146 2.654 2.866 2.022 1.95-.632.918-2.401 1.032-3.665.23-2.022.115-4.17.115-6.193 1.032 7.457 1.032 14.534-.573 22.117-1.262 5.813 1.376 13.017-.574 19.083-4.128 13.143.344 26.034-.114 39.051-.115 4.802-1.95 9.352-1.72 14.028.573 15.292-.803 30.457-2.982 45.496-2.408 16.429-3.44 33.364-8.026 49.288-3.784 12.764-4.357 26.286-8.027 39.051-2.293 1.769-3.784 4.549-5.962 6.445-.918.758-2.523 2.907-3.211-.379 3.784-13.396 5.619-27.424 8.027-41.073 1.261-7.457 4.242-14.155 5.618-21.611 2.408-12.891 5.045-25.655 5.619-38.798 1.146-25.529 4.242-51.057 3.669-76.712-.459-16.43 1.949-32.606 2.293-49.035z"/><path d="M338.051 257.178c2.867 1.39 3.096-1.896 4.472-3.033 1.491-1.138 1.949-4.297 4.701-3.033-1.605 10.615-5.389 19.462-15.823 22.621-2.408.759-4.014 4.297-7.11 2.654-.114-3.033 2.523-3.917 3.67-5.939.688-1.264 3.554-1.643 1.949-4.171 3.211-2.654 6.65-4.929 8.141-9.099zM48.294 5.685h-15.02c-.574-1.264-.803-2.402.114-3.665C38.204.503 43.249.503 48.065.882c10.32.758 20.754-1.137 31.074 1.39 1.49 2.907-1.147 3.413-2.293 4.676-5.275-.379-10.664-.632-16.053-1.01-4.243-1.77-8.37-4.298-12.499-.253zM118.354 1.893c-3.096.253-5.848.885-5.962 5.182H88.198c-1.491-2.401-.23-4.297 1.146-6.066 9.747 0 19.378-1.012 29.01.884zM11.373 51.434H9.08c2.064-10.237-1.262-20.726 1.719-30.837.459 10.237 2.753 20.474.574 30.837zM3.347 127.261c1.032 6.319 4.242 12.637.114 18.956-.688-.252-1.95-.505-1.95-.884-.114-6.066-2.407-12.512 1.836-18.072z"/><path d="M89.344 1.009C89 3.03 88.542 5.053 88.198 7.075c-3.784 0-7.568-.127-11.352-.127-.115-2.148 2.637-2.527 2.293-4.676 3.44.253 6.65-2.022 10.205-1.263zM33.273 2.02c.688 1.263.574 2.4-.114 3.665H15.156C20.89 2.778 26.966 2.02 33.273 2.02zM48.294 5.685c.23-1.264-1.949-3.665.918-3.665 4.127.126 8.714-1.138 11.58 3.917-4.242-.126-8.37-.126-12.498-.252z"/></g></svg>