<svg width="366" height="56" fill="none" xmlns="http://www.w3.org/2000/svg"><g opacity=".25" fill="#fff"><path d="M424.754 23.294c-.265-.142-.353-.19-.129-.183.494-.075-2.775-3.078-5.663-5.309-4.115-3.116-5.607-4.143-16.419-10.854-4.745-3-9.097-5.676-9.667-6.095-.834-.561-1.145-.615-1.104-.48.04.136-.095.176-.271.082-.176-.095-.217-.23-.035-.359.095-.176.007-.224-.346-.413-.264-.142-1.586-.85-2.86-1.648a55.899 55.899 0 0 0-3.037-1.743 3.879 3.879 0 0 1-.84-.338c-.088-.047-.271.082-.413.346-.141.264-.324.393-.365.258-.041-.135-.082-.27.006-.223.136-.041.136-.041.007-.224-.176-.095.006-.224.365-.258l.63-.116-.969-.52c-1.193-.527-1.369-.621-1.376-.398.041.136-.094.176-.135.041-.088-.047-.353-.189-.481-.372-.265-.142-.265-.142-.136.041s-.488-.148-1.322-.71c-1.579-1.074-2.419-1.411-2.467-1.323-.047.088.434.46 1.139.838.658.466 2.109 1.358 3.159 2.15 1.668 1.121 2.021 1.31 2.203 1.182.136-.041.447.012.624.107.264.142.399.101.358-.034.013-.447.319-.17.482.371.034.36.034.36-.183.13-.129-.183-.352-.19-.4-.102-.23.217.035.36.611.555a.551.551 0 0 0 .501-.299c.053-.311.277-.305.765-.157.576.196.576.196.129.183-.671-.02-.596.475.238 1.036.088.047-.047.088-.223-.006-.4-.102-.312-.054.081.27.57.42.522.508-.195.576-.495.075-.583.028-.617-.33-.082-.272-.082-.272-.265-.143-.094.177-.23.217-.358.035-.089-.048-.346-.413-.604-.778-.346-.413-.611-.555-.746-.514-.135.04-1.674-.898-3.782-2.257-4.129-2.67-5.362-3.331-5.328-2.972-.548.386-.724.292-.982-.074-.258-.365-.475-.595-.523-.507-.094.176-1.633-.763-4.975-2.783-1.186-.75-2.155-1.27-2.203-1.182-.047.088-.223-.007-.487-.149-1.275-.797-3.037-1.743-3.261-1.75-.27.082-3.084-1.654-3.165-1.925-.17-.318-1.051-.791-1.498-.804-.224-.006-.8-.202-1.281-.574-2.332-1.365-4.975-2.783-5.287-2.837-.223-.006-1.545-.716-2.908-1.56-2.508-1.46-3.87-2.305-6.12-3.399l-1.851-.993c-.44-.236-1.85-.993-3.213-1.837-1.362-.845-3.077-1.879-3.958-2.352-1.939-1.04-2.332-1.365-2.543-1.818-.081-.271-.434-.46-1.403-.98-1.145-.615-1.322-.71-1.003-.88.135-.04.229-.216.053-.311-.088-.047-.311-.054-.406.123-.277.305-1.423-.31-1.674-.899-.17-.318-.17-.318-.088-.047-.007.223-.007.223-.265-.142-.169-.318-.257-.365-.393-.325-.047.088-.447-.013-.84-.337-.441-.236-.969-.52-1.193-.527-.312-.053-.4-.1-.264-.142.094-.176.006-.223-.617-.33-.4-.102-.888-.25-.976-.297-.176-.095-.488-.148-.799-.202-.447-.013-.447-.013-.176-.095.27-.081.23-.217.006-.223-.576-.196-.806.021-.507.522.17.318.122.406-.237.44-.447-.012-.447-.012-.481-.371-.034-.36-.522-.508-.752-.29-.048.088-.013.446.157.765.169.318.163.541-.013.447-.177-.095-.312-.054-.271.081.041.136-.372.482-.825.692-.589.252-.819.469-.738.74.123.406-.567 1.057-.872.78-.217-.23-.4-.102-.677.204-.048.088.129.182.481.371.441.237.529.284.082.271-.447-.013-.495.075-.101.4.217.23.346.413.21.454-.135.04-.447-.013-.576-.196-.305-.277-.217-.23-.141.264.122.407.163.542-.149.488-.223-.006-.494.075-.636.34-.325.393-.325.393.217.23.271-.082.494-.076.671.019.176.095-.325.393-.772.38-.223-.006-.183.13.123.407.217.23.346.412.298.5-.047.088.041.136.353.19.623.107.705.378.163.541-.406.123-.501.299-.331.617.082.27.075.494-.284.529-.223-.007-.406.122-.365.258.041.135-.095.176-.271.081-.623-.107-.453.21.299.5.44.237.705.38.657.467-.23.217.28 1.172.72 1.408.177.095.576.196.888.25.447.012.623.107.881.472.258.366.434.46.57.42.318-.17.84.337.522.507-.183.129-.23.217.034.358.176.095.305.278.258.366-.095.176-.006.223 2.637 1.642.793.426 1.762.946 2.067 1.223.482.372.57.42.841.337.453-.21.935.162 1.403.98.38.772.333.86-.107.624-.617-.331-1.064-.344-1.477.002-.324.393-.324.393.34.636.399.101.799.202.846.114.048-.088.4.101.753.29.481.372.704.379.887.25.413-.346.853-.11 1.328.485.258.366.523.508.699.602.623.108 1.945.817 2.026 1.088.041.135.258.365.57.419.264.142.84.337 1.105.48.264.141 1.721.81 3.219 1.613 1.498.804 3.043 1.52 3.396 1.71.528.283.704.377.522.506-.095.177-.495.076-.935-.16-1.369-.622-2.257-.871-2.263-.648-.047.088-.318.17-.63.116-.488-.148-.576-.196-.393-.324.142-.265.142-.265-.353-.19-.223-.006-.582.028-.711-.154-.176-.095-.312-.054-.365.258-.142.264-.142.264-.224-.007-.122-.406-1.668-1.122-1.633-.763-.007.224-.806.021-1.728-.587-.264-.142-.84-.337-1.24-.438-.4-.101-1.464-.445-2.392-.83-.929-.385-1.681-.675-1.728-.587-.095.176.258.366.617.331.135-.04.399.101.617.331.217.23.481.372.616.331.271-.081 1.41.757 1.227.886-.094.176-3.081-.179-3.698-.51-1.105-.48-1.552-.492-1.253.009.129.182.17.318-.007.223-.176-.094-.346-.412-.475-.595-.122-.406-.21-.454-.528-.284-.271.082-.359.034-.441-.236-.311-.054-.664-.243-1.64-.54-.664-.243-1.463-.445-1.592-.627-.176-.095-.441-.237-.576-.196-.136.04-.4-.101-.664-.243-.265-.142-.441-.236-.447-.013.041.136-.048.088-.136.041-.346-.413-1.145-.615-1.822-.41-.406.122-.63.115-.671-.02.048-.088.23-.217.407-.123.711.155-1.187-.75-2.474-1.1-.8-.202-1.199-.303-1.206-.08.041.136-.182.13-.447-.013-.264-.141-.305-.277-.17-.318.136-.04.183-.128.183-.128-.176-.095-1.992-.73-4.167-1.329-1.775-.499-6.187-2.64-9.353-4.565-2.596-1.507-3.301-1.885-3.748-1.898-.535-.06-.8-.202-.481-.372.182-.129.006-.224-.916-.832-.705-.378-1.098-.703-.875-.696.224.006.312.053.183-.13-.217-.23-.664-.242-.63.117.041.135.434.46.875.696.441.237.746.514.698.602-.047.088-.135.04-.311-.054-.041-.135-.264-.142-.4-.1-.406.122.022.805.984 1.549.658.466.611.554.211.453-.312-.053-.447-.012-.406.123.041.135-.217-.23-.516-.73-.645-.914-.645-.914-.698-.603-.007.224-.142.265-.23.217-.217-.23-.454.211-.331.617.04.136-.142.265-.501.299-.359.034-.542.163-.413.346.082.27.082.27-.183.129-.176-.095-.311-.054-.358.034-.048.088-.142.265-.278.305-.182.13-.182.13-.264-.142-.082-.27-.217-.23-.759-.066-.406.122-.9.197-1.165.056-.487-.149-.9.197-.548.386.177.095.217.23.17.319-.047.088-.311-.054-.617-.331-.657-.467-.793-.426-.589.25.123.407.123.407.129.184.007-.224.142-.265.318-.17.089.047.17.318.028.582-.189.353-.06.535.252.59.4.1.352.188.034.358-.318.17-.277.305.286.948.563.642.604.778.245.812-.406.123-.406.123.258.366.84.337 1.145.614.346.412-.312-.053-.535-.06-.589.252-.101.4-.365.258-.617-.331-.21-.454-.21-.454-.488-.149-.094.177-.236.441-.06.536.041.135.082.27-.054.311-.135.041-.311-.054-.393-.324-.299-.501-.658-.467-.447-.013.082.27.387.548.61.554.441.237.523.508.123.406l.176.095c.176.095.57.42.875.696.434.46.475.596.021.806-.453.21-1.476.002-3.38-.679-.488-.148-.712-.155-.536-.06.177.094.217.23.082.27-.135.041-.095.177-.006.224.176.095.04.136-.407.123-.853.11-1.171.279-1.265.455-.095.176-.23.217-.536-.06-.305-.277-.616-.331-.928-.385-.359.035-.535-.06-.664-.243-.082-.27-.258-.365-.658-.466-.311-.054-.752-.29-.881-.473-.305-.277-.352-.19-.4-.101-.006.224-.094.176-.223-.006-.129-.183-.264-.142-.447-.013-.095.176-.054.311.034.359l.529.283c.082.271.034.36-.142.265-.223-.007-.318.17-.243.664.116.63.069.718-.331.617-.576-.196-.718.068-.142.264.265.142.529.284.57.419.041.135-.095.176-.359.034-.176-.094-.353-.189-.312-.053.041.135-.094.176-.271.081-.176-.094-.264-.142-.081-.27.047-.089.006-.224-.17-.319-.176-.094-.312-.053-.271.082.041.135-.182.129-.494.075-.406.123-.406.123.028.583.698.601.556.866-.142.264-.61-.555-1.322-.71-.976-.297.129.183.17.318-.054.312-.135.04-.352-.19-.434-.46-.129-.183-.135.04-.013.447.239 1.036-.004 1.7-.432 1.017-.169-.319-.257-.366-.352-.19-.047.088-.006.224.211.454.346.412-.026.894-.508.522-.176-.095-.44-.236-.576-.196-.135.041.082.271.611.555.793.426.881.473.38.772-.413.346-.243.664.251.588.136-.04.312.054.482.372.082.271.346.413.434.46.135-.04.176.095.129.183-.047.088-.271.082-.359.034-.088-.047-.312-.053-.359.035-.094.176 1.01.655 1.193.526.135-.04.311.054.488.149.657.466-.101.4-1.253.008-1.328-.486-1.823-.41-1.212.144.305.277.346.413.034.359-.224-.006-.406.122-.365.258.04.135.217.23.44.236.224.007.712.155 1.152.391 1.234.662 1.275.798.956.968-.27.081-.277.305-.066.758.292.725.556.866 1.01.656.183-.13.135-.041.041.135-.23.217-.454.21-.718.069-.265-.142-.441-.236-.488-.148-.142.264-.413.346-.765.157-.264-.142-.4-.101-.359.034-.007.223-.101.4-.148.488-.095.176-.095.176.264.142.359-.035.359-.035.529.283.081.271.081.271.223.007.095-.176.189-.353.366-.258.176.094.264.142.169.318-.094.176-.006.224.434.46.488.148.529.284.217.23-.358.034-.182.129.652.69.969.52.969.52 1.205.08.189-.353.325-.394.542-.164.264.142.258.365.028.583-.183.128-.189.352-.189.352.528.284.657.466.339.636-.271.082-.182.13.041.136.224.006.447.012.576.195.258.366.664.243.63-.116-.041-.135-.035-.359-.035-.359.048-.088-.04-.135-.129-.182-.264-.142-.556-.867-.462-1.043.095-.176.183-.129.353.19.129.182.434.46.698.601.488.148.441.237.164.542-.42.57-.209 1.023.76 1.543.441.236.793.425.746.514-.047.088-.095.176-.101.4-.006.223.17.317 1.152.39 1.294.127 1.693.228 1.416.534-.094.176-.094.176.217.23.224.006.447.012.535.06.793.425 1.417.533 1.735.363.453-.21.799.202.651.69-.101.4-.101.4.17.318.135-.04.494-.075.623.108.176.094.4.1.494-.076.095-.176.142-.264-.217-.23-.271.082-.359.035-.264-.141.23-.217.982.073 1.016.432.041.135-.053.311-.236.44-.135.041-.183.13-.095.176.136-.04.359-.034.407-.122.23-.217 1.171-.28.988-.15-.047.088-.006.223.129.182.088.047.265.142.217.23-.047.088.346.413.74.737.393.325.874.697.915.832.129.183.305.277.441.237.135-.041.23-.217.013-.447-.258-.366-.258-.366.141-.265.177.095.441.237.482.372.034.359.651.69.881.473.047-.088.271-.082.4.101s.352.19.399.101c.048-.088.224.006.441.236.346.413.346.413.67.02.278-.305.413-.346.495-.075.129.182.122.406.075.494-.372.481-.331.617.021.806.177.094.447.013.495-.075-.041-.136.182-.13.359-.035a.55.55 0 0 0 .582-.028c.095-.176.183-.129.224.007.122.406 2.061 1.446 2.955 1.472.894.026 1.504.58.827.785-.63.116-.677.204.116.63.441.236.658.466.475.595-.047.088-.183.129-.224-.007-.04-.135-.176-.094-.223-.006-.047.088.082.27.434.46.353.189.576.195.759.066.094-.176.406-.122.846.114.353.19.753.29.753.29.047-.087.223.007.488.149l.969.52c.488.148.528.284.434.46-.23.217.034.359.963.744.799.202 1.504.58 1.945.816.881.473 1.504.58 1.564.046.054-.312.901-.198 1.429.086.177.094.17.318.076.494-.325.393.427.683 1.504.58.494-.075.806-.021.894.026l.793.426c.488.148.664.243.617.33-.047.089-.224-.006-.488-.147-.264-.142-.352-.19-.312-.054.041.135.394.324.882.473.928.384 1.932 1.263 1.478 1.474-.135.04-.183.129.041.135.176.095.264.142.082.271-.048.088-.007.224.081.271.176.095.271-.082.271-.082-.034-.359.948-.285 1.517.134.441.236.617.33.806-.022l.189-.352-.013.447c-.012.447.686 1.049.699.602.006-.224.095-.177.447.012.264.142.529.284.752.29.447.014.746.514.516.732-.135.04-.095.176.034.358.088.048.4.101.63-.116.501-.298.453-.21.34.636-.102.4.386.549.664.243.277-.305.365-.258.846.114.394.325.882.473 1.417.533.535.06.975.297 1.24.439.305.277.481.372.752.29.135-.04.447.013.799.202.265.142.529.284.576.196.048-.088.224.006.4.1.129.183.57.42.969.521.4.101.705.378.658.466.082.271.915.832 1.01.656.047-.088.224.006.305.277.17.318.258.366.265.142.006-.223.23-.217.799.202.705.378.705.378.4.101-.305-.277-.258-.365.094-.176.265.142.394.325.387.548-.006.224.258.365.875.696.705.379.881.473.868.92.034.36.075.495.217.23.189-.352 1.382.174 1.545.716.123.406.916.832.881.473-.04-.136.136-.041.441.236.305.277.658.467.928.385.224.006.536.06.712.155.176.094.129.183-.136.04-.223-.006-.359.035-.182.13.041.135.352.189.44.236.136-.04.312.054.441.236.17.319.4.101.731-.515.047-.088-.523-.508-1.228-.886-.657-.466-1.274-.797-1.315-.933-.109-.853-.103-1.076.033-1.117.088.047.176.094.169.318-.013.447.78.872 1.363.845.359-.035.447.013.617.33.081.271.081.271-.048.089-.129-.183-.217-.23-.264-.142-.047.088.082.27.346.413.529.283.664.242.453-.211-.169-.318-.081-.27 1.023.208.441.237.74.738.598 1.002-.047.088-.271.082-.359.034-.176-.094-.217-.23-.082-.27.048-.089-.129-.183-.305-.278-.393-.324-.711-.154-.359.035.529.283.57.419.17.318-.312-.054-.447-.013-.318.17.041.135.264.141.488.148.541-.163 1.457.668 1.485 1.25a2.38 2.38 0 0 1-.202.8c-.237.44.285.948 1.173 1.197l.8.202-.611-.554c-.393-.325-.61-.555-.563-.643.095-.176 1.152.392 1.81.858.569.419.657.466.535.06.013-.447.507-.522.582-.028.035.36.387.548.617.331.047-.088.271-.081.447.013.176.095.4.101.535.06.095-.176.271-.081.312.054.129.183-.007.224-.542.163l-.758-.066.664.243c.576.195.528.283.258.365-.183.129-.278.305-.19.352.129.183.265.142.312.054.047-.088.312.054.793.426.658.466.658.466.224.006-.74-.737-.245-.812.765-.157.569.42.745.514.928.385.047-.088.054-.311.013-.447-.258-.365.277-.305.583-.028.128.183.169.318-.054.312-.224-.007-.136.04.176.094.224.007.799.202 1.064.344.352.19.752.29.84.338.359-.035.922.608.604.778-.135.04-.142.264.122.406.218.23.265.142.359-.034-.04-.136.142-.265.23-.217.088.047.217.23.17.318-.047.088.17.318.434.46.217.23.434.46.475.595.041.135.176.094.406-.123.278-.305.413-.345.983.074.44.236.569.419.386.548-.135.04-.094.176-.006.223.176.095.264.142.312.054.047-.088.494-.075.894.026.399.1.711.154.487.148-.406.123.652.69 1.234.662.224.006.711.155.976.297.264.142.576.195.799.202.312.053-.081-.271-1.62-1.21-1.451-.892-1.932-1.264-1.75-1.393.095-.176.271-.082.712.155.088.047.311.053.447.013.271-.082.311.053.569.419.129.182.346.412.482.372.135-.041.576.195.928.384.353.19.84.338 1.064.344.494-.075.277-.305-.658-.466-.799-.202-.887-.25-.922-.608-.034-.36-.034-.36-.088-.048-.053.312-.23.217-1.098-.703-.305-.277-.305-.277-.312-.053.041.135-.006.223-.135.04-.041-.135-.034-.358.237-.44.318-.17.229-.217-.211-.454-.664-.242-.875-.696-.211-.453.664.243 1.586.851 1.316.933-.136.04-.007.223.122.406.217.23.481.372.617.331.223.006 2.067 1.223 2.325 1.588.129.183.4.101.542-.163.094-.176.488.148.481.372-.006.223-.006.223.176.095.23-.217.624.107.482.371-.23.217.163.542.569.42.136-.041.488.148.752.29.265.142.441.236.312.053-.17-.318.067-.758.372-.481.041.135-.007.223-.142.264-.135.041-.047.088.305.278.353.189.529.283.305.277-.135.04-.094.176.035.359.217.23.258.365-.095.176-.223-.007-.359.034-.271.082.17.318 1.064.344 1.118.032-.041-.136.095-.176.271-.082.176.095.223.007.182-.129-.04-.135.271-.081.671.02.664.243.752.29.963.743.081.271.339.637.604.778.352.19.352.19.094-.176-.298-.5-.21-.453.535.06.834.561 2.313 2.036 1.866 2.023-.136.04-.136.04.041.135.176.095.264.142.399.101.048-.088.271-.081.4.101.176.095.305.278.211.454-.048.088-.007.223.081.27.088.048.265.142.305.278.041.135-.006.223-.135.04-.129-.182-.217-.23-.264-.141-.095.176.427.683 1.091.926.753.29 1.627.987 1.445 1.116-.048.088-.407.122-.718.068-.535-.06-.535-.06-.183.13.176.094.664.242 1.023.208.359-.035.494-.075.312.054-.183.129-.23.217.034.359 1.098.702 2.278 1.676 2.448 1.994.17.318.217.23.271-.081.101-.4.101-.4.582-.028.217.23.658.466.881.472.312.054.4.102.265.142-.23.217.258.366 1.016.432.583-.028.759.067.752.29.082.271.082.271.441.237.359-.034.447.013.617.331.298.5 1.403.98 1.768.722.183-.129.23-.217-.122-.406-.576-.196-.481-.372.189-.352.447.012.535.06.617.33.122.407 1.261 1.245 1.444 1.116.047-.088.277-.305.507-.522.69-.651 1.096-.774 1.307-.32.129.182.258.365.305.277.047-.088.183-.129.23-.217.136-.041.23-.217.366-.258.047-.088.582-.028 1.07.12l.887.25-.745-.514c-.441-.236-.881-.473-1.017-.432-.135.04-.4-.101-.569-.42-.387-.547-.293-.723.236-.44.529.284 1.782.276 1.795-.171.006-.224.094-.177.223.006.17.318.57.42.752.29.048-.088-.04-.135-.217-.23-.176-.094-.264-.142-.081-.27.047-.089.053-.312-.164-.542-.129-.183-.352-.19-.399-.101-.048.088-.136.04-.217-.23.006-.224.053-.312.23-.217.223.006.223.006.006-.224-.129-.182-.441-.236-.576-.195a.764.764 0 0 1-.535-.06c-.176-.095-.129-.183.006-.224.136-.041.23-.217.142-.264-.17-.319.25-.888.514-.746.176.094.135-.041-.034-.36-.17-.317-.205-.676-.022-.805.095-.176.142-.264-.034-.359-.088-.047-.523-.507-.821-1.008-.299-.5-.692-.825-.868-.92-.089-.047-.482-.372-.787-.649-.475-.595-.475-.595.101-.4.264.142.623.108.759.067.047-.088.176.094.258.365.21.454.21.454.311.054.054-.312.237-.44.454-.21.176.094.576.195.799.202.359-.035.494-.076.189-.353-.217-.23-.081-.27.407-.122.399.1.575.195.399.1-.176-.094-.217-.23-.122-.406.142-.264-.204-.677-.997-1.102-.353-.19-.394-.325-.082-.27.223.006.494-.076.589-.252.094-.177.406-.123.799.202.353.189.529.283.488.148a.766.766 0 0 1 .06-.535c.142-.264.318-.17.536.06.217.23.346.413.298.5-.047.089.088.048.359-.034.454-.21.737-.739.479-1.104-.04-.136-.034-.36-.027-.583.006-.223.141-.264.182-.128.123.406.733.96.963.743.047-.088.054-.312.013-.447s-.082-.27.006-.223c.224.006.929.384 1.187.75.129.182.305.277.393.324.135-.04.047-.088-.041-.135-.176-.095-.258-.365-.204-.677.013-.447-.075-.494-.434-.46-.582.028-.928-.385-.604-.778.325-.393.013-.447-.352-.19-.183.13-.407.123-.624-.107-.176-.094-.352-.189-.488-.148-.047.088-.223-.007-.305-.277-.21-.454-.204-.677.101-.4.217.23.759.067.677-.204-.04-.136 0 0 .082.27.251.59.516.731.57.42-.041-.136.141-.265.318-.17.487.148-.239-1.036-.89-1.726-.739-.737-1.038-1.238-.726-1.184.135-.04.047-.088-.041-.136-.176-.094-.312-.053-.312-.053-.047.088-.223-.007-.4-.101-.305-.277-.068-.718.379-.705.223.006.223.006-.041-.136-.264-.142-.441-.236-.393-.324.047-.088-.041-.136-.129-.183-.088-.047-.17-.318-.252-.589.013-.447.06-.535.23-.217.082.271.258.366.353.19.047-.089-.035-.36-.252-.59-.217-.23-.298-.5-.251-.588.047-.089.135-.041.217.23.041.135.17.318.258.365.088.047.006-.224-.252-.589s-.644-.913-.855-1.367c-.468-.819-.645-.913-.827-.784-.048.088.081.27.21.453.217.23.475.595.645.914.251.589.251.589-.142.264-.264-.142-.393-.325-.346-.413.047-.088-.041-.135-.217-.23-.176-.094-.176-.094.006-.223.136-.041.095-.177-.034-.36-.176-.094-.346-.412-.387-.547-.034-.36-.122-.406-.705-.378-.359.034-.758-.067-.975-.297-.217-.23-.177-.095-.007.223.211.454.211.454-.189.353-.264-.142-1.098-.703-1.756-1.17-.698-.601-1.573-1.298-2.013-1.534-.482-.372-.658-.466-.617-.331.034.359-.447-.013-.699-.602l-.122-.406c.088.047.488.148 1.023.208 1.199.304 1.375.398 1.668 1.122.251.59.251.59.352.19.006-.224-.163-.542-.597-1.002-.394-.324-.523-.507-.346-.413.264.142.399.101.447.013-.041-.135-.306-.277-.658-.466-.488-.148-.576-.196-.434-.46.094-.176.054-.312-.299-.5-.481-.373-.481-.373-.047.087.393.325.393.325-.318.17-.8-.202-1.769-.722-1.146-.615.224.007.495-.075.637-.34.277-.304.324-.393-.069-.717-.265-.142-.346-.413-.387-.548.095-.176-.082-.27-.705-.378-.935-.162-1.07-.12-1.281-.574-.21-.454-.028-.583.454-.21.264.141.393.324.346.412-.048.088-.095.176.264.142.312.053.359-.035.142-.265-.129-.182-.123-.406.101-.4.135-.04.23-.216.142-.264-.088-.047-.312-.054-.406.123-.325.393-.542.163-.652-.69l-.068-.718.846.114c.536.06.806-.021.766-.157-.035-.359-.564-.643-.97-.52-.406.122-1.145-.615-.915-.832.23-.217.629-.116.576.196-.048.088.129.182.617.33.487.15.664.244.833.562.129.182.258.365.306.277.047-.088-.082-.27-.164-.542-.217-.23-.122-.406.06-.535.271-.081.359-.034.529.284.129.183.116.63.022.806-.054.312-.013.447.251.589.176.094.4.1.447.013.047-.088-.041-.136-.217-.23-.488-.149.696-.875 1.232-.815.447.013.447.013.094-.176-.529-.284-.563-.643-.157-.765.359-.034.589-.252 1.002-.598.23-.216.318-.17.488.149.169.318.169.318.359-.035.094-.176.324-.393.459-.434.224.007.454-.21.42-.57.053-.31.154-.71.337-.84.23-.216.23-.216.176.095-.06.535.217.23.325-.393.013-.447.101-.4.589-.252.264.142.623.108.67.02.095-.176.095-.176-.129-.183-.27.082-.359.034-.352-.189.006-.224-.082-.27-.217-.23-.494.075-.881-.473-.381-.772l.731-.515c.413-.346 1.395-.273 1.341.038.041.136.041.136.177.095.229-.217 1.029-.015 2.662.748.841.338 1.505.58 1.505.58.047-.088.311.054.44.237.305.277.441.236.671.02.182-.13.501-.3.724-.293.224.006.224.006.041.135-.454.211-.365.258 1.234.662.711.155 1.816.634 2.344.918 1.674.899 2.691 1.33 2.785 1.155.048-.089.536.06.976.296.441.236.929.385.976.297.047-.088.135-.041.264.142.041.135.265.142.359-.035.095-.176.454-.21.853-.11.312.054.488.149.353.19-.136.04.081.27.434.46.658.466 1.016.432.582-.028-.217-.23-.129-.183.23-.217.312.053.4.1.265.142-.048.088-.007.223.081.27.088.048.312.054.359-.034.095-.176 1.87.323 2.622.613.441.236.935.161 1.03-.015.094-.177.318-.17.67.02.658.465 1.911.457 2.012.057.054-.311.142-.264.623.108.305.277.57.419.617.33.047-.087.135-.04.311.055.041.135.265.141.359-.035.374.995.333.86-.066.759zM382.331-4.24c-.089-.048-.265-.142-.306-.278-.129-.182-.081-.27.095-.176.264.142.434.46.211.454zm-64.21-30.713c.177.094.218.23.17.318-.047.088-.182.129-.182.129-.089-.048-.129-.183-.17-.318.006-.224.006-.224.182-.13zm-2.16 5.082c-.399-.1-.834-.56-.739-.737.047-.088.312.054.711.155.705.378.692.825.028.582zm1.539.94c-.135.04-.312-.054-.4-.102-.088-.047-.129-.182-.129-.182.048-.088.224.006.4.1.176.096.264.143.129.184zm.389 2.024c-.095.176-.23.217-.271.082-.041-.136.007-.224.142-.265.135-.04.223.007.129.183zm-.256 1.111c-.088-.047-.217-.23-.082-.27.136-.041.224.006.312.053l.082.271c-.048.088-.183.129-.312-.054zm.413-.346c-.129-.183-.123-.406-.035-.359.359-.034.529.284.299.501-.094.176-.094.176-.264-.142zm4.904 5.242c-.136.041-.4-.1-.576-.195-.176-.095-.305-.278-.258-.366.047-.088.312.054.576.196.217.23.393.325.258.365zm4.049 3.876c-.088-.048-.129-.183-.035-.36.095-.176.495-.075.576.196.082.271-.324.393-.541.164zM275.951-3.108c.006-.224-.211-.454-.346-.413-.224-.006-.176-.095.182-.129.271-.082.495-.075.583-.028.088.047.041.136-.047.088-.136.041-.183.13-.19.353.041.135.035.359-.012.447 0 0-.129-.183-.17-.318zm1.029-.015c-.047.088-.223-.007-.311-.054-.217-.23-.069-.718.283-.529.224.007.258.366.028.583zm6.289-11.72c-.088-.047-.129-.182-.21-.453-.082-.27-.082-.27.135-.04.305.277.34.636.075.494zm-4.176 11.378c-.176-.094-.217-.23-.082-.27.048-.089.183-.13.312.053.176.095.217.23.082.27-.048.089-.136.042-.312-.053zm1.607 1.657c-.217-.23-.251-.589.013-.447.353.19.651.69.516.731a.639.639 0 0 1-.529-.284zm7.641-13.604c-.176-.094-.264-.141-.305-.277-.041-.135.183-.129.359-.034.488.148.482.372-.054.311zM281.048.081c-.088-.047-.217-.23-.081-.27.047-.089.135-.041.311.053.041.136.129.183.082.271-.047.088-.135.04-.312-.054zm14.087-24.557c-.399-.102-.352-.19.007-.224.582-.028.67.02.576.196-.095.176-.318.17-.583.028zM283.973-.506c-.094.177-.229.218-.27.082-.041-.135.006-.223.142-.264.223.007.223.007.128.183zm2.001 1.982c-.176-.094-.122-.406.101-.4.088.048.177.095.082.272-.047.088-.095.176-.183.128zm3.626 1.492c-.176-.094-.217-.23-.082-.27.047-.089.271-.082.359-.035.176.095.264.142.082.27-.048.089-.271.082-.359.035zm1.599.404c-.4-.1-.712-.154-.664-.243.047-.088.359-.034.758.067.4.101.664.243.664.243-.047.088-.358.034-.758-.067zm1.377 1.874a.439.439 0 0 1-.217-.23s.136-.04.359-.034c.176.095.265.142.217.23-.047.088-.182.129-.359.034zm29.09-18.89c-.135.042-.311-.053-.487-.147-.177-.095-.129-.183.006-.224.135-.04.312.054.488.148.176.095.129.183-.007.224zm-13.655 28.195c-.406.123-.494.075-.657-.466-.205-.677.29-.753.717-.07.258.366.299.502-.06.536zm16.963-26.533c-.176-.094-.217-.23-.082-.27.048-.089.183-.13.312.053.176.095.217.23.082.271 0 0-.136.04-.312-.054zm-11.902 27.887c-.305-.277-.786-.649-1.091-.926l-.57-.42.888.25c.664.243.84.338.745.514-.047.088.082.27.258.365.4.101.57.42.475.596-.182.129-.399-.101-.705-.379zm6.031 1.875c-.264-.142-.488-.149-.535-.06-.048.088-.359.034-.712-.155-.793-.426-.698-.602.149-.488.846.114 1.951.593 1.809.857-.223-.006-.447-.012-.711-.154zm3.619 1.715c-.352-.19-.752-.29-.711-.155.04.136-.447-.013-.929-.385-.881-.472-.834-.56-.217-.23.488.149.976.297 1.335.263.359-.035.847.114 1.111.256.793.425.339.636-.589.25zm.896 1.502c-.135.041-.312-.053-.488-.148-.088-.047-.129-.183-.081-.27.047-.089.223.006.487.148.177.094.217.23.082.27zm2.65 1.195c-.176-.094-.217-.23-.082-.27.048-.089.183-.13.312.053.176.095.217.23.082.271-.048.088-.271.082-.312-.054zm1.769.723l-.441-.237c-.129-.183-.041-.135.224.007.176.094.352.189.217.23zm7.305 2.671c-.136.041-.536-.06-1.152-.39-1.146-.616-.78-.873.453-.211.752.29.881.472.699.601zm.778-.603c-.095.176-.23.217-.271.081-.041-.135.142-.264.277-.305.183-.129.224.006-.006.224zm.15.988c-.135.041-.312-.054-.352-.189-.041-.135-.082-.27.053-.312a.304.304 0 0 1 .353.19c.129.182.081.27-.054.311zm2.426 1.189c-.04-.136-.528-.284-.84-.338-.847-.114-1.199-.303-.793-.425.135-.041.183-.13-.034-.36-.177-.094-.306-.276-.258-.365.094-.176.535.06.928.385.088.048.305.277.57.42.528.283.874.696.692.825-.136.04-.224-.007-.265-.142zm1.784 1.751l-.617-.33c-.129-.183.048-.089.4.1.217.23.305.278.217.23zm3.811-1.813c-.088-.047-.217-.23-.082-.271.047-.088.224.006.312.054l.081.27c-.047.089-.223-.006-.311-.053zm16.567 10.366c-.271.082-.63.116-.718.069-.088-.047-.129-.183.054-.312a.216.216 0 0 0-.082-.27c-.176-.095-.264-.142-.081-.271.23-.218.629-.116 1.152.39.129.184.081.272-.325.394zm-4.158-4.728c.311.053 4.289 1.734 4.947 2.2.352.19-.013.448-.365.259-.617-.331-1.634-.764-1.728-.587-.048.088-.312-.054-.529-.284-.305-.277-.393-.325-.623-.107-.23.217-.23.217-.664-.243-.306-.278-.611-.555-.922-.609-.488-.148-.563-.642-.116-.63zm-9.818-2.432c.353.19.394.325.217.23l-.616-.33c-.041-.136.047-.089.399.1zm7.363 5.314c-.129-.183-.258-.366-.21-.454.047-.088.223.007.352.19.129.182.258.365.211.453 0 0-.224-.007-.353-.19zm.243-.665c-1.01-.655-1.674-.898-1.81-.857-.135.04-.006.223.387.548.353.19.57.42.434.46-.135.04-.664-.243-1.145-.615-.658-.466-1.057-.567-1.416-.533-.495.075-.935-.161-.576-.196.135-.04.094-.176-.082-.27-.129-.183-.441-.237-.576-.196-.183.129-.447-.013-.84-.337-.482-.372-.57-.42-.488-.149.116.63-.067.759-.589.252-.569-.42-.928-.385-.494.075.129.183.041.135-.359.034-.576-.195-.576-.195-.522-.507.006-.224-.076-.494-.428-.683-.217-.23-.346-.413-.123-.407.136-.04.4.101.576.196.129.183.441.236.617.331.312.054.136-.04-.434-.46-.746-.514-.834-.56-.475-.595.224.006.888.25 1.416.533.529.283 1.017.432 1.064.344.048-.088.488.148.881.473.746.513.834.56 1.023.208.23-.217.366-.258.63-.116.353.19.305.277-.094.176-.536-.06-.596.475-.067.759.264.142.352.19.223.006-.346-.412-.122-.406.407-.122.264.142.664.243.799.202.135-.04.359-.034.488.148.176.095.4.101.535.06.095-.176.183-.128.176.095-.047.088.082.27.258.365.176.095.224.007.183-.128-.041-.136.094-.177.183-.13.088.048.217.23.257.366.041.135.041.135.224.006.23-.217.718-.068.529.284-.048.088.04.136.264.142.359-.034.359-.034.041.135-.318.17-.23.218.651.69l1.322.71c.346.412.535.06.148-.488-.34-.636-.245-.813.148-.488.265.142.402 1.577.131 1.66 0 0-.576-.197-1.104-.48-.394-.325-1.539-.94-2.373-1.5zm5.932 3.751c-.218-.23-.441-.236-.624-.107-.318.17-.494.075-.975-.297-.394-.325-.658-.466-.705-.378-.048.088-.271.081-.359.034-.176-.095-.129-.183.006-.223.224.006.095-.177-.481-.372-1.457-.669-2.074-1-1.979-1.176.094-.176 1.246.215 2.697 1.107.264.142.488.148.582-.028.095-.176.318-.17.359-.034.041.135.082.27-.054.311-.135.041-.094.177.258.366.264.142.529.283.664.243.136-.041.183-.13.007-.224-.441-.236-.123-.406.318-.17.264.142.481.372.475.596.251.589.204.677-.189.352zm27.625-34.77c.094-.176.23-.217.223.007-.006.223.082.27.394.324.311.054.399.101.169.318-.094.177-.406.123-.717.069-.265-.142-.488-.148-.536-.06.041.135-.182.129-.359.034-.176-.094-.44-.236-.481-.372-.041-.135.047-.088.135-.04.306.277.8.202 1.172-.28zm1.348-4.837c.264.141.481.371.434.46-.048.088-.183.128-.224-.007-.088-.047-.305-.277-.434-.46-.217-.23-.17-.318.224.007zm-25.126 39.629c-.129-.183-.258-.365-.123-.406.095-.177.711.154.793.425.034.36-.413.346-.67-.02zm.642-.563c-.4-.101-.4-.101.095-.176.677-.205 1.001-.598.419-.57-.447-.013-2.162-1.047-2.068-1.223.048-.088.183-.129.271-.082 2.291 1.23 2.467 1.324 2.278 1.677-.142.264-.053.311.387.548.969.52 1.363.845 1.092.926-.136.041-.623-.107-1.105-.479-.528-.284-1.057-.567-1.369-.621zm2.171 2.3c-.088-.048-.265-.142-.346-.413-.129-.183-.346-.413-.658-.466-.312-.054-.312-.054.047-.089.312.054.488.149.746.514.217.23.346.413.211.453zm2.357.47c-.094.177-.318.17-.406.123-.088-.047-.129-.183-.034-.36.047-.087.23-.216.406-.122.129.183.17.319.034.36zm.338-.84c-.183.129-.542.163-.677.204-.224-.006-.224-.006-.129-.182.047-.089.006-.224-.258-.366a.764.764 0 0 0-.535-.06c-.095.176-.183.129-.393-.325-.333-.86.025-.894 1.3-.096 1.057.567 1.145.614.692.825zM391.2 3.131c.047-.089.183-.13.311.053.177.095.217.23.082.271-.047.088-.183.13-.312-.054-.128-.182-.217-.23-.081-.27zm-1.174 3.455c-.271.082-.494.076-.535-.06-.129-.182.548-.387.812-.245.129.183-.053.312-.277.305zm-4.17 15.807a1.242 1.242 0 0 1-.17-.318c.088.047.264.142.305.277.394.325.258.366-.135.041zm.967-.956c-.176-.095-.176-.095.007-.224.318-.17.494-.075.399.101-.094.177-.318.17-.406.123zm8.524 31.699c.176.094.217.23.082.27-.048.089-.183.13-.312-.053-.176-.095-.217-.23-.082-.271 0 0 .136-.041.312.054zm-.762-7.673c-.177-.095-.217-.23-.035-.359.047-.088.271-.082.359-.034.176.094.217.23.034.359-.047.088-.27.081-.358.034zm2.052.194c.441.236.481.371.292.724-.142.264-.412.346-.501.298-.176-.094-.55-1.09-.367-1.218-.041-.136.312.054.576.196zm.567-1.058l-.664-.243c-.352-.189-.616-.33-.657-.466.054-.312.318-.17.84.337l.481.372zm1.834-6.166c.224.007.834.561.787.65l-.529-.284c-.217-.23-.346-.413-.258-.366zm-3.346 4.333c.223.006.535.06.711.155.176.094.176.094-.047.088-.177-.095-.359.034-.501.298-.189.353-.189.353-.4-.1-.17-.319-.21-.454.237-.441zm-6.275-16.646c.176.095.305.277.258.366-.048.088-.271.081-.4-.102-.176-.094-.305-.277-.258-.365.047-.088.224.007.4.101zm.279-3.482l.082.271s-.135.041-.312-.053c-.088-.048-.217-.23-.081-.271.047-.088.183-.13.311.053zm-1.895.572c.041.136.129.183.082.27 0 0-.136.042-.312-.053-.088-.047-.217-.23-.082-.27.048-.089.271-.082.312.053zm-1.354.408c-.353-.189-.299-.5.101-.4.264.142.352.19.258.366-.048.088-.271.082-.359.034zm2.781-1.798c-.176-.095-.264-.142-.082-.271.048-.088.271-.082.359-.034.176.094.217.23.082.27 0 0-.135.041-.359.035zm4.028-1.584c-.664-.243-.793-.426-.387-.548.406-.123 1.287.35 1.098.703 0 0-.312-.054-.711-.155zm1.231-.814c-.576-.196-.746-.514-.122-.407.311.054.447.013.23-.217-.129-.182-.035-.359.195-.576l.454-.21.075.494c.069.718-.344 1.064-.832.916zm1.604-1.296c.176.094.264.141.169.318-.047.088-.23.217-.271.081-.264-.141-.21-.453.102-.4zM396.95 56.493c-.176-.095-.44-.237-.576-.196-.135.04.041.136.305.277.664.243.8.202.271-.081zM395.59 57.124c-.353-.189-.488-.148-.359.035.176.094.44.236.664.243.223.006.135-.041-.305-.278z"/><path d="M394.133 56.456c-.258-.365-.258-.365.006-.224.353.19.353.19.095-.176-.387-.548-.563-.642-.576-.195.075.494-.243.664-.69.65-.224-.006-.224-.006.041.136.176.095.399.101.447.013.047-.088.27-.081.535.06.44.237.488.149.142-.264zM400.14 46.742a.216.216 0 0 0 .082.27c.176.095.264.143.311.055l-.081-.271c-.176-.095-.312-.054-.312-.054zM399.253 46.493c.664.243.664.243.318-.17-.129-.183-.17-.318-.17-.318.135-.041-.17-.318-.61-.555l-.834-.56.651.69c.346.412.516.73.427.683-.223-.007-.047.088.218.23zM400.598 44.831c-.176-.094-.359.035-.318.17.041.136-.318.17-.583.028-.399-.1-.487-.148-.311-.054.569.42 1.104.48 1.382.175.047-.089.006-.224-.17-.319zM391.016 55.919c-.352-.19-.67-.02-.365.257.129.183.352.19.4.101.094-.176.053-.311-.035-.358zM387.182 60.103c-.671-.02-.671-.02-.264-.142.494-.075.406-.123-.692-.825-.746-.514-1.146-.615-1.193-.527.041.135.17.318.346.413.617.33.834.56.651.69-.23.217.516.73 1.051.79.223.007.494-.075.63-.116.23-.217.006-.223-.529-.283zM387.085 58.803c.088.047.312.053.536.06.27-.082.318-.17.229-.217-.217-.23-.894-.026-.765.157zM395.962 47.337c.041.135.082.27.17.318.088.047.135-.04.271-.081.047-.088.006-.224-.17-.319-.176-.094-.224-.006-.271.082zM387.659 57.522c-.264-.142-.617-.331-.84-.338-.224-.006-.135.041.346.413.441.236.705.378.84.337.095-.176-.081-.27-.346-.412zM387.285 56.526c.088.048.048-.088-.129-.182-.352-.19-.116-.63.372-.482.176.095.048-.088-.393-.324-.441-.236-.881-.473-1.105-.48-.311-.053-.27.082.34.637.434.46.78.872.915.831zM385.897 56.576c-.176-.095-.264-.142-.312-.054-.047.088-.006.224.035.36.041.135.264.14.311.053.183-.13.142-.265-.034-.36zM383.845 56.382c-.136.041-.183.13-.007.224s.353.189.488.148c.135-.04.183-.129.006-.223-.176-.095-.399-.101-.487-.149zM384.913 55.026c.453-.21.453-.21-.035-.359-.487-.148-.67-.019-.365.258.041.136.176.095.4.101zM384.885 54.444l-.082-.27c-.041-.136-.264-.143-.311-.055-.048.088-.007.224.081.271.088.047.265.142.312.054zM383.619 54.9c-.535-.06-.718.068-.413.345.088.048.312.054.495-.075.318-.17.23-.217-.082-.27zM380.716 51.639c-.136.04-.095.176.034.359.176.094.305.277.211.453-.048.088.081.271.346.413l.528.284s-.17-.318-.38-.772c-.34-.636-.469-.819-.739-.737zM397.384 32.211c-.136.041-.095.177.081.271.176.095.353.19.488.148.047-.088.007-.223-.082-.27-.176-.095-.399-.101-.487-.149zM378.584 52.651c-.217-.23-.394-.324-.529-.284-.047.089.082.271.346.413l.529.284c.088.047-.129-.183-.346-.413zM394.658 30.522c.082.27.17.318.488.148.136-.04.183-.129-.081-.27-.312-.054-.447-.013-.407.122zM378.493 51.127c-.088-.047-.311-.053-.359.035-.047.088.041.135.218.23.176.094.311.053.358-.035.048-.088-.04-.135-.217-.23zM377.756 51.867l-.352-.19.258.366c.129.182.305.277.352.189.047-.088-.082-.27-.258-.365zM376.839 49.558c.04.136.169.318.346.413.487.148.487.148.053-.312-.305-.277-.44-.236-.399-.1zM376.953 48.712c-.129-.183-.306-.278-.394-.325-.311-.054-.053.312.299.5.264.143.312.055.095-.175zM374.937 50.353c-.265-.141-.576-.195-.576-.195s.129.182.393.324c.264.142.529.284.576.196.047-.088-.129-.183-.393-.325zM377.344 47.56c.135-.041.182-.13.054-.312-.089-.047-.312-.054-.359.034-.048.089-.142.265-.054.312-.047.088.176.095.359-.034zM375.407 47.996c.217.23.17.318-.27.081-.353-.189-.441-.236-.271.082.129.183.258.366.434.46.264.142.718-.069.589-.251-.041-.136-.217-.23-.482-.372-.169-.318-.217-.23 0 0zM376.91 47.1s-.041-.136-.217-.23c-.088-.048-.312-.054-.359.034-.048.088.041.135.217.23.135-.04.359-.034.359-.034zM373.845 49.427l-.969-.52c-.488-.148-.854.11-.501.299.176.094.311.053.359-.035.094-.176.271-.081.752.29.393.325.658.467.705.379.135-.041-.082-.271-.346-.413zM396.582 21.227c.136-.04.183-.129.007-.224-.176-.094-.352-.189-.488-.148-.135.04-.183.129-.006.224.129.182.352.189.487.148zM373.701 48.215c-.312-.054-.447-.013-.359.034.088.048.488.149.799.202.312.054.448.013.359-.034-.088-.047-.487-.148-.799-.202zM398.725 18.291c.183-.129.149-.488.067-.758-.299-.501-.346-.413-.324.393-.02.67-.02.67.257.365zM374.89 45.789c-.312-.054-.054.311.474.595l.617.33-.434-.459c-.305-.277-.569-.42-.657-.466zM373.699 46.739c-.116-.63-.793-.426-.677.204.034.358.075.494.258.365.094-.176.318-.17.582-.028.264.142.217.23-.013.447s-.23.217.082.27c.535.061.765-.156.731-.515-.082-.27-.17-.318-.441-.236-.352-.19-.441-.237-.522-.508zM396.303 20.056c-.176-.095-.311-.054-.359.034a.216.216 0 0 0 .082.27c.176.095.312.055.359-.034a.216.216 0 0 0-.082-.27zM397.999 17.107c-.088-.047-.312-.054-.359.034-.047.089.041.136.217.23.176.095.312.054.359-.034-.041-.135-.129-.183-.217-.23zM372.833 47.295c-.211-.453-.299-.5-.658-.466-.223-.007-.271.081-.142.264.129.183-.182.129-.623-.108-.576-.195-.8-.202-.759-.066.129.183 2.386 1.053 2.48.877-.047.088-.129-.183-.298-.5zM373.46 45.703l-.081-.271c-.041-.136-.177-.095-.312-.054a.216.216 0 0 0 .082.27c.176.095.264.143.311.054zM372.945 44.972c.311.054.358-.035.277-.305-.211-.454-.651-.69-1.017-.432-.453.21.069.717.74.737zM370.798 44.955c-.177-.095-.224-.007-.095.176.129.182.258.365.305.277.088.047.136-.04.095-.176 0 0-.129-.183-.305-.277zM369.437 45.586c.217.23.481.372.658.467.176.094.047-.088-.394-.325-.305-.277-.393-.324-.264-.142zM365.444 47.529c.041.135.529.284 1.016.432l.976.297-.881-.473c-1.017-.432-1.193-.527-1.111-.256zM368.792 44.673c.048-.088-.081-.271-.257-.366-.177-.094-.306-.277-.258-.365.047-.088.27-.082.535.06.664.243.629-.116-.123-.406-.576-.195-.616-.33-.298-.5.318-.17.318-.17-.346-.413-.4-.101-.624-.108-.495.075.129.182-.006.223-.182.129-.4-.101-.46.434.027.582.177.095.482.372.611.555.339.636.604.778.786.649z"/><path d="M369.366 43.392c.048-.088.142-.264-.034-.359-.088-.047-.224-.006-.359.034-.047.089-.142.265.034.36.177.094.312.053.359-.035zM367.37 44.363c-.088-.047-.095.176.034.36.211.453.346.412.224.006.006-.224-.17-.318-.258-.366zM366.899 42.068c.129.183.258.365.305.277.048-.088.007-.223-.034-.359-.346-.412-.481-.371-.271.082zM366.194 41.69c-.176-.095-.223-.007-.182.129.04.135.081.27.169.318.088.047.136-.041.183-.13.047-.087.006-.223-.17-.317zM365.167 43.181c-.136.04-.353-.189-.482-.372-.217-.23-.569-.419-.969-.52-.623-.107-.623-.107.387.548.617.331 1.145.615 1.193.527.047-.088-.041-.136-.129-.183zM360.735 46.364c-.176-.095-.312-.054-.359.034 0 0 .041.136.217.23.088.047.312.054.359-.034.095-.177.007-.224-.217-.23zM362.431 43.415c-.705-.378-1.633-.763-1.504-.58.04.135.616.33.969.52.488.148.711.155.535.06zM362.605 42.033c.176.095.047-.088-.217-.23-.352-.189-.441-.236-.4-.1.177.094.394.324.617.33zM360.363 42.192c-.128-.182-.434-.46-.563-.642-.129-.183-.264-.142-.264-.142-.047.088.17.318.475.595.475.595.875.697.352.19zM358.831 41.03c-.264-.142-.44-.237-.4-.102.041.136-.135.041-.352-.189-.217-.23-.441-.236-.576-.195-.047.088.17.318.61.554.929.385 1.376.398.718-.069zM355.889 39.11c-.705-.378-1.186-.75-1.139-.838.23-.217-.393-.325-.711-.155-.183.129-.495.075-.671-.02-.176-.094-.129-.182.047-.087.224.006.359-.035.495-.076.318-.17-.916-.831-1.234-.662-.183.13-.623-.107-1.24-.438l-.881-.473c.082.27 1.926 1.487 1.844 1.217-.041-.136.271-.082.582-.028.488.148.576.195.258.365-.318.17-.318.17.211.453.352.19.928.385 1.369.622.352.189 1.104.479 1.545.715.623.108.623.108-.475-.595zM355.481 37.756c.311.054.4.101.44.236-.053.312.563.643.746.514.047-.088.007-.223-.21-.453-.129-.183-.394-.325-.611-.555-.129-.182-.44-.236-.752-.29-.224-.006-.535-.06-.664-.243s-.353-.189-.353-.189c-.189.352.869.92 1.404.98zM349.973 36.389c-.441-.236-.882-.473-1.017-.432-.088-.047.129.183.57.419.44.236.881.473 1.016.432.088.047-.129-.183-.569-.42zM350.574 35.69c.048-.088-.04-.135-.217-.23-.176-.094-.311-.053-.359.035 0 0 .041.135.217.23.089.047.312.054.359-.035zM348.61 35.544c-.047.088-.135.041-.352-.189-.17-.318-.258-.365-.441-.236s-.095.176.211.453c.264.142.664.243.799.202.135-.04.183-.129.007-.223-.041-.136-.177-.095-.224-.007zM346.723 37.369c-.353-.19-.488-.149-.359.034.176.095.441.237.664.243.224.007.136-.04-.305-.277zM380.77-5.985c.088.048.265.142.4.101.136-.04.095-.176-.082-.27-.176-.095-.352-.19-.399-.101-.136.04-.095.176.081.27zM379.543-6.87c.129.183.441.236.529.284.135-.041.006-.224-.258-.366-.569-.419-.705-.378-.271.082zM378.398-7.485c.528.284.617.331.271-.081-.129-.183-.394-.325-.529-.284-.047.088-.007.223.258.365zM345.429 32.589c-.034-.359-.034-.359-.264-.142-.095.176-.054.312.034.359.089.047.217.23.082.27-.047.089-.223-.006-.264-.141-.258-.365-.359.034-.101.4.169.318.258.365.264.142-.041-.136.189-.353.413-.346.271-.082.406-.123.182-.13-.135.041-.352-.189-.346-.412zM377.098-7.388c.088.047.311.054.311.054l-.081-.271c-.041-.136-.177-.095-.312-.054-.136.04-.095.176.082.27zM377.076-8.194c.088.047.135-.041.095-.176-.041-.136-.217-.23-.306-.278-.176-.094-.223-.006-.094.177.041.135.17.318.305.277zM369.952-12.471c1.85.993 3.436 1.844 4.616 2.817.088.048-.047.089-.271.082-.176-.094-2.026-1.088-6.69-3.817-.969-.52-1.803-1.081-1.891-1.129-.088-.047-.617-.33-1.098-.702-.482-.372-1.058-.568-1.193-.527-.224-.007-.4-.101-.617-.331-.346-.413-1.01-.656-.928-.385.041.136.522.507 1.139.838.617.331 2.243 1.318 3.741 2.122 1.451.892 3.213 1.838 3.918 2.216.705.378 2.244 1.317 3.43 2.068 1.979 1.175 2.596 1.506 2.169.823-.041-.136-.217-.23-.265-.142-.23.217-1.233-.662-1.22-1.11-.076-.493-.076-.493-2.407-1.858-1.322-.71-3.037-1.743-3.871-2.304-1.01-.656-1.451-.892-1.457-.669.041.135-.047.088-.352-.189-.129-.183-.482-.372-.482-.372-.135.041-.752-.29-1.41-.756-.657-.467-1.274-.798-1.321-.71-.183.13 3.945 2.799 6.46 4.035zM343.931 31.785c-.176-.095-.311-.054-.311-.054-.047.088-.007.224.082.271.176.095.311.054.311.054.136-.041.095-.176-.082-.27z"/><path d="M375.666-8.95c.136-.042.312.053.4.1.041.136.264.142.312.054.047-.088-.17-.318-.523-.507-.352-.19-.616-.331-.664-.243-.142.264.252.589.475.595zM342.008 31.774c-.759-.067-.542.163.481.372.488.148.624.108.407-.122-.089-.048-.441-.237-.888-.25zM341.039 31.254a1.038 1.038 0 0 0-.4-.101s.129.183.305.277c.176.095.353.19.4.101.047-.088-.041-.135-.305-.277zM339.792 31.04c-.129-.184-.481-.373-.705-.38-.223-.006-.182.13.258.366.746.514.881.473.447.013zM339.242 29.95c-.176-.095-.312-.054-.359.034 0 0 .041.135.217.23.088.047.312.053.359-.035-.041-.135-.082-.27-.217-.23zM338.036 29.87c-.182.129-.494.075-.934-.161-.529-.284-.57-.42-.123-.407.582-.027.595-.474.114-.846-.264-.142-.4-.101-.359.034.041.135-.047.088-.129-.183-.21-.453-.434-.46-.535-.06-.047.088-.224-.006-.488-.148-.529-.284-1.599-.404-1.517-.134.034.36.875.697 1.545.716.806-.021 1.023.209.57.42-.319.17-.23.216.122.405.264.142.84.338 1.281.574.928.385 1.016.433.941-.062-.081-.27-.17-.318-.488-.148zM335.419 27.557c.264.142.4.101.223.007-.176-.095-.393-.325-.61-.555-.305-.277-.305-.277-.223-.006.128.182.345.412.61.554zM333.82 27.153c-.264-.142-.576-.196-.623-.107-.048.088-.224-.007-.312-.054-.176-.095-.129-.183.006-.224.136-.04.136-.04-.04-.135-.488-.148-.46.434.028.582.176.095.487.149.616.331.177.095.177.095.136-.04-.041-.136.094-.177.318-.17.311.054.271-.082-.129-.183zM331.041 25.775c-.047.088.909 1.056 1.133 1.062 0 0 .047-.088.006-.224-.082-.27-1.044-1.014-1.139-.838zM332.417 26.173l-.082-.27c-.041-.136-.217-.23-.617-.332-.535-.06-.535-.06.082.27l.617.332zM330.755 24.828c-.088-.048-.535-.06-.941.062-.677.204-.677.204-.148.488.264.142.576.195.711.154.135-.04.047-.088-.088-.047-.406.123-.576-.195-.258-.365.183-.13.406-.123.447.013.041.135.176.094.312.053.182-.128.094-.176-.035-.358zM363.051-16.742c-.217-.23-1.715-1.034-1.81-.858-.047.088.394.325.922.609.97.52 1.193.526.888.249zM328.75 24.546c-.346-.413-.746-.514-.976-.297-.047.088-.047.088.177.095.135-.041.487.148.664.243.176.094.393.324.393.324.047-.088-.082-.27-.258-.365zM327.83 25.414c-.088-.047-.217-.23-.352-.19-.088-.046-.048.089.17.319.305.277.44.236.182-.129zM361.039-16.8c.177.094.353.189.4.1.047-.087.007-.223-.258-.365-.176-.094-.352-.189-.399-.1-.048.087.081.27.257.365zM360.666-17.795c.176.094.311.053.311.053.047-.088.007-.223-.081-.27-.177-.095-.312-.054-.312-.054-.136.04-.095.176.082.27zM360.341-17.402c.047-.088-.17-.318-.434-.46-.353-.19-.705-.378-.84-.338-.136.041.081.271.434.46.44.237.793.426.84.338zM357.298-18.922c.4.101.183-.129-.916-.831-.834-.561-1.45-.892-1.409-.757.169.318 1.837 1.44 2.325 1.588zM321.763 21.704c-.088-.047-.311-.053-.359.035-.047.088.041.135.217.23.177.094.312.053.359-.035 0 0-.088-.047-.217-.23zM320.136 20.718c-.088-.048-.264-.142-.311-.054-.095.176.834.56 1.193.527.135-.041.047-.089-.217-.23-.224-.007-.576-.196-.665-.243zM354.132-20.848c.047-.088-.217-.23-.481-.371a794.93 794.93 0 0 1-.881-.473c-.265-.142-.177-.095-.007.223.346.413 1.139.838 1.369.621zM353.711-21.755c.264.142.576.196.576.196s-.129-.183-.393-.325c-.265-.141-.529-.283-.576-.195-.048.088.129.183.393.325zM351.53-22.13c.088.046.047-.089-.217-.23-.265-.143-.353-.19-.224-.007.041.135.305.277.441.236zM316.653 18.962c-.048.088-.271.081-.535-.06-.265-.142-.353-.19-.271.081.041.136.346.413.61.555.441.236.488.148.366-.258.053-.312.012-.447-.17-.318zM350.025-22.711c.176.095.312.054.312.054s.006-.224-.082-.271c-.176-.095-.311-.054-.311-.054-.136.04-.095.176.081.27zM316.049 18.184c-.176-.095-.488-.149-.671-.02-.318.17-.406.123-.399-.1.013-.448-.252-.59-1.105-.48-.494.075-.63.116-.183.129.312.053.752.29 1.146.614.569.42.745.514.752.29-.041-.135.142-.264.365-.257.271-.082.271-.082.095-.176zM348.71-23.644c.176.095.047-.088-.217-.23-.353-.189-.441-.236-.4-.1l.617.33zM348.153-24.51c.089.047.136-.04.183-.129.047-.088.007-.224-.17-.318-.176-.095-.223-.007-.182.129.04.135.081.27.169.318zM347.253-24.312l.352.189-.258-.366c-.128-.182-.352-.189-.352-.189-.047.088.082.271.258.366zM346.548-24.69c.135-.041.183-.13.006-.224-.176-.095-.352-.19-.487-.148-.136.04-.183.128-.007.223s.353.19.488.148zM345.314-25.353c.177.095.353.19.4.101.047-.088.007-.223-.17-.318-.176-.094-.352-.189-.399-.1-.136.04-.007.223.169.317zM312.036 16.144c-.04-.136-.264-.142-.311-.054-.047.088-.007.224.082.27.176.095.264.143.311.055.047-.088-.041-.136-.082-.271zM344.21-25.832c.088.047.311.054.359-.034.047-.088-.041-.136-.217-.23-.177-.095-.312-.054-.359.034-.048.088.041.135.217.23zM343.152-26.4c.089.048.048-.088-.217-.23-.264-.141-.352-.189-.223-.006.041.136.305.277.44.236zM340.326-27.69c.088.048-.041-.134-.217-.23-.264-.141-.352-.188-.223-.006l.44.237zM324.957-14.488s-.041-.135-.217-.23c-.088-.047-.312-.053-.359.035-.047.088.041.135.217.23.135-.041.223.006.359-.035zM301.132 11.086c-.095.176-.359.035-1.105-.48-.922-.607-1.01-.655-.976-.296.082.271.123.406.394.325.223.006.311.053.352.189.041.135-.182.129-.406.122-.264-.141-.752-.29-.976-.296-.311-.054-.84-.338-1.192-.527-.441-.236-.705-.378-.665-.243.082.271 1.445 1.116 1.939 1.04.582-.027 3.32 1.215 3.314 1.439.041.135.041.135.135-.041.048-.088.013-.447-.157-.765-.386-.548-.563-.643-.657-.467zM325.114-18.375c.088.047.589-.252.589-.252-.393-.324-.787-.649-.793-.425.041.135-.224-.007-.488-.149-.352-.189-.705-.378-.84-.337-.136.04-.4-.101-.529-.284-.129-.183-.352-.19-.4-.101-.094.176 1.092.926 2.461 1.548zM322.395-15.635a1.084 1.084 0 0 0-.488-.149c-.135.041-.094.177.082.271.176.095.352.19.488.148.047-.088-.041-.135-.082-.27zM321.063-19.074c-.095.176-.183.129 0 0 .223.006.447.013.535.06.176.095.129.183-.007.224-.358.034-.006.223.753.29.447.013.535.06.264.142-.271.081-.271.081.129.182.264.142.576.196.664.243.088.047.312.054.359-.034.047-.088.006-.224-.129-.183-.135.041-.441-.236-.61-.554-.299-.501-.387-.548-.617-.331-.136.04-.494.075-.711-.155-.224-.007-.448-.013-.63.116zM320.444-16.229c-.048.088-.007.224.081.271.177.095.312.054.312.054a.216.216 0 0 0-.082-.27c-.176-.096-.264-.143-.311-.055zM332.918-31.438c.088.048-.041-.135-.217-.23-.264-.142-.352-.189-.223-.006.129.183.305.277.44.236zM332.368-32.527c.088.047-.041-.136-.217-.23-.264-.142-.352-.19-.223-.007l.44.237zM321.529-19.732c-.217-.23-.969-.52-1.152-.391-.047.088.041.135.082.27.088.048.312.055.359-.034.047-.088.223.007.4.102.346.412.481.371.311.053zM292.974 8.524c.129.183.305.277.44.236.088.048-.041-.135-.217-.23-.264-.141-.352-.189-.223-.006zM318.503-23.398c.054-.312-.034-.36-.129-.183-.094.176-.27.081-.535-.06-.305-.278-.305-.278-.047.088.299.5.698.602.711.155zM316.945-23.667c.217.23.772-.38.602-.699-.041-.135-.176-.094-.359.035-.094.176-.277.305-.277.305-.047.088-.095.176.034.359zM316.518-24.35c.047-.089-.041-.136-.082-.271-.088-.048-.305-.278-.57-.42-.129-.182-.305-.277-.352-.189-.047.088.17.318.387.548.305.278.569.42.617.331zM289.894 5.169c-.176-.095-.311-.054-.359.034 0 0 .041.136.217.23.088.048.312.054.359-.034.047-.088-.129-.183-.217-.23zM315.041-29.002l-.081-.27c-.041-.136-.265-.142-.312-.054a.216.216 0 0 0 .082.27c.176.095.311.055.311.055zM285.191-16.308c.088.047.135-.04.182-.129.048-.088.007-.223-.169-.318-.177-.095-.224-.007-.183.129.041.135.082.27.17.318zM293.066-27.176c.088.047.312.054.359-.034.047-.088-.041-.136-.217-.23-.176-.095-.312-.054-.359.034-.047.088.041.136.217.23zM290.908-25.27c.312.054.583-.028.63-.116.047-.088-.041-.135-.353-.189-.311-.054-.582.028-.629.116-.048.088.04.136.352.19zM286.493-19.581c.048-.088.007-.224-.081-.27-.088-.048-.312-.055-.359.034-.047.088-.007.223.081.27.224.007.359-.034.359-.034zM291.927-28.014c.047-.088.271-.082.312.054.04.135.264.142.311.053.047-.088.007-.223-.081-.27-.089-.048-.4-.102-.671-.02-.271.082-.406.123-.23.217.041.136.264.142.359-.034zM290.702-27.423c-.176-.095-.136.04.034.359.387.548.651.69.353.189.006-.224-.211-.454-.387-.548zM288.593-24.129c.129.183.353.19.4.101.047-.088.007-.223-.258-.365-.176-.095-.4-.101-.4-.101-.047.088.082.27.258.365zM274.524-6.37c.148-.489-.598-1.002-1.403-.98-.624-.108-.624-.108.169.317.705.378.875.697.164.542-.177-.095-.136.04.129.182.616.331.84.338.941-.062zM291.067-27.681c-.041-.136-.264-.142-.352-.19-.136.042-.095.177.081.272.353.189.488.148.271-.082zM281.662-16.5c.176.095.359-.034.359-.034.047-.088-.041-.135-.217-.23-.176-.094-.359.035-.359.035-.047.088.041.135.217.23zM271.169-7.944c-.23.217-.277.305-.013.447.353.189.535.06.46-.434-.081-.271-.217-.23-.447-.013zM271.906-8.683c.271-.082.271-.082-.04-.136-.224-.006-.359.035-.319.17 0 0 .224.006.359-.034zM274.963-16.917c-.095.177-.007.224.305.277.312.054.359-.034.23-.216-.17-.319-.393-.325-.535-.06zM276.295-18.131s-.128-.183-.352-.19c-.4-.1-1.118-.031-.853.11.176.095 1.158.168 1.205.08z"/></g><g opacity=".25" fill="#fff"><path d="M181.716 5.576c0-.136-.136-.136-.273 0-.136 0-.136.136 0 .271.137 0 .273.136.273 0v-.271zM180.216 4.896c-.136-.136-.272-.272-.409-.136-.136.136-.272.136-.409 0 0-.136 0-.271.273-.407.136-.136.409-.408.409-.544 0-.272.136-.272.545-.272.273 0 .409.136.409.272 0 .408.682-.136.819-.68.272-.543.409-.679.545-.27 0 .27.136.27.273.135.272-.272-.137-.815-.409-.544-.137 0-.137 0-.137-.135 0-.136.137-.272.273-.272.273 0 .273-.136 0-.544-.273-.407-.409-.543-.545-.272-.137.136-.41.136-.546 0-.136-.135-.136-.271 0-.271s.136-.272 0-.408c-.136-.136-.273-.136-.273 0-.136.136-.136.136-.136-.136 0-.407.136-.407.409-.407.273 0 .273.135.273.271-.273.272.136.68.409.544.136-.136.273-.136.409 0 .136.136.136.136.273 0 .136-.136.272-.136.272-.136.273.408.409-.272.273-.68-.136-.271-.273-.407-.409-.271 0 .136-.136.136-.273.136-.136 0-.136-.272 0-.408.137-.136.273-.136.409-.136.137.136.273 0 .409-.136.273-.271.273-.271-.136-.271-.273 0-.545 0-.545-.136-.137-.136-.273-.272-.409-.136-.137 0-.273.136-.137.272.137.271-.272 1.087-.545.95-.137 0-.137-.135 0-.271.545-.272.136-.408-.682-.272-.409.136-.682.136-.409 0 .682-.407.682-.407.136-.543-.409-.136-.545-.272-.545-.544 0-.407 0-.407.273-.136.136.136.409.136.409.136.136 0 0-.136-.137-.272-.136-.135-.136-.271.273-.407.273-.136.545-.136.545 0s0 .272-.136.407c-.136 0-.273.272-.136.408 0 .272.272.272.818 0 .409-.136.818-.272.954-.136.137.136.273 0 .409-.407.137-.544 0-.544-.818 0-.272.135-.272.135 0-.272.273-.408.273-.68 0-1.087-.409-.68-.409-.951.137-.816a.872.872 0 0 0 .818 0c.545-.271 1.5 0 1.772.408.137.272.273.272.273.136s0-.408-.273-.544c-.136-.135-.272-.407-.136-.543.136-.136-.136-.136-.545 0-.546.136-.682.136-.818-.136-.137-.408-.137-.408-.41.136-.272.408-.272.543-.545.272-.409-.272-.273-.816 0-.68.273.136.273.136.136-.136-.136-.135 0-.271.137-.271.136 0 .272-.136.136-.272s-.409 0-1.091.272c-.545.271-.954.543-.954.407 0-.136 0-.136.136-.136s.136-.135 0-.271c-.273-.272-.273-.408 0-.544.136-.136.409-.136.409 0 .273.408.682.272.818-.136.137-.136.137-.272.137-.272.136.272.681-.679.545-.95-.136-.272-.136-.272-.273-.137-.272.408-.954.952-1.09.68-.137-.136.272-.408.681-.68.546-.271.818-.679.818-.95 0-.272.137-.408.273-.544.409-.272.273-.68 0-.68s-.273-.136-.136-.407c.136-.272.136-.408.136-.136 0 .272.682.68.818.543 0 0 0-.271-.136-.679-.136-.272-.273-.543-.409-.408 0 .136-.273.136-.409 0-.273-.135-.137-.271.136-.271s.546-.136.682-.136c.136-.136 0-.136-.273-.136-.272 0-.545 0-.409-.136.137-.136 0-.408-.273-.68-.545-.543-.545-.815 0-.815.546 0 .682-.271.137-.543-.273-.136-.273-.272-.137-.272.137 0 .273-.272.137-.68 0-.407-.137-.679-.273-.679-.273.136-.409-.272-.136-.408.409-.271.272-.679-.137-.95-.272-.137-.409-.408-.272-.68 0-.272 0-.543-.137-.543-.136 0 0-.136.137-.136.272 0 .272-.136.272-.272s-.136-.136-.272-.136c-.137 0-.137-.136-.137-.408 0-.271.137-.543.273-.68.136-.135.273-.27.136-.543 0-.135.137-.407.273-.407s.273-.136.136-.136c-.136 0-.136-.408-.136-.815 0-.816-.273-1.903-.545-1.767-.137 0-.137 0-.137-.136s.137-.271.273-.136c.409.272.273-1.223-.136-1.63-.273-.136-.273-.272-.137-.408.682-.407 0-2.31-.818-2.581-.273-.136-.273-.272 0-.544.273-.408.273-.408-.136-.543-.273 0-.546-.136-.818-.408-.273-.272-.273-.272.136-.544.409-.136.545-.271.273-.407l-.546-.544c-.136-.136-.272-.272-.409-.272-.136 0-.272.136-.545 0-.136 0-.818-.136-1.364-.136-.545 0-1.227-.135-1.363-.135-.546-.136-4.364-.544-4.909-.544-.682 0-3.818-.407-4.364-.407-.272 0-1.227-.136-2.181-.272-.955-.136-1.773-.272-2.046-.272a.415.415 0 0 0-.545 0 .415.415 0 0 1-.545 0c-.137-.136-.682-.136-1.091-.272-.409 0-2.318-.407-4.227-.68-1.773-.407-3.409-.543-3.546-.543-.136 0-.818 0-1.636-.271-2.591-.544-4.5-.952-5.181-.816-.273 0-.682-.136-.819-.136a.415.415 0 0 0-.545 0 .415.415 0 0 1-.545 0c-.137-.136-.819-.136-1.364-.271-.545 0-1.227-.136-1.364-.136-.136 0-.818-.136-1.363-.136s-1.636-.272-2.454-.408c-.819-.271-1.773-.407-2.182-.407h-.682l.545-2.039c.273-1.087.546-2.174.41-2.31-.137-.135 0-.407.136-.679.136-.136.409-.68.273-.951 0-.272 0-.815.136-.951a.413.413 0 0 0 0-.544c-.136-.136-.136-.543 0-.815.136-.272.136-.68 0-.68-.136-.135 0-.271 0-.271.136 0 .136-.68 0-1.495 0-.68-.136-1.766 0-2.174 0-.408 0-.951-.136-1.223-.137-.136-.273-.68-.137-.951 0-.544 0-.544-.545-.68-.273 0-.682-.271-.682-.407-.136-.136-.273-.136-.273-.136-.136.136-1.5 0-3.818-.136-.681-.136-1.363 0-1.5.136-.136.136-.954.136-1.772.136-1.909-.136-7.227-.408-9-.408-.818 0-1.772-.136-2.454-.136-.955 0-5.045-.136-6.954 0H100.993c-1.09.136-3.954.136-6.272.272s-5.59.136-7.09.272-3.955.136-5.455.272c-3.681-.136-21.544 1.358-21.817 1.494 0 0-.818.136-1.773.272-.954.136-2.59.272-3.681.408-1.091.136-2.591.407-3.136.407a250.42 250.42 0 0 0-5.455.816c-.954.135-1.909.407-2.318.407-.681.136-5.863 1.087-7.908 1.495-.955.136-2.318.408-3.41.68-1.09.135-3.135.679-4.772 1.086-1.636.408-3 .68-3.136.816-.273 0-.273.136 0 .271.136 0 .136 0-.273-.135-1.09-.136-9.954 2.581-14.59 4.484-3.954 1.63-6.409 3.125-7.5 4.484-.408.543-.818 1.087-.818 1.358 0 .136-.409.816-.818 1.36-.545.815-.681 1.086-.545 1.358s.136.408 0 .272c-.273-.136-.273 0-.136 3.125 0 .815.409 1.495 1.636 2.582.545.543.954.95 1.09 1.223.137.271.955.543 2.455 1.087.41.136.818.407.955.543.272.544 1.909 1.087 3.545 1.223.818.136 1.636.136 1.636.136.136 0 .682 0 1.364.136.954.272 5.181.136 5.59-.136h2.455s.545-.136 1.227-.136c.545 0 1.09-.136 1.227-.136s2.318-.272 2.727-.272h1.364c.136 0 1.09 0 1.773-.135h1.636c.136 0 .409 0 .681-.136.273-.136.546-.136.546-.136.136.136 1.364.136 2.863-.136h.682c.273.136 3.273-.272 3.545-.408.137-.136.41-.136.41 0 .136 0 1.636 0 3.545-.136s3.681-.271 3.954-.271c1.636 0 2.59-.136 2.864-.272a.416.416 0 0 1 .545 0c.41.136-.954.68-5.181 1.766-4.364 1.223-6.41 1.903-8.727 2.854-.41.136-1.091.407-1.5.543-.682.272-.955.408-1.227.816-.273.407-.273.543-.41.271 0-.136-.272-.136-.818 0-.818.408-1.09.272-.545-.271.273-.272.136-.272-.273 0-.545.271-.545.407-.136.543.273.136.409.272.409.408 0 .136.136.136.273-.136.272-.272.409-.272.409 0 .136.272 0 .407-.273.543-.273.136-.41.272-.273.408 0 .136.137.136.273 0 .136-.272.273 0 .273.408 0 .271-.137.407-.273.271-.136-.136-.273 0-.41.136-.135.136-.272.272-.544.272-.273 0-.273 0-.273.136.136.136.273.408.273.68.136.271.136.407 0 .543-1.364.68-1.364.68-.819 0 .41-.544.41-.544 0-.544a.75.75 0 0 1-.681-.407c-.137-.136-.273-.136-.273 0-.136.136-.273.271-.545.407l-.273.272c0 .136 0 .408-.273.68-.273.271-.273.543-.136.543.136 0-.137.272-.546.543-.409.272-.818.408-.954.272-.137-.136 0-.136.409-.271.545-.136.545-.136.136-.272-.545-.136-.545-.136-.136-.544.273-.271.273-.407-.137-.407-.409 0-.409-.136-.409-.544 0-.68-.272-.543-.545.136-.136.408-.818.951-1.09.815-.137 0-.137-.136-.137-.407 0-.272 0-.272-.41-.136-.272.136-.408.407-.272.407.136 0 .136.272 0 .408.136.408.136.543.136.68.137 0-.136.135-.409.271-.272.136-.409.136-.409 0 .41-.408 0-.408-.818 0-.682.408-.818.544-.409.544l.273.272c-.137.271-.818.679-1.091.679-.273-.136-.818 1.495-.546 1.766.137.136 0 .272-.136.408-.136.136-.273.136-.409.272-.136 0-.136 0-.273-.136 0-.136-.136-.136-.272-.272-.137 0-.137.136 0 .272.136.272.136.272-.137.136-.136-.136-.273-.136-.273 0s-.136.136-.409 0h-.409c0 .136 0 .136-.272 0-.273-.136-.41 0-.41.136-.136.271-.136.271-.409-.136-.136-.272-.409-.408-.545-.272-.273.136-.273.272.41.815l.408.272-.545-.136c-.273-.136-.41-.136-.273 0 .136.136.136.408.136.544-.136.271 0 .543.273.95.41.408.41.408-.136.68-.273.136-.546.408-.818.951-.137.408-.41.68-.682.68-.273 0-.273-.136 0-.408.136-.272.273-.543.136-.68-.136-.271-.272-.271-.272 0-.137.137-.273.408-.546.544-.273 0-.545.272-.545.544-.137.543 0 .815.136.407.136 0 .136 0 .136.272.137.68.273 1.223.41.951 0-.136.136-.543.272-.815.41-.68.682-.136.273.68-.41.815-.546 1.222-.41 1.63.137.272 0 .272-.136 0l-.272-.408v.544c0 .272.136.68.272.815.137.136.137.272 0 .544-.272.271-.136.407.137.679.409.408.545.951 0 .815-.273-.136-.273-.136-.136.136.136.136.545.408.954.544.409.136.818.407.954.543.137.272.273.272.682.272h.41s.136.272.272.408c.41.271.41.407.136.543-.272.136-.272.272 0 .272.273 0 .41 0 .546-.136.136-.136.273 0 .545.272.137.272.41.543.546.543.136 0 .136-.136.136-.136 0-.135 0-.271.136-.271.137 0 .137 0 .137.136 0 .135.136.135.272.135.137 0 .137.272.137.544v.543c.136 0 .272 0 .409.136.136.136.409.272.545.136.273 0 .546 0 .682.136s.136.272-.136.272c-.137 0-.273.136-.273.272 0 .135.273.135.41 0 .135-.136.272-.136.272 0 0 .135.136.135.136.271.273.272.546.68.41.68-.137 0-.137.136 0 .272 0 .135.272 0 .272-.272a.75.75 0 0 1 .682-.408c.409 0 .409 0 .409-.272 0-.407.545-.815.818-.543 0 .136 0 .272-.136.272-.137.135 0 .135.272.271.546.136.682.408.41.544-.137.136-.273 0-.41-.272-.136-.272-.136-.272-.136 0 0 .408 0 .408-.136 0-.137-.543-.41-.543-.546-.136-.136.544 0 .68.41.544.272-.136.545 0 .681.272.136.271.273.271.545.135.137.136.41.136.41.408.136.272.272.272.409.136.272-.272 1.227-.136.954.272-.136.135 0 .407.136.543.273.136.273.272-.136.272-.409 0-.409.136 0 .136.273.136.41 0 .41-.136s.136-.272.272-.408c.273-.136.545.272.409.544-.136.136 0 .136.136-.136.273-.272.41-.272.41 0s.272.408.545.272c.409-.136.409-.408 0-.408-.137 0-.137 0-.137-.136.137-.136.41 0 .682 0 .546.136 1.636-.272 1.227-.408-.136 0-.136-.271 0-.543.273-.543.546-.408.546.272 0 .407-.273.543-.818.95l-.819.409.955.136c.682.135.955 0 1.09-.136 0-.136.274-.272.41-.272.273 0 .273.136.136.408 0 .407 0 .543.273.679s.273.136.136.407c-.136.136-.409.68-.545.952l-.955 1.902c-.136.136-.272.68-.409 1.223-.136.543-.272.951-.545.951s-.41.408-.546 1.087c-.136.544-.272.815-.272.68 0-.272-.136-.272-.273-.272-.136.136-.136.271.137.543.409.408 1.09.68 1.363.544.136 0 .273-.136.273 0 .136 0 .136 0 0-.136-.137-.136 0-.272.272-.408.273-.136.41-.136.546-.136 0 .136.273 0 .545-.136l.41-.271-.273.407c-.273.408-.273.408 0 .544.272.136.409 0 .545 0 0-.136.136-.136.273 0 .136 0 0 .272-.273.408-.409.271-.545.407-.409.679.136.272.273.272.273 0 .136-.544.818-.815.818-.408 0 .136.273.408.545.408.273.136.546.272.546.408 0 .135.136.135.545-.136.41-.408.41-.408.546-.136.136.407 1.09.136 1.227-.408.136-.272.273-.272.545-.136.273.136.546.272.682.544.136.136.409.272.682.136.409-.136.409 0 .273.136-.137.135-.137.407.136.679.273.272.409.272.818 0s.545-.272.818.136c.137.272.41.407.682.272.409-.136.409 0 .818.679.41.815.41.815.955.408.272-.136.545-.544.681-.68 0-.136.41-.407.682-.68a4.13 4.13 0 0 0 .682-.95c.136-.272.273-.544.409-.544.136-.136.136-.272.136-.407v-.136c.273 0 .137.815-.136.815-.136 0-.273.136-.273.272s.137.136.41 0c.272-.136.408-.136.408.136 0 .135.137.271.41.271.272 0 .272-.136.136-.136-.137-.135-.137-.135.136-.135.136 0 .41-.136.41-.272s.136-.272.272-.272.273-.136.273-.272-.137-.136-.137-.136c-.136 0-.272 0-.409-.135-.136-.272-.136-.272.273-.272.273 0 .409 0 .273-.136 0-.136.136-.272.409-.408l.409-.136h-.546c-.545 0-1.09-.543-.681-.815.136-.136.272 0 .409.136.136.408.545.408.954-.272.41-.543.955-.407.682.136-.137.272-.136.408.136.408.137 0 .273-.136.273-.272-.136-.408.273-.544.409-.272.136.136.273.272.545.136.546-.136.137-.543-.545-.543-.545-.136-.545-.136-.409-.544.136-.272.136-.544 0-.68-.136-.271-.273-.271-.273.136 0 .272-.136.544-.136.544-.137 0-.136 0-.136-.272 0-.271 0-.136-.137.136-.136.408-.273.408-.545.408-.273 0-.273-.136 0-.272.136-.136.273-.272.136-.408 0-.136-.273-.136-.409 0-.409.408-.545.408-.682.408-.272-.136.41-.544.818-.408.137 0 .546 0 .819-.271.409-.272.545-.272.409-.816-.137-.271 0-.543.136-.543s.409-.272.545-.408c.137-.271.273-.407.41-.271.136 0 .136.407-.137.95-.273.68-.273.816.136.952.273 0 .41 0 .41-.136.136-.408.681.136.681.407 0 .408.546.408.955-.135.136-.136.273-.136.273 0 0 .271.136.271.272 0 .137-.136.41-.272.546-.136.136.136.136.136-.137.136-.272 0-.272.136.273.271.41.136.682.136.682 0s.273-.407.545-.679c.273-.272.546-.408.546-.272 0 .136-.137.272-.273.408-.273.136-.273.136.136.136.273 0 .546-.272.546-.544.136-.68.272-.815.272-.136 0 .408.137.544.41.544.272.136.409 0 .409-.136-.273-.408.136-1.087.545-.951.545.136.545.408.136.543-.272.136-.409.136-.272.408.272.408 0 .815-.546.951-.136 0-.273.136-.136.272.136.136.136.136.136 0s.137-.136.41-.136c.272 0 .408-.136.545-.544.136-.543.136-.543.409-.271.136.136.136 0 .136-.408-.136-.951.273-1.223.682-.407.136.271.682 0 .818-.408.136-.408.136-.408.273-.136.136.136.273.272.545.136.546-.136.546-.136.273-.272-.137 0-.137-.136 0-.272.136-.136.409-.136.409 0 .273.136 1.364-.543 1.636-.95.137-.273.273-.273.273-.137s0 .272-.136.272c-.137.136-.137.136 0 .136.136 0 .272-.136.545-.408.273-.407.41-.407.818-.407.273.135.41.135.41-.136 0-.272.136-.272.272 0 .136.271.273.271.409.136.136-.136.41-.136.818 0 .546.271.546.271.41-.136-.137-.272-.137-.272.272-.136.273.136.545.407.545.543 0 .136.137.272.273.136.136 0 .136-.136.136-.272 0-.135.137-.271.273-.407.273-.136.273-.272 0-.408-.273-.136-.273-.136.137-.271.545-.136.545-.136.409.271-.137.408 0 .544.681.544.41 0 .819 0 .819-.136s-.137-.136-.41-.272c-.409 0-.409 0-.136-.408.546-.543.546-.543.682-.271.136.136.273.136.409 0 .136-.136.409-.136.682 0 .272.136.409.136.272 0-.272-.544.273-.408.682.136.546.679.818.679 1.091.136.136-.272.136-.408-.136-.136-.273.136-.41.136-.682-.408-.273-.68-.273-.68.545-1.087.41-.272.955-.408 1.091-.272.136.136.682 0 1.091-.136.41-.136.818-.272.954-.136.137.136.546.136.955 0 .41-.136.682-.271.818-.136 0 0 .41 0 .682-.271.954-.544 2.182-.136 1.5.543-.136.136 0 .272.682.272 1.09 0 1.363-.136 1.09-.408-.136-.136.137-.136.273 0 .41.136.546 0 1.227-.407.41-.272.955-.68 1.228-.951.272-.136.545-.272.545-.136s.273.136.41 0c.135-.136.408 0 .544 0 .137.136.546 0 1.091-.408.682-.543.955-.543.955-.272.136.408.545.68.545.272 0-.408.682-.408 1.091-.136.41.272.818 0 .955-.543 0-.272.136-.408.272-.272.137.136.137.136 0 .272-.136.136-.136.136 0 .271.137 0 .273 0 .41-.135.136-.136.272-.136.272-.136.137.271 1.91 0 2.455-.272 1.09-.544 1.772-.815 1.908-.951.273-.136-.136 1.087-.409 1.223-.136.136-.136.136.137.136.272 0 .409-.272.545-.952.273-.815.273-.95.682-.679.273.136.273.272-.136.68-.41.407-.546.95-.137.679.137 0 .137-.136 0-.272 0-.136 0-.272.137-.272.136 0 .136 0 .136.136s.136.136.409 0c.273-.136.546-.136.682 0 .273.136.136.272-.273.408-.409.136-.545.272-.545.407 0 .136-.137.272-.41.408-.545.136-.545.136 0 .136.273 0 .546-.136.682-.272 0-.136.137-.136.273 0 0 .136.273.136.409.136.137 0 .273-.136.137-.136-.137 0-.137-.136 0-.272.136-.135.272 0 .409 0 .136.272.545.136.545-.135 0-.136 0-.136.136.135.137.272.41.544.955.68.818.136 1.227 0 1.5-.544.136-.271.136-.271-.136 0-.41.408-.546.272-.41-.271 0-.272.273-.408.41-.408.409 0 .681.68.409.951-.137.136-.137.272 0 .272.136 0 .272-.136.272-.408.137-.272.137-.407.273-.272.136.136.273.136.273 0 .136-.135.272-.135.409.136.273.408.545.272.545-.136 0-.135.137-.407.273-.407.545-.136.409-.68-.136-.951-.273-.136-.41-.136-.273 0h-.818c-.546 0-.818 0-.682.136.409.135-.409.543-.955.407-.409-.136-.409-.136 0-.272.41-.135.41-.135.137-.271-.546-.136-.546-.272.273-.816.409-.271.818-.407.818-.271 0 .271 1.636.136 2.045-.136.136-.136.273-.272.273-.408 0-.136.272-.272.681-.136.41.136.819 0 1.091-.136a1.17 1.17 0 0 1 .955 0c.545.272.545.272.818-.271.273-.408.409-.544.682-.408.136.136.272.272.409.272 0 0 .409.271.682.543.818.544.818.68.136.816-.409 0-.545.135-.545.271 0 .272 0 .272.272.272a5.89 5.89 0 0 1 2.182 0c.818.136 1.227 0 1.227-.408 0-.135.137-.271.409-.407.273-.136.546 0 .682.272.136.271.273.407.682.135.273-.135.545-.271.818-.135.136 0 .409 0 .545-.136.137-.136.273-.136.409 0 .137.136.137.136.137-.136s.136-.408.272-.272c.137.136.41 0 .819-.136.272-.136.545-.272.545 0 0 .136.136.136.409.136a.662.662 0 0 1 .546 0c.136.136.136 0 0-.272 0-.272 0-.543.136-.543s.273.136.273.407c0 .272.136.272.545 0 .273-.136.409-.271.409-.136 0 .136.136.136.409 0 .273-.135.546-.271.682-.135.136 0 .409 0 .545-.136.409-.272.955 0 .682.271a.413.413 0 0 0 0 .544c.137.272.273.272.546 0 .272-.272.272-.272.409.136.136.272.136.408.272.272.137-.272 1.5-.408 1.773-.136.136.136 0 .272-.409.407-.409.136-.409.272-.273.408.137.136.409.136.409 0 .137-.136.273-.136.409 0 .409.272 1.228-.136.955-.543-.137-.136 0-.272.273-.408.681-.136.681.136-.137.815l-.136.544 1.227-.544c.682-.272 1.227-.407 1.364-.407 0 .135.272.135.409 0 .136-.136.409 0 .545.271.136.272.273.272.136 0-.136-.407 1.228-1.223 1.5-.95 0 .135.409.135.819.135h.818c0 .136.272 0 .545-.272s.409-.272.273-.136c-.137.272 0 .272.682 0 .409-.136.954-.271 1.09-.136.137.136.41.136.682 0 .273-.135.409-.135.546.136.272.408.818.544 1.363.272.273-.136.546-.136.682 0s.682 0 1.227-.136c.818-.136 1.091-.136 1.227.136.137.272.546.408.819.408.818 0 .954-.136.272-.272-.409-.136-.545-.136-.136-.272h.409s.273.408.545.68c.273.271.273.543.137.543-.137 0-.137.136 0 .136.136.136.409.136.545.136.137 0 .137-.136 0-.136-.136-.136-.136-.136 0-.272.137-.136.137-.136 0-.271-.136 0-.136-.136 0-.272.137 0 .273-.272.409-.408.273-.272.273-.272.137 0-.137.136-.137.272 0 .272.136 0 .136 0 0 .136v.68c.136.407.136.407.409.27.272-.135.272-.27 0-.27-.273 0-.273-.137-.273-.544v-.544l.545.136c.409.136.546.272.546.544 0 .135.136.407.273.407.409.272.545 0 .272-.543-.136-.272-.136-.408-.136-.408s.273-.136.409-.272c.136-.136.273-.136.409.136 0 .272.136.272.136-.136 0-.272.137-.543.137-.407 0 0 .272.271.409.543.273.408 1.091.815 1.5.544.136-.136.682.136.818.407.136.136-.546.408-.682.272-.136-.136-.273-.136-.273.136a.292.292 0 0 1-.272.272c-.273 0-.273.136-.137.136a.417.417 0 0 0 .546 0c.136-.136.272 0 .272 0 0 .135.137.135.273.135.137 0 .273-.135.137-.271-.137-.136 0-.272.272-.408.409-.136.409-.136.273.272-.136.272.136.68.409.407.136 0 .136-.135 0-.271-.136 0 0-.272.273-.408.272-.136.545-.272.682-.136 0 .136-.001.272-.273.408-.137.136-.273.407-.273.543 0 .136.136.272.273.272.272-.136.545.408.273.68-.137.135-.001.135.136 0 .273-.136.273-.272 0-.544-.137-.272-.137-.544 0-.68.136-.135.273-.271.409-.135 0 .136.409 0 .682-.272.681-.408.818-.272.545.408-.136.271-.273.271-.682.271-.409-.136-.545 0-.681.272-.273.544.272.951 1.227.815.818-.136.954-.136.954-.407 0-.272 0-.272.409-.272.273.136.273.136.273.272-.273.407.136.815 1.091.95 1.227.273 1.363.273.954-.135-.136-.136-.545-.272-.818-.136l-.545.136.409-.408c.273-.271.409-.407.682-.271.272.135.272 0 .409-.408 0-.272.136-.408.136-.272 0 .68.273 1.087.682.951.273-.136.409 0 .409.136s-.136.272-.273.408c-.136 0-.272.136-.272.136 0 .136.409.136.818 0 .545-.136.818 0 .954.136.137.136.273.271.409.136.137-.136.409 0 .818 0 .273.135.682.135.818 0 .137-.136.273-.408.273-.68.137-.815.818-1.087 1.364-.408.272.272.272.408-.137.408-.272 0-.545.136-.818.136-.272.136-.272.136.137.136.272 0 .818-.136.954-.136.136-.136.409-.136.546 0 .136.136.136.136 0 .136-.137 0-.273.136-.137.272.137.271.273.271.409-.136.137-.272.409-.408.546-.408.272 0 .409 0 .545-.272.136-.271.136-.271-.273-.407-.272 0-.272 0 0-.272.273-.136.409-.136.546-.136.136.136.409 0 .818-.136s.818-.272.954-.136c.273.136.273.136.273-.136 0-.135.137-.271.273-.271s.136 0 0-.136-.273 0-.409 0c0 .136-.137 0-.137-.136s-.136-.272-.272-.136c-.137.136-.273 0-.137-.136.137-.407.546-.407.682-.136.137.136.409.272.682.408.545.136.545.136.545-.272 0-.407 0-.407.409 0 .137.272.41.544.546.815.136.272.273.272.545.272.273-.136.273-.136 0-.407-.272-.136-.136-.272.409-.136.682.136 1.637.271 1.909.136V6.39c-.136-.408-.545-.68-.409-.272 0 .136-.136.272-.409.136-.409 0-.409-.136-.409-.543 0-.408.137-.544.546-.544.818-.136 1.636-.408 1.5-.68-.273-.271.545-.543.954-.271.409.136 1.227-.544 1.227-.951 0-.408.409-.68.546-.408 0 .136-.137.68-.546 1.087-.409.815-.545.815-.136.544.273-.136.545-.136.682 0 .136.135.409.135.409.135-.409.544-.409.408-.546.272zm0-2.038c-.409.408-.954.136-.818-.272.137-.543.546-.68.682-.407.136.136.273.136.273 0 .136-.136.136-.136.136 0s.273.271.682.271c.409 0 .682.136.682.272s-.273.136-.682 0c-.409 0-.682 0-.955.136zm-.272-1.63c0-.136 0-.136.136-.136s.273.135.409.135c0 .136 0 .136-.136.136-.137 0-.273-.135-.409-.135zm-1.228.95c-.136-.135 0-.271.273-.407.409-.136.409-.136.136.272-.136.136-.272.407-.272.407s0-.135-.137-.271zm-4.499 2.31c0-.135.136-.135.272-.271.137 0 .137 0 0 .136-.136.271-.272.271-.272.136zm-6.682 3.398c0-.272.955-.816 1.364-.68.136.136.136.136-.273.272-.273.136-.409.272-.409.408 0 .271 0 .271-.273.271s-.409-.136-.409-.271zm-3.409 1.223c0-.136-.136-.136 0-.272h.273c.136 0 .136.136 0 .272 0 .135-.136.135-.273 0zm2.591-1.631c-.409 0-.409 0 .136-.408.273-.271.682-.407.818-.271.273.135.273.135-.136.407-.136 0-.545.136-.818.272zm-4.5 1.359c-.136 0-.136-.136 0-.272.137-.136.273-.136.409 0v.272c-.136.136-.272.136-.409 0zm1.5-1.495c-.273 0-.682 0-.818.136-.273.136-.273.136.136.136.273 0 .273 0 .137.136-.546.136-.818-.544-.546-1.223.273-.815.409-.951.273-.408 0 .272 0 .408.273.272.136-.136.409-.136.409 0 .136.136.409.272.682.272.545 0 .681.407.272.68h-.818zm-2.318.815c-.136-.271 0-.271.682-.407.409 0 .409 0 0 .271-.409.136-.682.272-.682.136zm-.409-.68c0-.27.273-.543.409-.543.136-.135.136.136 0 .272-.273.68-.545.815-.409.272zm14.863-9.51c-.273-.136-.273-.136-.136-.272.136-.136.409 0 .409.136.136.135.136.271.136.271s-.136-.136-.409-.136zM162.49 5.303a1.038 1.038 0 0 1-.273-.68c0-.407.137-.407.409.136.546.68.409.952-.136.544zM181.034-6.11c.137-.272.137-.272.137 0s0 .408-.137.408v-.408zm-21.135 12.5c-.136 0 0 0 .273-.135.273 0 .273-.136.273-.272s.136-.271.272-.407c.409-.272.409.136.137.271-.137.136-.137.272 0 .408 0 .272-.273.272-.955.136zm19.908-11.956c-.136-.136 0-.272.137-.272.136 0 .409 0 .409.136s0 .271-.137.271c-.136 0-.272 0-.409-.135zM156.49 8.02c-.136 0-.136-.135 0-.271h.409c.137 0 .137.136 0 .271 0 .136-.272.136-.409 0zM181.443-7.74c0-.271 0-.407.137-.543.136-.136.136-.272.136-.408-.136-.136 0-.136.137-.136.136 0 .272.136.136.408-.136.272-.136.544-.136.68.136.407.136.407-.137.407-.136 0-.273-.272-.273-.408zM170.399-.539c0-.136.136-.136.409-.272.136 0 .136 0 0 .136-.273.136-.409.136-.409.136zm-11.045 6.522c0-.136.136-.136.272-.271.137 0 .137 0 0 .135-.136.136-.272.272-.272.136zm-1.364-.136c.137-.543.546-.271.546.136 0 .408 0 .408-.409.272 0 0-.137-.136-.137-.408zm25.226-14.946c-.273-.136-.273-.272-.136-.68.136-.271.136-.407.136-.271 0 .135.136.271.273.271.136 0 .273.136.273.408-.137.408-.137.408-.546.272zM158.945 5.168c-.137-.272-.137-.408.136-.544.273-.135.409-.135.409.272 0 .272-.136.544-.136.544-.137.136-.409 0-.409-.272zm-.818.272c-.137 0-.137-.136.136-.272.136-.136.273 0 .273.136s0 .272-.137.272c0 0-.136-.136-.272-.136zm1.772-1.223c-.136 0 0-.136.137-.272.136-.136.272-.136.272 0s0 .272-.136.272h-.273zm-3.681.815c.136-.136.136-.272.136-.408-.136-.271.545-.679.818-.407.136.136.273.272.409.272.136 0 0 .271-.136.407-.137.136-.273.136-.273 0 0-.407-.273-.136-.409.408-.136.408-.136.408-.409.272-.273-.272-.273-.408-.136-.544zm-1.909-.815c-.137 0-.137-.136-.137-.272 0-.272.682-.272.818-.136 0 .272-.409.544-.681.408zm23.862-14.54c0-.407.273-.679.409-.407.136.136 0 .272-.273.68 0 .135 0 0-.136-.272zm5.045-10.598c-.136-.136 0-.136 0-.136.136 0 .273-.136.273-.407.136-.408.136-.408.136 0 0 .543-.273.815-.409.543zm.136-.951s0-.136.137-.272c0-.136.136-.136.273 0 0 .136 0 .272-.137.272h-.273zm-43.77 24.05c-.136.137 0 .137 0 0-.136-.407.273-.407.409-.135.137.136 0 .136-.136 0 0 0-.137 0-.273.136zm43.361-27.311c0-.136-.136-.136 0-.272h.273c.136 0 .136.136 0 .272s-.273.136-.273 0zM130.174 4.353c0-.136-.137-.136-.273 0-.137.136-.273.271-.273.136 0-.136-.273-.136-.545 0-.546.135-.546-.272 0-.544.272-.136.545-.272.681-.272.137 0 .409 0 .546.272.273.136.409.272.409 0 .136-.136.136-.136.136 0s-.136.408-.409.544c-.136.135-.272.135-.272-.136zm-5.591-.68c-.409-.271-.273-.407.136-.407.137 0 .409.136.409.271 0 .408-.272.408-.545.136zm-1.773.408c-.136-.136-.136-.272.137-.408.136-.136.409 0 .545.136.273.408-.273.544-.682.272zm-2.318.68c-.409-.408 0-.544.409-.137.273.136.273.272.137.408-.273 0-.546-.136-.546-.272zm-2.318.407v-.272c0-.136.137-.136.273 0v.272h-.273zm-2.863.815c-.409-.136-.409-.271-.137-.407.137-.136.273 0 .273.136 0 .135.136.135.136.135.137 0 .273 0 .409.136.41.136-.272.272-.681 0zm1.636-.815c0-.136 0-.272.136-.272.137 0 .273 0 .273.136s0 .272-.136.272c-.137 0-.273 0-.273-.136zm-2.727.272c-.273-.408 0-.68.545-.408.409.272.409.272 0 .408-.272.272-.545.136-.545 0zm-11.59 2.99c-.137-.273.272-.409.681-.273.409.272.409.272-.136.272h-.545zm.681-2.31c-.136-.137 0-.408.137-.408.136-.136.272 0 .409.135.136.136 0 .408-.137.408-.136 0-.409 0-.409-.136zm-2.045.27c0-.135-.273-.135-.409 0-.273.137-.409.137-.409 0-.137-.27.409-.814.682-.678.136 0 .272 0 .272-.136s.273 0 .273.136c.136.271.136.407 0 .543-.136.272-.409.272-.409.136zm-6.409 1.224c-.136-.136-.136-.272 0-.408.273-.136.546 0 .546.272-.137.408-.41.408-.546.136zm-5.181-.951c-.546.136-.955.136-.955 0 0-.272 1.773-.68 2.318-.68.546.272-.136.544-1.363.68zm-6.136 3.94c-.137-.136-.137-.136 0 0 .136-.136.272-.136.136-.272 0-.136 0-.136.136-.136.137 0 .273.136.41.136.136.136-.41.408-.682.272zm10.363-7.066v-.271c0-.136.136-.136.272 0v.271c-.136.136-.272.136-.272 0zm-7.909 3.941c-.136 0-.273-.136-.273-.136 0-.136.273-.136.546-.136.409 0 .273.272-.273.272zM91.04 4.08l-.273-.272c0-.136 0-.136-.136-.136s-.272.272-.272.408c-.137.272-3.137 1.359-3.955 1.359-.273 0-.545.136-.682.136-.136.136-.545.136-.818.136-.273 0-.682.135-.818.135-.136.136-.545.136-.818.272-.545.136-.545.136 0 .136.273 0 .545.136.409.272-.136.272-1.364.407-1.364.136 0-.272-.545-.272-.954-.136-.273.136-.136.136.136.272.546.135.546.271-.136.679-.273.136-.546.272-.682.136 0-.136-.273 0-.409 0-.273.136-.273.136-.136-.136.136-.136 0-.408-.137-.408-.136-.136-.136-.136 0-.271.41-.272-1.909.407-2.59.679-.41.136-.682.272-.682.136-.136-.136-.273-.136-.41 0-.136.136-.545.272-.817.272-.546.135-.546.271-.546.543 0 .544-.409.815-.545.272 0-.272-.137-.272-.41-.136-.272.136-.272.272-.272.408.136.407-1.227.679-1.773.407h-.818c-.136 0-.545.136-1.227.136-.545 0-1.09.136-1.09.272-.137.136-.955.272-1.5.136-.273 0-.682.136-.955.407-.273.272-.682.408-1.091.408-.41 0-.546 0-.818.544-.273.543-.273.543-.273.136.136-.408 0-.408-.273-.136-.272.271-.545.407-.954.407-.41 0-.682 0-.818.272-.137.272-.273.272-.682.136-.273-.136-.546-.136-.41-.136 0 .136 0 .136-.272 0-.273-.136-.273-.136-.136.136.136.136.136.407 0 .407-.137 0-.273 0-.273-.135-.136-.136-.273 0-.682.271-.272.272-.681.408-.681.272 0-.136 0-.272.272-.408.273-.135.273-.271.137-.271-.137 0-.546.136-1.364.543-.136.136-.545.136-.682.136-.409-.136-1.772.544-1.363.68.136 0 .136.135 0 .271-.137 0-.273 0-.41-.136-.136-.136-.408-.136-.408-.136-.137 0-.137.136 0 .272.136 0 .136.136 0 .272-.137.136-.137.136.136.136s.273 0 .136.136c-.273.136-.818.136-.954 0V14c.136-.272.136-.272 0-.136-.137.136-.273.272-.273.408 0 .272-1.227.543-1.364.408-.136-.272-1.5.815-1.636 1.223-.136.271-.136.271-.273.135-.136-.136-.272 0-.409.136-.136.136-.272.136-.272 0 0-.271-.273-.271-.682-.271-.818.135-1.227.407-.955.543.137 0 .137.272.137.272-.137.136-.137.136-.273 0-.273-.408-.954-.272-1.5 0-.273.136-.409.136-.409.136 0-.136-.273 0-.545.136-.273.135-.41.407-.41.543.137.136.137.136.273 0 0-.136.273 0 .41.136.136.272.136.408-.41.543-.409.136-.545.272-.545.544 0 .408-.273.68-.41.272-.136-.272 0-.951.273-.951.137 0 0-.136-.136-.272-.273-.272-.273-.408-.136-.544.136-.136.136-.271-.137-.407-.136-.136-.272-.408-.136-.408.136-.136.273 0 .273.136s.136.272.273.272c.136 0 .136-.272.136-.272 0-.136.273-.544.682-.815.409-.272.681-.544.545-.68-.136 0-.136-.136 0-.271 0-.136-.136-.272-.545-.272-.546-.136-.546-.136-.546-.544.137-.543.546-.815.818-.543.137.135.41.135.546-.136.136-.136.409-.272.545-.272.137 0 .137.136 0 .272-.136 0-.136.136-.136.271 0 .136.273 0 .409-.271.136-.272.273-.408.136-.544-.136-.136-.136-.271 0-.271.137 0 .273-.272.41-.408.136-.136.272-.136.408 0 0 .136.137.136.41 0a.416.416 0 0 1 .545 0c.136.136.409.136.545 0 .137-.136.41 0 .41.136.136.136.408.407.681.407.41 0 .41 0 .137-.271-.273-.272-.273-.272.272-.272.273 0 .818-.136.955-.272.272-.136.545-.408.681-.408.273-.135.273-.135.137.136-.136.272 0 .272.409 0 .409-.136.545-.271.545-.136 0 .136.137.136.137.136.136 0 .273 0 .409.272.136.272.273.272.818-.136.273-.271.682-.407.682-.271 0 .135.136.135.272 0 .137 0 .137-.136 0-.272-.136 0-.136-.272 0-.408.137-.136.273-.272.273-.136.136.272 1.636 0 1.636-.272 0-.136.137-.136.41-.136.272.136.681 0 .954-.271.41-.272.682-.408.682-.136.136.136.273.136.545 0 .682-.408 1.636-.408 1.636 0 0 .272.273.272.41.136.136-.136.136-.136.136-.272-.273-.136.136-.68.409-.68.136 0 .273.137.273.272 0 .272.272.136.409-.271 0-.272.136-.272.272-.136.137 0 .41 0 .546-.136.136-.136.409-.136.682 0 .136.136.409.136.681 0 .273-.136.546-.136.546 0 .136.136.273 0 .545-.136.41-.408 1.5-.68 1.5-.272 0 .136 0 .272.137.136.136 0 .409-.136.681-.272.41-.136.41-.136.273-.271-.136-.136-.136-.136.136 0 .546.135.955 0 .819-.272-.137-.136 1.5-.544 2.045-.544.136 0 .273 0 .409-.136 0-.135.136 0 .136.136.137.272.273.272.682.136.273-.136.273-.272.136-.136-.136 0-.409 0-.409-.136-.136-.135.137-.271 1.228-.135.681 0 .681 0 .681-.272 0-.136-.136-.408-.272-.408-.137 0-.137-.136 0-.136.136 0 .272.136.409.408.136.272.272.408.545.272.273-.136.41-.136.273-.272.273.272.273.272.545.272.137.136.682 0 1.091-.272.546-.272.682-.408.546-.408-.41 0-.41-.407.136-.68.273-.135.409-.135.273.137-.137.272-.137.272.136 0 .41-.408 1.5-.544 1.636-.272.137.136.273.136.41 0 .272-.272.408-.272.681 0 .273.272.41.272.682 0 .273-.272.409-.272.409-.136 0 .408.545 0 1.09-.68.41-.543.546-.543.546-.271.137.272.273.272.818-.272.41-.407.819-.407.819-.272.136.136.272.136.409 0 .545-.271 1.5-.271 1.363 0-.136.136 0 .272.273.408.545.136.682 0 .409-.272-.273-.271-.136-.407.954-.68.546-.135.955-.135 1.091 0 .137.137.273.137.41 0 .272-.27.408-.27.545.137.136.272.136.407-.41.815-.272.136-.681.272-.954.136zm-7.772 3.94c-.136 0-.136-.135 0-.271a.416.416 0 0 1 .545 0c.137 0 .137.136 0 .271-.272.136-.409.136-.545 0zm2.454-1.63c-.272 0-.272 0-.136-.272.273-.407.818-.543.955-.272.272.136-.273.544-.819.544zm-12.408 4.484l-.682-.136.818-.272c.955-.407.955-.407.955 0 0 .272-.41.544-1.091.408zm-3.954 2.038c0-.136 0-.136.136-.136s.273.136.409.272c.136.272.136.272-.136.136-.137-.136-.41-.272-.41-.272zm14.453-8.968c-.409-.136-.409-.136.137-.272.272-.136.681-.271.818-.271.136-.136.409-.136.409 0 .136.135-.955.679-1.364.543zm-12.817 7.202c0-.136 0-.272.136-.408.137-.136.273 0 .273.136s-.136.272-.136.408c0 0-.137 0-.273-.136zm-6.818 2.99c-.136-.137-.136-.273.136-.273.273 0 .41 0 .41.136 0 .272-.273.408-.546.136zm-1.09 0c0-.137-.274-.273-.546-.273-.273 0-.546 0-.682-.136s-.136-.271.545-.407c.682-.272.682-.272.41-.544-.273-.271-.273-.271.136-.136.272.136.409.136.272.408-.136.136-.136.272 0 .272 0 0 .273-.136.546-.136.273-.136.545-.136.682 0 .272.136.136.136-.273.272-.409.135-.545.271-.409.407.136 0 0 .136-.136.136-.137 0-.273.136-.273.272s.136.272 0 .272c-.137-.136-.273-.272-.273-.408zM77.54 5.303c0-.136 0-.272.136-.408.137-.136.273-.136.41 0 0 .136 0 .272-.137.408-.136.136-.273.136-.409 0zm-12.818 7.61c-.136-.137.137-.409.41-.409.136 0 .136.136 0 .272-.137.136-.41.136-.41.136zm9.682-6.387c-.137-.136-.137-.272 0-.272.136-.136.273 0 .409.136.272.272-.136.408-.41.136zM59.95 15.359v-.272h.41c.135 0 .135.136 0 .272h-.41zm-1.09.408c0-.136 0-.272.136-.272s.272 0 .272.136 0 .271-.136.271-.273 0-.273-.135zm8.044-5.3c-.409-.136-.409-.136 0 0 .41 0 .682 0 .546.136 0 0-.273 0-.546-.136zm-10.636 6.25c-.136-.135 0-.135 0-.135.137 0 .273-.136.41-.408.272-.407.272-.407.136 0-.273.68-.41.816-.546.544zm1.228-1.494c0-.136 0-.408.136-.543.273-.136.409.136.409.679s-.545.408-.545-.136zM60.223 14v-.272c0-.136.136-.136.272 0V14c-.136.136-.272.136-.272 0zm-1.637.816c-.136-.136-.136-.136.41-.408.409-.136.545-.272.545-.544 0-.136 0-.136.273 0 .272.136.136.272-.273.544-.41.408-.818.543-.955.408zm-3.272 1.086c-.136-.271.273-.543.545-.271.273.271.137.815-.136.68-.273 0-.41-.273-.41-.409zm-8.727 4.892c-.136 0-.136-.136 0-.272h.273c0 .136.136.136 0 .272-.137.136-.137.136-.273 0zm8.181-5.3v-.27h.41c.136 0 .136.135 0 .27-.273.137-.41.137-.41 0zm-.681.137c0-.408-.137-.544-.546-.544-.272 0-.409-.136-.409-.136 0-.136.137-.136.41 0 .272.136.408 0 .545-.136.272-.271.409.408.136.952-.136.407-.136.407-.136-.136zm-5.318 2.853c0-.272.545-.543.545-.407 0 .135 0 .271-.273.407-.136.136-.272.136-.272 0zm-1.91 1.223c-.136 0 0-.272.273-.408.273-.135.41-.135.41 0 0 .136-.137.272-.273.408h-.41zm1.228-.951c0-.136 0-.272.136-.272.137 0 .273 0 .273.136s0 .272-.136.272c-.137 0-.273-.136-.273-.136zm-1.636-.544c0-.271.954-.135 1.227.136.136.272 0 .272-.545.136-.41-.136-.682-.136-.682-.272zm3-1.494c-.41-.272-.41-.408 0-.544.272-.136.409-.136.409.272.272.408 0 .543-.41.272zM43.86 20.25c0-.136 0-.272.136-.408.137-.272.273-.272.137.136 0 .408-.137.543-.273.272zm3.818-2.718c0-.136-.136-.272-.136-.136-.137 0-.273-.136-.273-.272 0-.271.136-.271.409-.271.409 0 .409.136.273.543-.137.272-.273.408-.273.136zm-9.136 1.359c0-.136 0-.272.136-.272.137 0 .137.136.137.272-.137.407-.273.407-.273 0zm-6.954.68v-.273c0-.135.136-.135.273 0v.272h-.273zM28.724 9.243v-.271c0-.136.137-.136.273 0v.271c-.136.136-.273.136-.273 0zm-.545-1.087c-.136-.136 0-.271.136-.271.137 0 .273.135.273.271 0 .272-.136.272-.409 0zm-5.318-.95v-.273c0-.135.136-.135.273 0v.272h-.273zm-7.09-5.572c0-.272.136-.407.136-.407.273 0 .136.543 0 .679-.136 0-.136-.136-.136-.272zm17.59-13.18c-.546-.136-.819-.408-.546-.544.136 0 .136 0 .136.136s0 .272.137.136c0 0 .273-.136.409-.136.273 0 .273-.136.136-.272-.273-.136-.136-.271.137-.407.272-.136.409-.136.409.407.136.816.136.816.681.272.41-.272.41-.272.137 0-.273.544-.955.68-1.636.408zM16.18-1.082c-.137-.136 0-.272.136-.408.273-.136.273-.136.136.272 0 .271-.136.407-.136.407s0-.136-.136-.271zm15.544-10.191c-.136-.136-.136-.272 0-.272.137 0 .273.136.273.136v.272c-.136.135-.273 0-.273-.136zm-6.409 3.532v-.407s.137 0 .273.136c.137.136.137.271 0 .407-.136.136-.273.136-.273-.136zM30.633-11c0-.136.137-.272.273-.408.273-.136.41-.136.273.136-.273.407-.41.543-.546.271zm-12.68 6.93c-.137 0-.137 0 0 0 .136-.137.272-.273.136-.408 0-.136 0-.272.136-.408.136 0 .273.136.136.408.137.543-.136.679-.409.407zm12.135-7.61c-.273-.68-.273-.68-.136-.815.136 0 .272.136.409.543.136.544 0 .951-.273.272zM22.043-6.79c-.136-.136-.136-.272 0-.408.136 0 .273 0 .409.136.136.136.136.272 0 .407-.136.136-.273 0-.41-.135zm10.09-6.387c-.136 0 .137-.271.41-.543.408-.408.954-.408 1.09 0 0 .136-1.363.68-1.5.543zm-12.135 6.93c-.137-.272-.137-.68 0-.815.136-.272.272-.136.136.136 0 .271 0 .543.136.68.137.135.137.27.137.27-.137.137-.273 0-.41-.27zm-2.455 1.767c0-.136 0-.272.137-.272.136 0 .272 0 .272.136s0 .271-.136.271-.136 0-.273-.135zM15.09-3.257c-.137-.271.136-.271.409-.135.136.135.136.135 0 .271-.273-.136-.41-.136-.41-.136zm5.318-3.804c-.137-.136 0-.272.272-.408.273-.136.41-.136.41.136 0 .136 0 .408-.273.408-.137 0-.273 0-.41-.136zm12.135-7.202c-.136-.136.137-.407.41-.407.136 0 .136.136 0 .271-.273.136-.41.272-.41.136zm-6.408 3.805c-.137 0-.137-.136 0-.272.136 0 .272 0 .272.136s.137.136 0 .272c-.136-.136-.136-.136-.272-.136zm9.136-5.707c0-.136 0-.136.272-.272h.41l-.273.272h-.41zm-2.182.815c-.137-.272.409-.543.545-.408.137 0 .137.136.137.272s-.546.272-.682.136zM17.952-6.246c0-.136-.136-.136 0-.272h.273c.136 0 .136.136 0 .272 0 .136-.136.136-.273 0zm18.681-11.55c0-.271.136-.407.273-.271.409.271.409.407 0 .543-.137.136-.273.136-.273-.272zm-2.59.68c-.41.407-.41.407 0 0 0-.272.272-.68.408-.816.273-.271.41-.135.41.272 0 .272 0 .408-.273.272-.137 0-.41.136-.546.272zm4.772-2.718c0-.136.136-.136.409-.272.136 0 .136 0 0 .136-.273.136-.41.136-.41.136zm-13.5 7.881c-.272-.136.137-.68.546-.815h.682c.409.136.272.136-.273.543-.545.136-.954.408-.954.272zm7.773-5.57c0-.137.136 0 .409.135.273.136.273.272 0 .136-.273 0-.41-.136-.41-.272zm2.181-1.088c-.272-.136 0-.272.41-.272.272 0 .409 0 .136.136-.273.136-.545.136-.545.136z"/><path d="M178.171 5.576c-.273-.408-.682-.408-.682.136 0 .271.137.271.546.271.272 0 .409 0 .136-.407zM176.671 6.12c0-.137-.136-.137-.273-.137-.136 0-.136.136-.136.272s.136.136.273.136c.136 0 .136-.136.136-.272zM183.762 1.363v-.271c0 .135-.273.407-.41.407-.136 0-.272.136-.136.272.136.408.409.272.546-.408zM185.671.276c-.137 0-.41 0-.546.136-.136.136 0 .136.273.136.409-.136.545-.272.273-.272zM172.035 8.43c-.136 0-.273-.137-.273 0v.27c0 .137.137.137.273 0v-.27zM170.126 8.565c0-.136-.136-.136-.273.136-.136.136-.136.272-.136.272s.136 0 .273-.136c.136 0 .272-.136.136-.272zM184.58-.539c0-.136-.273-.136-.409 0-.137.136-.273.136-.273.272h.409c.273-.136.409-.136.273-.272zM185.398-2.713c-.273-.272-.682-.136-.546.272.137.136.273.272.409.136.273-.272.273-.408.137-.408zM184.58-3.8c0-.408-.137-.408-.546.136-.136.136-.136.272 0 .407.273 0 .546-.135.546-.543zM185.125-6.382c0-.136.136-.272.273-.272.136 0 .136-.271.136-.407 0-.272-.136-.272-.273 0-.136.136-.136.136-.272-.136-.137-.272-.273-.408-.546-.136-.545.408-.545.951.137.544.272-.136.409-.136.272.135 0 .408.137.68.273.272zM186.352-7.333c-.136 0-.272-.136-.272 0v.272c0 .136.136.136.272.136.137-.272 0-.408 0-.408zM185.125-9.371c0-.136.136-.272.273-.272.136 0 .273-.136.273-.272s-.137-.136-.41 0c-.272.136-.409.408-.409.544.137.408.273.408.273 0zM186.898-11.817c-.137-.136-.273-.136-.273 0s-.136.272 0 .408c.136.136.136.136.273 0 .136-.136.136-.272 0-.408zM185.398-11.273c-.137-.136-.273-.136-.409-.136 0 .136.136.272.272.272.41 0 .41 0 .137-.136zM151.718 6.934c-.137-.543-.137-.543-.682-.135-.273.135-.545.407-.545.543 0 .136.136.136.409-.136.272-.272.409-.272.409 0 0 .136.136.272.272.272 0-.136.137-.408.137-.544zM149.536 7.206c-.136 0-.409.272-.545.272-.137.136.136.136.409-.136.136-.136.272-.136.136-.136zM148.445 7.478c-.136 0-.272-.136-.272 0v.272c0 .136.136.136.272 0 .137 0 0-.136 0-.272zM147.082 6.934c-.137-.135-.273-.135-.409-.135 0 0 0 .135.136.271s.273.272.409.136c0 0 0-.136-.136-.272zM146.264 7.07c-.137-.136-.273-.271-.41-.271-.272 0-.136.271.273.407.273.136.273.136.137-.136zM144.082 6.799c-.273-.136-.409-.136-.409 0 0 .271.409.407.682.271.136-.136 0-.271-.273-.271zM141.491 8.021c0-.135-.136-.271-.409-.271-.409-.136-.409.136.136.407.137 0 .273 0 .273-.136zM143.4 6.527c0-.136-.136-.136-.136-.136-.137 0-.137.272-.137.408 0 .135.137.135.137.135s.136-.271.136-.407zM183.898-17.66c.136-.271 0-.543-.136-.407-.137 0-.137.271-.137.407 0 .136.137.272.137.272s0-.136.136-.272zM142.173 6.663c-.546-.544-.682-.544-.682-.136 0 .272 0 .407.409.543.546.272.818 0 .273-.407zM140.673 8.021c0-.135-.273-.135-.409-.135-.136 0-.136 0 0 .135.136 0 .136.272 0 .408-.136.136 0 .136.136 0 .273-.272.273-.408.273-.408zM144.764 5.304c0-.136-.137-.136-.273-.136s-.136.136-.136.272.136.136.272.136c.137 0 .137-.136.137-.272zM139.718 8.157c-.136-.543-.136-.543-.409-.271-.136.135-.272.135-.272 0 0-.136-.137-.272-.273-.272s-.136.136 0 .407c.409.68.954.68.954.136zM138.219 8.021c-.137-.135-.273-.271-.137 0 0 .136.137.272.273.408 0-.136 0-.272-.136-.408zM137.809 8.293c-.136-.136-.272-.136-.272 0-.137.136-.273.136-.546-.136-.136-.136-.545-.271-.681-.136-.273.136-.41.136-.546-.271-.136-.544-.545-.68-.818-.272-.136.136 0 .272.273.272.272 0 .272.136.136.271-.136.136-.136.272.273.272h.545c.137 0 .273 0 .409.136.137.136.409.272.682.136.818 0 .818 0 .545-.272zM140.673 6.527c0-.136-.136-.136-.409 0-.273.136-.273.272-.136.272.136 0 .272.135.409 0 0 0 .136-.136.136-.272zM134.401 7.342c-.137-.136-.955 0-.955.136s.273.136.545.136c.273 0 .41-.272.41-.272zM132.082 8.7c0-.27-.409-.27-.545 0-.136.273 0 .273.273.273l.272-.272zM132.492 7.478c0-.136-.273-.136-.546-.272-.409 0-.409 0-.136.272.272.272.954.272.682 0zM133.31 6.255c0-.136-.273-.136-.546-.272h-.409s-.136.136-.545.272c-.409 0-.546.136-.409.272 0 .136.272.136.272 0 .137-.136.546-.136.819-.136.545 0 .818 0 .818-.136zM117.083 15.359c-.136 0-.272-.136-.272-.136v.272c0 .136.136.136.272 0 .137 0 .137 0 0-.136zM124.583 9.924c0-.136-.136-.136-.273-.136-.273 0-.273.136-.136.272 0 .407.409.271.409-.136zM123.356 10.06c-.137 0-.273-.136-.273-.272 0-.272-.136-.272-.545 0-.273.136-.819.272-1.091.136-.273-.136-.546-.136-.546 0-.136.271 2.318.543 2.727.136h-.272zM113.265 14.68c0-.136-.272-.136-.272 0-.137.136-.273.136-.409.136-.137-.136-.137 0-.137.271 0 .272.137.272.546.136.272-.272.409-.408.272-.543zM125.537 5.712c0-.136-.136-.136-.136-.136-.136 0-.136.136-.136.271 0 .136.136.136.136.136s.136-.136.136-.271zM124.037 6.12c-.136-.137-.409-.137-.818-.137h-.545l.682.272c.818.136.954.136.681-.136zM113.538 12.37h-.409c-.136 0-.136.136 0 .271h.409c.136-.136.136-.271 0-.271zM99.357 17.94c-.136 0-.273.137-.273.272 0 .136.137.136.273 0 .136-.271.136-.271 0-.271zM112.174 6.663c-.136-.136 0-.272.137-.272.136 0 .136-.136.136-.272-.136-.136-.136-.272 0-.272.137 0 .137-.135.137-.271 0-.408-.137-.408-.41.136-.272.543-.818.679-1.09.135-.137-.271-.273-.407-.409-.271-.273 0-.273.136-.137.271.409.272-.682.952-1.227.68-.273-.136-.682-.136-1.091 0-.545.136-.682.407-.818.815-.136.272-.273.544-.409.544-.136 0-.273.135-.136.135.136.272.545.272.545 0 0-.135.136-.271.273-.407.136-.136.136 0 0 .136-.137.136 0 .407.136.543.409.272.682 0 .409-.407-.136-.272-.136-.544 0-.952.273-.407.409-.543 1.227-.271.546.136 1.091.136 1.228 0 .136-.136.681-.136.954 0 .273.136.545 0 .545 0z"/><path d="M109.311 7.75c-.136 0-.273-.136-.409 0-.136 0-.136.136 0 .271 0 .136.273.136.409 0 .136-.135.136-.135 0-.271zM111.765 5.304h-.409c-.136 0-.136.136 0 .272h.409c.137-.136.137-.136 0-.272zM93.766 10.06c0-.136-.136-.272-.409-.272h-.545c0 .136.136.272.409.272.273.135.409 0 .545 0zM92.54 10.195c0-.135-.137-.135-.274 0-.136 0-.136.136 0 .272.137 0 .273.136.273.136v-.408zM91.721 10.331c0-.136-.136-.136-.409-.136-.273.136-.41.136-.273.272 0 .272.682.136.682-.136zM90.494 11.01c.136-.27.136-.27 0 0-.136 0-.41.137-.682.137-.273 0-.273 0 0 .136.41.271.546.271.682-.272zM58.86 29.626c-.137 0-.274-.136-.274 0v.272c0 .136.137.136.273 0s.136-.272 0-.272zM87.903 11.554h-.409c-.136 0-.273.136-.136.136.272.136.681 0 .545-.136zM89.267 10.467c0-.136-.273-.136-.41-.136-.136 0-.136.136-.136.136 0 .136.273.136.41.136.136 0 .136-.136.136-.136zM86.403 11.826c-.136-.272-.545-.272-.545 0 0 .136.136.272.272.136.137.136.273 0 .273-.136zM88.04 10.603h-.41c-.136 0-.136.136 0 .272h.41c.136-.136.136-.136 0-.272zM86.948 11.283c0-.136-.136-.136-.272 0-.136 0-.136.136 0 .271.136 0 .272.136.272 0 .137-.136.137-.271 0-.271zM84.767 12.098c0-.136 0-.272.136-.408.137-.136.137-.136-.273 0-.409.136-.409.272-.272.544.409.136.545.136.409-.136zM83.54 12.234c-.137 0-.41 0-.546.136-.136.136 0 .136.273.136.409-.136.409-.136.273-.272zM81.63 12.098c-.272-.136-.408-.136-.545 0-.136 0 0 .136.273.272s.409.136.545 0c0-.136 0-.136-.272-.272zM55.041 25.006c.137-.271.137-.271-.136-.136-.136.136-.273.272-.273.408.137.272.137.272.41-.272zM74.404 13.32c-.137 0-.273 0-.273.137-.136.271 0 .407.273.135.136-.135.136-.135 0-.271zM76.585 11.147c-.272 0-.409-.136-.545 0v.271c.136.136.273.136.545 0 .41-.135.41-.135 0-.271zM67.177 16.582c-.137 0-.41 0-.41.136s.137.136.41.136c.273-.136.273-.136 0-.272zM65.268 17.261c0-.136 0-.136.136-.136.137 0 .137-.136 0-.271-.136-.136-.136-.272 0-.272.546-.272 0-.272-.681-.136-.819.136-1.228.68-.546.68.136 0 .273 0 0-.137-.136-.135-.136-.135 0-.271.273-.136.818.271.954.543 0 .136.137.272.137.272.136-.136.136-.136 0-.272zM63.632 16.99c-.137-.272-.273-.272-.273-.136s.136.407.273.407c.272.136.136 0 0-.271zM61.859 18.212c-.136-.135-.41-.271-.41-.543-.135-.408-.135-.408-.135 0 0 .543.409.951.681.68.137.135.137 0-.136-.137zM62.95 16.99c0-.136-.137-.136-.273 0-.136 0-.136.135 0 .271.136 0 .273.136.273 0 .136-.136 0-.136 0-.271zM59.54 18.756c.137-.408 0-.68-.408-.408-.136.136-.136.272 0 .544.273.272.273.272.409-.136zM61.859 17.125c0-.136 0-.407-.136-.543-.273-.408-.273-.272-.273 0 .136.543.409.951.409.543zM56.95 19.979c.136-.272.136-.272 0-.272-.136.136-.273.272-.273.408 0 .407 0 .407.273-.136zM47.542 25.686c-.137 0-.273.136-.273.272s.136.136.273 0c.272-.272.272-.272 0-.272zM46.723 25.822c0-.136-.272-.136-.272 0-.137.136-.273.136-.41.136-.136 0-.136 0 0 .136.137.271.819 0 .682-.272zM58.041 18.892a1.044 1.044 0 0 0-.682-.272c-.273 0-.545-.272-.545-.408 0-.135-.137-.271-.273-.135-.136.135-.136.271 0 .543s.273.272.41.272c.136 0 .136 0 .136.136s-.137.271-.273.271c-.137 0-.273.136-.273.272s.136.136.273.136c.136-.136.273-.272.273-.408 0-.135.136-.271.409-.135.409-.136.545-.136.545-.272zM58.314 17.94c0-.135-.137-.135-.41-.135-.272.136-.408.136-.272.272 0 .271.682.135.682-.136zM55.996 18.62c0-.136-.137-.136-.137-.136-.136 0-.136.272-.136.272 0 .136.136.136.136.136s.137-.136.137-.272zM47.542 22.697c0-.272-.41-.272-.682 0a.3.3 0 0 0 .409.407c.273-.136.273-.272.273-.407zM54.769 17.397c-.137 0-.273 0-.546.136s0 .272.41.136c.136-.136.272-.272.136-.272zM53.269 17.397c0-.136-.137-.272-.273-.272-.273.136-.273.544 0 .544.273.136.273 0 .273-.272zM40.86 24.055c-.136-.68 0-.815.546-.68.409.137.409 0 .409-.27 0-.273-.273-.273-.819-.273-.954.136-.954.136-.681.544.136.136.272.407.272.543 0 .136.137.272.273.408.136.272.136.136 0-.272zM52.587 16.718c-.137 0-.273-.136-.41 0-.136.136-.136.136 0 .271 0 .136.273.136.41 0 .136-.135.136-.135 0-.271zM31.724 22.017c0-.136.137-.272.41-.408.272-.135.272-.271.136-.271-.137 0-.273-.136-.41-.272-.409-.544-.409-.544-.681-.272-.136.136-.136.272 0 .408.136.136.136.136-.136.136-.273 0-.273-.136-.273-.408 0-.408 0-.408-.273-.136-.273.136-.273.408 0 .544.136.136.41.543.546.68.545.407.681.407.681 0zM31.86 17.125c0-.136-.136-.136-.136-.136-.136 0-.136.136-.136.272s.136.136.136.136.137-.136.137-.272zM33.224 12.098c-.409 0-.818.136-.954.272-.137.136-.137.271.272.136.273-.136.546-.136.546 0 0 .135.273 0 .545-.136.273-.136.273-.272-.409-.272zM31.043 12.234c-.137 0-.273.136-.41.271 0 .136.137.136.273 0 .273-.135.273-.271.137-.271zM27.088 11.826c0-.136-.136-.136-.273 0-.136 0-.136.136 0 .272.137 0 .273.136.273 0v-.272zM24.361 9.38c0-.136-.136-.136-.273 0 0 .136-.136.272-.136.272h.273c.136-.136.136-.272.136-.272zM21.361 8.157c0-.136-.136-.136-.409-.136-.136 0-.136.136 0 .272.41.136.545.136.41-.136zM19.861 6.39c-.273-.407-.409-.543-.409-.407 0 .272.546 1.223.818 1.087 0 0-.136-.271-.409-.68zM14.952 2.179c0-.136-.136-.136-.136-.136-.136 0-.136.136-.136.272 0 .135.136.135.136.135.136 0 .136-.135.136-.271zM14.543-.267c-.136-.136-.136-.272 0-.408.137-.136.137-.407.137-.407-.137-.272-.546.271-.41.679 0 .136.137.272.273.136.137.136.273.136 0 0zM16.725-5.43c-.136-.136-.273-.136-.273 0 0 .135 0 .271.137.271.272.272.409.136.136-.272zM28.588-13.312c-.136-.543-.136-.543-.409-.407-.273.136-.273.68-.136.95.136.273.545-.27.545-.543zM31.588-16.845c-.41-.543-.955-.271-.955.408 0 .544.137.544.682.272.546-.272.546-.272.273-.68zM27.77-14.263h-.546c-.136.136-.136.272 0 .272h.546c.136 0 .136-.136 0-.272zM29.406-15.35c.137-.136.137-.272 0-.272-.272-.136-.545 0-.272.272.136.136.136.272.136.272s0-.136.136-.272zM18.907-9.371c.136-.408-.137-.544-.273-.272 0 .136-.273.408-.409.68-.273.271-.273.271.136 0 .273-.136.546-.272.546-.408zM30.36-16.709c-.136-.136-.136-.271-.272 0 0 .136 0 .408-.136.544 0 .136 0 .136.272 0 .137-.136.273-.272.137-.544zM33.224-18.475c-.136 0-.409 0-.545.136-.137.136 0 .136.272.136.546-.136.546-.272.273-.272zM30.906-17.524c0-.136-.136-.136-.273 0-.272.272-.272.408 0 .272.273 0 .273-.136.273-.272zM17.816-9.779c0-.136-.136-.136-.273 0 0 .136-.136.272 0 .272h.273v-.272zM85.04 4.896c0-.136-.137-.136-.137-.136-.136 0-.136.136-.136.272s.136.136.136.136.137-.136.137-.272zM73.45 7.75h-.41c-.273.136-.409.136-.273.271 0 .136.273.136.41 0l.272-.271zM55.041 13.049s-.272-.136-.545 0c-.41 0-.41.136-.273.272.136.136.273.136.546 0l.272-.272zM52.587 13.728c-.273 0-.41-.136-.41 0s.41.408.682.272c.137-.136 0-.272-.272-.272zM49.041 14c0-.136-.136-.136-.136-.136-.136 0-.136.272-.136.408 0 .136.136.136.136.136 0-.136.136-.272.136-.408zM49.996 12.505c-.273-.135-.545 0-.818.136-.41.272-.41.272.136.136.273-.136.546-.136.546 0s.136.136.272 0c.273-.136.137-.136-.136-.271z"/></g></svg>