<svg width="1170" height="696" fill="none" xmlns="http://www.w3.org/2000/svg"><path d="M1026.19 687.02c-38.071 6.283-76.143 11.309-114.94 7.853-36.259-3.141-72.517-3.141-108.414-4.398-62.002-2.513-123.642 1.885-185.644.629-46.411-1.257-92.823-.314-139.234-.943-47.136-.628-94.635 1.257-141.409-3.455-49.674-5.027-99.711-2.827-149.023-9.424-21.756-2.828-44.236-2.828-69.98-8.796 7.615-2.514 10.878-3.77 14.504-4.713-1.451-4.398-5.802-5.968-9.427-4.398-22.844 10.053-46.05 1.571-65.991-3.769-18.492-5.026-37.71-17.906-43.873-37.069-5.44-16.649-9.428-33.299-11.966-49.948-2.175-15.079.363-30.472 4.714-45.237 1.813-5.654-2.176-11.309-1.45-16.649.725-9.424-5.44-21.676 11.965-26.074 2.9-.628 2.175-5.026-.725-8.167-7.977-8.482-12.69-16.964-5.44-28.273 4.715-7.225-8.339-10.995-6.888-18.22.362-2.513-.725-5.969 3.626-5.655 1.087 0 2.175 4.084 3.988 8.482 1.813-7.539 2.538-12.566-.363-17.592-9.064-16.021-13.053-32.042.726-47.749.362-15.707-2.176-31.414-.363-47.121 5.439-9.425 3.626-19.477 3.989-29.215 1.812-40.525 7.251-81.049 7.251-121.573 0-12.566 4.351-25.131 6.89-37.697 2.537-1.885 4.713-1.885 7.251 0-1.45 90.473-7.252 180.945-6.889 271.732.363 50.263 7.614 100.525-2.538 151.102-3.626 19.162 3.988 40.524 10.515 60.001 5.076 15.392 23.568 20.419 39.522 24.817 32.633 9.424 67.079 13.194 101.162 16.335 34.808 2.827 69.979 3.456 104.788 7.539 53.663 6.283 107.688 6.912 161.351 6.597 143.585-.314 286.807 2.199 430.029 3.142 34.808.314 69.979 2.513 104.787 2.513 22.479 0 44.239-3.141 65.269-10.053 3.99 5.027 4.35 5.027 2.9 6.597-5.44 7.54-13.42 12.88-20.67 18.849zM1148.74 74.445c-.72-4.084-1.81-8.168-2.54-12.252-2.53-20.105-13.05-29.215-36.62-28.587-83.03 2.2-164.612-7.539-246.92-14.136-50.037-4.084-101.162-2.199-151.924-.314-118.203 4.712-236.769-.942-355.335-1.57-4.714-16.336 7.614-14.137 18.854-12.88 35.896.942 71.792 4.083 107.689 2.199 61.277-3.142 122.554-4.713 183.831-5.027 51.125 0 101.887-3.77 153.012-.628 58.739 4.084 117.841 5.026 176.58 10.367 38.433 3.455 76.143 4.398 114.573 3.455 33.73-.628 54.39 15.079 58.02 41.781 1.81 3.77 2.17 8.168 1.45 11.937-1.09 5.34 4.35 13.194-5.08 15.707-10.15 3.142-10.51-6.282-15.59-10.052z" fill="#EFF5F2"/><path d="M1148.74 74.445c2.18.628 5.44.943 6.17 2.2 1.81 3.769 3.62 6.596 9.06 5.025 6.16-1.57 2.9-5.968 3.26-9.11.73-5.026.37-10.366.37-15.393 3.26 18.535 3.26 36.127-1.82 54.975-3.99 14.451 4.35 32.357-1.81 47.435-13.05 32.671 1.09 64.713-.36 97.07-.36 11.937-6.17 23.246-5.44 34.87 1.81 38.011-2.54 75.707-9.43 113.09-7.61 40.839-10.88 82.933-25.38 122.515-11.96 31.728-13.78 65.341-25.38 97.07-7.25 4.398-11.97 11.309-18.86 16.021-2.9 1.885-7.97 7.225-10.15-.943 11.97-33.299 17.77-68.168 25.38-102.095 3.99-18.535 13.42-35.184 17.77-53.718 7.61-32.043 15.95-63.771 17.77-96.442 3.62-63.456 13.41-126.913 11.6-190.683-1.45-40.838 6.16-81.049 7.25-121.887z" fill="#EFF5F2"/><path d="M1068.97 639.27c9.07 3.456 9.79-4.712 14.14-7.539 4.72-2.827 6.17-10.681 14.87-7.539-5.08 26.387-17.04 48.378-50.04 56.231-7.61 1.885-12.69 10.681-22.48 6.597-.36-7.539 7.98-9.738 11.6-14.765 2.18-3.141 11.25-4.084 6.17-10.366 10.15-6.597 21.03-12.252 25.74-22.619zM152.714 14.13h-47.499c-1.813-3.141-2.538-5.968.363-9.11 15.229-3.77 31.182-3.77 46.411-2.827 32.633 1.885 65.628-2.827 98.261 3.455 4.714 7.226-3.626 8.482-7.251 11.624-16.679-.943-33.721-1.571-50.763-2.513-13.415-4.399-26.469-10.681-39.522-.629zM374.255 4.706c-9.79.628-18.492 2.199-18.854 12.88h-76.506c-4.714-5.969-.725-10.681 3.626-15.079 30.82 0 61.277-2.514 91.734 2.199zM35.964 127.849h-7.252c6.527-25.445-3.991-51.519 5.436-76.65 1.45 25.445 8.705 50.891 1.816 76.65zM10.583 316.334c3.263 15.707 13.416 31.414.363 47.121-2.176-.629-6.167-1.257-6.167-2.199-.363-15.079-7.612-31.1 5.804-44.922z" fill="#EFF5F2"/><path d="M282.521 2.507c-1.088 5.026-2.539 10.052-3.626 15.079-11.966 0-23.931-.314-35.896-.314-.363-5.34 8.339-6.283 7.251-11.624 10.878.629 21.03-5.026 32.271-3.141zM105.215 5.02c2.176 3.142 1.813 5.969-.362 9.11H47.927c18.129-7.225 37.346-9.11 57.288-9.11zM152.714 14.13c.725-3.141-6.164-9.11 2.901-9.11 13.053.314 27.557-2.827 36.621 9.739-13.415-.315-26.469-.315-39.522-.629z" fill="#EFF5F2"/></svg>