<svg width="610" height="610" fill="none" xmlns="http://www.w3.org/2000/svg"><path d="M206.309 593.188c-27.523-7.868-52.544-20.544-75.798-37.008-32.821-23.167-60.786-51.141-82.421-84.944-17.073-26.517-29.583-55.074-37.826-85.526C2.317 356.133-.626 326.264.11 295.813c.883-32.2 6.77-63.38 18.103-93.54 19.575-52.015 50.042-96.162 93.313-131.713 25.609-20.981 54.162-37.3 84.923-49.247 5.445-2.185 11.038-4.517 16.925-5.537 1.178-.582 2.65-1.02 3.533-.291 3.385 2.623 3.238 2.623 7.065 1.457 13.834-4.225 27.669-7.722 42.24-7.43 4.268.145 8.095-1.458 12.216-2.04 7.212-.146 14.424-.292 21.783-.583 5.004-.583 10.155-.729 15.16 0 86.247 2.622 158.071 36.425 216.649 98.493 1.472 1.457 3.827 2.332 3.974 4.954.589.729.589 1.311 0 2.04-5.004 1.311-7.065-2.768-9.567-5.391-21.194-22.292-45.479-40.65-72.413-55.658-19.133-10.636-39.444-18.358-60.491-24.186-27.964-7.722-56.517-11.802-85.659-10.782-22.518.729-44.743 4.08-66.82 8.888-30.172 6.41-57.841 18.504-84.04 33.948-39.738 23.458-72.412 54.638-97.433 93.249-17.073 26.371-29.142 54.929-36.795 85.234-3.974 15.736-5.74 31.909-7.506 48.082-2.502 22.583-.442 45.021 1.913 67.459 2.06 19.087 8.39 37.299 14.718 55.512 12.51 35.697 32.821 66.731 57.253 95.142 19.134 22.293 42.388 40.359 67.85 55.367 15.602 9.324 32.233 16.464 48.864 23.457 2.355 1.749 6.035 2.623 4.857 6.703-.588 2.185-.736 5.245-4.415 3.788zM606.492 322.185c-.147 27.246-3.532 53.763-12.068 79.844-14.13 42.981-36.06 81.155-67.115 114.229-8.242 8.742-17.073 16.756-26.345 24.332-2.649-.583-2.649-.583-1.03-3.06-17.956 12.093-34.44 25.789-54.604 33.366-6.77 3.934-14.129 6.556-21.194 9.907-1.472.583-2.944.729-4.416.583-1.177-.145-2.207-.437-3.09-1.311-.148-4.225 3.238-4.954 6.034-6.12 22.96-10.053 44.007-23.166 63.729-38.319 2.502-1.602 4.121-4.516 7.359-5.099 8.095-4.08 14.424-10.199 21.047-16.027 3.827-3.351-.736-7.431 1.766-10.637 9.861-11.801 20.017-23.166 28.848-35.696 18.544-25.935 32.526-54.055 41.652-84.507 4.121-13.55 6.328-27.246 8.978-41.087 1.177-5.828 4.415-11.219 4.709-17.338 1.619-1.895 2.944-3.789 5.74-3.06z" fill="#EFF5F2"/><path d="M430.17 584.009c-22.666 10.199-46.509 17.192-70.941 21.272-30.466 5.1-61.227 6.702-91.84 1.603-5.004-.874-10.303-.437-15.16-2.331-1.472-1.02-3.238-.438-4.857-.729-4.268-.728-6.623-2.623-3.974-7.139 2.944-1.894 6.035-1.312 9.273-.583 19.869 4.371 39.886 6.702 60.196 6.557 19.575-.146 38.856-2.769 57.99-6.557 6.328-1.166 13.246-.583 18.839-4.954 1.471-.874 3.09-1.311 4.709-1.457 4.71.729 8.684-2.185 13.099-2.914 6.329-1.457 11.922-4.808 18.104-6.556 2.355-1.312 4.709-2.04 7.359-1.457 4.415 4.371-2.208 3.351-2.797 5.245zM278.722 7.472c-5.446 3.788-11.775 2.33-17.662 3.35-13.541 2.186-27.081 4.954-40.18 9.18-1.766.583-3.827.291-6.182.583.736-2.04 5.887-5.1-.883-4.663 8.389-4.808 17.809-6.265 26.934-8.45C269.449.769 298.591-.98 328.027.478c14.129.583 28.259 2.331 42.094 6.702-37.384-5.682-74.621-6.12-111.269 1.311 6.329 2.186 12.952-2.476 19.87-1.02zM607.228 257.639c.589 7.868 3.385 15.445 2.65 23.604-.295 2.623.147 5.245-3.091 7.868 1.03-12.385-1.766-23.312-4.121-34.531-3.238-4.517-3.533-10.054-4.71-15.007-8.095-34.386-21.783-66.148-41.652-95.434-2.061-2.914-4.563-5.828-4.416-9.762.442-1.166 1.178-2.04 2.355-2.186 8.831 9.616 15.16 20.981 21.194 32.346 11.186 20.689 20.164 42.253 25.757 64.982 2.355 9.325 4.121 18.796 6.034 28.12z" fill="#EFF5F2"/><path d="M430.17 584.009c-.588-2.477 4.71-1.311 2.797-4.517 2.502-5.974 8.831-5.828 13.393-8.305 1.472-.728 3.385-.291 4.563-1.311-1.914.728-3.827 1.457-5.888 0 12.511-5.245 23.549-12.967 34.882-20.398 6.476-4.226 12.805-8.597 19.134-12.968 2.207.729-2.502 4.663 1.913 4.226-21.194 18.067-45.037 32.345-70.794 43.273zM206.309 593.188c6.917-2.914 3.091-5.828 0-8.742.883-1.02 2.06-1.457 3.238-1.02 5.74 2.331 11.921 3.497 17.956 5.391 1.472.437 2.355 1.457 2.943 2.914 0 .291.148.583 0 .728-3.385 2.477-3.679 2.769-3.679 6.703-6.77-2.477-14.571-1.166-20.458-5.974zM554.243 132.337c-.294 1.02-.883 1.748-2.06 1.894-7.654-3.06-9.567-11.365-15.16-16.318-1.472-1.312-2.355-3.06-1.03-5.1.147-.874.294-1.603.442-2.477 7.211 6.265 12.363 14.133 17.808 22.001z" fill="#EFF5F2"/><path d="M226.62 599.016c-1.472-2.331-2.944-4.662-4.563-7.431 2.944.437 5.593.729 8.095 1.02 2.649-1.748 4.563-.728 6.329 1.311 1.472 3.06.294 5.391-2.208 7.431-2.943.729-5.298-.728-7.653-2.331zM606.492 322.185c-1.324 1.02-2.649 1.894-3.974 2.914-2.354-2.331-2.207-4.808-.441-7.285 1.177-2.768-1.766-8.305 2.502-8.305s1.325 5.537 2.355 8.305a226.124 226.124 0 0 0-.442 4.371z" fill="#EFF5F2"/><path d="M234.273 601.493c.442-2.186.883-4.517 1.472-6.702 1.619-1.603 3.238-.437 4.857 0 1.324.582 2.502 1.311 2.943 2.768-1.324 7.431 6.182 4.08 8.537 6.848-6.329 1.603-11.48-3.643-17.809-2.914zM315.664 7.034h-15.16c5.004-2.185 10.009-2.04 15.16 0zM358.199 594.645c20.017-3.06 38.856-10.782 58.725-14.716 1.03 0 2.061.146 3.091.146.147 4.08-3.827 3.497-6.035 4.808-2.207 1.311-4.857 1.748-7.211 2.768-3.974 1.02-7.801 2.477-11.775 3.789-1.619.145-3.238.145-4.71.291-1.03 2.04-3.09 2.331-4.857 2.623-8.978 1.165-17.514 3.788-26.492 4.808-3.091.291-6.182.728-8.537-2.331 2.503-2.769 5.446-.875 7.801-2.186zM509.648 514.364c2.502-3.351 5.151-6.557 8.683-9.034-.294.729-.883 1.749-.735 2.04 5.151 6.848-2.208 8.742-5.152 11.802-5.004 4.954-10.155 10.345-17.514 12.385-1.031-3.206 1.177-4.809 3.385-6.411 4.121-3.206 8.095-6.702 11.333-10.782z" fill="#EFF5F2"/><path d="M509.648 514.364c0 4.808-4.416 6.265-6.918 9.179-2.502 2.768-6.623 4.08-7.8 8.014-3.385 0-3.091 4.953-6.476 4.662-1.472-.146-2.797-.291-5.593-.437 9.419-7.868 17.367-15.59 26.787-21.418zM445.035 569.73h6.035c-5.887 4.225-12.952 5.1-18.103 9.762-2.355.583-4.71 1.311-7.065 1.894-.736-.583-1.766-.728-1.766-1.894 6.181-4.662 14.129-5.974 20.899-9.762z" fill="#EFF5F2"/><path d="M423.989 579.492c.588.583 1.177 1.311 1.766 1.894a890.53 890.53 0 0 1-17.809 6.848c-.736-.291-1.619-.437-1.766-1.311 3.679-4.08 10.302-2.186 13.688-6.848 1.471-.291 2.796-.437 4.121-.583zM358.199 594.645c-2.06.583-3.974 1.166-8.095 2.331 15.16 1.457 27.376-4.079 40.18-5.536-1.177 5.973-6.917 4.808-10.449 5.391-26.346 4.953-52.838 8.742-79.919 7.284-16.337-.874-32.527-1.894-48.423-5.973-2.502-.583-5.298-.437-7.948-.583-1.324-.146-2.649-.291-3.237-1.748 10.008-7.868 20.458-1.312 30.613-.583 5.446.291 11.039 1.457 16.484 1.748 17.662.729 35.324 1.457 52.985 0 6.035-.291 11.48-4.225 17.809-2.331z" fill="#EFF5F2"/><path d="M406.18 586.923l1.766 1.311c-4.415.729-8.095 4.663-12.952 3.06 2.502-4.517 7.506-2.768 11.186-4.371zM322.434 601.493c1.914.291 3.827.437 5.74.728v.729h-35.617c-1.031-1.166.588-.729.735-1.166 9.714-1.311 19.428-1.02 29.142-.291z" fill="#EFF5F2"/><path d="M322.434 601.493c-9.714 0-19.428.146-29.142.146 9.714-2.769 19.428-2.04 29.142-.146z" fill="#EFF5F2"/></svg>