<svg width="60" height="60" fill="none" xmlns="http://www.w3.org/2000/svg"><circle cx="30" cy="30" r="30" fill="url(#paint0_linear)"/><mask id="a" maskUnits="userSpaceOnUse" x="0" y="0" width="60" height="60"><circle cx="30" cy="30" r="30" fill="url(#paint1_linear)"/></mask><g mask="url(#a)" fill="#fff"><g opacity=".25"><path d="M-36.432 49.86c-.214-.282-.274-.459-.098-.519.13-.024.14-.107-.013-.212-.119-.058-.226-.199-.168-.317.011-.083-.12-.353-.263-.54-.19-.152-.286-.376-.239-.411.094-.072-.171-.907-.36-1.059-.037-.047-.13.025-.224.096-.094.071-.116.237.002.295.071.094.107.14.024.13-.082-.012-.214-.282-.287-.67-.074-.39-.313-.8-.538-.999-.297-.292-.333-.34-.134-.565.188-.142.21-.308.103-.448-.107-.141-.236-.117-.295.002-.058.118-.187.142-.259.049-.071-.094-.06-.177.117-.237a.283.283 0 0 0 .21-.308c-.025-.13-.108-.14-.13.025-.022.165-.105.154-.272-.163-.096-.224-.192-.447-.18-.53.01-.082-.086-.306-.311-.504-.225-.2-.321-.422-.274-.458.047-.036-.016-.507-.16-.99-.146-.482-.197-1.035-.139-1.154.058-.118.068-.495.019-.754-.05-.26-.099-.518.03-.543.084.011.106-.154-.001-.295-.179-.234-.132-.27.094-.071.296.293.437.185.48-.44.056-.413.103-.448.35-.415.201.07.248.034.094-.071-.071-.094-.143-.188-.06-.177.083.012.152-.19.139-.401-.014-.213-.042-.931-.082-1.568-.053-.848.038-1.214.261-1.31.141-.107.246-.261.21-.308-.19-.152.383-.958.62-.842.117.058.129-.024.115-.236-.06-.177-.002-.295.128-.32.13-.024.187-.142.116-.236-.024-.13.034-.248.045-.33.094-.072.13-.025.165.022-.011.082.143.187.355.174.248.034.283.08.071.094-.13.024-.245.261-.196.52.05.554.334.634.319.127-.014-.212.056-.413.103-.448.281-.215.35-.415.136-.697-.178-.234-.26-.245-.449-.103-.48.44 1.001-1.799 1.832-2.654.2-.225.327-.544.349-.71-.013-.212.185-.437.326-.544.364-.203.76-.949 1.023-1.964.103-.45.255-.639.42-.617.119.059.353-.12.505-.31.619-.841 1.461-1.778 1.615-1.673.036.047.364-.203.668-.583.35-.415.596-.676.668-.582.107.14.294-.003.821-.478.188-.143.317-.167.378.01.06.176.142.187.2.069-.153-.105-.178-.235-.25-.329-.153-.105.363-.497.81-.69.27-.13.446-.191.738-.488.141-.107.224-.096.295-.002.025.13.154.105.212-.013.094-.072.07-.201-.013-.213-.083-.01-.06-.176.08-.283.141-.107.317-.167.353-.12.072.093.212-.014.329-.25.116-.237.256-.344.364-.203.07.093.2.069.212-.014.01-.082.14-.107.259-.049.118.058.165.023-.025-.13-.297-.292.09-.66.433-.403.273.163.402.138.483-.145.232-.473.56-.723.926-.631.32.127.32.127.282-.215-.038-.341-.038-.341.34-.332.294-.002.517-.098.634-.335.268-.426.632-.63.716-.323.036.046.237.116.367.091.388-.073.446-.192.22-.39-.07-.094-.084-.306-.015-.507.175-.355.574-.511.728-.406.036.047.364-.203.657-.5.34-.333.668-.583.75-.571.083.01.494-.228.88-.596.387-.368.809-.69.938-.714.436-.11 1.175-.598 2.03-1.323 1.137-.94 1.184-.976 1.856-.969.33.045.554-.05.471-.062-.107-.14.865-1.102 1.077-1.116.082.011.187-.143.257-.343.069-.201.303-.38.433-.404.176-.06.587-.3.927-.632.34-.332.668-.582.797-.607.13-.024.458-.274.75-.571.96-.88 1.736-1.321 1.925-1.17.072.095.119.059.059-.118-.05-.259.044-.33.737-.783.457-.274 1.395-.988 2.121-1.69.69-.747 1.394-1.282 1.477-1.271.13-.025.364-.203.562-.429.2-.225.434-.404.599-.381.2.07.248.033.094-.072C-.65.914-.628.748-.522.594c.198-.225.234-.178.319.128.038.341.038.341.2.069C.196.271 1.34-1.046 1.344-.751c-.07.2.013.212.236.116.353-.12.4-.156.139-.402-.107-.14-.027-.424.324-.84.257-.343.442-.78.465-.946-.074-.388.36-.792 1.087-1.198.717-.324 1.69-.99 2.946-1.872.516-.393 1.056-.656 1.139-.645.118.058.212-.013.199-.225-.014-.212.044-.33.091-.366l.094-.072c.174-.355.42-.616.585-.594.072.094.212-.013.317-.167.105-.154.293-.297.47-.357a.854.854 0 0 0 .48-.44c.08-.283.21-.308.317-.167.107.14.283.08.47-.062l.517-.393c.094-.071.163-.272.127-.32-.024-.129.116-.236.304-.378.27-.132.328-.25.163-.273-.118-.058-.107-.14.116-.236.27-.132.27-.132.201.069-.058.118-.08.283-.045.33.036.047-.033.248-.174.355-.188.143-.257.344-.15.485.072.093.143.187.119.058a.18.18 0 0 1 .187-.143c.201.07.75-.571.994-1.127.07-.201.14-.107.143.187.051.554.17.612.58.373.224-.096.436-.109.425-.026.024.13.107.14.2.07.094-.072.213-.014.367.09.178.235.343.258.495.068.199-.225.21-.308-.038-.342-.165-.022-.319-.127-.308-.21.012-.082.188-.142.353-.12.201.07.413.056.507-.015.047-.036.306-.085.554-.052.413.056.448.103.45.398.003.295-.044.33-.28.214-.202-.07-.249-.033-.153.19.06.176-.031.542-.382.958-.304.379-.536.852-.512.982-.069.2-.067.495-.1.743-.034.248.026.424.098.518.118.058.06.177-.2.226-.434.109-.714.618-.58 1.183.073.388.073.388-.21.308-.165-.023-.377-.01-.424.026-.094.072-.058.119.024.13.083.011.143.187.12.353-.033.247.085.306.78.147.647-.122.741-.194.505-.31-.237-.116-.226-.199.102-.449.235-.178.34-.332.233-.473-.143-.187-.076-.683.112-.826.047-.036.058-.118-.014-.212-.071-.094-.107-.14-.024-.13.082.012.234-.178.304-.379.185-.437.936-1.009 1.02-.703.025.13.014.212-.116.237-.306.085-.456.569-.322 1.134.145.482.145.482.237.116.033-.248.208-.603.348-.71.152-.19.503-.605.76-.948.362-.498.55-.64.656-.5.072.094.201.07.27-.132.059-.118.293-.297.423-.321.259-.05.294-.002.131.27-.105.154-.102.449.04.636.179.235.074.389-.37.875-.293.297-.561.724-.584.889-.045.33.05.259.634-.335.387-.368.644-.712.572-.806a.127.127 0 0 1 .023-.165c.047-.035.232-.473.37-.875.09-.66.264-1.016.347-1.004.083.01.119.058.025.13-.047.035.071.093.272.162.413.056.6-.087.375-.285-.118-.058-.131-.27-.038-.342.152-.19.235-.179.603.208.261.246.534.409.58.373.047-.036.213-.013.284.08.107.141.132.27-.045.33-.14.108-.341.039-.484-.149-.143-.188-.261-.246-.32-.127-.033.248-.962.584-1.022.408-.025-.13-.107-.14-.237-.116-.13.024.014.212.275.457.26.246.497.362.556.244.058-.118.151-.19.27-.132.118.059.259-.049.317-.167.116-.236.116-.236.071.094-.022.165-.232.473-.502.605-.458.274-.572.806-.24 1.145.143.188.19.152.13-.024-.12-.353.37-.876.607-.76.119.059.096.224-.044.331-.2.225-.217.98-.019.755.047-.036.083.01.06.176-.033.248.05.26.45.103.529-.18.797-.607.43-.699-.118-.058-.212.014-.223.096-.011.083-.105.154-.176.06-.072-.093-.05-.259.091-.366.141-.107.128-.319.032-.542-.143-.188-.12-.353-.11-.436.095-.071.166.023.273.163.06.177.225.2.284.081.093-.071.27-.132.388-.074.118.059.094-.07-.038-.341-.192-.447-.216-.576-.075-.683.13-.025.14-.107.022-.166-.118-.058-.154-.105-.107-.14.047-.036.152-.19.257-.344.058-.118.234-.179.27-.132.071.094.06.177-.08.284-.141.107-.117.237-.045.33.071.094.165.023.176-.06.011-.082.105-.154.176-.06a.45.45 0 0 1 .085.306c.025.13.05.259.132.27.118.058.154.105.06.176-.047.036-.176.06-.295.003-.154-.105-.212.013-.163.272.014.212-.031.542-.136.696-.244.556.192.447.694-.158.409-.533.456-.569.494-.227.013.212-.056.413-.186.437-.13.025-.14.107-.058.118.083.012.143.188.085.306-.023.166-.105.154-.13.025-.024-.13-.082-.011-.163.272-.033.248-.196.52-.326.545-.13.024-.176.06-.011.082.118.059.131.27.062.472-.138.401-.138.401-.388.073-.179-.234-.333-.34-.38-.304-.094.072-.022.165.06.177.083.01.108.14.085.306-.058.118.002.294.156.4.154.104.226.198.085.305a.254.254 0 0 0-.045.33c.072.094.06.177-.033.248-.094.072-.257.344-.338.628-.08.283-.348.71-.465.946-.571.806-.639 1.301-.152 1.746.558.538.924.63 1.3.344.234-.178.27-.131.354.175.096.223.038.341-.174.355-.165-.023-.152.19-.078.578.18.529.18.529.39.221.163-.272.21-.308.201.07-.02.46.087.6.333.339.187-.143.187-.143.118.058a.71.71 0 0 0-.056.413c.024.13-.045.33-.244.556-.362.497-.337.627.147.777.485.15.485.15.145.482-.292.297-.257.344.147.777.261.246.476.527.429.563-.047.036.26.246.651.467.746.395 1.032.77.49.739a.637.637 0 0 0-.436.11c-.152.189.216.575.63.631a.67.67 0 0 1 .425.268c.132.27.085.306-.457.275a160.55 160.55 0 0 1-1.71-.106c-.79-.065-2.865.033-3.006.14-.093.071-.4.156-.694.158-.637.04-1.304.622-2.144 1.854-.268.427-.748.866-1.03 1.08-.41.24-.458.275-.342.038.152-.19.023-.165-.352.12-.329.25-.574.512-.586.594-.01.083-.163.273-.375.286-.259.05-.364.203-.35.415-.034.248-.128.32-.47.357-.424.027-.435.11-.339.333.096.223.05.259-.364.203-.248-.034-.543-.032-.507.015-.21.308-.446.192-.52-.196-.073-.389-.027-.425.257-.344.284.08.248.033-.013-.212-.226-.2-.344-.257-.637.04-.245.26-.268.426-.053.707.238.411.238.411-.186.438-.248-.034-.435.11-.447.192-.01.082-.198.225-.41.238-.295.003-.342.038.013.213.272.163.26.245.073.388-.328.25-.623.252-.578-.078.07-.201-.049-.26-.355-.175-.565.134-1.268.67-.974.668.166.022.389-.074.53-.181.375-.286.623-.252.65.172.013.212.12.353.238.411.083.011.107.14.013.212-.093.072-.306.085-.46-.02-.154-.105-.366-.092-.553.051-.141.107-.387.368-.527.475-.2.226-.282.214-.45-.103-.13-.27-.213-.281-.283-.08a.283.283 0 0 1-.352.12c-.154-.105-.295.003-.353.12-.058.12.002.296.156.4.118.059.143.188.096.224-.094.071-.293.297-.492.522-.34.333-.303.38-.02.46.449.103.214.281-.246.261-.294.002-.341.038-.234.179.107.14.013.212-.317.167-.46-.02-.695.158-.505.31.072.094.06.177.05.26-.095.07-.166-.023-.309-.21-.239-.412-.473-.233-.292.296.049.259.026.424-.092.366-.118-.058-.154-.105-.096-.223.094-.072-.025-.13-.201-.07-.53.181-.681.37-.362.498.201.07.226.199.038.342-.152.19-.317.167-.543-.032-.19-.152-.225-.198-.2-.069.06.176.013.212-.27.132-.367-.092-.367-.092-.153.19.226.198.179.234-.234.178-.496-.067-.496-.067-.293.297s-.018.754-.279.509c-.071-.094-.06-.177.045-.33a.254.254 0 0 0 .045-.331c-.226-.199-.447.192-.28.509.132.27.132.27-.187.142-.201-.069-.284-.08-.212.014.071.094.06.176.013.212-.083-.011-.105.154-.045.33.096.224.05.26-.174.355-.177.06-.353.12-.4.156-.047.036-.281.215-.598.382-.693.453-.74.489-1.068.739-.14.107-.446.191-.659.205-.413-.056-.54.263-.243.555.26.246.167.318-.35.416-.436.109-.941.419-1.48.977-.151.19-.55.346-.81.395-.342.038-.435.11-.234.178.2.07.19.152-.128.32-.504.31-.598.381-2.899 1.836-1.056.656-2.253 1.419-2.7 1.61-.41.24-.868.514-1.056.657-.386.368-1.456.812-1.47.6.012-.083-.07-.094-.117-.058-.094.071-.07.2-.08.283.108.436-.126.614-.36.793-.635.334-1.868 1.05-2.149 1.265-.14.107-.4.156-.53.18-.164-.022-.482.145-.716.324-.844.642-1.49 1.06-1.737 1.026-.166-.022-.166-.022-.094.072.107.14.013.212-.257.343-.223.096-.998.538-1.644.955-2.311 1.538-2.452 1.645-3.285 2.205-.458.274-.915.548-1.092.609-.13.024-.27.131-.281.214-.011.083-.188.143-.317.167-.342.038-1.325 1.083-1.135 1.234.071.094.342-.037.576-.216.281-.214.516-.393.645-.417.306-.085-1.288 1.13-2.309 1.832-.645.417-1.092.61-1.375.529-.366-.092-.413-.056-.34.332a.581.581 0 0 1-.786.525c-.083-.012-.047.035.071.093.154.105.096.224-.279.51-1.396.988-1.77 1.273-2.941 2.46-.68.666-1.276 1.342-1.287 1.425-.058.118-.14.107-.248-.034-.19-.152-.236-.116-.435.11-.152.189-.34.332-.505.31-.165-.023-.435.109-.598.38-.116.237-.257.345-.2.226.059-.118-.001-.294-.037-.341-.19-.152-.447.191-.514.687-.056.413-.103.449-.41.239-.237-.116-.367-.092-.472.062-.138.402-.464.947-.5.9l-.5-.657zM13.353-9.303c.223-.096.223-.096-.06-.176-.413-.056-.46-.02-.317.167.118.058.283.08.377.01zm1.13 3.14c.2-.226.21-.308-.12-.353-.165-.023-.366-.092-.413-.056-.035-.047-.058.118-.08.283.027.425.31.505.614.126zm-.87 1.774c.129-.024.104-.154-.014-.212-.107-.14-.236-.116-.248-.033a.848.848 0 0 0 .014.212c.035.047.2.069.247.033zm-3.455-3.37c.093-.072.116-.237.08-.284-.19-.152-.449-.103-.435.11-.034.247.203.364.355.174zm8.303 16.94c.187-.143.304-.38.28-.509-.026-.13-.249-.033-.448.192-.49.522-.312.757.168.317zm-1.521 1.602c.093-.07.13-.024.107.141-.023.165.002.295.013.212.047-.035.188-.143.364-.203.177-.06.188-.143.023-.165-.166-.022-.154-.105.022-.165.176-.06.152-.19-.12-.353-.416-.35-1.155.138-.822.478.154.105.319.127.413.056zM9.053 1.01c.177-.06.195-.815.005-.967-.071-.094-.2-.069-.248-.033-.046.035.014.212.12.352.19.152.144.188-.057.119-.165-.023-.295.002-.317.167.002.295.274.458.497.362zM6.596 3.62c-.26-.245-.473-.232-.47.063.013.212.285.375.508.279.13-.025.07-.201-.038-.342zm.376-.285c-.107-.141-.273-.163-.284-.08-.094.07-.07.2.013.211.072.094.201.07.284.08.083.012.094-.07-.013-.211zM8.278 1.45c.072.094.13-.025.07-.201-.145-.482-.781-.443-1.143.055-.55.64-.334 1.217.24.706.188-.143.434-.404.492-.522a.324.324 0 0 1 .341-.038zM15.6 12.916c.094-.071.105-.154.023-.165-.036-.047-.119-.058-.248-.034-.13.025-.14.107-.023.166.083.01.201.069.248.033zm-3.435-.718c.046-.036.069-.2-.003-.295-.071-.093.163-.272.552-.345.482-.145.8-.313 1.161-.81.257-.344.431-.7.396-.746-.036-.047-.165-.022-.212.013-.094.072-.13.025-.201-.069-.05-.259-.438-.185-.471.062-.023.166.013.213.225.2.212-.014.212-.014.107.14-.094.071-.257.344-.409.533l-.256.344-.016-.507c.043-.625-.288-.67-.543-.031-.174.355-.232.473-.433.404-.118-.058-.118-.058.011-.083.13-.024.177-.06.105-.154-.071-.094-.259.05-.446.192-.34.332-.304.38.185 1.119.118.058.2.069.248.033zm-1.855-2.144c.107.14.225.199.237.116.01-.082-.143-.187-.261-.245-.155-.105-.119-.059.024.129zM8.95 7.977c.223-.096.199-.225.092-.366-.072-.094-.19-.152-.237-.116-.047.035-.14.107-.317.167-.176.06-.152.19-.08.284.19.152.355.174.542.031zm2.412 4.239c.143.187.308.21.355.174.14-.107-.417-.646-.784-.737-.118-.058-.294.002-.27.131-.033.248.192.447.333.34.058-.118.212-.013.366.092zm-.467.651c.107.141.284.08.424-.026.246-.261.175-.355-.227-.494-.366-.091-.494.228-.197.52zM-.288 1.972c-.094.071-.023.165.013.212.071.094.2.07.248.034.094-.072.022-.165-.014-.212-.071-.094-.154-.105-.247-.034zm7.824 9.304c.082.012.176-.06.198-.225.058-.118-.024-.13-.165-.022-.022.165-.116.236-.033.247zM2.342 7.081c-.06-.176.033-.247.281-.214.413.056.648-.122.329-.25-.201-.07-.201-.07.093-.071.166.022.483-.145.635-.335.292-.297.339-.332-.11-.435-.366-.092-.59.004-1.07.444-.573.51-.585.593-.323.839.178.234.225.199.165.022zm6.596 9.054c.2.07.176-.06-.074-.388-.25-.329-.368-.387-.509-.28-.151.19.181.53.583.668zm-1.014.031c.047-.036.023-.165.034-.248-.025-.13-.107-.14-.201-.069-.094.071-.07.2-.034.248.119.058.201.07.201.07zM-.202 9.092c-.049-.259-.272-.163-1.058.361-.845.643-1.182 1.27-.512.982.176-.06.14-.107.022-.165-.247-.033.737-.783 1.267-.964.212-.013.306-.085.281-.214zm6.573 10.775c.105-.154.08-.283-.038-.341-.118-.058-.176.06-.199.225.027.424.063.471.237.116zm-2.183-1.894c.141-.107.329-.25.411-.239.083.011.306-.084.364-.203.141-.107.27-.131.26-.049.024.13.118.058.223-.096.326-.544-.09-.895-.498-.362a.636.636 0 0 1-.436.11c-.247-.034-.388.073-.504.31-.116.236-.246.26-.364.203-.072-.094-.201-.07-.177.06-.044.33.476.527.721.266zm-6.57-7.073c.107.14.237.116.248.033a.623.623 0 0 0-.085-.306c-.071-.094-.2-.069-.247-.033-.047.035-.023.165.084.306zm-4.76 3.77c.414.057.483-.144.222-.39-.297-.292-.638-.255-.672-.007-.033.248.12.353.45.398zm4.751 8.09c.107.14.272.162.284.08.093-.072.069-.201-.014-.212-.071-.094-.236-.116-.283-.08-.13.024-.141.106.013.211zm-6.959 4.482c.047-.036.023-.165.034-.248-.025-.13-.107-.14-.201-.07-.094.072-.07.202-.034.249.119.058.154.105.201.07zm-7.95-5.578c.13-.025.14-.107.022-.165-.071-.094-.2-.07-.248-.034-.093.072-.105.154-.022.165.036.047.165.023.248.034zm-21.627 14.019c.047-.036.023-.165-.013-.212-.025-.13-.107-.14-.201-.07-.094.072-.07.201.013.213.072.094.154.105.201.069z"/><path d="M-40.147 38.167c-.047.036-.176.06-.248-.033-.071-.094-.06-.176.023-.165.13-.025.212-.014.248.033a.127.127 0 0 1-.023.165zM-39.778 36.998c-.094.071-.118-.058-.05-.26.117-.236.164-.272.224-.095.025.13-.08.283-.174.355zM10.056 17.506c.107.141.096.224.013.213-.13.024-.212.013-.248-.034-.035-.047-.024-.13-.013-.212.058-.118.177-.06.248.034zM10.373 17.34c.094-.072.177-.061.248.033.071.094.06.176.013.212-.094.071-.176.06-.248-.034-.035-.047-.06-.176-.013-.212zM10.215 16.645c.165.022.306-.085.281-.214.011-.083.083.01.132.27.18.529-.043.625-.447.192-.19-.152-.178-.235.034-.248zM13.47 15.277c.072.094.096.224.05.26-.094.07-.141.107-.177.06-.036-.047-.024-.13-.049-.26.023-.165.105-.153.177-.06zM10.277-9.256c-.13.024-.072-.094.163-.273.152-.19.281-.214.223-.095-.105.154-.257.343-.386.368zM12.61-10.959c-.093.072-.223.096-.294.002-.072-.093-.06-.176.044-.33.094-.071.224-.096.295-.002a.254.254 0 0 1-.045.33zM23.116-.955c-.355-.174-.355-.174-.228-.493.116-.237.199-.225.366.092.321.422.216.576-.139.401zM13.66-10.943c-.141.107-.317.168-.353.12-.072-.093-.06-.176.045-.33.093-.071.27-.131.352-.12.072.094.06.176-.044.33zM23.355-2.1c.245-.26.364-.203.236.116-.058.119-.198.226-.281.215-.118-.058-.06-.177.045-.33zM25.14-1.311c.226.199.286.375.217.576-.08.284-.163.272-.65-.172-.297-.293-.51-.574-.51-.574-.014-.212.6-.087.944.17zM15.305-11.603c.119.058.107.14.014.212-.094.072-.27.132-.353.12-.118-.058-.107-.14-.013-.212.14-.107.234-.178.352-.12zM24.063-2.046c-.072-.094-.06-.176.08-.283.094-.072.188-.143.223-.096.036.047.025.13-.08.283-.105.154-.105.154-.224.096zM25.005-2.17c.094-.072.187-.143.223-.097.036.047-.022.166-.08.284-.058.118-.152.19-.224.096-.035-.047-.06-.176.08-.284zM17.042-11.073c-.185.437-.185.437-.33-.045-.277-.752-.538-.998-.522-.491.026.424-.09.66-.315.462-.072-.094-.038-.342-.005-.59.092-.366.186-.437.47-.357.2.07.46.02.6-.087.199-.225.234-.178.225.2.05.258-.007.671-.123.908zM25.547-2.14c.212-.012.215.282-.009.378-.176.06-.176.06-.19-.152.012-.082.117-.236.2-.225zM24.836-4.339c.047-.035.199-.225.268-.426.116-.237.257-.344.505-.31.294-.002.33.045.285.375-.102.449.23.788.737.773.341-.038.33.045-.056.413-.398.45-.904.466-.72.029.059-.119-.026-.425-.215-.576-.262-.246-.344-.257-.507.015-.221.39-.268.426-.377-.009.01-.083.033-.248.08-.284zM17.666-12.881c-.045.33-.233.473-.27.131-.036-.047.069-.2.21-.308.105-.154.14-.107.06.177zM22.864-8.097c-.083-.011-.119-.058-.143-.188.011-.082.07-.2.08-.283.094-.071.13-.025.143.188.06.176.002.294-.08.283zM22.853-9.57c-.094.07-.176.06-.248-.034-.071-.094-.06-.176-.013-.212.094-.072.177-.06.248.033.082.012.107.141.013.213zM23.04-11.564c.127-.32.232-.473.397-.451.165.022.19.152.026.424-.326.545-.667.583-.424.027zM24.278-9.84c-.083-.011-.072-.094.07-.201.14-.107.187-.143.164.022-.058.119-.152.19-.234.179zM25.28-9.788c-.011.082-.116.236-.304.38l-.281.213.139-.401c.22-.391.444-.487.446-.192zM22.18-9.872c.093-.072.175-.06.211-.013.036.046.025.129-.07.2-.093.072-.176.06-.211.014-.036-.047-.025-.13.07-.201z"/></g><g opacity=".25"><path d="M85.49 102.98c-.314-.043-.493-.131-.584-.399-.003-.447-.183-.535-.629-.309-.269-.133-.492-.131-.761-.264-.09-.044-.136-.178-.315-.266.041-.537-.228-.669-.674-.443-.269-.133-.448-.221-.762-.264.045-.089.133-.269.177-.359-.004-.67.082-1.297.525-1.97-.448.002-.623.585-1.205.41.354-.495.978-.856 1.153-1.439.09.044.27.133.315.266.003.448.182.536.494.355l1.436.707c.226.446.763.487 1.078.754-.487.763.096 1.162.412 1.652-.132.269-.443.673-.084.85.36.177.267-.315.489-.54.27.133.404.311.673.443.187 1.207.143 1.296-1.064 1.483l-.538-.265c.22-.449.175-.583-.137-.402zm-2.836-2.845c.09.044.002.224.091.268.18.088.224-.001.312-.181.044-.089-.001-.223-.09-.267-.046-.134-.224 0-.313.18zM42.518 53.515c.09.044.314.043.403.087.27.356-.085.626-.218.896-.443.673-.174.806.452.668-.043.313-.086.626-.04.984-.223.001-.448-.221-.714.094-.358.047-.67.004-.939.095-.497-.802-1.209-.261-1.79-.213-.18-.312-.494-.354-.853-.531-.719-.577-1.482-1.064-2.422-1.192-.717-.13-1.477-.17-2.106-.703.623-.362.53-.853.26-1.21.268-.09.536-.181.76.04a.78.78 0 0 0 .183.536c.446-.226.805-.05 1.12.217.404.31.897.442 1.296-.142.716.13 1.166.574 1.794.883.853.532 1.165.35 1.561-.68.404.31.852.307 1.253.17zM11.086 61.894l.18.088c.046.357.315.49.629.533 1.03.172 1.926.614 2.824 1.056-.667.675-1.288 1.483-1.955 2.158-.225-.222-.54-.488-.897-.441-.449-.221-.853-.532-1.391-.797-.002-.223-.047-.357-.27-.356-.226-.222-.405-.31-.63-.533-.002-.223-.181-.312-.315-.266l-.27-.133c.132-.492.13-.94.08-1.52.49-.317.986.262 1.476-.054l.27.132c-.043.313.09.268.269.133zM-5.338 45.672c.134-.046.313.042.447-.003.494.355.85.084 1.025-.498.087-.404.354-.718.711-.765l1.748.526c.09.267.138.625.407.758-.177.358-.443.673-.892.452.133-.269.175-.582-.183-.759-.449-.22-.357.27-.535.406-.132.269-.401.136-.625.138-.938.095-1.337.679-.929 1.66l-.535.183-.089.179c.27.133.673.22.942.352l-.221.448c-.268.092-.581.049-.85-.084-.225-.222-.362-.623-.81-.62-.046-.358-.183-.76-.629-.534-.445.227-.804.05-1.253-.17l-.091-.268.177-.36c.134-.045.267-.09.312-.18.577-.72 1.384-.322 1.873-.861zM48.229 87.424l-.18-.089-1.256-.618c-.269-.132-.448-.22-.761-.264-.092-.267-.315-.266-.495-.354.133-.27.355-.495-.093-.715-.539-.265-.183-.536.04-.76l1.435.706c.449.22.896.218.623-.585l.358.176c.183.536.762.264 1.033.62.092.491.497.802.277 1.474-.176.359.27.133.403.087.136.178.27.356.316.49-.178.135-.222.225-.4.36l-.18-.088c-.18-.312-.629-.533-1.12-.44zM91.172 96.192c-.093-.492-.406-.534-.765-.711.084-.85.358-.047.492-.093.223 0 .45.445.806.174.178-.135.041-.537-.05-.804.044-.09.178-.136.222-.225.762.263 1.08.977 1.663 1.376.853.531 1.618 1.242 2.427 1.863.045.134.18.312.226.446-.266.315-.534.406-.846.587-.448-.221-.853-.532-1.391-.797-.046-.134-.181-.312-.227-.446l-.179-.088c-.494-.355-.9-.889-1.703-.616-.091-.267-.406-.534-.675-.666zM98.279 95.566l.359.177c-.043.313.136.402.314.267l.539.264c.045.134.225.223.27.357a.55.55 0 0 0 .316.49c.046.133.002.223.091.267.002.224-.087.403-.129.717-.314-.043-.537-.042-.624.361-.674-.443-1.436-.706-1.977-1.419.042-.537-.361-.623-.676-.89.309-.628-.322-1.384.211-2.014.135.178.27.356.45.445-.174.806.319.937.856.978zM35.133 81.422c-.09-.044-.18-.088-.224.002.086-.627-.095-.939-.764-.71-.178.134-.312.18-.492.091.263-.985-.585-.622-.9-.888l-.045-.134-.044.09c-.178.135-.402.136-.448.002-.364-1.07-1.482-1.064-2.157-1.73.355-.495.936-.543 1.206-.187.497.802 1.792.436 2.067 1.463.001.224.313.043.491-.092.222-.225.49-.316.714-.318.002.447.138.625.585.623.18.088.803-.274.45.444-.221.449.182.536.54.712-.132.27-.804.05-.98.632zM37.328 81.946l.666-.675.268-.091c.359.176.587.846.988.709.803-.273 1.21.26 1.614.571-.355.495-.8.72-1.336.903-.585-.622-1.17-1.021-2.062-.792-.225-.222-.271-.356-.139-.625zM26.563 76.87c-.047-.358-.138-.626-.453-.892l.088-.18c.899.665 2.061.569 3.094 1.188.404.311.494.355.363.848l-.089.18c-.54-.49-1.3-.53-1.927-.615-.179-.088-.403-.087-.582-.175-.18-.089-.315-.267-.494-.355zM56.482 91.263l-1.615-.795c-.36-.176-.718-.353-1.033-.62l.177-.358c.09.044.09.044.223-.002l.27.133c.492.131 1.162-.097 1.568.438.136.401.54.712.41 1.204z"/><path d="M86.418 101.32s.09.044.134-.046c.046.134.135.178.181.312-.088.179-.13.716-.489.54-.269-.133.042-.537.174-.806zM50.335 88.126c.089-.18.267-.315.534-.406l.27.133-.266.538c-.09-.044-.09-.044-.223.002-.18-.089-.27-.133-.315-.267zM100.167 97.165a.55.55 0 0 1-.316-.49c.179.088.403.087.316.49zM17.95 72.63l.177-.36.179.089c-.044.09-.133.269-.266.314l-.09-.044zM99.415 98.466c.09.044.09.044 0 0zM4.586 52.23c-.09-.045-.046-.135-.135-.179-.181-.312-.537-.041-.806-.174-.36-.4-.808-.397-1.257-.618-.046-.358-.18-.312-.358-.177-.493-.131-.896-.218-1.345-.439.044-.09.043-.313.131-.493.446-.226.623-.585.664-1.122l.089-.18c.578-.495.796-1.39 1.464-1.842.359.177.541.712.988.71.27.132.493.13.762.263.36.4.72.577 1.256.619.224-.002.581-.049.624-.362.043-.313.086-.627-.362-.624-.313-.043-.494-.355-.629-.533-.225-.222-.362-.624-.762-.263l-.268.09-.405-.533c-.677-.89-.634-1.204.346-1.836-.046-.134.132-.27.266-.315.134-.045.268-.091.312-.18.494.354.808.397 1.116-.455.175-.582.797-1.168 1.602-1.217.315.266.493.13.49-.316.224-.002.537.041.806.174-.264.761-.617 1.48-1.285 1.93-.178.136-.444.45-.22.673.18.088.402-.137.58-.272.497.802 1.03.172 1.521.08.23 1.116 1.03.172 1.479.393.09.044.18.089.313.043.444-.45-.54-.489-.095-.939.492.132 1.03.173.855.98-.04.536.36.4.718.352.046.134.136.178.181.312-.224.002-.312.181-.4.36-.044.09-.133.27-.267.315-1.97-.524-2.639-.073-3.612 1.677-.268.092-.58.272-.716-.13-.091-.267-.226-.445-.493-.13-.222.224-.535.182-.533.629.091.268.315.266.495.355l.807.397c.135.178.225.222.403.087.667-.675.897.442 1.522.304-.042.313.094.715.45.444.801-.72 1.386-.098 2.058.122.587.846 1.615.795 2.511 1.013.046.133.047.357.047.357 1.344.44 2.733.788 4.077 1.227.18.088.403.087.583.175.584.4 1.078.754 1.838.794 1.346.662 2.648 1.415 4.169 1.495-.131.493-.083 1.074-.802.497-.315-.267-.85-.084-1.117.23-.533.63-.803.274-1.163-.127-.225-.222-.138-.625-.675-.666.273.803-.795 1.614-.075 2.415.09.044-.22.672-.486.987-.178.135-.358-.177-.582-.175-.18-.089-.182-.536-.674-.443-.04.76-.976 1.303-.702 2.106.228.67-.22.672-.711.765-.359-.177-.584-.4-.988-.71.047.358.092.492.138.625-.224.002-.492.093-.534.406-.085.85-.707 1.436-1.15 2.11 0 0-.044.089-.134.045 0 0 .044-.09.134-.046l.18.089c.226.445.228.893-.217 1.119-.357.27-.893.23-1.252.052-.36-.176-.093-.49.04-.76.307-.852-.1-1.61-.995-1.828l-.268.092-.089.179-.09-.268c.31-.404.263-.762-.008-1.118-.09-.044-.36-.4-.183-.759.62-.809.433-2.239 1.682-2.738.358-.047.267-.315.265-.539.268-.09.58-.272.533-.63-.001-.223-.137-.4-.27-.355-.448.003-.535.406-.757.63l-.406-.534c.668-.45.394-1.478 1.152-1.885.133-.045-.048-.358-.183-.535-.135-.179-.313-.043-.491.092-.222.225-.22.672-.667.675-.316-.49.532-.853.126-1.387l-.18-.089c-.179-.088-.316-.49-.672-.219-.312.18.003.447.138.625.181.312-.13.493-.265.538-.759.184-1.024.722-1.154 1.439-.269-.133-.535.182-.803.273-.005-.894-.807-.397-1.166-.574-1.571-.885-3.364-1.544-4.979-2.34-.27-.132-.76-.04-1.075-.306zm12.602 5.646c.628.309 1.032.62 1.57.884.18.089.539.265.626-.138.132-.269-.049-.58-.318-.713-.626-.086-1.165-.351-1.878-.033zM15.5 52.475c-.047-.358-.183-.536-.496-.579-.09-.044-.178.136-.222.225.09.268.36.4.718.354zm-.938 7.563s-.09-.044-.133.046l-.089.18c.046.133.18.088.224-.002.044-.09-.046-.134-.002-.224zM5.214 45.293l.044-.09c-.09-.044-.134.046-.044.09-.09-.044-.09-.044 0 0z"/><path d="M8.25 44.559c-.178.135-.4.36-.535.182-.225-.222.13-.493.22-.672.667-.452.976-1.08 1.24-1.841 1.165.35 2.327.253 3.404.783.538.265.766.935 1.438 1.154.18.089.36.4.583.176.843-1.034 1.162-.097 1.612.347.276 1.251.987.486 1.612.348l.134-.045c.316.49.941.352 1.344.439.404.31.716.13 1.073-.141l.267-.091c.402-.137.584.399.898.441-.221.449-.085.85.186 1.207.177-.36.172-1.03.843-1.034.181.312.496.578.855.755.045.134.092.491.004.67-.133.27-.176.583.05.805-.223.225-.4.584-.622.81-.269-.133-.45-.445-.851-.308-.362-.624-.899-.666-1.524-.528-.672-.22-.497-.802-.456-1.339-.357.047-.67.228-.982.185-.583-.175-1.16.544-1.655-.034-.584-.399-1.125-1.111-2.062-.792-.493-.132-.896-.218-1.257-.619-.314-.266-.628-.309-1.028.051-.313-.042-.759.184-.718-.353.085-.85-.363-.847-.855-.979-.445.45.54.49.095.939-.044.09-.18-.088-.313-.043-.45-.444-.81-.844-1.479-.393-.491.092-1.024.722-1.52-.08zm12.174 1.535l.046.133.134-.045c-.134.045-.09-.044-.18-.089zM7.923 42.28c-.805.05-1.471.725-1.602 1.218-.308.851-.621.808-1.116.454.043-.314-.18-.312-.45-.445.133-.269.535-.406.354-.718-.091-.267-.403-.087-.627-.085-.269-.133-.535.182-.803.273-.003-.447-.496-.578-.543-.936.133-.269.176-.582.488-.763.403.087.851.308 1.206-.186.672.22 1.302.752 2.062.792l.268-.091c.134-.046.313.043.447-.003.046.134.135.178.18.312.135-.045.09.044.136.178z"/><path d="M8.323 41.92c.003.447-.13.493-.49.316.045-.09.223-.225.267-.315.134-.045.223-.001.223-.001z"/><path d="M8.19 41.965c-.045.09-.223.225-.267.315.044-.09-.001-.224-.001-.224a.215.215 0 0 1 .268-.09zM48.53 56.698l.268-.092c.805-.05.991 1.157 1.929.838.18.089.313.043.491-.092.225.222.404.31.63.533-.045.09-.043.313-.087.403-1.16.544-.532.853.006 1.118.721.8 2.016.434 2.602 1.28.047.358.181.312.403.087.044-.09.044-.09.178-.135l.09.044c.09.044.046.134.135.178.003.448-.173.806-.44 1.121l-.044.09c-.09-.044-.225-.222-.315-.267-.223.002-.403-.086-.582-.175-.181-.312-.449-.22-.627-.085-.582-.176-1.078-.754-1.791-.436l.088-.18c.044-.09-.002-.223-.047-.357-.806-.174-1.437-.93-2.42-.746-.178.136-.269-.132-.492-.13-.583-.176-.992-1.157-1.836-.347a.637.637 0 0 0-.538-.265c-.09-.044-.046-.134-.136-.178.087-.403.308-.852.664-1.122.584.398 1.075.306 1.518-.368.402-.136.221-.448.354-.717zM61.508 65.204c-1.075-.306-2.063-1.016-3.227-1.143-.537-.041-.675-.667-.766-.934-.182-.536-.584-.4-.941-.352.396-1.031 1.245-1.17 2.145-.282.405.534.988.71 1.657.482.314.043.67-.228.718.353-.086.627.363.848.812 1.069l-.398.807z"/><path d="M54.825 62.025c.266-.314.443-.673.44-1.12.807.397.23.893-.081 1.297l-.36-.177zM54.862 60.818c-.178.135-.312.18-.403-.087.09.044.18.088.403.087zM77.996 98.957c-.224.001-.492.092-.715.094-.273-.804-1.078-.754-1.528-1.198-.093-.492-.45-.445-.718-.354-.854-.755-1.751-1.197-2.96-1.234.085-.85-.718-.577-1.079-.977-.585-.623-1.258-1.066-2.064-1.24l-.36-.176c-.179-.088-.314-.266-.404-.31-.672-.22-.274-1.028-.635-1.428.178-.135.356-.27.445-.45l.268-.09.088-.18.177-.36c.357-.046.58-.271.802-.496.269.132.404.31.673.443-.043.313.18.312.359.177 1.525.75 2.96 1.457 4.53 2.118l.359.177c-.041.537.138.625.673.443 1.393 1.02 3.185 1.456 4.577 2.476.674.443 1.482.84 2.245 1.328-.22.672-.89.9-1.154 1.438.448.221.713-.317 1.205-.41-.443.674-.529 1.3-.525 1.971l-2.828-1.726c-.628-.31-1.032-.62-1.431-.036zM82.654 100.135c.089-.18.222-.225.312-.18.09.044.136.178.091.267-.088.18-.222.225-.312.181-.045-.134-.001-.224-.09-.268zM82.864 97.898c.18.088.359.177.494.355-.312.18-.491.092-.494-.355zM46.66 57.783c-.267.314-.578.719-.665 1.122-.453-.892-1.703-.616-2.156-1.508 0 0-.312.181-.535.183l-.406-.534.265-.539c.044-.09-.002-.223-.002-.223-.09-.044-.135-.178-.224-.223.042-.313.085-.626.038-.984.18.089.403.087.583.176.045.133.001.223.09.267.136.178.048.358.048.358.135.178.223-.002.267-.091.134-.046.314.043.448-.003.001.224-.043.313-.042.537-.084.85.054 1.475 1.081 1.2.535-.181.85.085 1.21.262zM33.247 51.291c.716.13.766.935 1.304 1.2.27.356.274.803-.216 1.12-.136-.179-.315-.267-.54-.49-.001-.223-.18-.088-.27-.132-.223.002-.446.003-.715-.13l-.27-.132.707-1.436zM35.312 52.53c.135.179.27.357.182.536a.78.78 0 0 1-.182-.535zM23.428 47.238c.132-.27.041-.537-.05-.805.937-.319 1.789-.011 2.596.386-.132.27-.13.493.094.715-.266.315.004.671-.039.985-.269-.133-.494-.355-.76-.04-.088.179-.043.313.093.49.225.223.494.356.76.04.134-.045.133-.268.266-.314.314.043.537.042.718.354.138.625.275 1.026.988.709.224-.001.403.087.627.086-.22.448.048.58.406.534.09.044.135.178.225.222-.044.09.001.224-.043.313-.27-.132-.493-.13-.805.05l-.359-.177c-.179-.088-.358-.176-.582-.175-.36-.4-.763-.487-1.253-.171-.225-.222-.54-.489-.765-.71-.449-.222-.852-.309-1.3-.53-.27-.132-.715.094-1.03-.172-.003-.447.668-.451.71-.988.132-.27.58-.272.577-.72-.358.047-.671.005-1.074-.082zM21.636 46.802c-.27-.356-.407-.758-.186-1.207.357-.047.847-.363 1.03.173-.582.048-.533.63-.844 1.034zM97.063 94.188c-.533.629.008 1.341-.211 2.013-.224.002-.537-.041-.762-.263.041-.537-.587-.846-.68-1.338-.274-1.027-.538-.265-.714.094-.046-.134-.225-.222-.271-.356.041-.537-.007-1.118-.763-.487l-.18-.088c-.18-.089-.447.002-.625.137l-.359-.176c.443-.674.127-1.164-.189-1.654l.044-.09.089-.179-.134.046c-.227-.446-1.025.722-.942-.352a2.836 2.836 0 0 1 2.325-.194c.269.133.492.132.804-.05.18.09.36.177.539.266.18.312.094.715.497.802.717.353 1.124 1.11 1.532 1.868z"/><path d="M94.362 91.297c-.223.225-.536.183-.805.05a2.836 2.836 0 0 0-2.325.193c0-.223-.002-.447.04-.76l.221-.449c-.09-.268-.316-.49-.407-.758-.05-.804-.406-.534-.806-.173l-.538-.266c-.136-.177-.27-.356-.45-.444.044-.09.044-.09-.002-.224l-.134.046c-.716-.13-.808-.621-.723-1.248.717.13 1.122.664 1.793.66.764.487 1.66.705 2.112 1.597.27.356.762.264.899.665l.09.268c.315.266.852.308 1.035.843zM94.696 94.694c.266-.315.44-1.12.715-.094.092.492.674.667.679 1.338-.583-.175-.588-1.07-1.303-.976l-.046-.134s.044-.09-.045-.134zM15.526 63.968c-.133.27-.399.584-.04.76.359.177.896.219 1.252-.052.356-.27.443-.674.217-1.12.445-.226.937-.318 1.202-.856-.042.536-.307 1.075.01 1.565-.671.004-.49.54-.486.987-.715.094-.355.494-.264.761.182.536.275 1.027-.531.853-.537-.04-.804.274-1.024.722-.09-.044-.226-.222-.315-.266-.274-.803-.856-.978-1.615-.795l-.27-.133c.089-.179.311-.404.086-.626-.225-.222-.401.137-.58.272l-.358-.177c.666-.675 1.287-1.484 1.954-2.159l.09.045c.09.044.403.087.672.219zM8.869 57.793c-.09-.044-.313-.043-.403-.087-.09-.044-.18-.089-.313-.043.085-.627-.409-.981-.768-1.158-.449-.22-.585-.622-.453-.892.177-.358.536-.182.895-.005s.896.218 1.299.305c.361.624.142 1.296-.257 1.88zM58.98 90.264l-.268.091c-.18-.088-.315-.266-.494-.355-.275-1.026-.5-1.249-1.212-.708-.048-.58-.319-.937-.897-.441-.407-.758-.947-1.247-1.796-1.107-.09-.044-.045-.134-.135-.178-.27-.133-.405-.31-.674-.443.133-.27-.095-.939.263-.986.536.042.445-.226.354-.494-.001-.224-.092-.491.22-.672.312-.181.314.266.494.355.225.222.762.263.094.715-.356.27-.087.403.182.535.27.133.537.042.759-.183.266-.315.22-.673-.095-.94-.406-.533-.944-.798-1.038-1.513.268-.091.49-.316.758-.407.09.044.225.222.314.266l-.044.09s.09.044.134-.046l.359.177c.09.044.045.134.135.178.047.357.094.715.095.938-.041.537.183.536.539.265.447-.002.803-.273 1.024-.721.269.132.627.085.941.351-.396 1.032.541.713.9.89.18.088.403.086.583.175-.17 1.477.807.397 1.256.618l1.209.26c.047.358.138.626.185.984-.27-.133-.449-.221-.762-.264-.313-.043-.493-.131-.76.184-.044.09.002.223.002.223.225.222.447-.003.67-.004.269-.091.492-.093.76-.184.403.087.76.04 1.027-.274.225.222.494.355.809.62-.265.54-.218.897.453.892.313.043.582.176.495.579-.49.316-.665.898-1.02 1.392l-.268.092c-.314-.267-.716-.13-1.163-.127-.18-.089-.36-.177-.494-.355-.137-.402-.539-.265-.718-.353-.318-.714-1.077-.53-1.527-.975-.941-.352-1.12-.216-1.65.86zm-2.482-3.562s.044-.09-.045-.134l-.134.045-.044.09c.133-.046.133-.046.223-.001zM64.455 93.406c.181.311.093.49-.175.582-.001-.224.087-.403.175-.582zM98.279 95.566c-.537-.041-1.03-.172-.766-.934l1.076.53c-.088.18-.176.359-.31.404zM99.042 96.054c-.268.09-.357.047-.315-.267.046.134.225.222.315.267zM91.25 79.957c-.043.314.182.536.318.714.314.266.272.58-.084.85a1.104 1.104 0 0 1-.718-.353c-.181-.312-.36-.4-.672-.22l-.628-.309c-.003-.447-.409-.981.44-1.12l1.209.26c.09.044.046.134.135.178zM88.47 93.302c.09.044.09.044.136.178-.043.313.719.576.14 1.072-.133.046-.311.18-.31.404-.312.181-.714.318-1.072.141-.093-.491-.274-.803-.853-.531-.584-.399-1.389-.35-1.84-1.017l-.09-.045-.18-.088c.085-.85-.586-.846-1.123-.887-1.885-1.151-3.77-2.302-5.61-3.32.31-.404.892-.229 1.157-.767.268-.091.313.043.583.175.584.399.945 1.023 1.662 1.153.09.044.09.044.133-.046.27.132.584.399.895-.005.406.534.811 1.068 1.706 1.062.224-.001.672.22.763.487.137.402.54.49.853.532.225.222.537.041.76.04.136.178.226.222.361.4.584.4.904 1.56 1.93 1.062zM3.033 47.006c-.668.452-.976 1.303-1.464 1.843l-.092-.268c.355-.494.263-.985.438-1.568.222-.225.4-.36.533-.63.134-.045.313.043.447-.002.268-.091.356-.27.22-.449-.224-.222-.313-.043-.4.137l-.178.359c-.804.05-1.303-.976-2.194-.523-.76-.04-.534.406-.354.718.137.401.408.757.277 1.25-.674-.443-1.432-.036-2.104-.255-.316-.49-.409-.982-.01-1.566.449.221.671-.004.892-.452.356-.27.399-.584.576-.943.668-.451-.362-.624-.052-1.028.045-.09.179-.136.223-.225.09.044.09.044.134-.046.09.044.09.044.223-.001l.359.176c.315.267.491-.092.714-.317.135.178.36.4.495.578.27.356.493.131.715-.094.85.085 1.788-.234 2.507.343-.223.225-.4.36-.534.406-1.025.721-1.067 1.035-.347 1.835l.406.534c-.088.18-.266.315-.355.495-.313-.043-.453-.892-1.075-.307z"/><path d="M-1.848 46.053c-.399.583-.306 1.075.01 1.565a.901.901 0 0 1-.803.273c.088-.18.176-.359-.003-.447-.18-.089-.178.135-.177.359-.132.269-.22.672-.352.941l-.267.091c-.224.002-.403-.087-.627-.086l.22-.448c.044-.313-.048-.581-.317-.714-.408-.981-.01-1.565.93-1.66.223-.002.492.131.624-.138.089-.18.086-.627.535-.406.269.133.27.356.227.67zM-1.497 44.888l.177-.36c.313.043.492.132.806.175-.087.403-.264.761-.576.942a3.04 3.04 0 0 1-.407-.758z"/><path d="M-4.164 47.587c.27.133.36.4.318.714-.27-.133-.672-.22-.942-.352l.089-.18c.178-.135.401-.136.535-.182z"/><path d="M-4.7 47.77c-.043.09-.043.09-.088.179l.089-.18zM9.053 65.797l.353-.718c.718.354 1.303.976 1.798 1.554.36.4.631.757.991 1.157-.713.317-1.12-.44-1.747-.526-.313-.043-.582-.175-.806-.174-.137-.401-.363-.847-.59-1.293zM54.557 83.851c.094.715.678 1.114 1.038 1.515.181.311.362.623.096.938-.223.225-.49.316-.76.184-.179-.089-.538-.265-.182-.536.624-.361.131-.493-.094-.715-.179-.088-.182-.535-.494-.355-.267.092-.22.45-.22.673.048.357.183.535-.354.494-.313-.043-.086.626-.262.985-.268.091-.581.049-.85-.084-.315-.266-.54-.488-1.032-.396l-.267.091-.044.09c-.18-.088-.315-.266-.494-.355.042-.313-.137-.401-.36-.176-.316-.49-.897-.442-1.345-.663-.27-.356-.94-.128-1.033-.62.218-.896-.767-1.158-.817-1.963-.4.36-.71.765-.977 1.08.044-.09.044-.09-.001-.224l-.089.18c-.49.316-.628-.31-1.075-.307l-.18-.088-.179-.088c-.447.002-.807-.398-1.343-.216-.178.136-.356.27-.49.317-.09-.045-.045-.134-.135-.179.043-.313-.004-.67-.317-.713-.27-.133-.267.314-.445.45-.09-.044-.135-.178-.135-.178l-.137-.402c-.18-.088-.493-.131-.67.004 0 0-.045.09-.135.046-.494-.355-.9-.89-1.613-.572-.402.137-.63-.532-.988-.709l-.268.091c-.09-.044-.046-.134-.135-.178-.137-.402.844-.81.082-1.074-.538-.265-1.118.007-1.606.547-.044.09-.089.18-.222.225-.27-.133-.717-.13-.541-.713.263-.761-.315-.266-.45-.444-.358.047-.627-.085-.586-.622.044-.09.134-.046.178-.136l-.09-.044-.088.18c-.223.001-.537-.042-.713.317-.089.18-.4.36-.492.093-.274-1.027-1.57-.662-2.066-1.463-.226-.446-.807-.398-1.206.186a.637.637 0 0 1-.539-.265c.132-.493.042-.537-.363-.848-.942-.575-2.194-.523-3.093-1.188.042-.537.039-.984-.366-1.295-.18-.088-.358-.176-.27-.356.043-.313.266-.314.49-.316.67-.004 1.205-.41 1.918-.727-.85-.084-.942-.576-.588-1.07-.806-.174-.666.675-1.202.857-.27-.356-.094-.715-.05-1.028.133-.046.268.132.267-.091l-.268.09c-.582-.174-.893.23-1.204.635-.488.54-.713.317-.94-.129-.133.046-.311.181-.356.27l-.088.18c-.223.001-.535.182-.715.094-.766-.934-1.208-.037-1.696.502l-.36-.176c.356-.494.443-.897.084-1.074-.673-.22-.362-.624-.141-1.073.044-.09-.046-.133-.002-.223l-.358-.177c.312-.18.625-.138.894-.005.27.356.584.398.895-.006.266-.315.307-.852.26-1.209-.092-.491-.403-.087-.626-.086-.224.002-.402.137-.493-.13-.046-.135-.003-.448.131-.493.848-.363 1.11-1.349 1.734-1.71 1.47-.949 1.73-2.382 2.168-3.726.133-.27.131-.493.31-.628.533-.406 1.023-.722-.05-.805-.224.002-.226-.222-.227-.446.174-.806.752-1.301 1.332-1.573.714-.317.406.534.63.756.136.178.182.312.271.356-.176.36-.443.674.096.939.986.486 1.93 1.061 3.049 1.278.448.22.807.398 1.212.708.182.536.766.935.456 1.563-.719-.577-1.525-.751-2.288-1.239a.752.752 0 0 0-.849.14c-.623.585-.76.184-.853-.531-.444.45-.665.898-1.204.633-.717-.353-.677-1.114-.683-2.008-.8.72-.974 1.526-1.148 2.332-.088.18.003.448.226.446.625-.138 1.21.485 1.479.394.937-.32.627.309.63.756.003.447-.216 1.12.5 1.25.76.04.533-.63.753-1.079.045-.09.045-.09.179-.135.357-.047.316.49.629.533.94.128 1.257.842.995 1.827-.359-.177-.713.318-1.116.23-.137-.401.13-.716.262-.985l.268-.09-.18-.09c-.578.496-1.295.367-2.008.684-.405-.31-.896-.218-1.389-.35-.448-.22-1.03-.172-1.07.365-.086.627.537.265.896.442l.18.088c.763.487 1.304 1.2 2.2 1.418 1.658.481 3.183 1.232 4.842 1.938.225.222.404.31.63.532.358.177.583.4.942.576.584.399.769 1.382 1.706 1.063.581-.049.808.397 1.3.528.36.177.408.758 1.031.396.405.31 1.074.083 1.212.708.225.223.449.221.76.04.224-.001.404.087.627.086.45.22.633.98 1.26 1.066 1.476.17 2.467 1.326 3.9 1.585.09.045.225.223.315.267.227.67 1.167.798 1.129 1.782.001.223.313.043.403.087.628.309 1.249-.5 1.921-.28l.088-.18.09.044c.046.134.002.224.181.312l.538.265c-.176.359-.309.628-.44 1.12 1.205-.41.852.309.542.937a6.549 6.549 0 0 0 2.278-.551c.09.044.313.043.403.087.045.134.18.312.226.446-.178.135.002.223.091.267zm-20.876-5.818c.355-.495.486-.987.036-1.432-.136-.178-.314-.043-.402.137-.399.584-.128.94.366 1.295.045.133-.133.269.09.267l-.09-.267zm-3.006-1.592c-.09-.044-.18-.088-.224.002-.044.09-.043.313.003.447 0 0 .18.088.223-.002.178-.135.133-.269-.002-.447zm9.816 3.607c-.09-.044-.134.045-.224.001-.044.09.002.224.002.224l.134-.046.088-.18zm-10.403-4.453l-.134.046.046.133.09.045c.044-.09.088-.18-.002-.224zm15.858 4.24c.044-.09.044-.09 0 0 .044-.09-.046-.134-.046-.134-.09-.044-.09-.044.046.134z"/><path d="M47.72 84.61c-.272-.58-1.164-.128-1.436-.707.267-.315.623-.586.977-1.08.05.805.902 1.113.817 1.963-.133.046-.269-.133-.358-.177zM45.078 84.089c.18.088.448.22.54.489-.223.225-.579.495-.04.76.448.221.182.536.093.715-.448-.22-.807-.397-1.212-.708l.177-.359c.133-.269.265-.538.264-.762-.046-.134.044-.09.178-.135zM67.242 66.69c.09.043.09.043.135.177l-.486.987c-.268.091-.447.003-.672-.22.043-.313-.137-.401-.359-.176l-.538-.265c-.002-.224-.181-.312-.36-.177-.45-.444-.987-.71-1.658-.705-.76-.04-1.302-.752-1.886-1.151.133-.27.221-.449.443-.674l.671-.004c.315.267.584.399 1.031.396.45.445 1.3.305 1.66.93-.043.089-.042.312.048.357.09.044.178-.136.312-.181.582.175 1.12.44 1.659.705z"/><path d="M65.627 65.894c-.134.046-.222.225-.312.18-.134.046-.135-.177-.047-.357l.359.177zM48.53 56.698c-.132.269.139.625-.263.761-.27-.356-.451-.668.264-.761zM97.972 89.397c-.223.001-.403-.087-.626-.086.266-.315-.185-.983.575-.943.003.448.45.445.587.846-.225-.222-.403-.087-.536.183zM29.89 50.865c.313.043.54.488.941.352-.042.313.005.67-.038.984l-.402.137c-.135-.178-.314-.267-.45-.445-.045-.134-.09-.267-.314-.266l-.18-.089-.045-.133.132-.27c.044-.09.044-.09.178-.135-.045-.134.088-.18.178-.135zM-2.712 43.732s-.044.09.046.134l-.09-.044-.09-.044c.045-.09.045-.09.134-.046zM21.13 73.414c.444-.45.886-1.347 1.696-.502.046.134.448-.003.715-.094a896.272 896.272 0 0 1-.53 1.077c-.403-.087-.672-.22-1.073-.083-.09-.044-.314-.043-.404-.087-.09-.044-.269-.132-.314-.266-.134.045-.134.045-.09-.045z"/><path d="M23.512 75.368c-.18-.089-.314-.267-.405-.535.042-.313-.183-.535-.23-.893.224-.001.492-.092.624-.361.225.222.45.444.497.802l-.486.987z"/><path d="M23.512 75.368c.177-.36.31-.629.576-.943-.041.537.72.577.767 1.158-.223.001-.491.092-.715.094l-.628-.31zM22.877 73.94c.091.268.317.49.23.893-.27-.132-.405-.31-.674-.443-.27-.132-.494-.355-.674-.443.402-.136.805-.05 1.118-.007zM21.13 73.414l-.088.18c-.134.045-.358.047-.492.092-.269-.132-.672-.22-.941-.352.4-.36.805-.05 1.162-.096l.359.176zM21.025 70.91c-.27-.132-.582-.175-.894.006-.893.23-1.742.369-2.595-.163.092.492.451.668.454 1.116-.403-.087-.808-.398-1.252.052-.81-.845-1.62-1.69-2.386-2.624l.132-.269c-.046-.134-.001-.224-.091-.268.176-.359.534-.406.8-.72.586.622 1.524.527 2.198.97.18.088.315.266.36.4.45.445.988.71 1.565-.01.314.043.583.176.896.219.316.49 1.077.53.813 1.292z"/><path d="M15.283 68.084c-.312.18-.624.362-.8.72-.85-.084-1.08-.977-1.842-1.24-.001-.224-.092-.492-.138-.626.27.133.628.31.85.085.27.132.493.13.762.263.002.224.091.268.315.267l.18.088c.225.222.404.31.673.443zM14.484 69.028l-.133.27-.179-.09c.088-.179.178-.134.312-.18zM40.998 82.415c.267-.091.491-.093.67-.004-.044.09-.132.269-.266.314-.135-.178-.315-.266-.404-.31zM24.766 75.539c.041-.537-.72-.577-.768-1.158-.047-.358-.272-.58-.497-.802l-.359-.177.265-.538.089-.18c.134-.045.312-.18.356-.27.226.445.451.668.94.128.31-.404.62-.809 1.203-.633-.042.313-.219.672.052 1.028.445-.227.44-1.121 1.202-.857-.4.584-.262.985.588 1.07-.714.317-1.248.723-1.919.727-.223.001-.447.002-.49.316.002.223.091.268.27.356.539.265.498.802.366 1.295l-.088.18c-.223 0-.357.046-.58.047-.18-.088-.314-.042-.494-.13-.045-.135-.135-.179-.136-.402z"/><path d="M25.036 75.895c.18.088.313.043.493.13-.222.226-.446.227-.493-.13zM14.086 62.59l.089-.179.088-.18.268-.09c.896.218 1.303.975.995 1.827-.27-.133-.538-.265-.941-.352.309-.628-.362-.624-.499-1.026zM14.084 62.143c-.583-.175-.543-.935-1.037-1.29-.315-.267-.541-.712-1.033-.62-.717-.353-1.169-1.021-1.53-1.645.446-.227 1.205-.41.44-1.121-.18-.312-.048-.581.084-.85l.134-.046c.09.044.18.089.314.043.09.268.225.222.402.087.134-.046.179-.135.268-.091l.133-.27c.361.625.942.576 1.48.618.536.041 1.163.127 1.567.437-1.249.5-1.017 1.84-1.682 2.739-.267.314.004.67.23.893.493.354.54.712.23 1.116zM1.298 41.248l.088-.18c.178-.135.267-.314.402-.136 0 0 .045.133.001.223-.132.27-.312.181-.491.093zM17.99 71.869c.087-.403-.362-.624-.454-1.116.853.532 1.702.392 2.595.163l.358.177c-.044.09.046.134.002.223-.22.449-.532.853.14 1.073.27.132.183.535.14.849-.357.047-.762-.264-1.162.096-.313-.042-.627-.085-.496-.578.09.044.36.177.358-.047-.002-.224-.225-.222-.449-.22-.18-.089-.358-.177-.626-.086l-.18-.089a1.378 1.378 0 0 1-.226-.445z"/><path d="M19.022 72.488c.224-.001.448-.002.449.221.001.224-.268.091-.358.047-.045-.134-.135-.178-.09-.268zM44.008 55.697c-.134.046-.133.27-.312.18l.088-.179c.09.045.134-.045.224-.001zM21.025 70.91c.264-.761-.497-.801-.678-1.113.087-.403.084-.85.53-1.077.312-.18.533-.63.442-.897-.184-.76-.008-1.342.121-2.058.13-.716-.498-1.025-.766-.934-1.07.588-.894.005-.854-.755-.001-.224.086-.627-.138-.626-.403-.087-.31.405-.399.584-.085.627-.217 1.12-1.023.946-.18-.089-.401.136-.67.227.088-.403-.228-.893.487-.986.98-.633 1.196-1.752 1.995-2.696-1.028.051-1.652.413-2.05 1.22-.264.538-.755.63-1.201.857l-.18-.088c.354-.718.976-1.303 1.15-2.11.043-.313.31-.404.534-.405-.088.18-.22.449-.041.537.135.178.268-.091.401-.137.178-.135.357-.27.624-.361.447-.003.805-.05.711-.765-.23-.893.663-1.346.703-2.106.401-.137.404.31.673.443.18.088.45.444.583.175.222-.225.531-.853.486-.987-.81-.845.347-1.612.074-2.415.537.041.45.444.675.666.27.356.63.757 1.164.127.31-.404.801-.497 1.116-.23.763.487.715-.094.802-.497.044-.09.178-.135.222-.225.09.044.18.088.225.222.227.446-.036 1.431.944.8l.18.088c-.31.628.229.893.544 1.159.135.178.4-.36.532-.63l.898.442c-.04.76.229.893 1.256.619.13-.493.312-.181.535-.183.36.4.987.486 1.48.617.718.354 1.391.797 2.241.88l3.32 1.635c-.308.852-.84 1.705.15 2.414.314.267.362.848.097 1.386-.265.538-.756.63-1.25.5-.402-.087-.76-.04-.98.408-.178.135-.446.227-.58.272-.443.674-1.296.142-1.783.906.537.041.984.038 1.387.125.313.043.85.084.809.621-.087.403-.489.54-.757.631-.447.003-.713.318-.934.766-.31.628-.527 1.524-1.426.859-.09-.044-.268.09-.446.226-.359-.177-.846.587-1.118.007-.226-.446-.404-.31-.58.048-.133.27-.445.45-.668.675.221-.448.218-.895-.186-1.206.262-.986-.055-1.7-.995-1.828-.313-.042-.272-.58-.63-.532-.044.09-.133.045-.178.135-.176.359.007 1.118-.753 1.078-.717-.13-.497-.802-.5-1.25-.003-.446.396-1.03-.63-.756-.268.091-.854-.53-1.479-.393-.134.046-.225-.222-.226-.446.174-.806.348-1.612 1.148-2.332.006.894-.034 1.654.683 2.008.449.22.804-.273 1.204-.634.004.671.14 1.073.853.532a.752.752 0 0 1 .849-.14c.763.487 1.613.572 2.288 1.238-.265.539-.759.184-1.16.544.45.221.676.667 1.122.44.356-.27.309-.628.128-.94.22-.672-.364-1.07-.457-1.562l.088-.18c.539.266 1.033.62 1.704.616.223-.001.494.355.715-.094.132-.269-.228-.67-.408-.757-.537-.042-.986-.486-1.476-.17-.046-.134-.092-.268-.27-.133-.09-.044-.179-.088-.313-.042-.359-.177-.674-.444-1.032-.62-.9-.89-2.065-1.24-3.276-1.724-.045-.134-.18-.312-.27-.356-.225-.222.082-1.074-.631-.757-.67.228-1.158.768-1.332 1.574-.088.18.047.358.226.446 1.074.083.63.533.05.805a.854.854 0 0 0-.31.627c-.392 1.479-.698 2.778-2.167 3.726-.624.362-.93 1.437-1.734 1.71-.134.046-.266.315-.131.493.091.268.269.132.493.13.267-.09.534-.405.626.087.047.357.006.894-.26 1.209-.448.002-.761-.04-.942-.352zm12.403-4.817c-.175.583-.352.942-.17 1.477.091.268.316.49.584.4.402-.138.355-.495.086-.627-.27-.357-.14-.85-.5-1.25zm-9.667-1.192c-.534.406-1.027.275-1.382.769.85.084.85.084 1.382-.77zm13.728-.264c.447-.003.76.04.937-.319a.215.215 0 0 0-.091-.267c-.27-.133-.536.182-.846.586zm-16.821-.924c-.045.09-.179.135-.223.225l.046.133c.044-.09.178-.135.178-.135.134-.045.044-.09-.002-.223zm1.358 2.675l-.18-.089-.044.09c.09.044.224-.001.224-.001zM12.936 50.21c-.672-.22-1.167-.798-2.058-.122-.222.225-.403-.087-.45-.444.177-.36.532-.853-.05-.805-.67.004-1.03-.396-1.479-.617 1.063-1.706 1.775-2.247 3.702-1.633.09.044.045.134.045.134l-.044.09c.224-.002.403.087.495.354-.089.18-.223.225-.267.315-.313-.043-.402.137-.177.36-.266.314-.578.495-.262.985.312-.181.489-.54.621-.81.268-.09.624-.36.895-.005.09.044.001.224-.043.313-.803.274-.04.761-.217 1.12l-.088.18-.177.358c-.223.002-.312.181-.446.227zM14.698 52.971c.45.445-.442.898-.126 1.388.447-.003.445-.45.667-.675.178-.136.356-.27.491-.093.135.178.36.4.182.536-.757.407-.483 1.434-1.15 1.885a4.22 4.22 0 0 1-2.107-.702l-.18-.089c.13-.716.395-1.254 1.154-1.438.224-.001.446-.226.265-.538-.135-.178-.404-.31-.138-.625.356-.271.493.13.672.219l.27.133zM.775 50.687a.638.638 0 0 1-.538-.265c.354-.494-.006-.894-.098-1.385-.046-.134.132-.27-.092-.268l.092.268-.177.358c-.27-.132-.76.184-.806-.174-.047-.357.22-.672.575-.942.178-.136.446-.227.624-.362.181.312.318.714.677.89-.045.09.001.224.001.224.268-.091.266-.315.399-.584l.18.088c-.266.539-.71.989-.662 1.57-.222.225-.22.449-.175.582zM15.661 56.901c-.18-.088-.315-.266-.494-.355.133-.269.353-.717.756-.63.224-.002.27.132.27.356.138.401-.22.448-.532.63z"/><path d="M19.353 60.948c-.178.135-.356.27-.623.362-.134.045-.267.314-.402.136s.043-.313.041-.537c-.045-.134-.047-.357-.138-.625.539.265.808.398 1.122.664zM15.5 52.475c-.358.047-.627-.086-.718-.354 0 0 .088-.18.222-.225.224-.001.449.221.496.579zM.816 50.15c-.004-.67.44-1.12.661-1.569l.092.268-.089.18c-.31.404-.487.763-.664 1.121zM14.563 60.038c-.045.09.045.134 0 .224-.043.09-.177.135-.223.001l.089-.179.133-.046z"/><path d="M1.48 49.028c-.31.405-.487.764-.664 1.122.446-.226.623-.585.664-1.122zM13.178 45.87c-.089.18-.177.359-.4.36.132-.269.266-.314.4-.36zM8.637 49.208c.134-.046.357-.047.403.087-.178.135-.312.18-.403-.087zM7.13 44.119l.133-.046-.044.09-.09-.044zM2.478 51.303l-.359-.177c.178-.135.312-.18.36.177zM5.214 45.293c-.09-.044-.09-.044 0 0-.046-.134.044-.09.044-.09l-.044.09zM14.698 52.971l-.18-.088.18.088zM23.428 47.238c.313.043.716.13 1.03.172-.087.403-.535.406-.577.72-.134.045-.314-.043-.448.002-.18-.312-.182-.535-.005-.894zM20.424 46.093c.09.045.09.045.136.179l-.134.045c-.046-.134-.046-.134-.002-.224zM20.263 48.912c.448.22.853.531 1.388.35-.04.76.23.892.853.53.094.716.452.669.986.263l.359.176c-.044.09.045.134.135.179.001.223.091.267.315.266.672.22 1.257.842 2.018.882.136.401.537.041.762.264.135.178.314.266.45.444.225.222.582.175.85.084.09.268.182.536.273.803.403.087.716.13.983-.184.228.669.719.576 1.255.394.09.044.223-.001.403.087.269.133.404.31.673.443l.359.177c.09.044.18.088.403.087.225.222.45.444.765.71.045.135.092.492.136.402 1.79.213 3.095 1.412 4.709 1.984.09.044.223-.002.447-.003l.359.177c.405.534 1.297.081 1.614.795l.539.265c.359.176.763.487 1.209.26.313.043.672.22.985.263l1.974.971c.224-.001.403.087.627.086.448.22.809.621 1.256.618.18.312.451.668.941.352l1.615.795c.182.536.628.31.941.352l.18.089c.315.266.674.442 1.077.53.629.532 1.435.706 2.197.97l.359.176.359.177c.583.399 1.167.798 1.797 1.33.001.224.135.179.223 0l1.257.618c.093.715-.49.316-.713.54-.492-.13-.534.406-.846.587-.493-.13-.854-.755-1.524-.527l-.358-.177-.898-.441-.18-.089c-.313-.042-.493-.354-.761-.263-.359-.177-.718-.354-1.12-.44-.226-.223-.54-.49-.898-.442l-.09-.044c.089-.18.133-.27.087-.403-.088.18-.222.225-.31.404-.224.001-.447.003-.627-.085-.404-.311-.943-.576-1.48-.618l-.717-.353c-.09-.044-.27-.132-.315-.266-1.253-.171-2.287-1.015-3.542-1.41-.493-.13-1.12-.216-1.435-.706-.18-.088-.27-.133-.447.003-.314-.043-.673-.22-.986-.263-.27-.132-.404-.31-.674-.443-1.478-.393-2.78-1.145-4.26-1.762-1.21-.485-2.554-.923-3.588-1.767-.045-.134-.18-.312-.226-.446.088-.179.176-.358-.049-.58l-.133.045c-.089.18-.043.313.002.447-.444.45-.715.094-1.03-.172-.09-.268.488-.764-.228-.893-.09-.045-.09-.045-.224 0l-.268.092c-.537-.041-.35 1.165-1.114.678-.942-.576-1.797-1.33-2.959-1.234-1.213-.932-2.47-1.55-4.036-1.764l-.359-.177-.897-.441c-.046-.134-.135-.178-.18-.312-.046-.134-.002-.224-.18-.089-1.657-.258-3.226-.919-4.97-.998-.315-.266.128-.94-.455-1.115l.089-.18c-.002-.223-.003-.446-.138-.624-.72-.577-.804.273-1.16.543l-.359-.176c.177-.36-.586-.846.217-1.12 0 0 .088-.18.043-.313-.27-.356-.581.048-.895.005-.001-.223-.002-.447-.138-.625.044-.09.223-.225.267-.314.357-.047.672.219.984.038.269.133.494.355.715-.094.268-.09.4-.36.58-.272.179.089.09.268.002.448-.132.269-.087.403.227.445.488-.54.978-.855 1.52-.143.135.178.357-.047.401-.137.763.487 1.66.93 2.602 1.281zm35.972 17.04c-.09-.044-.223.002-.223.002-.044.09-.088.179-.043.313.046.134.135.178.224-.001.09.044.044-.09.043-.314z"/><path d="M57.268 66.572c.222-.225.806.174.712-.541 1.477.17 2.735 1.011 3.857 1.675 2.468 1.327 5.068 2.384 7.137 4.294l.268-.09c.09.043.269.132.314.266-.04.537-.398.583-.89.676-1.384.322-2.374-.612-3.406-1.231-1.212-.708-2.468-1.327-3.68-2.035-.987-.486-1.752-1.196-2.915-1.323-.27-.133-.584-.4-.853-.532.397-.807-.273-.803-.544-1.16zM71.871 70.417l-.09-.044-.717-.353c-.895.005-1.436-.707-2.286-.791-.046-.134-.135-.178-.18-.312-.002-.224-.004-.447-.317-.49-.403-.087-.806-.174-.987-.486l.486-.987c.763.487 1.57.885 2.156 1.507.046.134.091.268.18.312.542.712 1.392.797 1.977 1.42-.044.089-.088.178-.222.224zM65.86 67.458c.312-.18.402-.137.359.177l-.359-.177zM56.724 65.412c-.044.09-.222.225-.223.002.133-.046.223-.002.223-.002zM65.341 92.058c-.133.046-.313-.043-.447.003-.135-.178-.314-.266-.45-.444.044-.09-.001-.224.043-.314l.268-.09c.49-.317.665-.9 1.02-1.393.269.132.495.578.85.084.134-.046.224-.002.268-.091.09.044.134-.046.224-.002s.135.178.314.267c.046.133.002.223.136.178.314.266.673.443.988.71l-.177.358-.088.18-.268.09c-.178.136-.356.271-.445.45l-.133.046c-.225-.222-.317-.49-.673-.22-.537-.04-.984-.038-1.43.188z"/><path d="M68.555 90.965c-.315-.266-.674-.443-.989-.71l.266-.538c.223-.001.357-.047.58-.048l.27.133c-.176.582-.04.76.54.488l.179.088c-.31.405-.533.63-.846.587zM69.896 90.957l.36.177c-.179.135-.269.09-.36-.177zM68.156 91.549l.088-.18c.09.045.046.134-.088.18zM67.888 91.64l.268-.091c-.044.09-.134.045-.268.091zM81.406 93.614c-.179-.089-.313-.043-.491.092-.1-1.61-.716-.13-1.164-.127l-4.443-2.521c-.269-.133-.538-.266-.763-.488.578-.495 1.067-1.035 1.24-1.841.45.22.853.308.9.889l-.133.045s.09.044.134-.045c2.197.97 4.528 1.895 6.46 3.403.09.045.226.223.316.267l-.177.359c-.623.585-1.164-.127-1.879-.033zM72.976 89.91c-.315-.267-.764-.488-1.078-.754.176-.36.443-.674.934-.767.492-.092.668-.45.576-.942.448.22.851.307 1.212.708-.714.317-.798 1.168-1.197 1.751-.224.002-.313-.042-.447.003z"/><path d="M75.921 88.907a4.086 4.086 0 0 1-1.24 1.841l-.539-.265c.177-.359.13-.716-.185-.983.222-.224.264-.761.755-.854.224-.001.403.087.537.042.268-.092.447-.003.672.219z"/><path d="M74.712 88.646c-.402.137-.399.584-.755.855-.132.269-.22.448-.443.673-.09-.044-.135-.178-.315-.266.4-.584.44-1.345 1.197-1.752l.18.088.136.402z"/><path d="M73.558 90.084c.133-.269.221-.448.443-.673.315.266.272.58.185.983l-.628-.31zM43.208 56.641c.045-.09-.001-.224-.001-.224.09.045.046.134.001.224zM28.953 51.184l-.538-.265c.312-.181.491-.093.804-.05-.044.09-.222.225-.266.315zM85.927 86.922l-.442.897c-.177.36-1.028.051-.755.855-.268.09-.581.048-.762-.264.444-.45-.23-.893.081-1.297 1.073-.141.085-.85.395-1.255.268-.091.67-.228.802-.497l.18.088c-.577.72.14 1.073.5 1.473zM17.59 65.207c.269-.09.49-.316.67-.227.806.174.938-.32 1.023-.946-.001-.223-.004-.67.399-.584.313.043.27.356.138.626-.13.716-.215 1.343.854.755.178-.136.852.307.766.934-.13.716-.305 1.299-.121 2.058a.908.908 0 0 1-.442.897c-.445.227-.443.674-.53 1.077-.313-.043-.582-.175-.896-.218l-1.704-.84c-.225-.222-.54-.488-.765-.71l.044-.09-.134.046-.897-.442c.221-.449.488-.763 1.025-.722.85.084.713-.317.53-.853-.18-.312-.63-.756.04-.76zM18.157 62.7c.443-.674 1.021-1.17 2.05-1.22-.8.943-1.016 2.063-1.996 2.695-.36-.4-.096-.939-.054-1.475zM15.547 67.322c-.18-.088-.403-.087-.583-.175-.314-.267-.673-.443-.988-.71.67-.227 1.342-.008 1.57.885zM13.617 66.26l-.538-.264c.178-.136.354-.495.58-.272.179.088.046.357-.042.537zM12.655 55.31c-.088.18-.177.358-.356.27l.22-.448a.31.31 0 0 0 .136.178zM64.827 88.35c.178-.136.357-.047.447-.003.45.444.766.934 1.35 1.333.045.134.001.224.047.358-.355.494-.581.048-.85-.085.086-.403-.139-.625-.496-.578-.716-.13-.763-.487-.498-1.025zM56.348 84.064c.09.044.09.044.223-.001.093.491.184.759.718.353.312-.18.404.31.628.31a2.383 2.383 0 0 1-1.024.721l-.538-.265c-.047-.358-.094-.715-.096-.939-.045-.133-.045-.133.089-.179zM56.74 89.607l.176-.359c.713-.54.938-.319 1.212.708-.447.003-.94-.128-1.388-.349zM60.297 86.23c.49-.092.762.264 1.165.352l.09.267c-.448-.22-1.425.859-1.255-.618zM62.806 87.02c.493.132.897.442 1.212.709-.356.27-.624.361-1.027.274-.181-.312-.138-.625-.185-.983zM62.901 87.959c-.268.091-.491.093-.759.184-.224 0-.446.226-.67.004-.09-.044-.002-.224-.002-.224.177-.359.446-.226.759-.183.224-.002.493.13.672.219zM56.916 89.248c-.401.137-.804.05-.897-.441.578-.496.849-.14.897.441z"/><path d="M65.73 89.91c-.354.493-.53 1.076-1.02 1.392.355-.494.53-1.077 1.02-1.393zM56.893 85.447l-.538-.265c-.132.493.092.491.538.265zM56.498 86.702l-.09-.044.044-.09.134-.046c-.133.046-.133.046-.088.18zM62.523 84.652c-.09-.044-.135-.178-.225-.222-.27-.357-.007-1.118-.812-1.069-.448-.22-.762-.263-1.027.275-.445.226-.67.004-.897-.442.043-.313-.27-.356-.45-.444l-.448-.22-1.346-.663c-.135-.178-.315-.267-.45-.445l.044-.09s-.09-.044-.134.046l-.134.046-.09-.045c-.404-.31-.895-.218-1.256-.618-.135-.178-.358-.177-.492-.131-.18-.088-.405-.31-.584-.399-.135-.178-.27-.356-.583-.175l-.807-.398c-.27-.356-.318-.713-.276-1.25-.578.495-1.067 1.035-1.696.502-.225-.222-.45-.444-.852-.308-.315-.266-.63-.532-.81-.844-.362-.624-.539-.265-.715.094-.224 0-.447.002-.671.004l-.18-.089c-.36-.4-1.075-.306-1.169-1.021.045-.09.089-.18.223-.225.222-.225.673.443.669-.228.043-.313-.004-.67-.273-.803-.493-.131-.31.404-.533.63-.178.135-.266.314-.355.493l-.088.18c-.449-.22-1.031-.396-1.168-.798-.5-1.249-.897-.442-1.341.008l-.539-.265c-.005-.894-1.35-1.333-2.33-.7l-.358-.177c.307-.852-.054-1.476-.813-1.292-1.027.274-1.479-.394-2.018-.882-.45-.445-.81-.845-1.57-.661-.223.001-.491.092-.715.094-.227-.67-.544-1.16-1.437-.93-.759.183-.853-.532-.544-1.16.134-.046.357-.27.446-.227.899.666 1.117-.23 1.426-.858.221-.449.353-.718.934-.766.358-.047.76-.184.757-.63.041-.538-.406-.535-.809-.622-.403-.087-.85-.084-1.387-.126.487-.763 1.384-.321 1.783-.905.675.667 1.525.75 2.289 1.238-.355.494-.307 1.075-.348 1.612a.55.55 0 0 0 .316.49c.224-.001.222-.225.31-.404.089-.18.223-.225.311-.405.449.221 1.075.307 1.436.707-.177.359-.354.718-.126 1.387.265-.538.398-.807.44-1.12l.718.353c.315.266.672.22 1.074.082.09.045.225.223.315.267.271.58.542.936 1.256.618.044-.09.088-.18.178-.135l.267-.091.045-.09c.179.088.269.133.447-.003.09.044.09.044.223-.001.628.31.68 1.337 1.44 1.377.67-.004 1.031.396 1.481.841.27.132.583.175.852.308.987.486 2.196.746 3.094 1.412.134-.046.178-.136.268-.091.135.178.225.222.36.4.002.224.181.312.36.177l.179.088c.225.222.584.399.764.71.272.58.402-.136.536-.181.537.04.898.665 1.524.527.18.088.314.266.494.355l-.044.09s.09.043.134-.046c.761.263 1.345.662 1.93 1.285.271.356.629.309.895-.006l.718.353c-.04.76.675.667 1.079.978.047.357.094.715-.172 1.03-.536.181-.986-.263-1.479-.394-.18-.088-.448-.22-.58.048-.133.27.046.358.226.446l1.345.663c.181.311.27.132.358-.047.226.445.453.891.94.128.13-.493-.497-.802-.232-1.34.18.088.313.043.493.13.227.67.76.04 1.075.307.403.087.495.579.987.486l.269.133c.226.445.63.532.988.71.81.844 2.02 1.105 3.095 1.411.18.088.359.177.494.355.18.088.359.176.494.355.359.176.718.353 1.12.44 1.171 1.245 2.65 1.862 4.175 2.389l.359.177c.09.044.135.178.225.222.09.268.36.4.628.309l.807.397c.273.804.901 1.113 1.662 1.153-.22.449-.848.363-1.158.767-1.75-.973-3.59-1.99-5.34-2.963-.36-.177-.674-.443-1.033-.62-.18-.088-.67.004-.535.183.497.802-.44 1.12-.482 1.657-.178.135-.356.27-.4.36-.403-.086-.718-.353-1.033-.62.089-.179.445-.45.175-.582-.135-.178-.447.003-.58.272-.043.09-.132.27-.266.315-.314-.266-.675-.667-1.165-.35-.313-.043-.626-.086-.895-.219-.496-.578-1.125-1.11-1.93-1.061-.001-.224-.225-.222-.36-.4-.63-.533-.722-1.024-1.39-.573zM39.845 69.587c.044-.09.044-.09-.002-.224l-.044.09c-.044.09-.044.09.046.134zM90.046 94.857c-.134.046-.179.135-.268.091.044-.09-.046-.134-.002-.223 0 0 .178-.136.134-.046.134-.046.09.044.136.178zM.266 47.873c-.179.135-.446.226-.624.362-.356.27-.623.585-.576.942.047.358.537.042.806.174-.088.18-.266.315-.355.494-.536-.041-1.073-.082-1.612-.347.043-.314-.002-.448-.314-.267-.27-.132-.584-.399-.853-.531.132-.27.22-.672.352-.942l.179.089a.901.901 0 0 0 .803-.273c.762.263 1.52-.144 2.194.299zM.942 48.763c-.359-.176-.496-.578-.676-.89.13-.493-.14-.849-.277-1.25-.18-.312-.317-.714.264-.762.051 1.028.99.933 1.662 1.152-.131.493-.083 1.074-.438 1.568l-.179-.088c-.134.045-.312.18-.356.27zM-1.598 43.054c.09.045.09.045.224 0 .535-.183.584.398.853.53-.31.405.719.577.05 1.029-.313-.043-.492-.131-.805-.174-.36-.177-.628-.31-.765-.71l.044-.09c.178-.136.31-.405.4-.585zM2.448 46.384l.176-.36c.089-.179.31-.404.402-.136.135.178.003.447-.22.449-.045.09-.135.045-.358.047zM1.538 43.93c.178-.136.446-.227.715-.094-.132.269-.444.45-.715.094z"/><path d="M-2.731 47.847l-.18-.089c.045-.09-.002-.447.177-.358.18.088.047.357.003.447zM51.19 81.636c.223-.001.313.043.314.267.002.223.003.447.182.535.27.133.312-.18.4-.36.317.49.988.486 1.392.796.045.134.001.224.091.268-.714.318-1.339.456-2.277.55.309-.627.706-1.435-.543-.935.221-.449.264-.762.44-1.12zM46.927 79.426c.853.532 1.617 1.019 2.646 1.192.313.042.583.175.72.577-.629-.31-1.294.589-1.922.28-.09-.044-.446.226-.403-.087.039-.984-.901-1.113-1.13-1.782l.09-.18zM30.593 70.494c-1.075-.307-1.974-.972-3.05-1.502.623-.362 1.34-.232 2.008-.683l-.088.18c-.043.313-.31.627-.263.985.403.087.758-.407 1.117-.23.494.354.497.801.276 1.25zM33.68 78.033c-.404-.311-.764-.711-.365-1.295.088-.18.266-.315.402-.137.45.445.229.893-.036 1.432zM34.906 73.732c.402-.137.583.175.898.441.269.133.494.355.853.532l-.089.18c-.937.318-1.212-.709-1.706-1.064l.044-.09zM30.675 76.441c.045.134.18.312.002.447l-.223.002c-.046-.134-.002-.224-.003-.447.044-.09.178-.136.224-.002zM40.491 80.048c-.044.09.001.223-.043.313l-.134.045c-.045-.133-.001-.223-.001-.223-.046-.134.044-.09.178-.135zM30.088 75.595l-.088.18-.09-.045-.046-.133.224-.002zM50.817 86.469l-.133.269c-.09-.044-.09-.044-.135-.178-.045-.134-.001-.224-.091-.268.222-.225.356-.27.359.177zM21.523 71.936l.09.044-.134.046.044-.09zM53.972 83.229c.358-.047.27.133.227.446-.046-.134-.181-.312-.227-.446zM33.68 78.033l.092.267c-.224.002-.091-.267-.091-.267zM45.946 79.835c-.18-.088-.135-.178-.046-.134 0 0 .09.044.046.134.044-.09.044-.09 0 0z"/><path d="M29.418 68.578l.089-.18.18.089-.269.09zM26.13 71.863l.267-.091c.001.223-.134.045-.268.09zM34.626 79.055l.089-.18.09.045c-.045.09-.045.09-.179.135zM24.076 72.412c-.134.046-.313.181-.357.27.044-.089.178-.134.357-.27zM46.284 83.903l-.09-.044.089-.18c-.044.09-.089.18.001.224zM51.533 86.598l-.267.091c.133-.045.223-.001.267-.09zM26.075 48.652l-.18-.088c.134-.045.09.044.18.088zM-2.32 49.275c.312-.18.358-.047.315.267-.18-.089-.225-.222-.315-.267zM23.232 73.446l.359.177c-.222.225-.4.36-.624.361l.265-.538zM66.373 92.454l.265-.538c.356-.27.49-.092.672.22-.267.314-.579.495-.937.318zM72.427 73.589c-.042.313.096.939-.532.63-.406-.535-1.164-.128-1.57-.662a1.953 1.953 0 0 1-.584-.399c.133-.269.4-.584.667-.675.983-.185 1.213.932 2.02 1.106zM79.073 77.975a.755.755 0 0 0-.402-.087c-.184-.759-.72-.577-1.257-.618l-.269-.132-.448-.221c-.18-.089-.27-.133-.405-.31-.225-.223-.36-.401-.585-.623l.177-.36.18.09.179.087c.179.089.358.177.582.176.27.132.404.31.674.443.628.309 1.256.618 1.84 1.017l-.266.538z"/><path d="M75.884 75.625l-.177.359c-.088.179-.177.359-.355.494l-.088.18c-.582-.176-.853-.532-.991-1.157.132-.27.31-.405.443-.674.359.177.674.443 1.032.62.09.044.09.044.136.178zM81.356 78.319c-.042.313-.04.537-.084.85-.448-.22-.807-.397-1.3-.528-.18-.312-.048-.582.128-.94.493.13.808.397 1.257.618zM36.78 65.625c.31-.404.623-.361.98-.408.493.13.985.038 1.25-.5s.217-1.12-.098-1.386c-.989-.71-.501-1.472-.15-2.414.493.131.9.666 1.479.394.18.088.27.132.404.31-.309.628.45.445.541.712-.266.315-.534.406-.891.453-.18-.088-.538-.265-.581.048-.087.403.406.535.675.667.358.177.717.353 1.075.306.091.268.18.312.403.087l.31-.628c.536.042 1.118.217 1.517-.367.81.621 1.926.39 2.602 1.281-.044.09-.088.18.002.224.044-.09-.046-.134-.002-.224.714-.317 1.121.44 1.702.392l1.077.53c.18.088.314.266.494.355.18.312.493.13.718.353-.307 1.075-1.78 1.576-1.548 2.917 0 0-.178.135-.222.225-.313-.043-1.032-.62-.94-.129.049.581-.265.539-.487.764-.267.314-.087.403.048.58-.04.761.628.31.853.532-.399.584-.802.497-1.206.186-.449-.22-.987-.486-1.391-.796l.176-.359c.264-.762-.406-.534-.72-.8-.09-.045-.136-.179-.225-.223.042-.313-.315-.266-.45-.444-.09-.044-.224.001-.224.001L43.413 68c.175-.582-.808-.397-.497-.802.399-.584.716.13 1.208.038 0 0 .134-.046.223-.002.583.175 1.029-.05 1.294-.59.176-.358-.049-.58-.318-.713-.494-.355-.944-.799-1.566-.214-.579.496-1.204.634-1.738 1.04-.446.226-.935.766-1.022 1.169-.13.493.54.488.855.755-.356.27-.625.138-.94-.129-.538-.264-1.033-.62-1.481-.84.353-.718.04-.76-.451-.668-.09-.044-.046-.134-.136-.178-.001-.224.4-.584-.226-.446-.806-.174-1.168-.798-1.839-.794zM34.764 72.436c-.222.225-.49.316-.537-.042-.182-.535-.54-.488-.942-.575-.853-.532-1.927-.615-2.692-1.325.222-.225.49-.316.667-.675.176-.36.354-.495.58-.049.273.58.76-.183 1.119-.007-.31.628-.216 1.343.544 1.16.893-.23 1.209.26 1.437.93a1.485 1.485 0 0 1-.176.583zM33.428 66.093c.36.4.23.893.544 1.16.135.178.272.58-.086.626-.268.091-.492-.13-.584-.398-.136-.402-.005-.895.126-1.388zM27.732 56.156c.314.266.717.353 1.165.35l-.045.09c-.222.225-.397.807-.532.63-.225-.223-.764-.488-.588-1.07zM32.085 65.878c.18.312.318.714-.128.94-.446.226-.717-.13-1.121-.44.49-.316 1.028-.051 1.249-.5zM22.379 65.67c.85.084.85.084 1.382-.77-.534.407-.938.32-1.382.77zM29.75 57.038l1.256.618c-1.027.275-1.297.142-1.256-.618zM26.608 55.268c.714-.317.585.623.944.8-.98.631-.718-.354-.944-.8z"/><path d="M37.489 64.637c.31-.404.533-.63.936-.542l.09.267c-.266.315-.49.317-1.026.275zM20.668 63.713a.31.31 0 0 0 .135.178c-.044.09-.178.135-.178.135l-.046-.134c-.09-.044.044-.09.088-.18zM22.026 66.388l-.134.045s-.046-.134.044-.09l.09.044zM30.655 58.82l-.09-.043.044-.09.046.134zM13.012 48.018c-.132.269-.265.538-.62.809-.361-.4-.005-.671.261-.986l.36.177z"/><path d="M12.653 47.841c-.18-.312-.136-.402.177-.359l-.177.36zM13.916 49.577c-.133.046-.313-.042-.447.003l.088-.18.36.177zM13.638 55.125l.09.044-.045.09-.045-.134zM14.84 47.023c-.221.448-.536.182-.715.093.132-.269.356-.27.535-.182l.18.089zM.942 48.763c.134-.045.222-.225.356-.27-.088.18-.131.492-.399.584-.045-.134-.001-.224.043-.314zM.049 48.992l-.091-.267c.223-.002.09.267.09.267zM15.694 47.778c-.357.047-.359-.177-.226-.446.045.134.09.267.226.446zM56.236 65.952c.045.134 0 .224-.043.314-.089.179-.268.09-.314-.043-.045-.134-.001-.224.043-.314.09.045.18.089.314.043zM30.952 56.18l-.36-.176c.133-.27.356-.494.13-.717.761.04.183.536.23.893zM32.205 56.352l-.18-.089c-.045-.134-.18-.312-.002-.447l.134-.046c.225.223.136.402.048.581z"/><path d="M12.653 47.841l.177-.359c.135.178.18.312.138.626a.755.755 0 0 0-.315-.267zM15.258 49.57c-.135-.179-.27-.357-.138-.626.135.178.226.446.138.625zM30.543 55.199l-.268.091c.134-.045.224-.001.268-.091zM76.821 89.796s-.09-.044-.134.045c.044-.09.044-.09.134-.045zM67.191 87.396l-.406-.534c.49-.316.85.084 1.165.35.001.224.047.358-.041.537-.225-.222-.494-.355-.718-.353zM73.003 87.136c.09.044.225.222.315.267.182.535.005.894-.576.942-.491.093-.757.407-.934.766-.628-.309-1.302-.752-1.93-1.061l.044-.09c0-.223.088-.403.086-.626.086-.627.979-.856.482-1.658-.135-.178.356-.27.535-.182.36.176.718.353 1.033.62-.31.404-.264.761.05 1.028.361.4.629.309.895-.006zM74.755 88.333c.223-.002.359.177.404.31-.223.002-.403-.087-.537-.041l.133-.27zM68.171 86.764c.178-.136.4-.36.58-.272.225.222-.087.403-.176.582-.178.135-.269-.132-.404-.31z"/><path d="M70.098 87.378c.001.223-.087.403-.086.626l-.359-.176c.178-.136.267-.315.445-.45zM74.755 88.333l-.133.269c-.045-.134-.001-.224-.047-.358l.18.089zM83.408 84.567l.358.177-.265.538c-.623.362-.887 1.124-1.196 1.752-.089.18-.133.269-.31.404-.763-.263-1.347-.662-1.664-1.376l.133-.269c.176-.359 1.159-.544.484-1.21.668-.452 1.25-.5 1.789-.011.223-.002.403.086.67-.005zM65.003 73.5l.897.442-.088.18c-.175.582-.574 1.166-.035 1.655.27.356.674.443 1.074.082.134-.045.224 0 .268-.09.18.088.403.086.582.175.224-.002.402-.137.627.085.406.534 1.122.664 1.66.93l.27.132c.001.223-.131.492.048.58.18.09.268-.09.446-.226.09.045.225.223.315.267-.089.18-.087.403.136.401.18.089.402-.136.49-.316.134-.045.268-.09.356-.27.09.044.136.178.315.266-.044.09-.088.18-.043.313-.178.136-.312.181-.49.317-.668.45-1.067 1.035-1.555 1.575-.447.002-.763-.488-1.122-.664l-.09-.045c-.091-.267-.225-.222-.403-.087l-.536.183c-.766-.935-1.663-1.376-2.826-1.503l-.09-.044c-.134.045-.224 0-.268.09-.18-.311-.003-.447.086-.626.087-.403.219-.672.306-1.075l.088-.18c-.18-.088-.493-.13-.625.138-.357.047-.58.272-.846.587l-.538-.265c.223-.002.267-.091.132-.27l-.448-.22-.449-.22c-.18-.313-.449-.222-.67.003-.984.185-1.703-.392-2.51-.79-.672-.219-.903-1.335-1.839-.793l-.538-.265c-.137-.401-.63-.533-.944-.799-.134.046-.313-.043-.447.003-.27-.133-.583-.175-.762-.264.044-.09-.002-.224.087-.403.223-.001.401-.136.58-.048.942.352 1.75.75 2.866.519.268-.091.493.13.584.399.363.847.538.265.715-.094.398-.808-.008-1.342-.592-1.74-.359-.177-.718-.354-1.12-.441.49-.316 1.027-.051 1.475-.054.223-.001.447-.003.625-.138.134-.045.224-.001.268-.091.18.088.225.222.404.31.135.179.449.221.672.22.09.044.314.043.403.087.315.266.586.622.544 1.16.002.223-.085.626.406.534.09.044.09.044.134-.046.359.177.584.399 1.03.172-.177.36-.043.314.09.268l.135-.045c.135.178.492.13.76.04zm3.064 3.738c-.269-.132-.492-.13-.715.094-.263.762.362.624.765.711.134-.046.222-.225.356-.27l.359.176c-.353.718-.173 1.03.722 1.024-.316-.49-.051-1.028-.634-1.203-.18-.312-.406-.534-.853-.532zm-2.878-2.531c-.09-.044-.045-.134-.135-.178-.044.09-.134.046-.178.135.046.134.046.134.135.178.044-.09.134-.045.178-.135zm1.314 2.765l.134-.046s.044-.09-.045-.134c0 0-.09-.044-.134.046 0 0 .09.044.045.134zM77.304 81.117c.491-.093.765.71 1.343.215.001.224-.043.313-.041.537-.355.494-.666.899-1.02 1.393l-.36-.177c.22-.672-.141-1.296.078-1.968zM76.09 79.962c.046.357.138.625.184.982-.178.135-.443.674-.49.316-.094-.715-.81-.844-.904-1.56.36.177.63.533 1.03.173l.18.088z"/><path d="M77.496 83.218c.355-.495.665-.899 1.02-1.393.045.134.225.222.27.356.046.134.002.224.047.357-.491.093-.62 1.033-1.337.68zM63.751 73.553c-.446.227-.76-.04-1.03-.172.223-.225.445-.45.577-.72l.18.089c.18.312.272.58.273.803zM86.321 85.667c-.088.18-.041.537-.31.405-.18-.089-.047-.358.041-.537l.27.132zM62.523 84.652c.668-.451.716.13.943.575-.09-.044-.134.046-.224.002-.27-.133-.494-.355-.72-.577zM61.486 83.361c.85-.14.586.623.812 1.069-.538-.265-.982.408-1.474.277l.088-.18c.312-.18.534-.405.532-.852-.046-.134-.002-.224.042-.314z"/><path d="M61.486 83.361l-.132.27c-.222.225-.446.226-.67.227-.045-.134-.225-.222-.27-.356.31-.404.624-.361 1.072-.14zM36.785 73.765c-.315-.267-.763-.487-1.078-.754-.047-.357.22-.672.083-1.074l-.046-.134c.67-.227 1.12.217 1.57.662.495.578.99 1.156 2.017.882.76-.184 1.121.44.813 1.291l-.132.27c-1.296.142-2.108-.927-3.227-1.143zM42.833 75.516c-.582-.175-1.068.812-1.699.055.086-.626-.495-.578-.72-.8 1.025-.498 2.414-.15 2.42.745zM52.345 80.421c-.27-.132-.54-.488-.942-.351-.27-.356-1.119-.217-.677-1.114.63.532 1.118-.007 1.696-.503-.041.537-.039.984.276 1.25-.312.182-.22.45-.13.717-.09-.044-.09-.044-.223.001zM48.048 72.622c.67-.228.936-.543.128-.94-.269-.133-.27-.356-.138-.626.628.31 1.258.843 2.062.793.046.134.136.178.27.356.046.134-.042.313.004.447-.49.316-.989-.71-1.43.188-.314-.043-.583-.175-.896-.218zM43.325 68.179l.538.265c-.043.313-.803.273-.398.807l-.088.18a.754.754 0 0 1-.266.314c-.18-.088-.27-.132-.448.003-.401.137-.714.094-1.073-.083.042-.313.175-.582.218-.896.626.086 1.207.038 1.517-.59zM53.205 74.826c.178-.135.356-.27.444-.45.447-.003.847-.363 1.296-.142.18.088.315.266.494.355-.132.269-.4.36-.713.317-.358.047-.446.226-.221.448-.134.046-.22.673-.536.183-.18-.312-.45-.445-.764-.711zM49.918 78.558c-.178.135-.176.36-.041.537-.09-.044-.09-.044-.134.046-.044.09-.134.045-.178.135-.09-.044-.046-.134-.135-.178-.002-.224-.137-.402-.36-.177-.268-.132-.27-.356-.137-.625l-.091-.268-.18-.088-.18-.088c.267-.315.444-.674.716-.094.09.267.405.534.72.8zM38.76 67.715c.091.268.226.446.318.714-.089.18-.223.225-.311.404-.088.18-.087.403-.31.404-.224.002-.315-.266-.317-.49.042-.536-.007-1.118.348-1.612.135.178.137.402.272.58zM46.284 76.658l-.359-.177c.088-.18.177-.359.355-.494.222-.225.04-.76.533-.63.313.043.316.49.273.804-.04.76-.492.092-.67.227l-.132.27zM43.202 70.013c.359.177.673.443 1.032.62-.713.317-.984-.039-1.256-.618 0 0 .134-.046.224-.002zM40.557 69.046c.09.044.27.132.315.266-.133.27-.265.538-.44 1.12-.228-.669-.052-1.028.125-1.386z"/><path d="M34.764 72.436l.221-.449c.224-.001.491-.093.715-.094l.046.134c-.223.225-.445.45-.577.72-.136-.179-.315-.267-.405-.311zM39.845 69.587l-.046-.134.044-.09c-.044.09.046.134.002.224zM52.666 74.56c.224 0 .314.044.36.178a.304.304 0 0 1-.36-.177zM68.123 86.183l.044-.09.045.134-.09-.044zM44.41 70.274l.18.088-.268.091.089-.179zM73.003 87.136c-.266.315-.534.406-.67.004.177-.135.401-.136.67-.004zM52.087 82.078c-.089.18-.131.493-.4.36-.18-.088-.181-.312-.183-.535.224-.002.403.087.583.175zM41.808 68.77l-.18-.089c-.315-.266-.985-.262-.854-.755.13-.493.575-.942 1.021-1.169.534-.406 1.294-.59 1.738-1.04.622-.585 1.028-.05 1.566.215.27.132.495.354.318.713-.265.538-.71.765-1.293.59-.09-.044-.09-.044-.224.001-.402.137-.809-.621-1.208-.037-.265.538.762.263.497.802-.174.806-.755.854-1.381.768zM50.288 66.034c.09.044.09.044.224-.002l.179.089c-.133.269-.487.763-.174.806.76.04.316.49.138.625-.489.54-.708 1.212-1.286 1.707-.356.27-.4.584-.263.986-.448-.22-.763-.487-.587-1.07.044-.09.178-.135.222-.225-.278-1.474 1.24-1.841 1.547-2.916zM40.645 61.621c.493.131.899.665 1.524.527.539.265 1.033.62 1.57.885-.442.674-1.025.498-1.517.367-.627-.085-.631-.756-.946-1.023-.225-.222-.94-.128-.63-.756z"/><path d="M49.287 70.557c-.535.182-.851-.308-1.21-.485-.359-.176-.672-.22-.893.23-.136-.178-.315-.267-.048-.582.222-.225.535-.182.487-.763-.003-.447.626.086.94.129-.176.582.14.848.588 1.07-.089.179.09.267.136.4zM40.25 62.876c.002.223.093.491.094.715-.269-.133-.716-.13-.675-.667.043-.313.313-.18.582-.048zM39.207 67.712l-.359-.176c-.045-.134-.09-.268-.092-.492.491-.092.894-.005.451.668zM38.62 66.866c-.045-.134-.18-.312-.226-.446.536-.182.225.223.227.446zM41.42 63.897c.09.044.313.043.403.087-.223.225-.312.181-.403-.087z"/><path d="M38.756 67.044c.045.134.091.268.092.492l-.088.179c-.135-.178-.137-.402-.272-.58a.215.215 0 0 0 .268-.09zM49.287 70.557c-.045-.134-.18-.312-.27-.356-.047-.358-.094-.715.262-.986.624-.361.887-1.123 1.286-1.707.178-.135.623-.585-.138-.625-.313-.043.042-.537.174-.806.225.222.493.13.717.13l.18.088c.045.133.134.178.09.267.494.355.007 1.118.545 1.383-.222.225-.444.45-.532.63-.045.09-.133.269-.267.314.27.133.268-.09.356-.27.27.132.628.31.853.531-.802.497-.575.943-.125 1.387-.177.36-.264.762-.396 1.031l-.539-.264c-.226-.446-.673-.444-.985-.263-.044.09-.178.136-.222.225l-.09-.044c-.27-.132-.584-.399-.899-.665z"/><path d="M52.463 70.671c-.54-.488-.632-.98.126-1.387l.132-.269c.181.312.449.22.762.264l.718.353c.046.134.001.224.047.358-.536.182-.846.586-1.29 1.036-.225-.222-.315-.266-.495-.355z"/><path d="M52.133 67.945l.36.177c.358.177.539.489.228.893l-.132.27c-.27-.133-.628-.31-.853-.532l-.18-.088c.133-.27.355-.495.577-.72zM50.601 66.076l-.18-.088.135-.045c.09.044.045.133.045.133zM79.252 85.085c-.044.09-.089.18-.222.225-.09-.044-.18-.088-.225-.222-.136-.178-.226-.222-.36-.4.666-.675.67-.005.807.397zM52.912 70.892c.4-.36.755-.854 1.29-1.036l.36.176c.09.268.224.222.402.087.134-.045.224-.001.268-.09.27.132.805-.05.897.44.144 1.52.539.266.895-.005.09.044.269.133.314.267.002.223.047.357.003.447-.088.18-.444.45-.085.627.269.132.4-.36.488-.54.36.176.762.263 1.121.44.584.399.99.933.592 1.74-.176.36-.352.942-.715.094-.09-.267-.45-.444-.584-.398-1.027.274-1.968-.078-2.865-.52-.18-.088-.358.047-.581.049l.176-.359c.089-.18.177-.359.087-.403-.179-.088-.222.225-.176.359-.267.315-.534.406-.893.229-.45-.444-1.256-.618-.994-1.604zM70.771 80.576c-.178.135-.267.09-.357.047-.136-.178-.181-.312-.316-.49.488-.54 1.021-1.17 1.555-1.575.18.088.36.176.538.265-.578.495-1.066 1.035-1.42 1.753zM65.812 74.122c.448.22.051 1.028.633 1.203.136.178.271.356.45.445l-.044.09c-.4.36-.759.183-1.074-.083-.54-.489-.14-1.073.035-1.655zM68.832 77.95l-.359-.178c-.18-.088-.357.047-.356.271-.403-.087-.939.095-.765-.71.27.132.493.13.715-.095.358-.046.673.22.853.532l-.088.18z"/><path d="M68.832 77.95l.088-.18c.627.085.407.758.634 1.203-.895.006-1.031-.396-.722-1.024zM70.098 80.133c.135.178.18.312.316.49-.178.135-.312.18-.49.316-.36-.4-.899-.665-.903-1.336.27.132.63.532 1.077.53zM64.535 77.394c-.401.137-.804.05-.897-.441.266-.315.489-.54.846-.587.047.358.184.76.051 1.028zM70.888 77.847c.18.088.404.087.583.175-.178.136-.266.315-.49.316-.135-.178-.047-.357-.093-.491zM70.214 77.18c.179.089.314.267.494.355-.089.18-.177.359-.446.227-.18-.089-.047-.358-.048-.582zM65.19 74.707c-.045.09-.135.046-.179.135-.09-.044-.045-.134-.135-.178 0 0 .044-.09.178-.135.09.044.09.044.135.178zM66.503 77.472l-.045-.134.134-.046.045.134s-.09-.044-.134.046zM67.352 77.332c.27.133.493.131.715-.094-.18-.088-.492-.13-.715.094zM72.147 78.913l-.538-.265c.178-.136.312-.181.49-.316.09.044.18.088.225.222l-.177.359zM59.486 70.896l.449.221c-.178.135-.446.226-.626.138l.177-.359zM68.931 79.559c-.09-.045-.313-.043-.403-.087.089-.18.222-.225.403.087zM55.88 73.468c-.045.09-.089.18-.267.314l-.09-.044c-.045-.134-.135-.178-.09-.267.133-.046.357-.047.447-.003zM68.117 78.043c.088-.18.177-.359.356-.27-.134.045-.178.135-.356.27zM64.942 78.152a.215.215 0 0 1-.267.091c.044-.09.133-.045.267-.09zM65.067 76.541l.088-.179-.088.18zM69.944 77.048c.178-.135.268-.091.27.132l-.27-.132zM78.444 84.688c-.09-.045-.09-.045-.223 0-.047-.357-.227-.445-.495-.354-.133.046-.313-.043-.447.003l-.359-.177c-.045-.134-.09-.267-.27-.356-.134.046-.268.091-.312.181l-.09-.044-.807-.398c-.36-.176-.717-.13-.943-.575.088-.18.31-.405.399-.584.849-.14 1.434.483 2.106.702l.36.177c.717.353.845-.587 1.337-.679.135.178.404.31.583.399.403.087.986.262.23.893-.357.27-.176.582.139.849l-.177.359c-.134.045-.313-.043-.447.002.087-.403.083-1.073-.584-.398zM79.699 85.082l.177-.359.269.133c-.089.18-.222.225-.446.226zM57.07 70.598c-.267.315-.662 1.57-.895.006-.093-.492-.628-.31-.897-.442.309-.628.803-.273 1.205-.41l.269.133c.09.044.18.088.313.042l.004.671zM54.92 70.209c-.178.135-.401.137-.403-.087.224-.001.313.043.403.087z"/><path d="M77.137 83.04c-.672-.219-1.257-.841-2.106-.702-.315-.266-.446.227-.67.228-.18-.088-.314-.266-.45-.444-.276-1.25-.625.138-.938.095-.09-.044-.225-.222-.315-.266.043-.314-.136-.402-.359-.177-.18-.088-.225-.222-.27-.356.487-.764 1.514-1.038 1.776-2.024.313.043.76.04.897.442.094.715.81.845.904 1.56.091.267.312-.181.49-.317.224 0 .402-.136.627.086 0 0-.044.09.046.134 0 0 .09.044.133-.046 0 0 .134-.045.18.089.003.447.364 1.07.055 1.699z"/><path d="M74.073 79.303c-.262.986-1.29 1.26-1.776 2.024a.55.55 0 0 0-.582.048c-.223.001-.491.093-.715.094-.314-.266-.004-.671-.229-.893.264-.762.842-1.258 1.42-1.753.404.087.671-.004 1.073-.14.225.221.45.443.809.62z"/><path d="M73.264 78.682c-.312.18-.714.317-1.072.14l.176-.358c.358-.047.67-.228.896.218zM77.08 81.118l-.133.046-.046-.134.18.088zM57.744 71.265c-.132.269-.22.672-.488.54-.27-.133.087-.404.085-.627.18.088.313.043.403.087zM52.382 71.969c-.09-.044-.27-.133-.315-.267.177-.358.264-.761.396-1.03l.539.264c-.263.986.588 1.07.904 1.56l-.089.18c-.445.226-.448-.221-.673-.444-.09-.044-.313-.042-.403-.087l-.36-.176zM44.27 69.201c.091.268.092.492.094.716l-.987-.486.088-.18c.224-.001.448-.003.805-.05zM50.858 71.442c-.09-.045-.27-.133-.315-.267.446-.226.76-.183.986.262l-.67.005zM51.556 68.665l.18.088c-.134.045-.177.359-.356.27-.002-.223.043-.313.176-.358zM77.28 84.337c.133-.046.313.043.447-.003-.089.18-.223.225-.311.405l-.137-.402zM76.473 84.163l.044-.09c.044-.09.178-.135.223-.225.045.134.09.268.27.356a.764.764 0 0 0-.537-.041zM54.844 72.4l-.18-.088c.045-.09-.002-.447.178-.358.223-.002.09.267.002.447zM74.632 82.922c-.046-.134-.135-.178-.18-.312.267-.09.264-.538.669-.228-.178.136-.357.271-.49.54zM75.532 83.811c.044-.09-.001-.224.043-.313l.807.397c-.312.181-.625.138-.85-.084zM76.784 83.759c-.044.09-.178.135-.223.225l-.179-.089.402-.136zM73.377 82.528c-.045-.134-.18-.313-.27-.357.269.133.662-1.345.938-.095-.178.135-.312.18-.4.36l-.268.091zM72.792 81.905l-.359-.177c.222-.225.402-.136.359.177zM74.8 81.222l-.045-.134.09.044-.045.09z"/></g></g><defs><linearGradient id="paint0_linear" x1="30" y1="0" x2="87.049" y2="47.541" gradientUnits="userSpaceOnUse"><stop stop-color="#F4A261"/><stop offset="1" stop-color="#E9C46A"/></linearGradient><linearGradient id="paint1_linear" x1="30" y1="0" x2="87.049" y2="47.541" gradientUnits="userSpaceOnUse"><stop stop-color="#F4A261"/><stop offset="1" stop-color="#E9C46A"/></linearGradient></defs></svg>