<svg width="138" height="180" fill="none" xmlns="http://www.w3.org/2000/svg"><g opacity=".25" fill="#fff"><path d="M138.625 196.429c.363-.478.465-.777.166-.879-.22-.042-.239-.182.022-.36.201-.099.383-.337.284-.538-.019-.14.205-.599.447-.917.322-.258.484-.636.405-.697-.159-.121.291-1.538.613-1.796.06-.079.22.042.379.163s.197.402-.004.5c-.121.159-.182.239-.042.22.141-.019.364-.478.489-1.137.124-.659.529-1.356.912-1.693.503-.497.564-.576.227-.959-.319-.242-.357-.522-.175-.761s.402-.197.5.004c.099.2.318.242.44.083.121-.159.102-.299-.198-.402-.219-.041-.397-.302-.356-.522.042-.22.182-.239.22.041.038.281.178.262.462-.276.163-.379.325-.758.306-.898-.019-.14.144-.519.527-.856.382-.338.545-.716.465-.777-.079-.061.026-.86.272-1.678.246-.818.333-1.758.234-1.958-.098-.201-.114-.841-.031-1.281.084-.439.167-.879-.053-.92-.14.019-.178-.261.004-.5.302-.398.223-.459-.16-.121-.503.496-.742.314-.814-.746-.095-.701-.175-.761-.595-.704-.341.117-.421.057-.159-.122.121-.159.242-.318.102-.299-.14.019-.258-.322-.235-.682.022-.359.071-1.579.139-2.659.09-1.439-.065-2.06-.444-2.223-.239-.182-.417-.443-.357-.522.322-.258-.648-1.625-1.049-1.428-.201.099-.22-.042-.197-.401.102-.3.003-.5-.217-.542-.219-.042-.318-.242-.197-.401.042-.22-.057-.421-.076-.561-.159-.121-.219-.042-.28.038.019.14-.242.318-.602.296-.421.057-.481.136-.121.159.219.041.417.443.333.882-.086.94-.567 1.076-.541.216.022-.359-.095-.7-.175-.761-.477-.363-.595-.704-.231-1.182.303-.397.443-.416.761-.174.815.746-1.698-3.052-3.108-4.503-.337-.382-.553-.924-.591-1.204.023-.36-.315-.742-.553-.924-.618-.344-1.289-1.609-1.737-3.332-.174-.762-.432-1.083-.712-1.045-.201.098-.599-.205-.856-.527-1.05-1.427-2.479-3.017-2.74-2.839-.061.079-.618-.345-1.133-.989-.595-.704-1.012-1.147-1.133-.988-.182.239-.5-.003-1.394-.81-.318-.242-.538-.284-.64.016-.102.299-.243.318-.341.117.261-.178.303-.398.424-.557.261-.178-.614-.844-1.372-1.17-.458-.223-.757-.325-1.254-.829-.239-.181-.379-.162-.5-.003-.041.22-.261.178-.36-.023-.159-.121-.117-.341.023-.36.14-.019.102-.299-.137-.481-.238-.181-.538-.283-.598-.204-.121.159-.36-.022-.557-.424-.197-.401-.436-.583-.618-.344-.121.159-.341.117-.36-.023-.019-.14-.238-.182-.439-.083-.201.098-.28.038.042-.22.503-.496-.152-1.121-.736-.685-.462.277-.681.235-.818-.246-.394-.803-.951-1.227-1.572-1.071-.542.216-.542.216-.478-.364.065-.579.065-.579-.575-.564-.5-.003-.879-.166-1.076-.568-.455-.723-1.073-1.067-1.217-.548-.06.079-.401.197-.621.155-.659-.125-.757-.325-.375-.662.121-.16.144-.519.026-.86-.295-.602-.974-.867-1.235-.689-.06.079-.617-.345-1.114-.848-.576-.564-1.133-.988-1.273-.969-.14.019-.837-.386-1.493-1.011-.655-.625-1.371-1.17-1.591-1.212-.739-.185-1.993-1.014-3.444-2.244-1.929-1.594-2.008-1.655-3.148-1.643-.56.076-.94-.087-.8-.106.182-.238-1.466-1.87-1.826-1.893-.14.019-.318-.242-.436-.583-.117-.341-.515-.644-.735-.685-.3-.102-.996-.507-1.572-1.072-.576-.564-1.133-.988-1.353-1.029-.22-.042-.777-.466-1.273-.969-1.63-1.492-2.944-2.242-3.266-1.984-.121.159-.2.099-.098-.201.083-.439-.076-.56-1.25-1.329-.778-.465-2.369-1.677-3.6-2.866-1.171-1.268-2.365-2.177-2.505-2.158-.22-.041-.618-.344-.955-.726-.337-.383-.735-.686-1.015-.648-.341.118-.42.057-.16-.121.122-.159.084-.439-.094-.701-.338-.382-.398-.302-.542.217-.064.579-.064.579-.34.117-.334-.882-2.278-3.116-2.282-2.616.117.34-.023.359-.401.197-.599-.205-.679-.265-.236-.682.182-.239.046-.72-.55-1.424-.435-.583-.75-1.325-.788-1.606.125-.659-.61-1.344-1.845-2.033-1.216-.549-2.868-1.681-4.998-3.176-.875-.666-1.792-1.113-1.932-1.094-.2.099-.36-.022-.337-.382.022-.36-.076-.56-.156-.621l-.159-.121c-.295-.603-.712-1.046-.993-1.008-.12.16-.36-.022-.538-.284a1.704 1.704 0 0 0-.795-.605 1.448 1.448 0 0 1-.815-.746c-.137-.481-.356-.523-.538-.284-.182.239-.48.137-.8-.106l-.874-.666c-.16-.121-.277-.462-.217-.541.042-.22-.197-.402-.515-.644-.458-.224-.557-.424-.277-.462.201-.099.182-.239-.197-.402-.458-.223-.458-.223-.34.118.098.2.136.48.075.56-.06.08.057.42.296.603.318.242.436.583.254.821-.121.16-.242.319-.2.099a.304.304 0 0 0-.319-.242c-.34.117-1.273-.97-1.686-1.912-.118-.341-.239-.182-.242.318-.087.94-.288 1.038-.985.633-.379-.163-.739-.186-.72-.045-.041.22-.181.238-.34.117-.16-.121-.36-.022-.622.156-.303.398-.583.436-.84.114-.338-.383-.357-.523.064-.58.28-.038.541-.216.522-.356-.019-.14-.318-.242-.598-.204-.341.117-.701.095-.86-.027-.08-.06-.52-.143-.94-.086-.7.095-.76.174-.764.674-.004.5.075.56.477.364.34-.118.42-.057.258.322-.102.299.053.92.648 1.624.515.644.91 1.447.868 1.667.118.34.114.84.171 1.26.057.421-.045.72-.166.88-.201.098-.102.299.337.382.739.185 1.212 1.049.986 2.007-.125.659-.125.659.356.523.28-.038.64-.016.72.045.159.121.098.201-.042.22-.14.019-.242.318-.204.598.057.421-.144.519-1.322.251-1.099-.208-1.258-.329-.856-.527.401-.197.382-.337-.175-.761-.398-.303-.576-.564-.394-.803.242-.318.128-1.159-.19-1.401-.08-.061-.099-.201.023-.36.12-.159.181-.239.041-.22-.14.019-.398-.302-.515-.643-.315-.743-1.588-1.712-1.732-1.193-.041.22-.022.36.197.402.52.143.773.965.546 1.924-.245.818-.245.818-.4.197-.058-.421-.354-1.023-.592-1.205-.258-.321-.853-1.026-1.289-1.609-.614-.844-.932-1.086-1.114-.848-.12.16-.34.118-.458-.223-.099-.2-.497-.504-.716-.545-.44-.083-.5-.004-.224.458.179.261.175.761-.067 1.08-.303.397-.125.659.63 1.484.495.504.95 1.227.988 1.507.076.561-.083.44-1.076-.567-.655-.625-1.091-1.208-.97-1.367a.215.215 0 0 0-.038-.28c-.08-.061-.394-.803-.63-1.485-.151-1.121-.447-1.724-.587-1.705-.14.02-.2.1-.042.22.08.06-.12.16-.462.277-.7.095-1.019-.147-.636-.485.2-.098.223-.458.064-.58-.258-.321-.398-.302-1.023.353-.443.417-.905.694-.984.633-.08-.06-.36-.022-.481.137-.182.239-.223.458.076.56.239.182.58.065.822-.254.242-.318.443-.416.541-.216.057.42 1.633.992 1.735.693.042-.22.182-.239.402-.197.22.041-.023.36-.466.776-.443.417-.844.614-.943.414-.098-.201-.258-.322-.458-.224-.2.099-.44-.083-.538-.284-.197-.401-.197-.401-.121.16.038.28.394.802.852 1.026.777.465.97 1.367.406 1.943-.242.318-.322.257-.22-.042.205-.598-.629-1.485-1.03-1.287-.2.098-.163.378.076.56.337.383.368 1.663.03 1.28-.079-.06-.14.019-.101.3.056.42-.084.439-.762.174-.898-.306-1.352-1.029-.731-1.185.2-.099.36.023.379.163.019.14.178.261.299.102.121-.159.083-.44-.156-.621-.238-.182-.216-.542-.053-.92.242-.319.204-.6.185-.74-.159-.12-.28.039-.462.277-.102.3-.382.338-.48.137-.16-.121-.46-.223-.66-.125-.2.099-.159-.121.064-.58.326-.757.367-.977.129-1.159-.22-.041-.24-.181-.038-.28.2-.098.26-.178.181-.238-.08-.061-.257-.322-.435-.584-.1-.2-.398-.303-.459-.223-.121.16-.102.3.137.481.238.182.197.401.076.56-.121.16-.28.039-.3-.102-.019-.14-.178-.26-.299-.102a.764.764 0 0 0-.144.52c-.041.219-.083.439-.223.458-.2.098-.261.178-.102.299.08.06.3.102.5.004.261-.179.36.022.277.462-.023.36.053.92.231 1.181.413.943-.325.758-1.178-.268-.694-.905-.773-.966-.837-.386-.023.36.095.7.314.742.22.042.24.182.099.201-.14.019-.242.318-.144.519.038.28.178.261.22.041.042-.219.14-.019.277.462.057.421.333.883.553.924.22.042.3.102.02.14-.202.099-.224.459-.107.8.235.681.235.681.66.124.302-.397.564-.576.643-.515.16.121.038.28-.102.299-.14.019-.182.239-.144.519.099.201-.003.5-.265.678-.26.179-.382.338-.143.519.159.122.197.402.076.561-.122.159-.102.299.057.42.159.122.436.584.572 1.065.137.481.591 1.204.788 1.605.97 1.367 1.085 2.208.26 2.962-.947.913-1.568 1.069-2.205.584-.398-.302-.458-.223-.602.296-.163.379-.064.58.296.602.28-.038.257.322.133.981-.307.898-.307.898-.663.375-.277-.462-.356-.522-.341.118.034.78-.147 1.019-.564.576-.318-.242-.318-.242-.2.099.098.2.136.48.094.7-.041.22.076.561.413.943.614.845.573 1.064-.25 1.318-.821.255-.821.255-.245.819.496.503.436.583-.25 1.318-.443.417-.806.894-.726.955.08.06-.443.417-1.106.792-1.265.671-1.75 1.307-.83 1.254.281-.038.58.064.74.185.257.322-.367.978-1.068 1.073-.28.038-.542.216-.723.454-.224.459-.144.519.776.466.92-.053 1.841-.107 2.902-.179 1.34-.111 4.86.055 5.098.236.16.122.678.265 1.178.269 1.08.068 2.213 1.056 3.638 3.146.455.723 1.27 1.469 1.747 1.833.697.405.776.465.58.064-.258-.322-.039-.281.598.204.557.424.973.867.992 1.007.02.14.277.462.637.485.44.083.618.344.595.704.057.421.216.542.796.606.72.045.738.185.576.564-.163.379-.084.439.617.344.42-.057.92-.053.86.027.356.522.758.325.882-.334.125-.659.046-.72-.435-.583-.481.136-.42.057.022-.36.383-.337.583-.436 1.08.068.417.443.455.723.091 1.2-.405.697-.405.697.315.743.42-.057.739.185.758.325.019.14.337.382.697.405.5.004.58.064-.023.36-.462.277-.443.417-.125.659.557.424 1.057.428.981-.133-.117-.341.084-.439.602-.296.959.227 2.152 1.136 1.652 1.132-.28.038-.659-.124-.898-.306-.636-.485-1.056-.428-1.102.292-.022.36-.204.598-.405.697-.14.019-.181.239-.022.36s.519.144.78-.035c.261-.178.621-.155.94.087.238.182.655.625.894.807.337.382.477.363.761-.175.223-.458.363-.477.481-.136.099.2.398.302.599.204.26-.178.5.003.598.204.099.201-.004.5-.265.678-.2.099-.242.319-.163.379.16.121.497.504.834.886.576.564.516.644.035.78-.762.175-.364.478.416.443.5.004.58.065.398.303-.182.239-.022.36.538.284.78-.034 1.178.269.856.526-.12.159-.102.3-.083.44.16.121.28-.038.523-.357.405-.697.803-.394.496.504-.083.439-.045.72.156.621.2-.098.261-.178.163-.379-.16-.121.041-.219.34-.117.898.306 1.156.628.614.844-.34.118-.382.337-.064.58.258.322.538.284.92-.054.322-.257.383-.337.341-.117-.102.299-.022.36.459.223.621-.155.621-.155.258.322-.383.337-.303.398.397.303.841-.114.841-.114.497.503-.345.618.03 1.281.474.864.12-.159.102-.3-.076-.561a.43.43 0 0 1-.076-.56c.382-.338.757.325.474.863-.224.458-.224.458.318.242.34-.117.48-.136.36.023-.122.159-.103.299-.023.36.14-.019.178.261.076.56-.163.379-.083.44.296.602.299.103.598.205.678.265.08.061.477.364 1.015.648 1.175.768 1.254.829 1.811 1.253.239.181.758.325 1.118.348.7-.095.917.446.413.943-.443.417-.284.538.595.704.739.185 1.595.711 2.508 1.658.258.322.936.587 1.375.67.58.064.739.185.398.303-.34.117-.322.257.216.541.857.527 1.016.648 4.918 3.116 1.792 1.113 3.823 2.407 4.58 2.733.698.405 1.474.87 1.793 1.113.655.624 2.47 1.377 2.492 1.017-.019-.14.122-.159.201-.098.16.121.118.341.137.481-.186.739.212 1.041.61 1.344 1.076.568 3.167 1.783 3.645 2.146.239.182.678.265.898.307.28-.038.818.246 1.216.549 1.432 1.09 2.527 1.798 2.947 1.741.281-.038.281-.038.159.121-.181.239-.022.36.436.583.379.163 1.694.912 2.789 1.62 3.921 2.608 4.16 2.79 5.573 3.74.777.466 1.553.931 1.853 1.034.219.041.458.223.477.363.019.14.318.242.538.284.58.064 2.247 1.836 1.925 2.094-.121.159-.58-.064-.977-.367-.478-.364-.876-.667-1.095-.708-.519-.144 2.186 1.916 3.917 3.108 1.095.708 1.853 1.033 2.334.897.621-.156.701-.095.576.564.015.64.652 1.125 1.334.89.14-.019.079.06-.121.159-.262.178-.163.379.473.863 2.368 1.677 3.005 2.162 4.991 4.176 1.152 1.128 2.163 2.276 2.182 2.416.099.2.239.181.421-.057.322-.258.401-.197.738.185.258.322.576.564.857.526.28-.038.738.186 1.015.648.197.401.436.583.337.382-.098-.201.004-.5.064-.58.322-.257.758.326.872 1.167.095.7.175.761.697.405.402-.197.621-.156.799.105.236.682.789 1.606.85 1.527l.848-1.114zM54.162 96.06c-.378-.163-.378-.163.103-.3.7-.094.78-.034.538.285-.201.098-.481.136-.64.015zm-1.918 5.326c-.337-.382-.356-.522.205-.598.28-.038.62-.156.7-.095.06-.08.099.201.137.481-.045.72-.526.856-1.042.212zm1.479 3.011c-.22-.041-.178-.261.022-.36.182-.238.402-.197.42-.057.02.14-.022.36-.022.36-.06.08-.34.118-.42.057zm5.86-5.718c-.158-.121-.196-.401-.136-.481.322-.258.762-.174.739.185.057.42-.344.618-.602.296zm-14.086 28.74c-.318-.243-.515-.644-.474-.864.042-.219.42-.057.758.326.834.886.531 1.284-.284.538zm2.58 2.718c-.158-.121-.219-.041-.18.239.037.28-.005.5-.023.36a2.262 2.262 0 0 0-.618-.345c-.3-.102-.318-.242-.038-.28.28-.038.261-.178-.038-.28-.3-.102-.258-.322.204-.599.705-.595 1.959.234 1.395.81-.262.178-.542.216-.701.095zm13.38-16.584c-.3-.102-.33-1.383-.008-1.64.121-.159.34-.118.42-.057.08.06-.022.36-.204.598-.322.258-.242.319.099.201.28-.038.5.004.538.284-.004.5-.466.777-.845.614zm4.169 4.43c.442-.417.802-.394.799.106-.023.359-.485.636-.864.473-.22-.041-.117-.34.064-.579zm-.637-.485c.182-.238.462-.276.481-.136.16.121.118.341-.023.36-.12.159-.34.117-.48.136-.14.019-.16-.121.022-.36zm-2.217-3.196c-.121.159-.22-.041-.118-.341.246-.818 1.326-.75 1.94.094.932 1.087.565 2.064-.409 1.197-.318-.242-.735-.685-.834-.886a.551.551 0 0 0-.58-.064zm-12.42 19.452c-.16-.121-.178-.262-.038-.281.06-.079.2-.098.42-.057.22.042.24.182.038.281-.14.019-.34.117-.42.057zm5.829-1.219c-.08-.06-.118-.34.003-.5.122-.159-.276-.462-.935-.586-.819-.246-1.357-.53-1.97-1.374-.436-.584-.732-1.186-.672-1.265.061-.08.28-.038.36.022.16.121.22.042.341-.117.083-.44.742-.315.8.106.037.28-.023.359-.383.337-.36-.023-.36-.023-.182.238.16.122.436.584.694.905l.436.584.026-.86c-.073-1.061.488-1.137.92-.054.296.603.395.803.735.686.201-.099.201-.099-.019-.14-.22-.042-.299-.103-.178-.262.121-.159.44.083.758.326.576.564.515.643-.314 1.897-.2.099-.34.118-.42.057zm3.146-3.637c-.182.239-.382.337-.401.197-.02-.14.242-.318.443-.417.26-.178.2-.098-.042.22zm2.305-3.524c-.378-.162-.337-.382-.155-.621.121-.159.322-.257.401-.197.08.061.239.182.538.284.3.102.258.322.137.481-.322.258-.602.296-.92.053zm-4.091 7.191c-.243.319-.523.357-.602.296-.24-.182.707-1.095 1.328-1.251.201-.098.5.004.459.224.057.42-.325.757-.564.576-.099-.201-.36-.023-.621.155zm.792 1.106c-.182.239-.481.137-.72-.045-.417-.443-.296-.602.386-.837.621-.156.837.386.334.882zm18.973-18.484c.159.121.038.28-.023.359-.12.16-.34.118-.42.057-.16-.121-.038-.28.022-.359.122-.16.262-.179.42-.057zm-13.274 15.785c-.14.019-.299-.102-.337-.383-.099-.2.042-.219.28-.038.038.281.197.402.057.421zm8.812-7.117c.102-.299-.057-.421-.478-.364-.7.095-1.098-.208-.557-.424.341-.117.341-.117-.159-.121-.28.038-.818-.246-1.076-.568-.496-.503-.576-.564.185-.738.621-.156 1 .007 1.815.753.974.867.993 1.007.55 1.424-.303.398-.383.337-.28.038zm-11.19 15.36c-.342.117-.3-.102.124-.659s.625-.656.863-.474c.258.322-.306.898-.988 1.133zm1.719.052c-.08-.06-.038-.28-.057-.42.041-.22.181-.239.34-.118.16.121.118.341.058.421-.201.098-.341.117-.341.117zm13.786-12.001c.083-.44.462-.277 1.796.613 1.432 1.09 2.004 2.154.868 1.666-.3-.102-.239-.182-.038-.28.42-.057-1.25-1.329-2.148-1.636-.36-.022-.52-.143-.478-.363zm-11.151 18.28c-.178-.261-.137-.481.064-.579.2-.099.3.102.337.382-.045.72-.106.799-.401.197zm3.703-3.213c-.239-.182-.557-.424-.697-.405-.14.019-.52-.144-.618-.345-.238-.181-.458-.223-.44-.083-.04.22-.2.099-.378-.163-.553-.924.15-1.518.844-.613.16.121.459.223.74.185.42-.057.658.125.855.526.198.401.417.443.618.344.121-.159.34-.117.3.103.075.56-.807.894-1.224.451zm11.146-12.001c-.181.239-.401.198-.42.057-.02-.14.083-.439.144-.519.12-.159.34-.117.42-.057.08.061.038.281-.144.519zm8.075 6.399c-.701.095-.819-.246-.376-.663.504-.497 1.084-.432 1.14-.012.057.42-.204.599-.764.675zm-8.06 13.722c-.18.239-.461.277-.48.137-.16-.121-.118-.341.023-.36.12-.159.401-.197.48-.137.22.042.24.182-.022.36zm11.807 7.605c-.08-.061-.038-.28-.057-.42.041-.22.181-.239.34-.118.16.121.118.341.057.42-.2.099-.26.179-.34.118zm13.488-9.463c-.22-.042-.239-.182-.038-.281.121-.159.341-.117.42-.057.159.121.178.262.038.281-.06.079-.28.038-.42.057zm36.69 23.783c-.079-.06-.038-.28.023-.359.041-.22.182-.239.341-.118.159.121.117.341-.023.36-.121.159-.261.178-.341.117z"/><path d="M144.927 176.593c.08.061.299.102.42-.057.122-.159.103-.299-.038-.28-.219-.041-.359-.023-.42.057s-.042.22.038.28zM144.301 174.609c.159.121.201-.099.083-.44-.197-.401-.276-.462-.378-.162-.042.219.136.481.295.602zM59.756 141.541c-.181.239-.162.379-.022.36.22.042.36.023.42-.057.06-.079.042-.219.023-.36-.099-.2-.3-.102-.42.057zM59.218 141.257c-.159-.121-.299-.102-.42.057-.121.16-.102.3-.023.36.16.121.3.102.42-.057.061-.079.103-.299.023-.36zM59.487 140.079c-.28.038-.52-.143-.478-.363-.019-.14-.14.019-.223.458-.306.898.072 1.061.758.326.322-.258.303-.398-.057-.421zM53.963 137.76c-.12.159-.162.379-.083.439.16.121.239.182.3.102.06-.079.041-.219.083-.439-.038-.28-.178-.261-.3-.102zM59.382 96.138c.22.041.121-.16-.277-.463-.257-.321-.477-.363-.378-.162.178.261.435.583.655.624zM55.423 93.249c.159.121.378.163.5.004.12-.16.102-.3-.076-.56-.16-.122-.38-.164-.5-.004a.43.43 0 0 0 .076.56zM37.6 110.222c.603-.296.603-.296.386-.838-.197-.401-.337-.382-.62.156-.546.716-.368.977.234.682zM53.642 93.276c.24.182.538.284.599.205.121-.16.102-.3-.076-.561-.16-.121-.458-.223-.599-.204-.12.159-.102.299.076.56zM37.194 108.279c-.416-.443-.617-.345-.401.197.099.2.337.382.477.363.201-.098.102-.299-.076-.56zM34.165 109.617c-.383.337-.485.636-.367.977.136.481.276.462 1.102-.292.503-.496.867-.974.867-.974.022-.359-1.02-.147-1.602.289zM50.85 92.156c-.2.099-.181.239-.022.36s.458.223.598.204c.201-.098.182-.238.023-.36-.239-.181-.398-.302-.599-.204zM35.994 108.37c.12-.159.102-.299-.137-.481-.159-.121-.318-.242-.379-.163-.06.08-.041.22.137.481.178.262.178.262.379.163zM34.395 108.159c-.159-.122-.318-.243-.379-.163-.06.079.038.28.137.481.099.201.258.322.379.163.06-.08.102-.3-.137-.481zM47.904 93.055c.315.742.315.742.56-.076.47-1.277.913-1.693.886-.834-.045.72.152 1.122.535.784.121-.159.064-.58.007-1-.156-.62-.315-.742-.796-.605-.34.117-.78.034-1.019-.148-.337-.382-.398-.303-.382.337-.083.44.012 1.14.209 1.542zM33.475 108.212c-.36-.023-.364.477.015.64.3.102.3.102.322-.258-.019-.14-.197-.401-.337-.382zM34.682 104.481c-.08-.061-.338-.383-.455-.724-.197-.401-.436-.583-.856-.526-.5-.004-.561.076-.485.637.174.761-.39 1.337-1.25 1.311-.58-.064-.56.076.096.7.674.765 1.534.791 1.22.049-.1-.201.044-.72.366-.977.443-.417.583-.436.86.026.375.663.455.723.64-.015-.019-.141-.057-.421-.136-.481zM46.846 89.987c.076.561.394.803.458.224.06-.08-.117-.341-.356-.523-.178-.261-.239-.182-.102.3zM38.027 98.104c.14-.019.201-.098.243-.318-.02-.14-.118-.34-.137-.48-.159-.122-.22-.043-.242.317-.102.3-.004.5.136.481zM38.045 95.604c.16.122.3.103.42-.057.122-.159.103-.299.023-.36-.159-.12-.299-.102-.42.058-.14.019-.182.238-.023.36zM37.73 92.222c-.216-.541-.395-.803-.675-.765-.28.038-.322.258-.045.72.553.924 1.133.988.72.045zM35.629 95.147c.14-.019.12-.16-.118-.34-.239-.183-.318-.243-.28.037.098.2.257.322.398.303zM33.928 95.235c.019.14.197.401.515.644l.478.363-.235-.682c-.376-.662-.755-.825-.758-.325zM39.19 95.093c-.16-.121-.3-.103-.36-.023-.061.08-.042.22.117.34.159.122.299.103.36.023.06-.08.041-.22-.118-.34z"/></g><g opacity=".25" fill="#fff"><path d="M8.928 66.1c.591.104.904.057.857-.255-.064-.215.052-.296.33-.146.18.133.475.185.608.005.116-.081.626-.094 1.02-.025.376.168.788.138.805.04.034-.198 1.5-.45 1.876-.282.099.017.064.214.03.411-.035.197-.266.36-.446.227-.197-.034-.295-.052-.214.064.081.116.591.103 1.234-.089s1.448-.153 1.923.032c.672.219.77.236.956-.24.068-.393.3-.556.595-.504.296.051.36.266.227.445-.133.18-.069.394.128.429.197.034.313-.047.266-.36a.48.48 0 0 1 .3-.556c.215-.065.296.051.064.214-.231.162-.15.278.459.283.41-.03.822-.06.938-.14.115-.082.527-.112 1.002.073.475.184.887.155.904.056.017-.098.775-.372 1.615-.53.84-.157 1.714-.512 1.847-.692.133-.18.694-.488 1.123-.616.428-.128.857-.256.793-.47-.082-.116.15-.279.445-.227.493.086.51-.013.035-.197-.673-.22-.621-.515.287-1.066.579-.407.596-.505.352-.853-.26-.248-.243-.347.035-.197.197.035.394.07.313-.046-.082-.116.167-.377.497-.523.33-.145 1.435-.662 2.425-1.099 1.32-.581 1.8-1.005 1.77-1.416.052-.296.202-.574.3-.557.378.168 1.146-1.322.786-1.588-.18-.133-.064-.214.266-.36.313-.047.445-.226.381-.44-.064-.215.07-.395.266-.36.215-.064.347-.244.463-.325.035-.197-.064-.215-.162-.232-.116.081-.394-.069-.54-.399-.244-.347-.342-.364-.197-.034.064.214-.202.574-.63.702-.874.355-1.217-.01-.441-.382.33-.145.579-.406.596-.505.103-.59.352-.852.943-.748.492.086.574.201.505.595-.288 1.067 1.93-2.91 2.57-4.83.184-.475.566-.916.797-1.078.33-.146.515-.62.566-.916.022-.707.837-1.885 2.162-3.074.596-.505.763-.882.6-1.114-.18-.132-.093-.625.074-1.002.785-1.588 1.54-3.588 1.262-3.738-.098-.018.022-.707.357-1.46.352-.853.554-1.427.357-1.461-.296-.052-.227-.446.078-1.61.07-.395.005-.609-.308-.562-.312.047-.394-.069-.26-.249.277.15.492.086.689.12.278.151.467-.933.408-1.755-.012-.51-.06-.822.16-1.495.051-.295-.03-.411-.227-.445-.214.064-.278-.15-.145-.33.034-.198.248-.262.33-.146.081.116.313-.047.364-.342.052-.296.005-.608-.094-.626-.197-.034-.145-.33.12-.69.267-.359.318-.654.023-.706-.197-.034-.261-.249-.146-.33.116-.081.052-.296-.128-.428-.18-.133-.162-.232.215-.064.672.219.925-.65.27-.968-.458-.284-.522-.498-.158-.84.532-.72.653-1.409.229-1.889-.44-.381-.44-.381.103-.591.544-.21.544-.21.236-.77-.226-.447-.256-.858.01-1.217.433-.737.455-1.444-.072-1.333-.098-.017-.36-.265-.423-.48-.193-.642-.06-.822.416-.638.197.035.527-.11.775-.372.4-.539.323-1.263.044-1.413-.098-.017.022-.707.241-1.38.236-.77.357-1.46.276-1.575-.082-.116-.042-.921.211-1.79.254-.87.408-1.757.344-1.97-.175-.742-.015-2.237.41-4.091.53-2.446.547-2.544.012-3.551-.325-.463-.355-.874-.273-.759.295.052.986-2.162.841-2.492-.081-.116.069-.394.318-.655.248-.261.334-.754.27-.968-.047-.313-.007-1.118.229-1.889.236-.77.357-1.46.292-1.675-.064-.214.057-.903.276-1.576.576-2.132.637-3.644.26-3.812-.197-.034-.18-.133.133-.18.428-.128.463-.325.605-1.721.057-.904.401-2.874.89-4.514.589-1.623.847-3.1.766-3.216-.064-.215.022-.707.206-1.183.185-.475.271-.967.108-1.199-.26-.248-.243-.347.035-.197.197.035.428-.128.578-.406.185-.476.086-.493-.44-.382-.545.21-.545.21-.261-.249.63-.702 1.72-3.455 1.274-3.228-.248.26-.33.145-.36-.266-.093-.626-.076-.724.498-.522.296.051.66-.291 1.012-1.143.317-.655.832-1.276 1.063-1.439.643-.192.914-1.16.958-2.573-.072-1.333.174-3.32.523-5.898.19-1.084.164-2.103.083-2.22-.18-.132-.145-.329.185-.474.33-.146.462-.326.48-.424l.034-.197c.399-.54.6-1.113.438-1.345-.197-.034-.145-.33.005-.608.15-.278.219-.672.172-.985a1.449 1.449 0 0 1 .288-1.066c.364-.343.3-.557.005-.609-.296-.051-.343-.364-.274-.758l.19-1.084c.034-.197.283-.458.381-.44.214-.065.266-.36.335-.754-.013-.51.12-.69.283-.458.18.133.295.051.266-.36-.013-.51-.013-.51-.261-.249-.133.18-.365.343-.463.326-.099-.018-.347.243-.399.539-.069.394-.317.655-.613.603-.197-.034-.394-.068-.18-.133a.304.304 0 0 0 .069-.394c-.261-.248.275-1.576.923-2.376.249-.261.051-.296-.394-.069-.874.355-1.054.222-1.015-.583-.03-.412-.175-.742-.29-.66-.215.064-.296-.052-.262-.249.035-.197-.145-.33-.423-.48-.493-.086-.656-.318-.488-.694.184-.476.3-.557.544-.21.163.232.44.382.557.3.115-.08.069-.394-.094-.625-.261-.249-.407-.579-.372-.776.017-.098-.111-.527-.355-.874-.406-.578-.505-.596-.95-.369-.446.227-.463.325-.104.591.261.249.244.347-.167.377-.313.047-.793.47-1.145 1.323-.335.753-.867 1.473-1.08 1.537-.25.26-.695.487-1.042.731-.347.244-.66.29-.857.257-.18-.133-.313.046-.185.475.175.741-.374 1.559-1.329 1.798-.643.192-.643.192-.3.556.162.232.308.562.29.66-.034.197-.133.18-.214.064-.081-.115-.394-.068-.625.094-.347.244-.527.111-.83-1.059-.32-1.07-.286-1.268.073-1.002.36.266.476.185.596-.505.086-.492.236-.77.532-.719.394.069 1.088-.419 1.157-.813.017-.098.133-.18.33-.145.197.034.295.051.214-.064-.081-.116.086-.493.335-.754.514-.62.79-2.197.263-2.086-.214.064-.33.146-.266.36.11.527-.502 1.13-1.458 1.37-.84.157-.84.157-.36-.267.348-.243.747-.783.798-1.078.168-.377.52-1.23.837-1.885.468-.933.537-1.327.241-1.379-.197-.034-.26-.248-.012-.51.133-.18.219-.672.155-.886-.128-.428-.227-.446-.51.013-.15.278-.596.505-.99.436-.492-.086-.642.192-1.029 1.241-.219.672-.652 1.409-.883 1.571-.463.325-.429.128.009-1.216.253-.87.571-1.525.768-1.49a.215.215 0 0 0 .231-.163c.018-.098.532-.719 1.03-1.241.925-.65 1.324-1.19 1.243-1.306-.081-.115-.18-.133-.214.064-.018.099-.198-.034-.459-.283-.406-.578-.337-.972.138-.788.18.133.51-.012.544-.21.168-.376.086-.492-.783-.745-.574-.202-1.032-.485-1.015-.584.018-.098-.145-.33-.342-.364-.296-.051-.51.013-.463.325-.052.296.21.544.603.613.395.07.574.202.441.382-.347.244-.13 1.906.183 1.86.214-.065.296.05.36.265.064.214-.33.145-.904-.056-.574-.202-.934-.468-.8-.648.132-.18.167-.377-.013-.51-.18-.133-.128-.428.005-.608.266-.36.266-.36-.197-.034-.232.162-.532.719-.52 1.229-.056.903-.767 1.49-1.538 1.253-.394-.068-.377-.167-.064-.214.625-.093 1.029-1.241.669-1.507-.18-.133-.411.03-.463.325-.184.475-1.307 1.091-1.123.616.018-.099-.08-.116-.312.047-.347.244-.429.128-.505-.596-.14-.938.292-1.674.716-1.194.18.133.145.33.03.41-.116.082-.15.28.047.313.197.035.428-.128.48-.423.051-.296.381-.441.792-.47a.914.914 0 0 0 .742-.176c.034-.197-.163-.231-.459-.283-.312.047-.475-.184-.342-.364.035-.197-.012-.51-.192-.643s.034-.197.544-.21c.823-.059 1.037-.123 1.088-.418-.064-.214.052-.296.232-.163.18.133.278.15.295.052.018-.099.168-.377.318-.655.133-.18.086-.493-.013-.51-.197-.034-.312.047-.364.342-.051.296-.266.36-.463.325-.197-.034-.162-.23-.047-.312.116-.081.15-.278-.047-.313a.764.764 0 0 0-.526.111c-.215.064-.429.128-.51.012-.18-.132-.279-.15-.313.047-.017.099.047.313.227.446.278.15.145.33-.283.458-.33.145-.793.47-.943.749-.648.8-.823.06-.304-1.17.485-1.032.502-1.13-.042-.92-.33.145-.578.406-.514.62.064.214-.052.296-.133.18-.081-.116-.394-.07-.527.11-.231.163-.15.279.064.215.214-.064.081.116-.283.458-.347.244-.63.702-.566.916.064.215.047.313-.116.082-.18-.133-.51.012-.758.273-.498.522-.498.522.192.643.492.086.77.236.753.335-.034.197-.231.162-.312.046-.081-.115-.296-.051-.527.111-.133.18-.446.227-.724.077-.279-.15-.475-.185-.527.11a.43.43 0 0 1-.463.326c-.197-.035-.313.047-.347.244-.035.197-.318.655-.682.997-.364.343-.798 1.08-1.064 1.439-.768 1.49-1.462 1.977-2.511 1.591-1.246-.42-1.67-.9-1.532-1.689.086-.492-.013-.51-.54-.399-.41.03-.544.21-.398.54.162.231-.168.377-.81.569-.939.14-.939.14-.638-.416.283-.458.3-.557-.261-.249-.678.39-.973.338-.771-.236.069-.394.069-.394-.18-.133-.133.18-.364.342-.579.407-.214.064-.463.325-.647.8-.468.933-.682.997-1.286.384-.603-.613-.603-.613-.84.158-.218.673-.317.655-1.285.385-.573-.202-1.164-.305-1.182-.207-.017.099-.573-.202-1.211-.618-1.178-.814-1.966-.952-1.495-.16.162.232.21.545.175.742-.168.377-1.037.123-1.443-.455-.163-.232-.441-.382-.737-.434-.51.013-.527.111-.056.904.47.793.94 1.586 1.493 2.494.714 1.14 2.185 4.341 2.133 4.637-.034.197.077.724.304 1.17.436.99.079 2.45-1.122 4.676-.433.737-.721 1.803-.825 2.394-.039.805-.056.904.21.544.167-.377.231-.162.094.626-.12.69-.323 1.263-.438 1.344-.116.082-.284.459-.138.788.128.429-.022.707-.352.853-.347.243-.382.44-.172.985.29.66.175.74-.237.77-.41.03-.428.129-.021.707.243.347.47.793.372.776-.3.556.059.822.702.63.642-.192.66-.29.317-.655-.342-.364-.244-.347.33-.145.475.184.655.317.436.99-.202.573-.433.736-1.024.633-.805-.04-.805-.04-.515.62.244.347.175.741.06.823-.116.081-.185.475-.04.805.227.446.21.544-.33.145-.458-.283-.573-.201-.642.193-.12.69.106 1.135.569.81.248-.261.428-.128.54.398.238.956-.02 2.434-.247 1.988-.162-.232-.192-.643-.14-.938.138-.788-.106-1.136-.766-.845-.33.146-.626.094-.805-.039-.082-.116-.296-.052-.33.145-.035.197.11.527.389.677.278.15.424.48.355.875-.052.295-.254.869-.305 1.164-.185.476-.104.591.505.596.51-.012.59.104.342.365a.481.481 0 0 0 .094.625c.278.15.226.446.093.626s-.445.226-.724.076c-.18-.133-.394-.069-.41.03-.035.197-.22.672-.404 1.147-.237.771-.335.754-.677.39-.506-.596-.592-.104-.202.573.226.446.21.545-.086.493-.296-.052-.33.145-.005.608.39.677.303 1.17-.074 1.003-.197-.035-.313.047-.428.128-.035.197.162.231.556.3.806.04.72.532-.219.672-.428.129-.66.291-.48.424.18.133.279.15.412-.03.034-.197.214-.064.26.25.141.937-.026 1.314-.467.933-.261-.25-.475-.185-.544.209-.168.377-.005.608.47.793.377.167.476.184.261.248-.312.047-.33.146.013.51.424.48.424.48-.167.377-.476-.184-.493-.086-.087.493.488.694.488.694-.219.672-.706-.022-1.122.616-.549.818.197.034.313-.047.463-.326a.43.43 0 0 1 .463-.325c.476.185.06.823-.549.818-.51.012-.51.012-.069.394.262.249.343.364.146.33-.197-.034-.313.047-.33.145.081.116-.15.279-.463.325-.411.03-.428.129-.399.54.047.313.094.625.077.724-.018.098-.104.59-.108 1.2-.143 1.396-.16 1.494-.28 2.184-.052.295.059.822.204 1.152.406.579.025 1.02-.647.8-.574-.201-.609-.004-.352.853.175.74.101 1.743-.32 2.99-.167.376-.09 1.1.038 1.529.209.544.175.74-.087.492-.26-.249-.376-.167-.381.44-.074 1.003-.108 1.2-.506 5.8-.165 2.104-.38 4.502-.321 5.325-.04.805-.096 1.709-.165 2.103-.253.869-.088 2.827.242 2.681.116-.08.197.035.18.133-.034.197-.249.261-.364.343-.742.175-.828.667-.914 1.16-.01 1.216-.127 3.632-.23 4.223-.052.296.076.724.14.938.163.232.158.84.072 1.333-.31 1.773-.435 3.07-.191 3.418.162.231.162.231-.035.197-.295-.052-.33.145-.317.655.03.411-.032 1.923-.157 3.22-.514 4.682-.565 4.978-.76 6.67-.056.904-.112 1.807-.065 2.12.064.214.012.51-.104.591-.115.081-.068.394-.004.608.21.544-.598 2.84-.975 2.672-.197-.034-.21-.544-.123-1.036.103-.591.19-1.084.125-1.298-.11-.527-.696 2.822-.96 4.908-.124 1.298-.065 2.12.277 2.485.424.48.407.578-.236.77-.561.309-.7 1.097-.177 1.594.081.116-.017.099-.197-.034-.278-.15-.411.03-.549.817-.4 2.874-.538 3.662-1.414 6.352-.473 1.541-1.027 2.967-1.142 3.048-.133.18-.052.296.244.348.376.167.36.266.175.74-.168.378-.237.772-.074 1.003.163.232.175.741-.108 1.2-.266.36-.318.655-.185.475.133-.18.446-.227.545-.21.376.168.059.823-.635 1.31-.58.407-.596.505-.04.806.36.266.424.48.274.758-.497.522-1.064 1.439-.965 1.456l1.379.24zM59.234-55.047c-.03-.411-.03-.411.313-.047.406.579.389.677-.005.608-.18-.132-.343-.364-.308-.56zm-5.612.745c.184-.475.3-.556.625-.094.163.232.424.48.407.58.098.016-.133.179-.365.342-.66.29-1.002-.074-.667-.828zm-1.994 2.697c-.064-.214.15-.278.33-.145.295.051.36.266.244.347-.116.081-.33.145-.33.145-.099-.017-.261-.248-.244-.347zm7.772 2.577c.035-.197.266-.36.365-.343.377.168.505.596.175.741-.347.244-.707-.022-.54-.398zm-31.998.702c.069-.394.334-.754.549-.818.214-.064.244.347.059.823-.404 1.147-.896 1.061-.608-.005zm-1.228 3.541c.034-.197-.064-.214-.296-.051-.231.162-.445.226-.33.145.018-.099.07-.394.022-.707-.047-.313.07-.394.232-.162.162.231.278.15.231-.163-.047-.313.168-.377.626-.094.852.352.692 1.847-.079 1.61-.278-.15-.44-.38-.406-.578zm20.879 4.258c-.047-.313 1.075-.929 1.452-.761.197.034.261.248.244.347-.017.098-.33.145-.625.094-.377-.168-.394-.07-.133.18.162.23.226.445-.005.608-.446.226-.904-.057-.933-.468zm-2.018 5.738c.573.202.719.532.273.759-.33.145-.788-.138-.818-.55-.064-.213.249-.26.545-.209zm.137-.788c.296.052.458.283.343.365-.035.197-.249.26-.33.145-.197-.035-.261-.249-.343-.364-.081-.116.035-.197.33-.146zm1.82-3.438c-.198-.034-.065-.214.248-.261.84-.158 1.276.832.808 1.765-.536 1.328-1.573 1.451-1.25.188.068-.394.27-.968.403-1.148a.55.55 0 0 0-.21-.544zm-22.984-2.088c.034-.197.15-.278.231-.162.098.017.18.133.244.347.064.214-.052.295-.232.162-.08-.115-.26-.248-.243-.347zm3.761 4.617c.017-.099.249-.261.446-.227.197.035.283-.458.09-1.1-.157-.84-.152-1.449.315-2.382.318-.655.716-1.195.815-1.177.099.017.163.231.145.33-.034.197.065.214.262.248.428-.128.62.515.273.759-.231.162-.33.145-.475-.185-.146-.33-.146-.33-.296-.052-.034.197-.317.656-.485 1.032l-.317.655.775-.372c.909-.551 1.234-.089.47.793-.398.54-.53.72-.27.968.18.133.18.133.116-.081-.064-.214-.047-.313.15-.279.197.035.128.429.06.823-.237.77-.335.754-1.83.594-.18-.133-.261-.249-.244-.347zm4.677 1.122c-.296-.052-.476-.185-.36-.266.116-.082.394.069.574.202.278.15.18.132-.214.064zm4.189.427c-.03-.411.184-.475.48-.424.197.035.377.168.36.266-.018.099-.052.296-.005.608.047.313-.168.377-.365.343-.377-.167-.54-.399-.47-.793zm-8.267-.328c-.394-.069-.557-.3-.54-.399.052-.295 1.298.126 1.722.606.18.133.226.445.012.51-.347.243-.822.059-.77-.237.132-.18-.146-.33-.424-.48zm-.618 1.212c-.296-.052-.343-.365-.29-.66.201-.574.398-.54.92-.042.424.48.042.92-.63.702zm25.138 8.352c-.035.197-.232.162-.33.145-.197-.034-.262-.249-.244-.347.034-.197.231-.163.33-.145.197.034.278.15.244.347zm-20.12-4.531c-.082-.116-.048-.313.184-.476.133-.18.214-.064.162.232-.231.162-.266.36-.347.244zm10.37 4.553c.313-.047.347-.244.103-.591-.406-.579-.32-1.071.12-.69.262.249.262.249.035-.197-.162-.231-.157-.84.01-1.216.219-.673.236-.771.741-.175.424.48.453.891.166 1.957-.323 1.264-.439 1.345-1.012 1.143-.493-.086-.476-.184-.163-.231zm-18.785-2.877c-.261-.249-.047-.313.643-.192.69.12.869.253.817.549-.167.377-.938.14-1.46-.357zm.744 1.551c.017-.098.231-.162.347-.244.214-.064.296.052.261.25-.034.196-.248.26-.347.243-.18-.133-.261-.249-.261-.249zm16.996 6.727c.428-.129.458.283.281 1.876-.31 1.773-.992 2.77-1.08 1.537-.047-.313.051-.296.23-.163.245.347.606-1.721.465-2.66-.145-.33-.11-.526.104-.59zm-21.36-1.5c.15-.278.363-.342.543-.21.18.134.047.313-.184.476-.66.29-.759.273-.36-.266zm4.555 1.811c.052-.295.12-.69.04-.805-.082-.116-.111-.527.021-.707.052-.295-.012-.51-.128-.428-.214.064-.18-.133-.03-.411.567-.917 1.419-.565.934.467-.034.197.012.51.175.742.244.347.192.642-.073 1.002-.266.36-.202.574-.023.707.197.034.262.248.047.312-.463.325-1.165-.305-.963-.879zm15.781 4.382c-.295-.051-.36-.265-.243-.347.115-.081.428-.128.527-.11.197.034.26.248.243.346-.017.099-.23.163-.526.111zM39.1-5.474c-.406-.578-.157-.84.417-.638.672.22.881.763.534 1.007-.347.244-.625.094-.95-.369zm-15.89-.848c-.296-.052-.459-.283-.343-.364.034-.197.248-.261.33-.146.197.035.36.266.342.365.064.214-.052.295-.33.145zm-1.327 13.98c.017-.098.231-.162.347-.244.214-.064.296.052.261.25-.034.196-.249.26-.347.243-.18-.133-.278-.15-.261-.249zm14.605 7.628c-.064-.214.051-.295.231-.162.197.034.261.248.244.347-.034.197-.15.278-.231.162-.099-.017-.163-.23-.244-.347zm-4.255 43.518c.017-.099.232-.163.33-.146.214-.064.296.052.261.249-.034.197-.249.26-.33.145-.197-.034-.278-.15-.261-.248z"/><path d="M29.44 62.58c-.017.098.047.312.244.346.197.035.313-.046.232-.162-.064-.214-.146-.33-.244-.347a.215.215 0 0 0-.232.162zM30.915 61.111c-.034.197.18.133.429-.128.265-.36.283-.458-.03-.411-.214.064-.364.342-.399.54zM21.415-29.172c-.296-.052-.411.03-.33.146.064.214.145.33.244.347.098.017.214-.064.33-.146.133-.18-.047-.312-.244-.347zM21.42-29.78c.034-.197-.047-.313-.244-.347-.197-.035-.313.047-.33.145-.035.197.047.313.244.347.098.018.313-.047.33-.145zM22.59-30.083c-.163-.232-.112-.527.103-.591.115-.082-.082-.116-.51.012-.938.14-.909.552.06.823.376.167.492.086.346-.244zM22.11-36.055c-.197-.034-.411.03-.428.128-.035.197-.052.296.047.313.098.017.214-.064.428-.128.232-.163.15-.279-.047-.313zM61.565-50.377c.064.214.197.035.283-.458.167-.377.103-.591-.03-.411-.15.278-.317.655-.253.87zM62.31-55.221c-.035.197.03.411.226.446.197.034.313-.047.463-.325.034-.197-.03-.412-.227-.446a.43.43 0 0 0-.462.325zM39.044-63.246c.539.399.539.399.92-.042.267-.36.185-.475-.423-.48-.887-.155-1.037.123-.497.522zM61.467-56.79c-.052.296-.005.609.094.626.197.035.312-.047.463-.325.034-.197-.013-.51-.094-.626-.197-.034-.313.047-.463.326zM40.583-64.5c.201-.573.021-.706-.36-.266-.133.18-.185.476-.103.592.18.133.312-.047.463-.326zM38.001-66.575c-.475-.185-.788-.138-1.036.123-.365.343-.284.459.765.845.673.219 1.264.322 1.264.322.33-.145-.338-.972-.993-1.29zM61.178-59.784c-.18-.133-.295-.052-.33.145-.034.198.013.51.094.626.18.133.295.052.33-.145.052-.296.086-.493-.094-.626zM39.95-65.524c.196.034.312-.047.364-.342.034-.197.069-.394-.03-.412-.099-.017-.214.065-.364.343s-.15.278.03.411zM39.402-67.04c.035-.198.07-.395-.03-.412-.098-.017-.23.163-.364.342-.133.18-.167.377.03.412.098.017.313-.047.364-.343zM59.025-61.987c-.514.62-.514.62.325.462 1.35-.17 1.924.032 1.148.404-.66.29-.926.65-.45.835.197.035.544-.21.891-.453.48-.424.514-.621.172-.985-.26-.249-.39-.678-.337-.973.184-.475.086-.492-.476-.185-.428.129-1.007.535-1.273.895zM38.932-67.834c-.146-.33-.591-.103-.562.308.047.313.047.313.377.168.116-.082.266-.36.185-.476zM42.8-68.477c.018-.099.185-.476.434-.737.265-.36.317-.655.073-1.002-.227-.446-.325-.463-.788-.138-.596.505-1.367.27-1.739-.507-.21-.544-.325-.462-.578.407-.37.95.003 1.726.517 1.105.133-.18.66-.29 1.037-.123.574.202.655.318.372.776-.416.638-.433.736.308.561.116-.081.347-.244.364-.342zM61.263-64.337c-.463.325-.532.719.013.51.098.017.248-.261.3-.557.15-.278.052-.296-.313.047zM50-68.437c.082.116.18.133.395.069.116-.082.248-.261.364-.343.035-.197-.064-.214-.394-.069-.313.047-.445.227-.364.343zM52.23-69.57c-.035.197.046.312.243.347.197.034.313-.047.33-.146.035-.197-.047-.312-.244-.347-.081-.116-.295-.052-.33.146zM55.088-71.406c.381-.44.532-.719.369-.95-.163-.232-.377-.168-.66.29-.566.917-.357 1.46.29.66zM51.524-71.927c.082.116.197.035.249-.261.052-.296.069-.394-.163-.231-.133.18-.167.376-.086.492zM50.665-73.397c-.116.081-.266.36-.335.754l-.103.59.497-.521c.416-.638.386-1.05-.06-.823zM53.21-68.79c.034-.197-.047-.313-.146-.33-.098-.017-.214.064-.248.261-.035.197.046.313.145.33.098.017.214-.064.248-.261z"/></g></svg>