<svg width="102" height="102" fill="none" xmlns="http://www.w3.org/2000/svg"><path d="M34.498 99.189c-4.603-1.316-8.786-3.435-12.675-6.188-5.488-3.874-10.164-8.552-13.782-14.204-2.855-4.434-4.946-9.21-6.325-14.301C.387 59.55-.104 54.556.018 49.464.166 44.08 1.15 38.866 3.045 33.823c3.274-8.698 8.368-16.08 15.603-22.024 4.283-3.509 9.057-6.237 14.2-8.235.911-.366 1.846-.755 2.83-.926.198-.097.444-.17.592-.049.566.439.54.439 1.18.244 2.314-.707 4.628-1.291 7.064-1.243.714.025 1.354-.243 2.043-.34 1.206-.025 2.411-.05 3.642-.098.837-.098 1.698-.122 2.535 0 14.422.438 26.432 6.09 36.227 16.47.246.243.64.39.664.828.099.122.099.219 0 .34-.837.22-1.181-.462-1.6-.9-3.544-3.728-7.604-6.798-12.108-9.307-3.2-1.779-6.596-3.07-10.115-4.045-4.676-1.29-9.45-1.973-14.323-1.803-3.766.122-7.482.683-11.173 1.487-5.045 1.072-9.672 3.094-14.053 5.676-6.645 3.923-12.108 9.136-16.292 15.593-2.855 4.41-4.873 9.184-6.153 14.252-.664 2.631-.96 5.335-1.255 8.04-.418 3.776-.074 7.528.32 11.28.345 3.191 1.403 6.237 2.461 9.282 2.092 5.97 5.488 11.158 9.574 15.91 3.199 3.727 7.087 6.748 11.345 9.257 2.609 1.56 5.39 2.753 8.17 3.923.395.292 1.01.438.813 1.12-.099.366-.123.877-.738.634zM101.413 53.873c-.024 4.556-.59 8.99-2.018 13.352-2.362 7.187-6.03 13.57-11.222 19.1a46.123 46.123 0 0 1-4.405 4.069c-.443-.098-.443-.098-.172-.512-3.003 2.022-5.76 4.312-9.131 5.58-1.132.657-2.363 1.096-3.544 1.656-.246.097-.492.122-.738.097-.197-.024-.37-.073-.517-.219-.025-.706.541-.828 1.009-1.023 3.84-1.681 7.359-3.874 10.656-6.408.419-.268.69-.755 1.23-.852 1.354-.682 2.413-1.706 3.52-2.68.64-.56-.123-1.243.295-1.779 1.65-1.973 3.347-3.874 4.824-5.969 3.101-4.336 5.439-9.038 6.965-14.13.689-2.266 1.058-4.556 1.501-6.87.197-.975.738-1.877.788-2.9.27-.317.492-.633.959-.511z" fill="#EFF5F2"/><path d="M71.93 97.654c-3.79 1.705-7.777 2.875-11.862 3.557-5.094.853-10.238 1.121-15.357.268-.837-.146-1.723-.073-2.535-.39-.246-.17-.541-.073-.812-.122-.714-.122-1.108-.438-.665-1.194.493-.316 1.01-.219 1.55-.097 3.323.731 6.67 1.121 10.066 1.096 3.274-.024 6.498-.462 9.697-1.096 1.058-.195 2.215-.097 3.15-.828.246-.147.517-.22.788-.244.787.122 1.452-.365 2.19-.487 1.058-.244 1.993-.804 3.027-1.097.394-.219.788-.34 1.23-.243.739.73-.369.56-.467.877zM46.606 1.25c-.91.633-1.969.39-2.953.56-2.264.365-4.529.828-6.719 1.535-.295.097-.64.048-1.034.097.123-.341.985-.853-.147-.78 1.403-.804 2.978-1.047 4.503-1.413C45.056.13 49.928-.164 54.85.08c2.363.098 4.726.39 7.039 1.122C55.638.25 49.411.177 43.283 1.42c1.059.365 2.166-.414 3.323-.17zM101.537 43.08c.098 1.316.566 2.583.443 3.948-.05.438.024.877-.517 1.315.172-2.07-.296-3.898-.689-5.774-.542-.755-.591-1.681-.788-2.51-1.354-5.749-3.642-11.06-6.965-15.957-.344-.487-.763-.975-.738-1.632.074-.195.197-.341.394-.366 1.476 1.608 2.535 3.508 3.544 5.409 1.87 3.46 3.371 7.065 4.307 10.866.393 1.559.689 3.143 1.009 4.702z" fill="#EFF5F2"/><path d="M71.93 97.654c-.098-.414.788-.22.468-.755.418-1 1.476-.975 2.24-1.389.245-.122.565-.049.762-.22-.32.122-.64.244-.984 0 2.092-.876 3.938-2.168 5.833-3.41a146.45 146.45 0 0 0 3.199-2.168c.369.121-.419.78.32.706-3.544 3.021-7.531 5.409-11.838 7.236zM34.498 99.189c1.156-.487.516-.975 0-1.462.147-.17.344-.244.541-.17.96.39 1.993.584 3.002.9.247.074.394.245.493.488 0 .049.024.098 0 .122-.566.414-.616.463-.616 1.121-1.132-.415-2.436-.195-3.42-1zM92.677 22.128c-.05.171-.148.293-.345.317-1.28-.511-1.6-1.9-2.535-2.729-.246-.219-.393-.511-.172-.852.025-.146.05-.268.074-.414 1.206 1.047 2.067 2.363 2.978 3.678z" fill="#EFF5F2"/><path d="M37.894 100.163c-.246-.39-.492-.78-.763-1.242.492.073.935.122 1.353.17.443-.292.763-.121 1.059.22.246.511.049.901-.37 1.242-.492.122-.885-.122-1.28-.39zM101.413 53.873c-.221.171-.443.317-.664.488-.394-.39-.369-.804-.074-1.218.197-.463-.295-1.39.419-1.39.713 0 .221.927.393 1.39-.024.219-.049.462-.074.73z" fill="#EFF5F2"/><path d="M39.173 100.577c.074-.365.148-.755.247-1.12.27-.268.541-.073.812 0 .221.097.418.22.492.463-.221 1.242 1.034.682 1.427 1.145-1.058.268-1.92-.609-2.978-.488zM52.783 1.176h-2.535c.837-.365 1.674-.34 2.535 0zM59.896 99.432c3.347-.511 6.497-1.802 9.82-2.46.171 0 .344.024.516.024.025.682-.64.585-1.009.804-.37.22-.812.293-1.206.463-.664.17-1.304.414-1.969.633-.27.025-.541.025-.787.05-.173.34-.517.389-.813.438-1.5.195-2.928.633-4.43.804-.516.048-1.033.122-1.427-.39.419-.463.91-.146 1.305-.366zM85.22 86.008c.418-.56.861-1.096 1.452-1.51-.05.122-.148.292-.123.341.861 1.145-.37 1.462-.862 1.973-.836.829-1.698 1.73-2.928 2.071-.172-.536.197-.804.566-1.072.689-.536 1.353-1.12 1.895-1.803z" fill="#EFF5F2"/><path d="M85.22 86.008c0 .804-.739 1.048-1.157 1.535-.418.463-1.107.682-1.304 1.34-.566 0-.517.829-1.083.78-.246-.025-.468-.049-.935-.073 1.575-1.316 2.904-2.607 4.479-3.582zM74.416 95.266h1.009c-.985.707-2.166.853-3.027 1.633-.394.097-.788.219-1.182.316-.123-.097-.295-.121-.295-.316 1.034-.78 2.363-1 3.495-1.633z" fill="#EFF5F2"/><path d="M70.897 96.899c.098.097.196.219.295.316-.985.39-1.994.78-2.978 1.145-.123-.048-.27-.073-.295-.219.615-.682 1.722-.365 2.288-1.145a7.79 7.79 0 0 1 .69-.097zM59.896 99.432c-.345.098-.665.195-1.354.39 2.535.244 4.578-.682 6.719-.926-.197 1-1.157.804-1.748.902-4.405.828-8.835 1.462-13.363 1.218-2.732-.146-5.44-.317-8.097-.999-.418-.097-.886-.073-1.329-.097-.221-.025-.443-.049-.541-.293 1.673-1.315 3.42-.219 5.119-.097.91.049 1.845.243 2.756.292 2.953.122 5.907.244 8.86 0 1.009-.049 1.92-.706 2.978-.39z" fill="#EFF5F2"/><path d="M67.919 98.141l.295.22c-.738.121-1.354.78-2.166.511.419-.755 1.255-.463 1.87-.73zM53.915 100.577c.32.049.64.074.96.122v.122h-5.956c-.172-.195.099-.122.123-.195 1.625-.219 3.249-.17 4.873-.049z" fill="#EFF5F2"/><path d="M53.915 100.577c-1.624 0-3.248.025-4.873.025 1.625-.463 3.249-.341 4.873-.025z" fill="#EFF5F2"/></svg>