<svg width="701" height="701" fill="none" xmlns="http://www.w3.org/2000/svg"><path d="M237.086 681.68c-31.628-9.042-60.382-23.609-87.105-42.529-37.718-26.622-69.854-58.77-94.717-97.615-19.62-30.474-33.997-63.291-43.468-98.285C2.662 409.261-.72 374.937.126 339.942c1.014-37.003 7.78-72.834 20.803-107.494C43.424 172.674 78.436 121.94 128.162 81.086c29.43-24.11 62.242-42.864 97.592-56.593 6.258-2.512 12.685-5.191 19.451-6.363 1.353-.67 3.044-1.172 4.059-.335 3.89 3.014 3.721 3.014 8.119 1.674 15.898-4.855 31.797-8.874 48.542-8.539 4.905.168 9.302-1.674 14.038-2.344 8.288-.167 16.576-.335 25.032-.67 5.751-.67 11.671-.837 17.421 0 99.115 3.014 181.653 41.86 248.97 113.187 1.691 1.675 4.397 2.679 4.567 5.693.676.837.676 1.507 0 2.344-5.751 1.507-8.119-3.181-10.994-6.195-24.356-25.618-52.264-46.715-83.216-63.96-21.987-12.223-45.328-21.098-69.515-27.795-32.136-8.874-64.948-13.562-98.437-12.39-25.878.837-51.418 4.688-76.789 10.213-34.673 7.367-66.47 21.265-96.577 39.013-45.667 26.957-83.215 62.789-111.968 107.159-19.62 30.306-33.49 63.124-42.285 97.95-4.566 18.083-6.596 36.669-8.625 55.254-2.876 25.953-.508 51.738 2.198 77.523 2.368 21.934 9.641 42.864 16.914 63.794 14.377 41.021 37.717 76.685 65.794 109.335 21.988 25.618 48.712 46.38 77.972 63.626 17.929 10.716 37.041 18.92 56.154 26.957 2.706 2.01 6.934 3.014 5.581 7.702-.676 2.512-.845 6.028-5.074 4.354zM696.969 370.248c-.169 31.311-4.059 61.784-13.869 91.756-16.237 49.393-41.438 93.262-77.126 131.27-9.472 10.046-19.62 19.255-30.276 27.961-3.044-.669-3.044-.669-1.184-3.516-20.635 13.897-39.578 29.636-62.75 38.343-7.78 4.521-16.237 7.535-24.355 11.386-1.692.67-3.383.837-5.074.67-1.354-.168-2.538-.503-3.552-1.507-.169-4.856 3.721-5.693 6.934-7.033 26.386-11.553 50.572-26.622 73.236-44.035 2.876-1.842 4.736-5.191 8.457-5.861 9.303-4.688 16.576-11.72 24.187-18.418 4.398-3.851-.846-8.539 2.03-12.223 11.332-13.562 23.002-26.622 33.15-41.021 21.312-29.804 37.38-62.119 47.866-97.113 4.736-15.572 7.273-31.311 10.317-47.217 1.354-6.698 5.075-12.893 5.413-19.925 1.86-2.177 3.383-4.354 6.596-3.517z" fill="#EFF5F2"/><path d="M494.343 671.131c-26.047 11.721-53.447 19.758-81.524 24.446-35.011 5.86-70.361 7.702-105.541 1.842-5.751-1.005-11.84-.502-17.421-2.679-1.692-1.172-3.721-.502-5.582-.837-4.905-.837-7.611-3.014-4.566-8.205 3.382-2.176 6.934-1.507 10.655-.669 22.834 5.023 45.836 7.702 69.177 7.534 22.495-.167 44.652-3.181 66.64-7.534 7.273-1.34 15.222-.67 21.65-5.693 1.691-1.005 3.551-1.507 5.412-1.675 5.412.838 9.979-2.511 15.053-3.348 7.273-1.675 13.7-5.526 20.804-7.535 2.706-1.507 5.412-2.344 8.457-1.674 5.074 5.023-2.537 3.851-3.214 6.027zM320.301 8.586c-6.258 4.354-13.531 2.68-20.296 3.851-15.561 2.512-31.121 5.693-46.174 10.549-2.03.67-4.398.334-7.104.67.846-2.345 6.765-5.86-1.015-5.359 9.641-5.525 20.466-7.2 30.952-9.71C309.646.883 343.135-1.126 376.962.548c16.237.67 32.475 2.68 48.373 7.702-42.96-6.53-85.752-7.032-127.867 1.507 7.273 2.512 14.884-2.846 22.833-1.172zM697.815 296.074c.676 9.042 3.89 17.748 3.044 27.125-.338 3.014.17 6.028-3.552 9.041 1.184-14.232-2.029-26.789-4.735-39.682-3.721-5.191-4.06-11.553-5.413-17.246-9.302-39.515-25.032-76.016-47.865-109.671-2.368-3.348-5.244-6.697-5.075-11.218.508-1.339 1.354-2.344 2.707-2.511 10.148 11.05 17.421 24.11 24.355 37.17 12.855 23.776 23.172 48.557 29.599 74.677 2.706 10.716 4.736 21.599 6.935 32.315z" fill="#EFF5F2"/><path d="M494.343 671.131c-.676-2.846 5.413-1.507 3.214-5.19 2.875-6.865 10.148-6.698 15.391-9.544 1.692-.837 3.89-.335 5.244-1.507-2.199.837-4.398 1.674-6.766 0 14.377-6.028 27.062-14.902 40.085-23.441 7.442-4.856 14.715-9.879 21.988-14.902 2.537.837-2.875 5.358 2.199 4.856-24.356 20.762-51.756 37.171-81.355 49.728zM237.086 681.68c7.95-3.349 3.552-6.698 0-10.046 1.015-1.172 2.368-1.675 3.721-1.172 6.596 2.679 13.7 4.018 20.635 6.195 1.691.502 2.706 1.674 3.383 3.348 0 .335.169.67 0 .838-3.891 2.846-4.229 3.181-4.229 7.702-7.78-2.847-16.744-1.34-23.51-6.865zM636.926 152.079c-.339 1.172-1.015 2.009-2.368 2.177-8.795-3.517-10.994-13.06-17.421-18.753-1.692-1.507-2.707-3.516-1.184-5.86.169-1.005.338-1.842.507-2.847 8.288 7.2 14.208 16.241 20.466 25.283z" fill="#EFF5F2"/><path d="M260.427 688.377c-1.691-2.679-3.383-5.358-5.243-8.539 3.382.502 6.427.837 9.302 1.172 3.045-2.009 5.244-.837 7.273 1.507 1.692 3.516.338 6.195-2.537 8.539-3.383.837-6.089-.837-8.795-2.679zM696.969 370.248c-1.522 1.172-3.044 2.177-4.567 3.349-2.706-2.679-2.537-5.525-.507-8.372 1.353-3.181-2.03-9.544 2.875-9.544 4.905 0 1.523 6.363 2.707 9.544-.17 1.507-.339 3.182-.508 5.023z" fill="#EFF5F2"/><path d="M269.222 691.224c.508-2.512 1.015-5.191 1.691-7.702 1.861-1.842 3.721-.503 5.582 0 1.522.669 2.875 1.507 3.383 3.181-1.523 8.539 7.103 4.688 9.81 7.869-7.273 1.842-13.193-4.185-20.466-3.348zM362.755 8.084h-17.421c5.75-2.512 11.501-2.344 17.421 0zM411.635 683.354c23.003-3.516 44.652-12.39 67.486-16.911 1.184 0 2.368.168 3.552.168.169 4.688-4.398 4.018-6.935 5.525-2.537 1.507-5.581 2.009-8.288 3.181-4.566 1.172-8.964 2.847-13.531 4.354-1.86.167-3.72.167-5.412.335-1.184 2.344-3.552 2.679-5.581 3.013-10.318 1.34-20.128 4.354-30.445 5.526-3.552.335-7.104.837-9.81-2.679 2.875-3.181 6.258-1.005 8.964-2.512zM585.677 591.097c2.876-3.851 5.92-7.535 9.979-10.381-.338.837-1.015 2.009-.845 2.344 5.919 7.869-2.537 10.046-5.92 13.562-5.751 5.693-11.671 11.888-20.128 14.232-1.183-3.683 1.354-5.525 3.891-7.367 4.735-3.683 9.302-7.702 13.023-12.39z" fill="#EFF5F2"/><path d="M585.677 591.097c0 5.525-5.074 7.2-7.949 10.548-2.876 3.182-7.611 4.689-8.965 9.209-3.89 0-3.551 5.693-7.442 5.358-1.691-.167-3.213-.335-6.427-.502 10.825-9.042 19.958-17.916 30.783-24.613zM511.426 654.723h6.935c-6.766 4.855-14.884 5.86-20.804 11.218-2.706.67-5.413 1.507-8.119 2.177-.845-.67-2.029-.838-2.029-2.177 7.103-5.358 16.237-6.865 24.017-11.218z" fill="#EFF5F2"/><path d="M487.24 665.941c.676.67 1.353 1.507 2.029 2.177a1028.07 1028.07 0 0 1-20.465 7.869c-.846-.335-1.861-.502-2.03-1.507 4.228-4.688 11.84-2.511 15.73-7.869 1.691-.335 3.213-.503 4.736-.67zM411.635 683.354c-2.368.67-4.566 1.34-9.302 2.679 17.421 1.675 31.459-4.688 46.174-6.362-1.353 6.865-7.949 5.525-12.009 6.195-30.275 5.693-60.72 10.046-91.841 8.372-18.774-1.005-37.379-2.177-55.646-6.865-2.875-.67-6.089-.503-9.133-.67-1.523-.167-3.045-.335-3.721-2.009 11.501-9.042 23.51-1.507 35.18-.67 6.258.335 12.685 1.674 18.943 2.009 20.297.837 40.593 1.675 60.89 0 6.934-.335 13.192-4.855 20.465-2.679z" fill="#EFF5F2"/><path d="M466.774 674.48l2.03 1.507c-5.075.837-9.303 5.358-14.885 3.516 2.876-5.19 8.626-3.181 12.855-5.023zM370.535 691.224c2.199.335 4.398.502 6.596.837v.837H336.2c-1.184-1.339.677-.837.846-1.339 11.163-1.507 22.326-1.172 33.489-.335z" fill="#EFF5F2"/><path d="M370.535 691.224c-11.163 0-22.326.167-33.489.167 11.163-3.181 22.326-2.344 33.489-.167z" fill="#EFF5F2"/></svg>