<svg width="87" height="87" fill="none" xmlns="http://www.w3.org/2000/svg"><circle cx="43.5" cy="43.5" r="43.5" fill="#F6F6EF"/><path d="M31.255 24.947h-4.837c-1.335 0-2.418 1.187-2.418 2.65v39.735c0 1.462 1.083 2.649 2.418 2.649h33.856c1.335 0 2.418-1.187 2.418-2.65V27.597c0-1.462-1.083-2.649-2.418-2.649h-4.836" fill="#fff"/><path d="M31.255 24.947h-4.837c-1.335 0-2.418 1.187-2.418 2.65v39.735c0 1.462 1.083 2.649 2.418 2.649h33.856c1.335 0 2.418-1.187 2.418-2.65V27.597c0-1.462-1.083-2.649-2.418-2.649h-4.836" stroke="#002033" stroke-width="2.5" stroke-linecap="round" stroke-linejoin="round"/><path d="M36.091 22.298l1.081-2.368c.82-1.796 2.496-2.93 4.327-2.93h3.695c1.833 0 3.506 1.134 4.326 2.93l1.081 2.368h2.418c1.335 0 2.419 1.187 2.419 2.65v2.648c0 1.462-1.084 2.65-2.419 2.65H33.673c-1.335 0-2.418-1.188-2.418-2.65v-2.649c0-1.462 1.083-2.649 2.418-2.649h2.418z" fill="#fff" stroke="#002033" stroke-width="2.5" stroke-linecap="round" stroke-linejoin="round"/><path d="M33.673 54.086h19.346M38.51 62.034h9.673M39.719 42.166h7.255M43.346 38.192v7.947" stroke="#00ABE9" stroke-width="2.5" stroke-linecap="round" stroke-linejoin="round"/></svg>