<svg width="87" height="87" fill="none" xmlns="http://www.w3.org/2000/svg"><circle cx="43.5" cy="43.5" r="43.5" fill="#F6F6EF"/><path d="M24.957 30.254h37.086a5.297 5.297 0 0 1 5.298 5.299v23.84a5.297 5.297 0 0 1-5.298 5.299H24.957a5.297 5.297 0 0 1-5.298-5.298V35.553a5.297 5.297 0 0 1 5.298-5.299z" fill="#fff" stroke="#002033" stroke-width="2.5" stroke-linecap="round" stroke-linejoin="round"/><path d="M54.096 30.255l-1.645-6.583a5.302 5.302 0 0 0-5.142-4.013h-7.621a5.296 5.296 0 0 0-5.14 4.013l-1.644 6.583" stroke="#002033" stroke-width="2.5" stroke-linecap="round" stroke-linejoin="round"/><path d="M36.877 47.473h13.246M43.5 40.851v13.245" stroke="#00ABE9" stroke-width="2.5" stroke-linecap="round" stroke-linejoin="round"/></svg>