<svg width="113" height="43" fill="none" xmlns="http://www.w3.org/2000/svg"><path d="M3.977 16.983H.982c-.287 0-.43-.143-.43-.428V.428C.551.143.694 0 .981 0h2.995c.288 0 .432.143.432.428v5.985l4.6-6.152A.618.618 0 0 1 9.536 0h3.786c.176 0 .288.048.335.143.064.095.04.213-.072.356L7.883 7.435l6.373 9.05c.112.126.136.245.072.355-.048.096-.16.143-.335.143h-3.69c-.208 0-.375-.095-.503-.285l-4.337-6.342-1.054 1.188v5.011c0 .285-.144.428-.432.428zM16.402 0h6.35c1.884 0 3.378.546 4.48 1.639 1.102 1.077 1.653 2.534 1.653 4.37 0 1.853-.551 3.326-1.653 4.418-1.102 1.077-2.596 1.616-4.48 1.616h-2.924v4.512c0 .285-.136.428-.407.428H16.4c-.27 0-.407-.143-.407-.428V.428c0-.285.136-.428.408-.428zm3.426 8.503h2.396c1.805 0 2.707-.83 2.707-2.494 0-1.662-.902-2.494-2.707-2.494h-2.396v4.988zm15.28 1.568v3.468h7.116c.288 0 .431.135.431.404v2.612c0 .285-.143.428-.43.428H31.681c-.288 0-.432-.143-.432-.428V.428c0-.285.144-.428.432-.428H41.84c.287 0 .431.143.431.428V3.04c0 .27-.144.404-.431.404h-6.733v3.254h5.942c.288 0 .431.135.431.404v2.565c0 .27-.143.404-.43.404h-5.943zM47.37 20.142H44.4c-.272 0-.408-.134-.408-.404v-5.867c0-.269.136-.403.408-.403h.623c.527-.254.958-.784 1.293-1.592.336-.823.631-2.137.887-3.943.256-1.805.48-4.299.67-7.482.017-.3.16-.451.432-.451h10.16c.287 0 .43.143.43.428v13.016h1.175c.271 0 .407.142.407.427v5.867c0 .27-.136.404-.407.404h-2.947c-.288 0-.432-.134-.432-.404v-2.755h-8.913v2.755c0 .27-.136.404-.407.404zM51.54 3.54c-.288 5.32-.919 8.63-1.893 9.929h5.391V3.539H51.54zM76.27 16.983h-2.97c-.272 0-.408-.143-.408-.428v-3.729c0-1.947.128-4.204.383-6.77l-.072-.023c-.878 2.059-1.805 3.903-2.779 5.535l-3.115 5.13a.547.547 0 0 1-.503.285H63.62c-.271 0-.407-.143-.407-.428V.428c0-.285.136-.428.407-.428h2.971c.288 0 .432.143.432.428v4.251c0 1.995-.088 4.11-.264 6.342l.072.024c.447-.998 1.302-2.692 2.564-5.083l3.21-5.677a.496.496 0 0 1 .48-.285h3.186c.288 0 .432.143.432.428v16.127c0 .285-.144.428-.432.428zM79.193 0h12.603c.272 0 .407.143.407.428v2.707c0 .27-.135.404-.407.404h-4.385v13.016c0 .285-.135.428-.407.428h-3.019c-.271 0-.407-.143-.407-.428V3.54h-4.385c-.287 0-.431-.134-.431-.404V.428c0-.285.144-.428.431-.428zm21.971 16.983h-6.446c-.288 0-.431-.143-.431-.428V.428c0-.285.143-.428.43-.428h3.02c.271 0 .407.143.407.428v5.154h2.828c1.933 0 3.442.499 4.528 1.496 1.103.998 1.654 2.376 1.654 4.133 0 1.805-.527 3.223-1.582 4.252-1.054 1.013-2.524 1.52-4.408 1.52zm11.405 0h-3.019c-.272 0-.408-.143-.408-.428V.428c0-.285.136-.428.408-.428h3.019c.287 0 .431.143.431.428v16.127c0 .285-.144.428-.431.428zM98.144 9.121v4.323h2.78c1.517 0 2.276-.744 2.276-2.233 0-1.393-.759-2.09-2.276-2.09h-2.78zM13.97 36.254c0 2.122-.615 3.777-1.845 4.965C10.894 42.406 9.177 43 6.972 43c-2.188 0-3.897-.594-5.127-1.781C.615 40.03 0 38.376 0 36.254v-4.109c0-2.106.615-3.753 1.845-4.94 1.23-1.188 2.94-1.782 5.127-1.782 2.205 0 3.922.594 5.152 1.782 1.23 1.171 1.845 2.818 1.845 4.94v4.11zm-10.04-.071c0 2.138 1.015 3.207 3.043 3.207 2.03 0 3.043-1.07 3.043-3.207v-3.967c0-2.122-1.014-3.183-3.043-3.183-2.028 0-3.043 1.061-3.043 3.183v3.967zm22.273-3.8v-6.224c0-.285.144-.427.432-.427h2.995c.287 0 .431.142.431.428v16.127c0 .285-.144.428-.431.428h-2.995c-.288 0-.432-.143-.432-.428v-6.365h-5.39v6.365c0 .285-.145.428-.432.428h-2.995c-.288 0-.431-.143-.431-.428V26.16c0-.286.143-.428.43-.428h2.996c.288 0 .431.142.431.428v6.223h5.391zm12.3 5.32c-.464 1.821-1.159 3.12-2.085 3.896-.927.776-2.188 1.187-3.786 1.235-.287 0-.431-.135-.431-.404v-2.732c0-.253.136-.395.407-.427.623-.063 1.102-.301 1.438-.713.351-.427.63-1.14.838-2.137.416-1.79.72-5.21.911-10.261.016-.286.168-.428.455-.428h10.423c.272 0 .407.142.407.428v16.127c0 .285-.136.428-.407.428h-3.019c-.272 0-.407-.143-.407-.428V29.295h-3.762c-.16 3.578-.487 6.381-.983 8.408zm14.015 5.012h-3.21c-.336 0-.448-.158-.336-.475l5.56-16.176c.095-.221.247-.332.454-.332h3.642c.224 0 .376.11.456.332L64.64 42.24c.128.317.016.475-.335.475h-3.187c-.255 0-.423-.119-.503-.356l-.886-2.898h-5.823l-.91 2.898c-.064.237-.224.356-.48.356zm4.241-12.826c-.08.253-.351 1.163-.814 2.731a154.262 154.262 0 0 1-1.055 3.54h3.858l-1.893-6.271h-.096zm21.04-8.409c-.177.966-.648 1.742-1.415 2.328-.75.57-1.733.855-2.947.855-1.198 0-2.172-.277-2.923-.831-.75-.57-1.214-1.338-1.39-2.304-.064-.222.048-.38.336-.475l1.965-.428c.24-.08.399.016.479.285.223.681.735 1.021 1.533 1.021.815 0 1.334-.34 1.558-1.02.08-.27.24-.365.479-.286l1.965.428c.255.079.375.221.36.427zm-1.175 21.235h2.971c.288 0 .431-.143.431-.428V26.16c0-.286-.143-.428-.43-.428h-3.188a.496.496 0 0 0-.479.285l-3.21 5.677c-1.263 2.39-2.117 4.085-2.564 5.083l-.072-.024c.175-2.233.263-4.347.263-6.342V26.16c0-.285-.143-.427-.43-.427h-2.972c-.272 0-.407.142-.407.428v16.127c0 .285.135.428.407.428h3.187a.547.547 0 0 0 .503-.285l3.115-5.13c.974-1.632 1.9-3.476 2.78-5.535l.071.024c-.255 2.565-.383 4.822-.383 6.77v3.728c0 .285.135.428.407.428zm16.196-10.332v-6.224c0-.285.144-.427.431-.427h2.995c.288 0 .431.142.431.428v16.127c0 .285-.143.428-.431.428H93.25c-.287 0-.431-.143-.431-.428v-6.365h-5.391v6.365c0 .285-.144.428-.432.428h-2.995c-.287 0-.431-.143-.431-.428V26.16c0-.286.144-.428.431-.428h2.995c.288 0 .432.142.432.428v6.223h5.39z" fill="#141954"/></svg>