<svg width="172" height="48" fill="none" xmlns="http://www.w3.org/2000/svg"><g opacity=".5" fill="#1B202A"><path d="M50.648 34.542V24.308h6.423l-.206 2.191h-3.858v1.622c.286-.057.678-.09 1.18-.09 1.002 0 1.81.289 2.42.863.612.574.922 1.342.922 2.295 0 1.072-.348 1.911-1.046 2.513-.697.602-1.685.906-2.96.906-.511 0-1.085-.014-1.715-.038-.64-.014-1.022-.028-1.16-.028zm3.343-4.311c-.306 0-.636.028-.989.085v2.035c.42.047.716.07.883.07.855 0 1.28-.35 1.28-1.052 0-.332-.095-.602-.286-.82-.191-.209-.487-.318-.888-.318zM61.498 34.542V24.308h6.318L67.61 26.5h-3.753v1.797h3.314v2.191h-3.314v1.859h3.901l.206 2.19h-6.466v.006zM74.086 34.542H71.73V24.308c.177 0 .674-.005 1.495-.014.822-.01 1.37-.014 1.657-.014 1.462 0 2.522.317 3.18.958.66.64.99 1.45.99 2.432 0 .954-.35 1.77-1.046 2.433-.698.669-1.62 1-2.77 1-.52 0-.903-.014-1.146-.042v3.48h-.005zm1.031-8.067c-.038 0-.382.01-1.031.029v2.338c.372.047.73.07 1.074.07.373 0 .698-.099.97-.293.277-.195.41-.517.41-.968.005-.782-.472-1.176-1.423-1.176zM84.793 34.542H82.73V24.308h2.354v6.36l4.566-6.36h2.063v10.234h-2.355v-6.36l-4.565 6.36zM96.13 34.542V24.308h2.368l3.181 4.316 3.004-4.316h2.225v10.234h-2.354v-6.52l-2.87 3.992h-.339l-2.856-3.945v6.477h-2.36v-.004zM110.585 29.425c0-1.513.507-2.77 1.524-3.78 1.017-1.01 2.335-1.512 3.954-1.512 1.6 0 2.913.483 3.94 1.446 1.027.968 1.537 2.248 1.537 3.846 0 1.541-.515 2.807-1.552 3.803-1.036.996-2.344 1.49-3.925 1.49-1.6 0-2.913-.484-3.94-1.447-1.022-.963-1.538-2.248-1.538-3.846zm2.503 0c0 .877.291 1.612.869 2.21.578.593 1.28.891 2.106.891.941 0 1.671-.289 2.192-.867.52-.579.778-1.323.778-2.23 0-.914-.286-1.659-.854-2.237-.569-.574-1.276-.864-2.121-.864-.864 0-1.576.285-2.134.854-.554.57-.836 1.318-.836 2.243zM125.222 34.542V24.308h6.418l-.205 2.191h-3.859v1.622c.287-.057.679-.09 1.18-.09 1.003 0 1.81.289 2.421.863.612.574.922 1.342.922 2.295 0 1.072-.349 1.911-1.046 2.513-.697.602-1.686.906-2.961.906a46.39 46.39 0 01-1.714-.038c-.635-.014-1.017-.028-1.156-.028zm3.343-4.311a6.25 6.25 0 00-.989.085v2.035c.421.047.717.07.884.07.855 0 1.28-.35 1.28-1.052 0-.332-.096-.602-.287-.82-.191-.209-.487-.318-.888-.318zM138.135 34.542h-2.063V24.308h2.355v6.36l4.565-6.36h2.063v10.234h-2.354v-6.36l-4.566 6.36zM155.255 34.542v-8.038h-2.268l-.22 1.93c-.157 1.337-.353 2.428-.587 3.282-.234.853-.54 1.503-.907 1.944-.368.446-.774.73-1.213.854-.445.128-.984.137-1.619.028l.043-2.338c.195.038.367.038.515 0 .148-.038.311-.161.488-.375.176-.208.329-.516.463-.92.133-.403.258-.99.382-1.764a32.15 32.15 0 00.301-2.793l.148-2.048h6.833v10.233h-2.359v.005zM164.386 24.308v3.201a7.91 7.91 0 01.913-.057c1.303 0 2.282.304 2.932.915.649.607.969 1.456.969 2.537 0 1.12-.382 2.011-1.146 2.675-.764.664-1.848.996-3.252.996-.392 0-.912-.005-1.552-.014a114.67 114.67 0 00-1.213-.015V24.308h2.349zm.707 5.34c-.148 0-.382.024-.707.07v2.604c.354.038.583.057.693.057 1.079 0 1.619-.474 1.619-1.418 0-.877-.535-1.313-1.605-1.313zM33.91 18.561c-.329-.327-.677-.63-1.03-.925-1.252 1.077-2.541 1.845-5.837 4.245-1.442 1.052-2.793 1.92-3.734 2.788 2.326.1 4.374 2.091 4.374 4.424 0 2.395-1.962 4.349-4.379 4.349-2.373 0-4.312-1.888-4.374-4.23h-.024c0-3.21 2.292-5.065 7.531-8.536 2.617-1.736 5.32-3.523 7.54-5.918 2.909-3.135 4.385-6.753 4.385-10.75h-10.63c0 2.826-2.193 4.575-7.197 7.89-2.694 1.783-5.473 3.628-7.77 6.132C9.79 21.278 8.28 25.039 8.28 29.207H8.3c.014 1.968.41 3.88 1.18 5.686a14.827 14.827 0 003.213 4.733A15.018 15.018 0 0023.3 43.989a15 15 0 0010.607-4.363 14.828 14.828 0 003.214-4.733 14.734 14.734 0 001.18-5.8c0-2.01-.397-3.96-1.18-5.8a14.737 14.737 0 00-3.21-4.732z"/></g></svg>