<svg xmlns="http://www.w3.org/2000/svg" width="35" height="7"><path fill="#fff" d="M2.75.682h29.5a2.75 2.75 0 0 1 0 5.5H2.75a2.75 2.75 0 1 1 0-5.5z"/><path fill="#eee" d="M2.75.682h29.5a2.75 2.75 0 0 1 0 5.5H2.75a2.75 2.75 0 1 1 0-5.5z"/><path fill="#fff" d="M2.75.682h7a2.75 2.75 0 0 1 0 5.5h-7a2.75 2.75 0 1 1 0-5.5z"/><path fill="#f76a2c" d="M2.75.682h7a2.75 2.75 0 0 1 0 5.5h-7a2.75 2.75 0 1 1 0-5.5z"/><path fill="#fff" d="M5.5 1.682h1v3.5h-1zm6 0h1v3.5h-1zm5.5 0h1v3.5h-1zm5.5 0h1v3.5h-1zm6 0h1v3.5h-1z" opacity=".5"/></svg>