<svg xmlns="http://www.w3.org/2000/svg" width="36" height="6"><path fill="#fff" d="M3.25.184h29.5a2.75 2.75 0 0 1 0 5.5H3.25a2.75 2.75 0 1 1 0-5.5z"/><path fill="#eee" d="M3.25.184h29.5a2.75 2.75 0 0 1 0 5.5H3.25a2.75 2.75 0 1 1 0-5.5z"/><path fill="#fff" d="M3.25.184h16a2.75 2.75 0 0 1 0 5.5h-16a2.75 2.75 0 1 1 0-5.5z"/><path fill="#f7b72c" d="M3.25.184h16a2.75 2.75 0 0 1 0 5.5h-16a2.75 2.75 0 1 1 0-5.5z"/><path fill="#fff" d="M6 1.183h1v3.5H6zm6 0h1v3.5h-1zm5.5 0h1v3.5h-1zm5.5 0h1v3.5h-1zm6 0h1v3.5h-1z" opacity=".5"/></svg>