<svg xmlns="http://www.w3.org/2000/svg" width="36" height="7"><path fill="#fff" d="M3.25.682h29.5a2.75 2.75 0 1 1 0 5.5H3.25a2.75 2.75 0 1 1 0-5.5z"/><path fill="#eee" d="M3.25.682h29.5a2.75 2.75 0 1 1 0 5.5H3.25a2.75 2.75 0 1 1 0-5.5z"/><path fill="#fff" d="M3.75.682h23a2.75 2.75 0 1 1 0 5.5h-23a2.75 2.75 0 1 1 0-5.5z"/><path fill="#538ce0" d="M3.75.682h23a2.75 2.75 0 1 1 0 5.5h-23a2.75 2.75 0 1 1 0-5.5z"/><path fill="#fff" d="M6 1.682h1v3.5H6zm6 0h1v3.5h-1zm5.5 0h1v3.5h-1zm5.5 0h1v3.5h-1zm6 0h1v3.5h-1z" opacity=".5"/></svg>