<svg xmlns="http://www.w3.org/2000/svg" width="35" height="6"><defs><clipPath id="a"><path fill="#fff" d="M2.75.164h29.5a2.75 2.75 0 0 1 0 5.5H2.75a2.75 2.75 0 0 1 0-5.5z"/></clipPath></defs><path fill="#fff" d="M2.75.164h29.5a2.75 2.75 0 0 1 0 5.5H2.75a2.75 2.75 0 0 1 0-5.5z"/><path fill="#53b93f" d="M2.75.164h29.5a2.75 2.75 0 0 1 0 5.5H2.75a2.75 2.75 0 0 1 0-5.5z"/><path fill="none" stroke="#53b93f" stroke-linecap="round" stroke-linejoin="round" stroke-miterlimit="20" stroke-width="2" d="M2.75.164h29.5A2.75 2.75 0 0 1 35 2.914v0a2.75 2.75 0 0 1-2.75 2.75H2.75A2.75 2.75 0 0 1 0 2.914v0A2.75 2.75 0 0 1 2.75.164z" clip-path="url(&quot;#a&quot;)"/><path fill="#fff" d="M5.5 1.164h1v3.5h-1zm6 0h1v3.5h-1zm5.5 0h1v3.5h-1zm5.5 0h1v3.5h-1zm6 0h1v3.5h-1z" opacity=".5"/></svg>