<svg width="111" height="110" viewBox="0 0 111 110" fill="none" xmlns="http://www.w3.org/2000/svg">
<path d="M40.267 5.40496e-07H35.867V4.4H40.267V5.40496e-07Z" fill="white"/>
<path d="M44.667 5.40496e-07H40.267V4.4H44.667V5.40496e-07Z" fill="white"/>
<path d="M53.467 5.40496e-07H49.067V4.4H53.467V5.40496e-07Z" fill="white"/>
<path d="M66.667 5.40496e-07H62.267V4.4H66.667V5.40496e-07Z" fill="white"/>
<path d="M75.467 4.4H71.067V8.8H75.467V4.4Z" fill="white"/>
<path d="M40.267 8.8H35.867V13.2H40.267V8.8Z" fill="white"/>
<path d="M49.067 8.8H44.667V13.2H49.067V8.8Z" fill="white"/>
<path d="M53.467 8.8H49.067V13.2H53.467V8.8Z" fill="white"/>
<path d="M62.267 8.8H57.867V13.2H62.267V8.8Z" fill="white"/>
<path d="M71.067 8.8H66.667V13.2H71.067V8.8Z" fill="white"/>
<path d="M75.467 8.8H71.067V13.2H75.467V8.8Z" fill="white"/>
<path d="M57.867 13.2H53.467V17.6H57.867L57.867 13.2Z" fill="white"/>
<path d="M62.267 13.2H57.867L57.867 17.6H62.267V13.2Z" fill="white"/>
<path d="M44.667 17.6H40.267V22H44.667V17.6Z" fill="white"/>
<path d="M49.067 17.6H44.667V22H49.067V17.6Z" fill="white"/>
<path d="M53.467 17.6H49.067V22H53.467V17.6Z" fill="white"/>
<path d="M66.667 17.6H62.267V22H66.667V17.6Z" fill="white"/>
<path d="M40.267 22L35.867 22V26.4H40.267L40.267 22Z" fill="white"/>
<path d="M44.667 22H40.267L40.267 26.4H44.667V22Z" fill="white"/>
<path d="M49.067 22H44.667V26.4H49.067V22Z" fill="white"/>
<path d="M62.267 22L57.867 22V26.4H62.267V22Z" fill="white"/>
<path d="M66.667 22H62.267V26.4H66.667V22Z" fill="white"/>
<path d="M40.267 26.4H35.867V30.8H40.267V26.4Z" fill="white"/>
<path d="M49.067 26.4H44.667L44.667 30.8H49.067V26.4Z" fill="white"/>
<path d="M57.867 26.4H53.467V30.8H57.867L57.867 26.4Z" fill="white"/>
<path d="M66.667 26.4H62.267V30.8H66.667V26.4Z" fill="white"/>
<path d="M75.467 26.4H71.067V30.8H75.467V26.4Z" fill="white"/>
<path d="M53.467 30.8H49.067V35.2H53.467V30.8Z" fill="white"/>
<path d="M57.867 30.8H53.467V35.2H57.867V30.8Z" fill="white"/>
<path d="M66.667 30.8H62.267V35.2H66.667V30.8Z" fill="white"/>
<path d="M71.067 30.8H66.667V35.2H71.067V30.8Z" fill="white"/>
<path d="M75.467 30.8H71.067V35.2H75.467V30.8Z" fill="white"/>
<path d="M5.06699 35.2H0.666992V39.6H5.06699V35.2Z" fill="white"/>
<path d="M13.867 35.2H9.46699V39.6H13.867V35.2Z" fill="white"/>
<path d="M31.467 35.2H27.067V39.6H31.467V35.2Z" fill="white"/>
<path d="M35.867 35.2H31.467V39.6H35.867V35.2Z" fill="white"/>
<path d="M49.067 35.2H44.667V39.6H49.067V35.2Z" fill="white"/>
<path d="M57.867 35.2H53.467V39.6H57.867V35.2Z" fill="white"/>
<path d="M62.267 35.2H57.867V39.6H62.267V35.2Z" fill="white"/>
<path d="M66.667 35.2H62.267V39.6H66.667V35.2Z" fill="white"/>
<path d="M75.467 35.2H71.067V39.6H75.467V35.2Z" fill="white"/>
<path d="M88.667 35.2H84.267V39.6H88.667V35.2Z" fill="white"/>
<path d="M101.867 35.2H97.467V39.6H101.867V35.2Z" fill="white"/>
<path d="M110.667 35.2H106.267V39.6H110.667V35.2Z" fill="white"/>
<path d="M13.867 39.6H9.46699V44H13.867V39.6Z" fill="white"/>
<path d="M27.067 39.6H22.667V44H27.067L27.067 39.6Z" fill="white"/>
<path d="M35.867 39.6H31.467V44H35.867V39.6Z" fill="white"/>
<path d="M40.267 39.6H35.867V44H40.267V39.6Z" fill="white"/>
<path d="M49.067 39.6H44.667V44H49.067V39.6Z" fill="white"/>
<path d="M57.867 39.6H53.467V44H57.867V39.6Z" fill="white"/>
<path d="M62.267 39.6H57.867V44H62.267V39.6Z" fill="white"/>
<path d="M71.067 39.6H66.667V44H71.067V39.6Z" fill="white"/>
<path d="M84.267 39.6H79.867V44H84.267L84.267 39.6Z" fill="white"/>
<path d="M88.667 39.6H84.267L84.267 44H88.667V39.6Z" fill="white"/>
<path d="M97.467 39.6H93.067V44H97.467L97.467 39.6Z" fill="white"/>
<path d="M106.267 39.6H101.867V44H106.267V39.6Z" fill="white"/>
<path d="M110.667 39.6H106.267V44H110.667V39.6Z" fill="white"/>
<path d="M5.06699 44H0.666992V48.4H5.06699V44Z" fill="white"/>
<path d="M9.46699 44L5.06699 44V48.4H9.46699V44Z" fill="white"/>
<path d="M13.867 44H9.46699V48.4H13.867V44Z" fill="white"/>
<path d="M27.067 44H22.667V48.4H27.067V44Z" fill="white"/>
<path d="M31.467 44H27.067V48.4H31.467V44Z" fill="white"/>
<path d="M40.267 44H35.867V48.4H40.267V44Z" fill="white"/>
<path d="M44.667 44H40.267V48.4H44.667L44.667 44Z" fill="white"/>
<path d="M71.067 44H66.667V48.4H71.067V44Z" fill="white"/>
<path d="M75.467 44L71.067 44V48.4H75.467V44Z" fill="white"/>
<path d="M79.867 44L75.467 44V48.4H79.867V44Z" fill="white"/>
<path d="M88.667 44H84.267L84.267 48.4H88.667V44Z" fill="white"/>
<path d="M93.067 44H88.667V48.4H93.067L93.067 44Z" fill="white"/>
<path d="M97.467 44H93.067L93.067 48.4H97.467V44Z" fill="white"/>
<path d="M101.867 44H97.467V48.4H101.867V44Z" fill="white"/>
<path d="M110.667 44H106.267V48.4H110.667V44Z" fill="white"/>
<path d="M5.06699 48.4H0.666992V52.8H5.06699V48.4Z" fill="white"/>
<path d="M9.46699 48.4H5.06699V52.8H9.46699V48.4Z" fill="white"/>
<path d="M18.267 48.4H13.867V52.8H18.267V48.4Z" fill="white"/>
<path d="M22.667 48.4H18.267V52.8H22.667V48.4Z" fill="white"/>
<path d="M35.867 48.4H31.467V52.8H35.867V48.4Z" fill="white"/>
<path d="M40.267 48.4H35.867V52.8H40.267V48.4Z" fill="white"/>
<path d="M62.267 48.4H57.867V52.8H62.267V48.4Z" fill="white"/>
<path d="M71.067 48.4H66.667V52.8H71.067V48.4Z" fill="white"/>
<path d="M93.067 48.4H88.667V52.8H93.067V48.4Z" fill="white"/>
<path d="M97.467 48.4H93.067V52.8H97.467V48.4Z" fill="white"/>
<path d="M9.46699 52.8H5.06699V57.2H9.46699V52.8Z" fill="white"/>
<path d="M18.267 52.8H13.867V57.2H18.267V52.8Z" fill="white"/>
<path d="M31.467 52.8H27.067V57.2H31.467V52.8Z" fill="white"/>
<path d="M35.867 52.8H31.467V57.2H35.867V52.8Z" fill="white"/>
<path d="M44.667 52.8H40.267L40.267 57.2H44.667V52.8Z" fill="white"/>
<path d="M53.467 52.8H49.067V57.2H53.467V52.8Z" fill="white"/>
<path d="M57.867 52.8H53.467V57.2H57.867L57.867 52.8Z" fill="white"/>
<path d="M62.267 52.8H57.867L57.867 57.2H62.267V52.8Z" fill="white"/>
<path d="M71.067 52.8H66.667V57.2H71.067V52.8Z" fill="white"/>
<path d="M84.267 52.8H79.867V57.2H84.267V52.8Z" fill="white"/>
<path d="M110.667 52.8H106.267V57.2H110.667V52.8Z" fill="white"/>
<path d="M18.267 57.2H13.867V61.6H18.267V57.2Z" fill="white"/>
<path d="M22.667 57.2L18.267 57.2V61.6H22.667V57.2Z" fill="white"/>
<path d="M40.267 57.2H35.867V61.6H40.267L40.267 57.2Z" fill="white"/>
<path d="M44.667 57.2H40.267L40.267 61.6H44.667V57.2Z" fill="white"/>
<path d="M49.067 57.2H44.667V61.6H49.067V57.2Z" fill="white"/>
<path d="M57.867 57.2H53.467V61.6H57.867V57.2Z" fill="white"/>
<path d="M71.067 57.2H66.667V61.6H71.067V57.2Z" fill="white"/>
<path d="M75.467 57.2L71.067 57.2V61.6H75.467V57.2Z" fill="white"/>
<path d="M79.867 57.2L75.467 57.2V61.6H79.867V57.2Z" fill="white"/>
<path d="M84.267 57.2H79.867V61.6H84.267V57.2Z" fill="white"/>
<path d="M88.667 57.2L84.267 57.2V61.6H88.667V57.2Z" fill="white"/>
<path d="M106.267 57.2L101.867 57.2V61.6H106.267V57.2Z" fill="white"/>
<path d="M110.667 57.2H106.267V61.6H110.667V57.2Z" fill="white"/>
<path d="M5.06699 61.6H0.666992V66H5.06699V61.6Z" fill="white"/>
<path d="M9.46699 61.6H5.06699V66H9.46699V61.6Z" fill="white"/>
<path d="M18.267 61.6H13.867V66H18.267V61.6Z" fill="white"/>
<path d="M22.667 61.6H18.267V66H22.667V61.6Z" fill="white"/>
<path d="M31.467 61.6H27.067V66H31.467V61.6Z" fill="white"/>
<path d="M35.867 61.6H31.467V66H35.867V61.6Z" fill="white"/>
<path d="M40.267 61.6H35.867V66H40.267V61.6Z" fill="white"/>
<path d="M44.667 61.6H40.267V66H44.667V61.6Z" fill="white"/>
<path d="M57.867 61.6H53.467V66H57.867V61.6Z" fill="white"/>
<path d="M62.267 61.6H57.867V66H62.267V61.6Z" fill="white"/>
<path d="M66.667 61.6H62.267V66H66.667V61.6Z" fill="white"/>
<path d="M71.067 61.6H66.667V66H71.067V61.6Z" fill="white"/>
<path d="M84.267 61.6H79.867V66H84.267V61.6Z" fill="white"/>
<path d="M97.467 61.6H93.067V66H97.467V61.6Z" fill="white"/>
<path d="M101.867 61.6H97.467V66H101.867V61.6Z" fill="white"/>
<path d="M110.667 61.6H106.267V66H110.667V61.6Z" fill="white"/>
<path d="M18.267 66H13.867V70.4H18.267V66Z" fill="white"/>
<path d="M22.667 66H18.267V70.4H22.667V66Z" fill="white"/>
<path d="M27.067 66H22.667V70.4H27.067L27.067 66Z" fill="white"/>
<path d="M35.867 66H31.467V70.4H35.867V66Z" fill="white"/>
<path d="M40.267 66H35.867V70.4H40.267V66Z" fill="white"/>
<path d="M53.467 66H49.067V70.4H53.467V66Z" fill="white"/>
<path d="M57.867 66H53.467V70.4H57.867V66Z" fill="white"/>
<path d="M66.667 66H62.267V70.4H66.667V66Z" fill="white"/>
<path d="M75.467 66H71.067V70.4H75.467V66Z" fill="white"/>
<path d="M79.867 66H75.467V70.4H79.867V66Z" fill="white"/>
<path d="M88.667 66H84.267L84.267 70.4H88.667V66Z" fill="white"/>
<path d="M93.067 66H88.667V70.4H93.067L93.067 66Z" fill="white"/>
<path d="M97.467 66H93.067L93.067 70.4H97.467V66Z" fill="white"/>
<path d="M5.06699 70.4H0.666992V74.8H5.06699V70.4Z" fill="white"/>
<path d="M9.46699 70.4H5.06699V74.8H9.46699V70.4Z" fill="white"/>
<path d="M22.667 70.4H18.267V74.8H22.667V70.4Z" fill="white"/>
<path d="M27.067 70.4H22.667V74.8H27.067V70.4Z" fill="white"/>
<path d="M31.467 70.4H27.067V74.8H31.467V70.4Z" fill="white"/>
<path d="M35.867 70.4H31.467V74.8H35.867V70.4Z" fill="white"/>
<path d="M49.067 70.4H44.667V74.8H49.067V70.4Z" fill="white"/>
<path d="M62.267 70.4H57.867L57.867 74.8H62.267V70.4Z" fill="white"/>
<path d="M66.667 70.4H62.267V74.8H66.667V70.4Z" fill="white"/>
<path d="M71.067 70.4H66.667V74.8H71.067V70.4Z" fill="white"/>
<path d="M75.467 70.4H71.067V74.8H75.467V70.4Z" fill="white"/>
<path d="M79.867 70.4H75.467V74.8H79.867V70.4Z" fill="white"/>
<path d="M84.267 70.4H79.867V74.8H84.267L84.267 70.4Z" fill="white"/>
<path d="M88.667 70.4H84.267L84.267 74.8H88.667V70.4Z" fill="white"/>
<path d="M93.067 70.4H88.667V74.8H93.067V70.4Z" fill="white"/>
<path d="M106.267 70.4H101.867V74.8H106.267V70.4Z" fill="white"/>
<path d="M40.267 74.8H35.867V79.2H40.267V74.8Z" fill="white"/>
<path d="M44.667 74.8H40.267V79.2H44.667L44.667 74.8Z" fill="white"/>
<path d="M49.067 74.8H44.667L44.667 79.2H49.067V74.8Z" fill="white"/>
<path d="M62.267 74.8H57.867V79.2H62.267V74.8Z" fill="white"/>
<path d="M66.667 74.8H62.267V79.2H66.667V74.8Z" fill="white"/>
<path d="M75.467 74.8H71.067V79.2H75.467V74.8Z" fill="white"/>
<path d="M93.067 74.8H88.667V79.2H93.067V74.8Z" fill="white"/>
<path d="M110.667 74.8H106.267V79.2H110.667V74.8Z" fill="white"/>
<path d="M40.267 79.2H35.867V83.6H40.267V79.2Z" fill="white"/>
<path d="M44.667 79.2H40.267V83.6H44.667V79.2Z" fill="white"/>
<path d="M49.067 79.2H44.667V83.6H49.067V79.2Z" fill="white"/>
<path d="M53.467 79.2H49.067V83.6H53.467V79.2Z" fill="white"/>
<path d="M75.467 79.2H71.067V83.6H75.467V79.2Z" fill="white"/>
<path d="M84.267 79.2H79.867V83.6H84.267V79.2Z" fill="white"/>
<path d="M93.067 79.2H88.667V83.6H93.067V79.2Z" fill="white"/>
<path d="M110.667 79.2H106.267V83.6H110.667V79.2Z" fill="white"/>
<path d="M49.067 83.6H44.667L44.667 88H49.067V83.6Z" fill="white"/>
<path d="M62.267 83.6H57.867V88H62.267V83.6Z" fill="white"/>
<path d="M71.067 83.6L66.667 83.6V88H71.067V83.6Z" fill="white"/>
<path d="M75.467 83.6H71.067V88H75.467V83.6Z" fill="white"/>
<path d="M93.067 83.6H88.667V88H93.067V83.6Z" fill="white"/>
<path d="M106.267 83.6L101.867 83.6V88H106.267V83.6Z" fill="white"/>
<path d="M110.667 83.6H106.267V88H110.667V83.6Z" fill="white"/>
<path d="M53.467 88H49.067V92.4H53.467V88Z" fill="white"/>
<path d="M57.867 88H53.467V92.4H57.867L57.867 88Z" fill="white"/>
<path d="M62.267 88H57.867L57.867 92.4H62.267V88Z" fill="white"/>
<path d="M71.067 88H66.667V92.4H71.067V88Z" fill="white"/>
<path d="M75.467 88H71.067V92.4H75.467V88Z" fill="white"/>
<path d="M79.867 88H75.467V92.4H79.867V88Z" fill="white"/>
<path d="M84.267 88H79.867V92.4H84.267V88Z" fill="white"/>
<path d="M88.667 88H84.267V92.4H88.667V88Z" fill="white"/>
<path d="M93.067 88H88.667V92.4H93.067V88Z" fill="white"/>
<path d="M106.267 88H101.867V92.4H106.267V88Z" fill="white"/>
<path d="M110.667 88H106.267V92.4H110.667V88Z" fill="white"/>
<path d="M57.867 92.4H53.467V96.8H57.867V92.4Z" fill="white"/>
<path d="M79.867 92.4H75.467V96.8H79.867V92.4Z" fill="white"/>
<path d="M93.067 92.4H88.667V96.8H93.067V92.4Z" fill="white"/>
<path d="M101.867 92.4L97.467 92.4V96.8H101.867V92.4Z" fill="white"/>
<path d="M106.267 92.4H101.867V96.8H106.267V92.4Z" fill="white"/>
<path d="M40.267 96.8H35.867V101.2H40.267V96.8Z" fill="white"/>
<path d="M44.667 96.8H40.267V101.2H44.667V96.8Z" fill="white"/>
<path d="M57.867 96.8H53.467V101.2H57.867V96.8Z" fill="white"/>
<path d="M62.267 96.8L57.867 96.8V101.2H62.267V96.8Z" fill="white"/>
<path d="M66.667 96.8H62.267V101.2H66.667V96.8Z" fill="white"/>
<path d="M75.467 96.8L71.067 96.8V101.2H75.467V96.8Z" fill="white"/>
<path d="M79.867 96.8H75.467V101.2H79.867V96.8Z" fill="white"/>
<path d="M88.667 96.8L84.267 96.8V101.2H88.667V96.8Z" fill="white"/>
<path d="M93.067 96.8H88.667V101.2H93.067V96.8Z" fill="white"/>
<path d="M97.467 96.8H93.067V101.2H97.467L97.467 96.8Z" fill="white"/>
<path d="M106.267 96.8H101.867V101.2H106.267V96.8Z" fill="white"/>
<path d="M110.667 96.8L106.267 96.8V101.2H110.667V96.8Z" fill="white"/>
<path d="M44.667 101.2H40.267L40.267 105.6H44.667V101.2Z" fill="white"/>
<path d="M49.067 101.2H44.667V105.6H49.067V101.2Z" fill="white"/>
<path d="M53.467 101.2H49.067V105.6H53.467V101.2Z" fill="white"/>
<path d="M57.867 101.2H53.467V105.6H57.867V101.2Z" fill="white"/>
<path d="M66.667 101.2H62.267V105.6H66.667V101.2Z" fill="white"/>
<path d="M71.067 101.2H66.667V105.6H71.067V101.2Z" fill="white"/>
<path d="M75.467 101.2H71.067V105.6H75.467V101.2Z" fill="white"/>
<path d="M79.867 101.2H75.467V105.6H79.867V101.2Z" fill="white"/>
<path d="M84.267 101.2H79.867V105.6H84.267L84.267 101.2Z" fill="white"/>
<path d="M88.667 101.2H84.267L84.267 105.6H88.667V101.2Z" fill="white"/>
<path d="M93.067 101.2H88.667V105.6H93.067V101.2Z" fill="white"/>
<path d="M40.267 105.6H35.867V110H40.267L40.267 105.6Z" fill="white"/>
<path d="M44.667 105.6H40.267L40.267 110H44.667V105.6Z" fill="white"/>
<path d="M62.267 105.6H57.867L57.867 110H62.267V105.6Z" fill="white"/>
<path d="M66.667 105.6H62.267V110H66.667V105.6Z" fill="white"/>
<path d="M75.467 105.6H71.067V110H75.467V105.6Z" fill="white"/>
<path d="M79.867 105.6H75.467V110H79.867V105.6Z" fill="white"/>
<path d="M97.467 105.6H93.067L93.067 110H97.467V105.6Z" fill="white"/>
<path d="M110.667 105.6H106.267V110H110.667V105.6Z" fill="white"/>
<path d="M31.467 3.19505e-07V20.2846C31.467 22.8998 31.467 30.8 31.467 30.8C31.467 30.8 24.2167 30.8 21.072 30.8H0.666992L0.673152 10.5154C0.673152 4.71856 5.33627 3.19505e-07 11.0712 3.19505e-07H31.467ZM26.847 4.62H11.0712C7.88528 4.62 5.29315 7.26449 5.29315 10.5167L5.28822 26.18H26.847V4.62Z" fill="white"/>
<path d="M79.867 0V20.2846C79.867 22.8998 79.867 30.8 79.867 30.8C79.867 30.8 87.1173 30.8 90.262 30.8H110.667L110.661 10.5154C110.661 4.71856 105.998 0 100.263 0H79.867ZM84.487 4.62H100.263C103.449 4.62 106.041 7.26449 106.041 10.5167L106.046 26.18H84.487V4.62Z" fill="white"/>
<path d="M31.467 110V89.7154C31.467 87.1002 31.467 79.2 31.467 79.2C31.467 79.2 24.2167 79.2 21.072 79.2H0.666992L0.673152 99.4846C0.673152 105.281 5.33627 110 11.0712 110H31.467ZM26.847 105.38H11.0712C7.88528 105.38 5.29315 102.736 5.29315 99.4833L5.28822 83.82H26.847V105.38Z" fill="white"/>
<path d="M22.675 8.80211V22H9.47504L9.47874 12.4473C9.47861 10.4365 11.0866 8.8 13.0608 8.8H19.0705C19.6885 8.8 20.5896 8.8 21.3371 8.80211C22.0828 8.80211 22.675 8.80211 22.675 8.80211Z" fill="white"/>
<path d="M88.6589 8.80211V22H101.859L101.855 12.4473C101.855 10.4365 100.247 8.8 98.2732 8.8H92.2635C91.6454 8.8 90.7444 8.8 89.9969 8.80211C89.2512 8.80211 88.6589 8.80211 88.6589 8.80211Z" fill="white"/>
<path d="M22.675 101.198V88H9.47504L9.47874 97.5527C9.47861 99.5635 11.0866 101.2 13.0608 101.2H19.0705C19.6885 101.2 20.5896 101.2 21.3371 101.198C22.0828 101.198 22.675 101.198 22.675 101.198Z" fill="white"/>
</svg>
