<svg width="170" height="170" viewBox="0 0 170 170" fill="none" xmlns="http://www.w3.org/2000/svg">
<path d="M61.2241 8.34465e-07H54.431V6.7931H61.2241V8.34465e-07Z" fill="white"/>
<path d="M68.0172 8.34465e-07H61.2241V6.7931H68.0172V8.34465e-07Z" fill="white"/>
<path d="M81.6034 8.34465e-07H74.8103V6.7931H81.6034V8.34465e-07Z" fill="white"/>
<path d="M101.983 8.34465e-07H95.1896V6.7931H101.983V8.34465e-07Z" fill="white"/>
<path d="M115.569 6.7931H108.776V13.5862H115.569V6.7931Z" fill="white"/>
<path d="M61.2241 13.5862H54.431V20.3793H61.2241V13.5862Z" fill="white"/>
<path d="M74.8103 13.5862H68.0172V20.3793H74.8103V13.5862Z" fill="white"/>
<path d="M81.6034 13.5862H74.8103V20.3793H81.6034V13.5862Z" fill="white"/>
<path d="M95.1896 13.5862H88.3965V20.3793H95.1896V13.5862Z" fill="white"/>
<path d="M108.776 13.5862H101.983V20.3793H108.776L108.776 13.5862Z" fill="white"/>
<path d="M115.569 13.5862H108.776L108.776 20.3793H115.569V13.5862Z" fill="white"/>
<path d="M88.3965 20.3793H81.6034V27.1724H88.3965L88.3965 20.3793Z" fill="white"/>
<path d="M95.1896 20.3793H88.3965L88.3965 27.1724H95.1896V20.3793Z" fill="white"/>
<path d="M68.0172 27.1724H61.2241V33.9655H68.0172V27.1724Z" fill="white"/>
<path d="M74.8103 27.1724H68.0172V33.9655H74.8103V27.1724Z" fill="white"/>
<path d="M81.6034 27.1724H74.8103V33.9655H81.6034V27.1724Z" fill="white"/>
<path d="M101.983 27.1724H95.1896V33.9655H101.983V27.1724Z" fill="white"/>
<path d="M61.2241 33.9655L54.431 33.9655V40.7586H61.2241L61.2241 33.9655Z" fill="white"/>
<path d="M68.0172 33.9655H61.2241L61.2241 40.7586H68.0172V33.9655Z" fill="white"/>
<path d="M74.8103 33.9655H68.0172V40.7586H74.8103V33.9655Z" fill="white"/>
<path d="M95.1896 33.9655L88.3965 33.9655V40.7586H95.1896V33.9655Z" fill="white"/>
<path d="M101.983 33.9655H95.1896V40.7586H101.983V33.9655Z" fill="white"/>
<path d="M61.2241 40.7586H54.431V47.5517H61.2241V40.7586Z" fill="white"/>
<path d="M74.8103 40.7586H68.0172L68.0172 47.5517H74.8103V40.7586Z" fill="white"/>
<path d="M88.3965 40.7586H81.6034V47.5517H88.3965L88.3965 40.7586Z" fill="white"/>
<path d="M101.983 40.7586H95.1896V47.5517H101.983V40.7586Z" fill="white"/>
<path d="M115.569 40.7586H108.776V47.5517H115.569V40.7586Z" fill="white"/>
<path d="M81.6034 47.5517H74.8103V54.3448H81.6034V47.5517Z" fill="white"/>
<path d="M88.3965 47.5517H81.6034V54.3448H88.3965V47.5517Z" fill="white"/>
<path d="M101.983 47.5517H95.1896V54.3448H101.983V47.5517Z" fill="white"/>
<path d="M108.776 47.5517H101.983V54.3448H108.776L108.776 47.5517Z" fill="white"/>
<path d="M115.569 47.5517H108.776L108.776 54.3448H115.569V47.5517Z" fill="white"/>
<path d="M6.87928 54.3448H0.0861816V61.1379H6.87928V54.3448Z" fill="white"/>
<path d="M20.4655 54.3448H13.6724V61.1379H20.4655V54.3448Z" fill="white"/>
<path d="M47.6379 54.3448H40.8448V61.1379H47.6379V54.3448Z" fill="white"/>
<path d="M54.431 54.3448H47.6379V61.1379H54.431V54.3448Z" fill="white"/>
<path d="M74.8103 54.3448L68.0172 54.3448V61.1379H74.8103V54.3448Z" fill="white"/>
<path d="M88.3965 54.3448H81.6034V61.1379H88.3965V54.3448Z" fill="white"/>
<path d="M95.1896 54.3448H88.3965V61.1379H95.1896V54.3448Z" fill="white"/>
<path d="M101.983 54.3448H95.1896V61.1379H101.983V54.3448Z" fill="white"/>
<path d="M115.569 54.3448H108.776L108.776 61.1379H115.569V54.3448Z" fill="white"/>
<path d="M135.948 54.3448H129.155V61.1379H135.948V54.3448Z" fill="white"/>
<path d="M156.328 54.3448H149.534V61.1379H156.328V54.3448Z" fill="white"/>
<path d="M169.914 54.3448H163.121V61.1379H169.914V54.3448Z" fill="white"/>
<path d="M20.4655 61.1379H13.6724V67.931H20.4655V61.1379Z" fill="white"/>
<path d="M40.8448 61.1379H34.0517V67.931H40.8448L40.8448 61.1379Z" fill="white"/>
<path d="M54.431 61.1379H47.6379V67.931H54.431V61.1379Z" fill="white"/>
<path d="M61.2241 61.1379H54.431V67.931H61.2241V61.1379Z" fill="white"/>
<path d="M74.8103 61.1379H68.0172V67.931H74.8103V61.1379Z" fill="white"/>
<path d="M88.3965 61.1379H81.6034V67.931H88.3965V61.1379Z" fill="white"/>
<path d="M95.1896 61.1379H88.3965V67.931H95.1896V61.1379Z" fill="white"/>
<path d="M108.776 61.1379H101.983V67.931H108.776L108.776 61.1379Z" fill="white"/>
<path d="M129.155 61.1379H122.362V67.931H129.155L129.155 61.1379Z" fill="white"/>
<path d="M135.948 61.1379H129.155L129.155 67.931H135.948V61.1379Z" fill="white"/>
<path d="M149.534 61.1379H142.741V67.931H149.534L149.534 61.1379Z" fill="white"/>
<path d="M163.121 61.1379H156.328V67.931H163.121V61.1379Z" fill="white"/>
<path d="M169.914 61.1379H163.121V67.931H169.914V61.1379Z" fill="white"/>
<path d="M6.87928 67.931H0.0861816V74.7241H6.87928V67.931Z" fill="white"/>
<path d="M13.6724 67.931L6.87928 67.931V74.7241H13.6724V67.931Z" fill="white"/>
<path d="M20.4655 67.931H13.6724V74.7241H20.4655V67.931Z" fill="white"/>
<path d="M40.8448 67.931H34.0517V74.7241H40.8448V67.931Z" fill="white"/>
<path d="M47.6379 67.931H40.8448V74.7241H47.6379V67.931Z" fill="white"/>
<path d="M61.2241 67.931H54.431V74.7241H61.2241V67.931Z" fill="white"/>
<path d="M68.0172 67.931H61.2241V74.7241H68.0172L68.0172 67.931Z" fill="white"/>
<path d="M108.776 67.931H101.983V74.7241H108.776V67.931Z" fill="white"/>
<path d="M115.569 67.931L108.776 67.931V74.7241H115.569V67.931Z" fill="white"/>
<path d="M122.362 67.931L115.569 67.931V74.7241H122.362V67.931Z" fill="white"/>
<path d="M135.948 67.931H129.155L129.155 74.7241H135.948V67.931Z" fill="white"/>
<path d="M142.741 67.931H135.948V74.7241H142.741L142.741 67.931Z" fill="white"/>
<path d="M149.534 67.931H142.741L142.741 74.7241H149.534V67.931Z" fill="white"/>
<path d="M156.328 67.931H149.534V74.7241H156.328V67.931Z" fill="white"/>
<path d="M169.914 67.931H163.121V74.7241H169.914V67.931Z" fill="white"/>
<path d="M6.87928 74.7241H0.0861816V81.5172H6.87928V74.7241Z" fill="white"/>
<path d="M13.6724 74.7241H6.87928V81.5172H13.6724V74.7241Z" fill="white"/>
<path d="M27.2586 74.7241H20.4655V81.5172H27.2586V74.7241Z" fill="white"/>
<path d="M34.0517 74.7241H27.2586V81.5172H34.0517V74.7241Z" fill="white"/>
<path d="M54.431 74.7241H47.6379V81.5172H54.431V74.7241Z" fill="white"/>
<path d="M61.2241 74.7241H54.431V81.5172H61.2241V74.7241Z" fill="white"/>
<path d="M95.1896 74.7241H88.3965V81.5172H95.1896V74.7241Z" fill="white"/>
<path d="M108.776 74.7241H101.983V81.5172H108.776V74.7241Z" fill="white"/>
<path d="M142.741 74.7241H135.948V81.5172H142.741V74.7241Z" fill="white"/>
<path d="M149.534 74.7241H142.741V81.5172H149.534V74.7241Z" fill="white"/>
<path d="M13.6724 81.5172H6.87928L6.87929 88.3103H13.6724V81.5172Z" fill="white"/>
<path d="M27.2586 81.5172H20.4655V88.3103H27.2586V81.5172Z" fill="white"/>
<path d="M47.6379 81.5172H40.8448V88.3103H47.6379V81.5172Z" fill="white"/>
<path d="M54.431 81.5172H47.6379V88.3103H54.431V81.5172Z" fill="white"/>
<path d="M68.0172 81.5172H61.2241L61.2241 88.3103H68.0172V81.5172Z" fill="white"/>
<path d="M81.6034 81.5172H74.8103V88.3103H81.6034V81.5172Z" fill="white"/>
<path d="M88.3965 81.5172H81.6034V88.3103H88.3965L88.3965 81.5172Z" fill="white"/>
<path d="M95.1896 81.5172H88.3965L88.3965 88.3103H95.1896V81.5172Z" fill="white"/>
<path d="M108.776 81.5172H101.983V88.3103H108.776V81.5172Z" fill="white"/>
<path d="M129.155 81.5172H122.362V88.3103H129.155V81.5172Z" fill="white"/>
<path d="M169.914 81.5172H163.121V88.3103H169.914V81.5172Z" fill="white"/>
<path d="M27.2586 88.3103H20.4655V95.1034H27.2586V88.3103Z" fill="white"/>
<path d="M34.0517 88.3103L27.2586 88.3103V95.1034H34.0517V88.3103Z" fill="white"/>
<path d="M61.2241 88.3103H54.431V95.1034H61.2241L61.2241 88.3103Z" fill="white"/>
<path d="M68.0172 88.3103H61.2241L61.2241 95.1034H68.0172V88.3103Z" fill="white"/>
<path d="M74.8103 88.3103H68.0172V95.1034H74.8103V88.3103Z" fill="white"/>
<path d="M88.3965 88.3103H81.6034V95.1034H88.3965V88.3103Z" fill="white"/>
<path d="M108.776 88.3103H101.983V95.1034H108.776V88.3103Z" fill="white"/>
<path d="M115.569 88.3103L108.776 88.3103V95.1034H115.569V88.3103Z" fill="white"/>
<path d="M122.362 88.3103L115.569 88.3103V95.1034H122.362V88.3103Z" fill="white"/>
<path d="M129.155 88.3103H122.362V95.1034H129.155V88.3103Z" fill="white"/>
<path d="M135.948 88.3103L129.155 88.3103V95.1034H135.948V88.3103Z" fill="white"/>
<path d="M163.121 88.3103L156.328 88.3103V95.1034H163.121V88.3103Z" fill="white"/>
<path d="M169.914 88.3103H163.121V95.1034H169.914V88.3103Z" fill="white"/>
<path d="M6.87928 95.1034H0.0861816V101.897H6.87928V95.1034Z" fill="white"/>
<path d="M13.6724 95.1034H6.87928V101.897H13.6724V95.1034Z" fill="white"/>
<path d="M27.2586 95.1034H20.4655V101.897H27.2586V95.1034Z" fill="white"/>
<path d="M34.0517 95.1034H27.2586V101.897H34.0517V95.1034Z" fill="white"/>
<path d="M47.6379 95.1034H40.8448V101.897H47.6379V95.1034Z" fill="white"/>
<path d="M54.431 95.1034H47.6379V101.897H54.431V95.1034Z" fill="white"/>
<path d="M61.2241 95.1034H54.431V101.897H61.2241V95.1034Z" fill="white"/>
<path d="M68.0172 95.1034H61.2241V101.897H68.0172V95.1034Z" fill="white"/>
<path d="M88.3965 95.1034H81.6034V101.897H88.3965V95.1034Z" fill="white"/>
<path d="M95.1896 95.1034H88.3965V101.897H95.1896V95.1034Z" fill="white"/>
<path d="M101.983 95.1034H95.1896V101.897H101.983V95.1034Z" fill="white"/>
<path d="M108.776 95.1034H101.983V101.897H108.776V95.1034Z" fill="white"/>
<path d="M129.155 95.1034H122.362V101.897H129.155V95.1034Z" fill="white"/>
<path d="M149.534 95.1034H142.741V101.897H149.534V95.1034Z" fill="white"/>
<path d="M156.328 95.1034H149.534V101.897H156.328V95.1034Z" fill="white"/>
<path d="M169.914 95.1034H163.121V101.897H169.914V95.1034Z" fill="white"/>
<path d="M27.2586 101.897H20.4655V108.69H27.2586V101.897Z" fill="white"/>
<path d="M34.0517 101.897H27.2586V108.69H34.0517V101.897Z" fill="white"/>
<path d="M40.8448 101.897H34.0517V108.69H40.8448L40.8448 101.897Z" fill="white"/>
<path d="M54.431 101.897H47.6379V108.69H54.431V101.897Z" fill="white"/>
<path d="M61.2241 101.897H54.431V108.69H61.2241V101.897Z" fill="white"/>
<path d="M81.6034 101.897H74.8103V108.69H81.6034V101.897Z" fill="white"/>
<path d="M88.3965 101.897H81.6034V108.69H88.3965V101.897Z" fill="white"/>
<path d="M101.983 101.897H95.1896V108.69H101.983V101.897Z" fill="white"/>
<path d="M115.569 101.897H108.776L108.776 108.69H115.569V101.897Z" fill="white"/>
<path d="M122.362 101.897H115.569V108.69H122.362V101.897Z" fill="white"/>
<path d="M135.948 101.897H129.155L129.155 108.69H135.948V101.897Z" fill="white"/>
<path d="M142.741 101.897H135.948V108.69H142.741L142.741 101.897Z" fill="white"/>
<path d="M149.534 101.897H142.741L142.741 108.69H149.534V101.897Z" fill="white"/>
<path d="M6.87928 108.69H0.0861816V115.483H6.87928V108.69Z" fill="white"/>
<path d="M13.6724 108.69H6.87928V115.483H13.6724V108.69Z" fill="white"/>
<path d="M34.0517 108.69H27.2586L27.2586 115.483H34.0517V108.69Z" fill="white"/>
<path d="M40.8448 108.69H34.0517V115.483H40.8448V108.69Z" fill="white"/>
<path d="M47.6379 108.69H40.8448V115.483H47.6379V108.69Z" fill="white"/>
<path d="M54.431 108.69H47.6379V115.483H54.431V108.69Z" fill="white"/>
<path d="M74.8103 108.69L68.0172 108.69V115.483H74.8103V108.69Z" fill="white"/>
<path d="M95.1896 108.69H88.3965L88.3965 115.483H95.1896V108.69Z" fill="white"/>
<path d="M101.983 108.69H95.1896V115.483H101.983V108.69Z" fill="white"/>
<path d="M108.776 108.69H101.983V115.483H108.776L108.776 108.69Z" fill="white"/>
<path d="M115.569 108.69H108.776L108.776 115.483H115.569V108.69Z" fill="white"/>
<path d="M122.362 108.69H115.569V115.483H122.362V108.69Z" fill="white"/>
<path d="M129.155 108.69H122.362V115.483H129.155L129.155 108.69Z" fill="white"/>
<path d="M135.948 108.69H129.155L129.155 115.483H135.948V108.69Z" fill="white"/>
<path d="M142.741 108.69H135.948V115.483H142.741V108.69Z" fill="white"/>
<path d="M163.121 108.69H156.328V115.483H163.121V108.69Z" fill="white"/>
<path d="M61.2241 115.483H54.431V122.276H61.2241V115.483Z" fill="white"/>
<path d="M68.0172 115.483H61.2241V122.276H68.0172L68.0172 115.483Z" fill="white"/>
<path d="M74.8103 115.483H68.0172L68.0172 122.276H74.8103V115.483Z" fill="white"/>
<path d="M95.1896 115.483H88.3965V122.276H95.1896V115.483Z" fill="white"/>
<path d="M101.983 115.483H95.1896V122.276H101.983V115.483Z" fill="white"/>
<path d="M115.569 115.483H108.776L108.776 122.276H115.569V115.483Z" fill="white"/>
<path d="M142.741 115.483H135.948V122.276H142.741V115.483Z" fill="white"/>
<path d="M169.914 115.483H163.121V122.276H169.914V115.483Z" fill="white"/>
<path d="M61.2241 122.276H54.431V129.069H61.2241V122.276Z" fill="white"/>
<path d="M68.0172 122.276H61.2241V129.069H68.0172V122.276Z" fill="white"/>
<path d="M74.8103 122.276H68.0172V129.069H74.8103V122.276Z" fill="white"/>
<path d="M81.6034 122.276H74.8103V129.069H81.6034V122.276Z" fill="white"/>
<path d="M115.569 122.276H108.776V129.069H115.569V122.276Z" fill="white"/>
<path d="M129.155 122.276H122.362V129.069H129.155V122.276Z" fill="white"/>
<path d="M142.741 122.276H135.948V129.069H142.741V122.276Z" fill="white"/>
<path d="M169.914 122.276H163.121V129.069H169.914V122.276Z" fill="white"/>
<path d="M74.8103 129.069H68.0172L68.0172 135.862H74.8103V129.069Z" fill="white"/>
<path d="M95.1896 129.069H88.3965V135.862H95.1896V129.069Z" fill="white"/>
<path d="M108.776 129.069L101.983 129.069V135.862H108.776L108.776 129.069Z" fill="white"/>
<path d="M115.569 129.069H108.776L108.776 135.862H115.569V129.069Z" fill="white"/>
<path d="M142.741 129.069H135.948V135.862H142.741V129.069Z" fill="white"/>
<path d="M163.121 129.069L156.328 129.069V135.862H163.121V129.069Z" fill="white"/>
<path d="M169.914 129.069H163.121V135.862H169.914V129.069Z" fill="white"/>
<path d="M81.6034 135.862H74.8103V142.655H81.6034V135.862Z" fill="white"/>
<path d="M88.3965 135.862H81.6034V142.655H88.3965L88.3965 135.862Z" fill="white"/>
<path d="M95.1896 135.862H88.3965L88.3965 142.655H95.1896V135.862Z" fill="white"/>
<path d="M108.776 135.862H101.983V142.655H108.776V135.862Z" fill="white"/>
<path d="M115.569 135.862H108.776V142.655H115.569V135.862Z" fill="white"/>
<path d="M122.362 135.862H115.569V142.655H122.362V135.862Z" fill="white"/>
<path d="M129.155 135.862H122.362V142.655H129.155V135.862Z" fill="white"/>
<path d="M135.948 135.862H129.155V142.655H135.948V135.862Z" fill="white"/>
<path d="M142.741 135.862H135.948V142.655H142.741V135.862Z" fill="white"/>
<path d="M163.121 135.862H156.328V142.655H163.121V135.862Z" fill="white"/>
<path d="M169.914 135.862H163.121V142.655H169.914V135.862Z" fill="white"/>
<path d="M88.3965 142.655H81.6034V149.448H88.3965V142.655Z" fill="white"/>
<path d="M122.362 142.655H115.569V149.448H122.362V142.655Z" fill="white"/>
<path d="M142.741 142.655H135.948V149.448H142.741V142.655Z" fill="white"/>
<path d="M156.328 142.655L149.534 142.655V149.448H156.328V142.655Z" fill="white"/>
<path d="M163.121 142.655H156.328V149.448H163.121V142.655Z" fill="white"/>
<path d="M61.2241 149.448H54.431V156.241H61.2241V149.448Z" fill="white"/>
<path d="M68.0172 149.448H61.2241V156.241H68.0172V149.448Z" fill="white"/>
<path d="M88.3965 149.448H81.6034V156.241H88.3965V149.448Z" fill="white"/>
<path d="M95.1896 149.448L88.3965 149.448V156.241H95.1896V149.448Z" fill="white"/>
<path d="M101.983 149.448H95.1896V156.241H101.983V149.448Z" fill="white"/>
<path d="M115.569 149.448L108.776 149.448V156.241H115.569V149.448Z" fill="white"/>
<path d="M122.362 149.448H115.569V156.241H122.362V149.448Z" fill="white"/>
<path d="M135.948 149.448L129.155 149.448V156.241H135.948V149.448Z" fill="white"/>
<path d="M142.741 149.448H135.948V156.241H142.741V149.448Z" fill="white"/>
<path d="M149.534 149.448H142.741V156.241H149.534L149.534 149.448Z" fill="white"/>
<path d="M163.121 149.448H156.328V156.241H163.121V149.448Z" fill="white"/>
<path d="M169.914 149.448L163.121 149.448V156.241H169.914V149.448Z" fill="white"/>
<path d="M68.0172 156.241H61.2241L61.2241 163.034H68.0172V156.241Z" fill="white"/>
<path d="M74.8103 156.241H68.0172V163.034H74.8103V156.241Z" fill="white"/>
<path d="M81.6034 156.241H74.8103V163.034H81.6034V156.241Z" fill="white"/>
<path d="M88.3965 156.241H81.6034V163.034H88.3965V156.241Z" fill="white"/>
<path d="M101.983 156.241H95.1896V163.034H101.983V156.241Z" fill="white"/>
<path d="M108.776 156.241H101.983V163.034H108.776L108.776 156.241Z" fill="white"/>
<path d="M115.569 156.241H108.776L108.776 163.034H115.569V156.241Z" fill="white"/>
<path d="M122.362 156.241H115.569V163.034H122.362V156.241Z" fill="white"/>
<path d="M129.155 156.241H122.362V163.034H129.155L129.155 156.241Z" fill="white"/>
<path d="M135.948 156.241H129.155L129.155 163.034H135.948V156.241Z" fill="white"/>
<path d="M142.741 156.241H135.948V163.034H142.741V156.241Z" fill="white"/>
<path d="M61.2241 163.034H54.431V169.828H61.2241L61.2241 163.034Z" fill="white"/>
<path d="M68.0172 163.034H61.2241L61.2241 169.828H68.0172V163.034Z" fill="white"/>
<path d="M95.1896 163.034H88.3965L88.3965 169.828H95.1896V163.034Z" fill="white"/>
<path d="M101.983 163.034H95.1896V169.828H101.983V163.034Z" fill="white"/>
<path d="M115.569 163.034H108.776L108.776 169.828H115.569V163.034Z" fill="white"/>
<path d="M122.362 163.034H115.569V169.828H122.362V163.034Z" fill="white"/>
<path d="M149.534 163.034H142.741L142.741 169.828H149.534V163.034Z" fill="white"/>
<path d="M169.914 163.034H163.121V169.828H169.914V163.034Z" fill="white"/>
<path d="M47.6379 4.9328e-07V31.3171C47.6379 35.3547 47.6379 47.5517 47.6379 47.5517C47.6379 47.5517 36.4442 47.5517 31.5892 47.5517H0.0861816L0.095692 16.2346C0.095692 7.28492 7.29502 4.9328e-07 16.1492 4.9328e-07H47.6379ZM40.5051 7.13276H16.1492C11.2304 7.13276 7.22845 11.2155 7.22845 16.2365L7.22084 40.419H40.5051V7.13276Z" fill="white"/>
<path d="M122.362 0V31.3171C122.362 35.3547 122.362 47.5517 122.362 47.5517C122.362 47.5517 133.556 47.5517 138.411 47.5517H169.914L169.904 16.2346C169.904 7.28492 162.705 0 153.851 0H122.362ZM129.495 7.13276H153.851C158.77 7.13276 162.771 11.2155 162.771 16.2365L162.779 40.419H129.495V7.13276Z" fill="white"/>
<path d="M47.6379 169.828V138.51C47.6379 134.473 47.6379 122.276 47.6379 122.276C47.6379 122.276 36.4442 122.276 31.5892 122.276H0.0861816L0.095692 153.593C0.095692 162.543 7.29502 169.828 16.1492 169.828H47.6379ZM40.5051 162.695H16.1492C11.2304 162.695 7.22845 158.612 7.22845 153.591L7.22084 129.409H40.5051V162.695Z" fill="white"/>
<path d="M34.0641 13.5895V33.9655H13.6848L13.6905 19.2172C13.6903 16.1128 16.1729 13.5862 19.2209 13.5862H28.4992C29.4533 13.5862 30.8444 13.5862 31.9985 13.5895C33.1497 13.5895 34.0641 13.5895 34.0641 13.5895Z" fill="white"/>
<path d="M135.936 13.5895V33.9655H156.315L156.309 19.2172C156.31 16.1128 153.827 13.5862 150.779 13.5862H141.501C140.547 13.5862 139.156 13.5862 138.001 13.5895C136.85 13.5895 135.936 13.5895 135.936 13.5895Z" fill="white"/>
<path d="M34.0641 156.238V135.862H13.6848L13.6905 150.61C13.6903 153.715 16.1729 156.241 19.2209 156.241H28.4992C29.4533 156.241 30.8444 156.241 31.9985 156.238C33.1497 156.238 34.0641 156.238 34.0641 156.238Z" fill="white"/>
</svg>
