<svg width="111" height="110" viewBox="0 0 111 110" fill="none" xmlns="http://www.w3.org/2000/svg">
<path d="M24.8761 2.76139H22.1147V1.3807C22.1147 0.598302 22.713 0 23.4954 0H24.8761V2.76139Z" fill="#8972FF"/>
<path d="M27.5571 2.76139H24.7957V0H26.1764C26.9588 0 27.5571 0.598302 27.5571 1.3807V2.76139Z" fill="#8972FF"/>
<path d="M38.2809 2.76139H36.9002C36.1178 2.76139 35.5195 2.16309 35.5195 1.3807C35.5195 0.598302 36.1178 0 36.9002 0H38.2809V2.76139Z" fill="#8972FF"/>
<path d="M40.9619 0H38.2005V2.76139H40.9619V0Z" fill="#8972FF"/>
<path d="M43.6429 0H40.8815V2.76139H43.6429V0Z" fill="#8972FF"/>
<path d="M46.3238 0H43.5624V2.76139H46.3238V0Z" fill="#8972FF"/>
<path d="M49.0048 0H46.2434V2.76139H49.0048V0Z" fill="#8972FF"/>
<path d="M51.6858 0H48.9244V2.76139H51.6858V0Z" fill="#8972FF"/>
<path d="M54.3667 2.76139H51.6053V0H52.986C53.7684 0 54.3667 0.598302 54.3667 1.3807V2.76139Z" fill="#8972FF"/>
<path d="M58.348 2.76139C59.1105 2.76139 59.7287 2.14324 59.7287 1.3807C59.7287 0.618159 59.1105 0 58.348 0C57.5854 0 56.9673 0.618159 56.9673 1.3807C56.9673 2.14324 57.5854 2.76139 58.348 2.76139Z" fill="#8972FF"/>
<path d="M65.0906 2.76139H62.3292V1.3807C62.3292 0.598302 62.9275 0 63.7099 0H65.0906V2.76139Z" fill="#8972FF"/>
<path d="M67.7715 0H65.0102V2.76139H67.7715V0Z" fill="#8972FF"/>
<path d="M70.4525 0H67.6911V2.76139H70.4525V0Z" fill="#8972FF"/>
<path d="M73.1335 0H70.3721V2.76139H73.1335V0Z" fill="#8972FF"/>
<path d="M75.8144 0H73.0531V2.76139H75.8144V0Z" fill="#8972FF"/>
<path d="M77.1147 2.76139H75.734V0H77.1147C77.8971 0 78.4954 0.598302 78.4954 1.3807C78.4954 2.16309 77.8971 2.76139 77.1147 2.76139Z" fill="#8972FF"/>
<path d="M83.8573 2.76139H81.0959V1.3807C81.0959 0.598302 81.6943 0 82.4766 0H83.8573V2.76139Z" fill="#8972FF"/>
<path d="M86.5383 0H83.7769V2.76139H86.5383V0Z" fill="#8972FF"/>
<path d="M87.8386 2.76139H86.4579V0H87.8386C88.621 0 89.2193 0.598302 89.2193 1.3807C89.2193 2.16309 88.621 2.76139 87.8386 2.76139Z" fill="#8972FF"/>
<path d="M24.8761 2.68097H22.1147V5.44236H24.8761V2.68097Z" fill="#8972FF"/>
<path d="M27.5571 2.68097H24.7957V5.44236H27.5571V2.68097Z" fill="#8972FF"/>
<path d="M30.238 2.68097H27.4766V5.44236H30.238V2.68097Z" fill="#8972FF"/>
<path d="M31.5383 5.44236H30.1576V2.68097H31.5383C32.3207 2.68097 32.919 3.27927 32.919 4.06166C32.919 4.84406 32.3207 5.44236 31.5383 5.44236Z" fill="#8972FF"/>
<path d="M40.9619 2.68097H38.2005V5.44236H40.9619V2.68097Z" fill="#8972FF"/>
<path d="M43.6429 2.68097H40.8815V5.44236H43.6429V2.68097Z" fill="#8972FF"/>
<path d="M49.0048 2.68097H46.2434V5.44236H49.0048V2.68097Z" fill="#8972FF"/>
<path d="M54.3667 2.68097H51.6053V5.44236H54.3667V2.68097Z" fill="#8972FF"/>
<path d="M65.0906 2.68097H62.3292V5.44236H65.0906V2.68097Z" fill="#8972FF"/>
<path d="M67.7715 2.68097H65.0102V5.44236H67.7715V2.68097Z" fill="#8972FF"/>
<path d="M70.4525 2.68097H67.6911V5.44236H70.4525V2.68097Z" fill="#8972FF"/>
<path d="M73.1335 2.68097H70.3721V5.44236H73.1335V2.68097Z" fill="#8972FF"/>
<path d="M75.8144 2.68097H73.0531V5.44236H75.8144V2.68097Z" fill="#8972FF"/>
<path d="M82.4766 5.44236C81.6943 5.44236 81.0959 4.84406 81.0959 4.06166V2.68097H83.8573V4.06166C83.8573 4.84406 83.259 5.44236 82.4766 5.44236Z" fill="#8972FF"/>
<path d="M24.8761 8.12333H23.4954C22.713 8.12333 22.1147 7.52502 22.1147 6.74263V5.36193H24.8761V8.12333Z" fill="#8972FF"/>
<path d="M26.1764 8.12333H24.7957V5.36193H27.5571V6.74263C27.5571 7.52502 26.9588 8.12333 26.1764 8.12333Z" fill="#8972FF"/>
<path d="M40.9619 8.12333H39.5812C38.7988 8.12333 38.2005 7.52502 38.2005 6.74263V5.36193H40.9619V8.12333Z" fill="#8972FF"/>
<path d="M43.6429 5.36193H40.8815V8.12333H43.6429V5.36193Z" fill="#8972FF"/>
<path d="M49.0048 5.36193H46.2434V8.12333H49.0048V5.36193Z" fill="#8972FF"/>
<path d="M51.6858 5.36193H48.9244V8.12333H51.6858V5.36193Z" fill="#8972FF"/>
<path d="M54.3667 5.36193H51.6053V8.12333H54.3667V5.36193Z" fill="#8972FF"/>
<path d="M57.0477 5.36193H54.2863V8.12333H57.0477V5.36193Z" fill="#8972FF"/>
<path d="M59.7287 8.12333H56.9673V5.36193H58.348C59.1304 5.36193 59.7287 5.96023 59.7287 6.74263V8.12333Z" fill="#8972FF"/>
<path d="M65.0906 8.12333H63.7099C62.9275 8.12333 62.3292 7.52502 62.3292 6.74263V5.36193H65.0906V8.12333Z" fill="#8972FF"/>
<path d="M67.7715 5.36193H65.0102V8.12333H67.7715V5.36193Z" fill="#8972FF"/>
<path d="M69.0718 8.12333H67.6911V5.36193H70.4525V6.74263C70.4525 7.52502 69.8542 8.12333 69.0718 8.12333Z" fill="#8972FF"/>
<path d="M75.8144 8.12333H74.4338C73.6514 8.12333 73.0531 7.52502 73.0531 6.74263V5.36193H75.8144V8.12333Z" fill="#8972FF"/>
<path d="M77.1147 8.12333H75.734V5.36193H77.1147C77.8971 5.36193 78.4954 5.96023 78.4954 6.74263C78.4954 7.52502 77.8971 8.12333 77.1147 8.12333Z" fill="#8972FF"/>
<path d="M86.5383 8.12333H85.1576C84.3752 8.12333 83.7769 7.52502 83.7769 6.74263C83.7769 5.96023 84.3752 5.36193 85.1576 5.36193H86.5383V8.12333Z" fill="#8972FF"/>
<path d="M87.8386 8.12333H86.4579V5.36193H87.8386C88.621 5.36193 89.2193 5.96023 89.2193 6.74263C89.2193 7.52502 88.621 8.12333 87.8386 8.12333Z" fill="#8972FF"/>
<path d="M28.8573 10.8043C29.6199 10.8043 30.238 10.1861 30.238 9.42359C30.238 8.66105 29.6199 8.0429 28.8573 8.0429C28.0948 8.0429 27.4766 8.66105 27.4766 9.42359C27.4766 10.1861 28.0948 10.8043 28.8573 10.8043Z" fill="#8972FF"/>
<path d="M43.6429 8.0429H40.8815V10.8043H43.6429V8.0429Z" fill="#8972FF"/>
<path d="M49.0048 10.8043H47.6241C46.8417 10.8043 46.2434 10.206 46.2434 9.42359V8.0429H49.0048V10.8043Z" fill="#8972FF"/>
<path d="M51.6858 8.0429H48.9244V10.8043H51.6858V8.0429Z" fill="#8972FF"/>
<path d="M57.0477 10.8043H55.667C54.8846 10.8043 54.2863 10.206 54.2863 9.42359V8.0429H57.0477V10.8043Z" fill="#8972FF"/>
<path d="M59.7287 8.0429H56.9673V10.8043H59.7287V8.0429Z" fill="#8972FF"/>
<path d="M62.4096 10.8043H59.6482V8.0429H61.0289C61.8113 8.0429 62.4096 8.6412 62.4096 9.42359V10.8043Z" fill="#8972FF"/>
<path d="M71.7528 10.8043C72.5153 10.8043 73.1335 10.1861 73.1335 9.42359C73.1335 8.66105 72.5153 8.0429 71.7528 8.0429C70.9902 8.0429 70.3721 8.66105 70.3721 9.42359C70.3721 10.1861 70.9902 10.8043 71.7528 10.8043Z" fill="#8972FF"/>
<path d="M82.4766 10.8043C83.2392 10.8043 83.8573 10.1861 83.8573 9.42359C83.8573 8.66105 83.2392 8.0429 82.4766 8.0429C81.7141 8.0429 81.0959 8.66105 81.0959 9.42359C81.0959 10.1861 81.7141 10.8043 82.4766 10.8043Z" fill="#8972FF"/>
<path d="M26.1764 13.4853C26.9389 13.4853 27.5571 12.8671 27.5571 12.1046C27.5571 11.342 26.9389 10.7239 26.1764 10.7239C25.4138 10.7239 24.7957 11.342 24.7957 12.1046C24.7957 12.8671 25.4138 13.4853 26.1764 13.4853Z" fill="#8972FF"/>
<path d="M32.919 13.4853H30.1576V12.1046C30.1576 11.3222 30.7559 10.7239 31.5383 10.7239C32.3207 10.7239 32.919 11.3222 32.919 12.1046V13.4853Z" fill="#8972FF"/>
<path d="M40.9619 13.4853H38.2005V12.1046C38.2005 11.3222 38.7988 10.7239 39.5812 10.7239H40.9619V13.4853Z" fill="#8972FF"/>
<path d="M42.2622 13.4853H40.8815V10.7239H43.6429V12.1046C43.6429 12.887 43.0446 13.4853 42.2622 13.4853Z" fill="#8972FF"/>
<path d="M51.6858 13.4853H50.3051C49.5227 13.4853 48.9244 12.887 48.9244 12.1046V10.7239H51.6858V13.4853Z" fill="#8972FF"/>
<path d="M54.3667 13.4853H51.6053V10.7239H52.986C53.7684 10.7239 54.3667 11.3222 54.3667 12.1046V13.4853Z" fill="#8972FF"/>
<path d="M62.4096 10.7239H59.6482V13.4853H62.4096V10.7239Z" fill="#8972FF"/>
<path d="M75.8144 13.4853H73.0531V12.1046C73.0531 11.3222 73.6514 10.7239 74.4338 10.7239H75.8144V13.4853Z" fill="#8972FF"/>
<path d="M77.1147 13.4853H75.734V10.7239H77.1147C77.8971 10.7239 78.4954 11.3222 78.4954 12.1046C78.4954 12.887 77.8971 13.4853 77.1147 13.4853Z" fill="#8972FF"/>
<path d="M86.5383 13.4853H85.1576C84.3752 13.4853 83.7769 12.887 83.7769 12.1046C83.7769 11.3222 84.3752 10.7239 85.1576 10.7239H86.5383V13.4853Z" fill="#8972FF"/>
<path d="M89.2193 13.4853H86.4579V10.7239H87.8386C88.621 10.7239 89.2193 11.3222 89.2193 12.1046V13.4853Z" fill="#8972FF"/>
<path d="M24.8761 16.1662H22.1147V14.7855C22.1147 14.0031 22.713 13.4048 23.4954 13.4048C24.2778 13.4048 24.8761 14.0031 24.8761 14.7855V16.1662Z" fill="#8972FF"/>
<path d="M30.238 16.1662H27.4766V14.7855C27.4766 14.0031 28.0749 13.4048 28.8573 13.4048H30.238V16.1662Z" fill="#8972FF"/>
<path d="M32.919 13.4048H30.1576V16.1662H32.919V13.4048Z" fill="#8972FF"/>
<path d="M35.6 16.1662H32.8386V13.4048H34.2193C35.0017 13.4048 35.6 14.0031 35.6 14.7855V16.1662Z" fill="#8972FF"/>
<path d="M40.9619 13.4048H38.2005V16.1662H40.9619V13.4048Z" fill="#8972FF"/>
<path d="M46.3238 16.1662H43.5624V14.7855C43.5624 14.0031 44.1607 13.4048 44.9431 13.4048C45.7255 13.4048 46.3238 14.0031 46.3238 14.7855V16.1662Z" fill="#8972FF"/>
<path d="M52.986 16.1662C52.2036 16.1662 51.6053 15.5679 51.6053 14.7855V13.4048H54.3667V14.7855C54.3667 15.5679 53.7684 16.1662 52.986 16.1662Z" fill="#8972FF"/>
<path d="M62.4096 13.4048H59.6482V16.1662H62.4096V13.4048Z" fill="#8972FF"/>
<path d="M63.7099 16.1662H62.3292V13.4048H63.7099C64.4923 13.4048 65.0906 14.0031 65.0906 14.7855C65.0906 15.5679 64.4923 16.1662 63.7099 16.1662Z" fill="#8972FF"/>
<path d="M69.0718 16.1662C69.8344 16.1662 70.4525 15.5481 70.4525 14.7855C70.4525 14.023 69.8344 13.4048 69.0718 13.4048C68.3093 13.4048 67.6911 14.023 67.6911 14.7855C67.6911 15.5481 68.3093 16.1662 69.0718 16.1662Z" fill="#8972FF"/>
<path d="M74.4338 16.1662C73.6514 16.1662 73.0531 15.5679 73.0531 14.7855V13.4048H75.8144V14.7855C75.8144 15.5679 75.2161 16.1662 74.4338 16.1662Z" fill="#8972FF"/>
<path d="M79.7957 16.1662C80.5582 16.1662 81.1764 15.5481 81.1764 14.7855C81.1764 14.023 80.5582 13.4048 79.7957 13.4048C79.0331 13.4048 78.415 14.023 78.415 14.7855C78.415 15.5481 79.0331 16.1662 79.7957 16.1662Z" fill="#8972FF"/>
<path d="M89.2193 13.4048H86.4579V16.1662H89.2193V13.4048Z" fill="#8972FF"/>
<path d="M24.8761 16.0858H22.1147V18.8472H24.8761V16.0858Z" fill="#8972FF"/>
<path d="M30.238 16.0858H27.4766V18.8472H30.238V16.0858Z" fill="#8972FF"/>
<path d="M35.6 16.0858H32.8386V18.8472H35.6V16.0858Z" fill="#8972FF"/>
<path d="M40.9619 16.0858H38.2005V18.8472H40.9619V16.0858Z" fill="#8972FF"/>
<path d="M46.3238 16.0858H43.5624V18.8472H46.3238V16.0858Z" fill="#8972FF"/>
<path d="M50.3051 18.8472C51.0676 18.8472 51.6858 18.229 51.6858 17.4665C51.6858 16.704 51.0676 16.0858 50.3051 16.0858C49.5425 16.0858 48.9244 16.704 48.9244 17.4665C48.9244 18.229 49.5425 18.8472 50.3051 18.8472Z" fill="#8972FF"/>
<path d="M55.667 18.8472C56.4295 18.8472 57.0477 18.229 57.0477 17.4665C57.0477 16.704 56.4295 16.0858 55.667 16.0858C54.9045 16.0858 54.2863 16.704 54.2863 17.4665C54.2863 18.229 54.9045 18.8472 55.667 18.8472Z" fill="#8972FF"/>
<path d="M62.4096 16.0858H59.6482V18.8472H62.4096V16.0858Z" fill="#8972FF"/>
<path d="M66.3909 18.8472C67.1534 18.8472 67.7715 18.229 67.7715 17.4665C67.7715 16.704 67.1534 16.0858 66.3909 16.0858C65.6283 16.0858 65.0102 16.704 65.0102 17.4665C65.0102 18.229 65.6283 18.8472 66.3909 18.8472Z" fill="#8972FF"/>
<path d="M71.7528 18.8472C72.5153 18.8472 73.1335 18.229 73.1335 17.4665C73.1335 16.704 72.5153 16.0858 71.7528 16.0858C70.9902 16.0858 70.3721 16.704 70.3721 17.4665C70.3721 18.229 70.9902 18.8472 71.7528 18.8472Z" fill="#8972FF"/>
<path d="M77.1147 18.8472C77.8773 18.8472 78.4954 18.229 78.4954 17.4665C78.4954 16.704 77.8773 16.0858 77.1147 16.0858C76.3522 16.0858 75.734 16.704 75.734 17.4665C75.734 18.229 76.3522 18.8472 77.1147 18.8472Z" fill="#8972FF"/>
<path d="M82.4766 18.8472C83.2392 18.8472 83.8573 18.229 83.8573 17.4665C83.8573 16.704 83.2392 16.0858 82.4766 16.0858C81.7141 16.0858 81.0959 16.704 81.0959 17.4665C81.0959 18.229 81.7141 18.8472 82.4766 18.8472Z" fill="#8972FF"/>
<path d="M89.2193 16.0858H86.4579V18.8472H89.2193V16.0858Z" fill="#8972FF"/>
<path d="M24.8761 18.7668H22.1147V21.5282H24.8761V18.7668Z" fill="#8972FF"/>
<path d="M27.5571 18.7668H24.7957V21.5282H27.5571V18.7668Z" fill="#8972FF"/>
<path d="M30.238 18.7668H27.4766V21.5282H30.238V18.7668Z" fill="#8972FF"/>
<path d="M32.919 18.7668H30.1576V21.5282H32.919V18.7668Z" fill="#8972FF"/>
<path d="M35.6 18.7668H32.8386V21.5282H35.6V18.7668Z" fill="#8972FF"/>
<path d="M38.2809 18.7668H35.5195V21.5282H38.2809V18.7668Z" fill="#8972FF"/>
<path d="M40.9619 18.7668H38.2005V21.5282H40.9619V18.7668Z" fill="#8972FF"/>
<path d="M46.3238 21.5282H44.9431C44.1607 21.5282 43.5624 20.9298 43.5624 20.1475V18.7668H46.3238V21.5282Z" fill="#8972FF"/>
<path d="M49.0048 21.5282H46.2434V18.7668H47.6241C48.4065 18.7668 49.0048 19.3651 49.0048 20.1475V21.5282Z" fill="#8972FF"/>
<path d="M59.7287 21.5282H56.9673V20.1475C56.9673 19.3651 57.5656 18.7668 58.348 18.7668H59.7287V21.5282Z" fill="#8972FF"/>
<path d="M61.0289 21.5282H59.6482V18.7668H62.4096V20.1475C62.4096 20.9298 61.8113 21.5282 61.0289 21.5282Z" fill="#8972FF"/>
<path d="M74.4338 21.5282C75.1963 21.5282 75.8144 20.91 75.8144 20.1475C75.8144 19.3849 75.1963 18.7668 74.4338 18.7668C73.6712 18.7668 73.0531 19.3849 73.0531 20.1475C73.0531 20.91 73.6712 21.5282 74.4338 21.5282Z" fill="#8972FF"/>
<path d="M87.8386 21.5282C87.0562 21.5282 86.4579 20.9298 86.4579 20.1475V18.7668H89.2193V20.1475C89.2193 20.9298 88.621 21.5282 87.8386 21.5282Z" fill="#8972FF"/>
<path d="M8.79032 24.2091H6.02892V22.8284C6.02892 22.046 6.62722 21.4477 7.40962 21.4477H8.79032V24.2091Z" fill="#8972FF"/>
<path d="M11.4713 21.4477H8.70989V24.2091H11.4713V21.4477Z" fill="#8972FF"/>
<path d="M14.1522 24.2091H11.3909V21.4477H12.7716C13.5539 21.4477 14.1522 22.046 14.1522 22.8284V24.2091Z" fill="#8972FF"/>
<path d="M18.1335 24.2091C18.896 24.2091 19.5142 23.591 19.5142 22.8284C19.5142 22.0659 18.896 21.4477 18.1335 21.4477C17.3709 21.4477 16.7528 22.0659 16.7528 22.8284C16.7528 23.591 17.3709 24.2091 18.1335 24.2091Z" fill="#8972FF"/>
<path d="M24.8761 24.2091H23.4954C22.713 24.2091 22.1147 23.6108 22.1147 22.8284V21.4477H24.8761V24.2091Z" fill="#8972FF"/>
<path d="M27.5571 21.4477H24.7957V24.2091H27.5571V21.4477Z" fill="#8972FF"/>
<path d="M35.6 21.4477H32.8386V24.2091H35.6V21.4477Z" fill="#8972FF"/>
<path d="M38.2809 21.4477H35.5195V24.2091H38.2809V21.4477Z" fill="#8972FF"/>
<path d="M40.9619 21.4477H38.2005V24.2091H40.9619V21.4477Z" fill="#8972FF"/>
<path d="M49.0048 21.4477H46.2434V24.2091H49.0048V21.4477Z" fill="#8972FF"/>
<path d="M54.3667 24.2091H51.6053V22.8284C51.6053 22.046 52.2036 21.4477 52.986 21.4477H54.3667V24.2091Z" fill="#8972FF"/>
<path d="M57.0477 21.4477H54.2863V24.2091H57.0477V21.4477Z" fill="#8972FF"/>
<path d="M59.7287 21.4477H56.9673V24.2091H59.7287V21.4477Z" fill="#8972FF"/>
<path d="M65.0906 24.2091H62.3292V22.8284C62.3292 22.046 62.9275 21.4477 63.7099 21.4477H65.0906V24.2091Z" fill="#8972FF"/>
<path d="M67.7715 21.4477H65.0102V24.2091H67.7715V21.4477Z" fill="#8972FF"/>
<path d="M70.4525 21.4477H67.6911V24.2091H70.4525V21.4477Z" fill="#8972FF"/>
<path d="M71.7528 24.2091H70.3721V21.4477H71.7528C72.5352 21.4477 73.1335 22.046 73.1335 22.8284C73.1335 23.6108 72.5352 24.2091 71.7528 24.2091Z" fill="#8972FF"/>
<path d="M81.1764 24.2091H79.7957C79.0133 24.2091 78.415 23.6108 78.415 22.8284C78.415 22.046 79.0133 21.4477 79.7957 21.4477H81.1764V24.2091Z" fill="#8972FF"/>
<path d="M83.8573 21.4477H81.0959V24.2091H83.8573V21.4477Z" fill="#8972FF"/>
<path d="M86.5383 24.2091H83.7769V21.4477H85.1576C85.94 21.4477 86.5383 22.046 86.5383 22.8284V24.2091Z" fill="#8972FF"/>
<path d="M91.9002 24.2091H90.5195C89.7371 24.2091 89.1388 23.6108 89.1388 22.8284C89.1388 22.046 89.7371 21.4477 90.5195 21.4477H91.9002V24.2091Z" fill="#8972FF"/>
<path d="M94.5812 21.4477H91.8198V24.2091H94.5812V21.4477Z" fill="#8972FF"/>
<path d="M97.2622 24.2091H94.5008V21.4477H95.8815C96.6639 21.4477 97.2622 22.046 97.2622 22.8284V24.2091Z" fill="#8972FF"/>
<path d="M105.305 24.2091H102.544V22.8284C102.544 22.046 103.142 21.4477 103.924 21.4477H105.305V24.2091Z" fill="#8972FF"/>
<path d="M107.986 21.4477H105.225V24.2091H107.986V21.4477Z" fill="#8972FF"/>
<path d="M110.667 24.2091H107.906V21.4477H109.286C110.069 21.4477 110.667 22.046 110.667 22.8284V24.2091Z" fill="#8972FF"/>
<path d="M3.42839 26.8901H0.666992V25.5094C0.666992 24.727 1.26529 24.1287 2.04769 24.1287C2.83008 24.1287 3.42839 24.727 3.42839 25.5094V26.8901Z" fill="#8972FF"/>
<path d="M8.79032 24.1287H6.02892V26.8901H8.79032V24.1287Z" fill="#8972FF"/>
<path d="M14.1522 26.8901H12.7716C11.9892 26.8901 11.3909 26.2918 11.3909 25.5094V24.1287H14.1522V26.8901Z" fill="#8972FF"/>
<path d="M16.8332 26.8901H14.0718V24.1287H15.4525C16.2349 24.1287 16.8332 24.727 16.8332 25.5094V26.8901Z" fill="#8972FF"/>
<path d="M26.1764 26.8901C25.394 26.8901 24.7957 26.2918 24.7957 25.5094V24.1287H27.5571V25.5094C27.5571 26.2918 26.9588 26.8901 26.1764 26.8901Z" fill="#8972FF"/>
<path d="M35.6 24.1287H32.8386V26.8901H35.6V24.1287Z" fill="#8972FF"/>
<path d="M40.9619 24.1287H38.2005V26.8901H40.9619V24.1287Z" fill="#8972FF"/>
<path d="M46.3238 26.8901H44.9431C44.1607 26.8901 43.5624 26.2918 43.5624 25.5094C43.5624 24.727 44.1607 24.1287 44.9431 24.1287H46.3238V26.8901Z" fill="#8972FF"/>
<path d="M49.0048 24.1287H46.2434V26.8901H49.0048V24.1287Z" fill="#8972FF"/>
<path d="M51.6858 24.1287H48.9244V26.8901H51.6858V24.1287Z" fill="#8972FF"/>
<path d="M54.3667 24.1287H51.6053V26.8901H54.3667V24.1287Z" fill="#8972FF"/>
<path d="M59.7287 24.1287H56.9673V26.8901H59.7287V24.1287Z" fill="#8972FF"/>
<path d="M62.4096 24.1287H59.6482V26.8901H62.4096V24.1287Z" fill="#8972FF"/>
<path d="M65.0906 24.1287H62.3292V26.8901H65.0906V24.1287Z" fill="#8972FF"/>
<path d="M67.7715 24.1287H65.0102V26.8901H67.7715V24.1287Z" fill="#8972FF"/>
<path d="M70.4525 24.1287H67.6911V26.8901H70.4525V24.1287Z" fill="#8972FF"/>
<path d="M77.1147 26.8901C77.8773 26.8901 78.4954 26.2719 78.4954 25.5094C78.4954 24.7468 77.8773 24.1287 77.1147 24.1287C76.3522 24.1287 75.734 24.7468 75.734 25.5094C75.734 26.2719 76.3522 26.8901 77.1147 26.8901Z" fill="#8972FF"/>
<path d="M86.5383 26.8901H85.1576C84.3752 26.8901 83.7769 26.2918 83.7769 25.5094V24.1287H86.5383V26.8901Z" fill="#8972FF"/>
<path d="M87.8386 26.8901H86.4579V24.1287H87.8386C88.621 24.1287 89.2193 24.727 89.2193 25.5094C89.2193 26.2918 88.621 26.8901 87.8386 26.8901Z" fill="#8972FF"/>
<path d="M97.2622 26.8901H95.8815C95.0991 26.8901 94.5008 26.2918 94.5008 25.5094V24.1287H97.2622V26.8901Z" fill="#8972FF"/>
<path d="M98.5624 26.8901H97.1817V24.1287H98.5624C99.3448 24.1287 99.9431 24.727 99.9431 25.5094C99.9431 26.2918 99.3448 26.8901 98.5624 26.8901Z" fill="#8972FF"/>
<path d="M105.305 26.8901H103.924C103.142 26.8901 102.544 26.2918 102.544 25.5094V24.1287H105.305V26.8901Z" fill="#8972FF"/>
<path d="M107.986 24.1287H105.225V26.8901H107.986V24.1287Z" fill="#8972FF"/>
<path d="M109.286 26.8901H107.906V24.1287H110.667V25.5094C110.667 26.2918 110.069 26.8901 109.286 26.8901Z" fill="#8972FF"/>
<path d="M2.04769 29.571C1.26529 29.571 0.666992 28.9727 0.666992 28.1903V26.8097H3.42839V28.1903C3.42839 28.9727 2.83008 29.571 2.04769 29.571Z" fill="#8972FF"/>
<path d="M8.79032 29.571H7.40962C6.62722 29.571 6.02892 28.9727 6.02892 28.1903V26.8097H8.79032V29.571Z" fill="#8972FF"/>
<path d="M10.0906 29.571H8.70989V26.8097H10.0906C10.873 26.8097 11.4713 27.408 11.4713 28.1903C11.4713 28.9727 10.873 29.571 10.0906 29.571Z" fill="#8972FF"/>
<path d="M16.8332 26.8097H14.0718V29.571H16.8332V26.8097Z" fill="#8972FF"/>
<path d="M19.5142 26.8097H16.7528V29.571H19.5142V26.8097Z" fill="#8972FF"/>
<path d="M22.1951 29.571H19.4337V26.8097H20.8144C21.5968 26.8097 22.1951 27.408 22.1951 28.1903V29.571Z" fill="#8972FF"/>
<path d="M30.238 29.571H27.4766V28.1903C27.4766 27.408 28.0749 26.8097 28.8573 26.8097H30.238V29.571Z" fill="#8972FF"/>
<path d="M32.919 26.8097H30.1576V29.571H32.919V26.8097Z" fill="#8972FF"/>
<path d="M35.6 26.8097H32.8386V29.571H35.6V26.8097Z" fill="#8972FF"/>
<path d="M38.2809 26.8097H35.5195V29.571H38.2809V26.8097Z" fill="#8972FF"/>
<path d="M40.9619 26.8097H38.2005V29.571H40.9619V26.8097Z" fill="#8972FF"/>
<path d="M43.6429 29.571H40.8815V26.8097H42.2622C43.0446 26.8097 43.6429 27.408 43.6429 28.1903V29.571Z" fill="#8972FF"/>
<path d="M49.0048 26.8097H46.2434V29.571H49.0048V26.8097Z" fill="#8972FF"/>
<path d="M51.6858 26.8097H48.9244V29.571H51.6858V26.8097Z" fill="#8972FF"/>
<path d="M54.3667 26.8097H51.6053V29.571H54.3667V26.8097Z" fill="#8972FF"/>
<path d="M57.0477 26.8097H54.2863V29.571H57.0477V26.8097Z" fill="#8972FF"/>
<path d="M58.348 29.571H56.9673V26.8097H59.7287V28.1903C59.7287 28.9727 59.1304 29.571 58.348 29.571Z" fill="#8972FF"/>
<path d="M65.0906 26.8097H62.3292V29.571H65.0906V26.8097Z" fill="#8972FF"/>
<path d="M67.7715 26.8097H65.0102V29.571H67.7715V26.8097Z" fill="#8972FF"/>
<path d="M70.4525 26.8097H67.6911V29.571H70.4525V26.8097Z" fill="#8972FF"/>
<path d="M73.1335 26.8097H70.3721V29.571H73.1335V26.8097Z" fill="#8972FF"/>
<path d="M74.4338 29.571H73.0531V26.8097H74.4338C75.2161 26.8097 75.8144 27.408 75.8144 28.1903C75.8144 28.9727 75.2161 29.571 74.4338 29.571Z" fill="#8972FF"/>
<path d="M82.4766 29.571C83.2392 29.571 83.8573 28.9529 83.8573 28.1903C83.8573 27.4278 83.2392 26.8097 82.4766 26.8097C81.7141 26.8097 81.0959 27.4278 81.0959 28.1903C81.0959 28.9529 81.7141 29.571 82.4766 29.571Z" fill="#8972FF"/>
<path d="M90.5195 29.571C91.2821 29.571 91.9002 28.9529 91.9002 28.1903C91.9002 27.4278 91.2821 26.8097 90.5195 26.8097C89.757 26.8097 89.1388 27.4278 89.1388 28.1903C89.1388 28.9529 89.757 29.571 90.5195 29.571Z" fill="#8972FF"/>
<path d="M14.1522 32.252H12.7716C11.9892 32.252 11.3909 31.6537 11.3909 30.8713C11.3909 30.0889 11.9892 29.4906 12.7716 29.4906H14.1522V32.252Z" fill="#8972FF"/>
<path d="M16.8332 29.4906H14.0718V32.252H16.8332V29.4906Z" fill="#8972FF"/>
<path d="M20.8144 32.252C20.0321 32.252 19.4337 31.6537 19.4337 30.8713V29.4906H22.1951V30.8713C22.1951 31.6537 21.5968 32.252 20.8144 32.252Z" fill="#8972FF"/>
<path d="M30.238 29.4906H27.4766V32.252H30.238V29.4906Z" fill="#8972FF"/>
<path d="M32.919 29.4906H30.1576V32.252H32.919V29.4906Z" fill="#8972FF"/>
<path d="M35.6 29.4906H32.8386V32.252H35.6V29.4906Z" fill="#8972FF"/>
<path d="M36.9002 32.252H35.5195V29.4906H38.2809V30.8713C38.2809 31.6537 37.6826 32.252 36.9002 32.252Z" fill="#8972FF"/>
<path d="M43.6429 32.252H42.2622C41.4798 32.252 40.8815 31.6537 40.8815 30.8713V29.4906H43.6429V32.252Z" fill="#8972FF"/>
<path d="M46.3238 29.4906H43.5624V32.252H46.3238V29.4906Z" fill="#8972FF"/>
<path d="M49.0048 29.4906H46.2434V32.252H49.0048V29.4906Z" fill="#8972FF"/>
<path d="M62.4096 32.252H61.0289C60.2465 32.252 59.6482 31.6537 59.6482 30.8713C59.6482 30.0889 60.2465 29.4906 61.0289 29.4906H62.4096V32.252Z" fill="#8972FF"/>
<path d="M65.0906 29.4906H62.3292V32.252H65.0906V29.4906Z" fill="#8972FF"/>
<path d="M71.7528 32.252C70.9704 32.252 70.3721 31.6537 70.3721 30.8713V29.4906H73.1335V30.8713C73.1335 31.6537 72.5352 32.252 71.7528 32.252Z" fill="#8972FF"/>
<path d="M87.8386 32.252C88.6011 32.252 89.2193 31.6339 89.2193 30.8713C89.2193 30.1088 88.6011 29.4906 87.8386 29.4906C87.076 29.4906 86.4579 30.1088 86.4579 30.8713C86.4579 31.6339 87.076 32.252 87.8386 32.252Z" fill="#8972FF"/>
<path d="M99.9431 32.252H98.5624C97.78 32.252 97.1817 31.6537 97.1817 30.8713C97.1817 30.0889 97.78 29.4906 98.5624 29.4906H99.9431V32.252Z" fill="#8972FF"/>
<path d="M102.624 32.252H99.8627V29.4906H101.243C102.026 29.4906 102.624 30.0889 102.624 30.8713V32.252Z" fill="#8972FF"/>
<path d="M107.986 32.252H105.225V30.8713C105.225 30.0889 105.823 29.4906 106.605 29.4906H107.986V32.252Z" fill="#8972FF"/>
<path d="M109.286 32.252H107.906V29.4906H109.286C110.069 29.4906 110.667 30.0889 110.667 30.8713C110.667 31.6537 110.069 32.252 109.286 32.252Z" fill="#8972FF"/>
<path d="M2.04769 34.933C2.81023 34.933 3.42839 34.3148 3.42839 33.5523C3.42839 32.7897 2.81023 32.1716 2.04769 32.1716C1.28515 32.1716 0.666992 32.7897 0.666992 33.5523C0.666992 34.3148 1.28515 34.933 2.04769 34.933Z" fill="#8972FF"/>
<path d="M10.0906 34.933C10.8531 34.933 11.4713 34.3148 11.4713 33.5523C11.4713 32.7897 10.8531 32.1716 10.0906 32.1716C9.32805 32.1716 8.70989 32.7897 8.70989 33.5523C8.70989 34.3148 9.32805 34.933 10.0906 34.933Z" fill="#8972FF"/>
<path d="M16.8332 34.933H15.4525C14.6701 34.933 14.0718 34.3347 14.0718 33.5523V32.1716H16.8332V34.933Z" fill="#8972FF"/>
<path d="M18.1335 34.933H16.7528V32.1716H18.1335C18.9159 32.1716 19.5142 32.7699 19.5142 33.5523C19.5142 34.3347 18.9159 34.933 18.1335 34.933Z" fill="#8972FF"/>
<path d="M27.5571 34.933H24.7957V33.5523C24.7957 32.7699 25.394 32.1716 26.1764 32.1716H27.5571V34.933Z" fill="#8972FF"/>
<path d="M28.8573 34.933H27.4766V32.1716H30.238V33.5523C30.238 34.3347 29.6397 34.933 28.8573 34.933Z" fill="#8972FF"/>
<path d="M39.5812 34.933C40.3437 34.933 40.9619 34.3148 40.9619 33.5523C40.9619 32.7897 40.3437 32.1716 39.5812 32.1716C38.8187 32.1716 38.2005 32.7897 38.2005 33.5523C38.2005 34.3148 38.8187 34.933 39.5812 34.933Z" fill="#8972FF"/>
<path d="M49.0048 34.933H47.6241C46.8417 34.933 46.2434 34.3347 46.2434 33.5523V32.1716H49.0048V34.933Z" fill="#8972FF"/>
<path d="M51.6858 32.1716H48.9244V34.933H51.6858V32.1716Z" fill="#8972FF"/>
<path d="M54.3667 32.1716H51.6053V34.933H54.3667V32.1716Z" fill="#8972FF"/>
<path d="M57.0477 34.933H54.2863V32.1716H55.667C56.4494 32.1716 57.0477 32.7699 57.0477 33.5523V34.933Z" fill="#8972FF"/>
<path d="M65.0906 32.1716H62.3292V34.933H65.0906V32.1716Z" fill="#8972FF"/>
<path d="M70.4525 34.933H67.6911V33.5523C67.6911 32.7699 68.2894 32.1716 69.0718 32.1716C69.8542 32.1716 70.4525 32.7699 70.4525 33.5523V34.933Z" fill="#8972FF"/>
<path d="M75.8144 34.933H73.0531V33.5523C73.0531 32.7699 73.6514 32.1716 74.4338 32.1716H75.8144V34.933Z" fill="#8972FF"/>
<path d="M78.4954 32.1716H75.734V34.933H78.4954V32.1716Z" fill="#8972FF"/>
<path d="M81.1764 34.933H78.415V32.1716H79.7957C80.5781 32.1716 81.1764 32.7699 81.1764 33.5523V34.933Z" fill="#8972FF"/>
<path d="M90.5195 34.933C91.2821 34.933 91.9002 34.3148 91.9002 33.5523C91.9002 32.7897 91.2821 32.1716 90.5195 32.1716C89.757 32.1716 89.1388 32.7897 89.1388 33.5523C89.1388 34.3148 89.757 34.933 90.5195 34.933Z" fill="#8972FF"/>
<path d="M95.8815 34.933C96.644 34.933 97.2622 34.3148 97.2622 33.5523C97.2622 32.7897 96.644 32.1716 95.8815 32.1716C95.1189 32.1716 94.5008 32.7897 94.5008 33.5523C94.5008 34.3148 95.1189 34.933 95.8815 34.933Z" fill="#8972FF"/>
<path d="M102.624 32.1716H99.8627V34.933H102.624V32.1716Z" fill="#8972FF"/>
<path d="M105.305 32.1716H102.544V34.933H105.305V32.1716Z" fill="#8972FF"/>
<path d="M107.986 32.1716H105.225V34.933H107.986V32.1716Z" fill="#8972FF"/>
<path d="M6.10935 37.6139H3.34796V36.2332C3.34796 35.4508 3.94626 34.8525 4.72865 34.8525C5.51105 34.8525 6.10935 35.4508 6.10935 36.2332V37.6139Z" fill="#8972FF"/>
<path d="M27.5571 34.8525H24.7957V37.6139H27.5571V34.8525Z" fill="#8972FF"/>
<path d="M34.2193 37.6139C34.9818 37.6139 35.6 36.9958 35.6 36.2332C35.6 35.4707 34.9818 34.8525 34.2193 34.8525C33.4567 34.8525 32.8386 35.4707 32.8386 36.2332C32.8386 36.9958 33.4567 37.6139 34.2193 37.6139Z" fill="#8972FF"/>
<path d="M43.6429 37.6139H40.8815V36.2332C40.8815 35.4508 41.4798 34.8525 42.2622 34.8525H43.6429V37.6139Z" fill="#8972FF"/>
<path d="M46.3238 37.6139H43.5624V34.8525H44.9431C45.7255 34.8525 46.3238 35.4508 46.3238 36.2332V37.6139Z" fill="#8972FF"/>
<path d="M51.6858 34.8525H48.9244V37.6139H51.6858V34.8525Z" fill="#8972FF"/>
<path d="M54.3667 34.8525H51.6053V37.6139H54.3667V34.8525Z" fill="#8972FF"/>
<path d="M55.667 37.6139H54.2863V34.8525H57.0477V36.2332C57.0477 37.0156 56.4494 37.6139 55.667 37.6139Z" fill="#8972FF"/>
<path d="M65.0906 34.8525H62.3292V37.6139H65.0906V34.8525Z" fill="#8972FF"/>
<path d="M70.4525 34.8525H67.6911V37.6139H70.4525V34.8525Z" fill="#8972FF"/>
<path d="M73.1335 34.8525H70.3721V37.6139H73.1335V34.8525Z" fill="#8972FF"/>
<path d="M75.8144 34.8525H73.0531V37.6139H75.8144V34.8525Z" fill="#8972FF"/>
<path d="M81.1764 37.6139H79.7957C79.0133 37.6139 78.415 37.0156 78.415 36.2332V34.8525H81.1764V37.6139Z" fill="#8972FF"/>
<path d="M83.8573 37.6139H81.0959V34.8525H82.4766C83.259 34.8525 83.8573 35.4508 83.8573 36.2332V37.6139Z" fill="#8972FF"/>
<path d="M87.8386 37.6139C88.6011 37.6139 89.2193 36.9958 89.2193 36.2332C89.2193 35.4707 88.6011 34.8525 87.8386 34.8525C87.076 34.8525 86.4579 35.4707 86.4579 36.2332C86.4579 36.9958 87.076 37.6139 87.8386 37.6139Z" fill="#8972FF"/>
<path d="M99.9431 37.6139H97.1817V36.2332C97.1817 35.4508 97.78 34.8525 98.5624 34.8525H99.9431V37.6139Z" fill="#8972FF"/>
<path d="M102.624 34.8525H99.8627V37.6139H102.624V34.8525Z" fill="#8972FF"/>
<path d="M105.305 34.8525H102.544V37.6139H105.305V34.8525Z" fill="#8972FF"/>
<path d="M107.986 34.8525H105.225V37.6139H107.986V34.8525Z" fill="#8972FF"/>
<path d="M109.286 37.6139H107.906V34.8525H109.286C110.069 34.8525 110.667 35.4508 110.667 36.2332C110.667 37.0156 110.069 37.6139 109.286 37.6139Z" fill="#8972FF"/>
<path d="M6.10935 40.2949H4.72865C3.94626 40.2949 3.34796 39.6966 3.34796 38.9142V37.5335H6.10935V40.2949Z" fill="#8972FF"/>
<path d="M8.79032 37.5335H6.02892V40.2949H8.79032V37.5335Z" fill="#8972FF"/>
<path d="M11.4713 37.5335H8.70989V40.2949H11.4713V37.5335Z" fill="#8972FF"/>
<path d="M14.1522 37.5335H11.3909V40.2949H14.1522V37.5335Z" fill="#8972FF"/>
<path d="M16.8332 37.5335H14.0718V40.2949H16.8332V37.5335Z" fill="#8972FF"/>
<path d="M18.1335 40.2949H16.7528V37.5335H18.1335C18.9159 37.5335 19.5142 38.1318 19.5142 38.9142C19.5142 39.6966 18.9159 40.2949 18.1335 40.2949Z" fill="#8972FF"/>
<path d="M27.5571 40.2949H26.1764C25.394 40.2949 24.7957 39.6966 24.7957 38.9142V37.5335H27.5571V40.2949Z" fill="#8972FF"/>
<path d="M30.238 40.2949H27.4766V37.5335H28.8573C29.6397 37.5335 30.238 38.1318 30.238 38.9142V40.2949Z" fill="#8972FF"/>
<path d="M38.2809 40.2949H35.5195V38.9142C35.5195 38.1318 36.1178 37.5335 36.9002 37.5335H38.2809V40.2949Z" fill="#8972FF"/>
<path d="M40.9619 37.5335H38.2005V40.2949H40.9619V37.5335Z" fill="#8972FF"/>
<path d="M43.6429 37.5335H40.8815V40.2949H43.6429V37.5335Z" fill="#8972FF"/>
<path d="M46.3238 37.5335H43.5624V40.2949H46.3238V37.5335Z" fill="#8972FF"/>
<path d="M49.0048 37.5335H46.2434V40.2949H49.0048V37.5335Z" fill="#8972FF"/>
<path d="M51.6858 37.5335H48.9244V40.2949H51.6858V37.5335Z" fill="#8972FF"/>
<path d="M54.3667 37.5335H51.6053V40.2949H54.3667V37.5335Z" fill="#8972FF"/>
<path d="M62.4096 40.2949H59.6482V38.9142C59.6482 38.1318 60.2465 37.5335 61.0289 37.5335H62.4096V40.2949Z" fill="#8972FF"/>
<path d="M65.0906 37.5335H62.3292V40.2949H65.0906V37.5335Z" fill="#8972FF"/>
<path d="M67.7715 37.5335H65.0102V40.2949H67.7715V37.5335Z" fill="#8972FF"/>
<path d="M70.4525 37.5335H67.6911V40.2949H70.4525V37.5335Z" fill="#8972FF"/>
<path d="M73.1335 37.5335H70.3721V40.2949H73.1335V37.5335Z" fill="#8972FF"/>
<path d="M75.8144 37.5335H73.0531V40.2949H75.8144V37.5335Z" fill="#8972FF"/>
<path d="M77.1147 40.2949H75.734V37.5335H77.1147C77.8971 37.5335 78.4954 38.1318 78.4954 38.9142C78.4954 39.6966 77.8971 40.2949 77.1147 40.2949Z" fill="#8972FF"/>
<path d="M83.8573 40.2949H82.4766C81.6943 40.2949 81.0959 39.6966 81.0959 38.9142V37.5335H83.8573V40.2949Z" fill="#8972FF"/>
<path d="M86.5383 40.2949H83.7769V37.5335H85.1576C85.94 37.5335 86.5383 38.1318 86.5383 38.9142V40.2949Z" fill="#8972FF"/>
<path d="M91.9002 40.2949H89.1388V38.9142C89.1388 38.1318 89.7371 37.5335 90.5195 37.5335H91.9002V40.2949Z" fill="#8972FF"/>
<path d="M94.5812 37.5335H91.8198V40.2949H94.5812V37.5335Z" fill="#8972FF"/>
<path d="M97.2622 37.5335H94.5008V40.2949H97.2622V37.5335Z" fill="#8972FF"/>
<path d="M99.9431 37.5335H97.1817V40.2949H99.9431V37.5335Z" fill="#8972FF"/>
<path d="M102.624 37.5335H99.8627V40.2949H102.624V37.5335Z" fill="#8972FF"/>
<path d="M103.924 40.2949H102.544V37.5335H105.305V38.9142C105.305 39.6966 104.707 40.2949 103.924 40.2949Z" fill="#8972FF"/>
<path d="M30.238 40.2145H27.4766V42.9759H30.238V40.2145Z" fill="#8972FF"/>
<path d="M32.919 40.2145H30.1576V42.9759H32.919V40.2145Z" fill="#8972FF"/>
<path d="M35.6 40.2145H32.8386V42.9759H35.6V40.2145Z" fill="#8972FF"/>
<path d="M38.2809 40.2145H35.5195V42.9759H38.2809V40.2145Z" fill="#8972FF"/>
<path d="M43.6429 40.2145H40.8815V42.9759H43.6429V40.2145Z" fill="#8972FF"/>
<path d="M46.3238 40.2145H43.5624V42.9759H46.3238V40.2145Z" fill="#8972FF"/>
<path d="M49.0048 40.2145H46.2434V42.9759H49.0048V40.2145Z" fill="#8972FF"/>
<path d="M52.986 42.9759C52.2036 42.9759 51.6053 42.3776 51.6053 41.5952V40.2145H54.3667V41.5952C54.3667 42.3776 53.7684 42.9759 52.986 42.9759Z" fill="#8972FF"/>
<path d="M62.4096 40.2145H59.6482V42.9759H62.4096V40.2145Z" fill="#8972FF"/>
<path d="M65.0906 40.2145H62.3292V42.9759H65.0906V40.2145Z" fill="#8972FF"/>
<path d="M69.0718 42.9759C68.2894 42.9759 67.6911 42.3776 67.6911 41.5952V40.2145H70.4525V41.5952C70.4525 42.3776 69.8542 42.9759 69.0718 42.9759Z" fill="#8972FF"/>
<path d="M75.8144 40.2145H73.0531V42.9759H75.8144V40.2145Z" fill="#8972FF"/>
<path d="M86.5383 40.2145H83.7769V42.9759H86.5383V40.2145Z" fill="#8972FF"/>
<path d="M89.2193 40.2145H86.4579V42.9759H89.2193V40.2145Z" fill="#8972FF"/>
<path d="M91.9002 40.2145H89.1388V42.9759H91.9002V40.2145Z" fill="#8972FF"/>
<path d="M94.5812 40.2145H91.8198V42.9759H94.5812V40.2145Z" fill="#8972FF"/>
<path d="M97.2622 40.2145H94.5008V42.9759H97.2622V40.2145Z" fill="#8972FF"/>
<path d="M99.9431 40.2145H97.1817V42.9759H99.9431V40.2145Z" fill="#8972FF"/>
<path d="M101.243 42.9759H99.8627V40.2145H102.624V41.5952C102.624 42.3776 102.026 42.9759 101.243 42.9759Z" fill="#8972FF"/>
<path d="M8.79032 45.6568H7.40962C6.62722 45.6568 6.02892 45.0585 6.02892 44.2761C6.02892 43.4937 6.62722 42.8954 7.40962 42.8954H8.79032V45.6568Z" fill="#8972FF"/>
<path d="M11.4713 42.8954H8.70989V45.6568H11.4713V42.8954Z" fill="#8972FF"/>
<path d="M12.7716 45.6568H11.3909V42.8954H12.7716C13.5539 42.8954 14.1522 43.4937 14.1522 44.2761C14.1522 45.0585 13.5539 45.6568 12.7716 45.6568Z" fill="#8972FF"/>
<path d="M19.5142 45.6568H18.1335C17.3511 45.6568 16.7528 45.0585 16.7528 44.2761C16.7528 43.4937 17.3511 42.8954 18.1335 42.8954H19.5142V45.6568Z" fill="#8972FF"/>
<path d="M22.1951 45.6568H19.4337V42.8954H20.8144C21.5968 42.8954 22.1951 43.4937 22.1951 44.2761V45.6568Z" fill="#8972FF"/>
<path d="M27.5571 45.6568H26.1764C25.394 45.6568 24.7957 45.0585 24.7957 44.2761C24.7957 43.4937 25.394 42.8954 26.1764 42.8954H27.5571V45.6568Z" fill="#8972FF"/>
<path d="M28.8573 45.6568H27.4766V42.8954H30.238V44.2761C30.238 45.0585 29.6397 45.6568 28.8573 45.6568Z" fill="#8972FF"/>
<path d="M35.6 45.6568H34.2193C33.4369 45.6568 32.8386 45.0585 32.8386 44.2761V42.8954H35.6V45.6568Z" fill="#8972FF"/>
<path d="M38.2809 42.8954H35.5195V45.6568H38.2809V42.8954Z" fill="#8972FF"/>
<path d="M43.6429 42.8954H40.8815V45.6568H43.6429V42.8954Z" fill="#8972FF"/>
<path d="M49.0048 42.8954H46.2434V45.6568H49.0048V42.8954Z" fill="#8972FF"/>
<path d="M57.0477 45.6568H54.2863V44.2761C54.2863 43.4937 54.8846 42.8954 55.667 42.8954H57.0477V45.6568Z" fill="#8972FF"/>
<path d="M59.7287 42.8954H56.9673V45.6568H59.7287V42.8954Z" fill="#8972FF"/>
<path d="M62.4096 42.8954H59.6482V45.6568H62.4096V42.8954Z" fill="#8972FF"/>
<path d="M65.0906 42.8954H62.3292V45.6568H65.0906V42.8954Z" fill="#8972FF"/>
<path d="M66.3909 45.6568H65.0102V42.8954H66.3909C67.1732 42.8954 67.7715 43.4937 67.7715 44.2761C67.7715 45.0585 67.1732 45.6568 66.3909 45.6568Z" fill="#8972FF"/>
<path d="M73.1335 45.6568H70.3721V44.2761C70.3721 43.4937 70.9704 42.8954 71.7528 42.8954H73.1335V45.6568Z" fill="#8972FF"/>
<path d="M74.4338 45.6568H73.0531V42.8954H75.8144V44.2761C75.8144 45.0585 75.2161 45.6568 74.4338 45.6568Z" fill="#8972FF"/>
<path d="M81.1764 45.6568H78.415V44.2761C78.415 43.4937 79.0133 42.8954 79.7957 42.8954C80.5781 42.8954 81.1764 43.4937 81.1764 44.2761V45.6568Z" fill="#8972FF"/>
<path d="M86.5383 42.8954H83.7769V45.6568H86.5383V42.8954Z" fill="#8972FF"/>
<path d="M91.9002 42.8954H89.1388V45.6568H91.9002V42.8954Z" fill="#8972FF"/>
<path d="M95.8815 45.6568C95.0991 45.6568 94.5008 45.0585 94.5008 44.2761V42.8954H97.2622V44.2761C97.2622 45.0585 96.6639 45.6568 95.8815 45.6568Z" fill="#8972FF"/>
<path d="M105.305 45.6568H102.544V44.2761C102.544 43.4937 103.142 42.8954 103.924 42.8954C104.707 42.8954 105.305 43.4937 105.305 44.2761V45.6568Z" fill="#8972FF"/>
<path d="M6.10935 48.3378H3.34796V46.9571C3.34796 46.1747 3.94626 45.5764 4.72865 45.5764C5.51105 45.5764 6.10935 46.1747 6.10935 46.9571V48.3378Z" fill="#8972FF"/>
<path d="M15.4525 48.3378C16.2151 48.3378 16.8332 47.7196 16.8332 46.9571C16.8332 46.1946 16.2151 45.5764 15.4525 45.5764C14.69 45.5764 14.0718 46.1946 14.0718 46.9571C14.0718 47.7196 14.69 48.3378 15.4525 48.3378Z" fill="#8972FF"/>
<path d="M20.8144 48.3378C20.0321 48.3378 19.4337 47.7395 19.4337 46.9571V45.5764H22.1951V46.9571C22.1951 47.7395 21.5968 48.3378 20.8144 48.3378Z" fill="#8972FF"/>
<path d="M31.5383 48.3378C32.3008 48.3378 32.919 47.7196 32.919 46.9571C32.919 46.1946 32.3008 45.5764 31.5383 45.5764C30.7758 45.5764 30.1576 46.1946 30.1576 46.9571C30.1576 47.7196 30.7758 48.3378 31.5383 48.3378Z" fill="#8972FF"/>
<path d="M38.2809 45.5764H35.5195V48.3378H38.2809V45.5764Z" fill="#8972FF"/>
<path d="M40.9619 45.5764H38.2005V48.3378H40.9619V45.5764Z" fill="#8972FF"/>
<path d="M43.6429 45.5764H40.8815V48.3378H43.6429V45.5764Z" fill="#8972FF"/>
<path d="M49.0048 45.5764H46.2434V48.3378H49.0048V45.5764Z" fill="#8972FF"/>
<path d="M51.6858 45.5764H48.9244V48.3378H51.6858V45.5764Z" fill="#8972FF"/>
<path d="M54.3667 45.5764H51.6053V48.3378H54.3667V45.5764Z" fill="#8972FF"/>
<path d="M55.667 48.3378H54.2863V45.5764H57.0477V46.9571C57.0477 47.7395 56.4494 48.3378 55.667 48.3378Z" fill="#8972FF"/>
<path d="M70.4525 48.3378H67.6911V46.9571C67.6911 46.1747 68.2894 45.5764 69.0718 45.5764H70.4525V48.3378Z" fill="#8972FF"/>
<path d="M73.1335 45.5764H70.3721V48.3378H73.1335V45.5764Z" fill="#8972FF"/>
<path d="M78.4954 48.3378H75.734V46.9571C75.734 46.1747 76.3323 45.5764 77.1147 45.5764H78.4954V48.3378Z" fill="#8972FF"/>
<path d="M81.1764 45.5764H78.415V48.3378H81.1764V45.5764Z" fill="#8972FF"/>
<path d="M83.8573 45.5764H81.0959V48.3378H83.8573V45.5764Z" fill="#8972FF"/>
<path d="M86.5383 45.5764H83.7769V48.3378H86.5383V45.5764Z" fill="#8972FF"/>
<path d="M89.2193 45.5764H86.4579V48.3378H89.2193V45.5764Z" fill="#8972FF"/>
<path d="M91.9002 45.5764H89.1388V48.3378H91.9002V45.5764Z" fill="#8972FF"/>
<path d="M94.5812 48.3378H91.8198V45.5764H93.2005C93.9829 45.5764 94.5812 46.1747 94.5812 46.9571V48.3378Z" fill="#8972FF"/>
<path d="M99.9431 48.3378H97.1817V46.9571C97.1817 46.1747 97.78 45.5764 98.5624 45.5764H99.9431V48.3378Z" fill="#8972FF"/>
<path d="M102.624 45.5764H99.8627V48.3378H102.624V45.5764Z" fill="#8972FF"/>
<path d="M105.305 45.5764H102.544V48.3378H105.305V45.5764Z" fill="#8972FF"/>
<path d="M107.986 45.5764H105.225V48.3378H107.986V45.5764Z" fill="#8972FF"/>
<path d="M109.286 48.3378H107.906V45.5764H109.286C110.069 45.5764 110.667 46.1747 110.667 46.9571C110.667 47.7395 110.069 48.3378 109.286 48.3378Z" fill="#8972FF"/>
<path d="M6.10935 51.0188H4.72865C3.94626 51.0188 3.34796 50.4205 3.34796 49.6381V48.2574H6.10935V51.0188Z" fill="#8972FF"/>
<path d="M8.79032 48.2574H6.02892V51.0188H8.79032V48.2574Z" fill="#8972FF"/>
<path d="M10.0906 51.0188H8.70989V48.2574H10.0906C10.873 48.2574 11.4713 48.8557 11.4713 49.6381C11.4713 50.4205 10.873 51.0188 10.0906 51.0188Z" fill="#8972FF"/>
<path d="M18.1335 51.0188C18.896 51.0188 19.5142 50.4006 19.5142 49.6381C19.5142 48.8755 18.896 48.2574 18.1335 48.2574C17.3709 48.2574 16.7528 48.8755 16.7528 49.6381C16.7528 50.4006 17.3709 51.0188 18.1335 51.0188Z" fill="#8972FF"/>
<path d="M24.8761 51.0188H23.4954C22.713 51.0188 22.1147 50.4205 22.1147 49.6381C22.1147 48.8557 22.713 48.2574 23.4954 48.2574H24.8761V51.0188Z" fill="#8972FF"/>
<path d="M26.1764 51.0188H24.7957V48.2574H26.1764C26.9588 48.2574 27.5571 48.8557 27.5571 49.6381C27.5571 50.4205 26.9588 51.0188 26.1764 51.0188Z" fill="#8972FF"/>
<path d="M35.6 51.0188H32.8386V49.6381C32.8386 48.8557 33.4369 48.2574 34.2193 48.2574H35.6V51.0188Z" fill="#8972FF"/>
<path d="M38.2809 48.2574H35.5195V51.0188H38.2809V48.2574Z" fill="#8972FF"/>
<path d="M40.9619 48.2574H38.2005V51.0188H40.9619V48.2574Z" fill="#8972FF"/>
<path d="M43.6429 48.2574H40.8815V51.0188H43.6429V48.2574Z" fill="#8972FF"/>
<path d="M49.0048 48.2574H46.2434V51.0188H49.0048V48.2574Z" fill="#8972FF"/>
<path d="M52.986 51.0188C52.2036 51.0188 51.6053 50.4205 51.6053 49.6381V48.2574H54.3667V49.6381C54.3667 50.4205 53.7684 51.0188 52.986 51.0188Z" fill="#8972FF"/>
<path d="M70.4525 51.0188H69.0718C68.2894 51.0188 67.6911 50.4205 67.6911 49.6381V48.2574H70.4525V51.0188Z" fill="#8972FF"/>
<path d="M73.1335 48.2574H70.3721V51.0188H73.1335V48.2574Z" fill="#8972FF"/>
<path d="M75.8144 48.2574H73.0531V51.0188H75.8144V48.2574Z" fill="#8972FF"/>
<path d="M78.4954 48.2574H75.734V51.0188H78.4954V48.2574Z" fill="#8972FF"/>
<path d="M81.1764 48.2574H78.415V51.0188H81.1764V48.2574Z" fill="#8972FF"/>
<path d="M94.5812 48.2574H91.8198V51.0188H94.5812V48.2574Z" fill="#8972FF"/>
<path d="M99.9431 48.2574H97.1817V51.0188H99.9431V48.2574Z" fill="#8972FF"/>
<path d="M103.924 51.0188C103.142 51.0188 102.544 50.4205 102.544 49.6381V48.2574H105.305V49.6381C105.305 50.4205 104.707 51.0188 103.924 51.0188Z" fill="#8972FF"/>
<path d="M2.04769 53.6997C2.81023 53.6997 3.42839 53.0816 3.42839 52.319C3.42839 51.5565 2.81023 50.9383 2.04769 50.9383C1.28515 50.9383 0.666992 51.5565 0.666992 52.319C0.666992 53.0816 1.28515 53.6997 2.04769 53.6997Z" fill="#8972FF"/>
<path d="M14.1522 53.6997H12.7716C11.9892 53.6997 11.3909 53.1014 11.3909 52.319C11.3909 51.5366 11.9892 50.9383 12.7716 50.9383H14.1522V53.6997Z" fill="#8972FF"/>
<path d="M15.4525 53.6997H14.0718V50.9383H15.4525C16.2349 50.9383 16.8332 51.5366 16.8332 52.319C16.8332 53.1014 16.2349 53.6997 15.4525 53.6997Z" fill="#8972FF"/>
<path d="M22.1951 53.6997H19.4337V52.319C19.4337 51.5366 20.0321 50.9383 20.8144 50.9383C21.5968 50.9383 22.1951 51.5366 22.1951 52.319V53.6997Z" fill="#8972FF"/>
<path d="M30.238 53.6997H28.8573C28.0749 53.6997 27.4766 53.1014 27.4766 52.319C27.4766 51.5366 28.0749 50.9383 28.8573 50.9383H30.238V53.6997Z" fill="#8972FF"/>
<path d="M32.919 50.9383H30.1576V53.6997H32.919V50.9383Z" fill="#8972FF"/>
<path d="M35.6 50.9383H32.8386V53.6997H35.6V50.9383Z" fill="#8972FF"/>
<path d="M42.2622 53.6997C41.4798 53.6997 40.8815 53.1014 40.8815 52.319V50.9383H43.6429V52.319C43.6429 53.1014 43.0446 53.6997 42.2622 53.6997Z" fill="#8972FF"/>
<path d="M47.6241 53.6997C46.8417 53.6997 46.2434 53.1014 46.2434 52.319V50.9383H49.0048V52.319C49.0048 53.1014 48.4065 53.6997 47.6241 53.6997Z" fill="#8972FF"/>
<path d="M62.4096 53.6997H59.6482V52.319C59.6482 51.5366 60.2465 50.9383 61.0289 50.9383H62.4096V53.6997Z" fill="#8972FF"/>
<path d="M65.0906 50.9383H62.3292V53.6997H65.0906V50.9383Z" fill="#8972FF"/>
<path d="M67.7715 53.6997H65.0102V50.9383H66.3909C67.1732 50.9383 67.7715 51.5366 67.7715 52.319V53.6997Z" fill="#8972FF"/>
<path d="M73.1335 53.6997H71.7528C70.9704 53.6997 70.3721 53.1014 70.3721 52.319V50.9383H73.1335V53.6997Z" fill="#8972FF"/>
<path d="M75.8144 50.9383H73.0531V53.6997H75.8144V50.9383Z" fill="#8972FF"/>
<path d="M81.1764 53.6997H79.7957C79.0133 53.6997 78.415 53.1014 78.415 52.319V50.9383H81.1764V53.6997Z" fill="#8972FF"/>
<path d="M83.8573 50.9383H81.0959V53.6997H83.8573V50.9383Z" fill="#8972FF"/>
<path d="M86.5383 50.9383H83.7769V53.6997H86.5383V50.9383Z" fill="#8972FF"/>
<path d="M87.8386 53.6997H86.4579V50.9383H87.8386C88.621 50.9383 89.2193 51.5366 89.2193 52.319C89.2193 53.1014 88.621 53.6997 87.8386 53.6997Z" fill="#8972FF"/>
<path d="M93.2005 53.6997C92.4181 53.6997 91.8198 53.1014 91.8198 52.319V50.9383H94.5812V52.319C94.5812 53.1014 93.9829 53.6997 93.2005 53.6997Z" fill="#8972FF"/>
<path d="M99.9431 50.9383H97.1817V53.6997H99.9431V50.9383Z" fill="#8972FF"/>
<path d="M102.624 53.6997H99.8627V50.9383H101.243C102.026 50.9383 102.624 51.5366 102.624 52.319V53.6997Z" fill="#8972FF"/>
<path d="M109.286 53.6997C110.049 53.6997 110.667 53.0816 110.667 52.319C110.667 51.5565 110.049 50.9383 109.286 50.9383C108.524 50.9383 107.906 51.5565 107.906 52.319C107.906 53.0816 108.524 53.6997 109.286 53.6997Z" fill="#8972FF"/>
<path d="M4.72865 56.3807C5.49119 56.3807 6.10935 55.7625 6.10935 55C6.10935 54.2375 5.49119 53.6193 4.72865 53.6193C3.96612 53.6193 3.34796 54.2375 3.34796 55C3.34796 55.7625 3.96612 56.3807 4.72865 56.3807Z" fill="#8972FF"/>
<path d="M10.0906 56.3807C10.8531 56.3807 11.4713 55.7625 11.4713 55C11.4713 54.2375 10.8531 53.6193 10.0906 53.6193C9.32805 53.6193 8.70989 54.2375 8.70989 55C8.70989 55.7625 9.32805 56.3807 10.0906 56.3807Z" fill="#8972FF"/>
<path d="M19.5142 56.3807H18.1335C17.3511 56.3807 16.7528 55.7824 16.7528 55C16.7528 54.2176 17.3511 53.6193 18.1335 53.6193H19.5142V56.3807Z" fill="#8972FF"/>
<path d="M22.1951 53.6193H19.4337V56.3807H22.1951V53.6193Z" fill="#8972FF"/>
<path d="M26.1764 56.3807C26.9389 56.3807 27.5571 55.7625 27.5571 55C27.5571 54.2375 26.9389 53.6193 26.1764 53.6193C25.4138 53.6193 24.7957 54.2375 24.7957 55C24.7957 55.7625 25.4138 56.3807 26.1764 56.3807Z" fill="#8972FF"/>
<path d="M35.6 53.6193H32.8386V56.3807H35.6V53.6193Z" fill="#8972FF"/>
<path d="M38.2809 53.6193H35.5195V56.3807H38.2809V53.6193Z" fill="#8972FF"/>
<path d="M39.5812 56.3807H38.2005V53.6193H39.5812C40.3636 53.6193 40.9619 54.2176 40.9619 55C40.9619 55.7824 40.3636 56.3807 39.5812 56.3807Z" fill="#8972FF"/>
<path d="M46.3238 56.3807H43.5624V55C43.5624 54.2176 44.1607 53.6193 44.9431 53.6193C45.7255 53.6193 46.3238 54.2176 46.3238 55V56.3807Z" fill="#8972FF"/>
<path d="M54.3667 56.3807H51.6053V55C51.6053 54.2176 52.2036 53.6193 52.986 53.6193H54.3667V56.3807Z" fill="#8972FF"/>
<path d="M57.0477 53.6193H54.2863V56.3807H57.0477V53.6193Z" fill="#8972FF"/>
<path d="M59.7287 53.6193H56.9673V56.3807H59.7287V53.6193Z" fill="#8972FF"/>
<path d="M62.4096 53.6193H59.6482V56.3807H62.4096V53.6193Z" fill="#8972FF"/>
<path d="M65.0906 53.6193H62.3292V56.3807H65.0906V53.6193Z" fill="#8972FF"/>
<path d="M67.7715 53.6193H65.0102V56.3807H67.7715V53.6193Z" fill="#8972FF"/>
<path d="M75.8144 56.3807H74.4338C73.6514 56.3807 73.0531 55.7824 73.0531 55V53.6193H75.8144V56.3807Z" fill="#8972FF"/>
<path d="M78.4954 56.3807H75.734V53.6193H77.1147C77.8971 53.6193 78.4954 54.2176 78.4954 55V56.3807Z" fill="#8972FF"/>
<path d="M99.9431 56.3807H98.5624C97.78 56.3807 97.1817 55.7824 97.1817 55V53.6193H99.9431V56.3807Z" fill="#8972FF"/>
<path d="M102.624 53.6193H99.8627V56.3807H102.624V53.6193Z" fill="#8972FF"/>
<path d="M105.305 53.6193H102.544V56.3807H105.305V53.6193Z" fill="#8972FF"/>
<path d="M107.986 56.3807H105.225V53.6193H106.605C107.388 53.6193 107.986 54.2176 107.986 55V56.3807Z" fill="#8972FF"/>
<path d="M7.40962 59.0617C8.17216 59.0617 8.79032 58.4435 8.79032 57.681C8.79032 56.9184 8.17216 56.3003 7.40962 56.3003C6.64708 56.3003 6.02892 56.9184 6.02892 57.681C6.02892 58.4435 6.64708 59.0617 7.40962 59.0617Z" fill="#8972FF"/>
<path d="M12.7716 59.0617C13.5341 59.0617 14.1522 58.4435 14.1522 57.681C14.1522 56.9184 13.5341 56.3003 12.7716 56.3003C12.009 56.3003 11.3909 56.9184 11.3909 57.681C11.3909 58.4435 12.009 59.0617 12.7716 59.0617Z" fill="#8972FF"/>
<path d="M22.1951 56.3003H19.4337V59.0617H22.1951V56.3003Z" fill="#8972FF"/>
<path d="M30.238 59.0617H27.4766V57.681C27.4766 56.8986 28.0749 56.3003 28.8573 56.3003H30.238V59.0617Z" fill="#8972FF"/>
<path d="M32.919 56.3003H30.1576V59.0617H32.919V56.3003Z" fill="#8972FF"/>
<path d="M35.6 56.3003H32.8386V59.0617H35.6V56.3003Z" fill="#8972FF"/>
<path d="M38.2809 56.3003H35.5195V59.0617H38.2809V56.3003Z" fill="#8972FF"/>
<path d="M43.6429 59.0617H42.2622C41.4798 59.0617 40.8815 58.4634 40.8815 57.681C40.8815 56.8986 41.4798 56.3003 42.2622 56.3003H43.6429V59.0617Z" fill="#8972FF"/>
<path d="M46.3238 56.3003H43.5624V59.0617H46.3238V56.3003Z" fill="#8972FF"/>
<path d="M47.6241 59.0617H46.2434V56.3003H47.6241C48.4065 56.3003 49.0048 56.8986 49.0048 57.681C49.0048 58.4634 48.4065 59.0617 47.6241 59.0617Z" fill="#8972FF"/>
<path d="M52.986 59.0617C52.2036 59.0617 51.6053 58.4634 51.6053 57.681V56.3003H54.3667V57.681C54.3667 58.4634 53.7684 59.0617 52.986 59.0617Z" fill="#8972FF"/>
<path d="M59.7287 56.3003H56.9673V59.0617H59.7287V56.3003Z" fill="#8972FF"/>
<path d="M66.3909 59.0617C65.6085 59.0617 65.0102 58.4634 65.0102 57.681V56.3003H67.7715V57.681C67.7715 58.4634 67.1732 59.0617 66.3909 59.0617Z" fill="#8972FF"/>
<path d="M78.4954 56.3003H75.734V59.0617H78.4954V56.3003Z" fill="#8972FF"/>
<path d="M81.1764 56.3003H78.415V59.0617H81.1764V56.3003Z" fill="#8972FF"/>
<path d="M83.8573 56.3003H81.0959V59.0617H83.8573V56.3003Z" fill="#8972FF"/>
<path d="M86.5383 56.3003H83.7769V59.0617H86.5383V56.3003Z" fill="#8972FF"/>
<path d="M89.2193 56.3003H86.4579V59.0617H89.2193V56.3003Z" fill="#8972FF"/>
<path d="M91.9002 56.3003H89.1388V59.0617H91.9002V56.3003Z" fill="#8972FF"/>
<path d="M94.5812 56.3003H91.8198V59.0617H94.5812V56.3003Z" fill="#8972FF"/>
<path d="M95.8815 59.0617H94.5008V56.3003H95.8815C96.6639 56.3003 97.2622 56.8986 97.2622 57.681C97.2622 58.4634 96.6639 59.0617 95.8815 59.0617Z" fill="#8972FF"/>
<path d="M102.624 56.3003H99.8627V59.0617H102.624V56.3003Z" fill="#8972FF"/>
<path d="M105.305 56.3003H102.544V59.0617H105.305V56.3003Z" fill="#8972FF"/>
<path d="M107.986 56.3003H105.225V59.0617H107.986V56.3003Z" fill="#8972FF"/>
<path d="M109.286 59.0617H107.906V56.3003H109.286C110.069 56.3003 110.667 56.8986 110.667 57.681C110.667 58.4634 110.069 59.0617 109.286 59.0617Z" fill="#8972FF"/>
<path d="M4.72865 61.7426C5.49119 61.7426 6.10935 61.1245 6.10935 60.3619C6.10935 59.5994 5.49119 58.9812 4.72865 58.9812C3.96612 58.9812 3.34796 59.5994 3.34796 60.3619C3.34796 61.1245 3.96612 61.7426 4.72865 61.7426Z" fill="#8972FF"/>
<path d="M10.0906 61.7426C10.8531 61.7426 11.4713 61.1245 11.4713 60.3619C11.4713 59.5994 10.8531 58.9812 10.0906 58.9812C9.32805 58.9812 8.70989 59.5994 8.70989 60.3619C8.70989 61.1245 9.32805 61.7426 10.0906 61.7426Z" fill="#8972FF"/>
<path d="M16.8332 61.7426H14.0718V60.3619C14.0718 59.5795 14.6701 58.9812 15.4525 58.9812H16.8332V61.7426Z" fill="#8972FF"/>
<path d="M19.5142 58.9812H16.7528V61.7426H19.5142V58.9812Z" fill="#8972FF"/>
<path d="M22.1951 58.9812H19.4337V61.7426H22.1951V58.9812Z" fill="#8972FF"/>
<path d="M24.8761 58.9812H22.1147V61.7426H24.8761V58.9812Z" fill="#8972FF"/>
<path d="M27.5571 58.9812H24.7957V61.7426H27.5571V58.9812Z" fill="#8972FF"/>
<path d="M30.238 58.9812H27.4766V61.7426H30.238V58.9812Z" fill="#8972FF"/>
<path d="M32.919 58.9812H30.1576V61.7426H32.919V58.9812Z" fill="#8972FF"/>
<path d="M35.6 58.9812H32.8386V61.7426H35.6V58.9812Z" fill="#8972FF"/>
<path d="M38.2809 58.9812H35.5195V61.7426H38.2809V58.9812Z" fill="#8972FF"/>
<path d="M40.9619 61.7426H38.2005V58.9812H39.5812C40.3636 58.9812 40.9619 59.5795 40.9619 60.3619V61.7426Z" fill="#8972FF"/>
<path d="M59.7287 58.9812H56.9673V61.7426H59.7287V58.9812Z" fill="#8972FF"/>
<path d="M62.4096 61.7426H59.6482V58.9812H61.0289C61.8113 58.9812 62.4096 59.5795 62.4096 60.3619V61.7426Z" fill="#8972FF"/>
<path d="M69.0718 61.7426C69.8344 61.7426 70.4525 61.1245 70.4525 60.3619C70.4525 59.5994 69.8344 58.9812 69.0718 58.9812C68.3093 58.9812 67.6911 59.5994 67.6911 60.3619C67.6911 61.1245 68.3093 61.7426 69.0718 61.7426Z" fill="#8972FF"/>
<path d="M75.8144 61.7426H73.0531V60.3619C73.0531 59.5795 73.6514 58.9812 74.4338 58.9812H75.8144V61.7426Z" fill="#8972FF"/>
<path d="M78.4954 58.9812H75.734V61.7426H78.4954V58.9812Z" fill="#8972FF"/>
<path d="M81.1764 58.9812H78.415V61.7426H81.1764V58.9812Z" fill="#8972FF"/>
<path d="M83.8573 58.9812H81.0959V61.7426H83.8573V58.9812Z" fill="#8972FF"/>
<path d="M89.2193 58.9812H86.4579V61.7426H89.2193V58.9812Z" fill="#8972FF"/>
<path d="M94.5812 58.9812H91.8198V61.7426H94.5812V58.9812Z" fill="#8972FF"/>
<path d="M102.624 58.9812H99.8627V61.7426H102.624V58.9812Z" fill="#8972FF"/>
<path d="M103.924 61.7426H102.544V58.9812H105.305V60.3619C105.305 61.1443 104.707 61.7426 103.924 61.7426Z" fill="#8972FF"/>
<path d="M7.40962 64.4236C8.17216 64.4236 8.79032 63.8054 8.79032 63.0429C8.79032 62.2804 8.17216 61.6622 7.40962 61.6622C6.64708 61.6622 6.02892 62.2804 6.02892 63.0429C6.02892 63.8054 6.64708 64.4236 7.40962 64.4236Z" fill="#8972FF"/>
<path d="M15.4525 64.4236C14.6701 64.4236 14.0718 63.8253 14.0718 63.0429V61.6622H16.8332V63.0429C16.8332 63.8253 16.2349 64.4236 15.4525 64.4236Z" fill="#8972FF"/>
<path d="M23.4954 64.4236C22.713 64.4236 22.1147 63.8253 22.1147 63.0429V61.6622H24.8761V63.0429C24.8761 63.8253 24.2778 64.4236 23.4954 64.4236Z" fill="#8972FF"/>
<path d="M31.5383 64.4236C30.7559 64.4236 30.1576 63.8253 30.1576 63.0429V61.6622H32.919V63.0429C32.919 63.8253 32.3207 64.4236 31.5383 64.4236Z" fill="#8972FF"/>
<path d="M38.2809 64.4236H36.9002C36.1178 64.4236 35.5195 63.8253 35.5195 63.0429V61.6622H38.2809V64.4236Z" fill="#8972FF"/>
<path d="M39.5812 64.4236H38.2005V61.6622H40.9619V63.0429C40.9619 63.8253 40.3636 64.4236 39.5812 64.4236Z" fill="#8972FF"/>
<path d="M46.3238 64.4236H44.9431C44.1607 64.4236 43.5624 63.8253 43.5624 63.0429C43.5624 62.2605 44.1607 61.6622 44.9431 61.6622H46.3238V64.4236Z" fill="#8972FF"/>
<path d="M47.6241 64.4236H46.2434V61.6622H47.6241C48.4065 61.6622 49.0048 62.2605 49.0048 63.0429C49.0048 63.8253 48.4065 64.4236 47.6241 64.4236Z" fill="#8972FF"/>
<path d="M57.0477 64.4236H54.2863V63.0429C54.2863 62.2605 54.8846 61.6622 55.667 61.6622H57.0477V64.4236Z" fill="#8972FF"/>
<path d="M59.7287 61.6622H56.9673V64.4236H59.7287V61.6622Z" fill="#8972FF"/>
<path d="M62.4096 61.6622H59.6482V64.4236H62.4096V61.6622Z" fill="#8972FF"/>
<path d="M65.0906 61.6622H62.3292V64.4236H65.0906V61.6622Z" fill="#8972FF"/>
<path d="M66.3909 64.4236H65.0102V61.6622H66.3909C67.1732 61.6622 67.7715 62.2605 67.7715 63.0429C67.7715 63.8253 67.1732 64.4236 66.3909 64.4236Z" fill="#8972FF"/>
<path d="M75.8144 64.4236H74.4338C73.6514 64.4236 73.0531 63.8253 73.0531 63.0429V61.6622H75.8144V64.4236Z" fill="#8972FF"/>
<path d="M78.4954 61.6622H75.734V64.4236H78.4954V61.6622Z" fill="#8972FF"/>
<path d="M83.8573 61.6622H81.0959V64.4236H83.8573V61.6622Z" fill="#8972FF"/>
<path d="M86.5383 61.6622H83.7769V64.4236H86.5383V61.6622Z" fill="#8972FF"/>
<path d="M89.2193 61.6622H86.4579V64.4236H89.2193V61.6622Z" fill="#8972FF"/>
<path d="M94.5812 64.4236H93.2005C92.4181 64.4236 91.8198 63.8253 91.8198 63.0429V61.6622H94.5812V64.4236Z" fill="#8972FF"/>
<path d="M97.2622 64.4236H94.5008V61.6622H95.8815C96.6639 61.6622 97.2622 62.2605 97.2622 63.0429V64.4236Z" fill="#8972FF"/>
<path d="M102.624 61.6622H99.8627V64.4236H102.624V61.6622Z" fill="#8972FF"/>
<path d="M110.667 64.4236H107.906V63.0429C107.906 62.2605 108.504 61.6622 109.286 61.6622C110.069 61.6622 110.667 62.2605 110.667 63.0429V64.4236Z" fill="#8972FF"/>
<path d="M3.42839 67.1046H0.666992V65.7239C0.666992 64.9415 1.26529 64.3432 2.04769 64.3432H3.42839V67.1046Z" fill="#8972FF"/>
<path d="M4.72865 67.1046H3.34796V64.3432H4.72865C5.51105 64.3432 6.10935 64.9415 6.10935 65.7239C6.10935 66.5063 5.51105 67.1046 4.72865 67.1046Z" fill="#8972FF"/>
<path d="M19.5142 67.1046H18.1335C17.3511 67.1046 16.7528 66.5063 16.7528 65.7239C16.7528 64.9415 17.3511 64.3432 18.1335 64.3432H19.5142V67.1046Z" fill="#8972FF"/>
<path d="M20.8144 67.1046H19.4337V64.3432H20.8144C21.5968 64.3432 22.1951 64.9415 22.1951 65.7239C22.1951 66.5063 21.5968 67.1046 20.8144 67.1046Z" fill="#8972FF"/>
<path d="M27.5571 67.1046H26.1764C25.394 67.1046 24.7957 66.5063 24.7957 65.7239C24.7957 64.9415 25.394 64.3432 26.1764 64.3432H27.5571V67.1046Z" fill="#8972FF"/>
<path d="M30.238 67.1046H27.4766V64.3432H28.8573C29.6397 64.3432 30.238 64.9415 30.238 65.7239V67.1046Z" fill="#8972FF"/>
<path d="M51.6858 67.1046H50.3051C49.5227 67.1046 48.9244 66.5063 48.9244 65.7239C48.9244 64.9415 49.5227 64.3432 50.3051 64.3432H51.6858V67.1046Z" fill="#8972FF"/>
<path d="M54.3667 64.3432H51.6053V67.1046H54.3667V64.3432Z" fill="#8972FF"/>
<path d="M57.0477 64.3432H54.2863V67.1046H57.0477V64.3432Z" fill="#8972FF"/>
<path d="M59.7287 64.3432H56.9673V67.1046H59.7287V64.3432Z" fill="#8972FF"/>
<path d="M63.7099 67.1046C62.9275 67.1046 62.3292 66.5063 62.3292 65.7239V64.3432H65.0906V65.7239C65.0906 66.5063 64.4923 67.1046 63.7099 67.1046Z" fill="#8972FF"/>
<path d="M70.4525 67.1046H67.6911V65.7239C67.6911 64.9415 68.2894 64.3432 69.0718 64.3432C69.8542 64.3432 70.4525 64.9415 70.4525 65.7239V67.1046Z" fill="#8972FF"/>
<path d="M78.4954 64.3432H75.734V67.1046H78.4954V64.3432Z" fill="#8972FF"/>
<path d="M81.1764 64.3432H78.415V67.1046H81.1764V64.3432Z" fill="#8972FF"/>
<path d="M83.8573 64.3432H81.0959V67.1046H83.8573V64.3432Z" fill="#8972FF"/>
<path d="M86.5383 64.3432H83.7769V67.1046H86.5383V64.3432Z" fill="#8972FF"/>
<path d="M89.2193 64.3432H86.4579V67.1046H89.2193V64.3432Z" fill="#8972FF"/>
<path d="M97.2622 64.3432H94.5008V67.1046H97.2622V64.3432Z" fill="#8972FF"/>
<path d="M102.624 64.3432H99.8627V67.1046H102.624V64.3432Z" fill="#8972FF"/>
<path d="M103.924 67.1046H102.544V64.3432H103.924C104.707 64.3432 105.305 64.9415 105.305 65.7239C105.305 66.5063 104.707 67.1046 103.924 67.1046Z" fill="#8972FF"/>
<path d="M110.667 64.3432H107.906V67.1046H110.667V64.3432Z" fill="#8972FF"/>
<path d="M3.42839 67.0241H0.666992V69.7855H3.42839V67.0241Z" fill="#8972FF"/>
<path d="M16.8332 69.7855H14.0718V68.4048C14.0718 67.6224 14.6701 67.0241 15.4525 67.0241C16.2349 67.0241 16.8332 67.6224 16.8332 68.4048V69.7855Z" fill="#8972FF"/>
<path d="M24.8761 69.7855H22.1147V68.4048C22.1147 67.6224 22.713 67.0241 23.4954 67.0241C24.2778 67.0241 24.8761 67.6224 24.8761 68.4048V69.7855Z" fill="#8972FF"/>
<path d="M28.8573 69.7855C28.0749 69.7855 27.4766 69.1872 27.4766 68.4048V67.0241H30.238V68.4048C30.238 69.1872 29.6397 69.7855 28.8573 69.7855Z" fill="#8972FF"/>
<path d="M35.6 69.7855H32.8386V68.4048C32.8386 67.6224 33.4369 67.0241 34.2193 67.0241C35.0017 67.0241 35.6 67.6224 35.6 68.4048V69.7855Z" fill="#8972FF"/>
<path d="M46.3238 69.7855H43.5624V68.4048C43.5624 67.6224 44.1607 67.0241 44.9431 67.0241C45.7255 67.0241 46.3238 67.6224 46.3238 68.4048V69.7855Z" fill="#8972FF"/>
<path d="M57.0477 69.7855H55.667C54.8846 69.7855 54.2863 69.1872 54.2863 68.4048V67.0241H57.0477V69.7855Z" fill="#8972FF"/>
<path d="M58.348 69.7855H56.9673V67.0241H59.7287V68.4048C59.7287 69.1872 59.1304 69.7855 58.348 69.7855Z" fill="#8972FF"/>
<path d="M67.7715 69.7855H66.3909C65.6085 69.7855 65.0102 69.1872 65.0102 68.4048C65.0102 67.6224 65.6085 67.0241 66.3909 67.0241H67.7715V69.7855Z" fill="#8972FF"/>
<path d="M69.0718 69.7855H67.6911V67.0241H70.4525V68.4048C70.4525 69.1872 69.8542 69.7855 69.0718 69.7855Z" fill="#8972FF"/>
<path d="M78.4954 67.0241H75.734V69.7855H78.4954V67.0241Z" fill="#8972FF"/>
<path d="M81.1764 67.0241H78.415V69.7855H81.1764V67.0241Z" fill="#8972FF"/>
<path d="M83.8573 67.0241H81.0959V69.7855H83.8573V67.0241Z" fill="#8972FF"/>
<path d="M86.5383 67.0241H83.7769V69.7855H86.5383V67.0241Z" fill="#8972FF"/>
<path d="M89.2193 67.0241H86.4579V69.7855H89.2193V67.0241Z" fill="#8972FF"/>
<path d="M91.9002 67.0241H89.1388V69.7855H91.9002V67.0241Z" fill="#8972FF"/>
<path d="M94.5812 67.0241H91.8198V69.7855H94.5812V67.0241Z" fill="#8972FF"/>
<path d="M97.2622 67.0241H94.5008V69.7855H97.2622V67.0241Z" fill="#8972FF"/>
<path d="M99.9431 67.0241H97.1817V69.7855H99.9431V67.0241Z" fill="#8972FF"/>
<path d="M101.243 69.7855H99.8627V67.0241H102.624V68.4048C102.624 69.1872 102.026 69.7855 101.243 69.7855Z" fill="#8972FF"/>
<path d="M107.986 69.7855H106.605C105.823 69.7855 105.225 69.1872 105.225 68.4048C105.225 67.6224 105.823 67.0241 106.605 67.0241H107.986V69.7855Z" fill="#8972FF"/>
<path d="M109.286 69.7855H107.906V67.0241H110.667V68.4048C110.667 69.1872 110.069 69.7855 109.286 69.7855Z" fill="#8972FF"/>
<path d="M2.04769 72.4665C1.26529 72.4665 0.666992 71.8682 0.666992 71.0858V69.7051H3.42839V71.0858C3.42839 71.8682 2.83008 72.4665 2.04769 72.4665Z" fill="#8972FF"/>
<path d="M8.79032 72.4665H6.02892V71.0858C6.02892 70.3034 6.62722 69.7051 7.40962 69.7051C8.19201 69.7051 8.79032 70.3034 8.79032 71.0858V72.4665Z" fill="#8972FF"/>
<path d="M16.8332 69.7051H14.0718V72.4665H16.8332V69.7051Z" fill="#8972FF"/>
<path d="M18.1335 72.4665H16.7528V69.7051H18.1335C18.9159 69.7051 19.5142 70.3034 19.5142 71.0858C19.5142 71.8682 18.9159 72.4665 18.1335 72.4665Z" fill="#8972FF"/>
<path d="M24.8761 69.7051H22.1147V72.4665H24.8761V69.7051Z" fill="#8972FF"/>
<path d="M32.919 72.4665H31.5383C30.7559 72.4665 30.1576 71.8682 30.1576 71.0858C30.1576 70.3034 30.7559 69.7051 31.5383 69.7051H32.919V72.4665Z" fill="#8972FF"/>
<path d="M34.2193 72.4665H32.8386V69.7051H35.6V71.0858C35.6 71.8682 35.0017 72.4665 34.2193 72.4665Z" fill="#8972FF"/>
<path d="M43.6429 72.4665H42.2622C41.4798 72.4665 40.8815 71.8682 40.8815 71.0858C40.8815 70.3034 41.4798 69.7051 42.2622 69.7051H43.6429V72.4665Z" fill="#8972FF"/>
<path d="M46.3238 69.7051H43.5624V72.4665H46.3238V69.7051Z" fill="#8972FF"/>
<path d="M49.0048 69.7051H46.2434V72.4665H49.0048V69.7051Z" fill="#8972FF"/>
<path d="M51.6858 69.7051H48.9244V72.4665H51.6858V69.7051Z" fill="#8972FF"/>
<path d="M52.986 72.4665H51.6053V69.7051H52.986C53.7684 69.7051 54.3667 70.3034 54.3667 71.0858C54.3667 71.8682 53.7684 72.4665 52.986 72.4665Z" fill="#8972FF"/>
<path d="M73.1335 72.4665H71.7528C70.9704 72.4665 70.3721 71.8682 70.3721 71.0858C70.3721 70.3034 70.9704 69.7051 71.7528 69.7051H73.1335V72.4665Z" fill="#8972FF"/>
<path d="M75.8144 69.7051H73.0531V72.4665H75.8144V69.7051Z" fill="#8972FF"/>
<path d="M78.4954 69.7051H75.734V72.4665H78.4954V69.7051Z" fill="#8972FF"/>
<path d="M82.4766 72.4665C81.6943 72.4665 81.0959 71.8682 81.0959 71.0858V69.7051H83.8573V71.0858C83.8573 71.8682 83.259 72.4665 82.4766 72.4665Z" fill="#8972FF"/>
<path d="M89.2193 69.7051H86.4579V72.4665H89.2193V69.7051Z" fill="#8972FF"/>
<path d="M94.5812 69.7051H91.8198V72.4665H94.5812V69.7051Z" fill="#8972FF"/>
<path d="M97.2622 69.7051H94.5008V72.4665H97.2622V69.7051Z" fill="#8972FF"/>
<path d="M99.9431 69.7051H97.1817V72.4665H99.9431V69.7051Z" fill="#8972FF"/>
<path d="M8.79032 75.1475H7.40962C6.62722 75.1475 6.02892 74.5492 6.02892 73.7668V72.3861H8.79032V75.1475Z" fill="#8972FF"/>
<path d="M11.4713 72.3861H8.70989V75.1475H11.4713V72.3861Z" fill="#8972FF"/>
<path d="M14.1522 72.3861H11.3909V75.1475H14.1522V72.3861Z" fill="#8972FF"/>
<path d="M16.8332 72.3861H14.0718V75.1475H16.8332V72.3861Z" fill="#8972FF"/>
<path d="M22.1951 75.1475H19.4337V73.7668C19.4337 72.9844 20.0321 72.3861 20.8144 72.3861H22.1951V75.1475Z" fill="#8972FF"/>
<path d="M24.8761 72.3861H22.1147V75.1475H24.8761V72.3861Z" fill="#8972FF"/>
<path d="M27.5571 72.3861H24.7957V75.1475H27.5571V72.3861Z" fill="#8972FF"/>
<path d="M30.238 75.1475H27.4766V72.3861H28.8573C29.6397 72.3861 30.238 72.9844 30.238 73.7668V75.1475Z" fill="#8972FF"/>
<path d="M40.9619 75.1475H38.2005V73.7668C38.2005 72.9844 38.7988 72.3861 39.5812 72.3861C40.3636 72.3861 40.9619 72.9844 40.9619 73.7668V75.1475Z" fill="#8972FF"/>
<path d="M47.6241 75.1475C46.8417 75.1475 46.2434 74.5492 46.2434 73.7668V72.3861H49.0048V73.7668C49.0048 74.5492 48.4065 75.1475 47.6241 75.1475Z" fill="#8972FF"/>
<path d="M62.4096 75.1475H59.6482V73.7668C59.6482 72.9844 60.2465 72.3861 61.0289 72.3861C61.8113 72.3861 62.4096 72.9844 62.4096 73.7668V75.1475Z" fill="#8972FF"/>
<path d="M67.7715 75.1475H66.3909C65.6085 75.1475 65.0102 74.5492 65.0102 73.7668C65.0102 72.9844 65.6085 72.3861 66.3909 72.3861H67.7715V75.1475Z" fill="#8972FF"/>
<path d="M69.0718 75.1475H67.6911V72.3861H69.0718C69.8542 72.3861 70.4525 72.9844 70.4525 73.7668C70.4525 74.5492 69.8542 75.1475 69.0718 75.1475Z" fill="#8972FF"/>
<path d="M77.1147 75.1475C76.3323 75.1475 75.734 74.5492 75.734 73.7668V72.3861H78.4954V73.7668C78.4954 74.5492 77.8971 75.1475 77.1147 75.1475Z" fill="#8972FF"/>
<path d="M86.5383 75.1475H83.7769V73.7668C83.7769 72.9844 84.3752 72.3861 85.1576 72.3861H86.5383V75.1475Z" fill="#8972FF"/>
<path d="M89.2193 72.3861H86.4579V75.1475H89.2193V72.3861Z" fill="#8972FF"/>
<path d="M91.9002 72.3861H89.1388V75.1475H91.9002V72.3861Z" fill="#8972FF"/>
<path d="M94.5812 72.3861H91.8198V75.1475H94.5812V72.3861Z" fill="#8972FF"/>
<path d="M97.2622 72.3861H94.5008V75.1475H97.2622V72.3861Z" fill="#8972FF"/>
<path d="M99.9431 72.3861H97.1817V75.1475H99.9431V72.3861Z" fill="#8972FF"/>
<path d="M102.624 75.1475H99.8627V72.3861H101.243C102.026 72.3861 102.624 72.9844 102.624 73.7668V75.1475Z" fill="#8972FF"/>
<path d="M110.667 75.1475H107.906V73.7668C107.906 72.9844 108.504 72.3861 109.286 72.3861C110.069 72.3861 110.667 72.9844 110.667 73.7668V75.1475Z" fill="#8972FF"/>
<path d="M3.42839 77.8284H0.666992V76.4477C0.666992 75.6653 1.26529 75.067 2.04769 75.067C2.83008 75.067 3.42839 75.6653 3.42839 76.4477V77.8284Z" fill="#8972FF"/>
<path d="M16.8332 75.067H14.0718V77.8284H16.8332V75.067Z" fill="#8972FF"/>
<path d="M19.5142 75.067H16.7528V77.8284H19.5142V75.067Z" fill="#8972FF"/>
<path d="M22.1951 75.067H19.4337V77.8284H22.1951V75.067Z" fill="#8972FF"/>
<path d="M27.5571 75.067H24.7957V77.8284H27.5571V75.067Z" fill="#8972FF"/>
<path d="M28.8573 77.8284H27.4766V75.067H30.238V76.4477C30.238 77.2301 29.6397 77.8284 28.8573 77.8284Z" fill="#8972FF"/>
<path d="M35.6 77.8284H32.8386V76.4477C32.8386 75.6653 33.4369 75.067 34.2193 75.067H35.6V77.8284Z" fill="#8972FF"/>
<path d="M38.2809 75.067H35.5195V77.8284H38.2809V75.067Z" fill="#8972FF"/>
<path d="M40.9619 75.067H38.2005V77.8284H40.9619V75.067Z" fill="#8972FF"/>
<path d="M51.6858 77.8284H48.9244V76.4477C48.9244 75.6653 49.5227 75.067 50.3051 75.067C51.0875 75.067 51.6858 75.6653 51.6858 76.4477V77.8284Z" fill="#8972FF"/>
<path d="M59.7287 77.8284H58.348C57.5656 77.8284 56.9673 77.2301 56.9673 76.4477C56.9673 75.6653 57.5656 75.067 58.348 75.067H59.7287V77.8284Z" fill="#8972FF"/>
<path d="M61.0289 77.8284H59.6482V75.067H62.4096V76.4477C62.4096 77.2301 61.8113 77.8284 61.0289 77.8284Z" fill="#8972FF"/>
<path d="M71.7528 77.8284C72.5153 77.8284 73.1335 77.2103 73.1335 76.4477C73.1335 75.6852 72.5153 75.067 71.7528 75.067C70.9902 75.067 70.3721 75.6852 70.3721 76.4477C70.3721 77.2103 70.9902 77.8284 71.7528 77.8284Z" fill="#8972FF"/>
<path d="M79.7957 77.8284C80.5582 77.8284 81.1764 77.2103 81.1764 76.4477C81.1764 75.6852 80.5582 75.067 79.7957 75.067C79.0331 75.067 78.415 75.6852 78.415 76.4477C78.415 77.2103 79.0331 77.8284 79.7957 77.8284Z" fill="#8972FF"/>
<path d="M86.5383 77.8284H85.1576C84.3752 77.8284 83.7769 77.2301 83.7769 76.4477V75.067H86.5383V77.8284Z" fill="#8972FF"/>
<path d="M87.8386 77.8284H86.4579V75.067H89.2193V76.4477C89.2193 77.2301 88.621 77.8284 87.8386 77.8284Z" fill="#8972FF"/>
<path d="M93.2005 77.8284C92.4181 77.8284 91.8198 77.2301 91.8198 76.4477V75.067H94.5812V76.4477C94.5812 77.2301 93.9829 77.8284 93.2005 77.8284Z" fill="#8972FF"/>
<path d="M102.624 75.067H99.8627V77.8284H102.624V75.067Z" fill="#8972FF"/>
<path d="M105.305 77.8284H102.544V75.067H103.924C104.707 75.067 105.305 75.6653 105.305 76.4477V77.8284Z" fill="#8972FF"/>
<path d="M110.667 75.067H107.906V77.8284H110.667V75.067Z" fill="#8972FF"/>
<path d="M3.42839 77.748H0.666992V80.5094H3.42839V77.748Z" fill="#8972FF"/>
<path d="M8.79032 80.5094H7.40962C6.62722 80.5094 6.02892 79.9111 6.02892 79.1287C6.02892 78.3463 6.62722 77.748 7.40962 77.748H8.79032V80.5094Z" fill="#8972FF"/>
<path d="M11.4713 80.5094H8.70989V77.748H10.0906C10.873 77.748 11.4713 78.3463 11.4713 79.1287V80.5094Z" fill="#8972FF"/>
<path d="M16.8332 77.748H14.0718V80.5094H16.8332V77.748Z" fill="#8972FF"/>
<path d="M22.1951 77.748H19.4337V80.5094H22.1951V77.748Z" fill="#8972FF"/>
<path d="M26.1764 80.5094C25.394 80.5094 24.7957 79.9111 24.7957 79.1287V77.748H27.5571V79.1287C27.5571 79.9111 26.9588 80.5094 26.1764 80.5094Z" fill="#8972FF"/>
<path d="M35.6 80.5094H34.2193C33.4369 80.5094 32.8386 79.9111 32.8386 79.1287V77.748H35.6V80.5094Z" fill="#8972FF"/>
<path d="M38.2809 77.748H35.5195V80.5094H38.2809V77.748Z" fill="#8972FF"/>
<path d="M40.9619 77.748H38.2005V80.5094H40.9619V77.748Z" fill="#8972FF"/>
<path d="M49.0048 80.5094H46.2434V79.1287C46.2434 78.3463 46.8417 77.748 47.6241 77.748H49.0048V80.5094Z" fill="#8972FF"/>
<path d="M51.6858 77.748H48.9244V80.5094H51.6858V77.748Z" fill="#8972FF"/>
<path d="M52.986 80.5094H51.6053V77.748H52.986C53.7684 77.748 54.3667 78.3463 54.3667 79.1287C54.3667 79.9111 53.7684 80.5094 52.986 80.5094Z" fill="#8972FF"/>
<path d="M69.0718 80.5094C69.8344 80.5094 70.4525 79.8912 70.4525 79.1287C70.4525 78.3661 69.8344 77.748 69.0718 77.748C68.3093 77.748 67.6911 78.3661 67.6911 79.1287C67.6911 79.8912 68.3093 80.5094 69.0718 80.5094Z" fill="#8972FF"/>
<path d="M75.8144 80.5094H74.4338C73.6514 80.5094 73.0531 79.9111 73.0531 79.1287C73.0531 78.3463 73.6514 77.748 74.4338 77.748H75.8144V80.5094Z" fill="#8972FF"/>
<path d="M77.1147 80.5094H75.734V77.748H77.1147C77.8971 77.748 78.4954 78.3463 78.4954 79.1287C78.4954 79.9111 77.8971 80.5094 77.1147 80.5094Z" fill="#8972FF"/>
<path d="M83.8573 80.5094H81.0959V79.1287C81.0959 78.3463 81.6943 77.748 82.4766 77.748C83.259 77.748 83.8573 78.3463 83.8573 79.1287V80.5094Z" fill="#8972FF"/>
<path d="M90.5195 80.5094C91.2821 80.5094 91.9002 79.8912 91.9002 79.1287C91.9002 78.3661 91.2821 77.748 90.5195 77.748C89.757 77.748 89.1388 78.3661 89.1388 79.1287C89.1388 79.8912 89.757 80.5094 90.5195 80.5094Z" fill="#8972FF"/>
<path d="M97.2622 80.5094H95.8815C95.0991 80.5094 94.5008 79.9111 94.5008 79.1287C94.5008 78.3463 95.0991 77.748 95.8815 77.748H97.2622V80.5094Z" fill="#8972FF"/>
<path d="M99.9431 77.748H97.1817V80.5094H99.9431V77.748Z" fill="#8972FF"/>
<path d="M102.624 77.748H99.8627V80.5094H102.624V77.748Z" fill="#8972FF"/>
<path d="M103.924 80.5094H102.544V77.748H105.305V79.1287C105.305 79.9111 104.707 80.5094 103.924 80.5094Z" fill="#8972FF"/>
<path d="M109.286 80.5094C108.504 80.5094 107.906 79.9111 107.906 79.1287V77.748H110.667V79.1287C110.667 79.9111 110.069 80.5094 109.286 80.5094Z" fill="#8972FF"/>
<path d="M3.42839 80.429H0.666992V83.1903H3.42839V80.429Z" fill="#8972FF"/>
<path d="M11.4713 83.1903H10.0906C9.30819 83.1903 8.70989 82.592 8.70989 81.8097V80.429H11.4713V83.1903Z" fill="#8972FF"/>
<path d="M14.1522 80.429H11.3909V83.1903H14.1522V80.429Z" fill="#8972FF"/>
<path d="M16.8332 80.429H14.0718V83.1903H16.8332V80.429Z" fill="#8972FF"/>
<path d="M19.5142 80.429H16.7528V83.1903H19.5142V80.429Z" fill="#8972FF"/>
<path d="M22.1951 80.429H19.4337V83.1903H22.1951V80.429Z" fill="#8972FF"/>
<path d="M40.9619 80.429H38.2005V83.1903H40.9619V80.429Z" fill="#8972FF"/>
<path d="M46.3238 83.1903H43.5624V81.8097C43.5624 81.0273 44.1607 80.429 44.9431 80.429H46.3238V83.1903Z" fill="#8972FF"/>
<path d="M49.0048 80.429H46.2434V83.1903H49.0048V80.429Z" fill="#8972FF"/>
<path d="M65.0906 83.1903H62.3292V81.8097C62.3292 81.0273 62.9275 80.429 63.7099 80.429C64.4923 80.429 65.0906 81.0273 65.0906 81.8097V83.1903Z" fill="#8972FF"/>
<path d="M71.7528 83.1903C72.5153 83.1903 73.1335 82.5722 73.1335 81.8097C73.1335 81.0471 72.5153 80.429 71.7528 80.429C70.9902 80.429 70.3721 81.0471 70.3721 81.8097C70.3721 82.5722 70.9902 83.1903 71.7528 83.1903Z" fill="#8972FF"/>
<path d="M81.1764 83.1903H79.7957C79.0133 83.1903 78.415 82.592 78.415 81.8097C78.415 81.0273 79.0133 80.429 79.7957 80.429H81.1764V83.1903Z" fill="#8972FF"/>
<path d="M82.4766 83.1903H81.0959V80.429H83.8573V81.8097C83.8573 82.592 83.259 83.1903 82.4766 83.1903Z" fill="#8972FF"/>
<path d="M87.8386 83.1903C88.6011 83.1903 89.2193 82.5722 89.2193 81.8097C89.2193 81.0471 88.6011 80.429 87.8386 80.429C87.076 80.429 86.4579 81.0471 86.4579 81.8097C86.4579 82.5722 87.076 83.1903 87.8386 83.1903Z" fill="#8972FF"/>
<path d="M94.5812 83.1903H91.8198V81.8097C91.8198 81.0273 92.4181 80.429 93.2005 80.429C93.9829 80.429 94.5812 81.0273 94.5812 81.8097V83.1903Z" fill="#8972FF"/>
<path d="M3.42839 83.1099H0.666992V85.8713H3.42839V83.1099Z" fill="#8972FF"/>
<path d="M16.8332 83.1099H14.0718V85.8713H16.8332V83.1099Z" fill="#8972FF"/>
<path d="M22.1951 83.1099H19.4337V85.8713H22.1951V83.1099Z" fill="#8972FF"/>
<path d="M30.238 85.8713H28.8573C28.0749 85.8713 27.4766 85.273 27.4766 84.4906C27.4766 83.7082 28.0749 83.1099 28.8573 83.1099H30.238V85.8713Z" fill="#8972FF"/>
<path d="M32.919 85.8713H30.1576V83.1099H31.5383C32.3207 83.1099 32.919 83.7082 32.919 84.4906V85.8713Z" fill="#8972FF"/>
<path d="M40.9619 85.8713H39.5812C38.7988 85.8713 38.2005 85.273 38.2005 84.4906V83.1099H40.9619V85.8713Z" fill="#8972FF"/>
<path d="M43.6429 83.1099H40.8815V85.8713H43.6429V83.1099Z" fill="#8972FF"/>
<path d="M46.3238 83.1099H43.5624V85.8713H46.3238V83.1099Z" fill="#8972FF"/>
<path d="M49.0048 83.1099H46.2434V85.8713H49.0048V83.1099Z" fill="#8972FF"/>
<path d="M50.3051 85.8713H48.9244V83.1099H50.3051C51.0875 83.1099 51.6858 83.7082 51.6858 84.4906C51.6858 85.273 51.0875 85.8713 50.3051 85.8713Z" fill="#8972FF"/>
<path d="M57.0477 85.8713H54.2863V84.4906C54.2863 83.7082 54.8846 83.1099 55.667 83.1099C56.4494 83.1099 57.0477 83.7082 57.0477 84.4906V85.8713Z" fill="#8972FF"/>
<path d="M65.0906 83.1099H62.3292V85.8713H65.0906V83.1099Z" fill="#8972FF"/>
<path d="M77.1147 85.8713C77.8773 85.8713 78.4954 85.2532 78.4954 84.4906C78.4954 83.7281 77.8773 83.1099 77.1147 83.1099C76.3522 83.1099 75.734 83.7281 75.734 84.4906C75.734 85.2532 76.3522 85.8713 77.1147 85.8713Z" fill="#8972FF"/>
<path d="M94.5812 83.1099H91.8198V85.8713H94.5812V83.1099Z" fill="#8972FF"/>
<path d="M97.2622 83.1099H94.5008V85.8713H97.2622V83.1099Z" fill="#8972FF"/>
<path d="M99.9431 83.1099H97.1817V85.8713H99.9431V83.1099Z" fill="#8972FF"/>
<path d="M102.624 85.8713H99.8627V83.1099H101.243C102.026 83.1099 102.624 83.7082 102.624 84.4906V85.8713Z" fill="#8972FF"/>
<path d="M107.986 85.8713H105.225V84.4906C105.225 83.7082 105.823 83.1099 106.605 83.1099C107.388 83.1099 107.986 83.7082 107.986 84.4906V85.8713Z" fill="#8972FF"/>
<path d="M2.04769 88.5523C1.26529 88.5523 0.666992 87.954 0.666992 87.1716V85.7909H3.42839V87.1716C3.42839 87.954 2.83008 88.5523 2.04769 88.5523Z" fill="#8972FF"/>
<path d="M8.79032 88.5523H7.40962C6.62722 88.5523 6.02892 87.954 6.02892 87.1716C6.02892 86.3892 6.62722 85.7909 7.40962 85.7909H8.79032V88.5523Z" fill="#8972FF"/>
<path d="M11.4713 85.7909H8.70989V88.5523H11.4713V85.7909Z" fill="#8972FF"/>
<path d="M14.1522 85.7909H11.3909V88.5523H14.1522V85.7909Z" fill="#8972FF"/>
<path d="M16.8332 85.7909H14.0718V88.5523H16.8332V85.7909Z" fill="#8972FF"/>
<path d="M19.5142 85.7909H16.7528V88.5523H19.5142V85.7909Z" fill="#8972FF"/>
<path d="M22.1951 85.7909H19.4337V88.5523H22.1951V85.7909Z" fill="#8972FF"/>
<path d="M24.8761 85.7909H22.1147V88.5523H24.8761V85.7909Z" fill="#8972FF"/>
<path d="M26.1764 88.5523H24.7957V85.7909H26.1764C26.9588 85.7909 27.5571 86.3892 27.5571 87.1716C27.5571 87.954 26.9588 88.5523 26.1764 88.5523Z" fill="#8972FF"/>
<path d="M32.919 85.7909H30.1576V88.5523H32.919V85.7909Z" fill="#8972FF"/>
<path d="M35.6 85.7909H32.8386V88.5523H35.6V85.7909Z" fill="#8972FF"/>
<path d="M38.2809 88.5523H35.5195V85.7909H36.9002C37.6826 85.7909 38.2809 86.3892 38.2809 87.1716V88.5523Z" fill="#8972FF"/>
<path d="M44.9431 88.5523C44.1607 88.5523 43.5624 87.954 43.5624 87.1716V85.7909H46.3238V87.1716C46.3238 87.954 45.7255 88.5523 44.9431 88.5523Z" fill="#8972FF"/>
<path d="M54.3667 88.5523H51.6053V87.1716C51.6053 86.3892 52.2036 85.7909 52.986 85.7909H54.3667V88.5523Z" fill="#8972FF"/>
<path d="M57.0477 85.7909H54.2863V88.5523H57.0477V85.7909Z" fill="#8972FF"/>
<path d="M62.4096 88.5523H61.0289C60.2465 88.5523 59.6482 87.954 59.6482 87.1716C59.6482 86.3892 60.2465 85.7909 61.0289 85.7909H62.4096V88.5523Z" fill="#8972FF"/>
<path d="M65.0906 85.7909H62.3292V88.5523H65.0906V85.7909Z" fill="#8972FF"/>
<path d="M67.7715 88.5523H65.0102V85.7909H66.3909C67.1732 85.7909 67.7715 86.3892 67.7715 87.1716V88.5523Z" fill="#8972FF"/>
<path d="M79.7957 88.5523C80.5582 88.5523 81.1764 87.9341 81.1764 87.1716C81.1764 86.409 80.5582 85.7909 79.7957 85.7909C79.0331 85.7909 78.415 86.409 78.415 87.1716C78.415 87.9341 79.0331 88.5523 79.7957 88.5523Z" fill="#8972FF"/>
<path d="M89.2193 88.5523H86.4579V87.1716C86.4579 86.3892 87.0562 85.7909 87.8386 85.7909H89.2193V88.5523Z" fill="#8972FF"/>
<path d="M91.9002 85.7909H89.1388V88.5523H91.9002V85.7909Z" fill="#8972FF"/>
<path d="M94.5812 85.7909H91.8198V88.5523H94.5812V85.7909Z" fill="#8972FF"/>
<path d="M97.2622 85.7909H94.5008V88.5523H97.2622V85.7909Z" fill="#8972FF"/>
<path d="M99.9431 85.7909H97.1817V88.5523H99.9431V85.7909Z" fill="#8972FF"/>
<path d="M102.624 85.7909H99.8627V88.5523H102.624V85.7909Z" fill="#8972FF"/>
<path d="M105.305 85.7909H102.544V88.5523H105.305V85.7909Z" fill="#8972FF"/>
<path d="M107.986 85.7909H105.225V88.5523H107.986V85.7909Z" fill="#8972FF"/>
<path d="M110.667 88.5523H107.906V85.7909H109.286C110.069 85.7909 110.667 86.3892 110.667 87.1716V88.5523Z" fill="#8972FF"/>
<path d="M23.4954 91.2332C22.713 91.2332 22.1147 90.6349 22.1147 89.8525V88.4718H24.8761V89.8525C24.8761 90.6349 24.2778 91.2332 23.4954 91.2332Z" fill="#8972FF"/>
<path d="M30.238 91.2332H28.8573C28.0749 91.2332 27.4766 90.6349 27.4766 89.8525C27.4766 89.0702 28.0749 88.4718 28.8573 88.4718H30.238V91.2332Z" fill="#8972FF"/>
<path d="M32.919 88.4718H30.1576V91.2332H32.919V88.4718Z" fill="#8972FF"/>
<path d="M36.9002 91.2332C36.1178 91.2332 35.5195 90.6349 35.5195 89.8525V88.4718H38.2809V89.8525C38.2809 90.6349 37.6826 91.2332 36.9002 91.2332Z" fill="#8972FF"/>
<path d="M54.3667 88.4718H51.6053V91.2332H54.3667V88.4718Z" fill="#8972FF"/>
<path d="M57.0477 88.4718H54.2863V91.2332H57.0477V88.4718Z" fill="#8972FF"/>
<path d="M58.348 91.2332H56.9673V88.4718H58.348C59.1304 88.4718 59.7287 89.0702 59.7287 89.8525C59.7287 90.6349 59.1304 91.2332 58.348 91.2332Z" fill="#8972FF"/>
<path d="M65.0906 88.4718H62.3292V91.2332H65.0906V88.4718Z" fill="#8972FF"/>
<path d="M66.3909 91.2332H65.0102V88.4718H67.7715V89.8525C67.7715 90.6349 67.1732 91.2332 66.3909 91.2332Z" fill="#8972FF"/>
<path d="M78.4954 91.2332H75.734V89.8525C75.734 89.0702 76.3323 88.4718 77.1147 88.4718C77.8971 88.4718 78.4954 89.0702 78.4954 89.8525V91.2332Z" fill="#8972FF"/>
<path d="M83.8573 91.2332H81.0959V89.8525C81.0959 89.0702 81.6943 88.4718 82.4766 88.4718C83.259 88.4718 83.8573 89.0702 83.8573 89.8525V91.2332Z" fill="#8972FF"/>
<path d="M89.2193 88.4718H86.4579V91.2332H89.2193V88.4718Z" fill="#8972FF"/>
<path d="M99.9431 88.4718H97.1817V91.2332H99.9431V88.4718Z" fill="#8972FF"/>
<path d="M101.243 91.2332H99.8627V88.4718H102.624V89.8525C102.624 90.6349 102.026 91.2332 101.243 91.2332Z" fill="#8972FF"/>
<path d="M109.286 91.2332C108.504 91.2332 107.906 90.6349 107.906 89.8525V88.4718H110.667V89.8525C110.667 90.6349 110.069 91.2332 109.286 91.2332Z" fill="#8972FF"/>
<path d="M26.1764 93.9142C26.9389 93.9142 27.5571 93.2961 27.5571 92.5335C27.5571 91.771 26.9389 91.1528 26.1764 91.1528C25.4138 91.1528 24.7957 91.771 24.7957 92.5335C24.7957 93.2961 25.4138 93.9142 26.1764 93.9142Z" fill="#8972FF"/>
<path d="M31.5383 93.9142C30.7559 93.9142 30.1576 93.3159 30.1576 92.5335V91.1528H32.919V92.5335C32.919 93.3159 32.3207 93.9142 31.5383 93.9142Z" fill="#8972FF"/>
<path d="M49.0048 93.9142H46.2434V92.5335C46.2434 91.7511 46.8417 91.1528 47.6241 91.1528C48.4065 91.1528 49.0048 91.7511 49.0048 92.5335V93.9142Z" fill="#8972FF"/>
<path d="M52.986 93.9142C52.2036 93.9142 51.6053 93.3159 51.6053 92.5335V91.1528H54.3667V92.5335C54.3667 93.3159 53.7684 93.9142 52.986 93.9142Z" fill="#8972FF"/>
<path d="M62.4096 93.9142H59.6482V92.5335C59.6482 91.7511 60.2465 91.1528 61.0289 91.1528H62.4096V93.9142Z" fill="#8972FF"/>
<path d="M63.7099 93.9142H62.3292V91.1528H65.0906V92.5335C65.0906 93.3159 64.4923 93.9142 63.7099 93.9142Z" fill="#8972FF"/>
<path d="M70.4525 93.9142H67.6911V92.5335C67.6911 91.7511 68.2894 91.1528 69.0718 91.1528H70.4525V93.9142Z" fill="#8972FF"/>
<path d="M73.1335 91.1528H70.3721V93.9142H73.1335V91.1528Z" fill="#8972FF"/>
<path d="M75.8144 91.1528H73.0531V93.9142H75.8144V91.1528Z" fill="#8972FF"/>
<path d="M77.1147 93.9142H75.734V91.1528H78.4954V92.5335C78.4954 93.3159 77.8971 93.9142 77.1147 93.9142Z" fill="#8972FF"/>
<path d="M83.8573 93.9142H82.4766C81.6943 93.9142 81.0959 93.3159 81.0959 92.5335V91.1528H83.8573V93.9142Z" fill="#8972FF"/>
<path d="M86.5383 91.1528H83.7769V93.9142H86.5383V91.1528Z" fill="#8972FF"/>
<path d="M89.2193 91.1528H86.4579V93.9142H89.2193V91.1528Z" fill="#8972FF"/>
<path d="M93.2005 93.9142C93.963 93.9142 94.5812 93.2961 94.5812 92.5335C94.5812 91.771 93.963 91.1528 93.2005 91.1528C92.438 91.1528 91.8198 91.771 91.8198 92.5335C91.8198 93.2961 92.438 93.9142 93.2005 93.9142Z" fill="#8972FF"/>
<path d="M99.9431 91.1528H97.1817V93.9142H99.9431V91.1528Z" fill="#8972FF"/>
<path d="M40.9619 96.5952H38.2005V95.2145C38.2005 94.4321 38.7988 93.8338 39.5812 93.8338H40.9619V96.5952Z" fill="#8972FF"/>
<path d="M43.6429 96.5952H40.8815V93.8338H42.2622C43.0446 93.8338 43.6429 94.4321 43.6429 95.2145V96.5952Z" fill="#8972FF"/>
<path d="M49.0048 93.8338H46.2434V96.5952H49.0048V93.8338Z" fill="#8972FF"/>
<path d="M51.6858 96.5952H48.9244V93.8338H50.3051C51.0875 93.8338 51.6858 94.4321 51.6858 95.2145V96.5952Z" fill="#8972FF"/>
<path d="M59.7287 96.5952H58.348C57.5656 96.5952 56.9673 95.9969 56.9673 95.2145C56.9673 94.4321 57.5656 93.8338 58.348 93.8338H59.7287V96.5952Z" fill="#8972FF"/>
<path d="M62.4096 93.8338H59.6482V96.5952H62.4096V93.8338Z" fill="#8972FF"/>
<path d="M69.0718 96.5952C68.2894 96.5952 67.6911 95.9969 67.6911 95.2145V93.8338H70.4525V95.2145C70.4525 95.9969 69.8542 96.5952 69.0718 96.5952Z" fill="#8972FF"/>
<path d="M74.4338 96.5952C73.6514 96.5952 73.0531 95.9969 73.0531 95.2145V93.8338H75.8144V95.2145C75.8144 95.9969 75.2161 96.5952 74.4338 96.5952Z" fill="#8972FF"/>
<path d="M86.5383 96.5952H85.1576C84.3752 96.5952 83.7769 95.9969 83.7769 95.2145V93.8338H86.5383V96.5952Z" fill="#8972FF"/>
<path d="M89.2193 93.8338H86.4579V96.5952H89.2193V93.8338Z" fill="#8972FF"/>
<path d="M99.9431 93.8338H97.1817V96.5952H99.9431V93.8338Z" fill="#8972FF"/>
<path d="M101.243 96.5952H99.8627V93.8338H101.243C102.026 93.8338 102.624 94.4321 102.624 95.2145C102.624 95.9969 102.026 96.5952 101.243 96.5952Z" fill="#8972FF"/>
<path d="M24.8761 99.2761H22.1147V97.8954C22.1147 97.1131 22.713 96.5147 23.4954 96.5147C24.2778 96.5147 24.8761 97.1131 24.8761 97.8954V99.2761Z" fill="#8972FF"/>
<path d="M32.919 99.2761H30.1576V97.8954C30.1576 97.1131 30.7559 96.5147 31.5383 96.5147C32.3207 96.5147 32.919 97.1131 32.919 97.8954V99.2761Z" fill="#8972FF"/>
<path d="M38.2809 99.2761H36.9002C36.1178 99.2761 35.5195 98.6778 35.5195 97.8954C35.5195 97.1131 36.1178 96.5147 36.9002 96.5147H38.2809V99.2761Z" fill="#8972FF"/>
<path d="M40.9619 96.5147H38.2005V99.2761H40.9619V96.5147Z" fill="#8972FF"/>
<path d="M43.6429 96.5147H40.8815V99.2761H43.6429V96.5147Z" fill="#8972FF"/>
<path d="M46.3238 96.5147H43.5624V99.2761H46.3238V96.5147Z" fill="#8972FF"/>
<path d="M49.0048 96.5147H46.2434V99.2761H49.0048V96.5147Z" fill="#8972FF"/>
<path d="M51.6858 96.5147H48.9244V99.2761H51.6858V96.5147Z" fill="#8972FF"/>
<path d="M52.986 99.2761H51.6053V96.5147H52.986C53.7684 96.5147 54.3667 97.1131 54.3667 97.8954C54.3667 98.6778 53.7684 99.2761 52.986 99.2761Z" fill="#8972FF"/>
<path d="M62.4096 99.2761H61.0289C60.2465 99.2761 59.6482 98.6778 59.6482 97.8954V96.5147H62.4096V99.2761Z" fill="#8972FF"/>
<path d="M63.7099 99.2761H62.3292V96.5147H63.7099C64.4923 96.5147 65.0906 97.1131 65.0906 97.8954C65.0906 98.6778 64.4923 99.2761 63.7099 99.2761Z" fill="#8972FF"/>
<path d="M71.7528 99.2761C72.5153 99.2761 73.1335 98.658 73.1335 97.8954C73.1335 97.1329 72.5153 96.5147 71.7528 96.5147C70.9902 96.5147 70.3721 97.1329 70.3721 97.8954C70.3721 98.658 70.9902 99.2761 71.7528 99.2761Z" fill="#8972FF"/>
<path d="M77.1147 99.2761C77.8773 99.2761 78.4954 98.658 78.4954 97.8954C78.4954 97.1329 77.8773 96.5147 77.1147 96.5147C76.3522 96.5147 75.734 97.1329 75.734 97.8954C75.734 98.658 76.3522 99.2761 77.1147 99.2761Z" fill="#8972FF"/>
<path d="M82.4766 99.2761C83.2392 99.2761 83.8573 98.658 83.8573 97.8954C83.8573 97.1329 83.2392 96.5147 82.4766 96.5147C81.7141 96.5147 81.0959 97.1329 81.0959 97.8954C81.0959 98.658 81.7141 99.2761 82.4766 99.2761Z" fill="#8972FF"/>
<path d="M89.2193 96.5147H86.4579V99.2761H89.2193V96.5147Z" fill="#8972FF"/>
<path d="M91.9002 96.5147H89.1388V99.2761H91.9002V96.5147Z" fill="#8972FF"/>
<path d="M94.5812 96.5147H91.8198V99.2761H94.5812V96.5147Z" fill="#8972FF"/>
<path d="M97.2622 96.5147H94.5008V99.2761H97.2622V96.5147Z" fill="#8972FF"/>
<path d="M98.5624 99.2761H97.1817V96.5147H99.9431V97.8954C99.9431 98.6778 99.3448 99.2761 98.5624 99.2761Z" fill="#8972FF"/>
<path d="M103.924 99.2761C104.687 99.2761 105.305 98.658 105.305 97.8954C105.305 97.1329 104.687 96.5147 103.924 96.5147C103.162 96.5147 102.544 97.1329 102.544 97.8954C102.544 98.658 103.162 99.2761 103.924 99.2761Z" fill="#8972FF"/>
<path d="M24.8761 99.1957H22.1147V101.957H24.8761V99.1957Z" fill="#8972FF"/>
<path d="M27.5571 101.957H24.7957V99.1957H26.1764C26.9588 99.1957 27.5571 99.794 27.5571 100.576V101.957Z" fill="#8972FF"/>
<path d="M32.919 99.1957H30.1576V101.957H32.919V99.1957Z" fill="#8972FF"/>
<path d="M35.6 101.957H32.8386V99.1957H34.2193C35.0017 99.1957 35.6 99.794 35.6 100.576V101.957Z" fill="#8972FF"/>
<path d="M40.9619 101.957H39.5812C38.7988 101.957 38.2005 101.359 38.2005 100.576V99.1957H40.9619V101.957Z" fill="#8972FF"/>
<path d="M43.6429 99.1957H40.8815V101.957H43.6429V99.1957Z" fill="#8972FF"/>
<path d="M46.3238 99.1957H43.5624V101.957H46.3238V99.1957Z" fill="#8972FF"/>
<path d="M47.6241 101.957H46.2434V99.1957H49.0048V100.576C49.0048 101.359 48.4065 101.957 47.6241 101.957Z" fill="#8972FF"/>
<path d="M58.348 101.957C59.1105 101.957 59.7287 101.339 59.7287 100.576C59.7287 99.8139 59.1105 99.1957 58.348 99.1957C57.5854 99.1957 56.9673 99.8139 56.9673 100.576C56.9673 101.339 57.5854 101.957 58.348 101.957Z" fill="#8972FF"/>
<path d="M69.0718 101.957C69.8344 101.957 70.4525 101.339 70.4525 100.576C70.4525 99.8139 69.8344 99.1957 69.0718 99.1957C68.3093 99.1957 67.6911 99.8139 67.6911 100.576C67.6911 101.339 68.3093 101.957 69.0718 101.957Z" fill="#8972FF"/>
<path d="M81.1764 101.957H78.415V100.576C78.415 99.794 79.0133 99.1957 79.7957 99.1957C80.5781 99.1957 81.1764 99.794 81.1764 100.576V101.957Z" fill="#8972FF"/>
<path d="M86.5383 101.957H83.7769V100.576C83.7769 99.794 84.3752 99.1957 85.1576 99.1957H86.5383V101.957Z" fill="#8972FF"/>
<path d="M89.2193 99.1957H86.4579V101.957H89.2193V99.1957Z" fill="#8972FF"/>
<path d="M91.9002 99.1957H89.1388V101.957H91.9002V99.1957Z" fill="#8972FF"/>
<path d="M97.2622 99.1957H94.5008V101.957H97.2622V99.1957Z" fill="#8972FF"/>
<path d="M101.243 101.957C102.006 101.957 102.624 101.339 102.624 100.576C102.624 99.8139 102.006 99.1957 101.243 99.1957C100.481 99.1957 99.8627 99.8139 99.8627 100.576C99.8627 101.339 100.481 101.957 101.243 101.957Z" fill="#8972FF"/>
<path d="M107.986 101.957H105.225V100.576C105.225 99.794 105.823 99.1957 106.605 99.1957H107.986V101.957Z" fill="#8972FF"/>
<path d="M109.286 101.957H107.906V99.1957H109.286C110.069 99.1957 110.667 99.794 110.667 100.576C110.667 101.359 110.069 101.957 109.286 101.957Z" fill="#8972FF"/>
<path d="M24.8761 104.638H23.4954C22.713 104.638 22.1147 104.04 22.1147 103.257V101.877H24.8761V104.638Z" fill="#8972FF"/>
<path d="M27.5571 101.877H24.7957V104.638H27.5571V101.877Z" fill="#8972FF"/>
<path d="M30.238 101.877H27.4766V104.638H30.238V101.877Z" fill="#8972FF"/>
<path d="M32.919 101.877H30.1576V104.638H32.919V101.877Z" fill="#8972FF"/>
<path d="M34.2193 104.638H32.8386V101.877H35.6V103.257C35.6 104.04 35.0017 104.638 34.2193 104.638Z" fill="#8972FF"/>
<path d="M43.6429 101.877H40.8815V104.638H43.6429V101.877Z" fill="#8972FF"/>
<path d="M46.3238 101.877H43.5624V104.638H46.3238V101.877Z" fill="#8972FF"/>
<path d="M51.6858 104.638H50.3051C49.5227 104.638 48.9244 104.04 48.9244 103.257C48.9244 102.475 49.5227 101.877 50.3051 101.877H51.6858V104.638Z" fill="#8972FF"/>
<path d="M54.3667 101.877H51.6053V104.638H54.3667V101.877Z" fill="#8972FF"/>
<path d="M57.0477 104.638H54.2863V101.877H55.667C56.4494 101.877 57.0477 102.475 57.0477 103.257V104.638Z" fill="#8972FF"/>
<path d="M67.7715 104.638H65.0102V103.257C65.0102 102.475 65.6085 101.877 66.3909 101.877C67.1732 101.877 67.7715 102.475 67.7715 103.257V104.638Z" fill="#8972FF"/>
<path d="M74.4338 104.638C75.1963 104.638 75.8144 104.02 75.8144 103.257C75.8144 102.495 75.1963 101.877 74.4338 101.877C73.6712 101.877 73.0531 102.495 73.0531 103.257C73.0531 104.02 73.6712 104.638 74.4338 104.638Z" fill="#8972FF"/>
<path d="M79.7957 104.638C79.0133 104.638 78.415 104.04 78.415 103.257V101.877H81.1764V103.257C81.1764 104.04 80.5781 104.638 79.7957 104.638Z" fill="#8972FF"/>
<path d="M86.5383 104.638H85.1576C84.3752 104.638 83.7769 104.04 83.7769 103.257V101.877H86.5383V104.638Z" fill="#8972FF"/>
<path d="M89.2193 101.877H86.4579V104.638H89.2193V101.877Z" fill="#8972FF"/>
<path d="M91.9002 101.877H89.1388V104.638H91.9002V101.877Z" fill="#8972FF"/>
<path d="M94.5812 101.877H91.8198V104.638H94.5812V101.877Z" fill="#8972FF"/>
<path d="M97.2622 101.877H94.5008V104.638H97.2622V101.877Z" fill="#8972FF"/>
<path d="M99.9431 104.638H97.1817V101.877H98.5624C99.3448 101.877 99.9431 102.475 99.9431 103.257V104.638Z" fill="#8972FF"/>
<path d="M107.986 101.877H105.225V104.638H107.986V101.877Z" fill="#8972FF"/>
<path d="M40.9619 107.319H39.5812C38.7988 107.319 38.2005 106.721 38.2005 105.938C38.2005 105.156 38.7988 104.558 39.5812 104.558H40.9619V107.319Z" fill="#8972FF"/>
<path d="M43.6429 104.558H40.8815V107.319H43.6429V104.558Z" fill="#8972FF"/>
<path d="M46.3238 104.558H43.5624V107.319H46.3238V104.558Z" fill="#8972FF"/>
<path d="M49.0048 107.319H46.2434V104.558H47.6241C48.4065 104.558 49.0048 105.156 49.0048 105.938V107.319Z" fill="#8972FF"/>
<path d="M57.0477 104.558H54.2863V107.319H57.0477V104.558Z" fill="#8972FF"/>
<path d="M67.7715 107.319H66.3909C65.6085 107.319 65.0102 106.721 65.0102 105.938V104.558H67.7715V107.319Z" fill="#8972FF"/>
<path d="M70.4525 107.319H67.6911V104.558H69.0718C69.8542 104.558 70.4525 105.156 70.4525 105.938V107.319Z" fill="#8972FF"/>
<path d="M77.1147 107.319C77.8773 107.319 78.4954 106.701 78.4954 105.938C78.4954 105.176 77.8773 104.558 77.1147 104.558C76.3522 104.558 75.734 105.176 75.734 105.938C75.734 106.701 76.3522 107.319 77.1147 107.319Z" fill="#8972FF"/>
<path d="M87.8386 107.319C87.0562 107.319 86.4579 106.721 86.4579 105.938V104.558H89.2193V105.938C89.2193 106.721 88.621 107.319 87.8386 107.319Z" fill="#8972FF"/>
<path d="M99.9431 104.558H97.1817V107.319H99.9431V104.558Z" fill="#8972FF"/>
<path d="M106.605 107.319C105.823 107.319 105.225 106.721 105.225 105.938V104.558H107.986V105.938C107.986 106.721 107.388 107.319 106.605 107.319Z" fill="#8972FF"/>
<path d="M46.3238 110H44.9431C44.1607 110 43.5624 109.402 43.5624 108.619V107.239H46.3238V110Z" fill="#8972FF"/>
<path d="M47.6241 110H46.2434V107.239H49.0048V108.619C49.0048 109.402 48.4065 110 47.6241 110Z" fill="#8972FF"/>
<path d="M57.0477 110H55.667C54.8846 110 54.2863 109.402 54.2863 108.619V107.239H57.0477V110Z" fill="#8972FF"/>
<path d="M59.7287 107.239H56.9673V110H59.7287V107.239Z" fill="#8972FF"/>
<path d="M62.4096 107.239H59.6482V110H62.4096V107.239Z" fill="#8972FF"/>
<path d="M63.7099 110H62.3292V107.239H63.7099C64.4923 107.239 65.0906 107.837 65.0906 108.619C65.0906 109.402 64.4923 110 63.7099 110Z" fill="#8972FF"/>
<path d="M70.4525 110H69.0718C68.2894 110 67.6911 109.402 67.6911 108.619V107.239H70.4525V110Z" fill="#8972FF"/>
<path d="M71.7528 110H70.3721V107.239H71.7528C72.5352 107.239 73.1335 107.837 73.1335 108.619C73.1335 109.402 72.5352 110 71.7528 110Z" fill="#8972FF"/>
<path d="M81.1764 110H79.7957C79.0133 110 78.415 109.402 78.415 108.619C78.415 107.837 79.0133 107.239 79.7957 107.239H81.1764V110Z" fill="#8972FF"/>
<path d="M83.8573 107.239H81.0959V110H83.8573V107.239Z" fill="#8972FF"/>
<path d="M85.1576 110H83.7769V107.239H85.1576C85.94 107.239 86.5383 107.837 86.5383 108.619C86.5383 109.402 85.94 110 85.1576 110Z" fill="#8972FF"/>
<path d="M90.5195 110C91.2821 110 91.9002 109.382 91.9002 108.619C91.9002 107.857 91.2821 107.239 90.5195 107.239C89.757 107.239 89.1388 107.857 89.1388 108.619C89.1388 109.382 89.757 110 90.5195 110Z" fill="#8972FF"/>
<path d="M97.2622 110H95.8815C95.0991 110 94.5008 109.402 94.5008 108.619C94.5008 107.837 95.0991 107.239 95.8815 107.239H97.2622V110Z" fill="#8972FF"/>
<path d="M98.5624 110H97.1817V107.239H99.9431V108.619C99.9431 109.402 99.3448 110 98.5624 110Z" fill="#8972FF"/>
<path d="M0.666992 0V18.7668H19.4337V0H0.666992ZM16.7528 16.0858H3.34796V2.68097H16.7528V16.0858Z" fill="#8972FF"/>
<path d="M91.8198 0V18.7668H110.587V0H91.8198ZM107.906 16.0858H94.5008V2.68097H107.906V16.0858Z" fill="#8972FF"/>
<path d="M0.666992 91.1528V109.92H19.4337V91.1528H0.666992ZM16.7528 107.239H3.34796V93.8338H16.7528V107.239Z" fill="#8972FF"/>
<path d="M14.0718 5.36193H6.02892V13.4048H14.0718V5.36193Z" fill="#8972FF"/>
<path d="M105.225 5.36193H97.1817V13.4048H105.225V5.36193Z" fill="#8972FF"/>
<path d="M14.0718 96.5147H6.02892V104.558H14.0718V96.5147Z" fill="#8972FF"/>
</svg>
