<svg width="24" height="24" viewBox="0 0 24 24" fill="none" xmlns="http://www.w3.org/2000/svg">
<rect width="24" height="24" rx="12" fill="white"/>
<path d="M11.83 11.3515C12.4929 11.5724 13.9353 12.0531 14.2548 11.0496C14.5809 10.0227 13.1757 9.61843 12.4876 9.42048C12.4097 9.39805 12.3409 9.37826 12.2849 9.36052L11.6688 11.2986C11.715 11.3131 11.7692 11.3312 11.83 11.3515Z" fill="#EE9F0F"/>
<path d="M10.8678 14.4737C11.6618 14.7369 13.3983 15.3126 13.7497 14.2067C14.1092 13.076 12.4212 12.5862 11.5976 12.3472C11.5057 12.3205 11.4243 12.2969 11.358 12.2759L10.6785 14.4118C10.7328 14.429 10.7966 14.4501 10.8678 14.4737Z" fill="#EE9F0F"/>
<path fill-rule="evenodd" clip-rule="evenodd" d="M20.9821 12.5626C20.6714 17.5232 16.398 21.2928 11.4374 20.9821C6.47671 20.6714 2.70718 16.3981 3.01791 11.4374C3.32864 6.47676 7.60195 2.70721 12.5626 3.01791C17.5233 3.3286 21.2928 7.60189 20.9821 12.5626ZM14.367 8.79799C15.5895 9.3053 16.4632 10.005 16.2091 11.1894C16.024 12.0568 15.5103 12.4497 14.8537 12.5574C15.7129 13.0735 15.9608 13.9665 15.6134 15.0056C14.9842 16.493 13.707 16.5415 12.0388 16.1179L11.5265 17.7271L10.5524 17.4191L11.0577 15.8315C10.8051 15.752 10.5472 15.6676 10.2817 15.5783L9.77419 17.1736L8.80121 16.8657L9.31316 15.2532L7.35141 14.6274L7.91377 13.5294C7.91377 13.5294 8.6313 13.7677 8.62203 13.7531C8.89792 13.8397 9.03393 13.6655 9.09054 13.5479L10.4792 9.18031C10.5047 8.97161 10.4485 8.70311 10.0539 8.57804C10.0698 8.56832 9.34619 8.35499 9.34619 8.35499L9.67546 7.31849L11.6406 7.93602L12.148 6.34182L13.1215 6.64973L12.6246 8.21246C12.8869 8.28921 13.1503 8.36717 13.4062 8.44803L13.8997 6.89524L14.8738 7.20319L14.367 8.79799Z" fill="#EE9F0F"/>
</svg>
