<svg width="24" height="24" viewBox="0 0 24 24" fill="none" xmlns="http://www.w3.org/2000/svg">
<rect width="24" height="24" rx="12" fill="white"/>
<path d="M14.5652 11.6522L12.6087 9.52174L10.4348 11.4348L12.3913 13.6087L14.5652 11.6522Z" fill="#137ABE"/>
<path d="M8.86956 7.78261L10.8261 9.91304L13 8L11.0435 5.86957L8.86956 7.78261Z" fill="#137ABE"/>
<path d="M16.087 15.3478L14.1304 13.2174L11.9565 15.1739L13.913 17.3043L16.087 15.3478Z" fill="#137ABE"/>
<path d="M13.8261 18.913L10.2609 14.9565L11.2609 14.087L8.73913 11.3043L9.73913 10.4348L7.21739 7.65217L11.1739 4.13043L12.4348 5.47826L14.6087 3.6087L15.8696 4.91304L16.6957 4.17391C16.5217 4.08696 16.3043 3.95652 16.1304 3.86957C14.8696 3.34783 13.5217 3 12.087 3C7.08696 3 3 7.04348 3 12C3 16.9565 7.08696 21 12.1304 21C13.7826 21 15.3043 20.5652 16.6087 19.8261C17.0435 19.5652 17.4348 19.3043 17.8261 19.0435L16 17L13.8261 18.913Z" fill="#137ABE"/>
<path d="M12.8696 6.73913L14.3043 8.34783L15.9565 6.91304L14.4783 5.30435L12.8696 6.73913Z" fill="#137ABE"/>
<path d="M17.4348 10.1304L15.9565 8.52174L14.3478 10L15.8261 11.5652L17.4348 10.1304Z" fill="#137ABE"/>
<path d="M18.8261 13.5217L17.3478 11.913L15.7391 13.3478L17.2174 15L18.8261 13.5217Z" fill="#137ABE"/>
<path d="M18.913 8.21739L17.8261 9.17391L18.8261 10.2609L19.8696 9.30435L18.913 8.21739Z" fill="#137ABE"/>
<path d="M19.2174 12.3478L20.1739 13.4348L21.2609 12.4783L20.2609 11.3913L19.2174 12.3478Z" fill="#137ABE"/>
<path d="M16.4348 6L17.4348 7.08696L18.4783 6.13043L17.5217 5.04348L16.4348 6Z" fill="#137ABE"/>
<path d="M17.1739 16.6087L18.6522 18.2174L20.2609 16.7826L18.7826 15.1739L17.1739 16.6087Z" fill="#137ABE"/>
</svg>
