<svg width="24" height="24" viewBox="0 0 24 24" fill="none" xmlns="http://www.w3.org/2000/svg">
<rect width="24" height="24" rx="12" fill="white"/>
<g clip-path="url(#clip0_17_3374)">
<mask id="mask0_17_3374" style="mask-type:luminance" maskUnits="userSpaceOnUse" x="3" y="3" width="18" height="18">
<path d="M3 3H21V21H3V3Z" fill="white"/>
<path fill-rule="evenodd" clip-rule="evenodd" d="M8.13622 6.59033C8.21022 6.5375 8.29391 6.49977 8.3825 6.47928C8.47108 6.4588 8.56284 6.45597 8.65252 6.47095C8.7422 6.48593 8.82805 6.51842 8.90517 6.56659C8.9823 6.61475 9.04917 6.67763 9.10199 6.75164L12.5635 11.5978C12.6702 11.7473 12.7131 11.933 12.6829 12.1141C12.6526 12.2952 12.5517 12.4569 12.4022 12.5636C12.2528 12.6702 12.067 12.7132 11.8859 12.6829C11.7048 12.6527 11.5431 12.5517 11.4365 12.4023L7.97491 7.5561C7.92209 7.4821 7.88435 7.39841 7.86387 7.30983C7.84338 7.22124 7.84055 7.12949 7.85553 7.0398C7.87051 6.95012 7.90301 6.86427 7.95117 6.78715C7.99933 6.71003 8.06221 6.64315 8.13622 6.59033Z" fill="black"/>
<path fill-rule="evenodd" clip-rule="evenodd" d="M15.8637 6.59033C15.7897 6.5375 15.7061 6.49977 15.6175 6.47928C15.5289 6.4588 15.4371 6.45597 15.3475 6.47095C15.2578 6.48593 15.1719 6.51842 15.0948 6.56659C15.0177 6.61475 14.9508 6.67763 14.898 6.75164L11.4364 11.5978C11.3836 11.6718 11.3459 11.7555 11.3254 11.8441C11.3049 11.9327 11.3021 12.0244 11.3171 12.1141C11.3473 12.2952 11.4483 12.4569 11.5977 12.5636C11.7472 12.6702 11.9329 12.7132 12.114 12.6829C12.2037 12.6679 12.2896 12.6355 12.3667 12.5873C12.4438 12.5391 12.5107 12.4763 12.5635 12.4023L16.0251 7.5561C16.0779 7.4821 16.1156 7.39841 16.1361 7.30983C16.1566 7.22124 16.1594 7.12949 16.1444 7.0398C16.1295 6.95012 16.097 6.86427 16.0488 6.78715C16.0006 6.71003 15.9378 6.64315 15.8637 6.59033Z" fill="black"/>
<path fill-rule="evenodd" clip-rule="evenodd" d="M8.19226 12.6923C8.19226 12.5087 8.2652 12.3326 8.39503 12.2028C8.52487 12.0729 8.70096 12 8.88457 12H15.1153C15.2989 12 15.475 12.0729 15.6049 12.2028C15.7347 12.3326 15.8076 12.5087 15.8076 12.6923C15.8076 12.8759 15.7347 13.052 15.6049 13.1818C15.475 13.3117 15.2989 13.3846 15.1153 13.3846H8.88457C8.70096 13.3846 8.52487 13.3117 8.39503 13.1818C8.2652 13.052 8.19226 12.8759 8.19226 12.6923Z" fill="black"/>
<path fill-rule="evenodd" clip-rule="evenodd" d="M12 11.3077C12.1837 11.3077 12.3597 11.3807 12.4896 11.5105C12.6194 11.6403 12.6924 11.8164 12.6924 12V16.8462C12.6924 17.0298 12.6194 17.2059 12.4896 17.3357C12.3597 17.4656 12.1837 17.5385 12 17.5385C11.8164 17.5385 11.6403 17.4656 11.5105 17.3357C11.3807 17.2059 11.3077 17.0298 11.3077 16.8462V12C11.3077 11.8164 11.3807 11.6403 11.5105 11.5105C11.6403 11.3807 11.8164 11.3077 12 11.3077Z" fill="black"/>
</mask>
<g mask="url(#mask0_17_3374)">
<path d="M12 21C16.9706 21 21 16.9706 21 12C21 7.02944 16.9706 3 12 3C7.02944 3 3 7.02944 3 12C3 16.9706 7.02944 21 12 21Z" fill="#D31900"/>
</g>
</g>
<defs>
<clipPath id="clip0_17_3374">
<rect width="18" height="18" fill="white" transform="translate(3 3)"/>
</clipPath>
</defs>
</svg>
