<svg width="24" height="24" viewBox="0 0 24 24" fill="none" xmlns="http://www.w3.org/2000/svg">
<rect width="24" height="24" rx="12" fill="white"/>
<path d="M21.2914 10.885L21.5379 10.1006L20.7223 10.126C20.6534 10.126 20.1525 10.1118 19.6665 9.76166C19.7027 9.76518 19.7389 9.77014 19.7759 9.77014C20.2761 9.77014 20.76 9.47075 20.9539 9.04294L21.3049 8.26983C20.8651 8.27545 20.463 8.22037 20.463 8.22037C20.4594 8.21971 20.1425 8.17943 19.7759 7.80736C19.513 7.5405 19.1876 7.39931 18.8352 7.39931C18.681 7.39931 18.5432 7.42681 18.4245 7.46423C18.443 7.4014 18.4608 7.33787 18.4707 7.27221C18.583 6.54854 18.1141 5.99642 18.1141 5.99711L17.5009 5.24237L17.1208 6.12913C17.1194 6.13196 17.0234 6.33952 16.8515 6.4412C16.7997 6.18068 16.6725 5.88767 16.4004 5.6074C15.8874 5.07928 15.2628 5.00091 14.9361 5.00091C14.7847 5.00091 14.6767 5.01713 14.6504 5.02138L13.9101 5.16611C13.9527 5.0016 14.0437 4.71566 14.2099 4.45797L14.6185 3.82538L13.5903 3.94187L13.2628 3.25065L12.6291 3.57542L12.0429 3L11.4582 3.57542L10.8223 3.25065L10.4954 3.94187L9.46809 3.82538L9.87733 4.45797C10.0436 4.71566 10.1345 5.00091 10.1764 5.16542L9.47025 5.02704L9.44606 5.02279C9.41053 5.01713 9.30326 5.00091 9.15121 5.00091C8.82442 5.00091 8.19987 5.07997 7.68829 5.6074C7.41546 5.88698 7.2883 6.18068 7.23573 6.4412C7.06521 6.34094 6.96999 6.13621 6.96999 6.13621L6.58919 5.24448L5.96605 6.00416C5.89006 6.10231 5.51422 6.62125 5.6165 7.27361C5.62718 7.33857 5.64425 7.40213 5.66271 7.46497C5.54476 7.42755 5.40692 7.39997 5.25274 7.39997C4.90036 7.39997 4.57493 7.5412 4.31135 7.80806C3.94613 8.17876 3.63068 8.22037 3.63354 8.22037C3.63354 8.22037 3.30029 8.27971 2.78448 8.27053L3.13335 9.04364C3.3273 9.47218 3.81188 9.77084 4.31135 9.77084C4.34898 9.77084 4.38521 9.76592 4.42218 9.76236C3.93761 10.1126 3.43674 10.1267 3.37634 10.1274L2.54504 10.1006L2.79656 10.8843C2.92303 11.2881 3.34578 11.9574 4.15574 12.0294C4.06763 12.3966 3.87226 12.8075 3.44313 12.9847L2.8243 13.2381L3.16177 13.822C3.35216 14.1369 3.7991 14.5055 4.43569 14.5055C4.5735 14.5048 4.70635 14.4914 4.83428 14.4645C4.86695 14.6086 4.90814 14.7526 4.95645 14.8952C5.14617 15.4558 4.98274 15.8469 4.98064 15.8512L4.67511 16.4873L5.35718 16.6659C5.36569 16.6688 5.57175 16.7246 5.82963 16.7246C5.94688 16.7246 6.05844 16.7125 6.16362 16.6878C6.24317 16.6695 6.31919 16.6448 6.39236 16.6151C6.48046 16.7725 6.58776 16.9159 6.71283 17.0444C7.14975 17.4899 7.76861 17.7158 8.55298 17.7158H8.55581L9.11571 17.7087L7.95902 18.186L8.83719 18.6075C9.15617 18.7622 9.5349 18.945 9.91995 19.0848L9.81055 19.3827L10.1132 19.5197C10.1402 19.5317 10.7221 19.7908 11.6898 19.8459C11.6898 19.8459 11.9235 19.8565 12.0522 19.8565C12.1808 19.8565 12.4117 19.8452 12.4117 19.8452C13.3729 19.7887 13.9506 19.5324 13.9776 19.5197L14.281 19.382L14.1701 19.0834C14.5666 18.9394 14.9588 18.7495 15.2643 18.6011L16.1261 18.1853L14.973 17.7073L15.535 17.7144C16.3201 17.7144 16.9396 17.4885 17.3759 17.0422C17.5002 16.9145 17.6075 16.7711 17.6963 16.6137C17.7695 16.6434 17.8462 16.6681 17.9258 16.6864C18.0302 16.7111 18.1418 16.7231 18.259 16.7231C18.5127 16.7231 18.7208 16.6673 18.7265 16.6659L19.4114 16.4859L19.113 15.8618C19.1059 15.8455 18.9425 15.4551 19.1322 14.8938C19.1805 14.7505 19.221 14.6064 19.2537 14.4631C19.3823 14.49 19.5166 14.5041 19.6551 14.5041C20.4658 14.5041 20.8544 13.9371 20.9298 13.8143L21.2637 13.2368L20.6449 12.984C20.215 12.8068 20.0203 12.3952 19.933 12.0287C20.7315 11.961 21.1607 11.2916 21.2914 10.885ZM10.2305 5.43581L10.2219 5.43795L10.229 5.42877L10.2305 5.43581Z" fill="white"/>
<path d="M12.0437 5.40112C11.3886 5.40181 10.8977 5.61504 10.7904 5.86568L12.0437 6.35707L13.2971 5.86568C13.1905 5.61504 12.6995 5.40181 12.0437 5.40112Z" fill="white"/>
<path d="M12.0566 18.4098H12.0552H12.0445H12.0324H12.0317C11.6345 18.4126 11.0881 18.3314 10.8245 18.2551L10.5077 19.1073C10.7166 19.1814 11.4242 19.3227 12.0445 19.3227C12.6633 19.3227 13.3717 19.1807 13.5799 19.1073L13.2637 18.2551C12.9994 18.3321 12.4537 18.4126 12.0566 18.4098Z" fill="white"/>
<path d="M14.4546 17.5626C14.2187 17.6954 13.6922 17.8945 13.386 17.987L13.6432 18.6909C14.1171 18.5624 14.5079 18.412 14.8311 18.251L14.2975 18.0745L14.4546 17.5626Z" fill="white"/>
<path d="M9.63374 17.5626L9.79148 18.0745L9.2572 18.251C9.57974 18.412 9.97264 18.5624 10.4444 18.6909L10.7016 17.987C10.3968 17.8945 9.86963 17.6947 9.63374 17.5626Z" fill="white"/>
<path d="M12.0437 4.58651C12.5375 4.58651 13.022 4.70372 13.3944 4.9099C13.4285 4.79621 13.476 4.65853 13.5407 4.51453L13.4 4.53144L13.2522 4.54698L13.1897 4.41354L13.0015 4.01817L12.6583 4.19611L12.5247 4.26388L12.4181 4.15937L12.0451 3.79224L11.6728 4.15937L11.5662 4.26388L11.4327 4.19611L11.0874 4.01817L10.9012 4.41354L10.8373 4.54698L10.6895 4.53144L10.5488 4.51453C10.6135 4.65925 10.6604 4.79621 10.6952 4.9099C11.0682 4.70372 11.5513 4.58651 12.0437 4.58651Z" fill="white"/>
<path d="M19.5829 9.15599C19.6468 9.17787 19.7122 9.18775 19.7768 9.18775C20.0561 9.18775 20.326 9.0084 20.4191 8.80295C20.4191 8.80295 19.9069 8.77188 19.3562 8.21624C19.1807 8.03619 18.9953 7.98254 18.8361 7.98254C18.5889 7.98254 18.4034 8.11243 18.4034 8.11243C19.0685 8.46408 19.2042 9.02889 19.5829 9.15599Z" fill="white"/>
<path d="M4.31101 9.18775C4.37566 9.18775 4.44104 9.17787 4.50355 9.15599C4.88368 9.02889 5.0201 8.46408 5.6851 8.11243C5.6851 8.11243 5.49894 7.98254 5.2531 7.98254C5.09326 7.98254 4.9078 8.03619 4.73163 8.21624C4.18168 8.77188 3.66943 8.80295 3.66943 8.80295C3.76106 9.0084 4.03176 9.18775 4.31101 9.18775Z" fill="white"/>
<path d="M19.7634 11.4513C19.7748 11.4519 19.7847 11.4519 19.7968 11.4519C20.4938 11.4519 20.7304 10.7099 20.7304 10.7099H20.7169C20.589 10.7099 19.5524 10.6802 18.8199 9.75463C18.3374 9.14604 17.9424 8.61086 17.1616 8.40048L17.0849 8.38704L17.0678 8.30941C17.0465 8.19076 17.1282 8.07994 17.3136 7.95993C18.3907 7.25884 17.6597 6.36498 17.6597 6.36498C17.6597 6.36498 17.352 7.08019 16.6635 7.08019C16.6472 7.08019 16.6294 7.07949 16.6124 7.07949C16.5342 7.07526 16.4589 7.07244 16.3829 7.0562L16.2557 7.03149C16.2557 7.03149 16.4518 6.50127 15.9786 6.01407C15.6219 5.64625 15.1878 5.58411 14.937 5.58411C14.8106 5.58411 14.7303 5.60037 14.7303 5.60037C14.9683 5.9096 15.1402 6.42219 14.8653 6.73845C14.628 7.0103 14.0482 7.02371 14.0482 7.42897C14.0482 7.60053 14.2095 7.80107 14.4994 7.98108C15.3711 8.52684 16.2365 9.25055 16.596 10.2206C17.0458 11.4308 16.5392 12.2335 15.8159 12.6938C15.8159 12.6938 16.0426 12.9014 16.3715 12.9275C16.4383 12.9339 16.5037 12.9367 16.5648 12.9367C17.2589 12.9367 17.6177 12.6134 17.6177 12.6134C17.6177 12.6134 17.5587 13.0603 17.1971 13.4754C16.8639 13.8588 16.4262 14.084 15.7591 14.0939C15.7591 14.0939 15.7378 14.4017 16.0333 14.6679C16.2223 14.8359 16.6593 14.891 16.6593 14.891C16.6593 14.891 15.8415 15.0555 15.7513 16.2558C15.7022 16.906 15.5353 17.1319 15.5353 17.1319H15.5502C17.4479 17.1319 17.3989 15.5144 17.3989 15.5144C17.3989 15.5144 17.531 15.9931 18.0604 16.1181C18.1243 16.135 18.1925 16.1414 18.2579 16.1414C18.4284 16.1414 18.5762 16.1019 18.5762 16.1019C18.5762 16.1019 18.2991 15.5208 18.574 14.7081C18.8021 14.0339 18.7651 13.534 18.7651 13.534C18.7651 13.534 19.021 13.9181 19.6547 13.9216H19.6611C20.189 13.9216 20.4192 13.5241 20.4192 13.5241C19.1538 13.0024 19.2789 11.3178 19.2789 11.3178C19.2789 11.3178 19.443 11.4392 19.7634 11.4513ZM19.3826 13.2106C18.8682 12.9586 18.5428 12.2893 18.4639 12.0478C18.3787 13.3751 17.7264 14.2965 16.9641 15.1833C16.5683 15.6429 16.4305 16.0898 16.4305 16.0898C16.4305 16.0898 16.5065 15.5836 16.849 15.1713C17.5602 14.3219 18.2358 13.265 18.2863 12.0429C18.3211 11.19 18.1001 10.4981 17.7555 9.92833C17.9481 10.5221 17.9211 11.2493 17.2668 11.9278C17.2668 11.9278 18.5691 10.3767 16.7481 8.78668C16.0191 8.18158 15.2219 7.80812 14.8113 7.54332C16.2948 8.02416 17.0188 7.49463 17.0188 7.49463C16.5449 7.90272 15.9317 7.89567 15.5516 7.83706C15.6546 7.88722 15.7619 7.93944 15.8777 8.00087C17.1282 8.67582 18.2522 9.7864 18.444 11.3249V11.3128C18.7353 12.823 19.3826 13.2106 19.3826 13.2106Z" fill="white"/>
<path d="M7.42857 14.891C7.42857 14.891 7.86549 14.8366 8.05451 14.6679C8.34933 14.4017 8.32877 14.0939 8.32877 14.0939C7.66087 14.0848 7.22395 13.8588 6.88857 13.4761C6.5298 13.061 6.47012 12.6141 6.47012 12.6141C6.47012 12.6141 6.82888 12.9374 7.52233 12.9374C7.58488 12.9374 7.64953 12.9346 7.7163 12.9282C8.04526 12.9021 8.27261 12.6945 8.27261 12.6945C7.54935 12.2342 7.04205 11.4308 7.49109 10.2206C7.85132 9.25125 8.71598 8.52684 9.58773 7.98108C9.87763 7.80107 10.0389 7.60123 10.0389 7.42897C10.0389 7.02371 9.45987 7.0103 9.22258 6.73845C8.94759 6.42219 9.12023 5.90888 9.35753 5.60037C9.35753 5.60037 9.27867 5.58411 9.15147 5.58411C8.90141 5.58411 8.46728 5.64625 8.11064 6.01407C7.63602 6.50127 7.83282 7.03149 7.83282 7.03149L7.70566 7.0562C7.62963 7.07244 7.55361 7.07526 7.47615 7.07949C7.45842 7.07949 7.44274 7.08019 7.42571 7.08019C6.73582 7.08019 6.42959 6.36571 6.42959 6.36571C6.42959 6.36571 5.69848 7.2595 6.77492 7.96059C6.96034 8.08063 7.04132 8.1915 7.02003 8.31011L7.00296 8.38777L6.9248 8.40118C6.14542 8.61156 5.74968 9.14678 5.26724 9.75537C4.53613 10.6795 3.50095 10.7099 3.37165 10.7099H3.35742C3.35742 10.7099 3.59401 11.4519 4.29102 11.4519C4.30237 11.4519 4.31231 11.4519 4.32439 11.4513C4.64487 11.4399 4.80969 11.3178 4.80969 11.3178C4.80969 11.3178 4.9333 13.0017 3.66934 13.5241C3.66934 13.5241 3.89955 13.9216 4.42744 13.9216H4.43382C5.06828 13.9181 5.32337 13.534 5.32337 13.534C5.32337 13.534 5.28641 14.0339 5.51375 14.7081C5.78874 15.5208 5.51309 16.1019 5.51309 16.1019C5.51309 16.1019 5.66085 16.1414 5.83067 16.1414C5.89671 16.1414 5.96425 16.135 6.02747 16.1181C6.55605 15.9931 6.68894 15.5144 6.68894 15.5144C6.68894 15.5144 6.6406 17.1319 8.53835 17.1319H8.55186C8.55186 17.1319 8.3856 16.906 8.33729 16.2558C8.24632 15.0555 7.42857 14.891 7.42857 14.891ZM7.12377 15.1833C6.36138 14.2965 5.70989 13.3751 5.62388 12.0478C5.54506 12.2885 5.22103 12.9586 4.70669 13.2106C4.70669 13.2106 5.35322 12.823 5.64378 11.3128V11.3249C5.83636 9.78713 6.95964 8.67582 8.21082 8.00087C8.32521 7.93871 8.43387 7.88649 8.53622 7.83706C8.15609 7.89567 7.54296 7.90272 7.06907 7.49463C7.06907 7.49463 7.79306 8.02416 9.27581 7.54332C8.86517 7.80812 8.06872 8.18158 7.33973 8.78668C5.51805 10.3767 6.8211 11.9278 6.8211 11.9278C6.16601 11.2486 6.13973 10.5221 6.33227 9.92833C5.98698 10.4988 5.76668 11.19 5.80225 12.0429C5.85196 13.265 6.52764 14.3219 7.23746 15.1713C7.58059 15.5829 7.65805 16.0898 7.65805 16.0898C7.65805 16.0898 7.51877 15.6429 7.12377 15.1833Z" fill="white"/>
<path d="M10.6406 8.9772C10.6718 9.01036 10.7024 9.04638 10.7315 9.08241C10.7386 9.09089 10.745 9.09864 10.7521 9.10852C10.7791 9.14454 10.8068 9.18266 10.8331 9.22151C10.8388 9.22926 10.8445 9.23844 10.8509 9.24762C10.8828 9.29561 10.9127 9.34504 10.9425 9.39587C11.2161 9.86542 11.6544 10.1457 12.0431 10.1464C12.4324 10.1457 12.8694 9.86542 13.1443 9.39587C13.1749 9.34365 13.2054 9.29282 13.2374 9.24549C13.2424 9.23844 13.2474 9.23209 13.2516 9.225C13.2786 9.18479 13.307 9.14524 13.3369 9.10712C13.3433 9.09864 13.349 9.09159 13.3546 9.08454C13.3852 9.04712 13.4164 9.01036 13.4484 8.9765C13.4541 8.97085 13.4584 8.96593 13.4634 8.96167C13.6026 8.81977 13.7689 8.71174 13.9863 8.65173L13.8897 8.59595H13.8839L13.4989 8.37353L13.1032 8.14832L12.0459 8.72018L12.0431 8.71809L12.041 8.72018L10.983 8.14832L10.588 8.37283L10.2022 8.59526H10.1979L10.0999 8.651C10.318 8.71104 10.4835 8.81764 10.6235 8.95957C10.6299 8.96523 10.6342 8.97158 10.6406 8.9772ZM11.6154 8.9313H12.063H12.5099V9.23631C12.4047 9.10852 12.2001 9.13466 12.2001 9.13466V9.57452C12.2001 9.57452 12.2079 9.79055 12.2839 9.88448H12.063H11.8413C11.9187 9.79125 11.9258 9.57452 11.9258 9.57452V9.13466C11.9258 9.13466 11.7219 9.10852 11.6154 9.23631V8.9313Z" fill="white"/>
<path d="M11.9523 8.33962V6.5541L10.8083 6.16858L11.1103 7.89911L11.9523 8.33962ZM11.7064 6.99256V7.27917L11.651 7.25376C11.6482 7.25166 11.5671 7.23327 11.4251 7.12174C11.1906 6.941 11.1863 6.77439 11.1863 6.77439L11.7064 6.99256Z" fill="white"/>
<path d="M12.9781 7.89911L13.2787 6.16858L12.1355 6.5541V8.33962L12.9781 7.89911ZM12.3813 6.99256L12.9014 6.77509C12.9014 6.77509 12.8971 6.9417 12.662 7.12244C12.5205 7.234 12.4388 7.25233 12.436 7.25449L12.3806 7.2799V6.99256H12.3813Z" fill="white"/>
<path d="M10.3345 12.4793C10.446 12.5195 10.5811 12.528 10.65 12.528C10.6528 12.5195 10.6564 12.5089 10.66 12.4962C10.6663 12.4757 10.672 12.456 10.6763 12.4334C10.6955 12.3345 10.7026 12.2223 10.704 12.1503C10.6571 12.1213 10.591 12.0698 10.554 11.9928C10.5114 11.9039 10.451 11.8629 10.3622 11.8629C10.2472 11.8629 10.1235 11.9314 10.0709 11.9639C10.029 12.2103 10.2116 12.4341 10.3345 12.4793Z" fill="white"/>
<path d="M12.8648 11.5316C12.6523 11.7611 12.2367 12.1607 12.2161 12.1812L12.1912 12.2066L10.8775 12.1861C10.8768 12.3153 10.8555 12.4255 10.8349 12.5059C10.8313 12.5194 10.8278 12.5335 10.8242 12.5476L12.3873 12.8265C12.55 12.7135 12.9976 12.3887 13.171 12.2616C13.0445 12.0781 13.0325 11.8606 13.0609 11.7074C12.9784 11.6545 12.9152 11.5952 12.8648 11.5316Z" fill="white"/>
<path d="M13.0426 9.96144C12.7399 10.2601 12.4493 10.3703 12.19 10.3957C12.1431 10.4006 12.0955 10.4034 12.0472 10.4034H12.0436H12.0408C11.9925 10.4034 11.9442 10.4006 11.8973 10.3957C11.8518 10.3915 11.8042 10.3844 11.7566 10.3738C11.7395 10.4409 11.7182 10.5814 11.7794 10.7141C11.8341 10.8348 11.9456 10.9245 12.1083 10.9838L12.163 11.005L12.1637 11.0636C12.1637 11.0812 12.1765 11.4611 12.5936 11.5663C12.6618 11.4964 12.7236 11.4335 12.7691 11.3813C12.6838 11.1822 12.7285 10.9789 12.8522 10.8793C12.8465 10.9005 12.7925 11.399 13.1946 11.5839L13.2607 11.615L13.2408 11.6849C13.2344 11.7061 13.1002 12.1883 13.5868 12.3676L13.6728 12.4001L13.6344 12.4834C13.6259 12.5018 13.4348 12.9395 13.8845 13.188H14.86V12.4185C14.5133 12.3761 14.3662 12.0993 14.3286 11.903C14.1673 11.8755 14.0423 11.8063 13.957 11.6934C13.7524 11.4258 13.9286 11.1808 13.9307 11.1674C13.93 11.1695 13.9307 11.4307 14.0927 11.5917C14.173 11.6693 14.2682 11.7293 14.4124 11.7428L14.4835 11.7491L14.4899 11.8211C14.4913 11.8367 14.5304 12.1897 14.8608 12.2455L14.86 10.6739C14.86 10.4303 14.9318 10.1853 15.0178 9.95935H13.0426V9.96144Z" fill="white"/>
<path d="M10.4175 10.6816L10.3912 11.6827L10.5056 11.6997L10.7855 10.7395L10.6434 10.4443L10.4175 10.6816Z" fill="white"/>
<path d="M13.5038 15.2729C13.5124 15.2729 13.5223 15.2743 13.5316 15.2765C13.7056 15.3259 13.7497 15.95 14.0552 16.0058C14.085 16.0121 14.1127 16.0135 14.1369 16.0135C14.225 16.0135 14.2776 15.9761 14.3344 15.9098C14.3344 15.9098 14.1809 15.6697 14.0658 15.508C13.9131 15.2962 13.7944 15.0399 13.5102 15.0399C13.5038 15.0399 13.4953 15.0399 13.4882 15.0406C13.3944 15.0456 13.3369 15.0908 13.3369 15.0908C13.2218 15.0187 13.1145 14.994 13.0172 14.994C12.8388 14.994 12.7003 15.0752 12.6314 15.0752H12.6285L11.9933 15.0131C11.8939 15.0039 11.8157 14.9044 11.7873 14.8655C11.7802 14.8549 11.7766 14.8486 11.7766 14.8486C11.7766 14.8317 11.7766 14.814 11.7752 14.7985C11.7539 14.2824 11.3518 14.0614 11.2089 14.0578C11.2089 14.0578 11.226 13.9597 11.1869 13.9223L11.047 14.091L10.5873 13.8616L10.9148 14.2421L10.637 14.5521C10.6022 14.5874 10.6065 14.6354 10.6207 14.6551L10.7407 14.7603L10.8928 14.6685C10.9006 14.6629 10.9141 14.6615 10.9311 14.6615C10.973 14.6615 11.0363 14.6721 11.0931 14.6721C11.1549 14.6721 11.2089 14.6587 11.2154 14.6008C11.1962 14.7921 11.0178 15.1247 11.1351 15.3859L11.2218 15.5829L10.6605 15.5024L10.3976 15.9436C10.3166 16.0905 10.3038 16.2494 10.3819 16.3355L10.48 16.4577C10.48 16.4577 10.6178 16.3122 10.6491 16.2169L10.6043 16.1682C10.5667 16.1272 10.5688 16.0905 10.5916 16.046L10.7563 15.7742L11.4193 15.9295L11.4541 15.8703C11.4988 15.7961 11.5635 15.7735 11.6346 15.7735C11.6637 15.7735 11.6935 15.777 11.7248 15.782C11.8477 15.806 12.0502 15.8385 12.2527 15.8385C12.4751 15.8385 12.6953 15.7989 12.8125 15.6683C13.0527 16.022 13.5394 16.0785 13.501 16.2579L13.3731 16.8636C13.4577 16.8601 13.5394 16.8544 13.6168 16.8438L13.7383 16.2133C13.7518 16.1449 13.7646 16.0524 13.7646 16.0524C13.7177 16.0051 13.604 15.9048 13.5401 15.7834C13.4541 15.6196 13.501 15.5341 13.4207 15.3209C13.4236 15.3223 13.4477 15.2729 13.5038 15.2729ZM11.0242 14.3875C10.9915 14.3868 10.9681 14.3593 10.9695 14.3268C10.9724 14.2958 10.9987 14.2711 11.0306 14.2739C11.0633 14.2753 11.0867 14.3036 11.0853 14.3346C11.0825 14.3657 11.0555 14.3897 11.0242 14.3875Z" fill="white"/>
<path d="M10.1193 15.8462C10.1193 15.8462 10.3389 15.7565 10.3588 15.6922L10.3296 15.6195C10.309 15.5722 10.3119 15.5207 10.3517 15.4924L10.589 15.3293L10.9854 15.4049C10.9854 15.4049 10.9137 15.3159 10.9208 15.1966L10.5428 15.1168L10.1861 15.3329C10.0334 15.4465 10.022 15.6322 10.0724 15.7423L10.1193 15.8462Z" fill="white"/>
<path d="M12.9215 16.8727C12.9925 16.8699 13.0707 16.8685 13.1567 16.8685C13.1567 16.8685 13.3606 16.2761 13.372 16.257C13.2576 16.2069 13.0203 16.082 12.9286 16.0248C12.9891 16.1144 13.1361 16.2175 13.107 16.2966L12.9215 16.8727Z" fill="white"/>
<path d="M14.8624 13.3596H9.22607V15.4664C9.22607 16.3278 9.85344 16.8672 10.7792 16.8672C11.553 16.8672 11.7568 16.8968 12.0446 17.1807C12.2428 16.9844 12.407 16.911 12.7437 16.8834L12.7516 16.851L12.9292 16.3052C12.9192 16.2932 12.6287 15.9649 12.6287 15.9649C12.5135 16.003 12.4169 16.0094 12.2542 16.0094C12.0872 16.0094 11.899 15.9903 11.6951 15.9522C11.6744 15.9473 11.6553 15.9458 11.6361 15.9458C11.6112 15.9458 11.6091 15.948 11.6027 15.96L11.5671 16.0178L11.5025 16.1237L11.381 16.0962L10.8403 15.9698L10.7665 16.0912L10.7778 16.104L10.8439 16.176L10.8148 16.2699C10.775 16.3928 10.6456 16.5361 10.6066 16.5756L10.4716 16.7196L10.3487 16.565L10.2563 16.4499C10.159 16.3419 10.1362 16.176 10.191 16.0023C10.1895 16.0037 10.1874 16.0044 10.1853 16.0044L10.0325 16.0673L9.96357 15.919L9.91526 15.8138C9.83212 15.6288 9.8627 15.3584 10.0865 15.1953L10.522 14.951L10.9363 15.0322C10.9462 14.9927 10.9611 14.8515 10.9732 14.8155C10.9654 14.8148 10.9576 14.8126 10.9497 14.8126L10.711 14.9009L10.4808 14.7427C10.4808 14.7427 10.3906 14.6566 10.4723 14.5705L10.6954 14.2351L10.1306 13.5305L10.9988 13.8849L11.0563 13.8136L11.1736 13.6745L11.3064 13.8002C11.3441 13.8362 11.3654 13.8807 11.376 13.9251C11.6154 14.0176 12.0439 14.2909 12.0815 14.735L11.9473 14.7886V14.7922C11.9778 14.8282 12.0034 14.843 12.0112 14.8444L12.6308 14.9051C12.6464 14.9023 12.6663 14.8953 12.6883 14.8889C12.7651 14.8628 12.8809 14.8253 13.018 14.8253C13.1295 14.8253 13.2375 14.8508 13.3412 14.8988C13.3796 14.8846 13.4265 14.8741 13.4805 14.8705L13.5104 14.8698C13.8421 14.8698 14.007 15.1162 14.1392 15.3125C14.1612 15.3464 14.1832 15.3789 14.2059 15.4106C14.3217 15.573 14.4731 15.811 14.4795 15.8209L14.5477 15.9267L14.4639 16.0235C14.3992 16.0976 14.3026 16.1845 14.1363 16.1845C14.1022 16.1845 14.0646 16.1809 14.024 16.1732C13.9885 16.1668 13.9566 16.1562 13.9253 16.1435C13.9203 16.176 13.9139 16.2148 13.9075 16.248L13.7988 16.8114C14.4489 16.6525 14.8617 16.1647 14.8617 15.4671L14.8624 13.3596Z" fill="#FFDD2D"/>
<path d="M9.22613 13.1901H13.6092C13.3903 12.9657 13.3932 12.6811 13.4493 12.4961C13.3854 12.4658 13.3328 12.4291 13.2859 12.3895C13.1147 12.5152 12.5917 12.8936 12.4553 12.9882L12.4262 13.008L10.7061 12.6988H10.6713C10.6301 12.6988 10.5697 12.6974 10.5036 12.6896C10.4851 12.7665 10.4183 12.8195 10.3416 12.8195C10.3331 12.8195 10.3231 12.8188 10.3139 12.8167C10.2691 12.8089 10.23 12.7863 10.2038 12.7489C10.1768 12.7122 10.1661 12.6684 10.1739 12.6232L10.1803 12.5865C10.0027 12.4622 9.8393 12.1848 9.91176 11.8925L9.91885 11.8614L9.9437 11.8438C9.94726 11.8409 9.97711 11.8212 10.0212 11.7957L9.89613 11.7767C9.84925 11.7682 9.81797 11.7251 9.82509 11.6793C9.83291 11.6327 9.87696 11.5995 9.92314 11.6086L10.2208 11.6553L10.2478 10.6131L10.6912 10.1471L10.9675 10.7254L10.6755 11.728L10.9384 11.7689C10.9846 11.776 11.0166 11.8191 11.0095 11.8663C11.0024 11.908 10.9668 11.9369 10.9249 11.9369C10.9207 11.9369 10.9157 11.9369 10.9114 11.9363L10.6975 11.9017C10.7004 11.908 10.7047 11.9115 10.7075 11.9186C10.7302 11.9652 10.7807 11.9991 10.8106 12.0132L12.1221 12.0337C12.1775 11.98 12.3153 11.8459 12.4567 11.704C12.1342 11.5825 12.017 11.3058 11.997 11.1222C11.8166 11.0459 11.6923 10.9316 11.6233 10.7826C11.5395 10.5983 11.5694 10.414 11.5913 10.3244C11.4166 10.2608 11.2326 10.1451 11.045 9.96008H9.06982C9.15437 10.186 9.22613 10.431 9.22613 10.6746V13.1901Z" fill="#FFDD2D"/>
<path d="M11.0314 14.2739C10.9995 14.271 10.9724 14.2958 10.9703 14.3268C10.9682 14.3593 10.9923 14.3868 11.025 14.3876C11.0563 14.3904 11.084 14.3663 11.0868 14.3346C11.0868 14.3035 11.0641 14.2746 11.0314 14.2739Z" fill="black"/>
<path d="M14.8543 18.0941L14.5296 17.9706L14.6191 17.6373L14.7179 17.2737C14.7179 17.2737 14.1424 17.5836 13.3317 17.8166C13.1015 17.8823 12.9275 17.9119 12.9275 17.9119V18.159C12.9275 18.159 12.494 18.2339 12.0557 18.2339H12.0507H12.0443H12.0358H12.0308C11.5924 18.2339 11.159 18.159 11.159 18.159V17.9119C11.159 17.9119 10.9843 17.8823 10.7548 17.8166C9.94409 17.5836 9.36929 17.2737 9.36929 17.2737L9.46665 17.6373L9.55831 17.9706L9.23288 18.0941L8.87195 18.2283C9.28618 18.4266 9.85955 18.7161 10.3846 18.8587L10.261 19.1948C10.261 19.1948 10.9267 19.4963 12.0358 19.4991V19.4998H12.0393H12.0443H12.0486H12.0515V19.4991C13.1619 19.4963 13.8269 19.1948 13.8269 19.1948L13.7026 18.8587C14.2277 18.7161 14.8025 18.4266 15.2146 18.2283L14.8543 18.0941ZM9.25707 18.2508L9.79134 18.0743L9.63364 17.5625C9.8688 17.6952 10.3967 17.8943 10.7022 17.9868L10.4443 18.6907C9.97254 18.5615 9.57964 18.4111 9.25707 18.2508ZM12.0443 19.3226C11.4241 19.3226 10.7157 19.1807 10.5075 19.1073L10.8244 18.2551C11.0873 18.3313 11.6344 18.4125 12.0315 18.4097H12.0323H12.0443H12.055H12.0564C12.4536 18.4125 12.9992 18.3313 13.2635 18.2551L13.5797 19.1073C13.3715 19.1814 12.6639 19.3226 12.0443 19.3226ZM13.6429 18.6907L13.3857 17.9868C13.692 17.8943 14.2184 17.6952 14.4543 17.5625L14.2973 18.0743L14.8309 18.2508C14.5076 18.4111 14.1168 18.5615 13.6429 18.6907Z" fill="black"/>
<path d="M12.0437 4.79266C12.7044 4.79266 13.2331 5.01013 13.5251 5.24242C13.5251 5.24242 13.6117 4.72347 13.908 4.26527L13.3759 4.32527L13.0973 3.73715L12.5623 4.0111L12.0437 3.50134L11.5264 4.0111L10.9907 3.73715L10.7129 4.32527L10.1808 4.26527C10.477 4.72347 10.5637 5.24242 10.5637 5.24242C10.8565 5.01013 11.3836 4.79266 12.0437 4.79266ZM10.6888 4.53145L10.8366 4.54699L10.9005 4.41351L11.0867 4.01814L11.4319 4.19535L11.5655 4.26316L11.6721 4.15866L12.0444 3.79152L12.4174 4.15866L12.524 4.26316L12.6575 4.19535L13.0007 4.01814L13.189 4.41351L13.2515 4.54699L13.3993 4.53145L13.54 4.5145C13.4753 4.65923 13.4277 4.79618 13.3936 4.90987C13.0213 4.70369 12.5368 4.58652 12.043 4.58652C11.5513 4.58652 11.0675 4.70369 10.6938 4.90987C10.6589 4.79618 10.6121 4.65853 10.5474 4.5145L10.6888 4.53145Z" fill="black"/>
<path d="M19.796 11.6784C20.6508 11.6784 20.9364 10.8142 20.9485 10.7775L21.0437 10.4732L20.7232 10.4831H20.7218C20.6088 10.4831 19.666 10.4584 18.9974 9.61398L18.9342 9.53561C18.4972 8.9835 18.083 8.45893 17.3427 8.21957C17.364 8.20052 17.3946 8.1765 17.4365 8.14966C17.8294 7.89268 18.0582 7.58062 18.1157 7.21843C18.1995 6.67333 17.85 6.23913 17.8344 6.22149L17.5963 5.9292L17.4479 6.27586C17.4379 6.29775 17.1878 6.85272 16.662 6.85272H16.623C16.5867 6.85055 16.5526 6.84915 16.5185 6.84636C16.537 6.59853 16.4915 6.21513 16.142 5.85577C15.7221 5.42297 15.2063 5.35803 14.9363 5.35803C14.792 5.35803 14.6961 5.37567 14.6862 5.37709L14.3266 5.44769L14.5483 5.73787C14.7224 5.96169 14.8801 6.37471 14.6933 6.59078C14.6336 6.65923 14.5107 6.71501 14.3927 6.77079C14.1505 6.88162 13.8201 7.03555 13.8201 7.42808C13.8201 7.68226 14.0183 7.94776 14.3778 8.17367C15.4421 8.83878 16.0986 9.53278 16.3821 10.2988C16.8205 11.4772 16.2485 12.1493 15.6929 12.5031L15.4436 12.6626L15.6617 12.8617C15.6908 12.8871 15.9579 13.1208 16.3523 13.1547C16.4269 13.1596 16.4986 13.1639 16.5654 13.1639C16.8183 13.1639 17.0336 13.1244 17.2084 13.0714C17.1601 13.1554 17.1011 13.2408 17.0265 13.327C16.7089 13.6927 16.3182 13.8593 15.7561 13.8678L15.5473 13.8714L15.531 14.0796C15.5288 14.1212 15.5132 14.5075 15.8812 14.8358C15.9373 14.8866 16.0055 14.9283 16.0766 14.9629C15.8272 15.186 15.5736 15.5743 15.5246 16.2401C15.4833 16.7957 15.3498 17.0012 15.3483 17.0033L15.1174 17.3535L15.5345 17.3591C16.2236 17.3591 16.7516 17.1699 17.1175 16.7957C17.3335 16.574 17.4571 16.3241 17.5303 16.1024C17.6503 16.2041 17.8052 16.293 18.007 16.3403C18.0838 16.358 18.1676 16.3679 18.2578 16.3679C18.4525 16.3679 18.6152 16.3269 18.6336 16.3227L18.9001 16.2521L18.7822 16.005C18.7736 15.9852 18.5513 15.4896 18.7907 14.7821C18.8937 14.4764 18.9463 14.2025 18.9719 13.9892C19.1395 14.0761 19.3641 14.1481 19.6546 14.1488C20.314 14.1488 20.6046 13.6595 20.6181 13.6391L20.7481 13.4145L20.5072 13.3157C19.7214 12.9916 19.5473 12.1211 19.5125 11.6495C19.5836 11.6629 19.6646 11.6756 19.7562 11.6784H19.796ZM20.4191 13.524C20.4191 13.524 20.1889 13.9215 19.661 13.9215H19.6546C19.0209 13.918 18.7651 13.5338 18.7651 13.5338C18.7651 13.5338 18.8021 14.0337 18.5733 14.708C18.2983 15.5206 18.5754 16.1017 18.5754 16.1017C18.5754 16.1017 18.4276 16.1412 18.2571 16.1412C18.1918 16.1412 18.1236 16.1349 18.0596 16.1179C17.5303 15.993 17.3981 15.5143 17.3981 15.5143C17.3981 15.5143 17.4471 17.1318 15.5494 17.1318H15.5345C15.5345 17.1318 15.7014 16.9059 15.7512 16.2556C15.8414 15.0554 16.6592 14.8909 16.6592 14.8909C16.6592 14.8909 16.223 14.8365 16.034 14.6677C15.7384 14.4016 15.759 14.0937 15.759 14.0937C16.4269 14.0846 16.8638 13.8586 17.197 13.4752C17.558 13.0601 17.6177 12.6132 17.6177 12.6132C17.6177 12.6132 17.2589 12.9366 16.5647 12.9366C16.5036 12.9366 16.4382 12.9337 16.3715 12.9274C16.0432 12.9013 15.8159 12.6937 15.8159 12.6937C16.5384 12.2333 17.0457 11.4299 16.596 10.2197C16.2358 9.25036 15.3704 8.52598 14.4993 7.98019C14.2094 7.80021 14.0481 7.60037 14.0481 7.42808C14.0481 7.02285 14.6279 7.01014 14.8659 6.73759C15.1402 6.42132 14.9682 5.908 14.7302 5.5995C14.7302 5.5995 14.8105 5.58323 14.937 5.58323C15.1878 5.58323 15.6219 5.64607 15.9786 6.0132C16.4525 6.50037 16.2557 7.0306 16.2557 7.0306L16.3828 7.05531C16.4588 7.07154 16.5342 7.07437 16.6123 7.0779C16.6294 7.0779 16.6464 7.07863 16.6635 7.07863C17.3519 7.07863 17.6595 6.36342 17.6595 6.36342C17.6595 6.36342 18.3914 7.25794 17.3143 7.9583C17.1288 8.07834 17.0472 8.18921 17.0684 8.30782L17.0855 8.38548L17.1622 8.39889C17.9431 8.60927 18.3381 9.14449 18.8205 9.75308C19.553 10.6787 20.5897 10.7083 20.7175 10.7083H20.7311C20.7311 10.7083 20.4945 11.4504 19.7975 11.4504C19.7861 11.4504 19.7761 11.4504 19.764 11.4497C19.4436 11.4384 19.2795 11.3162 19.2795 11.3162C19.2795 11.3162 19.1537 13.0015 20.4191 13.524Z" fill="black"/>
<path d="M18.2948 8.31289C18.6138 8.48167 18.7992 8.70758 18.9619 8.90808C19.1218 9.10366 19.2739 9.29215 19.5112 9.37052C19.5957 9.39949 19.6852 9.4129 19.7762 9.4129C20.1329 9.4129 20.4909 9.19613 20.6267 8.89607L20.7631 8.59532L20.4326 8.57553C20.417 8.57483 19.9922 8.53671 19.519 8.05591C19.3243 7.85894 19.0891 7.75513 18.8355 7.75513C18.5257 7.75513 18.2962 7.90906 18.2707 7.92456L17.9666 8.13711L18.2948 8.31289ZM18.8362 7.98247C18.9953 7.98247 19.1808 8.03616 19.3563 8.21617C19.9069 8.77184 20.4191 8.80287 20.4191 8.80287C20.3261 9.00763 20.0561 9.18768 19.7769 9.18768C19.7122 9.18768 19.6476 9.17777 19.5829 9.15588C19.2042 9.02879 19.0685 8.46397 18.4028 8.11239C18.4028 8.11239 18.5889 7.98247 18.8362 7.98247Z" fill="black"/>
<path d="M18.444 11.3128V11.3241C18.2522 9.78637 17.1282 8.67579 15.8777 8.00011C15.7619 7.93867 15.6553 7.88645 15.5516 7.83633C15.9324 7.8949 16.5456 7.90199 17.0188 7.4939C17.0188 7.4939 16.2948 8.02343 14.8113 7.54263C15.2219 7.80736 16.0198 8.18089 16.7481 8.78592C18.569 10.3759 17.266 11.9271 17.266 11.9271C17.9204 11.2486 17.9474 10.5214 17.7548 9.9276C18.0994 10.4973 18.3197 11.1892 18.2855 12.0421C18.2351 13.2643 17.5594 14.3212 16.8482 15.1706C16.5065 15.5829 16.4298 16.0891 16.4298 16.0891C16.4298 16.0891 16.5676 15.6422 16.9633 15.1826C17.7257 14.2958 18.3772 13.3744 18.4625 12.0471C18.5414 12.2879 18.8661 12.9579 19.3811 13.2099C19.3826 13.2106 18.7353 12.823 18.444 11.3128Z" fill="black"/>
<path d="M8.73931 17.0025C8.73857 17.0004 8.60645 16.795 8.56383 16.2393C8.51406 15.5735 8.26113 15.1852 8.01106 14.9621C8.08352 14.9282 8.1503 14.8866 8.20643 14.835C8.57378 14.5067 8.55814 14.1205 8.55601 14.0789L8.54181 13.8706L8.3315 13.8671C7.7709 13.8579 7.37943 13.6913 7.06182 13.3263C6.98795 13.2401 6.92826 13.1547 6.87992 13.0707C7.05473 13.1236 7.2686 13.1632 7.52223 13.1632C7.59044 13.1632 7.66077 13.1589 7.73537 13.154C8.1297 13.1201 8.39688 12.8871 8.42669 12.861L8.64482 12.6618L8.39544 12.5023C7.83771 12.1479 7.26787 11.4757 7.70552 10.2981C7.98903 9.53205 8.64481 8.83804 9.71054 8.17294C10.07 7.94702 10.2669 7.68153 10.2669 7.42734C10.2669 7.03482 9.93718 6.88022 9.69494 6.77005C9.57699 6.71427 9.45408 6.65849 9.39436 6.59004C9.20681 6.37467 9.36525 5.96096 9.53863 5.73714L9.76171 5.44696L9.40078 5.37636C9.39013 5.37494 9.29564 5.3573 9.15068 5.3573C8.88071 5.3573 8.3663 5.42224 7.94568 5.85504C7.59543 6.21513 7.54921 6.59849 7.56701 6.84563C7.53288 6.84842 7.49881 6.84982 7.46327 6.85198H7.42491C6.89772 6.85198 6.64835 6.29702 6.6384 6.27513L6.48991 5.92847L6.24972 6.22076C6.23625 6.2384 5.88527 6.67333 5.97051 7.21769C6.02737 7.57988 6.25614 7.89194 6.64905 8.14892C6.69167 8.17573 6.72151 8.19978 6.74284 8.21884C6.00318 8.45819 5.58971 8.98346 5.15272 9.53557L5.08951 9.61394C4.42165 10.4584 3.4767 10.4831 3.36374 10.4831L3.04187 10.4732L3.13992 10.7775C3.15128 10.8142 3.43619 11.6784 4.29162 11.6784L4.33284 11.6769C4.42308 11.6741 4.50406 11.6621 4.57656 11.648C4.54102 12.1189 4.36695 12.9895 3.58041 13.3142L3.34029 13.4131L3.47032 13.6376C3.48309 13.6581 3.77441 14.1474 4.43515 14.1474C4.72358 14.1467 4.9481 14.0746 5.11649 13.9878C5.14208 14.201 5.19464 14.4749 5.29769 14.7807C5.53711 15.4881 5.31406 15.9837 5.30551 16.0035L5.18759 16.2506L5.4547 16.3212C5.47246 16.3255 5.63659 16.3664 5.83057 16.3664C5.9215 16.3664 6.00534 16.3565 6.08067 16.3389C6.28313 16.2916 6.43944 16.2026 6.55812 16.101C6.63055 16.3226 6.75492 16.5726 6.97019 16.7943C7.33681 17.1685 7.864 17.3577 8.55315 17.3577L8.97094 17.352L8.73931 17.0025ZM8.53751 17.1318C6.6398 17.1318 6.68814 15.5142 6.68814 15.5142C6.68814 15.5142 6.55595 15.9929 6.02664 16.1179C5.96342 16.1348 5.89591 16.1412 5.82987 16.1412C5.65932 16.1412 5.51226 16.1017 5.51226 16.1017C5.51226 16.1017 5.78795 15.5206 5.51295 14.7079C5.28561 14.0337 5.32254 13.5338 5.32254 13.5338C5.32254 13.5338 5.06748 13.9179 4.43302 13.9214H4.42664C3.89871 13.9214 3.66851 13.5239 3.66851 13.5239C4.9332 13.0022 4.80886 11.3176 4.80886 11.3176C4.80886 11.3176 4.64477 11.439 4.32359 11.451C4.31225 11.4518 4.30157 11.4518 4.29022 11.4518C3.59252 11.4518 3.35663 10.7097 3.35663 10.7097H3.37082C3.49943 10.7097 4.53464 10.68 5.26714 9.75444C5.74955 9.14584 6.14532 8.61136 6.92474 8.40028L7.00289 8.38688L7.01989 8.30921C7.04126 8.1906 6.96024 8.07974 6.77482 7.95973C5.69768 7.25864 6.42949 6.36479 6.42949 6.36479C6.42949 6.36479 6.73572 7.07929 7.42564 7.07929C7.44264 7.07929 7.45828 7.07859 7.47605 7.07859C7.55351 7.07433 7.63027 7.07154 7.70552 7.05527L7.83272 7.03056C7.83272 7.03056 7.63592 6.50033 8.11054 6.0132C8.46721 5.64534 8.90131 5.58323 9.15138 5.58323C9.27857 5.58323 9.35746 5.59945 9.35746 5.59945C9.12013 5.90869 8.94822 6.42127 9.22244 6.73759C9.45974 7.00941 10.0388 7.02281 10.0388 7.42807C10.0388 7.59964 9.87753 7.80014 9.58763 7.98018C8.71585 8.52598 7.85049 9.25035 7.49095 10.2197C7.04195 11.4299 7.54855 12.2326 8.27254 12.6936C8.27254 12.6936 8.04516 12.9012 7.7162 12.9273C7.64943 12.9337 7.58478 12.9365 7.52223 12.9365C6.82878 12.9365 6.47002 12.6132 6.47002 12.6132C6.47002 12.6132 6.52967 13.0601 6.88847 13.4752C7.22385 13.8586 7.66077 14.0845 8.32867 14.0937C8.32867 14.0937 8.34996 14.4015 8.05441 14.6677C7.8647 14.8357 7.42847 14.8908 7.42847 14.8908C7.42847 14.8908 8.24695 15.0553 8.33645 16.2556C8.3855 16.9058 8.55102 17.1318 8.55102 17.1318H8.53751Z" fill="black"/>
<path d="M4.31075 9.41366C4.40238 9.41366 4.49192 9.40026 4.57649 9.37129C4.81518 9.29292 4.96654 9.10439 5.12641 8.90885C5.2898 8.70835 5.47383 8.4824 5.79284 8.31366L6.12106 8.13854L5.81629 7.92606C5.79071 7.90983 5.56193 7.75659 5.25287 7.75659C4.99851 7.75659 4.76265 7.85971 4.56864 8.05738C4.09549 8.53748 3.67134 8.57633 3.65567 8.57703L3.32532 8.59605L3.46101 8.89754C3.59741 9.1962 3.95478 9.41366 4.31075 9.41366ZM4.73137 8.21694C4.90758 8.03692 5.093 7.98324 5.25287 7.98324C5.49868 7.98324 5.68487 8.11312 5.68487 8.11312C5.0198 8.46547 4.88339 9.02955 4.5033 9.15668C4.44078 9.17853 4.3754 9.18845 4.31075 9.18845C4.03154 9.18845 3.76154 9.0091 3.66918 8.80364C3.66918 8.80294 4.18073 8.77188 4.73137 8.21694Z" fill="black"/>
<path d="M5.80211 12.0429C5.76654 11.19 5.98684 10.4981 6.33209 9.92833C6.13959 10.5221 6.16587 11.2493 6.82096 11.9278C6.82096 11.9278 5.51791 10.3767 7.33959 8.78665C8.06858 8.18162 8.86573 7.80809 9.27567 7.54336C7.79292 8.02416 7.06893 7.49463 7.06893 7.49463C7.54208 7.90272 8.15525 7.89563 8.53608 7.83633C8.43307 7.88645 8.32507 7.93874 8.21064 8.00014C6.95877 8.67582 5.83548 9.78643 5.64297 11.3241V11.3121C5.35234 12.8223 4.70581 13.2099 4.70581 13.2099C5.22022 12.9579 5.54419 12.2886 5.62308 12.0471C5.70902 13.3745 6.36054 14.2958 7.1229 15.1826C7.51863 15.6422 7.6579 16.0891 7.6579 16.0891C7.6579 16.0891 7.58045 15.5829 7.23728 15.1706C6.5275 14.3226 5.85182 13.265 5.80211 12.0429Z" fill="black"/>
<path d="M11.6155 8.9314V9.23641C11.7214 9.10858 11.926 9.13473 11.926 9.13473V9.57458C11.926 9.57458 11.9189 9.79061 11.8415 9.88455H12.0631H12.2841C12.208 9.79131 12.2002 9.57458 12.2002 9.57458V9.13473C12.2002 9.13473 12.4048 9.10858 12.51 9.23641V8.9314H12.0631H11.6155Z" fill="black"/>
<path d="M11.4249 7.12253C11.5663 7.23409 11.648 7.25245 11.6508 7.25455L11.7063 7.27996V6.99261L11.1862 6.77515C11.1862 6.77588 11.1911 6.94179 11.4249 7.12253Z" fill="black"/>
<path d="M12.6622 7.12253C12.8974 6.94179 12.9017 6.77515 12.9017 6.77515L12.3816 6.99261V7.27996L12.4363 7.25455C12.4399 7.25245 12.5209 7.23409 12.6622 7.12253Z" fill="black"/>
<path d="M13.599 5.95269C13.599 5.5171 12.8607 5.12524 12.0458 5.12524H12.0451H12.043H12.0408C11.2259 5.12524 10.4877 5.5171 10.4877 5.95269L10.5041 6.06003L10.8294 7.91618L10.5026 8.10467L9.65715 8.59538H9.65997C9.65997 8.59538 9.4696 8.69211 9.38149 8.75211C9.05962 8.97454 8.99142 9.29857 9.1783 9.43275C9.22448 9.16865 9.43476 8.89191 9.8284 8.89191C10.1119 8.89191 10.3279 9.03737 10.5026 9.25553C10.5474 9.31058 10.59 9.36919 10.6298 9.43275C10.6789 9.51251 10.7279 9.58239 10.7769 9.65018H8.59924C8.75911 9.96999 8.91113 10.3089 8.91113 10.6768V15.4664C8.91113 16.6257 9.8085 17.1793 10.779 17.1793C11.5293 17.1793 11.6302 17.1454 12.0444 17.5549C12.4565 17.1447 12.5574 17.1793 13.3083 17.1793C14.2796 17.1793 15.1755 16.6257 15.1755 15.4664V10.6768C15.1755 10.3089 15.3276 9.96999 15.4881 9.65018H13.3098C13.3581 9.58313 13.4071 9.51251 13.4562 9.43275C13.4966 9.36919 13.5386 9.31058 13.5826 9.25553C13.7588 9.03663 13.9741 8.89191 14.2576 8.89191C14.6512 8.89191 14.8608 9.16795 14.9077 9.43275C15.0945 9.29857 15.0271 8.97454 14.7031 8.75211C14.6164 8.69211 14.426 8.59538 14.426 8.59538H14.4288L13.5833 8.10467L13.2579 7.91618L13.5833 6.06003L13.599 5.95269ZM10.8081 6.16875L11.9521 6.55424V8.3398L11.1101 7.89855L10.8081 6.16875ZM11.0447 9.96155C11.2323 10.1472 11.4164 10.2623 11.5911 10.3259C11.5684 10.4155 11.5385 10.6005 11.6231 10.7848C11.692 10.933 11.817 11.0474 11.9968 11.1237C12.0167 11.3073 12.1332 11.5833 12.4565 11.7055C12.3151 11.8474 12.1772 11.9808 12.1211 12.0352L10.8103 12.0147C10.7805 11.9998 10.73 11.9667 10.7073 11.9194C10.7044 11.913 10.7001 11.9095 10.698 11.9024L10.9119 11.937C10.9169 11.9377 10.9211 11.9377 10.9254 11.9377C10.9666 11.9377 11.0028 11.9095 11.0099 11.8671C11.0171 11.8198 10.9851 11.7767 10.9389 11.7697L10.676 11.7287L10.968 10.7269L10.6916 10.1486L10.2483 10.6146L10.2213 11.6567L9.92359 11.6101C9.87737 11.601 9.83336 11.6348 9.82557 11.6807C9.81845 11.7266 9.84969 11.7697 9.8966 11.7782L10.0216 11.7972C9.97689 11.8226 9.94774 11.8424 9.94418 11.8452L9.91863 11.8629L9.91151 11.894C9.83904 12.1862 10.0032 12.4637 10.1801 12.588L10.1737 12.6247C10.1666 12.6699 10.1765 12.7136 10.2035 12.7504C10.2291 12.7878 10.2689 12.8104 10.3129 12.8181C10.3222 12.8196 10.3321 12.8203 10.3406 12.8203C10.4174 12.8203 10.4842 12.7673 10.5033 12.6904C10.5694 12.6981 10.6298 12.6995 10.671 12.6995H10.7058L12.4259 13.0081L12.4551 12.989C12.5922 12.8937 13.1144 12.5153 13.2856 12.3903C13.3325 12.4305 13.3851 12.4672 13.4491 12.4976C13.3936 12.6826 13.3901 12.9671 13.6096 13.1916H9.22588V10.6774C9.22588 10.4339 9.15411 10.1889 9.06957 9.96298H11.0447V9.96155ZM13.1705 12.2618C12.9965 12.3889 12.5489 12.7136 12.3869 12.8266L10.8238 12.5478C10.8273 12.5336 10.8309 12.5202 10.8344 12.5061C10.8551 12.4256 10.8757 12.3154 10.8771 12.1862L12.1907 12.2074L12.2156 12.182C12.2355 12.1622 12.6519 11.7626 12.8643 11.5324C12.9147 11.5953 12.978 11.6553 13.0604 11.7083C13.032 11.8608 13.0441 12.0782 13.1705 12.2618ZM10.5538 11.9928C10.5908 12.0697 10.6575 12.1213 10.7037 12.1502C10.7023 12.2222 10.6952 12.3345 10.676 12.4334C10.6717 12.4552 10.666 12.4757 10.6597 12.4962C10.6561 12.5089 10.6526 12.5195 10.6497 12.528C10.5808 12.528 10.4451 12.5195 10.3343 12.4793C10.2114 12.4341 10.028 12.2102 10.0706 11.9638C10.1239 11.9314 10.2469 11.8629 10.3619 11.8629C10.4508 11.8622 10.5112 11.9038 10.5538 11.9928ZM10.3911 11.6828L10.4174 10.6824L10.6433 10.4445L10.7854 10.7396L10.5055 11.6998L10.3911 11.6828ZM13.1563 16.8694C13.0711 16.8694 12.9922 16.8708 12.9211 16.8736L13.1073 16.2982C13.1364 16.2184 12.9893 16.116 12.929 16.0263C13.0206 16.0835 13.2579 16.2085 13.3723 16.2586C13.3602 16.277 13.1563 16.8694 13.1563 16.8694ZM13.7403 16.2156L13.6189 16.8453C13.5414 16.8559 13.459 16.8616 13.3745 16.8651L13.5024 16.2593C13.5407 16.0793 13.054 16.0235 12.8139 15.6698C12.6966 15.8011 12.4757 15.8399 12.254 15.8399C12.0515 15.8399 11.8491 15.8075 11.7261 15.7835C11.6948 15.7785 11.665 15.775 11.6359 15.775C11.5648 15.775 11.5002 15.7969 11.4554 15.8717L11.4199 15.931L10.757 15.7757L10.5921 16.0468C10.5687 16.0906 10.5673 16.128 10.605 16.169L10.6497 16.2177C10.6192 16.3137 10.4814 16.4584 10.4814 16.4584L10.3826 16.3363C10.3044 16.2494 10.3172 16.0913 10.3989 15.9444L10.6618 15.5032L11.2231 15.5837L11.1357 15.386C11.0185 15.1247 11.1968 14.7922 11.216 14.6009C11.2096 14.6587 11.1563 14.6715 11.0938 14.6715C11.037 14.6715 10.9737 14.6609 10.9318 14.6609C10.9154 14.6609 10.9012 14.6623 10.8934 14.6679L10.7414 14.7597L10.6213 14.6546C10.6071 14.6341 10.6021 14.5867 10.6376 14.5514L10.9154 14.2422L10.5872 13.8617L11.0469 14.0911L11.1868 13.9224C11.2252 13.9598 11.2089 14.0579 11.2089 14.0579C11.3524 14.0615 11.7545 14.2825 11.7759 14.7978C11.7773 14.8134 11.7773 14.831 11.7773 14.848C11.7773 14.848 11.7808 14.8543 11.7879 14.8649C11.8163 14.9038 11.8945 15.0033 11.9939 15.0125L12.6291 15.0747H12.632C12.7016 15.0747 12.8401 14.9934 13.0178 14.9934C13.1144 14.9934 13.2224 15.0181 13.3375 15.0901C13.3375 15.0901 13.3951 15.045 13.4888 15.04C13.496 15.0393 13.5037 15.0393 13.5109 15.0393C13.7958 15.0393 13.9137 15.2949 14.0665 15.5074C14.1816 15.6691 14.335 15.9092 14.335 15.9092C14.2782 15.9762 14.2256 16.0129 14.1375 16.0129C14.1134 16.0129 14.0856 16.0108 14.0558 16.0052C13.7503 15.9494 13.7062 15.3252 13.5322 15.2759C13.5229 15.273 13.513 15.2723 13.5045 15.2723C13.4483 15.2723 13.4235 15.3217 13.4235 15.3217C13.503 15.5343 13.4569 15.6204 13.5421 15.7842C13.6061 15.9056 13.7197 16.0059 13.7666 16.0532C13.7666 16.0546 13.7539 16.1464 13.7403 16.2156ZM10.3293 15.6197L10.3584 15.6924C10.3392 15.756 10.119 15.8463 10.119 15.8463L10.0714 15.7432C10.0209 15.6331 10.0316 15.4474 10.1851 15.3337L10.5417 15.1177L10.9197 15.1975C10.9126 15.3168 10.9844 15.4058 10.9844 15.4058L10.5879 15.3302L10.3506 15.4933C10.3108 15.5208 10.308 15.5724 10.3293 15.6197ZM13.8 16.8107L13.9087 16.2473C13.9144 16.2142 13.9215 16.1753 13.9265 16.1429C13.9571 16.1556 13.9897 16.1661 14.0253 16.1725C14.0657 16.1802 14.1034 16.1838 14.1375 16.1838C14.3038 16.1838 14.4004 16.097 14.465 16.0228L14.5489 15.9261L14.4807 15.8202C14.4743 15.8096 14.3237 15.5724 14.2071 15.41C14.1844 15.3782 14.1624 15.3464 14.1403 15.3118C14.0082 15.1156 13.8427 14.8692 13.5109 14.8692L13.481 14.8699C13.4263 14.8734 13.3794 14.884 13.3417 14.8981C13.2373 14.8494 13.13 14.8247 13.0185 14.8247C12.8814 14.8247 12.7656 14.8621 12.6888 14.8883C12.6668 14.8946 12.6469 14.9016 12.6313 14.9044L12.011 14.8437C12.0032 14.8423 11.9776 14.8275 11.9471 14.7908V14.788L12.0814 14.7343C12.0437 14.2902 11.6146 14.017 11.3751 13.9245C11.3645 13.88 11.3432 13.8355 11.3055 13.7995L11.1719 13.6739L11.0547 13.8137L10.9972 13.8849L10.1289 13.5305L10.6938 14.2351L10.4707 14.5705C10.389 14.6566 10.4792 14.7428 10.4792 14.7428L10.7094 14.9002L10.9481 14.812C10.9566 14.812 10.9638 14.8141 10.9716 14.8148C10.9602 14.8508 10.9453 14.992 10.9353 15.0315L10.5211 14.9503L10.0856 15.1947C9.86177 15.3577 9.83123 15.6281 9.91434 15.8131L9.96265 15.9183L10.0316 16.0666L10.1836 16.0038C10.1858 16.003 10.1879 16.0024 10.1893 16.0009C10.1346 16.1746 10.1567 16.3398 10.2547 16.4485L10.347 16.5643L10.4699 16.719L10.605 16.5749C10.6447 16.5354 10.7733 16.392 10.8131 16.2692L10.8423 16.1753L10.7762 16.1033L10.7655 16.0906L10.8394 15.9692L11.3801 16.0955L11.5016 16.1231L11.5662 16.0172L11.6018 15.9592C11.6082 15.9473 11.6103 15.9451 11.6351 15.9451C11.6543 15.9451 11.6735 15.9473 11.6941 15.9515C11.898 15.9896 12.0863 16.0087 12.2533 16.0087C12.4153 16.0087 12.5119 16.0024 12.6277 15.9642C12.6277 15.9642 12.9183 16.2918 12.9282 16.3045L12.7506 16.8496L12.7428 16.8828C12.4061 16.9096 12.2419 16.983 12.0437 17.18C11.7559 16.8962 11.552 16.8665 10.7783 16.8665C9.85252 16.8665 9.22515 16.3271 9.22515 15.4658V13.3597H14.8608L14.8622 15.4658C14.8629 16.1647 14.4501 16.6519 13.8 16.8107ZM15.0185 9.96155C14.9325 10.1875 14.8608 10.4325 14.8608 10.676L14.8615 12.2477C14.5311 12.1926 14.4921 11.8389 14.4906 11.8233L14.4842 11.7513L14.4132 11.745C14.2697 11.7315 14.1745 11.6709 14.0942 11.5932C13.9322 11.4322 13.9315 11.171 13.9322 11.1689C13.9301 11.1823 13.7539 11.4273 13.9585 11.6949C14.0444 11.8078 14.1687 11.877 14.33 11.9046C14.3677 12.1008 14.5148 12.3776 14.8615 12.4199V13.1895H13.8867C13.437 12.941 13.6274 12.5032 13.6366 12.4849L13.675 12.4016L13.589 12.3691C13.1023 12.1898 13.2359 11.7069 13.243 11.6864L13.2629 11.6158L13.1969 11.5847C12.7947 11.3998 12.8494 10.9006 12.8544 10.8801C12.7307 10.9797 12.686 11.183 12.7712 11.3821C12.7251 11.4343 12.6632 11.4978 12.5958 11.5671C12.1794 11.4619 12.1666 11.0813 12.1666 11.0637L12.1659 11.0051L12.1112 10.9839C11.9485 10.9238 11.8369 10.8342 11.7822 10.7135C11.7204 10.58 11.7424 10.4402 11.7595 10.3732C11.8071 10.3837 11.8547 10.3915 11.9002 10.395C11.9471 10.4 11.9954 10.4028 12.0437 10.4028H12.0466H12.0501C12.0984 10.4028 12.146 10.4 12.1929 10.395C12.4522 10.3696 12.7428 10.2588 13.0455 9.96081H15.0185V9.96155ZM13.4995 8.37296L13.8846 8.59538H13.8903L13.9869 8.65116C13.7695 8.71117 13.6032 8.8192 13.464 8.9611C13.459 8.96536 13.454 8.97098 13.4491 8.97593C13.4171 9.00983 13.3851 9.04655 13.3553 9.08393C13.3496 9.09102 13.3439 9.09877 13.3375 9.10655C13.3076 9.14467 13.28 9.18352 13.2529 9.22446C13.2487 9.23152 13.2437 9.23857 13.2387 9.24492C13.2068 9.29222 13.1762 9.34308 13.1456 9.3953C12.8714 9.86482 12.4337 10.1451 12.0444 10.1458C11.6558 10.1451 11.2181 9.86482 10.9439 9.3953C10.914 9.34451 10.8842 9.29505 10.8522 9.24701C10.8458 9.23787 10.8401 9.22869 10.8344 9.22094C10.8074 9.18209 10.7805 9.14397 10.7527 9.10795C10.7456 9.09807 10.7392 9.09032 10.7321 9.08184C10.7023 9.04581 10.6717 9.00983 10.6412 8.97663C10.6348 8.97171 10.6305 8.96536 10.6242 8.95967C10.4842 8.81777 10.3186 8.71044 10.1005 8.65116L10.1985 8.59538H10.2028L10.5879 8.37296L10.9837 8.14778L12.0408 8.71962L12.043 8.71752L12.0458 8.71962L13.103 8.14778L13.4995 8.37296ZM12.978 7.89921L12.1353 8.34046V6.55424L13.2785 6.16875L12.978 7.89921ZM12.0437 6.35798L10.7904 5.86586C10.897 5.61522 11.3886 5.40199 12.0437 5.4013C12.6995 5.40199 13.1911 5.61522 13.297 5.86586L12.0437 6.35798Z" fill="black"/>
</svg>
