<svg width="24" height="24" viewBox="0 0 24 24" fill="none" xmlns="http://www.w3.org/2000/svg">
<rect width="24" height="24" rx="12" fill="white"/>
<g clip-path="url(#clip0_17_3324)">
<path d="M12 20.0259C16.4326 20.0259 20.0259 16.4326 20.0259 12C20.0259 7.56741 16.4326 3.97409 12 3.97409C7.56744 3.97409 3.97412 7.56741 3.97412 12C3.97412 16.4326 7.56744 20.0259 12 20.0259Z" fill="white"/>
<path d="M12 3C10.22 3 8.47991 3.52784 6.99987 4.51677C5.51983 5.50571 4.36628 6.91131 3.68509 8.55585C3.0039 10.2004 2.82567 12.01 3.17294 13.7558C3.5202 15.5016 4.37737 17.1053 5.63604 18.364C6.89472 19.6226 8.49836 20.4798 10.2442 20.8271C11.99 21.1743 13.7996 20.9961 15.4442 20.3149C17.0887 19.6337 18.4943 18.4802 19.4832 17.0001C20.4722 15.5201 21 13.78 21 12C21.0034 10.8215 20.7747 9.65393 20.3269 8.56386C19.8791 7.47379 19.221 6.48259 18.3901 5.64686C17.5593 4.81113 16.5719 4.14724 15.4845 3.69309C14.397 3.23894 13.2308 3.00343 12.0523 3H12ZM12.1525 12.3051L11.2155 15.4649H16.2276C16.2608 15.4637 16.2939 15.4691 16.325 15.4808C16.3561 15.4924 16.3847 15.5101 16.4089 15.5327C16.4332 15.5554 16.4528 15.5826 16.4666 15.6129C16.4803 15.6431 16.488 15.6758 16.4891 15.709V15.7918L16.0533 17.2954C16.0341 17.3665 15.9912 17.429 15.9318 17.4725C15.8724 17.5161 15.8 17.5382 15.7264 17.5351H8.05569L9.34141 13.155L7.90315 13.5908L8.23003 12.5884L9.66829 12.1525L11.477 6.00726C11.4969 5.93656 11.5399 5.87454 11.5991 5.8311C11.6584 5.78766 11.7305 5.76529 11.8039 5.76755H13.7433C13.7765 5.76639 13.8097 5.77178 13.8408 5.78342C13.8719 5.79506 13.9004 5.81272 13.9247 5.83538C13.949 5.85805 13.9686 5.88528 13.9823 5.91552C13.9961 5.94577 14.0037 5.97842 14.0048 6.01162V6.09443L12.4794 11.2809L13.9177 10.845L13.6126 11.891L12.1525 12.3051Z" fill="#345D9D"/>
</g>
<defs>
<clipPath id="clip0_17_3324">
<rect width="18" height="18" fill="white" transform="translate(3 3)"/>
</clipPath>
</defs>
</svg>
