<svg width="24" height="24" viewBox="0 0 24 24" fill="none" xmlns="http://www.w3.org/2000/svg">
<rect width="24" height="24" rx="12" fill="white"/>
<g clip-path="url(#clip0_17_3329)">
<path d="M12 21C16.9706 21 21 16.9706 21 12C21 7.02944 16.9706 3 12 3C7.02944 3 3 7.02944 3 12C3 16.9706 7.02944 21 12 21Z" fill="#0AC18E"/>
<path d="M14.8074 8.9779C14.3551 7.95227 13.3157 7.73298 12.0434 7.94542L11.6345 6.36014L10.6706 6.60912L11.0726 8.18983C10.819 8.25379 10.5586 8.30862 10.3005 8.38171L9.89849 6.81014L8.93453 7.05912L9.34341 8.6444C9.13554 8.70379 7.39722 9.14922 7.39722 9.14922L7.66219 10.1817C7.66219 10.1817 8.37031 9.98298 8.36346 9.99897C8.75635 9.89618 8.94138 10.0926 9.02818 10.2777L10.152 14.6223C10.1657 14.748 10.1429 14.9627 9.87336 15.0358C9.88935 15.0449 9.17209 15.2162 9.17209 15.2162L9.27717 16.42C9.27717 16.42 10.9995 15.9792 11.2256 15.9221L11.6391 17.5256L12.6031 17.2766L12.1896 15.6617C12.4546 15.6 12.7127 15.536 12.964 15.4698L13.3751 17.0756L14.3391 16.8266L13.9256 15.2254C15.4104 14.8645 16.4589 13.9279 16.2442 12.4957C16.1071 11.6322 15.1637 10.9241 14.3802 10.8441C14.8622 10.417 15.1066 9.79339 14.8074 8.9779ZM14.3437 12.7584C14.5355 14.1769 12.5642 14.3505 11.9132 14.5218L11.3467 12.3997C12 12.2284 14.0193 11.5089 14.3437 12.7584ZM13.1558 9.86877C13.3591 11.1297 11.6734 11.2759 11.1297 11.4152L10.6135 9.48958C11.1594 9.35481 12.7424 8.70151 13.1558 9.86877Z" fill="white"/>
</g>
<defs>
<clipPath id="clip0_17_3329">
<rect width="18" height="18" fill="white" transform="translate(3 3)"/>
</clipPath>
</defs>
</svg>
