<svg width="24" height="24" viewBox="0 0 24 24" fill="none" xmlns="http://www.w3.org/2000/svg">
<rect width="24" height="24" rx="12" fill="white"/>
<g clip-path="url(#clip0_17_3334)">
<path fill-rule="evenodd" clip-rule="evenodd" d="M6.29577 5.0769L3.01374 11.9708C3.00125 11.9965 2.99729 12.0254 3.00244 12.0535C3.0076 12.0815 3.02159 12.1072 3.04237 12.1267L11.9064 20.6206C11.9315 20.6447 11.9651 20.6582 11.9999 20.6582C12.0348 20.6582 12.0684 20.6447 12.0935 20.6206L20.9575 12.1273C20.9783 12.1077 20.9923 12.0821 20.9975 12.054C21.0026 12.026 20.9987 11.997 20.9862 11.9713L17.7041 5.07743C17.6935 5.05428 17.6765 5.03467 17.6551 5.02094C17.6336 5.00721 17.6087 4.99994 17.5832 5.00001H6.41774C6.39216 4.99969 6.36703 5.00678 6.34539 5.02043C6.32374 5.03407 6.30651 5.05368 6.29577 5.0769Z" fill="#50AF95"/>
<path fill-rule="evenodd" clip-rule="evenodd" d="M13.1388 12.6788C13.0752 12.6836 12.7464 12.7032 12.013 12.7032C11.4297 12.7032 11.0155 12.6857 10.8702 12.6788C8.61591 12.5796 6.93326 12.1872 6.93326 11.7173C6.93326 11.2475 8.61591 10.8556 10.8702 10.7548V12.2879C11.0176 12.2986 11.4398 12.3235 12.0231 12.3235C12.7231 12.3235 13.0736 12.2943 13.1367 12.2885V10.7559C15.3863 10.8561 17.0652 11.2486 17.0652 11.7173C17.0652 12.1861 15.3868 12.5786 13.1367 12.6782L13.1388 12.6788ZM13.1388 10.5973V9.22546H16.2782V7.13342H7.73084V9.22546H10.8697V10.5968C8.31841 10.714 6.39978 11.2194 6.39978 11.825C6.39978 12.4306 8.31841 12.9354 10.8697 13.0532V17.4494H13.1383V13.0516C15.6838 12.9344 17.5992 12.4295 17.5992 11.8245C17.5992 11.2194 15.6853 10.7145 13.1383 10.5968L13.1388 10.5973Z" fill="white"/>
</g>
<defs>
<clipPath id="clip0_17_3334">
<rect width="18" height="15.6582" fill="white" transform="translate(3 5)"/>
</clipPath>
</defs>
</svg>
