<svg width="24" height="24" viewBox="0 0 24 24" fill="none" xmlns="http://www.w3.org/2000/svg">
<rect width="24" height="24" rx="12" fill="white"/>
<path d="M18.321 8.0213C18.321 8.10686 18.321 8.19243 18.2355 8.27799C17.551 11.7005 15.3264 12.8128 12.4173 12.8128H10.9627C10.6205 12.8128 10.2782 13.0695 10.2782 13.4117L9.50816 18.2032L9.33704 19.5722C9.33704 19.8288 9.50815 20 9.67928 20H12.3317C12.6739 20 12.9306 19.7433 12.9306 19.4866V19.3155L13.444 16.2352V16.0641C13.5296 15.7219 13.7863 15.5507 14.0429 15.5507H14.4707C17.0376 15.5507 19.0055 14.524 19.5189 11.5293C19.7756 10.2459 19.6045 9.21917 19.0055 8.53467C18.8344 8.36355 18.5777 8.19242 18.321 8.0213Z" fill="#2199D6"/>
<path d="M17.6364 7.76468C17.5508 7.76468 17.4653 7.67912 17.2941 7.67912C17.2086 7.67912 17.0375 7.59356 16.9519 7.59356C16.5241 7.50799 16.0963 7.508 15.6685 7.508H11.7326C11.6471 7.508 11.5615 7.50799 11.4759 7.59356C11.3048 7.67912 11.1337 7.85024 11.1337 8.02137L10.2781 13.3262V13.4973C10.3636 13.1551 10.6203 12.8984 10.9626 12.8984H12.4171C15.3262 12.8984 17.5508 11.7005 18.2353 8.36361C18.2353 8.27805 18.2353 8.19249 18.3209 8.10693C18.1498 8.02137 17.9786 7.93581 17.8075 7.85024C17.7219 7.76468 17.6364 7.76468 17.6364 7.76468Z" fill="#252C5E"/>
<path d="M11.1337 8.02141C11.1337 7.85028 11.3048 7.67916 11.476 7.5936C11.5615 7.5936 11.6471 7.50804 11.7326 7.50804H15.6685C16.0963 7.50804 16.6097 7.50803 16.9519 7.5936C17.0375 7.5936 17.2086 7.5936 17.2942 7.67916C17.3797 7.67916 17.4653 7.76472 17.6364 7.76472C17.722 7.76472 17.722 7.76472 17.8075 7.85028C17.9787 7.93585 18.1498 8.02141 18.3209 8.10697C18.492 6.82354 18.3209 5.96792 17.6364 5.19786C16.8664 4.34225 15.4974 4 13.7861 4H8.73798C8.39573 4 8.05348 4.25668 8.05348 4.59893L6 17.7755C6 18.0321 6.17112 18.2888 6.42781 18.2888H9.50803L10.2781 13.3262L11.1337 8.02141Z" fill="#263577"/>
</svg>
