<svg width="24" height="24" viewBox="0 0 24 24" fill="none" xmlns="http://www.w3.org/2000/svg">
<rect width="24" height="24" rx="12" fill="white"/>
<path d="M14.5482 14.7312V17.0136H11.6856V19H7.61883V17.0136H6V14.7312H7.61883V13.5089H6V11.2265H7.61883V5H13.956C15.5748 5 16.8185 5.35016 17.6872 6.05048C18.5624 6.74443 19 7.77899 19 9.15416C19 10.5675 18.5295 11.6467 17.5885 12.3915C16.654 13.1364 15.2787 13.5089 13.4624 13.5089H11.6856V14.7312H14.5482ZM11.6856 11.2265H12.7813C13.2222 11.2265 13.5907 11.1724 13.8869 11.0641C14.1896 10.9559 14.4298 10.8126 14.6074 10.6344C14.7917 10.4497 14.9233 10.2397 15.0023 10.0041C15.0812 9.76853 15.1207 9.5266 15.1207 9.27831C15.1207 9.06821 15.0878 8.85493 15.022 8.63847C14.9562 8.42201 14.8411 8.22783 14.6765 8.05593C14.5186 7.87767 14.2982 7.73442 14.0152 7.62619C13.7388 7.51796 13.3867 7.46385 12.959 7.46385H11.6856V11.2265Z" fill="#2199D6"/>
</svg>
