<svg width="24" height="24" viewBox="0 0 24 24" fill="none" xmlns="http://www.w3.org/2000/svg">
<rect width="24" height="24" rx="12" fill="white"/>
<path d="M17.6097 8.08264L14.3097 8.60972C14.1441 8.18686 13.9933 7.89503 13.8573 7.73423C13.7272 7.56747 13.5083 7.40071 13.2008 7.23395V9.81575C14.9987 10.2982 16.1992 10.8074 16.8024 11.3434C17.6008 12.064 18 12.9782 18 14.086C18 14.7352 17.8551 15.3307 17.5653 15.8727C17.2815 16.4147 16.9148 16.8673 16.4653 17.2306C16.0218 17.5939 15.5487 17.8589 15.046 18.0257C14.5433 18.1865 13.9282 18.2818 13.2008 18.3116V20H11.9056V18.3116C11.0363 18.2341 10.3296 18.0942 9.78548 17.8917C9.24731 17.6832 8.78011 17.3974 8.38387 17.0341C7.99355 16.6708 7.69194 16.2807 7.47903 15.8638C7.26613 15.4409 7.10645 14.9317 7 14.3361L10.5839 13.9162C10.6903 14.5059 10.8323 14.9317 11.0097 15.1937C11.193 15.4558 11.4917 15.6881 11.9056 15.8906V12.737C10.711 12.4035 9.86237 12.1146 9.35968 11.8705C8.8629 11.6263 8.43118 11.2362 8.06452 10.7002C7.69785 10.1582 7.51452 9.50009 7.51452 8.72585C7.51452 7.66574 7.88118 6.78131 8.61452 6.07259C9.35376 5.3579 10.4508 4.96185 11.9056 4.88442V4H13.2008V4.88442C14.5255 4.9678 15.5368 5.28345 16.2347 5.83138C16.9384 6.3793 17.3968 7.12972 17.6097 8.08264ZM11.9056 7.18928C11.5272 7.31435 11.264 7.4692 11.1161 7.65382C10.9683 7.83845 10.8944 8.05583 10.8944 8.30597C10.8944 8.56803 10.9683 8.79732 11.1161 8.99386C11.2699 9.18444 11.5331 9.34524 11.9056 9.47627V7.18928ZM13.2008 15.9799C13.7035 15.8667 14.0702 15.6821 14.3008 15.426C14.5374 15.164 14.6556 14.8721 14.6556 14.5505C14.6556 14.2706 14.5551 14.0145 14.354 13.7822C14.1589 13.544 13.7745 13.3237 13.2008 13.1212V15.9799Z" fill="#0AC18E"/>
</svg>
