<svg width="30" height="61" viewBox="0 0 30 61" fill="none" xmlns="http://www.w3.org/2000/svg">
<rect y="10" width="30" height="40" fill="#C7C7CF"/>
<path d="M29.5 10C29.5 12.5422 27.9543 14.905 25.3293 16.655C22.7077 18.4028 19.0572 19.5 15 19.5C10.9428 19.5 7.29233 18.4028 4.67075 16.655C2.04567 14.905 0.5 12.5422 0.5 10C0.5 7.45777 2.04567 5.09501 4.67075 3.34496C7.29233 1.59724 10.9428 0.5 15 0.5C19.0572 0.5 22.7077 1.59724 25.3293 3.34496C27.9543 5.09501 29.5 7.45777 29.5 10Z" fill="#D0CFCF" stroke="white"/>
<path d="M29.5 51C29.5 53.5422 27.9543 55.905 25.3293 57.655C22.7077 59.4028 19.0572 60.5 15 60.5C10.9428 60.5 7.29233 59.4028 4.67075 57.655C2.04567 55.905 0.5 53.5422 0.5 51C0.5 48.4578 2.04567 46.095 4.67075 44.345C7.29233 42.5972 10.9428 41.5 15 41.5C19.0572 41.5 22.7077 42.5972 25.3293 44.345C27.9543 46.095 29.5 48.4578 29.5 51Z" fill="#D0CFCF" stroke="white"/>
</svg>
