<svg width="212" height="44" viewBox="0 0 212 44" fill="none" xmlns="http://www.w3.org/2000/svg">
<path fill-rule="evenodd" clip-rule="evenodd" d="M208 30.8281C209.65 30.8281 211 32.1781 211 33.8281C211 35.4781 209.65 36.8281 208 36.8281C206.35 36.8281 205 35.4781 205 33.8281C205 32.1781 206.35 30.8281 208 30.8281Z" fill="#FEFEFE"/>
<path fill-rule="evenodd" clip-rule="evenodd" d="M210.775 7.27344V29.3234H205.375V17.2484L191.725 32.3234C191.5 32.3234 191.2 32.3234 190.975 32.3234L177.4 17.2484V36.8234H172V7.27344H175.075L191.35 25.3484L207.625 7.27344H210.775Z" fill="#FEFEFE"/>
<path d="M150.702 12.1437H156.027C160.152 12.1437 161.577 14.3187 161.577 16.8687C161.577 19.4937 160.152 21.6687 156.027 21.6687H150.702V12.1437ZM150.702 36.8187V26.5437H156.552C161.502 26.5437 166.977 23.6937 166.977 16.8687C166.977 10.0437 161.427 7.26875 156.552 7.26875H145.302V36.8187H150.702ZM116.427 32.4687C119.277 35.3937 123.102 37.2687 128.052 37.2687C134.802 37.2687 139.827 34.1937 139.827 28.4187C139.827 24.2937 137.202 22.5687 135.027 21.6687V21.5937C136.977 20.6187 139.002 18.8187 139.002 15.1437C139.002 9.29374 133.827 6.59375 128.352 6.59375C123.777 6.59375 119.652 8.39374 116.952 11.3937L120.252 14.9937C122.727 12.4437 125.277 11.3937 128.052 11.3937C131.277 11.3937 133.527 12.9687 133.527 15.7437C133.527 17.5437 132.477 19.4187 128.802 19.4187H121.902V23.9187H128.877C132.327 23.9187 134.277 25.5687 134.277 28.1187C134.277 30.5187 132.327 32.3187 128.127 32.3187C124.902 32.3187 122.127 31.2687 119.652 28.6437L116.427 32.4687ZM86.8024 36.7437V24.2937H104.877V36.7437H110.277V7.19374H104.877V19.4187H86.8024V7.19374H81.4023V36.7437H86.8024Z" fill="#FEFEFE"/>
<path fill-rule="evenodd" clip-rule="evenodd" d="M22.5989 0.53125C34.2238 0.53125 43.6739 9.98125 43.6739 21.6062C43.6739 33.2312 34.2238 42.6812 22.5989 42.6812C10.9739 42.6812 1.52388 33.2312 1.52388 21.6062C1.44888 9.98125 10.8989 0.53125 22.5989 0.53125Z" fill="#FEFEFE"/>
<path fill-rule="evenodd" clip-rule="evenodd" d="M39.5508 9.66873V26.3187H35.5007V17.1687L25.1508 28.5687C25.0008 28.5687 24.7758 28.5687 24.6258 28.5687L14.3508 17.1687V31.9437H10.3008V9.59375H12.6258L24.9258 23.2437L37.2257 9.59375H39.5508V9.66873Z" fill="#42474D"/>
<path d="M37.15 7.04999C33.4 3.29999 28.3 1.04999 22.6 1.04999C16.9 1.04999 11.8 3.37499 8.05001 7.04999C4.30002 10.8 2.05002 15.9 2.05002 21.6C2.05002 27.3 4.37502 32.4 8.05001 36.15C11.8 39.9 16.9 42.15 22.6 42.15C28.3 42.15 33.4 39.825 37.15 36.15C40.9 32.4 43.15 27.3 43.15 21.6C43.15 15.9 40.9 10.8 37.15 7.04999ZM22.6 0C28.6 0 34 2.39999 37.9 6.29999C41.8 10.2 44.2 15.6 44.2 21.6C44.2 27.6 41.8 33 37.9 36.9C34 40.8 28.6 43.2 22.6 43.2C16.6 43.2 11.2 40.8 7.30001 36.9C3.40002 33 1 27.6 1 21.6C1 15.6 3.40002 10.2 7.30001 6.29999C11.2 2.39999 16.6 0 22.6 0Z" fill="#E41D32"/>
<path fill-rule="evenodd" clip-rule="evenodd" d="M45.1766 0.375C56.8016 0.375 66.2515 9.825 66.2515 21.45C66.2515 33.075 56.8016 42.525 45.1766 42.525C33.5516 42.525 24.1016 33.075 24.1016 21.45C24.1016 9.825 33.5516 0.375 45.1766 0.375Z" fill="#E41D32"/>
<path fill-rule="evenodd" clip-rule="evenodd" d="M37.5242 27.375C38.7992 27.375 39.8492 28.425 39.8492 29.7C39.8492 30.975 38.7992 32.025 37.5242 32.025C36.2492 32.025 35.1992 30.975 35.1992 29.7C35.1992 28.425 36.2492 27.375 37.5242 27.375Z" fill="#FEFEFE"/>
<path fill-rule="evenodd" clip-rule="evenodd" d="M39.5469 9.67188V26.3219H35.4969V17.1719L25.2969 28.4969C24.9219 27.5219 24.5469 26.1719 24.3969 24.8969C24.2469 23.9219 24.1719 22.8719 24.1719 22.4219L24.9969 23.3219L37.2969 9.67188H39.5469Z" fill="#FEFEFE"/>
</svg>
