<svg width="180" height="92" viewBox="0 0 180 92" fill="none" xmlns="http://www.w3.org/2000/svg">
<g clip-path="url(#clip0_2017_2779)">
<path d="M33.2969 21.1803C35.5275 22.2235 37.4416 23.4676 39.0779 24.843V23.1121C37.3181 22.2081 35.3963 21.5435 33.2969 21.1726V21.1803Z" fill="#8F7949"/>
<path d="M46.1406 22.1925V26.3343C51.8831 32.2688 55.202 41.2787 54.2681 51.3936C53.4962 59.7622 50.4783 64.8698 48.0779 67.8912C50.0924 66.5776 56.9772 61.1531 57.4403 47.4373C57.7876 37.2374 53.6197 27.8334 46.1406 22.1848V22.1925Z" fill="#8F7949"/>
<path d="M30.2789 16.7604C27.7319 16.6754 25.4318 16.8685 23.3633 17.2935V19.5653C25.3701 19.1172 27.6393 18.9163 30.2018 19.009C33.3508 19.1249 36.3379 19.8976 39.0779 21.2035V18.3908C36.3842 17.4326 33.4435 16.8686 30.2789 16.7681V16.7604Z" fill="#8F7949"/>
<path d="M52.099 47.1282C51.9292 40.4751 49.8993 33.9611 46.1405 29.0852V34.3706C48.4482 39.5942 48.8805 44.6169 49.004 46.9737C49.6523 57.4827 46.4492 64.6999 41.1621 68.8339V71.5307C47.7922 67.3116 52.3923 59.3758 52.099 47.1205V47.1282Z" fill="#8F7949"/>
<path d="M23.1556 70.526C21.419 69.4906 19.8213 68.3547 18.3779 67.1106V68.7333C19.8521 69.4983 21.4421 70.1087 23.1556 70.526Z" fill="#8F7949"/>
<path d="M8.15068 43.4887C8.09665 38.4428 9.01514 28.2661 16.3013 22.7489V20.0598C7.68758 25.4225 5.3026 36.1092 5.1328 43.2491C5.04018 50.42 7.15501 57.5599 11.3229 62.8221V57.9463C9.36246 53.8431 8.28961 49.0445 8.15068 43.4809V43.4887Z" fill="#8F7949"/>
<path d="M2.96386 44.4933C2.88668 36.2792 4.58472 32.0216 7.91905 25.5925C5.51864 27.7639 0.486269 33.4975 0.023167 44.8023C-0.355033 55.0563 4.12934 64.1899 11.3151 69.7148V66.2299C6.07436 61.0295 3.00246 53.2945 2.96386 44.4933Z" fill="#8F7949"/>
<path d="M28.3423 73.0839C24.7147 73.0994 21.3727 72.3808 18.3779 71.0671V73.6248C21.3958 74.7376 24.6684 75.3171 28.1108 75.2475C30.1484 75.2244 32.1552 74.9771 34.1002 74.5057V72.288C32.271 72.7749 30.3414 73.0376 28.3423 73.0762V73.0839Z" fill="#8F7949"/>
<path d="M13.2991 8.894L13.33 14.7126V19.7121C14.3874 18.8698 15.4834 18.2207 16.2938 17.7957V0.239543H15.9002C14.6575 0.200907 12.0487 0.131362 8.05059 0H7.87307L7.39453 0.479086V2.34134L7.89622 2.71997H8.01972C9.00767 2.75861 9.8181 2.80497 10.451 2.85906C12.7742 3.05997 13.0444 3.29179 13.1987 5.43995C13.2451 6.22039 13.2759 7.37947 13.2914 8.894H13.2991Z" fill="#645E5A"/>
<path d="M8.01963 89.2646C9.00758 89.226 9.818 89.1874 10.4509 89.1333C12.7741 88.9324 13.0443 88.7006 13.1986 86.5524C13.245 85.7719 13.2758 84.6129 13.2913 83.0983L13.3221 77.272V28.8302C14.1017 27.6634 15.1591 26.3421 16.286 25.4612V91.7528H15.8924C14.6497 91.7837 12.0409 91.861 8.04278 91.9923H7.86526L7.38672 91.5133V89.651L7.88841 89.2724H8.01191L8.01963 89.2646Z" fill="#645E5A"/>
<path d="M49.4363 89.2645C48.4483 89.2258 47.6379 89.1872 47.005 89.1331C44.6818 88.9322 44.4116 88.7004 44.2573 86.5522C44.211 85.7718 44.1801 84.6127 44.1646 83.0982L44.1338 77.2796V71.7314C43.2848 72.5583 42.0653 73.3773 41.1699 73.841V91.7449H41.5636C42.8062 91.7758 45.415 91.8531 49.4131 91.9844H49.5907L50.0692 91.5053V89.6431L49.5675 89.2645H49.444H49.4363Z" fill="#645E5A"/>
<path d="M21.3727 83.0982L21.3418 77.2797V76.3524C20.4465 76.1669 19.3119 75.8965 18.3779 75.5874V91.7527H18.7716C20.0142 91.7836 22.623 91.8609 26.6211 91.9922H26.7987L27.2772 91.5132V89.6509L26.7755 89.2723H26.6443C25.6563 89.2259 24.8459 89.1873 24.213 89.1332C21.8898 88.9323 21.6196 88.7005 21.4653 86.5523C21.419 85.7719 21.3881 84.6128 21.3727 83.0982Z" fill="#645E5A"/>
<path d="M36.0833 8.894L36.1141 14.7126V15.2226C37.0403 15.3771 38.1749 15.6244 39.078 16.0108V0.239543H38.6844C37.4417 0.200907 34.8329 0.131362 30.8348 0H30.6573L30.1787 0.479086V2.34134L30.6804 2.71997H30.8039C31.7919 2.75861 32.6023 2.80497 33.2352 2.85906C35.5584 3.05997 35.8286 3.29179 35.9829 5.43995C36.0292 6.22039 36.0601 7.37947 36.0755 8.894H36.0833Z" fill="#645E5A"/>
<path d="M49.4363 2.7277C48.4483 2.76634 47.6379 2.80497 47.005 2.85906C44.6818 3.05997 44.4116 3.29179 44.2573 5.43995C44.211 6.22039 44.1801 7.37947 44.1646 8.894L44.1338 14.7203V63.1157C43.6166 64.0585 42.7753 65.1094 41.1699 66.3921V0.239543H41.5636C42.8062 0.200907 45.415 0.131362 49.4131 0H49.5907L50.0692 0.479086V2.34134L49.5675 2.71997H49.444L49.4363 2.7277Z" fill="#645E5A"/>
<path d="M21.3727 8.894C21.3881 7.37947 21.419 6.22812 21.4653 5.43995C21.6274 3.29179 21.8898 3.05997 24.213 2.85906C24.8459 2.80497 25.6563 2.76634 26.6443 2.7277H26.7755L27.2772 2.34907V0.479086L26.7987 0H26.6211C22.623 0.131362 20.0142 0.208634 18.7716 0.231816H18.3779V64.6535C19.4894 65.6889 20.5159 66.3612 21.3418 66.7784V47.8777C23.7808 47.8236 25.0389 47.785 25.9188 47.7541C26.9376 47.7232 27.4547 47.7077 28.7205 47.7077C29.9864 47.7077 30.5035 47.7232 31.5223 47.7541C32.4022 47.785 33.6603 47.8236 36.0993 47.8777V77.2797L36.0684 83.106C36.053 84.6205 36.0221 85.7719 35.9758 86.5601C35.8137 88.7082 35.5513 88.94 33.2281 89.1409C32.5952 89.195 31.7847 89.2337 30.7968 89.2723H30.6733L30.1716 89.6509V91.5132L30.6501 91.9923H30.8277C34.8258 91.8609 37.4346 91.7836 38.6772 91.7605H39.0709V27.1534C38.6541 26.682 37.5967 25.8707 36.107 24.9202V44.1223C33.668 44.1764 32.4099 44.215 31.53 44.2459C30.5112 44.2768 29.9941 44.2923 28.7283 44.2923C27.4624 44.2923 26.9453 44.2768 25.9265 44.2459C25.0466 44.215 23.7885 44.1764 21.3495 44.1223V14.7203L21.3727 8.894Z" fill="#645E5A"/>
<path d="M77.2767 20.199C76.3891 19.7276 75.0384 19.4804 73.2632 19.4804H72.8927V14.6509C74.3515 14.6509 75.4629 14.6663 76.2039 14.6895C76.8677 14.7204 77.2613 14.9059 77.3539 15.2304C77.4157 15.3849 77.4388 15.5704 77.4388 15.7868C77.4388 16.2118 77.7321 16.2349 77.7939 16.2349C77.9019 16.2349 78.1489 16.1809 78.1489 15.7095C78.1489 15.4313 78.1721 15.045 78.2261 14.5581C78.2493 14.3341 78.2956 14.0559 78.3728 13.7236C78.3882 13.5922 78.3728 13.4995 78.311 13.4377C78.257 13.3759 78.1798 13.345 78.0949 13.345C78.0177 13.345 77.9328 13.3759 77.7939 13.4377C77.7707 13.4454 77.6395 13.4995 76.9603 13.5304C76.6979 13.5459 75.023 13.5459 71.843 13.5459C71.7041 13.5459 71.4108 13.5382 70.9477 13.515C70.4769 13.4995 70.1141 13.4841 69.8517 13.4841C69.4272 13.4841 69.3809 13.7081 69.3809 13.8009C69.3809 13.8781 69.4117 14.1254 69.7745 14.1563C69.9829 14.1718 70.1373 14.1795 70.2299 14.195C70.4769 14.2259 70.6544 14.3031 70.7624 14.4191C70.8705 14.535 70.9323 14.7436 70.94 15.0218C70.9631 15.4545 70.9786 16.8145 70.9786 19.0786V22.3858C70.9786 24.5494 70.9477 25.9017 70.8859 26.4117C70.8165 26.9217 70.6775 27.2307 70.5155 27.2617C70.3611 27.3003 70.2144 27.3235 70.0524 27.3312C69.6896 27.3621 69.6356 27.5476 69.6356 27.648C69.6356 27.7485 69.6819 28.0035 70.145 28.0035C70.3071 28.0035 70.5386 28.0035 70.8242 27.988C71.1098 27.9726 71.3645 27.9648 71.5883 27.9571C71.8044 27.9571 71.9202 27.9494 71.9356 27.9494C72.09 27.9494 72.5145 27.9648 73.1783 28.0035C73.8652 28.0421 74.3283 28.0576 74.5985 28.0576C76.119 28.0576 77.3153 27.6094 78.1566 26.7285C78.9979 25.8476 79.4302 24.8585 79.4302 23.7844C79.4302 22.1772 78.7046 20.9717 77.269 20.1835L77.2767 20.199ZM69.8517 13.7004C70.1141 13.7004 70.4769 13.7081 70.94 13.7313C71.4031 13.7545 71.7041 13.7622 71.843 13.7622C74.9844 13.7622 76.6979 13.7622 76.968 13.7468C77.4774 13.7236 77.7784 13.685 77.8788 13.6386C77.9791 13.5922 78.0486 13.5613 78.0872 13.5613C78.1489 13.5613 78.1721 13.6077 78.1644 13.6927C78.0872 14.0327 78.0409 14.3186 78.0177 14.5504C77.9714 15.045 77.9405 15.439 77.9405 15.7249C77.9405 15.439 77.9637 15.045 78.0177 14.5504C78.0409 14.3109 78.0949 14.025 78.1644 13.6927C78.1798 13.6077 78.1489 13.5613 78.0872 13.5613C78.0486 13.5613 77.9791 13.5845 77.8788 13.6386C77.7784 13.6927 77.4774 13.7236 76.968 13.7468C76.6979 13.7622 74.9844 13.7622 71.843 13.7622C71.7041 13.7622 71.4031 13.7545 70.94 13.7313C70.4769 13.7081 70.1064 13.7004 69.8517 13.7004C69.7668 13.7004 69.6973 13.7081 69.6587 13.7313C69.705 13.7159 69.7668 13.7004 69.8517 13.7004ZM72.8927 20.4926C72.9467 20.4926 73.0008 20.4926 73.0548 20.4926C74.4595 20.4926 75.4861 20.7399 76.0958 21.2344C76.9217 21.899 77.3385 22.9035 77.3385 24.2094C77.3385 25.1599 77.1147 25.8708 76.667 26.3344C76.2193 26.798 75.6327 27.0298 74.8763 27.0298C74.1199 27.0298 73.5333 26.9448 73.1551 26.7671C72.9622 26.6898 72.9313 26.3498 72.9236 26.1489C72.9004 25.5617 72.885 24.0703 72.885 21.5822V20.5004L72.8927 20.4926ZM73.132 20.2917C73.4484 20.2917 73.7417 20.3072 74.0196 20.3381C73.7417 20.3149 73.4484 20.2994 73.132 20.2917ZM74.1431 20.3458C74.4132 20.3767 74.6757 20.4154 74.9072 20.4772C74.6757 20.4231 74.421 20.3767 74.1431 20.3458ZM74.9998 20.5004C75.2314 20.5622 75.4552 20.6317 75.6482 20.7244C75.4552 20.6394 75.2391 20.5622 74.9998 20.5004ZM72.6843 21.5744V20.3767C72.6843 20.3767 72.6843 20.3226 72.6998 20.3072C72.6843 20.3226 72.6843 20.3458 72.6843 20.3767V21.5744ZM70.0755 27.5476C69.9983 27.5476 69.9443 27.563 69.9057 27.5862C69.9443 27.5707 69.9983 27.5553 70.0755 27.5476ZM79.2295 23.7999C79.2295 22.2699 78.5426 21.134 77.1764 20.3844C76.3197 19.9208 75.0153 19.6967 73.2632 19.6967H72.7615C72.7152 19.6967 72.6843 19.6658 72.6843 19.604C72.6843 19.6658 72.7075 19.6967 72.7615 19.6967H73.2632C75.0153 19.6967 76.3197 19.9285 77.1764 20.3844C78.5426 21.134 79.2295 22.2699 79.2295 23.7999Z" fill="#645E5A"/>
<path d="M99.2199 16.3431C98.2165 15.7017 97.0511 15.3772 95.7621 15.3772C93.9637 15.3772 92.4972 15.8795 91.3935 16.8685C90.3129 17.8344 89.626 19.0785 89.3481 20.5699H86.7239V20.3149C86.7239 18.7694 86.7393 17.6876 86.7625 17.0154C86.8088 16.3508 87.0944 16.3122 87.1947 16.2967C87.3722 16.2736 87.4726 16.2658 87.5034 16.2581C87.8739 16.2581 87.8971 16.0031 87.8971 15.9567C87.8971 15.8717 87.8662 15.6013 87.4262 15.6013C87.2719 15.6013 87.0635 15.6013 86.7933 15.6167C86.5232 15.6322 86.2917 15.6399 86.0833 15.6476C85.8749 15.6476 85.7668 15.6554 85.7514 15.6554C85.7359 15.6554 85.6356 15.6554 85.4503 15.6476C85.2574 15.6476 85.0336 15.6322 84.7711 15.6167C84.5087 15.6013 84.2849 15.6013 84.1074 15.6013C83.6674 15.6013 83.6211 15.8408 83.6211 15.9413C83.6211 16.0881 83.7214 16.2581 83.9993 16.2581C84.1228 16.2581 84.254 16.2736 84.4007 16.3122C84.4933 16.3354 84.7557 16.3895 84.802 16.9999C84.8252 17.3322 84.8406 18.4758 84.8406 20.3999V23.1971C84.8406 25.0826 84.8097 26.2185 84.748 26.5816C84.7171 26.8366 84.6399 27.2462 84.4315 27.2848C84.2849 27.3234 84.1768 27.3389 84.0765 27.3389C83.6828 27.3389 83.6597 27.6016 83.6597 27.6557C83.6597 27.7407 83.6906 28.0112 84.1305 28.0112C84.2849 28.0112 84.4933 28.0112 84.7557 27.9957C85.0181 27.9803 85.242 27.9725 85.4426 27.9648C85.6356 27.9648 85.7359 27.9571 85.7514 27.9571L86.091 27.9725C86.3148 27.988 86.6004 27.9957 86.94 28.0034C87.2796 28.0034 87.5883 28.0112 87.8739 28.0112C88.2984 28.0112 88.3216 27.7175 88.3216 27.6557C88.3216 27.5784 88.2907 27.3389 87.8894 27.3389C87.7041 27.3389 87.5112 27.3234 87.3105 27.2848C87.1098 27.2616 86.8551 27.1612 86.7933 26.5894C86.747 26.1489 86.7162 25.013 86.7162 23.1971V21.7599H89.2478C89.2478 22.5635 89.3944 23.3439 89.68 24.0935C89.981 24.8739 90.3978 25.5771 90.9381 26.1875C91.4784 26.8057 92.173 27.3003 93.0066 27.6712C93.8402 28.0343 94.7587 28.2198 95.7389 28.2198C97.6994 28.2198 99.2894 27.5939 100.447 26.3498C101.605 25.1135 102.191 23.5062 102.191 21.5667C102.191 20.5776 101.944 19.6117 101.458 18.6922C100.972 17.7726 100.216 16.9767 99.2122 16.3354L99.2199 16.3431ZM95.5537 16.4281C96.889 16.4281 97.9541 16.9304 98.8031 17.9735C99.6521 19.009 100.077 20.3767 100.077 22.0226C100.077 22.8339 99.984 23.5603 99.7988 24.1939C99.6136 24.8198 99.382 25.3221 99.1119 25.6853C98.8417 26.0485 98.5175 26.3498 98.1471 26.5739C97.7689 26.8057 97.4061 26.9603 97.0588 27.0453C96.7114 27.1303 96.3487 27.1689 95.9782 27.1689C94.5889 27.1689 93.4852 26.6512 92.6053 25.5848C91.7254 24.5185 91.2854 23.0812 91.2854 21.3117C91.2854 19.8281 91.6714 18.6226 92.4278 17.7417C93.1764 16.8685 94.2261 16.4204 95.5537 16.4204V16.4281ZM92.2734 17.6104C91.4784 18.5376 91.077 19.774 91.077 21.3117C91.077 23.143 91.5324 24.6112 92.4509 25.7162C93.3694 26.8212 94.5426 27.3775 95.9859 27.3775C96.3718 27.3775 96.75 27.3312 97.1128 27.2462C97.298 27.1998 97.4833 27.138 97.6762 27.0607C97.4833 27.1457 97.298 27.2075 97.1128 27.2462C96.75 27.3312 96.3718 27.3775 95.9859 27.3775C94.5426 27.3775 93.3694 26.8212 92.4509 25.7162C91.5324 24.6112 91.077 23.143 91.077 21.3117C91.077 19.7662 91.4707 18.5376 92.2734 17.6104C92.5744 17.2626 92.914 16.9767 93.2922 16.7604C92.9063 16.9767 92.5667 17.2626 92.2734 17.6104ZM86.5541 16.9999C86.5309 17.6722 86.5155 18.7694 86.5155 20.3071V20.6781C86.5155 20.7399 86.5464 20.7708 86.6081 20.7708H89.4253C89.4253 20.7708 89.4871 20.7631 89.5102 20.7476C89.4948 20.7631 89.4639 20.7708 89.4253 20.7708H86.6081C86.5464 20.7708 86.5155 20.7399 86.5155 20.6781V20.3071C86.5155 18.7772 86.5309 17.6722 86.5541 16.9999ZM84.7711 15.8176C85.0336 15.8331 85.2574 15.8408 85.4503 15.8486C85.6433 15.8486 85.7436 15.8563 85.7591 15.8563C85.7745 15.8563 85.8826 15.8563 86.0987 15.8486C86.3071 15.8486 86.5464 15.8331 86.8165 15.8176C86.5464 15.8331 86.3071 15.8408 86.0987 15.8486C85.8903 15.8486 85.7745 15.8563 85.7591 15.8563C85.7436 15.8563 85.6433 15.8563 85.4503 15.8486C85.2574 15.8486 85.0336 15.8331 84.7711 15.8176ZM84.0765 27.5398C84.1845 27.5398 84.3158 27.5244 84.4701 27.4857C84.5319 27.4703 84.5936 27.4471 84.6476 27.4007C84.5936 27.4471 84.5396 27.4703 84.4701 27.4857C84.3235 27.5244 84.1923 27.5398 84.0765 27.5398C84.007 27.5398 83.953 27.5475 83.9221 27.5707C83.953 27.5553 84.007 27.5398 84.0765 27.5398ZM87.2796 27.4857C87.488 27.5244 87.6964 27.5398 87.8971 27.5398C88.0437 27.5398 88.1209 27.5784 88.1209 27.648C88.1209 27.5707 88.0437 27.5398 87.8971 27.5398C87.6964 27.5398 87.4957 27.5244 87.2796 27.4857C86.8782 27.4394 86.6544 27.1457 86.5927 26.6125C86.5464 26.1644 86.5155 25.0285 86.5155 23.1971V21.6517C86.5155 21.6517 86.5232 21.5976 86.5386 21.5821C86.5232 21.5976 86.5155 21.6208 86.5155 21.6517V23.1971C86.5155 25.0285 86.5386 26.1644 86.5927 26.6125C86.6544 27.1457 86.886 27.4394 87.2796 27.4857ZM100.3 26.2107C99.876 26.6589 99.4052 27.0298 98.8726 27.308C99.4052 27.0298 99.8837 26.6589 100.3 26.2107C101.427 25.013 101.991 23.4676 101.991 21.5744C101.991 20.6162 101.752 19.689 101.281 18.7926C100.81 17.8963 100.084 17.139 99.1119 16.5131C98.1393 15.8949 97.0202 15.5781 95.7621 15.5781C94.6661 15.5781 93.709 15.7636 92.8754 16.1422C93.7013 15.7713 94.6661 15.5781 95.7621 15.5781C97.0202 15.5781 98.1316 15.8872 99.1119 16.5131C100.084 17.139 100.81 17.8963 101.281 18.7926C101.752 19.689 101.991 20.6162 101.991 21.5744C101.991 23.4676 101.427 25.013 100.3 26.2107Z" fill="#645E5A"/>
<path d="M110.095 15.6013C109.81 15.6013 109.408 15.609 108.891 15.6322C108.382 15.6477 108.081 15.6631 107.988 15.6631C107.973 15.6631 107.857 15.6631 107.649 15.6554C107.432 15.6554 107.17 15.64 106.869 15.6245C106.56 15.609 106.29 15.609 106.051 15.609C105.619 15.609 105.58 15.8795 105.58 15.9645C105.58 16.1422 105.711 16.2659 105.897 16.2659C106.097 16.2659 106.282 16.2813 106.445 16.3045C106.645 16.3431 106.939 16.4668 106.977 17.0077C106.993 17.2395 107.016 18.0122 107.016 20.4076V23.2049C107.016 25.013 106.985 26.1567 106.923 26.5894C106.877 27.0144 106.761 27.2694 106.614 27.2848C106.414 27.3312 106.267 27.3544 106.159 27.3544C105.927 27.3544 105.819 27.5089 105.819 27.6557C105.819 27.7407 105.85 28.0112 106.29 28.0112C106.391 28.0112 106.522 28.0112 106.668 28.0035C106.815 28.0035 106.954 27.9957 107.085 27.9957C107.216 27.9957 107.363 27.9957 107.494 27.988C107.633 27.988 107.749 27.9726 107.842 27.9571H107.926C107.926 27.9571 108.058 27.9648 108.258 27.9803C108.474 27.9957 108.76 28.0035 109.092 28.0112C109.432 28.0112 109.74 28.0189 110.026 28.0189C110.458 28.0189 110.497 27.7485 110.497 27.6635C110.497 27.4857 110.365 27.3621 110.18 27.3621C109.995 27.3621 109.756 27.3389 109.47 27.2926C109.347 27.2771 109.061 27.2539 108.992 26.5971C108.945 26.1567 108.914 25.0053 108.914 23.1662V16.7063C108.914 16.6445 108.914 16.6059 108.922 16.5904C109.007 16.5595 109.154 16.5286 109.447 16.5286C110.373 16.5286 111.106 16.799 111.608 17.3399C112.102 17.8577 112.357 18.5686 112.357 19.4572C112.357 20.199 112.125 20.7785 111.639 21.2267C111.153 21.6826 110.574 21.899 109.864 21.899C109.578 21.899 109.486 21.9144 109.439 21.9222C109.316 21.9531 109.192 22.0535 109.192 22.2544C109.192 22.4012 109.285 22.5635 109.547 22.5712C109.601 22.579 109.702 22.5867 109.926 22.5867C111.137 22.5867 112.164 22.2235 112.959 21.5204C113.769 20.8017 114.178 19.8899 114.178 18.8004C114.178 17.8345 113.877 17.0772 113.291 16.5518C112.557 15.9181 111.485 15.6013 110.095 15.6013ZM106.159 27.563C106.282 27.563 106.445 27.5398 106.645 27.4857C106.707 27.478 106.769 27.4548 106.823 27.4085C106.769 27.4471 106.715 27.478 106.645 27.4857C106.445 27.5321 106.282 27.563 106.159 27.563C106.113 27.563 106.082 27.563 106.059 27.5862C106.082 27.5707 106.113 27.563 106.159 27.563ZM109.439 27.4857C109.74 27.5321 109.987 27.563 110.188 27.563C110.265 27.563 110.304 27.5939 110.304 27.6557C110.304 27.7021 110.281 27.7407 110.242 27.7639C110.288 27.7407 110.304 27.7021 110.304 27.6557C110.304 27.5939 110.265 27.563 110.188 27.563C109.987 27.563 109.74 27.5398 109.439 27.4857C109.069 27.4471 108.845 27.1535 108.783 26.6126C108.737 26.1644 108.706 25.013 108.706 23.1585V16.6986C108.706 16.5209 108.745 16.4281 108.822 16.3972C108.745 16.4204 108.706 16.5209 108.706 16.6986V23.1585C108.706 25.013 108.729 26.1644 108.783 26.6126C108.845 27.1612 109.061 27.4548 109.439 27.4857ZM109.871 22.0922C110.443 22.0922 110.944 21.9531 111.377 21.6826C110.944 21.9531 110.435 22.0922 109.871 22.0922C109.671 22.0922 109.547 22.0922 109.486 22.1076C109.54 22.0922 109.671 22.0922 109.871 22.0922ZM112.828 21.3581C112.635 21.5281 112.434 21.6749 112.218 21.8063C112.434 21.6826 112.635 21.5281 112.828 21.3581C113.592 20.6781 113.978 19.8281 113.978 18.7926C113.978 17.8808 113.708 17.1854 113.16 16.7063C112.465 16.1113 111.446 15.81 110.103 15.81C109.817 15.81 109.416 15.8177 108.907 15.8409C108.397 15.8563 108.096 15.8718 107.996 15.8718C107.98 15.8718 107.865 15.8718 107.649 15.864C107.432 15.864 107.17 15.8486 106.869 15.8331C106.56 15.8177 106.298 15.8177 106.059 15.8177C105.974 15.8177 105.904 15.8331 105.866 15.8563C105.912 15.8331 105.974 15.8177 106.059 15.8177C106.298 15.8177 106.568 15.8177 106.869 15.8331C107.17 15.8486 107.432 15.8563 107.649 15.864C107.865 15.864 107.98 15.8718 107.996 15.8718C108.096 15.8718 108.397 15.864 108.907 15.8409C109.416 15.8254 109.817 15.81 110.103 15.81C111.446 15.81 112.465 16.1113 113.16 16.7063C113.708 17.1931 113.978 17.8886 113.978 18.7926C113.978 19.8281 113.592 20.6781 112.828 21.3581Z" fill="#645E5A"/>
<path d="M129.091 17.0308C127.833 15.9336 126.219 15.3772 124.282 15.3772C123.379 15.3772 122.538 15.5163 121.766 15.8022C121.002 16.0804 120.353 16.4513 119.844 16.8917C119.342 17.3322 118.91 17.8422 118.555 18.414C118.208 18.9781 117.945 19.5576 117.783 20.1217C117.621 20.6858 117.544 21.2421 117.544 21.783C117.544 22.548 117.675 23.3053 117.93 24.0317C118.185 24.758 118.57 25.4535 119.08 26.0794C119.597 26.7207 120.299 27.2384 121.179 27.6325C122.051 28.0189 123.063 28.2198 124.182 28.2198C126.181 28.2198 127.833 27.5707 129.091 26.2803C130.349 24.9976 130.989 23.398 130.989 21.5358C130.989 19.6735 130.349 18.1358 129.083 17.0308H129.091ZM124.174 16.3663C125.448 16.3663 126.551 16.8685 127.462 17.8654C128.373 18.8622 128.836 20.2531 128.836 21.9994C128.836 22.8649 128.72 23.6453 128.504 24.3021C128.28 24.9589 128.018 25.4612 127.717 25.8089C127.416 26.1566 127.053 26.4425 126.644 26.6589C126.235 26.8753 125.88 27.0144 125.579 27.0762C125.27 27.138 124.961 27.1689 124.668 27.1689C123.171 27.1689 121.967 26.6357 121.071 25.5694C120.168 24.503 119.713 23.058 119.713 21.2885C119.713 19.6735 120.13 18.4372 120.955 17.6104C121.781 16.7835 122.87 16.3663 124.182 16.3663H124.174ZM120.801 17.4635C119.929 18.3367 119.497 19.6117 119.497 21.2885C119.497 23.1198 119.968 24.588 120.901 25.7007C121.843 26.8134 123.093 27.3698 124.66 27.3698C124.969 27.3698 125.285 27.3389 125.61 27.2771C125.934 27.2153 126.312 27.0684 126.737 26.8366C126.304 27.0684 125.934 27.2153 125.61 27.2771C125.285 27.3389 124.969 27.3698 124.66 27.3698C123.093 27.3698 121.843 26.8134 120.901 25.7007C119.96 24.588 119.497 23.1198 119.497 21.2885C119.497 19.6117 119.929 18.3367 120.801 17.4635C121.233 17.0308 121.735 16.6985 122.298 16.4822C121.735 16.6985 121.241 17.0231 120.801 17.4635ZM128.959 26.1335C128.504 26.6048 127.987 26.9834 127.431 27.2771C127.995 26.9834 128.504 26.6048 128.959 26.1335C130.187 24.8816 130.796 23.3517 130.796 21.5358C130.796 19.7199 130.187 18.2594 128.959 17.1854C127.732 16.119 126.181 15.5781 124.29 15.5781C123.41 15.5781 122.592 15.7172 121.851 15.9876C121.666 16.0572 121.488 16.1267 121.318 16.204C121.488 16.1267 121.666 16.0495 121.851 15.9876C122.599 15.7172 123.41 15.5781 124.29 15.5781C126.181 15.5781 127.732 16.1113 128.959 17.1854C130.187 18.2517 130.796 19.7044 130.796 21.5358C130.796 23.3671 130.187 24.8816 128.959 26.1335Z" fill="#645E5A"/>
<path d="M84.1304 52.437C83.9297 52.437 83.6596 52.4138 83.3199 52.3674C83.127 52.3365 83.0035 52.2747 82.9417 52.1665C82.8646 52.0197 82.8028 51.8111 82.7719 51.5252C82.7102 51.0152 82.6793 49.6629 82.6793 47.4993V44.2152C82.6793 41.9357 82.6948 40.5835 82.7179 40.1971C82.7411 39.8957 82.7874 39.6717 82.8646 39.5403C82.9263 39.4321 83.0498 39.3626 83.235 39.3239C83.4897 39.2776 83.6055 39.2698 83.6596 39.2698C83.9065 39.2698 84.0146 39.1076 84.0146 38.953C84.0146 38.8448 83.9683 38.5976 83.5052 38.5976C83.3431 38.5976 83.1116 38.5976 82.8183 38.6053C82.525 38.6053 82.2625 38.6208 82.031 38.6362C81.8149 38.6517 81.6991 38.6517 81.6759 38.6517C81.6605 38.6517 81.537 38.6517 81.3132 38.6362C81.0739 38.6208 80.7883 38.613 80.4487 38.6053C80.1091 38.6053 79.8158 38.5976 79.5688 38.5976C79.1134 38.5976 79.0594 38.8448 79.0594 38.953C79.0594 39.1153 79.1675 39.2698 79.4145 39.2698C79.6614 39.2698 79.8621 39.2853 80.001 39.3162C80.2558 39.3703 80.4101 39.4476 80.4873 39.5557C80.5413 39.6407 80.6185 39.8185 80.6494 40.1894C80.6725 40.5757 80.688 41.928 80.688 44.2075V44.5012H72.9773V44.2075C72.9773 41.928 72.9928 40.5757 73.0159 40.1894C73.0468 39.8185 73.1163 39.6253 73.1626 39.5326C73.2243 39.4244 73.3478 39.3548 73.5331 39.3162C73.7878 39.2698 73.9035 39.2621 73.9576 39.2621C74.2046 39.2621 74.3126 39.0998 74.3126 38.9453C74.3126 38.8371 74.2663 38.5898 73.8032 38.5898C73.6411 38.5898 73.4096 38.5898 73.1163 38.5976C72.823 38.5976 72.5605 38.613 72.329 38.6285C72.1129 38.6439 71.9971 38.6439 71.9739 38.6439C71.9585 38.6439 71.835 38.6439 71.6112 38.6285C71.3719 38.613 71.0863 38.6053 70.7467 38.5976C70.4071 38.5976 70.1138 38.5898 69.8668 38.5898C69.4114 38.5898 69.3574 38.8371 69.3574 38.9453C69.3574 39.1076 69.4655 39.2621 69.7125 39.2621C69.9595 39.2621 70.1601 39.2776 70.2991 39.3085C70.5461 39.3626 70.7081 39.4398 70.7853 39.548C70.8393 39.633 70.9165 39.8107 70.9474 40.1816C70.9706 40.568 70.986 41.9203 70.986 44.1998V47.4838C70.986 49.6475 70.9551 50.9997 70.8934 51.5097C70.8239 52.0197 70.685 52.3288 70.5229 52.3597C70.3068 52.4061 70.137 52.4293 69.998 52.4293C69.7511 52.4293 69.643 52.5915 69.643 52.7461C69.643 52.8543 69.6893 53.1015 70.1524 53.1015C70.3145 53.1015 70.546 53.1015 70.8393 53.0861C71.1326 53.0706 71.3874 53.0629 71.6189 53.0552C71.8427 53.0552 71.9585 53.0474 71.9739 53.0474C71.9894 53.0474 72.0974 53.0474 72.2904 53.0629H72.3444C72.5914 53.0783 72.8924 53.0861 73.2629 53.0938C73.6334 53.0938 73.9653 53.1015 74.2663 53.1015C74.7217 53.1015 74.7757 52.8543 74.7757 52.7461C74.7757 52.5838 74.6677 52.4293 74.4207 52.4293C74.22 52.4293 73.9499 52.4061 73.6102 52.3597C73.4173 52.3288 73.2938 52.267 73.232 52.1588C73.1549 52.012 73.0931 51.7956 73.0622 51.5174C73.0005 51.0074 72.9696 49.6475 72.9696 47.4916V45.6293H80.6803V47.4916C80.6803 49.6475 80.6494 50.9997 80.5876 51.5174C80.5182 52.0197 80.3792 52.3365 80.2172 52.3597C80.001 52.4061 79.8312 52.4293 79.6923 52.4293C79.4453 52.4293 79.3373 52.5915 79.3373 52.7461C79.3373 52.8543 79.3836 53.1015 79.8467 53.1015C80.0088 53.1015 80.2403 53.1015 80.5336 53.0861C80.8269 53.0706 81.0816 53.0629 81.3132 53.0552C81.537 53.0552 81.6528 53.0474 81.6682 53.0474C81.6837 53.0474 81.7994 53.0474 82.0001 53.0629H82.0387C82.2857 53.0783 82.5867 53.0861 82.9572 53.0938C83.3277 53.0938 83.6596 53.1015 83.9606 53.1015C84.416 53.1015 84.47 52.8543 84.47 52.7461C84.47 52.5838 84.3619 52.4293 84.1149 52.4293L84.1304 52.437ZM79.5843 38.7985C79.8312 38.7985 80.1245 38.7985 80.4641 38.8062C80.8038 38.8062 81.0893 38.8217 81.3209 38.8371C81.5602 38.8526 81.6836 38.8526 81.6914 38.8526C81.7068 38.8526 81.8226 38.8526 82.0541 38.8371C82.2857 38.8217 82.5481 38.8139 82.8337 38.8062C83.127 38.8062 83.3508 38.7985 83.5129 38.7985C83.7136 38.7985 83.8139 38.8448 83.8139 38.9453C83.8139 38.9839 83.7985 39.0071 83.7753 39.0303C83.7985 39.0148 83.8139 38.9839 83.8139 38.9453C83.8139 38.8448 83.7136 38.7985 83.5129 38.7985C83.3508 38.7985 83.127 38.7985 82.8337 38.8062C82.5404 38.8062 82.278 38.8217 82.0541 38.8371C81.8226 38.8526 81.7068 38.8526 81.6914 38.8526C81.6759 38.8526 81.5524 38.8526 81.3209 38.8371C81.0816 38.8217 80.796 38.8139 80.4641 38.8062C80.1323 38.8062 79.839 38.7985 79.5843 38.7985C79.4839 38.7985 79.4145 38.8139 79.3604 38.8371C79.4067 38.8139 79.4839 38.7985 79.5843 38.7985ZM72.9928 39.4321C72.9002 39.5944 72.8384 39.8417 72.8152 40.1816C72.7921 40.5757 72.7767 41.9203 72.7767 44.2152V44.6093C72.7767 44.6866 72.8153 44.7175 72.8924 44.7175H80.796C80.796 44.7175 80.8578 44.7098 80.8809 44.6866C80.8655 44.7021 80.8346 44.7175 80.796 44.7175H72.8924C72.8153 44.7175 72.7767 44.6789 72.7767 44.6093V44.2152C72.7767 41.928 72.7921 40.5835 72.8152 40.1816C72.8384 39.8417 72.9002 39.5944 72.9928 39.4321C73.0391 39.3548 73.1085 39.2853 73.1935 39.2312C73.1085 39.2853 73.0391 39.3471 72.9928 39.4321ZM69.89 38.7985C70.137 38.7985 70.4303 38.7985 70.7699 38.8062C71.1018 38.8062 71.3874 38.8217 71.6266 38.8371C71.8659 38.8526 71.9894 38.8526 71.9971 38.8526C72.0125 38.8526 72.1283 38.8526 72.3599 38.8371C72.5914 38.8217 72.8538 38.8139 73.1394 38.8062C73.425 38.7985 73.6566 38.7985 73.8186 38.7985C74.0193 38.7985 74.1197 38.8448 74.1197 38.9453C74.1197 38.9839 74.1042 39.0071 74.0811 39.0303C74.1042 39.0148 74.1197 38.9839 74.1197 38.9453C74.1197 38.8448 74.0193 38.7985 73.8186 38.7985C73.6566 38.7985 73.4327 38.7985 73.1394 38.8062C72.8461 38.8139 72.5837 38.8217 72.3599 38.8371C72.1283 38.8526 72.0048 38.8526 71.9971 38.8526C71.9817 38.8526 71.8582 38.8526 71.6266 38.8371C71.3874 38.8217 71.1018 38.8139 70.7699 38.8062C70.4303 38.8062 70.1447 38.7985 69.89 38.7985ZM70.0212 52.6456C70.1679 52.6456 70.3608 52.6224 70.5769 52.5683C70.3531 52.6147 70.1679 52.6456 70.0212 52.6456C69.9749 52.6456 69.9363 52.6533 69.9131 52.6765C69.9363 52.6611 69.9749 52.6456 70.0212 52.6456ZM73.07 52.2593C73.1626 52.4293 73.3401 52.5297 73.6025 52.5683C73.9498 52.6147 74.2277 52.6456 74.4438 52.6456C74.5442 52.6456 74.5905 52.6842 74.5905 52.7538C74.5905 52.8002 74.5673 52.8388 74.5133 52.862C74.5596 52.8388 74.5905 52.8002 74.5905 52.7538C74.5905 52.6765 74.5442 52.6456 74.4438 52.6456C74.2354 52.6456 73.9498 52.6224 73.6025 52.5683C73.3401 52.5297 73.1626 52.4293 73.07 52.2593C72.9773 52.0893 72.9156 51.8497 72.877 51.5406C72.8152 51.0152 72.7844 49.6706 72.7844 47.4916V45.5289C72.7844 45.5289 72.7921 45.4671 72.8152 45.4439C72.7998 45.4593 72.7844 45.4902 72.7844 45.5289V47.4916C72.7844 49.6706 72.8152 51.0152 72.877 51.5406C72.9156 51.8497 72.9773 52.0893 73.07 52.2593ZM79.7155 52.6456C79.8621 52.6456 80.0474 52.6224 80.2712 52.5683C80.0474 52.6147 79.8621 52.6456 79.7155 52.6456C79.6692 52.6456 79.6306 52.6533 79.5997 52.6765C79.6228 52.6611 79.6614 52.6456 79.7155 52.6456ZM84.2076 52.8697C84.2539 52.8465 84.2847 52.8079 84.2847 52.7615C84.2847 52.6842 84.2384 52.6533 84.1381 52.6533C83.9297 52.6533 83.6441 52.6302 83.2968 52.5761C83.0344 52.5374 82.8568 52.437 82.7642 52.267C82.6716 52.097 82.6021 51.8574 82.5713 51.5484C82.5095 51.0229 82.4786 49.6784 82.4786 47.4993V44.2152C82.4786 41.928 82.4941 40.5835 82.5172 40.1816C82.5404 39.8417 82.6021 39.5944 82.6948 39.4321C82.7411 39.3548 82.8105 39.2853 82.8954 39.2312C82.8105 39.2853 82.7411 39.3471 82.6948 39.4321C82.6021 39.5944 82.5404 39.8417 82.5172 40.1816C82.4941 40.5757 82.4786 41.9203 82.4786 44.2152V47.4993C82.4786 49.6784 82.5095 51.0229 82.5713 51.5484C82.6099 51.8574 82.6716 52.097 82.7642 52.267C82.8568 52.437 83.0344 52.5374 83.2968 52.5761C83.6441 52.6224 83.922 52.6533 84.1381 52.6533C84.2384 52.6533 84.2847 52.692 84.2847 52.7615C84.2847 52.8079 84.2616 52.8465 84.2076 52.8697Z" fill="#645E5A"/>
<path d="M101.705 52.4447C101.234 52.4138 101.08 52.3829 101.034 52.3751C100.756 52.3365 100.678 52.2129 100.632 52.1124C100.578 51.9733 100.509 51.6488 100.501 50.8992C100.478 48.8129 100.455 45.892 100.424 42.1289C100.424 41.7039 100.416 41.3793 100.393 41.163C100.362 40.8462 100.331 40.738 100.3 40.6762C100.231 40.5448 100.107 40.4675 99.9529 40.4675C99.7909 40.4675 99.5439 40.5525 98.6949 41.5493C98.363 41.9357 95.9317 44.7948 91.2929 50.2965L91.3238 42.8243C91.3238 42.0748 91.3856 41.7734 91.4396 41.6575C91.5013 41.5262 91.594 41.4489 91.7483 41.4257C91.8101 41.4102 91.8718 41.4025 91.9567 41.4025C92.0339 41.4025 92.1034 41.3948 92.1497 41.3948C92.551 41.3639 92.5819 41.1089 92.5819 41.0393C92.5819 40.8925 92.497 40.7225 92.0725 40.7225C91.9181 40.7225 91.648 40.7303 91.2621 40.7534C90.8839 40.7689 90.5829 40.7843 90.3745 40.7843C90.3127 40.7843 90.0348 40.7766 89.5332 40.7534C89.0237 40.738 88.6764 40.7225 88.4912 40.7225C88.0281 40.7225 87.9277 40.908 87.9277 41.0625C87.9277 41.2093 88.0204 41.3716 88.2828 41.4025C88.3214 41.4102 88.414 41.4257 88.5606 41.4334C88.6919 41.4334 88.7845 41.4412 88.8539 41.4412C89.1241 41.4643 89.209 41.5802 89.2476 41.673C89.2939 41.7734 89.3711 42.1057 89.3865 43.1411C89.4019 44.0452 89.4019 45.0575 89.4019 46.1625C89.4019 47.2675 89.4019 48.4574 89.3942 49.717C89.3942 50.9765 89.3865 51.8806 89.3865 52.4138C89.3865 52.8465 89.4174 52.9856 89.4405 53.0706C89.5023 53.2483 89.6335 53.3488 89.811 53.3488C90.0117 53.3488 90.251 53.202 90.5906 52.8774C91.0228 52.4292 93.6316 49.3538 98.5636 43.4734C98.5559 44.1998 98.5482 45.2352 98.5405 46.5797C98.5405 48.3725 98.5173 49.6938 98.4942 50.6133C98.4787 51.2702 98.4401 51.7492 98.3784 52.0351C98.3089 52.3288 98.1777 52.3906 98.0851 52.406C98.0311 52.4215 97.8844 52.4447 97.6529 52.4756C97.2747 52.4988 97.2129 52.6997 97.2129 52.8156C97.2129 52.9083 97.2592 53.1324 97.6837 53.1324C97.8999 53.1324 98.1777 53.1247 98.5251 53.1015C98.8647 53.086 99.0885 53.0706 99.212 53.0706C99.2737 53.0706 99.6365 53.0783 100.3 53.1015C100.964 53.117 101.412 53.1324 101.636 53.1324C102.06 53.1324 102.106 52.9083 102.106 52.8156C102.106 52.7074 102.052 52.522 101.713 52.4601L101.705 52.4447ZM91.2544 41.5648C91.3007 41.4643 91.3547 41.3871 91.4396 41.3252C91.3624 41.3871 91.3007 41.4643 91.2544 41.5648ZM89.5332 40.9389C90.0348 40.9543 90.3204 40.9698 90.3822 40.9698C90.5906 40.9698 90.8916 40.9621 91.2775 40.9389C91.6634 40.9157 91.9336 40.908 92.0802 40.908C92.2809 40.908 92.3812 40.9466 92.3812 41.0162C92.3812 41.0625 92.3658 41.0934 92.3272 41.1166C92.3658 41.0934 92.3812 41.0548 92.3812 41.0162C92.3812 40.9389 92.2809 40.908 92.0802 40.908C91.9336 40.908 91.6634 40.9157 91.2775 40.9389C90.8916 40.9621 90.5906 40.9698 90.3822 40.9698C90.3204 40.9698 90.0348 40.9621 89.5332 40.9389C89.0315 40.9157 88.6841 40.908 88.4989 40.908C88.3831 40.908 88.2905 40.9157 88.2365 40.9389C88.2982 40.9157 88.3831 40.908 88.4989 40.908C88.6841 40.908 89.0315 40.9157 89.5332 40.9389ZM90.4594 52.7074C90.8916 52.2592 93.6702 48.9829 98.7952 42.8707C93.6779 48.9752 90.8993 52.2592 90.4671 52.7074H90.4594ZM97.6915 52.6688C97.9385 52.6301 98.0851 52.607 98.1391 52.5915C98.0928 52.607 97.9385 52.6301 97.6915 52.6688C97.6066 52.6688 97.5371 52.692 97.4985 52.7074C97.5448 52.6842 97.6066 52.6688 97.6915 52.6688ZM101.836 52.8851C101.883 52.8697 101.898 52.8388 101.898 52.8001C101.898 52.7229 101.821 52.6765 101.674 52.6533C101.311 52.6301 101.08 52.607 100.987 52.576C100.717 52.5374 100.532 52.406 100.447 52.182C100.362 51.9579 100.308 51.5251 100.3 50.8915C100.277 48.8052 100.254 45.8766 100.223 42.1211C100.223 41.6962 100.215 41.3793 100.192 41.1707C100.169 40.9621 100.146 40.823 100.115 40.7612C100.084 40.6993 100.03 40.6684 99.9529 40.6684C99.9144 40.6684 99.8603 40.6916 99.7909 40.7303C99.8603 40.6916 99.9066 40.6684 99.9529 40.6684C100.03 40.6684 100.084 40.6993 100.115 40.7612C100.146 40.823 100.169 40.9621 100.192 41.1707C100.215 41.3793 100.223 41.6962 100.223 42.1211C100.246 45.8766 100.269 48.8052 100.3 50.8915C100.316 51.5251 100.362 51.9579 100.447 52.182C100.532 52.406 100.717 52.5374 100.987 52.576C101.088 52.5992 101.319 52.6224 101.674 52.6533C101.821 52.6765 101.898 52.7306 101.898 52.8001C101.898 52.8388 101.875 52.862 101.836 52.8851Z" fill="#645E5A"/>
<path d="M117.821 52.4369C117.605 52.4137 117.466 52.3983 117.404 52.3828C116.71 52.2283 115.845 51.6796 114.819 50.7369C113.591 49.6165 112.024 48.0788 110.164 46.1547C110.442 45.892 110.952 45.4129 111.685 44.7097C112.572 43.8674 113.29 43.2029 113.807 42.7315C114.309 42.2756 114.664 41.9743 114.842 41.8429C115.019 41.7116 115.204 41.6111 115.39 41.5416C115.621 41.4488 115.907 41.387 116.246 41.3638C116.617 41.3252 116.648 41.0779 116.648 41.0084C116.648 40.8616 116.563 40.6916 116.138 40.6916C116.084 40.6916 115.822 40.6993 115.336 40.7225C114.865 40.7379 114.518 40.7534 114.309 40.7534C114.139 40.7534 113.954 40.7534 113.769 40.7457C113.584 40.7457 113.421 40.7302 113.298 40.7147C113.159 40.6993 113.074 40.6916 113.043 40.6916C112.75 40.6916 112.65 40.8616 112.65 41.0084C112.65 41.1243 112.711 41.2788 113.005 41.3561C113.036 41.3638 113.151 41.4025 113.151 41.4566C113.151 41.4797 113.144 41.5493 113.043 41.6729C112.974 41.7656 112.781 41.9975 112.233 42.6002C111.33 43.5815 110.195 44.6943 108.868 45.892V45.4824C108.868 43.4115 108.868 42.2679 108.883 42.0979C108.891 41.897 108.914 41.7502 108.929 41.6652C108.945 41.6111 108.983 41.557 109.037 41.5029C109.099 41.4488 109.2 41.4102 109.331 41.3947C109.331 41.3947 109.331 41.3947 109.346 41.3947C109.369 41.3947 109.423 41.3947 109.485 41.387C109.562 41.387 109.624 41.3716 109.678 41.3561C110.025 41.3175 110.049 41.0857 110.049 41.0238C110.049 40.9234 110.002 40.6838 109.562 40.6838C109.408 40.6838 109.2 40.6838 108.929 40.6993C108.667 40.7147 108.428 40.7225 108.219 40.7302C108.011 40.7302 107.903 40.7379 107.887 40.7379L107.602 40.7225C107.378 40.7225 107.139 40.7225 106.869 40.707C106.591 40.6916 106.367 40.6916 106.189 40.6916C105.749 40.6916 105.703 40.9311 105.703 41.0316C105.703 41.132 105.749 41.3097 106.081 41.3638H106.097H106.112C106.135 41.3638 106.182 41.3638 106.259 41.3793C106.351 41.3947 106.429 41.4025 106.506 41.4179C106.583 41.4334 106.83 41.4797 106.876 42.0825C106.899 42.4147 106.915 43.5584 106.915 45.4824V48.2797C106.915 50.0801 106.884 51.2083 106.822 51.6487C106.768 52.151 106.645 52.3519 106.552 52.3674C106.413 52.3983 106.282 52.4214 106.151 52.4214C105.734 52.4214 105.703 52.6842 105.703 52.7614C105.703 52.8851 105.773 53.1014 106.213 53.1014C106.367 53.1014 106.575 53.1014 106.853 53.086C107.123 53.0705 107.363 53.0628 107.571 53.0551C107.772 53.0551 107.872 53.0474 107.895 53.0474C107.911 53.0474 108.019 53.0473 108.212 53.0628C108.459 53.0783 108.744 53.086 109.084 53.0937C109.423 53.0937 109.732 53.1014 110.018 53.1014C110.45 53.1014 110.489 52.8387 110.489 52.7614C110.489 52.6919 110.458 52.4601 110.095 52.4214C109.832 52.4214 109.609 52.3983 109.416 52.3519C109.176 52.3055 109.099 52.2283 109.076 52.1896C109.037 52.1278 108.983 51.981 108.937 51.6642C108.891 51.3165 108.86 50.1728 108.86 48.2719V47.3601C109.555 48.156 110.404 49.0678 111.399 50.0801C112.588 51.2855 113.398 52.0583 113.823 52.3596C114.24 52.6455 114.618 52.8387 114.95 52.9392C115.282 53.0396 115.799 53.086 116.517 53.086H117.728C118.145 53.086 118.238 52.9083 118.238 52.7692C118.238 52.6378 118.161 52.4678 117.798 52.4137L117.821 52.4369ZM113.059 40.9079C113.059 40.9079 113.159 40.9079 113.29 40.9234C113.421 40.9388 113.584 40.9466 113.777 40.9543C113.969 40.9543 114.155 40.962 114.325 40.962C114.533 40.962 114.88 40.9543 115.359 40.9311C115.837 40.9079 116.1 40.9002 116.154 40.9002C116.354 40.9002 116.455 40.9388 116.455 41.0084C116.455 41.0547 116.439 41.0857 116.401 41.1088C116.432 41.0857 116.455 41.047 116.455 41.0084C116.455 40.9311 116.354 40.9002 116.154 40.9002C116.107 40.9002 115.837 40.9079 115.359 40.9311C114.88 40.9543 114.533 40.962 114.325 40.962C114.147 40.962 113.969 40.962 113.777 40.9543C113.584 40.9543 113.421 40.9388 113.29 40.9234C113.159 40.9079 113.082 40.9079 113.059 40.9079C112.997 40.9079 112.951 40.9157 112.92 40.9388C112.951 40.9234 112.997 40.9079 113.059 40.9079ZM108.929 41.3638C108.837 41.4411 108.775 41.5338 108.752 41.6343C108.729 41.7347 108.706 41.8893 108.698 42.0979C108.682 42.2756 108.675 43.4038 108.675 45.4979C108.675 43.4115 108.675 42.2756 108.698 42.0979C108.713 41.8893 108.729 41.7347 108.752 41.6343C108.775 41.5338 108.837 41.4488 108.929 41.3638ZM106.22 40.9079C106.398 40.9079 106.614 40.9079 106.892 40.9234C107.162 40.9388 107.409 40.9388 107.617 40.9388L107.918 40.9543C107.918 40.9543 108.042 40.9543 108.258 40.9466C108.466 40.9466 108.706 40.9311 108.976 40.9157C109.246 40.9002 109.454 40.9002 109.601 40.9002C109.786 40.9002 109.879 40.9466 109.879 41.0316C109.879 41.0702 109.863 41.1011 109.825 41.1166C109.856 41.0934 109.879 41.0625 109.879 41.0316C109.879 40.9466 109.786 40.9002 109.601 40.9002C109.454 40.9002 109.246 40.9002 108.976 40.9157C108.706 40.9311 108.466 40.9388 108.258 40.9466C108.05 40.9466 107.934 40.9543 107.918 40.9543L107.617 40.9388C107.409 40.9388 107.162 40.9388 106.892 40.9234C106.622 40.9079 106.398 40.9079 106.22 40.9079ZM106.182 52.6455C106.104 52.6455 106.043 52.6533 105.996 52.6764C106.035 52.6533 106.097 52.6455 106.182 52.6455ZM108.922 52.321C108.999 52.4369 109.153 52.5219 109.385 52.576C109.593 52.6224 109.832 52.6533 110.095 52.6533C110.234 52.6687 110.303 52.7074 110.303 52.7846C110.303 52.831 110.28 52.8619 110.242 52.8851C110.288 52.8619 110.303 52.831 110.303 52.7846C110.303 52.7074 110.234 52.6687 110.095 52.6533C109.832 52.6533 109.601 52.6301 109.385 52.576C109.146 52.5296 108.991 52.4446 108.922 52.321C108.852 52.1974 108.79 52.0042 108.752 51.7183C108.706 51.3551 108.675 50.2192 108.675 48.3029C108.675 50.2192 108.698 51.3551 108.752 51.7183C108.79 52.0042 108.844 52.2051 108.922 52.321ZM117.983 52.8774C118.029 52.8619 118.06 52.831 118.06 52.7924C118.06 52.7151 117.975 52.6687 117.798 52.6455C117.574 52.6224 117.435 52.5992 117.366 52.5914C116.632 52.4292 115.737 51.8651 114.68 50.8915C113.414 49.7324 111.808 48.156 109.871 46.1547C110.079 45.9538 110.643 45.4283 111.546 44.5706C112.449 43.7129 113.159 43.0561 113.668 42.5925C114.178 42.1288 114.525 41.8275 114.718 41.6884C114.525 41.8275 114.178 42.1365 113.668 42.5925C113.159 43.0561 112.449 43.7129 111.546 44.5706C110.643 45.4283 110.079 45.9615 109.871 46.1547C111.808 48.156 113.414 49.7401 114.68 50.8915C115.737 51.8651 116.632 52.4292 117.366 52.5914C117.427 52.6069 117.574 52.6224 117.798 52.6455C117.975 52.6687 118.06 52.7228 118.06 52.7924C118.06 52.831 118.037 52.8542 117.983 52.8774Z" fill="#645E5A"/>
<path d="M130.873 42.1365C129.615 41.0393 128.002 40.4829 126.064 40.4829C125.161 40.4829 124.32 40.622 123.548 40.9079C122.784 41.1861 122.136 41.557 121.626 41.9974C121.125 42.4379 120.692 42.9479 120.337 43.5197C119.99 44.0838 119.728 44.6633 119.565 45.2274C119.403 45.7915 119.326 46.3479 119.326 46.8888C119.326 47.6537 119.457 48.411 119.712 49.1374C119.967 49.8637 120.353 50.5592 120.862 51.1851C121.379 51.8264 122.082 52.3442 122.962 52.7382C123.834 53.1246 124.845 53.3255 125.964 53.3255C127.963 53.3255 129.615 52.6764 130.873 51.386C132.131 50.1033 132.772 48.5037 132.772 46.6415C132.772 44.7792 132.131 43.2415 130.865 42.1365H130.873ZM125.956 41.472C127.23 41.472 128.333 41.9743 129.244 42.9711C130.155 43.9679 130.618 45.3588 130.618 47.1051C130.618 47.9706 130.502 48.751 130.286 49.4078C130.062 50.0646 129.8 50.5669 129.499 50.9146C129.198 51.2624 128.835 51.5483 128.426 51.7646C128.017 51.981 127.662 52.1201 127.361 52.1819C127.052 52.2437 126.744 52.2746 126.45 52.2746C124.953 52.2746 123.749 51.7414 122.853 50.6751C121.95 49.6087 121.495 48.1637 121.495 46.3942C121.495 44.7792 121.912 43.5429 122.738 42.7161C123.564 41.8893 124.652 41.472 125.964 41.472H125.956ZM122.583 42.5693C121.711 43.4424 121.279 44.7174 121.279 46.3942C121.279 48.2256 121.75 49.6937 122.684 50.8064C123.625 51.9192 124.876 52.4755 126.443 52.4755C126.751 52.4755 127.068 52.4446 127.392 52.3828C127.716 52.321 128.094 52.1742 128.519 51.9423C128.087 52.1742 127.716 52.321 127.392 52.3828C127.068 52.4446 126.751 52.4755 126.443 52.4755C124.876 52.4755 123.625 51.9192 122.684 50.8064C121.742 49.6937 121.279 48.2256 121.279 46.3942C121.279 44.7174 121.711 43.4424 122.583 42.5693C123.016 42.1365 123.517 41.8043 124.081 41.5879C123.517 41.8043 123.023 42.1288 122.583 42.5693ZM130.742 51.2392C130.286 51.7105 129.769 52.0892 129.213 52.3828C129.777 52.0892 130.286 51.7105 130.742 51.2392C131.969 49.9874 132.579 48.4574 132.579 46.6415C132.579 44.8256 131.969 43.3652 130.742 42.2911C129.514 41.2247 127.963 40.6838 126.072 40.6838C125.192 40.6838 124.374 40.8229 123.633 41.0934C123.448 41.1629 123.27 41.2324 123.1 41.3097C123.27 41.2324 123.448 41.1552 123.633 41.0934C124.382 40.8229 125.192 40.6838 126.072 40.6838C127.963 40.6838 129.514 41.217 130.742 42.2911C131.969 43.3574 132.579 44.8101 132.579 46.6415C132.579 48.4728 131.969 49.9874 130.742 51.2392Z" fill="#645E5A"/>
<path d="M147.135 52.4369C146.903 52.4369 146.71 52.4137 146.579 52.3596C146.108 52.1896 145.676 51.6255 145.283 50.6674C144.897 49.7478 144.171 47.9397 143.121 45.297L142.643 44.0915C141.902 42.2215 141.524 41.2634 141.501 41.2093C141.284 40.6684 141.13 40.4829 140.937 40.4829C140.844 40.4829 140.706 40.5215 140.597 40.6915C140.559 40.7534 140.489 40.8693 140.35 41.2556L136.623 51.0846C136.298 51.9346 135.874 52.3828 135.364 52.4292C135.303 52.4369 135.218 52.4446 135.048 52.4446C134.616 52.4446 134.577 52.7073 134.577 52.7846C134.577 52.9391 134.67 53.1246 135.117 53.1246C135.426 53.1246 135.797 53.1169 136.229 53.0937C136.638 53.0782 136.854 53.0628 136.877 53.0628C136.924 53.0628 137.14 53.0705 137.526 53.0937C137.919 53.1091 138.197 53.1246 138.344 53.1246C138.784 53.1246 138.83 52.8851 138.83 52.7846C138.83 52.7305 138.807 52.4446 138.398 52.4446H138.267C137.857 52.4446 137.857 52.2746 137.857 52.1664C137.857 51.9037 137.958 51.4787 138.158 50.9069L140.605 43.9061L143.793 52.2746C143.839 52.3828 143.831 52.4292 143.831 52.4292C143.608 52.491 143.577 52.6687 143.577 52.746C143.577 53.0087 143.901 53.0551 144.333 53.086C145.167 53.1091 146.062 53.1246 147.011 53.1246C147.475 53.1246 147.575 52.9391 147.575 52.7846C147.575 52.7305 147.552 52.4446 147.143 52.4446L147.135 52.4369ZM135.04 52.6455C135.187 52.6455 135.303 52.6455 135.372 52.6301C135.295 52.6455 135.187 52.6455 135.04 52.6455C134.955 52.6455 134.886 52.6532 134.847 52.6764C134.894 52.6532 134.955 52.6455 135.04 52.6455ZM137.973 50.8296C137.765 51.4246 137.657 51.8651 137.657 52.1587C137.657 51.8728 137.765 51.4323 137.973 50.8296ZM147.274 52.8696C147.336 52.8464 147.359 52.8155 147.359 52.7692C147.359 52.6842 147.282 52.6378 147.135 52.6378C146.873 52.6378 146.664 52.6069 146.502 52.5451C145.977 52.3596 145.506 51.7569 145.082 50.7369C144.696 49.8174 143.978 48.0247 142.921 45.3665C141.863 42.7006 141.323 41.3406 141.3 41.2788C141.138 40.877 141.014 40.6838 140.929 40.6838C140.898 40.6838 140.868 40.6915 140.844 40.7147C140.875 40.6993 140.898 40.6838 140.929 40.6838C141.014 40.6838 141.138 40.8847 141.3 41.2788C141.323 41.3406 141.863 42.7006 142.921 45.3665C143.978 48.0247 144.696 49.8174 145.082 50.7369C145.506 51.7569 145.977 52.3596 146.502 52.5451C146.664 52.6069 146.873 52.6378 147.135 52.6378C147.282 52.6378 147.359 52.6842 147.359 52.7692C147.359 52.8155 147.328 52.8464 147.274 52.8696Z" fill="#645E5A"/>
<path d="M173.022 52.4369C172.814 52.4369 172.613 52.4137 172.42 52.3673C172.243 52.3287 171.996 52.2128 171.926 51.6873C171.88 51.2546 171.857 50.1187 171.857 48.2951V45.4979C171.857 43.5815 171.872 42.4456 171.895 42.1133C171.926 41.4565 172.204 41.4256 172.312 41.4102C172.528 41.3793 172.606 41.3715 172.636 41.3715C172.93 41.3715 173.03 41.1861 173.03 41.0315C173.03 40.9311 172.984 40.6915 172.544 40.6915C172.343 40.6915 172.027 40.6993 171.594 40.7225C171.17 40.7379 170.938 40.7534 170.884 40.7534C170.776 40.7534 170.529 40.7456 170.159 40.7225C169.781 40.707 169.441 40.6915 169.148 40.6915C167.905 40.6915 166.917 40.9311 166.199 41.3947C165.126 42.067 164.578 43.0252 164.578 44.2538C164.578 44.9492 164.787 45.6138 165.204 46.2088C165.559 46.7265 166.084 47.1438 166.747 47.4606C166.724 47.4837 166.701 47.5069 166.678 47.5301C166.562 47.6383 166.439 47.7697 166.292 47.9397C166.153 48.1019 166.045 48.2256 165.975 48.3106L165.829 48.496L165.628 48.751C165.458 48.9674 165.366 49.091 165.343 49.1296C164.671 49.9874 164.077 50.7292 163.583 51.3164C163.243 51.7183 162.934 52.0042 162.672 52.1587C162.425 52.3055 162.124 52.3982 161.784 52.4214C161.63 52.4369 161.453 52.4369 161.26 52.4369C161.136 52.4369 161.051 52.4523 160.982 52.4832C160.92 52.4523 160.843 52.4369 160.742 52.4369C160.511 52.4369 160.318 52.4137 160.187 52.3596C159.716 52.1896 159.284 51.6255 158.89 50.6674C158.504 49.7478 157.779 47.9397 156.729 45.297L156.25 44.0915C155.509 42.2215 155.131 41.2634 155.108 41.2093C154.892 40.6684 154.738 40.4829 154.545 40.4829C154.452 40.4829 154.313 40.5215 154.205 40.6915C154.166 40.7534 154.097 40.8693 153.958 41.2556L150.23 51.0846C150.053 51.5328 149.867 51.8651 149.682 52.0892C149.512 52.2823 149.281 52.3982 148.972 52.4292C148.918 52.4369 148.818 52.4446 148.625 52.4446C148.216 52.4446 148.192 52.7228 148.192 52.7846C148.192 52.9082 148.262 53.1246 148.702 53.1246C149.011 53.1246 149.389 53.1169 149.829 53.0937C150.245 53.0782 150.469 53.0628 150.492 53.0628C150.539 53.0628 150.755 53.0705 151.141 53.0937C151.534 53.1091 151.812 53.1246 151.959 53.1246C152.399 53.1246 152.445 52.8851 152.445 52.7846C152.445 52.7305 152.422 52.4446 152.013 52.4446H151.882C151.473 52.4446 151.473 52.2746 151.473 52.1664C151.473 51.9037 151.573 51.4787 151.774 50.9069L152.592 48.5733H155.942L157.4 52.2746C157.447 52.3828 157.439 52.4214 157.439 52.4214C157.215 52.4832 157.184 52.661 157.184 52.7382C157.184 53.0473 157.617 53.0705 157.848 53.0782C158.674 53.1014 159.631 53.1169 160.688 53.1169C160.835 53.1169 160.928 53.086 161.005 53.0473C161.082 53.0782 161.175 53.1014 161.306 53.1014L162.139 53.1169C162.224 53.1169 162.302 53.1169 162.386 53.1169C163.035 53.1169 163.521 53.0705 163.861 52.9778C164.247 52.8696 164.617 52.6687 164.964 52.3751C165.466 51.9423 166.03 51.2392 166.662 50.2964C167.596 49.0215 168.129 48.3028 168.245 48.1715C168.407 47.986 168.492 47.9397 168.515 47.9242H168.538L168.553 47.9087C168.561 47.9087 168.607 47.9087 168.7 47.9087C168.993 47.9319 169.41 47.9474 169.943 47.9474V48.3569C169.943 50.2037 169.912 51.3242 169.85 51.6796C169.788 52.1123 169.673 52.3751 169.526 52.406C169.433 52.4292 169.318 52.4369 169.179 52.4369C168.77 52.4369 168.746 52.7151 168.746 52.7769C168.746 52.8773 168.793 53.1169 169.233 53.1169C169.387 53.1169 169.595 53.1169 169.858 53.1014C170.12 53.086 170.352 53.0782 170.552 53.0705C170.753 53.0705 170.854 53.0628 170.869 53.0628C170.884 53.0628 171 53.0628 171.201 53.0782C171.432 53.0937 171.718 53.1014 172.058 53.1092C172.397 53.1092 172.706 53.1169 172.991 53.1169C173.408 53.1169 173.439 52.8542 173.439 52.7769C173.439 52.7228 173.416 52.4369 173.007 52.4369H173.022ZM170.143 40.9311C170.522 40.9465 170.769 40.962 170.877 40.962C170.769 40.962 170.522 40.9543 170.143 40.9311C169.765 40.9156 169.433 40.9002 169.148 40.9002C169.433 40.9002 169.765 40.9079 170.143 40.9311ZM163.39 52.8464C163.313 52.8542 163.235 52.8696 163.151 52.8773C163.235 52.8773 163.313 52.8619 163.39 52.8464ZM162.988 52.8851C162.904 52.8851 162.819 52.8928 162.726 52.9005C162.819 52.9005 162.904 52.9005 162.988 52.8851ZM166.331 44.3311C166.331 43.3883 166.578 42.6774 167.064 42.2061C167.187 42.0902 167.318 41.982 167.473 41.897C167.326 41.982 167.187 42.0902 167.064 42.2061C166.57 42.6774 166.331 43.3883 166.331 44.3311C166.331 45.1888 166.632 45.8688 167.241 46.371C167.851 46.8733 168.592 47.1283 169.48 47.1283C168.6 47.1283 167.851 46.8733 167.241 46.371C166.632 45.8688 166.331 45.1888 166.331 44.3311ZM169.943 46.8656V46.881C169.889 46.8965 169.773 46.9197 169.48 46.9197C168.654 46.9197 167.944 46.6801 167.373 46.2088C166.809 45.7451 166.539 45.127 166.539 44.3233C166.539 43.4424 166.763 42.7779 167.21 42.3452C167.658 41.9124 168.306 41.6961 169.148 41.6961C169.495 41.6961 169.765 41.7193 169.943 41.7656V46.8656ZM161.8 52.6146C162.17 52.5914 162.502 52.491 162.78 52.3287C162.502 52.4987 162.178 52.5914 161.8 52.6146C161.638 52.6301 161.46 52.6301 161.26 52.6301C161.206 52.6301 161.182 52.6378 161.144 52.6455C161.144 52.6455 161.213 52.6301 161.26 52.6301C161.46 52.6301 161.638 52.6301 161.8 52.6146ZM155.741 47.6847H152.762C152.7 47.6847 152.684 47.646 152.723 47.5765L154.12 43.4502C154.159 43.3574 154.19 43.3111 154.228 43.3111C154.197 43.3111 154.159 43.3574 154.12 43.4502L152.723 47.5765C152.684 47.6537 152.7 47.6847 152.762 47.6847H155.741C155.741 47.6847 155.795 47.6769 155.803 47.6537C155.795 47.6692 155.772 47.6847 155.741 47.6847ZM155.54 47.476H152.97L154.22 43.7824L155.54 47.476ZM154.529 40.6684C154.614 40.6684 154.738 40.8693 154.9 41.2634C154.923 41.3252 155.463 42.6852 156.52 45.351C157.578 48.0092 158.296 49.8019 158.682 50.7214C159.106 51.7414 159.577 52.3442 160.102 52.5296C160.264 52.5914 160.472 52.6223 160.735 52.6223C160.758 52.6223 160.766 52.6223 160.781 52.6301C160.781 52.6301 160.75 52.6223 160.735 52.6223C160.472 52.6223 160.264 52.5914 160.102 52.5296C159.577 52.3442 159.106 51.7414 158.682 50.7214C158.296 49.8019 157.578 48.0092 156.52 45.351C155.463 42.6852 154.923 41.3252 154.9 41.2634C154.738 40.8615 154.614 40.6684 154.529 40.6684C154.498 40.6684 154.467 40.6761 154.444 40.6993C154.475 40.6838 154.498 40.6684 154.529 40.6684ZM148.601 52.6301C148.779 52.6301 148.902 52.6301 148.972 52.6146C149.149 52.5992 149.312 52.5528 149.45 52.4832C149.312 52.5528 149.149 52.5914 148.972 52.6146C148.895 52.6301 148.771 52.6301 148.601 52.6301ZM151.565 50.8219C151.357 51.4169 151.249 51.8573 151.249 52.151C151.249 51.8651 151.357 51.4246 151.565 50.8219L152.383 48.4883C152.399 48.4419 152.43 48.4033 152.461 48.3724C152.43 48.3956 152.407 48.4342 152.383 48.4883L151.565 50.8219ZM162.139 52.8928C162.278 52.8928 162.41 52.8928 162.533 52.8928C162.479 52.8928 162.433 52.8928 162.371 52.8928C162.294 52.8928 162.217 52.8928 162.139 52.8928ZM168.083 48.0247C167.959 48.1637 167.427 48.8746 166.477 50.1728C165.852 51.1078 165.304 51.7878 164.818 52.2051C165.304 51.7801 165.852 51.1078 166.477 50.1728C167.419 48.8824 167.959 48.1637 168.083 48.0247ZM173.246 52.7692C173.246 52.6842 173.169 52.6378 173.022 52.6378C172.799 52.6378 172.582 52.6146 172.366 52.5605C171.996 52.4755 171.78 52.1896 171.71 51.7028C171.664 51.2546 171.633 50.1187 171.633 48.2874V45.4901C171.633 43.5583 171.648 42.4302 171.672 42.0902C171.687 41.6806 171.811 41.4102 172.019 41.2788C171.803 41.4102 171.687 41.6806 171.672 42.0902C171.648 42.4302 171.633 43.5583 171.633 45.4901V48.2874C171.633 50.1187 171.656 51.2546 171.71 51.7028C171.772 52.1896 171.988 52.4755 172.366 52.5605C172.575 52.6069 172.799 52.6378 173.022 52.6378C173.169 52.6378 173.246 52.6842 173.246 52.7692Z" fill="#645E5A"/>
<path d="M76.9372 63.6104C75.6946 63.6104 74.5523 63.8577 73.5489 64.3368C72.5378 64.8236 71.7351 65.4572 71.1562 66.2145C70.5773 66.9718 70.1374 67.7754 69.8363 68.6099C69.5353 69.4522 69.3887 70.2867 69.3887 71.1058C69.3887 71.8167 69.4736 72.5276 69.6434 73.2076C69.8132 73.8953 70.0988 74.583 70.4924 75.2399C70.886 75.9044 71.3723 76.4917 71.928 76.9862C72.4915 77.4885 73.2093 77.8903 74.0428 78.1916C74.8841 78.493 75.8181 78.6398 76.8137 78.6398C79.0598 78.6398 80.9199 77.8748 82.3324 76.3603C83.7448 74.8535 84.4549 72.9835 84.4549 70.7967C84.4549 68.6099 83.7371 66.8404 82.3247 65.5422C80.9199 64.2518 79.0984 63.595 76.9141 63.595L76.9372 63.6104ZM76.806 64.6613C78.3034 64.6613 79.6001 65.2563 80.6575 66.4309C81.7226 67.6131 82.2629 69.259 82.2629 71.3376C82.2629 72.3422 82.1394 73.2462 81.8924 74.019C81.6454 74.7839 81.3444 75.3944 80.9894 75.8194C80.6343 76.2444 80.2175 76.5921 79.7467 76.8626C79.2759 77.133 78.8437 77.3107 78.4578 77.4035C78.0718 77.4962 77.6859 77.5348 77.3232 77.5348C75.6791 77.5348 74.2975 76.8935 73.2093 75.6417C72.121 74.3744 71.5653 72.6822 71.5653 70.6035C71.5653 68.6872 72.0515 67.2036 73.0163 66.1913C73.9811 65.179 75.2469 64.6691 76.7983 64.6691L76.806 64.6613ZM72.8697 66.0368C71.8663 67.0954 71.3569 68.6099 71.3569 70.5881C71.3569 68.6099 71.8586 67.0954 72.8697 66.0368ZM82.1934 76.2367C81.6763 76.793 81.0974 77.2412 80.4645 77.5812C81.0974 77.2335 81.6686 76.7853 82.1857 76.2367C83.5673 74.7608 84.2542 72.9526 84.2542 70.8122C84.2542 68.6717 83.5673 66.9718 82.1934 65.7045C80.8196 64.445 79.0675 63.8113 76.9295 63.8113C75.71 63.8113 74.614 64.0509 73.6338 64.5222C74.614 64.0509 75.7177 63.8113 76.9295 63.8113C79.0675 63.8113 80.8196 64.445 82.1934 65.7045C83.5673 66.964 84.2542 68.6717 84.2542 70.8122C84.2542 72.9526 83.5673 74.7608 82.1857 76.2367H82.1934Z" fill="#645E5A"/>
<path d="M94.4041 71.3375C95.3071 70.5339 95.7625 69.5912 95.7625 68.5403C95.7625 68.2776 95.7085 68.0148 95.6082 67.7444C95.5078 67.4817 95.3303 67.2035 95.0988 66.9253C94.8518 66.6394 94.4658 66.3999 93.9642 66.2299C93.4702 66.0599 92.8759 65.9749 92.1966 65.9749C91.9342 65.9749 91.5946 65.9826 91.1933 66.0058C90.7919 66.0212 90.5295 66.0367 90.4137 66.0367L90.3134 66.0212H89.9352C89.7962 66.0212 89.6419 66.0212 89.4875 66.0135H89.2251L88.9704 65.998C88.7851 65.998 88.623 65.9903 88.4687 65.9903C88.0287 65.9903 87.9824 66.2299 87.9824 66.3303C87.9824 66.4076 88.0133 66.6703 88.4301 66.6703C88.5227 66.6703 88.6616 66.6858 88.8546 66.7089C89.0476 66.7476 89.1865 66.8094 89.256 66.9021C89.31 66.9717 89.3717 67.1108 89.4026 67.4044C89.4258 67.7367 89.4412 68.8803 89.4412 70.8044V73.6016C89.4412 75.402 89.4103 76.5379 89.3486 76.9861C89.2868 77.4111 89.1711 77.6738 89.0321 77.7047C88.9395 77.7279 88.8469 77.7356 88.7388 77.7356C88.3066 77.7356 88.268 78.0061 88.268 78.0911C88.268 78.1838 88.3143 78.4079 88.7388 78.4079C88.9549 78.4079 89.2405 78.4002 89.6033 78.377C89.9583 78.3616 90.2285 78.3461 90.4137 78.3461C90.5835 78.3461 90.9308 78.3616 91.4403 78.4002C91.6255 78.4002 91.8339 78.4002 92.0886 78.4156C92.351 78.4311 92.5208 78.4311 92.6134 78.4311C94.0027 78.4311 95.0988 78.0679 95.8783 77.3493C96.6579 76.6307 97.0515 75.7575 97.0515 74.7529C97.0515 73.8643 96.735 73.0993 96.1176 72.4812C95.6082 71.9712 95.0293 71.5848 94.4118 71.3375H94.4041ZM91.309 72.0716C91.4711 72.0562 91.6255 72.0484 91.7799 72.0484C91.9728 72.0484 92.1889 72.0639 92.3973 72.0871C92.8373 72.1334 93.2386 72.2648 93.5782 72.4657C94.1031 72.8212 94.489 73.2848 94.7206 73.8411C94.9598 74.413 95.0756 74.977 95.0756 75.5334C95.0756 76.2288 94.8749 76.7002 94.4658 76.9861C94.0413 77.2797 93.5705 77.4343 93.0843 77.4343C92.5208 77.4343 92.0886 77.357 91.7953 77.2102C91.6332 77.1407 91.5329 77.0711 91.4711 76.9938C91.4094 76.9011 91.3708 76.8238 91.3631 76.7466C91.3476 76.6461 91.3322 76.422 91.309 76.0743C91.309 75.997 91.2936 75.4793 91.2936 72.713V72.0716H91.309ZM91.309 67.0026C91.309 67.0026 91.3476 66.9871 91.3785 66.9794C91.556 66.9176 91.7721 66.8944 92.0346 66.8944C92.6983 66.8944 93.1769 67.1262 93.4933 67.613C93.8252 68.1153 93.9873 68.7257 93.9873 69.4135C93.9873 69.9775 93.8484 70.4257 93.5551 70.7734C93.4162 70.9203 93.2618 71.0284 93.0997 71.0748C92.9222 71.1289 92.5903 71.1521 92.1272 71.1521C91.7876 71.1521 91.5097 71.1366 91.3013 71.1134V67.018L91.309 67.0026ZM91.201 71.2989C91.4248 71.3375 91.7336 71.353 92.1349 71.353C92.6212 71.353 92.9608 71.3221 93.1614 71.268C93.2618 71.2371 93.3544 71.1984 93.447 71.1366C93.3544 71.1984 93.2541 71.2448 93.1614 71.268C92.9608 71.3221 92.6212 71.353 92.1349 71.353C91.7413 71.353 91.4248 71.3375 91.201 71.2989C91.1392 71.2603 91.1084 71.1984 91.1084 71.1134V66.9485C91.1084 66.9485 91.1238 66.8789 91.1624 66.848C91.1238 66.8789 91.1084 66.9098 91.1084 66.9485V71.1134C91.1084 71.1984 91.1392 71.2603 91.201 71.2989ZM91.1315 71.9016C91.1315 71.9016 91.1084 71.948 91.1084 71.9866V72.713C91.1084 74.8689 91.1084 75.9893 91.1238 76.0898C91.147 76.4375 91.1701 76.6616 91.1778 76.7697C91.1933 76.8779 91.2396 76.9861 91.3168 77.1097C91.3939 77.2257 91.5329 77.3261 91.7181 77.3957C92.0423 77.5579 92.4977 77.6352 93.0997 77.6352C93.5011 77.6352 93.8793 77.5425 94.242 77.3647C93.8793 77.5502 93.5011 77.6352 93.0997 77.6352C92.5054 77.6352 92.0423 77.5579 91.7181 77.3957C91.5329 77.3184 91.3939 77.2257 91.3168 77.1097C91.2396 76.9938 91.1855 76.8779 91.1778 76.7697C91.1624 76.6616 91.147 76.4375 91.1238 76.0898C91.1084 75.9893 91.1084 74.8611 91.1084 72.713V71.9866C91.1084 71.9866 91.1161 71.9248 91.1315 71.9016ZM88.7388 77.9211C88.8623 77.9211 88.9781 77.9056 89.0707 77.8825C88.9704 77.9056 88.8623 77.9211 88.7388 77.9211C88.6539 77.9211 88.5845 77.9366 88.5459 77.9597C88.5922 77.9366 88.6539 77.9211 88.7388 77.9211ZM95.7394 77.1947C95.5541 77.3647 95.3535 77.5193 95.1296 77.6429C95.3535 77.5116 95.5541 77.3647 95.7394 77.1947C96.4803 76.5148 96.8508 75.6957 96.8508 74.7529C96.8508 73.9184 96.5575 73.2075 95.9786 72.628C95.3921 72.0407 94.736 71.6389 94.0027 71.4148C95.0447 70.5957 95.5696 69.6375 95.5696 68.5403C95.5696 68.3007 95.5233 68.0612 95.4306 67.8217C95.338 67.5821 95.1759 67.3271 94.9521 67.0644C94.7283 66.8017 94.3809 66.593 93.9101 66.4308C93.4393 66.2685 92.8759 66.1912 92.2121 66.1912C91.9497 66.1912 91.6178 66.1989 91.2164 66.2221C90.8151 66.2376 90.5449 66.253 90.4214 66.253L90.2902 66.2376H89.9429C89.7962 66.2376 89.6496 66.2376 89.4875 66.2299C89.3254 66.2299 89.1556 66.2144 88.9781 66.2144C88.8006 66.2144 88.6308 66.2067 88.4841 66.2067C88.6308 66.2067 88.8006 66.2067 88.9781 66.2144C89.1556 66.2144 89.3254 66.2299 89.4875 66.2299C89.6496 66.2299 89.804 66.2376 89.9429 66.2376H90.2902L90.4214 66.253C90.5449 66.253 90.8073 66.2453 91.2164 66.2221C91.6178 66.2067 91.9497 66.1912 92.2121 66.1912C92.8681 66.1912 93.4393 66.2685 93.9101 66.4308C94.3809 66.593 94.7283 66.8017 94.9521 67.0644C95.1759 67.3271 95.3303 67.5744 95.4306 67.8217C95.5233 68.0612 95.5696 68.3007 95.5696 68.5403C95.5696 69.6375 95.0447 70.5957 94.0027 71.4148C94.736 71.6389 95.3921 72.0407 95.9786 72.628C96.5652 73.2152 96.8508 73.9261 96.8508 74.7529C96.8508 75.6957 96.4803 76.5148 95.7394 77.1947Z" fill="#645E5A"/>
<path d="M110.003 77.7126C109.787 77.7126 109.578 77.6972 109.362 77.6585C109.239 77.6431 108.953 77.6199 108.884 76.9631C108.837 76.5226 108.814 75.379 108.814 73.5708V70.7736C108.814 69.1663 108.83 68.0536 108.853 67.3814C108.884 67.0491 108.93 66.8945 108.961 66.8173C108.992 66.7555 109.077 66.7091 109.223 66.6782C109.293 66.6705 109.439 66.6473 109.655 66.6241C109.879 66.6241 109.987 66.4618 109.987 66.3073C109.987 66.2068 109.941 65.9673 109.501 65.9673C109.339 65.9673 109.123 65.9673 108.86 65.9827C108.598 65.9982 108.366 66.0059 108.158 66.0136C107.957 66.0136 107.842 66.0214 107.826 66.0214L107.525 66.0059C107.301 66.0059 107.047 66.0059 106.746 65.9905C106.437 65.975 106.167 65.975 105.927 65.975C105.472 65.975 105.441 66.2455 105.441 66.3305C105.441 66.3845 105.457 66.6318 105.835 66.6318C105.966 66.6318 106.128 66.6473 106.313 66.6705C106.46 66.6782 106.568 66.7168 106.63 66.7709C106.699 66.8327 106.746 66.9023 106.777 66.9795C106.807 67.0723 106.831 67.2036 106.838 67.3736C106.861 67.7136 106.877 68.7568 106.877 70.4722V71.4922C106.429 71.6545 105.796 71.7395 104.994 71.7395C104.191 71.7395 103.527 71.5309 103.049 71.1213C102.578 70.7118 102.346 70.1091 102.346 69.2823C102.346 68.3936 102.346 67.76 102.362 67.4045C102.377 66.9641 102.47 66.8327 102.508 66.7941C102.57 66.7323 102.717 66.6627 103.025 66.6318C103.411 66.6086 103.496 66.4309 103.496 66.2918C103.496 66.1991 103.45 65.975 103.025 65.975C102.886 65.975 102.585 65.9827 102.122 66.0059C101.667 66.0214 101.405 66.0368 101.327 66.0368C101.281 66.0368 101.057 66.0291 100.679 66.0059C100.285 65.9905 99.9612 65.975 99.7065 65.975C99.5753 65.975 99.1816 65.975 99.1816 66.2764C99.1816 66.4464 99.3129 66.5623 99.5598 66.6241C99.7065 66.6396 99.8454 66.6473 99.9998 66.6473C100.123 66.6705 100.231 66.7168 100.27 66.7864C100.301 66.8405 100.363 66.9718 100.386 67.3195C100.393 67.4355 100.401 67.8295 100.401 69.0582C100.401 70.2868 100.633 71.1522 101.104 71.6777C101.775 72.4427 102.902 72.829 104.446 72.829C105.41 72.829 106.213 72.7131 106.846 72.4813V73.5554C106.846 75.2322 106.823 76.3835 106.769 76.9708C106.738 77.3417 106.692 77.504 106.653 77.5735C106.63 77.6199 106.584 77.6663 106.46 77.674C106.213 77.7049 106.105 77.7126 106.043 77.7126C105.65 77.7126 105.634 77.9753 105.634 78.0294C105.634 78.1144 105.665 78.3849 106.105 78.3849C106.259 78.3849 106.468 78.3849 106.738 78.3694C107 78.354 107.247 78.3462 107.463 78.3385C107.672 78.3385 107.788 78.3308 107.803 78.3308C107.818 78.3308 107.934 78.3308 108.143 78.3463C108.374 78.3617 108.652 78.3694 108.984 78.3772C109.316 78.3772 109.625 78.3849 109.91 78.3849C110.366 78.3849 110.396 78.1144 110.396 78.0294C110.396 77.9753 110.373 77.7126 109.987 77.7126H110.003ZM106.73 66.1991C107.031 66.2146 107.294 66.2146 107.502 66.2146L107.818 66.23C107.818 66.23 107.942 66.23 108.158 66.2223C108.366 66.2223 108.606 66.2068 108.868 66.1914C109.131 66.1759 109.339 66.1759 109.501 66.1759C109.686 66.1759 109.779 66.2223 109.779 66.3073C109.779 66.3459 109.764 66.3691 109.74 66.3923C109.764 66.3768 109.779 66.3459 109.779 66.3073C109.779 66.2223 109.686 66.1759 109.501 66.1759C109.339 66.1759 109.131 66.1759 108.868 66.1914C108.606 66.2068 108.374 66.2146 108.158 66.2223C107.95 66.2223 107.834 66.23 107.818 66.23L107.502 66.2146C107.294 66.2146 107.031 66.2146 106.73 66.1991ZM102.369 66.6395C102.238 66.7555 102.169 67.0105 102.153 67.3968C102.138 67.76 102.13 68.3859 102.13 69.2823C102.13 70.1786 102.385 70.8277 102.902 71.2759C103.419 71.724 104.114 71.9481 104.978 71.9481C105.843 71.9481 106.584 71.8399 107.062 71.6313C106.576 71.8399 105.881 71.9481 104.978 71.9481C104.075 71.9481 103.419 71.724 102.902 71.2759C102.385 70.8277 102.13 70.1632 102.13 69.2823C102.13 68.4014 102.13 67.76 102.153 67.3968C102.169 67.0105 102.238 66.7632 102.369 66.6395C102.431 66.5777 102.524 66.5314 102.632 66.5005C102.524 66.5391 102.439 66.5855 102.369 66.6395ZM100.671 66.2068C101.065 66.2223 101.281 66.2377 101.335 66.2377C101.412 66.2377 101.675 66.23 102.138 66.2068C102.601 66.1836 102.894 66.1759 103.033 66.1759C103.211 66.1759 103.296 66.2146 103.296 66.2841C103.296 66.3227 103.272 66.3536 103.226 66.3691C103.272 66.3459 103.296 66.315 103.296 66.2841C103.296 66.2068 103.211 66.1759 103.033 66.1759C102.894 66.1759 102.601 66.1836 102.138 66.2068C101.675 66.23 101.412 66.2377 101.335 66.2377C101.289 66.2377 101.065 66.23 100.671 66.2068C100.278 66.1914 99.9612 66.1759 99.7142 66.1759C99.9612 66.1759 100.285 66.1836 100.671 66.2068ZM106.066 77.9135C106.151 77.9135 106.298 77.8981 106.499 77.8749C106.584 77.8749 106.661 77.844 106.722 77.8131C106.661 77.8517 106.591 77.8672 106.499 77.8749C106.298 77.8981 106.159 77.9135 106.066 77.9135C105.997 77.9135 105.951 77.9213 105.912 77.9444C105.943 77.929 105.997 77.9135 106.066 77.9135ZM110.203 78.0294C110.203 77.9522 110.134 77.9213 109.995 77.9213C109.771 77.9213 109.547 77.9058 109.324 77.8672C108.953 77.8285 108.737 77.5349 108.668 76.994C108.621 76.5458 108.59 75.4099 108.59 73.5786V70.7813C108.59 69.1895 108.606 68.0536 108.629 67.3814C108.652 67.08 108.698 66.8714 108.76 66.74C108.791 66.6782 108.845 66.6241 108.907 66.5777C108.837 66.6164 108.791 66.6705 108.76 66.74C108.698 66.8714 108.652 67.0877 108.629 67.3814C108.606 68.0536 108.59 69.1818 108.59 70.7813V73.5786C108.59 75.4099 108.613 76.5458 108.668 76.994C108.729 77.5426 108.945 77.8363 109.324 77.8672C109.547 77.9058 109.771 77.9213 109.995 77.9213C110.134 77.9213 110.203 77.9599 110.203 78.0294Z" fill="#645E5A"/>
<path d="M124.861 77.7125C124.629 77.7125 124.436 77.6893 124.305 77.6352C123.834 77.4653 123.402 76.9012 123.008 75.943C122.622 75.0235 121.897 73.2153 120.847 70.5726L120.369 69.3671C119.628 67.4972 119.249 66.539 119.226 66.4849C119.01 65.944 118.856 65.7585 118.663 65.7585C118.57 65.7585 118.431 65.7972 118.323 65.9672C118.285 66.029 118.215 66.1449 118.076 66.5313L114.348 76.3603C114.171 76.8084 113.985 77.1407 113.8 77.3648C113.63 77.558 113.399 77.6739 113.09 77.7048C113.036 77.7125 112.936 77.7202 112.743 77.7202C112.334 77.7202 112.311 77.9984 112.311 78.0602C112.311 78.1839 112.38 78.4002 112.82 78.4002C113.129 78.4002 113.507 78.3925 113.947 78.3693C114.364 78.3539 114.587 78.3384 114.611 78.3384C114.657 78.3384 114.873 78.3461 115.259 78.3693C115.653 78.3848 115.93 78.4002 116.077 78.4002C116.517 78.4002 116.563 78.1607 116.563 78.0602C116.563 78.0062 116.54 77.7202 116.131 77.7202H116C115.591 77.7202 115.591 77.5502 115.591 77.4421C115.591 77.1793 115.691 76.7543 115.892 76.1825L116.71 73.8489H120.06L121.519 77.5502C121.565 77.6584 121.557 77.6971 121.557 77.6971C121.333 77.7589 121.302 77.9366 121.302 78.0139C121.302 78.323 121.735 78.3462 121.966 78.3539C122.792 78.3771 123.749 78.3925 124.807 78.3925C125.247 78.3925 125.293 78.153 125.293 78.0525C125.293 77.9984 125.27 77.7125 124.861 77.7125ZM119.867 72.9757H116.888C116.826 72.9757 116.81 72.9371 116.849 72.8676L118.246 68.7412C118.285 68.6485 118.315 68.6022 118.354 68.6022C118.323 68.6022 118.285 68.6485 118.246 68.7412L116.849 72.8676C116.81 72.9448 116.826 72.9757 116.888 72.9757H119.867C119.867 72.9757 119.921 72.968 119.929 72.9448C119.921 72.9603 119.898 72.9757 119.867 72.9757ZM119.666 72.7671H117.096L118.346 69.0735L119.666 72.7671ZM112.727 77.9212C112.905 77.9212 113.028 77.9212 113.098 77.9057C113.275 77.8902 113.437 77.8439 113.576 77.7743C113.437 77.8439 113.275 77.8825 113.098 77.9057C113.021 77.9212 112.897 77.9212 112.727 77.9212ZM115.691 76.113C115.483 76.708 115.375 77.1484 115.375 77.4421C115.375 77.1562 115.483 76.7157 115.691 76.113L116.509 73.7794C116.525 73.733 116.556 73.6944 116.587 73.6635C116.556 73.6867 116.532 73.7253 116.509 73.7794L115.691 76.113ZM125.084 78.0525C125.084 77.9675 125.007 77.9212 124.861 77.9212C124.598 77.9212 124.39 77.8902 124.228 77.8284C123.703 77.643 123.232 77.0403 122.808 76.0203C122.422 75.1007 121.704 73.308 120.646 70.6499C119.589 67.984 119.049 66.624 119.026 66.5622C118.863 66.1604 118.74 65.9672 118.655 65.9672C118.624 65.9672 118.593 65.9749 118.57 65.9981C118.601 65.9826 118.624 65.9672 118.655 65.9672C118.74 65.9672 118.863 66.1681 119.026 66.5622C119.049 66.624 119.589 67.984 120.646 70.6499C121.704 73.308 122.422 75.1007 122.808 76.0203C123.232 77.0403 123.703 77.643 124.228 77.8284C124.39 77.8902 124.598 77.9212 124.861 77.9212C125.007 77.9212 125.084 77.9675 125.084 78.0525Z" fill="#645E5A"/>
<path d="M131.661 65.9749C131.375 65.9749 130.974 65.9826 130.457 66.0058C129.947 66.0212 129.646 66.0367 129.554 66.0367C129.538 66.0367 129.422 66.0367 129.214 66.0289C128.998 66.0289 128.735 66.0135 128.434 65.998C128.126 65.9826 127.856 65.9826 127.616 65.9826C127.184 65.9826 127.146 66.253 127.146 66.338C127.146 66.5158 127.277 66.6394 127.462 66.6394C127.663 66.6394 127.848 66.6548 128.01 66.678C128.211 66.7167 128.504 66.8403 128.543 67.3812C128.558 67.613 128.581 68.3857 128.581 70.7812V73.5784C128.581 75.3866 128.55 76.5302 128.489 76.9629C128.442 77.3879 128.326 77.6429 128.18 77.6584C127.979 77.7047 127.832 77.7279 127.724 77.7279C127.493 77.7279 127.385 77.8825 127.385 78.0293C127.385 78.1143 127.416 78.3847 127.856 78.3847C127.956 78.3847 128.087 78.3847 128.234 78.377C128.38 78.377 128.519 78.3693 128.651 78.3693C128.782 78.3693 128.928 78.3693 129.06 78.3616C129.199 78.3616 129.314 78.3461 129.407 78.3306H129.492C129.492 78.3306 129.623 78.3384 129.824 78.3538C130.04 78.3693 130.325 78.377 130.657 78.3847C130.997 78.3847 131.306 78.3925 131.591 78.3925C132.024 78.3925 132.062 78.122 132.062 78.037C132.062 77.8593 131.931 77.7356 131.746 77.7356C131.56 77.7356 131.321 77.7125 131.036 77.6661C130.912 77.6507 130.626 77.6275 130.557 76.9707C130.511 76.5302 130.48 75.3789 130.48 73.5398V67.0798C130.48 67.018 130.48 66.9794 130.488 66.9639C130.572 66.933 130.719 66.9021 131.012 66.9021C131.939 66.9021 132.672 67.1726 133.174 67.7135C133.668 68.2312 133.922 68.9421 133.922 69.8307C133.922 70.5725 133.691 71.1521 133.204 71.6003C132.718 72.0562 132.139 72.2725 131.429 72.2725C131.144 72.2725 131.051 72.288 131.005 72.2957C130.881 72.3266 130.758 72.4271 130.758 72.628C130.758 72.7748 130.85 72.9371 131.113 72.9448C131.167 72.9525 131.267 72.9602 131.491 72.9602C132.703 72.9602 133.729 72.5971 134.524 71.8939C135.335 71.1753 135.744 70.2634 135.744 69.1739C135.744 68.208 135.443 67.4508 134.856 66.9253C134.123 66.2917 133.05 65.9749 131.661 65.9749ZM127.724 77.9366C127.848 77.9366 128.01 77.9134 128.211 77.8593C128.272 77.8516 128.334 77.8284 128.388 77.782C128.334 77.8207 128.28 77.8516 128.211 77.8593C128.01 77.9056 127.848 77.9366 127.724 77.9366C127.678 77.9366 127.647 77.9366 127.624 77.9597C127.647 77.9443 127.678 77.9366 127.724 77.9366ZM131.005 77.8593C131.306 77.9056 131.553 77.9366 131.753 77.9366C131.831 77.9366 131.869 77.9675 131.869 78.0293C131.869 78.0756 131.846 78.1143 131.807 78.1375C131.854 78.1143 131.869 78.0756 131.869 78.0293C131.869 77.9675 131.831 77.9366 131.753 77.9366C131.553 77.9366 131.306 77.9134 131.005 77.8593C130.634 77.8206 130.41 77.527 130.349 76.9861C130.302 76.5379 130.271 75.3866 130.271 73.5321V67.0721C130.271 66.8944 130.31 66.8017 130.387 66.7708C130.31 66.7939 130.271 66.8944 130.271 67.0721V73.5321C130.271 75.3866 130.295 76.5379 130.349 76.9861C130.41 77.5347 130.626 77.8284 131.005 77.8593ZM131.437 72.4657C132.008 72.4657 132.51 72.3266 132.942 72.0562C132.51 72.3266 132 72.4657 131.437 72.4657C131.236 72.4657 131.113 72.4657 131.051 72.4812C131.105 72.4657 131.236 72.4657 131.437 72.4657ZM134.393 71.7316C134.2 71.9016 133.999 72.0484 133.783 72.1798C133.999 72.0562 134.2 71.9016 134.393 71.7316C135.157 71.0516 135.543 70.2016 135.543 69.1662C135.543 68.2544 135.273 67.5589 134.725 67.0798C134.03 66.4848 133.011 66.1835 131.668 66.1835C131.383 66.1835 130.982 66.1912 130.472 66.2144C129.963 66.2299 129.662 66.2453 129.561 66.2453C129.546 66.2453 129.43 66.2453 129.214 66.2376C128.998 66.2376 128.735 66.2221 128.434 66.2067C128.126 66.1912 127.863 66.1912 127.624 66.1912C127.539 66.1912 127.47 66.2067 127.431 66.2299C127.477 66.2067 127.539 66.1912 127.624 66.1912C127.863 66.1912 128.133 66.1912 128.434 66.2067C128.735 66.2221 128.998 66.2299 129.214 66.2376C129.43 66.2376 129.546 66.2453 129.561 66.2453C129.662 66.2453 129.963 66.2376 130.472 66.2144C130.982 66.1989 131.383 66.1835 131.668 66.1835C133.011 66.1835 134.03 66.4848 134.725 67.0798C135.273 67.5667 135.543 68.2621 135.543 69.1662C135.543 70.2016 135.157 71.0516 134.393 71.7316Z" fill="#645E5A"/>
<path d="M150.655 67.4122C149.397 66.3149 147.784 65.7585 145.847 65.7585C144.943 65.7585 144.102 65.8976 143.33 66.1835C142.566 66.4617 141.918 66.8326 141.408 67.2731C140.907 67.7135 140.475 68.2235 140.12 68.7953C139.772 69.3594 139.51 69.939 139.348 70.503C139.186 71.0671 139.108 71.6235 139.108 72.1644C139.108 72.9294 139.24 73.6867 139.494 74.413C139.749 75.1394 140.135 75.8348 140.644 76.4607C141.161 77.1021 141.864 77.6198 142.744 78.0139C143.616 78.4002 144.627 78.6011 145.746 78.6011C147.745 78.6011 149.397 77.9521 150.655 76.6616C151.913 75.3789 152.554 73.7794 152.554 71.9171C152.554 70.0549 151.913 68.5172 150.647 67.4122H150.655ZM145.738 66.7476C147.012 66.7476 148.116 67.2499 149.027 68.2467C149.937 69.2435 150.4 70.6344 150.4 72.3808C150.4 73.2462 150.285 74.0266 150.068 74.6835C149.845 75.3403 149.582 75.8425 149.281 76.1903C148.98 76.538 148.617 76.8239 148.208 77.0403C147.799 77.2566 147.444 77.3957 147.143 77.4575C146.834 77.5193 146.526 77.5502 146.232 77.5502C144.735 77.5502 143.531 77.0171 142.636 75.9507C141.733 74.8844 141.277 73.4394 141.277 71.6699C141.277 70.0549 141.694 68.8185 142.52 67.9917C143.346 67.1649 144.434 66.7476 145.746 66.7476H145.738ZM142.366 67.8449C141.493 68.7181 141.061 69.9931 141.061 71.6699C141.061 73.5012 141.532 74.9694 142.466 76.0821C143.408 77.1948 144.658 77.7512 146.225 77.7512C146.533 77.7512 146.85 77.7202 147.174 77.6584C147.498 77.5966 147.876 77.4498 148.301 77.218C147.869 77.4498 147.498 77.5966 147.174 77.6584C146.85 77.7202 146.533 77.7512 146.225 77.7512C144.658 77.7512 143.408 77.1948 142.466 76.0821C141.524 74.9694 141.061 73.5012 141.061 71.6699C141.061 69.9931 141.493 68.7181 142.366 67.8449C142.798 67.4122 143.299 67.0799 143.863 66.8635C143.299 67.0799 142.805 67.4044 142.366 67.8449ZM150.524 76.5148C150.068 76.9862 149.551 77.3648 148.996 77.6584C149.559 77.3648 150.068 76.9862 150.524 76.5148C151.751 75.263 152.361 73.733 152.361 71.9171C152.361 70.1012 151.751 68.6408 150.524 67.5667C149.297 66.5004 147.745 65.9595 145.854 65.9595C144.974 65.9595 144.156 66.0985 143.415 66.369C143.23 66.4385 143.052 66.5081 142.883 66.5854C143.052 66.5081 143.23 66.4308 143.415 66.369C144.164 66.0985 144.974 65.9595 145.854 65.9595C147.745 65.9595 149.297 66.4926 150.524 67.5667C151.751 68.6331 152.361 70.0858 152.361 71.9171C152.361 73.7485 151.751 75.263 150.524 76.5148Z" fill="#645E5A"/>
<path d="M162.348 71.3375C163.251 70.5339 163.707 69.5912 163.707 68.5403C163.707 68.2776 163.653 68.0148 163.552 67.7444C163.452 67.4817 163.275 67.2035 163.043 66.9253C162.796 66.6394 162.41 66.3999 161.908 66.2299C161.415 66.0599 160.82 65.9749 160.141 65.9749C159.879 65.9749 159.539 65.9826 159.138 66.0058C158.736 66.0212 158.474 66.0367 158.358 66.0367L158.258 66.0212H157.88C157.741 66.0212 157.586 66.0212 157.432 66.0135H157.169L156.915 65.998C156.729 65.998 156.567 65.9903 156.413 65.9903C155.973 65.9903 155.927 66.2299 155.927 66.3303C155.927 66.4076 155.958 66.6703 156.374 66.6703C156.467 66.6703 156.606 66.6858 156.799 66.7089C156.992 66.7476 157.131 66.8094 157.2 66.9021C157.254 66.9717 157.316 67.1108 157.347 67.4044C157.37 67.7367 157.386 68.8803 157.386 70.8044V73.6016C157.386 75.402 157.355 76.5379 157.293 76.9861C157.231 77.4111 157.115 77.6738 156.976 77.7047C156.884 77.7279 156.791 77.7356 156.683 77.7356C156.251 77.7356 156.212 78.0061 156.212 78.0911C156.212 78.1838 156.259 78.4079 156.683 78.4079C156.899 78.4079 157.185 78.4002 157.548 78.377C157.903 78.3616 158.173 78.3461 158.358 78.3461C158.528 78.3461 158.875 78.3616 159.385 78.4002C159.57 78.4002 159.778 78.4002 160.033 78.4156C160.295 78.4311 160.465 78.4311 160.558 78.4311C161.947 78.4311 163.043 78.0679 163.823 77.3493C164.602 76.6307 164.996 75.7575 164.996 74.7529C164.996 73.8643 164.679 73.0993 164.062 72.4812C163.552 71.9712 162.974 71.5848 162.356 71.3375H162.348ZM159.253 72.0716C159.415 72.0562 159.57 72.0484 159.724 72.0484C159.917 72.0484 160.133 72.0639 160.342 72.0871C160.782 72.1334 161.183 72.2648 161.523 72.4657C162.047 72.8212 162.433 73.2848 162.665 73.8411C162.904 74.413 163.02 74.977 163.02 75.5334C163.02 76.2288 162.819 76.7002 162.41 76.9861C161.986 77.2797 161.515 77.4343 161.029 77.4343C160.465 77.4343 160.033 77.357 159.74 77.2102C159.578 77.1407 159.477 77.0711 159.415 76.9938C159.354 76.9011 159.315 76.8238 159.307 76.7466C159.292 76.6461 159.277 76.422 159.253 76.0743C159.253 75.997 159.238 75.4793 159.238 72.713V72.0716H159.253ZM159.253 67.0026C159.253 67.0026 159.292 66.9871 159.323 66.9794C159.5 66.9176 159.716 66.8944 159.979 66.8944C160.643 66.8944 161.121 67.1262 161.438 67.613C161.77 68.1153 161.932 68.7257 161.932 69.4135C161.932 69.9775 161.793 70.4257 161.499 70.7734C161.36 70.9203 161.206 71.0284 161.044 71.0748C160.867 71.1289 160.535 71.1521 160.072 71.1521C159.732 71.1521 159.454 71.1366 159.246 71.1134V67.018L159.253 67.0026ZM159.145 71.2989C159.369 71.3375 159.678 71.353 160.079 71.353C160.565 71.353 160.905 71.3221 161.106 71.268C161.206 71.2371 161.299 71.1984 161.391 71.1366C161.299 71.1984 161.198 71.2448 161.106 71.268C160.905 71.3221 160.565 71.353 160.079 71.353C159.686 71.353 159.369 71.3375 159.145 71.2989C159.084 71.2603 159.053 71.1984 159.053 71.1134V66.9485C159.053 66.9485 159.068 66.8789 159.107 66.848C159.068 66.8789 159.053 66.9098 159.053 66.9485V71.1134C159.053 71.1984 159.084 71.2603 159.145 71.2989ZM159.076 71.9016C159.076 71.9016 159.053 71.948 159.053 71.9866V72.713C159.053 74.8689 159.053 75.9893 159.068 76.0898C159.091 76.4375 159.114 76.6616 159.122 76.7697C159.138 76.8779 159.184 76.9861 159.261 77.1097C159.338 77.2257 159.477 77.3261 159.662 77.3957C159.987 77.5579 160.442 77.6352 161.044 77.6352C161.445 77.6352 161.824 77.5425 162.186 77.3647C161.824 77.5502 161.445 77.6352 161.044 77.6352C160.45 77.6352 159.987 77.5579 159.662 77.3957C159.477 77.3184 159.338 77.2257 159.261 77.1097C159.184 76.9938 159.13 76.8779 159.122 76.7697C159.107 76.6616 159.091 76.4375 159.068 76.0898C159.053 75.9893 159.053 74.8611 159.053 72.713V71.9866C159.053 71.9866 159.06 71.9248 159.076 71.9016ZM156.683 77.9211C156.807 77.9211 156.922 77.9056 157.015 77.8825C156.915 77.9056 156.807 77.9211 156.683 77.9211C156.598 77.9211 156.529 77.9366 156.49 77.9597C156.537 77.9366 156.598 77.9211 156.683 77.9211ZM163.684 77.1947C163.498 77.3647 163.298 77.5193 163.074 77.6429C163.298 77.5116 163.498 77.3647 163.684 77.1947C164.425 76.5148 164.795 75.6957 164.795 74.7529C164.795 73.9184 164.502 73.2075 163.923 72.628C163.336 72.0407 162.68 71.6389 161.947 71.4148C162.989 70.5957 163.514 69.6375 163.514 68.5403C163.514 68.3007 163.468 68.0612 163.375 67.8217C163.282 67.5821 163.12 67.3271 162.896 67.0644C162.673 66.8017 162.325 66.593 161.854 66.4308C161.384 66.2685 160.82 66.1912 160.156 66.1912C159.894 66.1912 159.562 66.1989 159.161 66.2221C158.759 66.2376 158.489 66.253 158.366 66.253L158.235 66.2376H157.887C157.741 66.2376 157.594 66.2376 157.432 66.2299C157.27 66.2299 157.1 66.2144 156.922 66.2144C156.745 66.2144 156.575 66.2067 156.428 66.2067C156.575 66.2067 156.745 66.2067 156.922 66.2144C157.1 66.2144 157.27 66.2299 157.432 66.2299C157.594 66.2299 157.748 66.2376 157.887 66.2376H158.235L158.366 66.253C158.489 66.253 158.752 66.2453 159.161 66.2221C159.562 66.2067 159.894 66.1912 160.156 66.1912C160.812 66.1912 161.384 66.2685 161.854 66.4308C162.325 66.593 162.673 66.8017 162.896 67.0644C163.12 67.3271 163.275 67.5744 163.375 67.8217C163.468 68.0612 163.514 68.3007 163.514 68.5403C163.514 69.6375 162.989 70.5957 161.947 71.4148C162.68 71.6389 163.336 72.0407 163.923 72.628C164.51 73.2152 164.795 73.9261 164.795 74.7529C164.795 75.6957 164.425 76.5148 163.684 77.1947Z" fill="#645E5A"/>
<path d="M179.569 77.7125C179.337 77.7125 179.144 77.6893 179.013 77.6352C178.542 77.4653 178.11 76.9012 177.716 75.943C177.33 75.0235 176.605 73.2153 175.555 70.5726L175.077 69.3671C174.336 67.4972 173.957 66.539 173.934 66.4849C173.718 65.944 173.564 65.7585 173.371 65.7585C173.278 65.7585 173.139 65.7972 173.031 65.9672C172.993 66.029 172.923 66.1449 172.784 66.5313L169.056 76.3603C168.879 76.8084 168.693 77.1407 168.508 77.3648C168.338 77.558 168.107 77.6739 167.798 77.7048C167.744 77.7125 167.644 77.7202 167.451 77.7202C167.042 77.7202 167.019 77.9984 167.019 78.0602C167.019 78.1839 167.088 78.4002 167.528 78.4002C167.837 78.4002 168.215 78.3925 168.655 78.3693C169.072 78.3539 169.295 78.3384 169.319 78.3384C169.365 78.3384 169.581 78.3461 169.967 78.3693C170.361 78.3848 170.638 78.4002 170.785 78.4002C171.225 78.4002 171.271 78.1607 171.271 78.0602C171.271 78.0062 171.248 77.7202 170.839 77.7202H170.708C170.299 77.7202 170.299 77.5502 170.299 77.4421C170.299 77.1793 170.399 76.7543 170.6 76.1825L171.418 73.8489H174.768L176.227 77.5502C176.273 77.6584 176.265 77.6971 176.265 77.6971C176.041 77.7589 176.01 77.9366 176.01 78.0139C176.01 78.323 176.443 78.3462 176.674 78.3539C177.5 78.3771 178.457 78.3925 179.515 78.3925C179.955 78.3925 180.001 78.153 180.001 78.0525C180.001 77.9984 179.978 77.7125 179.569 77.7125ZM174.575 72.9757H171.596C171.534 72.9757 171.518 72.9371 171.557 72.8676L172.954 68.7412C172.993 68.6485 173.023 68.6022 173.062 68.6022C173.031 68.6022 172.993 68.6485 172.954 68.7412L171.557 72.8676C171.518 72.9448 171.534 72.9757 171.596 72.9757H174.575C174.575 72.9757 174.629 72.968 174.637 72.9448C174.629 72.9603 174.606 72.9757 174.575 72.9757ZM174.374 72.7671H171.804L173.054 69.0735L174.374 72.7671ZM167.435 77.9212C167.613 77.9212 167.736 77.9212 167.806 77.9057C167.983 77.8902 168.145 77.8439 168.284 77.7743C168.145 77.8439 167.983 77.8825 167.806 77.9057C167.729 77.9212 167.605 77.9212 167.435 77.9212ZM170.399 76.113C170.191 76.708 170.083 77.1484 170.083 77.4421C170.083 77.1562 170.191 76.7157 170.399 76.113L171.217 73.7794C171.233 73.733 171.264 73.6944 171.295 73.6635C171.264 73.6867 171.241 73.7253 171.217 73.7794L170.399 76.113ZM179.792 78.0525C179.792 77.9675 179.715 77.9212 179.569 77.9212C179.306 77.9212 179.098 77.8902 178.936 77.8284C178.411 77.643 177.94 77.0403 177.516 76.0203C177.13 75.1007 176.412 73.308 175.354 70.6499C174.297 67.984 173.757 66.624 173.734 66.5622C173.571 66.1604 173.448 65.9672 173.363 65.9672C173.332 65.9672 173.301 65.9749 173.278 65.9981C173.309 65.9826 173.332 65.9672 173.363 65.9672C173.448 65.9672 173.571 66.1681 173.734 66.5622C173.757 66.624 174.297 67.984 175.354 70.6499C176.412 73.308 177.13 75.1007 177.516 76.0203C177.94 77.0403 178.411 77.643 178.936 77.8284C179.098 77.8902 179.306 77.9212 179.569 77.9212C179.715 77.9212 179.792 77.9675 179.792 78.0525Z" fill="#645E5A"/>
</g>
<defs>
<clipPath id="clip0_2017_2779">
<rect width="180" height="92" fill="white"/>
</clipPath>
</defs>
</svg>
