<svg width="80" height="107" viewBox="0 0 80 107" fill="none" xmlns="http://www.w3.org/2000/svg">
<path d="M0 40V80H40H80V40V0H40H0V40ZM38.5895 5.87887C38.6864 5.96501 38.7618 6.12652 38.7725 6.22342C38.7725 6.32033 38.7725 7.92463 38.7725 9.78735C38.7725 12.5007 38.7402 13.2005 38.6218 13.319C38.5034 13.4374 36.5545 13.4697 27.2624 13.4912C17.2598 13.5128 16.0323 13.5343 15.8816 13.6851C15.7308 13.8358 15.7093 14.9341 15.7201 24.0969C15.7201 34.2288 15.7201 34.3472 15.5047 34.5626C15.3001 34.7672 15.1494 34.7779 11.8977 34.7779C8.18304 34.7779 8.01077 34.7564 7.91386 34.1965C7.88156 34.0135 7.86003 28.2638 7.88156 21.4267L7.91386 8.99058L8.16151 8.33379C8.30148 7.9677 8.58143 7.47241 8.786 7.23553C9.19515 6.75101 10.035 6.11575 10.4441 5.96501C10.5949 5.91117 16.8398 5.84657 24.3338 5.81427C31.8277 5.78197 38.0619 5.74966 38.1911 5.72813C38.3203 5.71736 38.5034 5.78197 38.5895 5.87887ZM71.5801 5.96501C71.8062 6.19112 71.8062 13.0929 71.5801 13.319C71.4509 13.4482 69.7712 13.4697 60.3715 13.459C49.4213 13.459 49.3136 13.459 49.0983 13.6743C48.8829 13.8896 48.8829 14.0081 48.8829 22.7187C48.8829 31.4078 48.8829 31.5478 49.0983 31.7631C49.3028 31.9677 49.4536 31.9785 52.6514 31.9785C57.2059 31.9785 59.467 32.2476 61.5343 33.0229C61.7712 33.1198 62.2127 33.2705 62.5034 33.3782C63.0633 33.572 63.5693 33.8089 64.6568 34.3688C67.8977 36.0377 71.0417 39.0417 72.8398 42.2073C72.9906 42.4764 73.1521 42.7672 73.2059 42.8533C73.3351 43.0579 73.895 44.253 74.1965 44.9529C74.6057 45.9112 75.0471 47.5047 75.327 49.0983C75.93 52.4468 75.5855 56.323 74.4334 59.3809C74.3365 59.6178 74.1857 60.0377 74.0888 60.3069C73.9812 60.5868 73.8304 60.9206 73.7443 61.0606C73.6581 61.2005 73.5182 61.4913 73.432 61.6958C73.3459 61.9004 73.1736 62.245 73.0336 62.4495C72.8937 62.6541 72.786 62.8587 72.786 62.9018C72.786 63.0417 71.5693 64.7645 70.891 65.572C69.6851 67.0148 67.8977 68.6514 66.5949 69.4913C66.2396 69.7174 65.8304 69.9973 65.6797 70.0942C65.5289 70.2019 65.2059 70.3742 64.9798 70.4926C64.7429 70.611 64.4522 70.751 64.3338 70.8156C63.7524 71.1279 62.6864 71.6016 62.3957 71.6662C62.2234 71.7093 61.8358 71.86 61.5343 72C61.2436 72.1292 60.8668 72.2476 60.716 72.2476C60.5653 72.2476 60.1561 72.3445 59.8008 72.463C58.4657 72.926 57.0121 72.9798 45.2113 73.0552C34.5195 73.109 34.0458 73.109 33.8196 72.9152L33.572 72.7214V69.2436C33.572 66.4657 33.6043 65.7335 33.712 65.6258C33.8304 65.5074 35.9838 65.4643 44.6837 65.4105C56.5922 65.3351 57.1736 65.3028 58.9502 64.6999C62.7402 63.397 65.2921 60.9529 67.0794 56.9152C67.424 56.1292 67.8546 53.7389 67.8654 52.5437C67.8654 51.5316 67.6178 49.7658 67.3486 48.9367C67.0363 47.9785 66.6595 47.074 66.358 46.568C66.1857 46.2665 65.9489 45.8681 65.8412 45.6635C65.432 44.9529 64.0538 43.4024 63.2248 42.7241C62.2127 41.8843 60.0592 40.5922 59.6716 40.5922C59.5962 40.5922 59.2624 40.4738 58.9179 40.3338C57.6258 39.7954 56.4522 39.6985 49.9058 39.6339C44.0485 39.5693 43.8654 39.5585 43.3917 39.3432C42.6164 38.9771 42.0458 38.288 41.5828 37.2005L41.1844 36.2315L41.1521 21.1898C41.1306 6.88022 41.1306 6.13728 41.3136 5.95424C41.4966 5.7712 42.2503 5.76043 56.463 5.78197C69.179 5.8035 71.4509 5.8358 71.5801 5.96501ZM33.3782 32.2799C33.6151 32.4738 33.6151 32.4953 33.6151 35.7793C33.6043 37.5989 33.572 39.1817 33.5397 39.3001C33.5074 39.4186 33.3674 39.537 33.2382 39.5693C33.109 39.5908 31.6662 39.6339 30.0404 39.6662C26.0242 39.7308 25.0121 39.9031 22.8264 40.9475C21.9758 41.3567 21.4159 41.7227 20.3284 42.6164C18.2288 44.3284 16.6137 47.0202 16.0108 49.7981C15.8062 50.7026 15.7954 51.3701 15.7308 60.4038C15.6555 71.074 15.6985 70.4172 14.9341 71.4616C14.428 72.1507 13.5559 72.7429 12.8129 72.9044C12.0485 73.0659 10.7995 72.969 10.175 72.6891C9.3782 72.3338 8.50606 71.354 8.18304 70.4603L7.91386 69.7174L7.88156 61.2759C7.84926 50.1211 7.95693 48.8398 9.28129 45.2759C9.61507 44.3822 10.5841 42.3795 11.0686 41.5828C12.7806 38.8048 15.6016 36.0592 18.2719 34.6057C19.9408 33.6904 21.2436 33.1198 22.3419 32.8398C22.7618 32.7322 23.3647 32.5707 23.6878 32.4738C24.6353 32.2153 26.2073 32.1184 29.782 32.0969C32.8614 32.0861 33.1629 32.0969 33.3782 32.2799ZM47.3755 43.4347C48.6891 43.7793 49.8196 44.4253 50.7672 45.3836C51.7039 46.3203 52.1346 47.0525 52.393 48.14C52.4791 48.4953 52.6622 48.9475 52.8129 49.1413C53.2113 49.6689 53.5128 50.7456 53.5128 51.7039C53.5128 52.7591 53.1575 53.8143 52.6083 54.3634L52.2315 54.7402L51.8439 54.5572C51.6285 54.4603 51.3917 54.3742 51.2948 54.3742C51.2086 54.3742 51.0148 54.2557 50.8748 54.105C50.6057 53.8466 50.6057 53.8358 50.6057 51.6608C50.6057 49.1952 50.6272 49.1198 51.3378 48.9044C51.8116 48.7645 52.0808 48.3338 51.93 47.9569C51.5639 47.0525 50.6164 45.9004 49.7658 45.3297C49.1736 44.9206 47.8816 44.4038 47.0956 44.2638C46.3203 44.1131 44.3069 44.1131 43.4563 44.253C42.1857 44.4576 40.6245 45.2328 39.8062 46.0511C39.3001 46.5572 38.8802 47.1063 38.7618 47.4186C38.5249 48.0538 38.9017 48.9906 39.397 48.9906C39.9139 48.9906 39.9462 49.1736 39.9462 51.6716C39.9462 54.0619 39.9139 54.2665 39.5155 54.2665C39.4293 54.2665 39.1709 54.3634 38.9448 54.4818C38.7295 54.6003 38.4818 54.6972 38.4065 54.6972C38.1911 54.6972 37.7389 54.1696 37.4051 53.5128C37.1144 52.9529 37.0929 52.8452 37.0929 51.6285C37.0929 50.3795 37.1036 50.3149 37.4482 49.6904C37.6312 49.3351 37.9004 48.9152 38.0188 48.7645C38.1696 48.5707 38.2773 48.2369 38.3203 47.7954C38.4065 46.9987 38.6972 46.4388 39.5155 45.5236C40.5599 44.3607 41.9596 43.6393 43.93 43.2409C44.4791 43.1332 46.6972 43.2625 47.3755 43.4347ZM46.8694 47.0094C48.183 47.5478 49.2921 48.8937 49.5828 50.2934C50.1319 52.8775 49.1736 55.1817 47.1171 56.2261C46.5572 56.5168 46.3096 56.5707 45.4912 56.6137C44.5868 56.6568 44.4576 56.6353 43.7362 56.323C42.7564 55.9139 42.218 55.4724 41.6797 54.6433C40.5061 52.8345 40.5168 50.4118 41.7227 48.6676C41.9812 48.2799 42.3688 47.8277 42.5841 47.6662C42.9394 47.3863 43.8331 46.9341 44.4684 46.7187C44.9637 46.5464 46.0942 46.6864 46.8694 47.0094ZM53.6743 57.7766C54.4065 58.2288 54.8587 58.8425 54.9556 59.5209C55.1171 60.7483 54.5034 61.8358 53.4266 62.2342C52.8775 62.4388 52.5868 62.4495 45.2436 62.4495H37.6312L37.0175 62.148C36.253 61.782 35.8008 61.2328 35.6285 60.4468C35.5101 59.9408 35.5209 59.7793 35.6824 59.2732C35.9192 58.498 36.3069 58.0673 37.0713 57.7012L37.7066 57.4105L45.4159 57.4213L53.1359 57.4428L53.6743 57.7766Z" fill="black"/>
<path d="M6.996 101.352C5.72 101.352 4.47333 101.213 3.256 100.934C2.05333 100.641 1.06333 100.252 0.286 99.768L1.958 95.984C2.69133 96.4093 3.51267 96.754 4.422 97.018C5.33133 97.2673 6.204 97.392 7.04 97.392C7.75867 97.392 8.272 97.326 8.58 97.194C8.888 97.0473 9.042 96.8347 9.042 96.556C9.042 96.2333 8.83667 95.9913 8.426 95.83C8.03 95.6687 7.37 95.4927 6.446 95.302C5.258 95.0527 4.268 94.7887 3.476 94.51C2.684 94.2167 1.99467 93.7473 1.408 93.102C0.821333 92.442 0.528 91.5547 0.528 90.44C0.528 89.472 0.799333 88.592 1.342 87.8C1.88467 87.008 2.69133 86.3847 3.762 85.93C4.84733 85.4753 6.16 85.248 7.7 85.248C8.756 85.248 9.79 85.3653 10.802 85.6C11.8287 85.82 12.7307 86.15 13.508 86.59L11.946 90.352C10.4353 89.5893 9.00533 89.208 7.656 89.208C6.32133 89.208 5.654 89.5307 5.654 90.176C5.654 90.484 5.852 90.7187 6.248 90.88C6.644 91.0267 7.29667 91.188 8.206 91.364C9.37933 91.584 10.3693 91.8407 11.176 92.134C11.9827 92.4127 12.6793 92.8747 13.266 93.52C13.8673 94.1653 14.168 95.0453 14.168 96.16C14.168 97.128 13.8967 98.008 13.354 98.8C12.8113 99.5773 11.9973 100.201 10.912 100.67C9.84133 101.125 8.536 101.352 6.996 101.352ZM18.8421 89.626H14.3321V85.6H28.5441V89.626H24.0341V101H18.8421V89.626ZM37.7518 101.352C36.0945 101.352 34.6058 101.007 33.2858 100.318C31.9658 99.6287 30.9318 98.6753 30.1838 97.458C29.4358 96.226 29.0618 94.84 29.0618 93.3C29.0618 91.76 29.4358 90.3813 30.1838 89.164C30.9318 87.932 31.9658 86.9713 33.2858 86.282C34.6058 85.5927 36.0945 85.248 37.7518 85.248C39.4092 85.248 40.8978 85.5927 42.2178 86.282C43.5378 86.9713 44.5718 87.932 45.3198 89.164C46.0678 90.3813 46.4418 91.76 46.4418 93.3C46.4418 94.84 46.0678 96.226 45.3198 97.458C44.5718 98.6753 43.5378 99.6287 42.2178 100.318C40.8978 101.007 39.4092 101.352 37.7518 101.352ZM37.7518 97.15C38.3972 97.15 38.9765 96.996 39.4898 96.688C40.0178 96.3653 40.4358 95.918 40.7438 95.346C41.0518 94.7593 41.2058 94.0773 41.2058 93.3C41.2058 92.5227 41.0518 91.848 40.7438 91.276C40.4358 90.6893 40.0178 90.242 39.4898 89.934C38.9765 89.6113 38.3972 89.45 37.7518 89.45C37.1065 89.45 36.5198 89.6113 35.9918 89.934C35.4785 90.242 35.0678 90.6893 34.7598 91.276C34.4518 91.848 34.2978 92.5227 34.2978 93.3C34.2978 94.0773 34.4518 94.7593 34.7598 95.346C35.0678 95.918 35.4785 96.3653 35.9918 96.688C36.5198 96.996 37.1065 97.15 37.7518 97.15ZM54.9263 97.128H53.5183V101H48.3263V85.6H55.7403C57.1629 85.6 58.4023 85.8347 59.4583 86.304C60.5143 86.7733 61.3283 87.448 61.9003 88.328C62.4723 89.208 62.7583 90.2347 62.7583 91.408C62.7583 92.508 62.5089 93.4687 62.0103 94.29C61.5116 95.1113 60.7929 95.764 59.8543 96.248L63.0883 101H57.5443L54.9263 97.128ZM57.5223 91.408C57.5223 90.836 57.3463 90.396 56.9943 90.088C56.6423 89.7653 56.1143 89.604 55.4103 89.604H53.5183V93.212H55.4103C56.1143 93.212 56.6423 93.058 56.9943 92.75C57.3463 92.4273 57.5223 91.98 57.5223 91.408ZM77.5228 97.084V101H64.7188V85.6H77.2368V89.516H69.8228V91.32H76.3348V95.06H69.8228V97.084H77.5228Z" fill="black"/>
</svg>
