<svg width="134" height="49" fill="none" xmlns="http://www.w3.org/2000/svg"><path d="M84.123 40.526H36.07V49h48.053v-8.474z" fill="#E84D0E"/><path d="M41.156 45.172c0 .228-.033.438-.1.627a1.277 1.277 0 01-.726.792 1.421 1.421 0 01-.571.112c-.209 0-.396-.037-.567-.112a1.268 1.268 0 01-.44-.31 1.39 1.39 0 01-.286-.482 1.82 1.82 0 01-.102-.627c0-.229.033-.437.102-.624a1.39 1.39 0 01.29-.48c.123-.133.271-.235.442-.308.171-.072.359-.108.563-.108.204 0 .392.036.565.108.173.073.321.175.442.308.123.133.22.293.288.48.065.185.1.393.1.624zm-.69 0c0-.29-.063-.518-.186-.686a.611.611 0 00-.521-.252.617.617 0 00-.521.252c-.125.168-.186.397-.186.686 0 .293.063.523.186.694a.61.61 0 00.521.255.61.61 0 00.521-.255c.123-.173.186-.403.186-.694zM44.044 44.284h-.94v2.34h-.674v-2.34h-.936v-.561h2.548v.561h.002zM45.842 43.723h.673v2.353h.914v-2.353h.673v2.353h.914v-2.353h.673v2.901h-3.845v-2.901h-.002zM51.218 44.887c.085-.085.177-.18.277-.285l.298-.318.282-.307c.09-.098.162-.183.223-.252h.79a9.562 9.562 0 01-.281.316c-.107.114-.215.233-.328.351-.112.12-.225.237-.333.35-.111.112-.209.214-.299.3.115.096.234.209.359.335a6.992 6.992 0 01.703.838c.104.145.192.283.26.407h-.78a6.005 6.005 0 00-.546-.707 6.923 6.923 0 00-.317-.33 3.334 3.334 0 00-.31-.266v1.303h-.674v-2.901h.673v1.166h.003zM56.15 45.172c0 .228-.034.438-.101.627-.067.19-.16.35-.284.483a1.257 1.257 0 01-.442.31 1.418 1.418 0 01-.569.111c-.209 0-.396-.037-.567-.112a1.268 1.268 0 01-.44-.31 1.464 1.464 0 01-.288-.482 1.82 1.82 0 01-.102-.627c0-.229.033-.437.102-.624.069-.187.165-.347.29-.48a1.29 1.29 0 01.442-.308c.171-.072.359-.108.563-.108.204 0 .392.036.565.108.173.073.321.175.442.308.123.133.22.293.286.48.067.185.102.393.102.624zm-.691 0c0-.29-.063-.518-.186-.686a.611.611 0 00-.521-.252.617.617 0 00-.521.252c-.126.168-.186.397-.186.686 0 .293.063.523.186.694a.61.61 0 00.521.255.61.61 0 00.521-.255c.123-.173.186-.403.186-.694zM57.984 44.278c-.004.162-.008.333-.017.507-.008.177-.025.35-.052.518-.027.17-.07.332-.131.488-.06.156-.142.295-.248.418a1.31 1.31 0 01-.396.31c-.159.083-.35.135-.576.157l-.094-.56c.19-.038.336-.099.44-.182a.815.815 0 00.24-.318c.044-.095.08-.205.102-.326.025-.123.042-.25.056-.386.013-.136.021-.273.026-.414.004-.141.006-.276.006-.412v-.36h2.058v2.902h-.674v-2.342h-.74zM60.928 44.793c.057-.014.136-.027.242-.04.107-.01.209-.016.309-.016.16 0 .31.019.455.056.141.038.267.096.373.175.106.079.19.18.25.305s.092.27.092.441c0 .173-.03.322-.09.443a.762.762 0 01-.25.3 1.13 1.13 0 01-.386.172c-.15.037-.317.056-.498.056a4.96 4.96 0 01-1.168-.133v-2.829h.674v1.07h-.002zm.48 1.366a.706.706 0 00.415-.108c.102-.073.152-.187.152-.347a.396.396 0 00-.05-.206.402.402 0 00-.135-.135.608.608 0 00-.194-.075 1.153 1.153 0 00-.225-.023c-.071 0-.148.002-.232.008a1.039 1.039 0 00-.208.03v.827c.048.008.119.014.21.018a4 4 0 00.267.01zm2.392.465h-.674v-2.901h.674v2.901zM65.987 42.78h.701v3.842h-.7V42.78zM71.197 44.7c0 .276-.036.528-.107.748a1.9 1.9 0 01-.294.58c-.125.164-.273.3-.442.403a1.825 1.825 0 01-.555.223c.01.076.05.143.117.199a.83.83 0 00.252.14c.103.037.22.068.35.09.132.026.272.042.416.053l-.157.528c-.48-.038-.859-.13-1.14-.275a1.018 1.018 0 01-.54-.696 1.901 1.901 0 01-.643-.177 1.687 1.687 0 01-.52-.395 1.833 1.833 0 01-.351-.604 2.396 2.396 0 01-.127-.815c0-.328.05-.62.15-.869.1-.25.235-.46.408-.63.174-.17.374-.297.599-.382.225-.085.465-.127.717-.127.252 0 .492.042.718.127.225.085.423.212.592.382.169.17.302.38.402.63.105.247.155.536.155.867zm-3.012 0c0 .212.028.403.078.573.052.173.127.318.225.439.098.12.219.214.358.28.142.067.3.1.48.1.175 0 .332-.033.473-.1.142-.066.261-.16.36-.28.097-.12.172-.266.224-.439a1.98 1.98 0 00.078-.573c0-.21-.026-.401-.078-.574a1.266 1.266 0 00-.225-.438 1.007 1.007 0 00-.359-.281 1.097 1.097 0 00-.473-.1c-.177 0-.338.033-.48.1a.99.99 0 00-.358.283 1.303 1.303 0 00-.225.438c-.05.17-.078.36-.078.572zM74.424 44.7c0 .648-.119 1.143-.356 1.49a1.13 1.13 0 01-.984.518c-.42 0-.75-.173-.985-.518-.237-.345-.356-.842-.356-1.49 0-.322.031-.607.091-.857.06-.249.15-.459.267-.63.117-.17.259-.299.424-.388.164-.09.35-.133.558-.133.42 0 .747.173.985.518.237.345.356.841.356 1.49zm-.694 0c0-.2-.01-.387-.033-.56a1.957 1.957 0 00-.109-.452.783.783 0 00-.198-.302.434.434 0 00-.306-.11.452.452 0 00-.31.11.765.765 0 00-.2.302c-.05.126-.085.278-.106.453-.02.172-.03.361-.03.559 0 .2.01.386.03.561.021.172.057.324.107.453.05.127.117.229.2.301.083.075.185.11.308.11a.447.447 0 00.307-.11.782.782 0 00.198-.3 1.93 1.93 0 00.109-.454c.02-.175.033-.362.033-.561zM77.586 44.7c0 .648-.12 1.143-.357 1.49a1.13 1.13 0 01-.984.518 1.13 1.13 0 01-.984-.518c-.238-.345-.357-.842-.357-1.49 0-.322.031-.607.092-.857.06-.249.15-.459.267-.63.116-.17.258-.299.423-.388.165-.09.352-.133.559-.133.419 0 .748.173.984.518.238.345.357.841.357 1.49zm-.695 0c0-.2-.01-.387-.033-.56a1.952 1.952 0 00-.109-.452.784.784 0 00-.198-.302.434.434 0 00-.306-.11.452.452 0 00-.309.11.763.763 0 00-.2.302c-.05.126-.085.278-.106.453-.021.172-.032.361-.032.559 0 .2.01.386.032.561.02.172.056.324.106.453.05.127.117.229.2.301.084.075.186.11.309.11a.443.443 0 00.306-.11.784.784 0 00.198-.3c.05-.128.086-.28.109-.454.02-.175.033-.362.033-.561zM78.683 46.624c.02-.28.072-.577.15-.887a7.754 7.754 0 01.659-1.733c.135-.258.269-.472.404-.647h-1.774v-.578h2.577v.51c-.12.137-.257.324-.4.56a6.852 6.852 0 00-.749 1.759c-.094.34-.152.68-.175 1.014h-.692v.002zM40.624 1.894l-.033 3.562c-.027 2.299-.363 3.95-1.007 4.949-.644 1-1.645 1.5-2.999 1.5h-.588v-1.82h.32c.74-.06 1.234-.407 1.484-1.046.25-.636.386-1.83.409-3.583l.041-3.716-1.249-.243V.065h10.616v1.432l-1.274.243v8.499l1.274.243v1.424h-4.92v-1.424l1.271-.243V1.894h-3.345zM53.958.064v1.432l-1.272.244v5.48l.05.017 4.79-4.839V1.74l-1.264-.244V.064h4.919v1.432l-1.266.244v8.498l1.266.243v1.424H56.26v-1.424l1.263-.243V4.886l-.048-.016-4.79 4.846v.52l1.273.243v1.424h-4.922v-1.424l1.274-.243V1.737l-1.274-.243V.062H53.958v.002zM62.52 10.483l1.265-.243V1.742l-1.265-.244V.066h9.008v3.002h-1.829l-.098-1.17h-3.434v8.344l1.272.243v1.424h-4.921v-1.426h.002zM71.046 10.483l.849-.122L75.509.064h2.44l3.59 10.297.849.122v1.424h-4.047v-1.424l.823-.145-.521-1.628H74.79l-.523 1.628.824.145v1.424h-4.048v-1.424h.002zm4.308-3.523h2.726L76.74 2.79h-.05l-1.337 4.17zM36.127 30.47l1.263-.244v-8.498l-1.263-.244v-1.432h9.008v3.002h-1.827l-.098-1.173h-3.403v2.555h2.04c1.376 0 2.464.334 3.263 1.003.799.67 1.199 1.563 1.199 2.68 0 1.132-.402 2.045-1.207 2.737-.805.692-1.89 1.037-3.255 1.037h-5.72v-1.424zm3.68-4.205v3.805h2.04c.669 0 1.184-.185 1.547-.557.36-.372.542-.842.542-1.411 0-.543-.18-.983-.538-1.326-.359-.341-.876-.514-1.551-.514h-2.04v.003zM58.347 21.482l-1.16.154-3.386 8.01c-.348.775-.757 1.372-1.224 1.79-.467.417-1.136.625-2.008.625a9.623 9.623 0 01-.849-.041l-.016-1.815c.06.01.163.019.31.025.146.006.26.008.336.008.43 0 .753-.095.968-.284.215-.19.396-.478.542-.863l.18-.447-3.412-6.993-1.266-.171v-1.432h4.364v1.432l-.596.114 1.723 3.716.187.626h.05l1.64-4.319-.71-.137v-1.432h4.325v1.434h.002zM70.433 34.805h-2.162v-2.912h-7.286v2.912h-2.196l-.18-4.733h.914c.426-.364.795-.937 1.11-1.72.314-.784.5-1.936.554-3.453l.221-3.188-1.16-.229V20.05h10.267v1.432l-1.264.243v8.345h1.403l-.22 4.735zm-6.854-9.906c-.048 1.2-.192 2.215-.427 3.053-.236.838-.545 1.544-.926 2.118h4.642v-8.189h-3.093L63.58 24.9zM82.847 21.482l-1.16.154-3.386 8.01c-.348.775-.757 1.372-1.224 1.79-.467.417-1.136.625-2.008.625a9.626 9.626 0 01-.849-.041l-.016-1.815c.06.01.162.019.31.025.146.006.259.008.334.008.43 0 .753-.095.967-.284.215-.19.397-.478.543-.863l.179-.447-3.412-6.993-1.265-.171v-1.432h4.366v1.432l-.596.114 1.722 3.716.188.626h.048l1.64-4.319-.708-.137v-1.432h4.325v1.434h.002zM100.367 20.052v1.432l-1.272.243v8.345h1.527l-.163 4.668h-2.21v-2.847H84.002v-1.424l1.272-.243v-8.498l-1.272-.244v-1.432h4.919v1.432l-1.263.243v8.345h3.361v-8.345l-1.272-.243v-1.432h4.911v1.432l-1.266.243v8.345h3.33v-8.345l-1.274-.243v-1.432H100.367zM109.367 26.689h-4.022v3.383h3.835l.106-1.415h1.812v3.236h-9.4v-1.424l1.263-.243v-8.498l-1.263-.244v-1.432h9.381v3.245h-1.826l-.107-1.416h-3.801v2.977h4.022v1.83zM112.862 30.47l1.266-.244v-8.498l-1.266-.244v-1.432h9.009v3.002h-1.829l-.098-1.173h-3.435v8.345l1.272.243v1.424h-4.921v-1.424h.002zM133.5 26.06c0 1.736-.499 3.17-1.493 4.303-.995 1.133-2.298 1.7-3.908 1.7-1.606 0-2.901-.567-3.889-1.7s-1.481-2.567-1.481-4.302v-.179c0-1.725.493-3.155 1.477-4.294.984-1.139 2.279-1.708 3.885-1.708 1.61 0 2.915.57 3.912 1.708.998 1.14 1.497 2.569 1.497 4.294v.179zm-2.375-.194c0-1.227-.255-2.22-.768-2.985-.511-.765-1.267-1.147-2.268-1.147s-1.748.38-2.24 1.139c-.492.758-.738 1.756-.738 2.992v.196c0 1.247.248 2.25.746 3.014.499.762 1.245 1.143 2.24 1.143 1.005 0 1.762-.38 2.269-1.143.506-.761.759-1.767.759-3.014v-.195zM13.687 25.458L.5 32.001V0h6.81v1.602h2.974V0h6.808v1.602h2.974V0h6.808v32l-13.187-6.542z" fill="#fff"/><path d="M21.025.956V2.56h-4.892V.956h-4.89V2.56H6.351V.956H1.46V30.457l12.228-6.065 12.23 6.065V.956h-4.892z" fill="#5FBFED"/><path d="M23.432 5.558H14.19v9.171h9.242V5.559zM13.289 21.79l-9.242 4.585v-10.75h9.242v6.165z" fill="#fff"/><path d="M8.63 22.843l-.859-.85L6.29 23.48l-.57-.564-.569-.563 1.483-1.486-.924-.917 4.202-1.234-1.28 4.127zm3.003-5.347l-.51-.507-.877.877.511.507.876-.877zm-2.066.374l-.88-.873-.507.51.88.872.507-.51zm.7.006l-.004-1.239-.72.003.005 1.238.72-.002zm1.727 1.191l-.002-.717-1.243.004.002.717 1.243-.004zm-.352.856l-.88-.873-.51.51.88.873.51-.51zM20.325 10.34l1.17 1.166a.829.829 0 01-1.17 0 .822.822 0 010-1.166zm-4.085 1.166a.829.829 0 001.17 0l-1.17-1.166a.822.822 0 000 1.166zm6.21-.588c0 .85-.693 1.54-1.546 1.54-.844 0-1.53-.676-1.545-1.513h-.993a1.543 1.543 0 01-1.545 1.513 1.543 1.543 0 01-1.32-2.342l1.097-1.763.019-.03a1.148 1.148 0 011.862-.094h.774a1.148 1.148 0 011.862.095l.019.029 1.096 1.763c.136.234.22.509.22.802zm-4.582 0a1.05 1.05 0 00-2.102 0 1.05 1.05 0 002.102 0zm1.358-.734a.363.363 0 10-.726-.002.363.363 0 00.726.002zm2.727.734a1.05 1.05 0 00-2.102 0 1.05 1.05 0 002.102 0z" fill="#154194"/><path d="M3.042 4.556v23.438l10.697-5.306 10.698 5.306V4.556H3.042zM13.289 21.79l-9.242 4.585v-10.75h9.242v6.165zm.9-16.232h9.243v9.171H14.19V5.559z" fill="#154194"/><path d="M13.289 5.558h-.642l-8.6 8.57v.601h.672l8.57-8.544v-.627z" fill="#FECE43"/><path d="M11.375 5.558H10.1L4.047 11.59v1.268l7.328-7.301z" fill="#5FBFED"/><path d="M8.829 5.558H7.555L4.047 9.053v1.268L8.83 5.558z" fill="#E84D0E"/><path d="M4.047 6.516v1.268l2.236-2.226H5.008l-.96.958zM13.289 13.798v-1.27l-2.206 2.201h1.274l.932-.93z" fill="#FECE43"/><path d="M13.289 8.723V7.455L5.99 14.73h1.275l6.024-6.006z" fill="#E84D0E"/><path d="M13.289 11.26V9.99l-4.752 4.74H9.81l3.478-3.47z" fill="#5FBFED"/><path d="M15.407 16.677l-.16.159 2.322 2.313.159-.159-2.321-2.313z" fill="#fff"/><path d="M17.57 16.685l-2.316 2.306.159.159 2.317-2.306-.16-.159z" fill="#5FBFED"/><path d="M20.049 21.303l-.16.16 2.322 2.312.159-.158-2.321-2.314z" fill="#fff"/><path d="M22.208 21.31l-2.317 2.306.16.159 2.316-2.306-.16-.159z" fill="#5FBFED"/><path d="M20.04 16.685l-.159.159 2.32 2.313.16-.159-2.32-2.313z" fill="#fff"/><path d="M22.2 16.687l-2.315 2.307.16.159 2.315-2.307-.16-.159z" fill="#5FBFED"/><path d="M23.432 15.625h-2.3l2.3 2.295v-2.295zM23.432 17.934l-2.307 2.3 2.307 2.298v-4.598zM16.502 15.625l2.302 2.295 2.302-2.295h-4.604z" fill="#E84D0E"/><path d="M17.778 23.57l3.1 1.537.253-.254.76.757 1.54.765V22.56l-2.3 2.292-2.32-2.313 2.314-2.307-2.32-2.313-2.315 2.307 2.32 2.313-1.032 1.03zM14.19 15.625v2.268l2.275-2.268H14.19zM14.68 22.033l1.81-1.806-2.3-2.293v3.856l.49.243z" fill="#E84D0E"/><path d="M19.434 24.392l.617-.615-.158-.16-.672.669.213.106zM17.568 23.467l-2.163-2.155-.158.158 1.687 1.681.634.316z" fill="#fff"/><path d="M14.346 15.625h-.156v.162l1.057 1.052.158-.158-1.059-1.056z" fill="#FECE43"/><path d="M23.431 20.09l-1.226 1.222.16.158 1.067-1.064v-.316z" fill="#fff"/><path d="M23.432 20.067L22.362 19l-.159.16 1.229 1.224v-.318z" fill="#FECE43"/><path d="M23.431 24.716l-1.11 1.108.212.106.898-.898v-.316z" fill="#fff"/><path d="M23.432 24.68l-1.064-1.06-.158.159 1.222 1.22v-.318z" fill="#FECE43"/><path d="M14.19 20.364l1.22-1.214-.159-.16-1.061 1.058v.316zM19.884 18.999l-2.313 2.308.159.159 2.314-2.308-.16-.16z" fill="#fff"/><path d="M17.728 18.99l-.16.16 2.321 2.313.16-.16-2.321-2.312z" fill="#FECE43"/><path d="M16.333 22.854l1.398-1.39-.161-.159-1.447 1.443.21.106z" fill="#5FBFED"/><path d="M14.19 20.096v.318l1.057 1.054.158-.16-1.215-1.212z" fill="#FECE43"/><path d="M23.432 15.625h-.163l-1.07 1.067.159.157 1.074-1.07v-.154zM18.625 15.625l-1.061 1.06.16.158 1.22-1.218h-.319z" fill="#fff"/><path d="M18.975 15.625h-.317l1.224 1.222.159-.16-1.066-1.062z" fill="#FECE43"/></svg>