<svg width="132" height="24" fill="none" xmlns="http://www.w3.org/2000/svg"><path d="M0 .922h5.407l8.607 11.417V.922h5.738v21.594h-5.08L5.737 10.673v11.85H0V.921zm58.844 5.245H52.57V.922h18.348v5.245h-6.275v16.355h-5.798V6.167zm14.282 13.147l3.23-3.982c2.06 1.7 4.36 2.593 6.781 2.593 1.555 0 2.391-.556 2.391-1.544 0-.895-.687-1.388-3.527-2.066-4.446-1.05-7.889-2.346-7.889-6.85 0-4.013 3.08-6.914 8.1-6.914 3.555 0 6.334.988 8.605 2.87L87.919 7.65c-1.913-1.39-4.005-2.13-5.857-2.13-1.404 0-2.093.616-2.093 1.45 0 .987.718 1.42 3.623 2.098 4.81 1.081 7.8 2.685 7.8 6.79 0 4.412-3.378 7.035-8.457 7.035-3.712 0-7.239-1.204-9.809-3.58zM130.17 7.412c1.222 1.228 1.832 3.083 1.831 5.565v9.532h-5.658v-8.572c0-2.276-.883-3.414-2.649-3.414-.972 0-1.752.328-2.338.985-.586.656-.879 1.642-.879 2.958v8.056h-5.658V5.86h5.391v1.806a6.377 6.377 0 012.267-1.554 7.457 7.457 0 012.859-.537c2.002 0 3.613.615 4.834 1.844v-.006zm-27.221-1.957c-4.806 0-8.366 3.7-8.366 8.364v.71c0 4.664 3.56 8.364 8.366 8.364 4.807 0 8.409-3.74 8.409-8.364v-.71c0-4.624-3.604-8.364-8.409-8.364zm.022 12.274c-1.729 0-3.129-1.591-3.129-3.555 0-1.964 1.402-3.556 3.129-3.556s3.128 1.592 3.128 3.556-1.404 3.555-3.128 3.555zM28.26 8.947c.856 0 1.694-.262 2.407-.753a4.446 4.446 0 001.596-2.007 4.61 4.61 0 00.247-2.585 4.522 4.522 0 00-1.185-2.291A4.292 4.292 0 0029.107.086a4.205 4.205 0 00-2.503.254 4.366 4.366 0 00-1.945 1.648c-.476.736-.73 1.6-.73 2.486 0 1.186.456 2.323 1.268 3.162a4.264 4.264 0 003.063 1.311zm19.733-5.642l-4.9-2.92c-1.077-.643-1.96-.116-1.96 1.167v5.843c0 1.285.883 1.81 1.96 1.168l4.9-2.921c1.077-.641 1.077-1.694 0-2.337zm0 9.238v-.035H41.93v.035c0 3.154-2.195 5.902-5.384 5.951-3.191-.042-5.383-2.79-5.384-5.95v-.037h-6.064v.036c0 6.385 4.87 11.45 11.446 11.457 6.57-.012 11.444-5.072 11.444-11.457h.006z" fill="#fff"/></svg>