<svg width="19" height="18" viewBox="0 0 19 18" fill="none" xmlns="http://www.w3.org/2000/svg">
<path d="M3.25232 6.71031C3.89497 6.71056 4.52327 6.514 5.05773 6.14548C5.59219 5.77697 6.00882 5.25305 6.25492 4.64C6.50103 4.02695 6.56554 3.3523 6.44032 2.70138C6.31509 2.05046 6.00575 1.45251 5.55141 0.983155C5.09707 0.513801 4.51815 0.194126 3.88787 0.064563C3.25758 -0.0649997 2.60424 0.00136971 2.01049 0.255276C1.41673 0.509182 0.90923 0.939219 0.552166 1.491C0.195102 2.04278 0.00451665 2.69151 0.0045166 3.35515C0.00451654 4.24478 0.346656 5.09798 0.955702 5.72716C1.56475 6.35633 2.39084 6.70997 3.25232 6.71031ZM18.0527 2.47907L14.3776 0.288206C13.57 -0.193835 12.9081 0.20149 12.9081 1.1643V5.54602C12.9081 6.5101 13.57 6.90414 14.3776 6.4221L18.0527 4.23124C18.8603 3.75048 18.8603 2.96111 18.0527 2.47907ZM18.0527 9.40744V9.38066H13.5045V9.40744C13.5045 11.773 11.8584 13.8338 9.46637 13.8708C7.07312 13.8389 5.42946 11.7781 5.42823 9.40744V9.38066H0.880064C0.880064 9.38958 0.880064 9.39851 0.880064 9.40744C0.880064 14.196 4.53292 17.9949 9.46514 18C14.3924 17.9911 18.0477 14.196 18.0477 9.40744H18.0527Z" fill="white"/>
</svg>
