<svg width="166" height="36" fill="none" xmlns="http://www.w3.org/2000/svg"><path fill-rule="evenodd" clip-rule="evenodd" d="M155.951 14.407h3.436v-3.91h3.161v3.91h3.435V4.625h-3.435v3.443h-3.161V4.625h-3.436v9.782zM135.137 7.42c.723-.487 1.706-.832 2.552-.832.432 0 1.374.063 1.374.894 0 .81-.827.829-1.161.829h-1.687v2.125h1.492c.492 0 1.414.042 1.414.832 0 .323-.194.953-1.395.953-1.198 0-1.963-.326-2.966-.934l-.881 2.31a8.795 8.795 0 0 0 4.378 1.178c3.928 0 4.419-2.271 4.419-3.019 0-1.034-.609-2.088-1.983-2.412v-.04c.863-.386 1.414-1.236 1.414-2.289 0-2.29-2.415-2.754-3.89-2.754-1.374 0-2.965.404-4.004.97l.924 2.189zm-7.438-4.072c1.553 0 3.163-.606 3.869-2.27L129.33.232c-.275 1.135-1.236 1.193-1.631 1.193-.393 0-1.353-.058-1.627-1.193l-2.237.848c.704 1.663 2.316 2.27 3.864 2.27zm-5.357 1.277v9.782h3.336l3.397-5.386v5.386h3.436V4.625h-3.299l-3.437 5.245V4.625h-3.433zm-22.779 7.677v-5.43c-1.158-.02-2.34.852-2.34 2.715 0 1.864 1.182 2.733 2.34 2.714v.001zm3.004-5.429v5.429c1.159.019 2.336-.85 2.336-2.715 0-1.863-1.177-2.735-2.336-2.714zm-3.221 11.79v-4.11c-2.043.02-5.422-.813-5.422-5.047 0-4.212 3.361-5.043 5.422-5.024V.231h3.436v4.251c2.064-.02 5.42.813 5.42 5.024 0 4.234-3.377 5.067-5.42 5.047v4.11h-3.436zm-15.237-6.361V6.873c-1.158-.02-2.337.851-2.337 2.714 0 1.864 1.179 2.734 2.337 2.715zm3.007-5.429v5.429c1.156.019 2.334-.85 2.334-2.715 0-1.863-1.178-2.735-2.334-2.714zm-3.223 11.79v-4.11c-2.044.02-5.42-.813-5.42-5.047 0-4.212 3.358-5.043 5.42-5.024V.231h3.436v4.251c2.062-.02 5.418.813 5.418 5.024 0 4.234-3.374 5.067-5.418 5.047v4.11h-3.436zM72.031 3.349c1.553 0 3.163-.606 3.868-2.27L73.663.232c-.276 1.135-1.238 1.193-1.63 1.193-.393 0-1.355-.058-1.631-1.193l-2.238.848c.708 1.663 2.318 2.27 3.868 2.27zm-5.358 1.277v9.782h3.335l3.398-5.386v5.386h3.438V4.625h-3.3L70.11 9.87V4.625h-3.436zm-20.981-1.5v3.26h1.258c1.709 0 1.886-1.033 1.886-1.639 0-.71-.236-1.622-1.886-1.622h-1.258zm-3.69 11.282V.007h5.792c3.91 0 5.008 2.793 5.008 4.74 0 1.963-1.118 4.759-5.008 4.759h-2.102v4.901h-3.69zm78.199-9.798v9.798h-3.427v-1.089h-.036c-.603.976-1.789 1.415-2.919 1.415-2.86 0-4.874-2.426-4.874-5.233 0-2.808 1.975-5.215 4.838-5.215 1.11 0 2.276.42 2.991 1.279v-.955h3.427zm-5.515 2.693c-1.393 0-2.203 1.013-2.203 2.215 0 1.241.81 2.197 2.203 2.197 1.393 0 2.203-.956 2.203-2.197 0-1.201-.81-2.215-2.203-2.215zM64.531 4.61v9.798h-3.426v-1.089h-.037c-.603.976-1.788 1.415-2.92 1.415-2.859 0-4.873-2.426-4.873-5.233 0-2.808 1.977-5.215 4.837-5.215 1.111 0 2.278.42 2.993 1.279v-.955h3.426zm-5.514 2.693c-1.393 0-2.203 1.013-2.203 2.215 0 1.241.81 2.197 2.203 2.197 1.392 0 2.201-.956 2.201-2.197 0-1.201-.809-2.215-2.201-2.215zm95.244 2.63v.364h-7.21c0 1.413.737 2.176 2.145 2.176.737 0 1.263-.247 1.638-.897h3.296c-.548 2.311-2.712 3.363-4.914 3.363-3.198 0-5.59-1.835-5.59-5.218 0-3.265 2.202-5.23 5.346-5.23 3.348 0 5.289 2.099 5.289 5.441zm-7.153-1.642h3.971c-.167-.936-1.015-1.546-1.938-1.546-.997 0-1.826.534-2.033 1.546zm-99.62 21.731H46.43l-.523 3.055h1.008c2.255 0 2.694-.637 2.823-1.456.145-.9-.032-1.599-2.249-1.599zm6.203 1.641c-.157.967-.473 1.945-1.173 2.653-1.542 1.553-3.869 1.678-5.345 1.684h-5.77l2.45-14.4h9.822l-.459 2.835h-5.939l-.459 2.874h1.72c1.27 0 2.9.171 4.06 1.162.853.73 1.309 1.833 1.093 3.192zm10.33 1.834H58.6L57.14 36h-4.176l8.22-14.4h4.295L68.784 36h-4.196l-.567-2.503zm-.587-2.862l-.842-4.584h-.041l-2.39 4.583h3.273zm27.308-9.035h-3.967L84.38 35.997h3.932l1.041-6.242h.04l4.043 6.244 5.1-.001-5.309-7.582 7.161-6.817h-4.88l-5.745 5.939h-.044l1.022-5.938zm-15.221 0l-.875 5.369h5.245l.874-5.369h3.822L82.262 36h-3.809l.987-6.191h-5.242l-.991 6.191h-3.84l2.346-14.4h3.808z" fill="#000"/><mask id="a" maskUnits="userSpaceOnUse" x="0" y="0" width="166" height="36"><path d="M0 36h165.982V0H0v36z" fill="#fff"/></mask><g mask="url(#a)" fill-rule="evenodd" clip-rule="evenodd"><path d="M1.2 34.8h33.6V1.201H1.2v33.6z" fill="#FFED00"/><path d="M1.2 34.8h33.6V1.2H1.2v33.6zM0 36h36V0H0v36z" fill="#000"/><path d="M17.998 22.103L7.658 32.441l-4.102-4.097 10.341-10.342-2.157-2.158V11.58l-1.498-1.5V13.8l-1.305 1.304L3.695 9.86l-1.297 1.296c.01-.978.205-3.808 2.605-6.167 2.59-2.492 5.388-1.37 6.345-.412l5.24 5.242-1.337 1.335L18 13.9l2.747-2.749-1.337-1.334 5.24-5.242c.956-.958 3.753-2.081 6.344.411 2.401 2.36 2.596 5.19 2.606 6.168l-1.297-1.296-5.243 5.244-1.304-1.304v-3.717l-1.5 1.5v4.261l-2.156 2.16L32.44 28.343l-4.102 4.098-10.34-10.339z" fill="#000"/></g></svg>