<svg width="463" height="400" viewBox="0 0 463 400" fill="none" xmlns="http://www.w3.org/2000/svg">
<g clip-path="url(#clip0_364_1616)">
<path d="M231.314 352.71C317.694 352.71 387.718 282.626 387.718 196.172C387.718 109.719 317.694 39.6348 231.314 39.6348C144.935 39.6348 74.9102 109.719 74.9102 196.172C74.9102 282.626 144.935 352.71 231.314 352.71Z" fill="#F2F2F2"/>
<g style="mix-blend-mode:multiply" opacity="0.13">
<path d="M183.709 205.77V232.256H173.418V247.266H144.602V232.256H101.378V205.77L129.753 144.263H163.126L134.31 205.77H144.602V191.349H173.418V205.77H183.709Z" fill="black"/>
<path d="M264.275 234.979C256.727 244.742 246.045 249.621 232.224 249.621C218.404 249.621 207.72 244.742 200.174 234.979C192.625 225.22 188.853 212.15 188.853 195.764C188.853 179.379 192.625 166.312 200.174 156.55C207.72 146.79 218.404 141.908 232.224 141.908C246.045 141.908 256.726 146.788 264.275 156.55C271.821 166.312 275.596 179.382 275.596 195.764C275.596 212.147 271.821 225.22 264.275 234.979ZM218.257 195.764C218.257 212.638 222.911 221.073 232.224 221.073C241.537 221.073 246.192 212.638 246.192 195.764C246.192 178.891 241.536 170.455 232.224 170.455C222.913 170.455 218.257 178.893 218.257 195.764Z" fill="black"/>
<path d="M363.805 205.77V232.256H353.513V247.266H324.697V232.256H281.474V205.77L309.849 144.263H343.222L314.406 205.77H324.697V191.349H353.513V205.77H363.805Z" fill="black"/>
</g>
<path d="M235.222 124.074H226.11V25.3448C226.11 11.3694 237.522 0 251.55 0H463V9.11946H251.55C242.546 9.11946 235.222 16.3981 235.222 25.3448V124.074Z" fill="black"/>
<path d="M239.319 101.34H222.445C220.295 101.34 218.551 103.085 218.551 105.238V116.929C218.551 119.082 220.295 120.826 222.445 120.826H239.319C241.469 120.826 243.212 119.082 243.212 116.929V105.238C243.212 103.085 241.469 101.34 239.319 101.34Z" fill="#808080"/>
<path d="M239.319 122.775H222.445C219.225 122.775 216.604 120.152 216.604 116.929V105.237C216.604 102.014 219.225 99.3916 222.445 99.3916H239.319C242.539 99.3916 245.16 102.014 245.16 105.237V116.929C245.16 120.152 242.539 122.775 239.319 122.775ZM222.445 103.289C221.372 103.289 220.498 104.163 220.498 105.237V116.929C220.498 118.003 221.372 118.878 222.445 118.878H239.319C240.392 118.878 241.266 118.003 241.266 116.929V105.237C241.266 104.163 240.392 103.289 239.319 103.289H222.445Z" fill="black"/>
<path d="M251.649 116.929H210.115C207.964 116.929 206.221 118.674 206.221 120.826V152.004C206.221 154.156 207.964 155.901 210.115 155.901H251.649C253.8 155.901 255.543 154.156 255.543 152.004V120.826C255.543 118.674 253.8 116.929 251.649 116.929Z" fill="#999999"/>
<path d="M251.649 157.85H210.115C206.895 157.85 204.274 155.227 204.274 152.004V120.826C204.274 117.603 206.895 114.98 210.115 114.98H251.649C254.87 114.98 257.49 117.603 257.49 120.826V152.004C257.49 155.227 254.87 157.85 251.649 157.85ZM210.115 118.878C209.041 118.878 208.168 119.752 208.168 120.826V152.004C208.168 153.078 209.041 153.953 210.115 153.953H251.649C252.723 153.953 253.596 153.078 253.596 152.004V120.826C253.596 119.752 252.723 118.878 251.649 118.878H210.115Z" fill="black"/>
<path d="M260.086 149.406H201.678C199.528 149.406 197.784 151.151 197.784 153.303V159.798C197.784 161.951 199.528 163.696 201.678 163.696H260.086C262.237 163.696 263.98 161.951 263.98 159.798V153.303C263.98 151.151 262.237 149.406 260.086 149.406Z" fill="#808080"/>
<path d="M260.086 165.644H201.678C198.458 165.644 195.837 163.021 195.837 159.798V153.303C195.837 150.08 198.458 147.457 201.678 147.457H260.086C263.307 147.457 265.927 150.08 265.927 153.303V159.798C265.927 163.021 263.307 165.644 260.086 165.644ZM201.678 151.354C200.605 151.354 199.731 152.229 199.731 153.303V159.798C199.731 160.873 200.605 161.747 201.678 161.747H260.086C261.16 161.747 262.033 160.873 262.033 159.798V153.303C262.033 152.229 261.16 151.354 260.086 151.354H201.678Z" fill="black"/>
<path d="M224.373 217.607C224.373 215.455 222.629 213.71 220.479 213.71C218.328 213.71 216.585 215.455 216.585 217.607V238.392C216.585 240.545 218.328 242.289 220.479 242.289C222.629 242.289 224.373 240.545 224.373 238.392V217.607Z" fill="black"/>
<path d="M247.087 217.607C247.087 215.455 245.344 213.71 243.193 213.71C241.043 213.71 239.299 215.455 239.299 217.607V238.392C239.299 240.545 241.043 242.289 243.193 242.289C245.344 242.289 247.087 240.545 247.087 238.392V217.607Z" fill="black"/>
<path d="M211.45 400H0V390.881H211.45C220.454 390.881 227.779 383.601 227.779 374.655V275.926H236.89V374.655C236.89 388.631 225.479 400 211.45 400Z" fill="black"/>
<path d="M223.399 298.66H240.273C242.423 298.66 244.167 296.915 244.167 294.762V283.071C244.167 280.918 242.423 279.174 240.273 279.174H223.399C221.249 279.174 219.505 280.918 219.505 283.071V294.762C219.505 296.915 221.249 298.66 223.399 298.66Z" fill="#808080"/>
<path d="M240.273 300.608H223.399C220.179 300.608 217.559 297.986 217.559 294.763V283.071C217.559 279.848 220.179 277.225 223.399 277.225H240.273C243.493 277.225 246.114 279.848 246.114 283.071V294.763C246.114 297.986 243.493 300.608 240.273 300.608ZM223.399 281.122C222.326 281.122 221.452 281.997 221.452 283.071V294.763C221.452 295.837 222.326 296.711 223.399 296.711H240.273C241.346 296.711 242.22 295.837 242.22 294.763V283.071C242.22 281.997 241.346 281.122 240.273 281.122H223.399Z" fill="black"/>
<path d="M211.069 283.071H252.604C254.754 283.071 256.498 281.326 256.498 279.174V247.996C256.498 245.844 254.754 244.099 252.604 244.099H211.069C208.918 244.099 207.175 245.844 207.175 247.996V279.174C207.175 281.326 208.918 283.071 211.069 283.071Z" fill="#999999"/>
<path d="M252.604 285.02H211.069C207.849 285.02 205.228 282.397 205.228 279.174V247.996C205.228 244.773 207.849 242.15 211.069 242.15H252.604C255.824 242.15 258.444 244.773 258.444 247.996V279.174C258.444 282.397 255.824 285.02 252.604 285.02ZM211.069 246.048C209.995 246.048 209.122 246.922 209.122 247.996V279.174C209.122 280.248 209.995 281.122 211.069 281.122H252.604C253.677 281.122 254.55 280.248 254.55 279.174V247.996C254.55 246.922 253.677 246.048 252.604 246.048H211.069Z" fill="black"/>
<path d="M202.633 250.594H261.041C263.191 250.594 264.935 248.849 264.935 246.697V240.202C264.935 238.049 263.191 236.304 261.041 236.304H202.633C200.482 236.304 198.739 238.049 198.739 240.202V246.697C198.739 248.849 200.482 250.594 202.633 250.594Z" fill="#808080"/>
<path d="M261.04 252.543H202.632C199.412 252.543 196.792 249.92 196.792 246.697V240.202C196.792 236.979 199.412 234.356 202.632 234.356H261.04C264.261 234.356 266.881 236.979 266.881 240.202V246.697C266.881 249.92 264.261 252.543 261.04 252.543ZM202.632 238.253C201.559 238.253 200.685 239.127 200.685 240.202V246.697C200.685 247.771 201.559 248.646 202.632 248.646H261.04C262.114 248.646 262.987 247.771 262.987 246.697V240.202C262.987 239.127 262.114 238.253 261.04 238.253H202.632Z" fill="black"/>
</g>
<defs>
<clipPath id="clip0_364_1616">
<rect width="463" height="400" fill="white"/>
</clipPath>
</defs>
</svg>
