<svg width="33" height="32" fill="none" xmlns="http://www.w3.org/2000/svg"><path d="M30.368 14.053v8.158a8.158 8.158 0 0 1-8.157 8.158H9.157v0A8.158 8.158 0 0 1 1 22.21v0-1.632M17.316 1H9.158v0A8.158 8.158 0 0 0 1 9.158v1.632" stroke="#323232" stroke-width="2" stroke-linecap="round" stroke-linejoin="round"/><path d="M25.474 15.684h-6.091l-2.828 6.527-5.658-13.053-3.044 6.527H1" stroke="#00ABE9" stroke-width="2" stroke-linecap="round" stroke-linejoin="round"/><path d="M27.131 1.873v0A2.627 2.627 0 0 1 29.13 1v0A2.945 2.945 0 0 1 32 3.937c0 2.955-3.906 5.221-4.869 5.221-.962 0-4.868-2.266-4.868-5.22v-.002c0-1.596 1.275-2.9 2.87-2.936v0c.761-.011 1.49.307 1.998.873v0z" stroke="#323232" stroke-width="2" stroke-linecap="round" stroke-linejoin="round"/></svg>