<svg width="33" height="33" fill="none" xmlns="http://www.w3.org/2000/svg"><path d="M16.593 9.217v7.672l6.03 3.676" stroke="#323232" stroke-width="2" stroke-linecap="round" stroke-linejoin="round"/><path d="M3.084 10.892v0c2.732-7.724 11.207-11.77 18.93-9.04 7.724 2.733 11.771 11.208 9.04 18.932a14.833 14.833 0 0 1-10.59 9.494" stroke="#323232" stroke-width="2" stroke-linecap="round" stroke-linejoin="round"/><path d="M13.057 32H1.861v0A.861.861 0 0 1 1 31.139v-.7 0a3.617 3.617 0 0 1 3.607-3.606h5.705v0a3.617 3.617 0 0 1 3.606 3.606v.7a.861.861 0 0 1-.861.861v0zM7.46 22.527v0a3.445 3.445 0 1 1 3.444-3.46v0a3.445 3.445 0 0 1-3.431 3.46h-.014 0z" stroke="#00ABE9" stroke-width="2" stroke-linecap="round" stroke-linejoin="round"/></svg>