<svg width="36" height="36" fill="none" xmlns="http://www.w3.org/2000/svg"><circle cx="18" cy="18" r="18" fill="#00AAE2"/><path d="M25.729 9.967L7.62 17.201c-.586.234-.55 1.097.053 1.28l4.602 1.393 1.717 5.586c.18.584.9.76 1.318.323l2.38-2.49 4.668 3.513c.57.43 1.384.11 1.53-.6l3.091-15.154c.152-.742-.56-1.36-1.25-1.085zm-2.27 3.363l-8.412 7.625a.467.467 0 0 0-.15.295l-.323 2.951c-.01.097-.142.11-.17.017l-1.333-4.401a.469.469 0 0 1 .194-.531l9.933-6.316c.228-.145.462.177.26.36z" fill="#fff"/></svg>