<svg width="36" height="36" fill="none" xmlns="http://www.w3.org/2000/svg"><circle cx="18" cy="18" r="18" fill="#6F3FAA"/><path d="M28.84 12.471l-.006-.025c-.512-2.069-2.82-4.289-4.938-4.75l-.024-.006a27.44 27.44 0 0 0-10.328 0l-.025.005c-2.118.462-4.425 2.682-4.938 4.75l-.005.026a20.216 20.216 0 0 0 0 8.709l.005.025c.49 1.98 2.626 4.099 4.666 4.681v2.31c0 .835 1.019 1.246 1.598.643l2.34-2.432a27.535 27.535 0 0 0 6.687-.446l.024-.005c2.119-.462 4.426-2.682 4.937-4.75l.007-.026c.632-2.89.632-5.82 0-8.709zm-1.852 8.29c-.342 1.35-2.093 3.028-3.485 3.338a25.579 25.579 0 0 1-5.494.444.13.13 0 0 0-.097.039l-1.708 1.754-1.818 1.865a.213.213 0 0 1-.366-.147v-3.826a.132.132 0 0 0-.107-.13h-.001c-1.392-.31-3.143-1.988-3.486-3.337-.569-2.612-.569-5.26 0-7.87.343-1.35 2.094-3.029 3.486-3.339a25.555 25.555 0 0 1 9.59 0c1.393.31 3.144 1.988 3.486 3.338.57 2.612.57 5.26 0 7.87z" fill="#fff"/><path d="M21.735 22.527c-.214-.065-.418-.109-.608-.187-1.962-.815-3.768-1.865-5.199-3.475-.814-.916-1.45-1.95-1.989-3.043-.255-.52-.47-1.058-.69-1.594-.199-.488.095-.993.405-1.361.291-.346.666-.61 1.071-.805.317-.152.629-.064.86.204.5.58.959 1.19 1.33 1.862.229.414.166.92-.248 1.2-.1.069-.192.15-.286.226a.937.937 0 0 0-.216.228.624.624 0 0 0-.042.548c.51 1.404 1.372 2.495 2.785 3.083.226.094.453.204.713.174.437-.052.578-.53.884-.78.298-.244.68-.247 1.002-.044.322.204.634.423.944.644.305.217.608.429.888.676.27.238.364.55.211.873-.278.59-.683 1.082-1.267 1.396-.165.089-.362.117-.548.175-.214-.065.186-.058 0 0zM18.713 11.387c2.566.072 4.675 1.775 5.127 4.313.077.433.104.875.138 1.313.015.185-.09.36-.289.363-.206.002-.298-.17-.312-.354-.026-.366-.044-.733-.095-1.095-.265-1.912-1.79-3.494-3.694-3.833-.286-.051-.579-.065-.87-.095-.183-.02-.423-.03-.463-.259-.034-.19.127-.343.309-.353.05-.003.099 0 .149 0 2.567.072-.05 0 0 0z" fill="#fff"/><path d="M22.613 16.444c-.004.032-.006.107-.025.178-.068.258-.46.29-.55.03a.772.772 0 0 1-.03-.248c0-.544-.119-1.087-.393-1.56a2.903 2.903 0 0 0-1.218-1.142 3.495 3.495 0 0 0-.97-.298c-.146-.024-.294-.039-.441-.06-.178-.024-.273-.137-.265-.313.008-.165.128-.283.308-.273.589.034 1.158.161 1.681.438 1.065.565 1.674 1.455 1.851 2.643.008.054.021.108.025.162.01.133.017.266.027.443-.004.032-.01-.177 0 0z" fill="#fff"/><path d="M21.017 16.381c-.215.004-.33-.115-.352-.311-.015-.138-.027-.277-.06-.41a1.154 1.154 0 0 0-.426-.668 1.115 1.115 0 0 0-.347-.168c-.157-.046-.32-.033-.478-.071-.17-.042-.265-.18-.238-.34a.308.308 0 0 1 .325-.248c.995.072 1.707.586 1.808 1.758.008.082.016.17-.002.249-.032.135-.132.203-.23.21-.215.003.098-.007 0 0z" fill="#fff"/></svg>