<svg width="44" height="44" fill="none" xmlns="http://www.w3.org/2000/svg"><circle cx="22" cy="22" r="22" fill="#00E676"/><path d="M22.156 7.001c-7.263.346-12.994 6.394-12.972 13.665a13.579 13.579 0 0 0 1.484 6.152L9.22 33.847a.53.53 0 0 0 .643.624l6.887-1.632c1.77.882 3.757 1.39 5.86 1.423 7.424.113 13.613-5.781 13.845-13.202.248-7.954-6.317-14.439-14.3-14.059zm8.218 21.175a10.61 10.61 0 0 1-7.551 3.127c-1.67 0-3.27-.375-4.753-1.113l-.96-.478-4.222 1 .888-4.315-.472-.925a10.559 10.559 0 0 1-1.16-4.848 10.61 10.61 0 0 1 3.127-7.551c1.999-2 4.724-3.128 7.552-3.128a10.61 10.61 0 0 1 7.551 3.127 10.61 10.61 0 0 1 3.128 7.552c0 2.827-1.129 5.553-3.128 7.552z" fill="#fff"/><path d="M29.442 23.583l-2.642-.759a.985.985 0 0 0-.975.257l-.646.658a.962.962 0 0 1-1.046.221c-1.25-.506-3.879-2.843-4.55-4.012a.962.962 0 0 1 .076-1.067l.564-.73a.985.985 0 0 0 .122-1l-1.112-2.514a.985.985 0 0 0-1.538-.352c-.737.624-1.612 1.571-1.718 2.621-.188 1.851.606 4.184 3.607 6.986 3.468 3.237 6.245 3.664 8.054 3.226 1.025-.248 1.845-1.243 2.362-2.059a.986.986 0 0 0-.558-1.476z" fill="#fff"/></svg>