<svg width="182" height="44" viewBox="0 0 182 44" fill="none" xmlns="http://www.w3.org/2000/svg">
<path d="M26.4997 30L5.28204 18L47.7173 18L26.4997 30Z" fill="#0BA7FF"/>
<path fill-rule="evenodd" clip-rule="evenodd" d="M26.4997 26.5534L36.3189 21L16.6804 21L26.4997 26.5534ZM26.4997 30L47.7173 18L5.28204 18L26.4997 30Z" fill="#0BA7FF"/>
<path d="M26.4998 14L47.7175 26H5.28223L26.4998 14Z" fill="#0BA7FF"/>
<path fill-rule="evenodd" clip-rule="evenodd" d="M26.4998 17.4466L16.6806 23H36.3191L26.4998 17.4466ZM26.4998 14L5.28223 26H47.7175L26.4998 14Z" fill="#0BA7FF"/>
<rect x="1.5" y="1.5" width="50" height="41" stroke="#FFEDED" stroke-width="3"/>
<path d="M74.536 6.672C75.2293 6.672 75.832 6.77333 76.344 6.976C76.856 7.168 77.3573 7.46667 77.848 7.872L76.68 9.232C76.04 8.70933 75.368 8.448 74.664 8.448C73.8747 8.448 73.2453 8.77333 72.776 9.424C72.3173 10.064 72.088 11.072 72.088 12.448C72.088 13.792 72.3173 14.7893 72.776 15.44C73.2453 16.08 73.88 16.4 74.68 16.4C75.096 16.4 75.4747 16.3253 75.816 16.176C76.1573 16.016 76.5147 15.792 76.888 15.504L77.976 16.864C77.5813 17.2693 77.0907 17.6053 76.504 17.872C75.928 18.128 75.288 18.256 74.584 18.256C73.592 18.256 72.7227 18.032 71.976 17.584C71.2293 17.136 70.648 16.48 70.232 15.616C69.816 14.7413 69.608 13.6853 69.608 12.448C69.608 11.2427 69.8213 10.208 70.248 9.344C70.6747 8.46933 71.2613 7.808 72.008 7.36C72.7547 6.90133 73.5973 6.672 74.536 6.672ZM84.9739 9.52L84.6859 11.232H82.2859V18H80.0139V11.232H77.4699V9.52H84.9739ZM90.5866 9.264C91.6533 9.264 92.4426 9.65867 92.9546 10.448C93.4773 11.2267 93.7386 12.3253 93.7386 13.744C93.7386 14.608 93.6053 15.3813 93.3386 16.064C93.072 16.7467 92.6826 17.2853 92.1706 17.68C91.6693 18.064 91.072 18.256 90.3786 18.256C89.5146 18.256 88.816 17.952 88.2826 17.344V21.264L86.0106 21.52V9.52H88.0106L88.1226 10.512C88.4426 10.096 88.816 9.78667 89.2426 9.584C89.68 9.37067 90.128 9.264 90.5866 9.264ZM89.7066 16.56C90.816 16.56 91.3706 15.6267 91.3706 13.76C91.3706 12.736 91.248 12.0107 91.0026 11.584C90.7573 11.1573 90.384 10.944 89.8826 10.944C89.5626 10.944 89.264 11.0453 88.9866 11.248C88.72 11.44 88.4853 11.7013 88.2826 12.032V15.728C88.6453 16.2827 89.12 16.56 89.7066 16.56ZM99.1099 9.264C100.379 9.264 101.371 9.664 102.086 10.464C102.801 11.2533 103.158 12.352 103.158 13.76C103.158 14.656 102.993 15.4453 102.662 16.128C102.342 16.8 101.873 17.3227 101.254 17.696C100.646 18.0693 99.9259 18.256 99.0939 18.256C97.8245 18.256 96.8272 17.8613 96.1019 17.072C95.3872 16.272 95.0299 15.168 95.0299 13.76C95.0299 12.864 95.1899 12.08 95.5099 11.408C95.8405 10.7253 96.3099 10.1973 96.9179 9.824C97.5365 9.45067 98.2672 9.264 99.1099 9.264ZM99.1099 10.96C98.5339 10.96 98.1019 11.1893 97.8139 11.648C97.5365 12.096 97.3979 12.8 97.3979 13.76C97.3979 14.72 97.5365 15.4293 97.8139 15.888C98.1019 16.336 98.5285 16.56 99.0939 16.56C99.6592 16.56 100.081 16.336 100.358 15.888C100.646 15.4293 100.79 14.72 100.79 13.76C100.79 12.8 100.651 12.096 100.374 11.648C100.097 11.1893 99.6752 10.96 99.1099 10.96ZM112.134 18H109.958V14.784C109.958 14.176 109.99 13.6 110.054 13.056C110.118 12.512 110.187 12.08 110.262 11.76L107.254 18H104.886V9.52H107.062V12.768C107.062 13.344 107.03 13.9147 106.966 14.48C106.912 15.0347 106.848 15.4613 106.774 15.76L109.734 9.52H112.134V18ZM120.802 9.52L120.514 11.232H118.114V18H115.842V11.232H113.298V9.52H120.802ZM128.601 13.568C128.601 13.6747 128.585 13.968 128.553 14.448H123.257C123.331 15.216 123.539 15.76 123.881 16.08C124.222 16.4 124.686 16.56 125.273 16.56C125.635 16.56 125.977 16.5013 126.297 16.384C126.617 16.2667 126.963 16.08 127.337 15.824L128.281 17.104C127.331 17.872 126.259 18.256 125.065 18.256C123.731 18.256 122.707 17.856 121.993 17.056C121.278 16.256 120.921 15.1733 120.921 13.808C120.921 12.944 121.07 12.1707 121.368 11.488C121.678 10.7947 122.121 10.2507 122.697 9.856C123.283 9.46133 123.977 9.264 124.777 9.264C125.982 9.264 126.921 9.64267 127.593 10.4C128.265 11.1573 128.601 12.2133 128.601 13.568ZM126.345 12.928C126.345 11.52 125.838 10.816 124.825 10.816C124.355 10.816 123.987 10.992 123.721 11.344C123.465 11.6853 123.31 12.2453 123.257 13.024H126.345V12.928ZM137.001 9.52V18H134.729V11.216H132.857L132.681 13.28C132.574 14.496 132.441 15.408 132.281 16.016C132.131 16.6133 131.87 17.0827 131.497 17.424C131.134 17.7547 130.579 18.0107 129.833 18.192L129.289 16.528C129.641 16.3787 129.891 16.2133 130.041 16.032C130.19 15.84 130.297 15.5467 130.361 15.152C130.435 14.7573 130.505 14.0853 130.569 13.136L130.841 9.52H137.001ZM142.237 12.176C143.581 12.176 144.562 12.4267 145.181 12.928C145.81 13.4187 146.125 14.1387 146.125 15.088C146.125 16.0373 145.794 16.7627 145.133 17.264C144.482 17.7547 143.634 18 142.589 18H139.245V9.52H141.517V12.176H142.237ZM142.365 16.464C143.314 16.464 143.789 15.9947 143.789 15.056C143.789 14.5867 143.672 14.24 143.437 14.016C143.202 13.792 142.797 13.68 142.221 13.68H141.517V16.464H142.365ZM152.485 18V14.544H149.861V18H147.589V9.52H149.861V12.832H152.485V9.52H154.757V18H152.485ZM159.827 12.176C161.171 12.176 162.152 12.4267 162.771 12.928C163.4 13.4187 163.715 14.1387 163.715 15.088C163.715 16.0373 163.384 16.7627 162.723 17.264C162.072 17.7547 161.224 18 160.179 18H156.995V9.52H159.267V12.176H159.827ZM164.563 9.52H166.835V18H164.563V9.52ZM159.955 16.464C160.904 16.464 161.379 15.9947 161.379 15.056C161.379 14.5867 161.262 14.24 161.027 14.016C160.792 13.792 160.387 13.68 159.811 13.68H159.267V16.464H159.955ZM176.321 18H174.145V14.784C174.145 14.176 174.177 13.6 174.241 13.056C174.305 12.512 174.374 12.08 174.449 11.76L171.441 18H169.073V9.52H171.249V12.768C171.249 13.344 171.217 13.9147 171.153 14.48C171.1 15.0347 171.036 15.4613 170.961 15.76L173.921 9.52H176.321V18ZM172.689 7.84C171.91 7.84 171.286 7.632 170.817 7.216C170.348 6.78933 170.081 6.224 170.017 5.52L171.313 5.28C171.409 5.62133 171.564 5.86667 171.777 6.016C172.001 6.16533 172.305 6.24 172.689 6.24C173.062 6.24 173.361 6.16533 173.585 6.016C173.809 5.86667 173.974 5.62133 174.081 5.28L175.377 5.52C175.313 6.224 175.041 6.78933 174.561 7.216C174.092 7.632 173.468 7.84 172.689 7.84ZM78.568 25.928L75.752 30.984L78.872 37H76.264L73.768 32.104H72.52V37H70.168V25.928H72.52V30.344H73.816L76.232 25.928H78.568ZM83.2661 28.264C84.5355 28.264 85.5275 28.664 86.2421 29.464C86.9568 30.2533 87.3141 31.352 87.3141 32.76C87.3141 33.656 87.1488 34.4453 86.8181 35.128C86.4981 35.8 86.0288 36.3227 85.4101 36.696C84.8021 37.0693 84.0821 37.256 83.2501 37.256C81.9808 37.256 80.9835 36.8613 80.2581 36.072C79.5435 35.272 79.1861 34.168 79.1861 32.76C79.1861 31.864 79.3461 31.08 79.6661 30.408C79.9968 29.7253 80.4661 29.1973 81.0741 28.824C81.6928 28.4507 82.4235 28.264 83.2661 28.264ZM83.2661 29.96C82.6901 29.96 82.2581 30.1893 81.9701 30.648C81.6928 31.096 81.5541 31.8 81.5541 32.76C81.5541 33.72 81.6928 34.4293 81.9701 34.888C82.2581 35.336 82.6848 35.56 83.2501 35.56C83.8155 35.56 84.2368 35.336 84.5141 34.888C84.8021 34.4293 84.9461 33.72 84.9461 32.76C84.9461 31.8 84.8075 31.096 84.5301 30.648C84.2528 30.1893 83.8315 29.96 83.2661 29.96ZM93.9379 37V33.544H91.3139V37H89.0419V28.52H91.3139V31.832H93.9379V28.52H96.2099V37H93.9379ZM101.984 28.264C102.549 28.264 103.056 28.3493 103.504 28.52C103.963 28.68 104.395 28.936 104.8 29.288L103.808 30.632C103.531 30.4187 103.259 30.264 102.992 30.168C102.736 30.072 102.453 30.024 102.144 30.024C100.939 30.024 100.336 30.952 100.336 32.808C100.336 33.7467 100.491 34.4187 100.8 34.824C101.109 35.2293 101.552 35.432 102.128 35.432C102.427 35.432 102.699 35.3893 102.944 35.304C103.189 35.208 103.477 35.0533 103.808 34.84L104.8 36.264C103.989 36.9253 103.061 37.256 102.016 37.256C101.184 37.256 100.459 37.0747 99.8401 36.712C99.2321 36.3493 98.7628 35.8373 98.4321 35.176C98.1015 34.504 97.9361 33.72 97.9361 32.824C97.9361 31.928 98.1015 31.1387 98.4321 30.456C98.7628 29.7627 99.2321 29.224 99.8401 28.84C100.459 28.456 101.173 28.264 101.984 28.264ZM112.521 28.52L112.233 30.232H109.833V37H107.561V30.232H105.017V28.52H112.521ZM118.134 28.264C119.2 28.264 119.99 28.6587 120.502 29.448C121.024 30.2267 121.286 31.3253 121.286 32.744C121.286 33.608 121.152 34.3813 120.885 35.064C120.619 35.7467 120.23 36.2853 119.718 36.68C119.216 37.064 118.619 37.256 117.926 37.256C117.062 37.256 116.363 36.952 115.83 36.344V40.264L113.558 40.52V28.52H115.558L115.67 29.512C115.99 29.096 116.363 28.7867 116.79 28.584C117.227 28.3707 117.675 28.264 118.134 28.264ZM117.254 35.56C118.363 35.56 118.918 34.6267 118.918 32.76C118.918 31.736 118.795 31.0107 118.55 30.584C118.304 30.1573 117.931 29.944 117.43 29.944C117.11 29.944 116.811 30.0453 116.534 30.248C116.267 30.44 116.032 30.7013 115.83 31.032V34.728C116.192 35.2827 116.667 35.56 117.254 35.56ZM127.347 37.016C127.006 38.0933 126.467 38.9253 125.731 39.512C125.006 40.0987 124.019 40.4347 122.771 40.52L122.531 38.888C123.342 38.7813 123.934 38.5893 124.307 38.312C124.691 38.0347 125.006 37.5973 125.251 37H124.467L121.827 28.52H124.243L125.939 35.528L127.731 28.52H130.083L127.347 37.016ZM138.479 28.52L136.143 32.456L138.703 37H136.255L134.287 33.288H133.439V37H131.167V28.52H133.439V31.848H134.335L136.239 28.52H138.479ZM146.255 28.52L145.967 30.232H143.567V37H141.295V30.232H138.751V28.52H146.255ZM150.454 28.264C151.723 28.264 152.715 28.664 153.43 29.464C154.144 30.2533 154.502 31.352 154.502 32.76C154.502 33.656 154.336 34.4453 154.006 35.128C153.686 35.8 153.216 36.3227 152.598 36.696C151.99 37.0693 151.27 37.256 150.438 37.256C149.168 37.256 148.171 36.8613 147.446 36.072C146.731 35.272 146.374 34.168 146.374 32.76C146.374 31.864 146.534 31.08 146.854 30.408C147.184 29.7253 147.654 29.1973 148.262 28.824C148.88 28.4507 149.611 28.264 150.454 28.264ZM150.454 29.96C149.878 29.96 149.446 30.1893 149.158 30.648C148.88 31.096 148.742 31.8 148.742 32.76C148.742 33.72 148.88 34.4293 149.158 34.888C149.446 35.336 149.872 35.56 150.438 35.56C151.003 35.56 151.424 35.336 151.702 34.888C151.99 34.4293 152.134 33.72 152.134 32.76C152.134 31.8 151.995 31.096 151.718 30.648C151.44 30.1893 151.019 29.96 150.454 29.96ZM160.805 28.264C161.872 28.264 162.661 28.6587 163.173 29.448C163.696 30.2267 163.957 31.3253 163.957 32.744C163.957 33.608 163.824 34.3813 163.557 35.064C163.291 35.7467 162.901 36.2853 162.389 36.68C161.888 37.064 161.291 37.256 160.597 37.256C159.733 37.256 159.035 36.952 158.501 36.344V40.264L156.229 40.52V28.52H158.229L158.341 29.512C158.661 29.096 159.035 28.7867 159.461 28.584C159.899 28.3707 160.347 28.264 160.805 28.264ZM159.925 35.56C161.035 35.56 161.589 34.6267 161.589 32.76C161.589 31.736 161.467 31.0107 161.221 30.584C160.976 30.1573 160.603 29.944 160.101 29.944C159.781 29.944 159.483 30.0453 159.205 30.248C158.939 30.44 158.704 30.7013 158.501 31.032V34.728C158.864 35.2827 159.339 35.56 159.925 35.56Z" fill="white"/>
</svg>
