<svg width="56" height="71" viewBox="0 0 56 71" fill="none" xmlns="http://www.w3.org/2000/svg">
<path d="M27.8917 0.0113501V0C27.8157 0 27.7413 0.00454004 27.667 0.00454004C27.5927 0.00454004 27.5183 0 27.4423 0V0.0113501C12.2462 0.253107 0 12.6378 0 27.8917C0 48.4473 24.1337 67.9581 27.667 70.7304C31.2008 67.9587 55.334 48.4467 55.334 27.8917C55.334 12.6378 43.0884 0.253107 27.8917 0.0113501ZM27.8917 39.8893C19.9404 39.8893 13.4958 33.4459 13.4958 25.4957C13.4958 17.5433 19.9404 11.0987 27.8917 11.0987C35.843 11.0987 42.2882 17.5433 42.2882 25.4957C42.2882 33.4459 35.843 39.8893 27.8917 39.8893Z" fill="#323232"/>
<circle cx="27.6673" cy="25.2608" r="15.8783" fill="white"/>
<path d="M18.3316 34.1719C19.9107 27.9519 24.3614 24.1637 27.8019 22.8289C24.6992 26.4518 22.8897 29.7716 21.1229 35.3349C27.6622 35.7634 30.9663 31.6042 32.0009 25.3319C32.7885 20.5613 33.7265 16.4694 37.7712 15.167C24.1698 14.7831 14.7364 24.9518 18.3316 34.1719Z" fill="#549034"/>
</svg>
