<svg width="171" height="22" viewBox="0 0 171 22" fill="none" xmlns="http://www.w3.org/2000/svg">
<path fill-rule="evenodd" clip-rule="evenodd" d="M109.715 2.3863C110.287 2.38286 111.987 2.22854 112.708 4.67802C113.193 6.32802 113.966 9.0308 115.026 12.7863H115.458C116.595 8.82698 117.376 6.12421 117.802 4.67802C118.529 2.20302 120.348 2.38635 121.076 2.38635L126.69 2.38636V19.9863H120.968V9.61437H120.584L117.395 19.9863H113.089L109.899 9.60668H109.516V19.9863H103.793V2.38636L109.715 2.3863ZM134.908 2.38636V12.766H135.364L139.244 4.2309C139.997 2.53239 141.603 2.38636 141.603 2.38636H147.14V19.9864H141.298V9.60668H140.842L137.038 18.1418C136.285 19.8326 134.603 19.9864 134.603 19.9864H129.066V2.38636H134.908ZM167.332 10.75C166.517 13.077 163.958 14.7436 161.125 14.7436H154.999V19.9864H149.444V10.75H167.332Z" fill="#0F754E"/>
<path fill-rule="evenodd" clip-rule="evenodd" d="M161.393 2.38647H149.152C149.443 6.30483 152.792 9.6592 156.258 9.6592H167.718C168.379 6.40258 166.103 2.38647 161.393 2.38647Z" fill="url(#paint0_linear_348_11288)"/>
<path d="M78.2488 4.41089H70.5034V18.1717H78.2488V4.41089Z" fill="#FF5A00"/>
<path d="M71.019 11.2914C71.019 8.49557 72.3481 6.0142 74.3875 4.41093C72.8866 3.2439 70.9932 2.53857 68.9279 2.53857C64.0355 2.53857 60.0769 6.45325 60.0769 11.2914C60.0769 16.1295 64.0355 20.0442 68.9279 20.0442C70.9932 20.0442 72.8866 19.3388 74.3875 18.1718C72.3452 16.5912 71.019 14.0872 71.019 11.2914Z" fill="#EB001B"/>
<path d="M88.6983 11.2914C88.6983 16.1295 84.7397 20.0442 79.8473 20.0442C77.782 20.0442 75.8886 19.3388 74.3877 18.1718C76.4529 16.5657 77.7562 14.0872 77.7562 11.2914C77.7562 8.49557 76.4272 6.0142 74.3877 4.41093C75.8858 3.2439 77.7792 2.53857 79.8444 2.53857C84.7397 2.53857 88.6983 6.47875 88.6983 11.2914Z" fill="#F79E1B"/>
<g clip-path="url(#clip0_348_11288)">
<path d="M18.3332 17.5741H14.906L17.0496 4.46851H20.4767L18.3332 17.5741Z" fill="#00579F"/>
<path d="M30.7573 4.78867C30.0813 4.5235 29.0091 4.23071 27.6833 4.23071C24.2988 4.23071 21.9155 6.01521 21.9009 8.56651C21.8728 10.4488 23.6073 11.4943 24.9046 12.122C26.2305 12.7633 26.6812 13.1819 26.6812 13.7536C26.6677 14.6316 25.6098 15.0363 24.6231 15.0363C23.2548 15.0363 22.5216 14.8276 21.4074 14.3392L20.9562 14.1298L20.4766 17.0717C21.2804 17.4338 22.7613 17.7551 24.2988 17.7692C27.8949 17.7692 30.2361 16.0123 30.2638 13.2935C30.2775 11.8016 29.3616 10.6584 27.387 9.7243C26.1883 9.12465 25.4543 8.72031 25.4543 8.10676C25.4683 7.54899 26.0751 6.97769 27.4283 6.97769C28.5424 6.94971 29.3611 7.21451 29.9812 7.4795L30.2912 7.61866L30.7573 4.78867Z" fill="#00579F"/>
<path d="M35.3122 12.9313C35.5945 12.1784 36.6805 9.26441 36.6805 9.26441C36.6663 9.29239 36.9622 8.49762 37.1315 8.00971L37.371 9.13896C37.371 9.13896 38.02 12.276 38.1609 12.9313C37.6253 12.9313 35.9892 12.9313 35.3122 12.9313ZM39.5427 4.46851H36.8918C36.0743 4.46851 35.4532 4.70533 35.1005 5.55588L30.0098 17.5739H33.6058C33.6058 17.5739 34.1979 15.9564 34.3251 15.608C34.7196 15.608 38.2179 15.608 38.7254 15.608C38.8238 16.0681 39.1343 17.5739 39.1343 17.5739H42.3076L39.5427 4.46851Z" fill="#00579F"/>
<path d="M12.0435 4.46851L8.68716 13.4053L8.32039 11.5928C7.69987 9.50142 5.75377 7.2292 3.58203 6.09939L6.65635 17.5602H10.2805L15.6675 4.46851H12.0435Z" fill="#00579F"/>
<path d="M5.57047 4.46851H0.056411L0 4.73331C4.30131 5.82087 7.14999 8.44239 8.32038 11.5933L7.12169 5.57015C6.92434 4.73312 6.31788 4.49612 5.57047 4.46851Z" fill="#FAA61A"/>
</g>
<defs>
<linearGradient id="paint0_linear_348_11288" x1="2016.97" y1="459.872" x2="149.152" y2="459.872" gradientUnits="userSpaceOnUse">
<stop stop-color="#1F5CD7"/>
<stop offset="1" stop-color="#02AEFF"/>
</linearGradient>
<clipPath id="clip0_348_11288">
<rect width="42.3077" height="13.5385" fill="white" transform="translate(0 4.23071)"/>
</clipPath>
</defs>
</svg>
