<svg width="35" height="35" viewBox="0 0 35 35" fill="none" xmlns="http://www.w3.org/2000/svg">
<rect x="0.5" y="0.5" width="34" height="34" rx="4.5" stroke="#E0E0E0"/>
<path d="M23.3527 24.9686C24.2625 24.9686 25.0026 24.2285 25.0026 23.3188V21.119C25.0026 20.8821 24.8511 20.6721 24.6266 20.5975L21.3347 19.4976C21.1736 19.4434 20.9974 19.468 20.8557 19.5615L19.4561 20.4943C17.9738 19.7876 16.215 18.0287 15.5082 16.5464L16.441 15.1469C16.535 15.0056 16.5586 14.8289 16.5049 14.6678L15.405 11.3759C15.3304 11.1515 15.1204 11 14.8836 11H12.6471C11.7374 11 10.9973 11.7323 10.9973 12.6421C10.9973 18.9783 17.0166 24.9686 23.3527 24.9686Z" fill="#5CA636"/>
</svg>
