<svg width="58" height="58" fill="none" xmlns="http://www.w3.org/2000/svg"><path d="M56.479 23.954A.94.94 0 0 0 58 23.216v-5.011a.94.94 0 0 0-.358-.738L42.347 5.417a2.935 2.935 0 0 0-3.644 0l-5.757 4.535V8.183a.94.94 0 0 0-.94-.94h-4.008a.94.94 0 0 0-.94.94v6.408l-3.65 2.876a.94.94 0 0 0-.358.738v5.01a.94.94 0 0 0 1.52.739l.484-.381v9.155l-8.763-6.904a2.935 2.935 0 0 0-3.644 0L.358 35.506a.94.94 0 0 0-.358.738v5.01a.94.94 0 0 0 1.521.739l.483-.381v9.727H.94a.94.94 0 0 0 0 1.879h56.12a.94.94 0 0 0 0-1.88h-1.064V23.574l.483.38zM28.937 9.123h2.13v2.31l-2.13 1.677V9.123zM24.93 18.66L39.866 6.892c.388-.306.93-.306 1.318 0L56.12 18.661v2.618L41.106 9.45a.937.937 0 0 0-1.163 0L24.93 21.28v-2.618zM1.879 36.7l11.93-9.4c.389-.306.93-.306 1.319 0l9.926 7.82v2.62L15.05 29.856a.939.939 0 0 0-1.163 0L1.88 39.318V36.7zm2.004 3.431l10.586-8.34 10.585 8.34V51.34H20.92V40.252a.94.94 0 0 0-.94-.939H8.958a.94.94 0 0 0-.94.94v11.086H3.883V40.13zm6.013 5.07h9.145v2.13H9.896V45.2zm9.145-1.88H9.896v-2.13h9.145v2.13zM9.896 49.21h9.145v2.13H9.896v-2.13zm27.184-4.882a.943.943 0 0 0-1.002.936.943.943 0 0 0 .94.94l.062-.003v5.139h-4.134V39.188h4.134v5.139zm17.037 7.012H38.959v-13.09a.94.94 0 0 0-.94-.94h-6.012a.94.94 0 0 0-.94.94v13.09h-4.134V22.092l13.592-10.708 13.592 10.708V51.34z" fill="#303133"/><path d="M43.03 47.205h6.013a.94.94 0 0 0 .94-.94v-8.017a.94.94 0 0 0-.94-.94H43.03a.94.94 0 0 0-.94.94v8.017c0 .52.421.94.94.94zm.94-1.88v-3.13h4.134v3.13H43.97zm4.134-6.137v1.127H43.97v-1.127h4.134zM43.03 33.175h6.013a.94.94 0 0 0 .94-.94v-8.017a.94.94 0 0 0-.94-.94H43.03a.94.94 0 0 0-.94.94v8.017c0 .519.421.94.94.94zm.94-1.88v-3.131h4.134v3.132H43.97zm4.134-6.138v1.128H43.97v-1.128h4.134zM38.02 23.278h-6.014a.94.94 0 0 0-.939.94v8.017c0 .519.42.94.94.94h6.012a.94.94 0 0 0 .94-.94v-8.017a.94.94 0 0 0-.94-.94zm-.94 1.88v1.127h-4.134v-1.128h4.134zm-4.134 6.138v-3.132h4.134v3.132h-4.134z" fill="#303133"/></svg>