<svg width="58" height="58" fill="none" xmlns="http://www.w3.org/2000/svg"><path d="M57.033 2.9h-6.767V.968A.967.967 0 0 0 49.3.001h-9.667a.967.967 0 0 0-.967.966v1.934H.966A.967.967 0 0 0 0 3.867v3.867c0 .534.433.967.967.967h2.9v18.366c0 .535.432.967.966.967a.967.967 0 1 1-.966.966H1.933c.003.708.266 1.39.74 1.916L.193 34.22l.013.01A.947.947 0 0 0 0 34.8v3.866c0 .257.102.502.283.684l1.934 1.933a.967.967 0 0 0 .683.283h3.867a.967.967 0 0 0 .683-.283l1.933-1.933a.966.966 0 0 0 .284-.684V34.8a.947.947 0 0 0-.206-.57l.012-.01-2.48-3.304a2.882 2.882 0 0 0-1.193-4.65V8.701h32.866v.966c0 .535.433.967.967.967h1.933v45.433H37.7V17.401h-1.934v3.866h-5.8v-1.933h-1.933v1.933h-5.8v-.966H20.3v.966h-5.8v-2.9h12.567v-1.933H14.5v-3.867h-1.933v43.5h-1.534l-4.55-4.55a.966.966 0 0 0-1.366 0l-4.55 4.55H0V58h58v-1.933h-.754a2.873 2.873 0 0 0-1.393-4.721 2.9 2.9 0 1 0-5.374 0 2.873 2.873 0 0 0-1.392 4.721h-1.72V10.634H49.3a.966.966 0 0 0 .966-.967v-.966h6.767A.966.966 0 0 0 58 7.734V3.867a.967.967 0 0 0-.967-.966zm-51.716 29l1.45 1.934H2.9L4.35 31.9h.967zm2.416 6.367l-1.367 1.367H3.3l-1.367-1.367v-2.5h5.8v2.5zM52.877 4.834l-2.61 1.74v-1.74h2.61zM40.6 1.934h3.866v3.867H40.6V1.934zM14.5 5.028l2.61 1.74h-5.22l2.61-1.74zM8.7 6.574l-2.61-1.74h5.22L8.7 6.574zm8.99-1.74h5.22l-2.61 1.74-2.61-1.74zm8.41.194l2.61 1.74h-5.22l2.61-1.74zm3.19-.194h5.22l-2.61 1.74-2.61-1.74zm-27.357 0h.677l2.9 1.933H1.933V4.834zM35.09 6.767l2.9-1.933h.676v1.933H35.09zm10.343 46.11l-1.74-2.61 1.74-2.61v5.22zm0-23.2l-1.74-2.61 1.74-2.61v5.22zm-1.933.58l1.74 2.61-1.74 2.61v-5.22zm0-6.38v-5.22l1.74 2.61-1.74 2.61zm0 17.98l1.74 2.61-1.74 2.61v-5.22zm1.933-.585l-1.74-2.605 1.74-2.61v5.215zm-1.74-25.805l1.74-2.61v5.22l-1.74-2.61zm-.193-3.19v-1.643h1.094L43.5 12.277zm-7.734 10.924v9.666h-5.8v-9.666h5.8zm-7.733 0v8.313l-2.223-2.197a.97.97 0 0 0-.677-.28h-2.9v-5.836h5.8zm-7.733 0v1.611h-5.8v-1.611h5.8zM5.8 53.567l2.5 2.5h-5l2.5-2.5zm8.7 2.5V26.745h5.8v3.263c0 .534.433.966.966.966h3.47l3.587 3.548c.18.178.423.278.677.279h6.766v21.266H14.5zm29-2.61l1.74 2.61H43.5v-2.61zM55.1 55.1a.966.966 0 1 1-.001-1.933.966.966 0 0 1 0 1.933zm-1.934-5.8a.967.967 0 1 1 0 1.934.967.967 0 0 1 0-1.934zm-1.933 3.867a.967.967 0 1 1 0 1.933.967.967 0 0 1 0-1.933zm-2.9-44.466H40.6v-.967h4.833a.966.966 0 0 0 .967-.967V1.934h1.933v6.767zm5.123-1.934l2.61-1.74v1.74h-2.61z" fill="#303133"/></svg>