<svg width="981" height="366" viewBox="0 0 981 366" fill="none" xmlns="http://www.w3.org/2000/svg">
<g filter="url(#filter0_ddd_109_4908)">
<rect x="8" y="7" width="965" height="350" rx="15" fill="#090A17"/>
<rect x="8" y="7" width="965" height="350" rx="15" fill="white" fill-opacity="0.08"/>
</g>
<path d="M708.033 323.273V332H706.976V324.381H706.925L704.794 325.795V324.722L706.976 323.273H708.033ZM710.943 332V331.233L713.824 328.08C714.162 327.71 714.44 327.389 714.659 327.116C714.878 326.841 715.04 326.582 715.145 326.341C715.253 326.097 715.307 325.841 715.307 325.574C715.307 325.267 715.233 325.001 715.085 324.777C714.94 324.553 714.741 324.379 714.489 324.257C714.236 324.135 713.952 324.074 713.636 324.074C713.301 324.074 713.008 324.143 712.758 324.283C712.511 324.419 712.319 324.611 712.183 324.858C712.05 325.105 711.983 325.395 711.983 325.727H710.977C710.977 325.216 711.095 324.767 711.331 324.381C711.567 323.994 711.888 323.693 712.294 323.477C712.703 323.261 713.162 323.153 713.67 323.153C714.182 323.153 714.635 323.261 715.03 323.477C715.425 323.693 715.734 323.984 715.959 324.351C716.183 324.717 716.295 325.125 716.295 325.574C716.295 325.895 716.237 326.209 716.121 326.516C716.007 326.82 715.808 327.159 715.524 327.534C715.243 327.906 714.852 328.361 714.352 328.898L712.392 330.994V331.062H716.449V332H710.943ZM725.878 323.273H726.935V329.511C726.935 330.068 726.833 330.541 726.628 330.93C726.423 331.32 726.135 331.615 725.763 331.817C725.391 332.018 724.952 332.119 724.446 332.119C723.969 332.119 723.544 332.033 723.172 331.859C722.8 331.683 722.507 331.433 722.294 331.109C722.081 330.786 721.975 330.401 721.975 329.955H723.014C723.014 330.202 723.075 330.418 723.198 330.602C723.323 330.784 723.493 330.926 723.709 331.028C723.925 331.131 724.171 331.182 724.446 331.182C724.75 331.182 725.009 331.118 725.222 330.99C725.435 330.862 725.597 330.675 725.708 330.428C725.821 330.178 725.878 329.872 725.878 329.511V323.273ZM733.441 329.324V325.455H734.447V332H733.441V330.892H733.373C733.22 331.224 732.981 331.507 732.657 331.74C732.333 331.97 731.924 332.085 731.43 332.085C731.021 332.085 730.657 331.996 730.339 331.817C730.021 331.635 729.771 331.362 729.589 330.999C729.407 330.632 729.316 330.17 729.316 329.614V325.455H730.322V329.545C730.322 330.023 730.456 330.403 730.723 330.688C730.992 330.972 731.336 331.114 731.754 331.114C732.004 331.114 732.258 331.05 732.517 330.922C732.778 330.794 732.997 330.598 733.173 330.334C733.352 330.07 733.441 329.733 733.441 329.324ZM737.695 328.062V332H736.689V325.455H737.661V326.477H737.746C737.899 326.145 738.132 325.878 738.445 325.676C738.757 325.472 739.161 325.369 739.655 325.369C740.098 325.369 740.486 325.46 740.818 325.642C741.151 325.821 741.409 326.094 741.594 326.46C741.778 326.824 741.871 327.284 741.871 327.841V332H740.865V327.909C740.865 327.395 740.732 326.994 740.465 326.707C740.198 326.418 739.831 326.273 739.365 326.273C739.044 326.273 738.757 326.342 738.504 326.482C738.254 326.621 738.057 326.824 737.912 327.091C737.767 327.358 737.695 327.682 737.695 328.062ZM746.853 332.136C746.222 332.136 745.678 331.997 745.221 331.719C744.766 331.438 744.415 331.045 744.168 330.543C743.924 330.037 743.802 329.449 743.802 328.778C743.802 328.108 743.924 327.517 744.168 327.006C744.415 326.491 744.759 326.091 745.199 325.804C745.643 325.514 746.16 325.369 746.751 325.369C747.091 325.369 747.428 325.426 747.761 325.54C748.093 325.653 748.395 325.838 748.668 326.094C748.941 326.347 749.158 326.682 749.32 327.099C749.482 327.517 749.563 328.031 749.563 328.642V329.068H744.518V328.199H748.54C748.54 327.83 748.466 327.5 748.319 327.21C748.174 326.92 747.966 326.692 747.697 326.524C747.43 326.357 747.114 326.273 746.751 326.273C746.35 326.273 746.003 326.372 745.711 326.571C745.421 326.767 745.198 327.023 745.042 327.338C744.886 327.653 744.807 327.991 744.807 328.352V328.932C744.807 329.426 744.893 329.845 745.063 330.189C745.236 330.53 745.476 330.79 745.783 330.969C746.09 331.145 746.447 331.233 746.853 331.233C747.117 331.233 747.356 331.196 747.569 331.122C747.785 331.045 747.971 330.932 748.127 330.781C748.283 330.628 748.404 330.437 748.489 330.21L749.461 330.483C749.359 330.812 749.187 331.102 748.945 331.352C748.704 331.599 748.405 331.793 748.05 331.932C747.695 332.068 747.296 332.136 746.853 332.136Z" fill="white" fill-opacity="0.87"/>
<path d="M837.437 323.273V332H836.38V324.381H836.329L834.198 325.795V324.722L836.38 323.273H837.437ZM843.296 332.119C842.733 332.119 842.232 332.023 841.791 331.83C841.354 331.636 841.006 331.368 840.747 331.024C840.492 330.678 840.353 330.276 840.33 329.818H841.404C841.426 330.099 841.523 330.342 841.693 330.547C841.864 330.749 842.087 330.905 842.362 331.016C842.638 331.126 842.943 331.182 843.279 331.182C843.654 331.182 843.986 331.116 844.276 330.986C844.566 330.855 844.793 330.673 844.958 330.44C845.122 330.207 845.205 329.938 845.205 329.631C845.205 329.31 845.125 329.027 844.966 328.783C844.807 328.536 844.574 328.342 844.267 328.203C843.961 328.064 843.586 327.994 843.142 327.994H842.443V327.057H843.142C843.489 327.057 843.793 326.994 844.054 326.869C844.318 326.744 844.524 326.568 844.672 326.341C844.823 326.114 844.898 325.847 844.898 325.54C844.898 325.244 844.833 324.987 844.702 324.768C844.571 324.55 844.387 324.379 844.148 324.257C843.912 324.135 843.634 324.074 843.313 324.074C843.012 324.074 842.728 324.129 842.461 324.24C842.196 324.348 841.98 324.506 841.813 324.713C841.645 324.918 841.554 325.165 841.54 325.455H840.517C840.534 324.997 840.672 324.597 840.931 324.253C841.189 323.906 841.527 323.636 841.945 323.443C842.365 323.25 842.827 323.153 843.33 323.153C843.87 323.153 844.333 323.263 844.719 323.482C845.105 323.697 845.402 323.983 845.61 324.338C845.817 324.693 845.921 325.077 845.921 325.489C845.921 325.98 845.791 326.399 845.533 326.746C845.277 327.092 844.929 327.332 844.489 327.466V327.534C845.04 327.625 845.47 327.859 845.78 328.237C846.09 328.612 846.245 329.077 846.245 329.631C846.245 330.105 846.115 330.531 845.857 330.909C845.601 331.284 845.252 331.58 844.809 331.795C844.365 332.011 843.861 332.119 843.296 332.119ZM855.657 323.273H856.714V329.511C856.714 330.068 856.611 330.541 856.407 330.93C856.202 331.32 855.914 331.615 855.542 331.817C855.17 332.018 854.731 332.119 854.225 332.119C853.748 332.119 853.323 332.033 852.951 331.859C852.579 331.683 852.286 331.433 852.073 331.109C851.86 330.786 851.753 330.401 851.753 329.955H852.793C852.793 330.202 852.854 330.418 852.976 330.602C853.101 330.784 853.272 330.926 853.488 331.028C853.704 331.131 853.949 331.182 854.225 331.182C854.529 331.182 854.787 331.118 855.001 330.99C855.214 330.862 855.376 330.675 855.486 330.428C855.6 330.178 855.657 329.872 855.657 329.511V323.273ZM863.22 329.324V325.455H864.226V332H863.22V330.892H863.152C862.999 331.224 862.76 331.507 862.436 331.74C862.112 331.97 861.703 332.085 861.209 332.085C860.8 332.085 860.436 331.996 860.118 331.817C859.8 331.635 859.55 331.362 859.368 330.999C859.186 330.632 859.095 330.17 859.095 329.614V325.455H860.101V329.545C860.101 330.023 860.234 330.403 860.501 330.688C860.771 330.972 861.115 331.114 861.533 331.114C861.783 331.114 862.037 331.05 862.295 330.922C862.557 330.794 862.776 330.598 862.952 330.334C863.131 330.07 863.22 329.733 863.22 329.324ZM867.473 328.062V332H866.468V325.455H867.439V326.477H867.525C867.678 326.145 867.911 325.878 868.223 325.676C868.536 325.472 868.939 325.369 869.434 325.369C869.877 325.369 870.265 325.46 870.597 325.642C870.929 325.821 871.188 326.094 871.373 326.46C871.557 326.824 871.65 327.284 871.65 327.841V332H870.644V327.909C870.644 327.395 870.51 326.994 870.243 326.707C869.976 326.418 869.61 326.273 869.144 326.273C868.823 326.273 868.536 326.342 868.283 326.482C868.033 326.621 867.836 326.824 867.691 327.091C867.546 327.358 867.473 327.682 867.473 328.062ZM876.632 332.136C876.001 332.136 875.457 331.997 875 331.719C874.545 331.438 874.194 331.045 873.947 330.543C873.703 330.037 873.581 329.449 873.581 328.778C873.581 328.108 873.703 327.517 873.947 327.006C874.194 326.491 874.538 326.091 874.978 325.804C875.421 325.514 875.938 325.369 876.529 325.369C876.87 325.369 877.207 325.426 877.539 325.54C877.872 325.653 878.174 325.838 878.447 326.094C878.72 326.347 878.937 326.682 879.099 327.099C879.261 327.517 879.342 328.031 879.342 328.642V329.068H874.296V328.199H878.319C878.319 327.83 878.245 327.5 878.098 327.21C877.953 326.92 877.745 326.692 877.475 326.524C877.208 326.357 876.893 326.273 876.529 326.273C876.129 326.273 875.782 326.372 875.49 326.571C875.2 326.767 874.977 327.023 874.821 327.338C874.664 327.653 874.586 327.991 874.586 328.352V328.932C874.586 329.426 874.671 329.845 874.842 330.189C875.015 330.53 875.255 330.79 875.562 330.969C875.869 331.145 876.225 331.233 876.632 331.233C876.896 331.233 877.135 331.196 877.348 331.122C877.563 331.045 877.75 330.932 877.906 330.781C878.062 330.628 878.183 330.437 878.268 330.21L879.24 330.483C879.137 330.812 878.965 331.102 878.724 331.352C878.483 331.599 878.184 331.793 877.829 331.932C877.474 332.068 877.075 332.136 876.632 332.136Z" fill="white" fill-opacity="0.87"/>
<path d="M581.344 323.273V332H580.287V324.381H580.236L578.106 325.795V324.722L580.287 323.273H581.344ZM587.322 323.273V332H586.265V324.381H586.214L584.084 325.795V324.722L586.265 323.273H587.322ZM597.502 323.273H598.558V329.511C598.558 330.068 598.456 330.541 598.252 330.93C598.047 331.32 597.759 331.615 597.386 331.817C597.014 332.018 596.575 332.119 596.07 332.119C595.592 332.119 595.168 332.033 594.796 331.859C594.423 331.683 594.131 331.433 593.918 331.109C593.705 330.786 593.598 330.401 593.598 329.955H594.638C594.638 330.202 594.699 330.418 594.821 330.602C594.946 330.784 595.117 330.926 595.333 331.028C595.548 331.131 595.794 331.182 596.07 331.182C596.374 331.182 596.632 331.118 596.845 330.99C597.058 330.862 597.22 330.675 597.331 330.428C597.445 330.178 597.502 329.872 597.502 329.511V323.273ZM605.065 329.324V325.455H606.071V332H605.065V330.892H604.997C604.843 331.224 604.605 331.507 604.281 331.74C603.957 331.97 603.548 332.085 603.054 332.085C602.644 332.085 602.281 331.996 601.963 331.817C601.644 331.635 601.394 331.362 601.213 330.999C601.031 330.632 600.94 330.17 600.94 329.614V325.455H601.946V329.545C601.946 330.023 602.079 330.403 602.346 330.688C602.616 330.972 602.96 331.114 603.377 331.114C603.627 331.114 603.882 331.05 604.14 330.922C604.402 330.794 604.62 330.598 604.796 330.334C604.975 330.07 605.065 329.733 605.065 329.324ZM609.318 328.062V332H608.313V325.455H609.284V326.477H609.369C609.523 326.145 609.756 325.878 610.068 325.676C610.381 325.472 610.784 325.369 611.278 325.369C611.722 325.369 612.109 325.46 612.442 325.642C612.774 325.821 613.033 326.094 613.217 326.46C613.402 326.824 613.494 327.284 613.494 327.841V332H612.489V327.909C612.489 327.395 612.355 326.994 612.088 326.707C611.821 326.418 611.455 326.273 610.989 326.273C610.668 326.273 610.381 326.342 610.128 326.482C609.878 326.621 609.68 326.824 609.536 327.091C609.391 327.358 609.318 327.682 609.318 328.062ZM618.476 332.136C617.846 332.136 617.302 331.997 616.844 331.719C616.39 331.438 616.039 331.045 615.792 330.543C615.547 330.037 615.425 329.449 615.425 328.778C615.425 328.108 615.547 327.517 615.792 327.006C616.039 326.491 616.383 326.091 616.823 325.804C617.266 325.514 617.783 325.369 618.374 325.369C618.715 325.369 619.052 325.426 619.384 325.54C619.716 325.653 620.019 325.838 620.292 326.094C620.564 326.347 620.782 326.682 620.944 327.099C621.106 327.517 621.187 328.031 621.187 328.642V329.068H616.141V328.199H620.164C620.164 327.83 620.09 327.5 619.942 327.21C619.797 326.92 619.59 326.692 619.32 326.524C619.053 326.357 618.738 326.273 618.374 326.273C617.974 326.273 617.627 326.372 617.334 326.571C617.045 326.767 616.822 327.023 616.665 327.338C616.509 327.653 616.431 327.991 616.431 328.352V328.932C616.431 329.426 616.516 329.845 616.687 330.189C616.86 330.53 617.1 330.79 617.407 330.969C617.714 331.145 618.07 331.233 618.476 331.233C618.741 331.233 618.979 331.196 619.192 331.122C619.408 331.045 619.594 330.932 619.751 330.781C619.907 330.628 620.028 330.437 620.113 330.21L621.084 330.483C620.982 330.812 620.81 331.102 620.569 331.352C620.327 331.599 620.029 331.793 619.674 331.932C619.319 332.068 618.92 332.136 618.476 332.136Z" fill="white" fill-opacity="0.87"/>
<path d="M452.845 323.273V332H451.788V324.381H451.737L449.606 325.795V324.722L451.788 323.273H452.845ZM458.602 332.119C457.96 332.119 457.413 331.945 456.961 331.595C456.509 331.243 456.164 330.733 455.926 330.065C455.687 329.395 455.568 328.585 455.568 327.636C455.568 326.693 455.687 325.888 455.926 325.22C456.167 324.55 456.514 324.038 456.965 323.686C457.42 323.331 457.965 323.153 458.602 323.153C459.238 323.153 459.782 323.331 460.234 323.686C460.688 324.038 461.035 324.55 461.274 325.22C461.515 325.888 461.636 326.693 461.636 327.636C461.636 328.585 461.516 329.395 461.278 330.065C461.039 330.733 460.694 331.243 460.242 331.595C459.791 331.945 459.244 332.119 458.602 332.119ZM458.602 331.182C459.238 331.182 459.732 330.875 460.085 330.261C460.437 329.648 460.613 328.773 460.613 327.636C460.613 326.881 460.532 326.237 460.37 325.706C460.211 325.175 459.981 324.77 459.68 324.491C459.381 324.213 459.022 324.074 458.602 324.074C457.971 324.074 457.478 324.385 457.123 325.007C456.768 325.626 456.59 326.503 456.59 327.636C456.59 328.392 456.67 329.034 456.829 329.562C456.988 330.091 457.217 330.493 457.515 330.768C457.816 331.044 458.178 331.182 458.602 331.182ZM470.924 323.273H471.981V329.511C471.981 330.068 471.879 330.541 471.674 330.93C471.47 331.32 471.181 331.615 470.809 331.817C470.437 332.018 469.998 332.119 469.493 332.119C469.015 332.119 468.591 332.033 468.218 331.859C467.846 331.683 467.554 331.433 467.341 331.109C467.128 330.786 467.021 330.401 467.021 329.955H468.061C468.061 330.202 468.122 330.418 468.244 330.602C468.369 330.784 468.539 330.926 468.755 331.028C468.971 331.131 469.217 331.182 469.493 331.182C469.797 331.182 470.055 331.118 470.268 330.99C470.481 330.862 470.643 330.675 470.754 330.428C470.868 330.178 470.924 329.872 470.924 329.511V323.273ZM478.488 329.324V325.455H479.493V332H478.488V330.892H478.42C478.266 331.224 478.028 331.507 477.704 331.74C477.38 331.97 476.971 332.085 476.476 332.085C476.067 332.085 475.704 331.996 475.385 331.817C475.067 331.635 474.817 331.362 474.635 330.999C474.454 330.632 474.363 330.17 474.363 329.614V325.455H475.368V329.545C475.368 330.023 475.502 330.403 475.769 330.688C476.039 330.972 476.383 331.114 476.8 331.114C477.05 331.114 477.305 331.05 477.563 330.922C477.824 330.794 478.043 330.598 478.219 330.334C478.398 330.07 478.488 329.733 478.488 329.324ZM482.741 328.062V332H481.735V325.455H482.707V326.477H482.792C482.946 326.145 483.179 325.878 483.491 325.676C483.804 325.472 484.207 325.369 484.701 325.369C485.144 325.369 485.532 325.46 485.865 325.642C486.197 325.821 486.456 326.094 486.64 326.46C486.825 326.824 486.917 327.284 486.917 327.841V332H485.912V327.909C485.912 327.395 485.778 326.994 485.511 326.707C485.244 326.418 484.877 326.273 484.412 326.273C484.091 326.273 483.804 326.342 483.551 326.482C483.301 326.621 483.103 326.824 482.958 327.091C482.814 327.358 482.741 327.682 482.741 328.062ZM491.899 332.136C491.269 332.136 490.725 331.997 490.267 331.719C489.813 331.438 489.462 331.045 489.215 330.543C488.97 330.037 488.848 329.449 488.848 328.778C488.848 328.108 488.97 327.517 489.215 327.006C489.462 326.491 489.805 326.091 490.246 325.804C490.689 325.514 491.206 325.369 491.797 325.369C492.138 325.369 492.475 325.426 492.807 325.54C493.139 325.653 493.442 325.838 493.715 326.094C493.987 326.347 494.205 326.682 494.367 327.099C494.529 327.517 494.609 328.031 494.609 328.642V329.068H489.564V328.199H493.587C493.587 327.83 493.513 327.5 493.365 327.21C493.22 326.92 493.013 326.692 492.743 326.524C492.476 326.357 492.161 326.273 491.797 326.273C491.396 326.273 491.05 326.372 490.757 326.571C490.467 326.767 490.244 327.023 490.088 327.338C489.932 327.653 489.854 327.991 489.854 328.352V328.932C489.854 329.426 489.939 329.845 490.109 330.189C490.283 330.53 490.523 330.79 490.83 330.969C491.136 331.145 491.493 331.233 491.899 331.233C492.163 331.233 492.402 331.196 492.615 331.122C492.831 331.045 493.017 330.932 493.173 330.781C493.33 330.628 493.45 330.437 493.536 330.21L494.507 330.483C494.405 330.812 494.233 331.102 493.992 331.352C493.75 331.599 493.452 331.793 493.097 331.932C492.742 332.068 492.342 332.136 491.899 332.136Z" fill="white" fill-opacity="0.87"/>
<path d="M331.296 323.153C331.654 323.156 332.012 323.224 332.37 323.358C332.728 323.491 333.055 323.713 333.35 324.023C333.646 324.33 333.883 324.749 334.062 325.28C334.241 325.811 334.33 326.477 334.33 327.278C334.33 328.054 334.256 328.743 334.109 329.345C333.964 329.945 333.753 330.45 333.478 330.862C333.205 331.274 332.873 331.587 332.481 331.8C332.092 332.013 331.651 332.119 331.16 332.119C330.671 332.119 330.235 332.023 329.851 331.83C329.471 331.634 329.158 331.362 328.914 331.016C328.672 330.666 328.518 330.261 328.449 329.801H329.489C329.583 330.202 329.769 330.533 330.047 330.794C330.329 331.053 330.699 331.182 331.16 331.182C331.833 331.182 332.364 330.888 332.753 330.3C333.146 329.712 333.342 328.881 333.342 327.807H333.273C333.114 328.045 332.925 328.251 332.707 328.425C332.488 328.598 332.245 328.732 331.978 328.825C331.711 328.919 331.427 328.966 331.126 328.966C330.626 328.966 330.167 328.842 329.749 328.595C329.334 328.345 329.002 328.003 328.752 327.568C328.505 327.131 328.381 326.631 328.381 326.068C328.381 325.534 328.501 325.045 328.739 324.602C328.981 324.156 329.319 323.801 329.753 323.537C330.191 323.273 330.705 323.145 331.296 323.153ZM331.296 324.091C330.938 324.091 330.616 324.18 330.329 324.359C330.045 324.536 329.819 324.774 329.651 325.075C329.486 325.374 329.404 325.705 329.404 326.068C329.404 326.432 329.484 326.763 329.643 327.061C329.805 327.357 330.025 327.592 330.303 327.768C330.584 327.942 330.904 328.028 331.262 328.028C331.532 328.028 331.783 327.976 332.016 327.871C332.249 327.763 332.452 327.616 332.626 327.432C332.802 327.244 332.94 327.033 333.039 326.797C333.138 326.558 333.188 326.31 333.188 326.051C333.188 325.71 333.106 325.391 332.941 325.092C332.779 324.794 332.555 324.553 332.268 324.368C331.984 324.183 331.66 324.091 331.296 324.091ZM343.675 323.273H344.732V329.511C344.732 330.068 344.63 330.541 344.425 330.93C344.221 331.32 343.932 331.615 343.56 331.817C343.188 332.018 342.749 332.119 342.243 332.119C341.766 332.119 341.341 332.033 340.969 331.859C340.597 331.683 340.305 331.433 340.091 331.109C339.878 330.786 339.772 330.401 339.772 329.955H340.812C340.812 330.202 340.873 330.418 340.995 330.602C341.12 330.784 341.29 330.926 341.506 331.028C341.722 331.131 341.968 331.182 342.243 331.182C342.547 331.182 342.806 331.118 343.019 330.99C343.232 330.862 343.394 330.675 343.505 330.428C343.618 330.178 343.675 329.872 343.675 329.511V323.273ZM351.239 329.324V325.455H352.244V332H351.239V330.892H351.17C351.017 331.224 350.778 331.507 350.455 331.74C350.131 331.97 349.722 332.085 349.227 332.085C348.818 332.085 348.455 331.996 348.136 331.817C347.818 331.635 347.568 331.362 347.386 330.999C347.205 330.632 347.114 330.17 347.114 329.614V325.455H348.119V329.545C348.119 330.023 348.253 330.403 348.52 330.688C348.79 330.972 349.134 331.114 349.551 331.114C349.801 331.114 350.055 331.05 350.314 330.922C350.575 330.794 350.794 330.598 350.97 330.334C351.149 330.07 351.239 329.733 351.239 329.324ZM355.492 328.062V332H354.486V325.455H355.458V326.477H355.543C355.697 326.145 355.929 325.878 356.242 325.676C356.554 325.472 356.958 325.369 357.452 325.369C357.895 325.369 358.283 325.46 358.616 325.642C358.948 325.821 359.206 326.094 359.391 326.46C359.576 326.824 359.668 327.284 359.668 327.841V332H358.662V327.909C358.662 327.395 358.529 326.994 358.262 326.707C357.995 326.418 357.628 326.273 357.162 326.273C356.841 326.273 356.554 326.342 356.302 326.482C356.052 326.621 355.854 326.824 355.709 327.091C355.564 327.358 355.492 327.682 355.492 328.062ZM364.65 332.136C364.019 332.136 363.475 331.997 363.018 331.719C362.563 331.438 362.213 331.045 361.965 330.543C361.721 330.037 361.599 329.449 361.599 328.778C361.599 328.108 361.721 327.517 361.965 327.006C362.213 326.491 362.556 326.091 362.997 325.804C363.44 325.514 363.957 325.369 364.548 325.369C364.889 325.369 365.225 325.426 365.558 325.54C365.89 325.653 366.193 325.838 366.465 326.094C366.738 326.347 366.956 326.682 367.117 327.099C367.279 327.517 367.36 328.031 367.36 328.642V329.068H362.315V328.199H366.338C366.338 327.83 366.264 327.5 366.116 327.21C365.971 326.92 365.764 326.692 365.494 326.524C365.227 326.357 364.911 326.273 364.548 326.273C364.147 326.273 363.801 326.372 363.508 326.571C363.218 326.767 362.995 327.023 362.839 327.338C362.683 327.653 362.605 327.991 362.605 328.352V328.932C362.605 329.426 362.69 329.845 362.86 330.189C363.034 330.53 363.274 330.79 363.581 330.969C363.887 331.145 364.244 331.233 364.65 331.233C364.914 331.233 365.153 331.196 365.366 331.122C365.582 331.045 365.768 330.932 365.924 330.781C366.081 330.628 366.201 330.437 366.286 330.21L367.258 330.483C367.156 330.812 366.984 331.102 366.742 331.352C366.501 331.599 366.203 331.793 365.848 331.932C365.492 332.068 365.093 332.136 364.65 332.136Z" fill="white" fill-opacity="0.87"/>
<path d="M210.053 332.119C209.468 332.119 208.951 332.016 208.502 331.808C208.056 331.598 207.708 331.31 207.458 330.943C207.208 330.574 207.085 330.153 207.087 329.682C207.085 329.312 207.157 328.972 207.305 328.659C207.453 328.344 207.654 328.081 207.91 327.871C208.168 327.658 208.457 327.523 208.775 327.466V327.415C208.357 327.307 208.025 327.072 207.778 326.712C207.531 326.348 207.408 325.935 207.411 325.472C207.408 325.028 207.521 324.632 207.748 324.283C207.975 323.933 208.288 323.658 208.685 323.456C209.086 323.254 209.542 323.153 210.053 323.153C210.559 323.153 211.011 323.254 211.408 323.456C211.806 323.658 212.119 323.933 212.346 324.283C212.576 324.632 212.693 325.028 212.695 325.472C212.693 325.935 212.566 326.348 212.316 326.712C212.069 327.072 211.741 327.307 211.332 327.415V327.466C211.647 327.523 211.931 327.658 212.184 327.871C212.437 328.081 212.639 328.344 212.789 328.659C212.94 328.972 213.016 329.312 213.019 329.682C213.016 330.153 212.889 330.574 212.636 330.943C212.386 331.31 212.038 331.598 211.592 331.808C211.149 332.016 210.636 332.119 210.053 332.119ZM210.053 331.182C210.448 331.182 210.789 331.118 211.076 330.99C211.363 330.862 211.585 330.682 211.741 330.449C211.897 330.216 211.977 329.943 211.979 329.631C211.977 329.301 211.891 329.01 211.724 328.757C211.556 328.504 211.328 328.305 211.038 328.161C210.751 328.016 210.423 327.943 210.053 327.943C209.681 327.943 209.349 328.016 209.056 328.161C208.766 328.305 208.538 328.504 208.37 328.757C208.205 329.01 208.124 329.301 208.127 329.631C208.124 329.943 208.2 330.216 208.353 330.449C208.509 330.682 208.732 330.862 209.022 330.99C209.312 331.118 209.656 331.182 210.053 331.182ZM210.053 327.04C210.366 327.04 210.643 326.977 210.884 326.852C211.129 326.727 211.32 326.553 211.46 326.328C211.599 326.104 211.67 325.841 211.673 325.54C211.67 325.244 211.6 324.987 211.464 324.768C211.328 324.547 211.139 324.376 210.897 324.257C210.656 324.135 210.374 324.074 210.053 324.074C209.727 324.074 209.441 324.135 209.197 324.257C208.953 324.376 208.764 324.547 208.63 324.768C208.497 324.987 208.431 325.244 208.434 325.54C208.431 325.841 208.498 326.104 208.634 326.328C208.774 326.553 208.965 326.727 209.21 326.852C209.454 326.977 209.735 327.04 210.053 327.04ZM222.322 323.273H223.379V329.511C223.379 330.068 223.276 330.541 223.072 330.93C222.867 331.32 222.579 331.615 222.207 331.817C221.835 332.018 221.396 332.119 220.89 332.119C220.413 332.119 219.988 332.033 219.616 331.859C219.244 331.683 218.951 331.433 218.738 331.109C218.525 330.786 218.418 330.401 218.418 329.955H219.458C219.458 330.202 219.519 330.418 219.641 330.602C219.766 330.784 219.937 330.926 220.153 331.028C220.369 331.131 220.614 331.182 220.89 331.182C221.194 331.182 221.452 331.118 221.666 330.99C221.879 330.862 222.041 330.675 222.151 330.428C222.265 330.178 222.322 329.872 222.322 329.511V323.273ZM229.885 329.324V325.455H230.891V332H229.885V330.892H229.817C229.664 331.224 229.425 331.507 229.101 331.74C228.777 331.97 228.368 332.085 227.874 332.085C227.465 332.085 227.101 331.996 226.783 331.817C226.465 331.635 226.215 331.362 226.033 330.999C225.851 330.632 225.76 330.17 225.76 329.614V325.455H226.766V329.545C226.766 330.023 226.899 330.403 227.166 330.688C227.436 330.972 227.78 331.114 228.198 331.114C228.448 331.114 228.702 331.05 228.96 330.922C229.222 330.794 229.441 330.598 229.617 330.334C229.796 330.07 229.885 329.733 229.885 329.324ZM234.138 328.062V332H233.133V325.455H234.104V326.477H234.19C234.343 326.145 234.576 325.878 234.888 325.676C235.201 325.472 235.604 325.369 236.099 325.369C236.542 325.369 236.93 325.46 237.262 325.642C237.594 325.821 237.853 326.094 238.038 326.46C238.222 326.824 238.315 327.284 238.315 327.841V332H237.309V327.909C237.309 327.395 237.175 326.994 236.908 326.707C236.641 326.418 236.275 326.273 235.809 326.273C235.488 326.273 235.201 326.342 234.948 326.482C234.698 326.621 234.501 326.824 234.356 327.091C234.211 327.358 234.138 327.682 234.138 328.062ZM243.297 332.136C242.666 332.136 242.122 331.997 241.665 331.719C241.21 331.438 240.859 331.045 240.612 330.543C240.368 330.037 240.245 329.449 240.245 328.778C240.245 328.108 240.368 327.517 240.612 327.006C240.859 326.491 241.203 326.091 241.643 325.804C242.086 325.514 242.603 325.369 243.194 325.369C243.535 325.369 243.872 325.426 244.204 325.54C244.537 325.653 244.839 325.838 245.112 326.094C245.385 326.347 245.602 326.682 245.764 327.099C245.926 327.517 246.007 328.031 246.007 328.642V329.068H240.961V328.199H244.984C244.984 327.83 244.91 327.5 244.763 327.21C244.618 326.92 244.41 326.692 244.14 326.524C243.873 326.357 243.558 326.273 243.194 326.273C242.794 326.273 242.447 326.372 242.155 326.571C241.865 326.767 241.642 327.023 241.486 327.338C241.329 327.653 241.251 327.991 241.251 328.352V328.932C241.251 329.426 241.336 329.845 241.507 330.189C241.68 330.53 241.92 330.79 242.227 330.969C242.534 331.145 242.89 331.233 243.297 331.233C243.561 331.233 243.799 331.196 244.013 331.122C244.228 331.045 244.415 330.932 244.571 330.781C244.727 330.628 244.848 330.437 244.933 330.21L245.905 330.483C245.802 330.812 245.63 331.102 245.389 331.352C245.147 331.599 244.849 331.793 244.494 331.932C244.139 332.068 243.74 332.136 243.297 332.136Z" fill="white" fill-opacity="0.87"/>
<path d="M87.1761 332L91.0795 324.278V324.21H86.5795V323.273H92.1705V324.261L88.2841 332H87.1761ZM101.428 323.273H102.485V329.511C102.485 330.068 102.383 330.541 102.178 330.93C101.974 331.32 101.685 331.615 101.313 331.817C100.941 332.018 100.502 332.119 99.9964 332.119C99.5191 332.119 99.0944 332.033 98.7222 331.859C98.3501 331.683 98.0575 331.433 97.8444 331.109C97.6313 330.786 97.5248 330.401 97.5248 329.955H98.5646C98.5646 330.202 98.6256 330.418 98.7478 330.602C98.8728 330.784 99.0433 330.926 99.2592 331.028C99.4751 331.131 99.7208 331.182 99.9964 331.182C100.3 331.182 100.559 331.118 100.772 330.99C100.985 330.862 101.147 330.675 101.258 330.428C101.371 330.178 101.428 329.872 101.428 329.511V323.273ZM108.992 329.324V325.455H109.997V332H108.992V330.892H108.923C108.77 331.224 108.531 331.507 108.207 331.74C107.884 331.97 107.475 332.085 106.98 332.085C106.571 332.085 106.207 331.996 105.889 331.817C105.571 331.635 105.321 331.362 105.139 330.999C104.957 330.632 104.867 330.17 104.867 329.614V325.455H105.872V329.545C105.872 330.023 106.006 330.403 106.273 330.688C106.543 330.972 106.886 331.114 107.304 331.114C107.554 331.114 107.808 331.05 108.067 330.922C108.328 330.794 108.547 330.598 108.723 330.334C108.902 330.07 108.992 329.733 108.992 329.324ZM113.245 328.062V332H112.239V325.455H113.211V326.477H113.296C113.449 326.145 113.682 325.878 113.995 325.676C114.307 325.472 114.711 325.369 115.205 325.369C115.648 325.369 116.036 325.46 116.368 325.642C116.701 325.821 116.959 326.094 117.144 326.46C117.329 326.824 117.421 327.284 117.421 327.841V332H116.415V327.909C116.415 327.395 116.282 326.994 116.015 326.707C115.748 326.418 115.381 326.273 114.915 326.273C114.594 326.273 114.307 326.342 114.055 326.482C113.805 326.621 113.607 326.824 113.462 327.091C113.317 327.358 113.245 327.682 113.245 328.062ZM122.403 332.136C121.772 332.136 121.228 331.997 120.771 331.719C120.316 331.438 119.966 331.045 119.718 330.543C119.474 330.037 119.352 329.449 119.352 328.778C119.352 328.108 119.474 327.517 119.718 327.006C119.966 326.491 120.309 326.091 120.75 325.804C121.193 325.514 121.71 325.369 122.301 325.369C122.642 325.369 122.978 325.426 123.311 325.54C123.643 325.653 123.946 325.838 124.218 326.094C124.491 326.347 124.708 326.682 124.87 327.099C125.032 327.517 125.113 328.031 125.113 328.642V329.068H120.068V328.199H124.091C124.091 327.83 124.017 327.5 123.869 327.21C123.724 326.92 123.517 326.692 123.247 326.524C122.98 326.357 122.664 326.273 122.301 326.273C121.9 326.273 121.554 326.372 121.261 326.571C120.971 326.767 120.748 327.023 120.592 327.338C120.436 327.653 120.358 327.991 120.358 328.352V328.932C120.358 329.426 120.443 329.845 120.613 330.189C120.787 330.53 121.027 330.79 121.333 330.969C121.64 331.145 121.997 331.233 122.403 331.233C122.667 331.233 122.906 331.196 123.119 331.122C123.335 331.045 123.521 330.932 123.677 330.781C123.833 330.628 123.954 330.437 124.039 330.21L125.011 330.483C124.909 330.812 124.737 331.102 124.495 331.352C124.254 331.599 123.956 331.793 123.6 331.932C123.245 332.068 122.846 332.136 122.403 332.136Z" fill="white" fill-opacity="0.87"/>
<path d="M24.1136 272.273V281H23.0568V272.273H24.1136ZM26.6326 272.273H27.894L30.8599 279.517H30.9621L33.9281 272.273H35.1894V281H34.2008V274.369H34.1156L31.3883 281H30.4337L27.7065 274.369H27.6212V281H26.6326V272.273ZM38.0663 272.273L40.6572 279.619H40.7595L43.3504 272.273H44.4584L41.2538 281H40.1629L36.9584 272.273H38.0663ZM52.7882 281.119C52.2257 281.119 51.7243 281.023 51.2839 280.83C50.8464 280.636 50.4984 280.368 50.2399 280.024C49.9842 279.678 49.845 279.276 49.8223 278.818H50.8962C50.9189 279.099 51.0155 279.342 51.1859 279.547C51.3564 279.749 51.5794 279.905 51.855 280.016C52.1305 280.126 52.4359 280.182 52.7712 280.182C53.1462 280.182 53.4786 280.116 53.7683 279.986C54.0581 279.855 54.2854 279.673 54.4501 279.44C54.6149 279.207 54.6973 278.938 54.6973 278.631C54.6973 278.31 54.6178 278.027 54.4587 277.783C54.2996 277.536 54.0666 277.342 53.7598 277.203C53.453 277.064 53.078 276.994 52.6348 276.994H51.9359V276.057H52.6348C52.9814 276.057 53.2854 275.994 53.5467 275.869C53.8109 275.744 54.0169 275.568 54.1646 275.341C54.3152 275.114 54.3905 274.847 54.3905 274.54C54.3905 274.244 54.3251 273.987 54.1945 273.768C54.0638 273.55 53.8791 273.379 53.6405 273.257C53.4047 273.135 53.1263 273.074 52.8053 273.074C52.5041 273.074 52.22 273.129 51.953 273.24C51.6888 273.348 51.4729 273.506 51.3053 273.713C51.1376 273.918 51.0467 274.165 51.0325 274.455H50.0098C50.0268 273.997 50.1646 273.597 50.4232 273.253C50.6817 272.906 51.0197 272.636 51.4374 272.443C51.8578 272.25 52.3195 272.153 52.8223 272.153C53.3621 272.153 53.8251 272.263 54.2115 272.482C54.5979 272.697 54.8947 272.983 55.1021 273.338C55.3095 273.693 55.4132 274.077 55.4132 274.489C55.4132 274.98 55.2839 275.399 55.0254 275.746C54.7697 276.092 54.4217 276.332 53.9814 276.466V276.534C54.5325 276.625 54.9629 276.859 55.2726 277.237C55.5822 277.612 55.7371 278.077 55.7371 278.631C55.7371 279.105 55.6078 279.531 55.3493 279.909C55.0936 280.284 54.7442 280.58 54.301 280.795C53.8578 281.011 53.3536 281.119 52.7882 281.119Z" fill="white" fill-opacity="0.87"/>
<path d="M24.1136 232.273V241H23.0568V232.273H24.1136ZM26.6326 232.273H27.894L30.8599 239.517H30.9621L33.9281 232.273H35.1894V241H34.2008V234.369H34.1156L31.3883 241H30.4337L27.7065 234.369H27.6212V241H26.6326V232.273ZM38.0663 232.273L40.6572 239.619H40.7595L43.3504 232.273H44.4584L41.2538 241H40.1629L36.9584 232.273H38.0663ZM52.7371 241.119C52.3791 241.114 52.0212 241.045 51.6632 240.915C51.3053 240.784 50.9786 240.564 50.6831 240.254C50.3876 239.942 50.1504 239.52 49.9714 238.989C49.7925 238.455 49.703 237.784 49.703 236.977C49.703 236.205 49.7754 235.52 49.9203 234.923C50.0652 234.324 50.2754 233.82 50.551 233.411C50.8266 232.999 51.1589 232.686 51.5482 232.473C51.9402 232.26 52.382 232.153 52.8734 232.153C53.3621 232.153 53.7967 232.251 54.1774 232.447C54.5609 232.641 54.8734 232.911 55.1149 233.257C55.3564 233.604 55.5126 234.003 55.5837 234.455H54.5439C54.4473 234.062 54.2598 233.737 53.9814 233.479C53.703 233.22 53.3337 233.091 52.8734 233.091C52.1973 233.091 51.6646 233.385 51.2754 233.973C50.8891 234.561 50.6945 235.386 50.6916 236.449H50.7598C50.9189 236.207 51.1078 236.001 51.3266 235.831C51.5482 235.658 51.7925 235.524 52.0595 235.43C52.3266 235.337 52.6092 235.29 52.9075 235.29C53.4075 235.29 53.8649 235.415 54.2797 235.665C54.6945 235.912 55.0268 236.254 55.2768 236.692C55.5268 237.126 55.6518 237.625 55.6518 238.188C55.6518 238.727 55.5311 239.222 55.2896 239.67C55.0482 240.116 54.7087 240.472 54.2712 240.736C53.8365 240.997 53.3251 241.125 52.7371 241.119ZM52.7371 240.182C53.095 240.182 53.4161 240.092 53.7001 239.913C53.9871 239.734 54.2129 239.494 54.3777 239.193C54.5453 238.892 54.6291 238.557 54.6291 238.188C54.6291 237.827 54.5482 237.499 54.3862 237.203C54.2271 236.905 54.007 236.668 53.7257 236.491C53.4473 236.315 53.1291 236.227 52.7712 236.227C52.5013 236.227 52.2499 236.281 52.0169 236.389C51.7839 236.494 51.5794 236.639 51.4033 236.824C51.23 237.009 51.0936 237.22 50.9942 237.459C50.8947 237.695 50.845 237.943 50.845 238.205C50.845 238.551 50.926 238.875 51.0879 239.176C51.2527 239.477 51.4771 239.72 51.7612 239.905C52.0482 240.089 52.3734 240.182 52.7371 240.182Z" fill="white" fill-opacity="0.87"/>
<path d="M24.1136 192.273V201H23.0568V192.273H24.1136ZM26.6326 192.273H27.894L30.8599 199.517H30.9621L33.9281 192.273H35.1894V201H34.2008V194.369H34.1156L31.3883 201H30.4337L27.7065 194.369H27.6212V201H26.6326V192.273ZM38.0663 192.273L40.6572 199.619H40.7595L43.3504 192.273H44.4584L41.2538 201H40.1629L36.9584 192.273H38.0663ZM52.6178 192.153C52.9757 192.156 53.3337 192.224 53.6916 192.358C54.0496 192.491 54.3763 192.713 54.6717 193.023C54.9672 193.33 55.2044 193.749 55.3834 194.28C55.5624 194.811 55.6518 195.477 55.6518 196.278C55.6518 197.054 55.578 197.743 55.4303 198.345C55.2854 198.945 55.0751 199.45 54.7996 199.862C54.5268 200.274 54.1945 200.587 53.8024 200.8C53.4132 201.013 52.9729 201.119 52.4814 201.119C51.9928 201.119 51.5567 201.023 51.1732 200.83C50.7925 200.634 50.48 200.362 50.2357 200.016C49.9942 199.666 49.8393 199.261 49.7712 198.801H50.8109C50.9047 199.202 51.0908 199.533 51.3692 199.794C51.6504 200.053 52.0212 200.182 52.4814 200.182C53.1547 200.182 53.6859 199.888 54.0751 199.3C54.4672 198.712 54.6632 197.881 54.6632 196.807H54.595C54.4359 197.045 54.247 197.251 54.0283 197.425C53.8095 197.598 53.5666 197.732 53.2996 197.825C53.0325 197.919 52.7484 197.966 52.4473 197.966C51.9473 197.966 51.4885 197.842 51.0709 197.595C50.6561 197.345 50.3237 197.003 50.0737 196.568C49.8266 196.131 49.703 195.631 49.703 195.068C49.703 194.534 49.8223 194.045 50.0609 193.602C50.3024 193.156 50.6405 192.801 51.0751 192.537C51.5126 192.273 52.0268 192.145 52.6178 192.153ZM52.6178 193.091C52.2598 193.091 51.9374 193.18 51.6504 193.359C51.3663 193.536 51.1405 193.774 50.9729 194.075C50.8081 194.374 50.7257 194.705 50.7257 195.068C50.7257 195.432 50.8053 195.763 50.9643 196.061C51.1263 196.357 51.3464 196.592 51.6249 196.768C51.9061 196.942 52.2257 197.028 52.5837 197.028C52.8536 197.028 53.105 196.976 53.3379 196.871C53.5709 196.763 53.774 196.616 53.9473 196.432C54.1234 196.244 54.2612 196.033 54.3607 195.797C54.4601 195.558 54.5098 195.31 54.5098 195.051C54.5098 194.71 54.4274 194.391 54.2626 194.092C54.1007 193.794 53.8763 193.553 53.5893 193.368C53.3053 193.183 52.9814 193.091 52.6178 193.091Z" fill="white" fill-opacity="0.87"/>
<path d="M18.1136 151.273V160H17.0568V151.273H18.1136ZM20.6326 151.273H21.894L24.8599 158.517H24.9621L27.9281 151.273H29.1894V160H28.2008V153.369H28.1156L25.3883 160H24.4337L21.7065 153.369H21.6212V160H20.6326V151.273ZM32.0663 151.273L34.6572 158.619H34.7595L37.3504 151.273H38.4584L35.2538 160H34.1629L30.9584 151.273H32.0663ZM46.9075 151.273V160H45.8507V152.381H45.7996L43.6689 153.795V152.722L45.8507 151.273H46.9075ZM49.8175 160V159.233L52.6982 156.08C53.0362 155.71 53.3146 155.389 53.5334 155.116C53.7521 154.841 53.9141 154.582 54.0192 154.341C54.1271 154.097 54.1811 153.841 54.1811 153.574C54.1811 153.267 54.1072 153.001 53.9595 152.777C53.8146 152.553 53.6158 152.379 53.3629 152.257C53.1101 152.135 52.826 152.074 52.5107 152.074C52.1754 152.074 51.8828 152.143 51.6328 152.283C51.3857 152.419 51.1939 152.611 51.0575 152.858C50.924 153.105 50.8572 153.395 50.8572 153.727H49.8516C49.8516 153.216 49.9695 152.767 50.2053 152.381C50.4411 151.994 50.7621 151.693 51.1683 151.477C51.5774 151.261 52.0362 151.153 52.5447 151.153C53.0561 151.153 53.5092 151.261 53.9041 151.477C54.299 151.693 54.6087 151.984 54.8331 152.351C55.0575 152.717 55.1697 153.125 55.1697 153.574C55.1697 153.895 55.1115 154.209 54.995 154.516C54.8814 154.82 54.6825 155.159 54.3984 155.534C54.1172 155.906 53.7266 156.361 53.2266 156.898L51.2663 158.994V159.062H55.3232V160H49.8175Z" fill="white" fill-opacity="0.87"/>
<path d="M18.1136 110.273V119H17.0568V110.273H18.1136ZM20.6326 110.273H21.894L24.8599 117.517H24.9621L27.9281 110.273H29.1894V119H28.2008V112.369H28.1156L25.3883 119H24.4337L21.7065 112.369H21.6212V119H20.6326V110.273ZM32.0663 110.273L34.6572 117.619H34.7595L37.3504 110.273H38.4584L35.2538 119H34.1629L30.9584 110.273H32.0663ZM46.9075 110.273V119H45.8507V111.381H45.7996L43.6689 112.795V111.722L45.8507 110.273H46.9075ZM52.5447 119.119C52.0447 119.119 51.5945 119.02 51.1939 118.821C50.7933 118.622 50.4723 118.349 50.2308 118.003C49.9893 117.656 49.8572 117.261 49.8345 116.818H50.8572C50.897 117.213 51.076 117.54 51.3942 117.798C51.7152 118.054 52.0987 118.182 52.5447 118.182C52.9027 118.182 53.2209 118.098 53.4993 117.93C53.7805 117.763 54.0007 117.533 54.1598 117.24C54.3217 116.945 54.4027 116.611 54.4027 116.239C54.4027 115.858 54.3189 115.518 54.1513 115.22C53.9865 114.919 53.7592 114.682 53.4695 114.509C53.1797 114.335 52.8487 114.247 52.4766 114.244C52.2095 114.241 51.9354 114.283 51.6541 114.368C51.3729 114.45 51.1413 114.557 50.9595 114.688L49.9709 114.568L50.4993 110.273H55.0334V111.21H51.3857L51.0788 113.784H51.13C51.3089 113.642 51.5334 113.524 51.8033 113.43C52.0732 113.337 52.3544 113.29 52.647 113.29C53.1811 113.29 53.657 113.418 54.0746 113.673C54.495 113.926 54.8246 114.273 55.0632 114.713C55.3047 115.153 55.4254 115.656 55.4254 116.222C55.4254 116.778 55.3004 117.276 55.0504 117.713C54.8033 118.148 54.4624 118.491 54.0277 118.744C53.593 118.994 53.0987 119.119 52.5447 119.119Z" fill="white" fill-opacity="0.87"/>
<path d="M18.1136 71.2727V80H17.0568V71.2727H18.1136ZM20.6326 71.2727H21.894L24.8599 78.517H24.9621L27.9281 71.2727H29.1894V80H28.2008V73.3693H28.1156L25.3883 80H24.4337L21.7065 73.3693H21.6212V80H20.6326V71.2727ZM32.0663 71.2727L34.6572 78.6193H34.7595L37.3504 71.2727H38.4584L35.2538 80H34.1629L30.9584 71.2727H32.0663ZM46.9075 71.2727V80H45.8507V72.3807H45.7996L43.6689 73.7955V72.7216L45.8507 71.2727H46.9075ZM52.6129 80.1193C52.0277 80.1193 51.5107 80.0156 51.0618 79.8082C50.6158 79.598 50.2678 79.3097 50.0178 78.9432C49.7678 78.5739 49.6442 78.1534 49.647 77.6818C49.6442 77.3125 49.7166 76.9716 49.8643 76.6591C50.0121 76.3437 50.2138 76.081 50.4695 75.8707C50.728 75.6577 51.0163 75.5227 51.3345 75.4659V75.4148C50.9169 75.3068 50.5845 75.0724 50.3374 74.7116C50.0902 74.348 49.968 73.9347 49.9709 73.4716C49.968 73.0284 50.0803 72.6321 50.3075 72.2827C50.5348 71.9332 50.8473 71.6577 51.245 71.456C51.6456 71.2543 52.1016 71.1534 52.6129 71.1534C53.1186 71.1534 53.5703 71.2543 53.968 71.456C54.3658 71.6577 54.6783 71.9332 54.9055 72.2827C55.1357 72.6321 55.2521 73.0284 55.255 73.4716C55.2521 73.9347 55.1257 74.348 54.8757 74.7116C54.6286 75.0724 54.3004 75.3068 53.8913 75.4148V75.4659C54.2067 75.5227 54.4908 75.6577 54.7436 75.8707C54.9964 76.081 55.1982 76.3437 55.3487 76.6591C55.4993 76.9716 55.576 77.3125 55.5788 77.6818C55.576 78.1534 55.4482 78.5739 55.1953 78.9432C54.9453 79.3097 54.5973 79.598 54.1513 79.8082C53.7081 80.0156 53.1953 80.1193 52.6129 80.1193ZM52.6129 79.1818C53.0078 79.1818 53.3487 79.1179 53.6357 78.9901C53.9226 78.8622 54.1442 78.6818 54.3004 78.4489C54.4567 78.2159 54.5362 77.9432 54.5391 77.6307C54.5362 77.3011 54.451 77.0099 54.2834 76.7571C54.1158 76.5043 53.8871 76.3054 53.5973 76.1605C53.3104 76.0156 52.9822 75.9432 52.6129 75.9432C52.2408 75.9432 51.9084 76.0156 51.6158 76.1605C51.326 76.3054 51.0973 76.5043 50.9297 76.7571C50.7649 77.0099 50.6839 77.3011 50.6868 77.6307C50.6839 77.9432 50.7592 78.2159 50.9126 78.4489C51.0689 78.6818 51.2919 78.8622 51.5817 78.9901C51.8714 79.1179 52.2152 79.1818 52.6129 79.1818ZM52.6129 75.0398C52.9254 75.0398 53.2024 74.9773 53.4439 74.8523C53.6882 74.7273 53.88 74.5526 54.0192 74.3281C54.1584 74.1037 54.2294 73.8409 54.2322 73.5398C54.2294 73.2443 54.1598 72.9872 54.0234 72.7685C53.8871 72.5469 53.6982 72.3764 53.4567 72.2571C53.2152 72.1349 52.9339 72.0739 52.6129 72.0739C52.2862 72.0739 52.0007 72.1349 51.7564 72.2571C51.5121 72.3764 51.3232 72.5469 51.1896 72.7685C51.0561 72.9872 50.9908 73.2443 50.9936 73.5398C50.9908 73.8409 51.0575 74.1037 51.1939 74.3281C51.3331 74.5526 51.5249 74.7273 51.7692 74.8523C52.0135 74.9773 52.2947 75.0398 52.6129 75.0398Z" fill="white" fill-opacity="0.87"/>
<path d="M60.5 56.5V315.5H895.5" stroke="white" stroke-opacity="0.87" stroke-linecap="round"/>
<path d="M61 276.5H896" stroke="white" stroke-opacity="0.2" stroke-width="0.2" stroke-linecap="round"/>
<path d="M896 236.5H61" stroke="white" stroke-opacity="0.2" stroke-width="0.2" stroke-linecap="round"/>
<path d="M61 196.5H896" stroke="white" stroke-opacity="0.2" stroke-width="0.2" stroke-linecap="round"/>
<path d="M895.5 156H60.5" stroke="white" stroke-opacity="0.2" stroke-width="0.2" stroke-linecap="round"/>
<path d="M61 116H896" stroke="white" stroke-opacity="0.2" stroke-width="0.2" stroke-linecap="round"/>
<path d="M895.5 76H60.5" stroke="white" stroke-opacity="0.2" stroke-width="0.2" stroke-linecap="round"/>
<path d="M61 258C61 258 60.9055 255.412 119.082 219.456C177.259 183.5 204.215 281.955 268.011 238.478C331.806 195 383.611 39.112 421.407 88.306C459.204 137.5 521.858 131 565.868 176.407C609.878 221.813 664.571 180.912 725.137 219.456C785.703 258 895 120.343 895 120.343" stroke="#9FA3EF" stroke-linecap="round"/>
<path d="M119.082 219.643C60.9055 255.599 61 258.187 61 258.187V315.687H895V120.529C895 120.529 785.703 258.187 725.137 219.643C664.571 181.098 609.878 222 565.868 176.593C521.858 131.187 459.204 137.687 421.407 88.4926C383.611 39.2986 331.806 195.187 268.011 238.664C204.215 282.142 177.259 183.687 119.082 219.643Z" fill="url(#paint0_linear_109_4908)"/>
<path d="M94.598 57V42.4545H99.7827C100.914 42.4545 101.852 42.6605 102.595 43.0724C103.339 43.4844 103.895 44.0478 104.264 44.7628C104.634 45.473 104.818 46.2732 104.818 47.1634C104.818 48.0582 104.631 48.8632 104.257 49.5781C103.888 50.2884 103.329 50.8518 102.581 51.2685C101.838 51.6804 100.902 51.8864 99.7756 51.8864H96.2102V50.0256H99.5767C100.292 50.0256 100.872 49.9025 101.317 49.6562C101.762 49.4053 102.089 49.0644 102.297 48.6335C102.505 48.2027 102.609 47.7126 102.609 47.1634C102.609 46.6141 102.505 46.1264 102.297 45.7003C102.089 45.2741 101.759 44.9403 101.31 44.6989C100.865 44.4574 100.277 44.3366 99.5483 44.3366H96.7926V57H94.598ZM107.371 57V46.0909H109.423V47.8239H109.537C109.736 47.2367 110.086 46.7751 110.588 46.4389C111.094 46.098 111.667 45.9276 112.307 45.9276C112.439 45.9276 112.595 45.9323 112.775 45.9418C112.96 45.9512 113.104 45.9631 113.209 45.9773V48.0085C113.123 47.9848 112.972 47.9588 112.754 47.9304C112.536 47.8973 112.318 47.8807 112.101 47.8807C111.599 47.8807 111.151 47.9872 110.758 48.2003C110.37 48.4086 110.062 48.6998 109.835 49.0739C109.608 49.4432 109.494 49.8646 109.494 50.3381V57H107.371ZM115.196 57V46.0909H117.32V57H115.196ZM116.269 44.4077C115.899 44.4077 115.582 44.2846 115.317 44.0384C115.057 43.7874 114.926 43.4891 114.926 43.1435C114.926 42.7931 115.057 42.4948 115.317 42.2486C115.582 41.9976 115.899 41.8722 116.269 41.8722C116.638 41.8722 116.953 41.9976 117.213 42.2486C117.479 42.4948 117.611 42.7931 117.611 43.1435C117.611 43.4891 117.479 43.7874 117.213 44.0384C116.953 44.2846 116.638 44.4077 116.269 44.4077ZM124.922 57.2202C123.866 57.2202 122.957 56.9811 122.195 56.5028C121.437 56.0199 120.855 55.3546 120.448 54.5071C120.04 53.6596 119.837 52.6889 119.837 51.5952C119.837 50.4872 120.045 49.5095 120.462 48.6619C120.878 47.8097 121.466 47.1444 122.223 46.6662C122.981 46.188 123.873 45.9489 124.901 45.9489C125.729 45.9489 126.468 46.1027 127.117 46.4105C127.765 46.7135 128.288 47.1397 128.686 47.6889C129.089 48.2382 129.328 48.8797 129.403 49.6136H127.337C127.223 49.1023 126.963 48.6619 126.555 48.2926C126.153 47.9233 125.613 47.7386 124.936 47.7386C124.344 47.7386 123.826 47.8949 123.381 48.2074C122.94 48.5152 122.597 48.9555 122.351 49.5284C122.105 50.0966 121.982 50.7689 121.982 51.5455C121.982 52.3409 122.102 53.0275 122.344 53.6051C122.585 54.1828 122.926 54.6302 123.367 54.9474C123.812 55.2647 124.335 55.4233 124.936 55.4233C125.339 55.4233 125.703 55.3499 126.03 55.2031C126.361 55.0516 126.638 54.8362 126.861 54.5568C127.088 54.2775 127.247 53.9413 127.337 53.5483H129.403C129.328 54.2538 129.098 54.8835 128.715 55.4375C128.331 55.9915 127.817 56.4271 127.173 56.7443C126.534 57.0616 125.784 57.2202 124.922 57.2202ZM136.526 57.2202C135.451 57.2202 134.526 56.9905 133.749 56.5312C132.977 56.0672 132.381 55.4162 131.959 54.5781C131.543 53.7353 131.334 52.7481 131.334 51.6165C131.334 50.4991 131.543 49.5142 131.959 48.6619C132.381 47.8097 132.968 47.1444 133.721 46.6662C134.478 46.188 135.364 45.9489 136.377 45.9489C136.993 45.9489 137.589 46.0507 138.167 46.2543C138.744 46.4579 139.263 46.7775 139.722 47.2131C140.181 47.6487 140.544 48.2145 140.809 48.9105C141.074 49.6018 141.207 50.4422 141.207 51.4318V52.1847H132.535V50.5938H139.126C139.126 50.035 139.012 49.5402 138.785 49.1094C138.557 48.6738 138.238 48.3305 137.826 48.0795C137.419 47.8286 136.94 47.7031 136.391 47.7031C135.795 47.7031 135.274 47.8499 134.829 48.1435C134.388 48.4323 134.047 48.8111 133.806 49.2798C133.569 49.7438 133.451 50.2481 133.451 50.7926V52.0355C133.451 52.7647 133.579 53.3849 133.834 53.8963C134.095 54.4077 134.457 54.7983 134.921 55.0682C135.385 55.3333 135.927 55.4659 136.547 55.4659C136.95 55.4659 137.317 55.4091 137.648 55.2955C137.98 55.1771 138.266 55.0019 138.508 54.7699C138.749 54.5379 138.934 54.2514 139.062 53.9105L141.072 54.2727C140.911 54.8646 140.622 55.383 140.205 55.8281C139.793 56.2685 139.275 56.6117 138.65 56.858C138.029 57.0994 137.322 57.2202 136.526 57.2202Z" fill="white" fill-opacity="0.87"/>
<path d="M159.869 42.4545L163.918 54.3011H164.081L168.129 42.4545H170.501L165.267 57H162.732L157.497 42.4545H159.869ZM176.083 57.2202C175.06 57.2202 174.168 56.9858 173.405 56.517C172.643 56.0483 172.051 55.3925 171.63 54.5497C171.208 53.7069 170.998 52.7221 170.998 51.5952C170.998 50.4635 171.208 49.474 171.63 48.6264C172.051 47.7789 172.643 47.1207 173.405 46.652C174.168 46.1832 175.06 45.9489 176.083 45.9489C177.106 45.9489 177.998 46.1832 178.76 46.652C179.523 47.1207 180.115 47.7789 180.536 48.6264C180.957 49.474 181.168 50.4635 181.168 51.5952C181.168 52.7221 180.957 53.7069 180.536 54.5497C180.115 55.3925 179.523 56.0483 178.76 56.517C177.998 56.9858 177.106 57.2202 176.083 57.2202ZM176.09 55.4375C176.753 55.4375 177.302 55.2623 177.738 54.9119C178.173 54.5616 178.495 54.0952 178.704 53.5128C178.917 52.9304 179.023 52.2888 179.023 51.5881C179.023 50.892 178.917 50.2528 178.704 49.6705C178.495 49.0833 178.173 48.6122 177.738 48.2571C177.302 47.902 176.753 47.7244 176.09 47.7244C175.422 47.7244 174.868 47.902 174.428 48.2571C173.992 48.6122 173.668 49.0833 173.455 49.6705C173.247 50.2528 173.143 50.892 173.143 51.5881C173.143 52.2888 173.247 52.9304 173.455 53.5128C173.668 54.0952 173.992 54.5616 174.428 54.9119C174.868 55.2623 175.422 55.4375 176.09 55.4375ZM185.812 42.4545V57H183.688V42.4545H185.812ZM195.729 52.4759V46.0909H197.86V57H195.772V55.1108H195.658C195.408 55.6932 195.005 56.1785 194.451 56.5668C193.902 56.9503 193.218 57.142 192.399 57.142C191.698 57.142 191.077 56.9882 190.538 56.6804C190.003 56.3679 189.581 55.9062 189.274 55.2955C188.97 54.6847 188.819 53.9295 188.819 53.0298V46.0909H190.943V52.7741C190.943 53.5175 191.149 54.1094 191.56 54.5497C191.972 54.9901 192.507 55.2102 193.166 55.2102C193.563 55.2102 193.959 55.1108 194.352 54.9119C194.749 54.7131 195.078 54.4124 195.339 54.0099C195.604 53.6075 195.734 53.0961 195.729 52.4759ZM200.863 57V46.0909H202.902V47.8665H203.037C203.264 47.2652 203.636 46.7964 204.152 46.4602C204.668 46.1193 205.286 45.9489 206.006 45.9489C206.735 45.9489 207.346 46.1193 207.838 46.4602C208.335 46.8011 208.702 47.2699 208.939 47.8665H209.052C209.313 47.2841 209.727 46.8201 210.295 46.4744C210.863 46.1241 211.541 45.9489 212.327 45.9489C213.316 45.9489 214.123 46.259 214.748 46.8793C215.378 47.4995 215.693 48.4347 215.693 49.6847V57H213.569V49.8835C213.569 49.1449 213.368 48.6098 212.966 48.2784C212.563 47.947 212.083 47.7812 211.524 47.7812C210.833 47.7812 210.295 47.9943 209.912 48.4205C209.528 48.8419 209.337 49.384 209.337 50.0469V57H207.22V49.7486C207.22 49.1567 207.035 48.6809 206.666 48.321C206.297 47.9612 205.816 47.7812 205.224 47.7812C204.822 47.7812 204.45 47.8878 204.109 48.1009C203.773 48.3092 203.501 48.6004 203.292 48.9744C203.089 49.3485 202.987 49.7817 202.987 50.2741V57H200.863ZM223.391 57.2202C222.316 57.2202 221.391 56.9905 220.614 56.5312C219.842 56.0672 219.246 55.4162 218.824 54.5781C218.408 53.7353 218.199 52.7481 218.199 51.6165C218.199 50.4991 218.408 49.5142 218.824 48.6619C219.246 47.8097 219.833 47.1444 220.586 46.6662C221.343 46.188 222.229 45.9489 223.242 45.9489C223.857 45.9489 224.454 46.0507 225.032 46.2543C225.609 46.4579 226.128 46.7775 226.587 47.2131C227.046 47.6487 227.408 48.2145 227.674 48.9105C227.939 49.6018 228.071 50.4422 228.071 51.4318V52.1847H219.4V50.5938H225.99C225.99 50.035 225.877 49.5402 225.65 49.1094C225.422 48.6738 225.103 48.3305 224.691 48.0795C224.283 47.8286 223.805 47.7031 223.256 47.7031C222.659 47.7031 222.139 47.8499 221.694 48.1435C221.253 48.4323 220.912 48.8111 220.671 49.2798C220.434 49.7438 220.316 50.2481 220.316 50.7926V52.0355C220.316 52.7647 220.444 53.3849 220.699 53.8963C220.96 54.4077 221.322 54.7983 221.786 55.0682C222.25 55.3333 222.792 55.4659 223.412 55.4659C223.815 55.4659 224.182 55.4091 224.513 55.2955C224.845 55.1771 225.131 55.0019 225.373 54.7699C225.614 54.5379 225.799 54.2514 225.926 53.9105L227.936 54.2727C227.775 54.8646 227.487 55.383 227.07 55.8281C226.658 56.2685 226.14 56.6117 225.515 56.858C224.894 57.0994 224.186 57.2202 223.391 57.2202Z" fill="white" fill-opacity="0.87"/>
<path d="M94 65.5H140" stroke="#9FA3EF" stroke-width="2" stroke-linecap="round"/>
<path d="M740.865 65.5H764.337" stroke="#9FA3EF" stroke-width="2" stroke-linecap="round"/>
<path d="M651.972 45.2727V54H650.915V46.3807H650.864L648.733 47.7955V46.7216L650.915 45.2727H651.972ZM655.035 54V45.2727H656.092V49.1591H660.745V45.2727H661.802V54H660.745V50.0966H656.092V54H655.035Z" fill="white" fill-opacity="0.87"/>
<path d="M688.702 54V53.233L691.582 50.0795C691.92 49.7102 692.199 49.3892 692.418 49.1165C692.636 48.8409 692.798 48.5824 692.903 48.3409C693.011 48.0966 693.065 47.8409 693.065 47.5739C693.065 47.267 692.992 47.0014 692.844 46.777C692.699 46.5526 692.5 46.3793 692.247 46.2571C691.994 46.1349 691.71 46.0739 691.395 46.0739C691.06 46.0739 690.767 46.1435 690.517 46.2827C690.27 46.419 690.078 46.6108 689.942 46.858C689.808 47.1051 689.742 47.3949 689.742 47.7273H688.736C688.736 47.2159 688.854 46.767 689.09 46.3807C689.325 45.9943 689.646 45.6932 690.053 45.4773C690.462 45.2614 690.92 45.1534 691.429 45.1534C691.94 45.1534 692.394 45.2614 692.788 45.4773C693.183 45.6932 693.493 45.9844 693.717 46.3509C693.942 46.7173 694.054 47.125 694.054 47.5739C694.054 47.8949 693.996 48.2088 693.879 48.5156C693.766 48.8196 693.567 49.1591 693.283 49.5341C693.001 49.9062 692.611 50.3608 692.111 50.8977L690.151 52.9943V53.0625H694.207V54H688.702ZM695.975 52.2102V51.3409L699.811 45.2727H700.441V46.6193H700.015L697.117 51.2045V51.2727H702.282V52.2102H695.975ZM700.083 54V51.946V51.5412V45.2727H701.089V54H700.083ZM704.433 54V45.2727H705.489V49.1591H710.143V45.2727H711.2V54H710.143V50.0966H705.489V54H704.433Z" fill="white" fill-opacity="0.87"/>
<path d="M747.898 45.2727V54H746.841V46.3807H746.79L744.659 47.7955V46.7216L746.841 45.2727H747.898ZM752.546 54L750.16 45.2727H751.234L753.058 52.3807H753.143L755.001 45.2727H756.194L758.052 52.3807H758.137L759.961 45.2727H761.035L758.649 54H757.558L755.632 47.0455H755.563L753.637 54H752.546Z" fill="white" fill-opacity="0.87"/>
<path d="M792.799 45.2727V54H791.742V46.3807H791.691L789.56 47.7955V46.7216L791.742 45.2727H792.799ZM795.862 45.2727H797.123L800.089 52.517H800.192L803.158 45.2727H804.419V54H803.43V47.3693H803.345L800.618 54H799.663L796.936 47.3693H796.851V54H795.862V45.2727Z" fill="white" fill-opacity="0.87"/>
<path d="M835.541 54.1193C834.979 54.1193 834.477 54.0227 834.037 53.8295C833.599 53.6364 833.251 53.3679 832.993 53.0241C832.737 52.6776 832.598 52.2756 832.575 51.8182H833.649C833.672 52.0994 833.769 52.3423 833.939 52.5469C834.109 52.7486 834.332 52.9048 834.608 53.0156C834.884 53.1264 835.189 53.1818 835.524 53.1818C835.899 53.1818 836.232 53.1165 836.521 52.9858C836.811 52.8551 837.038 52.6733 837.203 52.4403C837.368 52.2074 837.45 51.9375 837.45 51.6307C837.45 51.3097 837.371 51.027 837.212 50.7827C837.053 50.5355 836.82 50.3423 836.513 50.2031C836.206 50.0639 835.831 49.9943 835.388 49.9943H834.689V49.0568H835.388C835.734 49.0568 836.038 48.9943 836.3 48.8693C836.564 48.7443 836.77 48.5682 836.918 48.3409C837.068 48.1136 837.144 47.8466 837.144 47.5398C837.144 47.2443 837.078 46.9872 836.947 46.7685C836.817 46.5497 836.632 46.3793 836.394 46.2571C836.158 46.1349 835.879 46.0739 835.558 46.0739C835.257 46.0739 834.973 46.1293 834.706 46.2401C834.442 46.348 834.226 46.5057 834.058 46.7131C833.891 46.9176 833.8 47.1648 833.786 47.4545H832.763C832.78 46.9972 832.918 46.5966 833.176 46.2528C833.435 45.9062 833.773 45.6364 834.19 45.4432C834.611 45.25 835.072 45.1534 835.575 45.1534C836.115 45.1534 836.578 45.2628 836.965 45.4815C837.351 45.6974 837.648 45.983 837.855 46.3381C838.063 46.6932 838.166 47.0767 838.166 47.4886C838.166 47.9801 838.037 48.3991 837.778 48.7457C837.523 49.0923 837.175 49.3324 836.734 49.4659V49.5341C837.286 49.625 837.716 49.8594 838.026 50.2372C838.335 50.6122 838.49 51.0767 838.49 51.6307C838.49 52.1051 838.361 52.5312 838.102 52.9091C837.847 53.2841 837.497 53.5795 837.054 53.7955C836.611 54.0114 836.107 54.1193 835.541 54.1193ZM840.786 45.2727H842.048L845.014 52.517H845.116L848.082 45.2727H849.343V54H848.355V47.3693H848.269L845.542 54H844.588L841.86 47.3693H841.775V54H840.786V45.2727Z" fill="white" fill-opacity="0.87"/>
<path d="M881.413 54.1193C881.055 54.1136 880.697 54.0455 880.339 53.9148C879.981 53.7841 879.654 53.5639 879.359 53.2543C879.064 52.9418 878.826 52.5199 878.647 51.9886C878.468 51.4545 878.379 50.7841 878.379 49.9773C878.379 49.2045 878.451 48.5199 878.596 47.9233C878.741 47.3239 878.951 46.8196 879.227 46.4105C879.502 45.9986 879.835 45.6861 880.224 45.473C880.616 45.2599 881.058 45.1534 881.549 45.1534C882.038 45.1534 882.473 45.2514 882.853 45.4474C883.237 45.6406 883.549 45.9105 883.791 46.2571C884.032 46.6037 884.189 47.0028 884.26 47.4545H883.22C883.123 47.0625 882.936 46.7372 882.657 46.4787C882.379 46.2202 882.01 46.0909 881.549 46.0909C880.873 46.0909 880.341 46.3849 879.951 46.973C879.565 47.5611 879.37 48.3864 879.367 49.4489H879.436C879.595 49.2074 879.784 49.0014 880.002 48.831C880.224 48.6577 880.468 48.5241 880.735 48.4304C881.002 48.3366 881.285 48.2898 881.583 48.2898C882.083 48.2898 882.541 48.4148 882.956 48.6648C883.37 48.9119 883.703 49.2543 883.953 49.6918C884.203 50.1264 884.328 50.625 884.328 51.1875C884.328 51.7273 884.207 52.2216 883.966 52.6705C883.724 53.1165 883.385 53.4716 882.947 53.7358C882.512 53.9972 882.001 54.125 881.413 54.1193ZM881.413 53.1818C881.771 53.1818 882.092 53.0923 882.376 52.9134C882.663 52.7344 882.889 52.4943 883.054 52.1932C883.221 51.892 883.305 51.5568 883.305 51.1875C883.305 50.8267 883.224 50.4986 883.062 50.2031C882.903 49.9048 882.683 49.6676 882.402 49.4915C882.123 49.3153 881.805 49.2273 881.447 49.2273C881.177 49.2273 880.926 49.2812 880.693 49.3892C880.46 49.4943 880.255 49.6392 880.079 49.8239C879.906 50.0085 879.769 50.2202 879.67 50.4588C879.571 50.6946 879.521 50.9432 879.521 51.2045C879.521 51.5511 879.602 51.875 879.764 52.1761C879.929 52.4773 880.153 52.7202 880.437 52.9048C880.724 53.0895 881.049 53.1818 881.413 53.1818ZM886.557 45.2727H887.818L890.784 52.517H890.886L893.852 45.2727H895.114V54H894.125V47.3693H894.04L891.313 54H890.358L887.631 47.3693H887.546V54H886.557V45.2727Z" fill="white" fill-opacity="0.87"/>
<g filter="url(#filter1_ddd_109_4908)">
<rect x="793.93" y="66" width="102.049" height="30" rx="10" fill="#090A17"/>
<rect x="793.93" y="66" width="102.049" height="30" rx="10" fill="white" fill-opacity="0.11"/>
<rect x="794.43" y="66.5" width="101.049" height="29" rx="9.5" stroke="white" stroke-opacity="0.12"/>
</g>
<mask id="mask0_109_4908" style="mask-type:alpha" maskUnits="userSpaceOnUse" x="870" y="77" width="13" height="8">
<path fill-rule="evenodd" clip-rule="evenodd" d="M881.273 77.59L876.589 82.17L871.905 77.59L870.466 79L876.589 85L882.712 79L881.273 77.59Z" fill="white"/>
</mask>
<g mask="url(#mask0_109_4908)">
<rect x="851.077" y="56" width="51.0246" height="50" fill="white" fill-opacity="0.87"/>
<mask id="mask1_109_4908" style="mask-type:alpha" maskUnits="userSpaceOnUse" x="851" y="56" width="52" height="50">
<rect x="851.077" y="56" width="51.0246" height="50" fill="white"/>
</mask>
<g mask="url(#mask1_109_4908)">
</g>
</g>
<path d="M817.749 77.2756C817.673 76.6032 817.361 76.0824 816.812 75.7131C816.262 75.339 815.571 75.152 814.738 75.152C814.141 75.152 813.625 75.2467 813.189 75.4361C812.754 75.6207 812.415 75.8764 812.174 76.2031C811.937 76.5251 811.819 76.892 811.819 77.304C811.819 77.6496 811.899 77.9479 812.06 78.1989C812.226 78.4498 812.441 78.6605 812.706 78.831C812.976 78.9967 813.265 79.1364 813.573 79.25C813.881 79.3589 814.177 79.4489 814.461 79.5199L815.881 79.8892C816.345 80.0028 816.821 80.1567 817.309 80.3509C817.796 80.545 818.249 80.8007 818.665 81.1179C819.082 81.4351 819.418 81.8281 819.674 82.2969C819.934 82.7656 820.064 83.3267 820.064 83.9801C820.064 84.804 819.851 85.5355 819.425 86.1747C819.004 86.8139 818.391 87.3182 817.586 87.6875C816.785 88.0568 815.817 88.2415 814.681 88.2415C813.592 88.2415 812.65 88.0687 811.854 87.723C811.059 87.3774 810.436 86.8873 809.986 86.2528C809.536 85.6136 809.288 84.8561 809.241 83.9801H811.442C811.485 84.5057 811.655 84.9437 811.954 85.294C812.257 85.6397 812.642 85.8977 813.111 86.0682C813.585 86.2339 814.103 86.3168 814.667 86.3168C815.287 86.3168 815.839 86.2197 816.321 86.0256C816.809 85.8267 817.193 85.5521 817.472 85.2017C817.751 84.8466 817.891 84.4323 817.891 83.9588C817.891 83.5279 817.768 83.1752 817.522 82.9006C817.28 82.6259 816.951 82.3987 816.535 82.2188C816.123 82.0388 815.656 81.8802 815.135 81.7429L813.417 81.2741C812.252 80.9569 811.329 80.4905 810.647 79.875C809.97 79.2595 809.631 78.4451 809.631 77.4318C809.631 76.5937 809.858 75.8622 810.313 75.2372C810.767 74.6122 811.383 74.1269 812.16 73.7812C812.936 73.4309 813.812 73.2557 814.787 73.2557C815.772 73.2557 816.641 73.4285 817.394 73.7741C818.151 74.1198 818.748 74.5956 819.184 75.2017C819.619 75.803 819.847 76.4943 819.866 77.2756H817.749ZM834.918 78.1847H832.702C832.617 77.7112 832.458 77.2945 832.226 76.9347C831.994 76.5748 831.71 76.2694 831.374 76.0185C831.038 75.7675 830.661 75.5781 830.245 75.4503C829.833 75.3224 829.395 75.2585 828.931 75.2585C828.093 75.2585 827.342 75.4692 826.679 75.8906C826.021 76.312 825.5 76.9299 825.117 77.7443C824.738 78.5587 824.549 79.553 824.549 80.7273C824.549 81.911 824.738 82.91 825.117 83.7244C825.5 84.5388 826.023 85.1544 826.686 85.571C827.349 85.9877 828.095 86.196 828.924 86.196C829.383 86.196 829.818 86.1345 830.23 86.0114C830.647 85.8835 831.023 85.6965 831.36 85.4503C831.696 85.2041 831.98 84.9034 832.212 84.5483C832.449 84.1884 832.612 83.7765 832.702 83.3125L834.918 83.3196C834.799 84.0346 834.57 84.6927 834.229 85.294C833.893 85.8906 833.46 86.4067 832.929 86.8423C832.404 87.2732 831.802 87.607 831.125 87.8438C830.448 88.0805 829.71 88.1989 828.909 88.1989C827.65 88.1989 826.528 87.9006 825.543 87.304C824.558 86.7027 823.781 85.8433 823.213 84.7259C822.65 83.6084 822.368 82.2756 822.368 80.7273C822.368 79.1742 822.652 77.8414 823.22 76.7287C823.789 75.6113 824.565 74.7543 825.55 74.1577C826.535 73.5563 827.655 73.2557 828.909 73.2557C829.681 73.2557 830.401 73.367 831.068 73.5895C831.741 73.8073 832.344 74.1293 832.879 74.5554C833.415 74.9768 833.857 75.4929 834.208 76.1037C834.558 76.7098 834.795 77.4034 834.918 78.1847ZM850.329 80.7273C850.329 82.2803 850.045 83.6155 849.477 84.733C848.908 85.8456 848.13 86.7027 847.14 87.304C846.155 87.9006 845.035 88.1989 843.781 88.1989C842.521 88.1989 841.397 87.9006 840.407 87.304C839.422 86.7027 838.646 85.8433 838.077 84.7259C837.509 83.6084 837.225 82.2756 837.225 80.7273C837.225 79.1742 837.509 77.8414 838.077 76.7287C838.646 75.6113 839.422 74.7543 840.407 74.1577C841.397 73.5563 842.521 73.2557 843.781 73.2557C845.035 73.2557 846.155 73.5563 847.14 74.1577C848.13 74.7543 848.908 75.6113 849.477 76.7287C850.045 77.8414 850.329 79.1742 850.329 80.7273ZM848.156 80.7273C848.156 79.5436 847.964 78.5469 847.58 77.7372C847.201 76.9228 846.681 76.3073 846.018 75.8906C845.36 75.4692 844.614 75.2585 843.781 75.2585C842.942 75.2585 842.194 75.4692 841.536 75.8906C840.878 76.3073 840.357 76.9228 839.974 77.7372C839.595 78.5469 839.406 79.5436 839.406 80.7273C839.406 81.911 839.595 82.91 839.974 83.7244C840.357 84.5341 840.878 85.1496 841.536 85.571C842.194 85.9877 842.942 86.196 843.781 86.196C844.614 86.196 845.36 85.9877 846.018 85.571C846.681 85.1496 847.201 84.5341 847.58 83.7244C847.964 82.91 848.156 81.911 848.156 80.7273Z" fill="white" fill-opacity="0.87"/>
<defs>
<filter id="filter0_ddd_109_4908" x="0" y="0" width="981" height="366" filterUnits="userSpaceOnUse" color-interpolation-filters="sRGB">
<feFlood flood-opacity="0" result="BackgroundImageFix"/>
<feColorMatrix in="SourceAlpha" type="matrix" values="0 0 0 0 0 0 0 0 0 0 0 0 0 0 0 0 0 0 127 0" result="hardAlpha"/>
<feOffset dy="1"/>
<feGaussianBlur stdDeviation="4"/>
<feComposite in2="hardAlpha" operator="out"/>
<feColorMatrix type="matrix" values="0 0 0 0 0 0 0 0 0 0 0 0 0 0 0 0 0 0 0.2 0"/>
<feBlend mode="normal" in2="BackgroundImageFix" result="effect1_dropShadow_109_4908"/>
<feColorMatrix in="SourceAlpha" type="matrix" values="0 0 0 0 0 0 0 0 0 0 0 0 0 0 0 0 0 0 127 0" result="hardAlpha"/>
<feOffset dy="4"/>
<feGaussianBlur stdDeviation="2"/>
<feComposite in2="hardAlpha" operator="out"/>
<feColorMatrix type="matrix" values="0 0 0 0 0 0 0 0 0 0 0 0 0 0 0 0 0 0 0.25 0"/>
<feBlend mode="normal" in2="effect1_dropShadow_109_4908" result="effect2_dropShadow_109_4908"/>
<feColorMatrix in="SourceAlpha" type="matrix" values="0 0 0 0 0 0 0 0 0 0 0 0 0 0 0 0 0 0 127 0" result="hardAlpha"/>
<feOffset dy="4"/>
<feGaussianBlur stdDeviation="2"/>
<feComposite in2="hardAlpha" operator="out"/>
<feColorMatrix type="matrix" values="0 0 0 0 0 0 0 0 0 0 0 0 0 0 0 0 0 0 0.25 0"/>
<feBlend mode="normal" in2="effect2_dropShadow_109_4908" result="effect3_dropShadow_109_4908"/>
<feBlend mode="normal" in="SourceGraphic" in2="effect3_dropShadow_109_4908" result="shape"/>
</filter>
<filter id="filter1_ddd_109_4908" x="775.93" y="49" width="138.049" height="66" filterUnits="userSpaceOnUse" color-interpolation-filters="sRGB">
<feFlood flood-opacity="0" result="BackgroundImageFix"/>
<feColorMatrix in="SourceAlpha" type="matrix" values="0 0 0 0 0 0 0 0 0 0 0 0 0 0 0 0 0 0 127 0" result="hardAlpha"/>
<feOffset dy="3"/>
<feGaussianBlur stdDeviation="2.5"/>
<feComposite in2="hardAlpha" operator="out"/>
<feColorMatrix type="matrix" values="0 0 0 0 0 0 0 0 0 0 0 0 0 0 0 0 0 0 0.2 0"/>
<feBlend mode="normal" in2="BackgroundImageFix" result="effect1_dropShadow_109_4908"/>
<feColorMatrix in="SourceAlpha" type="matrix" values="0 0 0 0 0 0 0 0 0 0 0 0 0 0 0 0 0 0 127 0" result="hardAlpha"/>
<feOffset dy="1"/>
<feGaussianBlur stdDeviation="9"/>
<feComposite in2="hardAlpha" operator="out"/>
<feColorMatrix type="matrix" values="0 0 0 0 0 0 0 0 0 0 0 0 0 0 0 0 0 0 0.12 0"/>
<feBlend mode="normal" in2="effect1_dropShadow_109_4908" result="effect2_dropShadow_109_4908"/>
<feColorMatrix in="SourceAlpha" type="matrix" values="0 0 0 0 0 0 0 0 0 0 0 0 0 0 0 0 0 0 127 0" result="hardAlpha"/>
<feOffset dy="6"/>
<feGaussianBlur stdDeviation="5"/>
<feComposite in2="hardAlpha" operator="out"/>
<feColorMatrix type="matrix" values="0 0 0 0 0 0 0 0 0 0 0 0 0 0 0 0 0 0 0.14 0"/>
<feBlend mode="normal" in2="effect2_dropShadow_109_4908" result="effect3_dropShadow_109_4908"/>
<feBlend mode="normal" in="SourceGraphic" in2="effect3_dropShadow_109_4908" result="shape"/>
</filter>
<linearGradient id="paint0_linear_109_4908" x1="478" y1="79" x2="478" y2="315.687" gradientUnits="userSpaceOnUse">
<stop stop-color="#9FA3EF" stop-opacity="0.4"/>
<stop offset="1" stop-color="#9FA3EF" stop-opacity="0.05"/>
</linearGradient>
</defs>
</svg>
