<svg width="259" height="72" viewBox="0 0 259 72" fill="none" xmlns="http://www.w3.org/2000/svg">
<path d="M72.0313 9.4272H83.9067C86.9242 9.4272 89.1306 10.2384 90.5582 11.6336C91.9534 12.8341 92.5699 14.4564 92.5699 16.0463C92.5699 16.6628 92.5699 17.4415 92.3752 18.058C91.9859 19.0638 91.3694 20.0696 90.5582 20.8808C90.1689 21.2702 89.7471 21.4973 89.3577 21.692C90.7529 22.0813 91.9859 22.8925 92.9917 23.8983C93.8029 24.9042 94.1922 26.1047 94.1922 27.9217C94.1922 28.9275 93.9975 30.1281 93.5757 30.9392C93.1864 31.7504 92.3752 32.5616 91.5641 33.1456C90.5582 33.7621 89.5524 34.1514 88.5465 34.5408C87.346 34.9301 85.9184 34.9301 84.5232 34.9301H72.226V9.3623H72.0313V9.4272ZM82.9008 19.875C83.9067 19.875 84.9125 19.6803 85.9184 19.2585C86.7295 18.8691 87.1189 18.058 87.1189 17.2468C87.1189 16.4356 86.7295 15.6245 86.113 15.2351C85.3019 14.6186 84.296 14.424 83.2902 14.6186H77.6445V20.0372H82.8684V19.875H82.9008ZM84.2961 30.1605C85.3019 30.1605 86.3077 29.9658 87.3136 29.544C88.1247 29.1547 88.5141 28.3435 88.3194 27.3377C88.3194 26.5265 87.9301 25.7153 87.3136 25.326C86.6971 24.9366 85.4966 24.5148 84.1014 24.5148H77.4498V30.1605H84.2961Z" fill="#807297"/>
<path d="M101.201 9.4248H106.846V35.1873H101.201V9.4248Z" fill="#807297"/>
<path d="M115.51 9.4248H120.733L132.804 25.3236V9.4248H138.417V35.1873H133.615L120.928 18.8667V35.1873H115.51V9.4248Z" fill="#807297"/>
<path d="M155.549 9.2334H160.772L171.837 35.1906H165.996L163.595 29.3502H152.726L150.325 35.1906H144.484L155.549 9.2334ZM161.584 24.5157L158.177 16.0796L154.77 24.5157H161.584Z" fill="#807297"/>
<path d="M177.872 9.4248H183.096L195.166 25.3236V9.4248H200.811V35.1873H195.977L183.485 18.8667V35.1873H177.872V9.4248Z" fill="#807297"/>
<path d="M221.317 35.5803C219.5 35.5803 217.683 35.1909 216.094 34.5745C212.881 33.1793 210.448 30.7458 209.053 27.5336C208.436 25.9112 208.047 24.1267 208.047 22.3097C208.047 18.9028 209.442 15.4635 211.876 12.8678C213.076 11.6672 214.504 10.6614 216.094 10.0449C217.911 9.23374 219.728 9.03906 221.512 9.03906C222.518 9.03906 223.718 9.03906 224.724 9.23374C225.73 9.42842 226.541 9.6231 227.352 10.0449C228.164 10.4343 228.975 10.8561 229.559 11.2454C230.175 11.6348 230.954 12.2513 231.571 12.8678L228.164 17.0858C227.158 16.2746 226.152 15.4635 225.146 14.8794C224.14 14.2954 222.94 14.0683 221.739 14.0683C220.733 14.0683 219.728 14.2629 218.722 14.6847C217.716 15.0741 216.905 15.6906 216.321 16.5018C215.737 17.3129 215.12 18.1241 214.698 19.1299C214.309 20.1358 214.082 21.1416 214.082 22.1474C214.082 23.1533 214.277 24.3538 214.698 25.3597C215.12 26.3655 215.51 27.1766 216.321 27.9878C217.716 29.6101 219.728 30.3889 221.739 30.3889C222.94 30.3889 224.367 30.1942 225.568 29.5777C226.574 28.9612 227.774 28.1825 228.585 27.3713L232.187 30.9729C231.571 31.5894 230.792 32.3681 230.175 32.9846C229.364 33.6011 228.553 33.9904 227.774 34.3798C226.963 34.7691 225.957 35.1909 224.951 35.3856C223.524 35.5803 222.323 35.5803 221.317 35.5803Z" fill="#807297"/>
<path d="M238.644 9.4248H257.949V14.454H244.062V19.6779H256.327V24.7071H244.062V30.1581H258.144V35.1873H238.644V9.4248Z" fill="#807297"/>
<path d="M79.2668 60.5299C77.8716 60.5299 76.4439 60.3352 75.2434 59.7187C74.0429 59.3294 72.8424 58.5182 71.6094 57.5123L73.6211 55.306C74.4323 56.1172 75.2434 56.5065 76.2493 57.123C77.2551 57.5124 78.261 57.7395 79.2668 57.7395C80.078 57.7395 80.8891 57.5448 81.6678 57.123C82.2843 56.7336 82.479 56.1172 82.479 55.5007C82.479 55.306 82.479 54.8842 82.2843 54.6895C82.0896 54.4948 81.895 54.073 81.6678 53.8783C81.2785 53.6837 80.8567 53.489 80.4673 53.2619C79.8508 53.0672 79.0721 52.8725 78.4556 52.6454C77.6445 52.4507 76.6386 52.256 75.8275 51.8342C75.211 51.6395 74.4323 51.2177 74.0105 50.8284C73.6211 50.439 73.1993 50.0172 72.8099 49.4332C72.4206 48.622 72.4206 47.8109 72.4206 47.2268C72.4206 46.4157 72.6153 45.8316 72.8099 45.0204C73.0046 44.404 73.6211 43.8199 74.0105 43.3981C74.6269 43.0088 75.211 42.587 76.0221 42.3923C76.8333 42.1976 77.6445 42.0029 78.4232 42.0029C79.6237 42.0029 80.8242 42.1976 82.0572 42.6194C83.063 43.0088 84.0689 43.6253 85.0747 44.2417L83.4524 46.6428C82.6412 46.0263 81.8301 45.6369 81.0514 45.2476C80.2402 44.8582 79.429 44.8582 78.6503 44.8582C77.8391 44.8582 77.028 45.0529 76.4439 45.4747C76.0546 45.8641 75.6328 46.4805 75.6328 47.097C75.6328 47.4864 75.6328 47.7135 75.8275 48.1029C76.0221 48.2975 76.2168 48.7193 76.4439 48.914C76.8333 49.1087 77.2551 49.3034 77.8391 49.5305C78.4556 49.7252 79.0397 49.9199 80.0455 50.147C80.8567 50.3417 81.6678 50.5364 82.6737 50.9582C83.2902 51.1528 83.8742 51.5746 84.4907 51.964C84.88 52.3534 85.3018 52.9698 85.4965 53.3592C85.6912 53.9757 85.8859 54.5597 85.8859 55.3709C85.8859 56.182 85.6912 56.9932 85.4965 57.5772C85.1072 58.1937 84.6854 58.7778 84.1013 59.3942C83.4848 59.7836 82.9008 60.2054 82.0896 60.4001C81.0838 60.3352 80.078 60.5299 79.2668 60.5299Z" fill="#807297"/>
<path d="M89.3253 42.2285H92.7646L98.1832 50.6646L103.829 42.2285H107.236V60.3337H104.024V47.2577L98.3779 55.6938H98.1832L92.57 47.2577V60.3337H89.3253V42.2285Z" fill="#807297"/>
<path d="M118.105 42.0371H121.123L128.975 60.1422H125.568L123.751 55.7295H115.315L113.498 60.1422H110.286L118.105 42.0371ZM122.745 53.1014L119.533 45.8658L116.515 53.1014H122.745Z" fill="#807297"/>
<path d="M132.187 42.2285H140.234C141.239 42.2285 142.245 42.4232 143.251 42.6179C144.062 42.8125 144.873 43.429 145.458 44.0131C145.847 44.4024 146.269 45.0189 146.658 45.8301C146.853 46.4466 147.047 47.2253 147.047 48.0364C147.047 48.6529 146.853 49.4316 146.658 50.0481C146.463 50.6646 146.042 51.054 145.847 51.6704C145.458 52.0598 145.036 52.4816 144.452 52.871C143.835 53.2603 143.251 53.4874 142.635 53.6821L147.469 60.5283H143.641L139.228 54.2986H135.204V60.5283H131.992L132.187 42.2285ZM140.039 51.0864C141.045 51.0864 142.051 50.8917 142.667 50.2752C143.284 49.6588 143.673 48.88 143.673 48.0689C143.673 47.2577 143.284 46.4466 142.667 45.8625C141.856 45.246 140.85 45.0514 139.844 45.0514H135.204V51.0864H140.039Z" fill="#807297"/>
<path d="M155.321 45.0514H149.481V42.2285H164.179V45.0514H158.339V60.3337H155.127L155.321 45.0514Z" fill="#807297"/>
<path d="M183.712 60.5314C182.511 60.5314 181.311 60.3367 180.078 59.7203C177.871 58.7144 176.054 57.0921 175.243 54.8857C174.854 53.6852 174.432 52.4847 174.627 51.2517C174.627 50.0512 174.821 48.8507 175.243 47.6177C176.054 45.4114 177.871 43.5943 180.078 42.5885C181.278 42.1991 182.479 41.7773 183.906 41.7773C184.718 41.7773 185.529 41.7773 186.113 41.972C186.729 42.1667 187.313 42.3614 187.93 42.5885C188.546 42.7832 188.936 43.205 189.552 43.3997C189.942 43.789 190.558 44.2108 190.947 44.6002L188.936 47.0012C188.319 46.3847 187.541 45.8007 186.729 45.3789C185.918 44.9895 184.912 44.7624 183.906 44.7624C183.095 44.7624 182.284 44.9571 181.505 45.1518C180.694 45.5411 180.11 45.9629 179.494 46.547C178.877 47.1635 178.488 47.7475 178.293 48.5587C178.099 49.3698 177.904 50.181 177.904 50.9597C177.904 51.7709 178.099 52.582 178.293 53.3607C178.488 54.1395 178.91 54.7559 179.494 55.3724C180.11 55.9889 180.694 56.3783 181.505 56.7676C182.317 57.157 183.128 57.3841 183.906 57.157C184.912 57.157 185.918 56.9623 186.729 56.5405C187.541 56.1511 188.352 55.5347 189.13 54.7235L191.142 56.7352C190.753 57.1245 190.136 57.741 189.747 58.1304C189.13 58.5197 188.741 58.9415 188.125 59.1362C187.508 59.3309 186.924 59.7527 186.113 59.7527C185.302 60.5314 184.491 60.5314 183.712 60.5314Z" fill="#807297"/>
<path d="M194.354 42.2285H197.372V49.6588H206.035V42.2285H209.247V60.3337H206.035V52.6763H197.372V60.3337H194.354V42.2285Z" fill="#807297"/>
<path d="M220.312 42.0371H223.329L231.181 60.1422H227.774L225.957 55.7295H217.521L215.704 60.1422H212.492L220.312 42.0371ZM224.757 53.1014L221.739 45.8658L218.722 53.1014H224.757Z" fill="#807297"/>
<path d="M234.394 42.2285H237.638V60.3337H234.394V42.2285Z" fill="#807297"/>
<path d="M242.44 42.2285H245.263L254.932 54.688V42.2285H258.144V60.3337H255.516L245.685 47.4524V60.3337H242.44V42.2285Z" fill="#807297"/>
<path d="M36.6321 59.1343V66.9864L29.7859 71.0098L23.1343 66.9864V59.1343L29.7859 63.1577L36.6321 59.1343ZM0 31.9766L6.65153 36V49.4653L18.1051 56.3115V64.1635L0 53.4886V31.9766V31.9766ZM59.5718 31.9766V53.5211L41.2719 64.196V56.3439L52.7255 49.4977V36.0324L59.5718 31.9766ZM41.2395 21.3017L48.0857 25.3251V33.1771L36.6321 40.0234V53.6833L29.9806 57.7067L23.3615 53.6833V39.9909L11.4861 33.1447V25.2927L18.3323 21.2693L29.7859 28.1155L41.2395 21.3017ZM11.4861 38.7904L18.1376 42.8138V50.6658L11.4861 46.6424V38.7904ZM48.0857 38.7904V46.6424L41.4342 50.6658V42.8138L48.0857 38.7904ZM6.65153 14.4555L13.4977 18.4789L6.65153 22.5023V30.3543L0 26.3309V18.4789L6.65153 14.4555ZM52.9202 14.4555L59.7664 18.4789V26.3309L52.9202 30.3543V22.5023L46.2687 18.4789L52.9202 14.4555ZM29.7859 14.4555L36.6321 18.4789L29.7859 22.5023L23.1343 18.4789L29.7859 14.4555ZM29.7859 0.990234L48.0857 11.6651L41.4342 15.6885L29.9806 8.84228L18.2998 15.6885L11.6483 11.6651L29.7859 0.990234Z" fill="#807297"/>
</svg>
