<svg width="73" height="71" viewBox="0 0 73 71" fill="none" xmlns="http://www.w3.org/2000/svg">
<path d="M44.0004 35.7671L43.9797 43.0405C43.9797 40.2342 42.135 37.4216 38.4208 35.277C31.0605 31.0292 19.1546 31.0292 11.8336 35.277C8.19586 37.3906 6.37595 40.1576 6.36768 42.9289L6.38835 35.6534C6.38835 32.8842 8.21654 30.1172 11.8543 28.0015C19.1753 23.7454 31.0874 23.7454 38.4414 28.0015C42.1557 30.1482 44.0087 32.9608 44.0004 35.7671Z" fill="#F0F0F0"/>
<path d="M49.9851 35.7837L49.9644 43.0592C49.9541 46.7094 47.553 50.3533 42.7613 53.139C33.1096 58.7476 17.4171 58.7476 7.69299 53.139C2.81027 50.3202 0.372017 46.6204 0.382357 42.9227L0.403033 35.6493C0.403033 39.3449 2.83095 43.0468 7.71367 45.8656C17.4336 51.4804 33.1303 51.4804 42.782 45.8656C47.5737 43.0799 49.9748 39.4359 49.9851 35.7837Z" fill="#F0F0F0"/>
<path d="M42.6575 25.5527C52.3774 31.1655 52.4312 40.2567 42.7816 45.8653C33.1319 51.4739 17.4373 51.4739 7.71322 45.8653C-2.01087 40.2567 -2.04189 31.182 7.60981 25.5651C17.2615 19.9482 32.952 19.9503 42.6575 25.5527ZM11.93 43.4085C19.3089 47.6687 31.2148 47.6687 38.5358 43.4085C45.8568 39.1482 45.8175 32.2574 38.4406 27.9972C31.0638 23.7369 19.1745 23.7473 11.8535 27.9972C4.53252 32.2471 4.57181 39.1482 11.93 43.396" fill="white"/>
<path d="M50.4516 50.171C50.0835 49.9642 49.5685 49.9828 49.0039 50.3158C47.8686 50.9651 46.9586 52.5596 46.9586 53.8563C46.9586 54.5036 47.1923 54.9648 47.5625 55.1799L41.8422 51.8565C41.472 51.6497 41.2466 51.1885 41.2466 50.5412C41.2466 49.2342 42.1565 47.6459 43.2919 46.9924C43.8586 46.6677 44.3818 46.6305 44.752 46.8476L50.4516 50.171Z" fill="white"/>
<path d="M48.9953 50.3137C50.1265 49.6582 51.0509 50.1856 51.0633 51.4864C51.0758 52.7872 50.1493 54.3817 49.016 55.0372C47.8826 55.6928 46.9603 55.1655 46.9479 53.8585C46.9355 52.5514 47.864 50.9673 48.9953 50.3137Z" fill="white"/>
<path d="M64.0603 55.3184L71.3689 59.5724C70.6223 59.136 69.5841 59.1898 68.4198 59.864C66.1243 61.1751 64.2837 64.3972 64.2837 67.0195C64.2837 68.3307 64.7573 69.2593 65.5038 69.6956L44.5542 57.5084C43.8077 57.0948 43.3527 56.1601 43.3527 54.8489C43.3341 52.21 45.1912 49.0045 47.4888 47.6768C48.6366 47.0212 49.6934 46.9488 50.44 47.3852L57.5645 51.5317" fill="#F0F0F0"/>
<path d="M68.4239 59.8577C70.7132 58.5362 72.5787 59.5992 72.5869 62.2298C72.5952 64.8604 70.7401 68.0866 68.4508 69.4081C66.1614 70.7296 64.2939 69.6666 64.2857 67.0215C64.2774 64.3764 66.1325 61.1792 68.4239 59.8577Z" fill="white"/>
<path d="M38.6258 27.6702C36.6556 26.5647 34.536 25.7497 32.3326 25.2506L31.981 25.9558C34.1738 26.4348 36.2839 27.2349 38.2432 28.33C41.0454 29.9369 43.6202 32.5095 43.6202 35.7399V35.7709C43.6147 36.7796 43.368 37.7724 42.9005 38.6662C41.9202 37.2868 40.4808 36.017 38.6134 34.9437C35.8876 33.3678 32.5187 32.371 28.9968 31.9429L28.6452 32.6626C32.1609 33.0617 35.5195 34.0399 38.2308 35.6034C40.3133 36.7967 41.7465 38.2216 42.4724 39.3859C41.5831 40.7488 40.1975 42.0041 38.3528 43.0753C31.1414 47.2714 19.3658 47.2549 12.1213 43.0753C10.2394 41.9875 8.81242 40.7012 7.91074 39.3094C8.80001 37.9465 10.1856 36.6892 12.0303 35.6179C14.8326 33.98 18.34 32.9852 21.9985 32.6316L22.1825 31.8519C18.309 32.189 14.603 33.2293 11.6477 34.954C9.84024 36.0108 8.44636 37.2289 7.48263 38.569C6.03498 35.6448 6.68643 32.0297 10.8515 29.12C12.6976 27.859 14.7424 26.9173 16.9007 26.3343L17.1447 25.4616C14.5575 26.1502 12.2144 27.1615 10.3759 28.5078C3.94623 33.2086 4.77138 39.7023 11.7387 43.7434C19.2127 48.0615 31.2779 48.0863 38.7354 43.7599C41.7382 42.0289 44.3854 39.2432 44.3854 35.7813V35.7502C44.3833 32.1414 41.7051 29.5232 38.6258 27.6702Z" fill="#43E07C"/>
<path d="M71.5637 59.2312C71.5492 59.2312 71.5327 59.2312 71.5327 59.2147L64.2593 54.9896C64.1699 54.9378 64.0637 54.923 63.9636 54.9485C63.8635 54.9741 63.7773 55.0378 63.7236 55.1261C63.6805 55.2152 63.6709 55.3167 63.6963 55.4123C63.7217 55.508 63.7806 55.5913 63.8622 55.6472L69.5887 58.9851C69.5122 59.0017 69.4212 59.0471 69.3281 59.0616L69.0365 59.1547C68.8069 59.2457 68.5774 59.3615 68.3333 59.4752C68.2987 59.493 68.2627 59.5082 68.2258 59.5207C68.0583 59.6283 67.9053 59.7503 67.7357 59.8744C66.4493 60.7761 65.3326 62.2155 64.6336 63.8038C64.579 63.9172 64.5334 64.0348 64.4971 64.1553C64.404 64.3993 64.313 64.6289 64.2365 64.875C64.042 65.5112 63.9335 66.1706 63.9139 66.8355C63.9139 66.8955 63.8994 66.9575 63.8994 67.0175V67.0341C63.9009 67.3211 63.9265 67.6075 63.9759 67.8902C63.9936 67.9947 64.0192 68.0978 64.0524 68.1984L64.0979 68.4424L44.7284 57.1714C44.0852 56.8054 43.7171 55.9781 43.7171 54.8448C43.7026 52.3342 45.4791 49.2714 47.6671 47.9995C48.6474 47.4328 49.5821 47.3253 50.2253 47.71L57.3457 51.8586C57.4353 51.9102 57.5416 51.9246 57.6418 51.8987C57.742 51.8728 57.8279 51.8086 57.8813 51.72C57.9068 51.6769 57.9234 51.6292 57.9302 51.5796C57.937 51.5301 57.9339 51.4797 57.921 51.4314C57.9081 51.383 57.8857 51.3377 57.8551 51.2982C57.8245 51.2586 57.7863 51.2255 57.7428 51.2009L50.6079 47.0503C50.2716 46.8601 49.892 46.7597 49.5056 46.7587C50.0415 45.5968 50.3235 44.3342 50.3328 43.0548L50.3639 35.7814V35.7337C50.3473 31.7527 47.6754 28.0178 42.8443 25.2155C40.2406 23.7141 37.2088 22.6118 33.9785 21.9066L33.6269 22.6118C33.871 22.6573 34.1171 22.7028 34.3466 22.7649C37.1874 23.4012 39.9209 24.4461 42.4618 25.867C47.0549 28.5307 49.5821 32.0236 49.5966 35.7441V35.7751C49.5914 36.6983 49.4313 37.6141 49.123 38.4843C45.233 49.6333 21.3447 53.2772 7.90011 45.5157C-1.50135 40.0953 -1.63992 31.366 7.79256 25.8835C10.8099 24.1381 14.3484 22.9593 18.0523 22.3161L18.2818 21.5199C14.2863 22.1631 10.5348 23.3812 7.40998 25.2114C2.65341 27.9826 0.0455631 31.6721 0.014542 35.6076V35.6386L7.65515e-05 42.9121C-0.016468 46.9097 2.64927 50.6611 7.48649 53.4468C10.2288 55.0392 13.4591 56.2036 17.072 56.9233C17.1224 56.9338 17.1744 56.9342 17.225 56.9245C17.2756 56.9148 17.3237 56.8951 17.3666 56.8666C17.4095 56.8381 17.4463 56.8014 17.4749 56.7586C17.5035 56.7158 17.5233 56.6677 17.5332 56.6172C17.5439 56.5187 17.5188 56.4196 17.4627 56.338C17.4065 56.2564 17.3229 56.1977 17.2271 56.1725C13.6886 55.4694 10.5493 54.3361 7.86908 52.7892C3.27589 50.14 0.748709 46.6181 0.765254 42.9121V39.2929C2.02057 42.2172 4.73182 44.5768 7.51752 46.1837C16.2613 51.2381 30.134 51.8647 40.0876 47.6087C43.9921 45.9397 47.8967 43.305 49.5821 39.4315L49.5676 43.061C49.549 44.376 49.2293 45.6692 48.6329 46.8414C48.1595 46.9381 47.7044 47.1091 47.2845 47.3481C47.1358 47.4362 46.9928 47.5335 46.8564 47.6397L44.9269 46.5208C44.4223 46.2292 43.7481 46.2768 43.0656 46.6594C41.8103 47.3936 40.83 49.0935 40.83 50.5474C40.83 51.3146 41.1216 51.9102 41.6262 52.1873L42.621 52.7685C39.0701 54.8655 33.7552 56.582 27.4 56.9046C27.3005 56.911 27.2075 56.9566 27.1416 57.0315C27.0757 57.1063 27.0422 57.2042 27.0484 57.3038C27.0483 57.3533 27.0583 57.4022 27.0778 57.4478C27.0972 57.4933 27.1256 57.5344 27.1614 57.5686C27.1972 57.6028 27.2395 57.6294 27.2858 57.6468C27.3322 57.6642 27.3815 57.672 27.431 57.6698H27.4475C34.1853 57.3348 39.8953 55.3949 43.1277 53.3372C43.0153 53.835 42.9536 54.3429 42.9436 54.8531C42.9436 56.278 43.4482 57.3348 44.3375 57.8394L65.285 70.0286H65.2995C65.6845 70.2556 66.1245 70.3723 66.5713 70.3657C67.2976 70.3414 68.0049 70.1275 68.6229 69.7453C71.026 68.368 72.9658 64.9887 72.9658 62.2423C72.972 60.8236 72.4736 59.7462 71.5637 59.2312ZM43.3572 52.3011L42.0254 51.5194C41.7648 51.3663 41.6118 51.0147 41.6118 50.5246C41.6118 49.3768 42.4556 47.9065 43.473 47.3088C43.7957 47.1413 44.2382 46.9882 44.5609 47.1702L46.2153 48.136C44.9809 49.2544 44.0394 50.6581 43.473 52.2246C43.4337 52.2473 43.4048 52.2784 43.3572 52.3011ZM68.2568 69.0691C67.2766 69.6357 66.3728 69.7412 65.6986 69.3586C65.0244 68.976 64.6646 68.1177 64.6646 67.0154V66.8934C64.7095 65.9204 64.9383 64.9646 65.3388 64.0767C65.9349 62.6698 66.8906 61.4445 68.11 60.5238C68.2668 60.4021 68.4305 60.2896 68.6001 60.1866C68.6472 60.1574 68.699 60.1364 68.7532 60.1246C68.9554 60.003 69.1713 59.9058 69.3963 59.8351C69.4892 59.7952 69.5875 59.7694 69.6879 59.7586C69.8395 59.725 69.9928 59.6995 70.1471 59.682C70.2748 59.6796 70.4025 59.6845 70.5296 59.6965C70.571 59.6927 70.6128 59.6984 70.6516 59.7131C70.8306 59.7408 71.0027 59.8025 71.1583 59.8951H71.1728C71.8305 60.2797 72.2068 61.1049 72.2068 62.2237C72.2068 64.7426 70.4469 67.8117 68.2568 69.0773V69.0691Z" fill="#43E07C"/>
<path d="M23.5618 42.9077L20.104 40.8975L24.4325 22.0449L27.8924 24.0551L23.5618 42.9077Z" fill="#F0F0F0"/>
<path d="M32.0326 15.3568L29.1538 13.6837L36.4438 9.47314L39.3246 11.1483L32.0326 15.3568Z" fill="#F0F0F0"/>
<path d="M26.1741 8.29856L22.7163 6.28839L32.9429 0.384033L36.4028 2.39422L26.1741 8.29856Z" fill="#F0F0F0"/>
<path d="M21.0423 12.0522L22.7154 6.28845L26.1732 8.29861L20.3329 28.4189L16.873 26.4088L19.6091 16.9845" fill="#F0F0F0"/>
<path d="M23.5618 42.9076L27.8923 24.055L20.3335 28.4187L26.1737 8.29838L36.4024 2.39404L32.0326 15.3567L39.3246 11.1482L23.5618 42.9076Z" fill="white"/>
<path d="M39.5912 10.8733C39.434 10.714 36.4766 9.04923 36.6359 9.14229C36.5768 9.11148 36.5112 9.09538 36.4446 9.09538C36.378 9.09538 36.3124 9.11148 36.2533 9.14229L34.1087 10.3831L36.7579 2.51203C36.7905 2.44782 36.7993 2.37411 36.7826 2.30404C36.7659 2.23397 36.7249 2.1721 36.6669 2.12944C31.8193 -0.726566 33.4924 0.257824 33.1284 0.04688C33.0694 0.0160722 33.0037 0 32.9371 0C32.8705 0 32.8049 0.0160722 32.7459 0.04688L22.5792 5.92643C22.5243 5.95062 22.4754 5.98645 22.4358 6.03144C22.3961 6.07644 22.3667 6.12953 22.3496 6.187L20.6807 11.9445C20.6656 11.9927 20.6602 12.0435 20.6651 12.0937C20.67 12.144 20.6849 12.1928 20.709 12.2372C20.7332 12.2816 20.766 12.3207 20.8055 12.3521C20.8451 12.3835 20.8905 12.4067 20.9392 12.4202C21.0368 12.4473 21.1411 12.4352 21.23 12.3865C21.3188 12.3379 21.3852 12.2564 21.4149 12.1596L22.9452 6.8612L25.7185 8.48463L20.0975 27.8397L17.3263 26.2308L19.9755 17.0899C19.9938 17.0403 20.0017 16.9876 19.9986 16.9348C19.9956 16.8821 19.9816 16.8306 19.9577 16.7835C19.9337 16.7364 19.9003 16.6948 19.8594 16.6613C19.8186 16.6278 19.7713 16.6031 19.7204 16.5888C19.6696 16.5744 19.6163 16.5708 19.564 16.5781C19.5117 16.5854 19.4615 16.6034 19.4164 16.631C19.3714 16.6587 19.3327 16.6953 19.3025 16.7387C19.2724 16.7821 19.2515 16.8313 19.2413 16.8831L16.4991 26.3156C16.4778 26.3975 16.4844 26.4842 16.5177 26.5621C16.551 26.6399 16.6092 26.7045 16.6831 26.7457C16.8362 26.8347 20.021 28.7042 20.174 28.7807C20.2223 28.8018 20.2744 28.8127 20.3271 28.8127C20.3797 28.8127 20.4318 28.8018 20.4801 28.7807C20.6352 28.7807 21.6237 28.1313 22.8087 27.4489L19.7377 40.8086C19.7186 40.8882 19.7263 40.9719 19.7596 41.0466C19.7929 41.1214 19.8498 41.1831 19.9217 41.2222C20.0768 41.3132 23.4126 43.2738 23.4375 43.2738C23.8345 43.4061 23.8511 43.1538 23.9441 42.9987L39.6615 11.3158C39.6966 11.2437 39.7086 11.1626 39.696 11.0835C39.6835 11.0043 39.6469 10.9309 39.5912 10.8733ZM36.4374 9.924L38.5571 11.1462L32.7231 14.5151L33.7571 11.4833L36.4374 9.924ZM23.4829 6.29455L32.9444 0.826548L35.6329 2.39002L26.1694 7.85593L23.4829 6.29455ZM23.7125 26.9194L27.311 24.8224L23.2989 42.31L20.5421 40.7011L23.7125 26.9194ZM24.6762 39.8139L28.2602 24.1338C28.2745 24.0614 28.2679 23.9865 28.2411 23.9178C28.2143 23.8492 28.1684 23.7896 28.1089 23.7461C28.0493 23.7026 27.9786 23.6771 27.905 23.6725C27.8314 23.6679 27.758 23.6844 27.6935 23.7201L20.9785 27.6102L26.5065 8.54461H26.523L35.726 3.23172C35.6722 3.38682 32.6942 12.2361 31.6829 15.2265C31.6578 15.2996 31.6558 15.3786 31.6772 15.4528C31.6985 15.527 31.7422 15.5929 31.8023 15.6414C31.8623 15.69 31.9359 15.7189 32.0129 15.7242C32.09 15.7295 32.1668 15.711 32.233 15.6712L38.4206 12.1182L24.6762 39.8139Z" fill="#1E3041"/>
</svg>
