<svg width="75" height="70" viewBox="0 0 75 70" fill="none" xmlns="http://www.w3.org/2000/svg">
<path d="M60.4541 58.5626L43.4732 68.3673C42.0855 69.1656 39.8809 69.1656 38.5098 68.3673L1.46234 46.8366C0.777803 46.4375 0.442739 45.9267 0.442739 45.4159L0.409668 38.9034C0.426213 39.4308 0.761228 39.9375 1.43128 40.3408L38.4932 61.8715C39.8664 62.6698 42.0689 62.6698 43.4566 61.8715L72.8398 44.8885C73.543 44.4893 73.8925 43.9641 73.8925 43.4408L73.909 49.9532C73.909 50.4785 73.5574 51.0058 72.875 51.4008L68.4844 53.9342" fill="#F0F0F0"/>
<path d="M1.44367 37.4621C0.0663362 38.2563 0.0601157 39.5302 1.42711 40.3326L38.4829 61.8675C39.8478 62.6616 42.0627 62.6616 43.4463 61.8675L72.8398 44.8927C74.215 44.0986 74.2316 42.8102 72.8646 42.016L35.8213 20.4833C34.4543 19.6871 32.229 19.6933 30.8579 20.4833L1.44367 37.4621Z" fill="white"/>
<path d="M31.7035 35.9443L15.9551 45.0955L5.44727 38.9802L21.2266 29.8621L31.7035 35.9443Z" fill="#F0F0F0"/>
<path d="M31.7035 25.395L15.9551 34.5462L5.44727 28.4309L21.2266 19.3127L31.7035 25.395Z" fill="#F0F0F0"/>
<path d="M73.9001 40.1981C73.9001 40.7234 73.5485 41.2508 72.866 41.6458L43.4663 58.604C42.0786 59.4023 39.8741 59.4023 38.5029 58.604L1.4555 37.0733C0.770967 36.6742 0.435903 36.1633 0.435903 35.6525L0.402832 29.1401C0.419377 29.6675 0.754392 30.1742 1.42445 30.5775L38.4864 52.1082C39.8596 52.9065 42.0621 52.9065 43.4498 52.1082L72.8392 35.1376C73.5423 34.7384 73.8918 34.2131 73.8918 33.6899L73.9001 40.1981Z" fill="white"/>
<path d="M1.44367 27.7112C0.0663362 28.5054 0.0601157 29.7793 1.42711 30.5817L38.4829 52.1166C39.8478 52.9107 42.0627 52.9107 43.4463 52.1166L72.8398 35.1418C74.215 34.3477 74.2316 33.0593 72.8646 32.2651L35.8213 10.7302C34.4543 9.9361 32.229 9.94231 30.8579 10.7302L1.44367 27.7112Z" fill="white"/>
<path d="M31.7035 26.1931L15.9551 35.3444L5.44727 29.2291L21.2266 20.111L31.7035 26.1931Z" fill="#F0F0F0"/>
<path d="M73.9001 30.4493C73.9001 30.9746 73.5485 31.502 72.866 31.897L43.4663 48.8552C42.0786 49.6535 39.8741 49.6535 38.5029 48.8552L1.4555 27.3245C0.770967 26.9253 0.435903 26.4145 0.435903 25.9037L0.402832 19.3914C0.419377 19.9187 0.754392 20.4254 1.42445 20.8266L38.4864 42.3594C39.8596 43.1577 42.0621 43.1577 43.4498 42.3594L72.8392 25.3867C73.5423 24.9876 73.8918 24.4602 73.8918 23.939L73.9001 30.4493Z" fill="#F0F0F0"/>
<path d="M44.8527 6.23422L35.8214 0.979267C34.4544 0.185127 32.2292 0.191331 30.858 0.979267L1.45832 17.954C0.0809846 18.7482 0.0747642 20.0221 1.44176 20.8245L38.4975 42.3594C39.8624 43.1535 42.0773 43.1535 43.4609 42.3594L72.8399 25.3908C74.2152 24.5967 74.2318 23.3082 72.8648 22.5141L50.4323 9.48523" fill="white"/>
<path d="M74.2873 30.4493L74.2707 23.9369C74.2707 23.9369 74.2707 23.9369 74.2707 23.9204C74.2583 23.2483 73.8365 22.6341 73.0692 22.1874L50.6368 9.15849C50.5491 9.11338 50.4476 9.10362 50.353 9.13123C50.2583 9.15884 50.1779 9.22167 50.1283 9.30684C50.0787 9.392 50.0637 9.49295 50.0863 9.58887C50.109 9.68479 50.1676 9.76837 50.2501 9.82234L72.6824 22.8512C73.8426 23.5233 73.7165 24.454 72.6494 25.062L56.5949 34.3414L43.2475 42.0305C41.9819 42.7585 39.9386 42.7605 38.6751 42.0305L1.61932 20.4957C0.539783 19.8753 0.488045 18.9508 1.63376 18.287L31.0335 1.31224C32.2744 0.594614 34.3838 0.588409 35.6164 1.31224L44.66 6.56512C44.7478 6.61613 44.8522 6.63019 44.9504 6.6042C45.0485 6.57822 45.1323 6.51434 45.1833 6.42658C45.2343 6.33882 45.2483 6.23438 45.2224 6.13626C45.1964 6.03814 45.1325 5.95436 45.0447 5.90335L36.0031 0.648341C34.512 -0.216114 32.1606 -0.216114 30.6509 0.648341L1.25119 17.6272C0.471531 18.076 0.0392712 18.6964 0.0289308 19.3727C0.0413393 24.0631 0.0475617 26.0981 0.0475617 25.912C0.0475617 26.52 0.413585 27.0784 1.05469 27.5168C0.409448 27.9532 0.037195 28.5115 0.0206504 29.1237C0.0330589 33.8141 0.0392813 35.849 0.0392813 35.6629C0.0392813 36.2709 0.405355 36.8293 1.04646 37.2677C0.401218 37.7041 0.0289652 38.2625 0.0124206 38.8746C0.0124206 38.885 0 38.8912 0 38.9036L0.0310009 45.4139C0.0310009 46.0881 0.461185 46.7106 1.24498 47.1656L38.3028 68.7087C39.1217 69.1524 40.0414 69.3768 40.9727 69.3601C41.9098 69.3769 42.8356 69.1526 43.6611 68.7087L60.6504 58.904C60.6963 58.8801 60.7368 58.8472 60.7696 58.8073C60.8024 58.7673 60.8268 58.7212 60.8413 58.6716C60.8557 58.6219 60.86 58.5699 60.8538 58.5186C60.8476 58.4673 60.831 58.4177 60.8052 58.373C60.7793 58.3282 60.7446 58.2892 60.7033 58.2582C60.6619 58.2272 60.6146 58.2049 60.5644 58.1927C60.5142 58.1805 60.4621 58.1786 60.4111 58.1871C60.3601 58.1956 60.3113 58.2143 60.2678 58.2421L43.2662 68.0366C41.9902 68.7666 39.9366 68.7666 38.6833 68.0366L1.6379 46.5037C1.10227 46.1935 0.810669 45.8068 0.810669 45.4139L0.787948 40.3595C0.925197 40.4755 1.07182 40.58 1.22635 40.6718L38.2862 62.2025C39.7773 63.069 42.1267 63.0711 43.6364 62.2025L57.4925 54.1991L73.034 45.2257C73.1787 45.1377 73.3169 45.0396 73.4476 44.932C73.4662 44.9176 73.4911 44.9052 73.5076 44.8907L73.5221 49.9492C73.5221 50.3483 73.2119 50.7578 72.6762 51.0701L68.2899 53.6117C68.2018 53.6625 68.1376 53.7461 68.1112 53.8442C68.0848 53.9424 68.0985 54.0469 68.1492 54.135C68.2 54.223 68.2836 54.2873 68.3817 54.3136C68.4798 54.34 68.5844 54.3263 68.6725 54.2756L73.063 51.7401C73.8551 51.2789 74.2914 50.6461 74.2914 49.9554L74.2749 43.443C74.2749 43.443 74.2749 43.4327 74.2749 43.4265C74.2749 42.8226 73.9047 42.2725 73.2781 41.8403C73.9275 41.3956 74.2976 40.8269 74.2976 40.2065L74.2811 33.6941C74.2811 33.6941 74.2811 33.6838 74.2811 33.6755C74.2811 33.0716 73.9129 32.5215 73.2842 32.0893C73.9129 31.6364 74.2873 31.0697 74.2873 30.4493ZM72.6432 44.5598L56.5887 53.8392L43.2517 61.5387C41.986 62.2687 39.9428 62.2687 38.6792 61.5387L1.62341 40.0038C0.543873 39.3834 0.492185 38.459 1.6379 37.7951L1.77644 37.7165L38.3028 58.9474C39.7897 59.8118 42.1391 59.818 43.6529 58.9474L72.546 42.2745L72.67 42.3469C73.764 42.9818 73.7909 43.9021 72.6328 44.5577L72.6432 44.5598ZM73.5221 40.2003C73.5221 40.5994 73.2119 41.0089 72.6762 41.3212L72.5543 41.3915L72.5191 41.3708C72.4963 41.408 72.4529 41.4287 72.426 41.4639L43.2662 58.2856C41.9943 59.0156 39.9387 59.0156 38.6854 58.2856L1.63997 36.7549C1.10434 36.4426 0.812739 36.0558 0.812739 35.6629L0.790018 30.6106C0.927832 30.7253 1.0744 30.829 1.22842 30.9208L38.2883 52.4515C39.7794 53.316 42.1287 53.318 43.6384 52.4515L43.6736 52.4309L43.7604 52.3812L43.9445 52.2758L44.0293 52.2261L73.0299 35.4747C73.1935 35.3714 73.3516 35.2596 73.5035 35.1397L73.5221 40.2003ZM72.6452 34.8088L72.6204 34.8233H72.6349L72.5956 34.846L72.5543 34.8708L72.335 34.997L43.2517 51.798C41.986 52.526 39.9428 52.5281 38.6792 51.798L1.61932 30.2425C0.50049 29.5952 0.519066 28.679 1.63376 28.0338L1.77235 27.9552L38.3028 49.1964C39.1217 49.6401 40.0414 49.8645 40.9727 49.8478C41.9098 49.8646 42.8356 49.6403 43.6611 49.1964L72.548 32.5174L72.6721 32.5898C73.8116 33.2578 73.733 34.1863 72.6328 34.8068L72.6452 34.8088ZM72.6762 31.5702L43.2786 48.5284C42.0026 49.2584 39.949 49.2584 38.6957 48.5284L1.65032 26.9956C1.11469 26.6854 0.823089 26.2987 0.823089 25.9058L0.800318 20.8514C0.937567 20.9674 1.08424 21.0719 1.23877 21.1637L38.2986 42.6944C39.7897 43.5609 42.1391 43.563 43.6488 42.6944L57.5049 34.6909L73.0464 25.7155C73.1919 25.6303 73.3302 25.5335 73.46 25.4259C73.4807 25.4094 73.5056 25.397 73.5242 25.3825L73.5386 30.441C73.5179 30.8464 73.2077 31.2558 72.6721 31.5681L72.6762 31.5702Z" fill="#43E07C"/>
<path d="M24.7299 8.71799C24.646 8.7176 24.5644 8.68959 24.4979 8.63827C24.4314 8.58694 24.3837 8.51514 24.362 8.43398C24.3404 8.35283 24.3461 8.26683 24.3782 8.18921C24.4103 8.11159 24.467 8.04668 24.5397 8.00452L33.2256 2.97909C33.269 2.95383 33.317 2.93737 33.3668 2.93067C33.4166 2.92396 33.4673 2.92714 33.5159 2.94001C33.5645 2.95287 33.61 2.97521 33.65 3.00569C33.6899 3.03617 33.7235 3.07423 33.7488 3.11768C33.774 3.16113 33.7905 3.20914 33.7972 3.25895C33.8039 3.30876 33.8007 3.35936 33.7879 3.40795C33.775 3.45653 33.7527 3.50214 33.7222 3.5421C33.6918 3.58206 33.6537 3.61565 33.6102 3.64091L24.9243 8.66629C24.8654 8.70074 24.7982 8.71861 24.7299 8.71799Z" fill="#1E3041"/>
<path d="M28.272 10.7737C28.2048 10.7737 28.1387 10.7561 28.0803 10.7227C28.0219 10.6893 27.9732 10.6413 27.939 10.5834C27.9138 10.5398 27.8975 10.4917 27.891 10.4418C27.8844 10.3919 27.8877 10.3412 27.9008 10.2926C27.9139 10.244 27.9364 10.1984 27.9671 10.1586C27.9978 10.1187 28.0361 10.0852 28.0797 10.0602L36.7656 5.03477C36.8091 5.00693 36.8579 4.98819 36.9088 4.97969C36.9598 4.97119 37.012 4.97312 37.0622 4.98534C37.1125 4.99757 37.1597 5.0198 37.201 5.05078C37.2424 5.08176 37.2771 5.12085 37.303 5.16559C37.3288 5.21034 37.3453 5.25984 37.3515 5.31116C37.3577 5.36247 37.3535 5.41452 37.339 5.46414C37.3246 5.51376 37.3002 5.55992 37.2674 5.59986C37.2346 5.6398 37.194 5.67271 37.1482 5.69655L28.4623 10.722C28.4046 10.7558 28.3389 10.7737 28.272 10.7737Z" fill="#1E3041"/>
<path d="M31.8131 12.8293C31.7289 12.8294 31.647 12.8016 31.5802 12.7505C31.5134 12.6993 31.4653 12.6275 31.4434 12.5462C31.4215 12.465 31.427 12.3788 31.459 12.301C31.4911 12.2231 31.5479 12.1581 31.6207 12.1158L40.3066 7.09039C40.3502 7.06527 40.3983 7.04895 40.4482 7.04242C40.4981 7.03589 40.5488 7.03926 40.5974 7.05232C40.646 7.06538 40.6915 7.0879 40.7314 7.11856C40.7713 7.14922 40.8047 7.18741 40.8298 7.231C40.8549 7.27459 40.8713 7.32269 40.8778 7.37258C40.8843 7.42246 40.881 7.47314 40.8679 7.52172C40.8548 7.57031 40.8323 7.61589 40.8017 7.65578C40.771 7.69567 40.7328 7.72911 40.6892 7.75423L31.9929 12.7776C31.9384 12.81 31.8765 12.8278 31.8131 12.8293Z" fill="#1E3041"/>
<path d="M35.3531 14.8871C35.2685 14.8875 35.1861 14.8598 35.1189 14.8084C35.0516 14.7569 35.0033 14.6846 34.9816 14.6028C34.9598 14.521 34.9659 14.4343 34.9987 14.3562C35.0315 14.2782 35.0892 14.2132 35.1629 14.1715L43.8488 9.1461C43.8924 9.11825 43.9411 9.09951 43.9921 9.09102C44.043 9.08252 44.0952 9.08445 44.1454 9.09667C44.1957 9.1089 44.2429 9.13118 44.2842 9.16216C44.3256 9.19314 44.3603 9.23218 44.3862 9.27692C44.412 9.32167 44.4285 9.37117 44.4347 9.42249C44.4409 9.4738 44.4367 9.52585 44.4222 9.57547C44.4078 9.62509 44.3834 9.67129 44.3506 9.71124C44.3178 9.75118 44.2772 9.78404 44.2314 9.80788L35.5455 14.8354C35.4871 14.8695 35.4207 14.8873 35.3531 14.8871Z" fill="#1E3041"/>
<path d="M19.6118 28.0855C19.5278 28.0851 19.4462 28.057 19.3797 28.0057C19.3132 27.9544 19.2655 27.8826 19.2439 27.8014C19.2222 27.7203 19.2279 27.6342 19.26 27.5566C19.2921 27.479 19.3488 27.4141 19.4215 27.372L47.4025 11.2017C47.4906 11.1509 47.5951 11.1373 47.6933 11.1637C47.7914 11.19 47.875 11.2543 47.9258 11.3423C47.9765 11.4304 47.9902 11.5349 47.9638 11.6331C47.9374 11.7312 47.8732 11.8148 47.7851 11.8655L19.8062 28.0338C19.7472 28.0682 19.6801 28.0861 19.6118 28.0855Z" fill="#1E3041"/>
<path d="M23.1528 30.1412C23.0688 30.1408 22.9873 30.1128 22.9208 30.0615C22.8543 30.0102 22.8065 29.9384 22.7849 29.8572C22.7633 29.776 22.7689 29.69 22.801 29.6124C22.8331 29.5348 22.8899 29.4699 22.9625 29.4277L36.953 21.3436C36.9966 21.3158 37.0453 21.297 37.0963 21.2885C37.1473 21.28 37.1994 21.282 37.2497 21.2942C37.2999 21.3064 37.3471 21.3287 37.3885 21.3597C37.4299 21.3906 37.4645 21.4297 37.4904 21.4744C37.5163 21.5192 37.5328 21.5687 37.539 21.62C37.5452 21.6714 37.541 21.7234 37.5265 21.773C37.512 21.8226 37.4876 21.8688 37.4548 21.9087C37.422 21.9487 37.3815 21.9815 37.3356 22.0054L23.3451 30.0895C23.2867 30.1236 23.2203 30.1415 23.1528 30.1412Z" fill="#1E3041"/>
<path d="M26.6949 32.1967C26.6107 32.1968 26.5289 32.1691 26.462 32.1179C26.3952 32.0668 26.3471 31.995 26.3252 31.9138C26.3033 31.8325 26.3088 31.7462 26.3409 31.6684C26.3729 31.5906 26.4297 31.5255 26.5025 31.4833L40.4931 23.3992C40.5366 23.3713 40.5853 23.3526 40.6363 23.3441C40.6873 23.3356 40.7395 23.3375 40.7897 23.3497C40.8399 23.362 40.8871 23.3842 40.9285 23.4152C40.9699 23.4462 41.0046 23.4852 41.0304 23.53C41.0563 23.5747 41.0728 23.6243 41.079 23.6756C41.0852 23.7269 41.081 23.779 41.0665 23.8286C41.052 23.8782 41.0276 23.9243 40.9948 23.9643C40.962 24.0042 40.9215 24.0371 40.8756 24.061L26.8851 32.145C26.8276 32.1792 26.7618 32.197 26.6949 32.1967Z" fill="#1E3041"/>
<path d="M30.2366 34.2546C30.1692 34.2541 30.1031 34.2362 30.0447 34.2024C29.9863 34.1687 29.9377 34.1204 29.9036 34.0622C29.8533 33.9741 29.8399 33.8697 29.8662 33.7717C29.8926 33.6737 29.9566 33.59 30.0443 33.539L44.0348 25.4549C44.0783 25.4271 44.1271 25.4084 44.1781 25.3999C44.2291 25.3914 44.2812 25.3933 44.3314 25.4055C44.3816 25.4177 44.4289 25.44 44.4703 25.471C44.5116 25.502 44.5463 25.541 44.5722 25.5858C44.598 25.6305 44.6146 25.68 44.6208 25.7313C44.627 25.7826 44.6227 25.8347 44.6083 25.8843C44.5938 25.9339 44.5694 25.9801 44.5366 26.02C44.5038 26.06 44.4633 26.0929 44.4174 26.1167L30.4269 34.2029C30.3693 34.237 30.3035 34.2548 30.2366 34.2546Z" fill="#1E3041"/>
<path d="M33.7776 36.3103C33.7102 36.3099 33.644 36.2919 33.5857 36.2582C33.5273 36.2245 33.4787 36.1761 33.4446 36.118C33.3943 36.0298 33.3809 35.9254 33.4072 35.8274C33.4336 35.7294 33.4975 35.6458 33.5853 35.5947L47.5758 27.5107C47.6638 27.4599 47.7684 27.4462 47.8665 27.4726C47.9647 27.499 48.0483 27.5633 48.099 27.6513C48.1498 27.7393 48.1634 27.8439 48.1371 27.942C48.1107 28.0401 48.0464 28.1238 47.9584 28.1745L33.9699 36.2586C33.9116 36.2927 33.8452 36.3106 33.7776 36.3103Z" fill="#1E3041"/>
<path d="M37.3185 38.3658C37.2338 38.3662 37.1514 38.3386 37.0842 38.2871C37.017 38.2357 36.9687 38.1634 36.9469 38.0816C36.9252 37.9998 36.9312 37.913 36.964 37.835C36.9968 37.7569 37.0546 37.692 37.1282 37.6503L65.1072 21.4821C65.1508 21.4569 65.1989 21.4407 65.2488 21.4341C65.2987 21.4276 65.3493 21.431 65.3979 21.444C65.4465 21.4571 65.492 21.4796 65.5319 21.5102C65.5718 21.5409 65.6053 21.5791 65.6304 21.6227C65.6555 21.6663 65.6718 21.7144 65.6784 21.7643C65.6849 21.8142 65.6815 21.8649 65.6685 21.9134C65.6554 21.962 65.6329 22.0076 65.6023 22.0474C65.5716 22.0873 65.5334 22.1208 65.4898 22.146L37.5108 38.3079C37.4531 38.3442 37.3866 38.3642 37.3185 38.3658Z" fill="#1E3041"/>
<path d="M40.8593 40.4215C40.7754 40.4211 40.6938 40.3931 40.6273 40.3418C40.5608 40.2905 40.5131 40.2187 40.4914 40.1375C40.4698 40.0563 40.4755 39.9703 40.5076 39.8927C40.5397 39.8151 40.5964 39.7502 40.669 39.708L68.648 23.5378C68.7361 23.4868 68.8407 23.4728 68.9391 23.499C69.0374 23.5252 69.1213 23.5893 69.1723 23.6773C69.2233 23.7654 69.2373 23.8701 69.2111 23.9684C69.1849 24.0667 69.1207 24.1506 69.0327 24.2016L41.0517 40.376C40.9927 40.408 40.9264 40.4236 40.8593 40.4215Z" fill="#1E3041"/>
<path d="M31.7035 16.4423L15.9551 25.5935L5.44727 19.4782L21.2266 10.3601L31.7035 16.4423Z" fill="#F0F0F0"/>
<path d="M15.9548 25.9761C15.8867 25.9751 15.82 25.9574 15.7604 25.9244L5.25251 19.8091C5.19456 19.7755 5.14644 19.7272 5.11301 19.6691C5.07957 19.611 5.06201 19.5452 5.06201 19.4782C5.06201 19.4112 5.07957 19.3454 5.11301 19.2873C5.14644 19.2292 5.19456 19.181 5.25251 19.1473L21.0319 10.0292C21.0901 9.99459 21.1565 9.97632 21.2242 9.97632C21.2919 9.97632 21.3584 9.99459 21.4166 10.0292L31.8935 16.1114C31.9509 16.1454 31.9985 16.1939 32.0315 16.2519C32.0646 16.3099 32.082 16.3755 32.082 16.4423C32.082 16.5091 32.0646 16.5747 32.0315 16.6327C31.9985 16.6907 31.9509 16.7391 31.8935 16.7732L16.1451 25.9244C16.0868 25.9567 16.0215 25.9745 15.9548 25.9761ZM6.20799 19.4885L15.9548 25.1592L30.94 16.4506L21.2201 10.8109L6.20799 19.4885Z" fill="#1E3041"/>
<path d="M61.7564 19.7842L50.7047 26.2222L40.1968 20.1068L51.2817 13.702L61.7564 19.7842Z" fill="white"/>
<path d="M50.7112 26.6049C50.6431 26.6039 50.5764 26.5861 50.5168 26.5532L40.0089 20.4379C39.951 20.4043 39.9028 20.356 39.8694 20.2979C39.836 20.2398 39.8184 20.174 39.8184 20.107C39.8184 20.04 39.836 19.9741 39.8694 19.9161C39.9028 19.858 39.951 19.8097 40.0089 19.7761L51.0938 13.365C51.1523 13.3315 51.2186 13.3138 51.2861 13.3138C51.3536 13.3138 51.4199 13.3315 51.4784 13.365L61.9553 19.4473C62.013 19.4813 62.0608 19.5296 62.0941 19.5876C62.1275 19.6456 62.1452 19.7112 62.1456 19.7781C62.1456 19.8451 62.128 19.911 62.0946 19.969C62.0612 20.0271 62.0132 20.0754 61.9553 20.1091L50.9014 26.5449C50.8444 26.5812 50.7788 26.6018 50.7112 26.6049ZM40.9582 20.1091L50.705 25.7797L60.9957 19.7823L51.2758 14.1426L40.9582 20.1091Z" fill="#1E3041"/>
</svg>
