<svg width="64" height="75" viewBox="0 0 64 75" fill="none" xmlns="http://www.w3.org/2000/svg">
<path d="M27.3267 65.9833L22.382 63.1521C22.3318 63.1206 22.2896 63.0778 22.2587 63.0272C22.2278 62.9766 22.2091 62.9196 22.2041 62.8605L21.6209 59.1731C21.6173 59.1177 21.6015 59.0638 21.5747 59.0152C21.5479 58.9666 21.5107 58.9245 21.4658 58.8918L26.4106 61.7231C26.459 61.7531 26.4995 61.7943 26.5286 61.8433C26.5578 61.8922 26.5747 61.9474 26.5781 62.0043L27.1592 65.6979C27.167 65.7542 27.1859 65.8083 27.2146 65.8573C27.2433 65.9062 27.2814 65.949 27.3267 65.9833Z" fill="#F0F0F0"/>
<path d="M49.5644 27.2483C49.47 27.2243 49.37 27.2377 49.2852 27.2855L45.8191 28.6773L40.8682 25.8441L44.3322 24.4502C44.386 24.4205 44.4465 24.4049 44.508 24.4049C44.5695 24.4049 44.6299 24.4205 44.6838 24.4502L49.5644 27.2483Z" fill="white"/>
<path d="M45.4794 28.6628L40.5264 25.8275C40.5791 25.8534 40.6371 25.8669 40.6959 25.8669C40.7547 25.8669 40.8128 25.8534 40.8655 25.8275L45.8289 28.6628C45.7745 28.6893 45.7147 28.7031 45.6541 28.7031C45.5936 28.7031 45.5338 28.6893 45.4794 28.6628Z" fill="white"/>
<path d="M13.9972 65.4931L9.05245 62.6619C8.83324 62.5378 8.81256 62.1634 8.98008 61.7891L11.0482 57.2828L16.0115 60.114L13.9435 64.6204C13.7615 65.005 13.7884 65.3773 13.9972 65.4931Z" fill="#F0F0F0"/>
<path d="M8.79883 51.6909L13.7622 54.5242C13.8064 54.5526 13.8443 54.5899 13.8735 54.6337C13.9027 54.6774 13.9225 54.7268 13.9318 54.7785C14.3454 56.6046 15.0527 58.1226 16.0206 59.2994C16.155 59.4669 16.155 59.7792 16.0102 60.1162L11.0572 57.2809C11.2019 56.9438 11.2019 56.6315 11.0572 56.464C10.0893 55.2873 9.37995 53.7755 8.9684 51.9432C8.9596 51.8916 8.93995 51.8424 8.91071 51.7989C8.88148 51.7554 8.84334 51.7186 8.79883 51.6909Z" fill="#F0F0F0"/>
<path d="M27.8887 18.6389L32.8355 21.4721C32.8838 21.4966 32.9365 21.5111 32.9905 21.5146C33.0446 21.5182 33.0988 21.5107 33.1498 21.4928C34.9511 20.9282 36.6242 20.7607 38.1525 20.9903C38.2637 20.9998 38.3747 20.9705 38.4668 20.9075C38.6202 20.8318 38.7503 20.7161 38.8433 20.5725L41.6703 16.5522C41.7567 16.3981 41.888 16.274 42.0467 16.1964C42.1039 16.1503 42.1724 16.1202 42.2451 16.1093C42.3178 16.0984 42.3921 16.107 42.4603 16.1344L45.2233 17.6834L41.1202 15.2969L37.5114 13.3218C37.4404 13.2927 37.3635 13.2813 37.2871 13.2885C37.2107 13.2957 37.1372 13.3213 37.073 13.3632C36.932 13.4642 36.8054 13.5839 36.6966 13.7189L33.8902 17.7372C33.7876 17.8721 33.6598 17.9859 33.5138 18.0722C33.4159 18.1397 33.297 18.1698 33.1788 18.157C31.6712 17.9274 29.9981 18.0929 28.1968 18.6596C28.1467 18.677 28.0936 18.6841 28.0406 18.6806C27.9877 18.677 27.936 18.6628 27.8887 18.6389Z" fill="#F0F0F0"/>
<path d="M17.2551 26.5409C16.8415 27.0221 16.443 27.5171 16.0598 28.0258C15.9599 28.1418 15.8483 28.2472 15.7268 28.3402C15.6186 28.4002 15.4935 28.4228 15.3711 28.4043L20.3179 31.2375C20.3783 31.2519 20.441 31.2538 20.5022 31.2431C20.5633 31.2325 20.6217 31.2095 20.6736 31.1755C20.805 31.094 20.9189 30.9871 21.0087 30.8612C22.4628 28.9569 24.1117 27.2095 25.9286 25.6475C26.2259 25.408 26.4204 25.0641 26.4725 24.6859L21.5236 21.8733C21.4656 22.2437 21.2717 22.5791 20.9797 22.8143C20.6343 23.1038 20.291 23.4037 19.9457 23.716L17.2551 26.5409Z" fill="#F0F0F0"/>
<path d="M13.4034 47.3851L9.91871 50.0591C9.76378 50.1825 9.63641 50.3369 9.54486 50.5126C9.45331 50.6882 9.39961 50.881 9.38721 51.0787L9.41823 55.5209C9.41463 55.5972 9.42993 55.6731 9.46276 55.742C9.4956 55.8109 9.54495 55.8707 9.60643 55.9159L4.64306 53.0764C4.57979 53.0335 4.52967 52.9738 4.49828 52.9041C4.46688 52.8343 4.45544 52.7573 4.4652 52.6815L4.42383 48.2372C4.43637 48.041 4.49022 47.8497 4.58181 47.6758C4.6734 47.5019 4.80069 47.3492 4.95534 47.2279L8.44004 44.5394L13.4034 47.3851Z" fill="#F0F0F0"/>
<path d="M21.5234 21.8733L26.4723 24.6859C26.5985 23.6808 26.8487 21.5465 26.9749 20.4567C27.0082 20.2628 27.0803 20.0778 27.1869 19.9125C27.2935 19.7473 27.4325 19.6052 27.5953 19.495L31.4667 17.2553C31.5293 17.2088 31.6034 17.1802 31.681 17.1725C31.7585 17.1649 31.8368 17.1785 31.9072 17.2119L26.9583 14.3786C26.8861 14.3387 26.8036 14.3213 26.7214 14.3287C26.6392 14.3361 26.5611 14.3679 26.4971 14.42L22.6547 16.6804C22.4891 16.7819 22.3484 16.9193 22.2432 17.0826C22.1379 17.2458 22.0708 17.4307 22.0467 17.6234C21.9019 18.7112 21.6496 20.8475 21.5234 21.8733Z" fill="#F0F0F0"/>
<path d="M13.3992 47.3851L8.44824 44.5498C8.71201 44.3401 8.89059 44.0417 8.95077 43.7102C9.37839 41.3341 10.0678 39.0127 11.0064 36.7883C11.1388 36.4657 11.1326 36.1576 10.9857 36.0045L15.9367 38.8398C16.0836 38.9908 16.0918 39.301 15.9595 39.6216C15.0211 41.846 14.3317 44.1674 13.9038 46.5434C13.8428 46.8757 13.6636 47.1748 13.3992 47.3851Z" fill="#F0F0F0"/>
<path d="M20.3239 31.2396L17.4286 30.5426C17.3022 30.5185 17.1714 30.5452 17.0646 30.6171C16.8791 30.7299 16.7282 30.8916 16.6283 31.0844L13.9046 35.8038C13.6978 36.1781 13.6647 36.5834 13.8509 36.7613L15.9438 38.8294L10.9804 35.9982L8.8875 33.9301C8.71171 33.7543 8.73238 33.3387 8.94953 32.9623L11.6566 28.2388C11.7625 28.0502 11.9122 27.8899 12.093 27.7714C12.2039 27.7001 12.3379 27.6742 12.4673 27.699L15.3626 28.4063L20.3239 31.2396Z" fill="#F0F0F0"/>
<path d="M49.8168 27.6701C49.8168 27.3185 49.5976 27.1428 49.2895 27.2751L45.813 28.6835C45.7614 28.7066 45.705 28.7172 45.6485 28.7145C45.592 28.7118 45.537 28.6958 45.4878 28.6678C45.4387 28.6397 45.3968 28.6006 45.3656 28.5533C45.3345 28.5061 45.3149 28.4522 45.3084 28.396C44.8948 26.5927 44.1855 25.0519 43.2176 23.8876C43.0853 23.7097 43.0853 23.4016 43.2404 23.0728L45.3084 18.5623C45.4842 18.188 45.4387 17.793 45.2195 17.6834L42.469 16.1427C42.398 16.1129 42.3208 16.1014 42.2442 16.1089C42.1677 16.1165 42.0942 16.143 42.0305 16.1861C41.8803 16.2729 41.7522 16.3932 41.6562 16.5377L38.8395 20.5642C38.7459 20.6972 38.6263 20.8097 38.4879 20.8951C38.3838 20.9628 38.26 20.9934 38.1363 20.982C36.4649 20.7707 34.7672 20.9439 33.173 21.4887C32.9103 21.5548 32.7118 21.4452 32.689 21.1805L32.0955 17.4849C32.0521 17.1767 31.7667 17.0713 31.4751 17.2429L27.6037 19.5178C27.4379 19.6209 27.2965 19.7589 27.1894 19.9221C27.0823 20.0853 27.0119 20.2698 26.9832 20.4629C26.8509 21.5404 26.5882 23.6746 26.4786 24.7087C26.4197 25.0819 26.2235 25.4197 25.9285 25.6558C24.1117 27.214 22.4665 28.9618 21.021 30.8694C20.9264 30.9954 20.8067 31.1003 20.6694 31.1776C20.6195 31.2142 20.562 31.2392 20.5011 31.2507C20.4403 31.2621 20.3776 31.2597 20.3178 31.2438L17.4349 30.5386C17.3701 30.5279 17.3038 30.5303 17.2398 30.5455C17.1759 30.5608 17.1157 30.5886 17.0627 30.6275C16.8782 30.7402 16.7263 30.8992 16.6222 31.0886L13.913 35.8039C13.6938 36.1782 13.671 36.5752 13.8468 36.7717L15.9376 38.8191C16.0907 38.9722 16.0907 39.2803 15.9604 39.6112C15.0177 41.8284 14.3308 44.1458 13.913 46.5186C13.8431 46.8521 13.6659 47.1535 13.4084 47.3768L9.9092 50.0384C9.75472 50.1651 9.6281 50.3223 9.53735 50.5003C9.44659 50.6782 9.39364 50.8731 9.38184 51.0725L9.42528 55.494C9.42528 55.8456 9.64655 56.0213 9.95263 55.891L13.4084 54.5034C13.4598 54.479 13.5161 54.4667 13.5729 54.4673C13.6298 54.468 13.6858 54.4816 13.7367 54.5071C13.7875 54.5326 13.8318 54.5694 13.8663 54.6146C13.9008 54.6598 13.9246 54.7123 13.9357 54.7681C14.2638 56.4234 14.9804 57.9772 16.0266 59.3013C16.1568 59.4544 16.1568 59.7625 16.0038 60.1141L13.9357 64.6246C13.76 64.9989 13.7806 65.3939 14.0247 65.5035L16.7732 67.0442C16.8444 67.0741 16.922 67.0858 16.9989 67.0782C17.0758 67.0707 17.1496 67.044 17.2136 67.0008C17.3516 66.9064 17.4708 66.7871 17.5652 66.6492L20.4026 62.6226C20.5049 62.4836 20.6318 62.3644 20.7769 62.2711C20.8669 62.2092 20.9777 62.1854 21.0851 62.2049C22.7668 62.4179 24.4749 62.2446 26.0795 61.6982C26.1315 61.6765 26.1879 61.6677 26.2441 61.6725C26.3002 61.6773 26.3544 61.6956 26.4019 61.7259C26.4494 61.7561 26.489 61.7975 26.5171 61.8463C26.5452 61.8951 26.5611 61.9501 26.5634 62.0064L27.1569 65.702C27.2024 66.0102 27.4651 66.1156 27.7774 65.944L31.6509 63.6691C31.8143 63.5633 31.9539 63.4247 32.0607 63.2619C32.1675 63.0992 32.2393 62.916 32.2713 62.724C32.4036 61.6238 32.6456 59.4895 32.778 58.4782C32.8369 58.1103 33.0236 57.7749 33.3053 57.5311C35.1347 55.9796 36.7874 54.2311 38.2335 52.3175C38.3265 52.1976 38.4383 52.0935 38.5644 52.0093C38.6685 51.9417 38.7924 51.911 38.916 51.9224L41.8113 52.6483C41.9423 52.6582 42.0731 52.6272 42.1856 52.5594C42.3694 52.4458 42.5211 52.287 42.6261 52.0982L45.3312 47.3685C45.5525 46.9942 45.5731 46.5765 45.3973 46.4007L43.3086 44.3533C43.1535 44.2003 43.1535 43.8921 43.2859 43.5612C44.2217 41.3339 44.9077 39.0096 45.3312 36.6311C45.3999 36.3053 45.5788 36.0131 45.8378 35.8039L49.335 33.1154C49.4912 32.9952 49.6194 32.8425 49.7108 32.6679C49.8023 32.4933 49.8546 32.301 49.8644 32.1041L49.8168 27.6701ZM29.7069 53.2543C24.1065 56.497 19.5133 53.9181 19.474 47.4926C19.4348 41.0671 23.9452 33.1526 29.6262 29.8292C35.2452 26.5865 39.8177 29.1447 39.857 35.6095C39.919 42.035 35.3858 49.9515 29.7069 53.2543Z" fill="white"/>
<path d="M19.4739 47.4927C19.4326 41.0486 23.9451 33.1527 29.6261 29.8293C35.245 26.5866 39.8176 29.1448 39.8569 35.6096C39.9189 42.0351 35.3857 49.9516 29.7067 53.2543C24.1023 56.4971 19.5132 53.9182 19.4739 47.4927Z" fill="white"/>
<path d="M33.4331 28.4932C34.7422 29.6886 35.526 31.6698 35.5446 34.3252C35.6004 40.7735 31.0589 48.6797 25.3779 51.9886C24.2206 52.6967 22.9279 53.1546 21.583 53.3329C23.4712 55.0535 26.4058 55.1652 29.7147 53.2584C35.3957 49.9495 39.9186 42.0433 39.8627 35.595C39.8255 30.6978 37.1742 28.0445 33.4331 28.4932Z" fill="white"/>
<path d="M50.1991 27.6701C50.2065 27.534 50.1796 27.3983 50.1206 27.2754C50.0617 27.1525 49.9728 27.0464 49.862 26.967C49.4939 26.7829 47.9552 25.8771 44.8841 24.1172C44.7806 24.0549 44.6626 24.0208 44.5417 24.0183C44.4209 24.0157 44.3016 24.0448 44.1955 24.1027L43.9514 24.2102C43.8129 24.0262 43.6743 23.8421 43.5213 23.6581C43.4886 23.5126 43.5107 23.3602 43.5833 23.23L45.6514 18.7278C45.9616 18.0618 45.7155 17.4869 45.4218 17.3339L37.7183 12.9909C37.4411 12.8131 36.92 12.8296 36.3864 13.4976L33.5987 17.4786C33.532 17.5735 33.4495 17.6561 33.3546 17.7227C33.3176 17.7348 33.2816 17.7501 33.2471 17.7682C33.0031 17.7392 32.757 17.7082 32.5129 17.6916L32.4654 17.4331C32.451 17.3228 32.412 17.2171 32.3511 17.124C32.2902 17.0309 32.2091 16.9528 32.1138 16.8955C32.0993 16.8665 32.0683 16.8665 32.0517 16.85H32.0373L27.1835 14.0642C26.9374 13.8947 26.6479 13.9112 26.3108 14.0932L22.4662 16.3453C22.2466 16.4765 22.0604 16.6569 21.9223 16.8722C21.7841 17.0875 21.6978 17.3319 21.67 17.5862C21.5625 18.3658 21.395 19.6977 21.2729 20.7545L21.1509 21.8278C21.1018 22.1042 20.955 22.3538 20.7373 22.531C19.1676 23.8256 19.2648 23.9621 16.9858 26.2824C16.9814 26.2824 16.9772 26.2842 16.9741 26.2873C16.971 26.2904 16.9693 26.2946 16.9693 26.299C16.0221 27.422 15.8174 27.7466 15.5609 27.9989C15.523 28.0177 15.4813 28.0276 15.4389 28.0279H15.3769L12.5746 27.3392C12.338 27.2875 12.0904 27.3313 11.886 27.4612C11.6544 27.6106 11.4644 27.8163 11.3338 28.0589L8.62462 32.7762C8.31854 33.3118 8.31854 33.9095 8.62462 34.2239L10.6761 36.2299L10.7072 36.2754C10.732 36.4 10.7153 36.5293 10.6596 36.6435C9.70739 38.8914 9.00955 41.2388 8.5791 43.6418C8.53709 43.8766 8.41147 44.0882 8.22547 44.2375C8.22338 44.2374 8.22131 44.2379 8.21941 44.2387C8.2175 44.2396 8.21581 44.2408 8.21444 44.2424C8.21306 44.244 8.21202 44.2458 8.21143 44.2478C8.21084 44.2498 8.2107 44.252 8.211 44.254L4.73456 46.9322C4.53214 47.0896 4.36591 47.2888 4.2471 47.516C4.12829 47.7433 4.05967 47.9934 4.0459 48.2495L4.09139 52.6917C4.09139 53.1508 4.32095 53.3494 4.45951 53.4114L9.37326 56.2282C9.59951 56.3337 9.85729 56.35 10.095 56.2736L10.3701 56.1661C10.4921 56.3502 10.6306 56.5342 10.7671 56.7183C10.7931 56.8521 10.7772 56.9908 10.7216 57.1154C10.7139 57.1241 10.7089 57.1348 10.7072 57.1464L8.62462 61.6486C8.37852 62.2297 8.47157 62.7819 8.86864 63.0114L16.5722 67.3916C16.6797 67.4516 16.8007 67.4829 16.9238 67.4826C17.1005 67.4785 17.2737 67.4317 17.4284 67.3461C17.6027 67.2198 17.7532 67.0637 17.873 66.8849L20.7208 62.8728C20.7974 62.7564 20.9029 62.6617 21.0268 62.5978C21.2752 62.6394 21.5259 62.6649 21.7776 62.6743L21.8231 62.9349C21.8368 63.0513 21.8771 63.163 21.941 63.2612C22.0048 63.3595 22.0904 63.4417 22.1912 63.5016L27.0305 66.2728C27.0642 66.297 27.1002 66.3178 27.138 66.3348C27.1525 66.3493 27.167 66.3493 27.1835 66.3659C27.3092 66.4206 27.4468 66.4423 27.5833 66.4289C27.7197 66.4155 27.8505 66.3675 27.9632 66.2893L31.8387 64.0372C32.0505 63.8972 32.2307 63.7145 32.3678 63.5008C32.5049 63.2871 32.5959 63.0472 32.6349 62.7964C32.6991 62.2525 32.7818 61.7127 33.1395 58.5547C33.188 58.2815 33.3289 58.0333 33.5387 57.8516C35.3838 56.2872 37.0522 54.5257 38.5145 52.5987C38.5936 52.4844 38.6985 52.3902 38.8206 52.3236L41.7303 53.0578C42.1936 53.1446 42.7044 52.7682 42.9546 52.3236L45.6659 47.5919C45.972 47.0562 45.972 46.473 45.6659 46.1442L43.5833 44.1071C43.5591 43.9763 43.581 43.8411 43.6454 43.7246C44.588 41.4756 45.2761 39.1282 45.6969 36.7262C45.7514 36.4859 45.8802 36.2688 46.065 36.1058L49.5559 33.4421C49.7611 33.2835 49.9291 33.0819 50.0481 32.8515C50.1671 32.6211 50.2341 32.3673 50.2446 32.1082L50.1991 27.6701ZM44.4871 24.7748L48.5901 27.1324L45.6803 28.3112C45.3763 27.0911 45.0227 25.9722 44.334 24.8348L44.4871 24.7748ZM33.1127 18.5272C33.3155 18.5523 33.5209 18.5086 33.6959 18.4031C33.897 18.2844 34.0739 18.1285 34.217 17.9439L37.0027 13.9485C37.3171 13.5348 37.3398 13.7003 37.3398 13.6424C37.497 13.7293 41.8896 16.1716 41.6125 16.0145C41.3229 16.304 41.7882 15.7332 38.5352 20.3326C38.4644 20.4514 38.3559 20.5431 38.227 20.5932H38.2125C36.4799 20.3876 34.7234 20.5656 33.0672 21.1143L32.6391 18.4651C32.7966 18.4785 32.9533 18.4999 33.1085 18.5292L33.1127 18.5272ZM22.034 20.8413C22.156 19.7845 22.309 18.4527 22.4166 17.671C22.4344 17.5364 22.482 17.4074 22.5561 17.2936C22.6302 17.1798 22.7288 17.084 22.8447 17.0133L26.6892 14.7612C26.7157 14.7394 26.7468 14.7238 26.7802 14.7157L30.9453 17.0899L27.4089 19.1724C27.1896 19.3056 27.0028 19.4862 26.8622 19.7008C26.7215 19.9155 26.6307 20.159 26.5962 20.4133C26.5176 21.0006 26.1681 23.9993 26.1536 24.0593L21.9265 21.6706L22.034 20.8413ZM16.353 28.2512C16.7356 27.7632 17.1347 27.273 17.5318 26.8036C20.0135 24.2971 19.1242 24.9981 21.2068 23.1141C21.4378 22.9366 21.6217 22.7051 21.7424 22.4399L26.0316 24.8886C25.9889 24.976 25.9369 25.0585 25.8765 25.1346C25.68 25.5296 23.6202 26.8263 20.7166 30.6171C20.6479 30.7301 20.5383 30.8123 20.4106 30.8467L16.2 28.4415C16.2603 28.3851 16.3131 28.3212 16.3571 28.2512H16.353ZM9.2926 33.1526L11.9811 28.4208C12.0573 28.3013 12.1555 28.1975 12.2706 28.1148C12.304 28.0944 12.3403 28.0791 12.3782 28.0693L15.2114 28.7724L17.7221 30.2201L17.4925 30.1601C17.4323 30.1435 17.3687 30.1435 17.3085 30.1601C17.1285 30.1146 16.6281 30.3173 16.2744 30.8942L15.2942 32.6252L13.5632 35.626C13.3419 36.1823 13.1888 36.5711 13.5487 37.0199L11.22 35.7025L11.1745 35.6715L9.16852 33.682C9.15176 33.5897 9.15449 33.4949 9.17657 33.4037C9.19866 33.3125 9.2396 33.227 9.29674 33.1526H9.2926ZM9.32363 43.7639C9.74761 41.4138 10.4308 39.118 11.3607 36.9185C11.3936 36.8447 11.4192 36.7678 11.4372 36.689L15.6643 39.1086C15.6794 39.2294 15.6578 39.3519 15.6023 39.4602C14.3139 42.492 13.9044 44.5311 13.5197 46.4586C13.4931 46.6066 13.4361 46.7474 13.3522 46.8722C13.3522 46.8887 13.3522 46.8887 13.3357 46.8887L9.04856 44.4381C9.18886 44.2359 9.2841 44.006 9.32777 43.7639H9.32363ZM4.80694 48.2351C4.81815 48.0977 4.85801 47.9641 4.9239 47.843C4.98978 47.7219 5.08027 47.6159 5.18955 47.5319L8.48191 44.9882L12.7091 47.4243L9.67726 49.7509H9.66072C9.46382 49.9155 9.30248 50.1185 9.18657 50.3475C9.07066 50.5764 9.00261 50.8266 8.98653 51.0828C9.06925 57.4834 8.96791 49.2691 9.03409 55.1259L4.85245 52.6773L4.80694 48.2351ZM13.5508 54.8653C14.0781 57.1071 14.7234 58.1742 15.6478 59.475L11.5116 57.1009C11.5524 56.9532 11.5598 56.7982 11.5333 56.6473C11.5069 56.4963 11.4472 56.3532 11.3586 56.2282C11.2676 56.1061 11.1518 55.9841 11.0836 55.8621L13.5342 54.8508L13.5508 54.8653ZM13.5818 64.4674C13.5393 64.562 13.5033 64.6594 13.4742 64.759L9.26364 62.3538C9.23809 62.2184 9.25924 62.0785 9.32363 61.9567L11.2221 57.8206L15.5113 60.2712L13.5818 64.4674ZM22.5696 62.7984L22.5552 62.6909C23.7883 62.6579 25.0105 62.4489 26.1846 62.0705C26.2074 62.2256 26.7058 65.3628 26.6727 65.1726L22.5696 62.7984ZM49.0927 32.8114L45.5997 35.4999C45.2668 35.7733 45.0353 36.1505 44.9421 36.5711C44.5306 38.9222 43.8527 41.2188 42.9215 43.4164C42.7147 43.9231 42.7685 44.3657 43.027 44.6262L45.1096 46.6633C45.1259 46.7539 45.1235 46.8469 45.1025 46.9365C45.0815 47.0261 45.0424 47.1105 44.9875 47.1845L42.2784 51.9162C42.1171 52.2368 42.0716 52.123 41.9103 52.2823H41.8937L38.9695 51.5481C38.5848 51.4716 38.1919 51.7549 37.9127 52.0837C36.4858 53.9785 34.8531 55.709 33.0444 57.2436C32.6826 57.5454 32.4472 57.9719 32.3847 58.4389C32.2234 59.6239 31.8987 62.5275 31.8801 62.6805C31.8573 62.8135 31.8076 62.9405 31.734 63.0536C31.6603 63.1666 31.5644 63.2635 31.452 63.3382L27.5227 65.6358L26.925 61.9464C26.9113 61.8365 26.8734 61.7311 26.8141 61.6376C26.7549 61.5441 26.6757 61.4649 26.5822 61.4056C26.4887 61.3463 26.3832 61.3084 26.2734 61.2946C26.1636 61.2809 26.052 61.2915 25.9468 61.3259C24.6646 61.754 22.4849 62.0808 21.1675 61.8161C21.061 61.7942 20.9513 61.794 20.8447 61.8153C20.7381 61.8366 20.6369 61.879 20.5471 61.9401C20.3603 62.0603 20.1993 62.2164 20.0735 62.3993C17.2671 66.3286 17.2423 66.4817 17.0106 66.6554C16.9651 66.6864 16.9341 66.6864 16.9341 66.7009L14.2229 65.185L14.1919 65.1705C14.1862 65.038 14.2124 64.9061 14.2684 64.7858C16.4088 60.0975 16.413 60.1575 16.444 59.9486C16.4894 59.7995 16.5005 59.6421 16.4765 59.4881C16.4525 59.3341 16.3941 59.1875 16.3054 59.0593C15.2902 57.7771 14.5973 56.2701 14.2849 54.6647C14.2582 54.5584 14.2085 54.4593 14.1394 54.3743C14.0704 54.2892 13.9836 54.2202 13.8851 54.1722C13.7867 54.1241 13.6789 54.0981 13.5693 54.0961C13.4598 54.094 13.3511 54.1158 13.2509 54.1601C13.4039 54.098 12.3451 54.5406 9.80548 55.5829C9.80548 55.4257 9.75792 50.754 9.75999 51.0662C9.77167 50.9266 9.81161 50.7908 9.87738 50.6671C9.94315 50.5434 10.0334 50.4343 10.1426 50.3466L13.619 47.6829H13.6335C13.8759 47.4782 14.0606 47.2137 14.1691 46.9156C14.3945 46.5247 14.4069 44.8476 15.6395 41.4642C15.8463 40.8996 16.0697 40.3164 16.2992 39.7498C16.686 38.8357 16.1772 38.6475 16.1152 38.4944L14.1236 36.5194V36.5028C14.1072 36.4158 14.1082 36.3264 14.1267 36.2397C14.1452 36.1531 14.1807 36.071 14.2312 35.9982L16.9424 31.2665C16.9858 31.1548 17.205 30.9149 17.325 30.9149C18.1377 31.1094 20.1562 31.6181 20.3113 31.6181H20.3258C20.6918 31.7008 21.0723 31.3761 21.306 31.0824C24.1248 27.4757 26.5589 25.5669 26.4059 25.7054C26.6255 25.4225 26.777 25.0927 26.8485 24.7417C26.9126 24.3012 27.0966 22.4234 27.3552 20.5001C27.3739 20.3655 27.4219 20.2367 27.4959 20.1227C27.5699 20.0087 27.668 19.9123 27.7833 19.8404L31.6878 17.5448C31.9566 19.1993 32.1365 20.2891 32.2854 21.2032C32.2912 21.3173 32.3237 21.4285 32.3805 21.5276C32.4373 21.6268 32.5167 21.7111 32.6122 21.7738C32.7077 21.8365 32.8167 21.8757 32.9303 21.8883C33.0438 21.9009 33.1588 21.8866 33.2657 21.8464C35.3545 21.226 36.7546 21.1784 38.043 21.3563C38.5166 21.4245 38.8702 21.1185 39.1452 20.7752C41.5504 17.3649 42.0199 16.6121 42.177 16.5336L42.1936 16.5191C42.2536 16.5025 42.2846 16.488 42.2846 16.4715L44.9958 17.9874C45.0163 18.056 45.0226 18.128 45.0144 18.1991C45.0062 18.2702 44.9837 18.3389 44.9483 18.401L42.8802 22.9032C42.6734 23.3623 42.6734 23.807 42.9112 24.1296C43.6702 25.1429 44.3134 26.0612 44.9172 28.4725C44.9363 28.584 44.9807 28.6896 45.0469 28.7813C45.1131 28.873 45.1994 28.9482 45.2993 29.0013C45.3991 29.0544 45.5098 29.084 45.6228 29.0877C45.7358 29.0914 45.8482 29.0691 45.9513 29.0226L49.4277 27.6288C49.4277 27.9638 49.4132 26.421 49.4732 32.1C49.4673 32.2396 49.4305 32.3762 49.3654 32.5C49.3003 32.6237 49.2086 32.7315 49.0968 32.8155L49.0927 32.8114Z" fill="#43E07C"/>
<path d="M29.4341 29.4921C23.7221 32.8465 19.0938 40.8541 19.0938 47.4078V47.5009C19.1392 55.3947 25.9184 57.8288 32.9829 51.2668C38.2834 46.2187 40.7175 39.1004 40.1654 34.3086C39.6607 28.7062 34.9931 26.2907 29.4341 29.4921ZM19.8651 47.4843C19.8176 41.1767 24.2887 33.3966 29.8167 30.1663C30.8768 29.518 32.0524 29.0812 33.2787 28.8799C34.503 30.0587 35.1399 31.9427 35.1627 34.3313C35.2226 40.6555 30.737 48.4191 25.178 51.6494C24.1295 52.3065 22.9565 52.7395 21.7326 52.9213C20.5373 51.7735 19.8796 49.8667 19.8651 47.4843ZM32.4804 50.6857C29.8663 53.1674 25.5937 55.5147 22.6033 53.61C22.5722 53.61 22.5578 53.5955 22.5267 53.5644C23.5978 53.3032 24.6243 52.8851 25.573 52.3236C31.3305 48.9547 35.9858 40.8851 35.9258 34.3169C35.9093 32.042 35.3426 30.1518 34.2713 28.8344C37.4293 28.8344 39.1396 31.3492 39.4167 34.5464C40.002 38.8149 37.4707 46.0325 32.4825 50.694L32.4804 50.6857Z" fill="#43E07C"/>
<path d="M11.2634 12.2174L8.40527 10.5547L26.0232 0.383911L28.8792 2.04458L11.2634 12.2174Z" fill="#F0F0F0"/>
<path d="M5.95082 9.12774L8.39116 5.38037L11.2492 7.04104L3.24372 19.3337L0.387695 17.673L3.76281 12.4863" fill="#F0F0F0"/>
<path d="M11.2496 7.04113L11.2641 12.2175L28.88 2.04468L28.8945 6.9977L11.2765 17.1685L11.2931 22.3449L3.24414 19.3338L11.2496 7.04113Z" fill="white"/>
<path d="M55.4399 68.891L52.5818 67.2304L52.5674 62.054L55.4254 63.7146L55.4399 68.891Z" fill="white"/>
<path d="M55.3971 53.5851L52.5391 51.9244L60.5859 54.9356L63.444 56.5962L55.3971 53.5851Z" fill="white"/>
<path d="M55.4116 58.747L52.5535 57.0863L52.5391 51.9244L55.3971 53.5851L55.4116 58.747Z" fill="#F0F0F0"/>
<path d="M48.2105 59.593L52.5535 57.0864L55.4115 58.7471L37.7936 68.9179L34.9355 67.2572L43.5677 62.2732" fill="#F0F0F0"/>
<path d="M37.8081 73.8855L34.95 72.2248L34.9355 67.2573L37.7936 68.918L37.8081 73.8855Z" fill="white"/>
<path d="M55.3964 53.5852L63.4433 56.5963L55.4399 68.891L55.4254 63.7146L37.8075 73.8854L37.793 68.9179L55.4109 58.7471L55.3964 53.5852Z" fill="white"/>
<path d="M29.2726 6.99767L29.2581 2.05086C29.2577 1.98141 29.2381 1.91344 29.2017 1.85435C29.1652 1.79526 29.1132 1.7473 29.0513 1.7158C29.0203 1.69926 28.9892 1.66824 28.9582 1.66824L26.2015 0.0469053C26.1424 0.0160974 26.0768 0 26.0102 0C25.9436 0 25.8779 0.0160974 25.8189 0.0469053L11.6091 8.25301V7.02872C11.6097 7.00715 11.6047 6.98577 11.5947 6.96667L11.6091 6.95218C11.6053 6.95218 11.6016 6.95065 11.5989 6.94794C11.5962 6.94523 11.5947 6.94153 11.5947 6.93769V6.92118C11.5555 6.8397 11.4973 6.76879 11.4251 6.71437H11.4106L8.56287 5.05991C8.52193 5.03347 8.47605 5.01558 8.42801 5.0074C8.37996 4.99923 8.33076 5.00094 8.28338 5.01235C8.236 5.02376 8.19143 5.04465 8.15238 5.0738C8.11333 5.10295 8.08061 5.13972 8.0562 5.1819L5.62207 8.91892C5.56859 9.00669 5.55162 9.11194 5.57481 9.21207C5.59801 9.3122 5.65952 9.39926 5.74615 9.45457C5.78719 9.48193 5.83325 9.50085 5.88167 9.51026C5.93008 9.51967 5.97989 9.51936 6.02819 9.50935C6.07649 9.49935 6.1223 9.47986 6.163 9.452C6.20369 9.42413 6.23845 9.38844 6.26524 9.34703L8.51737 5.90158L10.7075 7.17348L10.3393 7.75462L4.56529 16.6059L3.11764 18.825L0.910993 17.5552L4.06688 12.7014C4.10257 12.6612 4.12924 12.6137 4.14506 12.5623C4.16088 12.5109 4.16551 12.4567 4.15862 12.4034C4.15172 12.35 4.13345 12.2988 4.10507 12.2531C4.07669 12.2074 4.03885 12.1683 3.99409 12.1385C3.94934 12.1086 3.8987 12.0887 3.8456 12.0801C3.7925 12.0715 3.73818 12.0743 3.68628 12.0885C3.63438 12.1026 3.58613 12.1278 3.54476 12.1622C3.50339 12.1965 3.46987 12.2394 3.44645 12.2878L0.0630875 17.4787C0.032684 17.5196 0.0125145 17.5673 0.00424129 17.6177C-0.00403195 17.6681 -0.000165814 17.7197 0.0155258 17.7682C0.0394034 17.8685 0.0998713 17.9563 0.185097 18.0143L3.0473 19.6688H3.06386C3.07633 19.6821 3.09198 19.6921 3.10936 19.6977L3.15485 19.7143L11.148 22.715C11.2069 22.7354 11.2698 22.7414 11.3315 22.7327C11.3932 22.7239 11.452 22.7005 11.5029 22.6645C11.5538 22.6286 11.5954 22.581 11.6243 22.5258C11.6532 22.4706 11.6686 22.4092 11.6691 22.3469L11.6547 17.4022L29.0802 7.34101C29.1392 7.30527 29.1879 7.25485 29.2216 7.19468C29.2553 7.13452 29.2729 7.06664 29.2726 6.99767ZM26.0112 0.826573L28.0938 2.05086L11.6319 11.564L11.6174 9.1278L26.0112 0.826573ZM11.0818 16.8438C11.0204 16.8726 10.9684 16.9182 10.9319 16.9753C10.8953 17.0323 10.8756 17.0986 10.875 17.1664L10.8894 21.7906L3.83525 19.1414C3.93452 18.9884 10.9805 8.1806 10.8791 8.3295V12.4181L11.0859 12.5401C11.1423 12.5786 11.209 12.5992 11.2772 12.5992C11.3455 12.5992 11.4122 12.5786 11.4685 12.5401L28.5136 2.71056L28.5281 6.78259L11.0818 16.8438Z" fill="#1E3041"/>
<path d="M63.6449 56.2592L60.7207 54.5758L52.68 51.5585C52.4897 51.5585 52.1588 51.5295 52.1588 51.9266L52.1754 56.8569L48.0248 59.26C47.9373 59.3107 47.8735 59.3941 47.8475 59.4919C47.8215 59.5896 47.8354 59.6936 47.8862 59.7811C47.9369 59.8686 48.0203 59.9324 48.1181 59.9583C48.2158 59.9843 48.3199 59.9704 48.4073 59.9197L52.558 57.5311L54.6405 58.7409L37.796 68.4794L35.699 67.2552L43.7521 62.5999C43.7969 62.5763 43.8365 62.544 43.8686 62.5048C43.9007 62.4656 43.9246 62.4203 43.9388 62.3717C43.9531 62.3231 43.9575 62.2721 43.9517 62.2218C43.9459 62.1715 43.9301 62.1229 43.9051 62.0788C43.8518 61.9901 43.7658 61.9259 43.6656 61.9C43.5655 61.8741 43.4592 61.8885 43.3695 61.9402C41.076 63.2699 34.9132 66.8498 34.7498 66.9325C34.6883 66.9612 34.6362 67.0067 34.5995 67.0638C34.5629 67.1209 34.5433 67.1873 34.543 67.2552L34.5595 72.2309C34.5598 72.2985 34.5793 72.3646 34.616 72.4215C34.6527 72.4783 34.7048 72.5234 34.7663 72.5515L37.6141 74.2225C37.679 74.2521 37.7495 74.2676 37.8209 74.268C37.8842 74.267 37.9465 74.2514 38.0029 74.2225L52.2147 66.0143V67.2386C52.2131 67.304 52.2294 67.3687 52.2619 67.4255C52.2943 67.4824 52.3416 67.5293 52.3987 67.5612C52.8123 67.8073 55.1824 69.2612 55.3375 69.2612C55.4164 69.2841 55.5005 69.2814 55.5777 69.2536C55.655 69.2257 55.7215 69.1741 55.7676 69.1061L63.7752 56.8114C63.828 56.7201 63.8439 56.612 63.8196 56.5094C63.7954 56.4068 63.7329 56.3173 63.6449 56.2592ZM52.9405 56.8796L52.9261 52.609L55.0086 53.8023V53.8168L55.0231 58.0894L52.9405 56.8796ZM35.3164 67.9356L37.4135 69.1454L37.4279 73.2339L35.3309 72.0097L35.3164 67.9356ZM52.9716 65.5779L55.0396 64.3846L55.0541 68.2271L52.9716 67.0173V65.5779ZM55.8193 67.615L55.8048 63.7249C55.8064 63.6576 55.7902 63.5909 55.7579 63.5318C55.7256 63.4726 55.6783 63.423 55.6208 63.3878C55.5613 63.3583 55.4959 63.343 55.4295 63.343C55.3631 63.343 55.2976 63.3583 55.2382 63.3878C49.3338 66.825 46.2317 68.5849 38.1952 73.236L38.1787 69.1474L55.6042 59.0883C55.663 59.0545 55.7112 59.0052 55.7437 58.9457C55.7762 58.8862 55.7916 58.8189 55.7883 58.7512V54.156L62.8632 56.8052L55.8193 67.615Z" fill="#1E3041"/>
</svg>
