<svg width="59" height="75" viewBox="0 0 59 75" fill="none" xmlns="http://www.w3.org/2000/svg">
<path d="M23.6665 53.3831L35.3056 46.6184L35.3656 46.6556L23.7265 53.4306L23.6665 53.3831Z" fill="white"/>
<path d="M34.8085 47.6814L24.7514 53.5196C24.526 53.654 24.0607 53.6086 23.6719 53.3831C23.6106 53.3465 23.5549 53.3012 23.5064 53.2487C17.5752 47.0445 13.4018 39.7669 10.9243 31.5546C10.7899 31.1203 10.9863 30.4751 11.2552 30.3138L21.3122 24.4777C21.0413 24.6286 20.8469 25.2883 20.9813 25.7185C23.3933 33.8489 27.712 41.2858 33.578 47.4105C33.6199 47.4592 33.6703 47.4999 33.7269 47.5305C34.1177 47.7724 34.5831 47.8014 34.8085 47.6814Z" fill="white"/>
<path d="M43.9018 63.7875C45.894 64.9516 47.9965 65.9158 50.1784 66.6662L38.5393 73.4309C36.3577 72.6796 34.2554 71.7154 32.2627 70.5521L43.9018 63.7875Z" fill="white"/>
<path d="M50.1792 66.6664H50.2019L38.5628 73.431H38.54L44.3596 70.0498L50.1792 66.6664Z" fill="white"/>
<path d="M38.5625 73.4391L50.2016 66.6744C50.3712 66.7323 50.5408 66.7882 50.7104 66.842L39.0712 73.6066C38.9017 73.5529 38.7321 73.497 38.5625 73.4391Z" fill="white"/>
<path d="M29.5063 51.2715L39.5675 45.425C39.6254 45.4602 39.6854 45.4954 39.7454 45.5347L29.6842 51.379L29.5063 51.2715Z" fill="white"/>
<path d="M18.3943 3.59002C19.2608 4.03466 20.1252 4.4917 20.9959 4.96116C21.0529 4.98795 21.1082 5.01833 21.1613 5.05214C22.9192 6.07377 23.9553 7.69514 24.2635 9.91625C24.3813 10.7704 25.7111 20.1884 25.7794 20.6702C25.9738 22.0062 25.7483 22.8914 25.0576 23.2967L14.9861 29.1349C15.6934 28.7213 15.9022 27.8423 15.7078 26.5064C15.197 22.9183 14.7027 19.3301 14.1919 15.742C13.8921 13.5354 12.8704 11.8995 11.1146 10.8944C11.0547 10.8634 11.0092 10.818 10.9492 10.789C9.64217 10.0838 8.33722 9.42199 7.03019 8.76228C5.64872 8.02604 4.25277 7.36633 2.8258 6.54117C2.30051 6.22475 1.92619 6.12756 1.65527 6.28473L11.7123 0.432071C11.9832 0.28317 12.3575 0.38864 12.8828 0.688511C13.4081 0.988381 13.9355 1.27999 14.4587 1.55505" fill="white"/>
<path d="M11.1045 10.907C12.8645 11.9245 13.8882 13.5521 14.1901 15.769C14.6885 19.3551 15.1869 22.9411 15.706 26.523C15.9397 28.1258 15.5819 29.0771 14.5065 29.3397C13.4311 29.6024 12.3061 29.8547 11.2969 30.2869C10.9991 30.4027 10.786 31.0955 10.9287 31.5526C13.3353 39.6833 17.6491 47.1218 23.5109 53.2487C23.5578 53.297 23.6098 53.3399 23.666 53.3769C24.0796 53.6168 24.5677 53.6499 24.7786 53.4948C25.6348 52.862 26.3669 52.0285 27.1652 51.2985C27.2032 51.2625 27.2432 51.2286 27.2851 51.1972C27.5292 50.9987 27.8294 50.8816 28.1434 50.8622C28.6273 50.8609 29.101 51.001 29.5062 51.2654L29.6841 51.373C29.7523 51.4164 29.8185 51.4619 29.8909 51.5095C30.0088 51.5901 30.1287 51.6791 30.2508 51.7742C33.0654 54.0077 35.9028 56.1523 38.7299 58.3569C40.8372 60.0113 41.6252 61.703 41.4783 64.0482C41.3087 66.8401 41.166 69.6485 41.0813 72.4901C41.0399 73.6461 40.7793 74.1135 39.6336 73.7682C39.4495 73.7144 39.2676 73.6586 39.0835 73.6006C36.711 72.8299 34.4285 71.8058 32.2754 70.5461L31.9114 70.3393C16.6987 61.3556 2.87567 40.2736 0.716598 20.9909C0.15615 15.9117 0.313318 11.2916 1.22741 7.12033C1.44662 6.08629 1.9078 6.02218 2.82602 6.55368C4.26127 7.38091 5.65101 8.05098 7.04076 8.78721C8.34364 9.44072 9.64861 10.1067 10.9515 10.8139L11.1045 10.907Z" fill="#F0F0F0"/>
<path d="M32.2627 70.5521C33.4962 71.2659 34.7695 71.9088 36.0762 72.4775C34.7698 71.908 33.4966 71.2652 32.2627 70.5521Z" fill="white"/>
<path d="M51.5333 58.2059C51.3679 60.9978 51.2169 63.8062 51.1424 66.6581C51.1135 67.3323 51.008 67.7686 50.7082 67.9485L40.6366 73.8012C40.951 73.6213 41.0502 73.1704 41.0709 72.4942C41.1619 69.6568 41.2963 66.8504 41.4845 64.0585C41.619 61.7154 40.8393 60.0051 38.7381 58.3672C35.9007 56.1606 33.0778 54.0242 30.259 51.7762C30.1391 51.6873 30.0191 51.5963 29.8992 51.5218C29.8385 51.4671 29.7735 51.4173 29.7048 51.3729C29.6415 51.3425 29.5807 51.3072 29.5228 51.2675C29.116 51.0061 28.6413 50.8702 28.1579 50.8766C27.9236 50.8791 27.6945 50.9464 27.4961 51.071L37.5531 45.2204C37.7537 45.0989 37.9808 45.0279 38.2149 45.0136C38.7013 45.0099 39.1773 45.1542 39.5798 45.4272C39.6429 45.4569 39.7031 45.4922 39.7598 45.5327C39.8197 45.5782 39.8963 45.6237 39.9562 45.6671C40.083 45.748 40.2033 45.8386 40.3161 45.938C43.139 48.1592 45.9764 50.3058 48.7952 52.5145C50.8881 54.1669 51.676 55.8627 51.5333 58.2059Z" fill="white"/>
<path d="M36.5303 41.3655L32.9194 39.2767L33.9969 31.3953L37.6098 33.484L36.5303 41.3655Z" fill="#F0F0F0"/>
<path d="M54.9445 3.42872C52.7068 2.13617 49.6295 2.3099 46.2068 4.28904C39.4049 8.20597 33.9183 17.7191 33.939 25.5323C33.9597 29.4058 35.3164 32.1501 37.5127 33.4303L33.8915 31.3415C31.6972 30.049 30.3406 27.317 30.3199 23.4415C30.2971 15.6304 35.7858 6.11722 42.5877 2.19822C46.0104 0.239756 49.0877 0.0474182 51.3253 1.3379L54.9445 3.42872Z" fill="#F0F0F0"/>
<path d="M46.1991 4.29538C53.001 0.366037 58.5165 3.52605 58.5372 11.3268C58.5579 19.1276 53.0816 28.6469 46.2797 32.5742C44.588 33.5503 42.9708 34.0839 41.5087 34.2287L36.5308 41.3718L37.6103 33.4904C35.3499 32.233 33.9519 29.4659 33.9395 25.5345C33.9188 17.7275 39.4116 8.21438 46.1991 4.29538Z" fill="white"/>
<path d="M49.0218 52.2188C47.75 51.2075 46.4636 50.2273 45.1773 49.247C45.1008 49.1891 40.0236 45.2722 39.9554 45.2039C39.2522 44.8854 38.4643 44.294 37.3537 44.8834L33.7243 46.9969C28.0248 41.0085 23.8126 33.7644 21.4275 25.8488L25.241 23.6505C26.0683 23.1748 26.3743 22.1491 26.1448 20.6332C26.0827 20.143 24.7509 10.7271 24.6289 9.87917C24.3228 7.53811 23.2185 5.80713 21.382 4.75034C21.2062 4.62005 18.7618 3.36474 18.5632 3.26548C18.5187 3.23933 18.4693 3.2226 18.4181 3.21635C18.3669 3.2101 18.3149 3.21446 18.2654 3.22915C18.216 3.24384 18.17 3.26854 18.1305 3.30173C18.091 3.33492 18.0587 3.37588 18.0357 3.42207C18.0127 3.46826 17.9994 3.5187 17.9967 3.57024C17.994 3.62177 18.0019 3.67331 18.0199 3.72165C18.038 3.77 18.0658 3.81412 18.1016 3.85126C18.1375 3.88841 18.1805 3.91781 18.2282 3.9376C18.6418 4.15682 20.8588 5.31907 20.9684 5.38525C22.6373 6.34897 23.5866 7.85037 23.8782 9.96395C24.0002 10.8201 25.3258 20.2381 25.3941 20.7448C25.5616 21.9236 25.3775 22.6743 24.8585 22.9804C14.5346 28.9778 24.6806 23.0817 16.0981 28.0637C16.1846 27.536 16.1797 26.9974 16.0836 26.4713C15.579 22.9039 15.0723 19.3344 14.5677 15.7049C14.2658 12.9771 13.1904 11.9121 11.1223 10.4686C9.63123 9.64134 4.12394 6.89906 2.77555 6.08838L11.8875 0.775508C11.964 0.744487 12.1481 0.730012 12.6837 1.03609C13.2193 1.34216 13.7405 1.63375 14.2761 1.90881C14.3675 1.95524 14.4736 1.96368 14.5712 1.93231C14.6688 1.90094 14.75 1.8323 14.7973 1.74131C14.8403 1.65159 14.8469 1.54868 14.8157 1.4542C14.7844 1.35972 14.7178 1.281 14.6298 1.23461C14.1086 0.958871 13.5874 0.667968 13.0663 0.361893C12.6072 0.101316 12.0095 -0.157204 11.5049 0.11785C11.3457 0.208845 1.57815 5.82366 1.42925 5.9829C1.06113 6.21246 0.924625 6.68607 0.848107 7.03971C-0.0721861 11.1883 -0.239692 15.889 0.326961 21.0199C2.45501 40.0069 15.945 61.3473 31.7017 70.664C34.5577 72.2792 35.9144 72.9389 39.5128 74.1404C39.9264 74.2562 40.4083 74.3472 40.7826 74.1404C40.7992 74.1404 40.8136 74.1239 40.8302 74.1239H40.8447L50.9058 68.2754C51.396 67.9693 51.5014 67.3261 51.5263 66.6664C51.6028 63.7421 51.7558 60.8758 51.9089 58.2142C52.0536 55.7242 51.1954 53.9188 49.0218 52.2188ZM20.7533 26.248C23.1594 34.1506 27.3634 41.3885 33.0356 47.394L27.3546 50.703C27.1478 50.9098 27.4229 50.4796 26.0972 51.8052C25.617 52.3018 25.1006 52.7622 24.5524 53.1826C24.449 53.2591 24.0229 53.2219 23.7086 52.9075C17.9396 46.8339 13.6878 39.4826 11.3002 31.4533C11.2699 31.3148 11.2678 31.1717 11.2941 31.0324C11.3204 30.8931 11.3745 30.7605 11.4532 30.6426C13.0497 29.9726 14.7083 29.8154 15.0827 29.5238C15.2274 29.5238 20.6003 26.339 20.7533 26.248ZM39.7258 73.4104C38.9296 73.0919 36.5762 72.6224 32.1008 70.0125C16.5117 60.8096 3.18918 39.7235 1.09215 20.9496C0.525498 15.8952 0.693013 11.271 1.59676 7.19893C1.70637 6.63848 1.83252 6.37171 2.6308 6.89286C4.87673 8.16473 9.63122 10.4975 10.7625 11.149C12.2784 12.183 13.4199 13.0413 13.8253 15.8807C14.1479 18.1928 14.4685 20.5049 14.8055 22.817C14.9731 24.0723 15.1571 25.3277 15.3267 26.5851C15.4342 27.6667 15.4715 28.711 14.4229 28.9737C13.3103 29.2343 12.1874 29.4886 11.1761 29.9374C10.5929 30.229 10.3923 31.1204 10.5556 31.6684C13.1283 39.8166 16.9667 46.9866 23.235 53.5196C23.6135 53.8981 24.4097 54.1277 24.9494 53.8568C25.1438 53.6893 25.2017 53.7472 26.6349 52.3553C27.5366 51.4537 28.0826 50.7877 29.3234 51.6046C30.07 52.0968 28.5417 50.9594 38.5119 58.665C40.3421 60.1127 41.2541 61.5976 41.099 64.042C40.6647 73.1602 40.704 72.457 40.702 72.4942C40.582 73.429 40.6275 73.6689 39.7258 73.4104ZM51.1499 58.1894C50.8004 64.0958 50.7735 66.4616 50.7673 66.6436C50.7549 66.8773 50.7094 67.4833 50.5232 67.6219L41.4423 72.8913C41.4423 72.7362 41.736 65.2808 41.8559 64.0854C42.009 61.5583 41.1363 59.7528 38.9606 58.0673C36.9608 56.4977 35.9537 55.7511 29.8342 51.009C29.5712 50.8668 29.3005 50.7391 29.0236 50.6264C44.0771 41.8557 27.8096 51.3316 37.7364 45.5576C38.2534 45.2453 38.9503 45.4872 39.4053 45.7644C39.519 45.8223 43.7772 49.1188 44.7182 49.8385C45.99 50.8332 47.2764 51.8135 48.5462 52.8082C50.5232 54.3779 51.2884 55.9248 51.1499 58.1873V58.1894Z" fill="#43E07C"/>
<path d="M33.5879 31.5876L32.5539 39.2291C32.5416 39.3041 32.5527 39.381 32.5856 39.4494C32.6185 39.5179 32.6717 39.5745 32.7379 39.6117L36.3654 41.6943C36.4481 41.777 36.6694 41.7749 36.8555 41.5867L41.7258 34.5739C43.2562 34.4043 44.8486 33.8377 46.472 32.905C53.3629 28.9239 58.9529 19.2557 58.9218 11.3288C58.9218 7.43871 57.59 4.52892 55.1703 3.12056C55.1703 3.12056 55.1704 3.10402 55.1538 3.09988L51.5409 1.00906C49.0943 -0.405501 45.8557 -0.0973506 42.4207 1.86939C42.3768 1.89424 42.3383 1.92751 42.3074 1.96729C42.2765 2.00706 42.2537 2.05256 42.2404 2.10116C42.2271 2.14977 42.2235 2.20052 42.2299 2.25051C42.2362 2.3005 42.2524 2.34874 42.2775 2.39246C42.3025 2.43619 42.336 2.4745 42.3759 2.50526C42.4158 2.53602 42.4614 2.5586 42.5101 2.57168C42.5587 2.58476 42.6095 2.5881 42.6595 2.5815C42.7094 2.5749 42.7576 2.5585 42.8012 2.53323C45.9922 0.70919 48.9599 0.403108 51.1583 1.67291L52.1158 2.22716C50.027 2.13617 47.8721 2.9303 46.0377 3.954L45.8433 4.08015C41.5004 6.69212 38.1584 11.0123 36.0262 15.5538C34.5909 18.5877 33.5714 22.1716 33.5714 25.4992V25.5302C33.5714 28.1856 34.3117 30.3923 35.1038 31.5773C34.7481 31.2071 30.7609 30.2537 30.7257 23.4332C30.7092 17.3158 34.107 10.0072 39.18 5.24654C39.2167 5.21219 39.2462 5.17094 39.2669 5.12516C39.2877 5.07939 39.2992 5.03 39.3008 4.97978C39.3024 4.92956 39.2941 4.87952 39.2764 4.8325C39.2587 4.78548 39.2319 4.74241 39.1976 4.70574C39.1632 4.66908 39.122 4.63953 39.0762 4.6188C39.0304 4.59807 38.981 4.58658 38.9308 4.58495C38.8806 4.58331 38.8305 4.5916 38.7835 4.60931C38.7365 4.62702 38.6934 4.65382 38.6568 4.68817C33.437 9.58537 29.9419 17.1193 29.9605 23.4352C29.9626 27.2653 31.2593 30.1441 33.5879 31.5876ZM36.2351 40.7491L33.3253 39.0802L34.3055 32.0198L37.2009 33.695L36.2351 40.7491ZM58.1566 11.3329C58.1877 19.0034 52.7672 28.3904 46.0894 32.2494C44.497 33.1697 42.9501 33.697 41.4797 33.8418C41.4248 33.8502 41.3722 33.8695 41.3249 33.8986C41.2777 33.9277 41.2368 33.9661 41.2046 34.0114L37.1326 39.8454L38.0053 33.5357C38.0121 33.4587 37.9961 33.3814 37.9593 33.3134C37.9226 33.2454 37.8667 33.1897 37.7985 33.1531C35.2569 31.8792 34.3407 28.3966 34.3242 25.5302C34.3076 22.6639 35.1514 18.7883 37.0788 15.0699C39.0931 11.0413 42.5261 6.85136 46.4017 4.61991L46.4245 4.60751C52.9947 0.8126 58.1484 3.89608 58.1484 11.3329H58.1566Z" fill="#43E07C"/>
<path d="M52.536 13.6532L50.5713 12.5261C50.592 12.537 50.6151 12.5427 50.6385 12.5427C50.6619 12.5427 50.685 12.537 50.7057 12.5261L52.6725 13.6532C52.6511 13.6631 52.6278 13.6682 52.6042 13.6682C52.5806 13.6682 52.5574 13.6631 52.536 13.6532Z" fill="white"/>
<path d="M52.604 14.0525C52.5133 14.0532 52.4241 14.0297 52.3455 13.9843L50.3829 12.8613C50.2957 12.8103 50.2322 12.7269 50.2062 12.6293C50.1802 12.5317 50.194 12.4277 50.2444 12.3402C50.284 12.2688 50.3458 12.2122 50.4204 12.179C50.495 12.1458 50.5784 12.1378 50.658 12.1561C50.743 12.1429 50.8301 12.1597 50.9041 12.2037L52.8708 13.3287C52.9345 13.3649 52.9864 13.4186 53.0205 13.4834C53.0545 13.5482 53.0693 13.6214 53.0629 13.6943C53.0566 13.7673 53.0295 13.8369 52.9848 13.8949C52.9402 13.9529 52.8797 13.9968 52.8108 14.0215C52.7445 14.0448 52.6743 14.0553 52.604 14.0525Z" fill="#1E3041"/>
<path d="M54.2809 15.0204C54.277 15.0999 54.2567 15.1778 54.2211 15.249C54.1855 15.3202 54.1354 15.3832 54.0741 15.434L52.6781 16.497C52.5786 16.5858 52.5068 16.7014 52.4713 16.83C52.3023 17.7723 52.0326 18.6937 51.6668 19.5784C51.6069 19.7149 51.6069 19.8369 51.6668 19.8969L52.4941 20.7014C52.5706 20.7779 52.554 20.9434 52.463 21.0964L51.3856 22.9577C51.3554 23.0377 51.2953 23.1029 51.2181 23.1397C51.1718 23.1661 51.1202 23.1816 51.0671 23.1852L49.9131 22.8956C49.8895 22.8897 49.8649 22.8895 49.8412 22.8949C49.8175 22.9002 49.7953 22.9111 49.7766 22.9266C49.7276 22.9632 49.6819 23.004 49.6401 23.0487C49.0633 23.8093 48.4067 24.5061 47.6817 25.1271C47.6249 25.1712 47.5775 25.226 47.542 25.2884C47.5065 25.3509 47.4837 25.4198 47.4748 25.4911C47.4128 25.9047 47.3218 26.7526 47.268 27.1765C47.2591 27.2544 47.2325 27.3292 47.1902 27.3951C47.1479 27.4611 47.091 27.5165 47.024 27.5571L45.4916 28.4525C45.3696 28.527 45.2641 28.4815 45.2496 28.3615L45.0056 26.8891C44.9911 26.7815 44.9311 26.7526 44.8236 26.767C44.1839 26.9791 43.5058 27.0496 42.8362 26.9739C42.8051 26.9573 42.7596 26.9739 42.7141 26.9883C42.6572 27.026 42.6063 27.072 42.5632 27.1248L41.4381 28.7338C41.4014 28.7872 41.3551 28.8335 41.3016 28.8703C41.2746 28.8868 41.2441 28.8969 41.2126 28.8997C41.181 28.9026 41.1492 28.8982 41.1197 28.8868L40.0277 28.2788C39.9367 28.2333 39.9202 28.072 39.9967 27.9293L40.8239 26.1384C40.8528 26.0908 40.8694 26.0368 40.8722 25.9812C40.8751 25.9256 40.8642 25.8702 40.8405 25.8199C40.4199 25.2948 40.1358 24.6739 40.0132 24.0124C40.0074 23.9913 39.9973 23.9717 39.9835 23.9548C39.9697 23.9378 39.9525 23.924 39.9331 23.914C39.9136 23.9041 39.8923 23.8983 39.8705 23.8971C39.8487 23.8959 39.8269 23.8992 39.8064 23.9069L38.4415 24.4529C38.3195 24.5149 38.2347 24.4384 38.2347 24.3019L38.2202 22.542C38.2333 22.3826 38.3074 22.2344 38.427 22.1284L39.8085 21.0819C39.9138 20.9912 39.9865 20.8684 40.0153 20.7324C40.1933 19.7903 40.4706 18.8697 40.8425 17.986C40.8675 17.9387 40.8793 17.8855 40.8767 17.832C40.8742 17.7786 40.8574 17.7268 40.8281 17.682L40.0008 16.8548C39.9264 16.7803 39.9409 16.6273 40.0174 16.4763L41.0948 14.5944C41.1389 14.5191 41.2016 14.4564 41.2768 14.4124C41.2959 14.3974 41.318 14.3869 41.3416 14.3815C41.3652 14.3762 41.3897 14.3761 41.4133 14.3814L42.5673 14.6543C42.5909 14.6602 42.6155 14.6605 42.6393 14.6551C42.663 14.6497 42.6851 14.6388 42.7038 14.6233C42.7598 14.5971 42.8071 14.5555 42.8403 14.5034C43.4217 13.7497 44.0779 13.0569 44.7988 12.4353C44.9088 12.3364 44.9818 12.2029 45.0056 12.0568C45.0511 11.6432 45.1565 10.7974 45.2124 10.3714C45.2233 10.2947 45.2505 10.2212 45.2923 10.1559C45.334 10.0906 45.3893 10.035 45.4543 9.9929L47.0033 9.09743C47.1109 9.03539 47.2308 9.0664 47.2474 9.18842L47.4748 10.6609C47.475 10.6851 47.4814 10.7088 47.4935 10.7297C47.5056 10.7506 47.523 10.768 47.5439 10.7801C47.5648 10.7922 47.5885 10.7987 47.6127 10.7988C47.6368 10.799 47.6606 10.7928 47.6817 10.7808C48.3152 10.5634 48.9906 10.4962 49.6546 10.5844C49.7001 10.5988 49.7456 10.5699 49.7911 10.5534C49.8482 10.5211 49.8954 10.4739 49.9276 10.4169L51.0526 8.82446C51.0864 8.76348 51.1395 8.71546 51.2036 8.68796C51.227 8.66983 51.2544 8.65756 51.2836 8.65216C51.3127 8.64677 51.3427 8.6484 51.3711 8.65693L52.463 9.27736C52.554 9.32285 52.5706 9.48415 52.5085 9.62685L51.6813 11.4178C51.6458 11.4626 51.6251 11.5173 51.6222 11.5744C51.6192 11.6315 51.6341 11.6881 51.6648 11.7363C52.0742 12.2619 52.3573 12.8747 52.492 13.5273C52.4927 13.551 52.4998 13.5741 52.5125 13.5941C52.5252 13.6142 52.543 13.6305 52.5642 13.6412C52.5853 13.652 52.609 13.6569 52.6326 13.6554C52.6563 13.6539 52.6792 13.6461 52.6988 13.6327L54.0782 13.0868C54.2002 13.0268 54.285 13.1012 54.285 13.2398L54.2809 15.0204Z" fill="white"/>
<path d="M54.6463 13.2586C54.653 13.1687 54.636 13.0786 54.597 12.9973C54.5581 12.9159 54.4986 12.8462 54.4244 12.795C54.3502 12.7438 54.2638 12.7129 54.174 12.7053C54.0841 12.6978 53.9939 12.7139 53.9122 12.752L52.7789 13.2007C52.6253 12.6214 52.3613 12.0772 52.0013 11.598L52.8285 9.79047C52.967 9.44097 52.8698 9.08939 52.6217 8.96324L51.507 8.33042C51.2857 8.22082 50.961 8.28284 50.7066 8.61993L49.5837 10.2103C48.9822 10.1417 48.373 10.1916 47.7907 10.3571L47.6045 9.15765C47.5938 9.06858 47.5604 8.98373 47.5076 8.91121C47.4548 8.83869 47.3843 8.78089 47.3028 8.74336C47.2213 8.70582 47.1315 8.68981 47.0421 8.69681C46.9526 8.7038 46.8665 8.73358 46.7918 8.78332L45.2304 9.685C45.1172 9.75826 45.0214 9.85553 44.95 9.96989C44.8785 10.0842 44.833 10.2129 44.8168 10.3468C44.792 10.5867 44.6389 11.873 44.6203 12.0302C44.6062 12.0804 44.5782 12.1255 44.5397 12.1605C43.803 12.799 43.1279 13.5053 42.5233 14.2699L41.574 14.0528C41.2721 13.9039 40.9226 14.1293 40.7468 14.4188L39.6611 16.3194C39.4998 16.6379 39.5204 16.9398 39.7169 17.1466L40.4552 17.8849C40.0798 18.7923 39.8025 19.7373 39.628 20.7037C39.6194 20.7361 39.6031 20.7659 39.5804 20.7906L38.1762 21.8556C38.0743 21.9428 37.9914 22.0501 37.9327 22.1707C37.874 22.2913 37.8407 22.4227 37.835 22.5567L37.8494 24.3145C37.8437 24.4046 37.8614 24.4947 37.9008 24.5759C37.9403 24.657 38.0002 24.7266 38.0746 24.7777C38.1491 24.8287 38.2355 24.8596 38.3254 24.8673C38.4154 24.8749 38.5058 24.859 38.5877 24.8212L39.7107 24.3704C39.8562 24.9595 40.1232 25.5118 40.4945 25.9918L39.6817 27.7703C39.4915 28.1488 39.628 28.5086 39.8679 28.6244L40.9371 29.218C41.1439 29.3627 41.5141 29.3214 41.7788 28.9656L42.9203 27.3774C43.5174 27.433 44.1196 27.3783 44.6968 27.2161L44.9036 28.4135C44.9127 28.5036 44.9452 28.5899 44.9978 28.6637C45.0504 28.7375 45.1213 28.7963 45.2036 28.8343C45.2859 28.8723 45.3766 28.8882 45.4669 28.8804C45.5572 28.8726 45.6439 28.8414 45.7185 28.7899L47.2302 27.9068C47.3531 27.8389 47.4581 27.7427 47.5365 27.6262C47.6149 27.5097 47.6644 27.3762 47.6811 27.2367C47.7452 26.7818 47.832 25.9752 47.8879 25.5409C47.8939 25.4956 47.9168 25.4543 47.952 25.4251C48.6857 24.7985 49.35 24.0947 49.9332 23.326L49.9559 23.3012L51.0892 23.5742C51.2248 23.5707 51.3569 23.5304 51.4714 23.4576C51.5858 23.3847 51.6782 23.282 51.7386 23.1606L52.814 21.2993C52.9072 21.1724 52.9547 21.0176 52.9486 20.8603C52.9426 20.7029 52.8835 20.5522 52.7809 20.4328L52.0406 19.7172C52.4114 18.8206 52.6845 17.8867 52.8554 16.9315C52.8683 16.8871 52.8886 16.8452 52.9154 16.8075L54.3092 15.7465C54.4188 15.6612 54.5083 15.5529 54.5716 15.4293C54.6348 15.3057 54.6702 15.1697 54.6753 15.031L54.6463 13.2586ZM53.8356 15.1199L52.4252 16.1932C52.2597 16.3431 52.1442 16.5402 52.0943 16.7578C51.9323 17.6683 51.6723 18.5586 51.3188 19.4132C51.2527 19.5312 51.2254 19.6669 51.2406 19.8012C51.2558 19.9355 51.3128 20.0617 51.4036 20.1619L52.1502 20.8816V20.894L51.0562 22.7801L50.0573 22.5298C49.7636 22.4264 49.5506 22.6063 49.3541 22.8111C48.8004 23.5419 48.1717 24.2128 47.4784 24.813C47.3804 24.8869 47.2985 24.9801 47.2377 25.0868C47.1769 25.1934 47.1385 25.3114 47.1247 25.4334C47.0606 25.8656 46.9758 26.6639 46.9179 27.1209C46.9179 27.1209 46.86 27.2181 46.86 27.2243L45.6006 27.9606L45.4124 26.8335C45.369 26.5274 45.1477 26.3309 44.7361 26.3992C44.1614 26.595 43.5515 26.6656 42.9472 26.606C42.8178 26.5878 42.6858 26.6071 42.567 26.6618C42.4482 26.7164 42.3476 26.804 42.2772 26.9141L41.1956 28.4817L40.3994 28.0412L41.1956 26.302C41.2547 26.1896 41.2821 26.0632 41.2748 25.9364C41.2675 25.8096 41.2258 25.6872 41.1542 25.5823C40.7635 25.094 40.5005 24.5162 40.389 23.9009C40.3662 23.8301 40.3291 23.7647 40.2801 23.7087C40.231 23.6528 40.1711 23.6074 40.1039 23.5754C40.0367 23.5435 39.9636 23.5256 39.8893 23.5229C39.8149 23.5202 39.7408 23.5327 39.6714 23.5597L38.6146 23.9733L38.6022 22.5443C38.6127 22.5033 38.6333 22.4656 38.6622 22.4347L40.085 21.3531C40.2442 21.2077 40.3505 21.0134 40.387 20.8009C40.5574 19.8788 40.8257 18.9776 41.1873 18.1124C41.2419 17.9973 41.2614 17.8686 41.2433 17.7425C41.2253 17.6164 41.1706 17.4983 41.086 17.4031L40.3435 16.6627L41.4499 14.7828L42.4344 15.0144C42.4965 15.0404 42.564 15.0513 42.6312 15.0463C42.6984 15.0412 42.7635 15.0204 42.8211 14.9855C42.9478 14.9351 43.057 14.8488 43.1354 14.7373C43.7012 14.005 44.3393 13.3315 45.0401 12.7272C45.2257 12.5683 45.3483 12.3482 45.3855 12.1067C45.4041 11.9516 45.5634 10.6053 45.5923 10.415C45.6008 10.3823 45.6188 10.3528 45.644 10.3302L46.9179 9.59401L47.0937 10.719C47.102 10.7972 47.1279 10.8724 47.1694 10.9391C47.211 11.0057 47.2671 11.0621 47.3336 11.1039C47.4001 11.1457 47.4753 11.1719 47.5534 11.1805C47.6315 11.189 47.7105 11.1797 47.7845 11.1533C48.3413 10.9576 48.9344 10.887 49.5216 10.9465C49.6572 10.9754 49.7983 10.9609 49.9252 10.9053C50.0521 10.8496 50.1583 10.7555 50.2289 10.6363L51.3291 9.07907L52.1191 9.52782L51.3519 11.2133C51.2731 11.3264 51.232 11.4615 51.2346 11.5993C51.2373 11.7371 51.2834 11.8705 51.3664 11.9806C51.7346 12.4511 51.9913 12.9992 52.1171 13.5833C52.125 13.6637 52.152 13.741 52.1958 13.8089C52.2395 13.8768 52.2988 13.9333 52.3687 13.9737C52.4387 14.0141 52.5172 14.0373 52.5979 14.0413C52.6786 14.0454 52.759 14.0302 52.8326 13.9969L53.908 13.573V15.0061C53.8967 15.0526 53.8715 15.0945 53.8356 15.1261V15.1199Z" fill="#1E3041"/>
<path d="M42.6466 20.6537C42.6321 18.4553 44.1273 15.8516 46.0506 14.7266C48.0918 13.5478 49.8538 14.5426 49.8683 16.8857C49.889 19.0468 48.3607 21.7043 46.4622 22.8087C44.4148 23.9937 42.659 22.97 42.6466 20.6537ZM43.4118 20.6537C43.4221 22.3909 44.5533 23.0299 46.0775 22.1489C47.763 21.1687 49.1217 18.8131 49.1031 16.896C49.1031 15.1402 47.9636 14.5136 46.4353 15.3925C44.7581 16.3749 43.3994 18.7366 43.4118 20.6537Z" fill="#1E3041"/>
</svg>
