<svg width="75" height="67" viewBox="0 0 75 67" fill="none" xmlns="http://www.w3.org/2000/svg">
<path d="M28.2143 4.48449L34.4743 0.871561C35.4732 0.300772 36.3604 0.251137 37.0098 0.63373L48.4028 7.25157C47.7534 6.87104 46.8497 6.93515 45.8674 7.50594L15.3054 25.1445C13.3386 26.2696 11.7545 29.0118 11.7689 31.2785L11.8496 63.4432C11.8641 64.5682 12.2446 65.3458 12.8837 65.7181L1.49062 59.0878C0.857786 58.7218 0.45658 57.9297 0.45658 56.813L0.361456 24.6317C0.344912 22.3816 1.93109 19.6393 3.89576 18.4977L22.4195 7.83063" fill="#F0F0F0"/>
<path d="M45.8704 7.49535C47.833 6.36205 49.4275 7.26993 49.4337 9.5262L49.5247 41.6951C49.5247 43.9514 47.9488 46.6936 45.9841 47.8269L15.4201 65.4738C13.4554 66.6092 11.8609 65.6992 11.8547 63.443L11.7637 31.2761C11.7637 29.0199 13.3416 26.2755 15.3042 25.1422L45.8704 7.49535Z" fill="white"/>
<path d="M27.3011 40.7563C27.9215 40.3944 28.4468 40.6777 28.4489 41.4119L28.4799 52.5526C28.459 52.9483 28.3449 53.3335 28.1469 53.6767C27.9488 54.0199 27.6725 54.3115 27.3404 54.5276L17.6453 60.1238C17.0062 60.4919 16.4995 60.2024 16.4975 59.4703L16.4644 48.3296C16.4828 47.9331 16.5961 47.5468 16.7948 47.2032C16.9934 46.8595 17.2716 46.5685 17.6059 46.3546L27.3011 40.7563Z" fill="white"/>
<path d="M17.1242 60.6697C16.9544 60.6707 16.7874 60.6264 16.6403 60.5415C16.3011 60.3471 16.115 59.9666 16.115 59.4723L16.084 48.3295C16.1007 47.8658 16.2306 47.4133 16.4624 47.0114C16.6942 46.6094 17.0208 46.2703 17.4137 46.0236L27.1109 40.4253C27.2846 40.3069 27.4868 40.237 27.6966 40.2228C27.9064 40.2086 28.1161 40.2507 28.3042 40.3447C28.6434 40.5391 28.8295 40.9176 28.8316 41.4098L28.8626 52.5505C28.8417 53.0137 28.7098 53.4651 28.478 53.8668C28.2462 54.2684 27.9213 54.6085 27.5307 54.8584L17.8294 60.4546C17.6173 60.5871 17.3741 60.6612 17.1242 60.6697ZM27.4935 41.0892L17.7964 46.6854C17.5221 46.8671 17.2938 47.1099 17.1294 47.3949C16.965 47.6799 16.8691 47.9991 16.8492 48.3275L16.8802 59.4702C16.8688 59.5454 16.8757 59.6222 16.9002 59.6941C16.9247 59.7661 16.966 59.8312 17.0208 59.8839C17.1118 59.9376 17.2731 59.9025 17.453 59.7991L27.1482 54.2008C27.423 54.0196 27.6519 53.7769 27.8167 53.4919C27.9814 53.2068 28.0775 52.8874 28.0974 52.5587L28.0664 41.418C28.0938 41.3438 28.0938 41.2622 28.0665 41.1879C28.0392 41.1137 27.9863 41.0515 27.9174 41.0127C27.8484 40.9739 27.7679 40.9609 27.6902 40.976C27.6126 40.9912 27.5428 41.0335 27.4935 41.0954V41.0892Z" fill="#1E3041"/>
<path d="M27.2493 22.3071C27.8698 21.9431 28.3951 22.2264 28.3971 22.9606L28.4281 34.1013C28.4074 34.4971 28.2933 34.8823 28.0953 35.2255C27.8973 35.5688 27.6208 35.8603 27.2886 36.0763L17.5914 41.6746C16.9545 42.0427 16.4457 41.7532 16.4436 41.019L16.4126 29.8783C16.4318 29.4822 16.5453 29.0964 16.7435 28.753C16.9416 28.4095 17.2188 28.1182 17.5521 27.9033L27.2493 22.3071Z" fill="white"/>
<path d="M17.0726 42.2227C16.9023 42.2242 16.7347 42.1806 16.5866 42.0966C16.2495 41.9022 16.0633 41.5216 16.0613 41.0274L16.0303 29.8867C16.0479 29.4227 16.1784 28.97 16.4105 28.5678C16.6426 28.1657 16.9692 27.8262 17.3621 27.5787L27.0573 21.9804C27.2315 21.8614 27.4344 21.7911 27.645 21.777C27.8555 21.7628 28.066 21.8052 28.2546 21.8998C28.4295 22.0139 28.5704 22.1731 28.6624 22.3605C28.7545 22.5479 28.7944 22.7567 28.7779 22.9648L28.811 34.1055C28.79 34.5688 28.6581 35.0202 28.4263 35.4218C28.1946 35.8235 27.8697 36.1636 27.4791 36.4135L17.784 42.0118C17.5692 42.1427 17.324 42.2154 17.0726 42.2227ZM27.4398 22.6443L17.7447 28.2426C17.47 28.4239 17.2411 28.6666 17.0764 28.9516C16.9116 29.2366 16.8155 29.556 16.7955 29.8846L16.8285 41.0253C16.8172 41.1005 16.8241 41.1773 16.8486 41.2492C16.873 41.3212 16.9144 41.3862 16.9692 41.4389C17.0581 41.4906 17.2173 41.4596 17.4014 41.3541L27.0965 35.7497C27.371 35.5682 27.5995 35.3254 27.7639 35.0404C27.9283 34.7554 28.0241 34.436 28.0437 34.1076L28.0127 22.9648C28.0127 22.758 27.9589 22.6112 27.8721 22.5616C27.7988 22.5397 27.7214 22.5357 27.6462 22.5497C27.5711 22.5637 27.5003 22.5954 27.4398 22.6422V22.6443Z" fill="#1E3041"/>
<path d="M43.696 31.2908C44.335 30.9227 44.8417 31.2123 44.8437 31.9443L44.8748 43.0871C44.8562 43.4831 44.7431 43.8688 44.5448 44.2121C44.3466 44.5554 44.069 44.8461 43.7353 45.0601L34.0401 50.6583C33.4197 51.0203 32.8944 50.7369 32.8924 50.0048L32.8613 38.8641C32.8814 38.4682 32.9952 38.0828 33.1933 37.7394C33.3914 37.3961 33.6682 37.1046 34.0008 36.8891L43.696 31.2908Z" fill="white"/>
<path d="M33.526 51.1981C33.355 51.2003 33.1865 51.1567 33.038 51.0719C32.8619 50.9588 32.7198 50.7999 32.6269 50.6124C32.5341 50.4248 32.4939 50.2155 32.5106 50.0069L32.4775 38.8641C32.499 38.401 32.6314 37.9499 32.8635 37.5486C33.0957 37.1473 33.4207 36.8077 33.8114 36.5582L43.5045 30.9599C43.9388 30.7138 44.3669 30.6828 44.7019 30.8772C45.0369 31.0716 45.2272 31.45 45.2272 31.9464L45.2582 43.0871C45.2406 43.5509 45.1103 44.0033 44.8787 44.4055C44.647 44.8076 44.3208 45.1472 43.9284 45.3951L34.2333 50.9913C34.0197 51.1209 33.7758 51.1923 33.526 51.1981ZM43.8871 31.6134L34.194 37.2117C33.9192 37.393 33.6905 37.6358 33.5257 37.9208C33.361 38.2057 33.2648 38.5252 33.2448 38.8537L33.2758 49.9965C33.2658 50.0703 33.2735 50.1453 33.2983 50.2154C33.3231 50.2856 33.3643 50.3488 33.4185 50.3998C33.4915 50.4209 33.5684 50.4246 33.6432 50.4106C33.7179 50.3966 33.7882 50.3653 33.8486 50.3191L43.5459 44.7209C43.82 44.5391 44.0482 44.2962 44.2126 44.0113C44.377 43.7263 44.4729 43.4071 44.493 43.0788L44.462 31.9381C44.462 31.7313 44.4083 31.5803 44.3193 31.5245C44.2304 31.4687 44.067 31.5038 43.8871 31.6072V31.6134Z" fill="#1E3041"/>
<path d="M43.6444 12.8455C44.2813 12.4774 44.79 12.7669 44.7921 13.499L44.8231 24.6418C44.8046 25.0378 44.6914 25.4235 44.4932 25.7668C44.2949 26.11 44.0173 26.4008 43.6836 26.6148L33.9864 32.213C33.366 32.5749 32.8428 32.2916 32.8407 31.5595L32.8076 20.4188C32.8281 20.0228 32.9422 19.6372 33.1407 19.2939C33.3392 18.9506 33.6162 18.6592 33.9492 18.4438L43.6444 12.8455Z" fill="white"/>
<path d="M33.4691 32.7528C33.299 32.7535 33.1315 32.71 32.9832 32.6267C32.6461 32.4323 32.4579 32.0538 32.4558 31.5616L32.4248 20.4188C32.4461 19.956 32.5781 19.5049 32.8099 19.1037C33.0416 18.7024 33.3663 18.3627 33.7566 18.1129L43.4517 12.5147C43.886 12.2665 44.3121 12.2355 44.6471 12.4299C44.9821 12.6243 45.1724 13.0027 45.1745 13.4991L45.2055 24.6398C45.1884 25.1034 45.0583 25.5558 44.8266 25.9577C44.5948 26.3595 44.2684 26.6987 43.8757 26.9457L34.1785 32.544C33.9646 32.6749 33.7199 32.7469 33.4691 32.7528ZM43.8344 13.1785L34.1392 18.7747C33.8652 18.9567 33.6368 19.1997 33.4722 19.4845C33.3075 19.7694 33.2109 20.0884 33.19 20.4168L33.221 31.5596C33.221 31.7664 33.2747 31.9111 33.3657 31.9628C33.4387 31.9846 33.5158 31.9887 33.5906 31.9747C33.6654 31.9606 33.7358 31.9289 33.7959 31.8822L43.4931 26.2839C43.767 26.1018 43.9949 25.8588 44.1592 25.5739C44.3235 25.2891 44.4197 24.9701 44.4403 24.6418L44.4093 13.5011C44.4093 13.2943 44.3555 13.1434 44.2666 13.0875C44.1777 13.0317 44.0143 13.0668 43.8344 13.1723V13.1785Z" fill="#1E3041"/>
<path d="M49.8159 9.52637C49.8159 8.31034 49.3817 7.39212 48.6061 6.93093C48.6061 6.93093 48.6061 6.9206 48.5958 6.91646H48.5834L37.209 0.298624C36.4148 -0.168761 35.3767 -0.0860391 34.2889 0.536451L28.0288 4.14938C27.9852 4.1745 27.947 4.20796 27.9163 4.24785C27.8856 4.28774 27.8632 4.33328 27.8501 4.38186C27.8371 4.43045 27.8337 4.48113 27.8402 4.53102C27.8467 4.5809 27.863 4.62901 27.8881 4.6726C27.9133 4.71619 27.9467 4.7544 27.9866 4.78506C28.0265 4.81572 28.0721 4.83822 28.1206 4.85128C28.1692 4.86434 28.2199 4.8677 28.2698 4.86117C28.3197 4.85464 28.3678 4.83835 28.4114 4.81323L34.6631 1.21271C35.4904 0.732919 36.268 0.650195 36.8181 0.972815L46.7449 6.7324C46.6994 6.74481 46.6538 6.76549 46.6083 6.77997C46.5256 6.80478 46.4429 6.83167 46.3581 6.86269C46.159 6.93778 45.9655 7.02693 45.779 7.12947C45.748 7.14808 45.717 7.15429 45.686 7.1729L15.1198 24.8198C13.1242 25.9717 11.3808 28.8587 11.3973 31.2846L11.418 47.3308L11.4573 63.4473C11.4715 63.812 11.5186 64.1747 11.598 64.5309L1.69807 58.7631C1.16451 58.457 0.85842 57.7518 0.85842 56.8274L0.763297 24.6461C0.74882 22.5263 2.24816 19.9246 4.10736 18.8451L22.6145 8.16144C22.6581 8.13632 22.6964 8.10286 22.727 8.06297C22.7577 8.02308 22.7802 7.97754 22.7932 7.92895C22.8063 7.88037 22.8097 7.82969 22.8031 7.7798C22.7966 7.72992 22.7803 7.68181 22.7552 7.63822C22.7301 7.59463 22.6966 7.55641 22.6567 7.52576C22.6168 7.4951 22.5713 7.4726 22.5227 7.45954C22.4741 7.44648 22.4234 7.44312 22.3736 7.44965C22.3237 7.45618 22.2756 7.47247 22.232 7.49759L3.72272 18.1833C1.65465 19.3869 -0.0204913 22.2885 0.00018945 24.6502L0.0953128 56.8294C0.0953128 58.033 0.541996 58.9802 1.31546 59.4269L12.7085 66.0572C13.6143 66.5783 14.698 66.3322 15.6038 65.8049L46.1761 48.158C48.2752 46.9461 49.9132 44.1046 49.8987 41.6911L49.8159 9.52637ZM45.7935 47.4962L15.2274 65.1431C13.4778 66.1482 12.2432 65.3499 12.237 63.4431L12.1915 47.3514L12.1522 31.2763C12.1377 29.14 13.7115 26.497 15.4963 25.4754L46.0603 7.83055C46.1182 7.79539 46.1762 7.77885 46.2341 7.74783C46.3899 7.66378 46.5516 7.5912 46.718 7.53068C46.8044 7.50492 46.892 7.48352 46.9806 7.46657C47.1014 7.43619 47.2245 7.41612 47.3487 7.40659C47.4533 7.39725 47.5585 7.39725 47.6631 7.40659C47.7065 7.40659 47.75 7.40659 47.7893 7.42107C47.9158 7.44723 48.0382 7.49036 48.1532 7.54929C48.1677 7.54929 48.1863 7.55963 48.2029 7.56997C48.7468 7.88225 49.0487 8.57712 49.0507 9.52223L49.1417 41.6891C49.1479 43.8254 47.6465 46.427 45.7935 47.4962Z" fill="#43E07C"/>
<path d="M37.0479 24.4186L40.5905 22.3712C40.8128 22.2329 40.998 22.0426 41.1302 21.8167C41.2624 21.5908 41.3377 21.3361 41.3495 21.0746C41.3495 20.5844 41.0062 20.3797 40.5864 20.6217L37.0417 22.667C36.8184 22.8131 36.6331 23.0103 36.5011 23.2423C36.3692 23.4742 36.2943 23.7343 36.2827 24.0009C36.2848 24.4331 36.564 24.6958 37.0479 24.4186Z" fill="#43E07C"/>
<path d="M35.8376 41.6786L41.8929 38.1836C42.034 38.0948 42.1514 37.9731 42.2353 37.8291C42.3192 37.6851 42.367 37.5229 42.3747 37.3564C42.3747 37.0151 42.168 36.92 41.8908 37.0813L35.8334 40.5764C35.6902 40.6627 35.5709 40.7838 35.4867 40.9283C35.4025 41.0729 35.356 41.2363 35.3516 41.4036C35.3536 41.7345 35.5749 41.8317 35.8376 41.6786Z" fill="#43E07C"/>
<path d="M41.899 40.2744L35.8437 43.7694C35.7003 43.8557 35.5809 43.9767 35.4967 44.1213C35.4124 44.2659 35.3661 44.4294 35.3618 44.5967C35.3618 44.942 35.5997 45.0103 35.8458 44.8717L41.9031 41.3767C42.0438 41.2876 42.1609 41.1659 42.2444 41.0219C42.328 40.8778 42.3754 40.7158 42.3829 40.5494C42.3829 40.2165 42.1885 40.1069 41.899 40.2744Z" fill="#43E07C"/>
<path d="M22.8075 35.1291C23.4696 34.7314 24.0511 34.213 24.5219 33.6008C24.6667 33.4188 24.7577 33.0755 24.6005 32.9804C24.5447 32.9473 24.4764 32.9597 24.3937 33.0135L24.2552 33.1293C23.875 33.6128 23.4079 34.021 22.8778 34.3329C22.2201 34.7135 21.4674 34.8789 21.0889 34.2171C20.7105 33.5553 20.8387 32.4944 21.0889 31.7995C21.3939 30.8784 22.0289 30.1028 22.8716 29.6219C23.281 29.3541 23.7619 29.2164 24.251 29.2269L24.3875 29.1834C24.4815 29.1319 24.5578 29.0534 24.6067 28.958C24.6576 28.8744 24.6854 28.7788 24.6874 28.6809C24.6874 28.5299 24.6295 28.4555 24.524 28.4451C23.9107 28.4166 23.3042 28.5847 22.793 28.9249C21.7334 29.5626 20.9246 30.5444 20.5016 31.7065C20.15 32.635 19.9556 34.2109 20.5016 35.0154C21.0248 35.7868 21.9885 35.6089 22.8075 35.1291Z" fill="#43E07C"/>
<path d="M22.1474 49.0081C22.1474 48.1416 21.7338 47.6928 20.9314 48.1581C20.5515 48.3948 20.2402 48.7268 20.0286 49.1213C19.8171 49.5157 19.7126 49.9587 19.7257 50.4061C19.7257 51.3099 20.1538 51.709 20.9397 51.2561C21.319 51.0187 21.6298 50.6865 21.8416 50.2923C22.0534 49.8981 22.1588 49.4555 22.1474 49.0081ZM20.2489 50.1021C20.2489 49.5872 20.4557 48.9998 20.9335 48.7248C21.4112 48.4497 21.6201 48.7889 21.6222 49.3101C21.6242 49.8312 21.4009 50.4289 20.9397 50.6957C20.4785 50.9624 20.251 50.6398 20.2489 50.1021Z" fill="#43E07C"/>
<path d="M24.2524 46.5698C24.2524 46.4912 24.2338 46.4375 24.1842 46.4168C24.1515 46.4111 24.118 46.412 24.0857 46.4194C24.0533 46.4269 24.0229 46.4408 23.996 46.4602C23.8999 46.5188 23.8269 46.6086 23.7892 46.7146L20.7326 54.1245L20.6974 54.2982C20.693 54.3288 20.6977 54.3601 20.7109 54.388C20.7242 54.416 20.7454 54.4394 20.7719 54.4554C20.7996 54.4696 20.8308 54.4757 20.8618 54.4732C20.8929 54.4706 20.9226 54.4594 20.9477 54.4409L21.0779 54.321L21.171 54.1535L24.2007 46.7932L24.2524 46.5698Z" fill="#43E07C"/>
<path d="M23.9977 49.641C23.187 50.1084 22.7899 51.0432 22.792 51.889C22.7941 52.7349 23.2056 53.2064 24.008 52.739C24.3877 52.5006 24.699 52.1678 24.9114 51.773C25.1239 51.3782 25.2302 50.935 25.2199 50.4869C25.2178 49.6307 24.8063 49.1736 23.9977 49.641ZM23.9977 52.1785C23.5365 52.4453 23.309 52.1165 23.3069 51.5871C23.3049 51.0576 23.5303 50.4662 23.9915 50.1994C24.4527 49.9326 24.6801 50.2697 24.6801 50.7929C24.6801 51.3161 24.4775 51.9076 24.006 52.1785H23.9977Z" fill="#43E07C"/>
<path d="M60.622 54.4739L70.7928 48.5075C70.0545 48.9212 70.4247 48.1994 70.4247 47.1633C70.4247 45.0745 68.9584 42.5246 67.1447 41.4782C66.2286 40.9508 65.4034 40.9032 66.1293 40.4875L38.3282 56.7984C37.6003 57.2121 38.4275 57.2617 39.3436 57.7891C41.1573 58.8376 42.6298 61.3875 42.6236 63.4763C42.6236 64.5103 42.2513 65.2403 42.9855 64.8205L54.8066 57.878" fill="white"/>
<path d="M33.6538 65.2632L42.0978 65.0419C42.0978 65.0419 42.2529 65.0419 42.2901 65.0295C43.2766 64.9509 43.9445 64.1133 43.9445 62.7132C43.9445 60.6245 42.4762 58.0746 40.6646 57.026C39.1611 56.1595 37.8872 56.5897 37.4922 57.9422L33.6538 65.2632Z" fill="#F0F0F0"/>
<path d="M33.6504 65.2609L37.2406 65.1678C37.2695 63.7967 36.6077 62.653 35.3317 62.076L33.6504 65.2609Z" fill="white"/>
<path d="M62.6855 42.5119C63.2832 42.1645 64.1663 42.1976 65.0825 42.7188C66.8962 43.7652 68.3687 46.3151 68.3625 48.4039C68.3625 49.4379 67.9488 50.1742 67.3615 50.5154L72.9204 47.254C73.5057 46.9128 73.878 46.1828 73.878 45.1467C73.878 43.0579 72.4117 40.508 70.598 39.4615C69.6818 38.9342 68.8546 38.8866 68.257 39.234L62.6855 42.5119Z" fill="#F0F0F0"/>
<path d="M70.7841 39.1369C69.7729 38.5558 68.8091 38.4793 68.0584 38.9074L38.1375 56.4715C37.6613 56.7625 37.3115 57.2215 37.1572 57.7579L33.3147 65.0768C33.2827 65.1352 33.2665 65.2009 33.2676 65.2675C33.2688 65.3341 33.2873 65.3992 33.3214 65.4565C33.3554 65.5137 33.4038 65.5611 33.4618 65.5939C33.5197 65.6266 33.5853 65.6437 33.6519 65.6434C33.8049 65.6434 42.0937 65.4139 42.3191 65.4139C42.6312 65.3868 42.9337 65.293 43.2064 65.1388L54.9944 58.217C55.0388 58.1925 55.0779 58.1594 55.1093 58.1196C55.1408 58.0798 55.164 58.0341 55.1776 57.9853C55.1911 57.9364 55.1947 57.8853 55.1882 57.835C55.1817 57.7847 55.1652 57.7362 55.1397 57.6923C55.1142 57.6485 55.0802 57.6102 55.0397 57.5797C54.9992 57.5492 54.9529 57.5271 54.9037 57.5147C54.8546 57.5023 54.8034 57.4999 54.7533 57.5075C54.7031 57.5152 54.655 57.5328 54.6118 57.5593L44.2156 63.654C44.291 63.3482 44.3264 63.034 44.3211 62.7192C44.3376 60.4981 42.7762 57.8034 40.8612 56.7011C40.5695 56.526 40.2549 56.3924 39.9264 56.304L62.882 42.8429C63.3887 42.5534 64.1394 42.6361 64.8881 43.0497C66.6046 44.03 67.9902 46.4331 67.9902 48.3937C67.9902 49.2209 67.6986 49.8785 67.1939 50.1701L67.1795 50.1846L60.4314 54.1553C60.3869 54.1798 60.3478 54.2129 60.3164 54.2527C60.2849 54.2925 60.2617 54.3381 60.2482 54.387C60.2346 54.4359 60.231 54.487 60.2375 54.5373C60.244 54.5876 60.2605 54.6361 60.286 54.68C60.3115 54.7238 60.3455 54.7621 60.3861 54.7926C60.4266 54.8231 60.4728 54.8452 60.522 54.8576C60.5712 54.87 60.6224 54.8724 60.6725 54.8648C60.7226 54.8571 60.7707 54.8395 60.814 54.8129L73.1107 47.6016C73.8449 47.1714 74.2585 46.2842 74.2585 45.1654C74.2606 42.9505 72.7137 40.2413 70.7841 39.1369ZM34.2951 64.8638L35.4883 62.5889C35.8826 62.8162 36.2139 63.1384 36.4519 63.5263C36.6899 63.9143 36.8272 64.3555 36.8512 64.81L34.2951 64.8638ZM40.4806 57.3608C42.1806 58.3411 43.5827 60.7442 43.5579 62.7047C43.5579 63.6643 43.1547 64.597 42.2427 64.6487C41.736 64.6487 44.0129 64.6197 37.6019 64.7707C37.5804 64.1821 37.4068 63.6091 37.098 63.1075C36.7892 62.6059 36.3558 62.1928 35.8399 61.9085L37.8625 58.0495C38.1313 57.0506 39.0702 56.5605 40.4806 57.3608ZM72.7281 46.9315L68.6251 49.3367C68.7052 49.0365 68.7462 48.7271 68.7471 48.4164C68.7471 46.1974 67.2022 43.5027 65.2727 42.4004C64.9757 42.2251 64.6564 42.0909 64.3235 42.0012L68.441 39.5671C68.9477 39.2755 69.6508 39.3603 70.4015 39.7967C72.116 40.7914 73.5036 43.18 73.5036 45.155C73.4954 45.9988 73.2182 46.642 72.7281 46.9315Z" fill="#1E3041"/>
</svg>
