<svg width="58" height="75" viewBox="0 0 58 75" fill="none" xmlns="http://www.w3.org/2000/svg">
<path d="M0.401367 65.8338C0.409639 66.9202 0.422059 68.0287 0.438604 69.1592C2.13649 79.6961 36.6568 70.855 35.5959 59.9708C35.7303 49.4546 35.0954 38.7482 32.0098 33.6835C31.5445 32.9442 30.8873 32.345 30.1083 31.9499C29.3293 31.5547 28.4576 31.3784 27.5862 31.4396C19.9343 31.8781 10.4026 37.5136 3.61516 43.7529C1.35683 45.6597 0.616454 51.1629 0.434463 58.6431" fill="white"/>
<path d="M27.4578 38.6633C27.5574 40.5674 27.2842 42.4725 26.6533 44.2719L22.8584 42.2513C22.8584 42.1293 24.9906 37.3583 25.2078 34.3782L26.7402 36.6428C27.1588 37.2384 27.4069 37.937 27.4578 38.6633Z" fill="#F0F0F0"/>
<path d="M12.6475 35.2881L13.3754 31.8944L25.8232 29.5492C26.5428 33.1021 24.4355 39.2381 22.8617 42.2451L15.4972 42.3506L12.7322 37.3665L12.6475 35.2881Z" fill="white"/>
<path d="M12.648 35.2881C12.1058 35.8733 11.7139 36.5814 11.506 37.3517C11.2982 38.1219 11.2805 38.9311 11.4547 39.7096C11.6183 40.453 11.928 41.1564 12.3658 41.7791C12.8035 42.4018 13.3606 42.9314 14.0046 43.337C16.0334 44.6585 18.4406 45.5002 21.094 46.0255L22.8622 42.2368C17.601 41.3062 13.7958 39.2857 12.648 35.2881Z" fill="#F0F0F0"/>
<path d="M28.0411 26.7635C27.9832 27.9781 27.8805 29.2107 27.7329 30.4612C27.3297 33.8715 24.4882 36.4317 21.1792 36.3407C19.2745 36.289 16.9935 35.8527 14.3256 35.0172C13.6589 34.8029 13.0467 34.4461 12.5317 33.9715C12.0168 33.4968 11.6113 32.9158 11.3435 32.2687L7.71191 23.6221L11.6413 9.48474L27.0608 14.9176C27.5848 17.2413 27.9099 19.6053 28.0328 21.9842C28.0949 23.7813 28.1114 25.2993 28.0411 26.7635Z" fill="white"/>
<path d="M14.3668 24.7969C14.5121 24.7227 14.623 24.5951 14.6762 24.4408C14.7294 24.2865 14.7208 24.1176 14.6521 23.9696C13.0845 20.7062 13.0535 18.5471 14.9293 17.0974C14.9663 17.0681 15.0109 17.0502 15.0579 17.0458C15.1049 17.0414 15.1521 17.0507 15.1939 17.0726C15.2357 17.0945 15.2703 17.128 15.2934 17.1691C15.3165 17.2102 15.3273 17.2571 15.3243 17.3042L15.5807 20.336C15.5807 20.336 17.4792 16.295 22.3826 17.1491C24.5913 17.2753 26.3657 16.9919 27.619 16.2143H21.3341V6.31036C21.1273 6.26693 20.9205 6.21316 20.7137 6.17593C19.4612 5.95012 18.189 5.85172 16.9167 5.88226C16.6271 5.88226 16.3521 5.88226 16.0791 5.905C9.3889 6.31862 4.61786 12.5373 5.45957 19.455L5.48024 19.5812C5.44302 23.0969 6.79346 26.5919 9.13658 30.1573C10.5656 31.9793 12.0712 33.7537 12.8777 34.2748L12.6875 34.0784C12.6412 34.0275 12.6022 33.9704 12.5717 33.9088C11.7692 32.3267 11.5376 30.8749 11.6203 29.1336C11.6234 29.0244 11.5946 28.9166 11.5376 28.8234L9.27515 25.3346C9.03987 24.9639 8.93269 24.5263 8.97004 24.0888C9.0074 23.6514 9.18723 23.2382 9.48196 22.9128C9.66094 22.7118 9.88189 22.5525 10.1292 22.4462C10.3765 22.3399 10.6441 22.2891 10.9132 22.2976C11.1822 22.3061 11.4461 22.3736 11.6863 22.4952C11.9264 22.6169 12.1369 22.7898 12.3028 23.0018L13.5974 24.6273C13.6885 24.7409 13.8159 24.8198 13.9582 24.8507C14.1006 24.8816 14.2492 24.8625 14.3792 24.7969H14.3668Z" fill="white"/>
<path d="M29.6588 10.6948C29.6588 10.6948 33.9811 13.1578 33.0091 16.7728C32.5955 18.2743 31.3071 19.6268 29.9277 20.7022C28.5155 21.8006 26.8791 22.5751 25.1344 22.9707C23.3896 23.3663 21.5791 23.3734 19.8313 22.9915C17.9613 22.5588 16.1489 21.907 14.4316 21.0496C6.61841 17.2257 5.87183 17.4181 5.87183 17.4181C5.87183 17.4181 4.63099 17.6249 4.267 17.2836C4.267 17.2836 2.81934 16.1814 3.7355 13.5342C4.65165 10.8871 8.96566 10.248 8.96566 10.248L29.6588 10.6948Z" fill="white"/>
<path d="M5.99868 7.30716C6.43513 6.31068 7.01173 5.38169 7.71103 4.54836C7.71103 4.54836 8.97671 1.34698 12.1719 0.61902C15.3671 -0.108942 19.9023 1.06159 19.9023 1.06159C19.9023 1.06159 23.5318 1.91569 26.6256 5.4459C29.2996 8.49837 29.7277 10.7402 29.7277 10.7402C29.8291 10.9801 31.4732 14.7005 29.1073 17.0705C26.6484 19.5109 22.2827 20.5325 22.2827 20.5325C22.2827 20.5325 17.4041 21.5024 13.7312 20.7062C9.7419 18.7953 7.75446 17.9867 6.78247 17.6475C4.74335 16.3281 4.09397 14.5061 4.55929 12.2416C4.68381 11.391 4.86974 10.5505 5.11561 9.7268C5.34969 8.89951 5.64486 8.09075 5.99868 7.30716Z" fill="white"/>
<path d="M23.5447 4.47614C23.9025 4.77601 24.254 5.09655 24.5953 5.42744C28.111 8.87079 29.7117 16.3138 29.7117 16.3138C29.5382 16.5914 29.3342 16.8487 29.1036 17.081C27.7139 18.4584 25.71 19.3869 24.2334 19.9308C24.2334 19.9308 23.0297 12.461 18.2897 8.16971C13.5497 3.87846 7.70117 4.54644 7.70117 4.54644C7.75494 4.42029 9.03093 1.33472 12.1599 0.617103C13.5207 0.304824 15.1297 0.342044 16.5277 0.482673C18.2794 1.11764 19.9507 1.95538 21.5076 2.97883C22.2226 3.42701 22.9035 3.92749 23.5447 4.47614Z" fill="white"/>
<path d="M55.7486 4.57126C56.6565 4.04804 57.403 4.46371 57.403 5.51222L57.4361 17.0645C57.4064 17.6337 57.2423 18.1877 56.9573 18.6812C56.6722 19.1748 56.2743 19.5938 55.7961 19.904L46.8207 25.0865L42.3971 32.2297L42.575 27.5372L37.3097 30.5773C36.4038 31.1005 35.6552 30.6848 35.6552 29.6363L35.6221 18.082C35.6221 17.0355 36.3542 15.7678 37.26 15.2446L55.7486 4.57126Z" fill="white"/>
<path d="M42.011 32.215L42.164 28.2153L37.4984 30.9039C36.3362 31.5739 35.2773 30.9803 35.2732 29.634L35.2422 18.0797C35.2714 17.4431 35.4528 16.8228 35.7713 16.2708C36.0897 15.7188 36.5359 15.2512 37.0724 14.9073L55.5569 4.23603C56.1235 3.91134 56.6736 3.86997 57.1079 4.12021C57.5422 4.37044 57.7801 4.86266 57.7821 5.5079L57.8152 17.0622C57.7859 17.6991 57.6042 18.3196 57.2854 18.8716C56.9666 19.4236 56.5199 19.8911 55.9829 20.2346L47.0902 25.3676L42.7183 32.428C42.6738 32.4994 42.6072 32.5541 42.5285 32.5838C42.4499 32.6135 42.3636 32.6165 42.2831 32.5922C42.2026 32.568 42.1323 32.5179 42.0831 32.4497C42.034 32.3815 42.0086 32.299 42.011 32.215ZM42.5714 27.1606C42.6443 27.159 42.7161 27.1784 42.7782 27.2165C42.8364 27.252 42.884 27.3022 42.9164 27.3622C42.9487 27.4221 42.9646 27.4896 42.9623 27.5577L42.8403 30.8025L46.5008 24.8857C46.5353 24.8334 46.5812 24.7895 46.6352 24.7575L55.6106 19.5749C56.3986 19.1199 57.0583 17.9722 57.0583 17.0684L57.0252 5.51409C57.0252 5.15838 56.9197 4.89366 56.7357 4.78819C56.5516 4.68272 56.2683 4.72203 55.9519 4.90402L37.455 15.5794C36.6691 16.0344 36.0074 17.1822 36.0074 18.0859L36.0404 29.6402C36.0404 30.4054 36.481 30.6184 37.1159 30.2482L42.3812 27.2103C42.4389 27.1767 42.5047 27.1595 42.5714 27.1606Z" fill="#1E3041"/>
<path d="M27.9956 31.0487C28.5271 28.2857 28.4982 24.9148 28.4196 22.1312C29.0297 21.8002 29.612 21.4205 30.1609 20.9958C31.9208 19.6329 33.0086 18.239 33.3767 16.8762C34.3053 13.437 30.9302 11.0483 30.0575 10.4941C29.9148 9.91297 29.2592 7.86971 26.914 5.19363C23.7747 1.60966 20.1452 0.722447 19.9922 0.691426C19.8391 0.660405 16.3027 -0.25782 13.2544 0.071004C10.51 0.277811 8.59089 1.93227 7.37486 4.35812C5.61906 6.40758 4.53953 9.73511 4.19416 12.1113C3.83116 12.4813 3.5494 12.9229 3.36693 13.408C2.37219 16.2868 3.95013 17.5441 3.98735 17.5586C4.21277 17.7654 4.60777 17.8482 4.96969 17.8626C4.96227 18.4318 4.9975 19.0008 5.07514 19.5647C5.02757 22.9646 6.25395 26.501 8.81009 30.3911C10.4645 32.4922 11.6689 33.8365 12.423 34.4238L12.2783 35.1083C11.6796 35.7864 11.2663 36.6078 11.0788 37.4928C8.35033 39.2701 5.76871 41.2633 3.35865 43.453C1.24715 45.2439 0.256527 49.7771 0.0373113 58.6285C0.0382583 58.731 0.0784483 58.8294 0.149601 58.9032C0.220754 58.9771 0.317488 59.0208 0.419925 59.0256C0.520897 59.024 0.617277 58.9832 0.688684 58.9117C0.76009 58.8403 0.800915 58.744 0.802514 58.643C0.941075 52.931 1.42292 46.1022 3.86532 44.0341C6.08291 42.0032 8.45528 40.1481 10.9609 38.4855C10.9424 38.9243 10.9765 39.3638 11.0622 39.7946C11.2374 40.587 11.5675 41.3369 12.0335 42.0013C12.4995 42.6657 13.0923 43.2314 13.7776 43.666C15.7195 44.9317 18.0813 45.8313 20.9993 46.4166C21.024 46.4196 21.0491 46.4196 21.0738 46.4166C21.1467 46.4164 21.2181 46.3955 21.2796 46.3563C21.3411 46.3171 21.3902 46.2613 21.4212 46.1953L23.0177 42.7809L26.4508 44.6091C26.5081 44.6375 26.5709 44.653 26.6348 44.6546C26.6823 44.6512 26.729 44.6407 26.7734 44.6235C26.8264 44.6048 26.8744 44.5745 26.9142 44.5347C26.9539 44.495 26.9842 44.4469 27.0029 44.394C27.5505 42.8129 27.8301 41.1514 27.8302 39.4782C27.8302 39.2031 27.8301 38.9281 27.8136 38.6509C27.7474 37.0089 26.6824 36.0575 25.9523 34.8456C26.8212 34.0136 27.462 32.9726 27.8136 31.8221C28.5789 31.8035 29.3362 31.9825 30.0121 32.3418C30.6881 32.7012 31.2601 33.2288 31.6727 33.8737C34.2143 38.0553 35.3642 46.5841 35.1884 59.9976C35.7861 66.0922 24.3786 71.8497 13.7817 73.2126C6.23121 74.1928 1.36296 72.6459 0.796303 69.1405C0.779759 68.0072 0.765277 66.9049 0.765277 65.8171C0.765606 65.7656 0.755462 65.7145 0.735438 65.667C0.715413 65.6194 0.685932 65.5765 0.648797 65.5407C0.611661 65.5049 0.567649 65.477 0.519416 65.4588C0.471182 65.4405 0.419744 65.4323 0.368223 65.4346C0.267288 65.4399 0.1724 65.4843 0.103681 65.5585C0.0349615 65.6326 -0.00219219 65.7306 0.000100102 65.8316C0.000100102 66.9194 0.0145817 68.0217 0.0311263 69.2171C0.566757 72.4784 4.07214 74.2694 9.69316 74.2694C11.0968 74.2643 12.4985 74.1669 13.8893 73.9777C24.8377 72.5694 36.5823 66.4437 35.9536 59.9665C36.1376 46.4455 34.9443 37.7782 32.3261 33.4766C31.865 32.742 31.227 32.1348 30.4704 31.7106C29.7138 31.2864 28.8629 31.0588 27.9956 31.0487ZM4.93245 12.345C4.94532 12.327 4.95119 12.305 4.94899 12.283C5.07379 11.4493 5.25763 10.6255 5.4991 9.81784C5.98303 8.10961 6.77097 6.3021 7.90427 4.91649C8.8225 4.85651 13.9017 4.68695 18.0564 8.45498C21.0572 11.1807 22.6186 15.2796 23.3383 17.7799C23.3266 17.1599 23.4039 16.5415 23.5679 15.9435V15.9269C22.6807 13.4163 21.1337 10.2149 18.5611 7.88833C14.8716 4.53392 10.5679 4.12028 8.66945 4.12028H8.36338C9.60422 1.9819 11.2587 0.99544 13.3392 0.827926L13.8603 0.782409C14.9088 0.69555 16.3565 0.875488 16.5095 0.875488C19.4186 1.9436 22.0844 3.58341 24.3496 5.69823C25.698 7.01559 26.7548 8.95959 27.5344 10.8291C27.7925 10.7276 28.0715 10.6907 28.3472 10.7216C27.5199 8.73003 26.3701 6.61646 24.8852 5.13778C23.2801 3.60561 21.4527 2.3248 19.4648 1.33873C21.5039 1.77717 24.2751 3.32409 26.3412 5.68169C28.9138 8.60595 29.3564 10.7816 29.3564 10.796C29.373 10.8415 29.3874 10.8725 29.4019 10.918C29.4329 10.9946 29.4805 11.0876 29.526 11.2241C29.9541 11.6088 30.2457 12.2582 30.3532 13.1081C30.4437 14.0683 30.3396 15.0369 30.0471 15.9559C29.9409 16.3351 29.8025 16.7045 29.6335 17.0602C29.7939 16.8854 29.9372 16.6956 30.0616 16.4936C31.0502 14.8784 30.8186 12.9778 30.4939 11.7515C31.6272 12.68 33.2382 14.44 32.6488 16.6611C32.3282 17.8564 31.3314 19.1118 29.6935 20.3836C28.3281 21.4483 26.7444 22.1982 25.0555 22.5797C23.3666 22.9612 21.6143 22.9648 19.9239 22.5903C18.6398 22.2885 17.3851 21.8732 16.1745 21.3494C18.253 21.4289 20.3339 21.277 22.3787 20.8965C23.0296 20.7399 23.6694 20.5402 24.2938 20.2988C24.3248 20.2988 24.3393 20.2844 24.3703 20.2678C24.3412 20.2813 24.3091 20.2869 24.2772 20.2844C24.0979 20.1356 23.943 19.9598 23.8181 19.7632C23.8135 19.7262 23.8037 19.69 23.7891 19.6557L23.7726 19.6722C23.2605 19.8563 22.7393 20.0144 22.2112 20.1458C22.1657 20.1458 17.3719 21.0806 13.8955 20.3526C9.89996 18.4396 7.90841 17.6269 6.94468 17.2919C5.13925 16.111 4.48161 14.5041 4.93245 12.345ZM4.04938 13.8589C4.09883 15.0721 4.60918 16.2207 5.47636 17.0706C5.03586 17.1078 4.62639 17.0706 4.50437 16.9692C4.4506 16.9382 3.37725 16.0241 4.0411 13.8589H4.04938ZM5.85066 19.5109C5.77701 18.9481 5.7466 18.3805 5.75968 17.813C6.51246 17.7096 11.9991 20.2947 12.6939 20.6297L13.213 20.88C13.6266 23.4444 14.7269 24.1889 14.1974 24.4557C14.1468 24.4804 14.0896 24.4879 14.0343 24.477C13.9791 24.4662 13.9289 24.4376 13.8913 24.3957L12.605 22.7723C12.4052 22.5148 12.1513 22.3043 11.8613 22.1557C11.5712 22.0072 11.252 21.9242 10.9264 21.9125C10.6007 21.9009 10.2764 21.9609 9.97646 22.0884C9.67653 22.2159 9.40825 22.4077 9.19061 22.6502C8.84043 23.041 8.62832 23.536 8.58685 24.0591C8.54537 24.5822 8.67684 25.1044 8.96105 25.5455L11.2359 29.022C11.2471 29.0459 11.2528 29.0721 11.2525 29.0985C11.1716 30.2549 11.2962 31.4165 11.6206 32.5294C11.0684 31.909 10.3798 31.0818 9.46154 29.9257C7.00053 26.2032 5.82793 22.8033 5.84241 19.5088L5.85066 19.5109ZM22.662 41.8089C17.2209 40.7748 14.0713 38.6447 13.0579 35.2675L13.1365 34.8932C13.4742 35.1004 13.8351 35.2671 14.2119 35.3896C16.9004 36.2168 19.2353 36.6759 21.1792 36.7214H21.3633C22.6132 36.7226 23.8379 36.3699 24.8956 35.7039C24.361 37.8108 23.6097 39.8567 22.6538 41.8089H22.662ZM20.8835 45.5976C18.195 45.0309 16.0173 44.1851 14.2222 43.0166C13.622 42.6378 13.1024 42.144 12.6936 41.5638C12.2847 40.9835 11.9946 40.3281 11.8398 39.6353C11.7045 39.0261 11.6945 38.3956 11.8104 37.7824C11.9263 37.1691 12.1657 36.5858 12.514 36.0679C13.7673 39.3768 16.9852 41.4925 22.3167 42.5306L20.8835 45.5976ZM27.0753 38.6819C27.17 40.3848 26.9599 42.0908 26.4549 43.7198L23.3879 42.088C24.3684 40.06 25.1402 37.9376 25.6917 35.7536C26.0557 36.4029 26.9988 37.3335 27.0608 38.6819H27.0753ZM21.1958 35.9562C19.3345 35.9107 17.0452 35.4661 14.4414 34.6554C13.9607 34.5002 13.5107 34.2622 13.1117 33.9523L12.9731 33.8137C12.2638 32.395 11.9039 31.1624 12.0073 29.0964C12.0027 28.9175 11.9499 28.7432 11.8543 28.5918L9.60422 25.1299C9.4097 24.832 9.31924 24.4782 9.34692 24.1235C9.37461 23.7689 9.51888 23.4334 9.75726 23.1693C9.89874 23.0063 10.0749 22.877 10.2728 22.7909C10.4707 22.7048 10.6854 22.6639 10.9011 22.6715C11.1168 22.679 11.3281 22.7347 11.5195 22.8344C11.7109 22.9342 11.8776 23.0754 12.0073 23.2479L13.2937 24.8693C14.0858 25.8206 15.5065 24.8589 15.0081 23.798C14.6101 23.0086 14.3048 22.1759 14.0981 21.3163C15.8973 22.218 17.7965 22.9046 19.7564 23.3617C20.6386 23.562 21.5402 23.6647 22.4449 23.6677C24.2497 23.6533 26.0298 23.2476 27.6626 22.4786C27.7854 25.1302 27.6844 27.7874 27.3607 30.4221C26.9595 33.6607 24.3103 36.0534 21.1875 35.9562H21.1958Z" fill="#43E07C"/>
<path d="M29.6085 17.1058C29.5361 17.1917 29.4595 17.2738 29.3789 17.3519H29.3934C29.4703 17.2746 29.5421 17.1924 29.6085 17.1058Z" fill="#43E07C"/>
<path d="M40.1182 19.1305C39.1297 19.8667 38.4473 21.4488 38.5941 22.6648C38.7409 23.8809 39.6571 24.2717 40.6456 23.5355C41.6341 22.7992 42.3166 21.2192 42.1719 20.0012C42.0271 18.7831 41.1068 18.3943 40.1182 19.1305Z" fill="#43E07C"/>
<path d="M46.2623 15.5795C45.2758 16.3136 44.5934 17.8957 44.7381 19.1138C44.8829 20.3319 45.8032 20.7187 46.7896 19.9845C47.7761 19.2503 48.4627 17.6682 48.3159 16.4481C48.1691 15.2279 47.2529 14.8453 46.2623 15.5795Z" fill="#43E07C"/>
<path d="M52.4103 12.0349C51.4217 12.7712 50.7393 14.3532 50.8861 15.5693C51.0329 16.7853 51.9491 17.1762 52.9377 16.4399C53.9262 15.7037 54.6086 14.1237 54.4639 12.9056C54.3191 11.6875 53.3988 11.2987 52.4103 12.0349Z" fill="#43E07C"/>
<path d="M26.2008 47.0143C26.0915 46.6157 26.1335 46.1907 26.3187 45.8211C26.5069 45.4074 26.4883 44.9132 26.6537 44.27L22.8629 42.2433L21.0947 46.032C21.8226 46.6057 22.6831 46.987 23.5971 47.1405C24.9827 47.6141 26.0292 54.2609 25.2764 64.4524L26.8709 66.5597L28.242 63.6933C28.1696 57.7993 27.8201 52.1535 26.2008 47.0143Z" fill="white"/>
<path d="M26.871 66.9443C26.8118 66.9444 26.7534 66.9308 26.7003 66.9046C26.6472 66.8784 26.6009 66.8403 26.5649 66.7933L24.9724 64.6859C24.9166 64.611 24.8895 64.5186 24.8959 64.4254C25.7232 53.235 24.3541 47.8063 23.4752 47.5064C22.5191 47.3406 21.6198 46.9382 20.8591 46.3359C20.7903 46.2826 20.7418 46.2075 20.7215 46.1229C20.7012 46.0383 20.7103 45.9493 20.7474 45.8706L22.5177 42.0819C22.5396 42.0347 22.571 41.9925 22.6099 41.9579C22.6487 41.9233 22.6943 41.8971 22.7437 41.8808C22.7931 41.8645 22.8454 41.8585 22.8972 41.8633C22.949 41.868 22.9994 41.8833 23.045 41.9082L26.8337 43.9349C26.9095 43.975 26.9695 44.0395 27.004 44.1179C27.0385 44.1964 27.0456 44.2842 27.024 44.3671C26.9578 44.6277 26.9226 44.8614 26.8896 45.0724C26.8573 45.3836 26.7829 45.689 26.6683 45.9802C26.5221 46.2639 26.4853 46.5914 26.5649 46.9005C28.2587 52.2775 28.5565 58.1467 28.633 63.6912C28.6335 63.75 28.62 63.8081 28.5936 63.8608L27.2225 66.7271C27.1926 66.7847 27.1487 66.8338 27.0949 66.8699C27.041 66.9061 26.979 66.9281 26.9144 66.934L26.871 66.9443ZM25.6694 64.3385L26.7965 65.8296L27.8595 63.6126C27.7892 58.1529 27.4914 52.383 25.8349 47.1322C25.6962 46.645 25.7441 46.1237 25.9693 45.67C26.054 45.4409 26.1089 45.2018 26.1327 44.9586C26.1554 44.8056 26.1802 44.6442 26.2154 44.4705L23.0409 42.7726L21.5725 45.9099C22.1968 46.3464 22.9103 46.6389 23.6613 46.7661C25.5453 47.4031 26.3601 54.7778 25.6694 64.3385Z" fill="#1E3041"/>
<path d="M23.8199 19.7859C23.8054 19.7549 23.791 19.7239 23.7744 19.6949L23.7909 19.6783C23.8055 19.7127 23.8153 19.7489 23.8199 19.7859Z" fill="white"/>
<path d="M24.2793 20.3071C24.3112 20.3096 24.3433 20.304 24.3724 20.2905C24.3413 20.3071 24.3268 20.3216 24.2958 20.3216L24.2793 20.3071Z" fill="white"/>
<path d="M29.609 17.1058C29.5453 17.1922 29.4762 17.2743 29.4022 17.3519H29.3877C29.4655 17.2736 29.5393 17.1915 29.609 17.1058Z" fill="white"/>
<path d="M26.342 11.4289C28.2736 9.98128 30.0645 10.7527 30.352 13.1268C30.6395 15.501 29.3056 18.5886 27.374 20.0259C25.4424 21.4632 23.6514 20.7063 23.3681 18.326C23.0848 15.9456 24.4146 12.8642 26.342 11.4289Z" fill="white"/>
<path d="M24.5965 20.9565C23.7134 20.5801 23.1489 19.6619 22.9896 18.3734C22.6897 15.8918 24.0919 12.6304 26.1144 11.1228C28.2859 9.50553 30.4119 10.4155 30.7325 13.0833C31.0344 15.6188 29.6592 18.8036 27.6014 20.336C26.7142 20.9937 25.614 21.3928 24.5965 20.9565ZM26.5715 11.7391C24.7454 13.0978 23.4694 16.0344 23.7486 18.2824C23.9988 20.365 25.4465 20.9833 27.1443 19.7301C28.9725 18.3693 30.2465 15.4327 29.9714 13.1826C29.7191 11.0814 28.259 10.4775 26.5715 11.737V11.7391Z" fill="#1E3041"/>
<path d="M27.0615 17.3414C27.4388 17.0281 27.7369 16.6301 27.9313 16.1798C28.1257 15.7295 28.211 15.2396 28.1803 14.7501C28.0728 13.8587 27.3986 13.5734 26.6747 14.1131C26.2974 14.4264 25.9994 14.8244 25.8049 15.2747C25.6105 15.725 25.5252 16.2149 25.5559 16.7044C25.6552 17.5978 26.3294 17.8811 27.0615 17.3414Z" fill="#43E07C"/>
</svg>
