<svg width="142" height="40" fill="none" xmlns="http://www.w3.org/2000/svg"><path fill-rule="evenodd" clip-rule="evenodd" d="M6.798 0h64.229v40H6.797C3.052 40 0 36.948 0 33.2V6.8C0 3.053 3.05 0 6.798 0zm24.246 27.577h-4.603c-1.178-4.712-2.997-11.245-4.389-15.261h3.907c1.017 2.945 2.302 7.282 3.051 10.656.803-2.624 2.302-7.604 2.89-10.656h3.265c.91 2.945 2.302 7.978 2.89 10.656 1.071-3.267 2.142-7.443 2.837-10.656h3.8c-1.016 4.284-2.997 10.977-4.442 15.261h-4.603c-.589-2.999-1.445-6.48-2.14-9.21-.59 2.998-1.607 6.479-2.463 9.21zm-8.457 0h-4.496c-2.408-4.177-3.532-5.462-4.496-5.462H11.99v5.462H8.403V12.369h8.671c3.212 0 4.282 1.928 4.282 4.445 0 2.195-.963 4.07-3.907 4.23 1.07.375 2.194 1.767 5.138 6.533zm-6.583-8.3c.803 0 1.338-.535 1.338-1.928 0-1.392-.535-2.034-1.338-2.034h-4.068v3.962h4.068zm43.354-6.908h4.604v15.262h-3.48V17.296a218.273 218.273 0 00-3.853 9.05h-2.837l-.086-.224c-.967-2.529-2.462-6.435-3.554-8.826v10.281h-3.479V12.369h4.817c1.285 2.517 2.837 6.051 4.015 8.943 1.07-2.945 2.622-6.426 3.853-8.943z" fill="#5B6770"/><path fill-rule="evenodd" clip-rule="evenodd" d="M74.077 0h61.125c3.747 0 6.744 3.052 6.798 6.8v26.346c0 3.748-3.051 6.8-6.798 6.8H74.077V0zm58.342 22.008c0 .857.214 1.339.749 1.981l-1.392.75c-.695-.696-1.017-1.392-1.017-2.624V11.941h1.606v10.067h.054zm-20.928-8.032c.696 0 .963-.16.963-.964 0-.75-.214-.857-.963-.857-.696 0-.964.107-.964.857 0 .803.214.964.964.964zm-.803 10.388v-8.728h1.606v8.728h-1.606zm-16.218.214c1.177 0 2.73-.267 3.747-.696h-.054v-5.14c0-2.624-1.124-3.374-3.693-3.374a12.49 12.49 0 00-3.158.428l.321 1.393c.696-.268 1.66-.429 2.57-.429 1.873 0 2.354.429 2.354 2.25-.802-.161-1.498-.268-2.301-.268-1.98 0-3.426.428-3.426 2.891 0 2.303 1.017 2.945 3.64 2.945zm.107-4.551c.75 0 1.499.053 2.034.214v2.677c-.589.161-1.338.322-2.034.322-1.606 0-1.98-.268-1.98-1.714 0-1.339.481-1.5 1.98-1.5zm-5.138 4.123c-.696.321-1.767.482-2.57.482-2.676 0-4.281-1.071-4.281-4.659 0-3.534 1.605-4.551 4.282-4.551.802 0 1.926.16 2.569.428l-.428 1.446c-.59-.268-1.339-.375-2.088-.375-1.766 0-2.623.428-2.623 3.16 0 2.57.857 3.159 2.623 3.159.75 0 1.499-.215 2.087-.429l.429 1.339zm11.133-8.14c.963-.374 2.515-.642 3.639-.642 2.784 0 4.068 1.018 4.068 4.552s-1.338 4.605-3.853 4.605c-1.124 0-1.767-.322-2.249-.643v3.695h-1.605V16.011zm1.659 6.105c0 .696.91 1.071 2.034 1.071 1.766 0 2.355-.642 2.355-3.16 0-2.677-.589-3.159-2.355-3.159-.749 0-1.499.108-2.034.322v4.926zm14.612-.803v-4.23h3.105v-1.446h-3.051v-2.303l-1.66.696v1.66h-1.498v1.446h1.498v4.337c0 2.57.857 3.16 2.837 3.16.696 0 1.606-.16 2.141-.375l-.321-1.339a6.38 6.38 0 01-1.552.215c-1.178 0-1.499-.536-1.499-1.821zm7.922 3.266c1.177 0 2.73-.267 3.746-.696v-5.14c0-2.624-1.124-3.374-3.693-3.374-1.177 0-2.408.214-3.158.428l.321 1.393c.696-.268 1.66-.429 2.57-.429 1.873 0 2.355.429 2.355 2.25-.803-.161-1.499-.268-2.302-.268-1.98 0-3.425.428-3.425 2.891 0 2.303.963 2.945 3.586 2.945zm.16-4.551c.75 0 1.499.053 2.034.214v2.677c-.589.161-1.338.322-2.034.322-1.605 0-1.98-.268-1.98-1.714 0-1.339.482-1.5 1.98-1.5z" fill="#DA291C"/></svg>