<svg width="64" height="64" fill="none" xmlns="http://www.w3.org/2000/svg"><path d="M52.79 56H11.197a5.136 5.136 0 01-3.637-1.51 5.164 5.164 0 01-1.506-3.647V31.736a2.048 2.048 0 01.636-1.483L28.73 9.304a4.737 4.737 0 016.527 0L56.27 29.278a5.339 5.339 0 011.662 3.875v17.69a5.17 5.17 0 01-1.506 3.647A5.143 5.143 0 0152.79 56z" fill="#E95841"/><path opacity=".1" d="M6.054 32.05h51.447v20.836c0 .826-.327 1.618-.91 2.202a3.102 3.102 0 01-2.196.912H9.16a3.101 3.101 0 01-2.195-.912 3.118 3.118 0 01-.91-2.202V32.05z" fill="#000"/><path d="M48.24 15.631H15.638a2.834 2.834 0 00-2.83 2.837v32.69a2.834 2.834 0 002.83 2.837H48.24c1.563 0 2.83-1.27 2.83-2.837v-32.69a2.834 2.834 0 00-2.83-2.837z" fill="#FFF4F2"/><path opacity=".1" d="M51.07 32.912v21.084H12.81V32.912l19.13 9.27 19.13-9.27z" fill="#000"/><path d="M31.94 43.375L7.427 31.495a.992.992 0 00-1.303.415 1 1 0 00-.124.483v20.44a3.121 3.121 0 00.91 2.201 3.104 3.104 0 002.195.912h45.669a3.098 3.098 0 002.196-.912 3.114 3.114 0 00.91-2.202V32.743a1.22 1.22 0 00-.57-1.03 1.212 1.212 0 00-1.173-.065L31.94 43.375z" fill="#FF5F45"/></svg>