<svg width="20" height="20" viewBox="0 0 20 20" fill="none" xmlns="http://www.w3.org/2000/svg">
<path fill-rule="evenodd" clip-rule="evenodd" d="M9.99994 0.833374C10.3171 0.833374 10.6068 1.01343 10.7472 1.29785L13.1285 6.1221L18.4538 6.90047C18.7676 6.94634 19.0282 7.16634 19.126 7.46801C19.2238 7.76969 19.1419 8.10073 18.9147 8.32201L15.062 12.0745L15.9713 17.3758C16.0249 17.6885 15.8964 18.0045 15.6397 18.1909C15.3831 18.3774 15.0428 18.4019 14.7621 18.2543L9.99994 15.7499L5.23782 18.2543C4.95706 18.4019 4.61681 18.3774 4.36016 18.1909C4.10352 18.0045 3.97498 17.6885 4.0286 17.3758L4.93784 12.0745L1.08517 8.32201C0.857984 8.10073 0.77609 7.76969 0.873905 7.46801C0.971719 7.16634 1.23229 6.94634 1.54609 6.90047L6.87139 6.1221L9.25269 1.29785C9.39308 1.01343 9.68276 0.833374 9.99994 0.833374Z" fill="#FF5F45"/>
</svg>
