<svg width="33" height="32" viewBox="0 0 33 32" fill="none" xmlns="http://www.w3.org/2000/svg">
<g clip-path="url(#clip0)">
<rect x="11.5042" y="10" width="12" height="12" fill="white"/>
<path fill-rule="evenodd" clip-rule="evenodd" d="M30.9122 6.71578C31.8712 7.70805 32.1842 9.96135 32.1842 9.96135C32.1842 9.96135 32.5042 12.6081 32.5042 15.2538V17.735C32.5042 20.3817 32.1842 23.0274 32.1842 23.0274C32.1842 23.0274 31.8712 25.2807 30.9122 26.273C29.8157 27.4468 28.6 27.5681 27.9128 27.6366C27.8373 27.6442 27.7681 27.6511 27.7062 27.6587C23.2281 27.9898 16.5042 28 16.5042 28C16.5042 28 8.18415 27.9223 5.62415 27.6709C5.50286 27.6478 5.35583 27.6298 5.18932 27.6094C4.37842 27.51 3.10566 27.354 2.09515 26.273C1.13615 25.2807 0.82415 23.0274 0.82415 23.0274C0.82415 23.0274 0.50415 20.3817 0.50415 17.735V15.2538C0.50415 12.6081 0.82415 9.96135 0.82415 9.96135C0.82415 9.96135 1.13615 7.70805 2.09515 6.71578C3.19401 5.5403 4.41089 5.42032 5.09812 5.35257C5.17263 5.34523 5.24092 5.33849 5.30215 5.3311C9.78015 5 16.4972 5 16.4972 5H16.5112C16.5112 5 23.2281 5 27.7062 5.3311C27.7674 5.3385 27.8357 5.34525 27.9103 5.3526C28.597 5.42036 29.8144 5.54049 30.9122 6.71578ZM13.1995 11.554L13.2005 20.7419L21.8455 16.1638L13.1995 11.554Z" fill="#CE1312"/>
</g>
<defs>
<clipPath id="clip0">
<rect width="32" height="32" fill="white" transform="translate(0.50415)"/>
</clipPath>
</defs>
</svg>
