<svg width="24" height="24" fill="none" xmlns="http://www.w3.org/2000/svg"><path d="M24 20.192C24 22.362 22.372 24 20.197 24H3.752a3.71 3.71 0 0 1-3.75-3.75v-8.247c0-2.775-.005-5.55 0-8.329C.008 1.655 1.684 0 3.698 0h16.494c2.18 0 3.803 1.623 3.803 3.803.005 5.468 0 10.931.005 16.389zm-13.713-2.389c-.016-.444-.01-.894 0-1.339 0-.144-.043-.182-.182-.182-.445.005-.895.005-1.34.005-.663 0-1.05-.385-1.054-1.039v-.92c-.022-.317.032-.702-.033-1.083a2.384 2.384 0 0 0-.471-1.092c-.091-.113-.08-.183.005-.295.349-.466.51-.99.504-1.575a77.625 77.625 0 0 1 0-1.58c.005-.573.407-.98.975-.985.466-.005.926-.005 1.393 0 .133 0 .208-.016.208-.182-.01-.455-.005-.91 0-1.366 0-.096.006-.177-.133-.171-.649.026-1.302-.06-1.95.048A2.655 2.655 0 0 0 6.007 8.66v1.633c0 .53-.321.841-.852.852-.283.005-.658-.123-.82.053-.138.156-.042.525-.042.798 0 .225.01.445-.005.67-.011.155.053.198.198.187.24-.01.482-.005.723 0 .466.011.787.332.793.793.005.552 0 1.109.005 1.66a2.664 2.664 0 0 0 2.684 2.684c.466 0 .926-.006 1.393.005.15.01.208-.021.203-.193zm9.428-6.448c.016-.188-.06-.225-.225-.215-.23.011-.466.006-.697 0-.466-.01-.787-.332-.792-.798-.006-.551 0-1.108 0-1.66a2.668 2.668 0 0 0-2.684-2.683c-.471 0-.948.005-1.42 0-.133 0-.187.026-.182.176.011.456.011.91 0 1.366-.005.145.043.182.182.177.456-.005.911-.005 1.366 0 .627 0 1.024.39 1.029 1.012v.916c.021.332-.032.723.032 1.114.064.407.22.771.471 1.093.086.112.086.182 0 .294-.353.46-.514.991-.503 1.575.005.52.005 1.034 0 1.553-.006.605-.402 1.007-1.002 1.012-.455 0-.91.011-1.366-.005-.166-.005-.209.048-.203.209.01.445.005.894 0 1.339 0 .096-.006.177.134.171.648-.026 1.301.06 1.95-.048a2.647 2.647 0 0 0 2.201-2.587c.005-.551 0-1.108 0-1.66 0-.53.316-.841.852-.852.284-.005.659.123.82-.059.139-.155.042-.524.042-.803-.005-.209-.021-.423-.005-.637z" fill="url(#paint0_linear)"/><defs><linearGradient id="paint0_linear" x1="12" y1="24" x2="34.82" y2="4.984" gradientUnits="userSpaceOnUse"><stop stop-color="#F4A261"/><stop offset="1" stop-color="#E9C46A"/></linearGradient></defs></svg>