<svg width="19" height="31" fill="none" xmlns="http://www.w3.org/2000/svg"><path d="M11.307 19.966c-.285-.217-.699-.326-1.24-.326H8.404v2.566h1.661c.542 0 .956-.108 1.241-.325.293-.224.442-.55.442-.968 0-.42-.15-.73-.442-.947z" fill="url(#paint0_linear)"/><path d="M18.632 1.984c.342-.347.45-.759.306-1.221-.142-.448-.463-.694-.912-.752-.428-.058-.785.116-1.084.426-1.47 1.497-2.939 2.985-4.408 4.474-.442.448-.606.463-1.127.072-.364-.274-.727-.542-1.091-.816-.785-.578-1.669-.586-2.44 0-1.996 1.51-4 3.02-5.99 4.546C.624 9.68.003 10.975.003 12.579c.007 2.277 0 4.554 0 6.83 0 2.335-.007 4.676 0 7.01.014 2.509 2.054 4.568 4.529 4.576 3.052.007 6.112.007 9.165 0 2.524-.008 4.557-2.06 4.564-4.611.007-4.648.007-9.295-.007-13.95a4.377 4.377 0 0 0-1.213-3.07c-.72-.774-1.633-1.323-2.453-1.974-.628-.491-.649-.658-.093-1.214 1.377-1.402 2.76-2.797 4.137-4.192zM6.529 7.968c.863-1.105 2.025-1.496 3.395-1.25.142.022.285.058.342.224.057.18-.05.29-.164.405-.578.585-1.162 1.17-1.74 1.763-.342.362-.435.795-.264 1.265.157.426.485.65.913.708.378.05.699-.086.963-.361l1.79-1.814c.32-.325.513-.282.656.152.749 2.233-.884 4.51-3.495 4.517-1.12-.058-2.175-.68-2.788-1.952-.614-1.279-.478-2.536.392-3.657zm6.205 15.04c-.635.485-1.527.723-2.66.723h-1.67v.68h2.575v1.004H8.405v1.091H6.458v-1.09H5.302V24.41h1.156v-6.374h3.615c1.142 0 2.026.238 2.66.723.643.484.97 1.192.97 2.132 0 .932-.32 1.633-.97 2.117z" fill="url(#paint1_linear)"/><defs><linearGradient id="paint0_linear" x1="9.5" y1="0" x2="33.778" y2="12.4" gradientUnits="userSpaceOnUse"><stop stop-color="#F4A261"/><stop offset="1" stop-color="#E9C46A"/></linearGradient><linearGradient id="paint1_linear" x1="9.5" y1="0" x2="33.778" y2="12.4" gradientUnits="userSpaceOnUse"><stop stop-color="#F4A261"/><stop offset="1" stop-color="#E9C46A"/></linearGradient></defs></svg>