<svg width="24" height="24" fill="none" xmlns="http://www.w3.org/2000/svg"><path d="M7.958 3.85h10.376c1.788 0 3.2 1.077 3.581 2.743.492 2.112-1.145 4.198-3.304 4.219-.094 0-.193-.005-.287 0-.282.021-.429.147-.45.378a.424.424 0 0 0 .366.468c.288.032.591.032.879-.016 2.195-.341 3.748-2.149 3.763-4.366.016-2.223-1.547-4.12-3.711-4.482-.277-.047-.57-.157-.847.037-.042.026-.12.005-.178.005-3.591 0-7.177 0-10.769.005a.473.473 0 0 1-.397-.183c-.46-.547-.91-1.114-1.412-1.619C4.622.083 3.467-.232 2.186.172.958.562.226 1.444.038 2.732c-.168 1.17.224 2.148 1.14 2.905.94.777 1.881 1.56 2.817 2.343.068.058.152.147.152.22.005.752.047 1.509-.021 2.26-.11 1.224-1.072 2.065-2.353 2.133-.397.021-.674.3-.627.641.037.294.24.468.56.478 1.845.058 3.423-1.46 3.45-3.315.005-.441 0-.883 0-1.387l1.453 1.198c5.51 4.545 11.01 9.084 16.509 13.619.083.068.188.173.282.173.167 0 .382-.016.497-.116.172-.147.115-.504-.068-.725-.44-.54-.89-1.077-1.333-1.618-4.773-5.8-9.546-11.606-14.319-17.407-.063-.074-.115-.152-.22-.284zM5.166 9.015c-.319-.32-.596-.583-.847-.867a.573.573 0 0 1-.146-.357c-.01-.899-.006-1.802-.01-2.7a.51.51 0 0 0-.11-.327c-.361-.383-.732-.75-1.104-1.113-.214-.21-.235-.426-.036-.662.204-.237.429-.263.659-.058.475.436.946.877 1.421 1.313.131.121.189.263.189.457-.01 1.345-.006 2.696-.006 4.04-.01.07-.01.132-.01.274zm1.343-5.249h1.15c0 .032-.005.058-.005.09-.387-.043-.784.084-1.145-.09z" fill="url(#paint0_linear)"/><defs><linearGradient id="paint0_linear" x1="12" y1="0" x2="-10.82" y2="19.016" gradientUnits="userSpaceOnUse"><stop stop-color="#F4A261"/><stop offset="1" stop-color="#E9C46A"/></linearGradient></defs></svg>