<svg width="19" height="27" fill="none" xmlns="http://www.w3.org/2000/svg"><path d="M8.275 2.645H2.523c-.03 0-.06.006-.09 0-.082-.007-.195.036-.213-.098-.012-.128.095-.128.184-.146.481-.098.968-.201 1.449-.299C7.177 1.414 10.507.732 13.83.044c.534-.11 1.01-.03 1.36.426.32.42.356.902.124 1.377-.255.523-.688.798-1.264.798H8.275z" fill="url(#paint0_linear)"/><path d="M18.995 7.005c0-1.937-1.418-3.386-3.306-3.386-4.82-.006-9.634 0-14.454 0C.445 3.619 0 4.082 0 4.904v18.759C0 25.526 1.448 27 3.265 27H15.76c1.781 0 3.236-1.486 3.236-3.307.006-5.56.006-11.121 0-16.688zM8.466 19.752c-.505-.006-.944-.462-.938-.974.006-.518.451-.968.95-.962.504.006.938.463.938.974 0 .518-.446.969-.95.962zm3.235 0c-.51.019-.967-.426-.98-.95-.011-.511.422-.974.927-.986.528-.012.944.438.967 1.041.018.481-.38.871-.914.895zm1.567-5.968c-.19 1.023-.498 2.022-.748 3.027-.095.39-.427.627-.837.627h-3.11c-.493 0-.79-.243-.914-.73-.333-1.292-.647-2.595-1.021-3.874-.036-.116-.072-.177-.202-.165-.107.012-.214.006-.32 0-.25-.006-.399-.14-.393-.371 0-.226.143-.36.386-.366h.677c.25 0 .404.11.475.36.1.34.208.688.29 1.035.036.14.102.17.232.17 1.704-.005 3.408-.005 5.111 0 .066 0 .137 0 .202.013.172.042.208.103.172.274z" fill="url(#paint1_linear)"/><defs><linearGradient id="paint0_linear" x1="9.5" y1="0" x2="32.278" y2="13.357" gradientUnits="userSpaceOnUse"><stop stop-color="#F4A261"/><stop offset="1" stop-color="#E9C46A"/></linearGradient><linearGradient id="paint1_linear" x1="9.5" y1="0" x2="32.278" y2="13.357" gradientUnits="userSpaceOnUse"><stop stop-color="#F4A261"/><stop offset="1" stop-color="#E9C46A"/></linearGradient></defs></svg>