<svg width="40" height="40" fill="none" xmlns="http://www.w3.org/2000/svg"><path fill="#000" d="M0 0h40v40H0z"/><path fill-rule="evenodd" clip-rule="evenodd" d="M5.32 14.92V25h3.168v-3.168h.437L10.72 25h3.672l-2.41-3.615.078-.039c.579-.294 1.008-.691 1.288-1.192.293-.523.44-1.116.44-1.778 0-.672-.147-1.267-.44-1.786-.293-.518-.749-.926-1.368-1.224-.62-.297-1.423-.446-2.412-.446H5.32zm3.168 2.664h.792c.269 0 .49.036.662.108a.847.847 0 01.396.317c.092.139.137.31.137.511 0 .192-.045.36-.136.504a.832.832 0 01-.397.324 1.737 1.737 0 01-.662.108h-.792v-1.872zm23.52.144V25H28.84v-7.272h-2.88V14.92h8.928v2.808h-2.88z" fill="#fff"/><path d="M20.077 22.502c.71 0 1.292-.237 1.746-.71.454-.474.68-1.027.68-1.658 0-.671-.226-1.239-.68-1.702-.454-.464-1.036-.696-1.746-.696-.69 0-1.268.232-1.732.696a2.315 2.315 0 00-.695 1.702c0 .631.231 1.184.695 1.657.464.474 1.041.71 1.732.71z" fill="#fff"/></svg>