<svg width="817" height="528" viewBox="0 0 817 528" fill="none" xmlns="http://www.w3.org/2000/svg">
<mask id="mask0_48_3522" style="mask-type:luminance" maskUnits="userSpaceOnUse" x="0" y="0" width="817" height="527">
<path d="M812.87 324.794C805.913 396.609 790.307 464.815 781.211 500.493L781.186 500.593C780.412 503.639 779.686 506.441 779.009 508.998C776.107 520.041 774.266 526.292 774.266 526.292L27.5893 513.994C27.5893 513.994 26.9632 512.253 25.9018 508.986C25.197 506.828 24.2973 504.003 23.2608 500.58C23.2608 500.547 23.2608 500.514 23.2318 500.48C14.4297 471.338 -4.2316 399.126 0.868024 324.782C4.1351 277.097 17.1744 228.531 48.8543 189.878C110.162 115.074 234.116 146.496 234.116 146.496C234.116 146.496 280.966 60.7747 348.824 20.6395C350.673 19.5461 352.535 18.4889 354.409 17.4678C356.283 16.4467 358.145 15.4729 359.994 14.5464C397.859 -4.28379 441.468 -7.73099 486.734 24.9297C526.702 53.7677 557.892 69.2759 583.275 76.7879C584.176 77.0661 585.067 77.3207 585.949 77.5517C615.622 85.8107 637.248 83.0521 655.805 78.2194C657.7 77.7269 659.557 77.2136 661.39 76.6836C663.223 76.1536 665.121 75.5902 666.975 75.0142C692.597 67.2434 713.854 58.9969 746.371 78.3529C747.254 78.8788 748.15 79.4255 749.05 79.9889C753.958 83.1098 758.694 86.4966 763.237 90.1344C816.361 132.411 821.896 231.641 812.87 324.794Z" fill="white"/>
</mask>
<g mask="url(#mask0_48_3522)">
<path d="M935.709 -17.2336H-73.8965V512.082H935.709V-17.2336Z" fill="url(#paint0_linear_48_3522)"/>
<path d="M604.847 220.055C215.642 245.513 350.14 143.32 132.021 75.4358C-24.115 26.8411 -72.2049 88.4817 -73.8965 94.4037V512.078H935.664V267.477C920.581 155.022 707.246 213.345 604.847 220.055Z" fill="#F3FFFF"/>
<path opacity="0.61" d="M465.519 299.236C355.525 299.236 249.199 258.58 183.203 212.848C128.637 175.033 -2.291 117.186 -73.9014 153.315V512.086H468.355V299.245L465.519 299.236Z" fill="#ADEFF7"/>
<path d="M667.816 287.08C667.849 292.157 667.881 297.233 667.911 302.308L465.518 299.232C355.528 299.232 249.198 258.58 183.202 212.844L181.958 211.976C210.566 212.881 240.96 213.57 268.706 221.328C295.709 228.874 317.629 248.455 344.093 257.854C410.119 281.329 483.997 246.635 552.601 260.75C591.491 268.75 628.503 292.325 667.82 286.804L667.816 287.08Z" fill="#FEE2BF"/>
<path d="M890.099 268.254C891.086 266.785 891.757 264.126 891.757 261.088C891.708 259.022 891.137 257.003 890.099 255.22C889.607 254.328 889.024 253.489 888.362 252.716C888.225 253 884.75 256.393 884.962 261.872C885.024 263.69 885.377 265.485 886.007 267.189C884.008 266.68 882.01 266.189 880.011 265.716V262.916C881.591 262.19 882.789 258.78 882.789 254.69C882.738 252.625 882.167 250.606 881.131 248.822C880.637 247.931 880.055 247.092 879.394 246.318C879.253 246.602 875.783 249.995 875.994 255.475C876.081 257.854 876.861 262.569 879.112 263.033V265.512C867.731 262.832 856.342 260.654 845.114 259.114C795.15 252.274 750.27 288.131 750.27 335.015V512.091H935.751V282.673C920.949 277.26 905.593 272.331 890.099 268.254Z" fill="#7271B3"/>
<path d="M935.7 378.322H-73.9014V512.078H935.7V378.322Z" fill="#8CD334"/>
<path d="M1.62698 220.61C1.62698 216.892 0.26704 213.516 -1.1053 211.058C-1.91218 209.604 -2.86075 208.236 -3.93702 206.972C-4.16506 207.435 -9.82025 212.965 -9.47613 221.896C-9.33101 225.769 -8.06647 233.477 -4.39723 234.207V239.954H-2.90466V234.019C-0.325829 232.83 1.62698 227.279 1.62698 220.61Z" fill="url(#paint1_linear_48_3522)"/>
<path d="M468.355 299.237H465.519C429.167 299.237 393.216 294.796 358.987 287.196C332.128 281.245 304.895 277.155 277.48 274.956C254.581 273.116 231.968 270.937 211.143 268.362V264.08C213.722 262.411 215.67 254.744 215.67 245.505C215.605 240.958 214.679 236.465 212.942 232.267C212.161 230.302 211.214 228.409 210.111 226.608C209.883 227.25 204.227 234.913 204.571 247.282C204.717 252.649 205.981 263.329 209.65 264.343V268.174C174.301 263.75 144.321 258.158 127.281 251.159C103.964 241.561 70.1154 238.126 35.7323 237.742V236.49C37.0218 235.655 37.9961 231.82 37.9961 227.204C37.9626 224.931 37.4997 222.685 36.632 220.585C36.2398 219.602 35.7655 218.654 35.2141 217.752C33.296 220.848 32.3322 224.446 32.4445 228.093C32.5191 230.777 33.1493 236.114 34.986 236.619V237.721C32.8494 237.702 30.7156 237.692 28.5846 237.692V231.015C30.7778 229.612 32.4362 223.085 32.4362 215.21C32.3815 211.34 31.5935 207.515 30.1144 203.942C29.4497 202.27 28.6424 200.658 27.7015 199.126C24.4335 204.392 22.7928 210.515 22.9874 216.721C23.1118 221.287 24.1898 230.376 27.3117 231.24V237.692C23.6217 237.692 19.9373 237.732 16.2584 237.813V233.598C18.4516 232.196 20.1142 225.669 20.1142 217.793C20.0582 213.923 19.2688 210.098 17.7883 206.525C17.1259 204.853 16.3199 203.241 15.3794 201.709C12.1073 206.973 10.4662 213.098 10.6654 219.304C10.7897 223.87 11.8677 232.959 14.9897 233.823V237.838C-19.5965 238.568 -52.6778 241.786 -73.918 244.29V349.968L468.334 338.074L468.355 299.237Z" fill="#7271B3"/>
<path d="M-73.8965 385.625C-68.9212 392.92 -2.95362 389.219 92.8323 391.021C142.431 391.952 199.858 407.798 261.307 407.715C315.557 407.627 372.599 391.693 429.831 391.021C487.062 390.35 544.601 404.96 598.894 403.93C660.213 402.765 717.234 385.934 766.928 384.59C860.844 382.049 926.82 394.302 935.709 392.682V284.321H-73.8965V385.625Z" fill="#ADEFF7"/>
<g style="mix-blend-mode:screen" opacity="0.44">
<path d="M375.788 301.165C372.811 300.877 371.032 303.31 373.205 304.691C380.162 309.128 391.14 309.132 398.106 304.691C400.278 303.31 398.5 300.877 395.523 301.165C388.959 301.782 382.352 301.782 375.788 301.165Z" fill="#CCE7FE"/>
<path d="M311.697 292.05C309.459 291.837 308.124 293.665 309.757 294.704C314.981 298.043 323.228 298.043 328.46 294.704C330.093 293.665 328.758 291.837 326.524 292.05C321.593 292.518 316.629 292.518 311.697 292.05Z" fill="#CCE7FE"/>
<path d="M336.284 306.874C334.597 306.711 333.589 308.093 334.821 308.877C338.763 311.381 344.983 311.381 348.917 308.877C350.161 308.093 349.137 306.711 347.454 306.874C343.739 307.228 339.999 307.228 336.284 306.874Z" fill="#CCE7FE"/>
<path d="M281.887 312.771C280.643 312.65 279.905 313.664 280.809 314.24C283.712 316.089 288.272 316.093 291.174 314.24C292.078 313.664 291.336 312.65 290.096 312.771C287.366 313.029 284.618 313.029 281.887 312.771Z" fill="#CCE7FE"/>
<path d="M337.709 290.602C336.511 290.523 335.794 291.199 336.673 291.583C339.475 292.835 343.895 292.835 346.702 291.583C347.577 291.199 346.864 290.523 345.661 290.602C343.013 290.777 340.357 290.777 337.709 290.602Z" fill="#CCE7FE"/>
<path d="M351.839 293.669C350.64 293.59 349.923 294.266 350.798 294.65C353.601 295.902 358.024 295.902 360.831 294.65C361.706 294.266 360.989 293.59 359.791 293.669C357.143 293.843 354.486 293.843 351.839 293.669Z" fill="#CCE7FE"/>
<path d="M351.839 290.602C350.64 290.523 349.923 291.199 350.798 291.583C353.601 292.835 358.024 292.835 360.831 291.583C361.706 291.199 360.989 290.523 359.791 290.602C357.143 290.777 354.486 290.777 351.839 290.602Z" fill="#CCE7FE"/>
<path d="M365.107 291.558C363.909 291.478 363.192 292.154 364.066 292.538C366.869 293.79 371.293 293.79 374.1 292.538C374.975 292.154 374.257 291.478 373.059 291.558C370.411 291.729 367.755 291.729 365.107 291.558Z" fill="#CCE7FE"/>
<path d="M379.422 289.65C378.224 289.571 377.507 290.243 378.382 290.627C381.185 291.879 385.608 291.879 388.415 290.627C389.29 290.243 388.573 289.571 387.375 289.65C384.727 289.822 382.07 289.822 379.422 289.65Z" fill="#CCE7FE"/>
</g>
<g style="mix-blend-mode:screen" opacity="0.44">
<path d="M817.357 300.297C815.039 300.071 813.654 301.966 815.346 303.043C820.765 306.494 829.31 306.498 834.733 303.043C836.424 301.966 835.04 300.071 832.722 300.297C827.611 300.776 822.467 300.776 817.357 300.297Z" fill="#CCE7FE"/>
</g>
<g style="mix-blend-mode:screen" opacity="0.44">
<path d="M524.065 314.106C522.821 313.985 522.071 315.003 522.983 315.584C525.885 317.445 530.504 317.445 533.423 315.584C534.335 315.003 533.589 313.985 532.341 314.106C529.588 314.365 526.818 314.365 524.065 314.106Z" fill="#CCE7FE"/>
</g>
<g style="mix-blend-mode:screen" opacity="0.44">
<path d="M544.697 308.101C543.1 307.946 542.151 309.248 543.312 309.987C547.043 312.362 552.914 312.366 556.641 309.987C557.806 309.248 556.853 307.946 555.261 308.101C551.747 308.431 548.21 308.431 544.697 308.101Z" fill="#CCE7FE"/>
</g>
<g style="mix-blend-mode:screen" opacity="0.44">
<path d="M565.405 296.812C563.813 296.657 562.86 297.959 564.025 298.698C567.756 301.073 573.623 301.077 577.354 298.698C578.515 297.959 577.566 296.657 575.969 296.812C572.456 297.141 568.919 297.141 565.405 296.812Z" fill="#CCE7FE"/>
</g>
<g style="mix-blend-mode:screen" opacity="0.44">
<path d="M531.529 298.64C529.809 298.473 528.78 299.892 530.037 300.681C534.062 303.247 540.402 303.251 544.444 300.681C545.688 299.879 544.672 298.473 542.947 298.64C539.15 298.999 535.327 298.999 531.529 298.64Z" fill="#CCE7FE"/>
</g>
<g style="mix-blend-mode:screen" opacity="0.44">
<path d="M148.849 300.297C146.743 300.092 145.487 301.812 147.021 302.801C151.942 305.939 159.704 305.943 164.629 302.801C166.163 301.824 164.907 300.105 162.801 300.297C158.16 300.735 153.49 300.735 148.849 300.297Z" fill="#CCE7FE"/>
</g>
<g style="mix-blend-mode:screen" opacity="0.44">
<path d="M24.1696 298.564C22.2459 298.377 21.0974 299.95 22.5112 300.843C27.0097 303.71 34.1201 303.714 38.6061 300.843C40.0116 299.95 38.8632 298.377 36.9477 298.564C32.6977 298.966 28.4196 298.966 24.1696 298.564Z" fill="#CCE7FE"/>
</g>
<g style="mix-blend-mode:screen" opacity="0.44">
<path d="M44.6636 294.416C42.6735 294.228 41.4878 295.852 42.9389 296.774C47.5824 299.733 54.9126 299.737 59.5645 296.774C61.0156 295.852 59.8298 294.228 57.8397 294.416C53.4574 294.831 49.0459 294.831 44.6636 294.416Z" fill="#CCE7FE"/>
</g>
<g style="mix-blend-mode:screen" opacity="0.44">
<path d="M141.842 319.828C140.242 319.673 139.284 320.984 140.453 321.727C144.184 324.11 150.097 324.114 153.845 321.727C155.014 320.984 154.056 319.673 152.456 319.828C148.926 320.162 145.372 320.162 141.842 319.828Z" fill="#CCE7FE"/>
</g>
<g style="mix-blend-mode:screen" opacity="0.44">
<path d="M12.5606 292.567C10.9603 292.413 10.0025 293.719 11.1717 294.462C14.9031 296.849 20.8154 296.849 24.5634 294.462C25.7326 293.719 24.7748 292.413 23.1745 292.567C19.6441 292.897 16.091 292.897 12.5606 292.567Z" fill="#CCE7FE"/>
</g>
<g style="mix-blend-mode:screen" opacity="0.44">
<path d="M-6.62725 299.787C-8.55101 299.6 -9.69946 301.173 -8.28566 302.066C-3.78721 304.933 3.32322 304.937 7.80923 302.066C9.21059 301.173 8.06214 299.6 6.15082 299.787C1.90081 300.189 -2.37725 300.189 -6.62725 299.787Z" fill="#CCE7FE"/>
</g>
<g style="mix-blend-mode:screen" opacity="0.44">
<path d="M162.676 292.985C161.075 292.83 160.118 294.137 161.287 294.884C165.018 297.267 170.935 297.271 174.679 294.884C175.848 294.137 174.89 292.83 173.29 292.985C169.76 293.319 166.206 293.319 162.676 292.985Z" fill="#CCE7FE"/>
</g>
<g style="mix-blend-mode:screen" opacity="0.44">
<path d="M124.541 297.229C122.501 297.033 121.282 298.702 122.77 299.65C127.542 302.692 135.072 302.696 139.848 299.65C141.34 298.702 140.121 297.033 138.077 297.229C133.575 297.655 129.043 297.655 124.541 297.229Z" fill="#CCE7FE"/>
</g>
<g style="mix-blend-mode:screen" opacity="0.36">
<path d="M502.631 358.048C331.346 385.625 77.4961 374.432 -73.8965 363.627V386.372C-62.2586 392.09 2.80522 389.327 92.8323 391.021C142.431 391.952 199.858 407.798 261.307 407.715C315.557 407.627 372.599 391.693 429.831 391.021C487.062 390.349 544.601 404.96 598.894 403.929C660.213 402.765 717.234 385.934 766.928 384.59C860.844 382.049 926.82 394.302 935.709 392.682V344.881C818.924 337.573 650.935 334.168 502.631 358.048Z" fill="#59C5F4"/>
</g>
<path d="M935.708 392.086C926.587 391.101 891.64 378.881 835.009 382.453C828.55 382.837 823.313 383.167 815.979 383.025C803.495 382.95 794.701 380.872 784.307 380.175C768.669 379.219 748.328 381.494 733.842 386.798L733.962 387.774C744 388.822 773.859 389.093 781.227 388.609C796.812 387.774 807.189 383.551 834.773 387.833C860.984 391.718 903.033 396.651 929.303 394.289C931.425 394.055 933.565 393.872 935.717 393.191L935.708 392.086Z" fill="white"/>
<g style="mix-blend-mode:screen">
<path d="M598.884 403.429C605.476 400.925 617.106 398.942 624.021 398.225C631.347 397.532 631.82 397.574 641.02 398.225C657.413 399.523 664.59 394.469 682.721 390.358C694.425 387.699 701.706 386.13 716.499 385.792C722.237 385.7 728.02 385.871 733.858 386.81L733.978 387.787C725.574 391.589 711.03 395.554 701.063 397.427C693.828 398.801 679.193 400.069 675.635 400.174C669.831 400.403 664.926 399.961 658.429 400.395C642.542 401.48 638.329 406.4 624.747 406.964C616.243 407.297 607.01 406.939 598.917 404.426L598.884 403.429Z" fill="white"/>
</g>
<path d="M598.884 403.429C595.347 403.011 591.836 402.665 588.32 402.306C527.394 394.957 515.843 390.867 472.67 388.234C432.528 386.172 427.499 389.177 387.473 392.248C357.871 394.907 357.39 392.891 313.603 399.623C299.001 401.922 286.24 403.742 276.923 405.048C267.104 406.409 257.14 406.308 247.35 404.748C225.517 401.279 187.402 396.313 166.158 395.428C130.589 393.734 135.477 392.795 111.94 388.2C111.438 388.121 108.453 387.616 105.505 387.299C93.7058 385.913 70.0319 387.324 57.2041 390.082V391.063C70.0817 394.181 92.8061 395.712 104.991 395.858C120.601 396.276 130.776 393.196 158.973 400.499C190.599 408.428 226.798 414.271 259.245 408.583C260.613 408.34 262.009 408.293 263.391 408.441C283.524 410.594 305.295 409.276 325.212 406.726C354.375 403.061 366.905 398.154 387.817 395.408C415.799 391.981 430.683 393.939 440.472 394.435C504.761 400.253 550.413 410.444 598.905 404.426L598.884 403.429Z" fill="white"/>
<path d="M-0.499161 386.493C-7.67181 387.328 -15.4995 389.498 -25.2178 388.797C-36.4495 388.104 -36.0763 384.937 -57.8845 385.563C-66.2305 385.775 -71.8774 386.397 -73.8965 385.471V386.819C-70.4097 391.622 -55.6539 393.838 -50.1355 394.231C-36.3499 395.328 -32.9792 390.955 -16.9921 392.077C-10.7731 392.495 9.99446 397.148 32.4618 395.224C39.9247 394.636 50.0078 393.242 57.1971 391.051V390.07C47.8809 387.086 33.9212 385.454 24.2237 385.191C17.1754 384.983 2.9462 386.059 -0.499161 386.493Z" fill="white"/>
<path d="M430.941 104.837C434.356 103.46 438.001 102.752 441.68 102.75C445.328 97.2374 453.836 93.569 463.5 93.569C469.305 93.569 474.802 94.9337 479.044 97.275C483.766 90.4098 494.629 85.6396 506.893 85.6396C514.961 85.6396 522.614 87.6637 528.286 91.2445C529.102 91.1609 529.921 91.1191 530.741 91.1193C539.53 91.1193 546.682 95.6599 546.682 101.24C546.666 102.514 546.3 103.759 545.625 104.837H430.941Z" fill="white"/>
<path d="M550.5 49.8699C556.479 47.4493 562.862 46.1972 569.306 46.1806C575.691 36.5277 590.588 30.084 607.516 30.084C617.674 30.084 627.305 32.4795 634.735 36.5777C642.998 24.5835 661.983 16.2034 683.497 16.2034C697.626 16.2034 711.026 19.7466 720.96 26.0149C722.382 25.8731 723.821 25.7979 725.26 25.7979C740.654 25.7979 753.175 33.7273 753.175 43.5222C753.152 45.7705 752.509 47.9681 751.318 49.8699H550.5Z" fill="white"/>
<path d="M199.214 250.145C199.214 246.423 197.854 243.051 196.482 240.588C195.678 239.134 194.729 237.767 193.65 236.507C193.422 236.97 187.767 242.5 188.111 251.426C188.256 255.304 189.525 263.008 193.194 263.742V269.489H194.682V263.55C197.261 262.365 199.214 256.814 199.214 250.145Z" fill="url(#paint2_linear_48_3522)"/>
<path d="M807.488 512.095C807.488 512.095 799.279 500.126 801.542 497.488C803.806 494.85 836.933 503.059 836.933 503.059C836.933 503.059 825.324 487.322 833.819 483.057C842.314 478.791 863.256 495.518 863.256 495.518C863.256 495.518 857.597 478.324 869.475 476.262C881.354 474.201 886.743 494.17 886.743 494.17C886.743 494.17 883.708 480.323 894.185 476.717C904.663 473.111 917.606 499.124 917.606 499.124C917.606 499.124 905.998 470.269 911.387 460.758C916.777 451.247 931.492 486.42 931.492 486.42C931.492 486.42 926.931 465.028 935.704 459.126V512.078H807.488V512.095Z" fill="#00A334"/>
<path d="M-36.625 40.5257C-33.2052 39.1377 -29.5533 38.4209 -25.8661 38.414C-22.2092 32.8885 -13.6891 29.2034 -3.99985 29.2034C1.8046 29.2034 7.32301 30.5722 11.5727 32.9177C16.3033 26.0567 27.1659 21.2615 39.4755 21.2615C47.5603 21.2615 55.2305 23.2856 60.9147 26.8747C61.7316 26.791 62.5522 26.7492 63.3733 26.7495C72.1795 26.7495 79.348 31.2984 79.348 36.8907C79.3347 38.1784 78.9658 39.437 78.2825 40.5257H-36.625Z" fill="white"/>
<path d="M9.28962 474.484C2.01333 469.531 -34.5589 488.256 -34.5589 488.256C-34.5589 488.256 -12.0169 449.315 -20.5701 438.735C-29.1234 428.156 -41.4164 446.919 -41.4164 446.919C-41.4164 446.919 -24.5586 415.669 -43.1163 404.864C-57.6606 396.392 -71.0026 419.283 -73.8965 424.387V512.086H14.75C14.75 512.086 16.5908 479.438 9.28962 474.484Z" fill="#007D28"/>
<path d="M148.918 495.881C146.369 492.96 109.087 502.062 109.087 502.062C109.087 502.062 122.152 484.609 112.595 479.881C103.038 475.152 79.4557 493.699 79.4557 493.699C79.4557 493.699 85.8282 474.63 72.4447 472.348C59.0613 470.065 53.0081 492.204 53.0081 492.204C53.0081 492.204 56.4245 476.847 44.6373 472.848C32.8501 468.85 18.2768 497.701 18.2768 497.701C18.2768 497.701 31.3409 465.699 25.2877 455.132C19.2345 444.566 2.66696 483.586 2.66696 483.586C2.66696 483.586 6.81298 464.51 0.523438 455.85V512.04H142.214C142.214 512.04 151.468 498.803 148.918 495.881Z" fill="#2BA14C"/>
</g>
<path d="M8.74121 509.027H797.359V511.581C797.359 515.889 795.659 520.021 792.633 523.067C789.607 526.113 785.502 527.824 781.223 527.824H24.8776C20.598 527.824 16.4936 526.113 13.4674 523.067C10.4413 520.021 8.74121 515.889 8.74121 511.581V509.027Z" fill="#FEE2BF"/>
<path d="M307.84 214.1C307.84 214.1 303.598 213.436 302.69 215.92C301.782 218.403 302.437 220.126 302.437 220.126L305.025 217.205C305.025 217.205 309.585 217.576 310 216.533C310.414 215.49 307.84 214.1 307.84 214.1Z" fill="#FFA97A"/>
<path d="M255.246 214.213C255.246 214.213 263.489 244.349 271.093 246.515C278.696 248.681 302.163 223.223 302.163 223.223L307.93 229.404C307.93 229.404 287.614 255.796 269.26 260.925C250.905 266.054 244.384 240.58 244.384 240.58L255.246 214.213Z" fill="#FF8A63"/>
<g style="mix-blend-mode:multiply" opacity="0.37">
<path d="M255.043 214.421L244.388 240.58C244.388 240.58 247.626 253.234 255.963 258.905C258.314 258.129 259.612 256.581 260.462 254.465C265.537 241.899 255.043 214.421 255.043 214.421Z" fill="#FF4900"/>
</g>
<path d="M323.166 209.276C323.166 209.276 315.119 206.576 313.257 208.441C311.396 210.307 297.76 224.521 298.124 225.894C298.236 226.311 304.261 229.087 307.561 228.532C310.861 227.977 326.773 210.766 323.166 209.276Z" fill="#352E73"/>
<path d="M319.339 209.276C317.62 208.719 315.863 208.288 314.082 207.986C316.797 207.151 323.166 209.276 323.166 209.276C326.773 210.766 310.864 227.985 307.56 228.536C306.474 228.666 305.373 228.6 304.31 228.34C308.551 226.332 322.768 210.695 319.339 209.276Z" fill="#2D2861"/>
<path d="M317.499 219.187C317.499 219.187 317.499 220.515 316.169 223.841C314.838 227.167 309.34 230.28 307.69 230.28C306.04 230.28 299.535 225.468 300.463 224.534C301.392 223.599 305.679 221.111 305.679 220.227C305.679 219.342 313.084 218.324 317.499 219.187Z" fill="#FFA97A"/>
<path d="M370.733 480.44C336.798 480.44 309.186 452.649 309.186 418.49C309.186 384.331 336.798 356.537 370.733 356.537C404.669 356.537 432.277 384.327 432.277 418.49C432.277 452.654 404.656 480.44 370.733 480.44ZM370.733 364.283C356.454 364.295 342.764 370.01 332.667 380.173C322.57 390.336 316.893 404.117 316.881 418.49C316.881 448.38 341.04 472.694 370.733 472.694C385.011 472.681 398.7 466.966 408.796 456.804C418.891 446.641 424.569 432.862 424.582 418.49C424.582 388.626 400.427 364.291 370.733 364.291V364.283Z" fill="#2D2861"/>
<path d="M370.734 466.572C361.287 466.573 352.052 463.754 344.197 458.471C336.342 453.189 330.22 445.68 326.604 436.895C322.989 428.11 322.043 418.443 323.885 409.116C325.728 399.79 330.277 391.223 336.957 384.499C343.637 377.775 352.148 373.196 361.413 371.341C370.679 369.486 380.282 370.439 389.01 374.078C397.738 377.717 405.197 383.88 410.445 391.787C415.693 399.694 418.493 408.99 418.493 418.499C418.477 431.244 413.441 443.462 404.488 452.474C395.534 461.487 383.396 466.556 370.734 466.572ZM370.734 372.358C361.668 372.357 352.805 375.063 345.267 380.132C337.728 385.202 331.852 392.408 328.382 400.839C324.912 409.27 324.004 418.547 325.772 427.498C327.54 436.449 331.905 444.67 338.316 451.124C344.726 457.577 352.894 461.972 361.786 463.753C370.678 465.533 379.895 464.62 388.271 461.128C396.647 457.636 403.806 451.722 408.843 444.134C413.88 436.546 416.569 427.625 416.569 418.499C416.558 406.265 411.726 394.535 403.133 385.883C394.54 377.231 382.888 372.364 370.734 372.35V372.358Z" fill="#F3FFFF"/>
<path d="M370.734 460.533C359.662 460.52 349.048 456.087 341.219 448.207C333.39 440.327 328.985 429.643 328.971 418.499C328.952 411.82 330.532 405.235 333.577 399.301C333.694 399.073 333.896 398.9 334.139 398.822C334.382 398.743 334.646 398.765 334.873 398.882C335.1 398.999 335.271 399.203 335.349 399.447C335.428 399.692 335.406 399.958 335.289 400.186C332.382 405.85 330.875 412.136 330.895 418.511C330.899 425.225 332.577 431.831 335.776 437.723C338.974 443.615 343.59 448.604 349.201 452.234C354.813 455.865 361.239 458.019 367.892 458.501C374.545 458.982 381.211 457.775 387.281 454.991C387.396 454.938 387.52 454.908 387.646 454.904C387.772 454.899 387.898 454.919 388.017 454.964C388.135 455.008 388.243 455.076 388.336 455.162C388.428 455.249 388.503 455.353 388.556 455.469C388.608 455.584 388.638 455.709 388.642 455.836C388.647 455.963 388.626 456.09 388.582 456.209C388.538 456.328 388.471 456.438 388.385 456.531C388.299 456.624 388.196 456.699 388.081 456.752C382.638 459.258 376.72 460.548 370.734 460.533Z" fill="#F3FFFF"/>
<path d="M400.51 391.393C400.379 391.393 400.249 391.366 400.129 391.313C400.008 391.261 399.9 391.184 399.81 391.088C396.078 387.09 391.574 383.901 386.574 381.719C381.574 379.536 376.183 378.406 370.733 378.397C370.478 378.397 370.234 378.295 370.053 378.113C369.873 377.932 369.771 377.686 369.771 377.429C369.771 377.172 369.873 376.926 370.053 376.744C370.234 376.563 370.478 376.461 370.733 376.461C376.446 376.471 382.097 377.655 387.338 379.943C392.58 382.23 397.302 385.571 401.215 389.761C401.342 389.9 401.426 390.072 401.458 390.258C401.489 390.444 401.466 390.635 401.391 390.808C401.316 390.981 401.193 391.128 401.037 391.232C400.88 391.336 400.697 391.392 400.51 391.393Z" fill="#F3FFFF"/>
<path d="M304.103 421.403C303.337 421.398 302.604 421.088 302.064 420.54C301.525 419.993 301.222 419.253 301.222 418.482C301.222 379.899 332.404 348.507 370.734 348.507C387.169 348.512 403.072 354.374 415.623 365.055C415.96 365.285 416.245 365.584 416.46 365.932C416.674 366.281 416.813 366.67 416.869 367.077C416.924 367.483 416.893 367.896 416.779 368.289C416.665 368.683 416.47 369.048 416.207 369.36C415.944 369.673 415.618 369.926 415.251 370.104C414.884 370.282 414.485 370.38 414.078 370.392C413.671 370.404 413.266 370.329 412.889 370.173C412.513 370.017 412.173 369.784 411.892 369.487C400.383 359.693 385.8 354.319 370.73 354.317C335.58 354.317 306.985 383.113 306.985 418.482C306.985 419.253 306.682 419.993 306.142 420.54C305.602 421.088 304.869 421.398 304.103 421.403Z" fill="#FCC13F"/>
<path d="M241.908 388.317L230.129 398.588C230.129 398.588 226.17 399.005 224.74 396.943C223.866 395.666 223.462 394.123 223.595 392.578L234.599 379.344L241.908 388.317Z" fill="#FF8A63"/>
<path d="M232.617 396.418C235.163 395.416 232.617 396.418 235.548 405.499C238.256 411.471 241.228 413.904 240.217 415.098C239.555 415.856 238.724 416.446 237.791 416.817L217.152 397.11C217.152 397.11 222.041 389.143 224.039 392.002C232.841 399.527 232.617 396.418 232.617 396.418Z" fill="#FC008B"/>
<path d="M224.612 292.826L243.202 296.641C243.202 296.641 293.407 322.32 291.815 338.738C290.223 355.156 242.676 391.877 242.676 391.877L231.938 380.263C231.938 380.263 258.7 348.612 257.581 344.672C256.462 340.732 193.317 314.762 191.244 308.472C189.171 302.183 199.992 291.207 199.992 291.207L224.612 292.826Z" fill="#2D2861"/>
<path d="M280.591 340.707C279.729 330.074 256.71 308.573 242.916 296.582L224.611 292.826L199.976 291.207C199.976 291.207 189.142 302.179 191.228 308.472C193.313 314.766 256.457 340.737 257.564 344.672C258.671 348.608 231.921 380.263 231.921 380.263L236.581 385.304C251.3 374.971 281.52 352.238 280.591 340.707Z" fill="#2D2861"/>
<path d="M177.815 480.44C143.876 480.44 116.268 452.649 116.268 418.49C116.268 384.331 143.876 356.537 177.815 356.537C211.755 356.537 239.359 384.327 239.359 418.49C239.359 452.654 211.751 480.44 177.815 480.44ZM177.815 364.283C163.537 364.297 149.847 370.014 139.752 380.179C129.656 390.344 123.981 404.126 123.971 418.499C123.971 448.388 148.13 472.702 177.824 472.702C207.518 472.702 231.673 448.388 231.673 418.499C231.673 388.609 207.505 364.291 177.815 364.291V364.283Z" fill="#2D2861"/>
<path d="M177.815 466.572C168.368 466.573 159.134 463.754 151.278 458.471C143.423 453.189 137.301 445.68 133.685 436.895C130.07 428.11 129.124 418.443 130.966 409.116C132.809 399.79 137.358 391.223 144.038 384.499C150.718 377.775 159.229 373.196 168.494 371.341C177.76 369.486 187.363 370.439 196.091 374.078C204.819 377.717 212.278 383.88 217.526 391.787C222.774 399.694 225.574 408.99 225.574 418.499C225.558 431.244 220.522 443.462 211.569 452.474C202.615 461.487 190.477 466.556 177.815 466.572ZM177.815 372.358C168.749 372.357 159.886 375.063 152.348 380.132C144.809 385.202 138.933 392.408 135.463 400.839C131.993 409.27 131.085 418.547 132.853 427.498C134.621 436.449 138.986 444.67 145.397 451.124C151.807 457.577 159.975 461.972 168.867 463.753C177.759 465.533 186.976 464.62 195.352 461.128C203.728 457.636 210.887 451.722 215.924 444.134C220.961 436.546 223.65 427.625 223.65 418.499C223.639 406.265 218.807 394.535 210.214 385.883C201.621 377.231 189.969 372.364 177.815 372.35V372.358Z" fill="#F3FFFF"/>
<path d="M177.816 460.533C166.744 460.52 156.13 456.087 148.301 448.207C140.472 440.327 136.067 429.643 136.053 418.499C136.034 411.82 137.614 405.235 140.659 399.301C140.783 399.087 140.984 398.929 141.221 398.86C141.457 398.791 141.711 398.815 141.93 398.929C142.149 399.042 142.316 399.236 142.398 399.47C142.479 399.704 142.468 399.96 142.367 400.186C139.461 405.85 137.955 412.136 137.977 418.511C137.981 425.225 139.659 431.831 142.858 437.723C146.056 443.615 150.672 448.604 156.283 452.234C161.895 455.865 168.321 458.019 174.974 458.501C181.627 458.982 188.293 457.775 194.363 454.991C194.595 454.884 194.859 454.874 195.099 454.964C195.338 455.053 195.532 455.235 195.638 455.469C195.744 455.702 195.753 455.969 195.664 456.209C195.575 456.45 195.395 456.645 195.163 456.752C189.72 459.258 183.802 460.548 177.816 460.533Z" fill="#F3FFFF"/>
<path d="M207.591 391.393C207.46 391.393 207.33 391.366 207.21 391.313C207.089 391.261 206.981 391.184 206.891 391.088C203.159 387.09 198.655 383.902 193.655 381.719C188.655 379.537 183.264 378.406 177.814 378.397C177.559 378.397 177.315 378.295 177.134 378.113C176.954 377.932 176.853 377.686 176.853 377.429C176.853 377.172 176.954 376.926 177.134 376.744C177.315 376.563 177.559 376.461 177.814 376.461C183.527 376.47 189.177 377.655 194.418 379.942C199.659 382.229 204.38 385.571 208.292 389.761C208.421 389.899 208.506 390.071 208.539 390.257C208.571 390.444 208.549 390.635 208.474 390.809C208.4 390.982 208.277 391.13 208.12 391.234C207.963 391.338 207.779 391.393 207.591 391.393Z" fill="#F3FFFF"/>
<path d="M220.839 370.192C220.157 370.193 219.497 369.949 218.977 369.504C208.399 360.501 195.197 355.211 181.366 354.433C167.536 353.655 153.83 357.432 142.321 365.192C142.01 365.458 141.646 365.654 141.254 365.768C140.862 365.882 140.45 365.912 140.046 365.855C139.642 365.798 139.254 365.657 138.908 365.439C138.562 365.221 138.266 364.932 138.038 364.591C137.811 364.25 137.657 363.865 137.587 363.46C137.518 363.055 137.534 362.64 137.634 362.242C137.735 361.844 137.918 361.471 138.171 361.149C138.424 360.827 138.742 360.562 139.104 360.372C151.654 351.906 166.602 347.785 181.686 348.633C196.77 349.481 211.169 355.252 222.705 365.071C223.147 365.46 223.461 365.975 223.606 366.547C223.752 367.119 223.722 367.722 223.52 368.277C223.318 368.832 222.953 369.312 222.475 369.653C221.996 369.995 221.426 370.183 220.839 370.192Z" fill="#FCC13F"/>
<path d="M177.811 412.101C177.609 412.091 177.418 412.005 177.277 411.858C177.135 411.712 177.054 411.517 177.05 411.313C177.046 411.109 177.119 410.911 177.254 410.759C177.389 410.607 177.576 410.513 177.778 410.494L262.511 406.542C262.715 406.544 262.912 406.624 263.059 406.767C263.207 406.91 263.294 407.104 263.304 407.31C263.313 407.516 263.244 407.717 263.111 407.873C262.977 408.03 262.789 408.128 262.586 408.149L177.87 412.101H177.811Z" fill="#352E73"/>
<path d="M263.749 430.451H263.712L177.777 426.499C177.567 426.488 177.369 426.395 177.226 426.239C177.083 426.083 177.007 425.876 177.014 425.664C177.032 425.456 177.127 425.261 177.281 425.12C177.434 424.978 177.635 424.9 177.843 424.901L263.782 428.849C263.984 428.867 264.172 428.963 264.307 429.115C264.442 429.267 264.514 429.466 264.509 429.67C264.505 429.874 264.423 430.068 264.281 430.214C264.139 430.36 263.948 430.446 263.745 430.455L263.749 430.451Z" fill="#352E73"/>
<path d="M177.815 427.3C176.084 427.301 174.392 426.785 172.953 425.818C171.514 424.851 170.392 423.476 169.729 421.866C169.067 420.257 168.893 418.486 169.23 416.778C169.568 415.069 170.401 413.5 171.625 412.268C172.848 411.036 174.408 410.197 176.105 409.858C177.802 409.518 179.562 409.693 181.16 410.36C182.759 411.027 184.125 412.156 185.086 413.605C186.047 415.054 186.56 416.757 186.559 418.499C186.557 420.832 185.635 423.07 183.995 424.72C182.356 426.37 180.133 427.298 177.815 427.3Z" fill="#352E73"/>
<path d="M252.498 404.41C251.942 404.41 251.402 404.216 250.972 403.861C250.541 403.505 250.247 403.011 250.138 402.461C250.029 401.912 250.114 401.341 250.376 400.847C250.639 400.353 251.063 399.966 251.578 399.752C262.179 395.346 270.894 387.315 276.189 377.074L289.775 350.753C294.389 341.808 301.408 334.35 310.033 329.231L318.835 324.022C319.385 323.696 320.041 323.602 320.659 323.763C321.277 323.923 321.807 324.324 322.131 324.878C322.455 325.431 322.548 326.092 322.389 326.714C322.229 327.336 321.831 327.869 321.281 328.196L312.512 333.404C304.663 338.062 298.273 344.849 294.075 352.99L280.488 379.307C274.672 390.563 265.094 399.39 253.444 404.23C253.144 404.354 252.822 404.415 252.498 404.41Z" fill="#FCC13F"/>
<path d="M259.334 417.176C258.905 417.175 258.484 417.058 258.115 416.838C257.746 416.618 257.442 416.302 257.236 415.924L204.196 320.462C203.884 319.902 203.806 319.241 203.979 318.623C204.152 318.005 204.562 317.481 205.118 317.167C205.674 316.854 206.332 316.775 206.946 316.949C207.56 317.124 208.08 317.536 208.391 318.096L261.432 413.57C261.636 413.939 261.741 414.355 261.736 414.777C261.732 415.199 261.618 415.612 261.406 415.976C261.194 416.341 260.892 416.643 260.528 416.853C260.165 417.064 259.753 417.175 259.334 417.176Z" fill="#FCC13F"/>
<path d="M240.217 420.915H177.815C177.491 420.929 177.168 420.876 176.865 420.761C176.561 420.645 176.284 420.469 176.051 420.244C175.817 420.018 175.63 419.746 175.503 419.446C175.376 419.146 175.311 418.823 175.311 418.497C175.311 418.17 175.376 417.848 175.503 417.547C175.63 417.247 175.817 416.976 176.051 416.75C176.284 416.524 176.561 416.348 176.865 416.233C177.168 416.117 177.491 416.065 177.815 416.078H240.217C249.118 416.092 257.85 413.638 265.456 408.986C273.062 404.333 279.248 397.661 283.336 389.703L296.922 363.385C301.535 354.44 308.555 346.982 317.18 341.863L325.949 336.655C326.221 336.493 326.522 336.387 326.835 336.343C327.148 336.298 327.467 336.316 327.773 336.396C328.079 336.475 328.367 336.615 328.619 336.806C328.872 336.997 329.084 337.237 329.245 337.511C329.406 337.785 329.511 338.088 329.555 338.403C329.599 338.718 329.582 339.039 329.503 339.347C329.424 339.655 329.285 339.944 329.095 340.198C328.905 340.453 328.667 340.667 328.395 340.828L319.663 346.033C311.814 350.689 305.425 357.475 301.226 365.614L287.639 391.935C283.144 400.686 276.339 408.02 267.974 413.132C259.608 418.245 250.004 420.938 240.217 420.915Z" fill="#FCC13F"/>
<path d="M177.81 420.435C177.471 420.434 177.139 420.343 176.846 420.172C176.553 420 176.31 419.754 176.142 419.457C175.973 419.161 175.886 418.825 175.888 418.484C175.89 418.143 175.981 417.808 176.152 417.514L218.74 343.691C218.857 343.453 219.021 343.242 219.223 343.071C219.424 342.899 219.658 342.771 219.911 342.695C220.163 342.618 220.429 342.595 220.691 342.626C220.952 342.657 221.205 342.742 221.433 342.876C221.661 343.01 221.859 343.189 222.015 343.403C222.171 343.617 222.282 343.861 222.341 344.12C222.399 344.378 222.404 344.647 222.355 344.908C222.306 345.168 222.205 345.416 222.057 345.636L179.469 419.459C179.301 419.753 179.06 419.998 178.769 420.17C178.478 420.341 178.148 420.433 177.81 420.435Z" fill="#FCC13F"/>
<path d="M262.546 431.253C260.04 431.253 257.589 430.504 255.504 429.102C253.42 427.7 251.796 425.707 250.836 423.376C249.877 421.045 249.627 418.479 250.116 416.004C250.605 413.529 251.813 411.256 253.586 409.472C255.359 407.688 257.618 406.473 260.076 405.981C262.535 405.49 265.084 405.743 267.4 406.709C269.716 407.675 271.695 409.311 273.087 411.41C274.479 413.508 275.222 415.975 275.221 418.499C275.217 421.881 273.88 425.123 271.504 427.514C269.128 429.905 265.906 431.249 262.546 431.253Z" fill="#352E73"/>
<path d="M170.663 418.495C170.662 419.919 171.081 421.311 171.866 422.495C172.652 423.68 173.768 424.603 175.075 425.149C176.382 425.694 177.82 425.837 179.208 425.56C180.595 425.283 181.87 424.597 182.871 423.591C183.871 422.584 184.553 421.301 184.829 419.905C185.106 418.508 184.964 417.061 184.423 415.745C183.882 414.429 182.965 413.305 181.789 412.513C180.613 411.722 179.23 411.3 177.815 411.3C175.919 411.3 174.1 412.058 172.759 413.407C171.418 414.756 170.664 416.586 170.663 418.495Z" fill="#F3FFFF"/>
<path d="M251.469 418.495C251.469 420.7 252.118 422.856 253.336 424.69C254.553 426.524 256.283 427.953 258.307 428.797C260.332 429.641 262.559 429.862 264.708 429.432C266.857 429.001 268.831 427.939 270.38 426.38C271.93 424.82 272.985 422.833 273.412 420.67C273.84 418.507 273.62 416.265 272.782 414.227C271.943 412.19 270.523 410.448 268.702 409.223C266.88 407.997 264.738 407.343 262.547 407.343C259.609 407.343 256.791 408.518 254.713 410.61C252.636 412.701 251.469 415.537 251.469 418.495Z" fill="#F3FFFF"/>
<path d="M271.68 455.037C271.191 455.044 270.717 454.862 270.356 454.529C269.995 454.196 269.774 453.736 269.738 453.245C269.703 452.753 269.856 452.266 270.165 451.884C270.474 451.502 270.917 451.253 271.403 451.189L292.548 448.042C293.052 447.967 293.565 448.097 293.974 448.403C294.383 448.709 294.654 449.166 294.728 449.674C294.803 450.181 294.673 450.698 294.369 451.109C294.065 451.521 293.611 451.794 293.107 451.869L271.962 455.016C271.869 455.031 271.775 455.038 271.68 455.037Z" fill="#352E73"/>
<path d="M282.263 452.478C282.097 452.48 281.934 452.439 281.789 452.36C281.644 452.28 281.521 452.164 281.433 452.023L261.719 419.955C261.645 419.847 261.594 419.725 261.568 419.597C261.542 419.468 261.543 419.336 261.569 419.207C261.596 419.079 261.648 418.957 261.723 418.85C261.798 418.742 261.893 418.651 262.004 418.582C262.115 418.513 262.239 418.468 262.367 418.448C262.496 418.429 262.628 418.436 262.754 418.469C262.88 418.502 262.998 418.56 263.101 418.641C263.204 418.721 263.289 418.822 263.352 418.937L283.067 451.001C283.159 451.148 283.21 451.318 283.214 451.492C283.218 451.665 283.175 451.837 283.09 451.989C283.005 452.14 282.881 452.266 282.731 452.352C282.581 452.438 282.41 452.482 282.238 452.478H282.263Z" fill="#352E73"/>
<path d="M193.072 314.682H211.824C212.493 314.682 213.134 314.95 213.607 315.425C214.079 315.901 214.345 316.547 214.345 317.22V320.254C214.344 320.926 214.078 321.57 213.605 322.045C213.133 322.52 212.492 322.787 211.824 322.787H188.146C187.72 322.791 187.301 322.685 186.927 322.481C186.553 322.276 186.237 321.979 186.008 321.618C185.78 321.256 185.646 320.842 185.621 320.414C185.595 319.987 185.678 319.559 185.862 319.173C186.529 317.823 187.558 316.688 188.832 315.894C190.105 315.101 191.574 314.681 193.072 314.682Z" fill="#802500"/>
<path d="M272.398 421.404V443.906C272.398 443.906 270.475 447.416 267.95 447.416C266.264 447.379 264.59 447.114 262.974 446.627L260.512 416.867L272.398 421.404Z" fill="#FFA97A"/>
<path d="M272.076 440.609C272.727 437.938 272.076 440.609 281.139 443.422C287.553 444.632 291.239 443.585 291.637 445.116C291.872 446.097 291.872 447.12 291.637 448.1L263.75 453.73C263.75 453.73 260.094 445.121 263.564 445.121C274.729 442.212 272.076 440.609 272.076 440.609Z" fill="#FC008B"/>
<path d="M235.942 289.433C235.942 289.433 272.323 323.15 277.775 349.112C283.227 375.075 273.629 430.259 273.629 430.259C273.629 430.259 268.393 432.843 257.7 431.553C257.7 431.553 257.903 359.437 254.056 354.275C250.208 349.112 191.069 316.685 188.188 307.007C185.306 297.329 192.707 286.679 192.707 286.679L235.942 289.433Z" fill="#352E73"/>
<path d="M265.13 427.196H265.072C264.861 427.18 264.665 427.081 264.527 426.92C264.389 426.758 264.32 426.549 264.334 426.336L264.728 420.823C264.743 420.611 264.841 420.413 265.001 420.273C265.161 420.134 265.369 420.063 265.58 420.078C265.791 420.093 265.988 420.192 266.127 420.353C266.266 420.514 266.335 420.724 266.32 420.936L265.906 426.453C265.89 426.652 265.803 426.837 265.66 426.974C265.516 427.111 265.328 427.191 265.13 427.196ZM265.918 416.17H265.86C265.653 416.156 265.46 416.061 265.322 415.905C265.183 415.749 265.112 415.544 265.122 415.335L265.508 409.822C265.514 409.717 265.541 409.613 265.588 409.518C265.634 409.423 265.699 409.339 265.779 409.27C265.859 409.2 265.951 409.148 266.051 409.115C266.151 409.083 266.257 409.07 266.362 409.08C266.569 409.095 266.761 409.19 266.899 409.346C267.037 409.502 267.109 409.706 267.1 409.914L266.71 415.427C266.696 415.629 266.607 415.818 266.46 415.956C266.313 416.094 266.119 416.171 265.918 416.17ZM266.689 405.144H266.631C266.425 405.129 266.232 405.033 266.094 404.878C265.956 404.722 265.884 404.518 265.893 404.309L266.271 398.796C266.292 398.587 266.392 398.393 266.55 398.255C266.707 398.116 266.911 398.043 267.121 398.049C267.328 398.064 267.521 398.16 267.659 398.316C267.798 398.471 267.871 398.675 267.863 398.884L267.485 404.397C267.472 404.6 267.382 404.79 267.234 404.929C267.086 405.068 266.891 405.144 266.689 405.144ZM267.44 394.118H267.386C267.175 394.103 266.979 394.005 266.84 393.844C266.7 393.684 266.63 393.475 266.644 393.262C266.768 391.423 266.891 389.586 267.013 387.749C267.034 387.544 267.131 387.353 267.284 387.215C267.438 387.077 267.636 387.001 267.842 387.002C268.053 387.017 268.249 387.116 268.388 387.276C268.527 387.436 268.598 387.646 268.584 387.858C268.464 389.686 268.339 391.531 268.215 393.371C268.201 393.573 268.112 393.763 267.965 393.901C267.818 394.04 267.625 394.117 267.423 394.118H267.44ZM268.174 383.092H268.12C267.912 383.077 267.719 382.982 267.579 382.826C267.44 382.67 267.366 382.467 267.373 382.257C267.498 380.382 267.615 378.544 267.726 376.744C267.732 376.639 267.759 376.536 267.805 376.441C267.852 376.347 267.916 376.262 267.994 376.192C268.073 376.123 268.164 376.069 268.263 376.035C268.362 376.001 268.467 375.987 268.572 375.993C268.676 376 268.778 376.027 268.872 376.073C268.967 376.12 269.051 376.184 269.12 376.263C269.189 376.342 269.242 376.434 269.276 376.534C269.31 376.634 269.324 376.739 269.318 376.844C269.206 378.643 269.09 380.488 268.965 382.362C268.948 382.561 268.857 382.746 268.71 382.881C268.564 383.017 268.372 383.092 268.174 383.092ZM268.862 372.062H268.816C268.608 372.048 268.413 371.953 268.273 371.797C268.133 371.641 268.059 371.437 268.066 371.227C268.182 369.299 268.29 367.471 268.389 365.714C268.401 365.502 268.497 365.303 268.655 365.161C268.812 365.019 269.02 364.947 269.231 364.959C269.442 364.971 269.64 365.067 269.78 365.226C269.921 365.385 269.993 365.593 269.981 365.806C269.882 367.546 269.774 369.395 269.658 371.323C269.641 371.524 269.55 371.712 269.403 371.849C269.255 371.985 269.062 372.061 268.862 372.062ZM269.48 361.027H269.438C269.228 361.017 269.031 360.923 268.89 360.766C268.749 360.61 268.675 360.404 268.684 360.193C268.791 358.027 268.874 356.161 268.92 354.684C268.921 354.577 268.944 354.472 268.987 354.375C269.03 354.278 269.092 354.19 269.17 354.117C269.247 354.045 269.339 353.989 269.438 353.953C269.538 353.917 269.644 353.901 269.749 353.908C269.854 353.911 269.958 353.935 270.054 353.979C270.15 354.023 270.236 354.085 270.308 354.163C270.38 354.241 270.435 354.332 270.472 354.431C270.508 354.531 270.525 354.636 270.52 354.742C270.475 356.228 270.392 358.081 270.284 360.285C270.269 360.485 270.18 360.673 270.034 360.811C269.888 360.949 269.696 361.026 269.496 361.027H269.48ZM268.783 350.177C268.641 350.175 268.503 350.135 268.381 350.062C268.26 349.988 268.159 349.884 268.091 349.759C267.162 348.245 266.061 346.845 264.811 345.586C264.678 345.429 264.609 345.227 264.619 345.021C264.629 344.815 264.717 344.621 264.866 344.478C265.014 344.336 265.211 344.256 265.416 344.256C265.622 344.255 265.819 344.334 265.968 344.476C267.301 345.829 268.477 347.332 269.471 348.954C269.577 349.138 269.606 349.357 269.551 349.563C269.497 349.769 269.364 349.944 269.181 350.051C269.062 350.131 268.925 350.179 268.783 350.189V350.177ZM261.407 342.043C261.214 342.042 261.027 341.971 260.881 341.842C259.637 340.741 258.231 339.555 256.697 338.32C256.616 338.254 256.548 338.173 256.497 338.081C256.447 337.989 256.415 337.887 256.403 337.783C256.392 337.678 256.401 337.572 256.43 337.471C256.459 337.37 256.508 337.276 256.573 337.193C256.638 337.111 256.719 337.043 256.811 336.992C256.902 336.941 257.003 336.909 257.107 336.897C257.211 336.886 257.316 336.895 257.417 336.924C257.517 336.953 257.611 337.002 257.692 337.068C259.247 338.32 260.673 339.522 261.938 340.636C262.059 340.745 262.144 340.888 262.183 341.046C262.221 341.205 262.211 341.371 262.153 341.523C262.096 341.676 261.994 341.807 261.86 341.9C261.727 341.993 261.569 342.042 261.407 342.043ZM252.846 335.115C252.674 335.116 252.506 335.061 252.369 334.956C250.997 333.917 249.508 332.82 247.953 331.693C247.868 331.631 247.796 331.554 247.741 331.464C247.686 331.375 247.649 331.276 247.632 331.172C247.615 331.068 247.619 330.962 247.642 330.859C247.666 330.757 247.71 330.66 247.771 330.574C247.832 330.489 247.909 330.416 247.998 330.361C248.087 330.305 248.186 330.268 248.289 330.251C248.392 330.234 248.497 330.237 248.599 330.261C248.701 330.285 248.797 330.329 248.882 330.391C250.449 331.522 251.942 332.628 253.327 333.671C253.41 333.734 253.481 333.814 253.534 333.904C253.587 333.995 253.622 334.095 253.637 334.199C253.651 334.304 253.645 334.41 253.619 334.512C253.593 334.614 253.547 334.71 253.484 334.794C253.412 334.896 253.316 334.98 253.205 335.038C253.094 335.096 252.971 335.127 252.846 335.128V335.115ZM243.928 328.655C243.766 328.655 243.608 328.606 243.476 328.513C241.98 327.464 240.471 326.422 238.948 325.387C238.787 325.262 238.679 325.079 238.647 324.877C238.615 324.675 238.661 324.467 238.775 324.298C238.889 324.128 239.063 324.009 239.262 323.964C239.46 323.919 239.668 323.952 239.844 324.056C241.367 325.096 242.887 326.142 244.404 327.194C244.544 327.291 244.65 327.431 244.705 327.593C244.76 327.755 244.763 327.93 244.712 328.094C244.661 328.257 244.559 328.4 244.422 328.5C244.284 328.601 244.118 328.655 243.948 328.655H243.928ZM234.839 322.441C234.681 322.44 234.527 322.392 234.396 322.303C232.853 321.268 231.319 320.25 229.835 319.256C229.659 319.139 229.536 318.956 229.493 318.747C229.451 318.539 229.493 318.322 229.609 318.144C229.726 317.966 229.908 317.843 230.115 317.8C230.322 317.757 230.538 317.799 230.714 317.917C232.215 318.91 233.749 319.932 235.275 320.967C235.416 321.063 235.524 321.203 235.581 321.364C235.638 321.526 235.643 321.702 235.594 321.867C235.545 322.031 235.445 322.176 235.308 322.279C235.172 322.382 235.006 322.439 234.835 322.441H234.839ZM225.66 316.356C225.512 316.352 225.368 316.306 225.246 316.222L220.648 313.197C220.471 313.08 220.347 312.897 220.304 312.688C220.261 312.48 220.301 312.263 220.417 312.084C220.533 311.906 220.715 311.782 220.922 311.738C221.129 311.695 221.345 311.736 221.522 311.853L226.12 314.883C226.265 314.977 226.375 315.116 226.434 315.279C226.493 315.441 226.499 315.619 226.449 315.785C226.4 315.951 226.298 316.096 226.159 316.199C226.021 316.302 225.853 316.357 225.681 316.356H225.66ZM216.477 310.284C216.318 310.283 216.164 310.235 216.033 310.146C214.142 308.894 212.65 307.855 211.472 307.016C211.315 306.887 211.213 306.702 211.185 306.5C211.158 306.297 211.209 306.092 211.326 305.925C211.444 305.759 211.62 305.644 211.818 305.603C212.017 305.562 212.224 305.599 212.397 305.705C213.558 306.54 215.038 307.55 216.92 308.81C217.062 308.907 217.169 309.046 217.227 309.208C217.284 309.371 217.288 309.547 217.239 309.712C217.189 309.876 217.088 310.021 216.951 310.124C216.814 310.227 216.648 310.283 216.477 310.284ZM207.795 303.564C207.663 303.565 207.534 303.532 207.418 303.469C207.302 303.407 207.204 303.316 207.131 303.205C206.219 301.832 205.622 299.959 205.361 297.638C205.349 297.534 205.358 297.428 205.387 297.326C205.416 297.225 205.465 297.131 205.53 297.048C205.595 296.966 205.676 296.897 205.768 296.846C205.859 296.795 205.96 296.763 206.064 296.751C206.168 296.74 206.273 296.749 206.374 296.778C206.474 296.807 206.568 296.856 206.65 296.921C206.732 296.987 206.8 297.068 206.851 297.161C206.901 297.253 206.933 297.354 206.945 297.459C207.177 299.52 207.687 301.152 208.458 302.312C208.538 302.434 208.584 302.574 208.591 302.72C208.599 302.865 208.566 303.01 208.498 303.138C208.43 303.266 208.329 303.374 208.205 303.449C208.081 303.524 207.939 303.564 207.795 303.564ZM206.087 292.843H206.033C205.826 292.828 205.632 292.733 205.494 292.577C205.355 292.421 205.283 292.217 205.291 292.008C205.403 290.297 205.626 288.428 205.954 286.458C206 286.259 206.12 286.084 206.289 285.971C206.458 285.857 206.664 285.813 206.864 285.846C207.065 285.88 207.245 285.989 207.369 286.151C207.492 286.313 207.55 286.517 207.53 286.721C207.21 288.64 206.991 290.477 206.879 292.117C206.863 292.318 206.773 292.505 206.626 292.642C206.479 292.779 206.287 292.855 206.087 292.856V292.843Z" fill="#7271B3"/>
<path d="M235.942 289.433L192.703 286.692C191.115 289.115 189.838 291.732 188.905 294.479C195.315 300.931 203.947 299.662 214.934 297.505C224.018 295.719 236.601 293.815 238.894 292.28C237.045 290.456 235.942 289.433 235.942 289.433Z" fill="#2D2861"/>
<path d="M207.845 281.976C207.781 281.981 207.718 281.981 207.654 281.976C207.449 281.925 207.272 281.795 207.163 281.613C207.053 281.432 207.02 281.214 207.07 281.007C207.484 279.338 207.778 278.295 207.791 278.249C207.862 278.058 208.003 277.902 208.184 277.811C208.366 277.72 208.574 277.702 208.768 277.761C208.962 277.819 209.127 277.949 209.23 278.125C209.332 278.301 209.365 278.509 209.321 278.708C209.321 278.708 209.01 279.755 208.62 281.383C208.574 281.554 208.472 281.704 208.332 281.812C208.192 281.919 208.021 281.976 207.845 281.976Z" fill="#F7604B"/>
<path d="M264.812 430.814C264.707 430.806 264.602 430.818 264.502 430.851C264.402 430.884 264.309 430.937 264.23 431.006C264.15 431.075 264.085 431.159 264.039 431.254C263.992 431.349 263.964 431.452 263.957 431.557L263.933 431.924C264.488 431.924 265.023 431.899 265.533 431.874V431.674C265.549 431.464 265.482 431.256 265.347 431.095C265.212 430.934 265.02 430.833 264.812 430.814Z" fill="#7271B3"/>
<path d="M246.2 206.509C246.2 206.509 254.376 210.703 256.78 219.417C259.185 228.131 260.304 246.681 256.78 252.975C253.256 259.268 246.2 289.755 240.913 291.533C235.627 293.31 192.993 292.985 189.784 292.175C186.575 291.366 209.337 240.714 217.19 224.567C225.042 208.42 246.2 206.509 246.2 206.509Z" fill="#8CD334"/>
<path d="M232.596 210.365C217.127 200.708 193.938 216.654 195.074 220.339C177.246 235.585 174.108 247.721 168.444 259.152C162.781 270.582 170.75 275.353 181.455 280.477C192.16 285.602 198.744 273.475 203.843 262.532C208.943 251.589 233.226 212.852 232.596 210.365Z" fill="#FC008B"/>
<path d="M195.091 220.339C203.715 225.21 215.767 230.314 224.432 213.399C216.306 231.407 206.094 226.194 202.044 225.351C197.993 224.508 195.091 220.339 195.091 220.339Z" fill="#D6007E"/>
<path d="M179.897 246.544C176.331 251.932 169.403 263.546 172.343 266.718C175.282 269.89 183.989 274.426 187.136 269.781C190.282 265.136 195.092 253.735 195.092 253.735C185.141 251.944 179.897 246.544 179.897 246.544Z" fill="#D6007E"/>
<g style="mix-blend-mode:multiply">
<path d="M178.506 255.496C181.409 257.97 187.031 261.105 190.049 259.869C191.546 259.242 192.828 258.189 193.739 256.839C194.053 256.073 194.269 255.269 194.382 254.448C184.431 252.658 179.456 247.516 179.456 247.516C178.618 249.682 175.621 253.017 178.506 255.496Z" fill="#D6007E"/>
</g>
<path d="M179.216 254.782C182.119 257.257 187.741 260.391 190.755 259.156C192.239 258.551 193.363 257.19 194.125 255.967C194.727 254.607 195.091 253.735 195.091 253.735C185.141 251.944 179.896 246.544 179.896 246.544C179.059 248.71 176.331 252.303 179.216 254.782Z" fill="#D6007E"/>
<path d="M225.792 209.2C240.407 204.535 248.844 211.245 246.896 231.887C236.531 263.667 193.449 276.237 193.449 276.237L198.715 265.336C198.715 265.336 216.51 263.667 234.69 243.944C247.203 230.38 242.949 216.93 237.658 214.037C233.28 211.642 224.93 211.287 224.93 211.287L225.792 209.2Z" fill="#FC008B"/>
<g style="mix-blend-mode:multiply">
<path d="M242.962 281.542C239.276 276.054 243.509 250.604 244.79 236.569C246.071 222.534 239.181 217.051 239.181 217.051C236.216 214.062 225.553 214.313 223.156 220.711C221.722 224.538 212.65 260.04 219.947 281.742L219.997 281.884C222.29 288.561 228.911 292.735 235.918 292.221C238.31 292.038 240.064 291.804 240.893 291.533C242.464 291.003 244.21 287.939 245.935 283.728C244.521 283.04 243.472 282.293 242.962 281.542Z" fill="#7EC2FE"/>
</g>
<path d="M261.826 200.219C261.826 200.219 260.582 201.714 259.164 203.809C257.699 205.962 256.717 208.412 256.287 210.986C255.858 213.561 255.991 216.198 256.677 218.716C257.763 222.66 259.032 228.444 259.032 233.978C259.032 243.656 246.208 206.509 246.208 206.509L253.182 192.837L261.826 200.219Z" fill="#FFA97A"/>
<g style="mix-blend-mode:multiply" opacity="0.68">
<path d="M261.826 200.219L253.173 192.837L250.582 197.92C251.896 200.925 254.492 204.384 257.344 207.227C257.828 206.025 258.439 204.88 259.164 203.809C260.582 201.714 261.826 200.219 261.826 200.219Z" fill="#FF4900"/>
</g>
<path d="M241.059 169.42C241.059 169.42 240.438 163.377 236.76 152.242C233.083 141.108 219.786 133.045 209.761 139.472C199.736 145.899 194.006 139.472 184.416 131.705C174.827 123.939 162.384 127.277 155.34 135.612C148.296 143.946 134.709 143.771 137.35 161.783C139.992 179.795 160.863 190.729 173.044 181.648C185.225 172.567 187.377 176.152 196.568 184.323C205.76 192.495 228.236 178.597 233.053 174.261C237.871 169.925 241.059 169.42 241.059 169.42Z" fill="#2D2861"/>
<path d="M370.735 420.919C370.304 420.92 369.881 420.804 369.51 420.583C369.139 420.363 368.833 420.047 368.625 419.667L303.885 301.069C303.265 299.93 302.94 298.653 302.939 297.354V289.667C302.939 289.159 302.805 288.66 302.551 288.221C302.297 287.782 301.932 287.419 301.492 287.168C301.053 286.918 300.556 286.789 300.051 286.796C299.546 286.802 299.052 286.943 298.619 287.205L287.346 294.012C286.8 294.344 286.144 294.444 285.525 294.289C284.905 294.135 284.372 293.74 284.042 293.189C283.712 292.639 283.612 291.98 283.766 291.356C283.919 290.732 284.312 290.195 284.858 289.863L296.136 283.057C297.298 282.352 298.625 281.971 299.982 281.952C301.339 281.933 302.676 282.278 303.857 282.95C305.038 283.623 306.021 284.599 306.704 285.779C307.387 286.96 307.746 288.301 307.745 289.667V297.354C307.745 297.838 307.865 298.314 308.093 298.74L372.837 417.334C373.038 417.703 373.14 418.118 373.133 418.538C373.126 418.959 373.011 419.37 372.798 419.732C372.586 420.094 372.284 420.394 371.921 420.603C371.559 420.812 371.149 420.922 370.731 420.923L370.735 420.919Z" fill="#FCC13F"/>
<path d="M363.582 418.495C363.581 419.919 364 421.311 364.785 422.495C365.571 423.68 366.687 424.603 367.994 425.149C369.301 425.694 370.739 425.837 372.127 425.56C373.514 425.283 374.789 424.597 375.79 423.591C376.79 422.584 377.472 421.301 377.748 419.905C378.024 418.508 377.883 417.061 377.342 415.745C376.801 414.429 375.884 413.305 374.708 412.513C373.532 411.722 372.149 411.3 370.734 411.3C368.838 411.3 367.019 412.058 365.678 413.407C364.337 414.756 363.583 416.586 363.582 418.495Z" fill="#F3FFFF"/>
<path d="M296.926 284.029C293.92 281.003 285.948 284.192 282.341 285.402C280.392 286.053 248.057 281.646 244.371 276.166C240.685 270.687 244.919 245.229 246.2 231.194C247.481 217.159 240.59 211.671 240.59 211.671C237.626 208.687 226.962 208.938 224.566 215.335C223.131 219.162 214.064 254.665 221.357 276.367C230.552 303.711 283.804 291.207 284.828 291.207C286.031 291.207 287.229 293.949 288.431 293.949C289.633 293.949 294.965 291.812 295.566 291.207C296.168 290.602 299.932 287.055 296.926 284.029Z" fill="#FFA97A"/>
<path d="M271.984 169.942C271.984 169.942 276.209 172.291 277.1 183.489C277.991 194.686 275.765 206.217 271.204 207.227C266.644 208.237 255.408 201.517 251.739 196.029C248.069 190.542 253.965 172.625 259.969 169.942C265.972 167.258 271.984 169.942 271.984 169.942Z" fill="#FFA97A"/>
<path d="M240.503 161.224C239.114 162.622 236.498 169.061 236.498 176.452C236.498 183.843 246.287 197.503 248.845 198.621C251.403 199.739 261.826 192.837 264.529 176.452C265.168 172.583 272.772 170.609 272.772 170.609C272.772 170.609 273.651 163.344 266.868 160.769C260.085 158.194 257.858 163.118 252.406 161.549C246.954 159.98 243.119 158.59 240.503 161.224Z" fill="#2D2861"/>
<path d="M261.827 186.852C261.827 186.852 262.519 181.961 259.857 181.961C257.196 181.961 254.011 187.386 255.74 189.74C257.469 192.094 260.591 190.541 260.591 190.541L261.827 186.852Z" fill="#FFA97A"/>
<path d="M312.325 156.558C322.326 156.558 330.431 160.877 330.431 166.211C330.431 167.809 318.267 204.422 318.267 204.422L323.656 173.731C320.381 175.48 317.309 175.864 312.309 175.864C302.309 175.864 294.203 171.544 294.203 166.211C294.203 160.877 302.325 156.558 312.325 156.558Z" fill="#FEE2BF"/>
<path d="M312.325 140.415C308.179 140.415 304.804 143.441 304.804 147.172C304.804 150.903 312.325 169.157 312.325 169.157C312.325 169.157 319.846 150.903 319.846 147.172C319.846 143.441 316.479 140.415 312.325 140.415ZM312.325 151.095C311.693 151.095 311.076 150.906 310.551 150.553C310.025 150.2 309.616 149.698 309.375 149.11C309.133 148.523 309.07 147.876 309.194 147.253C309.317 146.629 309.622 146.057 310.069 145.608C310.516 145.158 311.085 144.853 311.704 144.729C312.324 144.606 312.966 144.67 313.549 144.914C314.133 145.158 314.631 145.57 314.981 146.099C315.331 146.628 315.518 147.25 315.517 147.886C315.517 148.307 315.434 148.725 315.274 149.115C315.113 149.504 314.878 149.858 314.582 150.156C314.285 150.454 313.933 150.691 313.546 150.852C313.159 151.013 312.744 151.095 312.325 151.095Z" fill="#FC008B"/>
<path d="M686.288 481.049C677.458 481.046 668.828 478.407 661.487 473.467C654.147 468.526 648.427 461.506 645.05 453.293C641.673 445.081 640.792 436.045 642.516 427.328C644.241 418.611 648.495 410.604 654.739 404.321C660.984 398.037 668.94 393.758 677.601 392.025C686.261 390.293 695.238 391.184 703.395 394.586C711.553 397.988 718.525 403.748 723.43 411.139C728.335 418.529 730.954 427.218 730.954 436.106C730.94 448.024 726.23 459.451 717.856 467.877C709.482 476.303 698.129 481.04 686.288 481.049ZM686.288 396.78C678.561 396.78 671.008 399.087 664.583 403.408C658.159 407.729 653.151 413.871 650.194 421.057C647.237 428.243 646.463 436.15 647.971 443.778C649.478 451.406 653.199 458.414 658.663 463.913C664.127 469.413 671.088 473.159 678.667 474.676C686.245 476.193 694.1 475.415 701.239 472.438C708.378 469.462 714.479 464.421 718.772 457.954C723.065 451.487 725.356 443.884 725.356 436.106C725.346 425.68 721.226 415.683 713.902 408.311C706.577 400.938 696.647 396.791 686.288 396.78Z" fill="#2D2861"/>
<path d="M686.289 470.983C679.436 470.983 672.737 468.937 667.04 465.105C661.342 461.273 656.901 455.826 654.278 449.453C651.656 443.08 650.969 436.067 652.306 429.302C653.643 422.536 656.943 416.322 661.789 411.444C666.635 406.567 672.808 403.245 679.53 401.899C686.251 400.554 693.217 401.244 699.548 403.884C705.88 406.524 711.291 410.994 715.098 416.73C718.905 422.465 720.938 429.208 720.938 436.106C720.927 445.353 717.273 454.217 710.777 460.755C704.282 467.294 695.475 470.972 686.289 470.983ZM686.289 402.632C679.712 402.632 673.282 404.595 667.813 408.273C662.345 411.951 658.082 417.179 655.565 423.296C653.048 429.413 652.39 436.143 653.673 442.637C654.956 449.13 658.123 455.095 662.774 459.776C667.425 464.458 673.35 467.646 679.801 468.937C686.252 470.229 692.939 469.566 699.015 467.032C705.092 464.499 710.286 460.208 713.94 454.703C717.594 449.199 719.544 442.727 719.544 436.106C719.535 427.231 716.028 418.722 709.793 412.447C703.559 406.171 695.106 402.641 686.289 402.632Z" fill="#F3FFFF"/>
<path d="M686.287 466.601C678.255 466.592 670.555 463.376 664.875 457.659C659.196 451.942 656.001 444.191 655.992 436.106C655.977 431.258 657.123 426.478 659.334 422.171C659.376 422.089 659.434 422.016 659.504 421.956C659.574 421.896 659.655 421.851 659.742 421.823C659.829 421.794 659.921 421.784 660.013 421.791C660.104 421.799 660.194 421.824 660.275 421.867C660.357 421.909 660.43 421.967 660.489 422.037C660.548 422.108 660.593 422.189 660.622 422.277C660.65 422.365 660.66 422.458 660.653 422.55C660.645 422.642 660.62 422.732 660.578 422.814C658.47 426.923 657.378 431.482 657.394 436.106C657.403 443.818 660.45 451.212 665.867 456.665C671.285 462.118 678.63 465.185 686.292 465.194C690.441 465.207 694.544 464.311 698.315 462.569C698.482 462.504 698.667 462.506 698.832 462.574C698.998 462.642 699.131 462.771 699.205 462.934C699.28 463.098 699.289 463.284 699.231 463.454C699.174 463.625 699.053 463.766 698.896 463.851C694.94 465.674 690.638 466.612 686.287 466.601Z" fill="#F3FFFF"/>
<path d="M707.893 416.441C707.798 416.441 707.703 416.422 707.616 416.384C707.528 416.346 707.449 416.29 707.383 416.22C704.676 413.32 701.408 411.007 697.78 409.424C694.153 407.841 690.242 407.021 686.288 407.014C686.104 407.014 685.926 406.94 685.796 406.808C685.665 406.677 685.592 406.498 685.592 406.312C685.592 406.127 685.665 405.948 685.796 405.817C685.926 405.685 686.104 405.611 686.288 405.611C690.433 405.618 694.533 406.478 698.335 408.137C702.138 409.796 705.564 412.22 708.403 415.26C708.496 415.36 708.558 415.485 708.582 415.62C708.605 415.755 708.589 415.894 708.534 416.02C708.48 416.145 708.39 416.252 708.277 416.327C708.163 416.402 708.029 416.442 707.893 416.441Z" fill="#F3FFFF"/>
<path d="M637.955 438.214C637.404 438.213 636.875 437.993 636.483 437.602C636.091 437.212 635.868 436.682 635.861 436.127C635.863 426.448 638.613 416.971 643.788 408.813C648.963 400.655 656.347 394.157 665.069 390.083C673.792 386.01 683.49 384.531 693.02 385.822C702.55 387.113 711.514 391.119 718.857 397.369C719.066 397.548 719.239 397.766 719.365 398.012C719.49 398.258 719.567 398.526 719.59 398.802C719.612 399.077 719.581 399.354 719.497 399.618C719.413 399.881 719.279 400.125 719.101 400.336C718.924 400.547 718.707 400.721 718.463 400.847C718.218 400.974 717.952 401.051 717.678 401.074C717.404 401.097 717.129 401.065 716.867 400.981C716.606 400.896 716.363 400.761 716.154 400.582C709.42 394.851 701.2 391.177 692.461 389.994C683.721 388.81 674.828 390.166 666.83 393.902C658.831 397.638 652.06 403.598 647.315 411.079C642.57 418.56 640.049 427.251 640.049 436.127C640.042 436.682 639.819 437.212 639.427 437.602C639.035 437.993 638.506 438.213 637.955 438.214Z" fill="#FC008B"/>
<path d="M594.177 415.556C594.177 415.556 592.021 417.672 593.633 420.861C595.246 424.049 596.59 427.029 595.52 428.444C594.45 429.859 579.052 417.23 579.723 416.341C580.395 415.452 589.048 410.231 589.048 410.231L594.177 415.556Z" fill="#FF7446"/>
<path d="M582.111 413.666C582.111 413.666 580.98 414.734 578.886 416.437C577.588 417.522 576.554 418.891 575.863 420.439C575.863 420.439 597.319 436.44 598.687 436.34C600.055 436.24 601.303 433.356 601.229 432.972C601.154 432.588 598.853 429.93 598.003 428.064C597.153 426.199 594.487 419.484 592.734 418.499C590.98 417.514 589.384 418.232 586.129 416.241C582.874 414.25 583.289 413.587 582.111 413.666Z" fill="#2D2861"/>
<path d="M598.671 436.352C597.302 436.452 575.847 420.452 575.847 420.452C576.334 419.357 576.994 418.348 577.8 417.464C587.932 427.421 601.212 432.984 601.212 432.984C601.287 433.368 600.039 436.248 598.671 436.352Z" fill="#F3FFFF"/>
<path d="M577.8 417.464C584.531 424.116 592.483 429.387 601.212 432.984C587.945 426.682 579.151 418.703 579.777 419.212L577.8 417.464Z" fill="#6678A8"/>
<path d="M546.334 481.049C537.504 481.049 528.871 478.413 521.529 473.475C514.186 468.536 508.464 461.517 505.084 453.305C501.705 445.093 500.821 436.056 502.543 427.338C504.266 418.62 508.519 410.612 514.763 404.327C521.007 398.041 528.963 393.761 537.624 392.027C546.285 390.293 555.262 391.183 563.421 394.584C571.579 397.986 578.552 403.746 583.458 411.137C588.364 418.528 590.983 427.217 590.983 436.106C590.97 448.022 586.262 459.445 577.891 467.871C569.521 476.296 558.172 481.036 546.334 481.049ZM546.334 396.78C538.607 396.78 531.054 399.087 524.629 403.408C518.204 407.729 513.197 413.871 510.24 421.057C507.283 428.243 506.509 436.15 508.017 443.778C509.524 451.406 513.245 458.414 518.709 463.913C524.173 469.413 531.134 473.159 538.712 474.676C546.291 476.193 554.146 475.415 561.285 472.438C568.424 469.462 574.525 464.421 578.818 457.954C583.111 451.487 585.402 443.884 585.402 436.106C585.391 425.68 581.272 415.683 573.948 408.311C566.623 400.938 556.692 396.791 546.334 396.78Z" fill="#2D2861"/>
<path d="M546.335 470.983C539.482 470.983 532.783 468.937 527.085 465.105C521.387 461.273 516.946 455.826 514.324 449.453C511.702 443.08 511.015 436.067 512.352 429.302C513.689 422.536 516.989 416.322 521.835 411.444C526.681 406.567 532.854 403.245 539.575 401.899C546.296 400.554 553.263 401.244 559.594 403.884C565.926 406.524 571.337 410.994 575.144 416.73C578.951 422.465 580.983 429.208 580.983 436.106C580.972 445.353 577.318 454.217 570.823 460.755C564.328 467.294 555.521 470.972 546.335 470.983ZM546.335 402.632C539.757 402.631 533.327 404.593 527.858 408.271C522.389 411.949 518.126 417.176 515.608 423.293C513.09 429.41 512.431 436.14 513.714 442.634C514.997 449.128 518.164 455.093 522.814 459.775C527.465 464.457 533.39 467.645 539.841 468.937C546.292 470.229 552.979 469.566 559.056 467.033C565.133 464.499 570.327 460.209 573.981 454.704C577.636 449.199 579.586 442.727 579.586 436.106C579.576 427.232 576.07 418.724 569.836 412.448C563.603 406.173 555.151 402.643 546.335 402.632Z" fill="#F3FFFF"/>
<path d="M546.335 466.601C538.303 466.592 530.603 463.376 524.923 457.659C519.244 451.942 516.049 444.191 516.04 436.106C516.025 431.258 517.171 426.478 519.382 422.171C519.424 422.089 519.481 422.016 519.551 421.956C519.621 421.896 519.702 421.851 519.79 421.823C519.877 421.794 519.969 421.784 520.061 421.791C520.152 421.799 520.241 421.824 520.323 421.867C520.405 421.909 520.477 421.967 520.537 422.037C520.596 422.108 520.641 422.189 520.669 422.277C520.697 422.365 520.708 422.458 520.701 422.55C520.693 422.642 520.668 422.732 520.626 422.814C518.517 426.922 517.423 431.482 517.437 436.106C517.446 443.819 520.494 451.213 525.913 456.666C531.331 462.12 538.677 465.187 546.339 465.194C550.489 465.207 554.592 464.312 558.363 462.569C558.53 462.504 558.715 462.506 558.88 462.574C559.046 462.642 559.179 462.771 559.253 462.934C559.327 463.098 559.337 463.284 559.279 463.454C559.221 463.625 559.101 463.766 558.943 463.851C554.988 465.675 550.686 466.613 546.335 466.601Z" fill="#F3FFFF"/>
<path d="M567.94 416.441C567.845 416.441 567.75 416.422 567.662 416.384C567.575 416.346 567.496 416.29 567.43 416.22C564.723 413.32 561.455 411.007 557.827 409.424C554.2 407.841 550.289 407.021 546.335 407.014C546.15 407.014 545.973 406.94 545.843 406.808C545.712 406.677 545.639 406.498 545.639 406.312C545.639 406.127 545.712 405.948 545.843 405.817C545.973 405.685 546.15 405.611 546.335 405.611C550.479 405.618 554.578 406.477 558.381 408.137C562.183 409.796 565.608 412.22 568.446 415.26C568.572 415.396 568.64 415.577 568.635 415.763C568.629 415.949 568.551 416.125 568.417 416.253C568.287 416.374 568.117 416.441 567.94 416.441Z" fill="#F3FFFF"/>
<path d="M577.55 401.062C577.055 401.063 576.575 400.886 576.199 400.562C568.525 394.03 558.947 390.192 548.913 389.628C538.879 389.064 528.936 391.805 520.588 397.436C520.36 397.59 520.104 397.697 519.834 397.751C519.565 397.806 519.288 397.806 519.018 397.753C518.749 397.699 518.492 397.593 518.264 397.44C518.035 397.286 517.839 397.089 517.686 396.86C517.533 396.63 517.426 396.372 517.372 396.101C517.318 395.83 517.317 395.551 517.371 395.28C517.424 395.009 517.529 394.75 517.682 394.52C517.834 394.29 518.03 394.092 518.258 393.938C527.363 387.798 538.206 384.809 549.149 385.425C560.091 386.04 570.537 390.225 578.906 397.348C579.245 397.622 579.49 397.995 579.607 398.417C579.723 398.838 579.705 399.286 579.556 399.696C579.406 400.107 579.131 400.459 578.772 400.705C578.412 400.95 577.985 401.075 577.55 401.062Z" fill="#FC008B"/>
<path d="M610.255 444.194L546.029 441.41C545.976 441.409 545.925 441.397 545.878 441.375C545.83 441.353 545.788 441.321 545.753 441.282C545.718 441.243 545.692 441.197 545.675 441.148C545.658 441.098 545.651 441.045 545.655 440.993C545.656 440.94 545.668 440.889 545.69 440.841C545.711 440.793 545.743 440.75 545.782 440.715C545.821 440.679 545.866 440.653 545.916 440.636C545.965 440.619 546.018 440.613 546.07 440.617L610.296 443.401C610.4 443.401 610.499 443.442 610.572 443.516C610.645 443.59 610.686 443.689 610.686 443.793C610.686 443.897 610.645 443.997 610.572 444.071C610.499 444.144 610.4 444.186 610.296 444.186L610.255 444.194Z" fill="#352E73"/>
<path d="M582.709 350.06L595.607 352.71C595.607 352.71 630.434 370.526 629.34 381.923C628.245 393.321 595.243 418.795 595.243 418.795L587.78 410.732C587.78 410.732 606.354 388.772 605.575 386.042C604.795 383.313 560.98 365.288 559.554 360.923C558.127 356.558 565.623 348.945 565.623 348.945L582.709 350.06Z" fill="#FFA42F"/>
<path d="M605.475 435.146C605.165 435.146 604.86 435.062 604.592 434.904C604.325 434.746 604.104 434.518 603.953 434.245L567.647 368.894C567.437 368.489 567.393 368.017 567.524 367.58C567.654 367.142 567.949 366.773 568.345 366.55C568.742 366.328 569.209 366.269 569.647 366.387C570.085 366.506 570.461 366.791 570.694 367.183L606.988 432.534C607.1 432.735 607.171 432.956 607.198 433.185C607.225 433.414 607.207 433.646 607.144 433.867C607.082 434.089 606.977 434.296 606.835 434.477C606.693 434.658 606.517 434.809 606.317 434.921C606.06 435.068 605.77 435.146 605.475 435.146Z" fill="#FC008B"/>
<path d="M547.215 432.029C547.112 432.029 547.012 431.987 546.939 431.914C546.866 431.84 546.825 431.74 546.825 431.636C546.825 431.532 546.866 431.433 546.939 431.359C547.012 431.285 547.112 431.244 547.215 431.244L608.597 428.381C608.649 428.378 608.701 428.385 608.75 428.402C608.799 428.419 608.844 428.446 608.883 428.481C608.922 428.516 608.953 428.559 608.975 428.606C608.997 428.653 609.01 428.705 609.012 428.757C609.012 428.861 608.974 428.961 608.905 429.038C608.836 429.115 608.741 429.164 608.639 429.174L547.277 432.037L547.215 432.029Z" fill="#352E73"/>
<g style="mix-blend-mode:multiply" opacity="0.57">
<path d="M610.239 361.273C602.615 356.29 595.608 352.71 595.608 352.71L582.709 350.06L580.019 349.884L611.993 378.075L615.098 401.559C617.864 398.863 620.53 396.084 622.793 393.396C622.271 381.69 618.365 371.073 610.239 361.273Z" fill="#FFA42F"/>
</g>
<path d="M607.107 438.815H546.293C545.587 438.815 544.91 438.532 544.41 438.03C543.911 437.527 543.631 436.846 543.631 436.135C543.631 435.425 543.911 434.743 544.41 434.241C544.91 433.738 545.587 433.456 546.293 433.456H604.623L650.91 377.195C651.131 376.924 651.404 376.701 651.712 376.537C652.02 376.373 652.357 376.273 652.704 376.241C653.051 376.209 653.401 376.247 653.734 376.352C654.066 376.457 654.374 376.627 654.641 376.853C655.177 377.308 655.513 377.957 655.578 378.66C655.642 379.363 655.429 380.063 654.985 380.609L607.107 438.815Z" fill="#FC008B"/>
<path d="M545.65 436.619C545.4 436.621 545.154 436.556 544.937 436.432C544.776 436.345 544.635 436.226 544.522 436.083C544.408 435.939 544.325 435.774 544.276 435.598C544.228 435.421 544.215 435.236 544.24 435.055C544.264 434.873 544.325 434.698 544.419 434.541L575.966 381.84C576.164 381.52 576.477 381.289 576.84 381.196C577.203 381.103 577.588 381.154 577.914 381.339C578.074 381.426 578.215 381.545 578.328 381.688C578.441 381.832 578.525 381.997 578.573 382.173C578.622 382.35 578.634 382.534 578.61 382.716C578.586 382.897 578.525 383.072 578.433 383.229L546.869 435.922C546.741 436.133 546.562 436.308 546.349 436.43C546.136 436.552 545.895 436.617 545.65 436.619Z" fill="#FC008B"/>
<path d="M599.77 436.106C599.77 437.707 600.241 439.271 601.125 440.602C602.008 441.933 603.264 442.97 604.733 443.583C606.202 444.195 607.819 444.355 609.379 444.042C610.938 443.73 612.371 442.959 613.495 441.827C614.619 440.694 615.384 439.252 615.694 437.682C616.004 436.112 615.844 434.485 615.235 433.006C614.626 431.528 613.595 430.264 612.272 429.376C610.949 428.487 609.395 428.013 607.805 428.014C606.749 428.014 605.704 428.223 604.729 428.63C603.754 429.037 602.868 429.633 602.121 430.384C601.375 431.136 600.783 432.028 600.38 433.01C599.976 433.991 599.769 435.044 599.77 436.106Z" fill="#ADEFF7"/>
<path d="M622.709 460.85C622.595 460.851 622.483 460.822 622.383 460.766C622.284 460.711 622.2 460.63 622.141 460.533L608.459 438.285C608.381 438.134 608.363 437.96 608.408 437.797C608.453 437.633 608.557 437.493 608.7 437.404C608.843 437.315 609.014 437.283 609.179 437.316C609.345 437.348 609.492 437.442 609.591 437.579L623.273 459.827C623.334 459.929 623.368 460.046 623.37 460.165C623.373 460.284 623.344 460.402 623.286 460.506C623.228 460.61 623.144 460.697 623.041 460.757C622.939 460.818 622.823 460.85 622.705 460.85H622.709Z" fill="black"/>
<path d="M560.82 365.226H573.818C574.282 365.226 574.727 365.411 575.055 365.742C575.383 366.072 575.568 366.52 575.568 366.987V369.074C575.568 369.541 575.383 369.989 575.055 370.319C574.727 370.649 574.282 370.835 573.818 370.835H557.387C557.093 370.836 556.803 370.762 556.544 370.621C556.285 370.479 556.066 370.273 555.908 370.023C555.749 369.773 555.656 369.487 555.637 369.191C555.618 368.895 555.674 368.599 555.799 368.331C556.266 367.394 556.983 366.607 557.87 366.058C558.757 365.509 559.779 365.221 560.82 365.226Z" fill="#352E73"/>
<path d="M615.905 443.418C615.905 443.418 615.42 446.723 618.949 448.426C622.477 450.129 625.636 451.852 625.636 453.81C625.636 455.767 603.745 455.036 603.745 453.81C603.745 452.583 607.891 442.178 607.891 442.178L615.905 443.418Z" fill="#FF7446"/>
<path d="M604.056 449.887C604.056 449.887 603.774 451.589 603.066 454.477C602.647 456.302 602.647 458.199 603.066 460.024C603.066 460.024 632.502 459.648 633.647 458.638C634.791 457.628 633.962 454.26 633.647 453.976C633.332 453.693 629.538 452.904 627.556 451.831C625.574 450.759 618.779 446.665 616.586 446.982C614.392 447.299 613.472 448.998 609.293 449.44C605.114 449.882 605.047 449.006 604.056 449.887Z" fill="#2D2861"/>
<path d="M633.647 458.646C632.511 459.656 603.065 460.032 603.065 460.032C602.769 458.743 602.679 457.414 602.8 456.096C618.298 458.025 633.647 453.985 633.647 453.985C633.962 454.269 634.766 457.636 633.647 458.646Z" fill="#F3FFFF"/>
<path d="M602.8 456.096C613.393 457.566 624.973 456.418 633.646 453.985C617.809 457.382 604.806 456.28 605.702 456.318L602.8 456.096Z" fill="#6678A8"/>
<path d="M590.569 347.727C590.569 347.727 615.815 371.098 619.592 389.143C623.369 407.189 616.71 445.45 616.71 445.45C616.71 445.45 608.833 446.093 601.403 445.196C601.403 445.196 605.802 396.305 603.132 392.724C600.462 389.143 559.428 366.645 557.426 359.926C555.423 353.206 560.565 345.824 560.565 345.824L590.569 347.727Z" fill="#FCC13F"/>
<g style="mix-blend-mode:multiply" opacity="0.46">
<path d="M593.173 350.231C591.56 348.62 590.569 347.727 590.569 347.727L560.552 345.807C560.552 345.807 556.962 350.969 556.949 356.587C567.6 356.629 587.58 355.919 593.173 350.231Z" fill="#FFA42F"/>
</g>
<path d="M614.609 339.768C614.609 339.768 620.89 339.831 624.223 339.159C627.557 338.487 632.785 335.073 634.344 337.761C635.903 340.448 633.515 341.734 631.856 342.852C630.198 343.971 615.45 345.144 615.45 345.144L612.511 343.362L614.609 339.768Z" fill="#FF8A63"/>
<path d="M605.433 301.089C605.433 301.089 607.92 308.184 607.92 318.154C607.92 328.125 600.582 336.934 607.808 337.848C615.035 338.762 619.264 338.082 619.264 338.082C619.264 338.082 618.485 342.335 616.15 344.684C613.816 347.034 609.255 346.813 609.255 346.813C609.255 346.813 594.131 342.894 591.797 339.647C589.462 336.4 605.433 301.089 605.433 301.089Z" fill="#2BA14C"/>
<path d="M686.288 437.871C685.975 437.873 685.667 437.789 685.398 437.629C685.129 437.469 684.908 437.238 684.758 436.962L637.792 350.911C637.342 350.086 637.107 349.16 637.107 348.219V342.639C637.106 342.272 637.007 341.911 636.822 341.594C636.637 341.276 636.372 341.014 636.054 340.833C635.736 340.652 635.376 340.559 635.01 340.563C634.645 340.568 634.287 340.669 633.973 340.857L625.797 345.795C625.601 345.927 625.379 346.017 625.147 346.061C624.915 346.104 624.676 346.1 624.446 346.048C624.215 345.996 623.997 345.897 623.806 345.758C623.614 345.619 623.453 345.442 623.331 345.238C623.21 345.034 623.13 344.808 623.098 344.572C623.066 344.336 623.082 344.097 623.145 343.867C623.207 343.638 623.316 343.424 623.463 343.238C623.61 343.052 623.794 342.898 624.002 342.786L632.178 337.844C633.021 337.334 633.983 337.059 634.967 337.046C635.95 337.034 636.919 337.284 637.775 337.771C638.631 338.259 639.343 338.967 639.838 339.822C640.334 340.677 640.594 341.65 640.594 342.639V348.219C640.594 348.569 640.681 348.914 640.847 349.221L687.834 435.259C687.945 435.461 688.014 435.683 688.039 435.912C688.064 436.142 688.044 436.374 687.979 436.595C687.915 436.816 687.808 437.023 687.664 437.203C687.52 437.382 687.343 437.531 687.142 437.642C686.883 437.794 686.588 437.873 686.288 437.871Z" fill="#FC008B"/>
<path d="M687.52 436.106C687.52 436.354 687.447 436.596 687.31 436.802C687.174 437.008 686.979 437.168 686.752 437.263C686.525 437.358 686.275 437.382 686.033 437.334C685.792 437.286 685.57 437.167 685.397 436.991C685.223 436.816 685.104 436.593 685.056 436.35C685.008 436.107 685.033 435.856 685.127 435.627C685.221 435.398 685.38 435.203 685.585 435.065C685.79 434.928 686.03 434.854 686.276 434.854C686.606 434.854 686.922 434.986 687.156 435.221C687.389 435.456 687.52 435.774 687.52 436.106Z" fill="#D6D4E6"/>
<path d="M591.776 292.947C591.776 292.947 603.36 293.081 605.043 299.128C606.726 305.175 607.68 317.107 605.043 322.411C591.361 349.884 596.859 349.004 593.189 350.235C589.52 351.466 557.463 350.619 555.241 350.06C553.018 349.5 559.437 315.037 576.568 299.758C585.818 291.491 591.776 292.947 591.776 292.947Z" fill="#8CD334"/>
<path d="M590.983 308.464L588.86 302.175L583.541 294.834C583.259 294.976 582.973 295.13 582.682 295.293C580.195 299.75 569.622 319.344 570.829 330.257C572.193 342.627 590.576 347.535 590.576 347.535L590.983 308.464Z" fill="#8CD334"/>
<path d="M607.801 284.237L605.442 303.477L590.578 294.867L598.576 280.807L607.801 284.237Z" fill="#FFA97A"/>
<g style="mix-blend-mode:multiply" opacity="0.68">
<path d="M596.771 284.066L598.578 280.803L607.803 284.237L606.501 294.829C605.394 294.535 604.341 294.066 603.379 293.44C600.908 291.733 598.425 288.048 596.771 284.066Z" fill="#FF682B"/>
</g>
<path d="M612.672 294.374L612.166 293.773C613.107 292.968 612.995 289.383 612.672 287.317L613.443 287.2C613.53 287.793 614.247 293.022 612.672 294.374Z" fill="#232A55"/>
<path d="M606.988 260.453C606.988 260.453 607.448 260.266 610.085 263.905C611.963 266.501 613.095 269.597 614.268 272.56C616.014 276.967 617.469 281.767 616.155 286.487C615.462 288.966 605.57 289.642 601.585 287.505C597.601 285.368 593.903 278.516 594.123 273.633C594.342 268.75 605.213 259.502 606.988 260.453Z" fill="#FFA97A"/>
<path d="M600.474 284.212C599.865 285.519 598.845 285.882 595.747 285.936C591.767 286.011 587.816 282.973 586.813 277.427C586.46 275.482 585.055 272.21 585.154 270.591C585.942 258.045 600.184 256.126 603.812 254.69C604.423 254.423 605.102 254.353 605.755 254.489C606.408 254.625 607.004 254.96 607.46 255.45C608.162 256.142 609.014 256.662 609.95 256.966C610.885 257.271 611.878 257.354 612.85 257.207C613.721 257.065 616.018 257.01 616.639 258.342C618.426 262.152 618.472 266.113 611.743 266.113C596.506 266.113 601.652 281.696 600.474 284.212Z" fill="#2D2861"/>
<path d="M610.421 257.102C609.311 256.813 608.295 256.238 607.473 255.433C607.016 254.944 606.421 254.608 605.768 254.472C605.115 254.336 604.436 254.406 603.824 254.673C600.184 256.109 585.942 258.012 585.167 270.574C585.068 272.193 586.473 275.465 586.826 277.41C586.937 278.031 587.092 278.643 587.29 279.242C587.327 277.535 588.272 274.856 592.365 271.467C599.695 265.399 609.699 263.458 610.421 257.102Z" fill="#2D2861"/>
<path d="M602.286 275.728C602.286 275.728 601.987 271.434 599.74 272.168C597.493 272.903 596.635 277.506 598.691 278.478C600.747 279.451 602.286 275.728 602.286 275.728Z" fill="#FFA97A"/>
<path d="M615.366 462.615C615.027 462.619 614.699 462.492 614.449 462.26C614.199 462.029 614.046 461.711 614.021 461.37C613.996 461.029 614.101 460.691 614.315 460.426C614.529 460.16 614.835 459.987 615.171 459.94L629.852 457.757C630.027 457.728 630.206 457.734 630.379 457.776C630.551 457.817 630.714 457.892 630.857 457.997C631.001 458.103 631.122 458.235 631.213 458.388C631.305 458.541 631.366 458.71 631.391 458.887C631.417 459.064 631.408 459.244 631.364 459.416C631.32 459.589 631.242 459.752 631.135 459.894C631.028 460.036 630.894 460.156 630.741 460.245C630.588 460.335 630.418 460.393 630.242 460.416L615.565 462.599C615.5 462.61 615.433 462.616 615.366 462.615Z" fill="#261D62"/>
<path d="M611.697 339.893C611.697 339.893 620.263 340.728 622.763 339.893C625.263 339.059 630.798 336.843 632.883 338.942C634.969 341.041 632.352 343.503 631.938 343.925C631.523 344.346 627.821 345.828 626.987 345.828C626.154 345.828 625.329 343.925 624.5 343.925C623.671 343.925 615.656 347.451 612.821 348.065C609.985 348.678 611.697 339.893 611.697 339.893Z" fill="#FFA97A"/>
<path d="M593.794 293.753C593.794 293.753 598.575 297.559 597.687 307.299C596.8 317.04 592.683 331.309 595.241 335.115C597.799 338.921 616.146 339.288 616.146 339.288C616.146 339.288 613.658 342.765 614.881 348.586C614.881 348.586 585.676 353.64 580.448 338.641C575.22 323.642 581.651 298.94 582.675 296.294C584.287 292.138 591.738 291.683 593.794 293.753Z" fill="#2BA14C"/>
<path d="M626.383 343.845C626.511 344.204 626.529 344.593 626.436 344.962C626.342 345.331 626.141 345.663 625.858 345.916C625.576 346.169 625.224 346.331 624.849 346.381C624.474 346.432 624.092 346.367 623.754 346.197C623.415 346.027 623.135 345.759 622.949 345.427C622.763 345.095 622.681 344.715 622.711 344.335C622.742 343.956 622.885 343.594 623.122 343.297C623.359 343 623.679 342.781 624.04 342.669C624.506 342.513 625.014 342.549 625.453 342.769C625.892 342.99 626.227 343.377 626.383 343.845Z" fill="#CA4B2F"/>
<path d="M545.652 335.086C545.444 335.085 545.246 335.001 545.1 334.853C544.954 334.705 544.872 334.505 544.872 334.297V276.483C544.872 276.275 544.954 276.076 545.1 275.929C545.247 275.781 545.445 275.699 545.652 275.699C545.858 275.699 546.057 275.781 546.203 275.929C546.349 276.076 546.431 276.275 546.431 276.483V334.297C546.431 334.505 546.349 334.705 546.203 334.853C546.057 335.001 545.859 335.085 545.652 335.086Z" fill="white"/>
<path d="M545.652 437.788C545.342 437.788 545.044 437.664 544.825 437.443C544.606 437.222 544.482 436.923 544.482 436.611V334.297C544.482 333.985 544.606 333.685 544.825 333.465C545.044 333.244 545.342 333.12 545.652 333.12C545.962 333.12 546.259 333.244 546.478 333.465C546.698 333.685 546.821 333.985 546.821 334.297V436.619C546.819 436.93 546.695 437.227 546.475 437.446C546.256 437.665 545.96 437.788 545.652 437.788Z" fill="#2D2861"/>
<path d="M547.421 436.72C547.472 437.087 547.409 437.462 547.243 437.793C547.076 438.125 546.813 438.397 546.489 438.574C546.164 438.751 545.794 438.823 545.427 438.783C545.06 438.742 544.715 438.589 544.437 438.345C544.158 438.102 543.961 437.778 543.87 437.418C543.779 437.058 543.8 436.679 543.929 436.331C544.059 435.983 544.29 435.683 544.593 435.472C544.897 435.26 545.257 435.146 545.626 435.146C546.07 435.117 546.509 435.267 546.845 435.561C547.181 435.856 547.388 436.272 547.421 436.72Z" fill="#D6D4E6"/>
<path d="M546.455 299.14C529.813 286.282 513.167 311.661 496.525 300.251C496.442 300.196 496.376 300.119 496.336 300.028C496.297 299.936 496.284 299.835 496.301 299.737C496.318 299.639 496.363 299.548 496.431 299.475C496.498 299.403 496.586 299.352 496.682 299.328C499.97 298.544 503.258 296.361 506.545 293.352C506.6 293.304 506.644 293.245 506.674 293.179C506.704 293.113 506.719 293.041 506.719 292.968C506.719 292.895 506.704 292.823 506.674 292.757C506.644 292.691 506.6 292.632 506.545 292.584C503.324 289.805 500.103 286.191 496.877 281.199C496.814 281.102 496.786 280.986 496.798 280.87C496.809 280.755 496.859 280.646 496.939 280.563C497.02 280.48 497.126 280.426 497.24 280.411C497.355 280.397 497.471 280.421 497.569 280.481C513.872 290.435 530.17 266.634 546.468 279.48L546.455 299.14Z" fill="#FC008B"/>
<g style="mix-blend-mode:screen" opacity="0.25">
<path d="M540.27 295.977V276.216C535.634 274.881 530.995 275.799 526.355 277.322V297.3C530.995 295.698 535.634 294.725 540.27 295.977Z" fill="#FFD357"/>
</g>
<path d="M595.175 264.956C597.882 271.346 604.897 287.021 609.151 291.996C609.806 292.83 611.481 294.525 612.165 293.778L612.671 294.374C608.6 298.03 595.399 270.928 592.965 265.971L595.175 264.956Z" fill="#8CD334"/>
<path d="M577.476 269.363C577.277 263.35 580.793 256.689 587.202 253.008C595.863 248.038 606.759 250.608 610.673 257.515L585.938 274.276C581.696 277.197 577.579 272.414 577.476 269.363Z" fill="#FFA42F"/>
<path d="M579.089 275.286C578.917 275.034 579.241 275.551 579.089 275.286V275.286Z" fill="#BF2604"/>
<path d="M605.354 261.121L610.674 257.515C606.76 250.608 595.864 248.038 587.203 253.008C585.751 253.839 584.408 254.85 583.206 256.017C591.602 251.994 601.598 254.606 605.354 261.121Z" fill="#FCC13F"/>
<path d="M541.145 436.106C541.145 437.139 541.449 438.15 542.019 439.009C542.59 439.868 543.4 440.538 544.349 440.933C545.297 441.329 546.341 441.432 547.348 441.231C548.355 441.029 549.28 440.531 550.006 439.801C550.732 439.07 551.226 438.139 551.427 437.125C551.627 436.112 551.524 435.061 551.131 434.106C550.738 433.152 550.073 432.336 549.219 431.762C548.366 431.187 547.362 430.881 546.335 430.881C544.959 430.881 543.638 431.431 542.665 432.411C541.691 433.391 541.145 434.72 541.145 436.106Z" fill="#ADEFF7"/>
<path d="M681.102 436.106C681.102 437.14 681.406 438.15 681.977 439.009C682.547 439.869 683.358 440.538 684.307 440.934C685.256 441.329 686.3 441.432 687.307 441.23C688.314 441.028 689.239 440.53 689.964 439.799C690.69 439.068 691.184 438.137 691.384 437.123C691.584 436.109 691.48 435.058 691.087 434.104C690.693 433.149 690.027 432.333 689.173 431.76C688.319 431.186 687.315 430.88 686.288 430.881C685.607 430.881 684.932 431.016 684.302 431.279C683.673 431.541 683.101 431.926 682.619 432.412C682.138 432.897 681.756 433.473 681.495 434.107C681.235 434.741 681.101 435.42 681.102 436.106Z" fill="#ADEFF7"/>
<defs>
<linearGradient id="paint0_linear_48_3522" x1="427.057" y1="11.1285" x2="430.909" y2="244.623" gradientUnits="userSpaceOnUse">
<stop stop-color="#8BF9FD"/>
<stop offset="0.99" stop-color="#FAFEE5"/>
</linearGradient>
<linearGradient id="paint1_linear_48_3522" x1="-3.72971" y1="205.244" x2="-4.42705" y2="258.312" gradientUnits="userSpaceOnUse">
<stop stop-color="#A3BDD1"/>
<stop offset="1" stop-color="#689ADD"/>
</linearGradient>
<linearGradient id="paint2_linear_48_3522" x1="193.857" y1="234.775" x2="193.164" y2="287.847" gradientUnits="userSpaceOnUse">
<stop stop-color="#A3BDD1"/>
<stop offset="1" stop-color="#689ADD"/>
</linearGradient>
</defs>
</svg>
