<svg width="206" height="28" fill="none" xmlns="http://www.w3.org/2000/svg"><path d="M9.058 26.95H0V1.593h9.058c2.777 0 5.18.519 7.21 1.557 2.028 1.015 3.598 2.476 4.71 4.383 1.11 1.884 1.666 4.13 1.666 6.738 0 2.608-.556 4.866-1.667 6.773-1.11 1.884-2.68 3.345-4.71 4.383-2.028 1.014-4.432 1.521-7.21 1.521zM8.84 7.063h-2.5V21.48h2.5c1.305 0 2.524-.217 3.66-.652a5.948 5.948 0 002.753-2.246c.7-1.062 1.05-2.5 1.05-4.31 0-1.812-.35-3.236-1.05-4.275-.7-1.062-1.618-1.81-2.754-2.245-1.135-.46-2.354-.689-3.659-.689zM26.571 1.594h16.847v5.035H32.477v4.527h10.217v4.963H32.477v5.796h10.941v5.035H26.571V1.593zM60.973 17.785v-4.709H73.8c.12 2.005-.085 3.9-.616 5.687-.532 1.763-1.353 3.32-2.464 4.673-1.11 1.352-2.5 2.415-4.166 3.188-1.643.748-3.55 1.122-5.725 1.122-2.68 0-5.072-.567-7.173-1.702-2.077-1.135-3.72-2.705-4.928-4.709-1.183-2.028-1.775-4.383-1.775-7.063 0-2.68.616-5.011 1.848-6.991 1.232-2.005 2.91-3.55 5.036-4.637 2.125-1.086 4.529-1.63 7.21-1.63 2.68 0 4.963.568 6.847 1.703 1.884 1.11 3.418 2.547 4.602 4.31l-5.471 2.826a7.89 7.89 0 00-2.319-2.5c-.942-.676-2.162-1.014-3.66-1.014-1.4 0-2.692.314-3.876.942-1.16.628-2.09 1.533-2.79 2.716-.676 1.184-1.014 2.608-1.014 4.275 0 1.666.326 3.115.978 4.346.676 1.208 1.594 2.15 2.754 2.826 1.159.652 2.475.978 3.949.978 1.86 0 3.333-.435 4.42-1.304a6.849 6.849 0 002.246-3.333h-6.739zM77.728 1.594h6.123v16.59c0 1.28.338 2.318 1.014 3.115.677.797 1.691 1.195 3.044 1.195 1.352 0 2.367-.398 3.043-1.195.7-.797 1.05-1.835 1.05-3.115V1.594h6.124v17.024c0 2.125-.46 3.888-1.377 5.289-.894 1.376-2.113 2.403-3.66 3.079-1.545.676-3.272 1.014-5.18 1.014s-3.635-.338-5.181-1.014a8.42 8.42 0 01-3.66-3.08c-.893-1.4-1.34-3.163-1.34-5.288V1.594zM106.103 18.039c.773 1.376 1.678 2.475 2.717 3.296 1.063.797 2.234 1.195 3.514 1.195.918 0 1.655-.217 2.21-.652.58-.458.87-1.074.87-1.847 0-.628-.169-1.147-.507-1.557-.339-.411-.882-.797-1.631-1.16-.724-.362-1.703-.772-2.934-1.231a24.163 24.163 0 01-2.102-.942 11.667 11.667 0 01-2.246-1.485 7.5 7.5 0 01-1.739-2.21c-.459-.893-.688-1.956-.688-3.187 0-1.522.386-2.814 1.159-3.876.797-1.087 1.86-1.92 3.188-2.5 1.353-.579 2.85-.869 4.493-.869 1.715 0 3.188.278 4.42.833 1.232.556 2.258 1.256 3.079 2.101.822.845 1.45 1.703 1.884 2.572l-4.673 2.608c-.556-.918-1.22-1.642-1.993-2.173-.773-.556-1.655-.833-2.645-.833-.869 0-1.534.193-1.992.58-.435.361-.653.82-.653 1.376 0 .869.483 1.581 1.45 2.137.99.531 2.367 1.11 4.13 1.738a12.36 12.36 0 013.224 1.667 7.603 7.603 0 012.355 2.535c.604.99.906 2.186.906 3.586 0 1.715-.447 3.176-1.34 4.383-.894 1.184-2.066 2.089-3.515 2.717a11.488 11.488 0 01-4.529.905c-1.642 0-3.176-.29-4.601-.869a12.788 12.788 0 01-3.695-2.39c-1.039-1.015-1.836-2.138-2.392-3.37l4.276-3.078zM123.421 7.1V1.594h20.071V7.1h-6.956v19.85h-6.159V7.1h-6.956zM159.685 26.95l-2.391-4.89h-8.043l-2.355 4.89h-6.957L153.308 0l13.333 26.95h-6.956zm-6.377-16.01l-2.826 6.447h5.616l-2.79-6.448z" fill="#000"/><path d="M174.299 1.594l8.876 10.142V1.594h6.34v10.07l8.514-10.07h7.428l-10.543 11.88L206 26.95h-7.427l-9.058-11.41v11.41h-6.34V15.503l-9.384 11.447h-7.21l11.051-13.475-10.507-11.881h7.174z" fill="#000"/></svg>