<svg xmlns="http://www.w3.org/2000/svg" viewBox="0 0 512 512" fill="#ea5351"><circle cx="87.43" cy="406.69" r="10"/><circle cx="470.4" cy="287.44" r="10"/><path d="M354.647 212.344h-15.355c-4.854 0-8.802-3.948-8.802-8.802v-8.931c.001-4.854 3.949-8.802 8.802-8.802h17.012c3.939 0 7.145 3.204 7.145 7.144 0 5.522 4.478 10 10 10s10-4.478 10-10c0-14.743-11.818-26.771-26.479-27.127v-8.584c0-5.522-4.478-10-10-10s-10 4.478-10 10v8.669c-14.798 1.188-26.479 13.602-26.479 28.7v8.931c0 15.881 12.921 28.802 28.802 28.802h15.355c4.854 0 8.802 3.948 8.802 8.801v8.932c0 4.853-3.948 8.801-8.802 8.801h-17.012c-3.939 0-7.145-3.204-7.145-7.144 0-5.522-4.478-10-10-10s-10 4.478-10 10c0 14.744 11.819 26.771 26.479 27.127v8.584c0 5.522 4.478 10 10 10s10-4.478 10-10v-8.669c14.798-1.188 26.479-13.601 26.479-28.699v-8.932c0-15.881-12.921-28.801-28.802-28.801z"/><path d="M499.899 339.009c-4.115-9.319-11.613-16.479-21.112-20.159-9.499-3.68-19.864-3.442-29.183.675-.05.021-.1.044-.148.066l-62.989 29.048c-5.016 2.313-7.206 8.254-4.894 13.269 2.313 5.016 8.255 7.205 13.269 4.894l62.908-29.011a18.04 18.04 0 0 1 13.813-.291 18.02 18.02 0 0 1 10.04 9.588 18.016 18.016 0 0 1 .321 13.879 18.018 18.018 0 0 1-9.588 10.041l-128.9 56.914c-20.326 8.975-43.397 8.453-63.301-1.435l-47.185-23.441c-25.238-12.539-54.498-13.204-80.277-1.819l-.6.264-34.973-79.21 48.628-21.47c23.239-10.261 49.169-11.087 73.012-2.332l94.885 34.845c8.475 3.112 12.992 12.594 10.069 21.135-2.978 8.704-12.491 13.387-21.205 10.44l-73.375-24.818c-5.233-1.77-10.907 1.037-12.677 6.269-1.77 5.232 1.037 10.907 6.269 12.677l73.375 24.818a36.506 36.506 0 0 0 11.721 1.936c15.283 0 29.606-9.62 34.816-24.848 6.413-18.746-3.501-39.553-22.099-46.382l-94.885-34.845a118.505 118.505 0 0 0-19.454-5.321v-55.277c0-54.504 44.343-98.847 98.847-98.847h36.524c54.505 0 98.848 44.343 98.848 98.847v26.061c0 5.522 4.478 10 10 10s10-4.478 10-10v-26.061c0-57.721-41.365-105.956-96.008-116.636V72.349l25.267-43.222a10.004 10.004 0 0 0-4.497-14.151L374.171.896a10.001 10.001 0 0 0-7.523-.305l-22.995 8.276L323.257.714a10.016 10.016 0 0 0-7.312-.044l-32.428 12.511a10.001 10.001 0 0 0-5.146 14.18l24.881 44.867v30.038c-55.169 10.258-97.072 58.744-97.072 116.84v53.36c-16.52-.156-33.022 3.199-48.53 10.046l-48.99 21.63a24.59 24.59 0 0 0-11.615-9.307c-6.172-2.392-12.907-2.236-18.938.427l-63.29 27.733a10 10 0 0 0-5.986 9.159V502a10.003 10.003 0 0 0 10 10 9.993 9.993 0 0 0 4.509-1.074l122.873-62.071c5.926-2.698 10.477-7.518 12.833-13.6 1.925-4.969 2.199-10.302.839-15.352l.865-.382c20.327-8.977 43.401-8.454 63.301 1.435l47.185 23.442c25.239 12.536 54.498 13.199 80.277 1.818l128.9-56.914c9.319-4.114 16.479-11.612 20.159-21.111 3.68-9.499 3.441-19.863-.673-29.182zm-135.508-238.75h-41.139V79.641h41.139v20.618zm-62.96-72.555l18.049-6.961 20.275 8.105a9.993 9.993 0 0 0 7.099.123l22.744-8.187 17.201 7.815-18.146 31.04h-49.512l-17.71-31.935zM137.868 430.678c-.158.07-.315.145-.47.223L28.831 485.745v-40.524l28.113-13.805c4.958-2.435 7.003-8.427 4.569-13.384-2.435-4.958-8.425-7.005-13.384-4.569l-19.299 9.476V338.69l57.329-25.122a4.773 4.773 0 0 1 3.661-.084 4.766 4.766 0 0 1 2.647 2.528l2.292 5.19.002.006.003.006 45.546 103.154a4.788 4.788 0 0 1-2.442 6.31z"/></svg>