<svg xmlns="http://www.w3.org/2000/svg" viewBox="0 0 512 512" fill="#ea5351"><path d="M473.492 189.736h-.001l-22.417-2.651a206.802 206.802 0 0 0-8.412-20.293l13.979-17.731c13.686-17.358 13.649-40.806-.084-54.541l-39.083-39.083c-13.734-13.734-37.182-13.771-54.543-.083l-17.73 13.981a206.348 206.348 0 0 0-20.294-8.412l-2.651-22.417C319.659 16.554 303.054 0 283.63 0h-55.271c-19.424 0-36.03 16.555-38.626 38.51l-2.65 22.417a206.778 206.778 0 0 0-20.284 8.408l-17.73-13.981c-17.359-13.687-40.807-13.653-54.543.083L55.444 94.519c-13.734 13.735-13.771 37.183-.084 54.541l13.979 17.73a206.48 206.48 0 0 0-8.413 20.293l-22.418 2.651C16.555 192.33 0 208.935 0 228.359v55.271c0 19.423 16.554 36.029 38.506 38.624l22.417 2.652a206.382 206.382 0 0 0 8.411 20.294l-13.981 17.731c-13.688 17.359-13.652 40.807.083 54.542l39.082 39.083c13.733 13.733 37.182 13.771 54.541.084l17.73-13.979a206.6 206.6 0 0 0 20.294 8.413l2.65 22.417C192.329 495.445 208.934 512 228.359 512h55.271c19.424 0 36.029-16.554 38.626-38.507l2.651-22.416a206.348 206.348 0 0 0 20.304-8.416l17.73 13.98c17.359 13.684 40.807 13.65 54.541-.085l39.082-39.082c13.734-13.734 13.771-37.182.083-54.542l-13.981-17.731a206.382 206.382 0 0 0 8.411-20.294l22.416-2.652C495.445 319.658 512 303.053 512 283.63v-55.271c0-19.424-16.555-36.029-38.508-38.623zM492 283.63c0 9.291-8.966 17.357-20.854 18.763l-28.704 3.396a10 10 0 0 0-8.354 6.9 186.29 186.29 0 0 1-12.073 29.128 9.998 9.998 0 0 0 1.026 10.792l17.904 22.706c7.413 9.403 8.049 21.448 1.479 28.017l-39.082 39.083c-6.57 6.569-18.614 5.934-28.016-1.479l-22.706-17.903a10 10 0 0 0-10.792-1.026 186.214 186.214 0 0 1-29.136 12.078 10 10 0 0 0-6.9 8.355l-3.396 28.705c-1.407 11.89-9.474 20.856-18.765 20.856H228.36c-9.292 0-17.359-8.967-18.765-20.857l-3.394-28.706a10 10 0 0 0-6.899-8.355 186.225 186.225 0 0 1-29.129-12.076 9.984 9.984 0 0 0-4.598-1.121 9.983 9.983 0 0 0-6.193 2.149l-22.706 17.902c-9.403 7.414-21.448 8.047-28.016 1.479l-39.082-39.083c-6.571-6.57-5.935-18.614 1.479-28.016l17.904-22.707a10 10 0 0 0 1.026-10.792 186.346 186.346 0 0 1-12.073-29.128 10 10 0 0 0-8.354-6.9l-28.705-3.396C28.966 300.987 20 292.921 20 283.63v-55.271c0-9.291 8.967-17.358 20.857-18.764l28.706-3.394a9.998 9.998 0 0 0 8.355-6.899 186.276 186.276 0 0 1 12.075-29.129 9.996 9.996 0 0 0-1.026-10.791l-17.902-22.706c-7.414-9.402-8.049-21.446-1.479-28.016l39.081-39.083c6.569-6.57 18.615-5.935 28.017 1.48l22.706 17.904a9.998 9.998 0 0 0 10.791 1.027 186.233 186.233 0 0 1 29.12-12.071 9.998 9.998 0 0 0 6.899-8.355l3.394-28.705C211.001 28.967 219.067 20 228.359 20h55.271c9.291 0 17.358 8.966 18.764 20.855l3.396 28.705a10 10 0 0 0 6.9 8.355 186.104 186.104 0 0 1 29.128 12.073 9.999 9.999 0 0 0 10.792-1.026l22.706-17.904c9.404-7.412 21.448-8.051 28.017-1.48l39.083 39.082c6.569 6.57 5.933 18.614-1.479 28.016l-17.903 22.707a10 10 0 0 0-1.026 10.792 186.217 186.217 0 0 1 12.075 29.127 9.997 9.997 0 0 0 8.355 6.899l28.706 3.394h-.001c11.89 1.406 20.857 9.473 20.857 18.764v55.271z"/><path d="M255.999 94.28c-89.173 0-161.721 72.548-161.721 161.721 0 35.631 11.362 69.426 32.86 97.729 20.797 27.382 50.325 47.78 83.142 57.435 5.301 1.56 10.856-1.473 12.416-6.771 1.559-5.298-1.472-10.857-6.771-12.416C156.078 374.37 114.279 318.454 114.279 256c0-78.145 63.575-141.721 141.721-141.721S397.721 177.855 397.721 256c0 64.606-43.619 121.026-106.076 137.203-5.346 1.385-8.558 6.842-7.173 12.188 1.167 4.506 5.226 7.495 9.674 7.495.831 0 1.674-.104 2.515-.322C367.94 394.102 417.721 329.72 417.721 256c0-89.173-72.549-161.72-161.722-161.72z"/><path d="M334.324 302.94L266 251.038v-44.663c0-5.523-4.478-10-10-10s-10 4.477-10 10V256a9.995 9.995 0 0 0 3.952 7.962l72.275 54.903a9.954 9.954 0 0 0 6.041 2.038 9.982 9.982 0 0 0 7.97-3.951c3.341-4.398 2.484-10.671-1.914-14.012z"/><circle cx="256" cy="164.02" r="10"/><circle cx="252.36" cy="407.72" r="10"/></svg>