<svg xmlns="http://www.w3.org/2000/svg" width="280" height="280"><defs><clipPath id="a"><path fill="#fff" d="M140 0c77.32 0 140 62.68 140 140s-62.68 140-140 140S0 217.32 0 140 62.68 0 140 0z"/></clipPath><clipPath id="b"><path fill="#fff" d="M140 40c55.228 0 100 44.772 100 100s-44.772 100-100 100S40 195.228 40 140 84.772 40 140 40z"/></clipPath><clipPath id="c"><path fill="#fff" d="M140 80c33.137 0 60 26.863 60 60s-26.863 60-60 60-60-26.863-60-60 26.863-60 60-60z"/></clipPath></defs><path fill="none" stroke="#fff" stroke-miterlimit="50" stroke-width="2" d="M140 0c77.32 0 140 62.68 140 140s-62.68 140-140 140S0 217.32 0 140 62.68 0 140 0z" clip-path="url(&quot;#a&quot;)" opacity=".1"/><path fill="none" stroke="#fff" stroke-miterlimit="50" stroke-width="2" d="M140 40c55.228 0 100 44.772 100 100s-44.772 100-100 100S40 195.228 40 140 84.772 40 140 40z" clip-path="url(&quot;#b&quot;)" opacity=".2"/><path fill="none" stroke="#fff" stroke-miterlimit="50" stroke-width="2" d="M140 80c33.137 0 60 26.863 60 60s-26.863 60-60 60-60-26.863-60-60 26.863-60 60-60z" clip-path="url(&quot;#c&quot;)" opacity=".3"/></svg>