<svg width="38" height="39" viewBox="0 0 38 39" fill="none" xmlns="http://www.w3.org/2000/svg">
<g clip-path="url(#clip0_201_1584)">
<path d="M18.9804 3.52977C24.0517 3.52977 24.6523 3.55201 26.6467 3.64098C28.5003 3.72254 29.5012 4.03394 30.1685 4.29343C31.0507 4.63449 31.6884 5.04968 32.3482 5.70955C33.0155 6.37683 33.4233 7.00704 33.7643 7.88933C34.0238 8.55661 34.3352 9.56494 34.4168 11.4111C34.5058 13.4129 34.528 14.0135 34.528 19.0774C34.528 24.1487 34.5058 24.7493 34.4168 26.7437C34.3352 28.5972 34.0238 29.5982 33.7643 30.2654C33.4233 31.1477 33.0081 31.7854 32.3482 32.4452C31.681 33.1125 31.0507 33.5203 30.1685 33.8613C29.5012 34.1208 28.4928 34.4322 26.6467 34.5138C24.6449 34.6028 24.0443 34.625 18.9804 34.625C13.9091 34.625 13.3085 34.6028 11.3141 34.5138C9.46054 34.4322 8.45962 34.1208 7.79234 33.8613C6.91005 33.5203 6.27243 33.1051 5.61256 32.4452C4.94528 31.7779 4.5375 31.1477 4.19645 30.2654C3.93695 29.5982 3.62555 28.5898 3.544 26.7437C3.45503 24.7418 3.43278 24.1413 3.43278 19.0774C3.43278 14.0061 3.45503 13.4055 3.544 11.4111C3.62555 9.55753 3.93695 8.55661 4.19645 7.88933C4.5375 7.00704 4.9527 6.36941 5.61256 5.70955C6.27984 5.04227 6.91005 4.63449 7.79234 4.29343C8.45962 4.03394 9.46796 3.72254 11.3141 3.64098C13.3085 3.55201 13.9091 3.52977 18.9804 3.52977ZM18.9804 0.111816C13.8275 0.111816 13.1825 0.134059 11.1584 0.22303C9.14173 0.312 7.75527 0.638226 6.55417 1.10532C5.30117 1.59466 4.24093 2.2397 3.18811 3.29993C2.12788 4.35275 1.48284 5.41298 0.993505 6.65857C0.526409 7.86709 0.200184 9.24613 0.111213 11.2628C0.0222427 13.2943 0 13.9393 0 19.0922C0 24.2451 0.0222427 24.8901 0.111213 26.9142C0.200184 28.9309 0.526409 30.3173 0.993505 31.5184C1.48284 32.7714 2.12788 33.8317 3.18811 34.8845C4.24093 35.9373 5.30117 36.5898 6.54675 37.0717C7.75527 37.5388 9.13432 37.865 11.151 37.954C13.1751 38.0429 13.8201 38.0652 18.973 38.0652C24.1259 38.0652 24.7709 38.0429 26.795 37.954C28.8116 37.865 30.1981 37.5388 31.3992 37.0717C32.6448 36.5898 33.705 35.9373 34.7579 34.8845C35.8107 33.8317 36.4631 32.7714 36.945 31.5259C37.4121 30.3173 37.7384 28.9383 37.8273 26.9216C37.9163 24.8975 37.9385 24.2525 37.9385 19.0996C37.9385 13.9467 37.9163 13.3017 37.8273 11.2776C37.7384 9.26096 37.4121 7.8745 36.945 6.6734C36.4779 5.41298 35.8329 4.35275 34.7727 3.29993C33.7199 2.24711 32.6596 1.59466 31.414 1.11274C30.2055 0.64564 28.8265 0.319414 26.8098 0.230444C24.7783 0.134059 24.1333 0.111816 18.9804 0.111816Z" fill="#000100"/>
<path d="M18.9802 9.34253C13.5974 9.34253 9.23047 13.7095 9.23047 19.0922C9.23047 24.4749 13.5974 28.8419 18.9802 28.8419C24.3629 28.8419 28.7299 24.4749 28.7299 19.0922C28.7299 13.7095 24.3629 9.34253 18.9802 9.34253ZM18.9802 25.4165C15.4881 25.4165 12.6558 22.5843 12.6558 19.0922C12.6558 15.6001 15.4881 12.7679 18.9802 12.7679C22.4723 12.7679 25.3045 15.6001 25.3045 19.0922C25.3045 22.5843 22.4723 25.4165 18.9802 25.4165Z" fill="#000100"/>
<path d="M31.3922 8.95708C31.3922 10.2175 30.369 11.2332 29.116 11.2332C27.8556 11.2332 26.8398 10.2101 26.8398 8.95708C26.8398 7.69666 27.863 6.68091 29.116 6.68091C30.369 6.68091 31.3922 7.70407 31.3922 8.95708Z" fill="#000100"/>
</g>
<defs>
<clipPath id="clip0_201_1584">
<rect width="37.9608" height="37.9608" fill="white" transform="translate(0 0.111816)"/>
</clipPath>
</defs>
</svg>
