<svg width="38" height="39" viewBox="0 0 38 39" fill="none" xmlns="http://www.w3.org/2000/svg">
<g clip-path="url(#clip0_201_1591)">
<path d="M19.0068 38.0726C29.4893 38.0726 37.9872 29.5748 37.9872 19.0922C37.9872 8.60963 29.4893 0.111816 19.0068 0.111816C8.52418 0.111816 0.0263672 8.60963 0.0263672 19.0922C0.0263672 29.5748 8.52418 38.0726 19.0068 38.0726Z" fill="url(#paint0_linear_201_1591)"/>
<path fill-rule="evenodd" clip-rule="evenodd" d="M8.61819 18.8919C14.1514 16.4812 17.841 14.8919 19.6871 14.1241C24.9582 11.9316 26.0535 11.5508 26.7674 11.5382C26.9244 11.5355 27.2754 11.5744 27.5028 11.7589C27.6949 11.9147 27.7477 12.1252 27.773 12.2729C27.7983 12.4206 27.8297 12.7572 27.8047 13.0201C27.5191 16.0213 26.2831 23.3046 25.6543 26.666C25.3883 28.0884 24.8644 28.5653 24.3572 28.612C23.255 28.7134 22.418 27.8835 21.3504 27.1837C19.6799 26.0887 18.7362 25.407 17.1146 24.3384C15.2407 23.1035 16.4555 22.4248 17.5235 21.3156C17.8029 21.0253 22.6594 16.608 22.7534 16.2073C22.7651 16.1572 22.776 15.9703 22.6651 15.8717C22.5541 15.7731 22.3903 15.8068 22.2721 15.8336C22.1045 15.8716 19.4359 17.6355 14.266 21.1253C13.5085 21.6455 12.8224 21.8989 12.2077 21.8856C11.53 21.871 10.2264 21.5024 9.25727 21.1874C8.06862 20.801 7.1239 20.5968 7.20617 19.9406C7.24901 19.5988 7.71969 19.2492 8.61819 18.8919Z" fill="white"/>
</g>
<defs>
<linearGradient id="paint0_linear_201_1591" x1="19.0068" y1="0.111816" x2="19.0068" y2="37.7911" gradientUnits="userSpaceOnUse">
<stop stop-color="#2AABEE"/>
<stop offset="1" stop-color="#229ED9"/>
</linearGradient>
<clipPath id="clip0_201_1591">
<rect width="37.9608" height="37.9608" fill="white" transform="translate(0.0263672 0.111816)"/>
</clipPath>
</defs>
</svg>
