<svg width="38" height="39" viewBox="0 0 38 39" fill="none" xmlns="http://www.w3.org/2000/svg">
<g clip-path="url(#clip0_201_1588)">
<path d="M0.0126953 18.333C0.0126953 9.74342 0.0126953 5.44868 2.68113 2.78025C5.34956 0.111816 9.6443 0.111816 18.2339 0.111816H19.7523C28.3419 0.111816 32.6366 0.111816 35.3051 2.78025C37.9735 5.44868 37.9735 9.74342 37.9735 18.333V19.8514C37.9735 28.441 37.9735 32.7357 35.3051 35.4042C32.6366 38.0726 28.3419 38.0726 19.7523 38.0726H18.2339C9.6443 38.0726 5.34956 38.0726 2.68113 35.4042C0.0126953 32.7357 0.0126953 28.441 0.0126953 19.8514V18.333Z" fill="#0077FF"/>
<path d="M20.2113 27.4594C11.5594 27.4594 6.62457 21.528 6.41895 11.6582H10.7528C10.8952 18.9024 14.0901 21.9709 16.6208 22.6036V11.6582H20.7018V17.9059C23.2009 17.637 25.8262 14.79 26.7119 11.6582H30.7928C30.1126 15.5175 27.2656 18.3646 25.241 19.5351C27.2656 20.4841 30.5082 22.9674 31.742 27.4594H27.2498C26.2849 24.4542 23.881 22.1291 20.7018 21.8127V27.4594H20.2113Z" fill="white"/>
</g>
<defs>
<clipPath id="clip0_201_1588">
<rect width="37.9608" height="37.9608" fill="white" transform="translate(0.0126953 0.111816)"/>
</clipPath>
</defs>
</svg>
