<svg width="38" height="39" viewBox="0 0 38 39" fill="none" xmlns="http://www.w3.org/2000/svg">
<path d="M0.0585938 38.0921L2.72692 28.3441C1.08037 25.4907 0.215182 22.2562 0.216764 18.9393C0.221509 8.56971 8.65988 0.131348 19.0279 0.131348C24.0593 0.132929 28.7823 2.09266 32.3348 5.64832C35.8857 9.20398 37.8407 13.9301 37.8391 18.9567C37.8343 29.3279 29.396 37.7663 19.0279 37.7663C15.8803 37.7647 12.7786 36.9755 10.0312 35.476L0.0585938 38.0921ZM10.4931 32.0706C13.144 33.6444 15.6747 34.5871 19.0216 34.5887C27.6387 34.5887 34.6583 27.5754 34.663 18.9536C34.6662 10.3143 27.6798 3.31056 19.0342 3.3074C10.4108 3.3074 3.39598 10.3207 3.39282 18.9409C3.39123 22.4602 4.4225 25.0953 6.15446 27.8522L4.57435 33.6223L10.4931 32.0706ZM28.5039 23.4282C28.3868 23.2321 28.0737 23.115 27.6023 22.8793C27.1325 22.6437 24.8217 21.5064 24.3899 21.3498C23.9597 21.1933 23.6465 21.1142 23.3317 21.5855C23.0185 22.0553 22.117 23.115 21.8433 23.4282C21.5697 23.7414 21.2945 23.7809 20.8247 23.5452C20.355 23.3096 18.8397 22.8145 17.0445 21.2122C15.6478 19.9659 14.7035 18.4269 14.4299 17.9555C14.1563 17.4858 14.4014 17.2311 14.6355 16.997C14.8475 16.7866 15.1053 16.4482 15.341 16.1729C15.5798 15.9009 15.6573 15.7048 15.8155 15.39C15.9721 15.0768 15.8946 14.8016 15.7759 14.5659C15.6573 14.3318 14.7178 12.0178 14.3271 11.0767C13.9443 10.1609 13.5568 10.2843 13.2689 10.27L12.3674 10.2542C12.0542 10.2542 11.5449 10.3713 11.1147 10.8426C10.6845 11.314 9.46971 12.4496 9.46971 14.7636C9.46971 17.0777 11.1542 19.3126 11.3883 19.6258C11.624 19.939 14.702 24.6872 19.417 26.7229C20.5384 27.2069 21.4147 27.4963 22.0964 27.713C23.2226 28.0705 24.2475 28.0199 25.0574 27.8997C25.9605 27.7652 27.838 26.7624 28.2302 25.6647C28.6225 24.5654 28.6225 23.6243 28.5039 23.4282Z" fill="#25D366"/>
</svg>
