<svg xmlns="http://www.w3.org/2000/svg" width="270" height="270"><defs><clipPath id="a"><path fill="#fff" d="M.347 258.318V10.682h252.306v247.636zm228.45-193.06c-4.906-31.11-34.531-52.416-66.169-47.591L56.078 33.914C24.442 38.74 2.772 67.868 7.679 98.976l16.525 104.766c4.906 31.108 34.53 52.415 66.168 47.59l106.55-16.247c31.638-4.824 53.307-33.953 48.401-65.062L228.797 65.257z"/></clipPath></defs><path fill="#222a34" d="M218.196 35.83l46.208 102.445c13.72 30.419.184 66.2-30.234 79.921l-102.445 46.208c-30.419 13.721-66.2.185-79.921-30.234L5.595 131.725c-13.72-30.418-.183-66.2 30.235-79.92l102.445-46.21c30.419-13.72 66.2-.183 79.921 30.236z"/><path fill="#ea5351" d="M218.196 35.83l46.208 102.445c13.72 30.419.184 66.2-30.234 79.921l-102.445 46.208c-30.419 13.721-66.2.185-79.921-30.234L5.595 131.725c-13.72-30.418-.183-66.2 30.235-79.92l102.445-46.21c30.419-13.72 66.2-.183 79.921 30.236z"/><g fill="none"><path d="M228.797 65.257l16.525 104.766c4.906 31.109-16.763 60.238-48.4 65.062l-106.55 16.248c-31.638 4.824-61.263-16.483-66.17-47.59L7.679 98.975C2.77 67.868 24.44 38.74 56.078 33.914l106.55-16.247c31.638-4.825 61.263 16.482 66.17 47.59z"/><path stroke="#fff" stroke-linecap="round" stroke-linejoin="round" stroke-miterlimit="50" stroke-opacity=".7" stroke-width="14" d="M228.797 65.257l16.525 104.766c4.906 31.109-16.763 60.238-48.4 65.062l-106.55 16.248c-31.638 4.824-61.263-16.483-66.17-47.59L7.679 98.975C2.77 67.868 24.44 38.74 56.078 33.914l106.55-16.247c31.638-4.825 61.263 16.482 66.17 47.59z" clip-path="url(&quot;#a&quot;)"/></g></svg>