<svg xmlns="http://www.w3.org/2000/svg" width="49.001" height="49.001"><path fill="#BBBBBC" d="M47.988 13.096h-1.016v-2.539a.505.505 0 0 0-.506-.506h-4.131V5.289c0-.842-.682-1.524-1.523-1.524H8.189c-.842 0-1.524.682-1.524 1.524v4.761H2.536a.507.507 0 0 0-.507.508v2.539H1.015c-.561 0-1.015.455-1.015 1.016v5.332c0 .561.454 1.016 1.015 1.016h1.014V23c0 .281.227.507.507.507h4.129v4.464h-.038c-.842 0-1.523.682-1.523 1.522v5.924c0 .504.248.947.625 1.225a1.522 1.522 0 0 0-.625 1.227v2.379c0 .842.682 1.523 1.523 1.523h.764v2.451c0 .561.689 1.014 1.541 1.014h5.138c.851 0 1.539-.453 1.539-1.014v-2.453h17.778v2.451c0 .561.689 1.014 1.545 1.014h5.137c.854 0 1.541-.453 1.541-1.014v-2.451h.764c.842 0 1.525-.684 1.525-1.523v-2.379c0-.504-.25-.947-.627-1.227.377-.275.627-.721.627-1.225v-5.924c0-.842-.685-1.523-1.525-1.523h-.036v-4.462h4.127a.508.508 0 0 0 .509-.508v-2.539h1.012c.564 0 1.017-.455 1.017-1.016v-5.332c0-.56-.454-1.015-1.015-1.015zM6.665 22.492H3.043V20.46h1.014c.562 0 1.016-.455 1.016-1.015v-5.333c0-.561-.454-1.015-1.016-1.015H3.043v-2.031h3.621l.001 11.426zm2.242 18.006a1.396 1.396 0 1 1-.002-2.792 1.396 1.396 0 0 1 .002 2.792zm3.723 0a1.395 1.395 0 1 1-.001-2.79 1.395 1.395 0 0 1 .001 2.79zm1.629-5.754H7.488v-4.147h6.771v4.147zm18.282 2.072H16.459v-1.845h16.082v1.845zm0-2.91H16.459v-2.312h16.082v2.312zm0-3.379H16.459v-2.311h16.082v2.311zm0-3.376H16.459v-2.31h16.082v2.31zM9.712 17.633V6.813h29.577v10.82H9.712zm26.661 22.865a1.395 1.395 0 1 1-.002-2.792 1.395 1.395 0 0 1 .002 2.792zm3.721 0a1.395 1.395 0 1 1 0-2.791 1.395 1.395 0 1 1 0 2.791zm1.418-5.754h-6.771v-4.147h6.771v4.147zm4.445-21.648h-1.016c-.562 0-1.014.455-1.014 1.016v5.332c0 .561.451 1.016 1.014 1.016h1.016v2.031h-3.624V11.065h3.624v2.031z"/></svg>