<svg width="28" height="29" fill="none" xmlns="http://www.w3.org/2000/svg"><g clip-path="url(#clip0)"><path d="M25.283 26.629l-4.336-4.337a6.852 6.852 0 0 0 4.382-6.383V6.933a6.849 6.849 0 0 0-6.841-6.84H9.512a6.849 6.849 0 0 0-6.841 6.84v8.976a6.852 6.852 0 0 0 4.382 6.383L2.717 26.63a.857.857 0 0 0 1.212 1.212l1.977-1.978h16.188l1.977 1.978a.855.855 0 0 0 1.212 0 .857.857 0 0 0 0-1.212zm-6.955-7.313a2.676 2.676 0 0 1-2.674-2.673c0-1.474 1.2-2.673 2.674-2.673S21 15.169 21 16.643s-1.2 2.673-2.673 2.673zM5.39 9.009V6.933a4.126 4.126 0 0 1 4.121-4.121h8.976a4.126 4.126 0 0 1 4.12 4.12V9.01a4.126 4.126 0 0 1-4.12 4.12H9.512a4.126 4.126 0 0 1-4.12-4.12zM7 16.643c0-1.474 1.199-2.673 2.673-2.673s2.674 1.199 2.674 2.673-1.2 2.673-2.674 2.673A2.676 2.676 0 0 1 7 16.643zm.622 7.506l1.416-1.416c.157.011.315.017.475.017h8.976c.16 0 .318-.006.475-.017l1.416 1.416H7.621z" fill="#8D8D8F"/></g><defs><clipPath id="clip0"><path fill="#fff" transform="translate(0 .092)" d="M0 0h28v28H0z"/></clipPath></defs></svg>