<svg width="12" height="12" viewBox="0 0 12 12" fill="none" xmlns="http://www.w3.org/2000/svg">
<path fill-rule="evenodd" clip-rule="evenodd" d="M1.2002 5.11468C1.20078 3.75783 1.70678 2.45677 2.60691 1.49763C3.50704 0.53849 4.72761 -0.000208862 6.0002 6.0747e-08C8.65053 6.0747e-08 10.8002 2.29042 10.8002 5.11468C10.8002 7.22007 9.81213 8.88848 8.75318 10.016C8.28507 10.5173 7.76045 11.1514 7.19133 11.515C6.95355 11.6646 6.73127 11.7827 6.5378 11.863C6.3554 11.9402 6.16413 12 6.0002 12C5.83626 12 5.645 11.9402 5.4626 11.863C5.23672 11.765 5.01823 11.6487 4.80906 11.515C4.23996 11.1514 3.71534 10.5172 3.24721 10.016C2.18826 8.88848 1.2002 7.22007 1.2002 5.11468ZM6.0002 3.14707C5.51056 3.14707 5.04099 3.35445 4.69477 3.7236C4.34855 4.09274 4.15404 4.59341 4.15404 5.11546C4.15404 5.63751 4.34855 6.13818 4.69477 6.50733C5.04099 6.87647 5.51056 7.08386 6.0002 7.08386C6.48983 7.08386 6.9594 6.87647 7.30562 6.50733C7.65184 6.13818 7.84635 5.63751 7.84635 5.11546C7.84635 4.59341 7.65184 4.09274 7.30562 3.7236C6.9594 3.35445 6.48983 3.14707 6.0002 3.14707Z" fill="#E42C2C"/>
<path fill-rule="evenodd" clip-rule="evenodd" d="M1.2002 5.11468C1.20078 3.75783 1.70678 2.45677 2.60691 1.49763C3.50704 0.53849 4.72761 -0.000208862 6.0002 6.0747e-08C8.65053 6.0747e-08 10.8002 2.29042 10.8002 5.11468C10.8002 7.22007 9.81213 8.88848 8.75318 10.016C8.28507 10.5173 7.76045 11.1514 7.19133 11.515C6.95355 11.6646 6.73127 11.7827 6.5378 11.863C6.3554 11.9402 6.16413 12 6.0002 12C5.83626 12 5.645 11.9402 5.4626 11.863C5.23672 11.765 5.01823 11.6487 4.80906 11.515C4.23996 11.1514 3.71534 10.5172 3.24721 10.016C2.18826 8.88848 1.2002 7.22007 1.2002 5.11468ZM6.0002 3.14707C5.51056 3.14707 5.04099 3.35445 4.69477 3.7236C4.34855 4.09274 4.15404 4.59341 4.15404 5.11546C4.15404 5.63751 4.34855 6.13818 4.69477 6.50733C5.04099 6.87647 5.51056 7.08386 6.0002 7.08386C6.48983 7.08386 6.9594 6.87647 7.30562 6.50733C7.65184 6.13818 7.84635 5.63751 7.84635 5.11546C7.84635 4.59341 7.65184 4.09274 7.30562 3.7236C6.9594 3.35445 6.48983 3.14707 6.0002 3.14707Z" fill="url(#paint0_linear_117_10)" fill-opacity="0.15"/>
<path d="M3.59961 4.99998C3.59961 4.36346 3.85247 3.75301 4.30255 3.30292C4.75264 2.85283 5.36309 2.59998 5.99961 2.59998C6.63613 2.59998 7.24658 2.85283 7.69667 3.30292C8.14675 3.75301 8.39961 4.36346 8.39961 4.99998C8.39961 5.6365 8.14675 6.24694 7.69667 6.69703C7.24658 7.14712 6.63613 7.39998 5.99961 7.39998C5.36309 7.39998 4.75264 7.14712 4.30255 6.69703C3.85247 6.24694 3.59961 5.6365 3.59961 4.99998Z" fill="white"/>
<defs>
<linearGradient id="paint0_linear_117_10" x1="5.8021" y1="12" x2="12.0196" y2="7.15292" gradientUnits="userSpaceOnUse">
<stop stop-color="white" stop-opacity="0"/>
<stop offset="0.43752" stop-color="white"/>
<stop offset="1" stop-color="white" stop-opacity="0"/>
</linearGradient>
</defs>
</svg>
