<?xml version="1.0" encoding="UTF-8"?>
<svg id="Layer_1" data-name="Layer 1" xmlns="http://www.w3.org/2000/svg" viewBox="0 0 960 960">
  <defs>
    <style>
      .cls-1 {
        fill: #0f0d0e;
      }
    </style>
  </defs>
  <path d="m806.95,352.31c0-180.57-146.38-326.95-326.95-326.95S153.05,171.74,153.05,352.31c0,143.32,92.22,265.09,220.56,309.23,7.82-5.64,16.83-12.61,16.83-24.34,0-17.98-.39-64.24-.39-64.24,0,0-14.19,2.42-34.44,2.42-51.03,0-67.17-32.39-74.85-50.51-10-23.61-22.96-34.69-36.73-43.55-8.46-5.45-10.4-11.86-.62-13.7,45.17-8.46,56.72,50.95,86.89,60.42,21.53,6.75,49.22,3.83,62.99-5.03,1.81-18.14,14.97-33.84,25.92-42.1-76.73-7.33-122.22-33.84-145.81-76.44l-2.53-4.77-5.93-13.53-1.75-4.85c-7.39-21.62-10.66-46.39-10.66-74.05,0-49.11,15.39-67.64,36.05-93.82-15.8-55.99,5.67-94.26,5.67-94.26,0,0,33.21-6.85,95.99,37.86,34.02-14.5,124.75-15.71,167.68-3.22,26.33-17.32,74.53-41.89,93.97-35.01,5.27,8.43,16.61,33,6.89,86.97,6.59,11.84,40.91,37.06,41.04,108.36-.55,26.3-3.31,48.5-8.41,67.27l-2.84,9.6s-1.62,4.53-3.39,8.85l-2.07,4.77c-22.76,49.72-69.45,68.28-144.9,76,24.45,15.31,31.46,34.51,31.46,86.47s-.7,58.94-.53,70.89c.14,10.56,8.59,18.16,16.19,23.91,128.89-43.84,221.61-165.89,221.61-309.6Z"/>
  <g>
    <path class="cls-1" d="m268.9,828.41h-57.71c-1.49,0-2.7,1.21-2.7,2.7v28.21c0,1.49,1.21,2.7,2.7,2.7h22.51v35.05s-5.06,1.72-19.03,1.72c-16.49,0-39.52-6.02-39.52-56.67s23.98-57.32,46.5-57.32c19.49,0,27.89,3.43,33.23,5.09,1.68.51,3.23-1.16,3.23-2.65l6.44-27.26c0-.7-.24-1.54-1.03-2.11-2.17-1.55-15.41-8.95-48.85-8.95-38.53,0-78.04,16.39-78.04,95.18s45.24,90.54,83.37,90.54c31.57,0,50.72-13.49,50.72-13.49.79-.44.87-1.54.87-2.04v-88c0-1.49-1.21-2.7-2.7-2.7Z"/>
    <path class="cls-1" d="m566.3,758.36c0-1.5-1.19-2.71-2.68-2.71h-32.49c-1.48,0-2.69,1.21-2.69,2.71,0,0,0,62.8,0,62.8h-50.65v-62.8c0-1.5-1.2-2.71-2.68-2.71h-32.49c-1.48,0-2.68,1.21-2.68,2.71v170.03c0,1.5,1.21,2.72,2.68,2.72h32.49c1.49,0,2.68-1.22,2.68-2.72v-72.73h50.65s-.09,72.72-.09,72.73c0,1.5,1.21,2.72,2.69,2.72h32.57c1.49,0,2.68-1.22,2.68-2.72v-170.03Z"/>
    <g>
      <path class="cls-1" d="m330.21,780.67c0-11.7-9.38-21.15-20.95-21.15s-20.95,9.45-20.95,21.15,9.39,21.17,20.95,21.17,20.95-9.48,20.95-21.17Z"/>
      <path class="cls-1" d="m327.89,892.52v-78.49c0-1.49-1.2-2.71-2.69-2.71h-32.39c-1.49,0-2.82,1.53-2.82,3.02v112.45c0,3.3,2.06,4.29,4.72,4.29h29.18c3.2,0,3.99-1.57,3.99-4.34v-34.22Z"/>
    </g>
    <path class="cls-1" d="m689.8,811.58h-32.25c-1.48,0-2.68,1.22-2.68,2.72v83.37s-8.19,5.99-19.82,5.99-14.71-5.28-14.71-16.66v-72.71c0-1.5-1.2-2.72-2.68-2.72h-32.73c-1.48,0-2.69,1.22-2.69,2.72v78.21c0,33.81,18.85,42.09,44.77,42.09,21.27,0,38.42-11.75,38.42-11.75,0,0,.82,6.19,1.19,6.93.37.73,1.33,1.47,2.37,1.47l20.82-.09c1.48,0,2.69-1.22,2.69-2.71v-114.14c0-1.5-1.21-2.72-2.7-2.72Z"/>
    <path class="cls-1" d="m777.93,807.76c-18.31,0-30.77,8.17-30.77,8.17v-57.58c0-1.5-1.2-2.71-2.68-2.71h-32.59c-1.48,0-2.69,1.21-2.69,2.71v170.03c0,1.5,1.2,2.72,2.69,2.72h22.61c1.02,0,1.79-.53,2.36-1.44.56-.91,1.37-7.84,1.37-7.84,0,0,13.32,12.63,38.55,12.63,29.61,0,46.6-15.02,46.6-67.43s-27.12-59.26-45.45-59.26Zm-12.72,95.8c-11.18-.34-18.77-5.42-18.77-5.42v-53.85s7.48-4.59,16.67-5.41c11.61-1.04,22.8,2.47,22.8,30.17,0,29.21-5.05,34.97-20.7,34.5Z"/>
    <path class="cls-1" d="m421.28,811.31h-24.37s-.04-32.19-.04-32.2c0-1.22-.63-1.83-2.04-1.83h-33.22c-1.29,0-1.98.57-1.98,1.81v33.28s-16.65,4.02-17.77,4.34c-1.12.33-1.95,1.36-1.95,2.59v20.91c0,1.5,1.2,2.72,2.69,2.72h17.03v50.31c0,37.36,26.21,41.03,43.89,41.03,8.08,0,17.75-2.59,19.34-3.18.96-.35,1.53-1.35,1.53-2.44l.03-23c0-1.5-1.27-2.71-2.69-2.71s-5.05.58-8.8.58c-11.97,0-16.03-5.57-16.03-12.77s0-47.81,0-47.81h24.38c1.49,0,2.69-1.21,2.69-2.72v-26.19c0-1.5-1.2-2.71-2.69-2.71Z"/>
  </g>
</svg>