<svg width="22" height="23" fill="none" xmlns="http://www.w3.org/2000/svg"><path d="M21.934 7.338c-.053-1.171-.24-1.97-.511-2.67a5.391 5.391 0 0 0-1.27-1.949 5.392 5.392 0 0 0-1.947-1.269c-.7-.272-1.5-.457-2.67-.51C14.361.885 13.986.872 11 .872c-2.987 0-3.362.013-4.535.066-1.171.054-1.97.24-2.67.511a5.391 5.391 0 0 0-1.949 1.27A5.392 5.392 0 0 0 .577 4.666c-.272.7-.457 1.5-.51 2.67C.012 8.512 0 8.886 0 11.874c0 2.987.013 3.362.066 4.535.054 1.171.24 1.97.512 2.67.276.734.709 1.4 1.268 1.949a5.39 5.39 0 0 0 1.949 1.268c.7.272 1.5.458 2.67.512 1.173.053 1.548.066 4.535.066 2.988 0 3.362-.013 4.536-.066 1.17-.054 1.97-.24 2.67-.512a5.624 5.624 0 0 0 3.217-3.217c.272-.7.458-1.499.511-2.67.053-1.173.066-1.548.066-4.535 0-2.988-.013-3.362-.066-4.535zm-1.98 8.98c-.049 1.073-.228 1.655-.379 2.043a3.643 3.643 0 0 1-2.087 2.087c-.388.15-.97.33-2.043.379-1.16.053-1.508.064-4.445.064-2.937 0-3.285-.01-4.445-.064-1.072-.049-1.655-.228-2.043-.379a3.41 3.41 0 0 1-1.264-.823 3.408 3.408 0 0 1-.823-1.264c-.15-.388-.33-.97-.379-2.043-.053-1.16-.064-1.508-.064-4.445 0-2.937.011-3.285.064-4.445.05-1.072.228-1.655.379-2.042a3.41 3.41 0 0 1 .823-1.265 3.406 3.406 0 0 1 1.265-.823c.387-.15.97-.33 2.042-.379 1.16-.053 1.508-.064 4.445-.064 2.937 0 3.285.011 4.445.064 1.073.049 1.655.228 2.043.379.477.176.91.457 1.264.823.366.354.647.787.823 1.265.15.387.33.97.379 2.042.053 1.16.064 1.508.064 4.445 0 2.937-.011 3.285-.064 4.445z" fill="#fff"/><path d="M11 6.224a5.649 5.649 0 1 0 0 11.298 5.649 5.649 0 0 0 0-11.298zm0 9.316a3.667 3.667 0 1 1 0-7.334 3.667 3.667 0 0 1 0 7.334zM18.192 6.001a1.32 1.32 0 1 1-2.64 0 1.32 1.32 0 0 1 2.64 0z" fill="#fff"/></svg>