<svg width="82" height="82" fill="none" xmlns="http://www.w3.org/2000/svg"><g filter="url(#filter0_dd)"><circle r="31" transform="matrix(-1 0 0 1 41 37)" fill="url(#paint0_linear)"/></g><path fill-rule="evenodd" clip-rule="evenodd" d="M28.5 34.25c0-5.385 4.365-9.75 9.75-9.75S48 28.865 48 34.25a9.718 9.718 0 0 1-2.761 6.799 1.508 1.508 0 0 0-.19.19A9.718 9.718 0 0 1 38.25 44c-5.385 0-9.75-4.365-9.75-9.75zm17.643 10.014A12.695 12.695 0 0 1 38.25 47c-7.042 0-12.75-5.708-12.75-12.75S31.208 21.5 38.25 21.5 51 27.208 51 34.25c0 2.98-1.023 5.722-2.736 7.893l6.797 6.797a1.5 1.5 0 0 1-2.122 2.12l-6.796-6.796z" fill="#582007"/><defs><filter id="filter0_dd" x="0" y="0" width="82" height="82" filterUnits="userSpaceOnUse" color-interpolation-filters="sRGB"><feFlood flood-opacity="0" result="BackgroundImageFix"/><feColorMatrix in="SourceAlpha" values="0 0 0 0 0 0 0 0 0 0 0 0 0 0 0 0 0 0 127 0"/><feOffset dy="2"/><feColorMatrix values="0 0 0 0 0.870833 0 0 0 0 0.497101 0 0 0 0 0.0907118 0 0 0 1 0"/><feBlend in2="BackgroundImageFix" result="effect1_dropShadow"/><feColorMatrix in="SourceAlpha" values="0 0 0 0 0 0 0 0 0 0 0 0 0 0 0 0 0 0 127 0"/><feOffset dy="4"/><feGaussianBlur stdDeviation="5"/><feColorMatrix values="0 0 0 0 0.954167 0 0 0 0 0.551802 0 0 0 0 0.111319 0 0 0 0.4 0"/><feBlend in2="effect1_dropShadow" result="effect2_dropShadow"/><feBlend in="SourceGraphic" in2="effect2_dropShadow" result="shape"/></filter><linearGradient id="paint0_linear" x1="31" y1="0" x2="31" y2="62" gradientUnits="userSpaceOnUse"><stop stop-color="#FEEEC2"/><stop offset=".089" stop-color="#FDE294"/><stop offset=".693" stop-color="#F7B446"/><stop offset="1" stop-color="#F79B46"/></linearGradient></defs></svg>