<svg width="12" height="12" fill="none" xmlns="http://www.w3.org/2000/svg"><path d="M6.961 2.911A2.39 2.39 0 0 1 8.85 4.8M6.96 1a4.3 4.3 0 0 1 3.8 3.794m-.479 3.813v1.434a.957.957 0 0 1-1.041.955A9.456 9.456 0 0 1 5.117 9.53 9.318 9.318 0 0 1 2.25 6.662 9.456 9.456 0 0 1 .783 2.52a.956.956 0 0 1 .951-1.041h1.434a.956.956 0 0 1 .955.822c.06.458.173.909.335 1.342a.956.956 0 0 1-.215 1.009l-.607.606a7.645 7.645 0 0 0 2.867 2.867l.607-.606a.956.956 0 0 1 1.008-.215c.433.161.884.274 1.342.334a.956.956 0 0 1 .822.97z" stroke="#E3E3E3" stroke-width=".9" stroke-linecap="round" stroke-linejoin="round"/></svg>