<svg width="26" height="26" fill="none" xmlns="http://www.w3.org/2000/svg"><path d="M6.019 23.518l.475.238c1.982 1.189 4.2 1.744 6.42 1.744 6.974 0 12.68-5.706 12.68-12.68 0-3.329-1.348-6.578-3.725-8.956C19.49 1.487 16.32.14 12.914.14 5.94.14.234 5.846.313 12.899c0 2.377.713 4.676 1.902 6.657l.317.475-1.268 4.676 4.755-1.189z" fill="#00E676"/><path d="M21.908 3.795C19.538 1.335 16.261 0 12.914 0 5.803 0 .086 5.832.155 12.93c0 2.248.628 4.427 1.674 6.394L.016 26l6.763-1.757c1.882 1.054 3.974 1.546 6.065 1.546 7.042 0 12.76-5.832 12.76-12.93 0-3.443-1.325-6.675-3.696-9.064zM12.914 23.61c-1.882 0-3.765-.492-5.368-1.476l-.419-.21-4.043 1.053 1.045-4.005-.279-.422C.783 13.562 2.247 6.957 7.267 3.865 12.287.773 18.77 2.249 21.838 7.308c3.068 5.06 1.604 11.595-3.416 14.687-1.604 1.054-3.556 1.616-5.508 1.616zm6.135-7.8l-.766-.351s-1.116-.492-1.813-.844c-.07 0-.14-.07-.21-.07-.209 0-.348.07-.487.14 0 0-.07.07-1.046 1.195-.07.14-.21.21-.349.21h-.07c-.07 0-.209-.07-.278-.14l-.349-.14c-.767-.351-1.464-.773-2.022-1.335-.14-.14-.349-.281-.488-.422-.488-.492-.976-1.054-1.325-1.686l-.07-.141c-.069-.07-.069-.14-.139-.281 0-.14 0-.281.07-.351 0 0 .279-.352.488-.563.14-.14.21-.35.349-.492.14-.21.209-.491.14-.702-.07-.352-.907-2.249-1.116-2.67-.14-.211-.28-.282-.489-.352h-.766c-.14 0-.28.07-.419.07l-.07.07c-.139.071-.278.212-.418.282-.14.14-.209.28-.348.421a3.601 3.601 0 0 0-.767 2.179c0 .562.14 1.124.348 1.616l.07.21a11.703 11.703 0 0 0 2.58 3.585l.279.28c.209.212.418.352.557.563 1.464 1.265 3.138 2.178 5.02 2.67.21.07.488.07.697.14h.698c.348 0 .767-.14 1.045-.28.21-.14.349-.14.488-.282l.14-.14c.14-.14.279-.21.418-.351.14-.14.279-.281.349-.422.14-.281.209-.632.279-.984v-.492s-.07-.07-.21-.14z" fill="#fff"/></svg>