<svg width="18" height="18" fill="none" xmlns="http://www.w3.org/2000/svg"><path d="M4.223 16.282l.335.165c1.393.823 2.954 1.207 4.515 1.207 4.906 0 8.92-3.95 8.92-8.779 0-2.304-.947-4.554-2.62-6.2a8.928 8.928 0 0 0-6.3-2.578C4.167.097.153 4.047.21 8.93c0 1.646.502 3.237 1.338 4.609l.223.329-.892 3.237 3.345-.823z" fill="#00E676"/><path d="M15.4 2.627C13.733.924 11.428 0 9.075 0 4.07 0 .049 4.038.098 8.951c0 1.557.442 3.065 1.177 4.427L0 18l4.757-1.216c1.325.73 2.796 1.07 4.268 1.07 4.953 0 8.975-4.038 8.975-8.951a8.792 8.792 0 0 0-2.6-6.276zM9.075 16.346c-1.325 0-2.649-.34-3.777-1.022l-.294-.146-2.845.73.736-2.773-.196-.292C.54 9.39 1.569 4.816 5.1 2.676c3.531-2.14 8.093-1.12 10.25 2.383 2.158 3.503 1.129 8.027-2.403 10.168-1.128.73-2.501 1.119-3.874 1.119zm4.316-5.4l-.54-.243s-.785-.34-1.275-.584c-.05 0-.098-.049-.147-.049a.713.713 0 0 0-.344.098s-.049.048-.735.827a.27.27 0 0 1-.245.146h-.05a.372.372 0 0 1-.196-.098l-.245-.097c-.54-.243-1.03-.535-1.422-.924-.098-.098-.246-.195-.344-.292-.343-.34-.686-.73-.931-1.168l-.05-.097c-.049-.049-.049-.097-.098-.195 0-.097 0-.194.05-.243 0 0 .196-.243.343-.39.098-.096.147-.242.245-.34.098-.146.147-.34.098-.486-.049-.243-.638-1.557-.785-1.849-.098-.146-.196-.194-.343-.243h-.539c-.099 0-.197.049-.295.049l-.049.048c-.098.049-.196.146-.294.195-.098.097-.147.194-.245.292-.344.438-.54.973-.54 1.508 0 .389.098.778.245 1.119l.05.146a8.108 8.108 0 0 0 1.814 2.48l.196.195c.147.146.295.244.393.39a8.788 8.788 0 0 0 3.531 1.848c.147.049.343.049.49.097h.491c.245 0 .54-.097.736-.194.147-.097.245-.097.343-.195l.098-.097c.098-.097.196-.146.294-.243.098-.098.197-.195.246-.292.098-.195.147-.438.196-.681v-.34s-.05-.05-.147-.098z" fill="#fff"/></svg>