<svg width="262" height="50" viewBox="0 0 262 50" fill="none" xmlns="http://www.w3.org/2000/svg">
<path d="M71.072 33.43C71.732 33.43 72.272 33.38 72.692 33.28C73.132 33.16 73.482 33.01 73.742 32.83C74.002 32.63 74.182 32.4 74.282 32.14C74.382 31.88 74.432 31.59 74.432 31.27C74.432 30.59 74.112 30.03 73.472 29.59C72.832 29.13 71.732 28.64 70.172 28.12C69.492 27.88 68.812 27.61 68.132 27.31C67.452 26.99 66.842 26.6 66.302 26.14C65.762 25.66 65.322 25.09 64.982 24.43C64.642 23.75 64.472 22.93 64.472 21.97C64.472 21.01 64.652 20.15 65.012 19.39C65.372 18.61 65.882 17.95 66.542 17.41C67.202 16.87 68.002 16.46 68.942 16.18C69.882 15.88 70.942 15.73 72.122 15.73C73.522 15.73 74.732 15.88 75.752 16.18C76.772 16.48 77.612 16.81 78.272 17.17L76.922 20.86C76.342 20.56 75.692 20.3 74.972 20.08C74.272 19.84 73.422 19.72 72.422 19.72C71.302 19.72 70.492 19.88 69.992 20.2C69.512 20.5 69.272 20.97 69.272 21.61C69.272 21.99 69.362 22.31 69.542 22.57C69.722 22.83 69.972 23.07 70.292 23.29C70.632 23.49 71.012 23.68 71.432 23.86C71.872 24.02 72.352 24.19 72.872 24.37C73.952 24.77 74.892 25.17 75.692 25.57C76.492 25.95 77.152 26.4 77.672 26.92C78.212 27.44 78.612 28.05 78.872 28.75C79.132 29.45 79.262 30.3 79.262 31.3C79.262 33.24 78.582 34.75 77.222 35.83C75.862 36.89 73.812 37.42 71.072 37.42C70.152 37.42 69.322 37.36 68.582 37.24C67.842 37.14 67.182 37.01 66.602 36.85C66.042 36.69 65.552 36.52 65.132 36.34C64.732 36.16 64.392 35.99 64.112 35.83L65.432 32.11C66.052 32.45 66.812 32.76 67.712 33.04C68.632 33.3 69.752 33.43 71.072 33.43ZM97.697 16.21V20.2H91.427V37H86.747V20.2H80.477V16.21H97.697ZM112.164 37C111.944 36.28 111.694 35.54 111.414 34.78C111.154 34.02 110.894 33.26 110.634 32.5H102.534C102.274 33.26 102.004 34.02 101.724 34.78C101.464 35.54 101.224 36.28 101.004 37H96.1438C96.9238 34.76 97.6638 32.69 98.3638 30.79C99.0638 28.89 99.7438 27.1 100.404 25.42C101.084 23.74 101.744 22.15 102.384 20.65C103.044 19.13 103.724 17.65 104.424 16.21H108.894C109.574 17.65 110.244 19.13 110.904 20.65C111.564 22.15 112.224 23.74 112.884 25.42C113.564 27.1 114.254 28.89 114.954 30.79C115.654 32.69 116.394 34.76 117.174 37H112.164ZM106.554 20.92C106.454 21.22 106.304 21.63 106.104 22.15C105.904 22.67 105.674 23.27 105.414 23.95C105.154 24.63 104.864 25.38 104.544 26.2C104.244 27.02 103.934 27.88 103.614 28.78H109.524C109.204 27.88 108.894 27.02 108.594 26.2C108.294 25.38 108.004 24.63 107.724 23.95C107.464 23.27 107.234 22.67 107.034 22.15C106.834 21.63 106.674 21.22 106.554 20.92ZM125.955 15.97C129.075 15.97 131.465 16.53 133.125 17.65C134.785 18.75 135.615 20.47 135.615 22.81C135.615 24.27 135.275 25.46 134.595 26.38C133.935 27.28 132.975 27.99 131.715 28.51C132.135 29.03 132.575 29.63 133.035 30.31C133.495 30.97 133.945 31.67 134.385 32.41C134.845 33.13 135.285 33.89 135.705 34.69C136.125 35.47 136.515 36.24 136.875 37H131.625C131.245 36.32 130.855 35.63 130.455 34.93C130.075 34.23 129.675 33.55 129.255 32.89C128.855 32.23 128.455 31.61 128.055 31.03C127.655 30.43 127.255 29.89 126.855 29.41H124.545V37H119.865V16.51C120.885 16.31 121.935 16.17 123.015 16.09C124.115 16.01 125.095 15.97 125.955 15.97ZM126.225 19.96C125.885 19.96 125.575 19.97 125.295 19.99C125.035 20.01 124.785 20.03 124.545 20.05V25.69H125.865C127.625 25.69 128.885 25.47 129.645 25.03C130.405 24.59 130.785 23.84 130.785 22.78C130.785 21.76 130.395 21.04 129.615 20.62C128.855 20.18 127.725 19.96 126.225 19.96ZM152.415 16.21H157.095V37H152.415V28.18H144.555V37H139.875V16.21H144.555V24.16H152.415V16.21ZM170.036 37.42C168.576 37.42 167.316 37.22 166.256 36.82C165.196 36.4 164.316 35.83 163.616 35.11C162.936 34.37 162.426 33.5 162.086 32.5C161.766 31.48 161.606 30.36 161.606 29.14V16.21H166.286V28.75C166.286 29.59 166.376 30.31 166.556 30.91C166.756 31.49 167.016 31.97 167.336 32.35C167.676 32.71 168.076 32.97 168.536 33.13C169.016 33.29 169.536 33.37 170.096 33.37C171.236 33.37 172.156 33.02 172.856 32.32C173.576 31.62 173.936 30.43 173.936 28.75V16.21H178.616V29.14C178.616 30.36 178.446 31.48 178.106 32.5C177.766 33.52 177.246 34.4 176.546 35.14C175.846 35.86 174.956 36.42 173.876 36.82C172.796 37.22 171.516 37.42 170.036 37.42ZM197.067 37C195.727 34.62 194.277 32.27 192.717 29.95C191.157 27.63 189.497 25.44 187.737 23.38V37H183.117V16.21H186.927C187.587 16.87 188.317 17.68 189.117 18.64C189.917 19.6 190.727 20.63 191.547 21.73C192.387 22.81 193.217 23.94 194.037 25.12C194.857 26.28 195.627 27.4 196.347 28.48V16.21H200.997V37H197.067ZM221.213 16.21V20.2H214.943V37H210.263V20.2H203.993V16.21H221.213ZM224.22 37V16.21H238.26V20.14H228.9V24.22H237.21V28.06H228.9V33.07H238.95V37H224.22ZM248.504 15.97C251.624 15.97 254.014 16.53 255.674 17.65C257.334 18.75 258.164 20.47 258.164 22.81C258.164 24.27 257.824 25.46 257.144 26.38C256.484 27.28 255.524 27.99 254.264 28.51C254.684 29.03 255.124 29.63 255.584 30.31C256.044 30.97 256.494 31.67 256.934 32.41C257.394 33.13 257.834 33.89 258.254 34.69C258.674 35.47 259.064 36.24 259.424 37H254.174C253.794 36.32 253.404 35.63 253.004 34.93C252.624 34.23 252.224 33.55 251.804 32.89C251.404 32.23 251.004 31.61 250.604 31.03C250.204 30.43 249.804 29.89 249.404 29.41H247.094V37H242.414V16.51C243.434 16.31 244.484 16.17 245.564 16.09C246.664 16.01 247.644 15.97 248.504 15.97ZM248.774 19.96C248.434 19.96 248.124 19.97 247.844 19.99C247.584 20.01 247.334 20.03 247.094 20.05V25.69H248.414C250.174 25.69 251.434 25.47 252.194 25.03C252.954 24.59 253.334 23.84 253.334 22.78C253.334 21.76 252.944 21.04 252.164 20.62C251.404 20.18 250.274 19.96 248.774 19.96Z" fill="white"/>
<path fill-rule="evenodd" clip-rule="evenodd" d="M29.9594 18.1761L25.002 2.91895L20.0447 18.1761H4.00244L16.9809 27.6055L12.0236 42.8626L25.002 33.4332L37.9805 42.8626L33.0232 27.6055L46.0017 18.1761H29.9594ZM37.5773 20.9133H27.9707L25.002 11.7768L22.0334 20.9133H12.4268L20.1987 26.5599L17.2301 35.6964L25.002 30.0498L32.774 35.6964L29.8054 26.5599L37.5773 20.9133Z" fill="white"/>
<path d="M24.3068 29.9274V21.5332H27.4141C27.4857 21.5332 27.5811 21.5371 27.7003 21.5449C27.823 21.5487 27.932 21.5604 28.0274 21.5798C28.4669 21.6576 28.8264 21.8227 29.1058 22.0753C29.3886 22.3279 29.5964 22.6466 29.7293 23.0313C29.8621 23.4122 29.9286 23.8377 29.9286 24.3079C29.9286 24.7782 29.8604 25.2056 29.7242 25.5904C29.5913 25.9712 29.3834 26.288 29.1006 26.5406C28.8213 26.7932 28.4635 26.9583 28.0274 27.036C27.932 27.0516 27.823 27.0632 27.7003 27.071C27.5776 27.0788 27.4822 27.0827 27.4141 27.0827H25.6969V29.9274H24.3068ZM25.6969 25.602H27.3528C27.4243 25.602 27.5027 25.5982 27.5879 25.5904C27.673 25.5826 27.7514 25.5671 27.823 25.5437C28.0104 25.4855 28.1552 25.3883 28.2574 25.2523C28.3596 25.1124 28.4294 24.9589 28.4669 24.7918C28.5078 24.6208 28.5282 24.4595 28.5282 24.3079C28.5282 24.1564 28.5078 23.997 28.4669 23.8299C28.4294 23.6589 28.3596 23.5054 28.2574 23.3694C28.1552 23.2295 28.0104 23.1304 27.823 23.0721C27.7514 23.0488 27.673 23.0333 27.5879 23.0255C27.5027 23.0177 27.4243 23.0138 27.3528 23.0138H25.6969V25.602Z" fill="white"/>
<path d="M22.1479 29.9274V23.0138H19.8921V21.5332H25.7553V23.0138H23.4995V29.9274H22.1479Z" fill="white"/>
<path d="M21.3751 25.6115H26.79V27.0765H21.3751V25.6115Z" fill="white"/>
<path d="M21.3751 29.9274V28.9375H26.4796V29.9274H21.3751Z" fill="white"/>
<path d="M19.8921 21.7312H20.7543V23.4338H19.8921V21.7312Z" fill="white"/>
<path fill-rule="evenodd" clip-rule="evenodd" d="M25.002 49.0876C38.3052 49.0876 49.0895 38.3032 49.0895 25C49.0895 11.6968 38.3052 0.912409 25.002 0.912409C11.6987 0.912409 0.914362 11.6968 0.914362 25C0.914362 38.3032 11.6987 49.0876 25.002 49.0876ZM25.002 50C38.8091 50 50.002 38.8071 50.002 25C50.002 11.1929 38.8091 0 25.002 0C11.1948 0 0.00195312 11.1929 0.00195312 25C0.00195312 38.8071 11.1948 50 25.002 50Z" fill="white"/>
</svg>
