<svg width="185" height="94" fill="none" xmlns="http://www.w3.org/2000/svg"><g filter="url(#filter0_d)"><path fill="#ECECEC" d="M35.066 31.673h113.265v33.98H35.066z"/><path d="M161.261 51.964s2.239 1.945 4.21 6.686c1.971 4.74 2.509 13.595 1.524 13.058-.986-.537-6.809-5.098-10.752-11.448-3.942-6.35-7.167-16.95 5.018-8.296z" fill="#fff"/><path d="M167.077 72.7c-.186 0-.374-.046-.548-.14-1.166-.636-7.135-5.384-11.112-11.79-.24-.387-5.849-9.512-2.811-12.359 1.568-1.469 4.497-.591 9.218 2.762a.945.945 0 0 1 .075.059c.098.085 2.435 2.151 4.47 7.046 1.205 2.897 1.716 6.698 1.88 8.198.553 5.059-.155 5.695-.422 5.934a1.12 1.12 0 0 1-.75.29zm-12.563-23.026c-.386 0-.54.116-.578.152-.885.83.291 5.344 3.133 9.922 3.081 4.962 7.423 8.877 9.428 10.43.028-.858-.023-2.212-.23-3.928-.342-2.828-.959-5.462-1.693-7.228-1.723-4.145-3.664-6.057-3.925-6.302-3.629-2.571-5.355-3.046-6.135-3.046z" fill="#58595B"/><path d="M152.481 48.405s7.006 6.519 7.006 12.503.52 12.692-.556 12.692c-1.075 0-10.93-7.155-14.693-10.733-3.763-3.577 2.061-21.679 8.243-14.462z" fill="#fff"/><path d="M158.931 74.57c-.339 0-1.132 0-6.911-4.21-2.714-1.978-6.359-4.8-8.452-6.79-2.024-1.924-1.67-6.45-.753-9.741.961-3.444 3.013-7.351 5.893-7.988 1.087-.24 2.744-.105 4.476 1.893.645.609 7.275 7.018 7.275 13.174 0 1.533.034 3.105.067 4.626.125 5.753.097 7.839-.701 8.653-.243.248-.56.384-.894.384zm-9.426-26.876c-.127 0-.252.014-.377.041-1.655.366-3.439 3.024-4.441 6.614-.971 3.484-.878 6.771.221 7.816 3.413 3.245 11.235 8.93 13.602 10.225.193-1.282.127-4.307.073-6.814-.033-1.53-.068-3.114-.068-4.668 0-5.487-6.63-11.73-6.697-11.793a.96.96 0 0 1-.076-.079c-.764-.892-1.515-1.342-2.237-1.342z" fill="#58595B"/><path d="M141.826 47.887c1.453 1.444 5.201 5.35 5.201 13.056 0 7.706 0 14.31-3.139 15.665-3.138 1.355-9.835-2.687-15.264-15.812-3.813-9.22 9.553-16.532 13.202-12.909z" fill="#fff"/><path d="M142.608 77.826c-.752 0-1.565-.172-2.413-.516-4.422-1.791-8.966-7.675-12.469-16.144-1.039-2.513-.995-5.138.128-7.593.932-2.037 2.618-3.942 4.747-5.365 1.702-1.137 3.586-1.9 5.305-2.15 1.946-.28 3.581.124 4.605 1.141 1.357 1.348 5.487 5.449 5.487 13.744 0 8.35 0 14.947-3.724 16.555a4.175 4.175 0 0 1-1.666.328zm-3.52-29.923c-1.537 0-3.544.673-5.406 1.918-3.237 2.162-6.029 6.084-4.16 10.605 4.826 11.667 9.949 14.497 11.404 15.087 1.015.41 1.93.483 2.577.204 2.552-1.102 2.552-7.743 2.552-14.774 0-7.489-3.699-11.161-4.914-12.368-.458-.454-1.18-.672-2.053-.672z" fill="#58595B"/><path d="M24.516 51.964s-2.24 1.945-4.21 6.686c-1.972 4.74-2.51 13.595-1.524 13.058.986-.537 6.809-5.098 10.751-11.448 3.942-6.35 7.167-16.95-5.017-8.296z" fill="#fff"/><path d="M18.7 72.7c-.27 0-.537-.098-.75-.29-.267-.24-.976-.875-.422-5.934.164-1.5.675-5.301 1.88-8.198 2.035-4.895 4.372-6.96 4.47-7.046a1 1 0 0 1 .075-.06c4.72-3.352 7.65-4.23 9.218-2.76 3.038 2.846-2.572 11.971-2.812 12.358-3.976 6.406-9.945 11.154-11.112 11.79a1.143 1.143 0 0 1-.547.14zm6.428-19.98c-.26.244-2.202 2.156-3.925 6.301-.735 1.766-1.352 4.401-1.693 7.229-.207 1.715-.258 3.07-.23 3.929 2.005-1.554 6.347-5.469 9.427-10.43 2.842-4.58 4.019-9.094 3.134-9.923-.116-.108-1.289-.95-6.713 2.894z" fill="#58595B"/><path d="M33.296 48.405s-7.007 6.519-7.007 12.503-.519 12.692.556 12.692c1.075 0 10.93-7.155 14.693-10.733 3.763-3.578-2.06-21.679-8.242-14.462z" fill="#fff"/><path d="M26.845 74.57c-.333 0-.65-.136-.893-.383-.799-.815-.826-2.9-.701-8.653.033-1.52.067-3.093.067-4.626 0-6.156 6.63-12.566 7.275-13.174 1.732-1.998 3.388-2.134 4.475-1.893 2.88.637 4.933 4.544 5.894 7.988.917 3.29 1.27 7.816-.753 9.74-2.093 1.99-5.739 4.813-8.452 6.79-5.78 4.212-6.573 4.212-6.912 4.212zm7.113-25.455c-.085.08-6.697 6.313-6.697 11.793 0 1.554-.034 3.137-.067 4.668-.055 2.507-.12 5.532.072 6.814 2.367-1.296 10.19-6.98 13.602-10.225 1.1-1.045 1.192-4.332.221-7.816-1.001-3.59-2.786-6.248-4.44-6.614-.837-.184-1.717.253-2.614 1.3a.919.919 0 0 1-.077.08zm-.662-.71h.001-.001z" fill="#58595B"/><path d="M43.95 47.887c-1.453 1.444-5.2 5.35-5.2 13.056 0 7.706 0 14.31 3.138 15.665 3.139 1.355 9.836-2.687 15.264-15.812 3.814-9.22-9.553-16.532-13.201-12.909z" fill="#fff"/><path d="M43.169 77.827c-.599 0-1.159-.11-1.666-.328-3.725-1.608-3.725-8.204-3.725-16.556 0-8.294 4.13-12.395 5.487-13.743 1.024-1.017 2.66-1.421 4.606-1.14 1.718.248 3.602 1.012 5.304 2.15 2.13 1.422 3.815 3.327 4.747 5.364 1.123 2.455 1.168 5.08.128 7.593-3.502 8.468-8.047 14.353-12.468 16.144-.849.344-1.662.516-2.413.516zm3.52-29.923c-.874 0-1.596.217-2.053.671-1.215 1.207-4.914 4.88-4.914 12.368 0 7.032 0 13.673 2.552 14.775.647.279 1.562.207 2.577-.205 1.455-.59 6.578-3.42 11.403-15.087 1.87-4.52-.923-8.442-4.16-10.604-1.862-1.245-3.869-1.918-5.405-1.918zm-2.738-.016z" fill="#58595B"/><path d="M110.937 56.631c0-5.054-18.049-5.054-18.049 0 0 8.739 1.464 22.399 9.025 22.399s9.024-13.66 9.024-22.399z" fill="#fff"/><path d="M101.913 80c-2.075 0-3.872-.88-5.342-2.615-1.204-1.421-2.193-3.442-2.939-6.007-1.418-4.874-1.715-10.71-1.715-14.746 0-1.124.599-2.687 3.451-3.752 1.743-.65 4.068-1.009 6.545-1.009 2.478 0 4.802.358 6.545 1.01 2.853 1.064 3.451 2.627 3.451 3.75 0 4.038-.297 9.873-1.715 14.747-.746 2.565-1.735 4.586-2.939 6.007-1.47 1.735-3.267 2.615-5.342 2.615zm0-26.189c-4.44 0-8.053 1.265-8.053 2.82 0 5.027.58 21.429 8.053 21.429 7.472 0 8.053-16.402 8.053-21.428 0-.972-1.372-1.63-2.189-1.935-1.509-.563-3.646-.886-5.864-.886z" fill="#58595B"/><path d="M129.086 55.035c0-5.363-18.149-5.363-18.149 0 0 9.272 3.83 23.765 10.828 23.765 6.488 0 7.321-14.493 7.321-23.765z" fill="#fff"/><path d="M121.765 79.771c-3.589 0-6.682-3.122-8.946-9.03-1.76-4.594-2.853-10.612-2.853-15.706 0-3.448 5.045-4.992 10.046-4.992 5 0 10.046 1.544 10.046 4.992 0 6.438-.421 11.674-1.249 15.562-1.298 6.087-3.667 9.174-7.044 9.174zm-1.753-27.788c-4.544 0-8.103 1.34-8.103 3.052 0 9.295 3.84 22.796 9.856 22.796 4.094 0 6.349-8.096 6.349-22.796 0-1.024-1.207-1.715-2.22-2.114-1.513-.596-3.657-.938-5.882-.938z" fill="#58595B"/><path d="M74.84 56.631c0-5.054 18.048-5.054 18.048 0 0 8.739-1.463 22.399-9.024 22.399-7.561 0-9.025-13.66-9.025-22.399z" fill="#fff"/><path d="M83.864 80c-2.075 0-3.873-.88-5.342-2.615-1.204-1.421-2.193-3.442-2.939-6.007-1.418-4.874-1.715-10.71-1.715-14.746 0-1.124.598-2.687 3.451-3.752 1.743-.65 4.067-1.009 6.545-1.009 2.477 0 4.802.358 6.545 1.01 2.852 1.064 3.451 2.627 3.451 3.75 0 4.038-.297 9.873-1.715 14.747-.746 2.565-1.735 4.586-2.94 6.007C87.737 79.12 85.94 80 83.865 80zm0-26.189c-4.44 0-8.053 1.266-8.053 2.82 0 5.027.58 21.429 8.053 21.429 7.472 0 8.053-16.402 8.053-21.428 0-.972-1.372-1.63-2.19-1.935-1.508-.563-3.645-.886-5.863-.886z" fill="#58595B"/><path d="M56.69 55.035c0-5.363 18.15-5.363 18.15 0 0 9.272-3.83 23.765-10.829 23.765-6.487 0-7.32-14.493-7.32-23.765z" fill="#fff"/><path d="M64.011 79.771c-3.376 0-5.746-3.087-7.043-9.174-.829-3.888-1.25-9.124-1.25-15.562 0-3.448 5.046-4.992 10.047-4.992 5 0 10.046 1.544 10.046 4.992 0 5.094-1.094 11.112-2.854 15.707-2.263 5.907-5.356 9.029-8.946 9.029zm1.754-27.788c-4.544 0-8.102 1.34-8.102 3.052 0 14.7 2.254 22.796 6.348 22.796 6.017 0 9.857-13.501 9.857-22.796 0-1.024-1.208-1.715-2.221-2.114-1.513-.596-3.657-.938-5.882-.938z" fill="#58595B"/><path d="M162.448 33.4s4.771-5.485 7.944-7.964 3.518.803 2.966 3.982c-.552 3.18-1.656 9.79-3.104 15.643-1.448 5.853-4.828 10.395-9.38 6.093-4.553-4.303-5.787-10.262 1.574-17.753z" fill="#fff"/><path d="M164.367 53.82c-1.124 0-2.555-.443-4.162-1.962-2.589-2.447-3.929-5.165-3.983-8.077-.065-3.53 1.789-7.244 5.512-11.039.383-.439 4.92-5.617 8.059-8.07 1.386-1.083 2.557-1.352 3.481-.8 1.522.909 1.406 3.608 1.041 5.712l-.14.81c-.571 3.31-1.635 9.472-2.978 14.9-1.137 4.592-3.197 7.639-5.652 8.358-.339.099-.735.168-1.178.168zm7.887-28.285c-.09 0-.466.042-1.263.665-3.064 2.394-7.762 7.783-7.809 7.837a.91.91 0 0 1-.04.043c-3.358 3.417-5.032 6.669-4.977 9.665.044 2.373 1.18 4.628 3.376 6.704 1.262 1.192 2.424 1.643 3.457 1.34 1.722-.503 3.374-3.17 4.312-6.961 1.327-5.36 2.383-11.477 2.95-14.764l.14-.811c.434-2.499.061-3.599-.124-3.717h-.022zm-9.806 7.866h.001-.001z" fill="#58595B"/><path d="M143.692 29.084s6.225-9 9.009-11.977c2.783-2.978 7.456-4.665 9.146-1.29 1.69 3.374.994 20.048-1.193 25.805-2.187 5.756-6.661 10.147-11.532 6.512-4.872-3.634-11.854-9.057-5.43-19.05z" fill="#fff"/><path d="M152.723 50.428c-1.415 0-2.836-.512-4.183-1.517-2.337-1.743-5.538-4.131-7.236-7.48-1.962-3.867-1.433-8.198 1.57-12.87a.35.35 0 0 1 .019-.028c.255-.37 6.297-9.093 9.097-12.088 1.844-1.973 4.888-3.793 7.532-3.41 1.424.205 2.528 1.017 3.195 2.347 1.854 3.703 1.121 20.597-1.154 26.584-1.666 4.385-4.28 7.381-7.172 8.222-.552.16-1.109.24-1.668.24zm-8.222-20.806c-5.552 8.651-.708 13.326 5.202 17.735 1.391 1.037 2.785 1.363 4.144.968 2.267-.659 4.472-3.293 5.899-7.048.969-2.552 1.731-7.723 1.988-13.494.245-5.507-.059-10.141-.756-11.533-.379-.758-.947-1.181-1.734-1.295-1.661-.239-4.06.917-5.833 2.813-2.654 2.84-8.636 11.459-8.91 11.854z" fill="#58595B"/><path d="M144.361 38.705c0 6.96-22.385 6.96-22.385 0 0-12.035 4.463-27.04 11.192-27.04 9.378 0 11.193 15.005 11.193 27.04z" fill="#fff"/><path d="M133.168 44.896c-3.057 0-5.922-.49-8.067-1.38-3.386-1.403-4.097-3.39-4.097-4.81 0-6.234 1.172-13.102 3.134-18.372 1.066-2.864 2.312-5.14 3.704-6.767 1.631-1.906 3.423-2.873 5.326-2.873 4.674 0 8.052 3.261 10.041 9.692 1.409 4.553 2.123 10.717 2.123 18.32 0 1.42-.71 3.407-4.096 4.81-2.146.89-5.011 1.38-8.068 1.38zm0-32.261c-2.599 0-5.227 3.052-7.208 8.375-1.886 5.065-3.012 11.68-3.012 17.695 0 2.761 5.266 4.25 10.22 4.25 4.955 0 10.221-1.489 10.221-4.25 0-7.408-.685-13.379-2.036-17.747-1.733-5.6-4.41-8.323-8.185-8.323z" fill="#58595B"/><path d="M23.002 33.4s-4.77-5.485-7.943-7.964-3.518.803-2.966 3.983c.552 3.178 1.655 9.789 3.104 15.642 1.448 5.853 4.828 10.395 9.38 6.093 4.552-4.303 5.787-10.262-1.575-17.753z" fill="#fff"/><path d="M21.084 53.82c-.444 0-.84-.07-1.179-.169-2.455-.718-4.515-3.765-5.652-8.358-1.343-5.428-2.407-11.591-2.978-14.902l-.14-.807c-.365-2.104-.48-4.803 1.042-5.713.923-.551 2.094-.282 3.48.801 3.14 2.453 7.677 7.631 8.06 8.07 3.723 3.795 5.577 7.509 5.512 11.039-.055 2.912-1.395 5.63-3.984 8.077-1.607 1.519-3.038 1.962-4.161 1.962zm-7.886-28.284a.153.153 0 0 0-.027.002c-.181.116-.554 1.216-.12 3.715l.14.808c.566 3.288 1.622 9.406 2.949 14.767.938 3.79 2.59 6.458 4.312 6.962 1.033.302 2.196-.15 3.457-1.341 2.196-2.076 3.332-4.332 3.376-6.704.056-2.996-1.619-6.248-4.976-9.665a.965.965 0 0 1-.04-.043c-.047-.054-4.747-5.445-7.81-7.837-.786-.614-1.162-.664-1.261-.664z" fill="#58595B"/><path d="M41.758 29.084s-6.225-9-9.008-11.977c-2.784-2.978-7.457-4.665-9.147-1.29-1.69 3.374-.994 20.048 1.193 25.805 2.188 5.756 6.661 10.147 11.533 6.512 4.871-3.634 11.853-9.057 5.43-19.05z" fill="#fff"/><path d="M32.727 50.428c-.558 0-1.115-.08-1.667-.24-2.892-.84-5.506-3.837-7.172-8.222-2.275-5.987-3.008-22.881-1.154-26.584.666-1.33 1.77-2.142 3.194-2.347 2.644-.383 5.688 1.437 7.532 3.41 2.8 2.995 8.842 11.718 9.098 12.088a.919.919 0 0 1 .018.027c3.004 4.673 3.532 9.003 1.57 12.872-1.698 3.348-4.898 5.736-7.236 7.48-1.346 1.004-2.768 1.516-4.183 1.516zM26.66 14.924c-.157 0-.308.01-.454.03-.787.115-1.354.538-1.734 1.296-.697 1.392-1 6.026-.755 11.533.256 5.771 1.018 10.942 1.988 13.494 1.426 3.755 3.631 6.39 5.898 7.048 1.36.394 2.754.07 4.144-.968 5.91-4.41 10.755-9.084 5.203-17.735-.274-.395-6.256-9.014-8.91-11.854-1.618-1.73-3.756-2.844-5.38-2.844z" fill="#58595B"/><path d="M41.09 38.705c0 6.96 22.384 6.96 22.384 0 0-12.035-4.463-27.04-11.192-27.04-9.377 0-11.192 15.005-11.192 27.04z" fill="#fff"/><path d="M52.282 44.896c-3.057 0-5.922-.49-8.067-1.38-3.386-1.403-4.097-3.39-4.097-4.81 0-7.603.714-13.767 2.123-18.32 1.99-6.431 5.368-9.692 10.041-9.692 1.903 0 3.696.967 5.327 2.873 1.391 1.626 2.637 3.903 3.703 6.767 1.963 5.27 3.134 12.138 3.134 18.371 0 1.42-.71 3.408-4.096 4.812-2.146.889-5.01 1.379-8.068 1.379zm0-32.261c-3.774 0-6.451 2.722-8.184 8.323-1.351 4.368-2.036 10.34-2.036 17.748 0 2.76 5.266 4.25 10.22 4.25 4.955 0 10.22-1.49 10.22-4.25 0-6.016-1.125-12.63-3.011-17.696-1.982-5.323-4.61-8.375-7.209-8.375z" fill="#58595B"/><path d="M121.976 38.072c0 7.018-29.25 7.018-29.25 0 0-12.134 2.371-31.102 14.625-31.102 12.253 0 14.625 18.968 14.625 31.102z" fill="#fff"/><path d="M107.351 44.306c-3.93 0-7.606-.483-10.352-1.362-4.335-1.387-5.245-3.414-5.245-4.871 0-5.591.48-13.672 2.769-20.413 1.194-3.519 2.77-6.284 4.681-8.218C101.462 7.158 104.203 6 107.351 6c3.147 0 5.888 1.158 8.146 3.442 1.912 1.934 3.487 4.699 4.682 8.218 2.288 6.741 2.769 14.821 2.769 20.412 0 1.457-.91 3.485-5.246 4.872-2.746.879-6.422 1.362-10.351 1.362zm0-36.366c-4.962 0-8.658 3.48-10.988 10.342-2.32 6.834-2.666 15.333-2.666 19.79 0 2.408 5.998 4.294 13.654 4.294s13.653-1.886 13.653-4.294c0-4.457-.346-12.956-2.666-19.79-2.329-6.862-6.026-10.342-10.987-10.342z" fill="#58595B"/><path d="M63.474 38.073c0 7.018 29.251 7.018 29.251 0 0-12.134-2.371-31.102-14.625-31.102S63.475 25.939 63.475 38.073z" fill="#fff"/><path d="M78.1 44.307c-3.93 0-7.606-.484-10.352-1.362-4.335-1.387-5.245-3.415-5.245-4.871 0-5.592.48-13.672 2.769-20.413 1.194-3.52 2.77-6.284 4.681-8.218 2.258-2.284 5-3.442 8.147-3.442 3.147 0 5.888 1.158 8.146 3.442 1.912 1.934 3.488 4.699 4.682 8.217 2.288 6.742 2.769 14.822 2.769 20.414 0 1.456-.91 3.484-5.246 4.871-2.745.878-6.422 1.362-10.351 1.362zm0-36.366c-4.961 0-8.658 3.48-10.988 10.342-2.32 6.833-2.666 15.332-2.666 19.79 0 2.408 5.998 4.294 13.654 4.294s13.654-1.886 13.654-4.294c0-4.458-.347-12.957-2.666-19.79C86.758 11.42 83.06 7.94 78.1 7.94z" fill="#58595B"/></g><defs><filter id="filter0_d" x=".903" y="0" width="183.645" height="94" filterUnits="userSpaceOnUse" color-interpolation-filters="sRGB"><feFlood flood-opacity="0" result="BackgroundImageFix"/><feColorMatrix in="SourceAlpha" values="0 0 0 0 0 0 0 0 0 0 0 0 0 0 0 0 0 0 127 0"/><feOffset dy="4"/><feGaussianBlur stdDeviation="5"/><feColorMatrix values="0 0 0 0 0.941667 0 0 0 0 0.941667 0 0 0 0 0.941667 0 0 0 1 0"/><feBlend in2="BackgroundImageFix" result="effect1_dropShadow"/><feBlend in="SourceGraphic" in2="effect1_dropShadow" result="shape"/></filter></defs></svg>