<svg width="610" height="394" viewBox="0 0 610 394" fill="none" xmlns="http://www.w3.org/2000/svg">
<path d="M443.236 0.873329H41.9306V281.673H443.236V0.873329Z" fill="#2778F1" fill-opacity="0.1"/>
<path d="M443.236 0.873329H41.9306V28.9533H443.236V0.873329Z" fill="#D6FF97"/>
<path d="M59.6276 20.1133C62.2148 20.1133 64.3121 18.018 64.3121 15.4333C64.3121 12.8486 62.2148 10.7533 59.6276 10.7533C57.0405 10.7533 54.9431 12.8486 54.9431 15.4333C54.9431 18.018 57.0405 20.1133 59.6276 20.1133Z" fill="#27313F"/>
<path d="M77.8451 20.1133C80.4323 20.1133 82.5296 18.018 82.5296 15.4333C82.5296 12.8486 80.4323 10.7533 77.8451 10.7533C75.2579 10.7533 73.1606 12.8486 73.1606 15.4333C73.1606 18.018 75.2579 20.1133 77.8451 20.1133Z" fill="#27313F"/>
<path d="M96.0626 20.1133C98.6498 20.1133 100.747 18.018 100.747 15.4333C100.747 12.8486 98.6498 10.7533 96.0626 10.7533C93.4754 10.7533 91.3781 12.8486 91.3781 15.4333C91.3781 18.018 93.4754 20.1133 96.0626 20.1133Z" fill="#27313F"/>
<path d="M131.587 235.957H121.61V234.657H131.587V235.957ZM111.634 235.957H101.658V234.657H111.634V235.957ZM91.6817 235.957H81.7055V234.657H91.6817V235.957ZM74.0281 233.66H72.7269V223.693H74.0281V233.66ZM74.0281 213.727H72.7269V203.76H74.0281V213.727ZM74.0281 193.793H72.7269V183.827H74.0281V193.793ZM74.0281 173.86H72.7269V163.893H74.0281V173.86ZM74.0281 153.927H72.7269V143.96H74.0281V153.927ZM74.0281 133.993H72.7269V124.027H74.0281V133.993ZM74.0281 114.06H72.7269V104.093H74.0281V114.06ZM74.0281 94.1267H72.7269V84.16H74.0281V94.1267ZM363.947 84.0733H361.951V82.7733H363.947V84.0733ZM351.975 84.0733H341.999V82.7733H351.975V84.0733ZM332.023 84.0733H322.046V82.7733H332.023V84.0733ZM312.07 84.0733H302.094V82.7733H312.07V84.0733ZM292.118 84.0733H282.141V82.7733H292.118V84.0733ZM272.165 84.0733H262.189V82.7733H272.165V84.0733ZM252.213 84.0733H242.236V82.7733H252.213V84.0733ZM232.26 84.0733H222.284V82.7733H232.26V84.0733ZM212.308 84.0733H202.331V82.7733H212.308V84.0733ZM192.355 84.0733H182.379V82.7733H192.355V84.0733ZM172.403 84.0733H162.426V82.7733H172.403V84.0733ZM152.45 84.0733H142.474V82.7733H152.45V84.0733ZM132.498 84.0733H122.521V82.7733H132.498V84.0733ZM112.545 84.0733H102.569V82.7733H112.545V84.0733ZM92.5926 84.0733H82.6164V82.7733H92.5926V84.0733Z" fill="#6F85EE"/>
<path d="M104.087 341.993L103.827 354.083L103.523 366.737L102.959 392.607H87.3009V341.993H104.087Z" fill="#E6EFF9"/>
<path d="M104.087 341.993L103.523 366.737L87.3009 364.57V341.993H104.087Z" fill="#C4D7EC"/>
<path d="M232.694 342.34V392.607H217.036L216.775 381.427L216.168 354.083L215.908 342.34H232.694Z" fill="#E6EFF9"/>
<path d="M232.694 342.34V384.72L216.775 381.427L215.908 342.34H232.694Z" fill="#C4D7EC"/>
<path d="M431.135 341.993L430.831 354.083L430.571 366.737L429.963 392.607H414.348V341.993H431.135Z" fill="#D6E3F8"/>
<path d="M559.698 342.34V392.607H544.083L543.823 381.427L543.215 354.083L542.912 342.34H559.698Z" fill="#E6EFF9"/>
<path d="M431.135 341.993L430.571 366.737L414.348 364.57V341.993H431.135Z" fill="#96B1CC"/>
<path d="M559.698 342.34V384.72L543.823 381.427L542.912 342.34H559.698Z" fill="#C4D7EC"/>
<path d="M575.486 336.663H71.8594V354.127H575.486V336.663Z" fill="#E6EFF9"/>
<path d="M206.365 284.057L198.601 336.49H236.814L244.579 284.057H206.365Z" fill="#6D98DB"/>
<path d="M119.268 168.183L127.119 283.537C127.466 288.433 131.543 292.247 136.488 292.247H317.058C322.48 292.247 326.774 287.653 326.427 282.237L318.576 166.883C318.229 161.987 314.152 158.173 309.207 158.173H128.594C123.172 158.173 118.878 162.767 119.268 168.183Z" fill="#6D98DB"/>
<path d="M213.479 284.057L205.715 336.49H243.928L251.736 284.057H213.479Z" fill="#95BAF5"/>
<path d="M324.822 292.247H144.209C139.264 292.247 135.187 288.433 134.84 283.537L133.886 269.497L126.989 168.183C126.642 162.767 130.936 158.173 136.358 158.173H316.928C321.873 158.173 325.95 161.987 326.297 166.883L333.281 269.497L334.148 282.28C334.538 287.653 330.244 292.247 324.822 292.247Z" fill="#95BAF5"/>
<path d="M143.645 268.803L137.399 176.503C137.052 171.867 140.956 167.923 145.857 167.923H309.034C313.501 167.923 317.188 171.217 317.492 175.42L323.825 268.847H143.645V268.803Z" fill="white"/>
<path d="M191.141 328.733H148.069V336.49H191.141V328.733Z" fill="#6D98DB"/>
<path d="M303.872 328.733H188.885V336.49H303.872V328.733Z" fill="#95BAF5"/>
<path d="M314.629 247.44H215.301L210.356 179.407H309.684L314.629 247.44ZM217.296 245.273H312.287L307.689 181.573H212.698L217.296 245.273Z" fill="#E1EAF9"/>
<path d="M148.199 179.84L149.067 196.307H204.587L203.719 179.84H148.199Z" fill="#E1EAF9"/>
<path d="M149.501 201.94L149.934 207.573H205.454L205.021 201.94H149.501Z" fill="#E1EAF9"/>
<path d="M150.368 213.207L150.802 218.84H206.322L205.888 213.207H150.368Z" fill="#E1EAF9"/>
<path d="M151.236 224.473L151.669 230.107H207.189L206.756 224.473H151.236Z" fill="#E1EAF9"/>
<path d="M209.011 242.24H151.756L151.192 234.873H208.447L209.011 242.24ZM153.361 240.507H207.146L206.842 236.607H153.057L153.361 240.507Z" fill="#E1EAF9"/>
<path d="M384.55 150.893C384.55 150.893 376.395 219.057 412.83 202.243L417.602 239.683L456.465 231.017L440.113 198.43L422.026 146.083L384.55 150.893Z" fill="#FEB991"/>
<path d="M417.558 214.507C417.558 214.507 459.372 219.057 469.174 197.173C471.907 191.063 476.548 178.713 463.406 170.957C459.025 168.4 448.745 163.373 448.875 156.83C448.875 156.83 467.309 162.463 471.126 144.393C471.126 144.393 474.336 126.28 453.603 125.197C453.603 125.197 442.282 125.153 438.291 139.583C438.291 139.583 420.681 120.95 389.538 143.7C389.538 143.7 378.217 143.657 376.656 152.41C376.656 152.41 374.964 163.503 383.812 166.58L384.073 157.047C384.073 157.047 399.167 175.16 410.835 177.63C410.835 177.63 415.476 168.01 421.288 174.64C421.288 174.64 423.761 184.433 414.435 188.16C414.435 188.16 415.65 192.84 419.337 198.473C421.635 202.07 424.411 206.317 417.558 214.507Z" fill="#27313F"/>
<path d="M444.884 155.183C444.884 155.183 437.684 150.2 438.595 141.967C438.595 141.967 433.347 146.17 436.296 151.847C436.296 151.847 438.855 155.703 444.884 155.183Z" fill="#6F85EE"/>
<path d="M409.751 235.307L411.269 226.597C411.659 224.257 413.437 222.437 415.78 221.917L445.665 215.46C448.268 214.897 450.957 216.197 452.128 218.623L455.338 225.34L409.751 235.307Z" fill="#1650A7"/>
<path d="M309.207 247.05C309.207 247.05 258.545 238.297 248.222 219.143C248.222 219.143 238.463 240.68 235.383 247.917C235.079 248.61 234.559 250.387 234.559 250.387C234.559 250.387 228.183 270.667 304.046 290.687L309.207 247.05Z" fill="#D6E3F8"/>
<path d="M253.687 196.307L248.569 239.9C248.569 239.9 238.593 241.503 234.863 249.347L240.024 205.753C240.024 205.753 242.193 199.08 253.687 196.307Z" fill="#ACC5EA"/>
<path d="M295.674 302.907L282.011 318.29L255.119 291.423L249.914 278.423L248.829 269.107L267.698 278.857C267.698 278.857 268.565 280.59 270.951 280.373C270.951 280.373 273.553 278.64 273.119 271.707C273.119 271.707 267.698 261.523 272.035 256.757L282.879 271.057C282.879 271.057 286.783 282.323 285.915 293.157L291.337 298.573L295.674 302.907Z" fill="#FEB991"/>
<path d="M295.674 302.907L282.011 318.29L274.16 310.447L291.337 298.573L295.674 302.907Z" fill="#1650A7"/>
<path d="M276.156 318.723L294.807 299.873L338.182 318.723L384.376 246.573C384.376 246.573 398.256 227.507 453.343 219.707C453.343 219.707 482.404 218.84 488.91 273.007L492.38 392.607H366.159L370.063 361.407C370.063 361.407 356.399 376.79 346.64 371.807C326.124 361.277 276.156 318.723 276.156 318.723Z" fill="#2778F1"/>
<path d="M328.754 313.43L327.932 315.434L349.524 324.28L350.347 322.275L328.754 313.43Z" fill="#1650A7"/>
<path d="M396.738 294.067L367.243 392.823H487.392L515.195 299.83C517.147 293.373 512.289 286.873 505.523 286.873H406.454C401.986 286.873 398.039 289.777 396.738 294.067Z" fill="#C4D7EC"/>
<path d="M413.654 294.067L384.159 392.823H504.308L532.111 299.83C534.063 293.373 529.205 286.873 522.439 286.873H423.37C418.903 286.873 414.956 289.777 413.654 294.067Z" fill="#E6EFF9"/>
<path d="M364.12 105.35C376.265 105.35 386.111 95.5137 386.111 83.38C386.111 71.2463 376.265 61.41 364.12 61.41C351.975 61.41 342.129 71.2463 342.129 83.38C342.129 95.5137 351.975 105.35 364.12 105.35Z" fill="#D6FF97"/>
<path d="M361.344 92.0467L352.235 82.9467C351.498 82.21 351.498 80.9533 352.235 80.2167C352.973 79.48 354.231 79.48 354.968 80.2167L361.387 86.63L373.316 75.19C374.096 74.4533 375.311 74.4533 376.048 75.2333C376.786 76.0133 376.786 77.2267 376.005 77.9633L361.344 92.0467Z" fill="#27313F"/>
<path d="M74.3751 200.25C86.5205 200.25 96.3662 190.414 96.3662 178.28C96.3662 166.146 86.5205 156.31 74.3751 156.31C62.2298 156.31 52.384 166.146 52.384 178.28C52.384 190.414 62.2298 200.25 74.3751 200.25Z" fill="#D6FF97"/>
<path d="M71.5991 186.947L62.4904 177.847C61.753 177.11 61.753 175.853 62.4904 175.117C63.2278 174.38 64.4856 174.38 65.223 175.117L71.6425 181.53L83.5706 170.09C84.3514 169.353 85.5659 169.353 86.3033 170.133C87.0406 170.913 87.0406 172.127 86.2599 172.863L71.5991 186.947Z" fill="#27313F"/>
<path d="M165.983 121.34H248.396C250.304 121.34 251.866 119.78 251.866 117.873V61.54C251.866 59.6333 250.304 58.0733 248.396 58.0733H165.983C164.075 58.0733 162.513 59.6333 162.513 61.54V117.873C162.513 119.78 164.075 121.34 165.983 121.34Z" fill="#2778F1"/>
<path d="M206.929 102.447C205.454 102.447 203.98 101.927 202.809 100.8L170.928 70.9433L172.706 69.0367L204.587 98.8933C205.931 100.15 207.97 100.107 209.271 98.85L240.328 68.9933L242.15 70.8567L211.093 100.713C209.922 101.883 208.447 102.447 206.929 102.447Z" fill="white"/>
<path d="M191.484 88.4216L174.332 107.687L176.276 109.415L193.428 90.1495L191.484 88.4216Z" fill="white"/>
<path d="M222.835 87.7127L220.897 89.4477L237.655 108.132L239.593 106.397L222.835 87.7127Z" fill="white"/>
<path d="M252.083 70.2067C260.587 70.2067 267.481 63.3193 267.481 54.8233C267.481 46.3274 260.587 39.44 252.083 39.44C243.578 39.44 236.684 46.3274 236.684 54.8233C236.684 63.3193 243.578 70.2067 252.083 70.2067Z" fill="#D6FF97"/>
<path d="M251.735 61.54V58.03H245.229V55.82L250.781 46.8933H254.989V55.4733H256.767V58.03H254.989V61.54H251.735ZM251.735 55.4733V52.2233C251.735 51.3567 251.779 50.4467 251.866 49.4933H251.779C251.302 50.4467 250.911 51.3133 250.434 52.2233L248.482 55.43V55.4733H251.735Z" fill="#27313F"/>
<path d="M553.886 32.0733H474.726C472.384 32.0733 470.476 33.98 470.476 36.32V70.77C470.476 73.11 472.384 75.0167 474.726 75.0167H480.062V88.8833L492.814 75.0167H553.929C556.271 75.0167 558.18 73.11 558.18 70.77V36.32C558.093 33.98 556.185 32.0733 553.886 32.0733Z" fill="#2778F1" fill-opacity="0.1"/>
<path d="M509.947 41.6067H479.151V45.1167H509.947V41.6067Z" fill="white"/>
<path d="M549.418 51.53H479.151V55.04H549.418V51.53Z" fill="white"/>
<path d="M549.418 61.4533H479.151V64.9633H549.418V61.4533Z" fill="white"/>
<path d="M609.276 391.09H0.72438V393.69H609.276V391.09Z" fill="#2778F1"/>
</svg>
