<svg width="80" height="80" fill="none" xmlns="http://www.w3.org/2000/svg"><path d="M41 48.64a.96.96 0 00.958.96h13.417a.956.956 0 00.775-.395l7.667-10.56a.961.961 0 00-.925-1.513.958.958 0 00-.626.384L54.887 47.68H41.958a.957.957 0 00-.958.96zM61.125 51.52h-17.25c-.763 0-1.494.303-2.033.843a2.883 2.883 0 002.033 4.917h17.25c.762 0 1.494-.303 2.033-.844a2.883 2.883 0 00-2.033-4.916zm0 3.84h-17.25a.957.957 0 01-.958-.96.96.96 0 01.958-.96h17.25a.957.957 0 01.958.96.96.96 0 01-.958.96z" fill="#DA291C"/><path d="M34.292 31.36c1.516 0 2.998-.45 4.259-1.294a7.692 7.692 0 001.162-11.816 7.663 7.663 0 00-8.355-1.665 7.67 7.67 0 00-3.441 2.828 7.69 7.69 0 00-1.292 4.267 7.695 7.695 0 002.248 5.428 7.669 7.669 0 005.419 2.252zm0-13.44a5.743 5.743 0 015.312 3.556 5.77 5.77 0 01-1.246 6.277 5.746 5.746 0 01-9.816-4.073 5.771 5.771 0 011.685-4.071 5.75 5.75 0 014.065-1.689zM53.458 40.96a4.81 4.81 0 00-1.405-3.392 4.793 4.793 0 00-3.386-1.408H36.665a10.432 10.432 0 00-8.123-3.84 10.545 10.545 0 00-7.45 3.097A10.582 10.582 0 0018 42.88v20.16a.96.96 0 00.958.96h19.167a.957.957 0 00.958-.96V45.76h9.584a4.793 4.793 0 003.386-1.408 4.81 4.81 0 001.405-3.392zm-15.333 2.88a.957.957 0 00-.958.96v17.28h-17.25v-19.2a8.658 8.658 0 012.529-6.106 8.628 8.628 0 016.096-2.534 8.522 8.522 0 016.89 3.456.96.96 0 00.767.384h12.468c.762 0 1.493.303 2.032.843a2.883 2.883 0 01-2.032 4.917H38.125z" fill="#5B6770"/><rect x=".5" y=".5" width="79" height="79" rx="11.5" stroke="#E6E8E9"/></svg>