<svg width="80" height="80" fill="none" xmlns="http://www.w3.org/2000/svg"><path d="M59.157 23.399l-6.555-6.555A2.864 2.864 0 0050.566 16H33.96c-.764 0-1.575.303-2.115.843A2.88 2.88 0 0031 18.88L31 24h-8.041c-.764 0-1.575.303-2.116.843-.54.54-.843 1.353-.843 2.117l.001 34.08c0 .764.304 1.576.844 2.117.54.54 1.351.843 2.115.843h22a2.88 2.88 0 002.036-.843c.54-.54.844-1.353.844-2.117V56h9.28a2.88 2.88 0 002.037-.843c.54-.54.844-1.353.844-2.117V25.435a2.861 2.861 0 00-.844-2.036zM45.998 61.04c0 .255-.18.499-.36.679a.96.96 0 01-.678.281h-22a.96.96 0 01-.96-.96l-.001-34.08a.96.96 0 01.96-.96h15.443a.96.96 0 01.684.288l6.548 6.467c.09.09.163.196.212.313.05.118.154.244.154.372l-.002 27.6zm12.083-8a.96.96 0 01-.96.96H48L48 33.437c.001-.38-.235-.756-.38-1.106a2.865 2.865 0 00-.629-.936l-6.544-6.547A2.867 2.867 0 0038.402 24h-5.403L33 18.88a.96.96 0 01.96-.96h16.606a.96.96 0 01.679.281l6.555 6.555a.96.96 0 01.28.679V53.04z" fill="#5B6770"/><path fill-rule="evenodd" clip-rule="evenodd" d="M29 36a1 1 0 100 2h10a1 1 0 100-2H29zm-1 8a1 1 0 011-1h10a1 1 0 110 2H29a1 1 0 01-1-1zm0 7a1 1 0 011-1h10a1 1 0 110 2H29a1 1 0 01-1-1z" fill="#DA291C"/><rect x=".5" y=".5" width="79" height="79" rx="11.5" stroke="#E6E8E9"/></svg>