<svg width="80" height="80" fill="none" xmlns="http://www.w3.org/2000/svg"><path d="M61.12 54.4H18.88a2.88 2.88 0 000 5.76h42.24a2.88 2.88 0 100-5.76zm0 3.84H18.88a.96.96 0 110-1.92h42.24a.96.96 0 010 1.92zM21.256 52.48h14.45a2.88 2.88 0 002.815-3.483l-2.057-9.6a2.894 2.894 0 00-2.816-2.277H23.313a2.895 2.895 0 00-2.816 2.277l-2.057 9.6a2.88 2.88 0 002.816 3.483zM22.373 39.8a.96.96 0 01.939-.759h10.335a.96.96 0 01.939.76l2.057 9.6a.96.96 0 01-.939 1.16h-14.45a.96.96 0 01-.935-1.16l2.054-9.602z" fill="#5B6770"/><path d="M32.775 35.2h14.45a2.881 2.881 0 002.816-3.483l-2.058-9.6a2.894 2.894 0 00-2.815-2.277H34.832a2.895 2.895 0 00-2.815 2.277l-2.058 9.6a2.88 2.88 0 002.816 3.483zm1.118-12.682a.96.96 0 01.94-.758h10.335a.96.96 0 01.938.76l2.058 9.6a.962.962 0 01-.94 1.16H32.776a.961.961 0 01-.939-1.16l2.057-9.601z" fill="#DA291C"/><path d="M43.536 39.397l-2.057 9.6a2.88 2.88 0 002.816 3.483h14.45a2.88 2.88 0 002.815-3.483l-2.057-9.6a2.893 2.893 0 00-2.816-2.277H46.352a2.895 2.895 0 00-2.816 2.277zm14.09.403l2.057 9.6a.96.96 0 01-.939 1.16h-14.45a.96.96 0 01-.938-1.16l2.057-9.6a.96.96 0 01.939-.759h10.335a.96.96 0 01.939.759zM23.376 45.711a.96.96 0 001.214-.607l.522-1.567a.96.96 0 01.911-.657h1.497a.96.96 0 100-1.92h-1.497a2.874 2.874 0 00-2.727 1.97l-.523 1.567a.96.96 0 00.603 1.214z" fill="#5B6770"/><path d="M45.81 44.497a.96.96 0 101.824.607l.522-1.567a.96.96 0 01.907-.657h1.497a.96.96 0 100-1.92h-1.497a2.874 2.874 0 00-2.727 1.97l-.526 1.567z" fill="#5B6770"/><path d="M34.897 28.431a.96.96 0 001.213-.608l.522-1.566a.96.96 0 01.912-.657h1.496a.96.96 0 000-1.92h-1.496a2.874 2.874 0 00-2.728 1.97l-.522 1.567a.96.96 0 00.603 1.214z" fill="#DA291C"/><rect x=".5" y=".5" width="79" height="79" rx="11.5" stroke="#E6E8E9"/></svg>