<svg id="Слой_1" data-name="Слой 1" xmlns="http://www.w3.org/2000/svg" viewBox="0 0 61.73244 46.34317">
  <defs>
    <style>
      .cls-1 {
        fill: #fdfcf5;
      }
    </style>
  </defs>
  <title>booking</title>
  <path class="cls-1" d="M5.25082,32.25714H18.58711A2.39206,2.39206,0,0,0,19.41527,32.2c.11423-.08571-.1999.08572-.22846-.02857v-.05714l-.54259-1.94286h0c0-.05714-.08567-.11429-.1999-.17143l-.05711-.02857a2.6968,2.6968,0,0,0-1.17085-.2h-6.968a3.2745,3.2745,0,0,1-1.82767-.4A2.78932,2.78932,0,0,1,7.307,27.62857L3.99429,15.88572v-.05715h0c-.05711-.2-.31413-.34285-.62826-.4a1.55211,1.55211,0,0,0-.514,0,.57547.57547,0,0,0-.31413.08572l-.02856.02857c-.02856.02857-.05711.05714-.02856.11428l2.05613,15.4a1.85791,1.85791,0,0,0,.39981.97143c.14278.14286.257.22857.31413.22857ZM29.61025,4.02857V2.48572H28.29661a1.24364,1.24364,0,0,1-1.228-1.25715A1.21918,1.21918,0,0,1,28.29661,0h5.14033a1.21918,1.21918,0,0,1,1.228,1.22857,1.24364,1.24364,0,0,1-1.228,1.25715H32.09475V4.02857a13.16272,13.16272,0,0,1,7.93894,3.71429,12.96435,12.96435,0,0,1,3.79813,7.91428h4.22649a2.30191,2.30191,0,0,1,1.71345.71429,2.37594,2.37594,0,0,1,.74249,1.71429v2.54285a2.37594,2.37594,0,0,1-.74249,1.71429,2.3019,2.3019,0,0,1-1.71345.71428H34.722V38.97143a5.09141,5.09141,0,0,0,.99951.62857,9.00288,9.00288,0,0,1,1.742,1.2c.02856.02858.02856.05714.05712.08572a3.74162,3.74162,0,0,1,1.02806,1.8,2.79016,2.79016,0,0,1-.02856,1.74286,2.66967,2.66967,0,0,1-1.17085,1.45715,3.60688,3.60688,0,0,1-1.82767.45714h-9.3097a3.60689,3.60689,0,0,1-1.82768-.45714,2.66976,2.66976,0,0,1-1.17085-1.45715,3.00677,3.00677,0,0,1-.05711-1.74286A4.18716,4.18716,0,0,1,24.27,40.8h0a9.7653,9.7653,0,0,1,1.71344-1.2,4.79794,4.79794,0,0,0,1.02806-.62857V23.05714H13.64668a2.284,2.284,0,0,1-1.68488-.71428h-.02856a2.41633,2.41633,0,0,1-.71393-1.71429V18.08572a2.4682,2.4682,0,0,1,.71393-1.71429c.05712-.05714.08568-.08571.11423-.08571a2.34424,2.34424,0,0,1,1.59921-.62858h4.25505a12.9644,12.9644,0,0,1,3.79813-7.91428,13.162,13.162,0,0,1,7.91039-3.71429Zm-.14278,19.02857V38.97143c0,1.51429-1.08518,2.11429-2.256,2.77143a7.95159,7.95159,0,0,0-1.19941.8h0a1.64214,1.64214,0,0,0-.45692.74286.68629.68629,0,0,0,0,.34285c0,.05714.02855.08572.08567.14286a1.40377,1.40377,0,0,0,.57115.08571h9.3097a1.4038,1.4038,0,0,0,.57115-.08571c.02855-.05714.08567-.08572.08567-.14286a.68652.68652,0,0,0,0-.34285A1.71806,1.71806,0,0,0,35.77864,42.6a.06144.06144,0,0,1-.05711-.05714,7.95209,7.95209,0,0,0-1.19941-.8c-1.17085-.65714-2.28459-1.25714-2.28459-2.77143V23.05714H29.46747Zm15.678,11.68572L42.51818,45.4a1.27459,1.27459,0,0,1-1.51354.91429A1.24823,1.24823,0,0,1,40.11937,44.8l2.48449-10.08571a3.13508,3.13508,0,0,1-1.79912-.57143,2.22638,2.22638,0,0,1-.65682-2.6l.02856-.05714.514-1.97143h0a2.75647,2.75647,0,0,1,1.51354-1.74286.0997.0997,0,0,0,.05712-.02857,5.47326,5.47326,0,0,1,2.256-.45714h7.45347c.02856,0,.02856-.08572.08567-.31429l3.2841-11.71429h0A3.12311,3.12311,0,0,1,57.91061,13a4.05628,4.05628,0,0,1,1.31363-.02857,3.16539,3.16539,0,0,1,1.25653.45714,2.46066,2.46066,0,0,1,1.228,2.54286l-2.05614,15.4A4.21475,4.21475,0,0,1,58.6531,33.6a2.44582,2.44582,0,0,1-.54259.54286l2.39882,10.68572a1.22979,1.22979,0,1,1-2.39882.54285L55.74025,34.74286Zm-1.999-2.48572H56.48273c.05712,0,.17135-.08571.28558-.22857a1.68307,1.68307,0,0,0,.42836-.97143l2.05613-15.4a.10437.10437,0,0,0-.05711-.14285.57551.57551,0,0,0-.31414-.08572,1.55211,1.55211,0,0,0-.514,0c-.31413.05715-.57114.2-.62826.4h0v.05715L54.42661,27.62857a2.78932,2.78932,0,0,1-1.11374,1.74286,3.33315,3.33315,0,0,1-1.82767.4h-6.968a2.69674,2.69674,0,0,0-1.17085.2L43.28923,30a.522.522,0,0,0-.22846.17143h0l-.514,1.94286v.05714c-.02856.11429-.34269-.05714-.22846.02857a2.39218,2.39218,0,0,0,.82817.05714Zm4.91186-14.14285H13.67524V20.6H48.05831Zm-6.711-2.45715a10.36127,10.36127,0,0,0-3.05564-6.14285,10.54506,10.54506,0,0,0-14.84983,0,10.39622,10.39622,0,0,0-3.08419,6.14285ZM19.1297,34.71429,21.61419,44.8a1.24367,1.24367,0,0,1-.91383,1.51429,1.25874,1.25874,0,0,1-1.485-.91429L16.58809,34.74286H5.99331L3.62305,45.37143a1.22979,1.22979,0,1,1-2.39882-.54285L3.62305,34.14286A3.39858,3.39858,0,0,1,3.0519,33.6,4.41437,4.41437,0,0,1,2.081,31.37143l-2.05613-15.4a2.43509,2.43509,0,0,1,1.1423-2.48571c.02855-.02857.05711-.05715.08567-.05715a3.16529,3.16529,0,0,1,1.25652-.45714A4.07253,4.07253,0,0,1,3.823,13a3.12311,3.12311,0,0,1,2.57016,2.25714h0l3.2841,11.71429c.05712.22857.05712.31429.08567.31429h7.45348a5.23976,5.23976,0,0,1,2.22747.45714c.02856,0,.05712.02857.08567.02857A2.75644,2.75644,0,0,1,21.043,29.51429h0l.514,1.97143.02855.05714a2.22638,2.22638,0,0,1-.65682,2.6,3.28332,3.28332,0,0,1-1.79911.57143Z"/>
</svg>
