<svg id="Слой_1" data-name="Слой 1" xmlns="http://www.w3.org/2000/svg" viewBox="0 0 12 12">
  <defs>
    <style>
      .cls-1 {
        fill: #63b460;
      }
    </style>
  </defs>
  <title>inst</title>
  <g>
    <path class="cls-1" d="M7.78865,3.19286H4.2119A1.03612,1.03612,0,0,0,3.17662,4.22822v3.5762a1.03663,1.03663,0,0,0,1.03528,1.036H7.78874a1.03713,1.03713,0,0,0,1.03539-1.036V4.22822A1.03658,1.03658,0,0,0,7.78865,3.19286ZM6,7.87558A1.85926,1.85926,0,1,1,7.85926,6.01632,1.86179,1.86179,0,0,1,6,7.87558Zm1.91926-3.334a.44.44,0,1,1,.44006-.43987.44011.44011,0,0,1-.44006.43987Zm0,0"/>
    <g>
      <path class="cls-1" d="M6,4.94306A1.07358,1.07358,0,1,0,7.0739,6.01632,1.07447,1.07447,0,0,0,6,4.94306Zm0,0"/>
      <path class="cls-1" d="M6,0a6,6,0,1,0,6,6A6,6,0,0,0,6,0ZM9.60938,7.80442A1.82275,1.82275,0,0,1,7.78874,9.6257H4.2119A1.82331,1.82331,0,0,1,2.39062,7.80442V4.22822A1.82372,1.82372,0,0,1,4.2119,2.40694H7.78874A1.82317,1.82317,0,0,1,9.60938,4.22822Zm0,0"/>
    </g>
  </g>
</svg>
