<svg id="Слой_1" data-name="Слой 1" xmlns="http://www.w3.org/2000/svg" viewBox="0 0 45.5301 46">
  <defs>
    <style>
      .cls-1 {
        fill: #fdfcf5;
      }
    </style>
  </defs>
  <title>menu</title>
  <path class="cls-1" d="M38.685,45.2975c-.05886,0-.31643-.0152-.37529-.024-2.265-.3185-4.26585-3.1027-6.38235-6.0528-.6677-.9317-1.3179-1.8373-1.9289-2.577-1.7718-2.1492-4.196-5.1931-5.7845-4.5233-2.6707,1.1368-6.2491-.6939-10.9928-5.6754C8.80261,21.7995-.98359,4.09929.36061.96376.82541-.125,2.08221-.41079,3.47871.73253L40.17312,37.5864c2.06628,2.075,2.782,3.9318,2.123,5.516A4.0202,4.0202,0,0,1,38.685,45.2975ZM24.66581,29.4476c2.7384,0,5.1713,2.9523,7.3184,5.5554.6437.7789,1.331,1.7324,2.0336,2.7143,1.3833,1.9246,3.47372,4.8375,4.64758,5.0033l.01744-.0022a1.55836,1.55836,0,0,0,1.23284-.6066c.15271-.3689-.16582-1.3005-1.571-2.7123L3.41981,4.31754c1.8875,5.10362,7.4973,15.96776,11.6671,20.34916,4.3072,4.5255,6.5437,5.1997,7.4929,5.1997a1.53409,1.53409,0,0,0,.6262-.12A3.63277,3.63277,0,0,1,24.66581,29.4476Z" transform="translate(-0.23495 0)"/>
  <path class="cls-1" d="M32.21091,15.893,41.36009,5.16853a1.2158,1.2158,0,0,0-1.85038-1.57759L30.36291,14.3154a1.2149,1.2149,0,1,0,1.848,1.5776Z" transform="translate(-0.23495 0)"/>
  <path class="cls-1" d="M36.4114,2.72028c1.56659-1.51861-.37752-3.35811-1.966-1.8045L27.37361,8.594a7.33858,7.33858,0,0,0-1.4969,7.37517L24.393,17.5337a1.33315,1.33315,0,1,0,1.9049,1.8656l2.1099-2.2147a1.32877,1.32877,0,0,0,.2291-1.5274,4.67309,4.67309,0,0,1,.6983-5.2585l7.06964-7.67187Z" transform="translate(-0.23495 0)"/>
  <path class="cls-1" d="M2.43561,43.7417A4.15639,4.15639,0,0,0,6.17131,46c.0633,0,.3425-.0196.4058-.0283,1.9179-.2794,7.0805-5.8304,11.8242-11.2351,1.0473-1.3398-1.1064-2.9719-2.2257-1.5296-4.5865,5.2019-8.7519,9.6859-9.976,10.1266l-.0283,1.3333V43.3336a1.60991,1.60991,0,0,1-1.2765-.6219c-.1593-.3797.1658-1.3463,1.619-2.8235l7.9272-8.2566a1.33683,1.33683,0,0,0-1.8176-1.9551l-8.0188,8.3527C2.48151,40.1894,1.75271,42.1117,2.43561,43.7417Z" transform="translate(-0.23495 0)"/>
  <path class="cls-1" d="M29.21521,22.2557c.6393-.7245.8182-.9906,1.4837-1.7194a7.36617,7.36617,0,0,0,2.0859.2989,7.28293,7.28293,0,0,0,5.3459-2.3326l7.0915-7.698c1.5405-1.75651-.54334-3.38864-1.96166-1.80016l-.02177.01743L36.16916,16.696a4.72308,4.72308,0,0,1-5.30875,1.0626,1.3256,1.3256,0,0,0-1.5208.3142c-.8466.9164-1.2219,1.3987-2.0315,2.3151C26.31741,21.6163,28.087,23.3859,29.21521,22.2557Z" transform="translate(-0.23495 0)"/>
</svg>
