<svg id="Слой_1" data-name="Слой 1" xmlns="http://www.w3.org/2000/svg" viewBox="0 0 19.69222 13.367">
  <defs>
    <style>
      .cls-1 {
        fill: #62b25f;
      }

      .cls-2 {
        fill: #4e8b4b;
      }

      .cls-3 {
        fill: #3a6639;
      }
    </style>
  </defs>
  <title>menu_close</title>
  <path class="cls-1" d="M12.324,5.945a.99917.99917,0,0,0,0,1.473l5.66,5.648a.99984.99984,0,0,0,1.418-1.41L14.453,6.707l4.949-5a1.00134,1.00134,0,0,0,0-1.41.99472.99472,0,0,0-1.418,0l-5.66,5.648Zm0,0"/>
  <path class="cls-2" d="M6.324,5.945a.99917.99917,0,0,0,0,1.473l5.66,5.648a.99984.99984,0,0,0,1.418-1.41L8.453,6.707l4.949-5a1.00134,1.00134,0,0,0,0-1.41.99472.99472,0,0,0-1.418,0L6.324,5.945Zm0,0"/>
  <path class="cls-3" d="M.324,5.945a.99917.99917,0,0,0,0,1.473l5.66,5.648a.99984.99984,0,0,0,1.418-1.41L2.453,6.707l4.949-5a1.00134,1.00134,0,0,0,0-1.41.99472.99472,0,0,0-1.418,0L.324,5.945Zm0,0"/>
</svg>
