<svg id="Слой_1" data-name="Слой 1" xmlns="http://www.w3.org/2000/svg" viewBox="0 0 50.51674 46.35017">
  <defs>
    <style>
      .cls-1 {
        fill: #fdfcf5;
      }
    </style>
  </defs>
  <title>phone</title>
  <path class="cls-1" d="M3.14007,26.20738a23.95625,23.95625,0,0,1-1.85623-4,20.687,20.687,0,0,1-.59971-12.4A14.21846,14.21846,0,0,1,7.19521,1.06453,12.53916,12.53916,0,0,1,9.2799.12167L9.337.0931,9.39413.06453c1.31364-.34286,2.71295.71428,3.94092,2.37142a27.95547,27.95547,0,0,1,3.227,5.8H46.31881a4.10021,4.10021,0,0,1,4.19793,4.2V32.2931a4.4612,4.4612,0,0,1-.99951,3.25714A4.30207,4.30207,0,0,1,46.20458,36.636H35.86681a1.24364,1.24364,0,0,1-1.228-1.25715,1.21918,1.21918,0,0,1,1.228-1.22857H46.20458c.82816,0,1.31364-.08571,1.5421-.31428s.28557-.71429.28557-1.54286V12.57881L32.38281,25.0931c-.05711.02857-.08567.05714-.14279.08571h0a5.506,5.506,0,0,1-2.79862,1.08572h0a4.53441,4.53441,0,0,1-2.85574-1.14286h0L14.7058,15.636l-.11423.05715-1.65633.97143a2.68761,2.68761,0,0,0-1.45642,1.71428,3.30334,3.30334,0,0,0,.514,2.31429L17.533,30.37881h0l.08567.17143a3.209,3.209,0,0,0,1.71344,1.57143,2.70067,2.70067,0,0,0,2.22748-.34286l.28557-.17143,1.39931-.8a5.1544,5.1544,0,0,1,3.88381-.62857,5.95234,5.95234,0,0,1,3.25553,2.34286A30.13446,30.13446,0,0,1,34.03914,38.636c.7996,1.91428.97095,3.62857,0,4.6l-.02856.05715-.05711.02857a11.93452,11.93452,0,0,1-1.85623,1.28571,14.32833,14.32833,0,0,1-10.8518,1.2,20.71773,20.71773,0,0,1-10.36633-6.82857,25.95386,25.95386,0,0,1-2.513-3.6ZM46.40448,10.72167H17.276a4.90553,4.90553,0,0,1-.17134,1.94285,5.00314,5.00314,0,0,1-.57115,1.25715l11.59429,9.25714h0c.54259.42857.91384.62857,1.25653.6h0a3.29373,3.29373,0,0,0,1.51354-.65714ZM14.59157,9.95024a.105.105,0,0,0-.02856-.08572c-.02855-.08571-.05711-.14285-.08567-.22856V9.60738a28.01274,28.01274,0,0,0-3.11275-5.68571c-.62826-.85714-1.17085-1.45714-1.37076-1.45714a11.23559,11.23559,0,0,0-1.57065.74285,11.931,11.931,0,0,0-5.36879,7.25715,18.06779,18.06779,0,0,0,.57115,10.91428,22.45277,22.45277,0,0,0,1.65633,3.6l5.226,9.17143a23.38431,23.38431,0,0,0,2.256,3.25714,18.1583,18.1583,0,0,0,9.1098,6,11.709,11.709,0,0,0,8.99557-.94285,10.12181,10.12181,0,0,0,1.45643-1,4.95388,4.95388,0,0,0-.57115-1.88572,26.44875,26.44875,0,0,0-3.34121-5.57142v-.02858a3.56566,3.56566,0,0,0-1.88479-1.4,2.89025,2.89025,0,0,0-2.05613.37143l-1.68489.97143-.28557.14286H22.4734a4.84989,4.84989,0,0,1-3.8838.4,5.65353,5.65353,0,0,1-3.02708-2.54286h0l-.08567-.17143-5.6258-9.82857A5.57325,5.57325,0,0,1,9.08,17.86453a5.00038,5.00038,0,0,1,2.62728-3.34286l1.68488-.97143a2.63292,2.63292,0,0,0,1.3422-1.57143,3.164,3.164,0,0,0-.14279-2.02857Z"/>
</svg>
