<svg id="Слой_1" data-name="Слой 1" xmlns="http://www.w3.org/2000/svg" viewBox="0 0 11.87987 11.88571">
  <defs>
    <style>
      .cls-1 {
        fill: #63b460;
        fill-rule: evenodd;
      }
    </style>
  </defs>
  <title>vk</title>
  <path class="cls-1" d="M5.93993,0a5.94286,5.94286,0,1,0,5.93994,5.94286A5.93684,5.93684,0,0,0,5.93993,0ZM8.967,6.6a7.55975,7.55975,0,0,1,.82817.82857,4.8473,4.8473,0,0,1,.28557.4c.11423.22857,0,.48572-.1999.48572H8.68144A.95457.95457,0,0,1,7.91039,8c-.17134-.17143-.34269-.34286-.514-.54286a1.32042,1.32042,0,0,0-.1999-.2.26357.26357,0,0,0-.39981.11429,1.00417,1.00417,0,0,0-.14278.57143c0,.28571-.08568.37143-.37125.37143a3.20649,3.20649,0,0,1-1.77056-.37143A4.32853,4.32853,0,0,1,3.34121,6.82857a15.08514,15.08514,0,0,1-1.5421-2.74286c-.08567-.22857-.02855-.34285.22846-.34285H3.227A.36365.36365,0,0,1,3.54111,4a9.27459,9.27459,0,0,0,.79961,1.48571,1.86562,1.86562,0,0,0,.31413.34286c.14279.08572.257.05714.31413-.08571a1.28806,1.28806,0,0,0,.08567-.31429A4.85181,4.85181,0,0,0,5.0261,4.31429a.43005.43005,0,0,0-.39981-.4c-.11423-.02858-.08567-.08572-.02855-.14286a.4097.4097,0,0,1,.37124-.2H6.33974c.22845.05714.257.14286.28557.37143V5.48571c0,.08572.05711.31429.1999.37143s.1999-.05714.28557-.11428a5.36356,5.36356,0,0,0,.771-1.2c.08568-.2.17135-.4.257-.57143A.283.283,0,0,1,8.453,3.74286H9.88085c.22846.05714.28557.14285.22846.37143a2.98126,2.98126,0,0,1-.54259.91428c-.1999.28572-.45692.6-.65682.88572S8.71,6.34286,8.967,6.6Z"/>
</svg>
