<svg width="80" height="80" fill="none" xmlns="http://www.w3.org/2000/svg"><path d="M29.138 50.86a.96.96 0 00-1.357 1.358 17.278 17.278 0 0024.438 0 .96.96 0 00-1.358-1.358 15.36 15.36 0 01-21.723 0z" fill="#5B6770"/><path fill-rule="evenodd" clip-rule="evenodd" d="M29.138 50.86a.96.96 0 00-1.357 1.358 17.278 17.278 0 0024.438 0 .96.96 0 00-1.358-1.358 15.36 15.36 0 01-21.723 0z" fill="#5B6770"/><path fill-rule="evenodd" clip-rule="evenodd" d="M63.041 39.039H16.96a.96.96 0 00-.96.96 24.001 24.001 0 0048.002 0 .96.96 0 00-.96-.96zM24.737 55.94A22.11 22.11 0 0040 62.08a22.11 22.11 0 0022.06-21.121H17.94a22.11 22.11 0 006.797 14.981zM43 39v-7.844c.32.114.659.174 1 .177.593 0 1.173-.169 1.667-.485a2.905 2.905 0 001.105-1.29 2.765 2.765 0 00.17-1.662 2.84 2.84 0 00-.82-1.472 3.042 3.042 0 00-1.537-.787 3.121 3.121 0 00-1.733.164 2.976 2.976 0 00-1.346 1.059A2.79 2.79 0 0041 28.457V39h2zm.169-11.075a.93.93 0 00.124 1.21 1.031 1.031 0 001.263.12.969.969 0 00.368-.43.921.921 0 00.057-.555.946.946 0 00-.274-.49 1.013 1.013 0 00-.512-.263 1.04 1.04 0 00-.578.055.993.993 0 00-.448.353zM39 39V28.457a2.79 2.79 0 00-.506-1.597 2.976 2.976 0 00-1.346-1.059 3.121 3.121 0 00-1.733-.164 3.042 3.042 0 00-1.536.787 2.84 2.84 0 00-.821 1.472 2.765 2.765 0 00.17 1.662c.227.525.612.974 1.105 1.29a3.094 3.094 0 001.667.485 3.08 3.08 0 001-.177V39h2zm-2.169-10.01a.93.93 0 00-.124-1.21 1.031 1.031 0 00-1.263-.12.969.969 0 00-.368.43.921.921 0 00-.057.554.947.947 0 00.274.491 1.04 1.04 0 001.09.208.992.992 0 00.448-.353z" fill="#5B6770"/><path d="M49 39v-1.55a12.332 12.332 0 003.71-6.37c.545-2.43.32-4.962-.649-7.27-.968-2.306-2.633-4.282-4.783-5.674A13.402 13.402 0 0040 16c-2.594 0-5.129.744-7.278 2.136-2.15 1.392-3.816 3.368-4.783 5.675a11.976 11.976 0 00-.648 7.269A12.332 12.332 0 0031 37.45V39h2v-1.59a.92.92 0 00.03-.563.953.953 0 00-.308-.482 10.477 10.477 0 01-3.398-5.367 10.128 10.128 0 01.387-6.267 10.622 10.622 0 014.036-4.944A11.335 11.335 0 0140 17.917c2.234 0 4.415.652 6.253 1.87a10.622 10.622 0 014.036 4.945c.79 2.002.925 4.188.387 6.266a10.477 10.477 0 01-3.398 5.367.93.93 0 00-.281.438.898.898 0 00.003.515V39h2z" fill="#5B6770"/><path d="M29.138 50.86a.96.96 0 00-1.357 1.358 17.278 17.278 0 0024.438 0 .96.96 0 00-1.358-1.358 15.36 15.36 0 01-21.723 0z" fill="#DA291C"/><path fill-rule="evenodd" clip-rule="evenodd" d="M29.138 50.86a.96.96 0 00-1.357 1.358 17.278 17.278 0 0024.438 0 .96.96 0 00-1.358-1.358 15.36 15.36 0 01-21.723 0z" fill="#DA291C"/><path fill-rule="evenodd" clip-rule="evenodd" d="M63.041 39.039H16.96a.96.96 0 00-.96.96 24.001 24.001 0 0048.002 0 .96.96 0 00-.96-.96zM24.737 55.94A22.11 22.11 0 0040 62.08a22.11 22.11 0 0022.06-21.121H17.94a22.11 22.11 0 006.797 14.981z" fill="#DA291C"/><path fill-rule="evenodd" clip-rule="evenodd" d="M43 39v-7.844c.32.114.659.174 1 .177.593 0 1.173-.169 1.667-.485a2.905 2.905 0 001.105-1.29 2.765 2.765 0 00.17-1.662 2.84 2.84 0 00-.82-1.472 3.042 3.042 0 00-1.537-.787 3.121 3.121 0 00-1.733.164 2.976 2.976 0 00-1.346 1.059A2.79 2.79 0 0041 28.457V39h2zm.169-11.075a.93.93 0 00.124 1.21 1.031 1.031 0 001.263.12.969.969 0 00.368-.43.921.921 0 00.057-.555.946.946 0 00-.274-.49 1.013 1.013 0 00-.512-.263 1.04 1.04 0 00-.578.055.993.993 0 00-.448.353zM39 39V28.457a2.79 2.79 0 00-.506-1.597 2.976 2.976 0 00-1.346-1.059 3.121 3.121 0 00-1.733-.164 3.042 3.042 0 00-1.536.787 2.84 2.84 0 00-.821 1.472 2.765 2.765 0 00.17 1.662c.227.525.612.974 1.105 1.29a3.094 3.094 0 001.667.485 3.08 3.08 0 001-.177V39h2zm-2.169-10.01a.93.93 0 00-.124-1.21 1.031 1.031 0 00-1.263-.12.969.969 0 00-.368.43.921.921 0 00-.057.554.947.947 0 00.274.491 1.04 1.04 0 001.09.208.992.992 0 00.448-.353z" fill="#5B6770"/><path d="M49 39v-1.55a12.332 12.332 0 003.71-6.37c.545-2.43.32-4.962-.649-7.27-.968-2.306-2.633-4.282-4.783-5.674A13.402 13.402 0 0040 16c-2.594 0-5.129.744-7.278 2.136-2.15 1.392-3.816 3.368-4.783 5.675a11.976 11.976 0 00-.648 7.269A12.332 12.332 0 0031 37.45V39h2v-1.59a.92.92 0 00.03-.563.953.953 0 00-.308-.482 10.477 10.477 0 01-3.398-5.367 10.128 10.128 0 01.387-6.267 10.622 10.622 0 014.036-4.944A11.335 11.335 0 0140 17.917c2.234 0 4.415.652 6.253 1.87a10.622 10.622 0 014.036 4.945c.79 2.002.925 4.188.387 6.266a10.477 10.477 0 01-3.398 5.367.93.93 0 00-.281.438.898.898 0 00.003.515V39h2z" fill="#5B6770"/><rect x=".5" y=".5" width="79" height="79" rx="11.5" stroke="#333F48" stroke-opacity=".12"/></svg>