<svg width="80" height="80" fill="none" xmlns="http://www.w3.org/2000/svg"><path d="M43 52h-2l-.04-3.922L47.14 41.9a13.445 13.445 0 0013.02-13.418.96.96 0 00-.96-.96 13.445 13.445 0 00-13.418 13.02l-4.82 4.822V33.225a8.64 8.64 0 10-1.92 0v12.139l-4.821-4.821a13.445 13.445 0 00-13.418-13.02.96.96 0 00-.96.96A13.445 13.445 0 0032.862 41.9l6.178 6.178L39 52h-2c-.684 0-1.617.303-2.157.843S34 54.236 34 55v6c0 .764.303 1.536.843 2.076S36.236 64 37 64h6c.684 0 1.617-.383 2.157-.924.54-.54.843-1.392.843-2.076v-6c0-.764-.303-1.617-.843-2.157S43.764 52 43 52zm15.196-22.515a11.54 11.54 0 01-10.473 10.473 11.54 11.54 0 0110.473-10.473zm-24.915-4.843a6.72 6.72 0 116.72 6.72 6.727 6.727 0 01-6.72-6.72zm-11.476 4.843a11.54 11.54 0 0110.473 10.473 11.54 11.54 0 01-10.473-10.473zM44 61c0 .255-.101.619-.281.799-.18.1-.464.201-.719.201h-6c-.255 0-.539-.101-.719-.201-.18-.18-.281-.544-.281-.799v-6c0-.255.101-.539.281-.719.18-.18.464-.281.719-.281h6c.255 0 .539.101.719.281.18.18.281.464.281.719v6z" fill="#DA291C"/><path d="M39.35 27.448a2.866 2.866 0 01-2.23-2.806.96.96 0 00-1.92 0 4.776 4.776 0 003.719 4.677.96.96 0 10.43-1.87zM40.686 21.845a2.87 2.87 0 012.194 2.797.96.96 0 101.92 0 4.786 4.786 0 00-3.66-4.662.96.96 0 10-.454 1.865z" fill="#DA291C"/><path d="M25 56h-6c-.764 0-1.616.303-2.157.843A2.88 2.88 0 0016 58.88l.001 2.12c0 .764.303 1.616.843 2.156S18.236 64 19 64h6.041c.764 0 1.575-.304 2.115-.844.54-.54.843-1.392.843-2.156L28 59c0-.764-.305-1.617-.845-2.157S25.764 56 25 56zm1 5c0 .255-.1.539-.28.719-.18.18-.465.281-.72.281h-6c-.255 0-.539-.101-.719-.281A1.056 1.056 0 0118 61v-2.12c0-.255.101-.42.281-.6.18-.18.465-.28.72-.28h6c.255 0 .539.1.719.28.18.18.281.465.281.72v2zM61 48h-6c-.764 0-1.617.303-2.157.843S52 50.236 52 51v10c0 .764.302 1.616.842 2.156S54.195 64 54.96 64H61c.764 0 1.615-.304 2.155-.844.54-.54.845-1.392.845-2.156V51c0-.764-.304-1.617-.844-2.157S61.764 48 61 48zm1 13c0 .255-.101.539-.281.719-.18.18-.464.281-.719.281h-6.041a.96.96 0 01-.679-.281c-.18-.18-.28-.464-.28-.719V51c0-.255.101-.54.281-.72.18-.18.464-.28.719-.28h6c.255 0 .54.1.72.28.18.18.28.465.28.72v10z" fill="#5B6770"/><rect x=".5" y=".5" width="79" height="79" rx="11.5" stroke="#333F48" stroke-opacity=".12"/></svg>