<svg width="80" height="80" fill="none" xmlns="http://www.w3.org/2000/svg"><path d="M53 16.96v46.08c0 .255.105.499.293.679.188.18.442.281.707.281.265 0 .52-.101.707-.281A.941.941 0 0055 63.04V16.96a.941.941 0 00-.293-.679A1.021 1.021 0 0054 16c-.265 0-.52.101-.707.281a.941.941 0 00-.293.679z" fill="#5B6770"/><path d="M42 23.68c4.032.006 7.93 1.388 11 3.899v2.63a15.076 15.076 0 00-6.173-3.844 15.595 15.595 0 00-7.335-.562c-2.455.4-4.768 1.38-6.73 2.854a14.496 14.496 0 00-4.507 5.582 13.888 13.888 0 00-1.2 6.97 14.025 14.025 0 002.396 6.677c1.364 2 3.226 3.644 5.416 4.781A15.497 15.497 0 0042 54.4c2.065 0 4.108-.41 6-1.202a15.017 15.017 0 005-3.406v2.63a17.274 17.274 0 01-7.236 3.478 17.681 17.681 0 01-8.091-.13 17.219 17.219 0 01-7.112-3.706 16.295 16.295 0 01-4.519-6.444 15.706 15.706 0 01-.902-7.72 15.936 15.936 0 012.92-7.246 16.799 16.799 0 016.08-5.127A17.564 17.564 0 0142 23.68z" fill="#DA291C"/><path d="M39.781 27.702a1.04 1.04 0 01.747.161.977.977 0 01.269.272.936.936 0 01.13.724.94.94 0 01-.159.342.983.983 0 01-.283.258 1.026 1.026 0 01-.364.135c-2.556.42-4.875 1.694-6.545 3.6C31.906 35.099 30.994 37.51 31 40a.94.94 0 01-.293.679c-.187.18-.442.281-.707.281-.265 0-.52-.101-.707-.281A.941.941 0 0129 40c-.008-2.943 1.071-5.793 3.045-8.044 1.974-2.252 4.715-3.76 7.736-4.254zM53 46.662a12.66 12.66 0 01-3.809 3.748 13.245 13.245 0 01-5.08 1.907c-.262.041-.53-.02-.745-.168a.956.956 0 01-.403-.626.93.93 0 01.175-.715c.155-.207.39-.346.651-.387 2.577-.398 4.921-1.667 6.61-3.578 1.67-1.89 2.59-4.284 2.6-6.76v6.579z" fill="#DA291C"/><rect x=".5" y=".5" width="79" height="79" rx="11.5" stroke="#333F48" stroke-opacity=".12"/></svg>