<svg width="80" height="80" fill="none" xmlns="http://www.w3.org/2000/svg"><path d="M39.156 58.21a7.102 7.102 0 01-4.4-2.226 6.588 6.588 0 01-1.758-4.47c0-.255-.106-.499-.293-.68a1.02 1.02 0 00-.707-.28c-.265 0-.52.1-.707.28a.943.943 0 00-.293.68 8.474 8.474 0 002.263 5.747c1.46 1.585 3.472 2.602 5.658 2.859.264.03.53-.042.739-.2a.937.937 0 00.168-1.353c-.165-.2-.406-.33-.67-.36v.002zM41.112 42.915a1.04 1.04 0 00-.739.196.976.976 0 00-.255.285.938.938 0 00-.094.73.948.948 0 00.176.336c.08.1.181.183.296.246.114.062.24.102.371.117 1.694.207 3.252 1.001 4.38 2.233a6.594 6.594 0 011.751 4.46.93.93 0 00.293.679 1.035 1.035 0 001.414 0 .93.93 0 00.293-.68c.001-2.11-.8-4.15-2.252-5.733-1.452-1.584-3.455-2.604-5.634-2.87z" fill="#DA291C"/><path fill-rule="evenodd" clip-rule="evenodd" d="M30.07 43.44a12.273 12.273 0 00-2.936 6.275 12.056 12.056 0 00.965 6.818 12.625 12.625 0 004.573 5.293 13.357 13.357 0 006.795 2.163 13.422 13.422 0 006.957-1.62 12.743 12.743 0 005.01-4.916 12.096 12.096 0 001.542-6.718 12.19 12.19 0 00-2.39-6.485l-1.477-1.656c-2.423-2.31-5.699-3.603-9.111-3.597-3.103.007-6.101 1.075-8.46 3.013l-1.468 1.43zM48.374 58.34c1.687-1.905 2.617-4.323 2.624-6.825a10.369 10.369 0 00-2.313-6.516c-1.596-1.975-3.87-3.342-6.417-3.859a11.393 11.393 0 00-7.492 1.04c-2.29 1.187-4.07 3.117-5.02 5.446a10.188 10.188 0 00-.169 7.274c.84 2.368 2.527 4.372 4.76 5.657a11.374 11.374 0 007.436 1.362c2.568-.406 4.904-1.674 6.59-3.58z" fill="#DA291C"/><path fill-rule="evenodd" clip-rule="evenodd" d="M39.156 58.21a7.102 7.102 0 01-4.4-2.226 6.588 6.588 0 01-1.758-4.47c0-.255-.106-.499-.293-.68a1.02 1.02 0 00-.707-.28c-.265 0-.52.1-.707.28a.943.943 0 00-.293.68 8.474 8.474 0 002.263 5.747c1.46 1.585 3.472 2.602 5.658 2.859.264.03.53-.042.739-.2a.937.937 0 00.168-1.353c-.165-.2-.406-.33-.67-.36v.002zm1.956-15.295a1.04 1.04 0 00-.739.196.976.976 0 00-.255.285.938.938 0 00-.094.73.948.948 0 00.176.336c.08.1.181.183.296.246.114.062.24.102.371.117 1.694.207 3.252 1.001 4.38 2.233a6.594 6.594 0 011.751 4.46.93.93 0 00.293.679 1.035 1.035 0 001.414 0 .93.93 0 00.293-.68c.001-2.11-.8-4.15-2.252-5.733-1.452-1.584-3.455-2.604-5.634-2.87z" fill="#DA291C"/><path fill-rule="evenodd" clip-rule="evenodd" d="M56 19.852a3.723 3.723 0 00-.702-2.195 3.963 3.963 0 00-1.883-1.414 4.134 4.134 0 00-2.385-.123A4.008 4.008 0 0049 17.33a3.87 3.87 0 00-1.346-.986 4.109 4.109 0 00-3.305.009c-.518.23-.978.564-1.35.98a3.873 3.873 0 00-1.345-.988 4.109 4.109 0 00-3.306.008c-.517.23-.977.564-1.349.98a3.873 3.873 0 00-1.345-.988 4.02 4.02 0 00-1.655-.344 4.092 4.092 0 00-2.829 1.131A3.778 3.778 0 0030 19.854v3.372h-2.001a4.105 4.105 0 00-1.531.292 3.98 3.98 0 00-1.296.837 3.52 3.52 0 00-.89 1.224 3.397 3.397 0 00-.28 1.467v5.701c0 1.531.345 3.044 1.01 4.435a10.692 10.692 0 002.84 3.628 8.647 8.647 0 012.132 2.63l1.47-1.43a10.602 10.602 0 00-2.301-2.657 8.758 8.758 0 01-2.327-2.97 8.433 8.433 0 01-.827-3.633v-5.7c.007-.506.22-.989.595-1.344.374-.355.879-.554 1.405-.554h11.5c.534.003 1.045.21 1.42.575s.584.858.58 1.371v.056s-.01.028-.012.043c-.03.488-.252.947-.622 1.282-.369.336-.857.524-1.366.526H33c-.265 0-.52.102-.707.282a.943.943 0 00-.293.68c0 .254.106.499.293.68.188.18.442.28.707.28h6.5a4.097 4.097 0 002.281-.697 3.853 3.853 0 001.453-1.828c.388.363.848.646 1.354.831a4.096 4.096 0 003.143-.136c.486-.228.918-.55 1.27-.945.6.68 1.432 1.134 2.348 1.28A4.048 4.048 0 0054 28.946v4.165c.001 2.357-.97 4.618-2.7 6.289l-.004.004c-.951.923-1.72 2.003-2.272 3.19L50.5 44.25a8.879 8.879 0 012.21-3.488C54.817 38.73 56 35.979 56 33.11V19.85zm-2.587-1.358A2.047 2.047 0 0052 17.93v-.006c-.264 0-.524.05-.767.147-.244.097-.464.24-.65.418-.186.18-.333.393-.433.627-.1.234-.151.485-.15.738v5.777c0 .51.21 1 .586 1.36.375.36.883.563 1.414.563.53 0 1.039-.203 1.414-.563.375-.36.586-.85.586-1.36v-5.78a1.89 1.89 0 00-.587-1.357zm-6-.001A2.041 2.041 0 0046 17.93v-.006c-.264 0-.525.05-.768.147-.243.097-.464.24-.65.418-.185.18-.333.393-.432.627-.1.234-.151.485-.15.738v5.777c0 .51.21 1 .585 1.36.375.36.884.563 1.415.563.53 0 1.039-.203 1.414-.563.375-.36.586-.85.586-1.36v-5.78c0-.509-.211-.998-.586-1.358zm-6 0A2.042 2.042 0 0040 17.93v-.006c-.263 0-.524.05-.767.147-.243.097-.464.24-.65.418-.185.18-.333.393-.433.627-.1.234-.15.485-.15.738v3.372h1.5c.91 0 1.793.3 2.5.85v-4.224c0-.51-.21-.999-.585-1.36zm-8.828 0c-.375.36-.586.849-.586 1.359v3.374h4v-3.374c0-.51-.21-.999-.586-1.36A2.042 2.042 0 0034 17.93c-.53 0-1.039.203-1.414.564z" fill="#5B6770"/><rect x=".5" y=".5" width="79" height="79" rx="11.5" stroke="#333F48" stroke-opacity=".12"/></svg>