<svg width="80" height="80" fill="none" xmlns="http://www.w3.org/2000/svg"><path fill-rule="evenodd" clip-rule="evenodd" d="M24 17.001a1 1 0 112 0v11.998h4v2h-4v12h10v2H26v11h28v-11h-4v-2h4v-12h-4v-2h4V17a1 1 0 112 0v38.998h5a3 3 0 013 3v2a3 3 0 01-3 3H19a3 3 0 01-3-3v-2a3 3 0 013-3h5V17zm.933 40.998H19a1 1 0 00-1 1v2a1 1 0 001 1h42a1 1 0 001-1v-2a1 1 0 00-1-1h-5.933a1.054 1.054 0 01-.134 0H25.067a1.054 1.054 0 01-.134 0z" fill="#5B6770"/><path fill-rule="evenodd" clip-rule="evenodd" d="M34 23.999a4 4 0 00-4 4v4a4 4 0 007 2.646 3.99 3.99 0 003 1.354 3.99 3.99 0 003-1.354 4 4 0 007-2.646v-4a4 4 0 00-7-2.646 3.99 3.99 0 00-3-1.354 3.99 3.99 0 00-3 1.354 3.99 3.99 0 00-3-1.354zm2 8v-4a2 2 0 10-4 0v4a2 2 0 004 0zm2 0a2 2 0 004 0v-4a2 2 0 10-4 0v4zm6 0v-4a2 2 0 114 0v4a2 2 0 01-4 0zm-8 10a4 4 0 017-2.646 4 4 0 017 2.646v4a4 4 0 01-7 2.646 4 4 0 01-7-2.646v-4zm4-2a2 2 0 012 2v4a2 2 0 01-4 0v-4a2 2 0 012-2zm6 8a2 2 0 01-2-2v-4a2 2 0 114 0v4a2 2 0 01-2 2z" fill="#DA291C"/><rect x=".5" y=".5" width="79" height="79" rx="11.5" stroke="#333F48" stroke-opacity=".12"/></svg>