<svg width="75" height="73" fill="none" xmlns="http://www.w3.org/2000/svg"><path d="M69.999 0H5C2.244 0 0 2.26 0 5.036v41.533c0 .695.56 1.258 1.25 1.258h72.5c.69 0 1.25-.563 1.25-1.258V5.036C75 2.259 72.756 0 69.999 0zM72.5 45.31h-70V5.036a2.512 2.512 0 0 1 2.501-2.519H70A2.513 2.513 0 0 1 72.5 5.036V45.31z" fill="#2A8BFB"/><path d="M73.75 45.31H1.25c-.69 0-1.25.564-1.25 1.259v6.292c0 2.776 2.244 5.035 5.001 5.035H70c2.757 0 5.001-2.259 5.001-5.035v-6.292c0-.695-.56-1.259-1.25-1.259zm-1.25 7.55a2.513 2.513 0 0 1-2.501 2.52H5A2.512 2.512 0 0 1 2.5 52.86v-5.032h70v5.033z" fill="#2A8BFB"/><path d="M41.25 50.345h-7.5c-.69 0-1.25.564-1.25 1.258 0 .695.56 1.259 1.25 1.259h7.5c.69 0 1.25-.564 1.25-1.259 0-.694-.56-1.258-1.25-1.258zM68.75 5.035H6.25c-.69 0-1.25.563-1.25 1.258V46.57c0 .695.56 1.259 1.25 1.259h62.5c.69 0 1.25-.564 1.25-1.259V6.293c0-.695-.56-1.258-1.25-1.258zM67.5 45.31h-60V7.552h60V45.31zM53.75 65.448h-32.5c-2.067 0-3.75 1.695-3.75 3.776 0 2.082 1.683 3.776 3.75 3.776h32.5c2.068 0 3.75-1.694 3.75-3.776s-1.682-3.776-3.75-3.776zm0 5.035h-32.5c-.69 0-1.25-.565-1.25-1.259 0-.693.56-1.258 1.25-1.258h32.5c.69 0 1.25.565 1.25 1.258 0 .694-.56 1.259-1.25 1.259z" fill="#2A8BFB"/><path d="M51.25 65.448c-4.148 0-6.25-2.964-6.25-8.81 0-.695-.56-1.259-1.25-1.259h-12.5c-.69 0-1.25.564-1.25 1.259 0 5.846-2.102 8.81-6.25 8.81-.69 0-1.25.564-1.25 1.259s.56 1.258 1.25 1.258h27.5c.69 0 1.25-.564 1.25-1.258 0-.695-.56-1.259-1.25-1.259zm-21.411 0c1.539-1.716 2.445-4.273 2.627-7.551h10.069c.181 3.278 1.087 5.835 2.627 7.551H29.84z" fill="#2A8BFB"/><path d="M59.73 37.084l-3.017-3.038 1.678-1.69c.312-.314.437-.77.329-1.199a1.256 1.256 0 0 0-.852-.897l-12.5-3.776a1.242 1.242 0 0 0-1.243.316 1.261 1.261 0 0 0-.314 1.25l3.75 12.587c.127.425.465.751.892.86.424.105.878-.018 1.19-.331l1.767-1.781 3.017 3.04a1.243 1.243 0 0 0 1.768 0l3.535-3.561a1.263 1.263 0 0 0 0-1.78zm-4.419 2.67l-2.747-2.767a1.625 1.625 0 0 0-2.307-.001l-.903.908-2.481-8.328 8.27 2.499-.967.974c-.266.27-.412.627-.412 1.007 0 .381.147.741.415 1.008l2.9 2.92-1.768 1.78zM52.5 10.069h-35c-.69 0-1.25.564-1.25 1.259v6.293c0 .694.56 1.258 1.25 1.258h35c.69 0 1.25-.564 1.25-1.258v-6.293c0-.695-.56-1.259-1.25-1.259zm-1.25 6.293h-32.5v-3.776h32.5v3.776zM32.5 23.914h-10c-.69 0-1.25.564-1.25 1.258v5.035c0 .694.56 1.258 1.25 1.258h10c.69 0 1.25-.564 1.25-1.258v-5.035c0-.694-.56-1.258-1.25-1.258zm-1.25 5.034h-7.5v-2.517h7.5v2.517z" fill="#7CB9FC"/><path d="M52.5 10.069h-35c-.69 0-1.25.564-1.25 1.259V35.24c0 .695.56 1.259 1.25 1.259h29.758c.396 0 .767-.188 1.002-.507.236-.32.309-.733.195-1.114l-1.582-5.313 5.268 1.592a1.24 1.24 0 0 0 1.105-.196c.318-.236.504-.612.504-1.01V11.329c0-.695-.56-1.259-1.25-1.259zm-1.25 18.192l-5.884-1.777a1.242 1.242 0 0 0-1.242.316 1.263 1.263 0 0 0-.314 1.252l1.767 5.93H18.75V12.587h32.5v15.675z" fill="#7CB9FC"/></svg>