<svg width="75" height="71" fill="none" xmlns="http://www.w3.org/2000/svg"><path d="M74.855 38.916c-.673-6.68-3.699-12.977-8.52-17.732a29.534 29.534 0 0 0-14.47-7.835v-3.67c2.167-.533 3.778-2.467 3.778-4.767 0-2.709-2.234-4.912-4.98-4.912H40.114c-2.746 0-4.98 2.203-4.98 4.912 0 2.3 1.61 4.234 3.778 4.766v3.68A29.534 29.534 0 0 0 22 23.969c-.037-.003-.073-.005-.11-.005H11.45c-.808 0-1.464.646-1.464 1.444 0 .798.655 1.445 1.464 1.445h8.557a28.776 28.776 0 0 0-2.6 5.553H1.466C.656 32.405 0 33.05 0 33.849c0 .798.656 1.445 1.465 1.445H16.58a29.001 29.001 0 0 0-.727 5.553H9.375c-.809 0-1.465.646-1.465 1.444 0 .798.656 1.445 1.465 1.445H15.9c.123 1.87.428 3.73.914 5.553h-9.49c-.809 0-1.465.646-1.465 1.444 0 .798.656 1.445 1.465 1.445H17.75a28.972 28.972 0 0 0 6.738 10.276c4.827 4.76 11.219 7.744 17.999 8.405.968.094 1.936.141 2.903.141 5.716 0 11.36-1.631 16.148-4.707.678-.435.87-1.33.429-1.999a1.477 1.477 0 0 0-2.027-.422c-10.482 6.732-24.52 5.276-33.38-3.461-10.395-10.252-10.395-26.932 0-37.183 10.395-10.252 27.309-10.252 37.704 0 8.847 8.725 10.331 22.558 3.528 32.89-.44.67-.248 1.564.43 1.999a1.477 1.477 0 0 0 2.027-.425 28.959 28.959 0 0 0 4.607-18.776zM38.065 4.912c0-1.115.92-2.023 2.05-2.023h10.547c1.131 0 2.051.908 2.051 2.023 0 1.115-.92 2.022-2.05 2.022H40.114c-1.13 0-2.05-.907-2.05-2.022zm3.778 7.95V9.824h7.092v3.033a30.257 30.257 0 0 0-7.092.005z" fill="#2A8BFB"/><path d="M65.3 59.987c-.388 0-.764.155-1.036.423-.274.27-.43.642-.43 1.022s.156.752.43 1.02a1.477 1.477 0 0 0 2.07 0c.273-.268.43-.64.43-1.02s-.157-.753-.43-1.022a1.49 1.49 0 0 0-1.035-.423z" fill="#7CB9FC"/><path d="M45.411 19.409c-12.53 0-22.724 10.053-22.724 22.41 0 12.358 10.194 22.41 22.724 22.41s22.724-10.052 22.724-22.41c0-12.357-10.194-22.41-22.724-22.41zm0 41.932c-10.915 0-19.795-8.758-19.795-19.522s8.88-19.521 19.795-19.521c10.915 0 19.794 8.757 19.794 19.521 0 10.764-8.88 19.522-19.794 19.522z" fill="#2A8BFB"/><path d="M54.678 30.638l-7.256 7.155a4.575 4.575 0 0 0-2.01-.463c-.722 0-1.405.167-2.011.463l-3.248-3.202a1.48 1.48 0 0 0-2.071 0 1.43 1.43 0 0 0 0 2.043l3.247 3.202c-.3.598-.47 1.271-.47 1.983 0 2.475 2.042 4.489 4.552 4.489s4.552-2.014 4.552-4.49c0-.71-.17-1.384-.47-1.982l7.043-6.945.213-.21a1.43 1.43 0 0 0 0-2.043 1.48 1.48 0 0 0-2.072 0zm-9.267 12.78a1.613 1.613 0 0 1-1.622-1.599c0-.882.728-1.6 1.622-1.6.895 0 1.622.718 1.622 1.6 0 .882-.727 1.6-1.622 1.6zM61.074 40.392h-1.357c-.809 0-1.465.647-1.465 1.444 0 .798.656 1.445 1.465 1.445h1.357c.81 0 1.465-.647 1.465-1.445 0-.797-.656-1.444-1.465-1.444zM31.106 40.357h-1.357c-.81 0-1.465.646-1.465 1.444 0 .798.656 1.444 1.465 1.444h1.357c.809 0 1.465-.646 1.465-1.444 0-.798-.656-1.444-1.465-1.444zM45.429 29.155c.809 0 1.465-.646 1.465-1.444v-1.338c0-.798-.656-1.445-1.465-1.445-.81 0-1.465.647-1.465 1.445v1.338c0 .798.656 1.444 1.465 1.444zM45.393 54.482c-.809 0-1.465.647-1.465 1.444v1.338c0 .798.656 1.445 1.465 1.445s1.465-.647 1.465-1.445v-1.338c0-.797-.656-1.444-1.465-1.444zM1.465 49.288c-.385 0-.763.155-1.036.423-.272.269-.429.642-.429 1.021 0 .382.157.753.43 1.022.272.268.65.423 1.035.423.385 0 .763-.155 1.035-.423.273-.27.43-.642.43-1.022s-.157-.752-.43-1.02a1.486 1.486 0 0 0-1.035-.424z" fill="#7CB9FC"/></svg>