<svg width="75" height="58" fill="none" xmlns="http://www.w3.org/2000/svg"><path d="M71.704 29.78h-1.098v-9.77c0-2.989-1.943-5.538-4.646-6.482l-1.6-5.903c-.446-1.643-2.12-2.677-3.81-2.354l-2.032.387-.88-3.245A3.272 3.272 0 0 0 55.982.37 3.34 3.34 0 0 0 53.34.19L17.006 13.08c-.051.018-.099.04-.145.065-3.674.182-6.607 3.192-6.607 6.866v8.96C4.298 30.968 0 36.545 0 43.095 0 51.313 6.768 58 15.088 58H31.2c.607 0 1.099-.486 1.099-1.085 0-.6-.492-1.086-1.099-1.086h-8.28a15.169 15.169 0 0 0 2.8-2.17h37.194c1.818 0 3.296-1.461 3.296-3.257v-9.045h2.197v9.769c0 2.593-2.136 4.703-4.76 4.703h-27.32c-.607 0-1.099.486-1.099 1.086 0 .599.492 1.085 1.1 1.085h27.319c3.836 0 6.958-3.084 6.958-6.874v-9.769h1.098c1.818 0 3.296-1.46 3.296-3.256v-5.065c0-1.796-1.478-3.257-3.296-3.257zM60.967 7.401a1.103 1.103 0 0 1 1.27.785l1.342 4.95H30.902l30.065-5.735zm-6.884-5.168c.292-.104.605-.082.88.06.276.142.472.384.552.68l.84 3.097-28.307 5.399 26.035-9.236zM15.088 55.829c-7.108 0-12.89-5.713-12.89-12.735 0-7.023 5.782-12.736 12.89-12.736 7.108 0 12.89 5.713 12.89 12.736 0 7.022-5.782 12.735-12.89 12.735zm48.926-5.427c0 .599-.493 1.085-1.099 1.085H27.55a14.696 14.696 0 0 0 2.626-8.393c0-7.632-5.836-13.942-13.33-14.805v-3.14h2.93c.606 0 1.098-.487 1.098-1.086 0-.6-.492-1.086-1.099-1.086h-2.93v-2.243c0-.598.494-1.085 1.1-1.085h44.97c.606 0 1.099.487 1.099 1.085V25.8c0 .6.492 1.086 1.098 1.086.607 0 1.099-.486 1.099-1.086v-5.065c0-1.795-1.478-3.256-3.296-3.256H17.944c-1.817 0-3.296 1.46-3.296 3.256v7.46a15.29 15.29 0 0 0-2.197.222V20.01c0-2.594 2.136-4.704 4.76-4.704h46.437c2.624 0 4.76 2.11 4.76 4.704v9.768h-8.13c-2.221 0-4.028 1.786-4.028 3.98v3.618c0 2.195 1.807 3.98 4.028 3.98h3.736v9.045zm8.789-12.301c0 .598-.493 1.085-1.099 1.085H60.278a1.822 1.822 0 0 1-1.83-1.809V33.76c0-.997.82-1.809 1.83-1.809h11.426c.606 0 1.099.487 1.099 1.085v5.066z" fill="#2A8BFB"/><path d="M15.088 32.529c-5.896 0-10.693 4.74-10.693 10.565 0 5.825 4.797 10.564 10.693 10.564s10.693-4.74 10.693-10.564c0-5.826-4.797-10.565-10.693-10.565zm0 18.958c-4.685 0-8.496-3.765-8.496-8.393 0-4.629 3.811-8.394 8.496-8.394 4.685 0 8.496 3.765 8.496 8.394 0 4.628-3.811 8.393-8.496 8.393zM62.33 34.12c-.81 0-1.466.649-1.466 1.448 0 .8.656 1.447 1.465 1.447.81 0 1.465-.648 1.465-1.447 0-.8-.656-1.447-1.465-1.447zM27.54 22.977h-3.37c-.607 0-1.099.486-1.099 1.086 0 .6.492 1.085 1.099 1.085h3.37c.606 0 1.098-.486 1.098-1.085 0-.6-.492-1.086-1.099-1.086zM31.934 25.148h3.662c.606 0 1.098-.486 1.098-1.085 0-.6-.492-1.086-1.098-1.086h-3.662c-.607 0-1.099.486-1.099 1.086 0 .6.492 1.085 1.099 1.085zM39.99 25.148h3.662c.607 0 1.099-.486 1.099-1.085 0-.6-.492-1.086-1.099-1.086H39.99c-.607 0-1.098.486-1.098 1.086 0 .6.491 1.085 1.098 1.085zM48.047 25.148h3.662c.607 0 1.099-.486 1.099-1.085 0-.6-.492-1.086-1.099-1.086h-3.662c-.607 0-1.099.486-1.099 1.086 0 .6.492 1.085 1.099 1.085zM56.103 25.148h3.663c.606 0 1.098-.486 1.098-1.085 0-.6-.492-1.086-1.098-1.086h-3.663c-.606 0-1.098.486-1.098 1.086 0 .6.492 1.085 1.098 1.085zM35.742 46.422H32.08c-.607 0-1.099.486-1.099 1.086 0 .599.492 1.085 1.1 1.085h3.661c.607 0 1.099-.486 1.099-1.085 0-.6-.492-1.086-1.099-1.086zM43.799 46.422h-3.662c-.607 0-1.099.486-1.099 1.086 0 .599.492 1.085 1.099 1.085h3.662c.607 0 1.099-.486 1.099-1.085 0-.6-.492-1.086-1.1-1.086zM51.855 46.422h-3.662c-.606 0-1.098.486-1.098 1.086 0 .599.492 1.085 1.098 1.085h3.663c.606 0 1.098-.486 1.098-1.085 0-.6-.492-1.086-1.099-1.086zM56.25 46.422c-.607 0-1.099.486-1.099 1.086 0 .599.492 1.085 1.099 1.085h3.662c.607 0 1.099-.486 1.099-1.085 0-.6-.492-1.086-1.099-1.086H56.25z" fill="#7CB9FC"/></svg>