<svg width="145" height="145" viewBox="0 0 145 145" fill="none" xmlns="http://www.w3.org/2000/svg">
<rect x="0.5" y="0.5" width="144" height="144" rx="27.5" fill="white"/>
<path fill-rule="evenodd" clip-rule="evenodd" d="M61.1551 48.8368C66.4238 48.8368 70.6937 53.1067 70.6937 58.3754C70.6937 63.6441 66.4218 67.914 61.1551 67.914C55.8864 67.914 51.6164 63.6441 51.6164 58.3754C51.6164 53.1067 55.8864 48.8368 61.1551 48.8368ZM72.5 32.2583C94.7256 32.2583 112.742 50.2744 112.742 72.5C112.742 94.7256 94.7256 112.742 72.5 112.742C50.2764 112.742 32.2583 94.7256 32.2583 72.5C32.2583 50.2764 50.2764 32.2583 72.5 32.2583Z" fill="#00973A"/>
<rect x="0.5" y="0.5" width="144" height="144" rx="27.5" stroke="#D8DCDE"/>
</svg>
