<svg width="25" height="23" fill="none" xmlns="http://www.w3.org/2000/svg"><path d="M21.68 11.506a10.107 10.107 0 0 1-1.96 5.982 9.84 9.84 0 0 1-5.09 3.602 9.69 9.69 0 0 1-6.2-.21 9.87 9.87 0 0 1-4.845-3.937 10.125 10.125 0 0 1-1.564-6.101c.14-2.152.96-4.2 2.339-5.84A9.813 9.813 0 0 1 9.67 1.747a9.694 9.694 0 0 1 6.173.62" stroke="#fff" stroke-width="2.5" stroke-linecap="round" stroke-linejoin="round"/><path d="M22.91 2.988l-10.824 11-3.936-4" stroke="#00ABE9" stroke-width="2.5" stroke-linecap="round" stroke-linejoin="round"/></svg>