<svg width="102" height="103" fill="none" xmlns="http://www.w3.org/2000/svg"><path fill-rule="evenodd" clip-rule="evenodd" d="M8.59 91.787L3 76.147 20.135 43l11.48 4.246 11.48 4.247L25.96 84.64 8.59 91.787z" fill="url(#paint0_linear)"/><path fill-rule="evenodd" clip-rule="evenodd" d="M68.504 91.787l5.59-15.64L56.96 43l-11.48 4.246L34 51.493 51.135 84.64l17.37 7.147z" fill="url(#paint1_linear)"/><g filter="url(#filter0_d)"><path d="M38.291 5.645a1.053 1.053 0 0 1 1.418 0L42.35 8.05c.333.303.823.36 1.218.142l3.126-1.73a1.053 1.053 0 0 1 1.379.326l2.016 2.95c.254.372.718.54 1.153.42l3.44-.964a1.053 1.053 0 0 1 1.266.636l1.282 3.335c.162.42.574.692 1.025.674l3.57-.144a1.053 1.053 0 0 1 1.085.91l.479 3.541c.06.447.399.806.841.893l3.507.683c.533.104.9.596.846 1.137l-.35 3.555c-.045.449.202.876.613 1.062L72.1 26.95c.495.224.738.788.561 1.301l-1.161 3.379c-.147.426-.005.899.352 1.175l2.827 2.184c.43.332.536.937.246 1.396l-1.91 3.02c-.24.38-.212.873.072 1.224l2.247 2.778a1.053 1.053 0 0 1-.083 1.414l-2.554 2.498a1.052 1.052 0 0 0-.213 1.208l1.546 3.221c.235.49.059 1.078-.406 1.358l-3.062 1.841a1.053 1.053 0 0 0-.486 1.126l.762 3.491a1.053 1.053 0 0 1-.709 1.227l-3.403 1.086c-.43.137-.725.533-.733.984l-.064 3.572c-.01.543-.431.99-.973 1.03l-3.562.272c-.45.035-.828.352-.94.789l-.886 3.46a1.053 1.053 0 0 1-1.184.78l-3.528-.558a1.053 1.053 0 0 0-1.097.55L52.1 75.92c-.252.481-.83.691-1.332.485l-3.305-1.356a1.053 1.053 0 0 0-1.194.283l-2.345 2.695c-.356.41-.966.481-1.407.165l-2.904-2.082a1.053 1.053 0 0 0-1.226 0l-2.904 2.082a1.053 1.053 0 0 1-1.407-.165l-2.345-2.695a1.053 1.053 0 0 0-1.194-.283l-3.305 1.356a1.053 1.053 0 0 1-1.332-.485l-1.66-3.163c-.21-.4-.65-.621-1.097-.55l-3.529.557a1.053 1.053 0 0 1-1.183-.78l-.887-3.46a1.053 1.053 0 0 0-.94-.789l-3.561-.271a1.053 1.053 0 0 1-.973-1.031l-.064-3.572a1.052 1.052 0 0 0-.732-.984L7.87 60.791a1.053 1.053 0 0 1-.709-1.227l.762-3.49c.096-.441-.1-.895-.486-1.127l-3.062-1.842a1.053 1.053 0 0 1-.406-1.357l1.546-3.22c.195-.408.11-.893-.213-1.209l-2.554-2.498a1.053 1.053 0 0 1-.083-1.414l2.247-2.778c.284-.35.313-.843.072-1.225l-1.91-3.02a1.053 1.053 0 0 1 .246-1.395l2.827-2.184c.357-.276.499-.749.352-1.175L5.338 28.25a1.053 1.053 0 0 1 .56-1.301l3.255-1.474c.411-.186.658-.613.614-1.062l-.351-3.555a1.053 1.053 0 0 1 .846-1.137l3.506-.683c.443-.087.782-.446.842-.893l.479-3.54a1.053 1.053 0 0 1 1.085-.911l3.57.144c.45.018.863-.253 1.025-.674L22.05 9.83a1.053 1.053 0 0 1 1.266-.636l3.44.963c.435.122.898-.047 1.153-.42l2.017-2.949c.306-.448.903-.59 1.378-.327l3.126 1.731c.395.219.885.161 1.218-.142l2.642-2.405z" fill="url(#paint2_linear)"/></g><g filter="url(#filter1_di)"><circle cx="39.403" cy="42.403" r="29.613" fill="url(#paint3_linear)"/></g><g filter="url(#filter2_f)"><ellipse cx="24.703" cy="18.342" rx="14.937" ry="4.979" transform="rotate(-22.622 24.703 18.342)" fill="#fff"/></g><g filter="url(#filter3_f)"><path d="M64 59.5c.604 1.449-3 6-6.947 9.024-4.345 1.81-8.95 3.925-9.553 2.476-.603-1.448 3.5-3.666 7-6 4.5-3 8.897-6.948 9.5-5.5z" fill="#fff" fill-opacity=".8"/></g><defs><filter id="filter0_d" x=".747" y="1.687" width="100.507" height="100.386" filterUnits="userSpaceOnUse" color-interpolation-filters="sRGB"><feFlood flood-opacity="0" result="BackgroundImageFix"/><feColorMatrix in="SourceAlpha" values="0 0 0 0 0 0 0 0 0 0 0 0 0 0 0 0 0 0 127 0"/><feOffset dx="12" dy="10"/><feGaussianBlur stdDeviation="6.842"/><feColorMatrix values="0 0 0 0 0.4125 0 0 0 0 0.4125 0 0 0 0 0.4125 0 0 0 0.1 0"/><feBlend in2="BackgroundImageFix" result="effect1_dropShadow"/><feBlend in="SourceGraphic" in2="effect1_dropShadow" result="shape"/></filter><filter id="filter1_di" x="5.579" y="12.79" width="67.648" height="67.648" filterUnits="userSpaceOnUse" color-interpolation-filters="sRGB"><feFlood flood-opacity="0" result="BackgroundImageFix"/><feColorMatrix in="SourceAlpha" values="0 0 0 0 0 0 0 0 0 0 0 0 0 0 0 0 0 0 127 0"/><feOffset dy="4.211"/><feGaussianBlur stdDeviation="2.105"/><feColorMatrix values="0 0 0 0 0 0 0 0 0 0 0 0 0 0 0 0 0 0 0.1 0"/><feBlend in2="BackgroundImageFix" result="effect1_dropShadow"/><feBlend in="SourceGraphic" in2="effect1_dropShadow" result="shape"/><feColorMatrix in="SourceAlpha" values="0 0 0 0 0 0 0 0 0 0 0 0 0 0 0 0 0 0 127 0" result="hardAlpha"/><feOffset/><feGaussianBlur stdDeviation="2.5"/><feComposite in2="hardAlpha" operator="arithmetic" k2="-1" k3="1"/><feColorMatrix values="0 0 0 0 1 0 0 0 0 1 0 0 0 0 1 0 0 0 1 0"/><feBlend in2="shape" result="effect2_innerShadow"/></filter><filter id="filter2_f" x="1" y="0" width="47.407" height="36.683" filterUnits="userSpaceOnUse" color-interpolation-filters="sRGB"><feFlood flood-opacity="0" result="BackgroundImageFix"/><feBlend in="SourceGraphic" in2="BackgroundImageFix" result="shape"/><feGaussianBlur stdDeviation="4" result="effect1_foregroundBlur"/></filter><filter id="filter3_f" x="41.632" y="54.957" width="28.547" height="21.33" filterUnits="userSpaceOnUse" color-interpolation-filters="sRGB"><feFlood flood-opacity="0" result="BackgroundImageFix"/><feBlend in="SourceGraphic" in2="BackgroundImageFix" result="shape"/><feGaussianBlur stdDeviation="2" result="effect1_foregroundBlur"/></filter><linearGradient id="paint0_linear" x1="8.346" y1="91.603" x2="16.047" y2="72.035" gradientUnits="userSpaceOnUse"><stop stop-color="#73BDFB"/><stop offset="1" stop-color="#022A8A"/></linearGradient><linearGradient id="paint1_linear" x1="68.749" y1="91.603" x2="61.047" y2="72.035" gradientUnits="userSpaceOnUse"><stop stop-color="#73BDFB"/><stop offset="1" stop-color="#022A8A"/></linearGradient><linearGradient id="paint2_linear" x1="39" y1="5" x2="39" y2="79" gradientUnits="userSpaceOnUse"><stop stop-color="#F8D984"/><stop offset=".224" stop-color="#FDE294"/><stop offset=".693" stop-color="#F7B446"/><stop offset="1" stop-color="#FFC85C"/></linearGradient><linearGradient id="paint3_linear" x1="39.403" y1="12.79" x2="39.403" y2="72.016" gradientUnits="userSpaceOnUse"><stop stop-color="#FFF3C8"/><stop offset=".365" stop-color="#FFF8DE"/><stop offset=".62" stop-color="#FFF0BA"/><stop offset="1" stop-color="#FFE0B3"/></linearGradient></defs></svg>