<svg width="36" height="36" fill="none" xmlns="http://www.w3.org/2000/svg"><circle cx="18" cy="18" r="17.5" fill="url(#paint0_radial)" stroke="#fff"/><path d="M25.87 22.798v2.517a1.68 1.68 0 0 1-1.829 1.678 16.603 16.603 0 0 1-7.24-2.576 16.36 16.36 0 0 1-5.035-5.034 16.604 16.604 0 0 1-2.575-7.274 1.678 1.678 0 0 1 1.67-1.83h2.516a1.678 1.678 0 0 1 1.678 1.444c.107.805.304 1.596.588 2.358a1.678 1.678 0 0 1-.378 1.77L14.2 16.916a13.425 13.425 0 0 0 5.035 5.035l1.065-1.066a1.678 1.678 0 0 1 1.77-.378c.762.285 1.553.482 2.358.588a1.678 1.678 0 0 1 1.444 1.703z" fill="#fff"/><path d="M19.532 13.356a4.195 4.195 0 0 1 3.314 3.314M19.532 10a7.55 7.55 0 0 1 6.67 6.662" stroke="#fff" stroke-width="1.5" stroke-linecap="round" stroke-linejoin="round"/><defs><radialGradient id="paint0_radial" cx="0" cy="0" r="1" gradientUnits="userSpaceOnUse" gradientTransform="matrix(18 0 0 18 18 18)"><stop stop-color="#23AAED"/><stop offset=".304" stop-color="#22A6E9"/><stop offset=".633" stop-color="#1D99DD"/><stop offset=".973" stop-color="#1783C9"/><stop offset="1" stop-color="#1681C7"/></radialGradient></defs></svg>