<svg width="16" height="16" fill="none" xmlns="http://www.w3.org/2000/svg"><path d="M9.655 3.676a3.345 3.345 0 0 1 2.642 2.642M9.655 1a6.02 6.02 0 0 1 5.318 5.312m-.669 5.338v2.007a1.338 1.338 0 0 1-1.458 1.338 13.24 13.24 0 0 1-5.773-2.054 13.045 13.045 0 0 1-4.014-4.014 13.239 13.239 0 0 1-2.054-5.8A1.338 1.338 0 0 1 2.337 1.67h2.007a1.338 1.338 0 0 1 1.337 1.15c.085.643.242 1.273.469 1.88a1.338 1.338 0 0 1-.301 1.412l-.85.85a10.703 10.703 0 0 0 4.014 4.013l.85-.85a1.338 1.338 0 0 1 1.41-.3 8.59 8.59 0 0 0 1.88.468 1.338 1.338 0 0 1 1.151 1.358z" stroke="#fff" stroke-width="1.2" stroke-linecap="round" stroke-linejoin="round"/></svg>