<svg width="42" height="42" fill="none" xmlns="http://www.w3.org/2000/svg"><circle cx="21" cy="21" r="21" fill="#032A45"/><path d="M23.938 15a5 5 0 0 1 3.95 3.95M23.938 11a9 9 0 0 1 7.95 7.94m-1 7.98v3a2 2 0 0 1-2.18 2 19.791 19.791 0 0 1-8.63-3.07 19.5 19.5 0 0 1-6-6 19.791 19.791 0 0 1-3.07-8.67 2 2 0 0 1 1.99-2.18h3a2 2 0 0 1 2 1.72c.127.96.362 1.903.7 2.81a2 2 0 0 1-.45 2.11l-1.27 1.27a16.001 16.001 0 0 0 6 6l1.27-1.27a2 2 0 0 1 2.11-.45c.907.339 1.85.573 2.81.7a2 2 0 0 1 1.72 2.03z" stroke="#fff" stroke-width="1.5" stroke-linecap="round" stroke-linejoin="round"/></svg>