<svg width="16" height="15" fill="none" xmlns="http://www.w3.org/2000/svg"><path d="M9.555 11.338a.771.771 0 0 0-.389 1.035l.634 1.333a.774.774 0 0 0 1.01.376c1.1-.466 2.045-1.075 2.796-1.812.918-.867 1.54-1.864 1.876-2.964C15.82 8.193 16 6.679 16 4.75V.777A.779.779 0 0 0 15.223 0h-5.086a.779.779 0 0 0-.777.777v5.086c0 .427.35.777.777.777h2.433c-.026 1.307-.336 2.355-.906 3.145-.466.634-1.165 1.152-2.11 1.553zM.46 11.338a.772.772 0 0 0-.387 1.036l.634 1.32c.181.375.621.543 1.01.375 1.086-.466 2.018-1.074 2.782-1.799.919-.88 1.553-1.877 1.89-2.977.336-1.087.504-2.601.504-4.543V.777A.779.779 0 0 0 6.117 0H1.03a.779.779 0 0 0-.776.777v5.086c0 .428.35.777.776.777h2.447C3.45 7.947 3.14 8.995 2.57 9.785c-.466.634-1.165 1.152-2.11 1.553z" fill="#00ABE9"/></svg>