<svg width="16" height="15" fill="none" xmlns="http://www.w3.org/2000/svg"><path d="M6.445 3.209a.771.771 0 0 0 .389-1.035L6.2.84C6.018.465 5.578.297 5.19.465 4.09.931 3.145 1.54 2.394 2.277 1.475 3.144.854 4.141.518 5.241.18 6.354 0 7.868 0 9.797v3.973c0 .427.35.777.777.777h5.086c.427 0 .777-.35.777-.777V8.684a.779.779 0 0 0-.777-.777H3.43c.026-1.307.336-2.355.906-3.145.466-.634 1.165-1.152 2.11-1.553zM15.54 3.209a.771.771 0 0 0 .387-1.036l-.634-1.32c-.181-.375-.621-.543-1.01-.375-1.086.466-2.018 1.074-2.782 1.799-.919.88-1.553 1.877-1.89 2.977-.336 1.087-.504 2.601-.504 4.543v3.973c0 .427.35.777.776.777h5.087c.427 0 .776-.35.776-.777V8.684a.779.779 0 0 0-.776-.777h-2.447c.026-1.307.337-2.356.907-3.145.465-.634 1.164-1.152 2.11-1.553z" fill="#00ABE9"/></svg>