<svg width="38" height="39" fill="none" xmlns="http://www.w3.org/2000/svg"><path d="M8.915 35.212l.706.347c2.943 1.738 6.238 2.549 9.534 2.549 10.357 0 18.831-8.34 18.831-18.533 0-4.864-2-9.613-5.532-13.088a18.848 18.848 0 0 0-13.3-5.444C8.799 1.043.325 9.383.442 19.691c0 3.475 1.06 6.834 2.825 9.73l.47.695-1.882 6.833 7.061-1.737z" fill="#00E676"/><path d="M32.512 6.385C28.992 2.79 24.125.839 19.155.839 8.594.839.104 9.363.207 19.736c0 3.287.932 6.47 2.485 9.346L0 38.84l10.044-2.568c2.795 1.54 5.901 2.26 9.008 2.26C29.509 38.53 38 30.006 38 19.634c0-5.033-1.967-9.757-5.488-13.25zM19.155 35.347c-2.795 0-5.591-.719-7.972-2.157l-.622-.308-6.005 1.54 1.553-5.853-.414-.617C1.139 20.66 3.313 11.006 10.768 6.488c7.455-4.52 17.085-2.363 21.64 5.032 4.557 7.395 2.382 16.946-5.073 21.465-2.381 1.54-5.28 2.362-8.18 2.362zm9.112-11.4l-1.139-.514s-1.657-.718-2.692-1.232c-.104 0-.207-.103-.31-.103-.311 0-.518.103-.726.206 0 0-.103.102-1.553 1.746a.57.57 0 0 1-.517.308h-.104c-.103 0-.31-.103-.414-.206l-.518-.205c-1.139-.514-2.174-1.13-3.002-1.951-.208-.206-.518-.411-.725-.617-.725-.719-1.45-1.54-1.967-2.465l-.104-.205c-.104-.103-.104-.205-.207-.41 0-.206 0-.412.103-.514 0 0 .415-.514.725-.822.207-.205.31-.513.518-.719.207-.308.31-.719.207-1.027-.104-.513-1.346-3.286-1.657-3.902-.207-.309-.414-.411-.725-.514h-1.139c-.207 0-.414.103-.62.103l-.104.102c-.207.103-.414.309-.621.411-.208.206-.311.411-.518.617-.725.924-1.14 2.053-1.14 3.183 0 .822.208 1.643.519 2.362l.103.308a17.115 17.115 0 0 0 3.831 5.238l.414.411c.31.308.621.514.829.822 2.174 1.848 4.659 3.184 7.455 3.902.31.103.724.103 1.035.206h1.035c.518 0 1.14-.206 1.554-.41.31-.206.517-.206.724-.412l.207-.205c.208-.206.415-.308.622-.514.207-.205.414-.41.517-.616.208-.41.311-.924.415-1.438v-.719s-.104-.102-.311-.205z" fill="#fff"/></svg>