<svg width="22" height="22" fill="none" xmlns="http://www.w3.org/2000/svg"><path d="M18.823 3.21C16.785 1.13 13.967 0 11.09 0 4.975 0 .06 4.935.12 10.94c0 1.903.54 3.747 1.439 5.411L0 22l5.815-1.486c1.618.891 3.417 1.308 5.215 1.308 6.054 0 10.97-4.935 10.97-10.94 0-2.914-1.139-5.65-3.177-7.671zM11.09 19.979c-1.619 0-3.237-.416-4.616-1.248l-.36-.179-3.476.892.899-3.389-.24-.357C.659 11.476 1.918 5.887 6.234 3.27 10.55.654 16.125 1.903 18.763 6.184c2.637 4.28 1.379 9.81-2.937 12.427-1.38.892-3.058 1.367-4.736 1.367zm5.275-6.6l-.66-.297s-.958-.416-1.558-.713c-.06 0-.12-.06-.18-.06-.18 0-.3.06-.42.119 0 0-.06.06-.899 1.01a.33.33 0 0 1-.3.18h-.06c-.06 0-.179-.06-.239-.12l-.3-.119c-.66-.297-1.258-.654-1.738-1.13-.12-.118-.3-.237-.42-.356-.42-.416-.839-.892-1.139-1.427l-.06-.12c-.06-.059-.06-.118-.12-.237 0-.119 0-.238.06-.297 0 0 .24-.297.42-.476.12-.119.18-.297.3-.416.12-.178.18-.416.12-.595-.06-.297-.78-1.902-.96-2.26-.12-.178-.24-.237-.42-.296h-.659c-.12 0-.24.059-.36.059l-.06.06c-.119.059-.239.178-.359.237-.12.12-.18.238-.3.357-.42.535-.659 1.19-.659 1.843 0 .476.12.952.3 1.368l.06.178a9.91 9.91 0 0 0 2.218 3.033l.24.237c.18.179.36.298.48.476 1.258 1.07 2.697 1.844 4.315 2.26.18.06.42.06.6.119h.6c.299 0 .659-.12.898-.238.18-.12.3-.12.42-.238l.12-.119c.12-.119.24-.178.36-.297.12-.12.24-.238.3-.357.12-.238.179-.535.239-.832v-.417s-.06-.06-.18-.119z" fill="#0FE57D"/></svg>