<svg width="36" height="36" fill="none" xmlns="http://www.w3.org/2000/svg"><path d="M8.446 32.564l.669.33c2.787 1.645 5.91 2.413 9.031 2.413 9.813 0 17.84-7.9 17.84-17.557 0-4.608-1.895-9.107-5.24-12.4a17.856 17.856 0 0 0-12.6-5.157C8.335.193.306 8.094.418 17.86c0 3.292 1.003 6.474 2.676 9.217l.446.659-1.784 6.474 6.69-1.646z" fill="#0FE57D"/><path d="M30.801 5.254C27.466 1.85 22.856 0 18.147 0 8.142 0 .098 8.076.197 17.903c0 3.113.882 6.13 2.353 8.854L0 36l9.515-2.432c2.649 1.459 5.591 2.14 8.534 2.14C27.956 35.708 36 27.632 36 17.805c0-4.767-1.864-9.243-5.199-12.55zM18.147 32.692c-2.648 0-5.297-.681-7.553-2.043l-.589-.292-5.689 1.46 1.471-5.547-.392-.584C1.08 18.778 3.14 9.633 10.202 5.351c7.062-4.28 16.185-2.237 20.501 4.768 4.316 7.005 2.256 16.054-4.806 20.335-2.257 1.46-5.003 2.238-7.75 2.238zm8.632-10.8l-1.079-.487s-1.57-.68-2.55-1.167c-.098 0-.196-.098-.294-.098-.295 0-.49.098-.687.195 0 0-.098.097-1.471 1.654a.54.54 0 0 1-.49.292h-.099c-.098 0-.294-.097-.392-.194l-.49-.195c-1.08-.487-2.06-1.07-2.846-1.849-.196-.194-.49-.389-.686-.584-.687-.68-1.373-1.459-1.864-2.335l-.098-.194c-.098-.098-.098-.195-.196-.39 0-.194 0-.389.098-.486 0 0 .392-.486.687-.778.196-.195.294-.487.49-.681.196-.292.294-.681.196-.973-.098-.487-1.275-3.114-1.57-3.698-.196-.292-.392-.389-.686-.486h-1.079c-.196 0-.392.097-.588.097l-.099.097c-.196.098-.392.292-.588.39-.196.194-.294.389-.49.583-.687.876-1.08 1.946-1.08 3.017 0 .778.197 1.556.49 2.238l.099.291a16.214 16.214 0 0 0 3.63 4.962l.392.39c.294.292.588.486.784.778 2.06 1.751 4.415 3.016 7.063 3.697.294.098.687.098.981.195h.981c.49 0 1.079-.195 1.471-.39.295-.194.49-.194.687-.388l.196-.195c.196-.195.392-.292.589-.486.196-.195.392-.39.49-.584.196-.39.294-.876.393-1.362v-.681s-.099-.098-.295-.195z" fill="#fff"/></svg>