<svg xmlns="http://www.w3.org/2000/svg" xmlns:xlink="http://www.w3.org/1999/xlink" viewBox="0 0 98 98"><defs><circle id="a" cx="49" cy="49" r="49"/></defs><clipPath id="b"><use xlink:href="#a" overflow="visible"/></clipPath><linearGradient id="c" gradientUnits="userSpaceOnUse" x1="73.504" y1="91.442" x2="24.496" y2="6.558"><stop offset="0" stop-color="#033a82"/><stop offset=".486" stop-color="#3b9ce9"/><stop offset="1" stop-color="#bfe8fe"/></linearGradient><circle cx="49" cy="49" r="49" clip-path="url(#b)" fill="url(#c)"/><g clip-path="url(#b)"><linearGradient id="d" gradientUnits="userSpaceOnUse" x1="78.356" y1="89.729" x2="66.13" y2="68.554"><stop offset="0" stop-color="#fff" stop-opacity=".2"/><stop offset="1" stop-color="#fff" stop-opacity=".5"/></linearGradient><path d="M81.025 82.168c1.347-1.008 1.442-2.019.264-3.164-.38-.37-.362-.523.039-.841.853-.677.931-1.624.614-2.568-.313-.936-1.104-1.185-2.038-1.169-1.663.028-3.326.012-4.99.015-1.341.002-1.34-.011-.842-1.203.411-.982.873-1.95 1.073-3.008.275-1.459.16-2.884-.51-4.22-.402-.802-1.101-1.233-2.009-1.079-.944.16-1.296.886-1.218 1.743.147 1.598-.397 2.837-1.611 3.869-.543.461-.951 1.082-1.411 1.638-1.615 1.948-2.555 4.188-2.627 6.714-.085 2.979-.039 5.962-.044 8.943-.001.765.362 1.134 1.165 1.124 2.04-.024 4.08-.008 6.12-.008v-.027c1.977 0 3.954.013 5.931-.004 1.784-.015 2.442-1.039 1.71-2.644-.111-.243-.211-.385.034-.64 1.117-1.158 1.154-1.594.261-2.891-.188-.275-.185-.375.089-.58z" fill="url(#d)"/><linearGradient id="e" gradientUnits="userSpaceOnUse" x1="64.169" y1="90.304" x2="57.006" y2="77.898"><stop offset="0" stop-color="#fff" stop-opacity=".2"/><stop offset="1" stop-color="#fff" stop-opacity=".5"/></linearGradient><path d="M62.78 77.363c-1.444.026-2.889.028-4.333-.001-.887-.018-1.247.372-1.234 1.246.025 1.821.008 3.642.008 5.463 0 1.853.014 3.705-.006 5.557-.009.833.344 1.207 1.184 1.194 1.475-.023 2.952-.019 4.427-.002.798.009 1.126-.354 1.123-1.146-.015-3.705-.016-7.41.002-11.115.003-.829-.322-1.211-1.171-1.196z" fill="url(#e)"/></g><g clip-path="url(#b)"><linearGradient id="f" gradientUnits="userSpaceOnUse" x1="88.906" y1="61.594" x2="68.577" y2="26.384"><stop offset="0" stop-color="#fff" stop-opacity=".2"/><stop offset="1" stop-color="#fff" stop-opacity=".5"/></linearGradient><path d="M93.345 49.022c2.239-1.676 2.398-3.358.44-5.26-.633-.615-.602-.869.065-1.398 1.418-1.125 1.548-2.7 1.022-4.27-.521-1.556-1.836-1.97-3.388-1.945-2.765.046-5.531.021-8.297.025-2.23.003-2.229-.019-1.4-2.001.684-1.634 1.452-3.242 1.784-5.001.457-2.427.267-4.795-.848-7.017-.669-1.334-1.83-2.049-3.341-1.794-1.57.266-2.156 1.473-2.025 2.898.244 2.657-.661 4.717-2.68 6.433-.902.767-1.581 1.8-2.347 2.723-2.686 3.24-4.249 6.965-4.368 11.165-.141 4.954-.066 9.914-.073 14.871-.002 1.273.603 1.886 1.936 1.87 3.392-.041 6.784-.013 10.176-.013v-.046c3.288 0 6.576.022 9.863-.007 2.967-.026 4.061-1.727 2.844-4.397-.184-.404-.352-.641.057-1.064 1.857-1.926 1.918-2.651.434-4.807-.316-.458-.31-.624.146-.965z" fill="url(#f)"/><linearGradient id="g" gradientUnits="userSpaceOnUse" x1="65.316" y1="62.552" x2="53.405" y2="41.922"><stop offset="0" stop-color="#fff" stop-opacity=".2"/><stop offset="1" stop-color="#fff" stop-opacity=".5"/></linearGradient><path d="M63.005 41.033c-2.401.043-4.804.047-7.205-.001-1.475-.029-2.073.618-2.053 2.073.042 3.028.013 6.056.013 9.085 0 3.081.024 6.161-.01 9.241-.016 1.385.571 2.007 1.969 1.985 2.453-.038 4.908-.031 7.362-.003 1.327.015 1.873-.589 1.868-1.905-.024-6.161-.027-12.322.003-18.483.006-1.383-.534-2.017-1.947-1.992z" fill="url(#g)"/></g><g clip-path="url(#b)"><linearGradient id="h" gradientUnits="userSpaceOnUse" x1="15.356" y1="49.729" x2="3.13" y2="28.554"><stop offset="0" stop-color="#fff" stop-opacity=".2"/><stop offset="1" stop-color="#fff" stop-opacity=".5"/></linearGradient><path d="M18.025 42.168c1.347-1.008 1.442-2.019.264-3.164-.38-.37-.362-.523.039-.841.853-.677.931-1.624.614-2.568-.313-.936-1.104-1.185-2.038-1.169-1.663.028-3.326.012-4.99.015-1.341.002-1.34-.011-.842-1.203.411-.982.873-1.95 1.073-3.008.275-1.459.16-2.884-.51-4.22-.402-.802-1.101-1.233-2.009-1.079-.944.16-1.296.886-1.218 1.743.147 1.598-.397 2.837-1.611 3.869-.543.461-.951 1.082-1.411 1.638-1.615 1.948-2.555 4.188-2.627 6.714-.085 2.979-.039 5.962-.044 8.943-.001.765.362 1.134 1.165 1.124 2.04-.024 4.08-.008 6.12-.008v-.027c1.977 0 3.954.013 5.931-.004 1.784-.015 2.442-1.039 1.71-2.644-.111-.243-.211-.385.034-.64 1.117-1.158 1.154-1.594.261-2.891-.188-.275-.185-.375.089-.58z" fill="url(#h)"/><linearGradient id="i" gradientUnits="userSpaceOnUse" x1="1.169" y1="50.304" x2="-5.994" y2="37.898"><stop offset="0" stop-color="#fff" stop-opacity=".2"/><stop offset="1" stop-color="#fff" stop-opacity=".5"/></linearGradient><path d="M-.22 37.363c-1.444.026-2.889.028-4.333-.001-.887-.018-1.247.372-1.234 1.246.025 1.821.008 3.642.008 5.463 0 1.853.014 3.705-.006 5.557-.009.833.344 1.207 1.184 1.194 1.475-.023 2.952-.019 4.427-.002.798.009 1.126-.354 1.123-1.146-.015-3.705-.016-7.41.002-11.115.003-.829-.322-1.211-1.171-1.196z" fill="url(#i)"/></g><g clip-path="url(#b)"><linearGradient id="j" gradientUnits="userSpaceOnUse" x1="49.356" y1="17.729" x2="37.13" y2="-3.446"><stop offset="0" stop-color="#fff" stop-opacity=".2"/><stop offset="1" stop-color="#fff" stop-opacity=".5"/></linearGradient><path d="M52.025 10.168c1.347-1.008 1.442-2.019.264-3.164-.38-.37-.362-.523.039-.841.853-.677.931-1.624.614-2.568-.313-.936-1.104-1.185-2.038-1.169-1.663.028-3.326.012-4.99.015-1.341.002-1.34-.011-.842-1.203.411-.982.873-1.95 1.073-3.008.275-1.459.16-2.884-.51-4.22-.402-.802-1.101-1.233-2.009-1.079-.944.16-1.296.886-1.218 1.743.147 1.598-.397 2.837-1.611 3.869-.543.461-.951 1.082-1.411 1.638-1.615 1.948-2.555 4.188-2.627 6.714-.085 2.979-.039 5.962-.044 8.943-.001.765.362 1.134 1.165 1.124 2.04-.024 4.08-.008 6.12-.008v-.027c1.977 0 3.954.013 5.931-.004 1.784-.015 2.442-1.039 1.71-2.644-.111-.243-.211-.385.034-.64 1.117-1.158 1.154-1.594.261-2.891-.188-.275-.185-.375.089-.58z" fill="url(#j)"/><linearGradient id="k" gradientUnits="userSpaceOnUse" x1="35.169" y1="18.304" x2="28.006" y2="5.898"><stop offset="0" stop-color="#fff" stop-opacity=".2"/><stop offset="1" stop-color="#fff" stop-opacity=".5"/></linearGradient><path d="M33.78 5.363c-1.444.026-2.889.028-4.333-.001-.887-.017-1.247.372-1.235 1.247.025 1.821.008 3.642.008 5.463 0 1.853.014 3.705-.006 5.557-.009.833.344 1.207 1.184 1.194 1.475-.023 2.952-.019 4.427-.002.798.009 1.126-.354 1.123-1.146-.015-3.705-.016-7.41.002-11.115.004-.83-.321-1.212-1.17-1.197z" fill="url(#k)"/></g><g clip-path="url(#b)"><linearGradient id="l" gradientUnits="userSpaceOnUse" x1="83.356" y1="27.729" x2="71.13" y2="6.554"><stop offset="0" stop-color="#fff" stop-opacity=".2"/><stop offset="1" stop-color="#fff" stop-opacity=".5"/></linearGradient><path d="M86.025 20.168c1.347-1.008 1.442-2.019.264-3.164-.38-.37-.362-.523.039-.841.853-.677.931-1.624.614-2.568-.313-.936-1.104-1.185-2.038-1.169-1.663.028-3.326.012-4.99.015-1.341.002-1.34-.011-.842-1.203.411-.982.873-1.95 1.073-3.008.275-1.459.16-2.884-.51-4.22-.402-.802-1.101-1.233-2.009-1.079-.944.16-1.296.886-1.218 1.743.147 1.598-.397 2.837-1.611 3.869-.543.461-.951 1.082-1.411 1.638-1.615 1.948-2.555 4.188-2.627 6.714-.085 2.979-.039 5.962-.044 8.943-.001.765.362 1.134 1.165 1.124 2.04-.024 4.08-.008 6.12-.008v-.027c1.977 0 3.954.013 5.931-.004 1.784-.015 2.442-1.039 1.71-2.644-.111-.243-.211-.385.034-.64 1.117-1.158 1.154-1.594.261-2.891-.188-.275-.185-.375.089-.58z" fill="url(#l)"/><linearGradient id="m" gradientUnits="userSpaceOnUse" x1="69.169" y1="28.304" x2="62.006" y2="15.898"><stop offset="0" stop-color="#fff" stop-opacity=".2"/><stop offset="1" stop-color="#fff" stop-opacity=".5"/></linearGradient><path d="M67.78 15.363c-1.444.026-2.889.028-4.333-.001-.887-.018-1.247.372-1.234 1.246.025 1.821.008 3.642.008 5.463 0 1.853.014 3.705-.006 5.557-.009.833.344 1.207 1.184 1.194 1.475-.023 2.952-.019 4.427-.002.798.009 1.126-.354 1.123-1.146-.015-3.705-.016-7.41.002-11.115.003-.829-.322-1.211-1.171-1.196z" fill="url(#m)"/></g><g clip-path="url(#b)"><linearGradient id="n" gradientUnits="userSpaceOnUse" x1="26.356" y1="85.729" x2="14.13" y2="64.554"><stop offset="0" stop-color="#fff" stop-opacity=".2"/><stop offset="1" stop-color="#fff" stop-opacity=".5"/></linearGradient><path d="M29.025 78.168c1.347-1.008 1.442-2.019.264-3.164-.38-.37-.362-.523.039-.841.853-.677.931-1.624.614-2.568-.313-.936-1.104-1.185-2.038-1.169-1.663.028-3.326.012-4.99.015-1.341.002-1.34-.011-.842-1.203.411-.982.873-1.95 1.073-3.008.275-1.459.16-2.884-.51-4.22-.402-.802-1.101-1.233-2.009-1.079-.944.16-1.296.886-1.218 1.743.147 1.598-.397 2.837-1.611 3.869-.543.461-.951 1.082-1.411 1.638-1.615 1.948-2.555 4.188-2.627 6.714-.085 2.979-.039 5.962-.044 8.943-.001.765.362 1.134 1.165 1.124 2.04-.024 4.08-.008 6.12-.008v-.027c1.977 0 3.954.013 5.931-.004 1.784-.015 2.442-1.039 1.71-2.644-.111-.243-.211-.385.034-.64 1.117-1.158 1.154-1.594.261-2.891-.188-.275-.185-.375.089-.58z" fill="url(#n)"/><linearGradient id="o" gradientUnits="userSpaceOnUse" x1="12.169" y1="86.304" x2="5.006" y2="73.898"><stop offset="0" stop-color="#fff" stop-opacity=".2"/><stop offset="1" stop-color="#fff" stop-opacity=".5"/></linearGradient><path d="M10.78 73.363c-1.444.026-2.889.028-4.333-.001-.887-.017-1.247.372-1.235 1.247.025 1.821.008 3.642.008 5.463 0 1.853.014 3.705-.006 5.557-.009.833.344 1.207 1.184 1.194 1.475-.023 2.952-.019 4.427-.002.798.009 1.126-.354 1.123-1.146-.015-3.705-.016-7.41.002-11.115.004-.83-.321-1.212-1.17-1.197z" fill="url(#o)"/></g><linearGradient id="p" gradientUnits="userSpaceOnUse" x1="63.202" y1="87.182" x2="17.114" y2="7.357"><stop offset=".307" stop-color="#ff950d"/><stop offset=".756" stop-color="#ffc107"/></linearGradient><path clip-path="url(#b)" fill="url(#p)" d="M66 55l.107-47H16v47H-4l45 45 45-45z"/><g clip-path="url(#b)"><linearGradient id="q" gradientUnits="userSpaceOnUse" x1="27.882" y1="70.322" x2="24.231" y2="62.493"><stop offset=".129" stop-color="#f8951d"/><stop offset=".554" stop-color="#ff7238"/><stop offset=".912" stop-color="#cc441f"/></linearGradient><path fill="url(#q)" d="M21 64h6l3.5 3.5-3 3z"/><linearGradient id="r" gradientUnits="userSpaceOnUse" x1="55.917" y1="61.095" x2="45.338" y2="38.408"><stop offset=".129" stop-color="#f8951d"/><stop offset=".554" stop-color="#ff7238"/><stop offset=".912" stop-color="#cc441f"/></linearGradient><path fill="url(#r)" d="M33 53h6.5L53 47l4.148-14.099 8.928 8.928V51L56.038 61.038H41z"/><linearGradient id="s" gradientUnits="userSpaceOnUse" x1="47.791" y1="92.564" x2="34.209" y2="63.436"><stop offset=".129" stop-color="#f8951d"/><stop offset=".554" stop-color="#ff7238"/><stop offset="1" stop-color="#cc441f"/></linearGradient><path fill="url(#s)" d="M27 70l22 22 6-6-22-22z"/><linearGradient id="t" gradientUnits="userSpaceOnUse" x1="58.007" y1="84.598" x2="45.651" y2="58.101"><stop offset=".129" stop-color="#f8951d"/><stop offset=".554" stop-color="#ff7238"/><stop offset="1" stop-color="#cc441f"/></linearGradient><path fill="url(#t)" d="M33 64l20-6 15 15-13 13z"/><linearGradient id="u" gradientUnits="userSpaceOnUse" x1="50.178" y1="49.249" x2="41.269" y2="30.144"><stop offset=".129" stop-color="#f8951d"/><stop offset=".554" stop-color="#ff7238"/><stop offset="1" stop-color="#cc441f"/></linearGradient><path fill="url(#u)" d="M33 34l13 13h9v-9l-4-4z"/><linearGradient id="v" gradientUnits="userSpaceOnUse" x1="36.353" y1="59.835" x2="33.136" y2="52.937"><stop offset=".129" stop-color="#f8951d"/><stop offset=".554" stop-color="#ff7238"/><stop offset="1" stop-color="#cc441f"/></linearGradient><path fill="url(#v)" d="M33 53l4.917 4.917L36 60l-3-2.083z"/><linearGradient id="w" gradientUnits="userSpaceOnUse" x1="40.661" y1="49.49" x2="33.36" y2="33.832"><stop offset=".129" stop-color="#f8951d"/><stop offset=".554" stop-color="#ff7238"/><stop offset="1" stop-color="#cc441f"/></linearGradient><path fill="url(#w)" d="M33 34l13 13H33z"/></g><path d="M48 28H27v30h-6v6h6v6h6v-6h20v-6H33v-5h15c6.065 0 11-4.935 11-11v-3c0-6.065-4.935-11-11-11zm5 14c0 2.757-2.243 5-5 5H33V34h15c2.757 0 5 2.243 5 5v3z" clip-path="url(#b)" fill="#fff"/></svg>