<svg xmlns="http://www.w3.org/2000/svg" xmlns:xlink="http://www.w3.org/1999/xlink" viewBox="0 0 98 98"><pattern width="72" height="72" patternUnits="userSpaceOnUse" id="g" viewBox="4.231 -74.211 72 72" overflow="visible"><g fill="none"><path d="M4.231-74.211h72v72h-72z"/><g stroke="#fff" stroke-width=".3"><path d="M70.991-1.252l1.113-2.96M66.153-1.116l-.627-3.277M50.938-.263l.115-2.997M35.239-1.859l-1.424-2.054M18.971-1.726l1.327-1.951M7.913-.394L6.249-2.708M58.499-.083l2-3"/></g><g stroke="#fff" stroke-width=".3"><path d="M77.776-50.101h-3M76.776-34.351l-2 1.5"/></g><g stroke="#fff" stroke-width=".3"><path d="M8.776-63.351l-2.75 2M7.276-7.101l-2.25 1.75M76.276-67.101l-3.25.75M75.026-55.351l-2.5 1.75M77.776-50.101h-3M74.526-42.601l-2.75-1.75M76.776-34.351l-2 1.5M74.276-22.351l-2.75-2.25M76.276-11.351l-4.25-.75M66.526-13.101l-2.25 1.75M74.776-29.101h-3M61.026-56.601l-1.893-2.824M31.026-58.101l-1.654-2.563M46.067-62.544l1.854-2.682M70.991-1.252l1.113-2.96M66.153-1.116l-.627-3.277M60.026-26.101l-1.893-2.824M51.68-54.536l-1.654-2.565M50.938-.263l.115-2.997M43.567-3.794l1.854-2.682M35.239-1.859l-1.424-2.054M53.342-33.312l2.352-2.663M18.971-1.726l1.327-1.951M12.274-3.231l.91-4.217M7.913-.394L6.249-2.708M30.067-4.057l.115-2.998M10.276-68.851l3.5 1.5M7.526-53.351l.25-3.25M11.026-30.351l1.5 3.75M8.276-35.851l2.25-3.75M32.276-69.601l-2.25 2.5M36.526-69.601l3.25 2.75M53.276-69.601l3.25 2M55.526-63.601l-2 3.25M62.526-64.851l5-2.25M70.026-61.351l-2.5 1.75M21.776-69.351v3M18.776-64.351l-3.25.5M23.026-59.851l.5 3.25M24.026-64.351l3.5-.75M12.276-52.601l2.75-2M10.526-10.101l.25-4M10.276-18.351l2.25-2.5M24.276-8.351l-2.5-3.5M32.776-45.601l-2.5 1.75M60.776-40.351l-2.75-1.5M29.776-34.101l-3.75-.75M34.526-24.601l-2 1.5M32.026-12.601l-2.75-2.25M35.276-8.351l-2-1.25M32.526-19.351h-3M42.776-55.101l-2.5 1.75M45.526-49.851h-3M42.276-42.351l-2.75-1.75M41.526-31.601l-.75 2.5M42.026-22.101l-2.75-2.25M42.526-14.101l-2-1.25M65.999-29.583h-3M25.276-31.101l2.5 1.75M30.026-53.601h3M17.776-39.351l2.5 1.75M15.026-34.101h3M18.276-26.601l2.75-1.75M50.276-41.101l2.385-1.56M50.614-48.63l2.383 1.821M57.749-52.616l-.223 3.015M48.362-8.538l3.049.127M49.364-14.38l2.383 1.821M56.499-18.366l1.123 3.059M51.276-30.601l-2.5 1.75M51.026-23.101l-3.25-1M60.026-7.601l-2.75-1.75M67.526-33.101l-2.75-1.75M65.276-22.101l-2 1.5M22.612-44.538l3.049.127M23.614-50.38l2.383 1.821M60.776-45.601l2.721.542M18.026-18.351l.5 3.25M20.026-20.351l3.5-.75M35.776-61.351l4 .75M36.499-40.583l.5 3.5M67.526-51.101l-2.5-1.25M13.026-60.601l3.25 2.75M7.776-44.601l-2.5 1.75M18.776-50.101l-2 1.5M44.317-69.294l1.854-2.682M67.567-39.044l1.854-2.682M36.817-47.794l.709-2.807M23.317-15.294l.709-2.807M34.776-31.351l-2 1.5M5.776-50.101h-3M4.776-34.351l-2 1.5M70.991-73.252l1.113-2.96M66.153-73.116l-.627-3.277M50.938-72.263l.115-2.997M35.239-73.859l-1.424-2.054M18.971-73.726l1.327-1.951M7.913-72.394l-1.664-2.314M8.276-22.101l-3.75-.75M71.393-16.76l-1.894-2.823M26.999-38.083l.683-2.789M47.776-37.101l-2 1.5M58.499-72.083l2-3M58.499-.083l2-3"/></g><g stroke="#fff" stroke-width=".3"><path d="M4.276-67.101l-3.25.75M5.776-50.101h-3M4.776-34.351l-2 1.5M4.276-11.351l-4.25-.75"/></g><g stroke="#fff" stroke-width=".3"><path d="M70.991-73.252l1.113-2.96M66.153-73.116l-.627-3.277M50.938-72.263l.115-2.997M35.239-73.859l-1.424-2.054M18.971-73.726l1.327-1.951M7.913-72.394l-1.664-2.314M58.499-72.083l2-3"/></g></g></pattern><defs><circle id="a" cx="49" cy="49" r="49"/></defs><clipPath id="b"><use xlink:href="#a" overflow="visible"/></clipPath><linearGradient id="c" gradientUnits="userSpaceOnUse" x1="73.504" y1="91.442" x2="24.496" y2="6.558"><stop offset="0" stop-color="#033a82"/><stop offset=".486" stop-color="#3b9ce9"/><stop offset="1" stop-color="#bfe8fe"/></linearGradient><circle cx="49" cy="49" r="49" clip-path="url(#b)" fill="url(#c)"/><linearGradient id="d" gradientUnits="userSpaceOnUse" x1="22.284" y1="23.188" x2="13.985" y2="8.814"><stop offset="0" stop-color="#fff" stop-opacity=".2"/><stop offset="1" stop-color="#fff" stop-opacity=".5"/></linearGradient><path d="M27 14c-.496 0-.956.132-1.368.344a3.989 3.989 0 0 0-2.956-2.276A5.997 5.997 0 0 0 17 8a5.998 5.998 0 0 0-5.664 4.034c-.112-.01-.221-.034-.336-.034a4 4 0 0 0 0 8h16a3 3 0 1 0 0-6z" clip-path="url(#b)" fill="url(#d)"/><linearGradient id="e" gradientUnits="userSpaceOnUse" x1="83.199" y1="27.047" x2="70.059" y2="4.288" gradientTransform="matrix(-1 0 0 1 144.417 0)"><stop offset="0" stop-color="#fff" stop-opacity=".2"/><stop offset="1" stop-color="#fff" stop-opacity=".5"/></linearGradient><path d="M53.75 12.5c.785 0 1.514.208 2.166.545a6.317 6.317 0 0 1 4.68-3.604C61.87 5.697 65.408 3 69.583 3c4.155 0 7.677 2.671 8.968 6.387.178-.015.35-.054.532-.054a6.333 6.333 0 1 1 0 12.666H53.75a4.749 4.749 0 1 1 0-9.499z" clip-path="url(#b)" fill="url(#e)"/><path d="M45.47 73.034h10.624l9.658.966 5.795-2.897h8.692L87 70.137l-4.829-6.761.966-4.829-4.829-2.897v-5.795s0-3.863-1.932-4.829c-1.932-.966-6.761-2.897-6.761-3.863 0-.966-3.863-5.795-3.863-5.795l-3.863-4.829-4.829-.966-4.829-3.863-2.897 1.932-3.863-3.863-6.761-5.795-4.829 3.863-1.932 2.897-4.829-1.932-2.897 4.829-4.829-1.932-2.897 1.932-3.863 1.932-2.897 1.932-.966-1.932-5.797 2.897 1.932 3.863-6.761-2.897-2.897 2.897-3.863 3.863 1.932 5.795-4.829 1.932-1.932.966.966 3.863-5.795.966-2.897.966-4.83 5.795v6.761l4.829 5.795H45.47z" clip-path="url(#b)" fill="#1e84ce"/><path d="M74.923 71.231h8.462l7.692.769 4.615-2.308h6.923l5.385-.769-3.846-5.385.769-3.846-3.846-2.308v-4.615s0-3.077-1.538-3.846-5.385-2.308-5.385-3.077-3.077-4.615-3.077-4.615L88 37.385l-3.846-.769-3.846-3.077L78 35.077 74.923 32l-5.385-4.615-3.846 3.077-1.538 2.308-3.846-1.538L58 35.077l-3.846-1.538-2.308 1.538-3.077 1.538-2.308 1.538-.769-1.538-4.615 2.308L42.615 42l-5.385-2.308L34.923 42l-3.077 3.077 1.538 4.615-3.846 1.538L28 52l.769 3.077-4.615.769-2.308.769L18 61.231v5.385l3.846 4.615h53.077z" clip-path="url(#b)" fill="#1e84ce"/><linearGradient id="f" gradientUnits="userSpaceOnUse" x1="54.981" y1="90.463" x2="31.303" y2="25.408"><stop offset=".156" stop-color="#cc441f"/><stop offset="1" stop-color="#efaf67"/></linearGradient><path d="M33.222 76.059h-9.778L14.556 77l-5.333-2.822h-8L-5 73.238l4.444-6.584-.889-4.703L3 59.128v-5.644s0-3.762 1.778-4.703S11 45.96 11 45.019s3.556-5.644 3.556-5.644l3.556-4.703 4.444-.941L27 29.969l2.667 1.881 3.556-3.762 6.222-5.644 4.444 3.762 1.778 2.822 4.444-1.881 2.667 4.703 4.444-1.881 2.667 1.881 3.556 1.881 2.667 1.881.888-1.88 5.333 2.822-1.778 3.762 6.222-2.822 2.667 2.822L83 44.079l-1.778 5.644 4.444 1.881 1.778.941-.889 3.762 5.333.941 2.667.941L99 63.831v6.584l-4.444 5.644H33.222z" clip-path="url(#b)" fill="url(#f)"/><pattern id="h" xlink:href="#g" patternTransform="matrix(.8889 0 0 .9406 -833.863 -467.746)"/><path d="M33.222 76.059h-9.778L14.556 77l-5.333-2.822h-8L-5 73.238l4.444-6.584-.889-4.703L3 59.128v-5.644s0-3.762 1.778-4.703S11 45.96 11 45.019s3.556-5.644 3.556-5.644l3.556-4.703 4.444-.941L27 29.969l2.667 1.881 3.556-3.762 6.222-5.644 4.444 3.762 1.778 2.822 4.444-1.881 2.667 4.703 4.444-1.881 2.667 1.881 3.556 1.881 2.667 1.881.888-1.88 5.333 2.822-1.778 3.762 6.222-2.822 2.667 2.822L83 44.079l-1.778 5.644 4.444 1.881 1.778.941-.889 3.762 5.333.941 2.667.941L99 63.831v6.584l-4.444 5.644H33.222z" opacity=".5" clip-path="url(#b)" fill="url(#h)"/><linearGradient id="i" gradientUnits="userSpaceOnUse" x1="40.102" y1="91.518" x2="25.781" y2="52.172"><stop offset=".156" stop-color="#cc441f"/><stop offset="1" stop-color="#efaf67"/></linearGradient><path clip-path="url(#b)" fill="url(#i)" d="M13 77l3 2h4l5 4 13-1 11-1 5 1 5-1h10l-2-4h-6v-3l-3-1-2-1v-2l-3 1-1-4v-1l-5-1-1-3v-1h-5v-3h-3v-2l-2-2-3-1 1-2h-5l-2 3h-3l-4 4 1 1-2 2-5-1-2 3-3 4 1 2-5-2-2 3-2 4 3 2 2 1z"/><pattern id="j" xlink:href="#g" patternTransform="translate(0 -1)"/><path opacity=".5" clip-path="url(#b)" fill="url(#j)" d="M13 77l3 2h4l5 4 13-1 11-1 5 1 5-1h10l-2-4h-6v-3l-3-1-2-1v-2l-3 1-1-4v-1l-5-1-1-3v-1h-5v-3h-3v-2l-2-2-3-1 1-2h-5l-2 3h-3l-4 4 1 1-2 2-5-1-2 3-3 4 1 2-5-2-2 3-2 4 3 2 2 1z"/><linearGradient id="k" gradientUnits="userSpaceOnUse" x1="65.503" y1="84.004" x2="58.196" y2="63.928"><stop offset=".156" stop-color="#cc441f"/><stop offset="1" stop-color="#efaf67"/></linearGradient><path clip-path="url(#b)" fill="url(#k)" d="M45 79h6l2 2h5l3.6 1H68l7-2 3-2h4l-2-4-3-1-2-3-3-1-2-2-6 1-2.4-4H58l-4 4h-3l-2 5-3 3z"/><pattern id="l" xlink:href="#g" patternTransform="translate(0 -1)"/><path opacity=".5" clip-path="url(#b)" fill="url(#l)" d="M45 79h6l2 2h5l3.6 1H68l7-2 3-2h4l-2-4-3-1-2-3-3-1-2-2-6 1-2.4-4H58l-4 4h-3l-2 5-3 3z"/><linearGradient id="m" gradientUnits="userSpaceOnUse" x1="5" y1="77" x2="33" y2="77"><stop offset="0" stop-color="#fff" stop-opacity=".5"/><stop offset="1" stop-color="#fff" stop-opacity="0"/></linearGradient><path clip-path="url(#b)" fill="url(#m)" d="M5 71h28v12H5z"/><linearGradient id="n" gradientUnits="userSpaceOnUse" x1="17" y1="81" x2="91" y2="81"><stop offset="0" stop-color="#fff" stop-opacity=".5"/><stop offset="1" stop-color="#fff" stop-opacity="0"/></linearGradient><path clip-path="url(#b)" fill="url(#n)" d="M33 73h58v16H17l.044-5.27L28 84z"/><g clip-path="url(#b)"><path fill="#f8941d" d="M7 74h24l2-3h4v1h-2l-4 11H9l-2-7z"/><path fill="#fec111" d="M30 76l-2 5h-4l2-5zM23 76l-2 5h-4l2-5zM16 76l-2 5h-4l2-5z"/><path fill="#0294fe" d="M35 74v9h8v-4l-3-5z"/><path fill="#0453a1" d="M37 75h2l2 3v1h-4zM9 83h34v2H9z"/><circle cx="37.5" cy="84.5" r="2.5" fill="#1a1a1a"/><circle cx="37.5" cy="84.5" r="1.5" fill="#b3b3b3"/><circle cx="18.5" cy="84.5" r="2.5" fill="#1a1a1a"/><circle cx="18.5" cy="84.5" r="1.5" fill="#b3b3b3"/><circle cx="13.5" cy="84.5" r="2.5" fill="#1a1a1a"/><circle cx="13.5" cy="84.5" r="1.5" fill="#b3b3b3"/></g><g clip-path="url(#b)"><path fill="#f8941d" d="M65 76h24l2-3h4v1h-2l-4 11H67l-2-7z"/><path fill="#fec111" d="M88 78l-2 5h-4l2-5zM81 78l-2 5h-4l2-5zM74 78l-2 5h-4l2-5z"/><path fill="#0294fe" d="M93 76v9h8v-4l-3-5z"/><path fill="#0453a1" d="M95 77h2l2 3v1h-4zM67 85h34v2H67z"/><circle cx="95.5" cy="86.5" r="2.5" fill="#1a1a1a"/><circle cx="95.5" cy="86.5" r="1.5" fill="#b3b3b3"/><circle cx="76.5" cy="86.5" r="2.5" fill="#1a1a1a"/><circle cx="76.5" cy="86.5" r="1.5" fill="#b3b3b3"/><circle cx="71.5" cy="86.5" r="2.5" fill="#1a1a1a"/><circle cx="71.5" cy="86.5" r="1.5" fill="#b3b3b3"/></g><g clip-path="url(#b)"><path fill="#f8941d" d="M27 85h24l2-3h4v1h-2l-4 11H29l-2-7z"/><path fill="#fec111" d="M50 87l-2 5h-4l2-5zM43 87l-2 5h-4l2-5zM36 87l-2 5h-4l2-5z"/><path fill="#0294fe" d="M55 85v9h8v-4l-3-5z"/><path fill="#0453a1" d="M57 86h2l2 3v1h-4zM29 94h34v2H29z"/><circle cx="57.5" cy="95.5" r="2.5" fill="#1a1a1a"/><circle cx="57.5" cy="95.5" r="1.5" fill="#b3b3b3"/><circle cx="38.5" cy="95.5" r="2.5" fill="#1a1a1a"/><circle cx="38.5" cy="95.5" r="1.5" fill="#b3b3b3"/><circle cx="33.5" cy="95.5" r="2.5" fill="#1a1a1a"/><circle cx="33.5" cy="95.5" r="1.5" fill="#b3b3b3"/></g></svg>