<svg xmlns="http://www.w3.org/2000/svg" xmlns:xlink="http://www.w3.org/1999/xlink" viewBox="0 0 98 98"><defs><circle id="a" cx="49" cy="49" r="49"/></defs><clipPath id="b"><use xlink:href="#a" overflow="visible"/></clipPath><linearGradient id="c" gradientUnits="userSpaceOnUse" x1="73.504" y1="91.442" x2="24.496" y2="6.558"><stop offset="0" stop-color="#033a82"/><stop offset=".486" stop-color="#3b9ce9"/><stop offset="1" stop-color="#bfe8fe"/></linearGradient><circle cx="49" cy="49" r="49" clip-path="url(#b)" fill="url(#c)"/><linearGradient id="d" gradientUnits="userSpaceOnUse" x1="4" y1="22.5" x2="38" y2="22.5"><stop offset="0" stop-color="#fff" stop-opacity=".5"/><stop offset="1" stop-color="#fff" stop-opacity="0"/></linearGradient><path clip-path="url(#b)" fill="url(#d)" d="M4 18h34v9H4z"/><linearGradient id="e" gradientUnits="userSpaceOnUse" x1="-1" y1="31" x2="32" y2="31"><stop offset="0" stop-color="#fff" stop-opacity=".5"/><stop offset="1" stop-color="#fff" stop-opacity="0"/></linearGradient><path clip-path="url(#b)" fill="url(#e)" d="M-1 22h33v18H-1z"/><linearGradient id="f" gradientUnits="userSpaceOnUse" x1="-3" y1="54" x2="23" y2="54"><stop offset="0" stop-color="#fff" stop-opacity=".5"/><stop offset="1" stop-color="#fff" stop-opacity="0"/></linearGradient><path clip-path="url(#b)" fill="url(#f)" d="M-3 45h26v18H-3z"/><linearGradient id="g" gradientUnits="userSpaceOnUse" x1="-1" y1="64.5" x2="25" y2="64.5"><stop offset="0" stop-color="#fff" stop-opacity=".5"/><stop offset="1" stop-color="#fff" stop-opacity="0"/></linearGradient><path clip-path="url(#b)" fill="url(#g)" d="M-1 58h26v13H-1z"/><linearGradient id="h" gradientUnits="userSpaceOnUse" x1="4" y1="87.5" x2="30" y2="87.5"><stop offset="0" stop-color="#fff" stop-opacity=".5"/><stop offset="1" stop-color="#fff" stop-opacity="0"/></linearGradient><path clip-path="url(#b)" fill="url(#h)" d="M4 81h26v13H4z"/><linearGradient id="i" gradientUnits="userSpaceOnUse" x1="58" y1="24.5" x2="96" y2="24.5"><stop offset="0" stop-color="#fff" stop-opacity=".5"/><stop offset="1" stop-color="#fff" stop-opacity="0"/></linearGradient><path clip-path="url(#b)" fill="url(#i)" d="M58 18h38v13H58z"/><linearGradient id="j" gradientUnits="userSpaceOnUse" x1="13" y1="9" x2="54" y2="9"><stop offset="0" stop-color="#fff" stop-opacity=".5"/><stop offset="1" stop-color="#fff" stop-opacity="0"/></linearGradient><path clip-path="url(#b)" fill="url(#j)" d="M13 4h41v10H13z"/><g clip-path="url(#b)"><circle cx="59" cy="9" r="10" fill="none" stroke="#1e84ce" stroke-width="2"/><path fill="#f3723d" d="M56 14h6v9h-6z"/><path d="M65 14H53v-4a2 2 0 0 1 2-2h8a2 2 0 0 1 2 2v4z" fill="#fec111"/><g fill="#f3723d"><path d="M54 9h1v5h-1zM56 9h1v5h-1zM58 9h1v5h-1zM60 9h1v5h-1zM62 9h1v5h-1zM65 14h-1V9h.5l.5 1z"/></g><linearGradient id="k" gradientUnits="userSpaceOnUse" x1="80.504" y1="102.245" x2="37.496" y2="27.755"><stop offset=".293" stop-color="#ff950d"/><stop offset=".883" stop-color="#ffc107"/></linearGradient><circle cx="59" cy="65" r="43" fill="url(#k)"/><linearGradient id="l" gradientUnits="userSpaceOnUse" x1="77.007" y1="96.178" x2="41.001" y2="33.813" gradientTransform="translate(-.004 .004)"><stop offset="0" stop-color="#97d7ff"/><stop offset="1" stop-color="#fff"/></linearGradient><circle cx="59" cy="65" r="36" fill="url(#l)"/><path d="M83.042 40.958C76.889 34.806 68.389 31 59 31v34l24.042-24.042z" fill="#97d7ff"/><path fill="#0453a1" d="M59 61v4h4l19-22v-1h-1z"/><circle cx="59" cy="65" r="5" fill="#ff950d"/><circle cx="59" cy="65" r="2" fill="#f3723d"/><g fill="#0294fe"><path d="M26 64h4v1h-4zM88 65h4v1h-4zM29.92 80.632l3.464-2 .5.866-3.464 2zM84.113 50.499l3.464-2 .5.866-3.464 2zM41.632 93.08l2-3.464.866.5-2 3.464zM73.499 39.887l2-3.464.866.5-2 3.464z"/><g><path d="M58 98v-4h1v4zM59 36v-4h1v4z"/></g><g><path d="M74.632 94.08l-2-3.463.866-.5 2 3.464zM44.499 39.886l-2-3.464.866-.5 2 3.464z"/></g><g><path d="M87.08 82.368l-3.463-2 .5-.866 3.464 2zM33.886 50.501l-3.464-2 .5-.866 3.464 2z"/></g></g><g><path fill="#fec111" d="M30 23l8.66-5 2.5 4.33-8.66 5z"/><path fill="#f3723d" d="M35.097 25.83l3.464-2 1.5 2.597-3.464 2z"/></g><g><path fill="#fec111" d="M85.502 27.33l-8.66-5 2.5-4.33 8.66 5z"/><path fill="#f3723d" d="M81.404 28.429l-3.464-2 1.5-2.598 3.464 2z"/></g></g></svg>