<svg xmlns="http://www.w3.org/2000/svg" xmlns:xlink="http://www.w3.org/1999/xlink" viewBox="0 0 98 98"><defs><circle id="a" cx="49" cy="49" r="49"/></defs><clipPath id="b"><use xlink:href="#a" overflow="visible"/></clipPath><linearGradient id="c" gradientUnits="userSpaceOnUse" x1="73.504" y1="91.442" x2="24.496" y2="6.558"><stop offset="0" stop-color="#033a82"/><stop offset=".486" stop-color="#3b9ce9"/><stop offset="1" stop-color="#bfe8fe"/></linearGradient><circle cx="49" cy="49" r="49" clip-path="url(#b)" fill="url(#c)"/><g clip-path="url(#b)"><linearGradient id="d" gradientUnits="userSpaceOnUse" x1="24.016" y1="43.877" x2="15.216" y2="28.634"><stop offset="0" stop-color="#1a1a1a"/><stop offset="1" stop-color="#4d4d4d"/></linearGradient><path d="M11 41s-1-1-1-4c0-5 5-10 11-10l1 1c4 0 8 4 8 9 0 3-1 4-1 4H11z" fill="url(#d)"/><path fill="#68b5e4" d="M25 56l-5 4-5-4v-5h10z"/><linearGradient id="e" gradientUnits="userSpaceOnUse" x1="25.968" y1="53.279" x2="16.11" y2="36.205"><stop offset="0" stop-color="#97d7ff"/><stop offset="1" stop-color="#fff"/></linearGradient><path d="M13 38l10-3 4 2 1 3h1a1 1 0 0 1 1 1v3l-1 2h-1v1c0 3-4 9-8 9s-8-6-8-9v-1h-1l-1-2v-3a1 1 0 0 1 1-1h1l1-2z" fill="url(#e)"/><linearGradient id="f" gradientUnits="userSpaceOnUse" x1="27.32" y1="83.166" x2="11.306" y2="55.428"><stop offset="0" stop-color="#1a1a1a"/><stop offset="1" stop-color="#4d4d4d"/></linearGradient><path d="M36.3 61.702a3.998 3.998 0 0 0-2.923-3.417L25 56l-5 19-5-19-8.377 2.285A3.998 3.998 0 0 0 3.7 61.702L2 77h36l-1.7-15.298z" fill="url(#f)"/><path fill="#fff" d="M20 59l-5-3 5 19 5-19z"/><linearGradient id="g" gradientUnits="userSpaceOnUse" x1="22.32" y1="75.66" x2="11.449" y2="56.832"><stop offset="0" stop-color="#333"/><stop offset="1" stop-color="#666"/></linearGradient><path fill="url(#g)" d="M11 57.091L15 56l5 19.125V77h-.938L13 65l1-1h-2z"/><linearGradient id="h" gradientUnits="userSpaceOnUse" x1="143.32" y1="75.66" x2="132.449" y2="56.832" gradientTransform="matrix(-1 0 0 1 161 0)"><stop offset="0" stop-color="#333"/><stop offset="1" stop-color="#666"/></linearGradient><path fill="url(#h)" d="M29 57.091L25 56l-5 19.125V77h.937L27 65l-1-1h2z"/></g><g clip-path="url(#b)"><path d="M36.5 5.5s-.5-.5-.5-2c0-2.5 2.5-5 5.5-5l.5.5c2 0 4 2 4 4.5 0 1.5-.5 2-.5 2h-9z" fill="#1e84ce"/><path fill="#68b5e4" d="M43.5 13L41 15l-2.5-2v-2.5h5z"/><path d="M37.5 4l5-1.5 2 1L45 5h.5a.5.5 0 0 1 .5.5V7l-.5 1H45v.5c0 1.5-2 4.5-4 4.5s-4-3-4-4.5V8h-.5L36 7V5.5a.5.5 0 0 1 .5-.5h.5l.5-1z" fill="#68b5e4"/><path d="M49.15 15.851a2.001 2.001 0 0 0-1.462-1.709L43.5 13 41 14.5 38.5 13l-4.189 1.142a2 2 0 0 0-1.462 1.709L32 23.5h18l-.85-7.649z" fill="#1e84ce"/></g><g clip-path="url(#b)"><path d="M56.5 26.5s-.5-.5-.5-2c0-2.5 2.5-5 5.5-5l.5.5c2 0 4 2 4 4.5 0 1.5-.5 2-.5 2h-9z" fill="#1e84ce"/><path fill="#68b5e4" d="M63.5 34L61 36l-2.5-2v-2.5h5z"/><path d="M57.5 25l5-1.5 2 1L65 26h.5a.5.5 0 0 1 .5.5V28l-.5 1H65v.5c0 1.5-2 4.5-4 4.5s-4-3-4-4.5V29h-.5l-.5-1v-1.5a.5.5 0 0 1 .5-.5h.5l.5-1z" fill="#68b5e4"/><path d="M69.15 36.851a2.001 2.001 0 0 0-1.462-1.709L63.5 34 61 35.5 58.5 34l-4.189 1.142a2 2 0 0 0-1.462 1.709L52 44.5h18l-.85-7.649z" fill="#1e84ce"/></g><g clip-path="url(#b)"><path d="M41.5 84.5s-.5-.5-.5-2c0-2.5 2.5-5 5.5-5l.5.5c2 0 4 2 4 4.5 0 1.5-.5 2-.5 2h-9z" fill="#1e84ce"/><path fill="#68b5e4" d="M48.5 92L46 94l-2.5-2v-2.5h5z"/><path d="M42.5 83l5-1.5 2 1L50 84h.5a.5.5 0 0 1 .5.5V86l-.5 1H50v.5c0 1.5-2 4.5-4 4.5s-4-3-4-4.5V87h-.5l-.5-1v-1.5a.5.5 0 0 1 .5-.5h.5l.5-1z" fill="#68b5e4"/><path d="M54.15 94.851a2.001 2.001 0 0 0-1.462-1.709L48.5 92 46 93.5 43.5 92l-4.189 1.142a2 2 0 0 0-1.462 1.709L37 102.5h18l-.85-7.649z" fill="#1e84ce"/></g><g clip-path="url(#b)"><linearGradient id="i" gradientUnits="userSpaceOnUse" x1="82.016" y1="43.877" x2="73.216" y2="28.634"><stop offset="0" stop-color="#1a1a1a"/><stop offset="1" stop-color="#4d4d4d"/></linearGradient><path d="M69 41s-1-1-1-4c0-5 5-10 11-10l1 1c4 0 8 4 8 9 0 3-1 4-1 4H69z" fill="url(#i)"/><path fill="#68b5e4" d="M83 56l-5 4-5-4v-5h10z"/><linearGradient id="j" gradientUnits="userSpaceOnUse" x1="83.968" y1="53.279" x2="74.11" y2="36.205"><stop offset="0" stop-color="#97d7ff"/><stop offset="1" stop-color="#fff"/></linearGradient><path d="M71 38l10-3 4 2 1 3h1a1 1 0 0 1 1 1v3l-1 2h-1v1c0 3-4 9-8 9s-8-6-8-9v-1h-1l-1-2v-3a1 1 0 0 1 1-1h1l1-2z" fill="url(#j)"/><linearGradient id="k" gradientUnits="userSpaceOnUse" x1="85.32" y1="83.166" x2="69.306" y2="55.428"><stop offset="0" stop-color="#3fb0fc"/><stop offset="1" stop-color="#2095f2"/></linearGradient><path d="M94.3 61.702a3.998 3.998 0 0 0-2.923-3.417L83 56l-5 19-5-19-8.377 2.285a4 4 0 0 0-2.923 3.417L60 77h36l-1.7-15.298z" fill="url(#k)"/><path fill="#fff" d="M78 59l-5-3 5 19 5-19z"/><linearGradient id="l" gradientUnits="userSpaceOnUse" x1="74.703" y1="77.196" x2="64.051" y2="58.746"><stop offset=".293" stop-color="#ff950d"/><stop offset=".883" stop-color="#ffc107"/></linearGradient><path fill="url(#l)" d="M65.056 58.167L72 56l3.042 21h-9.986z"/><linearGradient id="m" gradientUnits="userSpaceOnUse" x1="72.667" y1="76.808" x2="83.497" y2="58.051" gradientTransform="matrix(-1 0 0 1 163.986 0)"><stop offset=".293" stop-color="#ff950d"/><stop offset=".883" stop-color="#ffc107"/></linearGradient><path fill="url(#m)" d="M90.986 58.167L84.042 56 81 77h9.986z"/><linearGradient id="n" gradientUnits="userSpaceOnUse" x1="81.433" y1="40.946" x2="72.554" y2="25.567"><stop offset=".293" stop-color="#ff950d"/><stop offset=".883" stop-color="#ffc107"/></linearGradient><path d="M88 34c0-5.185-3.947-9.448-9-9.95V23h-2v1.05c-5.053.502-9 4.764-9 9.95h-2v2h24v-2h-2z" fill="url(#n)"/><path fill="#f8941d" d="M79 24v10h9l-7-1-1-8z"/><path fill="#fec111" d="M77 35V23h1v2z"/><path fill="#fec111" d="M66 34h24v1H66z"/></g><path clip-path="url(#b)" fill="#41d672" d="M62 53h-1v5H37v-5h-1l-8 8 8 8h1v-5h24v5h1l8-8z"/><g fill="none" stroke="#1e84ce" clip-path="url(#b)"><path d="M35 48l.358-1.968"/><path stroke-dasharray="3.6721,1.8361" d="M35.686 44.226l2.792-15.355"/><path d="M38.642 27.968L39 26"/></g><g fill="none" stroke="#1e84ce" clip-path="url(#b)"><path d="M45.5 25.5l1.317 1.505"/><path stroke-dasharray="3.3151,1.6575" d="M47.909 28.253l2.728 3.118"/><path d="M51.183 31.995L52.5 33.5"/></g><g fill="none" stroke="#1e84ce" clip-path="url(#b)"><path d="M62.5 45.5l1.147 1.638"/><path stroke-dasharray="4.1033,2.0516" d="M64.823 48.819l2.942 4.202"/><path d="M68.353 53.862L69.5 55.5"/></g><g fill="none" stroke="#0294fe" clip-path="url(#b)"><path d="M26.5 78.5l1.414 1.414"/><path stroke-dasharray="4.1099,2.055" d="M29.367 81.367l7.992 7.992"/><path d="M38.086 90.086L39.5 91.5"/></g><g fill="none" stroke="#0294fe" clip-path="url(#b)"><path d="M55.5 92.5l1.162-1.627"/><path stroke-dasharray="3.7728,1.8864" d="M57.759 89.338l6.03-8.443"/><path d="M64.338 80.127L65.5 78.5"/></g></svg>