<svg width="260" height="335" fill="none" xmlns="http://www.w3.org/2000/svg"><rect x="2" width="256" height="328" rx="5" fill="#FAFBFC"/><g opacity=".6"><path d="M164.269 257.597a.358.358 0 0 1 .036-.034l.003-.003a.298.298 0 0 1 .029-.02l.008-.005a.2.2 0 0 1 .034-.018l3.624-1.635 7.307-9.048a.656.656 0 0 1 .915-.101l14.029 11.153c.28.223.325.63.101.909l-7.308 9.048-.818 3.865-.001.005a1.245 1.245 0 0 1-.009.031l-.003.009-.014.033-.002.003a.233.233 0 0 1-.02.034l-.006.009-.012.016-.534.662a.78.78 0 0 1-1.087.12l-16.701-13.277a.764.764 0 0 1-.119-1.079l.534-.662.014-.015zm25.547.797l-13.995-11.126-7.133 8.833 13.995 11.126 7.133-8.833zm-7.453 9.435l-14.198-11.287-3.01 1.358 5.763 4.581 1.131-.812a.64.64 0 0 1 .768.018l3.471 2.76c.221.176.297.48.185.739l-.553 1.272 5.763 4.582.68-3.211zm-10.901-4.915l3.914 3.111.467-1.076-3.424-2.722-.957.687zm-7.216-4.223a.099.099 0 0 0 .015.14l16.701 13.277a.1.1 0 0 0 .141-.015l.324-.401-16.858-13.402-.323.401z" fill="#DAE3E5"/><path d="M172.728 252.775a.332.332 0 0 1 .052.469l-2.135 2.643 11.822 9.399 2.134-2.643a.338.338 0 0 1 .473-.052.33.33 0 0 1 .051.469l-2.224 2.755a.531.531 0 0 1-.742.082l-12.048-9.579a.521.521 0 0 1-.081-.735l2.225-2.756a.34.34 0 0 1 .473-.052zM176.348 248.594l12.048 9.579c.227.18.263.51.081.736l-2.225 2.755a.338.338 0 0 1-.473.052.332.332 0 0 1-.051-.469l2.134-2.643-11.822-9.398-2.134 2.642a.336.336 0 0 1-.472.052.332.332 0 0 1-.052-.469l2.225-2.755a.531.531 0 0 1 .741-.082zM83.93 198.523l-.005-.008a.428.428 0 0 1-.034-.072l-.002-.009a.32.32 0 0 1-.008-.031l-.002-.006-.708-3.912-7.01-9.281a.655.655 0 0 1 .125-.912l14.218-10.911a.645.645 0 0 1 .906.123l7.009 9.281 3.552 1.73.005.003a.93.93 0 0 1 .035.021.729.729 0 0 1 .032.024c.01.008.019.017.028.027l.006.008.014.016.512.678a.779.779 0 0 1-.147 1.084L85.53 199.365a.765.765 0 0 1-1.076-.146l-.512-.679a.145.145 0 0 1-.012-.017zm6.96-24.594l-14.183 10.885 6.842 9.06 14.184-10.884-6.842-9.061zm7.35 9.517l-14.39 11.041.589 3.25 5.84-4.482-.514-1.295a.64.64 0 0 1 .204-.74l3.518-2.699a.627.627 0 0 1 .762-.001l1.1.845 5.841-4.482-2.95-1.437zm-7.409 9.386l3.967-3.044-.931-.714-3.47 2.663.434 1.095zm-5.845 5.979a.1.1 0 0 0 .14.019l16.926-12.989a.1.1 0 0 0 .019-.141l-.31-.411L84.676 198.4l.31.411z" fill="#DAE3E5"/><path d="M81.3 189.149a.332.332 0 0 1 .469.063l2.047 2.711 11.982-9.194-2.047-2.71a.338.338 0 0 1 .063-.471.331.331 0 0 1 .468.063l2.134 2.826a.531.531 0 0 1-.1.739l-12.211 9.369a.52.52 0 0 1-.734-.099l-2.134-2.826a.338.338 0 0 1 .064-.471zM78.122 184.623l12.211-9.369a.521.521 0 0 1 .734.099l2.134 2.826a.338.338 0 0 1-.064.471.331.331 0 0 1-.468-.063l-2.047-2.711-11.982 9.194 2.047 2.711a.338.338 0 0 1-.063.471.332.332 0 0 1-.468-.064l-2.134-2.826a.53.53 0 0 1 .1-.739z" fill="#DAE3E5"/><path d="M56.368 140.115l2.08.682 1.973-1.689.006-.004a.168.168 0 0 1 .017-.013.05.05 0 0 1 .013-.009 2.291 2.291 0 0 1 .031-.019l.014-.007a.127.127 0 0 1 .018-.008.083.083 0 0 1 .015-.005.062.062 0 0 1 .018-.006l.016-.005.017-.004.019-.003.014-.002.021-.001.013-.001.022.001.014.001.02.002.016.003a.106.106 0 0 1 .017.004.131.131 0 0 1 .019.005l.008.002 6.822 2.235.008.003.02.007.014.007a.11.11 0 0 1 .016.008l.016.009.013.008a.786.786 0 0 1 .016.012l.011.009a.15.15 0 0 1 .016.013l.01.01.014.014a.135.135 0 0 1 .01.013.702.702 0 0 1 .021.028l.01.013.009.017a.13.13 0 0 1 .007.014l.007.016.007.017a.873.873 0 0 1 .01.036l.002.007.559 2.518 3.104 1.017.343-1.021a.363.363 0 0 1 .456-.229l2.729.895c.188.061.29.264.227.452l-.343 1.02.113.037a1.78 1.78 0 0 1 1.134 2.26l-3.965 11.796a1.813 1.813 0 0 1-2.277 1.142l-18.649-6.109a1.78 1.78 0 0 1-1.133-2.26l3.964-11.795a1.814 1.814 0 0 1 2.278-1.143zm18.081 5.168l-2.047-.67-.228.68 2.046.671.229-.681zm-22.961 9.35l15.124 4.954 4.307-12.816a.363.363 0 0 1 .456-.229c.188.062.29.265.227.452l-4.308 12.817 2.843.931a1.088 1.088 0 0 0 1.366-.686l.808-2.404-1.023-.335a.356.356 0 0 1-.227-.452.362.362 0 0 1 .456-.229l1.023.335.377-1.122-1.023-.336a.355.355 0 0 1-.227-.452.362.362 0 0 1 .456-.228l1.023.335.378-1.123-1.024-.335a.356.356 0 0 1-.227-.452.363.363 0 0 1 .456-.229l1.023.336.378-1.123-1.024-.335a.356.356 0 0 1-.226-.452.362.362 0 0 1 .455-.229l1.024.335 1.109-3.3a1.068 1.068 0 0 0-.68-1.356l-6.822-2.235-.003-.001a.243.243 0 0 1-.037-.015l-.01-.005c-.01-.004-.019-.01-.028-.015l-.01-.006a.302.302 0 0 1-.027-.02l-.006-.005a.363.363 0 0 1-.03-.029l-.005-.006a.299.299 0 0 1-.03-.037l-.015-.025-.006-.011a.391.391 0 0 1-.017-.038l-.002-.008a.31.31 0 0 1-.01-.035l-.002-.005-.558-2.518-6.437-2.108-1.972 1.688-.004.004a.37.37 0 0 1-.03.022l-.007.005a.448.448 0 0 1-.036.02l-.012.005a.281.281 0 0 1-.04.016l-.033.008a.568.568 0 0 1-.049.007h-.042l-.012-.001a.343.343 0 0 1-.042-.006c-.013-.002-.026-.006-.039-.01h-.002v-.001l-2.274-.744a1.088 1.088 0 0 0-1.367.685l-3.964 11.796c-.19.562.116 1.171.68 1.356z" fill="#DAE3E6"/><path d="M62.349 145.597a4.865 4.865 0 0 1 3.098 6.176 4.956 4.956 0 0 1-6.224 3.122 4.864 4.864 0 0 1-3.098-6.176 4.956 4.956 0 0 1 6.224-3.122zm-2.897 8.618a4.23 4.23 0 0 0 5.313-2.665 4.153 4.153 0 0 0-2.645-5.272 4.23 4.23 0 0 0-5.313 2.665 4.153 4.153 0 0 0 2.645 5.272zM60.06 141.575l.669-.789.001-.001a.21.21 0 0 1 .018-.019l.008-.008.015-.013a.097.097 0 0 1 .012-.01.076.076 0 0 1 .011-.008.18.18 0 0 1 .023-.015.33.33 0 0 1 .057-.029l.005-.002.028-.009.03-.007.003-.001a.35.35 0 0 1 .065-.005l.004-.001.022.002.013.001.016.002.02.003.012.003a.202.202 0 0 1 .023.007h.003l5.19 1.701.001.001a.235.235 0 0 1 .025.01l.009.003.02.01.012.007a.077.077 0 0 1 .013.008l.017.011.006.005a.216.216 0 0 1 .021.017l.001.001a.282.282 0 0 1 .024.023l.005.006.017.019.017.025.002.003c.011.018.02.037.029.057l.002.005a.342.342 0 0 1 .007.021l.004.013.003.015a.232.232 0 0 1 .005.02l.001.011a.425.425 0 0 1 .003.025v.002l.06 1.028a.361.361 0 0 1-.475.363.355.355 0 0 1-.245-.318l-.045-.785-4.727-1.55-.511.603a.361.361 0 0 1-.508.044.357.357 0 0 1-.041-.505zM56.576 141.7c.565.185.87.793.68 1.356-.189.563-.802.87-1.366.685a1.068 1.068 0 0 1-.68-1.356c.189-.563.802-.87 1.366-.685zm-.457 1.361a.363.363 0 0 0 .455-.229.356.356 0 0 0-.227-.452.363.363 0 0 0-.455.229.357.357 0 0 0 .227.452z" fill="#DAE3E6"/><path d="M55.433 146.866c1.534-2.393 4.556-3.553 7.372-2.63a6.289 6.289 0 0 1 4.006 7.984c-1.114 3.314-4.724 5.125-8.046 4.036a6.29 6.29 0 0 1-4.317-6.459 1.543 1.543 0 0 1-.826-1.898 1.572 1.572 0 0 1 1.811-1.033zm3.56 8.71c2.947.965 6.148-.641 7.136-3.58a5.577 5.577 0 0 0-3.553-7.08c-2.568-.841-5.329.271-6.65 2.516l-.003.007a.35.35 0 0 1-.04.067 5.578 5.578 0 0 0 3.11 8.07zm-4.436-6.553a6.364 6.364 0 0 1 .495-1.473.847.847 0 0 0-.748.573.83.83 0 0 0 .253.9zM68.342 146.566l1.365.448c.189.061.29.264.227.452a.363.363 0 0 1-.455.229l-1.366-.448a.356.356 0 0 1-.227-.452.362.362 0 0 1 .456-.229zM36.917 207.535l.557-.872-.542-1.102-.001-.003a.118.118 0 0 1-.004-.009l-.003-.007-.003-.009a.086.086 0 0 1-.002-.008l-.001-.007a.14.14 0 0 1-.002-.009v-.008l-.001-.008v-.009-.008a.273.273 0 0 1 .003-.025l.002-.006.002-.01.002-.006.004-.009a.04.04 0 0 1 .003-.007l.004-.008.004-.008a.05.05 0 0 1 .002-.003l1.825-2.862.002-.003.006-.008.004-.006.006-.006.006-.007.005-.004a.043.043 0 0 1 .008-.007l.005-.004.008-.005a.022.022 0 0 1 .006-.004.027.027 0 0 1 .007-.004l.008-.004.007-.003.008-.003.007-.003a.028.028 0 0 0 .009-.002l.007-.002.008-.001.01-.001h.006l.01-.001h.004l1.219.04.83-1.302-.427-.277a.17.17 0 0 1-.051-.235l.73-1.145a.168.168 0 0 1 .233-.051l.427.277.03-.047a.84.84 0 0 1 1.169-.254l4.935 3.2a.859.859 0 0 1 .256 1.178l-4.988 7.821a.84.84 0 0 1-1.168.254l-4.935-3.2a.859.859 0 0 1-.256-1.178zm4.49-7.672l-.547.858.284.185.548-.859-.285-.184zm1.585 11.612l4.044-6.344-5.362-3.477a.172.172 0 0 1-.051-.236.168.168 0 0 1 .233-.05l5.363 3.477.76-1.192a.514.514 0 0 0-.153-.706l-1.006-.653-.274.429a.167.167 0 0 1-.234.051.17.17 0 0 1-.05-.235l.273-.429-.47-.305-.274.429a.168.168 0 0 1-.233.051.17.17 0 0 1-.051-.235l.273-.43-.47-.304-.273.429a.168.168 0 0 1-.234.051.172.172 0 0 1-.051-.236l.274-.429-.47-.305-.274.429a.167.167 0 0 1-.233.051.17.17 0 0 1-.052-.235l.274-.429-1.38-.896a.505.505 0 0 0-.702.152l-1.824 2.862v.001a.364.364 0 0 1-.012.015l-.004.004-.01.011-.004.003-.012.011-.003.002a.12.12 0 0 1-.017.01l-.003.002-.014.007-.007.002-.013.004-.006.002-.019.003h-.004l-.017.001h-.003l-1.218-.04-1.721 2.699.541 1.102.001.002.007.016.001.004a.138.138 0 0 1 .005.019l.001.006.002.014v.026a.202.202 0 0 1-.002.02l-.001.003a.125.125 0 0 1-.004.016l-.002.005-.005.014-.002.005a.103.103 0 0 1-.01.016v.002l-.608.953a.514.514 0 0 0 .153.706l4.936 3.201c.235.153.55.084.7-.152z" fill="#DAE3E6"/><path d="M40.13 205.44a2.3 2.3 0 0 1 3.192-.693 2.342 2.342 0 0 1 .698 3.216 2.3 2.3 0 0 1-3.191.694 2.343 2.343 0 0 1-.7-3.217zm3.606 2.339a2 2 0 0 0-.597-2.746 1.963 1.963 0 0 0-2.725.592 2 2 0 0 0 .597 2.746 1.963 1.963 0 0 0 2.725-.592zM38.019 206.016l-.283-.399v-.001l-.007-.01-.002-.005a.042.042 0 0 1-.005-.008l-.003-.007-.002-.006-.004-.01v-.002a.178.178 0 0 1-.007-.03v-.002l-.001-.014a.13.13 0 0 1 0-.014v-.002c0-.01.003-.02.005-.03v-.002l.004-.011c0-.001 0-.003.002-.005 0-.003.002-.005.003-.007l.003-.009.003-.005.006-.01v-.001l1.389-2.177.008-.011.002-.003a.051.051 0 0 1 .007-.008l.005-.005.005-.005.007-.007.003-.002.01-.007v-.001l.014-.008.003-.002a.056.056 0 0 0 .011-.005l.014-.005.001-.001a.146.146 0 0 1 .03-.006h.002l.01-.001.007-.001.007.001h.01l.005.001.012.001.001.001.478.093a.171.171 0 0 1 .11.26.17.17 0 0 1-.174.075l-.365-.072-1.265 1.983.216.305a.171.171 0 0 1-.04.237.168.168 0 0 1-.235-.04zM37.667 207.626a.504.504 0 0 1 .701-.152.514.514 0 0 1 .154.706.504.504 0 0 1-.701.152.514.514 0 0 1-.154-.706zm.57.369a.17.17 0 0 0-.051-.235.168.168 0 0 0-.234.051.171.171 0 0 0 .051.235.168.168 0 0 0 .234-.051z" fill="#DAE3E6"/><path d="M39.898 208.756a3.032 3.032 0 0 1-.339-3.685 2.974 2.974 0 0 1 4.127-.896 3.028 3.028 0 0 1 .903 4.158 2.974 2.974 0 0 1-3.465 1.218.73.73 0 0 1-.966.156.744.744 0 0 1-.26-.951zm4.406-.607a2.686 2.686 0 0 0-.8-3.688 2.637 2.637 0 0 0-3.66.795 2.689 2.689 0 0 0 .801 3.688c1.23.797 2.871.44 3.66-.795zm-3.521 1.262a3.123 3.123 0 0 1-.616-.4.401.401 0 0 0 .174.41c.14.09.314.081.442-.01zM41.277 202.81l.366-.573a.168.168 0 0 1 .233-.05.17.17 0 0 1 .052.235l-.366.573a.168.168 0 0 1-.233.051.172.172 0 0 1-.052-.236z" fill="#DAE3E6"/><circle r="1.715" transform="scale(-1 1) rotate(-.609 24805.746 20176.692)" stroke="#DAE3E5"/><circle r=".977" transform="scale(-1 1) rotate(-.609 24007.458 20320.004)" stroke="#DAE3E5"/><circle r="1.715" transform="scale(-1 1) rotate(-.609 24323.629 20978.526)" stroke="#DAE3E5"/><circle r="1.715" transform="scale(-1 1) rotate(-.609 18461.171 11113.563)" stroke="#DAE3E5"/><circle r=".977" transform="scale(-1 1) rotate(-.609 17662.883 11256.876)" stroke="#DAE3E5"/><circle r=".977" transform="scale(-1 1) rotate(-.609 25460.263 5560.45)" stroke="#DAE3E5"/><circle r=".977" transform="scale(-1 1) rotate(-.609 25168.722 5084.018)" stroke="#DAE3E5"/><circle r="1.715" transform="scale(-1 1) rotate(-.609 17979.054 11915.304)" stroke="#DAE3E5"/><circle r="1.715" transform="scale(-1 1) rotate(-.609 27022.376 12928.857)" stroke="#DAE3E5"/><circle r=".977" transform="scale(-1 1) rotate(-.609 24136.14 8605.482)" stroke="#DAE3E5"/><circle r="1.715" transform="scale(-1 1) rotate(-.609 23298.328 12290.81)" stroke="#DAE3E5"/><path d="M213.753 194.71a2.476 2.476 0 0 1 1.474-2.838 2.515 2.515 0 0 1 2.609.433c.052-.083.112-.163.176-.239l-3.171-7.569a.493.493 0 0 1 .268-.648.502.502 0 0 1 .654.269l3.076 7.342a2.009 2.009 0 0 1 2.613 1.076 1.98 1.98 0 0 1-1.075 2.596l-5.072 2.089a1.507 1.507 0 0 1-1.96-.807 1.488 1.488 0 0 1 .408-1.704zm1.168 1.593l5.072-2.089a.99.99 0 0 0 .537-1.298 1.005 1.005 0 0 0-1.307-.538c-.43.177-.708.584-.691 1.011a.5.5 0 0 1-.96.208 1.508 1.508 0 0 0-1.96-.807 1.485 1.485 0 0 0-.807 1.946.494.494 0 0 1-.269.649.495.495 0 0 0-.268.649.502.502 0 0 0 .653.269z" fill="#DAE3E5"/><path d="M185.009 181.762l8.773-3.615a.502.502 0 0 1 .654.27.495.495 0 0 1-.269.65l-8.311 3.424 4.157 9.924 7.346-17.74a.498.498 0 0 1 .272-.269.5.5 0 0 1 .384-.001l17.856 7.357-4.157-9.924-5.079 2.093a.502.502 0 0 1-.654-.27l-.771-1.839a.496.496 0 0 1 .269-.65l.462-.19-.385-.919-2.771 1.141.386.919.461-.19a.504.504 0 0 1 .655.27l.77 1.839a.496.496 0 0 1-.269.65l-1.385.57a.503.503 0 0 1-.655-.269.496.496 0 0 1 .269-.65l.924-.381-.385-.919-.462.19a.503.503 0 0 1-.654-.269l-.771-1.839a.496.496 0 0 1 .269-.65l3.694-1.522a.504.504 0 0 1 .655.269l.77 1.839a.496.496 0 0 1-.269.65l-.462.19.385.92 5.08-2.093a.503.503 0 0 1 .654.27l4.813 11.494a.496.496 0 0 1-.652.65l-18.511-7.628-7.616 18.391a.5.5 0 0 1-.925 0l-4.815-11.493a.496.496 0 0 1 .27-.65z" fill="#DAE3E5"/><path d="M194.82 201.389l-3.081-7.353a.496.496 0 0 1 .269-.649.503.503 0 0 1 .655.269l3.175 7.579c.099.009.198.023.295.045a2.48 2.48 0 0 1 1.533-2.141 2.518 2.518 0 0 1 3.073.968c.63-.049 1.25.306 1.506.917.068.162.099.329.108.495l7.933-3.268a.502.502 0 0 1 .654.269.495.495 0 0 1-.269.65l-9.233 3.803-1.847.761-3.231 1.331a2.012 2.012 0 0 1-2.617-1.077 1.982 1.982 0 0 1 1.077-2.599zm1.155 2.757l3.231-1.331 1.847-.761a.496.496 0 0 0 .269-.65.503.503 0 0 0-.654-.269.503.503 0 0 1-.654-.269 1.51 1.51 0 0 0-1.963-.808 1.487 1.487 0 0 0-.807 1.949.494.494 0 0 1-.19.608.502.502 0 0 1-.637-.079c-.294-.314-.782-.405-1.212-.228a.992.992 0 0 0-.539 1.299c.213.507.8.749 1.309.539zM198.862 182.518a1.981 1.981 0 0 1 1.076-2.597 2.01 2.01 0 0 1 2.615 1.077 1.98 1.98 0 0 1-1.076 2.596 2.01 2.01 0 0 1-2.615-1.076zm2.769-1.14a1.006 1.006 0 0 0-1.308-.539.991.991 0 0 0-.538 1.299c.212.506.799.748 1.308.538a.991.991 0 0 0 .538-1.298z" fill="#DAE3E5"/><path d="M194.595 191.799l3.691-1.52a.503.503 0 0 1 .654.269l2.116 5.051.462-.19a.502.502 0 0 1 .653.269.494.494 0 0 1-.269.649l-5.536 2.281a.503.503 0 0 1-.654-.269.494.494 0 0 1 .269-.649l.461-.191-2.116-5.05a.496.496 0 0 1 .269-.65zm2.77 5.32l2.769-1.14-.77-1.837-2.768 1.141.769 1.836zm-1.154-2.755l2.768-1.14-.769-1.837-2.769 1.141.77 1.836z" fill="#DAE3E5"/><path d="M202.794 199.705a.494.494 0 0 1 .269-.649l1.383-.57-3.654-8.72a.495.495 0 0 1 .269-.649l4.611-1.9a.503.503 0 0 1 .654.269l3.653 8.721 1.384-.57a.502.502 0 0 1 .653.269l.769 1.836a.495.495 0 0 1-.269.649.503.503 0 0 1-.653-.269l-.577-1.377-7.839 3.229a.502.502 0 0 1-.653-.269zm.651-6.189l.461-.189a.502.502 0 0 1 .654.269.494.494 0 0 1-.269.648l-.461.19 1.538 3.672 3.689-1.519-3.461-8.262-3.689 1.52 1.538 3.671z" fill="#DAE3E5"/><path d="M208.462 186.059l3.691-1.52a.503.503 0 0 1 .654.269l2.116 5.051.461-.19a.502.502 0 0 1 .654.269.495.495 0 0 1-.269.649l-5.536 2.281a.503.503 0 0 1-.654-.269.496.496 0 0 1 .269-.65l.461-.19-2.116-5.051a.495.495 0 0 1 .269-.649zm2.77 5.32l2.768-1.14-.769-1.837-2.769 1.141.77 1.836zm-1.154-2.755l2.768-1.14-.77-1.837-2.768 1.141.77 1.836zM73.512 245.582a1.528 1.528 0 0 1 1.814-.781c.58.176.983.665 1.078 1.226a1.33 1.33 0 0 1 .177-.046l1.441-4.857a.306.306 0 0 1 .382-.205.31.31 0 0 1 .207.384l-1.398 4.712a1.24 1.24 0 0 1 .83 1.535 1.222 1.222 0 0 1-1.529.821l-3.24-.983a.93.93 0 0 1-.622-1.151.916.916 0 0 1 .86-.655zm-.064 1.217l3.241.983a.612.612 0 0 0 .764-.41.62.62 0 0 0-.414-.768c-.275-.083-.567.002-.726.213a.309.309 0 0 1-.54-.276.93.93 0 0 0-.622-1.151.917.917 0 0 0-1.146.615.304.304 0 0 1-.382.205.306.306 0 0 0-.382.206.31.31 0 0 0 .207.383z" fill="#DAE3E5"/><path d="M64.829 228.162l5.606 1.7a.31.31 0 0 1 .207.384.306.306 0 0 1-.382.206l-5.311-1.61-1.89 6.368 10.442-5.61a.308.308 0 0 1 .419.127l5.663 10.492 1.89-6.368-3.246-.984a.31.31 0 0 1-.208-.384l.35-1.18a.306.306 0 0 1 .383-.206l.295.089.175-.59-1.77-.536-.175.59.295.089c.162.05.255.222.207.385l-.35 1.18a.305.305 0 0 1-.383.205l-.885-.268a.31.31 0 0 1-.207-.385.307.307 0 0 1 .382-.205l.59.179.176-.59-.296-.09a.31.31 0 0 1-.207-.384l.35-1.18a.306.306 0 0 1 .383-.206l2.36.716a.31.31 0 0 1 .208.384l-.35 1.18a.306.306 0 0 1-.383.206l-.295-.09-.175.59 3.246.984a.312.312 0 0 1 .207.385l-2.19 7.375a.304.304 0 0 1-.382.206.314.314 0 0 1-.183-.15l-5.87-10.878-10.825 5.817a.31.31 0 0 1-.442-.362l2.188-7.375a.306.306 0 0 1 .383-.206z" fill="#DAE3E5"/><path d="M61.85 241.378l1.4-4.718a.306.306 0 0 1 .383-.206.31.31 0 0 1 .207.384l-1.442 4.864c.044.043.086.089.123.137a1.533 1.533 0 0 1 1.57-.425 1.555 1.555 0 0 1 1.09 1.663c.32.224.479.635.362 1.028a.902.902 0 0 1-.142.278l5.07 1.537a.31.31 0 0 1 .207.384.306.306 0 0 1-.382.206l-5.9-1.789-1.18-.358-2.065-.626a1.242 1.242 0 0 1-.83-1.537 1.224 1.224 0 0 1 1.53-.822zm-.524 1.769l2.065.626 1.18.358a.306.306 0 0 0 .382-.205.311.311 0 0 0-.207-.385.31.31 0 0 1-.208-.384.932.932 0 0 0-.622-1.153.919.919 0 0 0-1.148.616.305.305 0 0 1-.328.217.31.31 0 0 1-.274-.287.674.674 0 0 0-.49-.582.611.611 0 0 0-.765.411.62.62 0 0 0 .415.768zM71.156 233.935a1.223 1.223 0 0 1 1.529-.821c.65.198 1.022.887.83 1.537a1.223 1.223 0 0 1-1.53.821 1.241 1.241 0 0 1-.829-1.537zm1.769.537a.62.62 0 0 0-.415-.768.61.61 0 0 0-.764.41.62.62 0 0 0 .415.768.61.61 0 0 0 .764-.41z" fill="#DAE3E5"/><path d="M65.491 236.706l2.359.715a.31.31 0 0 1 .207.384l-.962 3.241.295.09a.31.31 0 0 1 .208.384.305.305 0 0 1-.383.205l-3.537-1.073a.31.31 0 0 1-.208-.384.306.306 0 0 1 .383-.205l.294.09.962-3.242a.306.306 0 0 1 .382-.205zm-.754 3.625l1.769.537.35-1.179-1.77-.536-.35 1.178zm.524-1.768l1.77.537.349-1.179-1.769-.536-.35 1.178z" fill="#DAE3E5"/><path d="M66.322 243.688a.306.306 0 0 1 .382-.205l.884.268 1.66-5.596a.304.304 0 0 1 .382-.205l2.947.893a.31.31 0 0 1 .207.384l-1.66 5.596.884.268a.31.31 0 0 1 .207.384l-.35 1.178a.304.304 0 0 1-.381.205.31.31 0 0 1-.208-.384l.262-.883-5.009-1.519a.31.31 0 0 1-.207-.384zm2.729-2.704l.295.09a.31.31 0 0 1 .207.384.306.306 0 0 1-.382.205l-.295-.09-.699 2.357 2.358.714 1.572-5.301-2.357-.715-.699 2.356z" fill="#DAE3E5"/><path d="M74.362 239.379l2.358.715a.31.31 0 0 1 .207.384l-.961 3.241.295.09a.31.31 0 0 1 .207.384.306.306 0 0 1-.382.205l-3.538-1.073a.31.31 0 0 1-.207-.384.306.306 0 0 1 .382-.205l.295.089.961-3.241a.305.305 0 0 1 .383-.205zm-.754 3.625l1.768.537.35-1.179-1.769-.536-.35 1.178zm.524-1.768l1.769.537.35-1.179-1.77-.536-.35 1.178zM209.996 224.386l.614-.753 1.883-6.449a2.762 2.762 0 0 1 2.421-1.963l16.665-1.283a2.719 2.719 0 0 1 2.675 1.571l2.745 6.015 1.022.81a3.715 3.715 0 0 1 1.52 2.738l.656 9.135a2.744 2.744 0 0 1-2.53 2.912l-1.72.133a2.712 2.712 0 0 1-2.919-2.493l-.095-1.326-16.162 1.244.095 1.326a2.744 2.744 0 0 1-2.53 2.912l-1.721.133a2.712 2.712 0 0 1-2.918-2.494l-.673-9.375a3.791 3.791 0 0 1 .972-2.793zm23.065-8.341a1.404 1.404 0 0 0-1.389-.807l-16.671 1.283a1.43 1.43 0 0 0-1.257 1.011l-1.642 5.614 1.519-.117a4.501 4.501 0 0 1 4.807-4.146 4.443 4.443 0 0 1 4.037 3.466l13.021-1.003-2.425-5.301zm-18.111 6.882l6.198-.477c-.481-1.681-2.241-2.643-3.929-2.154a3.2 3.2 0 0 0-2.269 2.631zm19.382 11.731a1.409 1.409 0 0 0 1.521 1.294l1.721-.132a1.428 1.428 0 0 0 1.32-1.513l-.123-1.702c-.372.283-.878.446-1.393.486l-3.141.242.095 1.325zM211 236.454c.063.779.74 1.354 1.522 1.294l1.72-.132a1.433 1.433 0 0 0 1.32-1.513l-.095-1.326-3.141.242c-.515.04-1.039-.044-1.448-.267l.122 1.702zm1.232-2.734l25.052-1.928a1.417 1.417 0 0 0 1.321-1.5l-.367-5.12a2.429 2.429 0 0 0-1.001-1.791.655.655 0 0 1-.027-.024l-.947-.764-24.68 1.9-.578.717c-.005.014-.024.022-.03.035a2.464 2.464 0 0 0-.642 1.833l.385 5.36-.006.001a1.403 1.403 0 0 0 1.52 1.281z" fill="#DAE3E5"/><path d="M230.948 225.623l4.888-.376a.649.649 0 0 1 .698.6l.243 3.378a.658.658 0 0 1-.605.7l-4.888.376a.65.65 0 0 1-.698-.599l-.243-3.379a.66.66 0 0 1 .605-.7zm.894 3.329l3.585-.276-.149-2.079-3.585.275.149 2.08zM212.734 227l4.888-.376a.651.651 0 0 1 .699.6l.242 3.378a.657.657 0 0 1-.605.7l-4.888.376a.65.65 0 0 1-.698-.599l-.243-3.379a.66.66 0 0 1 .605-.7zm.895 3.329l3.584-.276-.149-2.079-3.585.276.15 2.079zM221.331 229.089l6.303-.482a.654.654 0 1 1 .094 1.304l-6.303.481a.651.651 0 0 1-.699-.601.658.658 0 0 1 .605-.702zM221.183 227.08l6.303-.482a.654.654 0 0 1 .7.602.66.66 0 0 1-.605.702l-6.304.481a.652.652 0 0 1-.699-.602.658.658 0 0 1 .605-.701zM147.837 200.829l9.712 2.268a2.249 2.249 0 0 1 1.675 2.719l-5.32 22.028a2.29 2.29 0 0 1-2.739 1.688l-9.711-2.269a2.248 2.248 0 0 1-1.675-2.718l5.319-22.029a2.29 2.29 0 0 1 2.739-1.687zm.439 27.097l3.102.725a1.373 1.373 0 0 0 1.643-1.013l.32-1.322-4.426-1.033a2.22 2.22 0 0 1-.639 2.643zm-1.754-.41a1.372 1.372 0 0 0 1.644-1.012 1.348 1.348 0 0 0-1.005-1.631 1.372 1.372 0 0 0-1.644 1.012 1.348 1.348 0 0 0 1.005 1.631zm-5.861-2.765c-.176.73.274 1.46 1.005 1.631l3.102.725a2.222 2.222 0 0 1 .638-2.644l-4.425-1.033-.32 1.321zm.532-2.203l12.36 2.887 4.15-17.182-12.36-2.887-4.15 17.182zm4.363-18.063l12.359 2.887.426-1.762a1.348 1.348 0 0 0-1.005-1.631l-9.711-2.269a1.373 1.373 0 0 0-1.644 1.013l-.425 1.762z" fill="#DAE3E5"/><path d="M150.824 203.869l4.424 1.035-.213.883-4.424-1.035.213-.883zM152.336 211.192l1.767.413a1.348 1.348 0 0 1 1.006 1.632l-.426 1.764a1.374 1.374 0 0 1-1.645 1.013l-1.767-.413a1.349 1.349 0 0 1-1.006-1.632l.427-1.764a1.373 1.373 0 0 1 1.644-1.013zm-1.187 2.983a.449.449 0 0 0 .335.544l1.767.413a.458.458 0 0 0 .549-.338l.426-1.763a.45.45 0 0 0-.336-.544l-1.767-.413a.457.457 0 0 0-.548.338l-.426 1.763zM147.024 209.948l1.767.412a1.349 1.349 0 0 1 1.006 1.632l-.426 1.764a1.374 1.374 0 0 1-1.645 1.013l-1.767-.413a1.348 1.348 0 0 1-1.006-1.632l.426-1.763a1.373 1.373 0 0 1 1.645-1.013zm-1.187 2.983a.45.45 0 0 0 .335.544l1.767.412a.458.458 0 0 0 .548-.337l.426-1.764a.45.45 0 0 0-.335-.544l-1.767-.413a.458.458 0 0 0-.548.338l-.426 1.764zM151.065 216.472l1.767.413a1.348 1.348 0 0 1 1.006 1.632l-.426 1.763a1.374 1.374 0 0 1-1.645 1.014l-1.767-.413a1.349 1.349 0 0 1-1.006-1.632l.427-1.764a1.373 1.373 0 0 1 1.644-1.013zm-1.187 2.983a.449.449 0 0 0 .335.544l1.767.413a.46.46 0 0 0 .549-.338l.426-1.764a.45.45 0 0 0-.336-.544l-1.767-.412a.457.457 0 0 0-.548.338l-.426 1.763zM145.752 215.228l1.767.412a1.348 1.348 0 0 1 1.006 1.632l-.426 1.764a1.373 1.373 0 0 1-1.645 1.013l-1.767-.412a1.348 1.348 0 0 1-1.005-1.632l.426-1.764a1.372 1.372 0 0 1 1.644-1.013zm-1.187 2.983a.45.45 0 0 0 .335.544l1.767.412a.459.459 0 0 0 .549-.337l.426-1.764a.45.45 0 0 0-.336-.544l-1.767-.412a.458.458 0 0 0-.548.337l-.426 1.764zM154.846 208.529l1.326.309a.45.45 0 0 1 .335.544l-.32 1.323a.458.458 0 0 1-.548.338.45.45 0 0 1-.335-.544l.213-.882-.884-.206a.45.45 0 0 1-.335-.544.457.457 0 0 1 .548-.338zM152.189 207.907l.884.207a.451.451 0 0 1 .336.545.46.46 0 0 1-.549.338l-.884-.207a.45.45 0 0 1-.336-.545.46.46 0 0 1 .549-.338zM149.054 203.455l.882.206-.213.881-.882-.207.213-.88zM200.349 138.24l4.038-4.21a1.316 1.316 0 0 1 1.868-.033l9.499 9.248a1.34 1.34 0 0 1 .032 1.882l-4.038 4.21a1.314 1.314 0 0 1-1.867.032l-9.499-9.247a1.34 1.34 0 0 1-.033-1.882zm13.768 7.861l1.289-1.344a.803.803 0 0 0-.019-1.129l-.57-.555-1.84 1.919a1.3 1.3 0 0 1 1.14 1.109zm-.73.761a.803.803 0 0 0-.019-1.129.79.79 0 0 0-1.121.019.803.803 0 0 0 .02 1.129.787.787 0 0 0 1.12-.019zm-3.139 2.125a.788.788 0 0 0 1.12-.02l1.29-1.344a1.3 1.3 0 0 1-1.14-1.11l-1.84 1.919.57.555zm-.95-.925l5.139-5.359-7.409-7.213-5.139 5.359 7.409 7.213zm-7.789-7.583l5.139-5.359-.76-.74a.788.788 0 0 0-1.121.02l-4.038 4.21a.803.803 0 0 0 .02 1.129l.76.74z" fill="#DAE3E5"/><path d="M202.77 137.644l1.84-1.917.381.37-1.84 1.918-.381-.371zM206.906 139.067l.735-.766a.788.788 0 0 1 1.121-.019l.761.74a.804.804 0 0 1 .019 1.13l-.735.766a.788.788 0 0 1-1.121.02l-.761-.741a.804.804 0 0 1-.019-1.13zm1.147 1.488a.263.263 0 0 0 .374-.007l.735-.766a.269.269 0 0 0-.007-.377l-.76-.74a.264.264 0 0 0-.374.006l-.735.767a.267.267 0 0 0 .007.376l.76.741zM204.695 141.369l.735-.766a.788.788 0 0 1 1.121-.019l.761.74a.804.804 0 0 1 .019 1.13l-.735.766a.788.788 0 0 1-1.121.02l-.76-.741a.804.804 0 0 1-.02-1.13zm1.147 1.488a.263.263 0 0 0 .374-.007l.735-.766a.269.269 0 0 0-.007-.377l-.76-.74a.264.264 0 0 0-.374.006l-.735.767a.267.267 0 0 0 .007.376l.76.741zM209.184 141.282l.734-.766a.79.79 0 0 1 1.122-.02l.76.741a.803.803 0 0 1 .019 1.13l-.734.766a.79.79 0 0 1-1.122.019l-.76-.74a.803.803 0 0 1-.019-1.13zm1.147 1.487a.263.263 0 0 0 .373-.006l.735-.767a.267.267 0 0 0-.006-.376l-.761-.741a.263.263 0 0 0-.374.007l-.734.766a.268.268 0 0 0 .006.377l.761.74zM206.974 143.584l.734-.766a.79.79 0 0 1 1.122-.02l.76.741a.803.803 0 0 1 .019 1.13l-.734.766a.79.79 0 0 1-1.122.019l-.76-.74a.803.803 0 0 1-.019-1.13zm1.147 1.487a.263.263 0 0 0 .373-.006l.735-.767a.267.267 0 0 0-.006-.376l-.761-.741a.263.263 0 0 0-.374.007l-.734.766a.268.268 0 0 0 .006.377l.761.74zM206.315 137.01l.551-.575a.261.261 0 0 1 .373-.006l.571.555a.267.267 0 0 1 .006.376.263.263 0 0 1-.374.007l-.38-.37-.367.383a.263.263 0 0 1-.374.006.267.267 0 0 1-.006-.376zM205.209 138.162l.367-.384a.264.264 0 0 1 .375-.006.268.268 0 0 1 .006.377l-.368.383a.263.263 0 0 1-.374.007.268.268 0 0 1-.006-.377zM202.033 138.411l.367-.382.38.369-.367.383-.38-.37zM104.253 221.031l2.925-3.92c.278-.372.861-.454 1.236-.177l4.278 3.174 2.786-1.288a.696.696 0 0 1 .931.338l.521 1.108 2.696 5.742a.686.686 0 0 1-.338.925l-8.899 4.114a.695.695 0 0 1-.931-.338l-.752-1.601-.263.122a.27.27 0 0 1-.363-.132l-.861-1.832a.268.268 0 0 1 .132-.361l.264-.121-.846-1.801a.703.703 0 0 1 .206-.845l-2.541-1.88a.886.886 0 0 1-.181-1.227zm2.345-2.227l4.564 3.38.696-.322-4.864-3.579-.396.521zm1.475-1.432c-.142-.103-.357-.078-.46.063l-.286.394 5.088 3.775.851-.394-5.193-3.838zm7.849 1.992c-.022-.046-.12-.094-.197-.058l-2.523 1.166.63.458 2.182-1.009a.509.509 0 0 1 .147-.049l-.239-.508zm-5.953 11.109c.036.077.127.11.204.074l8.899-4.114a.15.15 0 0 0 .074-.203l-2.689-5.726a.154.154 0 0 0-.204-.075l-2.337 1.081-.991.458-1.811.837-3.482 1.61-.263.122a.15.15 0 0 0-.074.202l.846 1.802.944-.437a.823.823 0 0 1 1.09.396l.397.846a.811.811 0 0 1-.396 1.083l-.959.443.752 1.601zm-2.108-3.204l-.015.007.629 1.34.015-.007 1.455-.673a.267.267 0 0 0 .132-.361l-.398-.846a.27.27 0 0 0-.363-.132l-1.455.672zm-3.094-5.464l2.773 2.053 3.064-1.417-4.324-3.191-1.569 2.112c-.126.134-.086.34.056.443z" fill="#DAE3E5"/><path d="M105.604 221.15l.094-.119a.75.75 0 0 1 1.021-.152l.292.221c.15.118.268.289.285.487a.679.679 0 0 1-.143.535l-.095.118a.759.759 0 0 1-.274.22.771.771 0 0 1-.747-.067l-.292-.221a.758.758 0 0 1-.141-1.022zm.481.584l.292.221c.083.055.206.036.261-.046l.088-.134c.024-.03.033-.09.034-.128-.006-.053-.028-.1-.074-.116l-.292-.221c-.052-.032-.136-.05-.198-.021a.15.15 0 0 0-.07.051l-.095.119a.264.264 0 0 0 .054.275z" fill="#DAE3E5"/><circle r=".792" transform="scale(-1 1) rotate(-.609 19182.767 22340.178)" stroke="#DAE3E5"/><path d="M142.743 172.064l.765-.426a5.9 5.9 0 0 1 .368-2.044l-1.618-2.257a.376.376 0 0 1-.055-.32.375.375 0 0 1 .219-.241l.075-.031h.002a2.594 2.594 0 0 1 2.842.621 5.86 5.86 0 0 1 .661-.546.377.377 0 0 1 .523.088.37.37 0 0 1-.088.519 5.162 5.162 0 0 0-1.772 2.196.358.358 0 0 1-.049.12 5.16 5.16 0 0 0-.355 2.097.371.371 0 0 1-.191.339l-.96.535a.34.34 0 0 0-.149.425l.714 1.74a.343.343 0 0 0 .405.2l.986-.262a.374.374 0 0 1 .386.123 5.217 5.217 0 0 0 2.457 1.642.373.373 0 0 1 .234.215l.783 1.907a.34.34 0 0 0 .44.185l2.013-.814a.335.335 0 0 0 .185-.437l-.299-.727a.372.372 0 0 1 .206-.486l2.915-1.179a.376.376 0 0 1 .489.205l.298.727c.07.171.268.254.44.184l2.013-.814a.334.334 0 0 0 .185-.436l-.553-1.347a.37.37 0 0 1 .057-.377 5.15 5.15 0 0 0 .794-5.239c-1.085-2.645-4.131-3.921-6.79-2.846l-.435.176a.376.376 0 0 1-.489-.205.371.371 0 0 1 .206-.485l.434-.176a5.996 5.996 0 0 1 7.05 1.98l.254-.103a.91.91 0 0 0 .503-1.189.922.922 0 0 0-1.197-.502.376.376 0 0 1-.489-.205.371.371 0 0 1 .206-.485 1.674 1.674 0 0 1 2.174.911 1.653 1.653 0 0 1-.914 2.16l-.126.051a5.89 5.89 0 0 1-.462 6.454l.471 1.146a1.078 1.078 0 0 1-.596 1.407l-2.013.815a1.092 1.092 0 0 1-1.417-.594l-.157-.382-2.221.898.157.382a1.08 1.08 0 0 1-.596 1.408l-2.013.814a1.092 1.092 0 0 1-1.417-.594l-.717-1.748a5.961 5.961 0 0 1-2.481-1.64l-.759.202a1.096 1.096 0 0 1-1.294-.64l-.714-1.74a1.082 1.082 0 0 1 .476-1.355zm1.49-3.255c.172-.315.373-.614.599-.892a1.837 1.837 0 0 0-1.661-.59l1.062 1.482z" fill="#DAE3E5"/><path d="M145.784 170.771a.378.378 0 0 1 .691.004.373.373 0 0 1-.491.483.373.373 0 0 1-.2-.487zM146.669 162.555a.375.375 0 0 1 .488.204l.56 1.367a.371.371 0 0 1-.204.485.376.376 0 0 1-.488-.205l-.56-1.367a.37.37 0 0 1 .204-.484zM145.957 161.504a.375.375 0 0 1 .691.005.373.373 0 0 1-.492.482.375.375 0 0 1-.201-.202.375.375 0 0 1 .002-.285zM148.671 159.399a.376.376 0 0 1 .488.205l.24.586a.37.37 0 0 1-.205.484.375.375 0 0 1-.488-.204l-.241-.586a.37.37 0 0 1 .206-.485zM156.486 168.797a.37.37 0 0 1 .205-.484.375.375 0 0 1 .488.204l.007.018a.37.37 0 0 1-.205.483l-.003.001a.375.375 0 0 1-.486-.208l-.006-.014zM156.058 172.132a3.434 3.434 0 0 0 .677-2.114.374.374 0 1 1 .749-.015 4.18 4.18 0 0 1-.824 2.573.379.379 0 0 1-.524.077.371.371 0 0 1-.078-.521zM149.345 161.053a1.58 1.58 0 0 1 2.052.86 1.56 1.56 0 0 1-.863 2.038 1.58 1.58 0 0 1-2.051-.86 1.56 1.56 0 0 1 .862-2.038zm.906 2.208a.818.818 0 0 0 .452-1.068.829.829 0 0 0-1.075-.45.817.817 0 0 0-.451 1.067.827.827 0 0 0 1.074.451zM147.284 168.478l.312-.127a1.562 1.562 0 0 1 .335-2.712 1.581 1.581 0 0 1 2.053.861c.114.278.141.57.095.847l1.717-.695a.376.376 0 0 1 .489.205.373.373 0 0 1-.205.486l-4.513 1.825a.376.376 0 0 1-.489-.205.371.371 0 0 1 .206-.485zm1.553-.629a.818.818 0 0 0 .452-1.068.827.827 0 0 0-1.075-.451.818.818 0 0 0-.452 1.068.828.828 0 0 0 1.075.451zM116.989 262.215l.661.574a5.936 5.936 0 0 1 2.047-.348l1.573-2.288a.372.372 0 0 1 .583-.037l.055.061.001.001c.708.79.854 1.949.382 2.885.255.127.502.272.737.436.17.118.212.351.096.521a.372.372 0 0 1-.519.094 5.155 5.155 0 0 0-2.667-.92.373.373 0 0 1-.129-.005 5.142 5.142 0 0 0-2.093.378.372.372 0 0 1-.384-.065l-.83-.721a.339.339 0 0 0-.45.004l-1.394 1.263a.344.344 0 0 0-.05.45l.581.837c.084.121.09.279.016.405a5.214 5.214 0 0 0-.71 2.869.373.373 0 0 1-.122.293l-1.528 1.385a.338.338 0 0 0-.024.476l1.449 1.616c.124.139.337.15.474.026l.582-.528a.371.371 0 0 1 .526.029l2.1 2.341a.376.376 0 0 1-.027.529l-.582.528a.339.339 0 0 0-.024.476l1.45 1.616c.124.139.336.15.473.026l1.079-.978a.373.373 0 0 1 .374-.074 5.149 5.149 0 0 0 5.197-1.033c2.119-1.919 2.284-5.218.369-7.353l-.313-.349a.377.377 0 0 1 .027-.53.371.371 0 0 1 .526.029l.313.349a5.995 5.995 0 0 1 .533 7.302l.183.205a.912.912 0 0 0 1.29.069.923.923 0 0 0 .065-1.297.376.376 0 0 1 .027-.529.371.371 0 0 1 .526.029c.613.683.56 1.74-.118 2.354a1.655 1.655 0 0 1-2.343-.126l-.09-.101a5.89 5.89 0 0 1-6.227 1.759l-.918.831a1.077 1.077 0 0 1-1.526-.082l-1.45-1.616a1.093 1.093 0 0 1 .077-1.535l.306-.277-1.6-1.784-.305.277a1.078 1.078 0 0 1-1.527-.082l-1.449-1.616a1.092 1.092 0 0 1 .077-1.535l1.4-1.268a5.974 5.974 0 0 1 .699-2.891l-.447-.645a1.096 1.096 0 0 1 .162-1.435l1.393-1.262a1.083 1.083 0 0 1 1.437-.013zm3.567.296c.356.055.705.142 1.043.26a1.836 1.836 0 0 0-.009-1.763l-1.034 1.503z" fill="#DAE3E5"/><path d="M119.24 264.637a.372.372 0 0 1 .353.393.375.375 0 0 1-.39.354.382.382 0 0 1-.258-.124.375.375 0 0 1 .027-.528.37.37 0 0 1 .268-.095zM127.268 262.678a.376.376 0 0 1-.027.528l-1.095.992a.372.372 0 0 1-.526-.028.376.376 0 0 1 .027-.528l1.095-.992a.372.372 0 0 1 .526.028zM128.013 261.651c.098.005.192.05.258.123a.375.375 0 0 1-.027.528.372.372 0 0 1-.621-.298.374.374 0 0 1 .39-.353zM130.915 263.488a.374.374 0 0 1-.027.528l-.469.425a.374.374 0 0 1-.499-.556l.469-.425a.37.37 0 0 1 .526.028zM124.732 274.032a.37.37 0 0 1 .525.028.374.374 0 0 1-.027.528l-.014.013a.37.37 0 0 1-.524-.03l-.001-.001a.375.375 0 0 1 .029-.528l.012-.01zM121.449 274.762c.727.219 1.515.19 2.219-.082a.375.375 0 1 1 .269.7 4.177 4.177 0 0 1-2.7.099.377.377 0 0 1-.251-.467.37.37 0 0 1 .463-.25zM129.589 264.684a1.58 1.58 0 0 1-.111 2.222 1.562 1.562 0 0 1-2.21-.119 1.58 1.58 0 0 1 .111-2.222 1.562 1.562 0 0 1 2.21.119zm-1.769 1.602a.818.818 0 0 0 1.158.062.827.827 0 0 0 .058-1.163.817.817 0 0 0-1.157-.062.827.827 0 0 0-.059 1.163zM121.905 265.268l.225.25a1.563 1.563 0 0 1 2.665-.606 1.58 1.58 0 0 1-.112 2.223 1.547 1.547 0 0 1-.765.377l1.237 1.38a.372.372 0 1 1-.553.501l-3.25-3.624a.377.377 0 0 1 .027-.53.371.371 0 0 1 .526.029zm1.119 1.247a.818.818 0 0 0 1.159.062.828.828 0 0 0 .058-1.164.818.818 0 0 0-1.158-.062.828.828 0 0 0-.059 1.164z" fill="#DAE3E5"/><circle r="1.161" transform="scale(-1 1) rotate(-.609 15315.543 17229.572)" stroke="#DAE3E5"/><circle r=".792" transform="scale(-1 1) rotate(-.609 21190.672 17023.367)" stroke="#DAE3E5"/><circle r="1.161" transform="scale(-1 1) rotate(-.609 14458.227 8398.29)" stroke="#DAE3E5"/><circle r="1.161" transform="scale(-1 1) rotate(-.609 19372.291 13980.844)" stroke="#DAE3E5"/><circle r="1.161" transform="scale(-1 1) rotate(-.609 14991.717 21111.22)" stroke="#DAE3E5"/><circle r="1.161" transform="scale(-1 1) rotate(-.609 16902.043 2687.553)" stroke="#DAE3E5"/><path d="M160.105 133.987c1.142 1.776 3.521 2.29 5.313 1.15 1.792-1.141 2.318-3.506 1.176-5.281-1.143-1.776-3.522-2.29-5.313-1.15-1.79 1.143-2.316 3.505-1.176 5.281zm1.589-4.638c1.434-.912 3.337-.501 4.251.92a3.049 3.049 0 0 1-.941 4.224 3.085 3.085 0 0 1-4.25-.919 3.054 3.054 0 0 1 .94-4.225zM165.633 139.532l3.708-2.361.414.643-3.708 2.361-.414-.643zM163.415 139.131l6.489-4.131.414.643-6.489 4.131-.414-.643zM156.278 143.676l.648-.413.413.642-.648.413-.413-.642zM154.745 145.558l.648-.412.413.642-.648.412-.413-.642z" fill="#DAE3E5"/><path d="M155.146 141.846a28.7 28.7 0 0 0-3.002-11.504l4.93 1.051a.386.386 0 0 0 .463-.413 3.723 3.723 0 0 0-2.928-3.25l-.435-.094 2.282-1.453a.38.38 0 0 0 .036-.619 3.776 3.776 0 0 0-4.392-.233l-.422.268.582-2.646a.38.38 0 0 0-.416-.46 3.763 3.763 0 0 0-3.284 2.92l-.113.504a3.88 3.88 0 0 0-.074.501 3.67 3.67 0 0 0-.486-.144l-.507-.11a3.78 3.78 0 0 0-4.039 1.742.38.38 0 0 0 .246.568l2.661.583-.426.271a3.73 3.73 0 0 0-1.626 4.064.384.384 0 0 0 .58.228l2.28-1.452-.096.432a3.71 3.71 0 0 0 1.74 4.006.384.384 0 0 0 .405-.007.387.387 0 0 0 .168-.239l1.029-4.557a20.553 20.553 0 0 1 2.075 10.657c-.509.164-1.009.356-1.496.575l-.216.109.347.682.201-.103c.354-.16.718-.3 1.086-.431-.013.122-.025.245-.041.368l.763.095a21.346 21.346 0 0 0-2.457-13.116l.137-.606.457.098a27.722 27.722 0 0 1 3.23 14.033l.769.03c.022-.523.025-1.053.015-1.584 1.981-.247 3.99-.06 5.887.548l.24-.727a14.433 14.433 0 0 0-3.46-.656l13.599-8.657-.414-.643-14.56 9.269c-.44.012-.879.049-1.318.102zm1.521-11.323l-5.602-1.194a2.989 2.989 0 0 1 2.872-.963l.508.11a2.965 2.965 0 0 1 2.222 2.047zm-1.119-4.667l-2.687 1.71a3.773 3.773 0 0 0-2.162 1.042 2.967 2.967 0 0 1 1.376-2.354l.438-.279a3.005 3.005 0 0 1 3.035-.119zm-6.35.225l.112-.505a2.992 2.992 0 0 1 2.071-2.214l-.69 3.141a3.729 3.729 0 0 0-.765 2.167 2.872 2.872 0 0 1-.727-2.59l-.001.001zm-1.985.831l.507.109c.239.054.47.138.687.25.071.432.22.847.44 1.226a3.792 3.792 0 0 0-1.364.049l-3.157-.692a3.006 3.006 0 0 1 2.888-.943l-.001.001zm-.978 3.06l.438-.279a3.004 3.004 0 0 1 2.728-.259 3.76 3.76 0 0 0-1.856 1.516l-2.687 1.711a2.972 2.972 0 0 1 1.378-2.69l-.001.001zm2.415 5.655a2.946 2.946 0 0 1-.939-2.864l.113-.505a2.928 2.928 0 0 1 1.297-1.837c.243-.155.508-.275.785-.356l-1.256 5.562zM82.169 295.087a2.872 2.872 0 0 0 .938 3.937c1.343.835 3.1.428 3.924-.911a2.872 2.872 0 0 0-.939-3.937 2.842 2.842 0 0 0-3.923.911zm3.625-.426a2.298 2.298 0 0 1 .75 3.15 2.272 2.272 0 0 1-3.138.728 2.298 2.298 0 0 1-.75-3.15 2.274 2.274 0 0 1 3.138-.728zM80.226 300.582l2.778 1.73-.298.484-2.778-1.729.298-.485zM79.78 298.964l4.863 3.027-.299.484-4.862-3.026.299-.485zM74.433 295.635l.485.302-.297.484-.486-.303.298-.483zM72.675 295.211l.486.303-.298.484-.486-.303.298-.484z" fill="#DAE3E5"/><path d="M75.298 294.286a21.377 21.377 0 0 0 6.757-5.717l.88 3.648a.287.287 0 0 0 .169.197.282.282 0 0 0 .258-.02 2.77 2.77 0 0 0 1.24-3.011l-.078-.322 1.71 1.064a.283.283 0 0 0 .428-.175 2.812 2.812 0 0 0-1.257-3.024l-.316-.196 1.963-.462a.283.283 0 0 0 .176-.427 2.804 2.804 0 0 0-3.018-1.265l-.375.087a2.815 2.815 0 0 0-.36.111 2.77 2.77 0 0 0-.06-.372l-.089-.376a2.812 2.812 0 0 0-2.469-2.151.283.283 0 0 0-.302.348l.465 1.974-.319-.199a2.777 2.777 0 0 0-3.252.216.287.287 0 0 0 .034.463l1.708 1.064-.32.074a2.761 2.761 0 0 0-2.13 2.457.287.287 0 0 0 .35.306l3.39-.776a15.304 15.304 0 0 1-6.486 4.823 10.828 10.828 0 0 0-.868-.82l-.143-.109-.346.452.134.102c.221.186.433.385.639.59-.086.031-.173.062-.26.091l.181.543a15.894 15.894 0 0 0 8.015-5.87l.45-.103.082.338a20.633 20.633 0 0 1-8.381 6.684l.227.526c.359-.153.715-.322 1.069-.499a10.217 10.217 0 0 1 1.526 4.128l.565-.073a10.738 10.738 0 0 0-.673-2.533l10.188 6.342.299-.484-10.909-6.792c-.15-.291-.315-.574-.492-.852zm8.09-2.623l-1-4.145c.777.214 1.38.834 1.57 1.619l.09.376a2.207 2.207 0 0 1-.66 2.15zm2.774-2.253l-2.013-1.253a2.81 2.81 0 0 0-1.395-1.117 2.212 2.212 0 0 1 2.023.166l.328.205a2.237 2.237 0 0 1 1.057 1.999zm-2.195-4.191l.375-.087a2.228 2.228 0 0 1 2.153.678l-2.33.548a2.767 2.767 0 0 0-1.701.184 2.136 2.136 0 0 1 1.504-1.322v-.001zm-1.196-1.065l.09.376c.04.178.058.36.053.541a2.7 2.7 0 0 0-.682.69 2.797 2.797 0 0 0-.472-.899l-.55-2.343a2.24 2.24 0 0 1 1.561 1.636v-.001zm-2.37.328l.329.205a2.236 2.236 0 0 1 1.052 1.747 2.802 2.802 0 0 0-1.616-.757l-2.013-1.254a2.215 2.215 0 0 1 2.25.06l-.001-.001zm-3.019 3.442a2.194 2.194 0 0 1 1.621-1.552l.375-.087a2.185 2.185 0 0 1 1.651.279c.182.114.348.253.491.413l-4.138.947z" fill="#DAE3E5"/></g></svg>