<svg width="661" height="519" fill="none" xmlns="http://www.w3.org/2000/svg"><path d="M661 519c0-88.052-34.82-172.497-96.801-234.759C502.218 221.978 418.154 187 330.5 187c-87.654 0-171.718 34.978-233.699 97.241C34.821 346.503 0 430.948 0 519h84.7c0-65.486 25.897-128.29 71.994-174.595 46.096-46.306 108.616-72.32 173.806-72.32 65.19 0 127.71 26.014 173.806 72.32C550.403 390.71 576.299 453.514 576.299 519H661z" fill="#F3F5F8"/><g opacity=".6"><path d="M372.728 346.96l.014-.016a.804.804 0 0 1 .131-.105l.017-.011.061-.032.011-.005 7.713-3.48 15.553-19.258a1.395 1.395 0 0 1 1.949-.215l29.859 23.738a1.37 1.37 0 0 1 .214 1.933l-15.553 19.259-1.742 8.227a.498.498 0 0 1-.022.077l-.006.019a.867.867 0 0 1-.03.07l-.003.007a.774.774 0 0 1-.043.073l-.012.017-.026.036-1.137 1.408a1.657 1.657 0 0 1-2.314.255l-35.547-28.26a1.625 1.625 0 0 1-.253-2.296l1.136-1.408.03-.033zm54.376 1.697l-29.788-23.681-15.183 18.8 29.788 23.682 15.183-18.801zm-15.864 20.082l-30.219-24.024-6.407 2.89 12.267 9.752 2.407-1.729a1.36 1.36 0 0 1 1.633.038l7.388 5.874a1.33 1.33 0 0 1 .394 1.572l-1.176 2.709 12.267 9.751 1.446-6.833zm-23.201-10.461l8.33 6.622.994-2.29-7.288-5.795-2.036 1.463zm-15.361-8.989a.21.21 0 0 0 .033.298l35.547 28.26a.216.216 0 0 0 .301-.033l.689-.853-35.881-28.525-.689.853z" fill="#DAE3E5"/><path d="M390.731 336.698a.705.705 0 0 1 .11.998l-4.542 5.625 25.162 20.005 4.542-5.625a.72.72 0 0 1 1.006-.111.707.707 0 0 1 .11.999l-4.736 5.864a1.13 1.13 0 0 1-1.577.174l-25.644-20.388a1.11 1.11 0 0 1-.173-1.566l4.736-5.864a.72.72 0 0 1 1.006-.111zM398.437 327.799l25.644 20.388a1.11 1.11 0 0 1 .173 1.565l-4.736 5.865a.72.72 0 0 1-1.006.111.707.707 0 0 1-.11-.999l4.542-5.625-25.162-20.004-4.542 5.624a.719.719 0 0 1-1.006.111.706.706 0 0 1-.11-.998l4.736-5.864a1.128 1.128 0 0 1 1.577-.174zM201.732 221.225l-.012-.018a.658.658 0 0 1-.04-.074l-.003-.007a.696.696 0 0 1-.05-.157l-.003-.012-1.508-8.326-14.919-19.754a1.397 1.397 0 0 1 .264-1.943l30.263-23.222a1.37 1.37 0 0 1 1.927.261l14.919 19.755 7.56 3.682c.004.001.007.004.011.006.02.01.04.021.059.033l.017.011a.68.68 0 0 1 .06.046l.007.005a.667.667 0 0 1 .06.059l.013.016.029.034 1.09 1.444a1.657 1.657 0 0 1-.312 2.307l-36.027 27.645a1.628 1.628 0 0 1-2.29-.31l-1.09-1.444-.025-.037zm14.815-52.346l-30.19 23.166 14.563 19.284 30.191-23.166-14.564-19.284zm15.642 20.255l-30.627 23.501 1.252 6.916 12.432-9.539-1.094-2.755a1.359 1.359 0 0 1 .433-1.575l7.487-5.746a1.334 1.334 0 0 1 1.622-.001l2.343 1.797 12.432-9.54-6.28-3.058zm-15.769 19.977l8.443-6.478-1.981-1.52-7.387 5.668.925 2.33zm-12.441 12.726a.211.211 0 0 0 .298.04l36.027-27.644a.218.218 0 0 0 .041-.301l-.661-.874-36.366 27.904.661.875z" fill="#DAE3E5"/><path d="M196.135 201.273a.706.706 0 0 1 .996.135l4.357 5.769 25.503-19.568-4.358-5.769a.72.72 0 0 1 .136-1.003.706.706 0 0 1 .996.135l4.542 6.015a1.128 1.128 0 0 1-.213 1.572l-25.991 19.943a1.109 1.109 0 0 1-1.561-.211l-4.543-6.015a.72.72 0 0 1 .136-1.003zM189.367 191.64l25.992-19.942a1.109 1.109 0 0 1 1.561.211l4.542 6.015a.718.718 0 0 1-.136 1.003.705.705 0 0 1-.995-.135l-4.357-5.769-25.503 19.568 4.357 5.769a.719.719 0 0 1-.136 1.003.706.706 0 0 1-.995-.135l-4.543-6.015a1.13 1.13 0 0 1 .213-1.573z" fill="#DAE3E5"/><path d="M143.066 96.907l4.429 1.451 4.198-3.594.012-.01a.618.618 0 0 1 .097-.068l.034-.019.03-.014.038-.017.031-.012.038-.013a.756.756 0 0 1 .035-.01l.035-.007a.73.73 0 0 1 .19-.014l.03.002a.859.859 0 0 1 .153.03l.017.004 14.522 4.758.015.006a.9.9 0 0 1 .042.016l.031.014a.49.49 0 0 1 .034.017l.035.02.027.016.035.025.024.019a.578.578 0 0 1 .083.078l.024.028.022.028.023.033.017.027a.546.546 0 0 1 .036.066 3.023 3.023 0 0 1 .029.071l.011.032.012.044.004.015 1.188 5.359 6.608 2.164.731-2.172a.77.77 0 0 1 .969-.486l5.809 1.903a.756.756 0 0 1 .482.962l-.73 2.172.242.079a3.79 3.79 0 0 1 2.414 4.811l-8.439 25.106a3.86 3.86 0 0 1-4.848 2.431l-39.692-13.003a3.79 3.79 0 0 1-2.414-4.81l8.439-25.106a3.86 3.86 0 0 1 4.848-2.432zm38.485 11l-4.357-1.427-.487 1.448 4.357 1.427.487-1.448zm-48.872 19.9l32.19 10.545 9.169-27.279a.772.772 0 0 1 .97-.486.756.756 0 0 1 .482.962l-9.169 27.279 6.051 1.982a2.317 2.317 0 0 0 2.909-1.459l1.72-5.118-2.178-.714a.757.757 0 0 1-.483-.962.77.77 0 0 1 .969-.486l2.179.714.803-2.39-2.178-.714a.757.757 0 0 1-.483-.962.77.77 0 0 1 .969-.486l2.179.714.803-2.391-2.178-.713a.758.758 0 0 1-.483-.962.773.773 0 0 1 .97-.487l2.178.714.803-2.39-2.178-.713a.758.758 0 0 1-.483-.962.773.773 0 0 1 .97-.487l2.178.714 2.361-7.025a2.273 2.273 0 0 0-1.448-2.886l-14.519-4.757h-.002l-.004-.002a.812.812 0 0 1-.16-.075l-.02-.013a.622.622 0 0 1-.058-.043l-.014-.01c-.022-.02-.044-.04-.064-.062l-.01-.011a.788.788 0 0 1-.063-.081l-.032-.052-.014-.025a.791.791 0 0 1-.041-.096l-.022-.075-.003-.011-1.188-5.358-13.699-4.488-4.198 3.594-.009.007a.714.714 0 0 1-.063.047l-.015.01a.743.743 0 0 1-.076.043l-.026.011a.847.847 0 0 1-.156.05l-.016.004a.746.746 0 0 1-.089.011h-.017a.72.72 0 0 1-.072 0h-.024a.832.832 0 0 1-.068-.01c-.008 0-.015-.002-.023-.003a.736.736 0 0 1-.082-.022h-.005l-.002-.001-4.838-1.585a2.317 2.317 0 0 0-2.909 1.459l-8.438 25.105h-.001a2.275 2.275 0 0 0 1.448 2.887z" fill="#DAE3E6"/><path d="M155.796 108.575a10.354 10.354 0 0 1 6.595 13.145c-1.834 5.457-7.776 8.438-13.247 6.646-5.47-1.793-8.429-7.69-6.595-13.146 1.834-5.456 7.777-8.437 13.247-6.645zm-6.165 18.342c4.67 1.53 9.743-1.014 11.309-5.672a8.84 8.84 0 0 0-5.63-11.222c-4.67-1.53-9.743 1.015-11.309 5.673a8.839 8.839 0 0 0 5.63 11.221zM150.925 100.014l1.424-1.678.004-.004c.011-.014.024-.026.036-.039l.017-.017a.565.565 0 0 1 .034-.03l.025-.021.023-.017.039-.026.009-.006a.827.827 0 0 1 .255-.099l.007-.001a.767.767 0 0 1 .138-.013h.009l.048.003c.01 0 .019 0 .028.002.011 0 .022.003.034.005l.042.007.024.006a.803.803 0 0 1 .051.014l.005.001 11.045 3.621.005.001.052.02.02.008a.846.846 0 0 1 .068.036l.028.017.036.024a4398132262.992 4398132262.992 0 0 0 .058.046l.002.002a.773.773 0 0 1 .05.049l.011.012c.012.014.025.028.036.043a.48.48 0 0 1 .041.059.722.722 0 0 1 .061.121l.005.01.014.044c.003.009.007.018.009.028l.007.031a.696.696 0 0 1 .01.044l.003.024a.834.834 0 0 1 .005.052l.001.005.126 2.187a.77.77 0 0 1-1.009.774.76.76 0 0 1-.522-.677l-.096-1.672-10.061-3.298-1.089 1.283a.773.773 0 0 1-1.08.094.76.76 0 0 1-.088-1.075zM143.509 100.279a2.274 2.274 0 0 1 1.448 2.887 2.316 2.316 0 0 1-2.908 1.459 2.274 2.274 0 0 1-1.448-2.887 2.315 2.315 0 0 1 2.908-1.459zm-.974 2.898a.772.772 0 0 0 .97-.487.758.758 0 0 0-.483-.963.773.773 0 0 0-.97.487.76.76 0 0 0 .483.963z" fill="#DAE3E6"/><path d="M141.078 111.275c3.265-5.093 9.697-7.562 15.691-5.599 7.072 2.317 10.897 9.941 8.526 16.995-2.371 7.054-10.054 10.907-17.126 8.591-5.994-1.964-9.654-7.739-9.188-13.749a3.284 3.284 0 0 1-1.758-4.039 3.346 3.346 0 0 1 3.855-2.199zm7.577 18.538c6.272 2.055 13.085-1.363 15.187-7.618 2.103-6.255-1.289-13.016-7.56-15.07-5.467-1.791-11.344.576-14.155 5.355l-.006.015a.73.73 0 0 1-.085.143 12.043 12.043 0 0 0-.941 2.105c-2.103 6.255 1.289 13.016 7.56 15.07zm-9.443-13.947a13.533 13.533 0 0 1 1.054-3.134 1.8 1.8 0 0 0-1.591 1.218 1.766 1.766 0 0 0 .537 1.916zM168.552 110.637l2.907.953a.757.757 0 0 1 .483.962.772.772 0 0 1-.97.487l-2.907-.953a.757.757 0 0 1-.483-.962.772.772 0 0 1 .97-.487zM101.666 240.407l1.185-1.858-1.153-2.344-.003-.007-.008-.02-.006-.015a.154.154 0 0 1-.005-.017l-.005-.018-.003-.016-.004-.019-.001-.016-.002-.018v-.018-.017l.002-.019.002-.015a.155.155 0 0 1 .004-.021.263.263 0 0 0 .003-.013.09.09 0 0 1 .006-.02.074.074 0 0 1 .004-.014l.007-.018.007-.015a.08.08 0 0 1 .008-.016l.009-.017.005-.008 3.883-6.09.005-.007.012-.017.01-.013.012-.013.013-.014.011-.01.015-.013.012-.009.016-.012a.057.057 0 0 0 .013-.008l.017-.009.015-.008.015-.006.018-.007.015-.005.019-.005.015-.003.018-.003.018-.003.016-.001h.029l2.593.085 1.767-2.772-.909-.589a.364.364 0 0 1-.108-.501l1.553-2.436a.357.357 0 0 1 .497-.108l.909.589.065-.102a1.791 1.791 0 0 1 2.486-.54l10.505 6.813a1.824 1.824 0 0 1 .545 2.505l-10.616 16.649a1.793 1.793 0 0 1-2.486.54l-10.505-6.813a1.824 1.824 0 0 1-.545-2.505zm9.557-16.331l-1.165 1.827.606.393 1.165-1.827-.606-.393zm3.373 24.716l8.609-13.502-11.414-7.402a.364.364 0 0 1-.109-.501.357.357 0 0 1 .497-.108l11.414 7.402 1.619-2.538a1.095 1.095 0 0 0-.327-1.503l-2.141-1.389-.583.914a.358.358 0 0 1-.497.108.364.364 0 0 1-.109-.501l.582-.914-1-.648-.582.913a.357.357 0 0 1-.497.108.364.364 0 0 1-.109-.501l.582-.913-1-.649-.582.914a.358.358 0 0 1-.497.108.363.363 0 0 1-.109-.501l.582-.914-1-.648-.582.913a.358.358 0 0 1-.497.108.363.363 0 0 1-.109-.501l.582-.913-2.939-1.907a1.076 1.076 0 0 0-1.492.324l-3.883 6.091-.002.002c-.007.012-.015.022-.023.033l-.008.008a.24.24 0 0 1-.022.023l-.008.008a.288.288 0 0 1-.027.022l-.006.004a.274.274 0 0 1-.036.023l-.006.003-.031.014a.058.058 0 0 1-.014.005l-.027.009-.013.003a.27.27 0 0 1-.041.007l-.008.001-.037.001h-.005l-2.593-.085-3.664 5.746 1.153 2.344.002.005a.488.488 0 0 1 .017.042c.004.014.008.027.01.041a.263.263 0 0 1 .003.013l.003.029a.193.193 0 0 1 .001.048v.008a.6.6 0 0 1-.005.042l-.002.007a.189.189 0 0 1-.009.034l-.003.01c-.003.011-.008.021-.012.03l-.004.011-.02.035-.001.002-1.294 2.03a1.094 1.094 0 0 0 .326 1.503l10.505 6.813a1.076 1.076 0 0 0 1.492-.324z" fill="#DAE3E6"/><path d="M108.504 235.948a4.894 4.894 0 0 1 6.794-1.476 4.986 4.986 0 0 1 1.487 6.846 4.895 4.895 0 0 1-6.794 1.476 4.987 4.987 0 0 1-1.487-6.846zm7.675 4.977a4.257 4.257 0 0 0-1.269-5.845 4.18 4.18 0 0 0-5.8 1.261 4.257 4.257 0 0 0 1.27 5.844 4.178 4.178 0 0 0 5.799-1.26zM104.013 237.173l-.602-.849-.001-.002-.014-.022-.006-.009-.009-.019-.007-.014-.005-.013-.008-.021-.001-.005a.336.336 0 0 1-.013-.063l-.001-.005-.002-.029.001-.031v-.003a.352.352 0 0 1 .01-.065l.001-.004.007-.022.004-.012.007-.015a.154.154 0 0 1 .008-.019l.006-.01a.12.12 0 0 1 .012-.022l.001-.002 2.955-4.632.001-.002a.177.177 0 0 1 .016-.022.055.055 0 0 0 .006-.008l.014-.017.01-.01.011-.011.015-.013.006-.005.022-.017h.001c.009-.007.019-.012.028-.018a.049.049 0 0 0 .007-.003l.024-.011a.324.324 0 0 1 .028-.011l.004-.001a.327.327 0 0 1 .062-.014l.006-.001.022-.002H106.668l.021.001.011.001.025.004h.002l1.016.199a.364.364 0 0 1 .236.553.356.356 0 0 1-.371.159l-.777-.152-2.692 4.22.46.649a.366.366 0 0 1-.084.506.358.358 0 0 1-.502-.086zM103.263 240.6c.321-.504.991-.65 1.492-.324.501.325.648.999.326 1.503-.321.504-.99.649-1.491.324a1.094 1.094 0 0 1-.327-1.503zm1.212.786a.364.364 0 0 0-.108-.501.358.358 0 0 0-.498.108.365.365 0 0 0 .109.501c.167.108.39.06.497-.108z" fill="#DAE3E6"/><path d="M108.012 243.005c-1.948-2.094-2.323-5.329-.72-7.843a6.328 6.328 0 0 1 8.783-1.908c2.951 1.914 3.814 5.884 1.922 8.851a6.328 6.328 0 0 1-7.374 2.592 1.553 1.553 0 0 1-2.056.331 1.582 1.582 0 0 1-.555-2.023zm9.379-1.293c1.678-2.631.913-6.152-1.705-7.849a5.61 5.61 0 0 0-7.788 1.692c-1.462 2.293-1.069 5.262.79 7.111a5.612 5.612 0 0 0 8.703-.954zm-7.495 2.686a6.413 6.413 0 0 1-1.312-.851.853.853 0 0 0 .372.872.835.835 0 0 0 .94-.021zM110.947 230.349l.777-1.219a.357.357 0 0 1 .498-.108.365.365 0 0 1 .109.501l-.778 1.219a.357.357 0 0 1-.497.108.363.363 0 0 1-.109-.501z" fill="#DAE3E6"/><circle r="4.215" transform="scale(-1 1) rotate(-.609 33841.788 45017.394)" stroke="#DAE3E5"/><circle r="2.643" transform="scale(-1 1) rotate(-.609 32142.541 45322.294)" stroke="#DAE3E5"/><circle r="4.215" transform="scale(-1 1) rotate(-.609 32815.557 46723.777)" stroke="#DAE3E5"/><circle r="4.215" transform="scale(-1 1) rotate(-.609 20337.677 25726.888)" stroke="#DAE3E5"/><circle r="2.643" transform="scale(-1 1) rotate(-.609 18638.43 26031.788)" stroke="#DAE3E5"/><circle r="2.643" transform="scale(-1 1) rotate(-.609 35234.764 13907.223)" stroke="#DAE3E5"/><circle r="2.643" transform="scale(-1 1) rotate(-.609 34614.27 12893.254)" stroke="#DAE3E5"/><circle r="4.215" transform="scale(-1 1) rotate(-.609 19311.446 27433.177)" stroke="#DAE3E5"/><circle r="4.215" transform="scale(-1 1) rotate(-.609 38559.67 29590.766)" stroke="#DAE3E5"/><circle r="2.643" transform="scale(-1 1) rotate(-.609 32416.557 20388.493)" stroke="#DAE3E5"/><circle r="4.215" transform="scale(-1 1) rotate(-.609 30633.4 28232.424)" stroke="#DAE3E5"/><path d="M478.05 213.11a5.273 5.273 0 0 1 3.139-6.041 5.353 5.353 0 0 1 5.553.921c.11-.177.238-.346.374-.508l-6.75-16.11a1.053 1.053 0 0 1 .572-1.381 1.07 1.07 0 0 1 1.391.573l6.547 15.628c2.165-.891 4.66.136 5.563 2.291a4.215 4.215 0 0 1-2.289 5.524l-10.794 4.446a3.208 3.208 0 0 1-4.172-1.717 3.161 3.161 0 0 1 .866-3.626zm2.487 3.39l10.795-4.447a2.108 2.108 0 0 0 1.144-2.762 2.138 2.138 0 0 0-2.781-1.145c-.916.377-1.507 1.242-1.472 2.153.019.51-.331.96-.835 1.07a1.068 1.068 0 0 1-1.209-.629 3.208 3.208 0 0 0-4.172-1.718 3.162 3.162 0 0 0-1.716 4.143 1.053 1.053 0 0 1-.572 1.381 1.054 1.054 0 0 0-.572 1.381 1.07 1.07 0 0 0 1.39.573z" fill="#DAE3E5"/><path d="M416.871 185.546l18.674-7.693a1.071 1.071 0 0 1 1.393.574c.226.54-.031 1.16-.573 1.383l-17.691 7.288 8.848 21.123 15.637-37.758a1.073 1.073 0 0 1 1.396-.575l38.006 15.658-8.848-21.122-10.812 4.454a1.069 1.069 0 0 1-1.392-.573l-1.64-3.915c-.226-.54.03-1.159.573-1.383l.983-.405-.82-1.957-5.897 2.429.82 1.958.982-.405a1.07 1.07 0 0 1 1.393.573l1.64 3.914c.226.54-.031 1.16-.573 1.384l-2.949 1.214a1.069 1.069 0 0 1-1.392-.573c-.227-.54.03-1.16.573-1.384l1.965-.809-.82-1.958-.982.405a1.07 1.07 0 0 1-1.393-.573l-1.64-3.914a1.056 1.056 0 0 1 .573-1.384l7.863-3.239a1.071 1.071 0 0 1 1.393.574l1.639 3.914c.226.54-.03 1.16-.573 1.383l-.983.405.82 1.957 10.812-4.454a1.066 1.066 0 0 1 1.392.574l10.244 24.465a1.053 1.053 0 0 1-.573 1.383c-.256.106-.549.11-.814 0l-39.4-16.236-16.211 39.145a1.059 1.059 0 0 1-.983.654 1.071 1.071 0 0 1-.985-.654l-10.248-24.463c-.226-.54.03-1.16.573-1.384z" fill="#DAE3E5"/><path d="M437.751 227.325l-6.556-15.649c-.226-.54.03-1.159.573-1.383a1.07 1.07 0 0 1 1.392.574l6.758 16.131c.212.018.423.049.628.096a5.282 5.282 0 0 1 3.264-4.558 5.36 5.36 0 0 1 6.54 2.061 3.213 3.213 0 0 1 3.207 1.952c.144.345.21.7.228 1.053l16.886-6.956a1.07 1.07 0 0 1 1.392.573c.226.54-.03 1.16-.573 1.383l-19.652 8.096-3.93 1.619-6.879 2.833c-2.167.893-4.665-.136-5.569-2.293a4.22 4.22 0 0 1 2.291-5.532zm2.459 5.869l6.878-2.833 3.931-1.62c.541-.223.798-.843.572-1.382a1.07 1.07 0 0 0-1.392-.574 1.069 1.069 0 0 1-1.392-.573 3.212 3.212 0 0 0-4.177-1.72 3.166 3.166 0 0 0-1.719 4.149 1.053 1.053 0 0 1-.404 1.295 1.07 1.07 0 0 1-1.356-.169c-.627-.668-1.663-.863-2.58-.485a2.11 2.11 0 0 0-1.146 2.765 2.141 2.141 0 0 0 2.785 1.147zM446.357 187.159a4.216 4.216 0 0 1 2.29-5.527c2.166-.893 4.663.135 5.566 2.291a4.217 4.217 0 0 1-2.29 5.527c-2.167.893-4.663-.135-5.566-2.291zm5.892-2.427a2.14 2.14 0 0 0-2.783-1.146 2.109 2.109 0 0 0-1.145 2.764 2.14 2.14 0 0 0 2.783 1.146 2.109 2.109 0 0 0 1.145-2.764z" fill="#DAE3E5"/><path d="M437.274 206.914l7.856-3.236a1.07 1.07 0 0 1 1.392.573l4.504 10.751.982-.405a1.07 1.07 0 0 1 1.392.573 1.054 1.054 0 0 1-.573 1.382l-11.784 4.854a1.07 1.07 0 0 1-1.392-.573 1.054 1.054 0 0 1 .573-1.382l.982-.404-4.504-10.751a1.054 1.054 0 0 1 .572-1.382zm5.896 11.324l5.892-2.427-1.638-3.91-5.892 2.427 1.638 3.91zm-2.457-5.864l5.892-2.427-1.638-3.909-5.892 2.427 1.638 3.909z" fill="#DAE3E5"/><path d="M454.725 223.74a1.053 1.053 0 0 1 .572-1.381l2.945-1.213-7.777-18.56a1.053 1.053 0 0 1 .572-1.381l9.815-4.043a1.069 1.069 0 0 1 1.391.572l7.776 18.561 2.945-1.213a1.068 1.068 0 0 1 1.39.573l1.638 3.907a1.054 1.054 0 0 1-.573 1.381 1.068 1.068 0 0 1-1.39-.572l-1.228-2.931-16.685 6.873a1.068 1.068 0 0 1-1.391-.573zm1.387-13.171l.981-.404a1.069 1.069 0 0 1 1.391.572 1.053 1.053 0 0 1-.572 1.381l-.982.405 3.275 7.815 7.851-3.234-7.367-17.584-7.852 3.234 3.275 7.815z" fill="#DAE3E5"/><path d="M466.788 194.697l7.856-3.236a1.068 1.068 0 0 1 1.391.573l4.505 10.75.982-.404a1.068 1.068 0 0 1 1.391.572c.226.54-.03 1.159-.572 1.382l-11.785 4.854a1.068 1.068 0 0 1-1.391-.573 1.053 1.053 0 0 1 .572-1.381l.982-.405-4.504-10.75c-.226-.54.03-1.159.573-1.382zm5.895 11.323l5.893-2.427-1.638-3.909-5.892 2.427 1.637 3.909zm-2.456-5.864l5.892-2.427-1.638-3.909-5.892 2.427 1.638 3.909zM179.556 321.386a3.256 3.256 0 0 1 3.861-1.662 3.307 3.307 0 0 1 2.294 2.61c.122-.041.249-.073.377-.097l3.067-10.338a.65.65 0 0 1 .813-.437.66.66 0 0 1 .441.817l-2.975 10.03a2.64 2.64 0 0 1 1.765 3.268 2.602 2.602 0 0 1-3.252 1.746l-6.898-2.091a1.98 1.98 0 0 1-1.323-2.451 1.952 1.952 0 0 1 1.83-1.395zm-.135 2.592l6.897 2.092a1.303 1.303 0 0 0 1.627-.874 1.32 1.32 0 0 0-.883-1.634c-.585-.177-1.205.005-1.544.454a.65.65 0 0 1-.817.186.659.659 0 0 1-.333-.773 1.98 1.98 0 0 0-1.323-2.451 1.95 1.95 0 0 0-2.439 1.31.65.65 0 0 1-.813.437.65.65 0 0 0-.813.436.659.659 0 0 0 .441.817z" fill="#DAE3E5"/><path d="M161.075 284.31l11.933 3.617a.663.663 0 0 1 .442.819.652.652 0 0 1-.815.437l-11.304-3.427-4.022 13.555 22.226-11.942a.663.663 0 0 1 .892.27l12.052 22.333 4.022-13.554-6.909-2.094a.661.661 0 0 1-.441-.819l.745-2.511a.65.65 0 0 1 .814-.438l.628.191.373-1.256-3.768-1.143-.373 1.256.628.191a.66.66 0 0 1 .442.818l-.746 2.512a.65.65 0 0 1-.814.437l-1.884-.571a.66.66 0 0 1-.442-.818.652.652 0 0 1 .815-.438l1.256.381.372-1.256-.628-.19a.661.661 0 0 1-.441-.819l.745-2.511a.65.65 0 0 1 .814-.438l5.024 1.523a.66.66 0 0 1 .442.818l-.745 2.512a.651.651 0 0 1-.814.438l-.628-.191-.373 1.256 6.908 2.095a.656.656 0 0 1 .442.818l-4.66 15.698a.649.649 0 0 1-.814.437.657.657 0 0 1-.39-.318l-12.493-23.154-23.042 12.381a.65.65 0 0 1-.725-.071.661.661 0 0 1-.216-.698l4.658-15.698a.65.65 0 0 1 .814-.438z" fill="#DAE3E5"/><path d="M154.737 312.439l2.979-10.043a.651.651 0 0 1 .814-.437.66.66 0 0 1 .442.818l-3.071 10.352c.094.092.183.188.263.291a3.261 3.261 0 0 1 3.341-.904 3.31 3.31 0 0 1 2.321 3.54 1.985 1.985 0 0 1 .771 2.186 1.911 1.911 0 0 1-.303.593l10.79 3.271a.66.66 0 0 1 .442.818.65.65 0 0 1-.814.438l-12.558-3.808-2.511-.761-4.395-1.333a2.643 2.643 0 0 1-1.767-3.272 2.605 2.605 0 0 1 3.256-1.749zm-1.117 3.766l4.395 1.333 2.512.761a.651.651 0 0 0 .814-.437.662.662 0 0 0-.442-.818.662.662 0 0 1-.442-.818 1.982 1.982 0 0 0-1.325-2.454 1.954 1.954 0 0 0-2.442 1.312.65.65 0 0 1-.699.461.66.66 0 0 1-.582-.61c-.039-.565-.458-1.063-1.044-1.241a1.303 1.303 0 0 0-1.628.875 1.32 1.32 0 0 0 .883 1.636zM174.543 296.598a2.603 2.603 0 0 1 3.254-1.747 2.642 2.642 0 0 1 1.766 3.27 2.603 2.603 0 0 1-3.254 1.747 2.64 2.64 0 0 1-1.766-3.27zm3.765 1.142a1.321 1.321 0 0 0-.883-1.635 1.301 1.301 0 0 0-1.627.874 1.321 1.321 0 0 0 .883 1.635 1.301 1.301 0 0 0 1.627-.874z" fill="#DAE3E5"/><path d="M162.483 302.495l5.02 1.522a.66.66 0 0 1 .442.817l-2.047 6.899.628.191a.66.66 0 0 1 .441.817.65.65 0 0 1-.813.437l-7.53-2.283a.66.66 0 0 1-.442-.818.65.65 0 0 1 .814-.436l.627.19 2.047-6.899a.65.65 0 0 1 .813-.437zm-1.605 7.716l3.765 1.142.744-2.509-3.765-1.141-.744 2.508zm1.116-3.763l3.765 1.142.744-2.509-3.765-1.142-.744 2.509z" fill="#DAE3E5"/><path d="M164.253 317.356a.649.649 0 0 1 .813-.436l1.881.57 3.533-11.911a.65.65 0 0 1 .813-.437l6.272 1.902a.659.659 0 0 1 .441.817l-3.533 11.911 1.881.57a.66.66 0 0 1 .441.817l-.743 2.508a.65.65 0 0 1-.813.437.66.66 0 0 1-.442-.817l.558-1.881-10.661-3.233a.66.66 0 0 1-.441-.817zm5.808-5.755l.627.19a.66.66 0 0 1 .441.817.65.65 0 0 1-.813.437l-.627-.19-1.488 5.015 5.018 1.521 3.347-11.284-5.017-1.521-1.488 5.015z" fill="#DAE3E5"/><path d="M181.365 308.184l5.02 1.522a.66.66 0 0 1 .441.817l-2.046 6.899.627.191a.66.66 0 0 1 .442.817.651.651 0 0 1-.814.437l-7.53-2.283a.66.66 0 0 1-.441-.818.65.65 0 0 1 .813-.436l.628.19 2.046-6.899a.65.65 0 0 1 .814-.437zm-1.605 7.716l3.765 1.142.744-2.509-3.765-1.141-.744 2.508zm1.116-3.763l3.765 1.142.744-2.509-3.765-1.142-.744 2.509zM470.056 276.274l1.308-1.603 4.008-13.727a5.879 5.879 0 0 1 5.153-4.179l35.469-2.73a5.784 5.784 0 0 1 5.694 3.344l5.843 12.802 2.175 1.724a7.914 7.914 0 0 1 3.236 5.828l1.396 19.443c.215 3.182-2.195 5.954-5.385 6.199l-3.662.282c-3.191.246-5.969-2.127-6.212-5.307l-.202-2.821-34.401 2.648.202 2.821c.215 3.182-2.194 5.954-5.385 6.199l-3.662.282c-3.19.246-5.969-2.127-6.211-5.306l-1.434-19.956a8.068 8.068 0 0 1 2.07-5.943zm49.092-17.754a2.99 2.99 0 0 0-2.955-1.719l-35.483 2.731a3.048 3.048 0 0 0-2.677 2.153l-3.494 11.949 3.232-.249c.391-5.244 4.975-9.199 10.232-8.824a9.452 9.452 0 0 1 8.592 7.376l27.715-2.134-5.162-11.283zm-38.547 14.648l13.192-1.016c-1.024-3.578-4.77-5.626-8.363-4.585a6.811 6.811 0 0 0-4.829 5.601zm41.253 24.969a3.001 3.001 0 0 0 3.238 2.754l3.662-.282a3.039 3.039 0 0 0 2.81-3.219l-.26-3.624c-.794.604-1.871.951-2.967 1.035l-6.686.515.203 2.821zm-49.66 3.822a3.001 3.001 0 0 0 3.238 2.754l3.662-.281a3.05 3.05 0 0 0 2.81-3.22l-.203-2.821-6.686.514c-1.096.085-2.21-.094-3.081-.569l.26 3.623zm2.623-5.82l53.322-4.104a3.015 3.015 0 0 0 2.811-3.192l-.783-10.897a5.168 5.168 0 0 0-2.129-3.813l-.059-.051-2.014-1.625-52.531 4.043-1.229 1.527c-.012.029-.053.046-.065.075a5.243 5.243 0 0 0-1.365 3.901l.819 11.409-.014.001a2.987 2.987 0 0 0 3.237 2.726z" fill="#DAE3E5"/><path d="M514.651 278.906l10.404-.801a1.384 1.384 0 0 1 1.486 1.276l.517 7.192a1.4 1.4 0 0 1-1.288 1.489l-10.404.801a1.384 1.384 0 0 1-1.486-1.276l-.517-7.192a1.401 1.401 0 0 1 1.288-1.489zm1.904 7.084l7.629-.587-.318-4.425-7.629.587.318 4.425zM475.885 281.836l10.404-.8a1.384 1.384 0 0 1 1.487 1.276l.516 7.191a1.402 1.402 0 0 1-1.288 1.49l-10.403.801a1.386 1.386 0 0 1-1.487-1.277l-.516-7.191a1.402 1.402 0 0 1 1.287-1.49zm1.904 7.085l7.63-.587-.318-4.426-7.63.588.318 4.425zM494.181 286.282l13.416-1.025a1.39 1.39 0 0 1 1.489 1.281 1.403 1.403 0 0 1-1.289 1.493l-13.416 1.025a1.39 1.39 0 0 1-1.489-1.281 1.404 1.404 0 0 1 1.289-1.493zM493.868 282.006l13.416-1.026a1.39 1.39 0 0 1 1.489 1.281 1.403 1.403 0 0 1-1.289 1.493l-13.416 1.026a1.39 1.39 0 0 1-1.489-1.281 1.403 1.403 0 0 1 1.289-1.493zM337.754 226.133l20.671 4.828a4.786 4.786 0 0 1 3.565 5.786l-11.323 46.887a4.873 4.873 0 0 1-5.83 3.591l-20.67-4.828a4.786 4.786 0 0 1-3.565-5.786l11.322-46.886a4.874 4.874 0 0 1 5.83-3.592zm.935 57.675l6.601 1.542a2.92 2.92 0 0 0 3.498-2.155l.68-2.813-9.42-2.2a4.726 4.726 0 0 1-1.359 5.626zm-3.734-.872a2.92 2.92 0 0 0 3.498-2.155 2.867 2.867 0 0 0-2.139-3.471 2.92 2.92 0 0 0-3.498 2.154 2.868 2.868 0 0 0 2.139 3.472zm-12.474-5.886a2.868 2.868 0 0 0 2.139 3.472l6.601 1.542a4.727 4.727 0 0 1 1.359-5.627l-9.42-2.2-.679 2.813zm1.132-4.688l26.307 6.144 8.832-36.571-26.307-6.145-8.832 36.572zm9.285-38.448l26.307 6.145.906-3.751a2.868 2.868 0 0 0-2.139-3.471l-20.671-4.828a2.92 2.92 0 0 0-3.498 2.155l-.905 3.75z" fill="#DAE3E5"/><path d="M344.11 232.604l9.417 2.203-.454 1.88-9.416-2.203.453-1.88zM347.329 248.19l3.762.878a2.87 2.87 0 0 1 2.14 3.474l-.906 3.754a2.924 2.924 0 0 1-3.501 2.156l-3.761-.878a2.87 2.87 0 0 1-2.141-3.474l.906-3.754a2.924 2.924 0 0 1 3.501-2.156zm-2.527 6.349a.957.957 0 0 0 .714 1.158l3.761.878a.974.974 0 0 0 1.167-.718l.907-3.754a.957.957 0 0 0-.714-1.158l-3.761-.878a.973.973 0 0 0-1.167.719l-.907 3.753zM336.023 245.541l3.761.879a2.869 2.869 0 0 1 2.141 3.473l-.907 3.754a2.924 2.924 0 0 1-3.501 2.157l-3.761-.879a2.87 2.87 0 0 1-2.141-3.473l.907-3.754a2.924 2.924 0 0 1 3.501-2.157zm-2.527 6.35a.957.957 0 0 0 .713 1.158l3.762.878a.976.976 0 0 0 1.167-.719l.906-3.754a.956.956 0 0 0-.713-1.158l-3.761-.878a.975.975 0 0 0-1.167.719l-.907 3.754zM344.623 259.428l3.761.878a2.87 2.87 0 0 1 2.141 3.474l-.907 3.754a2.922 2.922 0 0 1-3.501 2.156l-3.761-.878a2.87 2.87 0 0 1-2.141-3.474l.907-3.753a2.923 2.923 0 0 1 3.501-2.157zm-2.527 6.349a.957.957 0 0 0 .714 1.158l3.761.878a.974.974 0 0 0 1.167-.718l.906-3.754a.956.956 0 0 0-.713-1.158l-3.761-.878a.974.974 0 0 0-1.167.719l-.907 3.753zM333.316 256.779l3.762.879a2.868 2.868 0 0 1 2.14 3.473l-.906 3.754a2.924 2.924 0 0 1-3.501 2.157l-3.761-.879a2.869 2.869 0 0 1-2.141-3.473l.907-3.754a2.923 2.923 0 0 1 3.5-2.157zm-2.527 6.35a.958.958 0 0 0 .714 1.158l3.761.878a.975.975 0 0 0 1.167-.719l.907-3.754a.958.958 0 0 0-.714-1.158l-3.761-.878a.975.975 0 0 0-1.167.719l-.907 3.754zM352.672 242.522l2.821.658c.519.122.839.64.714 1.158l-.68 2.816a.974.974 0 0 1-1.167.718.956.956 0 0 1-.714-1.158l.453-1.876-1.88-.44a.956.956 0 0 1-.714-1.157.973.973 0 0 1 1.167-.719zM347.016 241.199l1.882.44c.52.121.839.64.714 1.159a.974.974 0 0 1-1.168.719l-1.882-.439a.96.96 0 0 1-.714-1.16.976.976 0 0 1 1.168-.719zM340.341 231.721l1.88.44-.453 1.877-1.88-.44.453-1.877zM449.524 92.916l8.595-8.962a2.8 2.8 0 0 1 3.975-.069l20.218 19.683a2.85 2.85 0 0 1 .069 4.005l-8.595 8.962a2.8 2.8 0 0 1-3.975.069l-20.218-19.683a2.85 2.85 0 0 1-.069-4.005zm29.303 16.732l2.745-2.862a1.709 1.709 0 0 0-.041-2.403l-1.213-1.181-3.917 4.084a2.765 2.765 0 0 1 2.426 2.362zm-1.552 1.619a1.709 1.709 0 0 0-.041-2.403 1.678 1.678 0 0 0-2.386.041 1.709 1.709 0 0 0 .042 2.403c.67.652 1.737.634 2.385-.041zm-6.683 4.522c.67.652 1.738.634 2.385-.041l2.745-2.862a2.767 2.767 0 0 1-2.426-2.362l-3.917 4.084 1.213 1.181zm-2.022-1.968l10.939-11.407-15.77-15.352L452.8 98.468l15.77 15.353zm-16.579-16.14l10.939-11.406-1.617-1.575a1.678 1.678 0 0 0-2.385.041l-8.595 8.962a1.709 1.709 0 0 0 .041 2.403l1.617 1.575z" fill="#DAE3E5"/><path d="M454.677 91.647l3.917-4.082.811.79-3.917 4.081-.811-.789zM463.48 94.676l1.564-1.63a1.68 1.68 0 0 1 2.387-.042l1.618 1.576a1.71 1.71 0 0 1 .041 2.405l-1.563 1.63a1.68 1.68 0 0 1-2.387.042l-1.619-1.576a1.71 1.71 0 0 1-.041-2.405zm2.442 3.166a.559.559 0 0 0 .795-.014l1.564-1.63a.57.57 0 0 0-.014-.803l-1.618-1.575a.56.56 0 0 0-.796.013l-1.564 1.631a.571.571 0 0 0 .014.802l1.619 1.576zM458.775 99.576l1.563-1.63a1.68 1.68 0 0 1 2.387-.042l1.619 1.576c.67.653.688 1.73.041 2.405l-1.564 1.631a1.68 1.68 0 0 1-2.387.041l-1.618-1.576a1.709 1.709 0 0 1-.041-2.405zm2.441 3.166a.56.56 0 0 0 .796-.014l1.563-1.631a.57.57 0 0 0-.013-.802l-1.619-1.575a.559.559 0 0 0-.795.013l-1.564 1.631a.57.57 0 0 0 .014.802l1.618 1.576zM468.328 99.39l1.564-1.63a1.68 1.68 0 0 1 2.387-.042l1.618 1.576a1.71 1.71 0 0 1 .041 2.405l-1.564 1.631a1.678 1.678 0 0 1-2.386.041l-1.619-1.576a1.71 1.71 0 0 1-.041-2.405zm2.442 3.165a.559.559 0 0 0 .795-.013l1.564-1.631a.57.57 0 0 0-.014-.802l-1.618-1.576a.56.56 0 0 0-.796.014l-1.564 1.631a.57.57 0 0 0 .014.802l1.619 1.575zM463.623 104.29l1.564-1.631a1.679 1.679 0 0 1 2.387-.041l1.618 1.576a1.71 1.71 0 0 1 .041 2.405l-1.564 1.63a1.678 1.678 0 0 1-2.386.042l-1.619-1.576a1.71 1.71 0 0 1-.041-2.405zm2.442 3.165a.558.558 0 0 0 .795-.014l1.564-1.63a.57.57 0 0 0-.014-.802l-1.618-1.576a.56.56 0 0 0-.796.014l-1.564 1.631a.57.57 0 0 0 .014.801l1.619 1.576zM462.221 90.297l1.173-1.224a.56.56 0 0 1 .796-.013l1.214 1.182a.57.57 0 0 1 .013.801.559.559 0 0 1-.795.014l-.809-.788-.782.816a.56.56 0 0 1-.796.013.571.571 0 0 1-.014-.801zM459.868 92.749l.783-.816a.561.561 0 0 1 .797-.014.571.571 0 0 1 .013.802l-.782.816a.561.561 0 0 1-.797.014.57.57 0 0 1-.014-.802zM453.108 93.281l.782-.815.809.788-.781.815-.81-.788zM244.988 269.13l6.225-8.342c.591-.791 1.832-.966 2.63-.378l9.106 6.757 5.93-2.741a1.479 1.479 0 0 1 1.981.719l1.108 2.359 5.74 12.221a1.46 1.46 0 0 1-.72 1.968l-18.941 8.757a1.48 1.48 0 0 1-1.981-.719l-1.601-3.408-.56.259a.576.576 0 0 1-.773-.28l-1.831-3.899a.568.568 0 0 1 .281-.768l.56-.259-1.801-3.834a1.501 1.501 0 0 1 .439-1.798l-5.407-4a1.887 1.887 0 0 1-.385-2.614zm4.99-4.74l9.714 7.194 1.482-.685-10.353-7.616-.843 1.107zm3.14-3.047c-.303-.218-.76-.167-.98.134l-.608.84 10.83 8.034 1.812-.838-11.054-8.17zm16.706 4.241c-.046-.098-.255-.201-.42-.125l-5.369 2.482 1.34.976 4.645-2.147c.099-.046.197-.092.312-.105l-.508-1.081zm-12.671 23.645c.077.163.27.233.435.157l18.941-8.756a.323.323 0 0 0 .158-.432l-5.724-12.189a.328.328 0 0 0-.435-.158l-4.975 2.299-2.108.975-3.854 1.782-7.412 3.427-.56.258a.324.324 0 0 0-.158.432l1.801 3.834 2.009-.929c.89-.411 1.92-.01 2.32.842l.846 1.802a1.728 1.728 0 0 1-.842 2.304l-2.043.944 1.601 3.408zm-4.486-6.82l-.033.015 1.339 2.851.033-.015 3.096-1.432a.568.568 0 0 0 .281-.768l-.846-1.802a.576.576 0 0 0-.773-.28l-3.097 1.431zm-6.585-11.631l5.901 4.37 6.523-3.015-9.204-6.792-3.341 4.496c-.268.283-.182.722.121.941z" fill="#DAE3E5"/><path d="M247.86 269.385l.202-.252c.49-.665 1.502-.814 2.172-.326l.623.471c.318.252.569.615.607 1.036.071.407-.054.823-.307 1.139l-.201.253c-.152.19-.351.362-.582.468-.527.244-1.127.162-1.59-.143l-.623-.47c-.653-.537-.79-1.511-.301-2.176zm1.025 1.243l.622.47c.176.119.438.078.556-.097l.187-.285c.05-.064.07-.192.072-.273-.014-.114-.06-.212-.156-.247l-.623-.471c-.112-.068-.29-.105-.421-.044-.066.03-.099.045-.15.108l-.201.253a.56.56 0 0 0 .114.586z" fill="#DAE3E5"/><circle r="2.25" transform="scale(-1 1) rotate(-.609 21873.52 49621.992)" stroke="#DAE3E5"/><path d="M326.91 164.905l1.628-.907c.001-1.48.269-2.957.783-4.35l-3.442-4.804a.788.788 0 0 1 .348-1.194l.161-.065.003-.001a5.524 5.524 0 0 1 6.05 1.321c.44-.419.909-.809 1.406-1.161a.801.801 0 0 1 1.113.187.788.788 0 0 1-.186 1.105 10.969 10.969 0 0 0-3.771 4.674.787.787 0 0 1-.105.255 10.985 10.985 0 0 0-.756 4.463.792.792 0 0 1-.406.722l-2.044 1.139a.722.722 0 0 0-.318.904l1.52 3.703a.73.73 0 0 0 .863.427l2.098-.559a.803.803 0 0 1 .823.262 11.093 11.093 0 0 0 5.228 3.496c.226.071.41.238.499.457l1.666 4.06c.15.365.57.54.936.392l4.285-1.732a.713.713 0 0 0 .393-.93l-.635-1.547a.791.791 0 0 1 .437-1.034l6.206-2.509a.8.8 0 0 1 1.04.436l.635 1.547a.72.72 0 0 0 .935.392l4.285-1.733a.711.711 0 0 0 .393-.929l-1.176-2.867a.789.789 0 0 1 .121-.802 10.961 10.961 0 0 0 1.691-11.151c-2.31-5.628-8.793-8.345-14.453-6.056l-.926.374a.8.8 0 0 1-1.04-.436.79.79 0 0 1 .437-1.033l.926-.374c5.483-2.218 11.641-.328 15.004 4.213l.541-.218a1.94 1.94 0 0 0 1.071-2.532 1.963 1.963 0 0 0-2.548-1.068.8.8 0 0 1-1.04-.435.79.79 0 0 1 .437-1.034c1.812-.733 3.889.137 4.628 1.94a3.522 3.522 0 0 1-1.945 4.598l-.268.108a12.537 12.537 0 0 1-.983 13.736l1.001 2.44a2.295 2.295 0 0 1-1.268 2.996l-4.285 1.732a2.322 2.322 0 0 1-3.015-1.264l-.334-.812-4.728 1.912.333.813a2.295 2.295 0 0 1-1.267 2.996l-4.285 1.732a2.323 2.323 0 0 1-3.016-1.263l-1.527-3.722a12.68 12.68 0 0 1-5.281-3.49l-1.614.43a2.332 2.332 0 0 1-2.755-1.361l-1.52-3.704a2.305 2.305 0 0 1 1.013-2.885zm3.172-6.927c.367-.671.794-1.307 1.275-1.899a3.913 3.913 0 0 0-3.536-1.257l2.261 3.156z" fill="#DAE3E5"/><path d="M333.382 162.155a.805.805 0 0 1 .434-.426.802.802 0 0 1 1.04.436.79.79 0 0 1-.437 1.033.812.812 0 0 1-.611-.004.806.806 0 0 1-.429-.432.798.798 0 0 1 .003-.607zM335.269 144.667a.8.8 0 0 1 1.038.435l1.193 2.91a.79.79 0 0 1-.436 1.031.798.798 0 0 1-1.038-.435l-1.193-2.909a.79.79 0 0 1 .436-1.032zM333.749 142.433a.795.795 0 0 1 1.044-.422.79.79 0 0 1-.008 1.464.805.805 0 0 1-1.04-.435.798.798 0 0 1 .004-.607zM339.528 137.951a.799.799 0 0 1 1.038.436l.512 1.247a.79.79 0 0 1-.437 1.032.798.798 0 0 1-1.038-.435l-.512-1.248a.79.79 0 0 1 .437-1.032zM356.161 157.956a.79.79 0 0 1 .437-1.033.8.8 0 0 1 1.04.436l.016.039a.79.79 0 0 1-.439 1.028l-.005.002a.8.8 0 0 1-1.037-.442l-.012-.03zM355.252 165.052a7.306 7.306 0 0 0 1.442-4.5c-.01-.438.34-.8.78-.809a.796.796 0 0 1 .814.777 8.892 8.892 0 0 1-1.754 5.476.803.803 0 0 1-1.115.165.79.79 0 0 1-.167-1.109zM340.964 141.47a3.364 3.364 0 0 1 4.367 1.83 3.323 3.323 0 0 1-1.836 4.338c-1.71.691-3.669-.13-4.366-1.83a3.322 3.322 0 0 1 1.835-4.338zm1.929 4.699a1.74 1.74 0 0 0 .961-2.272 1.76 1.76 0 0 0-2.287-.958 1.74 1.74 0 0 0-.962 2.272 1.763 1.763 0 0 0 2.288.958zM336.575 157.273l.665-.269a3.325 3.325 0 0 1 .712-5.772 3.366 3.366 0 0 1 4.37 1.832c.243.592.301 1.214.202 1.803l3.657-1.479a.8.8 0 0 1 1.04.436.791.791 0 0 1-.437 1.034l-9.606 3.885a.8.8 0 0 1-1.04-.436.79.79 0 0 1 .437-1.034zm3.307-1.337a1.742 1.742 0 0 0 .962-2.275 1.763 1.763 0 0 0-2.289-.959 1.742 1.742 0 0 0-.962 2.274 1.764 1.764 0 0 0 2.289.96zM272.098 356.79l1.406 1.223a12.619 12.619 0 0 1 4.357-.742l3.349-4.87a.793.793 0 0 1 1.241-.078l.117.13.001.002a5.523 5.523 0 0 1 .813 6.139c.544.271 1.07.58 1.57.928.36.252.451.748.202 1.11a.79.79 0 0 1-1.103.201 10.967 10.967 0 0 0-5.676-1.959.778.778 0 0 1-.276-.012c-1.5-.044-3.015.221-4.454.805a.791.791 0 0 1-.817-.137l-1.766-1.535a.723.723 0 0 0-.959.009l-2.966 2.687a.73.73 0 0 0-.108.957l1.238 1.784a.803.803 0 0 1 .034.862 11.092 11.092 0 0 0-1.512 6.105.798.798 0 0 1-.26.625l-3.253 2.946a.72.72 0 0 0-.051 1.013l3.086 3.441a.71.71 0 0 0 1.007.055l1.24-1.123a.79.79 0 0 1 1.12.06l4.469 4.984a.8.8 0 0 1-.057 1.126l-1.239 1.123a.72.72 0 0 0-.051 1.013l3.085 3.441a.712.712 0 0 0 1.008.054l2.297-2.08a.79.79 0 0 1 .795-.159 10.96 10.96 0 0 0 11.062-2.198c4.509-4.085 4.862-11.106.786-15.651l-.666-.744a.8.8 0 0 1 .056-1.126.791.791 0 0 1 1.12.06l.667.743c3.948 4.404 4.263 10.838 1.134 15.543l.39.435c.719.802 1.95.868 2.745.147.795-.72.857-1.957.138-2.759a.8.8 0 0 1 .057-1.126.79.79 0 0 1 1.12.06c1.305 1.456 1.192 3.704-.251 5.012a3.522 3.522 0 0 1-4.986-.268l-.193-.215a12.535 12.535 0 0 1-13.253 3.742l-1.954 1.771a2.295 2.295 0 0 1-3.249-.175l-3.085-3.441a2.322 2.322 0 0 1 .164-3.265l.651-.59-3.405-3.798-.651.59a2.295 2.295 0 0 1-3.248-.174l-3.086-3.441a2.325 2.325 0 0 1 .164-3.266l2.982-2.701a12.676 12.676 0 0 1 1.488-6.152l-.953-1.372a2.335 2.335 0 0 1 .344-3.054l2.967-2.688a2.305 2.305 0 0 1 3.058-.027zm7.593.629c.756.118 1.499.304 2.219.555a3.916 3.916 0 0 0-.019-3.753l-2.2 3.198z" fill="#DAE3E5"/><path d="M276.885 361.943a.797.797 0 0 1 .752.838.803.803 0 0 1-.26.551.796.796 0 0 1-.572.203.8.8 0 0 1-.491-1.389.793.793 0 0 1 .571-.203zM293.973 357.775a.798.798 0 0 1-.057 1.124l-2.331 2.111a.789.789 0 0 1-1.118-.06.798.798 0 0 1 .057-1.124l2.331-2.11a.79.79 0 0 1 1.118.059zM295.558 355.587a.8.8 0 0 1 .492 1.389.799.799 0 0 1-.572.203.804.804 0 0 1-.752-.839.792.792 0 0 1 .832-.753zM301.737 359.499a.8.8 0 0 1-.057 1.125l-.999.905a.79.79 0 0 1-1.119-.06.8.8 0 0 1 .057-1.125l.999-.905a.79.79 0 0 1 1.119.06zM288.573 381.94a.79.79 0 0 1 1.12.06.8.8 0 0 1-.056 1.126l-.032.028a.79.79 0 0 1-1.116-.063l-.003-.004a.8.8 0 0 1 .063-1.126l.024-.021zM281.591 383.495a7.304 7.304 0 0 0 4.722-.173.797.797 0 1 1 .572 1.489 8.894 8.894 0 0 1-5.746.211.802.802 0 0 1-.534-.993.79.79 0 0 1 .986-.534zM298.915 362.045a3.364 3.364 0 0 1-.237 4.729 3.321 3.321 0 0 1-4.703-.253 3.363 3.363 0 0 1 .237-4.728 3.322 3.322 0 0 1 4.703.252zm-3.764 3.411c.645.719 1.75.778 2.464.132a1.763 1.763 0 0 0 .124-2.477 1.74 1.74 0 0 0-2.464-.132 1.763 1.763 0 0 0-.124 2.477zM282.561 363.287l.479.534a3.322 3.322 0 0 1 5.671-1.292 3.368 3.368 0 0 1-.238 4.733c-.475.43-1.04.696-1.628.803l2.633 2.936a.8.8 0 0 1-.056 1.126.79.79 0 0 1-1.121-.06l-6.918-7.714a.8.8 0 0 1 .057-1.126.79.79 0 0 1 1.121.06zm2.382 2.656c.645.72 1.751.779 2.466.132.714-.647.77-1.759.124-2.479a1.742 1.742 0 0 0-2.466-.132 1.763 1.763 0 0 0-.124 2.479z" fill="#DAE3E5"/><circle r="3.036" transform="scale(-1 1) rotate(-.609 13642.307 38744.405)" stroke="#DAE3E5"/><circle r="2.25" transform="scale(-1 1) rotate(-.609 26147.227 38305.514)" stroke="#DAE3E5"/><circle r="3.036" transform="scale(-1 1) rotate(-.609 11817.485 19947.515)" stroke="#DAE3E5"/><circle r="3.036" transform="scale(-1 1) rotate(-.609 22276.812 31829.638)" stroke="#DAE3E5"/><circle r="3.036" transform="scale(-1 1) rotate(-.609 12953.046 47006.322)" stroke="#DAE3E5"/><circle r="3.036" transform="scale(-1 1) rotate(-.609 16821.92 9283.48)" stroke="#DAE3E5"/><path d="M363.867 83.864c2.432 3.78 7.495 4.875 11.309 2.447 3.814-2.428 4.934-7.46 2.502-11.24-2.432-3.78-7.495-4.875-11.309-2.447-3.809 2.432-4.929 7.46-2.502 11.24zm3.383-9.871c3.051-1.943 7.102-1.066 9.047 1.957 1.946 3.024 1.049 7.05-2.002 8.992-3.051 1.943-7.101 1.066-9.047-1.957-1.941-3.024-1.046-7.047 2.002-8.992zM375.633 95.666l7.893-5.025.88 1.369-7.892 5.025-.881-1.369zM370.912 94.813l13.812-8.793.88 1.368-13.811 8.794-.881-1.369zM355.72 104.486l1.381-.88.881 1.369-1.382.879-.88-1.368zM352.457 108.492l1.381-.879.881 1.369-1.381.879-.881-1.369z" fill="#DAE3E5"/><path d="M353.311 100.591a61.098 61.098 0 0 0-6.39-24.486l10.494 2.237a.822.822 0 0 0 .717-.188.814.814 0 0 0 .269-.692c-.355-3.404-2.867-6.19-6.234-6.916l-.925-.2 4.858-3.092a.812.812 0 0 0 .075-1.319 8.036 8.036 0 0 0-9.347-.496l-.898.572 1.237-5.633a.81.81 0 0 0-.885-.98c-3.431.363-6.248 2.869-6.99 6.216l-.239 1.074a7.985 7.985 0 0 0-.158 1.065 7.885 7.885 0 0 0-1.034-.306l-1.08-.234a8.043 8.043 0 0 0-8.597 3.707.81.81 0 0 0 .524 1.21l5.664 1.24-.906.576c-2.909 1.848-4.304 5.335-3.462 8.651a.816.816 0 0 0 1.235.484l4.853-3.09-.205.92a7.895 7.895 0 0 0 3.703 8.527.824.824 0 0 0 1.221-.524l2.189-9.7a43.742 43.742 0 0 1 4.417 22.683 30.76 30.76 0 0 0-3.185 1.225l-.459.232.738 1.45.428-.217c.754-.342 1.529-.64 2.312-.918-.027.259-.053.522-.087.782l1.624.204a45.452 45.452 0 0 0-5.229-27.918l.291-1.289.973.208a59.003 59.003 0 0 1 6.874 29.868l1.636.064c.049-1.113.054-2.24.033-3.372a29.215 29.215 0 0 1 12.531 1.168l.51-1.548a30.789 30.789 0 0 0-7.363-1.396l28.943-18.427-.881-1.369-30.989 19.73c-.938.026-1.872.104-2.806.217zm3.237-24.1l-11.922-2.543a6.36 6.36 0 0 1 6.112-2.05l1.081.235a6.313 6.313 0 0 1 4.729 4.358zm-2.383-9.935l-5.717 3.64a8.039 8.039 0 0 0-4.603 2.218 6.326 6.326 0 0 1 2.929-5.01l.932-.594a6.399 6.399 0 0 1 6.459-.254zm-13.515.48l.24-1.074a6.367 6.367 0 0 1 4.407-4.714l-1.468 6.687a7.928 7.928 0 0 0-1.628 4.61 6.11 6.11 0 0 1-1.548-5.511l-.003.001zm-4.224 1.768l1.08.233a6.24 6.24 0 0 1 1.461.531 7.68 7.68 0 0 0 .936 2.611 8.042 8.042 0 0 0-2.902.103l-6.721-1.473a6.406 6.406 0 0 1 6.148-2.007l-.002.002zm-2.082 6.513l.933-.594a6.396 6.396 0 0 1 5.805-.551 8.013 8.013 0 0 0-3.949 3.228l-5.721 3.642a6.326 6.326 0 0 1 2.935-5.727l-.003.002zm5.141 12.038a6.27 6.27 0 0 1-1.998-6.098l.238-1.073a6.25 6.25 0 0 1 2.762-3.912 6.523 6.523 0 0 1 1.67-.756l-2.672 11.838zM197.984 426.756c-1.755 2.849-.86 6.6 1.997 8.379s6.596.912 8.351-1.937c1.754-2.849.86-6.601-1.997-8.38-2.858-1.775-6.594-.908-8.351 1.938zm7.716-.906c2.286 1.423 3.001 4.424 1.597 6.704-1.403 2.279-4.394 2.973-6.68 1.549-2.286-1.423-3.002-4.424-1.598-6.703 1.405-2.276 4.394-2.97 6.681-1.55zM193.848 438.453l5.913 3.681-.635 1.032-5.914-3.682.636-1.031zM192.901 435.009l10.348 6.442-.635 1.032-10.348-6.442.635-1.032zM181.519 427.922l1.034.645-.635 1.031-1.035-.644.636-1.032zM177.779 427.022l1.034.644-.635 1.032-1.035-.645.636-1.031z" fill="#DAE3E5"/><path d="M183.358 425.052a45.497 45.497 0 0 0 14.382-12.17l1.874 7.765a.617.617 0 0 0 .358.421c.18.075.385.06.551-.042a5.9 5.9 0 0 0 2.636-6.411l-.163-.685 3.64 2.265a.604.604 0 0 0 .909-.373 5.983 5.983 0 0 0-2.675-6.435l-.673-.419 4.18-.982a.603.603 0 0 0 .373-.91 5.968 5.968 0 0 0-6.423-2.692l-.797.185a6.019 6.019 0 0 0-.767.237 5.767 5.767 0 0 0-.127-.793l-.19-.8a5.987 5.987 0 0 0-5.256-4.578.602.602 0 0 0-.644.741l.991 4.201-.679-.423a5.913 5.913 0 0 0-6.922.461.608.608 0 0 0 .073.985l3.636 2.263-.683.159a5.877 5.877 0 0 0-4.533 5.23.613.613 0 0 0 .745.65l7.216-1.651a32.573 32.573 0 0 1-13.806 10.265 22.874 22.874 0 0 0-1.847-1.744l-.304-.234-.736.963.284.217c.472.396.922.82 1.36 1.256-.183.065-.367.133-.553.193l.386 1.156a33.827 33.827 0 0 0 17.059-12.495l.959-.219.174.72a43.934 43.934 0 0 1-17.84 14.228l.484 1.118a40.209 40.209 0 0 0 2.274-1.063 21.737 21.737 0 0 1 3.249 8.788l1.203-.156a22.876 22.876 0 0 0-1.432-5.392l21.685 13.5.636-1.032-23.219-14.454a22.567 22.567 0 0 0-1.048-1.814zm17.22-5.583l-2.129-8.822a4.737 4.737 0 0 1 3.343 3.444l.19.8a4.699 4.699 0 0 1-1.404 4.578zm5.903-4.797l-4.284-2.667a5.986 5.986 0 0 0-2.97-2.376 4.71 4.71 0 0 1 4.307.354l.698.435a4.762 4.762 0 0 1 2.249 4.254zm-4.671-8.919l.798-.185a4.74 4.74 0 0 1 4.583 1.443l-4.962 1.166a5.902 5.902 0 0 0-3.619.391 4.55 4.55 0 0 1 3.202-2.814l-.002-.001zm-2.547-2.267l.191.8c.086.378.124.766.114 1.152a5.728 5.728 0 0 0-1.452 1.469 5.972 5.972 0 0 0-1.003-1.915l-1.173-4.986a4.77 4.77 0 0 1 3.325 3.481l-.002-.001zm-5.042.699l.699.435a4.763 4.763 0 0 1 2.238 3.72 5.975 5.975 0 0 0-3.438-1.613l-4.286-2.668a4.713 4.713 0 0 1 4.789.127l-.002-.001zm-6.427 7.325a4.672 4.672 0 0 1 3.45-3.304l.798-.185a4.648 4.648 0 0 1 3.514.595c.388.242.74.538 1.046.878l-8.808 2.016z" fill="#DAE3E5"/></g></svg>