<svg xmlns="http://www.w3.org/2000/svg" width="1360" height="745" fill="none"><path fill="#F0F4F5" d="M0 0h1360v745H0z"/><path fill="url(#paint0_linear)" d="M0 0h1360v745H0z"/><g opacity=".6"><path d="M445.892 538.66l.017-.019a.806.806 0 0 1 .075-.069l.008-.005a.72.72 0 0 1 .074-.053l.021-.013a.724.724 0 0 1 .073-.038l.013-.007 9.265-4.176 18.683-23.109a1.676 1.676 0 0 1 2.34-.258l35.868 28.486c.716.568.83 1.609.256 2.32l-18.683 23.109-2.092 9.873-.003.014a.868.868 0 0 1-.023.079l-.007.022a1.06 1.06 0 0 1-.036.084l-.004.009a.76.76 0 0 1-.066.107l-.031.044-1.366 1.689a1.993 1.993 0 0 1-2.78.306l-42.699-33.911a1.95 1.95 0 0 1-.304-2.755l1.366-1.69c.011-.014.023-.026.035-.039zm65.317 2.036l-35.782-28.417-18.238 22.56 35.782 28.417 18.238-22.56zm-19.056 24.097l-36.299-28.828-7.696 3.468 14.734 11.702 2.892-2.075a1.635 1.635 0 0 1 1.962.047l8.874 7.048c.567.449.761 1.226.474 1.887l-1.413 3.25 14.734 11.702 1.738-8.201zm-27.869-12.553l10.005 7.947 1.195-2.748-8.755-6.953-2.445 1.754zm-18.452-10.786a.254.254 0 0 0 .04.358l42.699 33.911a.26.26 0 0 0 .362-.04l.827-1.023-43.1-34.23-.828 1.024z" fill="#DAE3E5"/><path d="M467.517 526.345c.371.294.43.83.133 1.198l-5.456 6.75 30.224 24.005 5.456-6.749a.864.864 0 0 1 1.208-.134c.371.294.43.831.133 1.198l-5.689 7.037a1.357 1.357 0 0 1-1.895.209l-30.803-24.465a1.33 1.33 0 0 1-.208-1.879l5.689-7.037a.865.865 0 0 1 1.208-.133zM476.774 515.666l30.803 24.465a1.33 1.33 0 0 1 .208 1.879l-5.689 7.037a.864.864 0 0 1-1.208.133.846.846 0 0 1-.132-1.198l5.456-6.749-30.224-24.006-5.457 6.75a.865.865 0 0 1-1.208.133.846.846 0 0 1-.132-1.198l5.688-7.037a1.358 1.358 0 0 1 1.895-.209zM240.492 387.779l-.015-.021a.854.854 0 0 1-.048-.089l-.004-.009a1.245 1.245 0 0 1-.033-.085l-.007-.023a1.169 1.169 0 0 1-.02-.08l-.003-.014-1.812-9.992-17.92-23.705a1.672 1.672 0 0 1 .317-2.33l36.352-27.867a1.646 1.646 0 0 1 2.315.314l17.92 23.705 9.082 4.418.012.007a.82.82 0 0 1 .071.041l.021.013a.93.93 0 0 1 .073.055l.007.006a.949.949 0 0 1 .123.131l1.31 1.732a1.988 1.988 0 0 1-.376 2.769l-43.276 33.173a1.955 1.955 0 0 1-2.75-.372l-1.309-1.733a.427.427 0 0 1-.03-.044zm17.796-62.815l-36.265 27.799 17.494 23.141 36.265-27.799-17.494-23.141zm18.788 24.306l-36.789 28.201 1.505 8.3 14.933-11.448-1.315-3.306a1.632 1.632 0 0 1 .52-1.89l8.995-6.894a1.602 1.602 0 0 1 1.947-.002l2.815 2.156 14.933-11.447-7.544-3.67zm-18.941 23.972l10.141-7.773-2.379-1.824-8.873 6.802 1.111 2.795zm-14.944 15.272a.255.255 0 0 0 .358.048l43.275-33.173a.26.26 0 0 0 .049-.361l-.793-1.049-43.683 33.485.794 1.05z" fill="#DAE3E5"/><path d="M233.769 363.837a.849.849 0 0 1 1.196.162l5.234 6.923 30.634-23.482-5.234-6.923a.862.862 0 0 1 .163-1.203.85.85 0 0 1 1.196.162l5.456 7.218c.447.59.332 1.436-.256 1.887l-31.221 23.931a1.334 1.334 0 0 1-1.875-.254l-5.456-7.218a.862.862 0 0 1 .163-1.203zM225.639 352.278l31.221-23.931a1.333 1.333 0 0 1 1.875.254l5.457 7.218a.862.862 0 0 1-.163 1.203.85.85 0 0 1-1.196-.162l-5.234-6.923-30.634 23.481 5.234 6.924a.863.863 0 0 1-.163 1.203.85.85 0 0 1-1.196-.162l-5.457-7.218a1.355 1.355 0 0 1 .256-1.887z" fill="#DAE3E5"/><path d="M170.022 238.599l5.321 1.742 5.042-4.313.015-.012.043-.034.034-.023.039-.024.041-.023.036-.018.046-.02a.807.807 0 0 1 .082-.03l.043-.011.042-.01.049-.008.036-.004.054-.004.034-.001a.505.505 0 0 1 .055.001l.035.002.051.006.041.007a.567.567 0 0 1 .093.023c.007.002.014.003.02.006l17.443 5.708.019.007.05.019.038.017c.014.007.027.013.04.021l.042.023.032.021.043.029.028.023a.673.673 0 0 1 .1.094l.029.034.026.033a.57.57 0 0 1 .028.04l.021.033c.009.013.016.028.024.042a.429.429 0 0 1 .037.078l.017.044a1.001 1.001 0 0 1 .027.09l.005.019 1.428 6.43 7.937 2.597.877-2.606a.927.927 0 0 1 1.165-.584l6.977 2.283a.91.91 0 0 1 .58 1.155l-.877 2.607.291.095a4.546 4.546 0 0 1 2.899 5.772l-10.137 30.127c-.806 2.396-3.418 3.705-5.823 2.918l-47.679-15.604a4.545 4.545 0 0 1-2.898-5.772l10.136-30.127c.806-2.396 3.418-3.705 5.823-2.918zm46.228 13.2l-5.233-1.713-.584 1.738 5.233 1.713.584-1.738zm-58.704 23.879l38.666 12.655 11.014-32.734a.928.928 0 0 1 1.165-.584.909.909 0 0 1 .579 1.155l-11.013 32.733 7.268 2.379a2.783 2.783 0 0 0 3.494-1.751l2.066-6.141-2.617-.856a.909.909 0 0 1-.579-1.155.925.925 0 0 1 1.164-.583l2.617.856.965-2.868-2.617-.856a.91.91 0 0 1-.58-1.155.926.926 0 0 1 1.165-.583l2.617.856.965-2.868-2.617-.856a.91.91 0 0 1-.58-1.155.926.926 0 0 1 1.165-.583l2.616.856.965-2.868-2.616-.856a.908.908 0 0 1-.58-1.154.926.926 0 0 1 1.164-.584l2.617.856 2.836-8.429a2.727 2.727 0 0 0-1.739-3.464l-17.441-5.708h-.002l-.006-.002a.971.971 0 0 1-.094-.038l-.026-.013a.98.98 0 0 1-.071-.039l-.024-.016a.895.895 0 0 1-.07-.051l-.016-.013a.783.783 0 0 1-.078-.074l-.012-.014a.862.862 0 0 1-.054-.066l-.021-.03a1.076 1.076 0 0 1-.039-.063l-.016-.029a.826.826 0 0 1-.076-.206l-.004-.013-1.427-6.43-16.456-5.386-5.042 4.313-.011.009a.812.812 0 0 1-.093.068c-.03.019-.06.036-.092.052l-.031.014a.822.822 0 0 1-.069.027l-.035.012a1.145 1.145 0 0 1-.084.021l-.018.004a.948.948 0 0 1-.107.014h-.02a.646.646 0 0 1-.116-.002.746.746 0 0 1-.081-.01l-.029-.005a.88.88 0 0 1-.098-.025l-.006-.002h-.002l-5.812-1.902a2.782 2.782 0 0 0-3.494 1.75l-10.136 30.127a2.726 2.726 0 0 0 1.739 3.463z" fill="#DAE3E6"/><path d="M185.314 252.601c6.571 2.15 10.125 9.226 7.922 15.774-2.203 6.547-9.341 10.125-15.913 7.974-6.571-2.15-10.124-9.227-7.921-15.774 2.203-6.548 9.341-10.125 15.912-7.974zm-7.406 22.01c5.61 1.836 11.703-1.217 13.584-6.807 1.881-5.589-1.153-11.63-6.763-13.466-5.609-1.835-11.703 1.218-13.583 6.808-1.881 5.589 1.153 11.63 6.762 13.465zM179.462 242.328l1.711-2.015a.978.978 0 0 1 .048-.051l.021-.021a.447.447 0 0 1 .04-.034l.03-.026.028-.02.047-.032a.914.914 0 0 1 .158-.08l.014-.005.069-.023a.932.932 0 0 1 .25-.034l.011-.001.058.004.033.002.041.006c.017.003.034.005.05.009l.03.007a.674.674 0 0 1 .066.018l13.268 4.345.005.002a.587.587 0 0 1 .063.024l.024.009.051.026.031.017c.012.006.023.014.034.021l.043.028.015.012c.018.014.037.028.054.043l.003.003c.021.019.041.038.06.058l.013.016a.669.669 0 0 1 .087.113l.006.008a.856.856 0 0 1 .073.145l.006.013.017.052.011.034a.424.424 0 0 1 .008.038c.004.017.009.034.012.052l.003.028c.003.021.006.042.007.064l.001.006.151 2.624a.924.924 0 0 1-1.212.928.91.91 0 0 1-.626-.812l-.116-2.006-12.085-3.958-1.308 1.54a.93.93 0 0 1-.995.282.91.91 0 0 1-.409-1.459zM170.555 242.646a2.727 2.727 0 0 1 1.739 3.464 2.783 2.783 0 0 1-3.494 1.751 2.729 2.729 0 0 1-1.739-3.464 2.783 2.783 0 0 1 3.494-1.751zm-1.17 3.477a.929.929 0 0 0 1.165-.584.909.909 0 0 0-.58-1.155.927.927 0 0 0-1.165.584.91.91 0 0 0 .58 1.155z" fill="#DAE3E6"/><path d="M167.634 255.84c3.923-6.111 11.648-9.074 18.848-6.718 8.495 2.781 13.089 11.929 10.241 20.393-2.848 8.465-12.076 13.09-20.571 10.309-7.2-2.356-11.597-9.286-11.037-16.498a3.938 3.938 0 0 1-2.111-4.846 4.02 4.02 0 0 1 4.63-2.64zm9.102 22.247c7.534 2.465 15.717-1.636 18.243-9.142 2.526-7.507-1.548-15.619-9.082-18.085-6.566-2.149-13.625.692-17.003 6.427a.951.951 0 0 1-.109.19 14.39 14.39 0 0 0-1.13 2.525c-2.526 7.507 1.548 15.619 9.081 18.085zm-11.343-16.737a16.238 16.238 0 0 1 1.266-3.761 2.162 2.162 0 0 0-1.911 1.462 2.12 2.12 0 0 0 .645 2.299zM200.637 255.075l3.491 1.143a.91.91 0 0 1 .58 1.155.926.926 0 0 1-1.165.584l-3.491-1.143a.91.91 0 0 1-.581-1.155.928.928 0 0 1 1.166-.584zM120.293 410.797l1.423-2.229-1.385-2.813-.003-.009-.011-.024a.325.325 0 0 1-.006-.017l-.007-.021-.006-.022-.004-.018a.2.2 0 0 0-.004-.024l-.002-.018-.001-.023v-.02-.021l.002-.023.002-.018.005-.025.003-.015.007-.025.006-.016.008-.023.008-.018.01-.019a.082.082 0 0 1 .012-.02.04.04 0 0 1 .005-.009l4.665-7.309.005-.008.015-.02.012-.016.014-.016.016-.016a.154.154 0 0 1 .013-.012l.018-.016.014-.011.02-.014.016-.009a.186.186 0 0 1 .019-.011l.019-.01.018-.008.022-.008a.084.084 0 0 1 .017-.005.098.098 0 0 1 .023-.006l.018-.005.022-.003.022-.003.018-.001.026-.001h.009l3.115.102 2.123-3.325-1.092-.708a.436.436 0 0 1-.13-.601l1.866-2.924a.429.429 0 0 1 .597-.129l1.092.707.078-.122a2.153 2.153 0 0 1 2.986-.648l12.619 8.175a2.189 2.189 0 0 1 .653 3.006l-12.751 19.978a2.153 2.153 0 0 1-2.987.648l-12.618-8.175a2.188 2.188 0 0 1-.654-3.006zm11.479-19.597l-1.399 2.193.728.472 1.399-2.193-.728-.472zm4.052 29.659l10.341-16.202-13.711-8.882a.439.439 0 0 1-.131-.602.432.432 0 0 1 .598-.129l13.71 8.882 1.944-3.045a1.313 1.313 0 0 0-.392-1.804l-2.572-1.667-.7 1.097a.429.429 0 0 1-.597.129.437.437 0 0 1-.131-.601l.7-1.096-1.201-.778-.7 1.096a.43.43 0 0 1-.597.13.438.438 0 0 1-.131-.602l.7-1.096-1.202-.778-.699 1.096a.431.431 0 0 1-.598.13.437.437 0 0 1-.13-.601l.699-1.097-1.201-.778-.7 1.096a.43.43 0 0 1-.597.13.438.438 0 0 1-.131-.601l.7-1.097-3.531-2.287a1.29 1.29 0 0 0-1.791.389l-4.665 7.308v.001a.55.55 0 0 1-.03.041l-.009.01a.727.727 0 0 1-.069.063l-.007.006a.387.387 0 0 1-.088.048l-.016.006a.414.414 0 0 1-.033.01l-.016.004a.264.264 0 0 1-.049.008l-.01.001a.62.62 0 0 1-.044.002h-.006l-3.115-.102-4.401 6.895 1.384 2.813.003.006a.503.503 0 0 1 .017.041l.003.009a.285.285 0 0 1 .016.064.417.417 0 0 1 .004.035l.002.018v.049l-.007.051-.002.009-.01.04-.005.013a.534.534 0 0 1-.014.036l-.005.012a.45.45 0 0 1-.024.042l-.001.003-1.555 2.436a1.312 1.312 0 0 0 .392 1.803l12.619 8.175a1.292 1.292 0 0 0 1.792-.388z" fill="#DAE3E6"/><path d="M128.507 405.446a5.882 5.882 0 0 1 8.16-1.771c2.743 1.776 3.544 5.462 1.787 8.215a5.884 5.884 0 0 1-8.161 1.772c-2.743-1.777-3.544-5.463-1.786-8.216zm9.219 5.973a5.106 5.106 0 0 0-1.525-7.014 5.023 5.023 0 0 0-6.967 1.513c-1.5 2.35-.816 5.496 1.525 7.013a5.024 5.024 0 0 0 6.967-1.512zM123.111 406.917l-.722-1.02-.002-.002a.365.365 0 0 1-.016-.026l-.007-.012c-.005-.007-.008-.014-.012-.022l-.008-.017-.006-.015-.009-.025-.002-.006a.489.489 0 0 1-.016-.076l-.001-.007a.388.388 0 0 1-.002-.034l.001-.037v-.004a.424.424 0 0 1 .013-.078l.001-.005.008-.026.005-.014c.002-.007.005-.012.008-.018l.009-.023.007-.012a.6.6 0 0 1 .015-.026l.001-.003 3.55-5.559.001-.002a.428.428 0 0 1 .019-.026l.007-.009.018-.021.011-.012.014-.013.018-.016.007-.006.026-.02.002-.001.033-.02.009-.004a.365.365 0 0 1 .028-.014l.034-.013.005-.001a.372.372 0 0 1 .075-.017l.006-.001.026-.002.017-.001.018.001a.2.2 0 0 1 .025.001l.014.001.03.005h.003l1.22.239a.437.437 0 0 1 .283.663.43.43 0 0 1-.446.192l-.932-.183-3.234 5.064.552.779a.439.439 0 0 1-.1.607.432.432 0 0 1-.604-.103zM122.211 411.028a1.292 1.292 0 0 1 1.792-.388c.602.39.778 1.199.392 1.803a1.292 1.292 0 0 1-1.792.389 1.313 1.313 0 0 1-.392-1.804zm1.456.944a.438.438 0 0 0-.131-.602.43.43 0 0 0-.597.13.438.438 0 0 0 .131.602c.2.13.468.071.597-.13z" fill="#DAE3E6"/><path d="M127.916 413.914c-2.341-2.512-2.791-6.394-.866-9.411a7.607 7.607 0 0 1 10.55-2.29c3.546 2.297 4.582 7.062 2.31 10.621a7.607 7.607 0 0 1-8.859 3.111 1.865 1.865 0 0 1-2.469.397 1.897 1.897 0 0 1-.666-2.428zm11.266-1.551c2.015-3.157 1.096-7.382-2.048-9.419a6.745 6.745 0 0 0-9.356 2.031c-1.756 2.751-1.283 6.314.949 8.532l.007.006c.025.02.048.043.067.067a6.747 6.747 0 0 0 10.381-1.217zm-9.004 3.223a7.552 7.552 0 0 1-1.575-1.021 1.02 1.02 0 0 0 .446 1.046c.356.232.803.207 1.129-.025zM131.44 398.727l.934-1.462a.431.431 0 0 1 .598-.13c.201.13.26.4.131.601l-.934 1.463a.431.431 0 0 1-.598.13.439.439 0 0 1-.131-.602z" fill="#DAE3E6"/><path d="M565.345 556.85a5.162 5.162 0 0 0 5.109 5.213 5.162 5.162 0 0 0 5.218-5.103 5.161 5.161 0 0 0-5.109-5.213 5.161 5.161 0 0 0-5.218 5.103zM571.24 535.222a3.274 3.274 0 0 0 3.241 3.307 3.273 3.273 0 0 0 .07-6.544 3.275 3.275 0 0 0-3.311 3.237zM587.196 543.879a5.161 5.161 0 0 0 5.108 5.213 5.162 5.162 0 0 0 5.219-5.103 5.162 5.162 0 0 0-5.109-5.213 5.161 5.161 0 0 0-5.218 5.103zM320.024 383.342a5.161 5.161 0 0 0 5.109 5.213 5.162 5.162 0 0 0 5.218-5.103 5.162 5.162 0 0 0-5.109-5.213 5.162 5.162 0 0 0-5.218 5.103zM325.919 361.715a3.273 3.273 0 0 0 3.24 3.306 3.274 3.274 0 0 0 3.311-3.237 3.274 3.274 0 0 0-3.241-3.306 3.272 3.272 0 0 0-3.31 3.237zM170.028 572.525a3.274 3.274 0 0 0 3.24 3.307 3.275 3.275 0 0 0 3.311-3.238 3.274 3.274 0 0 0-3.241-3.306 3.274 3.274 0 0 0-3.31 3.237zM157.126 564.544a3.274 3.274 0 0 0 3.241 3.307 3.274 3.274 0 0 0 3.31-3.237 3.274 3.274 0 0 0-3.241-3.307 3.274 3.274 0 0 0-3.31 3.237zM341.874 370.372a5.16 5.16 0 0 0 5.108 5.212 5.162 5.162 0 0 0 5.219-5.103 5.16 5.16 0 0 0-5.109-5.212 5.161 5.161 0 0 0-5.218 5.103zM368.109 615.966a5.16 5.16 0 0 0 5.108 5.213 5.161 5.161 0 0 0 5.218-5.103 5.16 5.16 0 0 0-5.108-5.213 5.161 5.161 0 0 0-5.218 5.103zM252.95 537.027a3.274 3.274 0 0 0 3.24 3.307 3.275 3.275 0 0 0 3.311-3.237 3.274 3.274 0 0 0-3.241-3.307 3.273 3.273 0 0 0-3.31 3.237zM351.308 514.8a5.16 5.16 0 0 0 5.109 5.212 5.16 5.16 0 0 0 5.218-5.102 5.16 5.16 0 0 0-5.108-5.213 5.162 5.162 0 0 0-5.219 5.103z" stroke="#DAE3E5"/><path d="M572.404 378.041a6.326 6.326 0 0 1 3.77-7.25 6.435 6.435 0 0 1 6.67 1.107c.133-.213.286-.416.449-.61l-8.107-19.332a1.264 1.264 0 0 1 .687-1.657 1.283 1.283 0 0 1 1.67.687l7.866 18.754c2.6-1.07 5.597.163 6.681 2.748a5.056 5.056 0 0 1-2.749 6.629l-12.966 5.336c-1.95.802-4.198-.123-5.011-2.061a3.79 3.79 0 0 1 1.04-4.351zm2.987 4.068l12.967-5.336a2.528 2.528 0 0 0 1.374-3.315 2.568 2.568 0 0 0-3.34-1.374c-1.1.453-1.811 1.49-1.768 2.583a1.265 1.265 0 0 1-1.003 1.284 1.282 1.282 0 0 1-1.453-.754c-.813-1.939-3.061-2.864-5.011-2.061a3.792 3.792 0 0 0-2.061 4.971 1.263 1.263 0 0 1-.688 1.657 1.265 1.265 0 0 0-.687 1.657 1.286 1.286 0 0 0 1.67.688z" fill="#DAE3E5"/><path d="M498.915 344.966l22.432-9.231a1.286 1.286 0 0 1 1.673.688 1.266 1.266 0 0 1-.688 1.66l-21.251 8.746 10.629 25.346 18.783-45.308c.135-.326.39-.564.694-.689.303-.125.654-.136.982-.001l45.653 18.789-10.628-25.346-12.987 5.345a1.286 1.286 0 0 1-1.673-.689l-1.969-4.696a1.264 1.264 0 0 1 .688-1.66l1.181-.486-.985-2.349-7.084 2.915.985 2.349 1.181-.486a1.286 1.286 0 0 1 1.673.688l1.969 4.697a1.265 1.265 0 0 1-.688 1.66l-3.542 1.458a1.286 1.286 0 0 1-1.673-.689 1.267 1.267 0 0 1 .688-1.66l2.362-.971-.985-2.349-1.181.486a1.286 1.286 0 0 1-1.673-.688l-1.969-4.697a1.265 1.265 0 0 1 .688-1.66l9.445-3.887a1.285 1.285 0 0 1 1.672.688l1.97 4.697a1.265 1.265 0 0 1-.688 1.66l-1.181.486.985 2.348 12.987-5.344a1.282 1.282 0 0 1 1.673.688l12.305 29.358a1.264 1.264 0 0 1-.688 1.66 1.282 1.282 0 0 1-.979-.001l-47.327-19.482-19.473 46.973a1.27 1.27 0 0 1-1.18.785 1.286 1.286 0 0 1-1.184-.786l-12.31-29.355a1.266 1.266 0 0 1 .688-1.66z" fill="#DAE3E5"/><path d="M523.997 395.099l-7.876-18.779a1.265 1.265 0 0 1 .689-1.659c.651-.268 1.4.04 1.672.688l8.118 19.358c.254.022.508.058.754.115a6.34 6.34 0 0 1 3.921-5.47c2.91-1.198 6.219-.089 7.856 2.473a3.86 3.86 0 0 1 3.852 2.343c.173.414.252.84.273 1.263l20.284-8.347a1.286 1.286 0 0 1 1.673.688 1.267 1.267 0 0 1-.688 1.66l-23.607 9.714-4.721 1.943-8.262 3.4c-2.604 1.071-5.605-.163-6.69-2.752a5.062 5.062 0 0 1 2.752-6.638zm2.953 7.042l8.262-3.4 4.722-1.942c.65-.268.959-1.013.688-1.66a1.288 1.288 0 0 0-1.673-.688c-.651.268-1.4-.04-1.672-.688-.814-1.941-3.065-2.867-5.018-2.064a3.798 3.798 0 0 0-2.064 4.979 1.262 1.262 0 0 1-.486 1.554 1.285 1.285 0 0 1-1.628-.203c-.753-.802-1.998-1.035-3.099-.582a2.531 2.531 0 0 0-1.377 3.319 2.572 2.572 0 0 0 3.345 1.375zM534.334 346.9c-1.085-2.587.149-5.562 2.751-6.633 2.602-1.07 5.601.163 6.686 2.75a5.058 5.058 0 0 1-2.751 6.632c-2.602 1.071-5.601-.162-6.686-2.749zm7.078-2.912a2.57 2.57 0 0 0-3.343-1.375 2.53 2.53 0 0 0-1.376 3.316 2.571 2.571 0 0 0 3.343 1.375 2.53 2.53 0 0 0 1.376-3.316z" fill="#DAE3E5"/><path d="M523.424 370.606l9.437-3.883c.651-.268 1.4.04 1.672.688l5.41 12.9 1.18-.485c.651-.268 1.4.04 1.671.687a1.264 1.264 0 0 1-.688 1.658l-14.155 5.825c-.651.268-1.4-.04-1.671-.688a1.263 1.263 0 0 1 .687-1.658l1.18-.485-5.411-12.901a1.264 1.264 0 0 1 .688-1.658zm7.082 13.588l7.078-2.912-1.968-4.691-7.077 2.912 1.967 4.691zm-2.951-7.036l7.078-2.913-1.968-4.691-7.078 2.912 1.968 4.692z" fill="#DAE3E5"/><path d="M544.386 390.797a1.262 1.262 0 0 1 .687-1.657l3.537-1.455-9.341-22.273a1.264 1.264 0 0 1 .687-1.657l11.79-4.852a1.283 1.283 0 0 1 1.67.688l9.341 22.272 3.537-1.455a1.284 1.284 0 0 1 1.671.687l1.966 4.689a1.262 1.262 0 0 1-.687 1.657 1.284 1.284 0 0 1-1.671-.687l-1.474-3.517-20.043 8.247a1.282 1.282 0 0 1-1.67-.687zm1.666-15.805l1.179-.485c.65-.268 1.399.04 1.67.687a1.262 1.262 0 0 1-.687 1.657l-1.179.485 3.933 9.378 9.432-3.881-8.85-21.1-9.431 3.881 3.933 9.378z" fill="#DAE3E5"/><path d="M558.876 355.945l9.437-3.883c.651-.268 1.4.04 1.671.688l5.411 12.9 1.179-.485c.651-.268 1.4.04 1.672.687a1.264 1.264 0 0 1-.688 1.658l-14.155 5.825c-.651.268-1.4-.04-1.672-.687a1.265 1.265 0 0 1 .688-1.659l1.18-.485-5.411-12.9a1.264 1.264 0 0 1 .688-1.659zm7.082 13.588l7.078-2.912-1.968-4.691-7.078 2.912 1.968 4.691zm-2.951-7.036l7.077-2.913-1.967-4.691-7.078 2.913 1.968 4.691zM213.854 507.971a3.91 3.91 0 0 1 4.637-1.994 3.967 3.967 0 0 1 2.756 3.132c.147-.05.299-.087.453-.116l3.684-12.406a.781.781 0 0 1 .977-.524.79.79 0 0 1 .529.98l-3.573 12.035a3.168 3.168 0 0 1 2.119 3.922 3.126 3.126 0 0 1-3.906 2.096l-8.286-2.51a2.375 2.375 0 0 1-1.589-2.941 2.344 2.344 0 0 1 2.199-1.674zm-.163 3.111l8.285 2.509a1.563 1.563 0 0 0 1.954-1.048 1.583 1.583 0 0 0-1.06-1.96c-.703-.213-1.448.005-1.856.544a.78.78 0 0 1-.981.223.79.79 0 0 1-.399-.928 2.377 2.377 0 0 0-1.59-2.941 2.346 2.346 0 0 0-2.93 1.572.781.781 0 0 1-.976.525.782.782 0 0 0-.977.524.792.792 0 0 0 .53.98z" fill="#DAE3E5"/><path d="M191.653 463.481l14.334 4.341a.792.792 0 0 1 .531.981.783.783 0 0 1-.978.526l-13.58-4.113-4.83 16.266 26.697-14.331a.795.795 0 0 1 1.072.325l14.477 26.799 4.831-16.265-8.299-2.513a.792.792 0 0 1-.53-.982l.895-3.014a.782.782 0 0 1 .978-.525l.755.228.447-1.507-4.526-1.37-.448 1.507.754.228a.792.792 0 0 1 .531.982l-.895 3.014a.783.783 0 0 1-.978.525l-2.263-.685a.792.792 0 0 1-.531-.982.782.782 0 0 1 .978-.525l1.509.457.448-1.507-.755-.229a.792.792 0 0 1-.53-.982l.895-3.014a.782.782 0 0 1 .978-.525l6.035 1.828a.793.793 0 0 1 .531.982l-.896 3.014a.782.782 0 0 1-.978.525l-.754-.229-.448 1.507 8.299 2.514a.787.787 0 0 1 .53.982l-5.597 18.837a.782.782 0 0 1-.978.525.79.79 0 0 1-.468-.383l-15.007-27.784-27.679 14.857a.784.784 0 0 1-.871-.085.792.792 0 0 1-.258-.837l5.594-18.838a.783.783 0 0 1 .978-.525z" fill="#DAE3E5"/><path d="M184.041 497.235l3.578-12.051a.783.783 0 0 1 .978-.525.793.793 0 0 1 .531.982l-3.689 12.422c.113.11.22.226.315.349a3.92 3.92 0 0 1 4.013-1.084 3.97 3.97 0 0 1 2.789 4.248c.819.57 1.223 1.62.925 2.623-.079.266-.207.5-.363.711l12.961 3.925a.793.793 0 0 1 .531.982.783.783 0 0 1-.978.525l-15.084-4.569-3.017-.914-5.28-1.599a3.172 3.172 0 0 1-2.122-3.926 3.13 3.13 0 0 1 3.912-2.099zm-1.342 4.519l5.279 1.599 3.017.914a.783.783 0 0 0 .978-.525.794.794 0 0 0-.531-.982.791.791 0 0 1-.53-.981 2.379 2.379 0 0 0-1.592-2.945 2.347 2.347 0 0 0-2.933 1.574.781.781 0 0 1-.84.554.795.795 0 0 1-.7-.733c-.046-.677-.55-1.275-1.254-1.488a1.564 1.564 0 0 0-1.955 1.05 1.585 1.585 0 0 0 1.061 1.963zM207.831 478.226a3.128 3.128 0 0 1 3.909-2.097 3.17 3.17 0 0 1 2.121 3.924 3.127 3.127 0 0 1-3.908 2.097 3.17 3.17 0 0 1-2.122-3.924zm4.523 1.37a1.585 1.585 0 0 0-1.061-1.962 1.564 1.564 0 0 0-1.954 1.049c-.247.83.229 1.71 1.06 1.962a1.565 1.565 0 0 0 1.955-1.049z" fill="#DAE3E5"/><path d="M193.345 485.302l6.03 1.826a.793.793 0 0 1 .531.981l-2.459 8.279.754.228a.791.791 0 0 1 .53.981.781.781 0 0 1-.977.525l-9.045-2.74a.792.792 0 0 1-.53-.981.781.781 0 0 1 .977-.524l.754.228 2.458-8.279a.781.781 0 0 1 .977-.524zm-1.928 9.26l4.523 1.369.894-3.01-4.523-1.37-.894 3.011zm1.341-4.516l4.523 1.37.894-3.011-4.523-1.37-.894 3.011z" fill="#DAE3E5"/><path d="M195.471 503.135a.78.78 0 0 1 .976-.524l2.26.685 4.245-14.294a.78.78 0 0 1 .976-.524l7.534 2.282a.793.793 0 0 1 .53.981l-4.245 14.293 2.26.684a.791.791 0 0 1 .53.981l-.893 3.009a.781.781 0 0 1-.977.524.791.791 0 0 1-.53-.98l.67-2.257-12.806-3.879a.791.791 0 0 1-.53-.981zm6.977-6.906l.753.229a.79.79 0 0 1 .53.98.781.781 0 0 1-.977.524l-.753-.228-1.787 6.018 6.027 1.826 4.021-13.541-6.027-1.826-1.787 6.018z" fill="#DAE3E5"/><path d="M216.026 492.129l6.03 1.826a.791.791 0 0 1 .53.981l-2.458 8.279.754.228a.791.791 0 0 1 .53.981.781.781 0 0 1-.977.524l-9.045-2.739a.792.792 0 0 1-.53-.981.781.781 0 0 1 .977-.525l.754.229 2.458-8.279a.78.78 0 0 1 .977-.524zm-1.928 9.259l4.523 1.37.894-3.01-4.523-1.37-.894 3.01zm1.341-4.515l4.523 1.369.893-3.01-4.522-1.37-.894 3.011zM562.803 453.836l1.571-1.923 4.813-16.472c.822-2.783 3.293-4.775 6.191-5.015l42.606-3.276a6.95 6.95 0 0 1 6.839 4.013l7.019 15.362 2.612 2.069a9.496 9.496 0 0 1 3.887 6.993l1.677 23.332c.258 3.818-2.636 7.144-6.469 7.439l-4.398.338c-3.833.295-7.171-2.552-7.462-6.368l-.243-3.385-41.323 3.177.244 3.386c.257 3.818-2.637 7.144-6.469 7.438l-4.399.339c-3.832.294-7.17-2.553-7.461-6.368l-1.721-23.946a9.673 9.673 0 0 1 2.486-7.133zm58.969-21.304a3.594 3.594 0 0 0-3.55-2.063l-42.622 3.278a3.66 3.66 0 0 0-3.216 2.583l-4.196 14.339 3.882-.298c.469-6.294 5.975-11.039 12.291-10.59 5.034.347 9.23 3.946 10.32 8.851l33.292-2.56-6.201-13.54zm-46.303 17.577l15.846-1.218c-1.23-4.294-5.729-6.751-10.046-5.502a8.175 8.175 0 0 0-5.8 6.72zm49.553 29.963a3.604 3.604 0 0 0 3.89 3.305l4.399-.338a3.649 3.649 0 0 0 3.375-3.864l-.313-4.348c-.953.724-2.247 1.141-3.563 1.242l-8.031.618.243 3.385zm-59.651 4.587a3.604 3.604 0 0 0 3.89 3.305l4.398-.338c2-.154 3.501-1.888 3.375-3.864l-.243-3.385-8.031.617c-1.317.101-2.656-.113-3.702-.683l.313 4.348zm3.15-6.984l64.05-4.925c1.984-.136 3.504-1.838 3.377-3.83l-.94-13.077a6.2 6.2 0 0 0-2.557-4.575l-.071-.062-2.419-1.949-63.101 4.851-1.477 1.833c-.014.034-.063.055-.077.089a6.287 6.287 0 0 0-1.64 4.681l.984 13.691-.017.001c.159 1.974 1.906 3.441 3.888 3.272z" fill="#DAE3E5"/><path d="M616.37 456.995l12.497-.961c.917-.07 1.72.619 1.786 1.531l.62 8.63a1.682 1.682 0 0 1-1.547 1.788l-12.497.96a1.66 1.66 0 0 1-1.785-1.531l-.621-8.629a1.683 1.683 0 0 1 1.547-1.788zm2.287 8.501l9.164-.704-.381-5.311-9.165.705.382 5.31zM569.805 460.512l12.497-.961a1.662 1.662 0 0 1 1.785 1.531l.621 8.63a1.683 1.683 0 0 1-1.547 1.787l-12.497.961a1.662 1.662 0 0 1-1.786-1.531l-.62-8.63a1.681 1.681 0 0 1 1.547-1.787zm2.286 8.501l9.165-.705-.382-5.31-9.164.705.381 5.31zM591.781 465.847l16.115-1.231a1.668 1.668 0 0 1 1.789 1.537 1.684 1.684 0 0 1-1.548 1.792l-16.115 1.23a1.668 1.668 0 0 1-1.789-1.537 1.684 1.684 0 0 1 1.548-1.791zM591.405 460.715l16.115-1.23a1.668 1.668 0 0 1 1.789 1.537 1.683 1.683 0 0 1-1.548 1.791l-16.115 1.23a1.668 1.668 0 0 1-1.789-1.536 1.684 1.684 0 0 1 1.548-1.792zM403.881 393.669l24.829 5.793a5.744 5.744 0 0 1 4.283 6.943l-13.601 56.264c-.754 3.105-3.887 5.033-7.003 4.309l-24.829-5.793a5.741 5.741 0 0 1-4.282-6.943l13.6-56.264c.755-3.105 3.888-5.032 7.003-4.309zm1.123 69.209l7.929 1.85a3.508 3.508 0 0 0 4.202-2.586l.816-3.376-11.315-2.64c1.063 2.348.392 5.124-1.632 6.752zm-4.485-1.047a3.508 3.508 0 0 0 4.202-2.586 3.442 3.442 0 0 0-2.57-4.165 3.508 3.508 0 0 0-4.202 2.585 3.441 3.441 0 0 0 2.57 4.166zm-14.984-7.062a3.44 3.44 0 0 0 2.569 4.165l7.93 1.851c-1.063-2.348-.392-5.125 1.632-6.752l-11.315-2.64-.816 3.376zm1.36-5.627l31.6 7.374 10.609-43.886-31.601-7.373-10.608 43.885zm11.152-46.136l31.601 7.374 1.088-4.501a3.441 3.441 0 0 0-2.57-4.166l-24.829-5.794a3.51 3.51 0 0 0-4.202 2.586l-1.088 4.501z" fill="#DAE3E5"/><path d="M411.516 401.434l11.311 2.643-.544 2.256-11.311-2.643.544-2.256zM415.383 420.137l4.518 1.053a3.444 3.444 0 0 1 2.571 4.169l-1.089 4.504a3.51 3.51 0 0 1-4.205 2.588l-4.518-1.054a3.444 3.444 0 0 1-2.572-4.168l1.09-4.505a3.511 3.511 0 0 1 4.205-2.587zm-3.036 7.619c-.15.621.234 1.244.858 1.389l4.517 1.054a1.171 1.171 0 0 0 1.402-.863l1.089-4.504a1.146 1.146 0 0 0-.857-1.389l-4.518-1.054a1.17 1.17 0 0 0-1.401.862l-1.09 4.505zM401.802 416.958l4.517 1.054a3.444 3.444 0 0 1 2.572 4.169l-1.089 4.504a3.512 3.512 0 0 1-4.205 2.588l-4.518-1.054a3.444 3.444 0 0 1-2.572-4.169l1.089-4.504a3.512 3.512 0 0 1 4.206-2.588zm-3.036 7.619c-.15.622.233 1.244.857 1.39l4.518 1.054a1.172 1.172 0 0 0 1.402-.863l1.089-4.504a1.149 1.149 0 0 0-.857-1.39l-4.518-1.054a1.172 1.172 0 0 0-1.402.863l-1.089 4.504zM412.132 433.622l4.518 1.054a3.444 3.444 0 0 1 2.572 4.169l-1.09 4.504a3.511 3.511 0 0 1-4.205 2.588l-4.518-1.054a3.444 3.444 0 0 1-2.571-4.169l1.089-4.504a3.512 3.512 0 0 1 4.205-2.588zm-3.035 7.619a1.148 1.148 0 0 0 .857 1.39l4.518 1.054a1.172 1.172 0 0 0 1.402-.863l1.089-4.504a1.15 1.15 0 0 0-.857-1.39l-4.518-1.054a1.171 1.171 0 0 0-1.402.863l-1.089 4.504zM398.551 430.444l4.518 1.054a3.443 3.443 0 0 1 2.571 4.168l-1.089 4.504a3.51 3.51 0 0 1-4.205 2.588l-4.518-1.054a3.443 3.443 0 0 1-2.572-4.168l1.089-4.504a3.512 3.512 0 0 1 4.206-2.588zm-3.036 7.619c-.15.622.234 1.244.857 1.389l4.518 1.054a1.17 1.17 0 0 0 1.402-.863l1.089-4.504a1.146 1.146 0 0 0-.857-1.389l-4.518-1.054a1.17 1.17 0 0 0-1.402.862l-1.089 4.505zM421.801 413.335l3.388.79c.624.146 1.008.768.857 1.39l-.816 3.378a1.17 1.17 0 0 1-1.402.862 1.146 1.146 0 0 1-.857-1.389l.544-2.252-2.259-.527a1.15 1.15 0 0 1-.857-1.39 1.17 1.17 0 0 1 1.402-.862zM415.006 411.748l2.261.527a1.15 1.15 0 0 1 .858 1.391 1.171 1.171 0 0 1-1.403.863l-2.261-.527a1.15 1.15 0 0 1-.858-1.391 1.171 1.171 0 0 1 1.403-.863zM406.988 400.374l2.259.528-.544 2.252-2.259-.527.544-2.253zM538.139 233.81l10.324-10.754a3.365 3.365 0 0 1 4.775-.083l24.286 23.619a3.418 3.418 0 0 1 .082 4.806l-10.324 10.755a3.366 3.366 0 0 1-4.775.082l-24.286-23.619a3.418 3.418 0 0 1-.082-4.806zm35.199 20.078l3.297-3.435c.778-.809.755-2.1-.049-2.883l-1.458-1.417-4.704 4.901a3.32 3.32 0 0 1 2.914 2.834zm-1.865 1.943a2.05 2.05 0 0 0-.049-2.884 2.017 2.017 0 0 0-2.865.049 2.049 2.049 0 0 0 .049 2.884 2.017 2.017 0 0 0 2.865-.049zm-8.027 5.426a2.017 2.017 0 0 0 2.865-.049l3.297-3.435a3.319 3.319 0 0 1-2.914-2.834l-4.705 4.901 1.457 1.417zm-2.429-2.362l13.14-13.687-18.943-18.423-13.14 13.688 18.943 18.422zm-19.914-19.367l13.139-13.687-1.942-1.89a2.017 2.017 0 0 0-2.865.049l-10.324 10.755a2.047 2.047 0 0 0 .049 2.883l1.943 1.89z" fill="#DAE3E5"/><path d="M544.328 232.287l4.705-4.898.974.947-4.705 4.898-.974-.947zM554.903 235.922l1.879-1.957a2.019 2.019 0 0 1 2.867-.049l1.944 1.891a2.05 2.05 0 0 1 .049 2.886l-1.878 1.957a2.018 2.018 0 0 1-2.867.049l-1.944-1.891a2.05 2.05 0 0 1-.05-2.886zm2.933 3.799a.673.673 0 0 0 .956-.017l1.878-1.957a.684.684 0 0 0-.016-.962l-1.945-1.891a.672.672 0 0 0-.955.017l-1.879 1.957a.683.683 0 0 0 .017.962l1.944 1.891zM549.251 241.802l1.878-1.957a2.017 2.017 0 0 1 2.867-.049l1.944 1.891a2.05 2.05 0 0 1 .05 2.886l-1.879 1.957a2.019 2.019 0 0 1-2.867.049l-1.944-1.891a2.05 2.05 0 0 1-.049-2.886zm2.933 3.799a.672.672 0 0 0 .955-.017l1.879-1.957a.684.684 0 0 0-.017-.962l-1.944-1.891a.673.673 0 0 0-.956.017l-1.878 1.957c-.259.27-.252.7.016.962l1.945 1.891zM560.726 241.579l1.879-1.957a2.018 2.018 0 0 1 2.867-.05l1.944 1.891c.805.784.827 2.076.049 2.886l-1.878 1.957a2.018 2.018 0 0 1-2.867.05l-1.944-1.891a2.05 2.05 0 0 1-.05-2.886zm2.933 3.798a.673.673 0 0 0 .956-.016l1.878-1.957a.684.684 0 0 0-.016-.962l-1.945-1.891a.672.672 0 0 0-.955.016l-1.879 1.957a.683.683 0 0 0 .017.962l1.944 1.891zM555.075 247.458l1.878-1.957a2.019 2.019 0 0 1 2.867-.049l1.944 1.891a2.05 2.05 0 0 1 .049 2.886l-1.878 1.957a2.017 2.017 0 0 1-2.867.049l-1.944-1.891a2.05 2.05 0 0 1-.049-2.886zm2.932 3.799a.672.672 0 0 0 .956-.017l1.878-1.957c.26-.27.252-.7-.016-.962l-1.944-1.891a.673.673 0 0 0-.956.017l-1.878 1.957a.683.683 0 0 0 .016.962l1.944 1.891zM553.391 230.667l1.408-1.468a.673.673 0 0 1 .956-.016l1.458 1.418a.683.683 0 0 1 .017.962.672.672 0 0 1-.956.016l-.972-.945-.939.978a.673.673 0 0 1-.956.017.683.683 0 0 1-.016-.962zM550.564 233.61l.941-.98a.675.675 0 0 1 .957-.016.684.684 0 0 1 .016.963l-.94.98a.675.675 0 0 1-.957.016.685.685 0 0 1-.017-.963zM542.444 234.248l.939-.978.973.946-.94.978-.972-.946zM292.449 445.266l7.479-10.01c.709-.95 2.2-1.16 3.158-.454l10.939 8.108 7.122-3.289a1.778 1.778 0 0 1 2.38.863l1.331 2.83 6.895 14.666a1.752 1.752 0 0 1-.865 2.362l-22.752 10.508a1.78 1.78 0 0 1-2.38-.863l-1.922-4.089-.673.31a.693.693 0 0 1-.929-.336l-2.199-4.679a.682.682 0 0 1 .337-.922l.673-.31-2.163-4.601a1.799 1.799 0 0 1 .527-2.157l-6.495-4.801a2.263 2.263 0 0 1-.463-3.136zm5.995-5.688l11.668 8.633 1.78-.822-12.436-9.14-1.012 1.329zm3.771-3.656c-.364-.262-.913-.2-1.176.161l-.731 1.007 13.009 9.641 2.176-1.005-13.278-9.804zm20.067 5.089c-.055-.118-.306-.242-.504-.15l-6.449 2.978 1.609 1.171 5.58-2.577c.118-.054.237-.109.374-.125l-.61-1.297zm-15.22 28.373a.392.392 0 0 0 .522.189l22.752-10.508a.386.386 0 0 0 .19-.518l-6.876-14.627a.393.393 0 0 0-.522-.189l-5.975 2.759-2.533 1.17-4.629 2.138-8.903 4.112-.673.311a.387.387 0 0 0-.19.518l2.163 4.6 2.414-1.115a2.106 2.106 0 0 1 2.786 1.011l1.017 2.162a2.073 2.073 0 0 1-1.012 2.765l-2.454 1.133 1.923 4.089zm-5.388-8.183l-.04.018 1.608 3.42.04-.018 3.719-1.718a.682.682 0 0 0 .338-.921l-1.017-2.163a.693.693 0 0 0-.929-.336l-3.719 1.718zm-7.91-13.958l7.088 5.244 7.835-3.618-11.055-8.15-4.014 5.395c-.322.34-.219.867.146 1.129z" fill="#DAE3E5"/><path d="M295.9 445.571l.243-.303c.588-.798 1.804-.976 2.609-.39l.747.564c.383.303.685.738.73 1.244.085.487-.065.987-.368 1.367l-.243.303a1.964 1.964 0 0 1-.698.562c-.633.292-1.354.193-1.911-.172l-.747-.565c-.784-.643-.949-1.812-.362-2.61zm1.232 1.491l.747.565c.211.142.525.092.667-.117l.224-.343c.061-.075.084-.23.087-.327-.016-.136-.072-.254-.188-.296l-.747-.565c-.135-.082-.348-.127-.507-.054-.079.037-.118.055-.179.131l-.242.303a.67.67 0 0 0 .138.703z" fill="#DAE3E5"/><path d="M627.292 404.57a2.802 2.802 0 0 0 2.774 2.83 2.8 2.8 0 1 0 .059-5.601 2.803 2.803 0 0 0-2.833 2.771z" stroke="#DAE3E5"/><path d="M390.854 320.198l1.956-1.089c.001-1.776.323-3.549.941-5.219l-4.135-5.766a.944.944 0 0 1 .418-1.432l.193-.079.004-.001a6.64 6.64 0 0 1 7.267 1.586 14.852 14.852 0 0 1 1.69-1.393.962.962 0 0 1 1.336.223.947.947 0 0 1-.223 1.327 13.18 13.18 0 0 0-4.531 5.608.942.942 0 0 1-.125.307 13.144 13.144 0 0 0-.909 5.355.948.948 0 0 1-.488.866l-2.455 1.367a.865.865 0 0 0-.381 1.085l1.825 4.444a.88.88 0 0 0 1.038.512l2.52-.67a.96.96 0 0 1 .987.314 13.325 13.325 0 0 0 6.28 4.194.954.954 0 0 1 .6.549l2.002 4.872a.865.865 0 0 0 1.124.471l5.146-2.079a.856.856 0 0 0 .473-1.116l-.763-1.857a.948.948 0 0 1 .525-1.24l7.454-3.011a.962.962 0 0 1 1.25.523l.762 1.857a.866.866 0 0 0 1.124.47l5.147-2.079a.853.853 0 0 0 .472-1.115l-1.413-3.44a.946.946 0 0 1 .146-.962 13.145 13.145 0 0 0 2.031-13.381c-2.774-6.755-10.563-10.015-17.361-7.269l-1.112.45a.963.963 0 0 1-1.25-.523.949.949 0 0 1 .526-1.24l1.111-.449c6.587-2.661 13.984-.393 18.023 5.056l.65-.262a2.326 2.326 0 0 0 1.287-3.038 2.358 2.358 0 0 0-3.061-1.281.962.962 0 0 1-1.249-.523.948.948 0 0 1 .525-1.24c2.177-.88 4.671.164 5.559 2.327.889 2.163-.16 4.638-2.337 5.518l-.322.13a15.03 15.03 0 0 1-1.18 16.483l1.202 2.927a2.752 2.752 0 0 1-1.523 3.595l-5.146 2.079a2.792 2.792 0 0 1-3.623-1.516l-.401-.976-5.679 2.295.4.975a2.754 2.754 0 0 1-1.522 3.596l-5.147 2.079a2.793 2.793 0 0 1-3.623-1.517l-1.834-4.466a15.236 15.236 0 0 1-6.344-4.187l-1.938.515a2.804 2.804 0 0 1-3.31-1.633l-1.826-4.444a2.765 2.765 0 0 1 1.217-3.462zm3.811-8.313a15.23 15.23 0 0 1 1.531-2.279 4.702 4.702 0 0 0-4.247-1.508l2.716 3.787z" fill="#DAE3E5"/><path d="M398.63 316.897a.959.959 0 0 1 1.769.011.952.952 0 0 1-1.258 1.235.97.97 0 0 1-.516-.518.952.952 0 0 1 .005-.728zM400.896 295.911a.96.96 0 0 1 1.246.523l1.433 3.491a.947.947 0 0 1-.524 1.238.96.96 0 0 1-1.246-.523l-1.433-3.491a.947.947 0 0 1 .524-1.238zM399.07 293.23a.956.956 0 0 1 1.254-.506c.232.097.42.286.516.518a.956.956 0 0 1-.004.728.962.962 0 0 1-1.254.506.96.96 0 0 1-.516-.518.956.956 0 0 1 .004-.728zM406.011 287.852a.96.96 0 0 1 1.248.523l.614 1.496a.947.947 0 0 1-.524 1.239.961.961 0 0 1-1.248-.523l-.614-1.496a.947.947 0 0 1 .524-1.239zM425.991 311.858a.948.948 0 0 1 .525-1.24.963.963 0 0 1 1.249.523l.019.047a.948.948 0 0 1-.527 1.234l-.006.002a.961.961 0 0 1-1.245-.53l-.015-.036zM424.899 320.373a8.775 8.775 0 0 0 1.732-5.4.952.952 0 0 1 .937-.97.956.956 0 0 1 .978.931 10.67 10.67 0 0 1-2.107 6.572.965.965 0 0 1-1.34.197.946.946 0 0 1-.2-1.33zM407.737 292.075c2.054-.829 4.407.155 5.245 2.196a3.985 3.985 0 0 1-2.205 5.205c-2.054.83-4.407-.155-5.245-2.195-.839-2.041.151-4.376 2.205-5.206zm2.316 5.639a2.087 2.087 0 0 0 1.155-2.726 2.119 2.119 0 0 0-2.748-1.151 2.089 2.089 0 0 0-1.155 2.727 2.118 2.118 0 0 0 2.748 1.15zM402.465 311.039l.799-.323a3.984 3.984 0 0 1-1.351-1.716 3.99 3.99 0 0 1 2.206-5.211c2.055-.83 4.41.156 5.249 2.198a3.95 3.95 0 0 1 .243 2.164l4.392-1.774a.961.961 0 0 1 1.249.523.95.95 0 0 1-.525 1.241l-11.538 4.662a.963.963 0 0 1-1.25-.524.949.949 0 0 1 .526-1.24zm3.972-1.605a2.09 2.09 0 0 0 1.156-2.73 2.12 2.12 0 0 0-2.75-1.151 2.09 2.09 0 0 0-1.155 2.729 2.118 2.118 0 0 0 2.749 1.152zM325.013 550.455l1.69 1.468a15.123 15.123 0 0 1 5.233-.89l4.023-5.844a.947.947 0 0 1 .722-.409.956.956 0 0 1 .769.315l.14.156.002.002a6.622 6.622 0 0 1 .975 7.367c.654.325 1.286.697 1.886 1.114a.96.96 0 0 1 .244 1.332.948.948 0 0 1-1.325.241 13.186 13.186 0 0 0-6.819-2.351.924.924 0 0 1-.331-.014 13.195 13.195 0 0 0-5.351.966.952.952 0 0 1-.981-.164l-2.121-1.843a.868.868 0 0 0-1.151.011l-3.564 3.225a.876.876 0 0 0-.129 1.148l1.487 2.14a.96.96 0 0 1 .04 1.035 13.298 13.298 0 0 0-1.815 7.326.958.958 0 0 1-.313.75l-3.907 3.536a.863.863 0 0 0-.061 1.215l3.706 4.13a.855.855 0 0 0 1.21.065l1.489-1.348a.95.95 0 0 1 1.346.072l5.368 5.981a.96.96 0 0 1-.068 1.351l-1.489 1.348a.864.864 0 0 0-.061 1.216l3.706 4.129a.857.857 0 0 0 1.211.065l2.758-2.497a.952.952 0 0 1 .956-.19 13.176 13.176 0 0 0 13.287-2.638c5.417-4.901 5.84-13.327.944-18.781l-.8-.892a.96.96 0 0 1 .068-1.352.95.95 0 0 1 1.345.072l.801.892c4.743 5.284 5.121 13.005 1.363 18.652l.468.521a2.33 2.33 0 0 0 3.297.177 2.354 2.354 0 0 0 .166-3.311.96.96 0 0 1 .068-1.352.951.951 0 0 1 1.346.073c1.568 1.746 1.432 4.444-.302 6.014a4.235 4.235 0 0 1-5.989-.321l-.232-.259a15.08 15.08 0 0 1-15.919 4.491l-2.348 2.124a2.758 2.758 0 0 1-3.902-.209l-3.706-4.129a2.787 2.787 0 0 1 .197-3.919l.782-.708-4.09-4.556-.782.707a2.758 2.758 0 0 1-3.902-.209l-3.706-4.129a2.786 2.786 0 0 1 .197-3.919l3.581-3.241a15.208 15.208 0 0 1 1.787-7.383l-1.144-1.646a2.8 2.8 0 0 1 .413-3.665l3.564-3.225a2.771 2.771 0 0 1 3.673-.033zm9.121.756c.908.141 1.8.364 2.665.665a4.69 4.69 0 0 0-.023-4.504l-2.642 3.839z" fill="#DAE3E5"/><path d="M330.765 556.639a.955.955 0 0 1 .903 1.006.95.95 0 0 1-1.658.588.962.962 0 0 1 .068-1.351.954.954 0 0 1 .687-.243zM351.291 551.638a.957.957 0 0 1-.068 1.348l-2.8 2.533a.95.95 0 0 1-1.344-.072.957.957 0 0 1 .069-1.348l2.8-2.533a.949.949 0 0 1 1.343.072zM353.195 549.012a.96.96 0 0 1 .659.315.967.967 0 0 1 .244.691.966.966 0 0 1-.312.66.956.956 0 0 1-.687.244.964.964 0 0 1-.658-.316.967.967 0 0 1-.245-.69.966.966 0 0 1 .312-.661.956.956 0 0 1 .687-.243zM360.617 553.706a.959.959 0 0 1-.068 1.35l-1.2 1.086a.95.95 0 0 1-1.344-.072.958.958 0 0 1 .068-1.35l1.2-1.086a.95.95 0 0 1 1.344.072zM344.805 580.635a.95.95 0 0 1 1.345.072.96.96 0 0 1-.068 1.351l-.037.034a.95.95 0 0 1-1.341-.076l-.004-.005a.96.96 0 0 1 .076-1.35l.029-.026zM336.417 582.501a8.787 8.787 0 0 0 5.673-.207.952.952 0 0 1 1.231.55.956.956 0 0 1-.544 1.236 10.693 10.693 0 0 1-6.903.253.96.96 0 0 1-.641-1.191.949.949 0 0 1 1.184-.641zM357.227 556.762c1.479 1.648 1.351 4.193-.285 5.674a3.994 3.994 0 0 1-5.65-.303c-1.479-1.648-1.351-4.193.285-5.674a3.994 3.994 0 0 1 5.65.303zm-4.522 4.092a2.093 2.093 0 0 0 2.96.159 2.112 2.112 0 0 0 .149-2.972 2.091 2.091 0 0 0-2.959-.159 2.113 2.113 0 0 0-.15 2.972zM337.582 558.252l.576.641c.2-.692.587-1.337 1.157-1.853a3.998 3.998 0 0 1 5.655.303c1.48 1.649 1.352 4.196-.286 5.678a3.96 3.96 0 0 1-1.955.964l3.163 3.523a.96.96 0 0 1-.068 1.352.951.951 0 0 1-1.347-.072l-8.309-9.256a.96.96 0 0 1 .068-1.352.95.95 0 0 1 1.346.072zm2.861 3.187a2.094 2.094 0 0 0 2.962.158c.858-.776.926-2.11.15-2.974a2.094 2.094 0 0 0-2.962-.159 2.115 2.115 0 0 0-.15 2.975z" fill="#DAE3E5"/><path d="M488.058 298.861a3.746 3.746 0 0 0 3.708 3.783 3.745 3.745 0 0 0 3.787-3.703 3.746 3.746 0 0 0-3.708-3.783 3.745 3.745 0 0 0-3.787 3.703zM482.551 458.301a2.802 2.802 0 0 0 2.774 2.831 2.803 2.803 0 0 0 2.833-2.771 2.802 2.802 0 0 0-2.774-2.83 2.8 2.8 0 0 0-2.833 2.77zM248.245 274.318a3.746 3.746 0 0 0 3.708 3.783 3.745 3.745 0 0 0 3.787-3.703 3.746 3.746 0 0 0-3.707-3.784 3.747 3.747 0 0 0-3.788 3.704zM399.208 408.498a3.746 3.746 0 0 0 3.708 3.784 3.746 3.746 0 0 0 3.787-3.704 3.746 3.746 0 0 0-3.708-3.783 3.745 3.745 0 0 0-3.787 3.703zM593.565 290.631a3.746 3.746 0 0 0 3.708 3.783 3.745 3.745 0 0 0 3.787-3.703 3.745 3.745 0 0 0-3.707-3.783 3.746 3.746 0 0 0-3.788 3.703zM92.738 337.41a3.745 3.745 0 0 0 3.707 3.783 3.745 3.745 0 0 0 3.788-3.703 3.746 3.746 0 0 0-3.708-3.783 3.745 3.745 0 0 0-3.787 3.703z" stroke="#DAE3E5"/><path d="M435.248 222.948c2.921 4.535 9.003 5.849 13.584 2.936 4.581-2.914 5.927-8.953 3.006-13.488s-9.003-5.849-13.584-2.936c-4.576 2.918-5.921 8.952-3.006 13.488zm4.064-11.846c3.665-2.331 8.53-1.279 10.867 2.349 2.337 3.628 1.26 8.459-2.405 10.79-3.665 2.331-8.53 1.28-10.867-2.349-2.332-3.628-1.256-8.456 2.405-10.79zM449.381 237.11l9.481-6.03 1.058 1.643-9.481 6.029-1.058-1.642zM443.711 236.086l16.59-10.551 1.058 1.642-16.59 10.552-1.058-1.643zM425.461 247.693l1.66-1.055 1.058 1.642-1.66 1.056-1.058-1.643zM421.542 252.501l1.659-1.055 1.058 1.643-1.659 1.055-1.058-1.643z" fill="#DAE3E5"/><path d="M422.568 243.019a73.268 73.268 0 0 0-7.675-29.382l12.604 2.685a.994.994 0 0 0 .862-.226.974.974 0 0 0 .323-.83c-.427-4.085-3.444-7.43-7.488-8.299l-1.111-.241 5.835-3.71a.974.974 0 0 0 .091-1.583c-3.215-2.579-7.739-2.819-11.228-.595l-1.079.686 1.486-6.759a.973.973 0 0 0-1.063-1.176c-4.121.436-7.505 3.442-8.396 7.459l-.287 1.288a9.532 9.532 0 0 0-.191 1.279 9.356 9.356 0 0 0-1.241-.368l-1.297-.28c-4.042-.878-8.204.915-10.327 4.448a.97.97 0 0 0 .629 1.452l6.804 1.487-1.089.693c-3.494 2.217-5.17 6.401-4.158 10.381a.98.98 0 0 0 1.483.58l5.829-3.707-.245 1.103a9.469 9.469 0 0 0 4.448 10.233.988.988 0 0 0 1.465-.63l2.631-11.638a52.441 52.441 0 0 1 5.305 27.218c-1.301.419-2.579.91-3.826 1.47l-.551.278.887 1.741.513-.261a35.65 35.65 0 0 1 2.778-1.102c-.033.312-.065.627-.105.939l1.95.244a54.487 54.487 0 0 0-6.28-33.501l.35-1.546 1.168.249a70.752 70.752 0 0 1 8.258 35.842l1.964.077c.059-1.337.065-2.689.04-4.047a35.124 35.124 0 0 1 15.052 1.401l.612-1.857a36.94 36.94 0 0 0-8.844-1.675l34.766-22.112-1.057-1.643-37.225 23.675a36.963 36.963 0 0 0-3.37.26zm3.888-28.918l-14.321-3.052a7.645 7.645 0 0 1 7.343-2.46l1.297.281a7.581 7.581 0 0 1 5.681 5.231zm-2.862-11.923l-6.868 4.369a9.657 9.657 0 0 0-5.529 2.661 7.59 7.59 0 0 1 3.519-6.013l1.119-.712a7.694 7.694 0 0 1 7.759-.305zm-16.234.575l.287-1.288a7.642 7.642 0 0 1 5.295-5.656l-1.763 8.024a9.499 9.499 0 0 0-1.957 5.533 7.331 7.331 0 0 1-1.859-6.615l-.003.002zm-5.075 2.122l1.297.281c.61.138 1.2.352 1.756.637a9.205 9.205 0 0 0 1.124 3.133 9.662 9.662 0 0 0-3.486.124l-8.073-1.769a7.7 7.7 0 0 1 7.384-2.407l-.002.001zm-2.5 7.816l1.12-.712a7.688 7.688 0 0 1 6.973-.662 9.63 9.63 0 0 0-4.744 3.874l-6.871 4.37a7.59 7.59 0 0 1 3.525-6.872l-.003.002zm6.175 14.445a7.52 7.52 0 0 1-2.4-7.316l.286-1.289a7.497 7.497 0 0 1 3.318-4.693 7.84 7.84 0 0 1 2.006-.908l-3.21 14.206zM235.989 634.413c-2.108 3.418-1.033 7.92 2.399 10.055s7.923 1.094 10.031-2.325c2.108-3.418 1.034-7.92-2.399-10.055-3.433-2.13-7.921-1.09-10.031 2.325zm9.268-1.087c2.746 1.708 3.605 5.309 1.919 8.044-1.686 2.735-5.279 3.568-8.025 1.86-2.746-1.708-3.605-5.309-1.919-8.044 1.688-2.732 5.279-3.564 8.025-1.86zM231.021 648.449l7.103 4.418-.763 1.238-7.104-4.418.764-1.238zM229.883 644.317l12.431 7.73-.764 1.238-12.43-7.73.763-1.238zM216.211 635.813l1.243.773-.763 1.239-1.244-.773.764-1.239zM211.718 634.732l1.244.773-.764 1.239-1.243-.773.763-1.239z" fill="#DAE3E5"/><path d="M218.42 632.369a54.636 54.636 0 0 0 17.275-14.604l2.252 9.318a.739.739 0 0 0 .43.505c.217.09.463.071.661-.051a7.077 7.077 0 0 0 3.168-7.692l-.196-.823 4.371 2.719a.726.726 0 0 0 1.093-.448 7.179 7.179 0 0 0-3.214-7.722l-.808-.503 5.021-1.179a.723.723 0 0 0 .448-1.091c-1.62-2.623-4.729-3.925-7.715-3.23l-.958.222a7.207 7.207 0 0 0-.921.284 7.105 7.105 0 0 0-.152-.951l-.229-.961a7.191 7.191 0 0 0-6.313-5.494.723.723 0 0 0-.773.889l1.19 5.042-.816-.507c-2.614-1.629-5.965-1.407-8.314.552a.728.728 0 0 0 .087 1.182l4.367 2.716-.82.19a7.056 7.056 0 0 0-5.445 6.276.737.737 0 0 0 .895.781l8.668-1.982a39.116 39.116 0 0 1-16.584 12.318 27.24 27.24 0 0 0-2.219-2.092l-.365-.281-.884 1.155.341.261c.567.475 1.107.984 1.634 1.508-.22.078-.441.158-.664.231l.463 1.387a40.639 40.639 0 0 0 20.492-14.993l1.152-.264.208.864a52.756 52.756 0 0 1-21.428 17.073l.58 1.343a48.795 48.795 0 0 0 2.733-1.276 26.088 26.088 0 0 1 3.902 10.545l1.445-.187a27.397 27.397 0 0 0-1.721-6.47l26.049 16.2.763-1.238-27.89-17.346a26.936 26.936 0 0 0-1.259-2.176zm20.685-6.7l-2.558-10.586a5.686 5.686 0 0 1 4.016 4.133l.229.96a5.636 5.636 0 0 1-1.687 5.493zm7.091-5.756l-5.146-3.2a7.187 7.187 0 0 0-3.568-2.852 5.661 5.661 0 0 1 5.173.425l.839.522a5.713 5.713 0 0 1 2.702 5.105zm-5.611-10.703l.958-.221a5.695 5.695 0 0 1 5.505 1.73l-5.96 1.4a7.095 7.095 0 0 0-4.348.469 5.466 5.466 0 0 1 3.847-3.376l-.002-.002zm-3.059-2.72l.229.96c.103.454.149.918.136 1.383a6.838 6.838 0 0 0-1.743 1.762 7.2 7.2 0 0 0-1.206-2.298l-1.409-5.983a5.724 5.724 0 0 1 3.994 4.177l-.001-.001zm-6.057.839l.839.522a5.711 5.711 0 0 1 2.689 4.463 7.175 7.175 0 0 0-4.13-1.934l-5.148-3.202a5.662 5.662 0 0 1 5.752.152l-.002-.001zm-7.72 8.79a5.607 5.607 0 0 1 4.144-3.965l.958-.222a5.595 5.595 0 0 1 4.222.714c.466.29.888.645 1.256 1.054l-10.58 2.419z" fill="#DAE3E5"/></g><path d="M769 745c0-100.252-39.772-196.397-110.567-267.286C587.638 406.825 491.619 367 391.5 367s-196.138 39.825-266.933 110.714C53.772 548.603 14 644.748 14 745h96.745c.001-74.56 29.58-146.065 82.232-198.786 52.651-52.722 124.062-82.34 198.523-82.34s145.872 29.618 198.523 82.34C642.675 598.935 672.254 670.44 672.254 745H769z" fill="#FAFBFC"/><defs id="defs227"><linearGradient id="paint0_linear" x1="1360" y1="391.125" x2="10" y2="391.125" gradientUnits="userSpaceOnUse"><stop stop-color="#F0F4F5" id="stop222"/><stop offset="1" stop-color="#F6F7FA" id="stop224"/></linearGradient></defs></svg>