<svg width="327" height="331" fill="none" xmlns="http://www.w3.org/2000/svg"><g opacity=".05"><path d="M320 165.552c0 87.53-70.142 158.353-156.5 158.353S7 253.082 7 165.552C7 78.022 77.142 7.199 163.5 7.199S320 78.02 320 165.552z" stroke="#fff" stroke-width="14"/><path d="M125.201 198.362c-1.331-3.53-1.854-6.916-1.672-10.386.352-6.737 1.944-13.13 5.602-18.848 4.053-6.339 9.802-10.325 17.075-11.964 2.059-.465 4.206-.787 6.307-.752 2.844.048 5.347 1.122 6.878 3.789 1.14 1.985 1.453 4.159 1.247 6.399-.644 7.028-4.856 11.722-10.164 15.65-2.618 1.937-5.528 3.353-8.613 4.351-.852.276-1.302.666-1.16 1.541.215 1.325.347 2.695.803 3.938.464 1.267 1.463 1.953 2.968 1.999 2.96.089 5.624-.817 8.227-2.071 4.085-1.966 6.973-5.269 9.629-8.825.938-1.257.815-2.807.967-4.245.531-5.005.969-10.021 1.439-15.032.269-2.874.586-5.745.765-8.625.064-1.029.362-1.58 1.385-1.788 4.762-.968 9.515-1.976 14.274-2.958.284-.058.59-.007 1.113-.007-.097 1.284-.169 2.479-.281 3.671-.214 2.26-.449 4.519-.679 6.779-.608 5.984-1.234 11.967-1.815 17.954a55.452 55.452 0 0 0-.244 4.788c-.018 1.705.808 2.236 2.497 1.805 3.129-.799 5.085-3.02 6.678-5.64 2.054-3.38 3.479-7.034 4.19-10.936.538-2.954.942-5.935 1.36-8.911.1-.713.015-1.453.015-2.344-.643.068-1.133.019-1.544.179-3.376 1.313-6.97-2.88-5.94-6.518.58-2.049 1.978-3.344 3.855-4.139 1.807-.766 3.677-1.279 5.663-.85 3.167.684 4.648 2.99 5.28 5.927 1.346 6.247.823 12.454-.542 18.642-1.231 5.581-3.256 10.787-6.616 15.428-4.46 6.158-10.391 9.813-17.848 11.068-2.543.428-4.974.259-7.373-.529-2.236-.734-3.84-2.282-4.93-4.38-.193-.374-.384-.749-.665-1.297-.647.714-1.236 1.302-1.755 1.947-2.931 3.644-6.686 6.17-10.663 8.517-5.984 3.53-12.597 4.956-19.214 6.416a163.264 163.264 0 0 1-10.925 2.015c-2.939.44-5.912.763-8.879.852-2.017.06-3.306.7-4.492 2.437-2.652 3.889-5.5 7.654-8.45 11.32-3.514 4.366-7.893 7.634-13.088 9.746-18.348 7.734-38.964 1.676-35.946-17.235 2.595-10.92 9.422-17.943 19.73-21.613 6.466-2.303 13.182-2.732 19.98-2.09.485.046.972.065 1.458.081 2.122.073 2.245-.018 2.393-2.196.066-.98.042-1.97.01-2.954-.087-2.58-.2-5.159-.302-7.739-.256-6.513-.482-13.028-.783-19.538-.107-2.329-.361-4.654-.612-6.974-.167-1.536-.217-1.542-1.82-1.554-2.495-.018-5.005.143-7.485-.058-5.674-.458-10.407-2.672-12.874-8.225-1.698-3.821-1.266-7.677.526-11.399.132-.274.325-.521.511-.763 1.314-1.711 2.865-2.062 4.587-.817 1.578 1.14 3.001 2.498 4.518 3.729 2.137 1.736 4.458 2.967 7.332 2.751 2.186-.163 2.8-.611 3.107-2.773.554-3.89.938-7.807 1.575-11.681 1.257-7.655 3.293-15.027 8.5-21.057 3.747-4.34 8.416-7.142 14.122-7.63 4.819-.413 8.876 1.594 11.695 5.539 5.326 7.455 5.774 15.429 1.864 23.681-1.78 3.753-4.553 6.812-7.041 10.064-2.269 2.965-4.656 5.838-6.877 8.838-1.31 1.769-2.477 3.714-2.645 5.981-.122 1.635.048 3.304.199 4.947.429 4.646.856 9.293 1.395 13.926.434 3.73.839 7.453.636 11.213a542.295 542.295 0 0 1-.62 10.115c-.191 2.632-.467 5.259-.71 7.887-.059.638.114 1.08.82 1.182.36.052.711.237 1.066.239 3.58.017 7.16.01 11.026.01zm-34.256 10.659c-4.024-.852-8.001-1.31-11.993-.787-1.892.248-3.73.987-5.558 1.61-1.146.39-2.219.992-3.336 1.471-2.705 1.163-4.569 3.24-5.869 5.802-1.769 3.483.213 7.246 4.006 7.995 3.892.769 7.532-.036 10.89-1.916 5.386-3.015 9.082-7.657 11.675-13.241.12-.257.117-.571.185-.934zm18.249-82.329c.97-1.291 1.835-2.385 2.638-3.522 2.201-3.115 4.16-6.369 5.179-10.096.597-2.186.59-4.372-.457-6.46-.692-1.38-1.695-1.682-2.973-.788-.534.373-1.045.884-1.363 1.449-.596 1.063-1.232 2.165-1.516 3.333-.678 2.794-1.297 5.618-1.68 8.465-.325 2.411-.762 4.878.172 7.619zm31.641 53.252c.145.066.2.116.246.108.177-.03.363-.05.522-.125 3.537-1.679 6.132-4.356 7.864-7.855 1.145-2.314 1.436-4.807.862-7.343-.293-1.292-.786-1.496-1.971-.981-1.269.552-2.177 1.525-2.934 2.665-2.727 4.108-3.808 8.775-4.589 13.531zM249.634 136.336v2.105c.439-.286.779-.464 1.071-.703 3.297-2.695 7.181-4.07 11.299-4.156 6.082-.126 9.936 2.711 10.576 9.434.398 4.185-.246 8.341-.852 12.482-.347 2.369-.831 4.755-.818 7.131.019 3.435.686 4.367 4.141 3.361 1.239-.361 2.35-1.171 3.5-1.767 1.092 5.182-1.853 10.558-6.825 12.779-2.36 1.055-4.821 1.603-7.441 1.512-5.372-.187-8.461-4.27-8.826-8.65-.296-3.55-.088-7.114.461-10.668.486-3.148.672-6.347.899-9.529.059-.833-.142-1.715-.366-2.534-.527-1.925-1.587-2.391-3.44-1.6-1.667.711-2.659 2.064-3.466 3.634-1.328 2.585-1.5 5.412-1.783 8.221-.594 5.925-1.201 11.849-1.777 17.775-.179 1.834-.255 3.678-.419 5.514-.146 1.631-.394 1.873-1.925 2.196-4.57.966-9.139 1.94-13.712 2.898-.283.059-.588.008-1.112.008l.221-2.743c-.607.404-1.066.657-1.466.984-3.599 2.944-7.736 4.692-12.299 5.123-5.201.49-9.784-1.792-11.064-8.047-.563-2.751-.488-5.479-.054-8.241.591-3.756 1.072-7.53 1.582-11.299.118-.872.406-1.434 1.396-1.63 3.276-.645 6.53-1.4 9.796-2.094 1.77-.377 3.546-.718 5.521-1.116 0 .836.076 1.5-.013 2.141-.553 4.013-1.162 8.017-1.712 12.03-.191 1.394-.365 2.804-.364 4.207.001 1.653.529 2.076 2.155 1.921 2.466-.233 4.298-1.583 5.761-3.512 1.373-1.811 2.033-3.911 2.265-6.144.497-4.762.97-9.528 1.404-14.297.317-3.485.55-6.978.834-10.466.05-.61.218-1.211.252-1.821.052-.938.645-1.226 1.423-1.385 4.463-.916 8.923-1.843 13.386-2.76.525-.107 1.06-.174 1.791-.294z" fill="#fff"/><path d="M202.777 119.718c-.532-.39-1.268-.712-1.242-.95.081-.737.253-1.702.758-2.095.627-.487.838-.928.87-1.643.027-.61.252-1.218.236-1.823-.04-1.406.635-2.064 1.938-2.41 1.746-.463 3.447-1.1 5.437-1.75l-.566 5.709c.819-.116 1.458-.207 2.089-.295.426 1.806.253 2.303-1.215 2.827-.85.303-1.113.899-1.193 1.662-.188 1.771-.342 3.546-.505 5.32-.112 1.222-.257 2.444-.312 3.67-.062 1.388.572 1.776 1.8 1.151 1.097-.56 1.541-1.451 1.465-2.711-.198-3.285.59-6.353 2.278-9.155 2.091-3.472 5.315-5.178 9.204-5.526 1.935-.173 3.557.689 4.455 2.583.259.548.505 1.102.748 1.633 2.224-.342 2.452-.592 2.649-2.546.099-.976.128-2.011.484-2.898.45-1.122 1.732-.593 2.609-.923 1.069-.401 2.235-.578 3.375-.726.345-.045.743.327 1.24.568.85-.435 1.898-1.044 3.001-1.519 1.401-.605 2.641-.142 3.654.9.733.752.832 2.29.324 3.303-.516 1.031-2.448 2.333-3.443 2.034-.795-.239-1.453-.944-2.297-1.53-1.587.475-1.884.857-2.043 2.659-.335 3.793-.7 7.583-1.038 11.376-.057.638-.102 1.302-.837 1.468-2.052.463-4.114.871-6.418 1.351l.927-10.825c-1.932.233-1.994.307-2.076 2.234-.178 4.162-1.869 7.532-5.441 9.658-3.101 1.844-6.385 2.269-10.021.044-.176.279-.376.739-.7 1.078-1.199 1.252-2.576 2.216-4.259 2.74-3.029.941-4.43.574-6.519-1.944-.511.518-1.008 1.033-1.516 1.535-2.796 2.764-6.121 4.139-10.057 3.932-2.254-.117-4.09-1.588-4.561-3.82-.328-1.557-.68-3.136-.178-4.741.066-.211.01-.462.01-.702-1.415-.134-1.334.798-1.35 1.669-.049 2.595-.796 4.971-2.325 7.053-2.548 3.474-5.998 4.838-10.205 4.265-2.8-.383-3.958-2.301-4.191-4.451-.533-4.927.541-9.455 4.41-12.879 2.293-2.029 5.005-2.991 8.086-2.682 1.758.176 2.867 1.206 3.511 2.816l.536 1.338c1.61-.262 2.682-1.019 3.459-2.462 1.705-3.168 4.482-4.985 7.955-5.573 1.149-.194 2.425-.042 3.565.255 1.195.31 2.015 1.933 1.951 3.246-.067 1.342-.912 2.418-2.232 2.839-1.517.483-2.188-.066-2.173-1.654.005-.482-.293-.967-.452-1.45-.501.276-1.22.428-1.459.855-.593 1.058-1.114 2.206-1.396 3.384-.514 2.143-.962 4.329-.311 6.545.343 1.165.656 1.414 1.819 1.291 3.033-.322 5.101-2.116 6.706-4.582a1.62 1.62 0 0 0 .228-.69c.26-2.504.507-5.009.751-7.514.023-.239.003-.481.003-.522zm16.792 3.938c.053.568.044 1.254.194 1.902.4 1.734 1.635 2.108 2.854.787.596-.647.973-1.537 1.319-2.372.277-.67.319-1.435.536-2.136.257-.827.248-1.5-.464-2.15-.871-.796-.908-1.817-.421-2.869.128-.277.328-.552.347-.838.018-.266-.1-.603-.278-.795-.105-.114-.53-.103-.661.018-.619.567-1.373 1.096-1.736 1.816-1.023 2.033-1.553 4.236-1.69 6.637zm-44.509 9.731c0 .554-.118 1.143.031 1.652.176.598.469 1.428.921 1.603.488.19 1.26-.178 1.83-.461.34-.169.649-.608.769-.989.476-1.515.889-3.05 1.278-4.59.062-.244-.028-.664-.205-.812-1.337-1.119-1.273-2.379-.511-3.783.114-.211.107-.658-.035-.8-.169-.169-.658-.271-.812-.148-.601.479-1.292.965-1.646 1.616-1.127 2.073-1.706 4.323-1.62 6.712z" fill="#fff"/><path d="M148.039 123.9c-3.339 2.702-3.917 5.468-2.243 10.015-1.682.375-3.395.775-4.844-.276-1.399-1.014-1.594-2.69-1.234-4.352.387-1.787 1.266-3.348 2.532-4.621 4.62-4.644 10.168-7.189 16.724-6.684 4.416.34 6.914 2.673 7.977 7.35 1.287 5.659.129 11.025-2.943 15.865-1.803 2.841-4.376 4.797-7.954 4.781-.838-.004-1.675-.234-2.557-.367-2.072 1.858-4.849 1.493-7.527 2.316-.391-2.84.516-5.387.598-7.98.083-2.631.457-5.252.704-7.877l.767-8.17zm6.999-2.573c.114.344.231.519.216.682-.268 3.056-.549 6.113-.834 9.168-.291 3.118-.618 6.232-.872 9.353-.118 1.459.361 1.8 1.731 1.332 1.603-.549 2.586-1.769 3.313-3.246.852-1.731 1.102-3.619 1.496-5.483.63-2.981.238-5.884-.453-8.761-.509-2.127-2.173-3.493-4.218-3.411-2.112.084-4.089.792-5.844 2.104 1.815-.576 3.628-1.154 5.465-1.738zM224.014 148.167c.094 2.326-.875 4.257-2.537 5.692-3.009 2.599-6.391 3.809-10.443 2.572-3.661-1.117-6.466-5.26-4.538-9.647 2.417-5.502 10.419-8.061 15.235-3.802 1.502 1.329 2.298 3.043 2.283 5.185z" fill="#fff"/></g></svg>