<svg width="477" height="477" fill="none" xmlns="http://www.w3.org/2000/svg"><g opacity=".1"><circle cx="238.5" cy="238.5" r="223.5" stroke="#fff" stroke-width="30"/><path d="M182.634 285.825c-1.942-5.092-2.705-9.977-2.44-14.981.514-9.717 2.837-18.938 8.172-27.186 5.913-9.143 14.298-14.892 24.907-17.257 3.005-.67 6.137-1.134 9.2-1.084 4.15.069 7.8 1.619 10.034 5.465 1.663 2.864 2.119 5.999 1.819 9.23-.94 10.137-7.084 16.908-14.826 22.573-3.82 2.794-8.064 4.836-12.564 6.276-1.244.398-1.899.96-1.692 2.222.313 1.911.506 3.887 1.171 5.68.677 1.828 2.134 2.817 4.33 2.883 4.317.129 8.202-1.178 12-2.987 5.958-2.835 10.172-7.599 14.046-12.729 1.369-1.813 1.188-4.048 1.411-6.122.774-7.219 1.414-14.454 2.098-21.683.393-4.145.855-8.285 1.117-12.439.093-1.484.527-2.279 2.019-2.579 6.947-1.397 13.881-2.851 20.823-4.266.414-.085.86-.011 1.624-.011-.142 1.853-.247 3.576-.411 5.294-.312 3.261-.655 6.519-.99 9.778-.887 8.632-1.8 17.261-2.648 25.897a78.832 78.832 0 0 0-.356 6.906c-.025 2.46 1.178 3.226 3.642 2.604 4.566-1.152 7.418-4.357 9.741-8.136 2.997-4.874 5.075-10.145 6.113-15.772.785-4.262 1.375-8.562 1.984-12.855.146-1.028.022-2.095.022-3.379-.938.097-1.653.026-2.253.257-4.925 1.894-10.167-4.154-8.665-9.401.847-2.955 2.886-4.824 5.623-5.971 2.637-1.103 5.365-1.844 8.262-1.225 4.619.986 6.78 4.312 7.702 8.549 1.963 9.011 1.201 17.962-.79 26.889-1.796 8.05-4.75 15.558-9.652 22.253-6.506 8.882-15.157 14.154-26.034 15.964-3.71.616-7.257.374-10.756-.763-3.262-1.06-5.602-3.292-7.191-6.318-.283-.539-.56-1.08-.971-1.871-.944 1.031-1.803 1.878-2.56 2.809-4.275 5.255-9.752 8.9-15.555 12.285-8.727 5.091-18.374 7.148-28.027 9.253a240.435 240.435 0 0 1-15.935 2.907c-4.288.635-8.625 1.1-12.953 1.228-2.942.088-4.822 1.01-6.552 3.516-3.869 5.609-8.024 11.04-12.328 16.328-5.124 6.296-11.512 11.01-19.09 14.057-26.764 11.155-56.838 2.417-52.436-24.86 3.786-15.75 13.745-25.881 28.78-31.174 9.434-3.321 19.23-3.939 29.146-3.014.707.066 1.418.094 2.127.117 3.095.105 3.275-.026 3.49-3.167.097-1.415.062-2.842.015-4.261-.126-3.722-.292-7.442-.44-11.163-.374-9.394-.703-18.791-1.142-28.181-.156-3.36-.527-6.713-.894-10.059-.242-2.215-.316-2.225-2.654-2.242-3.64-.026-7.3.207-10.918-.083-8.277-.661-15.182-3.854-18.78-11.863-2.477-5.512-1.846-11.073.768-16.442.192-.395.473-.751.745-1.101 1.916-2.467 4.178-2.973 6.691-1.178 2.302 1.644 4.378 3.603 6.59 5.379 3.118 2.504 6.503 4.279 10.696 3.968 3.188-.236 4.083-.882 4.532-4 .807-5.611 1.368-11.26 2.297-16.849 1.835-11.041 4.805-21.674 12.399-30.371 5.466-6.26 12.278-10.302 20.6-11.007 7.03-.594 12.948 2.3 17.059 7.99 7.77 10.753 8.423 22.256 2.72 34.157-2.596 5.414-6.641 9.825-10.271 14.516-3.309 4.276-6.791 8.421-10.031 12.748-1.912 2.552-3.613 5.357-3.859 8.627-.177 2.359.071 4.765.291 7.135.625 6.701 1.248 13.404 2.035 20.086.633 5.38 1.224 10.75.928 16.173-.266 4.866-.547 9.731-.904 14.591-.28 3.796-.682 7.585-1.037 11.375-.086.92.167 1.559 1.196 1.706.525.074 1.037.341 1.556.344 5.222.024 10.444.015 16.084.015zm-49.97 15.374c-5.871-1.229-11.673-1.89-17.495-1.136-2.759.357-5.442 1.424-8.108 2.322-1.671.563-3.236 1.431-4.866 2.123-3.946 1.676-6.664 4.673-8.56 8.368-2.581 5.024.31 10.451 5.843 11.532 5.677 1.11 10.987-.052 15.884-2.764 7.857-4.349 13.249-11.044 17.031-19.098.176-.371.171-.823.271-1.347zm26.62-118.749c1.415-1.862 2.676-3.44 3.848-5.08 3.21-4.492 6.068-9.187 7.554-14.562.871-3.153.861-6.306-.666-9.318-1.009-1.991-2.474-2.426-4.338-1.137-.778.539-1.524 1.275-1.987 2.09-.869 1.534-1.798 3.123-2.212 4.808-.989 4.03-1.891 8.103-2.451 12.21-.474 3.477-1.111 7.035.252 10.989zm46.155 76.809c.211.095.292.168.359.156.257-.044.529-.072.762-.181 5.158-2.422 8.944-6.282 11.471-11.33 1.669-3.337 2.095-6.933 1.257-10.591-.428-1.864-1.147-2.157-2.875-1.414-1.852.796-3.176 2.199-4.28 3.844-3.978 5.925-5.555 12.655-6.694 19.516zM364.146 196.361v3.035c.64-.412 1.136-.669 1.562-1.013 4.811-3.888 10.476-5.871 16.483-5.995 8.872-.182 14.493 3.91 15.426 13.607.581 6.037-.358 12.031-1.242 18.003-.506 3.418-1.212 6.86-1.193 10.287.027 4.954 1.001 6.298 6.041 4.847 1.807-.52 3.427-1.689 5.105-2.548 1.593 7.474-2.703 15.227-9.956 18.432-3.443 1.521-7.033 2.311-10.855 2.18-7.836-.27-12.341-6.159-12.874-12.476-.431-5.12-.128-10.261.672-15.387.709-4.541.981-9.154 1.312-13.745.086-1.202-.207-2.473-.534-3.655-.769-2.777-2.315-3.448-5.017-2.307-2.432 1.026-3.88 2.977-5.056 5.241-1.938 3.729-2.189 7.806-2.601 11.858-.867 8.546-1.752 17.09-2.593 25.638-.26 2.645-.372 5.305-.611 7.952-.213 2.353-.575 2.703-2.808 3.169-6.667 1.393-13.332 2.798-20.002 4.179-.413.085-.858.012-1.621.012l.321-3.957c-.884.583-1.554.949-2.138 1.42-5.25 4.246-11.284 6.768-17.941 7.389-7.586.707-14.272-2.585-16.139-11.607-.822-3.968-.711-7.902-.078-11.885.861-5.419 1.563-10.862 2.307-16.298.173-1.259.593-2.069 2.036-2.351 4.778-.931 9.526-2.02 14.291-3.022 2.58-.542 5.171-1.035 8.052-1.609 0 1.206.111 2.164-.018 3.088-.807 5.788-1.696 11.565-2.497 17.353-.279 2.01-.533 4.043-.532 6.067.002 2.385.772 2.994 3.144 2.772 3.597-.337 6.269-2.284 8.403-5.067 2.004-2.612 2.966-5.641 3.305-8.861.725-6.87 1.415-13.744 2.048-20.622.462-5.026.801-10.064 1.216-15.095.073-.88.317-1.748.368-2.627.075-1.353.941-1.768 2.075-1.998 6.511-1.321 13.017-2.659 19.527-3.981.766-.154 1.546-.251 2.612-.423z" fill="#fff"/><path d="M295.795 172.39c-.776-.561-1.849-1.026-1.811-1.369.117-1.064.368-2.456 1.105-3.022.914-.702 1.223-1.339 1.269-2.37.039-.88.368-1.757.344-2.63-.058-2.028.926-2.976 2.827-3.475 2.547-.668 5.029-1.587 7.932-2.525l-.826 8.235 3.047-.426c.622 2.605.37 3.323-1.773 4.078-1.239.437-1.622 1.296-1.74 2.397-.273 2.555-.499 5.114-.736 7.673-.164 1.763-.375 3.525-.455 5.294-.09 2.002.834 2.562 2.626 1.659 1.6-.806 2.247-2.092 2.137-3.909-.289-4.738.86-9.163 3.322-13.206 3.051-5.007 7.753-7.467 13.426-7.969 2.822-.25 5.189.994 6.498 3.725.38.79.738 1.589 1.093 2.356 3.243-.494 3.576-.854 3.864-3.673.143-1.408.187-2.901.705-4.18.657-1.618 2.527-.855 3.807-1.33 1.559-.58 3.26-.834 4.922-1.048.503-.065 1.084.472 1.81.82 1.239-.628 2.767-1.506 4.376-2.192 2.044-.872 3.853-.205 5.331 1.298 1.069 1.085 1.213 3.303.473 4.765-.753 1.487-3.571 3.365-5.024 2.933-1.159-.344-2.118-1.362-3.35-2.207-2.315.685-2.747 1.237-2.979 3.835-.49 5.471-1.021 10.938-1.515 16.408-.083.92-.148 1.878-1.221 2.119-2.993.668-6.002 1.255-9.362 1.948l1.352-15.613c-2.819.335-2.909.442-3.029 3.222-.258 6.002-2.725 10.864-7.936 13.93-4.523 2.659-9.314 3.273-14.617.064-.257.402-.549 1.066-1.022 1.554-1.749 1.807-3.757 3.197-6.212 3.952-4.419 1.358-6.462.828-9.51-2.804-.745.748-1.47 1.49-2.211 2.215-4.079 3.986-8.929 5.969-14.67 5.671-3.289-.17-5.967-2.291-6.654-5.51-.479-2.246-.992-4.524-.259-6.838.097-.305.014-.666.014-1.013-2.064-.193-1.945 1.151-1.97 2.407-.07 3.743-1.16 7.17-3.39 10.174-3.718 5.01-8.75 6.978-14.887 6.15-4.084-.551-5.774-3.318-6.113-6.419-.778-7.107.789-13.637 6.433-18.576 3.345-2.927 7.3-4.314 11.795-3.869 2.564.254 4.183 1.739 5.122 4.063.261.648.525 1.294.782 1.929 2.348-.377 3.911-1.469 5.044-3.551 2.489-4.569 6.538-7.19 11.606-8.038 1.675-.28 3.536-.061 5.2.367 1.742.448 2.939 2.788 2.845 4.682-.097 1.937-1.33 3.488-3.256 4.095-2.212.697-3.191-.095-3.169-2.385.007-.696-.428-1.395-.66-2.092-.73.399-1.779.618-2.128 1.234-.864 1.526-1.625 3.182-2.037 4.88-.749 3.091-1.403 6.244-.452 9.44.5 1.681.956 2.041 2.653 1.862 4.424-.464 7.441-3.052 9.782-6.608.187-.284.296-.654.332-.996.379-3.611.739-7.224 1.095-10.837.035-.345.005-.694.005-.754zm24.495 5.68c.077.82.064 1.809.282 2.745.584 2.5 2.386 3.039 4.165 1.134.869-.933 1.418-2.216 1.923-3.421.404-.966.465-2.07.782-3.08.375-1.193.362-2.165-.676-3.103-1.271-1.147-1.326-2.62-.615-4.138.187-.399.479-.795.506-1.208a1.672 1.672 0 0 0-.405-1.146c-.153-.164-.773-.15-.965.025-.902.818-2.003 1.581-2.531 2.619-1.494 2.934-2.266 6.111-2.466 9.573zm-64.925 14.037c0 .798-.173 1.648.045 2.382.256.862.683 2.06 1.343 2.313.712.274 1.838-.258 2.67-.666.496-.244.946-.876 1.121-1.426.694-2.185 1.296-4.399 1.864-6.62.09-.353-.041-.958-.299-1.171-1.95-1.614-1.857-3.432-.745-5.457.167-.305.156-.95-.051-1.154-.248-.243-.961-.39-1.184-.214-.877.691-1.886 1.392-2.402 2.332-1.644 2.99-2.488 6.234-2.362 9.681z" fill="#fff"/><path d="M215.948 178.422c-4.871 3.898-5.715 7.888-3.272 14.446-2.454.54-4.953 1.118-7.066-.397-2.041-1.463-2.325-3.881-1.8-6.279.564-2.577 1.846-4.829 3.694-6.665 6.738-6.697 14.832-10.369 24.395-9.64 6.441.49 10.085 3.855 11.636 10.601 1.878 8.163.188 15.902-4.292 22.883-2.631 4.098-6.385 6.919-11.604 6.896-1.222-.005-2.443-.338-3.729-.529-3.023 2.679-7.074 2.154-10.981 3.341-.57-4.097.753-7.77.873-11.511.121-3.795.667-7.575 1.027-11.362.357-3.773.716-7.545 1.119-11.784zm10.209-3.71c.166.495.337.747.316.983-.392 4.409-.801 8.817-1.217 13.224-.424 4.497-.902 8.989-1.272 13.49-.172 2.105.527 2.596 2.525 1.921 2.338-.791 3.772-2.551 4.833-4.682 1.242-2.496 1.608-5.219 2.182-7.907.919-4.301.347-8.488-.661-12.638-.743-3.067-3.17-5.038-6.153-4.92-3.081.122-5.965 1.143-8.524 3.035 2.647-.831 5.292-1.664 7.971-2.506zM326.772 213.426c.138 3.354-1.276 6.14-3.7 8.21-4.39 3.748-9.323 5.494-15.233 3.709-5.34-1.612-9.432-7.587-6.621-13.915 3.526-7.936 15.199-11.627 22.225-5.483 2.191 1.917 3.351 4.389 3.329 7.479z" fill="#fff"/></g></svg>