<svg width="204" height="210" fill="none" xmlns="http://www.w3.org/2000/svg"><g opacity=".9" filter="url(#filter0_d)"><path d="M92.693 103.552l21.112-8.146a42.735 42.735 0 0 0 24.292-23.99l1.678-4.191a20.024 20.024 0 0 0-5.074-22.22l-.659-.603a21.777 21.777 0 0 0-7.694-4.551l-4.846-1.646c-10.038-3.409-20.998-3.244-29.977 2.392-6.668 4.186-12.691 8.68-13.651 10.342-.095.165-.206.339-.332.52-6.212 9.023-11.326 18.302-12.599 29.182l-.164 1.652c-1.015 10.198 5.62 19.592 15.572 22.043a20.593 20.593 0 0 0 12.342-.784z" fill="#D4E1CF"/></g><defs><filter id="filter0_d" x=".585" y=".053" width="202.828" height="208.983" filterUnits="userSpaceOnUse" color-interpolation-filters="sRGB"><feFlood flood-opacity="0" result="BackgroundImageFix"/><feColorMatrix in="SourceAlpha" values="0 0 0 0 0 0 0 0 0 0 0 0 0 0 0 0 0 0 127 0"/><feOffset dy="33"/><feGaussianBlur stdDeviation="27"/><feColorMatrix values="0 0 0 0 0 0 0 0 0 0 0 0 0 0 0 0 0 0 0.05 0"/><feBlend in2="BackgroundImageFix" result="effect1_dropShadow"/><feBlend in="SourceGraphic" in2="effect1_dropShadow" result="shape"/></filter></defs></svg>