<svg width="165" height="169" fill="none" xmlns="http://www.w3.org/2000/svg"><g opacity=".9" filter="url(#filter0_d)"><path d="M78.439 29.734L65.997 40.05a26.58 26.58 0 0 0-9.595 21.51l.09 2.298a13.923 13.923 0 0 0 9.612 12.691l2.002.65c2.067.671 4.236.966 6.407.871l3.948-.172c8.537-.373 16.796-3.486 22.045-10.229 3.03-3.893 5.434-7.578 5.582-8.748.007-.058.017-.118.027-.18 1.302-7.48 2.381-14.642-.138-21.805-2.79-7.479-10.46-12.063-18.385-11.117a17.68 17.68 0 0 0-9.153 3.915z" fill="#D0DFCB"/></g><defs><filter id="filter0_d" x=".238" y=".936" width="163.929" height="168.048" filterUnits="userSpaceOnUse" color-interpolation-filters="sRGB"><feFlood flood-opacity="0" result="BackgroundImageFix"/><feColorMatrix in="SourceAlpha" values="0 0 0 0 0 0 0 0 0 0 0 0 0 0 0 0 0 0 127 0"/><feOffset dy="33"/><feGaussianBlur stdDeviation="27"/><feColorMatrix values="0 0 0 0 0 0 0 0 0 0 0 0 0 0 0 0 0 0 0.05 0"/><feBlend in2="BackgroundImageFix" result="effect1_dropShadow"/><feBlend in="SourceGraphic" in2="effect1_dropShadow" result="shape"/></filter></defs></svg>