<svg width="202" height="207" fill="none" xmlns="http://www.w3.org/2000/svg"><path opacity=".9" d="M85.908 166.558l44.347-13.454a76.223 76.223 0 0 0 49.253-46.211l2.312-6.175a39.917 39.917 0 0 0-11.314-44.225l-4.572-3.942a52.125 52.125 0 0 0-15.969-9.417l-10.629-3.928c-22.983-8.494-48.274-9.438-69.638 2.56-12.336 6.927-22.782 14-24.473 16.928-.084.145-.175.294-.272.445-11.75 18.33-22.554 36.065-23.849 57.799-.929 22.869 14.254 43.504 36.257 49.805 9.296 2.662 19.294 2.622 28.547-.185z" fill="#F7F6F4"/></svg>