<svg width="113" height="54" fill="none" xmlns="http://www.w3.org/2000/svg"><path fill-rule="evenodd" clip-rule="evenodd" d="M68.371 11.411a77.155 77.155 0 0 1 3.32-1.04 26.262 26.262 0 0 1 3.112-.79c.982-.18 1.884-.261 2.706-.242.816-.008 1.521.147 2.115.465.227.158.29.346.189.564-.156.229-.341.292-.558.189-.562-.296-1.29-.418-2.182-.367-.871.018-1.833.153-2.887.405a31.29 31.29 0 0 0-3.343.916c-1.174.36-2.32.728-3.434 1.105-.263.106-.463.171-.599.196a72.724 72.724 0 0 0-1.425 7.665c-.334 2.173-.422 4.072-.264 5.697.158 1.626.515 2.8 1.071 3.525.583.72 1.354.92 2.31.6.952-.346 2.086-1.383 3.405-3.11.47-.657.857-1.242 1.158-1.754l.048-.088c.129-.32.284-.636.465-.948a8.386 8.386 0 0 1 1.51-1.905 5.817 5.817 0 0 1 2.099-1.243c.518-.096.885-.092 1.102.01.216.103.33.267.344.493.008.198-.047.437-.165.715l-.369.753a8.569 8.569 0 0 1-.784 1.257 12.64 12.64 0 0 1-1.111 1.318c-.408.389-.824.737-1.247 1.043-.423.306-.836.511-1.24.614l-.041.008c.02.567.242 1.01.667 1.331.453.316 1.184.38 2.193.194.682-.126 1.346-.505 1.99-1.137a13.13 13.13 0 0 0 1.794-2.214c.471-.658.857-1.242 1.158-1.754.295-.54.44-.823.436-.851a.275.275 0 0 1 .203-.165c.159-.26.305-.502.437-.724.338-.461.582-.749.73-.862l.297-.226c.53-.183 1.008-.114 1.434.206.134.118.273.335.415.651.143.316.156.77.04 1.362-.064.268-.229.37-.494.305-.293-.06-.408-.224-.345-.492.15-.57.106-.961-.131-1.174-.14-.146-.34-.166-.603-.06-.126.08-.356.365-.69.854-.332.49-.706 1.144-1.12 1.962-.474.943-.773 1.697-.895 2.262-.127.537-.159.899-.096 1.087a.49.49 0 0 0 .105.11c.032.022.144.015.335-.02.409-.075.79-.231 1.14-.467a5.14 5.14 0 0 0 .976-.908c.304-.341.564-.689.781-1.043.244-.358.464-.699.658-1.02.311-.457.57-.818.774-1.084.205-.266.44-.367.706-.302.343.023.532.287.57.794l-.023 1.031-.042.692.025.595c.018.253.049.419.091.496.043.078.094.126.153.143.07.073.234.043.491-.09.887-.392 1.93-1.47 3.129-3.23.244-.36.453-.683.625-.972.2-.294.375-.569.525-.825l.042-.069.052-.09c.027-.98.024-1.674-.008-2.081-.02-.567-.042-.92-.067-1.058-.115-.007-.187-.093-.217-.26-.05-.275.06-.438.333-.488.19-.036.34.008.447.13.102.096.19.265.263.509.067.215.105.65.113 1.305-.004.286-.017.602-.037.948l.001.131a.42.42 0 0 1 .08.026c.061.05.11.1.146.15.083-.28.161-.539.236-.777.164-.487.311-.913.442-1.28.454-1.054.873-1.616 1.255-1.686a.677.677 0 0 1 .529.116c.263.208.459.657.586 1.346.154.685.31 1.612.468 2.78.04.222.073.472.096.753l.137.745.451-2.608c.102-.674.217-1.352.346-2.032.124-.707.258-1.36.402-1.957.374-1.495.84-2.251 1.401-2.27.164-.03.33.025.496.166.259.18.425.549.5 1.106.074.556.131 1.33.173 2.321.009.512.045 1.09.107 1.735.057.617.128 1.231.212 1.843.106.58.233 1.112.378 1.599.174.481.376.815.607 1 .324.226.68.246 1.069.06.384-.214.752-.51 1.105-.889a8.519 8.519 0 0 0 1.004-1.212c.316-.43.563-.774.741-1.035.471-.658.857-1.243 1.158-1.755.295-.54.441-.823.436-.85a.278.278 0 0 1 .222-.17c.132-.053.246-.045.343.022.248.126.298.316.147.572.005.028-.14.311-.436.85-.3.513-.697 1.114-1.191 1.804a17.059 17.059 0 0 1-1.148 1.581 11.072 11.072 0 0 1-1.349 1.405c-.467.371-.93.614-1.389.727-.459.113-.867-.04-1.226-.458-.302-.259-.555-.64-.761-1.144a8.741 8.741 0 0 1-.483-1.708 24.296 24.296 0 0 1-.275-1.96c-.045-.704-.083-1.368-.113-1.99l-.145-1.941c-.013-.226-.044-.392-.091-.497a.73.73 0 0 0-.094-.282 5.083 5.083 0 0 0-.252.474c-.095.246-.229.67-.4 1.272a22.567 22.567 0 0 0-.343 1.818c-.107.647-.216 1.28-.328 1.9a41.425 41.425 0 0 1-.458 2.567c-.112.62-.248 1.03-.409 1.23-.11.163-.22.255-.33.275a1.279 1.279 0 0 1-.26-.037c-.239-.07-.41-.31-.513-.719-.104-.408-.227-1.156-.37-2.242l-.131-1.174a8.342 8.342 0 0 0-.213-1.159 5.062 5.062 0 0 0-.178-.737c-.03-.165-.08-.285-.15-.357-.09.13-.263.49-.521 1.08-.236.557-.577 1.618-1.022 3.184l-.396 1.528c-.11.477-.214.91-.311 1.298-.098.39-.181.704-.25.945l-.062.354c-.024.175-.131.28-.322.316-.055.01-.098.004-.13-.019-.261-.037-.387-.185-.378-.444l.028-.304c.047-.209.08-.486.101-.832.021-.346.048-.736.081-1.17l.04-.65c-.167.262-.349.538-.547.829a16.731 16.731 0 0 1-1.618 2.01c-.586.65-1.177 1.116-1.774 1.398a.912.912 0 0 1-.279.094l-.204.038c-.355.065-.645.019-.872-.139-.323-.226-.503-.592-.54-1.098a14.015 14.015 0 0 1-.036-1.577l.042-.692-.492.775a13.2 13.2 0 0 1-.684 1.11 9.727 9.727 0 0 1-.93 1.156 8.262 8.262 0 0 1-1.131.98 3.46 3.46 0 0 1-1.338.546c-.513.123-.875.076-1.084-.142-.187-.25-.307-.443-.36-.576-.07-.244-.063-.63.02-1.157-.449.565-.925 1.08-1.429 1.546-.75.68-1.465 1.084-2.147 1.21-1.09.2-1.942.173-2.553-.085-.617-.286-1.044-.692-1.282-1.218a3.189 3.189 0 0 1-.203-.99l-.051.072-.054.076c-1.136 1.493-2.156 2.538-3.062 3.133-.911.567-1.714.801-2.41.701-.667-.105-1.217-.488-1.649-1.15-.437-.69-.763-1.542-.978-2.558-.22-1.043-.321-2.208-.304-3.495.017-1.287.144-2.594.38-3.921.205-1.18.409-2.372.61-3.579.196-1.234.438-2.448.727-3.643-.372.126-.771.257-1.198.393-.426.135-.868.26-1.327.373-.436.08-.88.12-1.332.118a3.075 3.075 0 0 1-1.278-.278c-.27-.092-.333-.28-.188-.564.123-.251.295-.311.517-.181.276.12.544.199.805.236.26.038.568.024.923-.042.35-.093.778-.215 1.286-.366.53-.183 1.194-.405 1.992-.667.27-.991.532-1.938.79-2.841.279-.936.582-1.82.908-2.65.22-.497.45-.696.694-.599.243.098.252.453.026 1.065a90.224 90.224 0 0 0-.839 2.337c-.272.82-.506 1.62-.701 2.398l1.394-.472zm-43.859 39.42c.102.095.221.13.358.105.109-.02.175-.047.197-.08.22-.182.239-.386.057-.609-.917-1-1.71-2.48-2.381-4.438a27.81 27.81 0 0 1-.732-2.633l88.661-14.874-.165-.988L21.8 42.195a48.18 48.18 0 0 1-.428-2.465 76.66 76.66 0 0 1-.67-6.637c-.101-2.235-.172-4.305-.211-6.208a528.126 528.126 0 0 0-.147-3.097c-.043-.848-.099-1.536-.168-2.066-.047-.561-.123-.975-.228-1.241-.083-.299-.192-.507-.326-.624a.551.551 0 0 0-.488-.124c-.328.06-.673.48-1.038 1.261-.268.535-.567 1.36-.898 2.476a60.782 60.782 0 0 0-.892 3.203 671.563 671.563 0 0 0-.977 4.117 251.587 251.587 0 0 0-.713 3.255 117.34 117.34 0 0 1-.595 2.977 673.587 673.587 0 0 1-.73 3.857 1.184 1.184 0 0 1-.283-.161c-.172-.168-.388-.5-.648-.993-.237-.527-.477-1.367-.717-2.52-.349-1.59-.586-3.572-.712-5.945a79.525 79.525 0 0 1-.172-3.006 118.98 118.98 0 0 0-.047-2.559c.004-.742.007-1.342.008-1.799v-.684c.01-.259-.13-.404-.418-.436a1.91 1.91 0 0 0-1.404.644c-.866.816-1.54 2.666-2.026 5.551-.189 1.12-.35 2.39-.483 3.812-.111 1.39-.208 2.934-.29 4.632a154.068 154.068 0 0 0-.081 4.165l-.029 3.268-1.008.169.165.988.854-.143c.011.677.017 1.246.02 1.709l.044.933c-.01.258.141.387.452.387.255.01.385-.128.389-.414l-.045-.933a151.61 151.61 0 0 0-.02-1.823l14.34-2.406c.07.318.144.633.22.945a26.965 26.965 0 0 0 1.273 3.701c.518 1.131 1.131 2.088 1.84 2.87zm-3.538-8.497c-.15-.761-.283-1.537-.398-2.33-.22-1.5-.398-3.006-.535-4.521-.11-1.52-.2-3.002-.267-4.444a2536.44 2536.44 0 0 1-.197-6.596 43.337 43.337 0 0 0-.113-1.99 12.664 12.664 0 0 0-.13-1.174 3.525 3.525 0 0 0-.156-.613l-.2.293c-.061.126-.14.312-.236.558-.14.31-.284.68-.43 1.106-.12.421-.26.89-.42 1.404-.261.875-.55 1.913-.866 3.112-.288 1.194-.589 2.548-.903 4.06-.3 1.283-.578 2.532-.834 3.749-.255 1.217-.48 2.3-.672 3.248a112.8 112.8 0 0 1-.422 2.303l-.175.888c-.025.175-.132.28-.323.316-.436.08-.84-.045-1.211-.376-.662-.533-1.216-1.857-1.661-3.972-.322-1.595-.566-3.618-.735-6.068-.103-1.636-.17-3.15-.2-4.542a348.63 348.63 0 0 1-.009-3.036l-.412.29c-.21.238-.418.562-.625.971a7.73 7.73 0 0 0-.482 1.287c-.142.454-.266.934-.37 1.438-.105.504-.201.978-.289 1.422a55.943 55.943 0 0 0-.491 3.77 93.825 93.825 0 0 0-.265 4.543c-.052 1.407-.081 2.782-.088 4.123l-.028 3.153 14.143-2.372zm9.334-13.796c.73-.477 1.56-.645 2.488-.503.266.066.428-.05.486-.346.064-.268-.051-.433-.344-.493-1.537-.23-2.929.256-4.174 1.456-.96.918-1.824 2.276-2.593 4.073-.113.306-.229.598-.347.877-.118.278-.22.568-.305.869l.391-5.464c.035-.12.003-.214-.094-.282a.373.373 0 0 0-.284-.161c-.119-.035-.225-.001-.32.102a.41.41 0 0 0-.117.278l-.746 9.98c-.004.285.122.433.378.443.032.022.075.029.13.019.19-.036.296-.155.315-.358-.005-.028.05-.338.167-.93.145-.597.336-1.317.576-2.16.262-.875.585-1.805.968-2.789.41-.988.893-1.89 1.448-2.706.583-.82 1.242-1.456 1.977-1.905zm9.438 6.042c-.444.579-.914 1.109-1.412 1.59-.771.713-1.75 1.221-2.934 1.526l-.369.068c-.763.14-1.352.007-1.765-.402-.28-.29-.462-.67-.548-1.14a7.845 7.845 0 0 1-.029-1.535c.04-.549.121-1.106.243-1.67.15-.57.279-1.093.388-1.57l.294-1.166c.008-.259.154-.386.437-.38.26.037.39.198.386.485a55.008 55.008 0 0 1-.278 1.25c-.12.42-.244.9-.37 1.436a12.008 12.008 0 0 0-.266 1.547c-.075.67-.068 1.168.02 1.494.084.298.179.509.286.632.274.263.72.309 1.337.138a7.19 7.19 0 0 0 2.566-1.458 11.801 11.801 0 0 0 2.03-2.3c.472-.658.858-1.243 1.158-1.755.296-.54.441-.823.436-.85a.276.276 0 0 1 .208-.167c.159-.26.304-.5.437-.723.338-.461.581-.749.73-.862l.297-.226c.53-.183 1.008-.114 1.433.206.135.118.273.335.416.651.143.316.156.77.039 1.362-.063.268-.228.37-.494.305-.293-.06-.408-.224-.344-.492.149-.57.105-.961-.131-1.174-.14-.146-.341-.166-.604-.06-.126.08-.355.365-.689.855-.333.489-.706 1.143-1.12 1.96-.475.944-.773 1.698-.895 2.263-.127.537-.159.899-.096 1.087.037.05.072.087.104.11.033.022.144.015.335-.02.41-.075.79-.231 1.141-.467.374-.269.699-.572.976-.908.303-.341.564-.689.78-1.043.245-.358.464-.699.66-1.02.31-.456.568-.818.773-1.084.205-.266.44-.367.706-.302.342.023.532.287.569.794l-.022 1.031-.042.692.024.595c.019.253.05.419.092.496.042.078.093.126.153.143.07.073.233.043.49-.09.888-.392 1.93-1.47 3.13-3.23.244-.36.452-.684.625-.972a14.757 14.757 0 0 0 .968-1.634c.035-.12.106-.19.215-.21a.586.586 0 0 1 .343.022c.232.185.28.376.148.572-.018.06-.185.376-.503.948-.296.54-.688 1.168-1.176 1.886a16.732 16.732 0 0 1-1.619 2.01c-.585.65-1.176 1.116-1.773 1.398a.911.911 0 0 1-.28.094l-.204.038c-.354.065-.645.019-.871-.139-.324-.226-.504-.592-.54-1.098a14.015 14.015 0 0 1-.037-1.577l.042-.692-.492.775c-.19.35-.417.72-.684 1.11a9.715 9.715 0 0 1-.93 1.157 8.262 8.262 0 0 1-1.13.979 3.46 3.46 0 0 1-1.339.546c-.513.123-.874.076-1.083-.142-.187-.25-.307-.443-.36-.576-.068-.238-.064-.61.014-1.117zm-5.037-6.855c-.3.055-.593-.005-.88-.18a1.296 1.296 0 0 1-.486-.809 1.15 1.15 0 0 1 .175-.888c.2-.293.45-.468.75-.523.327-.06.623.013.886.221.286.176.46.429.52.76.062.331-.008.643-.208.937-.177.26-.43.422-.757.482zm-.29-1.573c-.217.04-.304.185-.258.433.046.249.178.353.396.312.245-.045.345-.192.3-.44-.046-.248-.192-.35-.437-.305zm41.736-3.384c.39-.329.783-.573 1.177-.73.081-.016.138-.012.17.01l.083-.015c.01.055-.022.19-.096.403-.046.208-.197.536-.454.982-.239.387-.532.783-.88 1.19a7.582 7.582 0 0 1-.994 1.04c-.265.248-.51.45-.735.605-.23.128-.45.24-.657.336.087-.444.243-.9.467-1.37a8.31 8.31 0 0 1 .81-1.348 6.226 6.226 0 0 1 1.108-1.103z" fill="#BBB5AB"/></svg>