<svg width="27" height="27" fill="none" xmlns="http://www.w3.org/2000/svg"><path d="M20.917 4.172C16.964 2.903 20.982 0 12.159 0 3.335 0 0 6.238 0 12.607c0 6.368 4.937 14.306 8.023 14.306 3.085 0 1.326-2.014 4.937-2.014 3.61 0 7.668-2.942 9.44-4.695 1.76-1.752 3.611-5.845 3.611-10.475 0-4.629-5.094-5.557-5.094-5.557zm1.208 13.521c-2.206 2.197-3.703 1.112-7.708 5.088-3.243 3.23-7.602-6.081-9.152-9.717-.67-1.582-.958-3.308-.761-5.021.17-1.4.67-2.969 1.89-4.185 2.495-2.485 3.966.013 6.592 1.726 3.309 2.158 5.029-2.642 8.47.785 3.452 3.426 2.875 9.128.669 11.325z" fill="#BED2B7"/></svg>