<svg width="22" height="22" fill="none" xmlns="http://www.w3.org/2000/svg"><path d="M11 22c-2.938 0-5.7-1.144-7.778-3.222A10.928 10.928 0 0 1 0 11c0-2.938 1.144-5.7 3.222-7.778A10.928 10.928 0 0 1 11 0c2.938 0 5.7 1.144 7.778 3.222A10.928 10.928 0 0 1 22 11c0 2.938-1.144 5.7-3.222 7.778A10.928 10.928 0 0 1 11 22zm0-20.71a9.647 9.647 0 0 0-6.867 2.843A9.647 9.647 0 0 0 1.29 11a9.647 9.647 0 0 0 2.844 6.867A9.648 9.648 0 0 0 11 20.71a9.648 9.648 0 0 0 6.867-2.844A9.648 9.648 0 0 0 20.71 11a9.648 9.648 0 0 0-2.844-6.867A9.647 9.647 0 0 0 11 1.29z" fill="#FF3D23"/><path d="M10.355 2.58h1.29V4.3h-1.29V2.58zM15.28 5.808l1.216-1.217.911.912-1.216 1.216-.911-.911zM17.7 10.355h1.72v1.29H17.7v-1.29zM15.279 16.194l.911-.912 1.216 1.216-.911.912-1.216-1.216zM10.355 17.7h1.29v1.72h-1.29V17.7zM4.588 16.497l1.216-1.216.911.911L5.5 17.408l-.911-.91zM2.58 10.355H4.3v1.29H2.58v-1.29zM4.59 5.502l.91-.912 1.217 1.216-.912.912L4.59 5.502zM15.55 11.645h-5.195V6.45h1.29v3.905h3.905v1.29z" fill="#FF3D23"/></svg>