<svg width="42" height="42" fill="none" xmlns="http://www.w3.org/2000/svg"><path d="M21 42a20.863 20.863 0 0 1-14.85-6.15A20.863 20.863 0 0 1 0 21c0-5.61 2.184-10.883 6.15-14.85A20.863 20.863 0 0 1 21 0c5.61 0 10.883 2.184 14.85 6.15A20.863 20.863 0 0 1 42 21c0 5.61-2.184 10.883-6.15 14.85A20.863 20.863 0 0 1 21 42zm0-39.54A18.418 18.418 0 0 0 7.89 7.89 18.418 18.418 0 0 0 2.46 21c0 4.952 1.93 9.608 5.43 13.11A18.418 18.418 0 0 0 21 39.54c4.952 0 9.608-1.93 13.11-5.43A18.418 18.418 0 0 0 39.54 21c0-4.952-1.93-9.607-5.43-13.11A18.418 18.418 0 0 0 21 2.46z" fill="#FF3D23"/><path d="M19.77 4.925h2.46v3.284h-2.46V4.925zM29.17 11.087l2.322-2.322 1.74 1.74-2.322 2.322-1.74-1.74zM33.791 19.77h3.284v2.46h-3.284v-2.46zM29.169 30.915l1.74-1.74 2.321 2.322-1.74 1.74-2.321-2.322zM19.77 33.791h2.46v3.284h-2.46V33.79zM8.759 31.494l2.322-2.322 1.74 1.74-2.322 2.322-1.74-1.74zM4.925 19.77h3.284v2.46H4.925v-2.46zM8.761 10.504l1.74-1.74 2.322 2.322-1.74 1.74-2.322-2.322zM29.686 22.23H19.77v-9.917h2.46v7.457h7.456v2.46z" fill="#FF3D23"/></svg>