<svg width="28" height="28" fill="none" xmlns="http://www.w3.org/2000/svg"><path d="M14 2.333c3.17 0 3.566.012 4.81.07 1.242.059 2.088.253 2.832.543.77.296 1.419.697 2.067 1.345a5.727 5.727 0 0 1 1.345 2.067c.289.744.485 1.59.543 2.833.055 1.244.07 1.64.07 4.809 0 3.17-.012 3.565-.07 4.809-.059 1.242-.255 2.088-.543 2.833a5.697 5.697 0 0 1-1.345 2.067 5.736 5.736 0 0 1-2.067 1.345c-.743.288-1.59.484-2.833.543-1.244.054-1.639.07-4.809.07s-3.565-.012-4.809-.07c-1.242-.059-2.088-.255-2.833-.543a5.705 5.705 0 0 1-2.067-1.345 5.721 5.721 0 0 1-1.345-2.067c-.29-.744-.484-1.59-.542-2.833-.055-1.244-.07-1.64-.07-4.809 0-3.17.011-3.565.07-4.809.058-1.244.253-2.088.542-2.833a5.693 5.693 0 0 1 1.345-2.067 5.713 5.713 0 0 1 2.067-1.345c.745-.29 1.59-.484 2.833-.543 1.244-.054 1.64-.07 4.81-.07zm0 5.834a5.833 5.833 0 1 0 0 11.666 5.833 5.833 0 0 0 0-11.666zm7.584-.292a1.458 1.458 0 1 0-2.917 0 1.458 1.458 0 0 0 2.916 0zM14 10.5a3.5 3.5 0 1 1 0 7 3.5 3.5 0 0 1 0-7z" fill="#2E2928"/></svg>