<svg width="42" height="42" fill="none" xmlns="http://www.w3.org/2000/svg"><g clip-path="url(#clip0)" fill="#FF3D23"><path d="M21 42L8.696 29.696c-6.784-6.784-6.784-17.823 0-24.608 6.785-6.784 17.823-6.784 24.608 0 6.784 6.785 6.784 17.824 0 24.608L21 42zm0-39.54A14.892 14.892 0 0 0 10.437 6.83c-5.825 5.824-5.825 15.302 0 21.127L21 38.519l10.564-10.563c5.824-5.825 5.824-15.303 0-21.127A14.892 14.892 0 0 0 21 2.46z"/><path d="M21 27.413c-5.523 0-10.016-4.494-10.016-10.017S15.477 7.38 21 7.38s10.017 4.493 10.017 10.016S26.523 27.413 21 27.413zM21 9.84c-4.166 0-7.555 3.39-7.555 7.555 0 4.166 3.39 7.555 7.555 7.555 4.166 0 7.555-3.389 7.555-7.555S25.166 9.841 21 9.841z"/></g><defs><clipPath id="clip0"><path fill="#fff" d="M0 0h42v42H0z"/></clipPath></defs></svg>