<svg width="22" height="22" fill="none" xmlns="http://www.w3.org/2000/svg"><g clip-path="url(#clip0)" fill="#FF3D23"><path d="M11 22l-6.445-6.445C1 12.001 1 6.22 4.555 2.665c3.554-3.553 9.336-3.553 12.89 0 3.553 3.554 3.553 9.336 0 12.89L11 22zm0-20.711a7.8 7.8 0 0 0-5.533 2.288c-3.052 3.051-3.052 8.015 0 11.066L11 20.177l5.533-5.534c3.051-3.05 3.051-8.015 0-11.066A7.801 7.801 0 0 0 11 1.289z"/><path d="M11 14.359a5.253 5.253 0 0 1-5.247-5.247A5.253 5.253 0 0 1 11 3.866a5.253 5.253 0 0 1 5.246 5.246A5.253 5.253 0 0 1 11 14.36zm0-9.204a3.962 3.962 0 0 0-3.958 3.957A3.962 3.962 0 0 0 11 13.07a3.962 3.962 0 0 0 3.957-3.958A3.962 3.962 0 0 0 11 5.155z"/></g><defs><clipPath id="clip0"><path fill="#fff" d="M0 0h22v22H0z"/></clipPath></defs></svg>