<svg height="512pt" viewBox="0 0 512 512" width="512pt" xmlns="http://www.w3.org/2000/svg"><path d="M96 512V384H32c-17.672 0-32-14.328-32-32V64c0-17.672 14.328-32 32-32h448c17.672 0 32 14.328 32 32v288c0 17.672-14.328 32-32 32H292.656zm0 0" fill="#eacd8b"/><g fill="#fff"><path d="M80 128h128c8.836 0 16 7.164 16 16s-7.164 16-16 16H80c-8.836 0-16-7.164-16-16s7.164-16 16-16zm0 0M80 192h128c8.836 0 16 7.164 16 16s-7.164 16-16 16H80c-8.836 0-16-7.164-16-16s7.164-16 16-16zm0 0M80 256h208c8.836 0 16 7.164 16 16s-7.164 16-16 16H80c-8.836 0-16-7.164-16-16s7.164-16 16-16zm0 0"/></g><path d="M512 128c0 70.691-57.309 128-128 128s-128-57.309-128-128S313.309 0 384 0s128 57.309 128 128zm0 0" fill="#66bb6a"/><path d="M432 112h-32V80c0-8.836-7.164-16-16-16s-16 7.164-16 16v32h-32c-8.836 0-16 7.164-16 16s7.164 16 16 16h32v32c0 8.836 7.164 16 16 16s16-7.164 16-16v-32h32c8.836 0 16-7.164 16-16s-7.164-16-16-16zm0 0" fill="#fff"/></svg>