<svg width="101" height="16" fill="none" xmlns="http://www.w3.org/2000/svg"><path d="M7.142.557L5.189 4.694l-4.37.665C.036 5.478-.278 6.487.29 7.065l3.161 3.218-.747 4.547c-.135.822.693 1.437 1.387 1.053L8 13.736l3.909 2.147c.694.381 1.522-.231 1.387-1.053l-.747-4.546 3.16-3.219c.57-.578.255-1.587-.528-1.706l-4.37-.665L8.858.557a.94.94 0 0 0-1.716 0zM29.142.557l-1.953 4.137-4.37.665c-.783.119-1.097 1.128-.529 1.706l3.161 3.218-.747 4.547c-.135.822.693 1.437 1.387 1.053L30 13.736l3.909 2.147c.694.381 1.522-.231 1.387-1.053l-.747-4.546 3.16-3.219c.57-.578.255-1.587-.529-1.706l-4.369-.665L30.858.557a.94.94 0 0 0-1.716 0z" fill="#FFD770"/><path d="M50.142.557l-1.953 4.137-4.37.665c-.783.119-1.097 1.128-.529 1.706l3.161 3.218-.747 4.547c-.135.822.693 1.437 1.387 1.053L51 13.736l3.909 2.147c.694.381 1.522-.231 1.387-1.053l-.747-4.546 3.16-3.219c.57-.578.255-1.587-.529-1.706l-4.369-.665L51.858.557a.94.94 0 0 0-1.716 0zM71.142.557l-1.953 4.137-4.37.665c-.783.119-1.097 1.128-.529 1.706l3.161 3.218-.747 4.547c-.135.822.693 1.437 1.387 1.053L72 13.736l3.909 2.147c.694.381 1.522-.231 1.387-1.053l-.747-4.546 3.16-3.219c.57-.578.255-1.587-.529-1.706l-4.369-.665L72.858.557a.94.94 0 0 0-1.716 0zM92.142.557l-1.953 4.137-4.37.665c-.783.119-1.097 1.128-.529 1.706l3.161 3.218-.747 4.547c-.135.822.693 1.437 1.387 1.053L93 13.736l3.909 2.147c.694.381 1.522-.231 1.387-1.053l-.747-4.546 3.161-3.219c.568-.578.254-1.587-.529-1.706l-4.37-.665L93.858.557a.94.94 0 0 0-1.716 0z" fill="#B1C5CA"/></svg>