<svg width="478" height="477" viewBox="0 0 478 477" fill="none" xmlns="http://www.w3.org/2000/svg">
<g clip-path="url(#clip0_365_2767)">
<path d="M423.78 410.918C414.174 421.027 405.086 427.546 397.906 432.696C313.5 493.237 213.626 475.59 192.4 471.281C161.055 464.917 100.467 452.615 56.6634 401.12C-9.60802 323.212 0.711662 200.471 52.1164 119.447C61.5191 104.626 111.187 22.3687 212.137 9.17727C273.231 1.19391 344.447 17.2951 396.019 60.4887C504.274 151.154 496.568 334.315 423.78 410.918Z" fill="#F2F2F2"/>
<path d="M30.3131 3.36917C29.5404 0.98436 32.3218 -0.975588 34.3318 0.523769C54.745 15.7428 104.956 62.5567 104.216 154.423C103.286 269.683 131.694 308.474 164.059 330.426C164.059 330.426 122.209 323.129 91.9439 283.931C17.6364 187.691 44.0562 45.7721 30.3131 3.36917Z" fill="#91B3FA"/>
<path d="M48.3866 37.2826C52.133 49.6763 55.6331 62.1376 58.6725 74.7086C61.7775 87.2615 64.4997 99.9028 66.8242 112.611C69.1 125.327 71.1367 138.083 72.6281 150.908C74.1773 163.724 75.1742 176.593 76.1295 189.517C77.1569 202.429 78.118 215.442 80.4153 228.395C82.6956 241.324 86.5564 254.189 92.654 265.967C94.1772 268.902 95.7596 271.821 97.4986 274.617C99.1863 277.447 101 280.202 102.863 282.924C106.615 288.351 110.734 293.539 115.219 298.397C124.217 308.092 134.683 316.41 145.941 323.178C147.126 323.89 148.664 323.507 149.377 322.322C150.077 321.159 149.72 319.655 148.585 318.927L148.577 318.922C145.885 317.198 143.217 315.446 140.635 313.581C139.33 312.669 138.067 311.701 136.787 310.757C135.544 309.766 134.262 308.823 133.051 307.794C128.139 303.763 123.516 299.393 119.239 294.702C110.648 285.372 103.408 274.71 97.563 263.469C94.703 257.813 92.2647 251.958 90.2866 245.934C88.3123 239.909 86.7975 233.722 85.6355 227.444C83.3091 214.882 82.2511 202.01 81.1308 189.107C79.9935 176.202 78.7627 163.242 76.9996 150.353C76.136 143.906 75.156 137.477 74.0617 131.068C73.5327 127.86 72.942 124.664 72.3571 121.466C71.7417 118.274 71.1081 115.087 70.4491 111.905C67.7893 99.181 64.7428 86.5443 61.3011 74.0213C57.7991 61.5152 53.9669 49.1059 49.6622 36.8655C49.5388 36.5153 49.156 36.3315 48.8057 36.4549C48.4659 36.5745 48.2839 36.9408 48.3866 37.2826Z" fill="#BDD0FB"/>
<path d="M126.685 407.359C125.884 411.908 120.696 414.161 116.791 411.692C95.244 398.067 37.8086 354.038 27.4109 266.671C18.6301 192.893 6.85539 153.722 0.277574 136.309C-1.11311 132.627 3.00631 129.31 6.31277 131.447C42.793 155.018 155.727 242.523 126.685 407.359Z" fill="#7D97F4"/>
<path d="M120.529 408.473C120.446 408.551 120.354 408.623 120.254 408.687C119.413 409.221 118.299 408.973 117.764 408.132C117.158 407.179 56.993 311.673 40.1488 209.642C39.987 208.66 40.6518 207.732 41.635 207.569C42.6182 207.407 43.5462 208.072 43.7093 209.054C60.4307 310.343 120.208 405.251 120.809 406.198C121.28 406.938 121.144 407.891 120.53 408.473H120.529Z" fill="#91B3FA"/>
<path d="M115.906 9.53398C104.256 10.5468 95.324 20.2997 95.2909 31.9893C95.0881 103.476 94.7534 350.053 99.4142 437.327C99.9081 446.574 107.491 453.837 116.752 453.937C162.561 454.43 294.328 455.335 369.133 450.552C384.714 449.556 396.838 436.656 396.819 421.049C396.728 346.021 395.529 135.017 385.247 38.5688C384.015 27.0131 374.723 17.9929 363.133 17.0899C313.171 13.1986 180.498 3.91789 115.904 9.53333L115.906 9.53398Z" fill="url(#paint0_linear_365_2767)"/>
<path d="M113.679 50.7236C112.78 111.874 110.218 315.297 114.689 390.377C115.343 401.35 123.87 410.014 134.4 410.381C177.751 411.892 288.919 414.815 352.264 407.847C363.67 406.592 372.388 396.709 372.692 384.741C374.276 322.337 378.556 132.873 374.211 58.6323C373.517 46.7888 364.466 37.3386 353.12 36.5746C306.18 33.4128 185.646 26.1213 131.779 30.6057C121.668 31.4477 113.835 40.1372 113.679 50.7236Z" fill="#91B3FA"/>
<path d="M218.421 20.1658C218.458 21.8555 219.806 23.2198 221.496 23.2711C229.837 23.5244 253.336 24.2436 263.839 24.6217C265.91 24.6964 267.492 22.8021 267.055 20.7771C267.019 20.7135 266.75 18.1169 264.097 17.933C256.992 17.4393 235.558 16.1076 221.393 16.9248C218.485 17.0924 218.327 20.3991 218.421 20.1658Z" fill="url(#paint1_linear_365_2767)"/>
<path opacity="0.8" d="M184.42 187.613C215.821 187.613 241.277 162.166 241.277 130.775C241.277 99.3842 215.821 73.937 184.42 73.937C153.018 73.937 127.562 99.3842 127.562 130.775C127.562 162.166 153.018 187.613 184.42 187.613Z" fill="white"/>
<mask id="mask0_365_2767" style="mask-type:luminance" maskUnits="userSpaceOnUse" x="133" y="80" width="103" height="102">
<path d="M184.42 181.394C212.385 181.394 235.056 158.731 235.056 130.775C235.056 102.819 212.385 80.1558 184.42 80.1558C156.454 80.1558 133.784 102.819 133.784 130.775C133.784 158.731 156.454 181.394 184.42 181.394Z" fill="white"/>
</mask>
<g mask="url(#mask0_365_2767)">
<path d="M206.061 123.634C209.259 111.808 202.261 99.6282 190.43 96.4308C178.599 93.2335 166.416 100.229 163.217 112.056C160.019 123.883 167.017 136.062 178.848 139.259C190.679 142.457 202.862 135.461 206.061 123.634Z" fill="url(#paint2_linear_365_2767)"/>
<path d="M150.934 184.46H221.63C225.964 184.46 228.561 178.861 226.227 174.588C220.222 163.596 207.658 147.447 185.9 148.175C164.928 148.877 152.498 163.464 146.25 173.926C143.597 178.367 146.303 184.459 150.934 184.459L150.934 184.46Z" fill="url(#paint3_linear_365_2767)"/>
</g>
<path d="M270.416 353.899H199.695C197.374 353.899 195.493 355.78 195.493 358.1V378.209C195.493 380.529 197.374 382.409 199.695 382.409H270.416C272.737 382.409 274.618 380.529 274.618 378.209V358.1C274.618 355.78 272.737 353.899 270.416 353.899Z" fill="url(#paint4_linear_365_2767)"/>
<g opacity="0.8">
<g opacity="0.8">
<path d="M323.353 234.969H163.807C162.534 234.969 161.502 236 161.502 237.273V248.362C161.502 249.635 162.534 250.667 163.807 250.667H323.353C324.626 250.667 325.658 249.635 325.658 248.362V237.273C325.658 236 324.626 234.969 323.353 234.969Z" fill="white"/>
<path d="M140.446 252.286C145.704 252.286 149.966 248.025 149.966 242.769C149.966 237.514 145.704 233.253 140.446 233.253C135.188 233.253 130.926 237.514 130.926 242.769C130.926 248.025 135.188 252.286 140.446 252.286Z" fill="white"/>
</g>
<g opacity="0.8">
<path d="M323.353 264.425H163.807C162.534 264.425 161.502 265.456 161.502 266.729V277.818C161.502 279.091 162.534 280.123 163.807 280.123H323.353C324.626 280.123 325.658 279.091 325.658 277.818V266.729C325.658 265.456 324.626 264.425 323.353 264.425Z" fill="white"/>
<path d="M149.842 273.748C150.684 268.56 147.16 263.672 141.97 262.83C136.781 261.988 131.891 265.511 131.049 270.699C130.207 275.887 133.731 280.775 138.921 281.617C144.11 282.459 149 278.936 149.842 273.748Z" fill="white"/>
</g>
<g opacity="0.8">
<path d="M323.353 293.881H163.807C162.534 293.881 161.502 294.913 161.502 296.185V307.274C161.502 308.547 162.534 309.579 163.807 309.579H323.353C324.626 309.579 325.658 308.547 325.658 307.274V296.185C325.658 294.913 324.626 293.881 323.353 293.881Z" fill="white"/>
<path d="M140.446 311.198C145.704 311.198 149.966 306.937 149.966 301.682C149.966 296.426 145.704 292.165 140.446 292.165C135.188 292.165 130.926 296.426 130.926 301.682C130.926 306.937 135.188 311.198 140.446 311.198Z" fill="white"/>
</g>
<path opacity="0.8" d="M323.353 323.336H163.807C162.534 323.336 161.502 324.368 161.502 325.641V336.73C161.502 338.003 162.534 339.034 163.807 339.034H323.353C324.626 339.034 325.658 338.003 325.658 336.73V325.641C325.658 324.368 324.626 323.336 323.353 323.336Z" fill="white"/>
<path opacity="0.8" d="M140.446 340.655C145.704 340.655 149.966 336.394 149.966 331.138C149.966 325.882 145.704 321.622 140.446 321.622C135.188 321.622 130.926 325.882 130.926 331.138C130.926 336.394 135.188 340.655 140.446 340.655Z" fill="white"/>
</g>
<path opacity="0.8" d="M258.489 204.29H133.345C132.215 204.29 131.3 205.205 131.3 206.334V217.943C131.3 219.072 132.215 219.988 133.345 219.988H258.489C259.618 219.988 260.534 219.072 260.534 217.943V206.334C260.534 205.205 259.618 204.29 258.489 204.29Z" fill="white"/>
<path d="M402.976 61.7187C402.64 56.5255 399.503 51.9254 394.8 49.6926L333.876 20.767C329.974 18.9149 325.446 18.9149 321.544 20.767L260.62 49.6926C255.918 51.9254 252.78 56.5255 252.444 61.7187C246.729 150.024 303.369 182.199 321.936 190.327C325.618 191.939 329.802 191.939 333.484 190.327C352.051 182.199 408.691 150.024 402.976 61.7187Z" fill="url(#paint5_linear_365_2767)"/>
<path d="M309.281 32.956C308.956 32.956 308.645 32.7734 308.497 32.461C308.292 32.0283 308.476 31.5106 308.908 31.3059L323.304 24.4711C323.737 24.2652 324.255 24.449 324.459 24.8823C324.665 25.315 324.481 25.8327 324.048 26.0374L309.653 32.8722C309.532 32.9294 309.406 32.956 309.281 32.956Z" fill="#91B3FA"/>
<path d="M257.103 80.6189C256.638 80.6189 256.252 80.2499 256.237 79.7809C256.044 74.0368 256.145 68.0491 256.537 61.9835C256.776 58.2845 259.015 54.9941 262.379 53.3966L303.364 33.9381C303.797 33.7328 304.314 33.916 304.519 34.3493C304.724 34.782 304.54 35.2997 304.108 35.5044L263.123 54.9629C260.327 56.2907 258.467 59.0238 258.268 62.0959C257.88 68.105 257.779 74.0362 257.97 79.7224C257.986 80.2012 257.611 80.6027 257.132 80.6183C257.122 80.6183 257.112 80.6183 257.102 80.6183L257.103 80.6189Z" fill="#91B3FA"/>
<path d="M388.243 65.1657C388.176 63.8489 387.392 62.6737 386.201 62.1085L329.247 35.0681C328.275 34.6062 327.146 34.6062 326.173 35.0681L269.219 62.1085C268.028 62.6743 267.244 63.8489 267.177 65.1657C265.492 98.1067 273.103 125.591 289.815 146.894C302.556 163.134 317.461 171.838 326.194 175.898C327.156 176.346 328.264 176.346 329.226 175.898C337.959 171.838 352.864 163.134 365.604 146.894C382.316 125.591 389.928 98.106 388.243 65.1657Z" fill="white"/>
<path d="M323.208 145.33C319.535 145.513 316.118 144.21 314.217 141.884L282.289 102.81C279.297 99.1484 280.909 94.1326 285.889 91.6081C290.864 89.0856 297.32 90.0068 300.309 93.6668L322.451 120.79L351.667 75.4406C354.29 71.3707 360.589 69.5036 365.734 71.2693C370.878 73.0337 372.925 77.7611 370.307 81.8285L332.551 140.481C330.822 143.166 327.386 145.015 323.577 145.306C323.454 145.315 323.331 145.324 323.208 145.33H323.208Z" fill="#22B573"/>
</g>
<defs>
<linearGradient id="paint0_linear_365_2767" x1="-207.285" y1="595.815" x2="331.554" y2="158.584" gradientUnits="userSpaceOnUse">
<stop stop-color="#09005D"/>
<stop offset="1" stop-color="#1A0F91"/>
</linearGradient>
<linearGradient id="paint1_linear_365_2767" x1="285.789" y1="-172.687" x2="251.113" y2="-16.5914" gradientUnits="userSpaceOnUse">
<stop stop-color="#4042E2"/>
<stop offset="1" stop-color="#4F52FF"/>
</linearGradient>
<linearGradient id="paint2_linear_365_2767" x1="135.233" y1="288.504" x2="251.978" y2="-115.039" gradientUnits="userSpaceOnUse">
<stop stop-color="#4042E2"/>
<stop offset="1" stop-color="#4F52FF"/>
</linearGradient>
<linearGradient id="paint3_linear_365_2767" x1="152.669" y1="293.548" x2="269.416" y2="-109.995" gradientUnits="userSpaceOnUse">
<stop stop-color="#4042E2"/>
<stop offset="1" stop-color="#4F52FF"/>
</linearGradient>
<linearGradient id="paint4_linear_365_2767" x1="279.196" y1="185.712" x2="212.894" y2="459.938" gradientUnits="userSpaceOnUse">
<stop stop-color="#4042E2"/>
<stop offset="1" stop-color="#4F52FF"/>
</linearGradient>
<linearGradient id="paint5_linear_365_2767" x1="555.171" y1="-248.736" x2="454.591" y2="-99.5515" gradientUnits="userSpaceOnUse">
<stop stop-color="#4042E2"/>
<stop offset="1" stop-color="#4F52FF"/>
</linearGradient>
<clipPath id="clip0_365_2767">
<rect width="478" height="477" fill="white"/>
</clipPath>
</defs>
</svg>
