<svg width="58" height="58" viewBox="0 0 58 58" fill="none" xmlns="http://www.w3.org/2000/svg">
<rect width="58" height="58" rx="29" fill="#0070FF"/>
<path d="M29.2241 15.9527C33.82 16.0856 37.4062 19.8856 37.2829 24.4923C37.1629 28.9841 33.1919 32.6856 28.6769 32.515C24.137 32.3434 20.5945 28.4878 20.7177 23.8526C20.8362 19.3988 24.6877 15.8217 29.2241 15.9527ZM29.0066 18.5176C25.8385 18.518 23.3141 21.0674 23.3474 24.2324C23.3804 27.3705 26.0305 30.0263 29.072 29.9697C32.0707 29.914 34.6712 27.256 34.6687 24.2492C34.6661 21.0687 32.1455 18.5173 29.0066 18.5176Z" fill="white"/>
<path d="M14.9699 42.5502L14.9506 42.5329C14.3609 42.0066 14.3474 41.0636 14.9254 40.5236C17.341 38.2683 20.1952 36.9742 23.353 36.3138C30.175 34.8865 36.6778 35.5155 42.5314 39.8024C42.675 39.9077 42.847 40.0521 43.0235 40.2088C43.6215 40.7405 43.663 41.6822 43.112 42.2656C42.646 42.7594 41.9038 42.8361 41.3544 42.4436C39.9893 41.469 37.423 39.7559 35.6383 39.2837C29.549 37.6729 23.65 37.9166 18.1471 41.4199C17.636 41.7453 17.1655 42.1381 16.6377 42.5788C16.1488 42.9872 15.4455 42.9749 14.9699 42.5502Z" fill="white"/>
</svg>
