<svg width="114" height="26" fill="none" xmlns="http://www.w3.org/2000/svg"><path fill-rule="evenodd" clip-rule="evenodd" d="M59.824 19.889h-1.786V8.132L52.222 19.89h-1.917L45.184 8.132V19.89h-.696V6.432H46.3l5.698 12.96 5.607-12.96h2.22V19.89zm16.347-4.747c.656.484.984 1.255.984 2.301v2.433H75.37v-1.897c0-.784-.105-1.399-.329-1.857-.223-.457-.59-.797-1.102-1.007-.513-.209-1.222-.313-2.128-.313H65.89v5.087h-1.785V6.432h7.655c1.877 0 3.27.327 4.188.994.906.654 1.366 1.582 1.366 2.772 0 2.393-1.313 3.806-3.952 4.237 1.208-.013 2.153.236 2.81.707zm-5.082-.942c1.326 0 2.364-.314 3.099-.928.735-.615 1.116-1.517 1.116-2.694s-.368-2.067-1.116-2.668c-.749-.602-1.89-.902-3.453-.902h-4.846v7.179h5.2v.013zm10.084-7.768h1.786V19.89h-1.786V6.432zm12.212 8.265v5.192H91.6v-4.734l-5.856-8.723h2.022L93.15 14.2h.026l5.003-7.768h1.536l-6.329 8.265zm9.139.732h7.419l1.996 4.46H114l-6.197-13.457h-1.891L99.215 19.89h1.405l1.904-4.46zm3.624-8.448l3.519 7.86h-6.88l3.361-7.86z" fill="#232323"/><path d="M20.908 4.03C16.958 2.805 20.973 0 12.153 0S0 6.026 0 12.179C0 18.33 4.935 26 8.02 26c3.084 0 1.325-1.946 4.934-1.946 3.61 0 7.665-2.842 9.437-4.535C24.149 17.826 26 13.872 26 9.399c0-4.472-5.092-5.369-5.092-5.369zm1.207 13.063c-2.205 2.123-3.701 1.074-7.704 4.915-3.242 3.12-7.6-5.875-9.148-9.387-.67-1.529-.958-3.196-.761-4.851.17-1.352.67-2.868 1.89-4.043 2.493-2.4 3.963.013 6.588 1.668 3.308 2.084 5.027-2.552 8.466.758 3.451 3.31 2.874 8.818.67 10.94z" fill="#C6B379"/></svg>