<svg width="888" height="382" viewBox="0 0 888 382" fill="none" xmlns="http://www.w3.org/2000/svg">
<path d="M4.25096 324.032C3.71635 323.893 3.17061 324.214 3.032 324.749L0.773344 333.461C0.634741 333.996 0.955769 334.541 1.49038 334.68C2.02499 334.819 2.57073 334.498 2.70934 333.963L4.71703 326.219L12.461 328.227C12.9956 328.365 13.5414 328.044 13.68 327.51C13.8186 326.975 13.4975 326.429 12.9629 326.291L4.25096 324.032ZM4.1923 327.275C4.47802 327.747 5.09278 327.899 5.56542 327.613C6.03806 327.328 6.18959 326.713 5.90388 326.24L4.1923 327.275ZM12.6542 336.552C12.3353 336.101 11.7112 335.994 11.2603 336.313C10.8094 336.632 10.7025 337.256 11.0215 337.707L12.6542 336.552ZM13.4639 341.071C13.794 341.514 14.4205 341.605 14.8633 341.275C15.3061 340.945 15.3976 340.319 15.0675 339.876L13.4639 341.071ZM22.8093 349.45C22.4445 349.036 21.8127 348.995 21.3979 349.36C20.9832 349.725 20.9427 350.356 21.3074 350.771L22.8093 349.45ZM24.1022 353.856C24.4792 354.259 25.112 354.281 25.5156 353.904C25.9192 353.527 25.9408 352.894 25.5638 352.49L24.1022 353.856ZM34.3857 361.044C33.9693 360.681 33.3376 360.725 32.9748 361.141C32.612 361.557 32.6554 362.189 33.0718 362.552L34.3857 361.044ZM36.2688 365.23C36.6992 365.576 37.3287 365.507 37.6748 365.077C38.0208 364.646 37.9524 364.017 37.522 363.671L36.2688 365.23ZM47.5561 370.686C47.0817 370.404 46.4679 370.559 46.1852 371.034C45.9025 371.508 46.0579 372.122 46.5323 372.405L47.5561 370.686ZM50.1848 374.449C50.674 374.706 51.2783 374.517 51.5347 374.028C51.791 373.539 51.6022 372.934 51.113 372.678L50.1848 374.449ZM62.3791 377.312C61.85 377.154 61.2927 377.454 61.1343 377.984C60.9759 378.513 61.2764 379.07 61.8055 379.228L62.3791 377.312ZM65.8714 380.287C66.4106 380.407 66.9446 380.067 67.0641 379.528C67.1837 378.988 66.8434 378.454 66.3042 378.335L65.8714 380.287ZM78.3637 379.568C77.8115 379.578 77.3716 380.033 77.3811 380.586C77.3906 381.138 77.846 381.578 78.3982 381.568L78.3637 379.568ZM82.5988 381.327C83.1485 381.273 83.5506 380.784 83.4969 380.234C83.4432 379.685 82.954 379.283 82.4044 379.336L82.5988 381.327ZM94.284 376.761C93.7606 376.937 93.479 377.504 93.6552 378.028C93.8313 378.551 94.3985 378.833 94.9219 378.657L94.284 376.761ZM98.8367 377.189C99.3471 376.978 99.5897 376.393 99.3786 375.882C99.1675 375.372 98.5827 375.129 98.0723 375.34L98.8367 377.189ZM108.884 369.667C108.418 369.963 108.281 370.582 108.577 371.047C108.874 371.513 109.492 371.65 109.958 371.354L108.884 369.667ZM113.411 369.033C113.862 368.714 113.969 368.089 113.65 367.639C113.331 367.188 112.707 367.081 112.256 367.4L113.411 369.033ZM121.779 359.697C121.371 360.069 121.341 360.701 121.713 361.109C122.085 361.518 122.718 361.547 123.126 361.175L121.779 359.697ZM126.11 358.378C126.51 357.997 126.526 357.364 126.145 356.964C125.765 356.564 125.132 356.548 124.731 356.929L126.11 358.378ZM132.866 349.022C132.475 349.411 132.473 350.044 132.862 350.436C133.251 350.828 133.885 350.83 134.276 350.44L132.866 349.022ZM136.986 347.727C137.375 347.335 137.372 346.701 136.979 346.313C136.587 345.924 135.954 345.927 135.565 346.319L136.986 347.727ZM143.46 338.173C143.08 338.573 143.096 339.206 143.497 339.587C143.898 339.967 144.53 339.95 144.911 339.55L143.46 338.173ZM147.53 336.774C147.908 336.372 147.888 335.739 147.486 335.361C147.083 334.983 146.45 335.003 146.072 335.405L147.53 336.774ZM153.873 327.086C153.492 327.486 153.507 328.119 153.907 328.5C154.307 328.881 154.94 328.866 155.321 328.466L153.873 327.086ZM157.967 325.741C158.357 325.35 158.356 324.717 157.964 324.327C157.573 323.938 156.94 323.939 156.55 324.33L157.967 325.741ZM165.473 316.92C164.999 317.204 164.846 317.819 165.131 318.292C165.415 318.766 166.03 318.919 166.503 318.634L165.473 316.92ZM169.756 316.997C170.267 316.787 170.511 316.203 170.301 315.692C170.092 315.181 169.507 314.937 168.996 315.147L169.756 316.997ZM180.409 312.737C179.858 312.781 179.448 313.263 179.492 313.814C179.536 314.364 180.019 314.775 180.569 314.73L180.409 312.737ZM184.303 314.513C184.855 314.491 185.284 314.026 185.263 313.475C185.241 312.923 184.776 312.493 184.224 312.515L184.303 314.513ZM195.661 312.424C195.109 312.417 194.656 312.86 194.65 313.412C194.644 313.964 195.086 314.417 195.639 314.423L195.661 312.424ZM199.45 314.478C200.002 314.487 200.457 314.047 200.467 313.495C200.476 312.942 200.036 312.487 199.483 312.478L199.45 314.478ZM210.858 312.702C210.306 312.691 209.849 313.129 209.838 313.682C209.827 314.234 210.265 314.69 210.817 314.702L210.858 312.702ZM214.675 314.779C215.228 314.79 215.684 314.351 215.695 313.799C215.706 313.247 215.267 312.791 214.715 312.78L214.675 314.779ZM226.054 312.974C225.502 312.966 225.048 313.407 225.04 313.959C225.033 314.512 225.474 314.966 226.026 314.973L226.054 312.974ZM230.126 315.004C230.679 314.999 231.122 314.547 231.117 313.995C231.112 313.443 230.66 312.999 230.108 313.004L230.126 315.004ZM242.303 312.023C241.757 312.11 241.385 312.622 241.471 313.167C241.558 313.713 242.07 314.085 242.615 313.999L242.303 312.023ZM246.742 313.228C247.282 313.111 247.625 312.579 247.508 312.039C247.391 311.499 246.859 311.156 246.319 311.273L246.742 313.228ZM257.958 307.621C257.449 307.835 257.21 308.422 257.424 308.931C257.638 309.44 258.225 309.679 258.734 309.464L257.958 307.621ZM262.564 307.702C263.058 307.455 263.258 306.854 263.011 306.36C262.764 305.866 262.163 305.666 261.669 305.913L262.564 307.702ZM271.994 299.427C271.556 299.764 271.474 300.392 271.811 300.83C272.148 301.267 272.776 301.349 273.213 301.012L271.994 299.427ZM276.465 298.352C276.882 297.99 276.926 297.358 276.564 296.941C276.202 296.524 275.57 296.48 275.153 296.842L276.465 298.352ZM283.72 288.088C283.364 288.51 283.418 289.141 283.84 289.497C284.263 289.852 284.894 289.798 285.249 289.376L283.72 288.088ZM287.872 286.12C288.209 285.683 288.128 285.055 287.691 284.718C287.253 284.381 286.625 284.462 286.288 284.899L287.872 286.12ZM293.27 274.756C292.979 275.225 293.123 275.842 293.592 276.133C294.061 276.424 294.678 276.28 294.969 275.811L293.27 274.756ZM297.121 272.245C297.401 271.769 297.242 271.156 296.765 270.876C296.289 270.597 295.676 270.756 295.397 271.232L297.121 272.245ZM301.374 260.41C301.116 260.898 301.303 261.503 301.792 261.761C302.28 262.018 302.885 261.831 303.143 261.343L301.374 260.41ZM305.067 257.668C305.322 257.178 305.132 256.574 304.642 256.319C304.152 256.064 303.548 256.254 303.293 256.744L305.067 257.668ZM309.114 245.736C308.848 246.22 309.024 246.828 309.507 247.095C309.991 247.362 310.599 247.186 310.866 246.702L309.114 245.736ZM312.896 243.124C313.175 242.647 313.016 242.035 312.539 241.755C312.063 241.476 311.45 241.636 311.171 242.113L312.896 243.124ZM318.31 231.774C317.949 232.192 317.996 232.824 318.414 233.185C318.833 233.545 319.464 233.499 319.825 233.08L318.31 231.774ZM322.625 230.183C323.034 229.812 323.064 229.179 322.692 228.771C322.321 228.362 321.688 228.332 321.28 228.704L322.625 230.183ZM332.801 223.124C332.252 223.187 331.858 223.683 331.921 224.232C331.984 224.781 332.48 225.174 333.029 225.111L332.801 223.124ZM3.13807 325.507C3.48188 326.092 3.83333 326.681 4.1923 327.275L5.90388 326.24C5.54906 325.653 5.20172 325.071 4.86193 324.493L3.13807 325.507ZM11.0215 337.707C11.8131 338.826 12.6274 339.949 13.4639 341.071L15.0675 339.876C14.2412 338.767 13.4366 337.658 12.6542 336.552L11.0215 337.707ZM21.3074 350.771C22.2204 351.809 23.1521 352.838 24.1022 353.856L25.5638 352.49C24.6278 351.488 23.7095 350.474 22.8093 349.45L21.3074 350.771ZM33.0718 362.552C34.1206 363.466 35.1864 364.359 36.2688 365.23L37.522 363.671C36.4609 362.818 35.4153 361.941 34.3857 361.044L33.0718 362.552ZM46.5323 372.405C47.7339 373.121 48.9515 373.803 50.1848 374.449L51.113 372.678C49.9133 372.049 48.7275 371.384 47.5561 370.686L46.5323 372.405ZM61.8055 379.228C63.1464 379.63 64.5018 379.984 65.8714 380.287L66.3042 378.335C64.9833 378.042 63.6748 377.7 62.3791 377.312L61.8055 379.228ZM78.3982 381.568C79.7875 381.544 81.1879 381.465 82.5988 381.327L82.4044 379.336C81.0469 379.469 79.6999 379.545 78.3637 379.568L78.3982 381.568ZM94.9219 378.657C96.2202 378.22 97.5253 377.731 98.8367 377.189L98.0723 375.34C96.8018 375.866 95.539 376.339 94.284 376.761L94.9219 378.657ZM109.958 371.354C111.105 370.623 112.256 369.85 113.411 369.033L112.256 367.4C111.127 368.199 110.003 368.954 108.884 369.667L109.958 371.354ZM123.126 361.175C123.645 360.702 124.166 360.219 124.687 359.727L123.313 358.273C122.801 358.757 122.29 359.231 121.779 359.697L123.126 361.175ZM124.687 359.727C125.167 359.273 125.642 358.823 126.11 358.378L124.731 356.929C124.265 357.373 123.792 357.821 123.313 358.273L124.687 359.727ZM134.276 350.44C135.21 349.513 136.112 348.609 136.986 347.727L135.565 346.319C134.695 347.197 133.796 348.098 132.866 349.022L134.276 350.44ZM144.911 339.55C145.822 338.59 146.694 337.665 147.53 336.774L146.072 335.405C145.238 336.294 144.369 337.216 143.46 338.173L144.911 339.55ZM155.321 328.466C156.247 327.493 157.125 326.587 157.967 325.741L156.55 324.33C155.695 325.189 154.806 326.107 153.873 327.086L155.321 328.466ZM166.503 318.634C167.555 318.002 168.627 317.46 169.756 316.997L168.996 315.147C167.771 315.65 166.608 316.237 165.473 316.92L166.503 318.634ZM180.569 314.73C181.736 314.636 182.976 314.565 184.303 314.513L184.224 312.515C182.876 312.568 181.607 312.64 180.409 312.737L180.569 314.73ZM195.639 314.423C196.857 314.437 198.126 314.456 199.45 314.478L199.483 312.478C198.157 312.456 196.884 312.437 195.661 312.424L195.639 314.423ZM210.817 314.702C212.065 314.727 213.351 314.753 214.675 314.779L214.715 312.78C213.391 312.754 212.106 312.728 210.858 312.702L210.817 314.702ZM226.026 314.973C226.672 314.982 227.326 314.991 227.987 315L228.013 313C227.353 312.992 226.7 312.983 226.054 312.974L226.026 314.973ZM227.987 315C228.707 315.009 229.42 315.011 230.126 315.004L230.108 313.004C229.417 313.011 228.718 313.009 228.013 313L227.987 315ZM242.615 313.999C244.022 313.776 245.397 313.519 246.742 313.228L246.319 311.273C245.012 311.556 243.673 311.807 242.303 312.023L242.615 313.999ZM258.734 309.464C260.045 308.912 261.322 308.324 262.564 307.702L261.669 305.913C260.465 306.516 259.229 307.086 257.958 307.621L258.734 309.464ZM273.213 301.012C274.33 300.154 275.413 299.266 276.465 298.352L275.153 296.842C274.13 297.731 273.078 298.594 271.994 299.427L273.213 301.012ZM285.249 289.376C286.149 288.307 287.023 287.221 287.872 286.12L286.288 284.899C285.456 285.978 284.6 287.042 283.72 288.088L285.249 289.376ZM294.969 275.811C295.705 274.626 296.421 273.437 297.121 272.245L295.397 271.232C294.704 272.411 293.996 273.587 293.27 274.756L294.969 275.811ZM303.143 261.343C303.794 260.107 304.435 258.881 305.067 257.668L303.293 256.744C302.662 257.956 302.023 259.179 301.374 260.41L303.143 261.343ZM310.866 246.702C311.543 245.475 312.218 244.281 312.896 243.124L311.171 242.113C310.482 243.287 309.798 244.497 309.114 245.736L310.866 246.702ZM319.825 233.08C320.738 232.021 321.669 231.053 322.625 230.183L321.28 228.704C320.255 229.635 319.268 230.663 318.31 231.774L319.825 233.08ZM333.029 225.111C333.669 225.038 334.326 225 335 225V223C334.251 223 333.518 223.042 332.801 223.124L333.029 225.111Z" fill="#C5C8E0"/>
<path d="M47.3065 36.0481C46.7808 35.8788 46.2174 36.1678 46.0481 36.6935L43.2894 45.2602C43.1201 45.7859 43.409 46.3493 43.9347 46.5186C44.4604 46.6879 45.0238 46.399 45.1931 45.8733L47.6453 38.2584L55.2602 40.7106C55.7859 40.8799 56.3493 40.591 56.5186 40.0653C56.6879 39.5396 56.399 38.9762 55.8733 38.8069L47.3065 36.0481ZM261.5 155L262.305 154.407L261.5 155ZM47.0826 39.3164C47.3422 39.8038 47.9479 39.9884 48.4353 39.7288C48.9227 39.4691 49.1074 38.8635 48.8477 38.376L47.0826 39.3164ZM55.2118 49.1334C54.9102 48.6708 54.2906 48.5402 53.828 48.8417C53.3653 49.1433 53.2347 49.7629 53.5363 50.2255L55.2118 49.1334ZM55.8934 53.7324C56.208 54.1864 56.831 54.2994 57.2849 53.9849C57.7389 53.6703 57.8519 53.0473 57.5374 52.5934L55.8934 53.7324ZM65.0893 62.5572C64.737 62.1319 64.1066 62.0727 63.6813 62.425C63.256 62.7773 63.1968 63.4077 63.5491 63.833L65.0893 62.5572ZM66.2929 67.0475C66.6577 67.4622 67.2895 67.5026 67.7042 67.1378C68.1189 66.773 68.1593 66.1411 67.7945 65.7265L66.2929 67.0475ZM76.4722 74.7039C76.0694 74.326 75.4365 74.3462 75.0587 74.749C74.6808 75.1517 74.7009 75.7846 75.1037 76.1625L76.4722 74.7039ZM78.2388 79.0037C78.6545 79.3673 79.2863 79.3251 79.6499 78.9094C80.0135 78.4937 79.9713 77.8619 79.5556 77.4983L78.2388 79.0037ZM89.3864 85.1605C88.9313 84.8477 88.3087 84.9632 87.9959 85.4183C87.6831 85.8735 87.7986 86.4961 88.2537 86.8089L89.3864 85.1605ZM91.7979 89.1333C92.2663 89.4259 92.8832 89.2834 93.1759 88.815C93.4685 88.3466 93.326 87.7297 92.8576 87.4371L91.7979 89.1333ZM103.842 93.2461C103.336 93.0261 102.747 93.2583 102.527 93.7649C102.307 94.2714 102.539 94.8605 103.045 95.0805L103.842 93.2461ZM106.99 96.6659C107.508 96.8573 108.083 96.5925 108.275 96.0744C108.466 95.5564 108.201 94.9812 107.683 94.7898L106.99 96.6659ZM119.638 98.0091C119.094 97.9169 118.578 98.2836 118.485 98.8281C118.393 99.3727 118.76 99.8889 119.304 99.981L119.638 98.0091ZM123.526 100.551C124.076 100.607 124.566 100.206 124.622 99.6566C124.677 99.1071 124.277 98.6168 123.727 98.5614L123.526 100.551ZM136.079 98.518C135.53 98.5776 135.134 99.0711 135.193 99.6201C135.253 100.169 135.746 100.566 136.295 100.506L136.079 98.518ZM140.519 99.8986C141.063 99.8012 141.424 99.2815 141.327 98.7379C141.229 98.1943 140.71 97.8326 140.166 97.93L140.519 99.8986ZM152.055 94.5548C151.541 94.7555 151.286 95.3353 151.487 95.8499C151.687 96.3644 152.267 96.6188 152.782 96.4181L152.055 94.5548ZM156.693 94.757C157.195 94.5264 157.415 93.9327 157.185 93.4308C156.954 92.929 156.36 92.7091 155.858 92.9397L156.693 94.757ZM166.686 86.8665C166.225 87.1721 166.1 87.7927 166.406 88.2528C166.711 88.7129 167.332 88.8381 167.792 88.5326L166.686 86.8665ZM171.186 86.2125C171.644 85.9037 171.765 85.2822 171.456 84.8243C171.147 84.3664 170.526 84.2455 170.068 84.5543L171.186 86.2125ZM180.052 78.6435C179.559 78.8908 179.359 79.4916 179.606 79.9854C179.853 80.4792 180.454 80.6791 180.948 80.4318L180.052 78.6435ZM184.352 78.853C184.861 78.6369 185.097 78.0496 184.881 77.5414C184.665 77.0332 184.078 76.7963 183.57 77.0125L184.352 78.853ZM194.851 73.8611C194.302 73.9235 193.908 74.419 193.97 74.9678C194.033 75.5165 194.528 75.9107 195.077 75.8483L194.851 73.8611ZM198.758 75.6822C199.31 75.697 199.77 75.2616 199.785 74.7095C199.8 74.1574 199.364 73.6978 198.812 73.6829L198.758 75.6822ZM210.224 76.8072C209.74 76.5401 209.132 76.7154 208.865 77.1988C208.598 77.6822 208.773 78.2906 209.257 78.5577L210.224 76.8072ZM212.351 80.5571C212.795 80.8861 213.421 80.7932 213.75 80.3496C214.079 79.906 213.986 79.2797 213.543 78.9507L212.351 80.5571ZM221.833 87.2162C221.489 86.784 220.86 86.7125 220.428 87.0564C219.995 87.4003 219.924 88.0295 220.268 88.4616L221.833 87.2162ZM222.54 91.4785C222.861 91.9276 223.486 92.0311 223.935 91.7097C224.384 91.3883 224.488 90.7637 224.166 90.3145L222.54 91.4785ZM230.403 100.059C230.124 99.5825 229.511 99.4226 229.034 99.7017C228.558 99.9809 228.398 100.594 228.677 101.07L230.403 100.059ZM230.576 104.377C230.848 104.858 231.458 105.028 231.939 104.756C232.42 104.485 232.59 103.875 232.318 103.394L230.576 104.377ZM237.837 113.502C237.576 113.015 236.97 112.831 236.483 113.092C235.996 113.353 235.813 113.959 236.073 114.446L237.837 113.502ZM237.875 117.815C238.135 118.302 238.741 118.486 239.228 118.225C239.715 117.965 239.899 117.359 239.639 116.872L237.875 117.815ZM245.103 126.969C244.836 126.485 244.228 126.31 243.745 126.577C243.261 126.844 243.086 127.452 243.353 127.936L245.103 126.969ZM245.218 131.279C245.489 131.76 246.099 131.93 246.58 131.659C247.061 131.388 247.231 130.778 246.96 130.297L245.218 131.279ZM252.759 140.17C252.47 139.7 251.854 139.553 251.383 139.842C250.913 140.131 250.766 140.747 251.055 141.218L252.759 140.17ZM253.092 144.472C253.388 144.938 254.007 145.075 254.472 144.778C254.938 144.482 255.075 143.864 254.778 143.398L253.092 144.472ZM261.18 152.863C260.857 152.414 260.232 152.313 259.784 152.636C259.336 152.959 259.234 153.584 259.557 154.032L261.18 152.863ZM261.881 157.196C262.21 157.64 262.837 157.732 263.28 157.403C263.723 157.074 263.816 156.447 263.487 156.004L261.881 157.196ZM270.583 165.319C270.242 164.885 269.613 164.809 269.179 165.149C268.744 165.49 268.668 166.119 269.009 166.553L270.583 165.319ZM271.447 169.629C271.793 170.059 272.422 170.128 272.853 169.783C273.284 169.437 273.353 168.808 273.007 168.377L271.447 169.629ZM280.505 177.328C280.14 176.913 279.508 176.873 279.094 177.238C278.679 177.603 278.639 178.235 279.004 178.649L280.505 177.328ZM281.633 181.575C282.007 181.982 282.64 182.009 283.046 181.636C283.453 181.262 283.48 180.629 283.107 180.223L281.633 181.575ZM291.329 188.472C290.921 188.101 290.288 188.131 289.917 188.54C289.545 188.948 289.576 189.581 289.984 189.952L291.329 188.472ZM292.953 192.54C293.378 192.893 294.008 192.836 294.362 192.412C294.715 191.987 294.658 191.357 294.234 191.003L292.953 192.54ZM303.706 197.596C303.222 197.329 302.614 197.504 302.347 197.988C302.08 198.471 302.255 199.08 302.739 199.347L303.706 197.596ZM306.31 201.131C306.814 201.356 307.405 201.13 307.631 200.626C307.856 200.122 307.63 199.531 307.126 199.305L306.31 201.131ZM318.099 202.548C317.554 202.458 317.04 202.828 316.951 203.373C316.862 203.918 317.231 204.432 317.776 204.521L318.099 202.548ZM321.719 205.031C322.269 205.085 322.758 204.683 322.812 204.133C322.866 203.584 322.464 203.094 321.914 203.04L321.719 205.031ZM333.542 203.497C332.989 203.495 332.54 203.94 332.538 204.493C332.536 205.045 332.982 205.494 333.534 205.497L333.542 203.497ZM46.1102 37.4563C46.4271 38.0744 46.7513 38.6945 47.0826 39.3164L48.8477 38.376C48.5213 37.7633 48.202 37.1524 47.8898 36.5437L46.1102 37.4563ZM53.5363 50.2255C54.2995 51.3965 55.0854 52.5663 55.8934 53.7324L57.5374 52.5934C56.7402 51.4428 55.9648 50.2887 55.2118 49.1334L53.5363 50.2255ZM63.5491 63.833C64.4451 64.9148 65.3599 65.987 66.2929 67.0475L67.7945 65.7265C66.8748 64.6811 65.9729 63.624 65.0893 62.5572L63.5491 63.833ZM75.1037 76.1625C76.1325 77.1277 77.1777 78.0755 78.2388 79.0037L79.5556 77.4983C78.5124 76.5858 77.4844 75.6536 76.4722 74.7039L75.1037 76.1625ZM88.2537 86.8089C89.4205 87.6107 90.6021 88.3862 91.7979 89.1333L92.8576 87.4371C91.6872 86.7059 90.5299 85.9464 89.3864 85.1605L88.2537 86.8089ZM103.045 95.0805C104.348 95.6461 105.663 96.1753 106.99 96.6659L107.683 94.7898C106.392 94.3125 105.111 93.7973 103.842 93.2461L103.045 95.0805ZM119.304 99.981C120.701 100.218 122.109 100.408 123.526 100.551L123.727 98.5614C122.355 98.4231 120.992 98.2383 119.638 98.0091L119.304 99.981ZM136.295 100.506C137.696 100.354 139.104 100.152 140.519 99.8986L140.166 97.93C138.797 98.1754 137.435 98.3707 136.079 98.518L136.295 100.506ZM152.782 96.4181C154.082 95.9109 155.386 95.3577 156.693 94.757L155.858 92.9397C154.586 93.5242 153.318 94.0621 152.055 94.5548L152.782 96.4181ZM167.792 88.5326C168.385 88.1387 168.979 87.7345 169.572 87.32L168.428 85.68C167.846 86.0859 167.266 86.4813 166.686 86.8665L167.792 88.5326ZM169.572 87.32C170.116 86.9407 170.653 86.5716 171.186 86.2125L170.068 84.5543C169.526 84.9196 168.979 85.2948 168.428 85.68L169.572 87.32ZM180.948 80.4318C182.112 79.8489 183.246 79.3233 184.352 78.853L183.57 77.0125C182.423 77.5 181.251 78.0432 180.052 78.6435L180.948 80.4318ZM195.077 75.8483C196.347 75.7037 197.573 75.6502 198.758 75.6822L198.812 73.6829C197.529 73.6483 196.21 73.7064 194.851 73.8611L195.077 75.8483ZM209.257 78.5577C210.313 79.1415 211.343 79.8094 212.351 80.5571L213.543 78.9507C212.469 78.1541 211.364 77.4372 210.224 76.8072L209.257 78.5577ZM220.268 88.4616C221.033 89.4227 221.789 90.4293 222.54 91.4785L224.166 90.3145C223.398 89.2407 222.621 88.2067 221.833 87.2162L220.268 88.4616ZM228.677 101.07C229.309 102.149 229.942 103.252 230.576 104.377L232.318 103.394C231.679 102.261 231.041 101.149 230.403 100.059L228.677 101.07ZM236.073 114.446C236.668 115.557 237.268 116.68 237.875 117.815L239.639 116.872C239.032 115.738 238.432 114.613 237.837 113.502L236.073 114.446ZM243.353 127.936C243.965 129.045 244.587 130.16 245.218 131.279L246.96 130.297C246.332 129.183 245.713 128.073 245.103 126.969L243.353 127.936ZM251.055 141.218C251.722 142.302 252.401 143.387 253.092 144.472L254.778 143.398C254.093 142.322 253.421 141.246 252.759 140.17L251.055 141.218ZM259.557 154.032C259.933 154.553 260.312 155.074 260.695 155.593L262.305 154.407C261.926 153.893 261.551 153.378 261.18 152.863L259.557 154.032ZM260.695 155.593C261.093 156.134 261.489 156.668 261.881 157.196L263.487 156.004C263.096 155.477 262.702 154.945 262.305 154.407L260.695 155.593ZM269.009 166.553C269.834 167.607 270.647 168.631 271.447 169.629L273.007 168.377C272.212 167.386 271.404 166.367 270.583 165.319L269.009 166.553ZM279.004 178.649C279.896 179.662 280.772 180.637 281.633 181.575L283.107 180.223C282.255 179.295 281.388 178.331 280.505 177.328L279.004 178.649ZM289.984 189.952C290.991 190.867 291.979 191.728 292.953 192.54L294.234 191.003C293.283 190.211 292.316 189.369 291.329 188.472L289.984 189.952ZM302.739 199.347C303.938 200.009 305.127 200.602 306.31 201.131L307.126 199.305C305.996 198.799 304.857 198.232 303.706 197.596L302.739 199.347ZM317.776 204.521C319.075 204.734 320.387 204.9 321.719 205.031L321.914 203.04C320.62 202.913 319.351 202.752 318.099 202.548L317.776 204.521ZM333.534 205.497C334.181 205.499 334.837 205.5 335.5 205.5V203.5C334.838 203.5 334.186 203.499 333.542 203.497L333.534 205.497Z" fill="#C5C8E0"/>
<path d="M185.953 180.608C185.46 180.358 184.858 180.555 184.608 181.047L180.534 189.072C180.284 189.565 180.481 190.167 180.973 190.417C181.466 190.667 182.067 190.47 182.317 189.978L185.939 182.844L193.072 186.466C193.565 186.716 194.167 186.519 194.417 186.027C194.667 185.534 194.47 184.933 193.978 184.683L185.953 180.608ZM185.138 183.628C185.307 184.154 185.87 184.444 186.396 184.275C186.921 184.106 187.211 183.542 187.042 183.017L185.138 183.628ZM190.608 194.056C190.433 193.532 189.866 193.249 189.343 193.424C188.819 193.599 188.536 194.165 188.71 194.689L190.608 194.056ZM189.961 198.371C190.142 198.892 190.712 199.169 191.234 198.988C191.756 198.807 192.032 198.237 191.851 197.715L189.961 198.371ZM195.896 208.539C195.689 208.027 195.105 207.781 194.594 207.989C194.082 208.197 193.836 208.78 194.044 209.292L195.896 208.539ZM195.549 212.882C195.769 213.388 196.358 213.621 196.865 213.401C197.371 213.182 197.604 212.593 197.384 212.086L195.549 212.882ZM202.415 222.445C202.149 221.961 201.541 221.784 201.057 222.049C200.573 222.315 200.395 222.922 200.661 223.407L202.415 222.445ZM202.609 226.798C202.894 227.271 203.509 227.423 203.982 227.138C204.455 226.853 204.607 226.238 204.322 225.765L202.609 226.798ZM210.96 235.06C210.599 234.642 209.968 234.595 209.549 234.956C209.131 235.317 209.085 235.948 209.446 236.366L210.96 235.06ZM212.136 239.255C212.529 239.643 213.162 239.64 213.551 239.248C213.939 238.855 213.936 238.222 213.544 237.833L212.136 239.255ZM222.623 244.443C222.126 244.202 221.528 244.408 221.286 244.905C221.045 245.402 221.252 246 221.748 246.242L222.623 244.443ZM225.461 247.741C225.987 247.911 226.551 247.623 226.721 247.097C226.891 246.572 226.603 246.008 226.077 245.838L225.461 247.741ZM237.108 246.893C236.559 246.955 236.165 247.451 236.227 248C236.289 248.548 236.785 248.943 237.334 248.88L237.108 246.893ZM241.259 248.188C241.797 248.061 242.129 247.522 242.001 246.984C241.874 246.447 241.335 246.115 240.797 246.242L241.259 248.188ZM251.298 242.094C250.813 242.358 250.633 242.965 250.896 243.45C251.159 243.936 251.766 244.116 252.252 243.852L251.298 242.094ZM255.624 241.912C256.099 241.632 256.258 241.019 255.978 240.543C255.698 240.067 255.085 239.909 254.609 240.189L255.624 241.912ZM264.047 234.566C263.574 234.851 263.421 235.465 263.706 235.938C263.991 236.411 264.605 236.564 265.079 236.279L264.047 234.566ZM268.231 234.377C268.703 234.091 268.855 233.476 268.569 233.004C268.283 232.531 267.669 232.38 267.196 232.666L268.231 234.377ZM276.658 226.95C276.184 227.234 276.03 227.848 276.313 228.321C276.597 228.795 277.211 228.95 277.685 228.666L276.658 226.95ZM280.838 226.796C281.314 226.517 281.474 225.904 281.194 225.427C280.915 224.951 280.302 224.792 279.826 225.071L280.838 226.796ZM289.561 219.747C289.065 219.99 288.859 220.588 289.101 221.085C289.343 221.581 289.942 221.787 290.438 221.545L289.561 219.747ZM293.729 220.037C294.237 219.821 294.473 219.234 294.257 218.725C294.04 218.217 293.453 217.981 292.945 218.197L293.729 220.037ZM303.641 214.854C303.099 214.964 302.75 215.492 302.86 216.033C302.97 216.574 303.498 216.924 304.04 216.814L303.641 214.854ZM307.601 216.198C308.147 216.118 308.526 215.611 308.447 215.065C308.368 214.518 307.861 214.139 307.314 214.218L307.601 216.198ZM318.411 213.264C317.86 213.288 317.432 213.754 317.456 214.306C317.48 214.858 317.946 215.286 318.498 215.262L318.411 213.264ZM322.139 215.136C322.691 215.121 323.126 214.661 323.112 214.109C323.097 213.557 322.637 213.122 322.085 213.136L322.139 215.136ZM333.127 213.002C332.575 213.003 332.128 213.452 332.13 214.004C332.131 214.556 332.579 215.003 333.132 215.002L333.127 213.002ZM184.549 181.81C184.74 182.395 184.936 183.002 185.138 183.628L187.042 183.017C186.84 182.388 186.643 181.778 186.451 181.19L184.549 181.81ZM188.71 194.689C189.112 195.892 189.528 197.122 189.961 198.371L191.851 197.715C191.421 196.475 191.007 195.253 190.608 194.056L188.71 194.689ZM194.044 209.292C194.529 210.488 195.031 211.686 195.549 212.882L197.384 212.086C196.873 210.906 196.377 209.722 195.896 208.539L194.044 209.292ZM200.661 223.407C201.291 224.555 201.94 225.688 202.609 226.798L204.322 225.765C203.668 224.68 203.032 223.572 202.415 222.445L200.661 223.407ZM209.446 236.366C210.315 237.374 211.212 238.339 212.136 239.255L213.544 237.833C212.659 236.957 211.798 236.031 210.96 235.06L209.446 236.366ZM221.748 246.242C222.949 246.826 224.186 247.328 225.461 247.741L226.077 245.838C224.895 245.455 223.743 244.988 222.623 244.443L221.748 246.242ZM237.334 248.88C238.615 248.734 239.924 248.505 241.259 248.188L240.797 246.242C239.537 246.541 238.307 246.757 237.108 246.893L237.334 248.88ZM252.252 243.852C252.832 243.538 253.417 243.208 254.006 242.863L252.994 241.137C252.424 241.472 251.859 241.791 251.298 242.094L252.252 243.852ZM254.006 242.863C254.552 242.542 255.092 242.225 255.624 241.912L254.609 240.189C254.078 240.501 253.54 240.818 252.994 241.137L254.006 242.863ZM265.079 236.279C266.164 235.626 267.214 234.992 268.231 234.377L267.196 232.666C266.18 233.28 265.132 233.913 264.047 234.566L265.079 236.279ZM277.685 228.666C278.778 228.012 279.827 227.389 280.838 226.796L279.826 225.071C278.808 225.668 277.754 226.294 276.658 226.95L277.685 228.666ZM290.438 221.545C291.559 220.998 292.65 220.497 293.729 220.037L292.945 218.197C291.831 218.672 290.709 219.187 289.561 219.747L290.438 221.545ZM304.04 216.814C305.182 216.581 306.364 216.377 307.601 216.198L307.314 214.218C306.043 214.402 304.824 214.613 303.641 214.854L304.04 216.814ZM318.498 215.262C319.661 215.212 320.873 215.17 322.139 215.136L322.085 213.136C320.81 213.171 319.587 213.213 318.411 213.264L318.498 215.262ZM333.132 215.002C333.744 215.001 334.367 215 335 215V213C334.365 213 333.741 213.001 333.127 213.002L333.132 215.002Z" fill="#C5C8E0"/>
<path d="M735.965 275.845C736.431 276.14 737.049 276.002 737.345 275.535L742.163 267.934C742.458 267.467 742.32 266.849 741.853 266.554C741.387 266.258 740.769 266.396 740.473 266.863L736.191 273.62L729.434 269.337C728.967 269.042 728.349 269.18 728.054 269.647C727.758 270.113 727.896 270.731 728.363 271.027L735.965 275.845ZM567 216.5C566.448 216.5 566 216.948 566 217.5C566 218.052 566.448 218.5 567 218.5L567 216.5ZM569.054 218.518C569.606 218.528 570.062 218.089 570.072 217.536C570.082 216.984 569.642 216.529 569.09 216.519L569.054 218.518ZM581.234 217.483C580.688 217.401 580.178 217.778 580.097 218.324C580.015 218.87 580.392 219.379 580.938 219.461L581.234 217.483ZM584.82 220.15C585.361 220.262 585.89 219.914 586.002 219.373C586.114 218.832 585.766 218.303 585.226 218.192L584.82 220.15ZM596.903 221.86C596.398 221.637 595.807 221.865 595.584 222.37C595.36 222.875 595.589 223.466 596.094 223.689L596.903 221.86ZM599.619 225.429C600.103 225.695 600.711 225.517 600.977 225.033C601.242 224.549 601.065 223.941 600.581 223.675L599.619 225.429ZM610.478 230.983C610.081 230.6 609.448 230.611 609.064 231.009C608.681 231.406 608.692 232.039 609.09 232.423L610.478 230.983ZM611.82 235.267C612.188 235.679 612.82 235.715 613.232 235.348C613.644 234.98 613.68 234.348 613.312 233.936L611.82 235.267ZM620.734 243.57C620.412 243.121 619.788 243.017 619.339 243.339C618.889 243.66 618.786 244.285 619.107 244.734L620.734 243.57ZM621.499 248.008C621.832 248.448 622.46 248.535 622.9 248.201C623.34 247.868 623.427 247.241 623.094 246.801L621.499 248.008ZM631.46 254.727C630.972 254.468 630.367 254.654 630.108 255.142C629.849 255.63 630.034 256.235 630.522 256.494L631.46 254.727ZM634.493 258.014C635.029 258.147 635.572 257.82 635.705 257.284C635.838 256.748 635.512 256.206 634.976 256.073L634.493 258.014ZM646.425 255.657C645.888 255.786 645.558 256.326 645.687 256.863C645.816 257.4 646.357 257.73 646.894 257.601L646.425 255.657ZM650.83 256.477C651.355 256.306 651.642 255.741 651.47 255.216C651.299 254.691 650.735 254.404 650.21 254.576L650.83 256.477ZM661.193 250.027C660.696 250.268 660.489 250.866 660.73 251.363C660.971 251.86 661.57 252.067 662.066 251.826L661.193 250.027ZM665.801 249.97C666.296 249.726 666.5 249.127 666.256 248.631C666.012 248.136 665.412 247.932 664.917 248.176L665.801 249.97ZM676.091 243.112C675.58 243.321 675.335 243.905 675.544 244.417C675.754 244.928 676.338 245.172 676.849 244.963L676.091 243.112ZM680.608 243.487C681.125 243.293 681.387 242.717 681.193 242.2C680.999 241.682 680.423 241.42 679.905 241.614L680.608 243.487ZM691.663 237.962C691.126 238.09 690.793 238.629 690.921 239.166C691.048 239.704 691.587 240.036 692.125 239.908L691.663 237.962ZM696.05 239.097C696.594 239.002 696.958 238.484 696.863 237.94C696.768 237.396 696.25 237.032 695.706 237.127L696.05 239.097ZM708.122 236.521C707.573 236.464 707.081 236.863 707.024 237.412C706.966 237.961 707.365 238.453 707.914 238.51L708.122 236.521ZM711.774 239.174C712.31 239.306 712.852 238.978 712.983 238.442C713.115 237.905 712.787 237.364 712.251 237.232L711.774 239.174ZM723.349 243.13C722.942 242.756 722.309 242.783 721.936 243.19C721.562 243.597 721.59 244.23 721.997 244.603L723.349 243.13ZM724.67 247.465C725.017 247.895 725.646 247.962 726.076 247.616C726.506 247.269 726.574 246.639 726.227 246.21L724.67 247.465ZM732.336 257.061C732.13 256.549 731.548 256.3 731.035 256.506C730.523 256.712 730.274 257.295 730.48 257.807L732.336 257.061ZM731.862 261.569C732.039 262.093 732.606 262.374 733.129 262.198C733.653 262.022 733.934 261.455 733.758 260.931L731.862 261.569ZM737.021 272.788C736.896 272.25 736.359 271.916 735.821 272.041C735.283 272.165 734.948 272.703 735.073 273.241L737.021 272.788ZM567 218.5C567.695 218.5 568.379 218.506 569.054 218.518L569.09 216.519C568.403 216.506 567.707 216.5 567 216.5L567 218.5ZM580.938 219.461C582.283 219.662 583.576 219.893 584.82 220.15L585.226 218.192C583.944 217.926 582.614 217.69 581.234 217.483L580.938 219.461ZM596.094 223.689C597.334 224.237 598.507 224.819 599.619 225.429L600.581 223.675C599.418 223.038 598.194 222.431 596.903 221.86L596.094 223.689ZM609.09 232.423C610.055 233.354 610.961 234.305 611.82 235.267L613.312 233.936C612.424 232.94 611.484 231.953 610.478 230.983L609.09 232.423ZM619.107 244.734C619.909 245.855 620.701 246.954 621.499 248.008L623.094 246.801C622.314 245.77 621.535 244.69 620.734 243.57L619.107 244.734ZM630.522 256.494C631.744 257.142 633.058 257.657 634.493 258.014L634.976 256.073C633.703 255.757 632.541 255.301 631.46 254.727L630.522 256.494ZM646.894 257.601C648.143 257.3 649.453 256.927 650.83 256.477L650.21 254.576C648.877 255.011 647.618 255.369 646.425 255.657L646.894 257.601ZM662.066 251.826C662.684 251.526 663.312 251.215 663.95 250.893L663.05 249.107C662.42 249.425 661.801 249.731 661.193 250.027L662.066 251.826ZM663.95 250.893C664.573 250.579 665.19 250.271 665.801 249.97L664.917 248.176C664.3 248.48 663.678 248.79 663.05 249.107L663.95 250.893ZM676.849 244.963C678.132 244.437 679.384 243.946 680.608 243.487L679.905 241.614C678.663 242.08 677.391 242.579 676.091 243.112L676.849 244.963ZM692.125 239.908C693.479 239.587 694.787 239.318 696.05 239.097L695.706 237.127C694.401 237.355 693.054 237.633 691.663 237.962L692.125 239.908ZM707.914 238.51C709.275 238.653 710.559 238.876 711.774 239.174L712.251 237.232C710.943 236.911 709.569 236.672 708.122 236.521L707.914 238.51ZM721.997 244.603C722.951 245.479 723.839 246.435 724.67 247.465L726.227 246.21C725.338 245.108 724.382 244.077 723.349 243.13L721.997 244.603ZM730.48 257.807C730.969 259.024 731.428 260.28 731.862 261.569L733.758 260.931C733.313 259.61 732.841 258.318 732.336 257.061L730.48 257.807ZM735.073 273.241C735.226 273.897 735.376 274.557 735.524 275.219L737.476 274.781C737.326 274.115 737.175 273.45 737.021 272.788L735.073 273.241Z" fill="#C5C8E0"/>
<path d="M771.015 10.3567C771.489 10.072 771.642 9.45757 771.357 8.98431L766.718 1.27208C766.433 0.798824 765.819 0.64595 765.345 0.930631C764.872 1.21531 764.719 1.82974 765.004 2.303L769.128 9.15831L762.272 13.282C761.799 13.5667 761.646 14.1811 761.931 14.6544C762.216 15.1276 762.83 15.2805 763.303 14.9958L771.015 10.3567ZM567 199.5C566.448 199.5 566 199.947 566 200.5C566 201.052 566.448 201.5 567 201.5V199.5ZM569.115 201.482C569.667 201.473 570.108 201.018 570.099 200.466C570.09 199.914 569.635 199.474 569.082 199.483L569.115 201.482ZM581.49 198.665C580.941 198.729 580.548 199.225 580.612 199.774C580.676 200.322 581.172 200.715 581.721 200.651L581.49 198.665ZM585.893 200.095C586.439 200.012 586.815 199.503 586.733 198.957C586.651 198.411 586.141 198.035 585.595 198.117L585.893 200.095ZM597.776 195.631C597.241 195.769 596.92 196.315 597.059 196.85C597.197 197.384 597.743 197.705 598.278 197.566L597.776 195.631ZM602.334 196.437C602.863 196.28 603.165 195.723 603.007 195.194C602.849 194.664 602.293 194.363 601.763 194.52L602.334 196.437ZM613.461 190.329C612.953 190.544 612.715 191.13 612.929 191.639C613.144 192.148 613.731 192.386 614.24 192.171L613.461 190.329ZM618.09 190.458C618.59 190.224 618.806 189.628 618.571 189.128C618.337 188.628 617.742 188.412 617.242 188.646L618.09 190.458ZM628.157 182.729C627.688 183.021 627.545 183.638 627.837 184.107C628.129 184.575 628.745 184.719 629.214 184.427L628.157 182.729ZM632.749 182.122C633.205 181.811 633.323 181.188 633.011 180.732C632.7 180.276 632.078 180.158 631.622 180.47L632.749 182.122ZM641.388 172.833C640.976 173.202 640.941 173.834 641.31 174.245C641.678 174.657 642.311 174.692 642.722 174.323L641.388 172.833ZM645.805 171.431C646.199 171.044 646.204 170.411 645.817 170.017C645.43 169.623 644.797 169.618 644.403 170.005L645.805 171.431ZM652.575 160.71C652.242 161.151 652.33 161.778 652.771 162.111C653.212 162.443 653.839 162.355 654.171 161.914L652.575 160.71ZM656.63 158.472C656.939 158.014 656.819 157.393 656.361 157.084C655.903 156.775 655.282 156.895 654.973 157.353L656.63 158.472ZM661.032 146.579C660.802 147.081 661.023 147.674 661.526 147.904C662.028 148.133 662.621 147.912 662.851 147.41L661.032 146.579ZM664.499 143.508C664.699 142.993 664.444 142.413 663.93 142.213C663.415 142.013 662.835 142.268 662.635 142.783L664.499 143.508ZM666.07 130.926C665.964 131.468 666.318 131.993 666.86 132.099C667.402 132.204 667.927 131.85 668.033 131.308L666.07 130.926ZM668.716 127.125C668.789 126.578 668.404 126.075 667.856 126.002C667.309 125.93 666.806 126.315 666.733 126.862L668.716 127.125ZM667.249 114.537C667.275 115.089 667.743 115.515 668.295 115.489C668.846 115.463 669.273 114.994 669.247 114.443L667.249 114.537ZM668.924 110.216C668.866 109.667 668.374 109.269 667.824 109.327C667.275 109.385 666.877 109.877 666.935 110.426L668.924 110.216ZM664.622 98.2901C664.769 98.8225 665.319 99.1352 665.852 98.9885C666.384 98.8418 666.697 98.2912 666.55 97.7588L664.622 98.2901ZM665.373 93.7381C665.22 93.2075 664.666 92.9015 664.135 93.0547C663.604 93.2079 663.298 93.7622 663.452 94.2928L665.373 93.7381ZM660.518 82.1805C660.623 82.7226 661.148 83.0767 661.69 82.9714C662.233 82.866 662.587 82.3411 662.481 81.799L660.518 82.1805ZM661.766 77.7678C661.679 77.2225 661.166 76.8512 660.621 76.9386C660.075 77.0259 659.704 77.5388 659.791 78.0841L661.766 77.7678ZM658.496 65.6737C658.521 66.2255 658.989 66.6525 659.54 66.6275C660.092 66.6025 660.519 66.135 660.494 65.5833L658.496 65.6737ZM660.398 61.4981C660.397 60.9458 659.948 60.4987 659.396 60.4995C658.844 60.5003 658.397 60.9486 658.398 61.5009L660.398 61.4981ZM659.31 49.0157C659.225 49.5615 659.599 50.0725 660.145 50.157C660.691 50.2416 661.202 49.8676 661.286 49.3219L659.31 49.0157ZM662.028 45.3294C662.146 44.7898 661.804 44.257 661.264 44.1393C660.725 44.0216 660.192 44.3637 660.074 44.9033L662.028 45.3294ZM664.007 32.9694C663.777 33.4714 663.997 34.065 664.499 34.2952C665.001 34.5254 665.595 34.3051 665.825 33.8031L664.007 32.9694ZM667.658 30.1996C667.928 29.7182 667.757 29.1085 667.276 28.8379C666.795 28.5673 666.185 28.7383 665.914 29.2198L667.658 30.1996ZM673.466 19.1364C673.079 19.5305 673.085 20.1636 673.479 20.5506C673.873 20.9376 674.506 20.9318 674.893 20.5377L673.466 19.1364ZM677.843 17.79C678.263 17.4317 678.314 16.8006 677.955 16.3802C677.597 15.9599 676.966 15.9095 676.546 16.2677L677.843 17.79ZM687.079 9.37211C686.584 9.6174 686.382 10.2174 686.627 10.7122C686.873 11.207 687.473 11.4093 687.967 11.164L687.079 9.37211ZM691.678 9.48995C692.189 9.28077 692.434 8.69684 692.225 8.1857C692.015 7.67456 691.431 7.42977 690.92 7.63895L691.678 9.48995ZM702.891 4.00767C702.351 4.12215 702.005 4.65295 702.12 5.19324C702.234 5.73353 702.765 6.07871 703.305 5.96423L702.891 4.00767ZM707.335 5.21647C707.88 5.12901 708.251 4.61605 708.164 4.07073C708.076 3.52542 707.563 3.15425 707.018 3.2417L707.335 5.21647ZM719.437 2.0621C718.885 2.08203 718.454 2.54562 718.474 3.09754C718.494 3.64947 718.958 4.08073 719.51 4.0608L719.437 2.0621ZM723.572 3.98374C724.124 3.98245 724.571 3.53369 724.569 2.98141C724.568 2.42913 724.119 1.98246 723.567 1.98375L723.572 3.98374ZM736.05 2.51564C735.499 2.46936 735.016 2.87799 734.97 3.42833C734.923 3.97868 735.332 4.46233 735.882 4.5086L736.05 2.51564ZM739.923 4.89797C740.472 4.95745 740.966 4.56055 741.025 4.01148C741.085 3.46241 740.688 2.96908 740.139 2.9096L739.923 4.89797ZM752.502 4.65868C751.958 4.56476 751.44 4.92983 751.346 5.47407C751.253 6.01831 751.618 6.53564 752.162 6.62955L752.502 4.65868ZM756.146 7.35407C756.688 7.45769 757.212 7.10192 757.315 6.55944C757.419 6.01696 757.063 5.4932 756.521 5.38959L756.146 7.35407ZM768.683 8.02503C768.146 7.8956 767.606 8.22592 767.476 8.76283C767.347 9.29973 767.677 9.8399 768.214 9.96934L768.683 8.02503ZM567 201.5C567.707 201.5 568.412 201.494 569.115 201.482L569.082 199.483C568.39 199.494 567.696 199.5 567 199.5V201.5ZM581.721 200.651C583.121 200.489 584.512 200.303 585.893 200.095L585.595 198.117C584.236 198.322 582.868 198.505 581.49 198.665L581.721 200.651ZM598.278 197.566C599.642 197.213 600.995 196.836 602.334 196.437L601.763 194.52C600.447 194.912 599.117 195.283 597.776 195.631L598.278 197.566ZM614.24 192.171C615.54 191.622 616.823 191.051 618.09 190.458L617.242 188.646C615.998 189.228 614.738 189.789 613.461 190.329L614.24 192.171ZM629.214 184.427C630.414 183.68 631.592 182.911 632.749 182.122L631.622 180.47C630.488 181.243 629.333 181.997 628.157 182.729L629.214 184.427ZM642.722 174.323C643.776 173.379 644.804 172.415 645.805 171.431L644.403 170.005C643.424 170.967 642.419 171.91 641.388 172.833L642.722 174.323ZM654.171 161.914C655.023 160.785 655.843 159.637 656.63 158.472L654.973 157.353C654.205 158.489 653.406 159.608 652.575 160.71L654.171 161.914ZM662.851 147.41C663.438 146.125 663.988 144.824 664.499 143.508L662.635 142.783C662.138 144.063 661.603 145.328 661.032 146.579L662.851 147.41ZM668.033 131.308C668.302 129.925 668.53 128.531 668.716 127.125L666.733 126.862C666.552 128.228 666.331 129.583 666.07 130.926L668.033 131.308ZM669.247 114.443C669.18 113.042 669.073 111.633 668.924 110.216L666.935 110.426C667.08 111.804 667.184 113.175 667.249 114.537L669.247 114.443ZM666.55 97.7588C666.362 97.0768 666.165 96.3937 665.957 95.7096L664.043 96.2906C664.246 96.9583 664.439 97.6248 664.622 98.2901L666.55 97.7588ZM665.957 95.7096C665.757 95.0525 665.563 94.3952 665.373 93.7381L663.452 94.2928C663.644 94.9588 663.841 95.6248 664.043 96.2906L665.957 95.7096ZM662.481 81.799C662.219 80.4507 661.981 79.1066 661.766 77.7678L659.791 78.0841C660.009 79.4452 660.252 80.8111 660.518 82.1805L662.481 81.799ZM660.494 65.5833C660.432 64.2106 660.399 62.8485 660.398 61.4981L658.398 61.5009C658.399 62.8814 658.433 64.2728 658.496 65.6737L660.494 65.5833ZM661.286 49.3219C661.495 47.9717 661.742 46.6403 662.028 45.3294L660.074 44.9033C659.779 46.2553 659.525 47.6267 659.31 49.0157L661.286 49.3219ZM665.825 33.8031C666.389 32.5728 666.999 31.371 667.658 30.1996L665.914 29.2198C665.229 30.4401 664.593 31.6907 664.007 32.9694L665.825 33.8031ZM674.893 20.5377C675.826 19.5873 676.809 18.6707 677.843 17.79L676.546 16.2677C675.467 17.1868 674.441 18.1438 673.466 19.1364L674.893 20.5377ZM687.967 11.164C689.16 10.5728 690.396 10.0143 691.678 9.48995L690.92 7.63895C689.596 8.18107 688.315 8.75922 687.079 9.37211L687.967 11.164ZM703.305 5.96423C704.614 5.687 705.957 5.43744 707.335 5.21647L707.018 3.2417C705.608 3.46778 704.233 3.72337 702.891 4.00767L703.305 5.96423ZM719.51 4.0608C720.837 4.01283 722.191 3.98697 723.572 3.98374L723.567 1.98375C722.165 1.98702 720.788 2.0133 719.437 2.0621L719.51 4.0608ZM735.882 4.5086C737.209 4.62015 738.556 4.74982 739.923 4.89797L740.139 2.9096C738.756 2.75976 737.393 2.62855 736.05 2.51564L735.882 4.5086ZM752.162 6.62955C753.473 6.85585 754.801 7.09728 756.146 7.35407L756.521 5.38959C755.165 5.1306 753.825 4.88704 752.502 4.65868L752.162 6.62955ZM768.214 9.96934C768.892 10.1327 769.573 10.2997 770.259 10.4702L770.741 8.52935C770.051 8.35768 769.365 8.18958 768.683 8.02503L768.214 9.96934Z" fill="#C5C8E0"/>
<path d="M887.794 178.608C888.13 178.17 888.047 177.542 887.608 177.206L880.464 171.732C880.026 171.396 879.398 171.479 879.062 171.918C878.726 172.356 878.809 172.984 879.248 173.32L885.598 178.186L880.732 184.536C880.396 184.974 880.479 185.602 880.918 185.938C881.356 186.274 881.984 186.191 882.32 185.752L887.794 178.608ZM567 207.5C566.448 207.5 566 207.948 566 208.5C566 209.052 566.448 209.5 567 209.5V207.5ZM569.021 209.503C569.573 209.505 570.022 209.058 570.024 208.506C570.025 207.954 569.579 207.505 569.027 207.503L569.021 209.503ZM580.958 207.639C580.406 207.628 579.949 208.067 579.938 208.619C579.927 209.171 580.366 209.628 580.918 209.639L580.958 207.639ZM584.855 209.728C585.407 209.742 585.866 209.306 585.88 208.754C585.894 208.202 585.458 207.743 584.905 207.729L584.855 209.728ZM596.859 208.123C596.307 208.101 595.842 208.531 595.82 209.083C595.798 209.635 596.227 210.1 596.779 210.122L596.859 208.123ZM600.735 210.287C601.287 210.311 601.753 209.884 601.778 209.332C601.802 208.78 601.374 208.313 600.822 208.289L600.735 210.287ZM612.714 208.836C612.162 208.811 611.694 209.238 611.669 209.789C611.644 210.341 612.07 210.809 612.622 210.834L612.714 208.836ZM616.593 211.01C617.145 211.033 617.611 210.605 617.635 210.053C617.658 209.501 617.229 209.035 616.678 209.012L616.593 211.01ZM628.569 209.345C628.017 209.342 627.566 209.786 627.562 210.338C627.558 210.891 628.003 211.342 628.555 211.345L628.569 209.345ZM632.549 211.329C633.102 211.321 633.542 210.866 633.533 210.314C633.525 209.762 633.07 209.321 632.518 209.33L632.549 211.329ZM644.291 208.57C643.743 208.637 643.353 209.136 643.42 209.685C643.488 210.233 643.987 210.622 644.535 210.555L644.291 208.57ZM648.509 209.975C649.053 209.883 649.42 209.367 649.328 208.822C649.235 208.278 648.719 207.911 648.175 208.004L648.509 209.975ZM659.603 205.23C659.077 205.396 658.785 205.958 658.951 206.485C659.117 207.011 659.679 207.303 660.206 207.137L659.603 205.23ZM664.008 205.85C664.528 205.663 664.797 205.09 664.61 204.57C664.423 204.05 663.85 203.781 663.33 203.969L664.008 205.85ZM674.247 199.403C673.747 199.638 673.533 200.233 673.768 200.733C674.002 201.233 674.598 201.448 675.098 201.213L674.247 199.403ZM678.692 199.472C679.187 199.226 679.388 198.626 679.142 198.131C678.895 197.637 678.295 197.436 677.801 197.682L678.692 199.472ZM688.251 192.124C687.769 192.394 687.598 193.004 687.869 193.485C688.139 193.967 688.749 194.138 689.23 193.867L688.251 192.124ZM692.713 191.906C693.196 191.639 693.372 191.031 693.106 190.547C692.839 190.064 692.231 189.888 691.747 190.154L692.713 191.906ZM702.353 184.934C701.846 185.153 701.612 185.741 701.83 186.248C702.049 186.755 702.637 186.989 703.145 186.771L702.353 184.934ZM706.739 185.302C707.254 185.103 707.51 184.524 707.311 184.009C707.112 183.494 706.533 183.237 706.018 183.436L706.739 185.302ZM717.352 179.894C716.815 180.021 716.482 180.559 716.608 181.097C716.735 181.634 717.274 181.967 717.811 181.841L717.352 179.894ZM721.589 181.055C722.133 180.958 722.494 180.438 722.396 179.894C722.299 179.351 721.779 178.989 721.235 179.087L721.589 181.055ZM733.1 178.048C732.548 178.043 732.096 178.486 732.091 179.039C732.086 179.591 732.53 180.043 733.082 180.048L733.1 178.048ZM736.926 180.216C737.477 180.26 737.958 179.848 738.002 179.298C738.045 178.747 737.634 178.266 737.084 178.222L736.926 180.216ZM748.809 180.457C748.282 180.294 747.722 180.59 747.559 181.118C747.397 181.645 747.693 182.205 748.22 182.368L748.809 180.457ZM751.848 183.634C752.363 183.835 752.942 183.58 753.143 183.066C753.344 182.551 753.09 181.971 752.575 181.771L751.848 183.634ZM763.175 187.237C762.712 186.937 762.092 187.069 761.792 187.532C761.492 187.996 761.624 188.615 762.087 188.915L763.175 187.237ZM765.257 191.108C765.702 191.436 766.328 191.341 766.655 190.896C766.983 190.452 766.888 189.826 766.443 189.498L765.257 191.108ZM775.423 197.286C775.034 196.894 774.401 196.893 774.009 197.283C773.618 197.672 773.617 198.305 774.006 198.697L775.423 197.286ZM776.679 201.499C777.052 201.907 777.685 201.935 778.092 201.562C778.5 201.19 778.528 200.557 778.155 200.15L776.679 201.499ZM785.654 209.32C785.327 208.876 784.701 208.781 784.256 209.109C783.811 209.436 783.717 210.062 784.044 210.507L785.654 209.32ZM786.479 213.794C786.824 214.225 787.453 214.295 787.884 213.949C788.315 213.604 788.385 212.975 788.04 212.544L786.479 213.794ZM797.349 218.613C796.798 218.571 796.318 218.984 796.276 219.534C796.234 220.085 796.647 220.565 797.197 220.607L797.349 218.613ZM801.579 220.146C802.112 220.002 802.428 219.454 802.284 218.92C802.14 218.387 801.591 218.072 801.058 218.216L801.579 220.146ZM811.499 212.559C811.048 212.878 810.942 213.502 811.261 213.953C811.58 214.404 812.204 214.51 812.655 214.191L811.499 212.559ZM815.992 211.759C816.435 211.43 816.526 210.803 816.197 210.36C815.867 209.917 815.24 209.825 814.797 210.155L815.992 211.759ZM824.649 202.796C824.203 203.121 824.104 203.746 824.429 204.193C824.754 204.64 825.379 204.738 825.826 204.413L824.649 202.796ZM829.144 202.044C829.597 201.727 829.707 201.104 829.39 200.651C829.074 200.199 828.45 200.088 827.998 200.405L829.144 202.044ZM838.38 193.688C837.904 193.969 837.747 194.582 838.028 195.057C838.309 195.533 838.922 195.691 839.397 195.41L838.38 193.688ZM842.931 193.392C843.414 193.126 843.591 192.518 843.324 192.034C843.058 191.55 842.45 191.374 841.966 191.641L842.931 193.392ZM853.094 186.193C852.587 186.411 852.352 186.999 852.57 187.506C852.788 188.014 853.376 188.248 853.884 188.03L853.094 186.193ZM857.634 186.493C858.148 186.292 858.402 185.712 858.202 185.197C858.001 184.683 857.421 184.429 856.906 184.63L857.634 186.493ZM868.671 180.706C868.139 180.854 867.828 181.405 867.977 181.937C868.125 182.469 868.677 182.78 869.209 182.632L868.671 180.706ZM873.121 181.609C873.658 181.478 873.986 180.937 873.855 180.4C873.724 179.864 873.183 179.535 872.646 179.666L873.121 181.609ZM884.795 177.299C884.249 177.379 883.871 177.888 883.952 178.434C884.032 178.981 884.541 179.358 885.087 179.277L884.795 177.299ZM567 209.5C567.68 209.5 568.353 209.501 569.021 209.503L569.027 207.503C568.357 207.501 567.681 207.5 567 207.5V209.5ZM580.918 209.639C582.256 209.665 583.568 209.695 584.855 209.728L584.905 207.729C583.615 207.696 582.299 207.666 580.958 207.639L580.918 209.639ZM596.779 210.122C598.127 210.176 599.445 210.231 600.735 210.287L600.822 208.289C599.53 208.233 598.21 208.177 596.859 208.123L596.779 210.122ZM612.622 210.834C613.977 210.896 615.3 210.955 616.593 211.01L616.678 209.012C615.388 208.957 614.067 208.898 612.714 208.836L612.622 210.834ZM628.555 211.345C629.912 211.355 631.241 211.35 632.549 211.329L632.518 209.33C631.226 209.35 629.912 209.355 628.569 209.345L628.555 211.345ZM644.535 210.555C645.863 210.392 647.185 210.2 648.509 209.975L648.175 208.004C646.882 208.223 645.589 208.41 644.291 208.57L644.535 210.555ZM660.206 207.137C661.455 206.742 662.721 206.314 664.008 205.85L663.33 203.969C662.067 204.424 660.827 204.844 659.603 205.23L660.206 207.137ZM675.098 201.213C676.272 200.661 677.469 200.081 678.692 199.472L677.801 197.682C676.59 198.285 675.407 198.858 674.247 199.403L675.098 201.213ZM689.23 193.867C689.813 193.54 690.401 193.208 690.995 192.869L690.005 191.131C689.414 191.468 688.829 191.799 688.251 192.124L689.23 193.867ZM690.995 192.869C691.57 192.541 692.143 192.22 692.713 191.906L691.747 190.154C691.169 190.473 690.588 190.799 690.005 191.131L690.995 192.869ZM703.145 186.771C704.356 186.249 705.554 185.759 706.739 185.302L706.018 183.436C704.809 183.903 703.588 184.402 702.353 184.934L703.145 186.771ZM717.811 181.841C719.088 181.54 720.347 181.278 721.589 181.055L721.235 179.087C719.957 179.316 718.663 179.585 717.352 179.894L717.811 181.841ZM733.082 180.048C734.384 180.06 735.665 180.116 736.926 180.216L737.084 178.222C735.776 178.119 734.448 178.06 733.1 178.048L733.082 180.048ZM748.22 182.368C749.45 182.747 750.659 183.17 751.848 183.634L752.575 181.771C751.342 181.289 750.087 180.85 748.809 180.457L748.22 182.368ZM762.087 188.915C763.162 189.612 764.219 190.344 765.257 191.108L766.443 189.498C765.374 188.71 764.285 187.956 763.175 187.237L762.087 188.915ZM774.006 198.697C774.913 199.607 775.803 200.542 776.679 201.499L778.155 200.15C777.261 199.172 776.351 198.217 775.423 197.286L774.006 198.697ZM784.044 210.507C784.428 211.028 784.809 211.553 785.186 212.081L786.814 210.919C786.431 210.382 786.044 209.849 785.654 209.32L784.044 210.507ZM785.186 212.081C785.619 212.687 786.049 213.257 786.479 213.794L788.04 212.544C787.635 212.038 787.227 211.497 786.814 210.919L785.186 212.081ZM797.197 220.607C798.648 220.717 800.105 220.544 801.579 220.146L801.058 218.216C799.764 218.565 798.537 218.703 797.349 218.613L797.197 220.607ZM812.655 214.191C813.733 213.428 814.844 212.613 815.992 211.759L814.797 210.155C813.657 211.004 812.56 211.808 811.499 212.559L812.655 214.191ZM825.826 204.413C826.9 203.632 828.006 202.84 829.144 202.044L827.998 200.405C826.848 201.21 825.732 202.008 824.649 202.796L825.826 204.413ZM839.397 195.41C840.545 194.731 841.723 194.058 842.931 193.392L841.966 191.641C840.739 192.316 839.545 192.999 838.38 193.688L839.397 195.41ZM853.884 188.03C855.107 187.505 856.356 186.992 857.634 186.493L856.906 184.63C855.608 185.137 854.337 185.659 853.094 186.193L853.884 188.03ZM869.209 182.632C870.488 182.275 871.792 181.934 873.121 181.609L872.646 179.666C871.297 179.996 869.972 180.343 868.671 180.706L869.209 182.632ZM885.087 179.277C885.763 179.178 886.444 179.082 887.131 178.991L886.869 177.009C886.172 177.101 885.481 177.198 884.795 177.299L885.087 179.277Z" fill="#C5C8E0"/>
</svg>
