<svg width="64" height="58" viewBox="0 0 64 58" fill="none" xmlns="http://www.w3.org/2000/svg">
<path fill-rule="evenodd" clip-rule="evenodd" d="M18.3398 52.3018L26.6607 54.5095V51.6226L27.34 50.9434H32.0947V54.3396V56.7169H27.0004L20.7172 54L18.3398 52.3018Z" fill="#CDBDB2"/>
<path fill-rule="evenodd" clip-rule="evenodd" d="M45.5098 52.3018L37.3588 54.5095V51.6226L36.6796 50.9434H31.9249V54.3396V56.7169H37.0192L43.3021 54L45.5098 52.3018Z" fill="#CDBDB2"/>
<path fill-rule="evenodd" clip-rule="evenodd" d="M27.3394 46.019L26.6602 51.6226L27.5091 50.9434H36.3392L37.3581 51.6226L36.6789 46.019L35.3204 45.1698L28.5279 45.3398L27.3394 46.019Z" fill="#393939"/>
<path fill-rule="evenodd" clip-rule="evenodd" d="M22.7549 8.15088L26.8304 17.6603L28.6984 45.3397H35.3209L37.3587 17.6603L41.0945 8.15088H22.7549Z" fill="#F89C35"/>
<path fill-rule="evenodd" clip-rule="evenodd" d="M4.92464 29.0378L0.169922 42.7924L12.0567 42.1131H19.6981V36.1699L19.3584 23.9435L17.6603 25.302L4.92464 29.0378Z" fill="#F89D35"/>
<path fill-rule="evenodd" clip-rule="evenodd" d="M13.9248 30.566L27.8493 30.9057L26.3212 38.0377L19.6984 36.3396L13.9248 30.566Z" fill="#D87C30"/>
<path fill-rule="evenodd" clip-rule="evenodd" d="M13.9248 30.736L19.6984 36.1699V41.6039L13.9248 30.736Z" fill="#EA8D3A"/>
<path fill-rule="evenodd" clip-rule="evenodd" d="M19.6982 36.3396L26.4907 38.0377L28.6984 45.3398L27.1699 46.1887L19.6982 41.7736V36.3396Z" fill="#F89D35"/>
<path fill-rule="evenodd" clip-rule="evenodd" d="M19.6983 41.7736L18.3398 52.3019L27.34 46.019L19.6983 41.7736Z" fill="#EB8F35"/>
<path fill-rule="evenodd" clip-rule="evenodd" d="M27.8495 30.9056L28.6987 45.3398L26.1514 37.9529L27.8495 30.9056Z" fill="#EA8E3A"/>
<path fill-rule="evenodd" clip-rule="evenodd" d="M11.8867 41.9435L19.698 41.7736L18.3395 52.3019L11.8867 41.9435Z" fill="#D87C30"/>
<path fill-rule="evenodd" clip-rule="evenodd" d="M3.90577 56.8869L18.3396 52.3018L11.8868 41.9435L0.169922 42.7924L3.90577 56.8869Z" fill="#EB8F35"/>
<path fill-rule="evenodd" clip-rule="evenodd" d="M26.8305 17.6604L19.5287 23.7736L13.9248 30.5661L27.8493 31.0756L26.8305 17.6604Z" fill="#E8821E"/>
<path fill-rule="evenodd" clip-rule="evenodd" d="M18.3398 52.3019L27.34 46.019L26.6608 51.453V54.5096L20.5475 53.3208L18.3398 52.3019Z" fill="#DFCEC3"/>
<path fill-rule="evenodd" clip-rule="evenodd" d="M45.5098 52.3019L36.6796 46.019L37.3588 51.453V54.5096L43.472 53.3208L45.5098 52.3019Z" fill="#DFCEC3"/>
<path fill-rule="evenodd" clip-rule="evenodd" d="M24.1134 33.9623L25.9814 37.8681L19.3587 36.17L24.1134 33.9623Z" fill="#393939"/>
<path fill-rule="evenodd" clip-rule="evenodd" d="M3.73535 0.169922L26.8297 17.6603L22.9242 8.1509L3.73535 0.169922Z" fill="#E88F35"/>
<path fill-rule="evenodd" clip-rule="evenodd" d="M3.73629 0.1698L0.679688 9.50942L2.3778 19.6981L1.18912 20.3773L2.88723 21.9056L1.52874 23.0943L3.39667 24.7924L2.20799 25.8113L4.92497 29.2075L17.6608 25.3019C23.8872 20.3207 26.9438 17.7736 26.8306 17.6604C26.7174 17.5472 19.0193 11.717 3.73629 0.1698Z" fill="#8E5A30"/>
<path fill-rule="evenodd" clip-rule="evenodd" d="M58.924 29.0378L63.6787 42.7924L51.7919 42.1131H44.1506V36.1699L44.4902 23.9435L46.1883 25.302L58.924 29.0378Z" fill="#F89D35"/>
<path fill-rule="evenodd" clip-rule="evenodd" d="M49.9238 30.566L35.9993 30.9057L37.5274 38.0377L44.1502 36.3396L49.9238 30.566Z" fill="#D87C30"/>
<path fill-rule="evenodd" clip-rule="evenodd" d="M49.9238 30.736L44.1502 36.1699V41.6039L49.9238 30.736Z" fill="#EA8D3A"/>
<path fill-rule="evenodd" clip-rule="evenodd" d="M44.1504 36.3396L37.3579 38.0377L35.1502 45.3398L36.6787 46.1887L44.1504 41.7736V36.3396Z" fill="#F89D35"/>
<path fill-rule="evenodd" clip-rule="evenodd" d="M44.1503 41.7736L45.5088 52.3019L36.6786 46.1887L44.1503 41.7736Z" fill="#EB8F35"/>
<path fill-rule="evenodd" clip-rule="evenodd" d="M35.9992 30.9056L35.1499 45.3398L37.6973 37.9529L35.9992 30.9056Z" fill="#EA8E3A"/>
<path fill-rule="evenodd" clip-rule="evenodd" d="M51.9619 41.9435L44.1506 41.7736L45.5091 52.3019L51.9619 41.9435Z" fill="#D87C30"/>
<path fill-rule="evenodd" clip-rule="evenodd" d="M59.9429 56.8869L45.5091 52.3018L51.9619 41.9435L63.6787 42.7924L59.9429 56.8869Z" fill="#EB8F35"/>
<path fill-rule="evenodd" clip-rule="evenodd" d="M37.0182 17.6604L44.3199 23.7736L49.9238 30.5661L35.9993 31.0756L37.0182 17.6604Z" fill="#E8821E"/>
<path fill-rule="evenodd" clip-rule="evenodd" d="M39.7353 33.9623L37.8672 37.8681L44.49 36.17L39.7353 33.9623Z" fill="#393939"/>
<path fill-rule="evenodd" clip-rule="evenodd" d="M60.1133 0.169922L37.0189 17.6603L40.9244 8.1509L60.1133 0.169922Z" fill="#E88F35"/>
<path fill-rule="evenodd" clip-rule="evenodd" d="M60.1123 0.1698L63.1689 9.50942L61.4708 19.6981L62.6595 20.3773L60.9614 21.9056L62.3199 23.0943L60.452 24.7924L61.6406 25.8113L58.9237 29.2075L46.1878 25.3019C39.9614 20.3207 36.9048 17.7736 37.018 17.6604C37.1312 17.5472 44.8293 11.717 60.1123 0.1698Z" fill="#8E5A30"/>
</svg>
