<svg width="64" height="40" viewBox="0 0 64 40" fill="none" xmlns="http://www.w3.org/2000/svg">
<g clip-path="url(#clip0_349_5683)">
<path d="M13.1104 7.68112C23.5459 -2.56607 40.4706 -2.56607 50.9061 7.68112L52.161 8.90615C52.6894 9.41934 52.6894 10.2471 52.161 10.7602L47.8679 14.9816C47.6037 15.2299 47.1909 15.2299 46.9267 14.9816L45.193 13.2765C37.9113 6.12501 26.1053 6.12501 18.8235 13.2765L16.9742 15.0975C16.71 15.3458 16.2972 15.3458 16.033 15.0975L11.7234 10.8927C11.195 10.3795 11.195 9.55177 11.7234 9.03859L13.1104 7.68112ZM59.7895 16.4053L63.6202 20.1632C64.1486 20.6764 64.1486 21.5041 63.6202 22.0173L46.3653 38.9524C45.8369 39.4656 44.9948 39.4656 44.483 38.9524L32.2477 26.9339C32.1156 26.8015 31.9009 26.8015 31.7688 26.9339L19.5335 38.9524C19.0052 39.4656 18.1631 39.4656 17.6512 38.9524L0.396285 22.0173C-0.132095 21.5041 -0.132095 20.6764 0.396285 20.1632L4.22704 16.4053C4.75542 15.8921 5.59752 15.8921 6.10939 16.4053L18.3447 28.4238C18.4768 28.5563 18.6914 28.5563 18.8235 28.4238L31.0588 16.4053C31.5872 15.8921 32.4293 15.8921 32.9412 16.4053L45.1765 28.4238C45.3086 28.5563 45.5232 28.5563 45.6553 28.4238L57.8906 16.4053C58.419 15.8921 59.2611 15.8921 59.7895 16.4053Z" fill="#3B99FC"/>
</g>
<defs>
<clipPath id="clip0_349_5683">
<rect width="64" height="39.3333" fill="white"/>
</clipPath>
</defs>
</svg>
