<svg id="Слой_1" data-name="Слой 1" xmlns="http://www.w3.org/2000/svg" viewBox="0 0 30 22">
  <defs>
    <style>
      .cls-1 {
        fill-rule: evenodd;
      }

      .cls-2 {
        fill: none;
      }
    </style>
  </defs>
  <title>mail</title>
  <path class="cls-1" d="M5,0H25a4.98826,4.98826,0,0,1,5,5V17a4.98816,4.98816,0,0,1-5,5H5a4.98821,4.98821,0,0,1-5-5V5A4.98832,4.98832,0,0,1,5,0ZM5,2H25a3.00115,3.00115,0,0,1,3,3V17a3.0012,3.0012,0,0,1-3,3H5a3.00109,3.00109,0,0,1-3-3V5A3.001,3.001,0,0,1,5,2ZM5,2"/>
  <path d="M28.551,4.109a.99776.99776,0,1,1,.898,1.782L17.238,12c-.008,0-.019.012-.027.012a5.457,5.457,0,0,1-4.422,0c-.008,0-.019-.012-.027-.012L.551,5.891a.99776.99776,0,1,1,.898-1.782l12.199,6.09a3.393,3.393,0,0,0,2.704,0Z"/>
  <path d="M10,16"/>
  <rect class="cls-2" width="30" height="22"/>
</svg>
