<svg id="Capa_1" data-name="Capa 1" xmlns="http://www.w3.org/2000/svg" viewBox="0 0 473.11735 473.80585">
  <title>phone</title>
  <g>
    <path d="M374.456,293.506c-9.7-10.1-21.4-15.5-33.8-15.5-12.3,0-24.1,5.3-34.2,15.4l-31.6,31.5c-2.6-1.4-5.2-2.7-7.7-4-3.6-1.8-7-3.5-9.9-5.3-29.6-18.8-56.5-43.3-82.3-75-12.5-15.8-20.9-29.1-27-42.6,8.2-7.5,15.8-15.3,23.2-22.8,2.8-2.8,5.6-5.7,8.4-8.5,21-21,21-48.2,0-69.2l-27.3-27.3c-3.1-3.1-6.3-6.3-9.3-9.5-6-6.2-12.3-12.6-18.8-18.6-9.7-9.6-21.3-14.7-33.5-14.7s-24,5.1-34,14.7l-.2.2-34,34.3a73.16052,73.16052,0,0,0-21.7,46.5c-2.4,29.2,6.2,56.4,12.8,74.2,16.2,43.7,40.4,84.2,76.5,127.6,43.8,52.3,96.5,93.6,156.7,122.7,23,10.9,53.7,23.8,88,26,2.1.1,4.3.2,6.3.2,23.1,0,42.5-8.3,57.7-24.8.1-.2.3-.3.4-.5,5.2-6.3,11.2-12,17.5-18.1,4.3-4.1,8.7-8.4,13-12.9,9.9-10.3,15.1-22.3,15.1-34.6,0-12.4-5.3-24.3-15.4-34.3Zm35.8,105.3c-.1,0-.1.1,0,0-3.9,4.2-7.9,8-12.2,12.2a262.94573,262.94573,0,0,0-19.3,20c-10.1,10.8-22,15.9-37.6,15.9-1.5,0-3.1,0-4.6-.1-29.7-1.9-57.3-13.5-78-23.4-56.6-27.4-106.3-66.3-147.6-115.6-34.1-41.1-56.9-79.1-72-119.9-9.3-24.9-12.7-44.3-11.2-62.6a45.9049,45.9049,0,0,1,13.8-29.7l34.1-34.1c4.9-4.6,10.1-7.1,15.2-7.1,6.3,0,11.4,3.8,14.6,7l.3.3c6.1,5.7,11.9,11.6,18,17.9,3.1,3.2,6.3,6.4,9.5,9.7l27.3,27.3c10.6,10.6,10.6,20.4,0,31-2.9,2.9-5.7,5.8-8.6,8.6-8.4,8.6-16.4,16.6-25.1,24.4-.2.2-.4.3-.5.5-8.6,8.6-7,17-5.2,22.7l.3.9c7.1,17.2,17.1,33.4,32.3,52.7l.1.1c27.6,34,56.7,60.5,88.8,80.8a136.53571,136.53571,0,0,0,12.3,6.7c3.6,1.8,7,3.5,9.9,5.3.4.2.8.5,1.2.7a21.67758,21.67758,0,0,0,9.9,2.5c8.3,0,13.5-5.2,15.2-6.9l34.2-34.2c3.4-3.4,8.8-7.5,15.1-7.5,6.2,0,11.3,3.9,14.4,7.3l.2.2,55.1,55.1C420.456,377.706,420.456,388.206,410.256,398.806Z" transform="translate(-0.34447 -0.00018)"/>
    <path d="M256.056,112.706a128.69852,128.69852,0,0,1,104.8,104.8,13.41739,13.41739,0,0,0,13.3,11.2,17.8537,17.8537,0,0,0,2.3-.2,13.51332,13.51332,0,0,0,11.1-15.6,155.6187,155.6187,0,0,0-126.8-126.8,13.57057,13.57057,0,0,0-15.6,11A13.354,13.354,0,0,0,256.056,112.706Z" transform="translate(-0.34447 -0.00018)"/>
    <path d="M473.256,209.006A256.24554,256.24554,0,0,0,264.456.206a13.48074,13.48074,0,1,0-4.4,26.6,228.87932,228.87932,0,0,1,186.6,186.6,13.41738,13.41738,0,0,0,13.3,11.2,17.85386,17.85386,0,0,0,2.3-.2A13.24883,13.24883,0,0,0,473.256,209.006Z" transform="translate(-0.34447 -0.00018)"/>
  </g>
</svg>
