<svg id="Capa_1" data-name="Capa 1" xmlns="http://www.w3.org/2000/svg" viewBox="0 0 414.22828 512">
  <title>place</title>
  <path d="M425.951,89.021C386.864,32.451,324.917,0,256.006,0S125.148,32.451,86.061,89.021C47.166,145.305,38.185,216.562,61.989,279.517c6.367,17.192,16.488,33.895,30.01,49.547L242.377,505.698a17.88836,17.88836,0,0,0,27.258,0L419.971,329.112c13.582-15.742,23.69-32.427,30.004-49.481C473.827,216.562,464.846,145.305,425.951,89.021Zm-9.5,178.072c-4.869,13.158-12.818,26.167-23.613,38.68a.64244.64244,0,0,0-.084.096L256.006,466.487,119.174,305.768c-10.789-12.502-18.738-25.51-23.655-38.794C75.833,214.909,83.304,155.993,115.51,109.382c32.307-46.76,83.519-73.578,140.496-73.578,56.976,0,108.182,26.817,140.49,73.578C428.708,155.993,436.185,214.909,416.451,267.093Z" transform="translate(-48.88584)"/>
  <path d="M256.006,106.219A100.252,100.252,0,1,0,356.258,206.471,100.36572,100.36572,0,0,0,256.006,106.219Zm0,164.699a64.448,64.448,0,1,1,64.448-64.448A64.522,64.522,0,0,1,256.006,270.918Z" transform="translate(-48.88584)"/>
</svg>
