<svg xmlns="http://www.w3.org/2000/svg" width="57.334" height="95.482" fill="#fff"><path d="M23.967 67.254c-7.402-.772-14.076-2.595-19.79-7.064-.709-.556-1.441-1.092-2.088-1.713-2.501-2.402-2.753-5.153-.774-7.988 1.693-2.426 4.535-3.075 7.489-1.682.572.27 1.117.607 1.639.97 10.649 7.316 25.278 7.518 35.967.328 1.059-.812 2.191-1.474 3.503-1.812 2.551-.655 4.93.282 6.299 2.514 1.564 2.55 1.544 5.037-.383 7.016-2.956 3.034-6.511 5.23-10.461 6.761-3.735 1.448-7.826 2.177-11.875 2.661.611.665.899.992 1.281 1.376 5.498 5.524 11.02 11.025 16.5 16.566 1.867 1.888 2.257 4.23 1.229 6.425-1.124 2.4-3.64 3.98-6.107 3.81-1.563-.108-2.782-.886-3.865-1.977-4.149-4.175-8.376-8.273-12.441-12.527-1.183-1.237-1.752-1.003-2.796.071-4.174 4.297-8.416 8.528-12.683 12.735-1.916 1.89-4.196 2.23-6.418 1.15-2.362-1.145-3.865-3.556-3.749-5.979.08-1.639.886-2.89 2.011-4.014 5.441-5.433 10.867-10.88 16.295-16.322.359-.362.694-.746 1.217-1.305z"/><path d="M28.476 48.33C15.271 48.283 4.443 37.336 4.52 24.11 4.596 10.74 15.431-.037 28.766.001c13.362.035 24.087 10.966 24.02 24.477-.068 13.2-10.971 23.897-24.31 23.851zm12.001-24.187c-.023-6.567-5.253-11.795-11.807-11.8-6.609-.008-11.886 5.315-11.835 11.942.049 6.542 5.324 11.733 11.896 11.71 6.552-.024 11.768-5.286 11.746-11.852z"/></svg>