<svg xmlns="http://www.w3.org/2000/svg" height="492.227" viewBox="0 -71 512 369.17" width="681.335" fill="#fff"><path d="M255.981 298.493h-.136c-15.45-.105-152.028-1.35-190.723-11.816-27.043-7.27-48.39-28.594-55.68-55.64-10.125-38.014-9.48-111.196-9.41-117.04-.066-5.817-.719-79.606 9.38-117.93l.03-.11C16.65-30.78 38.478-52.766 65.056-60.055c.066-.02.136-.035.203-.054 38.258-10.054 175.105-11.285 190.586-11.39h.277c15.488.105 152.43 1.352 190.77 11.832 26.972 7.25 48.304 28.547 55.613 55.56 10.504 38.35 9.531 112.3 9.426 118.542.074 6.148.687 78.675-9.38 116.878-.007.04-.019.075-.027.11-7.293 27.047-28.636 48.371-55.71 55.648-.036.012-.075.02-.11.032-38.254 10.05-175.105 11.28-190.582 11.39h-.14zM48.075 6.325c-8.89 33.828-8.05 106.676-8.043 107.41v.528c-.265 20.203.668 78.71 8.047 106.422 3.578 13.27 14.106 23.78 27.457 27.37 28.55 7.723 139.79 10.153 180.445 10.438 40.762-.285 152.165-2.648 180.504-10.062 13.31-3.602 23.801-14.078 27.403-27.364 7.386-28.117 8.312-86.34 8.043-106.414 0-.21 0-.422.004-.632.367-20.446-.356-79.637-8.012-107.57a.624.624 0 0 1-.02-.083c-3.593-13.328-14.125-23.84-27.476-27.43-28.274-7.73-139.692-10.152-180.446-10.437-40.734.285-152.027 2.645-180.453 10.05-13.097 3.634-23.863 14.52-27.453 27.774zm435.137 219.896h.012zm-278.21-31.728V32.497l140 81zm0 0"/></svg>